<svg xmlns="http://www.w3.org/2000/svg" viewBox="0 0 3000 2400" width="3000" height="2400"><g transform="translate(1270.8 130.79999999999998) rotate(0.0 334.79999999999995 161.39999999999998) scale(1.360986674688412 1.3664533170781263)"><svg width="491.996" height="236.232" viewBox="0 0 491.996 236.232"><linearGradient id="a" gradientUnits="userSpaceOnUse" x1="157.141" x2="264.487" y1="-97.057" y2="216.826"><stop offset="0" stop-color="#e6efe8"/><stop offset=".424" stop-color="#b8d3eb"/><stop offset=".792" stop-color="#94bded"/></linearGradient><g fill="#1c7e8e"><path d="M106.702 173.626H35.756a2.5 2.5 0 1 1 0-5h68.446V87.55a2.5 2.5 0 1 1 5 0v83.576a2.5 2.5 0 0 1-2.5 2.5zm98.823 32.188a2.5 2.5 0 0 1-2.5-2.5V87.55a2.5 2.5 0 1 1 5 0v115.764a2.5 2.5 0 0 1-2.5 2.5zm283.971 18.635H304.089a2.5 2.5 0 0 1-2.5-2.5V87.55a2.5 2.5 0 1 1 5 0v131.899h182.906a2.5 2.5 0 0 1 .001 5z"/><path d="M205.525 236.232c-9.765 0-17.709-7.944-17.709-17.709s7.944-17.709 17.709-17.709 17.709 7.944 17.709 17.709-7.944 17.709-17.709 17.709zm0-30.418c-7.008 0-12.709 5.701-12.709 12.709s5.701 12.709 12.709 12.709 12.709-5.701 12.709-12.709-5.701-12.709-12.709-12.709zM17.709 188.835C7.944 188.835 0 180.891 0 171.126s7.944-17.709 17.709-17.709 17.709 7.944 17.709 17.709-7.944 17.709-17.709 17.709zm0-30.418C10.701 158.417 5 164.118 5 171.126s5.701 12.709 12.709 12.709 12.709-5.701 12.709-12.709-5.701-12.709-12.709-12.709z"/></g><path d="M361.649 90.353H49.918c-5.523 0-10-4.477-10-10V10c0-5.523 4.477-10 10-10h311.731c5.523 0 10 4.477 10 10v70.353c0 5.523-4.477 10-10 10z" fill="url(#a)"/></svg></g><g transform="translate(358.8 126.0) rotate(0.0 108.6 145.79999999999998) scale(1.3481807009049942 1.3421088967643944)"><svg width="161.106" height="217.27" viewBox="0 0 161.106 217.27"><linearGradient id="b" gradientTransform="matrix(-1 0 0 1 16535.2988 0)" gradientUnits="userSpaceOnUse" x1="16674.959" x2="16268.698" y1="65.119" y2="152.791"><stop offset=".01" stop-color="#e6efe8"/><stop offset=".327" stop-color="#e4eee7"/><stop offset=".471" stop-color="#dceae4"/><stop offset=".58" stop-color="#d0e3de"/><stop offset=".672" stop-color="#bed8d6"/><stop offset=".753" stop-color="#a6cbcb"/><stop offset=".826" stop-color="#89bbbf"/><stop offset=".893" stop-color="#66a8af"/><stop offset=".954" stop-color="#3f929e"/><stop offset="1" stop-color="#1c7e8e"/></linearGradient><path d="M9.539 0h105.746l45.821 55.494v150.135c0 6.43-4.271 11.642-9.539 11.642H9.539C4.271 217.27 0 212.058 0 205.628V11.642C0 5.212 4.271 0 9.539 0z" fill="url(#b)"/><g fill="#fff9e9"><path d="M115.285 0v46.624c0 4.899 3.254 8.87 7.268 8.87h38.554zm7.199 187.965H38.623c-8.271 0-15-6.729-15-15V78.712c0-8.271 6.729-15 15-15h83.861c8.271 0 15 6.729 15 15v94.253c0 8.271-6.729 15-15 15zM38.623 73.712c-2.757 0-5 2.243-5 5v94.253c0 2.757 2.243 5 5 5h83.861c2.757 0 5-2.243 5-5V78.712c0-2.757-2.243-5-5-5z"/><path d="m66.07 136.197-19.72-8.192v-3.365l19.72-8.192v4.236l-13.806 5.655 13.806 5.623zm21.536-23.071L75.9 140.876h-4.531l11.658-27.75zm25.993 14.879-19.72 8.192v-4.236l13.806-5.639-13.806-5.639v-4.236l19.72 8.192z"/></g></svg></g><g transform="translate(492.0 307.2) rotate(0.0 361.79999999999995 271.79999999999995) scale(1.343049219153114 1.3413677213034658)"><svg width="538.774" height="405.258" viewBox="0 0 538.774 405.258"><linearGradient id="c" gradientUnits="userSpaceOnUse" x1="212.059" x2="408.889" y1="42.876" y2="591.37"><stop offset=".019" stop-color="#e6efe8"/><stop offset=".545" stop-color="#b8d3eb"/><stop offset="1" stop-color="#94bded"/></linearGradient><linearGradient id="d" gradientUnits="userSpaceOnUse" x1="165.976" x2="140.487" y1="-54.541" y2="395.14"><stop offset="0" stop-color="#fff9e9"/><stop offset=".16" stop-color="#f6f4e6" stop-opacity=".769"/><stop offset=".691" stop-color="#dbe7de" stop-opacity="0"/></linearGradient><path d="M518.774 405.258H20c-11.046 0-20-8.954-20-20V20C0 8.954 8.954 0 20 0h498.774c11.046 0 20 8.954 20 20v365.258c0 11.045-8.955 20-20 20z" fill="url(#c)"/><ellipse cx="33.302" cy="28.426" fill="#ff593b" rx="9.832" ry="9.707"/><ellipse cx="64.502" cy="28.426" fill="#f9e79b" rx="9.832" ry="9.707"/><ellipse cx="95.702" cy="28.426" fill="#1c7e8e" rx="9.832" ry="9.707"/><g fill="#fff9e9"><path d="M407.481 333.066H88.658c-5.523 0-10-4.477-10-10V211.772c0-5.523 4.477-10 10-10h318.823c5.523 0 10 4.477 10 10v111.294c0 5.522-4.477 10-10 10zm57.817-174.036H87.535a8.877 8.877 0 0 0-8.877 8.877 8.877 8.877 0 0 0 8.877 8.877h377.763a8.877 8.877 0 0 0 0-17.754zm0-36.653H87.535a8.877 8.877 0 0 0-8.877 8.877 8.877 8.877 0 0 0 8.877 8.877h377.763a8.877 8.877 0 0 0 0-17.754zm0-36.652H87.535a8.877 8.877 0 0 0-8.877 8.877 8.877 8.877 0 0 0 8.877 8.877h377.763a8.877 8.877 0 0 0 0-17.754z"/></g><path d="M0 283.113V151.838L158.111 0h159.051z" fill="url(#d)"/></svg></g><g transform="translate(1933.1999999999998 369.59999999999997) rotate(0.0 171.60000000000014 233.4) scale(1.3211992423892467 1.3247213204077464)"><svg width="259.764" height="352.376" viewBox="0 0 259.764 352.376"><linearGradient id="e" gradientUnits="userSpaceOnUse" x1="283.725" x2="-9.978" y1="-28.236" y2="362.031"><stop offset=".01" stop-color="#e6efe8"/><stop offset=".277" stop-color="#e4eee7"/><stop offset=".422" stop-color="#dce9e3"/><stop offset=".539" stop-color="#cee2dd"/><stop offset=".639" stop-color="#bbd7d5"/><stop offset=".73" stop-color="#a1c9c9"/><stop offset=".814" stop-color="#82b7bc"/><stop offset=".892" stop-color="#5da3ab"/><stop offset=".964" stop-color="#348b99"/><stop offset="1" stop-color="#1c7e8e"/></linearGradient><linearGradient id="f" gradientUnits="userSpaceOnUse" x1="138.113" x2="24.207" y1="30.767" y2="178.347"><stop offset=".057" stop-color="#e6efe8"/><stop offset=".253" stop-color="#dbe8e9"/><stop offset=".596" stop-color="#bed7ea"/><stop offset="1" stop-color="#94bded"/></linearGradient><path d="M10 352.376h239.764c5.523 0 10-4.477 10-10V10c0-5.523-4.477-10-10-10H10C4.477 0 0 4.477 0 10v332.376c0 5.523 4.477 10 10 10z" fill="url(#e)"/><path d="M217.002 320.439H42.762c-5.523 0-10-4.477-10-10v-68.345c0-5.523 4.477-10 10-10h174.241c5.523 0 10 4.477 10 10v68.345c-.001 5.523-4.478 10-10.001 10z" fill="#fff9e9"/><path d="M126.666 167.717H42.762c-5.523 0-10-4.477-10-10V42.188c0-5.523 4.477-10 10-10h83.905c5.523 0 10 4.477 10 10v115.529c-.001 5.523-4.478 10-10.001 10z" fill="url(#f)"/><g fill="#fff9e9"><circle cx="45.405" cy="195.085" r="12.643"/><circle cx="101.723" cy="195.085" r="12.643"/><circle cx="158.041" cy="195.085" r="12.643"/><circle cx="214.359" cy="195.085" r="12.643"/><path d="m179.807 118.46-27.805-11.55v-4.745l27.805-11.55v5.972l-19.465 7.974 19.465 7.928zm30.363-32.528-16.504 39.126h-6.389l16.438-39.126zm36.65 20.978-27.805 11.55v-5.972l19.466-7.951-19.466-7.951v-5.972l27.805 11.55z"/></g></svg></g><g transform="translate(888.0 493.2) rotate(0.0 409.19999999999993 350.4) scale(1.3622789875457335 1.3606604484277072)"><svg width="600.758" height="515.044" viewBox="0 0 600.758 515.044"><linearGradient id="g" gradientUnits="userSpaceOnUse" x1="200.005" x2="350.815" y1="578.631" y2="341.73"><stop offset=".127" stop-color="#fff9e9"/><stop offset=".2" stop-color="#e7ecdf"/><stop offset=".472" stop-color="#91bdbd"/><stop offset=".696" stop-color="#529ba4"/><stop offset=".858" stop-color="#2b8694"/><stop offset=".942" stop-color="#1c7e8e"/></linearGradient><linearGradient id="h" gradientUnits="userSpaceOnUse" x1="426.29" x2="167.843" y1="119.67" y2="350.897"><stop offset="0" stop-color="#fff9e9"/><stop offset=".159" stop-color="#f8f5e9"/><stop offset=".383" stop-color="#e6ebea"/><stop offset=".645" stop-color="#c8daeb"/><stop offset=".934" stop-color="#9fc3ed"/><stop offset="1" stop-color="#94bded"/></linearGradient><linearGradient id="i" gradientUnits="userSpaceOnUse" x1="341.854" x2="309.14" y1="-72.463" y2="504.694"><stop offset="0" stop-color="#fff9e9"/><stop offset=".154" stop-color="#f1f2e5" stop-opacity=".737"/><stop offset=".399" stop-color="#e1eae0" stop-opacity=".32"/><stop offset=".587" stop-color="#dbe7de" stop-opacity="0"/></linearGradient><linearGradient id="j" gradientUnits="userSpaceOnUse" x1="176.824" x2="151.366" y1="-54.297" y2="394.848"><stop offset="0" stop-color="#fff9e9"/><stop offset=".16" stop-color="#f6f4e6" stop-opacity=".769"/><stop offset=".691" stop-color="#dbe7de" stop-opacity="0"/></linearGradient><path d="M323.559 515.044H194.171l49.694-170.574h99.388z" fill="#1c7e8e"/><path d="M334.624 515.044H205.236L254.93 344.47h99.388z" fill="url(#g)"/><path d="M406.434 510.493H145.625a5 5 0 0 1-5-5v-12.402a5 5 0 0 1 5-5h260.809a5 5 0 0 1 5 5v12.402a5 5 0 0 1-5 5z" fill="#1c7e8e"/><path d="M410.971 510.493H202.957a5 5 0 0 1-5-5v-12.402a5 5 0 0 1 5-5H410.97a5 5 0 0 1 5 5v12.402a4.998 4.998 0 0 1-4.999 5z" fill="#e6efe8"/><path d="M566.728 356.893H20c-11.046 0-20-8.954-20-20V20C0 8.954 8.954 0 20 0h546.728c11.046 0 20 8.954 20 20v316.893c0 11.046-8.954 20-20 20z" fill="#1c7e8e"/><path d="M580.758 356.893H34.03c-11.046 0-20-8.954-20-20V20c0-11.046 8.954-20 20-20h546.728c11.046 0 20 8.954 20 20v316.893c0 11.046-8.954 20-20 20z" fill="#dbe7de"/><path d="M528.151 299.097H201.365c-5.523 0-10-4.477-10-10V60.346c0-5.523 4.477-10 10-10h326.786c5.523 0 10 4.477 10 10v228.751c0 5.523-4.477 10-10 10z" fill="url(#h)"/><g fill="#1c7e8e"><path d="M512.413 88.838h-295.31a5 5 0 0 1 0-10h295.31a5 5 0 0 1 0 10zm-134.546 30.294H217.103a5 5 0 0 1 0-10h160.764a5 5 0 0 1 0 10zm134.546 0h-96.562a5 5 0 0 1 0-10h96.562a5 5 0 0 1 0 10zm0 30.295H354.827a5 5 0 0 1 0-10h157.586a5 5 0 0 1 0 10zm-251.275 0h-44.035a5 5 0 0 1 0-10h44.035a5 5 0 0 1 0 10zm130.873 30.295H217.103a5 5 0 0 1 0-10h174.908a5 5 0 0 1 0 10zm120.402 30.295h-295.31a5 5 0 0 1 0-10h295.31a5 5 0 0 1 0 10zm0 30.294h-295.31a5 5 0 0 1 0-10h295.31a5 5 0 0 1 0 10zm-117.157 30.295H217.103a5 5 0 0 1 0-10h178.153a5 5 0 0 1 0 10z"/></g><path d="M285.275 322.772H81.63c-5.523 0-10-4.477-10-10V176.527c0-5.523 4.477-10 10-10h203.645c5.523 0 10 4.477 10 10v136.245c0 5.523-4.477 10-10 10z" fill="#ff593b"/><path d="M596.818 8.08 213.864 356.893H57.988L449.801.01h125.744c8.677 0 15.237 0 21.273 8.07z" fill="url(#i)"/><path d="M14.03 283.123V151.848L168.982.01h155.873z" fill="url(#j)"/></svg></g><g transform="translate(1298.3999999999999 1094.3999999999999) rotate(0.0 103.80000000000007 49.80000000000007) scale(1.5005963352488354 1.4874774115503537)"><svg width="138.345" height="66.959" viewBox="0 0 138.345 66.959"><linearGradient id="k" gradientUnits="userSpaceOnUse" x1="102.982" x2="-35.264" y1="33.335" y2="38.557"><stop offset="0" stop-color="#e6efe8"/><stop offset=".424" stop-color="#b8d3eb"/><stop offset=".792" stop-color="#94bded"/></linearGradient><clipPath id="l"><path d="M61.155 0H77.19c33.775 0 61.155 27.38 61.155 61.155v5.805H0v-5.805C0 27.38 27.38 0 61.155 0z"/></clipPath><path d="M61.155 0H77.19c33.775 0 61.155 27.38 61.155 61.155v5.805H0v-5.805C0 27.38 27.38 0 61.155 0z" fill="url(#k)"/><path clip-path="url(#l)" d="M164.411 69.459H26.066a2.5 2.5 0 0 1-2.5-2.5v-5.805C23.566 26.056 52.122-2.5 87.221-2.5h16.035c35.099 0 63.655 28.556 63.655 63.655v5.805a2.5 2.5 0 0 1-2.5 2.499zm-135.845-5h133.345v-3.305c0-32.342-26.312-58.655-58.655-58.655H87.221c-32.342 0-58.655 26.312-58.655 58.655z" fill="#313259"/></svg></g><g transform="translate(710.4 1180.8) rotate(0.0 783.0 6.600000000000023) scale(1.4944031453082802 1.3200000000000045)"><svg width="1047.91" height="10" viewBox="0 0 1047.91 10"><path d="M1042.91 10H5A5 5 0 0 1 5 0h1037.91a5 5 0 0 1 0 10z" fill="#313259"/></svg></g><g transform="translate(848.4 507.59999999999997) rotate(0.0 714.0 902.4000000000001) scale(1.3438545475077992 1.3450548664335478)"><svg width="1062.615" height="1341.804" viewBox="0 0 1062.615 1341.804"><linearGradient id="q" gradientUnits="userSpaceOnUse" x1="694.481" x2="745.361" y1="1200.585" y2="1200.585"><stop offset=".328" stop-color="#f9e79b"/><stop offset=".417" stop-color="#f5e39a"/><stop offset=".512" stop-color="#e8d795"/><stop offset=".61" stop-color="#d2c48e"/><stop offset=".71" stop-color="#b4a984"/><stop offset=".812" stop-color="#8d8678"/><stop offset=".913" stop-color="#5f5b68"/><stop offset="1" stop-color="#313259"/></linearGradient><linearGradient id="m"><stop offset="0" stop-color="#c96363"/><stop offset=".128" stop-color="#c36163"/><stop offset=".303" stop-color="#b15b61"/><stop offset=".505" stop-color="#945260"/><stop offset=".728" stop-color="#6c455d"/><stop offset=".964" stop-color="#39355a"/><stop offset="1" stop-color="#313259"/></linearGradient><linearGradient xmlns:xlink="http://www.w3.org/1999/xlink" id="r" gradientUnits="userSpaceOnUse" x1="821.696" x2="735.622" xlink:href="#m" y1="1197.752" y2="1002.597"/><linearGradient id="n"><stop offset=".48" stop-color="#dbe7de"/><stop offset=".525" stop-color="#d8e3db"/><stop offset=".564" stop-color="#ced9d3"/><stop offset=".601" stop-color="#bdc7c6"/><stop offset=".637" stop-color="#a5adb3"/><stop offset=".673" stop-color="#868c9b"/><stop offset=".708" stop-color="#60647e"/><stop offset=".741" stop-color="#34355b"/><stop offset=".743" stop-color="#313259"/></linearGradient><linearGradient xmlns:xlink="http://www.w3.org/1999/xlink" id="s" gradientUnits="userSpaceOnUse" x1="733.923" x2="638.296" xlink:href="#n" y1="1142.571" y2="459.936"/><linearGradient id="o"><stop offset=".002" stop-color="#f9e79b"/><stop offset=".159" stop-color="#f9e398"/><stop offset=".329" stop-color="#fad68f"/><stop offset=".503" stop-color="#fbc081"/><stop offset=".682" stop-color="#fca26d"/><stop offset=".861" stop-color="#fe7c53"/><stop offset="1" stop-color="#ff593b"/></linearGradient><linearGradient xmlns:xlink="http://www.w3.org/1999/xlink" id="t" gradientUnits="userSpaceOnUse" x1="750.675" x2="1078.612" xlink:href="#o" y1="1259.325" y2="1296.529"/><linearGradient id="u" gradientUnits="userSpaceOnUse" x1="132.379" x2="197.171" y1="1149.015" y2="1181.758"><stop offset="0" stop-color="#f9e79b"/><stop offset=".132" stop-color="#f5e39a"/><stop offset=".273" stop-color="#e8d795"/><stop offset=".419" stop-color="#d2c48e"/><stop offset=".568" stop-color="#b4a984"/><stop offset=".72" stop-color="#8d8678"/><stop offset=".871" stop-color="#5f5b68"/><stop offset="1" stop-color="#313259"/></linearGradient><linearGradient id="v" gradientUnits="userSpaceOnUse" x1="229.239" x2="300.115" y1="1254.909" y2="999.74"><stop offset=".471" stop-color="#c96363"/><stop offset=".523" stop-color="#c36163"/><stop offset=".593" stop-color="#b25c61"/><stop offset=".673" stop-color="#965360"/><stop offset=".76" stop-color="#6f465d"/><stop offset=".853" stop-color="#3d365a"/><stop offset=".874" stop-color="#313259"/></linearGradient><linearGradient xmlns:xlink="http://www.w3.org/1999/xlink" id="w" gradientUnits="userSpaceOnUse" x1="127.863" x2="430.076" xlink:href="#o" y1="1237.858" y2="1432.629"/><linearGradient xmlns:xlink="http://www.w3.org/1999/xlink" id="x" gradientUnits="userSpaceOnUse" x1="151.99" x2="814.826" xlink:href="#n" y1="854.568" y2="809.597"/><linearGradient xmlns:xlink="http://www.w3.org/1999/xlink" id="y" gradientUnits="userSpaceOnUse" x1="420.393" x2="1351.882" xlink:href="#n" y1="571.964" y2="965.334"/><linearGradient id="z" gradientUnits="userSpaceOnUse" x1="414.522" x2="555.523" y1="390.719" y2="486.575"><stop offset=".351" stop-color="#c96363"/><stop offset=".434" stop-color="#c36163"/><stop offset=".548" stop-color="#b15b61"/><stop offset=".679" stop-color="#945260"/><stop offset=".823" stop-color="#6c455d"/><stop offset=".977" stop-color="#39355a"/><stop offset="1" stop-color="#313259"/></linearGradient><linearGradient xmlns:xlink="http://www.w3.org/1999/xlink" id="A" gradientUnits="userSpaceOnUse" x1="658.773" x2="785.394" xlink:href="#m" y1="86.364" y2="86.364"/><linearGradient id="p"><stop offset="0" stop-color="#ff593b"/><stop offset=".005" stop-color="#ff5c3b"/><stop offset=".065" stop-color="#fc7b3c"/><stop offset=".131" stop-color="#f9963e"/><stop offset=".207" stop-color="#f7ac3e"/><stop offset=".296" stop-color="#f6bd3f"/><stop offset=".405" stop-color="#f5c940"/><stop offset=".558" stop-color="#f4d040"/><stop offset=".971" stop-color="#f4d240"/></linearGradient><linearGradient xmlns:xlink="http://www.w3.org/1999/xlink" id="B" gradientUnits="userSpaceOnUse" x1="611.753" x2="798.201" xlink:href="#p" y1="-47.925" y2="104.371"/><linearGradient xmlns:xlink="http://www.w3.org/1999/xlink" id="C" gradientUnits="userSpaceOnUse" x1="816.465" x2="712.445" xlink:href="#p" y1="264.429" y2="-7.544"/><linearGradient id="D" gradientUnits="userSpaceOnUse" x1="693.154" x2="646.942" y1="25.76" y2="-.271"><stop offset="0" stop-color="#f991b9"/><stop offset=".057" stop-color="#fa9abf"/><stop offset=".353" stop-color="#fcc6da"/><stop offset=".62" stop-color="#fee5ee"/><stop offset=".845" stop-color="#fff8fb"/><stop offset="1" stop-color="#fff"/></linearGradient><linearGradient id="E" gradientUnits="userSpaceOnUse" x1="735.252" x2="661.691" y1="138.36" y2="67.014"><stop offset=".242" stop-color="#f991b9"/><stop offset=".285" stop-color="#fa9abf"/><stop offset=".51" stop-color="#fcc6da"/><stop offset=".712" stop-color="#fee5ee"/><stop offset=".882" stop-color="#fff8fb"/><stop offset="1" stop-color="#fff"/></linearGradient><path d="M745.361 1226.239s-54.858-11.128-50.649-34.242c4.209-23.113 50.649-16.051 50.649-16.051z" fill="url(#q)"/><path d="m749.167 1248.54-42.248-102.646c-17.973-43.666 2.856-93.634 46.522-111.607s93.634 2.856 111.607 46.522l42.248 102.646c17.973 43.666-2.856 93.634-46.522 111.607s-93.634-2.856-111.607-46.522z" fill="url(#r)"/><path d="m746.391 700.677 148.288 382.62-227.141 81.377-148.574-374.857c-25.714-64.876 8.065-138.072 74.115-160.6 61.998-21.147 129.64 10.381 153.312 71.46z" fill="url(#s)"/><path d="M962.224 1341.804s-23.493-128.89-41.732-158.367c0 0-67.698-17.657-87.744 48.152 0 0-58.496-22.273-103.438-24.611 0 0-94.966-.067-96.661 52.076s1.783 82.75 1.783 82.75z" fill="url(#t)"/><path d="M956.517 1309.349H682.228a2.5 2.5 0 1 1 0-5h274.289a2.5 2.5 0 1 1 0 5zm-123.769-77.76s20.287 26.589 53.859 32.101c31.194 5.122 46.027-10.175 51.802-29.879-5.894-21.903-12.166-41.081-17.917-50.375 0 .001-67.698-17.657-87.744 48.153z" fill="#fff9e9"/><path d="M138.535 1139.08c16.85-19.8 76.746-2.324 56.734 27.453-5.332 7.933-29.961 25.346-59.939 23.051-9.531-.729-14.478-29.725 3.205-50.504z" fill="url(#u)"/><path d="m164.795 1160.786 33.216-105.914c14.13-45.057 62.111-70.127 107.167-55.997 45.057 14.13 70.127 62.111 55.997 107.167l-33.216 105.914c-14.13 45.057-62.111 70.127-107.167 55.997-45.056-14.13-70.127-62.11-55.997-107.167z" fill="url(#v)"/><path d="M362.006 1341.804s-8.179-124.696-26.418-154.173c0 0-56.783-39.881-96.84 25.958 0 0-41.804-34.509-74.894-38.659 0 0-140.888-4.387-153.205 46.308-12.136 49.946-7.181 120.565-7.181 120.565h358.538z" fill="url(#w)"/><path d="M356.801 1309.349H2.5a2.5 2.5 0 1 1 0-5h354.301a2.5 2.5 0 1 1 0 5zm-49.194-36.658c26.721 2.986 39.369-10.363 43.517-28.523-4-24.224-9.15-46.217-15.536-56.537 0 0-56.783-39.881-96.84 25.958 6.024 18.624 25.555 54.262 68.859 59.102z" fill="#fff9e9"/><path d="M530.551 716.341 381.858 1125.08l-227.556-78.764L298.35 633.589c22.23-63.693 91.533-97.681 155.504-76.263 65.732 22.009 100.394 93.874 76.697 159.015z" fill="url(#x)"/><path d="m802.38 531.666-391.517 18.435c-68.82 3.24-121.607 62.288-117.147 131.04 4.394 67.732 62.744 119.151 130.49 114.992 119.306-20.715 217.535-29.511 287.133-33.673 147.279-8.808 235.865-1.024 295.248-64.068 29.538-31.36 41.187-68.923 46.392-95.826z" fill="url(#y)"/><path d="M864.697 180.768a37.919 37.919 0 0 0 3.112-.453c9.206-1.701 66.795-8.383 123.261 76.204 61.599 92.277 78.068 261.101 69.394 316.137-.131.829-.264 1.657-.399 2.485-14.091 86.359-97.21 143.648-182.94 126.133l-171.24-34.985c-18.187-3.716-31.191-19.797-31.02-38.359l3.636-393.751c.183-19.783 15.227-36.259 34.912-38.234z" fill="#ff7eb8"/><path d="M482.063 473.428c-28.462 6.531-59.906-1.738-81.474-21.426-4.127-3.767-8.088-8.286-8.871-13.818-.861-6.085 2.287-11.95 5.43-17.232 5.969-10.031 12.373-19.914 20.526-28.267s18.214-15.159 29.558-17.908c17.866-4.329 36.499 1.725 53.517 8.678 15.093 6.167 30.051 13.216 42.638 23.579 6.5 5.351 12.407 11.696 15.822 19.391s4.074 16.904.341 24.449c-4.084 8.254-12.622 13.336-21.169 16.766-18.555 7.445-39.35 9.198-56.318 5.788z" fill="url(#z)"/><g fill="#c96363"><path d="M405.132 446.919a153.661 153.661 0 0 0-47.867 6.612c-3.652 1.112-7.339 2.373-11.157 2.382s-7.885-1.494-9.862-4.76c-2.046-3.381-1.356-7.886.746-11.233s5.385-5.755 8.676-7.942c14.519-9.647 31.337-16.718 48.769-16.647 5.182.021 10.454.7 15.152 2.888s8.784 6.033 10.437 10.945.495 10.87-3.447 14.234c-3.682 3.141-8.883 3.575-11.447 3.521z"/><path d="M347.476 436.539c-4.338 1.064-8.613-3.106-9.136-7.542-.522-4.436 1.672-8.741 4.274-12.371 6.189-8.633 14.992-15.184 24.603-19.707s20.034-7.103 30.524-8.77c7.499-1.191 15.238-1.92 22.63-.189 7.393 1.731 14.462 6.288 17.554 13.222 2.076 4.656 2.016 10.61-1.419 14.377-2.211 2.425-5.436 3.611-8.542 4.672-26.362 8.998-54.475 9.925-80.488 16.308z"/><path d="M371.669 400.04c1.588-7.579 6.772-14.07 13.129-18.491s13.831-6.967 21.356-8.797c20.988-5.103 43.23-4.964 64.152.402 4.466 1.145 8.945 2.559 12.763 5.143s6.94 6.502 7.641 11.058c.702 4.557-1.475 9.664-5.681 11.551-2.142.961-4.56 1.044-6.907 1.113l-47.568 1.382-48.474 1.408c-2.081.06-4.213.114-6.188-.544s-4.651-2.184-4.223-4.225z"/></g><path d="M336.989 442.421a2.5 2.5 0 0 1-2.115-3.83c2.43-3.869 6.131-6.517 9.41-8.695 17.141-11.39 34.02-17.121 50.162-17.065 6.445.026 11.743 1.047 16.197 3.121a2.5 2.5 0 1 1-2.111 4.532c-3.785-1.762-8.399-2.63-14.107-2.653h-.255c-15.06 0-30.911 5.459-47.121 16.23-2.845 1.891-6.041 4.161-7.943 7.19a2.492 2.492 0 0 1-2.117 1.17zm37.411-47.11a2.5 2.5 0 0 1-.63-4.919c.599-.156 14.864-3.834 32.448-4.038 10.54-.124 19.417 1.896 19.79 1.982a2.5 2.5 0 0 1-1.121 4.872c-.086-.02-8.705-1.97-18.611-1.855-16.977.197-31.101 3.839-31.242 3.876a2.474 2.474 0 0 1-.634.082zm71.878-17.566c-.263 0-.53-.042-.793-.13-.172-.057-17.351-5.722-31.914-3.9a2.499 2.499 0 1 1-.621-4.961c15.709-1.966 33.378 3.871 34.122 4.12a2.5 2.5 0 0 1-.794 4.871z" fill="#313259"/><path d="M702.339 206.884c-35.032-16.347-123.582-4.367-111.876 119.325 7.305 77.189 20.394 206.277 29.204 292.43 4.965 48.558 48.642 83.701 97.137 78.161 47.338-5.408 81.682-47.637 77.329-95.084-5.383-58.681-12.267-137.397-16.739-202.139-3.22-46.607-20.562-167.265-75.055-192.693z" fill="#ff7eb8"/><path d="M592.262 400.267s-41.5-15.742-90.8 34.514-28.749 78.986-28.749 78.986 142.192 186.69 235.968 184.043c74.519-2.103 115.04-84.113 41.405-170.887S592.262 400.267 592.262 400.267z" fill="#ff7eb8"/><path d="M614.432 543.016a2.5 2.5 0 0 1-2.479-2.202l-16.501-137.371a2.499 2.499 0 1 1 4.964-.596l16.501 137.371a2.499 2.499 0 0 1-2.485 2.798zm170.959-37.935a2.5 2.5 0 0 1-2.488-2.282L772.09 379.165a2.5 2.5 0 1 1 4.981-.435l10.813 123.634a2.5 2.5 0 0 1-2.493 2.717z" fill="#313259"/><path d="M777.238 411.856a2.5 2.5 0 0 1-2.092-3.864l17.264-26.526a2.5 2.5 0 0 1 4.19 2.728l-17.264 26.526a2.497 2.497 0 0 1-2.098 1.136z" fill="#313259"/><path d="m672.001 89.861-12.882-1.191c-6.121-.566-11.542 3.938-12.108 10.059-.566 6.121 3.938 11.542 10.059 12.108l12.882 1.191c6.121.566 11.542-3.938 12.108-10.059.566-6.121-3.938-11.542-10.059-12.108z" fill="#c96363"/><path d="M701 20.22c-20.457 3.759-34.882 28.046-39.332 56.761-4.251 27.433-7.023 71.084 15.717 74.758 24.102 3.894 80.209 11.215 102.224-47.416C801.624 45.693 757.647 9.81 701 20.22z" fill="url(#A)"/><path d="M722.083 10.347c-7.595-5.063-49.454-8.736-52.49 13.369-2.815 20.495 41.053 21.384 44.307 4.489 1.406-7.302 10.201-10.816 8.183-17.858z" fill="url(#B)"/><path d="M732.637 3.958C751.529.689 771.316.795 789.499 6.874c18.184 6.08 34.64 18.619 43.026 35.861 12.911 26.543 5.096 58.115 8.76 87.403 1.533 12.256 6.043 25.436 16.823 31.465 10.856 6.072 24.259 2.985 36.507.814s26.819-2.457 34.888 7.01c5.667 6.649 6.267 16.367 4.364 24.894-4.1 18.373-19.192 33.837-37.459 38.384s-38.848-2.038-50.116-16.578c3.523 16.7-3.299 34.584-15.366 46.654s-28.757 18.756-45.656 21.142c-14.251 2.012-29.359 1.029-42.088-5.687-12.73-6.716-22.58-19.915-22.624-34.307-4.283 6.817-13.08 9.333-21.13 9.467-20.188.337-40.069-11.791-49.007-29.895s-6.478-41.262 6.064-57.084 34.527-23.503 55.461-20.156c-17.644-42.168 12.379-62.184 9.499-90.564-1.415-13.948-7.216-21.288-16.301-28.145-10.748-8.111 7.035-20.054 27.493-23.594z" fill="url(#C)"/><path d="M699.153 80.511s-.383-33.054.458-52.401C700.38 10.413 714.57 1.571 716.985.192c.225-.128.472-.192.731-.192h20.506c1.432 0 2.04 1.826.885 2.671-5.186 3.794-13.367 11.773-14.369 24.837-1.481 19.309-2.193 52.357-2.193 52.357z" fill="url(#D)"/><ellipse cx="708.126" cy="107.187" fill="#ff7eb8" rx="35.338" ry="40.969"/><ellipse cx="703.111" cy="107.187" fill="url(#E)" rx="30.324" ry="40.969"/></svg></g><g transform="translate(1398.0 937.1999999999999) rotate(0.0 531.5999999999999 687.6000000000001) scale(1.3369599251543878 1.332795769788412)"><svg width="795.237" height="1031.816" viewBox="0 0 795.237 1031.816"><linearGradient id="F"><stop offset=".137" stop-color="#94bded"/><stop offset=".668" stop-color="#4493ae"/><stop offset=".966" stop-color="#1c7e8e"/></linearGradient><linearGradient xmlns:xlink="http://www.w3.org/1999/xlink" id="G" gradientUnits="userSpaceOnUse" x1="271.651" x2="378.938" xlink:href="#F" y1="140.792" y2="659.661"/><linearGradient xmlns:xlink="http://www.w3.org/1999/xlink" id="H" gradientUnits="userSpaceOnUse" x1="487.192" x2="676.351" xlink:href="#F" y1="54.359" y2="618.677"/><g fill="#1c7e8e"><path d="M759.619 1031.818a5.003 5.003 0 0 1-4.827-3.709L615.997 509.292a5 5 0 0 1 9.66-2.584l138.795 518.816a5 5 0 0 1-4.833 6.294zm-238.978 0a5.003 5.003 0 0 1-4.827-3.709L377.019 509.292a5 5 0 0 1 9.66-2.584l138.795 518.816a5 5 0 0 1-4.833 6.294zm-515.638 0a5 5 0 0 1-4.833-6.293l138.795-518.816a5 5 0 0 1 9.66 2.584L9.83 1028.108a5.003 5.003 0 0 1-4.827 3.71z"/></g><path d="M73.772 488v-28c0-11.046 8.954-20 20-20h509.846v68H93.772c-11.046 0-20-8.954-20-20z" fill="url(#G)"/><path d="M322.208 508 433.191 53.109C440.797 21.935 468.728 0 500.816 0h261.526c21.314 0 36.995 19.967 31.943 40.673l-98.786 404.896C686.558 482.215 653.725 508 616.005 508z" fill="url(#H)"/></svg></g><g transform="translate(588.0 2308.7999999999997) rotate(0.0 993.0 5.400000000000091) scale(1.3307870137702282 1.0800000000000183)"><svg width="1492.35" height="10" viewBox="0 0 1492.35 10"><path d="M1487.35 10H5A5 5 0 0 1 5 0h1482.35a5 5 0 0 1 0 10z" fill="#313259"/></svg></g></svg>