<svg xmlns="http://www.w3.org/2000/svg" viewBox="0 0 3000 2640" width="3000" height="2640"><g transform="translate(2817.6 856.8) rotate(0.0 -645.0 529.1999999999999) scale(-1.2008825090066189 1.2009027193911068)"><svg width="1074.21" height="881.337" viewBox="0 0 1074.21 881.337"><path d="M1072.21 879.337H2V54.004C2 25.283 25.283 2 54.004 2h966.203c28.721 0 52.004 23.283 52.004 52.004v825.333z" fill="#fff"/><g fill="#190e64"><path d="M1072.211 881.337H2a2 2 0 0 1-2-2V54.004C0 24.226 24.225 0 54.004 0h966.203c29.778 0 54.004 24.226 54.004 54.004v825.333a2 2 0 0 1-2 2zM4 877.337h1066.211V54.004c0-27.572-22.432-50.004-50.004-50.004H54.004C26.431 4 4 26.432 4 54.004z"/><path d="M1072.211 59.246H2a2 2 0 0 1 0-4h1070.211a2 2 0 0 1 0 4z"/><circle cx="74.972" cy="29.409" r="11.536"/><path d="M74.972 42.945c-7.464 0-13.536-6.072-13.536-13.536 0-7.463 6.072-13.536 13.536-13.536 7.463 0 13.535 6.072 13.535 13.536 0 7.463-6.072 13.536-13.535 13.536zm0-23.072c-5.258 0-9.536 4.278-9.536 9.536s4.278 9.536 9.536 9.536 9.535-4.278 9.535-9.536-4.277-9.536-9.535-9.536z"/><circle cx="118.533" cy="29.409" r="11.536"/><path d="M118.533 42.945c-7.463 0-13.535-6.072-13.535-13.536 0-7.463 6.072-13.536 13.535-13.536 7.464 0 13.536 6.072 13.536 13.536 0 7.463-6.072 13.536-13.536 13.536zm0-23.072c-5.258 0-9.535 4.278-9.535 9.536s4.277 9.536 9.535 9.536 9.536-4.278 9.536-9.536-4.278-9.536-9.536-9.536z"/><circle cx="162.094" cy="29.409" r="11.536"/><path d="M162.094 42.945c-7.464 0-13.536-6.072-13.536-13.536 0-7.463 6.072-13.536 13.536-13.536s13.536 6.072 13.536 13.536c0 7.463-6.072 13.536-13.536 13.536zm0-23.072c-5.258 0-9.536 4.278-9.536 9.536s4.278 9.536 9.536 9.536 9.536-4.278 9.536-9.536-4.278-9.536-9.536-9.536z"/></g></svg></g><g transform="translate(318.0 734.4) rotate(0.0 645.0 529.2) scale(1.2008825090066189 1.200902719391107)"><svg width="1074.21" height="881.337" viewBox="0 0 1074.21 881.337"><path d="M1072.21 879.337H2V54.004C2 25.283 25.283 2 54.004 2h966.203c28.721 0 52.004 23.283 52.004 52.004v825.333z" fill="#fff"/><g fill="#190e64"><path d="M1072.211 881.337H2a2 2 0 0 1-2-2V54.004C0 24.226 24.225 0 54.004 0h966.203c29.778 0 54.004 24.226 54.004 54.004v825.333a2 2 0 0 1-2 2zM4 877.337h1066.211V54.004c0-27.572-22.432-50.004-50.004-50.004H54.004C26.431 4 4 26.432 4 54.004z"/><path d="M1072.211 59.246H2a2 2 0 0 1 0-4h1070.211a2 2 0 0 1 0 4z"/><circle cx="74.972" cy="29.409" r="11.536"/><path d="M74.972 42.945c-7.464 0-13.536-6.072-13.536-13.536 0-7.463 6.072-13.536 13.536-13.536 7.463 0 13.535 6.072 13.535 13.536 0 7.463-6.072 13.536-13.535 13.536zm0-23.072c-5.258 0-9.536 4.278-9.536 9.536s4.278 9.536 9.536 9.536 9.535-4.278 9.535-9.536-4.277-9.536-9.535-9.536z"/><circle cx="118.533" cy="29.409" r="11.536"/><path d="M118.533 42.945c-7.463 0-13.535-6.072-13.535-13.536 0-7.463 6.072-13.536 13.535-13.536 7.464 0 13.536 6.072 13.536 13.536 0 7.463-6.072 13.536-13.536 13.536zm0-23.072c-5.258 0-9.535 4.278-9.535 9.536s4.277 9.536 9.535 9.536 9.536-4.278 9.536-9.536-4.278-9.536-9.536-9.536z"/><circle cx="162.094" cy="29.409" r="11.536"/><path d="M162.094 42.945c-7.464 0-13.536-6.072-13.536-13.536 0-7.463 6.072-13.536 13.536-13.536s13.536 6.072 13.536 13.536c0 7.463-6.072 13.536-13.536 13.536zm0-23.072c-5.258 0-9.536 4.278-9.536 9.536s4.278 9.536 9.536 9.536 9.536-4.278 9.536-9.536-4.278-9.536-9.536-9.536z"/></g></svg></g><g transform="translate(1695.6 975.5999999999999) rotate(0.0 572.4000000000001 516.6) scale(1.200041510869873 1.2004782392985824)"><svg width="953.967" height="860.657" viewBox="0 0 953.967 860.657"><path d="M668.73 42.822c41.311 53.411 38.991 93.114 48.671 126.789 26.267 91.384 110.908 89.771 134.612 153.945 14.058 38.06 7.799 85.597-34.406 113.348s-151.393 54.6-195.629 28.583c-57.12-33.594-76.929-357.324-46.359-388.255 30.569-30.93 93.111-34.41 93.111-34.41z" fill="#ec535b"/><path d="M672.629 478.067c-18.68 0-37.697-2.64-51.666-10.855-31.393-18.463-47.33-116.579-52.726-157.906-12.405-95.029-13.01-214.287 5.958-233.479 16.121-16.311 40.966-24.959 58.969-29.342 19.411-4.725 35.296-5.651 35.454-5.66a2.008 2.008 0 0 1 1.693.773c31.563 40.809 37.812 73.269 43.323 101.907 1.729 8.977 3.36 17.457 5.688 25.554 14.326 49.843 45.76 71.295 76.158 92.041 24.474 16.703 47.591 32.479 58.407 61.764 12.691 34.361 11.093 85.284-35.184 115.711-21.668 14.248-60.054 27.888-97.793 34.751-12.543 2.282-30.254 4.741-48.281 4.741zM667.8 44.892c-8.251.638-63.225 5.886-90.759 33.746-16.126 16.317-18.432 126.014-4.837 230.149 11.242 86.119 29.753 142.605 50.786 154.976 19.519 11.479 54.041 13.478 97.205 5.627 37.253-6.774 75.057-20.182 96.312-34.158 44.315-29.139 45.812-77.998 33.629-110.984-10.375-28.087-32.979-43.513-56.91-59.845-29.54-20.161-63.022-43.012-77.747-94.24-2.377-8.27-4.026-16.835-5.771-25.903-5.39-27.998-11.496-59.71-41.908-99.368z" fill="#ec535b"/><path d="M495.991 559.191s-91.636-6.615-113.229-11.968c-37.529-9.303-51.915-32.852-43.286-43.161 11.59-13.847 64.738-25.414 96.142-7.37s60.373 62.499 60.373 62.499z" fill="#fff"/><path d="M495.991 561.191c-.048 0-.096-.001-.144-.005-3.749-.271-92.055-6.689-113.566-12.021-23.59-5.848-41.752-18.572-46.27-32.417-1.766-5.41-1.08-10.371 1.932-13.968 6.176-7.379 23.023-13.947 41.923-16.344 21.815-2.768 42.503.339 56.749 8.523 16.479 9.468 32.208 26.145 42.502 38.468 11.114 13.307 18.477 24.562 18.55 24.674a1.998 1.998 0 0 1-1.676 3.09zm-100.365-71.692c-24.176 0-47.799 7.703-54.617 15.847-2.683 3.205-2.131 7.294-1.195 10.16 3.113 9.542 16.355 23.065 43.43 29.776 18.571 4.604 90.665 10.244 108.76 11.608-7.442-10.682-31.771-43.75-57.381-58.463-11.149-6.406-25.164-8.928-38.997-8.928z" fill="#190e64"/><path d="M312.014 776.277c-81.652 1.895-85.946-120.874-4.202-128.13 49.041-40.805 77.06-172.316 105.967-259.976 33.446-88.182 158.088-38.245 117.411 55.065-43.175 128.222-75.691 329.71-219.176 333.041z" fill="#fff"/><g fill="#190e64"><path d="M310.164 778.298c-18.401 0-34.151-6.293-45.649-18.265-10.554-10.988-16.875-26.149-17.801-42.691-.957-17.119 3.91-33.606 13.705-46.426 10.914-14.283 27.014-22.816 46.587-24.704 37.315-31.598 62.798-118.135 85.291-194.521 6.731-22.861 13.09-44.455 19.584-64.147 10.081-26.584 28.985-43.13 53.261-46.671 23.499-3.428 48.098 6.674 62.66 25.741 9.261 12.124 22.25 38.286 5.257 77.342-6.895 20.483-13.445 42.592-20.38 65.997-17.642 59.543-37.638 127.031-67.885 178.423-34.86 59.23-78.278 88.637-132.732 89.901l-.047-2 .047 2c-.636.014-1.27.021-1.898.021zM474.326 344.21a59.62 59.62 0 0 0-8.606.621c-22.774 3.323-40.556 18.966-50.069 44.049-6.444 19.548-12.794 41.111-19.517 63.941-22.749 77.257-48.533 164.821-87.042 196.863-.312.26-.697.418-1.103.455-29.247 2.596-59.647 24.664-57.281 66.98.872 15.587 6.8 29.844 16.691 40.143 11.095 11.551 26.52 17.426 44.568 17.015 52.958-1.229 95.278-29.992 129.379-87.931 29.998-50.969 49.92-118.208 67.497-177.531 6.954-23.472 13.522-45.643 20.451-66.218a2.23 2.23 0 0 1 .062-.161c16.227-37.223 3.999-61.961-4.734-73.395-11.922-15.608-30.988-24.831-50.296-24.831z"/><path d="M444.859 341.766c-29.464 18.482-39.802 55.924-53.817 88.038-10.104 23.152-28.593 51.658-51.565 74.259 25.276-27.59 127.466 10.185 156.514 55.129L520.9 475.38"/><path d="M495.991 561.191a2 2 0 0 1-1.68-.915c-20.847-32.255-79.705-59.998-118.403-63.254-15.474-1.303-27.045 1.146-33.64 7.086-.463.464-.925.922-1.39 1.379a1.999 1.999 0 0 1-2.877-2.777c.472-.515.97-1.01 1.493-1.486 20.293-20.352 38.797-47.209 49.714-72.221 2.494-5.715 4.924-11.729 7.272-17.543 11.096-27.465 22.569-55.866 47.315-71.389a2 2 0 0 1 2.125 3.388c-23.647 14.834-34.874 42.624-45.731 69.499-2.359 5.84-4.799 11.879-7.315 17.645-9.555 21.891-24.813 45.163-42.025 64.412 6.845-2.14 15.395-2.821 25.394-1.979 20.326 1.71 45.175 9.549 68.176 21.506 22.534 11.715 40.4 25.824 50.846 40.074l23.719-79.808a2 2 0 0 1 3.834 1.14l-24.909 83.812a2 2 0 0 1-1.918 1.431z"/><path d="M459.547 457.934s-13.441 46.361-17.08 73.298c-4.403 32.594 26.535 67.194 36.222 88.669 12.79 28.354 26.228 103.646 32.717 160.837h374.453c-9.429-96.104-37.745-200.288-83.39-293.298 1.271-36.961 3.827-170.92-47.703-190.137-32.886-7.808-69.67-6.855-106.595-4.386L535.106 309.61c-37.159 9.154-69.206 19.439-90.247 32.157"/><path d="M885.859 782.738H511.405a1.999 1.999 0 0 1-1.987-1.774c-8.765-77.254-23.01-139.087-32.553-160.24-2.636-5.842-7.014-12.897-11.648-20.367-12.479-20.109-28.009-45.136-24.732-69.392 3.617-26.775 17.007-73.123 17.142-73.588a2 2 0 1 1 3.842 1.114c-.134.462-13.442 46.529-17.019 73.009-3.085 22.833 12.025 47.182 24.166 66.748 4.707 7.584 9.152 14.749 11.896 20.832 12.647 28.036 25.942 101.16 32.678 159.659h370.46c-9.951-98.54-39.385-201.588-82.978-290.417a2.003 2.003 0 0 1-.203-.95c1.744-50.69.722-170.43-46.287-188.151-32.943-7.797-70.312-6.684-105.798-4.313l-112.892 16.667c-42.409 10.452-70.882 20.59-89.6 31.903a2 2 0 1 1-2.068-3.423c19.086-11.537 47.939-21.828 90.803-32.387.062-.015.124-.027.187-.037l113.065-16.692c.053-.008.105-.014.158-.017 35.865-2.397 73.677-3.521 107.19 4.436.08.019.159.043.237.072 22.673 8.456 37.791 38.74 44.933 90.012 2.764 19.838 5.71 53.542 4.086 101.567 44.003 89.809 73.604 194.03 83.365 293.535a1.997 1.997 0 0 1-1.989 2.194z"/></g><path d="m534.617 278.013 7.575 30.208c-12.249 2.9-31.136 7.456-42.344 10.975 6.16 42.839 59.069 125.292 79.663 122.866C601.629 439.456 683.6 340.6 694.484 291.144c-15.63-.071-37.206-1.27-52.446 0l-24.013-89.4" fill="#fff"/><path d="M578.6 444.114c-15.455.002-39.021-34.597-46.013-45.426-18.232-28.236-31.86-59.327-34.719-79.208a2 2 0 0 1 1.381-2.193c10.54-3.308 27.735-7.509 40.511-10.545l-7.082-28.243a1.998 1.998 0 1 1 3.879-.972l7.576 30.208a1.999 1.999 0 0 1-1.479 2.432c-12.241 2.898-29.47 7.066-40.562 10.429 3.287 19.408 16.424 48.926 33.855 75.922 17.466 27.049 34.902 44.555 43.33 43.557 9.777-1.152 35.164-25.184 60.362-57.142 27.293-34.615 46.649-67.896 52.312-89.81-3.996-.044-8.292-.145-12.794-.25-12.364-.29-26.376-.619-36.954.264a1.998 1.998 0 0 1-2.098-1.474l-24.014-89.4a2.001 2.001 0 0 1 3.863-1.038l23.583 87.798c10.555-.739 23.884-.426 35.713-.148 5.445.127 10.588.248 15.24.269a2 2 0 0 1 1.945 2.429c-4.929 22.398-24.987 57.478-53.656 93.836-12.301 15.601-25.131 29.94-36.127 40.377-12.046 11.433-21.1 17.577-26.907 18.261a9.414 9.414 0 0 1-1.145.067z" fill="#190e64"/><path d="M558.732 4.308c-50.347 7.472-115.559 35.124-124.654 81.758-8.102 41.542 15.102 50.717 15.102 50.717s6.534-32.36 20.738-53.029c14.945-21.745 88.814-79.446 88.814-79.446z" fill="#ec535b"/><path d="M449.18 138.784a1.99 1.99 0 0 1-.735-.14c-1.011-.399-24.654-10.277-16.329-52.96 4.22-21.638 20.756-41.319 47.821-56.915 21.967-12.659 50.58-22.295 78.502-26.439a2.001 2.001 0 0 1 1.526 3.555c-.736.575-73.798 57.758-88.397 79.003-13.813 20.1-20.361 51.972-20.427 52.292a1.996 1.996 0 0 1-1.961 1.604zM551.395 7.551c-51.306 9.375-107.216 37.174-115.354 78.899-6.27 32.144 6.46 43.917 11.751 47.319 1.883-8.2 8.401-33.573 20.478-51.146 12.573-18.296 64.991-60.668 83.125-75.072z" fill="#ec535b"/><path d="M618.025 201.744c28.389-16.872 49.731-57.242 48.166-88.539-2.412-48.22-50.439-85.005-107.27-82.162-20.704 1.036-39.717 7.193-55.411 16.928-30.518 15.75-54.569 61.684-57.86 116.521-4.127 68.772 26.05 123.932 67.196 126.711 32.979 2.228 55.917-24.649 64.184-33.994" fill="#fff"/><path d="M516.705 293.333c-1.315 0-2.645-.044-3.993-.135-42.886-2.897-73.219-59.484-69.058-128.826 3.248-54.13 26.901-101.593 58.868-118.143 16.513-10.226 35.978-16.168 56.299-17.185 27.96-1.397 54.721 6.536 75.357 22.342 20.734 15.881 32.812 37.8 34.009 61.717 1.64 32.746-20.405 73.28-49.141 90.358a2 2 0 0 1-2.043-3.438c27.125-16.122 48.734-55.834 47.189-86.72-1.137-22.725-12.66-43.586-32.446-58.742-19.886-15.23-45.715-22.877-72.727-21.522-19.673.984-38.504 6.735-54.456 16.63a3.074 3.074 0 0 1-.138.078c-30.792 15.892-53.61 62.052-56.78 114.863-1.963 32.723 3.856 63.633 16.388 87.039 12.269 22.916 29.652 36.253 48.947 37.557 31.26 2.105 53.582-23.164 61.981-32.679l.569-.645a2 2 0 1 1 2.996 2.65l-.566.641c-8.399 9.519-30.153 34.158-61.255 34.16z" fill="#190e64"/><path d="M463.136 87.823c26.442 42.976 81.338 70.671 142.154 64.797 12.294-1.187 33.714 37.848 33.714 37.848s39.321-14.286 48.429-75.081C697.105 50.823 642.063 2 587.818 2c-49.381 0-100.933 17.918-124.682 85.823z" fill="#ec535b"/><path d="M639.004 192.468a2 2 0 0 1-1.754-1.038c-7.906-14.404-23.256-36.838-31.367-36.838-.137 0-.27.006-.401.019-29.635 2.863-59.034-2.069-85.009-14.26-25.173-11.816-45.589-29.617-59.04-51.48a2 2 0 0 1-.185-1.708C481.476 29.326 524.06 0 587.818 0c29.36 0 58.813 13.844 78.787 37.033 19 22.059 27.099 49.99 22.805 78.65-4.784 31.935-17.965 51.04-28.18 61.443-11.158 11.364-21.125 15.069-21.544 15.221a1.983 1.983 0 0 1-.682.121zm-33.211-41.872c12.132 0 29.562 29.344 34.072 37.313 7.248-3.438 37.804-20.856 45.589-72.819 4.118-27.491-3.652-54.285-21.88-75.447C644.35 17.325 616.03 4 587.818 4c-61.542 0-102.744 28.121-122.477 83.583 13.046 20.828 32.678 37.81 56.831 49.147 25.324 11.886 54.002 16.691 82.925 13.899.23-.022.463-.033.696-.033z" fill="#ec535b"/><path d="M610.064 204.542c14.993 5.639 31.719-1.945 37.357-16.938 5.639-14.993-1.945-31.719-16.938-37.357-12.496-4.7-26.196-.214-33.677 10.091" fill="#fff"/><path d="M620.288 208.414c-3.685 0-7.376-.666-10.928-2.001a2 2 0 1 1 1.408-3.744c13.935 5.24 29.538-1.833 34.781-15.77 2.539-6.751 2.297-14.087-.682-20.656s-8.337-11.585-15.089-14.125c-11.348-4.268-24.24-.404-31.354 9.393a1.999 1.999 0 1 1-3.236-2.349c8.169-11.251 22.972-15.685 35.999-10.788 7.751 2.915 13.903 8.674 17.323 16.217s3.698 15.965.783 23.716-8.675 13.904-16.217 17.323a30.897 30.897 0 0 1-12.788 2.784z" fill="#190e64"/><path d="M615.123 198.448c-2.093 0-5.168-.884-8.394-4.871a2 2 0 0 1 3.109-2.517c2.03 2.509 4.124 3.692 5.908 3.326 1.264-.258 2.339-1.333 2.74-2.739.18-.631.454-2.235-.881-3.494-.721-.681-1.767-1.4-2.874-2.163-4.358-3.001-11.654-8.023-5.564-18.385 4.009-6.819 12.405-7.673 18.634-4.992 6.429 2.769 11.693 9.784 8.961 19.212a2 2 0 1 1-3.842-1.114c2.193-7.571-2.239-12.502-6.702-14.425-4.612-1.988-10.768-1.476-13.602 3.345-4.203 7.151-.224 9.891 4.384 13.063 1.237.852 2.407 1.657 3.352 2.548 2.032 1.918 2.772 4.722 1.981 7.5-.806 2.826-3.077 5.009-5.787 5.562a6.977 6.977 0 0 1-1.423.144zm-126.757-18.773c-.032 0-.064 0-.098-.002a2 2 0 0 1-1.902-2.093l1.011-21.129a1.99 1.99 0 0 1 2.094-1.902 2 2 0 0 1 1.902 2.093l-1.011 21.129a2 2 0 0 1-1.996 1.904z" fill="#190e64"/><path d="M459.56 188.549c-28.287-9.439-27.616 11.487-5.087 21.802" fill="#fff"/><path d="M454.471 212.352c-.279 0-.562-.059-.832-.182-12.561-5.751-19.938-15.398-17.16-22.441 3.554-9.01 19.048-4.634 23.714-3.077a2 2 0 0 1-1.265 3.794c-12.025-4.012-17.603-2.102-18.728.75-1.459 3.7 2.978 11.784 15.105 17.336a2 2 0 0 1 .985 2.651 1.998 1.998 0 0 1-1.819 1.169z" fill="#190e64"/><path d="M514.751 215.522c5.667-15.328 23.032-19.409 24.413-.844 1.207 16.222-5.735 31.702-16.63 39.071-10.896 7.369-26.701 10.277-38.769-.033-11.686-9.985-9.033-24.713 7.634-21.528 14.99 2.864 20.488-8.92 23.352-16.666z" fill="#fff"/><path d="M501.862 262.409c-6.581 0-13.349-2.006-19.396-7.173-6.848-5.85-9.588-13.652-6.819-19.414 1.148-2.391 5.026-7.72 16.127-5.6 12.687 2.425 17.784-6.422 21.101-15.395 3.401-9.2 11.269-15.392 18.294-14.402 2.717.382 9.129 2.522 9.99 14.103 1.229 16.537-5.805 32.963-17.505 40.876-5.831 3.946-13.668 7.005-21.792 7.005zm-14.823-28.664c-3.833 0-6.588 1.316-7.786 3.81-1.94 4.038.449 10.059 5.812 14.64 11.807 10.086 26.959 6.248 36.35-.103 10.551-7.136 16.883-22.112 15.757-37.266-.455-6.111-2.846-9.916-6.56-10.439-4.483-.632-10.948 3.62-13.984 11.828-2.156 5.832-7.889 21.323-25.603 17.937-1.429-.273-2.763-.407-3.986-.407z" fill="#190e64"/><path d="M312.014 776.277c-148.055 0-228.007-250.175-278.063-358.615-31.734-78.358 81.946-127.889 117.647-51.119 25.593 62.451 107.384 253.942 157.803 281.517 9.716 5.314 20.515 4.569 28.335.659" fill="#fff"/><path d="M312.014 778.277c-127.672 0-204.8-183.079-255.837-304.225-8.597-20.406-16.717-39.68-24.042-55.551-16.903-41.731 6.082-74.029 34.576-86.415 28.473-12.377 67.75-7.136 86.7 33.614 24.162 58.955 106.776 253.165 156.949 280.605 9.763 5.34 20.08 3.825 26.48.625a2 2 0 0 1 1.789 3.579c-9.321 4.658-20.889 4.394-30.189-.693-21.964-12.013-51.92-55.257-89.035-128.531-29.868-58.965-56.464-121.784-69.658-153.982-12.454-26.777-43.277-48.136-81.442-31.547-26.771 11.637-48.36 41.997-32.501 81.157 7.316 15.845 15.449 35.149 24.06 55.587 50.626 120.172 127.134 301.778 252.15 301.778a2 2 0 0 1 0 3.999z" fill="#190e64"/><path d="M68.332 372.676c-4.533-9.683-12.693-28.589-17.503-30.678s-48.071 15.006-48.8 23.267 12.698 35.555 14.804 40.501c8.184 19.218 38.34 10.563 29.078-12.824-4.213-10.638-8.578-20.105-8.578-20.105l8.578 20.105" fill="#fff"/><path d="M32.184 418.327c-6.707 0-13.687-3.548-17.191-11.778-.337-.791-.967-2.159-1.782-3.933C6.027 386.995-.541 371.637.037 365.088c.164-1.864 1.41-4.953 10.292-10.235 11.644-6.924 36.448-16.797 41.297-14.69 4.547 1.975 10.248 13.719 16.688 27.712a741.933 741.933 0 0 0 1.829 3.952 2.001 2.001 0 0 1-3.623 1.697 653.285 653.285 0 0 1-1.839-3.976c-3.614-7.852-11.134-24.189-14.649-25.716-3.248-.855-29.163 8.28-41.226 16.749-4.514 3.168-4.771 4.696-4.785 4.859-.563 6.394 9.162 27.543 12.823 35.505.838 1.82 1.483 3.225 1.828 4.037 3.791 8.903 12.675 10.898 19.111 8.254 5.556-2.283 10.53-8.768 6.276-19.536l-8.566-20.081a2 2 0 0 1 3.656-1.622 455.408 455.408 0 0 1 8.623 20.215c4.996 12.623-.653 21.512-8.47 24.723a18.755 18.755 0 0 1-7.118 1.392z" fill="#190e64"/><path d="M84.442 349.961c-4.533-9.683-12.617-28.424-17.427-30.513s-48.071 15.006-48.8 23.267 12.698 35.555 14.804 40.501c8.184 19.218 38.34 10.563 29.078-12.824-4.213-10.638-8.578-20.105-8.578-20.105l8.578 20.105" fill="#fff"/><path d="M48.371 395.777c-6.707 0-13.688-3.548-17.191-11.778-.337-.791-.966-2.158-1.781-3.931-7.185-15.622-13.753-30.98-13.175-37.529.164-1.864 1.41-4.953 10.292-10.235 11.644-6.924 36.446-16.794 41.297-14.69 4.554 1.979 9.987 13.153 16.617 27.557.653 1.419 1.266 2.75 1.824 3.942a2.001 2.001 0 0 1-3.623 1.697c-.562-1.2-1.178-2.538-1.835-3.966-3.866-8.399-11.062-24.034-14.577-25.561-3.248-.854-29.163 8.28-41.226 16.749-4.514 3.168-4.771 4.696-4.785 4.859-.564 6.394 9.162 27.544 12.824 35.506.837 1.819 1.482 3.224 1.827 4.035 3.791 8.903 12.675 10.897 19.111 8.255 5.556-2.283 10.53-8.768 6.276-19.536L51.68 351.07a2 2 0 0 1 3.656-1.622c.044.095 4.434 9.636 8.618 20.2l.006.014c4.994 12.623-.655 21.513-8.471 24.724a18.777 18.777 0 0 1-7.118 1.391z" fill="#190e64"/><path d="M107.565 339.574c-4.533-9.683-15.493-34.649-20.304-36.739-4.81-2.089-48.071 15.006-48.8 23.267-.729 8.26 12.698 35.555 14.804 40.501 8.184 19.218 38.34 10.563 29.078-12.824-4.213-10.638-6.759-15.843-6.759-15.843l6.759 15.843" fill="#fff"/><path d="M68.617 379.164c-6.707 0-13.687-3.548-17.191-11.778-.337-.79-.966-2.158-1.781-3.93-7.185-15.622-13.753-30.98-13.175-37.53.164-1.864 1.41-4.953 10.292-10.235 11.643-6.925 36.452-16.794 41.297-14.69 4.115 1.787 10.225 13.655 19.388 33.552.725 1.574 1.376 2.988 1.931 4.173a2 2 0 0 1-3.623 1.696 718.711 718.711 0 0 1-1.941-4.196c-3.782-8.212-13.828-30.028-17.348-31.556-3.245-.852-29.163 8.28-41.226 16.749-4.514 3.168-4.771 4.696-4.785 4.859-.563 6.395 9.163 27.545 12.824 35.507.837 1.819 1.482 3.224 1.827 4.035 3.792 8.903 12.675 10.897 19.111 8.255 5.556-2.283 10.53-8.768 6.276-19.536l-6.748-15.818a2 2 0 0 1 3.637-1.664c.105.215 2.627 5.395 6.819 15.979l.006.014c4.994 12.623-.655 21.513-8.471 24.724a18.805 18.805 0 0 1-7.119 1.39z" fill="#190e64"/><path d="M151.437 365.805c-18.463-45.668-47.621-98.045-58.099-104.197s-50.975 10.131-52.943 20.564c-1.433 7.596 6.7 28.346 9.459 35.542 8.046 20.989 39.183 13.416 31.461-11.245-1.199-3.831-4.053-9.984-4.053-9.984l13.201 26.408" fill="#fff"/><path d="M151.438 367.805a2 2 0 0 1-1.855-1.251c-19.872-49.153-48.093-97.841-57.257-103.222-4.645-2.729-18.93-.027-32.52 6.15-11.32 5.146-16.919 10.268-17.446 13.061-1.275 6.767 6.493 26.988 9.046 33.633l.315.822c3.773 9.841 12.814 12.534 19.791 10.106 5.895-2.05 11.499-8.528 7.896-20.037-1.147-3.664-3.932-9.68-3.96-9.74a2 2 0 0 1 3.603-1.736L92.252 322a2 2 0 1 1-3.579 1.788l-4.188-8.378c-.565 8.015-5.624 13.373-11.659 15.472-8.588 2.987-20.206-.365-24.84-12.452l-.314-.819c-4.995-13.002-10.561-28.823-9.243-35.81 1.304-6.906 14.227-13.462 19.722-15.96 12.582-5.72 29.276-10.025 36.2-5.958 11.927 7.003 41.996 63.261 58.94 105.172a2 2 0 0 1-1.853 2.75z" fill="#190e64"/><path d="M174.239 420.003s2.037-13.659 2.037-22.429-15.223-56.341-20.303-60.355c-4.535-3.584-37.019-31.501-45.679-37.881-17.397-12.815-36.679 10.793-17.707 27.651 11.207 9.959 34.948 32.454 34.948 32.454-9.674 14.423-10.863 36.924-5.209 60.56" fill="#fff"/><path d="M122.325 422.003a2 2 0 0 1-1.943-1.535c-5.847-24.441-4.166-46.429 4.576-60.709-4.97-4.698-24.083-22.73-33.699-31.274-10.979-9.756-10.015-21.566-4.473-28.411 5.017-6.196 14.882-9.571 24.694-2.345 5.771 4.251 21.805 17.794 33.512 27.682 5.981 5.052 10.706 9.042 12.222 10.24 3.597 2.843 9.511 19.602 12.716 29.338 4.154 12.622 8.347 27.592 8.347 32.586 0 8.817-1.975 22.16-2.059 22.724a2.001 2.001 0 0 1-3.957-.59c.021-.135 2.016-13.616 2.016-22.134 0-9.317-15.342-55.466-19.543-58.786-1.566-1.238-6.312-5.247-12.322-10.322-11.664-9.852-27.639-23.345-33.304-27.518-7.737-5.699-15.225-3.283-19.212 1.642-4.532 5.596-5.046 14.848 4.02 22.904 11.104 9.866 34.758 32.272 34.996 32.498.708.671.828 1.755.285 2.566-8.916 13.293-10.711 34.791-4.924 58.98a2 2 0 0 1-1.948 2.464z" fill="#190e64"/><path d="M783.641 316.521c89.755 92.378 252.935 412.682 115.145 516.633-13.581 10.11-29.855 14.043-45.448 12.292-56.337-6.178-77.525-78.572-32.615-114.058 9.862-33.955-9.316-95.769-27.101-142.321-21.968-56.445-39.721-109.838-69.219-146.237" fill="#fff"/><path d="M860.551 847.85c-2.471 0-4.952-.138-7.438-.417-26.961-2.957-48.42-21.177-55.996-47.551-7.506-26.127.869-52.757 21.856-69.658 7.382-26.596-1.774-73.839-27.221-140.444-3.148-8.09-6.245-16.207-9.239-24.057-17.793-46.646-34.6-90.704-59.666-121.635a2 2 0 0 1 3.107-2.519c25.469 31.427 42.386 75.776 60.296 122.728 2.992 7.843 6.086 15.954 9.234 24.042 25.962 67.957 35.098 116.268 27.158 143.604-.116.4-.354.753-.681 1.012-20.063 15.852-28.11 41.073-21.001 65.821 7.119 24.782 27.271 41.902 52.593 44.679 15.716 1.768 31.352-2.464 44.036-11.908 30.662-23.132 48.048-58.709 51.664-105.735 4.687-60.947-14.536-142.417-54.126-229.401-32.392-71.17-76.717-141.235-112.923-178.499a2 2 0 1 1 2.869-2.787c36.5 37.566 81.128 108.075 113.694 179.629 39.865 87.588 59.211 169.755 54.474 231.364-3.708 48.22-21.625 84.769-53.254 108.63-11.501 8.566-25.278 13.102-39.436 13.102z" fill="#190e64"/><path d="M754.766 297.303c88.372 26.811 83.419 117.599 154.118 168.194-21.063 39.374-54.381 69.385-126.702 93.745-21.158-44.889-35.139-89.267-57.779-116.413" fill="#190e64"/><path d="M782.181 561.243a2.003 2.003 0 0 1-1.81-1.148c-6.438-13.661-12.192-27.223-17.758-40.339-12.429-29.295-24.169-56.966-39.748-75.645a2 2 0 0 1 3.072-2.562c15.958 19.133 27.811 47.069 40.358 76.645 5.33 12.562 10.834 25.535 16.936 38.581 33.833-11.536 60.112-24.745 80.299-40.356 17.988-13.912 31.611-29.939 42.76-50.33-29.98-21.992-46.267-51.096-62.027-79.258-20.899-37.343-40.64-72.615-90.078-87.613a2.001 2.001 0 0 1 1.162-3.828c50.98 15.467 71.103 51.422 92.406 89.488 15.795 28.222 32.127 57.405 62.294 78.994a2.002 2.002 0 0 1 .6 2.57c-11.576 21.639-25.77 38.525-44.67 53.141-20.878 16.147-48.079 29.74-83.157 41.556a2.06 2.06 0 0 1-.639.104z" fill="#190e64"/><path d="M898.784 833.154c-26.519 19.837-58.818 28.417-91.399 24.629-105.77-10.7-162.743-126.212-252.979-157.163-81.719-23.599-52.734-141.622 30.728-124.533 84.871 19.894 133.141 90.355 204.834 139.107 20.142 13.194 25.592 14.151 32.107 15.154 9.997 1.539 23.497-2.8 31.107-6.825" fill="#fff"/><path d="M822.312 860.65c-5.035 0-10.092-.291-15.158-.88-60.373-6.107-105.146-46.136-148.443-84.846-33.982-30.382-66.08-59.079-104.952-72.413-43.304-12.502-55.19-50.191-47.87-79.905 7.317-29.704 35.353-57.547 79.647-48.479 56.702 13.291 96.537 48.333 138.711 85.432 20.99 18.465 42.695 37.559 66.847 53.981 19.985 13.09 25.223 13.897 31.286 14.831 8.829 1.357 21.706-2.301 29.867-6.617a2 2 0 0 1 1.871 3.536c-8.474 4.481-22.21 8.598-32.348 7.034-6.523-1.005-12.157-1.873-32.897-15.458-24.386-16.582-46.186-35.759-67.269-54.305-41.786-36.759-81.255-71.479-136.926-84.528-29.172-5.972-65.099 5.718-74.906 45.529-6.877 27.916 4.331 63.336 45.189 75.135 39.732 13.625 73.632 43.933 106.415 73.243 42.821 38.284 87.101 77.872 146.21 83.852 32.152 3.74 64.107-4.871 89.999-24.24a2.001 2.001 0 0 1 2.397 3.203c-22.632 16.931-49.756 25.895-77.67 25.895z" fill="#190e64"/><path d="M585.134 576.087c-21.538-3.945-70.097-9.075-77.101-8.66s-55.613 22.362-62.293 25.588c-20.997 10.14-12.278 44.208 14.046 33.467 8.433-3.441 53.428-23.811 53.428-23.811s51.013 3.488 63.661 6.513" fill="#fff"/><path d="M450.196 630.569c-8.433 0-13.935-5.078-16.39-10.597-4.216-9.473-1.229-22.82 11.063-28.757 3.556-1.717 55.108-25.314 63.045-25.784 7.438-.443 56.633 4.852 77.58 8.689a1.998 1.998 0 0 1 1.606 2.328 1.992 1.992 0 0 1-2.327 1.607c-22.177-4.062-69.979-9.017-76.623-8.63-6.401.379-53.783 21.646-61.541 25.393-10.108 4.882-12.59 15.797-9.149 23.529 2.747 6.173 9.858 11.064 21.57 6.286 8.302-3.387 52.909-23.578 53.358-23.781.302-.136.632-.195.962-.173 2.09.143 51.324 3.534 63.988 6.562a2 2 0 0 1-.93 3.891c-11.679-2.793-57.505-6.056-62.83-6.428-5.03 2.276-45.025 20.363-53.037 23.632-3.831 1.562-7.282 2.232-10.345 2.233z" fill="#190e64"/><path d="M581.787 606.603c-21.325-2.401-63.919-7.452-70.923-7.037s-55.823 21.961-62.293 25.588c-19.545 10.958-10.085 44.734 14.046 33.468 8.252-3.853 53.428-23.811 53.428-23.811s51.013 3.488 63.661 6.513" fill="#fff"/><path d="M453.324 662.805c-5.7 0-11.363-2.453-14.868-9.289-4.786-9.332-2.653-23.496 9.138-30.106 3.514-1.97 17.775-8.424 31.144-14.095 12.311-5.222 27.856-11.499 32.01-11.745 6.207-.358 38.111 3.27 61.407 5.926 3.589.41 6.924.79 9.856 1.12a2 2 0 0 1 1.764 2.211 1.995 1.995 0 0 1-2.211 1.764c-2.935-.33-6.271-.711-9.863-1.12-21.842-2.492-54.868-6.258-60.717-5.908-6.391.378-54.8 21.617-61.433 25.336-9.715 5.446-11.476 17.109-7.536 24.792 1.392 2.716 6.935 11.106 19.758 5.12 8.176-3.818 53.014-23.628 53.465-23.828.299-.131.619-.188.945-.166 2.09.143 51.324 3.534 63.989 6.562a2 2 0 0 1-.93 3.891c-11.687-2.795-57.564-6.06-62.841-6.429-4.758 2.103-45.24 20-52.938 23.593-3.056 1.427-6.605 2.371-10.139 2.371z" fill="#190e64"/><path d="M586.534 638.895c-21.325-2.401-63.919-7.452-70.923-7.037s-55.597 22.395-62.293 25.588c-20.806 9.922-10.802 44.223 14.046 33.468 8.358-3.618 53.428-23.811 53.428-23.811s51.013 3.488 63.661 6.513" fill="#fff"/><path d="M458.199 695.017c-8.164 0-13.643-5.146-16.186-10.739-4.345-9.557-1.626-22.881 10.444-28.637 4.467-2.13 55.237-25.318 63.036-25.78 6.207-.363 38.111 3.27 61.407 5.926 3.589.41 6.924.79 9.856 1.12a2 2 0 1 1-.447 3.975c-2.935-.33-6.271-.711-9.863-1.12-21.843-2.491-54.864-6.258-60.717-5.908-6.296.373-52.757 21.203-61.55 25.397-9.853 4.698-12.071 15.572-8.525 23.371 2.848 6.264 9.837 11.25 20.915 6.456 8.252-3.571 52.954-23.599 53.405-23.8a1.98 1.98 0 0 1 .954-.17c2.09.143 51.324 3.534 63.989 6.562a2 2 0 0 1-.93 3.891c-11.683-2.794-57.529-6.057-62.836-6.428-4.771 2.137-45.171 20.23-52.994 23.616-3.664 1.587-6.99 2.268-9.958 2.268z" fill="#190e64"/><path d="M592.981 669.873c-21.325-2.401-63.919-7.452-70.923-7.037s-55.668 22.251-62.293 25.589c-21.568 10.867-5.491 42.687 14.046 33.468 8.237-3.887 53.428-23.811 53.428-23.811s21.661 2.624 38.148 6.781" fill="#fff"/><path d="M466.806 725.542c-7.51 0-13.864-5.066-17.033-11.562-6.123-12.553.421-22.973 9.092-27.342 5.758-2.9 55.432-25.346 63.075-25.799 6.217-.368 38.11 3.27 61.4 5.926 3.593.41 6.93.79 9.864 1.121a2 2 0 1 1-.447 3.975c-2.937-.331-6.275-.711-9.87-1.121-21.841-2.491-54.873-6.252-60.711-5.907-6.154.364-53.241 21.211-61.511 25.378-7.207 3.631-12.259 11.847-7.298 22.016 3.266 6.695 10.789 12.01 19.59 7.857 8.166-3.853 53.023-23.633 53.476-23.833a2.02 2.02 0 0 1 1.047-.155c.218.026 21.976 2.687 38.397 6.827a2 2 0 0 1 1.45 2.428 2.007 2.007 0 0 1-2.429 1.451c-14.737-3.716-33.91-6.23-37.358-6.667-4.997 2.205-45.225 19.957-52.876 23.566-2.697 1.273-5.342 1.841-7.858 1.841z" fill="#190e64"/><path d="M444.508 518.85a1.999 1.999 0 0 1-1.982-2.285c4.004-27.836 15.025-58.991 15.137-59.303a2 2 0 0 1 3.768 1.342c-.109.308-10.999 31.098-14.945 58.531-.145.996-1 1.715-1.978 1.715zm337.675 42.393a2.002 2.002 0 0 1-1.792-1.108c-3.424-6.864-8.287-17.015-13.917-28.769-13.214-27.582-31.31-65.356-43.814-87.555a2 2 0 0 1 3.485-1.963c12.571 22.313 30.7 60.157 43.938 87.79 5.623 11.738 10.479 21.876 13.89 28.712a2 2 0 0 1-1.79 2.893z" fill="#fff"/></svg></g><g transform="translate(1914.0 1632.0) rotate(0.0 251.39999999999986 141.5999999999999) scale(1.2016835040976253 1.2000254242674624)"><svg width="418.413" height="235.995" viewBox="0 0 418.413 235.995"><path d="M402.773 233.995H123.537c-6.059 0-11.391-4-13.087-9.817L50.78 19.445C48.238 10.722 54.781 2 63.867 2h279.237c6.059 0 11.391 4 13.087 9.817l59.669 204.732c2.543 8.724-4 17.446-13.087 17.446z" fill="#fff"/><path d="M402.773 235.995H123.536c-6.903 0-13.074-4.629-15.006-11.258L48.86 20.005c-1.39-4.768-.478-9.781 2.503-13.754S58.901 0 63.867 0h279.237c6.903 0 13.074 4.629 15.007 11.257L417.78 215.99c1.39 4.768.478 9.781-2.503 13.754-2.98 3.972-7.538 6.251-12.504 6.251zM63.867 4c-3.695 0-7.086 1.695-9.304 4.651s-2.896 6.687-1.863 10.234l59.67 204.732c1.438 4.932 6.029 8.377 11.166 8.377h279.237c3.695 0 7.086-1.695 9.304-4.651a11.536 11.536 0 0 0 1.863-10.234L354.271 12.377C352.833 7.445 348.241 4 343.104 4z" fill="#190e64"/><path d="M384.359 233.995H105.122c-6.059 0-11.391-4-13.087-9.817L32.366 19.445C29.823 10.722 36.366 2 45.453 2H324.69c6.059 0 11.391 4 13.087 9.817l59.669 204.732c2.542 8.724-4.001 17.446-13.087 17.446z" fill="#fff"/><path d="M384.358 235.995H105.122c-6.904 0-13.075-4.629-15.007-11.258L30.446 20.005c-1.39-4.768-.478-9.781 2.502-13.753C35.929 2.279 40.486 0 45.453 0h279.236c6.904 0 13.075 4.629 15.007 11.257l59.669 204.732c1.39 4.768.479 9.78-2.502 13.753-2.98 3.974-7.538 6.253-12.505 6.253zM45.453 4a11.531 11.531 0 0 0-9.305 4.652 11.531 11.531 0 0 0-1.862 10.234l59.669 204.732c1.438 4.932 6.029 8.377 11.167 8.377h279.236c3.696 0 7.088-1.696 9.305-4.652a11.531 11.531 0 0 0 1.862-10.234L335.856 12.377C334.419 7.444 329.827 4 324.689 4z" fill="#190e64"/><path d="M309.352 233.995H2L63.273 124.58h307.352z" fill="#fff"/><path d="M309.352 235.995H2a2.001 2.001 0 0 1-1.746-2.977l61.273-109.415a2 2 0 0 1 1.745-1.023h307.352a2.001 2.001 0 0 1 1.746 2.977l-61.272 109.415a2.001 2.001 0 0 1-1.746 1.023zm-303.94-4h302.769l59.032-105.415H64.445z" fill="#190e64"/></svg></g><g transform="translate(58.8 849.6) rotate(0.0 750.6 552.5999999999999) scale(1.2003799763954057 1.2001368234163503)"><svg width="1250.604" height="920.895" viewBox="0 0 1250.604 920.895"><path d="M968.719 432.27c5.494-25.777 13.836-68.063 18.052-93.073 8.324-42.264 11.495-60.913 40.766-75.598 57.462-28.83 158.507-18.034 197.416 29.904 18.242 22.475 14.618 52.148 11.072 84.929-2.731 25.249-8.523 63.376-13.294 90.411-97.166 19.305-180.362-.851-254.012-36.573z" fill="#fff"/><path d="M1148.456 478.274c-60.046 0-119.681-14.653-180.61-44.205a2 2 0 0 1-1.083-2.216c5.553-26.052 13.817-67.958 18.035-92.989l.467-2.372c8.08-41.079 11.769-59.828 41.376-74.682 28.063-14.08 68.002-19.324 106.832-14.03 40.694 5.549 74.604 21.754 93.033 44.461 18.414 22.687 15.159 52.712 11.714 84.501l-.206 1.903c-2.897 26.794-8.932 65.718-13.312 90.544a2.002 2.002 0 0 1-1.58 1.614c-25.036 4.975-49.889 7.471-74.666 7.471zm-177.455-47.122c39.757 19.145 77.794 31.6 116.237 38.068 43.88 7.381 88.877 6.683 133.761-2.075 4.348-24.805 10.202-62.707 13.038-88.929l.206-1.904c3.499-32.28 6.521-60.158-10.843-81.55-17.796-21.925-50.771-37.604-90.468-43.018-38.065-5.19-77.128-.09-104.499 13.642-27.855 13.975-31.189 30.926-39.244 71.878l-.457 2.318c-4.134 24.545-12.176 65.389-17.731 91.57z" fill="#190e64"/><path d="M1167.418 311.033c6.949-17.482 16.569-55.407 23.586-58.607 7.018-3.2 45.251-.38 54.028 5.667s-1.12 66.51-3.256 76.916c-6.412 31.238-57.748 22.327-54.282-7.203 1.064-9.063 5.186-36.14 5.186-36.14" fill="#fff"/><path d="M1216.008 356.577c-1.916 0-3.821-.154-5.677-.453-7.225-1.163-13.705-4.376-18.247-9.046-5.175-5.321-7.448-12.066-6.575-19.506 1.056-8.993 5.154-35.937 5.195-36.208a2 2 0 0 1 3.955.602c-.041.27-4.13 27.146-5.178 36.071-1.637 13.944 9.99 22.287 21.485 24.137 16.876 2.719 26.654-6.865 28.852-17.57 1.098-5.35 4.055-22.818 5.688-39.88 2.823-29.489-.518-34.234-1.608-34.986-8.349-5.754-45.974-8.27-52.062-5.494-4.014 1.83-10.56 21.92-15.339 36.59-2.578 7.912-5.013 15.386-7.22 20.936a2 2 0 0 1-3.717-1.477c2.159-5.433 4.575-12.848 7.133-20.698 7.386-22.667 12.248-36.603 17.482-38.99 8.08-3.682 46.858-.454 55.992 5.839 2.828 1.948 6.249 8.076 3.321 38.661-1.648 17.221-4.641 34.888-5.752 40.304-3.076 14.986-15.612 21.168-27.728 21.168z" fill="#190e64"/><path d="M1120.21 288.639c5.578-17.937 12.238-56.45 18.99-60.154 6.752-3.705 45.104-3.695 54.327 1.69 9.222 5.385 4.03 66.387 2.705 76.916-3.978 31.611-55.871 26.489-54.699-3.203.36-9.113 2.376-36.408 2.376-36.408" fill="#fff"/><path d="M1169.557 330.58c-.981 0-1.956-.04-2.922-.12-7.321-.604-14.062-3.319-18.983-7.645-5.606-4.928-8.413-11.5-8.116-19.006.356-9.042 2.359-36.203 2.38-36.477a2 2 0 0 1 3.989.295c-.02.272-2.018 27.365-2.372 36.339-.556 14.089 11.757 21.543 23.433 22.506 16.952 1.401 25.928-8.851 27.284-19.631.681-5.416 2.278-23.05 2.587-40.174.534-29.608-3.169-34.096-4.316-34.766-8.776-5.125-46.498-4.877-52.356-1.664-3.857 2.117-8.831 22.625-12.463 37.6-1.958 8.074-3.808 15.701-5.578 21.395a2 2 0 1 1-3.82-1.187c1.733-5.573 3.568-13.139 5.511-21.15 5.613-23.145 9.386-37.398 14.427-40.164 7.77-4.263 46.701-3.887 56.298 1.716 2.969 1.734 6.852 7.59 6.298 38.292-.312 17.284-1.928 35.119-2.617 40.601-2.05 16.258-15.767 23.239-28.664 23.24z" fill="#190e64"/><path d="M1068.383 279.753c5.578-17.937 12.238-56.45 18.99-60.154 6.752-3.705 45.104-3.695 54.327 1.69 9.222 5.385 4.03 66.387 2.705 76.916-3.978 31.611-55.871 26.489-54.699-3.203.36-9.113 2.376-36.408 2.376-36.408" fill="#fff"/><path d="M1117.729 321.694c-.981 0-1.955-.041-2.921-.12-7.321-.604-14.063-3.319-18.984-7.645-5.606-4.928-8.413-11.5-8.116-19.006.357-9.043 2.36-36.203 2.381-36.477a2.01 2.01 0 0 1 2.142-1.847 2 2 0 0 1 1.847 2.142c-.02.272-2.018 27.365-2.373 36.34-.556 14.089 11.758 21.542 23.433 22.506 16.967 1.401 25.928-8.852 27.284-19.632.682-5.413 2.278-23.044 2.588-40.174.534-29.608-3.169-34.096-4.316-34.766-8.774-5.125-46.499-4.879-52.356-1.664-3.857 2.116-8.831 22.622-12.462 37.595-1.959 8.077-3.81 15.705-5.58 21.4a2 2 0 1 1-3.82-1.187c1.733-5.574 3.569-13.142 5.513-21.155 5.613-23.142 9.385-37.393 14.426-40.159 7.771-4.263 46.7-3.887 56.298 1.717 2.969 1.734 6.852 7.59 6.298 38.292-.312 17.291-1.929 35.121-2.618 40.601-2.05 16.256-15.767 23.238-28.664 23.239z" fill="#190e64"/><path d="M995.372 301.326c5.292-22.16 25.93-144.644 29.327-163.372 7.935-43.743 63.436-36.268 60.193 1.738-2.687 31.488-9.599 140.603-9.599 140.603" fill="#fff"/><path d="M995.374 303.326a2 2 0 0 1-1.947-2.465c3.945-16.52 16.486-89.206 23.979-132.635 2.498-14.474 4.471-25.907 5.327-30.629 4.42-24.362 22.869-33.279 38.126-31.241 13.756 1.83 27.769 13.096 26.027 33.506-2.654 31.106-9.526 139.468-9.596 140.559-.07 1.103-1.047 1.927-2.122 1.87a2 2 0 0 1-1.87-2.123c.069-1.091 6.944-109.497 9.602-140.646 1.065-12.477-5.543-26.937-22.568-29.202-19.184-2.555-30.894 12.72-33.663 27.99-.854 4.706-2.825 16.131-5.32 30.596-7.501 43.476-20.056 116.24-24.03 132.883a2.003 2.003 0 0 1-1.945 1.537z" fill="#190e64"/><path d="M976.876 392.32c1.985-25.481-.982-67.369 4.365-76.193 6.282-10.366 40.102-48.651 48.717-58.846 27.219-32.208 62.579 4.66 42.904 31.837-6.241 8.621-26.079 37.075-26.079 37.075 27.696.107 47.793 46.005 40.897 73.957" fill="#fff"/><path d="M1087.683 402.152a2 2 0 0 1-1.943-2.48c4.14-16.783-1.948-41.243-14.161-56.897-5.172-6.628-13.672-14.538-24.803-14.581a2 2 0 0 1-1.633-3.144c.198-.285 19.921-28.567 26.1-37.104 9.836-13.586 4.953-28.894-4.636-36.398-8.49-6.646-22.177-8.291-35.121 7.025-1.844 2.183-4.761 5.556-8.453 9.828-13.175 15.242-35.226 40.752-40.08 48.764-3.068 5.063-3.152 24.05-3.234 42.413-.051 11.471-.103 23.333-.848 32.899a1.99 1.99 0 0 1-2.149 1.839 2 2 0 0 1-1.839-2.149c.733-9.42.786-21.208.836-32.607.092-20.636.171-38.457 3.813-44.468 5.028-8.299 27.218-33.969 40.475-49.306 3.685-4.262 6.595-7.628 8.425-9.794 14.795-17.504 31.14-15.03 40.642-7.593 5.765 4.512 9.797 11.304 11.062 18.632 1.39 8.047-.617 16.309-5.651 23.262-4.983 6.885-18.835 26.699-24.044 34.16 8.756 1.206 17.09 6.63 24.293 15.863 13.106 16.798 19.368 42.165 14.891 60.316a2.006 2.006 0 0 1-1.942 1.52z" fill="#190e64"/><path d="M1224.854 457.188c-82.488 3.76-167.249-14.869-252.531-41.308-17.503 82.125-47.084 165.598-85.711 214.156-64.11-21.866-134.474 10.931-158.643 74.758-9.509 25.112-10.471 51.36-4.341 75.554h372.335c70.556-84.799 108.627-208.341 128.891-323.16z" fill="#ec535b"/><path d="M1095.963 782.348H723.627a2 2 0 0 1-1.938-1.509c-6.465-25.52-4.94-52.061 4.41-76.753 11.854-31.309 35.068-56.388 65.363-70.616 29.797-13.994 63.281-16.032 94.451-5.777 34.25-43.696 64.992-120.919 84.453-212.229a2.003 2.003 0 0 1 2.548-1.494c102.494 31.774 180.157 44.488 251.849 41.221a2.003 2.003 0 0 1 2.061 2.345c-25.067 142.044-68.578 251.084-129.323 324.091a2.002 2.002 0 0 1-1.538.721zm-370.77-4h369.83c59.634-72.04 102.497-179.368 127.425-319.054-70.981 2.865-147.889-9.779-248.629-40.857-19.774 91.732-50.942 169.222-85.643 212.844a2.005 2.005 0 0 1-2.211.648c-30.563-10.425-63.521-8.592-92.804 5.161-29.35 13.784-51.838 38.08-63.323 68.412-8.873 23.436-10.472 48.589-4.645 72.846z" fill="#ec535b"/><path d="M896.665 633.944c-40.742-56.913-58.795-169.774-77.482-275.132-29.193-164.591-269.202-127.28-249.369 38.542 23.63 135.803 47.195 284.813 121.037 382.993h276.721c13.639-54.774-7.44-118.131-70.907-146.403z" fill="#ec535b"/><path d="M967.572 782.348h-276.72a2 2 0 0 1-1.599-.798c-31.912-42.431-57.286-98.179-77.569-170.428-17.882-63.693-29.696-131.851-41.122-197.765-.907-5.237-1.812-10.458-2.718-15.66l-.016-.105c-4.69-39.224 4.728-74.148 27.237-100.996 20.017-23.875 49.01-39.689 81.639-44.53 58.926-8.741 129.27 20.822 144.448 106.397 1.06 5.977 2.117 11.977 3.178 17.99 17.55 99.532 35.695 202.445 73.648 255.887 29.99 13.493 52.419 35.635 64.887 64.064 11.381 25.953 13.742 55.936 6.647 84.427a2 2 0 0 1-1.94 1.517zm-275.72-4H966c6.428-27.182 4.028-55.649-6.799-80.337-12.129-27.659-34.035-49.181-63.35-62.24a2.002 2.002 0 0 1-.812-.663c-38.696-54.054-56.973-157.714-74.648-257.96-1.06-6.012-2.117-12.011-3.178-17.987-6.643-37.455-24.905-66.903-52.814-85.162-24.827-16.242-55.761-22.625-87.107-17.977-57.897 8.59-115.599 56.386-105.497 141.042.902 5.185 1.805 10.39 2.709 15.609 11.408 65.814 23.205 133.87 41.031 197.367 20.02 71.313 44.987 126.379 76.317 168.308z" fill="#ec535b"/><path d="M1198.115 504.991c-68.451 0-219.898-32.971-237.112-43.091a2 2 0 0 1 2.027-3.448c18.763 11.031 199.006 49.505 252.69 41.484a1.999 1.999 0 1 1 .591 3.956c-5.035.752-11.185 1.099-18.196 1.099zm-333.817 142.73a2.001 2.001 0 0 1-.564-3.92c.132-.039 13.732-4.262 26.072-21.278a2.001 2.001 0 0 1 2.793-.445 1.999 1.999 0 0 1 .445 2.793c-13.197 18.198-27.576 22.589-28.182 22.768a2.004 2.004 0 0 1-.564.082z" fill="#190e64"/><path d="M680.912 503.948c-32.207 84.281-33.985 276.4-33.985 276.4H187.119c-21.445-147.111-7.82-287.628 56.034-439.219-16.446-31.326-55.603-143.315 4.238-165.943 79.268-22.088 145.155 6.799 197.929 38.708l128.75 41.971c72.62 3.591 146.399-36.652 216.387 38.622" fill="#ec535b"/><path d="M646.927 782.348H187.119a2 2 0 0 1-1.979-1.711c-22.631-155.253-4.896-294.915 55.807-439.418-13.901-26.981-38.175-97.697-22.469-139.059 5.349-14.085 14.839-23.79 28.207-28.845.056-.021.112-.04.17-.056 81.88-22.813 149.506 8.72 199.304 38.805l128.276 41.816c19.74.949 39.963-1.403 59.525-3.676 52.381-6.086 106.546-12.378 157.962 42.92a2 2 0 0 1-2.93 2.724c-22.448-24.144-47.381-38.307-76.223-43.299-25.839-4.474-52.534-1.371-78.349 1.628-19.812 2.302-40.295 4.682-60.45 3.685a1.997 1.997 0 0 1-.521-.096L444.7 215.796a1.995 1.995 0 0 1-.415-.19c-49.111-29.695-115.796-60.904-196.27-38.518-12.207 4.641-20.886 13.554-25.799 26.492-15.394 40.537 9.148 110.793 22.707 136.619.278.529.305 1.155.072 1.706-60.48 143.585-78.336 282.309-56.146 436.443h456.102c.143-9.665.977-53.412 4.896-104.747 4.089-53.566 12.474-126.605 29.196-170.367a2 2 0 1 1 3.736 1.428c-16.55 43.307-24.873 115.925-28.942 169.219-4.415 57.832-4.907 106.006-4.911 106.486a1.998 1.998 0 0 1-1.999 1.981z" fill="#ec535b"/><path d="M481.733 358.127c-48.284-5.617-154.244-109.934-110.671-180.257 47.116-76.04 242.564-28.933 271.814 52.46 17.917 49.855-25.981 106.732-84.964 127.797" fill="#ec535b"/><path d="M557.913 360.127a2.002 2.002 0 0 1-.673-3.884c35.125-12.544 65.567-38.588 79.448-67.967 9.248-19.573 10.737-39.377 4.307-57.271-7.709-21.449-28.428-42.286-58.342-58.672-28.366-15.539-62.527-26.048-96.192-29.591-54.449-5.73-95.899 7.456-113.698 36.181-17.485 28.219-8.73 59.855 1.692 81.425 11.058 22.883 29.332 45.978 51.457 65.031 20.378 17.549 41.333 29.048 56.053 30.761a2 2 0 0 1-.463 3.974c-31.007-3.607-86.095-47.213-110.648-98.025-15.572-32.227-16.088-61.714-1.491-85.272 18.64-30.082 61.475-43.952 117.518-38.052 34.18 3.597 68.875 14.273 97.695 30.061 31.217 17.101 52.028 38.134 60.184 60.828 6.798 18.915 5.258 39.777-4.454 60.333-14.317 30.304-45.631 57.136-81.719 70.024-.224.079-.45.116-.674.116z" fill="#ec535b"/><path d="M557.913 360.127a2.002 2.002 0 0 1-.673-3.884c47.653-17.019 95.135-59.843 86.776-113.649a2 2 0 0 1 3.953-.614c3.891 25.044-3.676 49.987-21.881 72.131-16.355 19.894-40.328 36.194-67.503 45.899-.222.08-.448.117-.672.117zm-76.177 0c-.078 0-.155-.004-.234-.013-31.007-3.607-86.095-47.213-110.648-98.025-15.572-32.227-16.088-61.714-1.491-85.272a2 2 0 0 1 3.4 2.106c-17.485 28.219-8.73 59.855 1.692 81.425 11.058 22.883 29.332 45.978 51.457 65.031 20.378 17.549 41.333 29.048 56.053 30.761a2 2 0 0 1-.229 3.987zm-44.345-123.474a2 2 0 0 1-1.99-1.819c-2.1-23.144-.643-29.08 2.261-40.905a2 2 0 0 1 3.885.954c-2.797 11.393-4.201 17.112-2.161 39.59a1.999 1.999 0 0 1-1.995 2.18zM640.423 19.13C625.333 8.867 603.268 2 578.448 2c-44.8 0-81.138 21.664-81.414 48.45-17.913-3.77-36.401 10.324-41.544 31.868-5.214 21.845 5.267 43.065 23.412 47.396 18.144 4.331 37.08-9.867 42.294-31.713a48.393 48.393 0 0 0 1.33-11.826c14.588 8.26 34.259 13.335 55.922 13.335 20.305 0 38.87-4.452 53.131-11.812 16.481-.228 32.432-2.762 43.861-8.074 25.852-12.016 26.998-49.01 26.998-49.01-14.876 16.895-54.671 11.142-54.671 11.142 14.201-1.457 22.581-15.102 22.581-15.102-9.671 2.475-17.812.715-29.925-7.524z" fill="#190e64"/><path d="M485.472 132.487c-2.339 0-4.692-.269-7.033-.828-9.364-2.235-17.104-8.695-21.794-18.189-4.629-9.37-5.729-20.598-3.099-31.616 5.212-21.835 23.194-36.202 41.599-33.757 1.067-12.797 9.816-24.667 24.878-33.635C535.685 5.136 556.434 0 578.448 0c23.771 0 46.77 6.37 63.1 17.476 11.277 7.671 18.947 9.634 28.305 7.241a2 2 0 0 1 2.2 2.984c-.271.441-5.179 8.286-13.878 12.888 12.5.488 33.275-.522 42.763-11.297a2.001 2.001 0 0 1 3.5 1.384c-.012.389-.336 9.661-3.902 20.559-4.779 14.606-13.165 25.05-24.251 30.203-10.833 5.035-26.517 7.961-44.207 8.253-14.976 7.625-33.997 11.819-53.629 11.819-19.908 0-38.931-4.251-53.994-12.02a50.545 50.545 0 0 1-1.312 8.975c-4.796 20.092-20.841 34.022-37.671 34.022zm5.793-80.636c-15.003 0-29.502 12.809-33.828 30.932-2.414 10.112-1.422 20.381 2.794 28.916 4.154 8.409 10.95 14.116 19.136 16.07 17.044 4.066 34.936-9.494 39.886-30.232a46.367 46.367 0 0 0 1.274-11.336 2.002 2.002 0 0 1 2.985-1.766c14.892 8.432 34.402 13.075 54.937 13.075 19.189 0 37.732-4.116 52.215-11.589.275-.142.579-.218.89-.223 17.33-.24 32.617-3.041 43.046-7.887 10.173-4.729 17.609-14.055 22.103-27.722 1.846-5.613 2.788-10.85 3.265-14.486-6.829 5.161-16.997 8.154-30.327 8.915-11.869.677-21.742-.722-22.156-.782a2 2 0 0 1 .082-3.969c8.351-.856 14.604-6.349 18.053-10.235-8.371.825-16.182-1.854-26.319-8.749C623.615 10.117 601.435 4 578.448 4c-43.525 0-79.149 20.847-79.413 46.47a1.997 1.997 0 0 1-2.412 1.936 26.054 26.054 0 0 0-5.358-.555z" fill="#190e64"/><path d="M582.99 27.745c-65.97 0-119.449 51.928-119.449 115.984 0 6.29.523 12.461 1.516 18.48l-27.663 72.444c2.774 30.945 51.659 118.731 76.193 121.529 17.052 1.945 52.94-32.292 63.259-48.541 10.395-16.367 1.45-33.01-6.615-38.195l3.839-10.054c2.945.211 5.919.322 8.92.322 65.97 0 119.449-51.928 119.449-115.984 0-64.057-53.48-115.985-119.449-115.985z" fill="#fff"/><path d="M515.032 358.261c-.572 0-1.129-.03-1.673-.092-16.63-1.896-38.931-36.417-47.747-51.17-16.707-27.959-28.849-56.961-30.212-72.167a2.009 2.009 0 0 1 .124-.892l27.472-71.941a115.818 115.818 0 0 1-1.455-18.269c0-65.057 54.481-117.984 121.448-117.984 66.968 0 121.449 52.928 121.449 117.984s-54.481 117.984-121.449 117.984c-2.503 0-5.045-.077-7.578-.229l-2.759 7.226c4.341 3.352 7.998 8.981 9.732 15.093 1.686 5.942 2.386 15.088-3.852 24.909-9.436 14.86-44.161 49.545-63.5 49.548zm-75.603-123.333c1.503 14.58 13.615 43.239 29.617 70.019 17.461 29.219 34.614 48.09 44.767 49.248 6.866.783 18.77-5.41 32.646-16.996 11.587-9.675 23.389-22.27 28.697-30.63 9.941-15.652.833-31.043-6.007-35.44a1.999 1.999 0 0 1-.787-2.396l3.839-10.054a1.994 1.994 0 0 1 2.012-1.281c2.927.21 5.88.316 8.776.316 64.762 0 117.449-51.133 117.449-113.984S647.751 29.745 582.989 29.745c-64.761 0-117.448 51.133-117.448 113.984 0 6.059.501 12.167 1.489 18.154a2 2 0 0 1-.105 1.039z" fill="#190e64"/><path d="M493.504 130.705a29.98 29.98 0 0 0-1.258-11.883c-4.985-15.854-21.878-24.665-37.732-19.68s-24.665 21.878-19.68 37.732 21.878 24.665 37.732 19.68" fill="#fff"/><path d="M463.561 159.943c-13.646.001-26.329-8.779-30.634-22.468-2.571-8.177-1.804-16.866 2.16-24.466 3.964-7.601 10.65-13.202 18.828-15.773 8.177-2.572 16.865-1.805 24.466 2.16s13.202 10.651 15.773 18.828a31.902 31.902 0 0 1 1.341 12.674 2 2 0 0 1-3.983-.382 27.886 27.886 0 0 0-1.175-11.092c-2.25-7.158-7.153-13.011-13.807-16.48-6.654-3.47-14.261-4.141-21.417-1.891-14.776 4.647-23.018 20.448-18.371 35.224 4.646 14.775 20.447 23.02 35.224 18.372a2 2 0 1 1 1.199 3.816 32.1 32.1 0 0 1-9.604 1.478z" fill="#190e64"/><path d="M574.07 259.392c-25.067-2.159-72.129-13.821-86.862-49.479" fill="#fff"/><g fill="#190e64"><path d="M574.071 261.392a2.04 2.04 0 0 1-.174-.007c-7.749-.667-27.937-3.207-47.965-12.35-20.221-9.231-33.872-22.137-40.574-38.358a2 2 0 1 1 3.697-1.527c12.938 31.313 53.975 45.562 85.186 48.25a1.998 1.998 0 0 1 1.82 2.164 1.998 1.998 0 0 1-1.99 1.828zM471.919 146.773c-.067 0-.133-.001-.197-.003-2.879-.08-5.602-1.912-6.937-4.667-1.312-2.707-1.056-5.715.683-8.047.815-1.093 1.882-2.141 3.011-3.25 4.256-4.179 7.931-7.789 2.187-14.542-3.869-4.548-10.427-3.957-14.906-1.021-4.331 2.838-8.077 8.829-4.383 16.372a2 2 0 1 1-3.592 1.76c-4.53-9.25-.36-17.451 5.782-21.477 5.944-3.896 14.775-4.538 20.146 1.775 8.157 9.59 1.529 16.099-2.431 19.988-1.016.998-1.976 1.94-2.606 2.787-1.195 1.603-.601 3.27-.29 3.912.691 1.427 2.045 2.374 3.448 2.413l.096.001c1.932 0 3.896-1.627 5.544-4.596a2 2 0 0 1 3.498 1.941c-3.186 5.735-6.963 6.654-9.053 6.654zM647.768 41.757s39.795 5.754 54.671-11.142c0 0-1.145 36.994-26.998 49.01-18.447 8.574-48.668 9.934-73.898 5.99-25.935-4.054-62.615-5.376-79.031 59.158-2.621 10.303-10.515 7.998-12.744 0-2.006-7.198-12.766-27.094-25.194-38.439-6.782-6.192-11.894-7.161-11.897-7.161-.002-.001-4.512-14.351 10.522-31.446 32.804-37.301 79.1-49.471 115.872-46.296 36.773 3.174 48.697 20.326 48.697 20.326z"/><path d="M516.474 153.663c-3.774 0-7.237-3.345-8.633-8.353-1.906-6.841-12.322-26.277-24.615-37.499-6.205-5.664-10.892-6.667-10.938-6.677a2.01 2.01 0 0 1-1.494-1.291c-.054-.15-4.892-15.476 10.903-33.438 15.585-17.722 34.854-30.805 57.272-38.887 19.449-7.013 40.293-9.806 60.274-8.081 33.379 2.882 46.795 16.995 49.602 20.441 5.6.675 39.226 4.028 52.092-10.585a2.001 2.001 0 0 1 3.5 1.384c-.012.389-.336 9.661-3.902 20.559-4.779 14.606-13.165 25.05-24.251 30.203-17.493 8.13-46.954 10.545-75.05 6.152-13.012-2.035-28.16-3.188-41.883 3.671-16.315 8.155-27.732 25.82-34.901 54.004-1.912 7.519-6.164 8.376-7.903 8.396l-.073.001zm-42.111-56.088c2.116.701 6.399 2.572 11.56 7.282 12.841 11.722 23.761 32.163 25.771 39.379 1 3.586 3.212 5.417 4.807 5.427 1.698-.02 3.221-2.032 4.072-5.383 15.812-62.162 49.966-65.533 81.278-60.641 26.948 4.212 56.184 1.871 72.747-5.827 18.826-8.751 23.977-31.898 25.354-42.197-6.828 5.154-16.992 8.144-30.313 8.904-11.869.677-21.742-.722-22.156-.782a2.001 2.001 0 0 1-1.352-.832c-.116-.164-11.996-16.44-47.23-19.482-19.407-1.678-39.665 1.042-58.574 7.858-21.775 7.851-40.49 20.557-55.625 37.766-7.316 8.32-9.68 15.877-10.374 20.751-.521 3.65-.214 6.395.035 7.777zm134.354 53.771-.068-.001a2 2 0 0 1-1.932-2.066l.627-18.574a2.001 2.001 0 0 1 3.998.134l-.627 18.574a2.001 2.001 0 0 1-1.998 1.933zm62.284-3.879-.068-.001a2 2 0 0 1-1.932-2.066l.626-18.575c.037-1.104.937-1.946 2.066-1.932a2 2 0 0 1 1.932 2.066l-.626 18.575a2 2 0 0 1-1.998 1.933zM658.127 182.2a2 2 0 0 1-1.414-3.414c6.177-6.177 6.363-11.694 3.808-14.422-3.216-3.436-10.888-3.044-19.318 4.349a1.999 1.999 0 1 1-2.636-3.008c10.822-9.491 20.48-8.766 24.875-4.075 3.872 4.135 4.168 11.918-3.899 19.985-.393.39-.904.585-1.416.585z"/></g><path d="M597.044 194.337c-1.336-15.03-24.089-19.253-26.866 2.265-1.647 12.765 4.617 21.619 13.966 27.463 10.555 6.597 24.571 5.472 33.902 1.995 11.918-4.441 9.336-16.934-2.193-16.522-10.236.365-18.134-7.616-18.809-15.201z" fill="#fff"/><path d="M602.313 230.832c-6.504 0-13.329-1.384-19.229-5.071-11.312-7.07-16.461-17.242-14.89-29.415 1.003-7.777 5.718-16.793 15.749-16.589 6.708.133 14.277 5.226 15.093 14.403.585 6.59 7.615 13.686 16.745 13.378 7.097-.25 11.071 3.75 11.883 7.83.851 4.283-1.577 9.829-8.92 12.565-4.503 1.679-10.325 2.899-16.431 2.899zm-18.646-47.077c-4.782 0-10.257 3.431-11.505 13.103-1.376 10.659 3.013 19.243 13.042 25.512 10.207 6.378 23.695 4.964 32.145 1.816 5.491-2.046 6.875-5.608 6.393-8.037-.586-2.95-3.666-4.756-7.816-4.612-11.591.413-20.111-8.469-20.872-17.021a11.613 11.613 0 0 0-11.188-10.758c-.066-.003-.134-.003-.199-.003z" fill="#190e64"/><path d="M346.246 413.37c-60.05 72.998-95.31 138.397-89.916 201.774 22.226 78.602-40.629 159.734-121.988 158.668-161.594-11.201-149.198-206.477-98.727-331.836 30.786-77.265 83.266-157.053 151.768-230.745 16.835-18.11 37.748-30.16 60.006-36.051" fill="#ec535b"/><path d="M135.945 775.823c-.543 0-1.085-.004-1.629-.011a1.42 1.42 0 0 1-.112-.005c-48.68-3.375-84.856-23.443-107.525-59.647C6.362 683.714-2.63 638.071.674 584.168c2.832-46.217 14.582-96.98 33.086-142.939 30.874-77.484 83.491-157.489 152.159-231.359 16.526-17.778 37.605-30.442 60.959-36.623a2 2 0 1 1 1.023 3.867c-22.622 5.987-43.042 18.255-59.053 35.479-68.335 73.511-120.68 153.086-151.375 230.123-18.35 45.578-30 95.898-32.807 141.697-3.252 53.066 5.532 97.889 25.402 129.624 21.944 35.046 57.052 54.485 104.357 57.776 38.323.495 74.15-17.353 98.371-48.941 24.105-31.437 31.981-70.503 21.608-107.184a1.98 1.98 0 0 1-.068-.375c-4.979-58.516 22.89-121.189 90.364-203.214a1.999 1.999 0 1 1 3.089 2.541c-66.687 81.066-94.292 142.804-89.484 200.145 10.64 37.853 2.504 78.126-22.336 110.521-24.664 32.168-61.044 50.516-100.024 50.517z" fill="#ec535b"/><path d="M255.809 606.836a2 2 0 0 1-1.999-1.967c-.48-29.391 7.29-59.916 23.755-93.321 14.76-29.943 36.72-62.473 67.137-99.448a1.998 1.998 0 0 1 2.815-.274c.854.702.976 1.962.274 2.815-30.22 36.735-52.017 69.012-66.639 98.675-16.178 32.822-23.813 62.747-23.343 91.487a2 2 0 0 1-1.968 2.032l-.032.001z" fill="#190e64"/><path d="M590.307 622.637s-49.43 15.453-56.734 119.66c-4.052 57.815 10.047 138.589 40.497 135.555 30.449-3.034 49.364-3.009 66.296-3.021 27.779-.019 59.438 7.536 81.232 16.565 16.863 6.986 80.641-228.992 27.148-251.234-43.499-18.087-102.812-25.67-158.439-17.525z" fill="#fff"/><path d="M722.369 893.556a3.985 3.985 0 0 1-1.537-.313c-24.074-9.974-55.608-16.412-80.366-16.412h-.706c-16.643.011-35.505.022-65.492 3.01-5.9.584-11.446-1.596-16.488-6.493-20.471-19.879-29.539-83.576-26.201-131.192 2.102-29.991 9.278-71.686 31.528-100.003 13.498-17.18 26.074-21.261 26.604-21.426a1.92 1.92 0 0 1 .307-.07c54.194-7.936 113.822-1.334 159.497 17.657 13.862 5.764 28.489 28.416 19.454 103.6-6.002 49.949-20.536 103.535-31.791 130.653-4.132 9.953-9.448 20.988-14.809 20.989zm-81.904-20.725c25.243 0 57.376 6.558 81.898 16.717h.001c.075 0 3.746-.316 11.718-19.977 5.529-13.637 11.47-32.56 16.727-53.285 9.868-38.906 15.993-78.51 16.803-108.656.998-37.174-5.791-59.866-19.633-65.621-44.984-18.703-103.739-25.212-157.2-17.419-1.341.479-12.729 4.889-24.766 20.341-21.443 27.527-28.392 68.218-30.444 97.506-1.678 23.937-.218 51.191 4.007 74.775 4.599 25.671 12.053 44.589 20.99 53.268 4.157 4.038 8.636 5.85 13.306 5.382 30.184-3.007 49.151-3.019 65.886-3.03h.608l.099-.001z" fill="#190e64"/><path d="M748.746 640.162c27.288 12.189 53.718 23.19 59.328 41.89s-6.693 49.101-13.635 63.038c-12.165 24.422-59.706 9.24-50.555-19.553a410.928 410.928 0 0 1 3.467-10.344" fill="#fff"/><path d="M772.716 759.301c-4.579 0-9.295-.924-13.77-2.737-11.916-4.828-21.784-16.482-16.969-31.634 1.613-5.073 3.468-10.349 3.486-10.402a2.001 2.001 0 0 1 3.774 1.328c-.019.052-1.854 5.273-3.447 10.286-4.318 13.585 5.197 22.881 14.658 26.714 15.236 6.172 27.73.315 32.2-8.659 2.195-4.408 7.701-16.096 11.388-29.376 3.757-13.534 4.471-24.366 2.122-32.195-5.092-16.973-29.104-27.667-54.524-38.987l-3.703-1.651a2 2 0 0 1 1.631-3.652l3.699 1.649c26.283 11.705 51.109 22.761 56.729 41.492 6.571 21.907-10.311 57.577-13.762 64.504-3.229 6.481-8.897 10.815-16.395 12.534a31.879 31.879 0 0 1-7.117.786z" fill="#190e64"/><path d="M725.101 687.005c28.215 12.603 64.43 26.747 70.23 46.082s-3.848 48.612-9.441 63.709c-9.801 26.454-60.067 16.17-54.138-14.501 1.006-5.206 5.529-22.413 5.529-22.413" fill="#fff"/><path d="M761.318 813.965c-3.421 0-6.913-.477-10.332-1.434-12.805-3.583-24.325-14.44-21.198-30.616 1.008-5.211 5.373-21.836 5.559-22.542a2 2 0 0 1 3.869 1.016c-.045.171-4.518 17.203-5.5 22.284-2.825 14.614 8.118 23.142 18.349 26.005 16.236 4.544 28.36-2.89 31.95-12.579 10.315-27.841 13.479-48.849 9.4-62.439-4.976-16.59-34.625-29.633-60.783-41.141-2.833-1.247-5.627-2.476-8.346-3.69a2 2 0 0 1 1.631-3.652c2.713 1.212 5.499 2.438 8.325 3.681 26.951 11.856 57.498 25.295 63.005 43.653 4.333 14.442 1.143 36.304-9.482 64.979-2.582 6.971-7.869 12.032-15.289 14.637-3.488 1.225-7.277 1.838-11.158 1.838z" fill="#190e64"/><path d="M704.506 741.414c28.215 12.603 64.43 26.747 70.23 46.082s-1.511 49.5-7.105 64.597c-9.801 26.454-60.096 16.164-54.138-14.501 1.142-5.875 5.529-22.413 5.529-22.413" fill="#fff"/><path d="M743.054 869.261c-3.43 0-6.93-.479-10.357-1.439-12.799-3.589-24.307-14.446-21.165-30.611 1.141-5.874 5.378-21.866 5.558-22.544a2 2 0 0 1 3.867 1.026c-.044.165-4.383 16.54-5.499 22.281-2.837 14.601 8.096 23.13 18.319 25.997 16.252 4.555 28.388-2.875 31.98-12.572 4.98-13.445 12.866-43.983 7.063-63.328-4.977-16.59-34.627-29.634-60.786-41.142a1648.358 1648.358 0 0 1-8.344-3.689 2 2 0 0 1 1.631-3.653 1680.15 1680.15 0 0 0 8.323 3.68c26.952 11.856 57.5 25.295 63.008 43.653 2.672 8.909 2.935 20.605.781 34.763-1.569 10.314-4.532 21.941-7.927 31.104-2.583 6.974-7.876 12.036-15.304 14.64-3.484 1.222-7.27 1.834-11.148 1.834z" fill="#190e64"/><path d="M689.785 800.914c25.978 11.604 63.173 25.333 68.514 43.135 3.15 10.5 3.311 29.13-1.277 41.651-3.58 9.77-32.328 25.352-42.626 30.502-24.959 12.48-56.278-21.598-35.087-37.219 0 0 12.238 2.028 24.17 5.684" fill="#fff"/><path d="M702.95 920.896c-11.805 0-23.153-7.296-28.897-16.675-6.206-10.135-4.647-20.422 4.068-26.847.434-.32.976-.452 1.514-.363.123.021 12.508 2.092 24.429 5.746a1.999 1.999 0 0 1 1.326 2.498 1.996 1.996 0 0 1-2.498 1.326c-9.878-3.027-20.096-4.947-23.061-5.476-6.4 5.17-7.302 12.969-2.367 21.027 8.775 14.33 25.539 17.534 36.036 12.282 18.203-9.101 38.999-22.184 41.644-29.4 4.535-12.379 4.175-30.603 1.239-40.389-4.365-14.551-33.312-27.078-56.571-37.144-3.799-1.645-7.388-3.197-10.842-4.74a2 2 0 0 1 1.631-3.652c3.433 1.533 7.012 3.082 10.8 4.721 25.271 10.937 53.914 23.332 58.814 39.666 3.188 10.629 3.567 29.587-1.315 42.914-4.184 11.417-37.062 28.328-43.61 31.603a27.422 27.422 0 0 1-12.34 2.903z" fill="#190e64"/><path d="M574.07 877.852c-27.87 1.875-78.373 4.514-106.576 4.514-108.007.146-235.839-13.966-324.261-57.099-149.802-69.443-190.947-247.413-41.285-299.563 60.873-16.21 123.203 14.955 147.856 70.835 57.228 31.943 237.689 39.827 340.503 26.098-38.788 54.934-39.651 190.415-16.237 255.215z" fill="#ec535b"/><path d="M465.87 884.367c-77.735 0-221.521-7.549-323.515-57.303-42.354-19.633-77.77-48.596-102.382-83.74-23.375-33.377-35.315-70.62-33.623-104.869 1.257-25.423 9.628-48.134 24.881-67.503 16.365-20.781 39.937-36.641 70.059-47.137.047-.017.095-.031.144-.044 29.707-7.91 61.278-4.886 88.898 8.517 27.13 13.166 48.779 35.459 61.026 62.825 26.021 14.228 81.238 25.008 151.732 29.606 65.839 4.295 135.729 2.775 186.951-4.065a2 2 0 0 1 1.899 3.136c-17.414 24.663-28.742 69.437-31.08 122.842-2.138 48.843 3.645 98.863 15.09 130.54a1.999 1.999 0 0 1-1.747 2.675c-25.968 1.747-77.901 4.519-106.709 4.519l-1.624.001zM102.535 527.618c-29.356 10.241-52.288 25.653-68.161 45.81-14.729 18.704-22.812 40.648-24.028 65.225-1.649 33.366 10.036 69.724 32.904 102.377 24.209 34.567 59.072 63.068 100.823 82.423 102.02 49.766 246.452 57.034 323.418 56.914 27.773 0 77.161-2.588 103.817-4.335-11.026-32.222-16.548-81.504-14.444-129.573 2.293-52.387 12.669-95.173 29.324-121.271-31.807 3.986-69.529 5.959-108.277 5.959-92.129.002-190.172-11.142-229.082-32.86a1.999 1.999 0 0 1-.855-.939c-11.814-26.781-32.906-48.607-59.388-61.459-26.734-12.976-57.291-15.91-86.051-8.271z" fill="#ec535b"/><path d="M478.56 632.091c-29.5 0-59.926-1.323-89.467-4.001-74.297-6.734-131.885-21.055-157.999-39.289a2 2 0 0 1 2.29-3.28c25.561 17.848 82.445 31.912 156.07 38.585 70.002 6.345 144.977 5.057 200.55-3.447a2 2 0 1 1 .605 3.954c-32.398 4.958-71.341 7.478-112.049 7.478zm14.59-127.463a1.999 1.999 0 0 1-1.924-2.55c5.579-19.529 10.787-101.715 3.231-143.596a1.999 1.999 0 1 1 3.935-.71c7.19 39.849 3.015 123.23-3.321 145.405a2 2 0 0 1-1.921 1.451zm42.507-18.529a1.999 1.999 0 0 1-1.988-1.805c-2.004-20.415-5.312-87.51 5.4-126.695a2 2 0 0 1 3.859 1.055c-4.406 16.114-6.933 39.739-7.307 68.322-.31 23.618.898 45.427 2.027 56.927a2 2 0 0 1-1.991 2.196z" fill="#190e64"/><path d="M524.25 882.658a1.998 1.998 0 0 1-1.866-1.282c-24.988-64.893-21.268-205.266 16.621-254.579a2 2 0 1 1 3.172 2.438c-17.1 22.255-28.434 65.915-31.098 119.785-2.482 50.219 3.279 100.384 15.037 130.919a2 2 0 0 1-1.866 2.719zm133.073-263.742a2.001 2.001 0 0 1-1.986-2.267c3.835-28.551 19.412-104.686 23.779-113.583a2 2 0 1 1 3.59 1.763c-3.851 7.845-19.381 82.397-23.404 112.353a2 2 0 0 1-1.979 1.734z" fill="#190e64"/></svg></g><g transform="translate(1257.6 524.4) rotate(0.0 130.20000000000005 46.80000000000001) scale(1.238784811090074 1.2420546981780547)"><svg width="210.206" height="75.359" viewBox="0 0 210.206 75.359"><path d="M105.103 54.977 122.822 2H87.384z" fill="#fff"/><path d="M105.103 56.977c-.86 0-1.624-.55-1.896-1.366L85.488 2.634A2 2 0 0 1 87.385 0h35.437a2 2 0 0 1 1.896 2.635l-17.719 52.977a1.999 1.999 0 0 1-1.896 1.365zM90.162 4l14.94 44.671L120.044 4z" fill="#190e64"/><path d="M51.989 73.359 27.058 23.37 2 48.428z" fill="#fff"/><path d="M51.988 75.359c-.303 0-.607-.069-.892-.21L1.108 50.217a1.997 1.997 0 0 1-.521-3.203l25.058-25.058a2.002 2.002 0 0 1 3.204.522l24.932 49.989a2 2 0 0 1-1.793 2.892zM5.378 47.878 47.53 68.901 26.508 26.748z" fill="#190e64"/><path d="m158.217 73.359 49.989-24.931-25.058-25.058z" fill="#fff"/><path d="M158.218 75.359a2 2 0 0 1-1.791-2.893l24.932-49.989a2.002 2.002 0 0 1 3.204-.522l25.058 25.058a2 2 0 0 1-.521 3.203l-49.989 24.931c-.285.143-.59.212-.893.212zm25.48-48.611L162.676 68.9l42.152-21.022z" fill="#190e64"/></svg></g><g transform="translate(1731.6 1176.0) rotate(0.0 47.39999999999998 152.39999999999998) scale(1.2285999403843906 1.2093558434344434)"><svg width="77.161" height="252.035" viewBox="0 0 77.161 252.035"><path d="m3.529 21.528-1.22-5.21C.842 10.049 4.734 3.777 11.003 2.31c6.269-1.468 12.541 2.425 14.008 8.694l1.22 5.21z" fill="#fff"/><g fill="#190e64"><path d="M3.53 23.528a2.004 2.004 0 0 1-1.948-1.544l-1.22-5.21C-1.354 9.441 3.214 2.079 10.547.362c7.337-1.718 14.695 2.852 16.412 10.185l1.22 5.21a2 2 0 0 1-1.491 2.403L3.986 23.475a1.965 1.965 0 0 1-.456.053zM13.66 4.001c-.727 0-1.464.083-2.201.255-5.186 1.214-8.416 6.42-7.202 11.605l.764 3.263 18.808-4.403-.764-3.263c-1.041-4.447-5.021-7.457-9.405-7.457z"/><path d="m3.53 21.53 22.702-5.314 48.922 209.016-22.703 5.313z"/><path d="M52.456 232.539a2 2 0 0 1-1.945-1.544L1.582 21.984a2 2 0 0 1 1.491-2.404l22.702-5.314a2 2 0 0 1 2.403 1.491l48.929 209.01a2 2 0 0 1-1.491 2.404l-22.702 5.314a1.942 1.942 0 0 1-.458.054zM5.933 23.02 53.95 228.135l18.808-4.403L24.741 18.617zm63.053 226.974a1.528 1.528 0 0 1-1.836-1.14l-1.71-7.304a1.528 1.528 0 1 1 2.976-.696l1.71 7.304a1.528 1.528 0 0 1-1.14 1.836z"/><path d="M68.638 252.035a3.535 3.535 0 0 1-3.436-2.724l-1.71-7.304a3.534 3.534 0 0 1 2.631-4.239 3.532 3.532 0 0 1 4.24 2.63l1.709 7.305a3.532 3.532 0 0 1-3.434 4.332zm.349-2.041h.01z"/></g><path d="m52.458 230.538 12.669 14.639 5.179-1.212 4.855-18.741z" fill="#fff"/><path d="M65.127 247.178a2.004 2.004 0 0 1-1.513-.691l-12.669-14.639a2 2 0 0 1 1.056-3.256l22.702-5.314a2.002 2.002 0 0 1 2.393 2.449l-4.854 18.741a2.002 2.002 0 0 1-1.48 1.446l-5.179 1.212a2.078 2.078 0 0 1-.456.052zm-8.991-15.446 9.713 11.223 2.824-.661 3.722-14.368z" fill="#190e64"/><path d="M57.791 202.173c-3.178.744-6.387-1.248-7.131-4.426l-10.532-44.989c-.744-3.178 1.248-6.387 4.426-7.131 3.178-.744 6.387 1.248 7.131 4.426l10.532 44.989c.744 3.178-1.248 6.387-4.426 7.131z" fill="#fff"/><path d="M56.435 204.33a7.905 7.905 0 0 1-4.177-1.2 7.88 7.88 0 0 1-3.545-4.928l-10.532-44.989a7.883 7.883 0 0 1 .99-5.989 7.87 7.87 0 0 1 4.927-3.545 7.871 7.871 0 0 1 5.988.99 7.88 7.88 0 0 1 3.546 4.927l10.532 44.989c.997 4.26-1.657 8.537-5.917 9.535a7.932 7.932 0 0 1-1.812.21zm1.356-2.157h.01zM45.903 147.47a3.9 3.9 0 0 0-3.333 1.864 3.907 3.907 0 0 0-.494 2.967l10.532 44.989a3.896 3.896 0 0 0 1.76 2.44 3.91 3.91 0 0 0 2.968.494 3.94 3.94 0 0 0 2.935-4.728l-10.532-44.989a3.9 3.9 0 0 0-1.761-2.44 3.94 3.94 0 0 0-2.075-.597z" fill="#190e64"/></svg></g><g transform="translate(1280.3999999999999 642.0) rotate(0.0 112.20000000000005 155.39999999999998) scale(1.1850506181380345 1.1801695069716576)"><svg width="189.359" height="263.352" viewBox="0 0 189.359 263.352"><path d="M94.68 2C43.494 2 2 43.494 2 94.68c0 64.661 49.293 87.535 58.225 122.682h68.856c8.781-35.885 58.278-57.886 58.278-122.682C187.359 43.494 145.865 2 94.68 2z" fill="#ec535b"/><path d="M129.08 219.362H60.225a2 2 0 0 1-1.938-1.507c-3.271-12.872-12.051-23.945-22.217-36.767C19.162 159.764 0 135.595 0 94.68 0 42.473 42.473 0 94.68 0c52.206 0 94.679 42.473 94.679 94.68 0 40.711-19.027 64.598-35.815 85.673-10.338 12.978-19.266 24.186-22.521 37.485a2 2 0 0 1-1.943 1.524zm-67.326-4h65.782c3.76-13.501 13.057-25.171 22.878-37.501 16.38-20.562 34.944-43.868 34.944-83.181C185.359 44.679 144.68 4 94.68 4 44.679 4 4 44.679 4 94.68c0 39.522 18.703 63.11 35.204 83.922 9.647 12.168 18.78 23.686 22.55 36.76z" fill="#ec535b"/><path d="M61.609 228.282c0 18.189 14.882 33.07 33.07 33.07 18.189 0 33.07-14.882 33.07-33.07 0-3.807.477-7.428 1.331-10.92H60.225a44.099 44.099 0 0 1 1.384 10.92z" fill="#fff"/><g fill="#190e64"><path d="M94.68 263.352c-19.338 0-35.07-15.732-35.07-35.07 0-3.513-.433-6.924-1.323-10.427a1.999 1.999 0 0 1 1.938-2.492h68.855a2 2 0 0 1 1.942 2.475 43.493 43.493 0 0 0-1.273 10.445c0 19.337-15.732 35.069-35.069 35.069zm-31.951-43.99c.592 2.97.881 5.91.881 8.92 0 17.132 13.937 31.07 31.069 31.07s31.07-13.938 31.07-31.07c0-3.012.278-5.951.848-8.92z"/><path d="M127.622 233.001H61.737a2 2 0 0 1 0-4h65.886a2 2 0 0 1-.001 4zm-4.238 13.639H65.975a2 2 0 0 1 0-4h57.409a2 2 0 0 1 0 4zm-17.418-27.278-.118-.003a2 2 0 0 1-1.881-2.112c.032-.555 2.547-43.476 6.194-75.903-4.796 1.64-10.021 2.6-15.482 2.6s-10.687-.959-15.481-2.6c3.647 32.427 6.162 75.348 6.194 75.903a2 2 0 0 1-1.881 2.112 1.988 1.988 0 0 1-2.113-1.881c-.032-.566-2.654-45.337-6.412-77.794-10.8-4.838-18.827-13.083-21.485-20.923-2.025-5.973-.662-11.333 3.739-14.707 2.477-1.896 5.512-2.303 8.549-1.147 4.838 1.842 8.662 7.267 9.981 14.157 1.021 5.331 1.998 12.192 2.911 19.824a43.559 43.559 0 0 0 15.998 3.056 43.557 43.557 0 0 0 15.999-3.057c.913-7.631 1.89-14.492 2.911-19.823 1.319-6.89 5.144-12.314 9.981-14.157 3.038-1.156 6.073-.75 8.549 1.147 4.401 3.373 5.765 8.733 3.739 14.707-2.658 7.841-10.686 16.084-21.485 20.923-3.758 32.457-6.38 77.229-6.412 77.794a2 2 0 0 1-1.995 1.884zM62.433 106.269c-.871 0-1.827.244-2.76.959-3.844 2.945-3.419 7.198-2.385 10.247 1.943 5.731 8.173 12.806 17.129 17.468-.816-6.561-1.679-12.445-2.575-17.128-1.045-5.454-3.979-9.838-7.478-11.17a5.45 5.45 0 0 0-1.931-.376zm64.493 0c-.724 0-1.389.168-1.932.375-3.498 1.332-6.433 5.717-7.478 11.17-.896 4.683-1.759 10.567-2.575 17.127 8.957-4.662 15.186-11.736 17.129-17.467 1.034-3.049 1.459-7.302-2.385-10.247-.932-.714-1.888-.958-2.759-.958z"/></g></svg></g><g transform="translate(2212.7999999999997 1654.8) rotate(0.0 136.20000000000005 103.79999999999995) scale(1.202564057285137 1.1970109322385714)"><svg width="226.516" height="173.432" viewBox="0 0 226.516 173.432"><g><g><path style="fill:#fff" d="M185.253 171.432c-19.725-15.395-40.247-28.46-62.858-36.216C40.676 111.618 69.661-6.406 153.123 10.684c26.822 6.287 49.988 17.625 71.393 31.731"/><path style="fill:#190e64" d="M185.252 173.432a1.99 1.99 0 0 1-1.229-.423c-22.675-17.697-42.464-29.105-62.276-35.901-43.303-12.502-55.189-50.19-47.869-79.905C81.196 27.497 109.242-.34 153.525 8.724c24.563 5.757 48.127 16.228 72.092 32.021a2 2 0 0 1-2.202 3.34c-23.564-15.53-46.706-25.818-70.748-31.454C123.493 6.659 87.57 18.35 77.761 58.16c-6.878 27.917 4.33 63.336 45.188 75.135 20.34 6.974 40.498 18.582 63.534 36.561a2.001 2.001 0 0 1 .347 2.807 1.996 1.996 0 0 1-1.578.769z"/></g><g><g><path style="fill:#fff" d="M153.123 10.684c-21.538-3.945-70.097-9.075-77.101-8.66S20.409 24.386 13.729 27.612C-7.268 37.752 1.45 71.82 27.775 61.079c8.433-3.441 53.428-23.811 53.428-23.811s51.013 3.488 63.661 6.513"/><path style="fill:#190e64" d="M18.184 65.165c-8.432.001-13.934-5.078-16.389-10.597-4.216-9.473-1.229-22.82 11.063-28.757C16.413 24.095 67.96.498 75.904.027c7.437-.444 56.632 4.852 77.58 8.689a1.998 1.998 0 0 1 1.606 2.328 1.994 1.994 0 0 1-2.327 1.607C130.581 8.588 82.783 3.638 76.14 4.02c-6.407.379-53.784 21.647-61.541 25.393C4.491 34.295 2.009 45.21 5.45 52.942c2.748 6.173 9.857 11.065 21.569 6.286 8.302-3.387 52.909-23.578 53.358-23.781.302-.136.634-.197.962-.173 2.09.143 51.325 3.534 63.989 6.563a2 2 0 1 1-.93 3.891c-11.679-2.793-57.506-6.056-62.831-6.428-5.03 2.276-45.025 20.364-53.037 23.633-3.83 1.562-7.283 2.232-10.346 2.232z"/></g><g><path style="fill:#fff" d="M149.776 41.2c-21.325-2.401-63.919-7.452-70.923-7.037-7.004.415-55.823 21.961-62.293 25.588-19.545 10.958-10.084 44.734 14.046 33.468 8.252-3.853 53.428-23.811 53.428-23.811s51.013 3.488 63.661 6.513"/><path style="fill:#190e64" d="M21.313 97.401c-5.7 0-11.363-2.453-14.869-9.289-4.786-9.332-2.653-23.496 9.138-30.106 3.515-1.97 17.776-8.425 31.144-14.095 12.311-5.222 27.857-11.499 32.01-11.745 6.207-.365 38.104 3.269 61.39 5.924 3.597.41 6.938.791 9.875 1.122a2 2 0 0 1 1.764 2.211 1.999 1.999 0 0 1-2.211 1.764 6632.88 6632.88 0 0 1-9.881-1.123c-21.836-2.49-54.842-6.257-60.7-5.905-6.389.378-54.799 21.617-61.434 25.336-9.714 5.446-11.475 17.109-7.534 24.791 1.392 2.715 6.933 11.108 19.758 5.12 8.176-3.818 53.014-23.629 53.465-23.829a2.01 2.01 0 0 1 .945-.166c2.09.143 51.324 3.534 63.988 6.563a2 2 0 1 1-.93 3.891c-11.686-2.795-57.563-6.06-62.84-6.429-4.758 2.103-45.24 20-52.938 23.594-3.057 1.428-6.606 2.371-10.14 2.371z"/></g><g><path style="fill:#fff" d="M154.523 73.492c-21.325-2.401-63.919-7.452-70.923-7.037-7.004.415-55.597 22.395-62.293 25.588-20.806 9.922-10.802 44.223 14.046 33.468 8.358-3.618 53.428-23.811 53.428-23.811s51.013 3.488 63.661 6.513"/><path style="fill:#190e64" d="M26.188 129.614c-8.164 0-13.644-5.146-16.187-10.739-4.345-9.556-1.626-22.881 10.444-28.637 4.468-2.13 55.244-25.318 63.036-25.78 6.206-.37 38.104 3.269 61.39 5.924 3.597.41 6.938.791 9.875 1.122a2 2 0 1 1-.447 3.975 6632.88 6632.88 0 0 1-9.881-1.123c-21.836-2.49-54.837-6.252-60.7-5.905-6.29.372-52.755 21.203-61.55 25.397-9.853 4.698-12.071 15.572-8.525 23.371 2.848 6.264 9.839 11.25 20.916 6.456 8.251-3.571 52.954-23.599 53.405-23.801.299-.134.627-.192.954-.17 2.09.143 51.324 3.534 63.988 6.563a2 2 0 0 1-.93 3.891c-11.682-2.794-57.528-6.058-62.835-6.429-4.771 2.137-45.172 20.231-52.993 23.617-3.666 1.587-6.991 2.268-9.96 2.268z"/></g><g><path style="fill:#fff" d="M160.97 104.47c-21.325-2.401-63.919-7.452-70.923-7.037-7.004.415-55.668 22.251-62.293 25.589-21.568 10.867-5.491 42.687 14.046 33.468 8.237-3.887 53.428-23.811 53.428-23.811s21.661 2.624 38.148 6.781"/><path style="fill:#190e64" d="M34.795 160.139c-7.511 0-13.865-5.066-17.034-11.562-6.123-12.552.422-22.972 9.093-27.341 5.758-2.9 55.432-25.346 63.075-25.799 6.226-.367 38.11 3.27 61.4 5.926 3.593.41 6.93.79 9.864 1.121a2 2 0 1 1-.447 3.975c-2.937-.331-6.275-.711-9.87-1.121-21.841-2.49-54.854-6.256-60.711-5.907-6.154.364-53.241 21.211-61.511 25.378-7.207 3.631-12.259 11.847-7.299 22.015 3.267 6.697 10.788 12.009 19.591 7.858 8.165-3.853 53.022-23.633 53.475-23.833a2.002 2.002 0 0 1 1.047-.155c.218.026 21.977 2.687 38.397 6.826a2 2 0 0 1 1.45 2.428 2.008 2.008 0 0 1-2.429 1.451c-14.737-3.715-33.91-6.23-37.358-6.667-4.997 2.205-45.225 19.957-52.875 23.566-2.697 1.272-5.342 1.841-7.858 1.841z"/></g></g></g></svg></g><g transform="translate(1784.3999999999999 1316.3999999999999) rotate(0.0 64.20000000000005 85.80000000000007) scale(1.3441788888539943 1.337198429025623)"><svg width="95.523" height="128.328" viewBox="0 0 95.523 128.328"><g><path style="fill:#fff" d="M91.486 126.328s2.037-13.659 2.037-22.429S78.3 47.559 73.22 43.545c-4.535-3.584-37.019-31.501-45.679-37.881C10.144-7.152-9.138 16.457 9.834 33.315c11.207 9.959 34.948 32.454 34.948 32.454-9.674 14.423-10.863 36.924-5.209 60.56"/><path style="fill:#190e64" d="M39.571 128.329a2 2 0 0 1-1.943-1.535c-5.847-24.44-4.166-46.429 4.577-60.709-4.97-4.698-24.084-22.73-33.699-31.274-10.98-9.758-10.015-21.568-4.473-28.412C9.05.203 18.916-3.173 28.727 4.053c5.775 4.254 21.821 17.808 33.537 27.704 5.968 5.041 10.682 9.022 12.195 10.218 3.597 2.843 9.511 19.601 12.717 29.338 4.154 12.621 8.347 27.592 8.347 32.586 0 8.817-1.975 22.161-2.059 22.724a2.007 2.007 0 0 1-2.273 1.683 2.001 2.001 0 0 1-1.684-2.273c.021-.135 2.016-13.616 2.016-22.134 0-9.316-15.343-55.466-19.544-58.785-1.564-1.236-6.3-5.236-12.296-10.301-11.673-9.86-27.66-23.364-33.329-27.539-7.737-5.699-15.223-3.283-19.212 1.642-4.532 5.596-5.046 14.848 4.02 22.904 11.103 9.866 34.758 32.272 34.996 32.498.708.671.828 1.755.285 2.566-8.917 13.293-10.712 34.791-4.925 58.98a2 2 0 0 1-1.947 2.465z"/></g></svg></g></svg>