<svg xmlns="http://www.w3.org/2000/svg" viewBox="0 0 1300 1200" width="1300" height="1200"><g transform="translate(97.0 377.0) rotate(0.0 529.5 376.5) scale(1.6945925057086486 1.6937753194667193)"><svg width="624.929" height="444.569" viewBox="0 0 624.929 444.569"><path d="M216.198 106.974 577.882 1.5h18c18.05 0 31.727 16.293 28.6 34.07L569.65 347.326c-2.442 13.884-14.503 24.009-28.6 24.009H30.1c-18.05 0-31.727-16.293-28.6-34.07l105.932-95.845c2.442-13.884 94.669-134.445 108.766-134.445z" fill="#56b1f0"/><path d="M84.933 1.5h492.949c18.05 0 31.727 16.293 28.6 34.07L551.65 347.326c-2.442 13.884-14.503 24.009-28.6 24.009H30.1c-18.05 0-31.727-16.293-28.6-34.07L56.332 25.509C58.774 11.625 70.835 1.5 84.932 1.5z" fill="#fff"/><path d="M400.686 444.569H300.208l-70-73.235h135.244l45.977 48.102c9.038 9.456 2.336 25.133-10.744 25.133z" fill="#56b1f0"/><path d="M188.693 430.861h166.519v13.708H174.985c0-7.566 6.142-13.708 13.708-13.708z" fill="#56b1f0"/><path d="M355.212 432.361h-84.121a1.5 1.5 0 1 1 0-3h84.121a1.5 1.5 0 1 1 0 3z" fill="#25242e"/><path d="m558.964 346.989 7.025-36.887H6.993l-.738.129L1.5 337.265c-3.127 17.777 10.55 34.07 28.6 34.07h492.949c14.098 0 33.473-10.461 35.915-24.345z" fill="#56b1f0"/><g fill="#25242e"><path d="M1.502 338.765a1.5 1.5 0 0 1-1.479-1.76L54.855 25.249A30.493 30.493 0 0 1 84.933 0h492.949a30.469 30.469 0 0 1 23.39 10.904 1.5 1.5 0 1 1-2.298 1.928 27.477 27.477 0 0 0-21.092-9.833H84.933A27.498 27.498 0 0 0 57.81 25.768L2.977 337.525a1.5 1.5 0 0 1-1.476 1.24zm197.334 34.107a1.5 1.5 0 1 1 0-3l180.255-.037a1.5 1.5 0 1 1 0 3z"/></g></svg></g><g transform="translate(579.0 699.0) rotate(0.0 345.5 79.5) scale(0.7560414936578951 0.7569986669205866)"><svg width="913.971" height="210.04" viewBox="0 0 913.971 210.04"><path d="M842.17 191.306H54c-29.823 0-54-24.177-54-54V54C0 24.177 24.177 0 54 0h788.17c29.823 0 54 24.177 54 54v83.306c0 29.824-24.176 54-54 54z" fill="#f0e760"/><g fill="#fff"><path d="M79.686 133.432a2.5 2.5 0 0 1-1.768-4.267l66.799-66.8a2.5 2.5 0 1 1 3.536 3.535l-66.799 66.8a2.496 2.496 0 0 1-1.768.732z"/><path d="M146.485 133.432c-.64 0-1.28-.244-1.768-.732L77.918 65.9a2.5 2.5 0 1 1 3.536-3.535l66.799 66.8a2.5 2.5 0 0 1-1.768 4.267z"/><path d="M113.085 147.266a2.5 2.5 0 0 1-2.5-2.5V50.298a2.5 2.5 0 1 1 5 0v94.468a2.5 2.5 0 0 1-2.5 2.5z"/><path d="M160.319 100.032H65.851a2.5 2.5 0 1 1 0-5h94.468a2.5 2.5 0 1 1 0 5zm142.7 33.4a2.5 2.5 0 0 1-1.768-4.267l66.799-66.8a2.5 2.5 0 1 1 3.536 3.535l-66.799 66.8a2.493 2.493 0 0 1-1.768.732z"/><path d="M369.818 133.432c-.64 0-1.28-.244-1.768-.732l-66.799-66.8a2.5 2.5 0 1 1 3.536-3.535l66.799 66.8a2.5 2.5 0 0 1-1.768 4.267z"/><path d="M336.418 147.266a2.5 2.5 0 0 1-2.5-2.5V50.298a2.5 2.5 0 1 1 5 0v94.468a2.5 2.5 0 0 1-2.5 2.5z"/><path d="M383.653 100.032h-94.468a2.5 2.5 0 1 1 0-5h94.468a2.5 2.5 0 1 1 0 5zm142.699 33.4a2.5 2.5 0 0 1-1.768-4.267l66.799-66.8a2.5 2.5 0 1 1 3.536 3.535l-66.799 66.8a2.493 2.493 0 0 1-1.768.732z"/><path d="M593.151 133.432c-.64 0-1.28-.244-1.768-.732l-66.799-66.8a2.5 2.5 0 1 1 3.536-3.535l66.799 66.8a2.5 2.5 0 0 1-1.768 4.267z"/><path d="M559.752 147.266a2.5 2.5 0 0 1-2.5-2.5V50.298a2.5 2.5 0 1 1 5 0v94.468a2.5 2.5 0 0 1-2.5 2.5z"/><path d="M606.986 100.032h-94.468a2.5 2.5 0 1 1 0-5h94.468a2.5 2.5 0 1 1 0 5zm142.7 33.4a2.5 2.5 0 0 1-1.768-4.267l66.799-66.8a2.5 2.5 0 1 1 3.536 3.535l-66.799 66.8a2.496 2.496 0 0 1-1.768.732z"/><path d="M816.485 133.432c-.64 0-1.28-.244-1.768-.732l-66.799-66.8a2.5 2.5 0 1 1 3.536-3.535l66.799 66.8a2.5 2.5 0 0 1-1.768 4.267z"/><path d="M783.085 147.266a2.5 2.5 0 0 1-2.5-2.5V50.298a2.5 2.5 0 1 1 5 0v94.468a2.5 2.5 0 0 1-2.5 2.5z"/><path d="M830.319 100.032h-94.468a2.5 2.5 0 1 1 0-5h94.468a2.5 2.5 0 1 1 0 5z"/></g><path d="M858.471 210.04H70.301c-30.603 0-55.5-24.897-55.5-55.5V71.234c0-30.603 24.897-55.5 55.5-55.5h788.17c30.603 0 55.5 24.897 55.5 55.5v83.307c0 30.602-24.897 55.499-55.5 55.499zM70.301 18.734c-28.948 0-52.5 23.552-52.5 52.5v83.307c0 28.948 23.552 52.5 52.5 52.5h788.17c28.948 0 52.5-23.552 52.5-52.5V71.234c0-28.948-23.552-52.5-52.5-52.5z" fill="#f0e760"/><path d="M23.586 183.142c-.517 0-1.02-.267-1.298-.746a55.483 55.483 0 0 1-7.486-27.855V71.234c0-30.603 24.897-55.5 55.5-55.5h788.17c11.093 0 21.801 3.263 30.966 9.436a1.5 1.5 0 1 1-1.676 2.488c-8.668-5.838-18.797-8.924-29.29-8.924H70.301c-28.948 0-52.5 23.552-52.5 52.5v83.307c0 9.27 2.448 18.381 7.08 26.348a1.5 1.5 0 0 1-1.295 2.253z" fill="#fff"/></svg></g><g transform="translate(57.0 81.0) rotate(0.0 261.0 261.0) scale(1.1067810481767797 1.1067810481767797)"><svg width="471.638" height="471.638" viewBox="0 0 471.638 471.638"><path d="M442.223 470.138H29.415c-15.417 0-27.915-12.498-27.915-27.915V29.415C1.5 13.998 13.998 1.5 29.415 1.5h412.809c15.417 0 27.915 12.498 27.915 27.915v412.809c-.001 15.416-12.499 27.914-27.916 27.914z" fill="#fff"/><path d="M442.223 471.638H29.414C13.195 471.638 0 458.443 0 442.223V29.415C0 13.195 13.195 0 29.414 0h412.809c16.22 0 29.415 13.195 29.415 29.415v412.809c0 16.219-13.195 29.414-29.415 29.414zM29.414 3C14.85 3 3 14.85 3 29.415v412.809c0 14.565 11.85 26.415 26.414 26.415h412.809c14.565 0 26.415-11.85 26.415-26.415V29.415C468.638 14.85 456.788 3 442.223 3z" fill="#25242e"/><path d="M235.819 324.057c-17.089 0-33.674-4.898-47.961-14.164-9.499-6.161-12.206-18.855-6.045-28.354 6.158-9.499 18.852-12.206 28.354-6.045 7.629 4.948 16.5 7.563 25.652 7.563 16.192 0 31.081-8.157 39.827-21.821 4.849-7.574 7.411-16.364 7.411-25.417 0-26.047-21.191-47.238-47.238-47.238-11.322 0-20.5-9.178-20.5-20.5s9.178-20.5 20.5-20.5c48.654 0 88.238 39.583 88.238 88.238 0 16.902-4.8 33.334-13.88 47.52-16.32 25.496-44.118 40.718-74.358 40.718z" fill="#f0e760"/><path d="M235.819 377.425c-31.31 0-60.986-10.015-85.823-28.963-24.022-18.327-41.856-44.33-50.217-73.217-3.146-10.876 3.118-22.243 13.994-25.391 10.872-3.146 22.243 3.118 25.391 13.993 5.935 20.508 18.613 38.981 35.7 52.017 17.631 13.45 38.709 20.56 60.955 20.56 55.475 0 100.606-45.132 100.606-100.606s-45.132-100.606-100.606-100.606c-11.322 0-20.5-9.178-20.5-20.5s9.178-20.5 20.5-20.5c78.082 0 141.606 63.524 141.606 141.606s-63.524 141.607-141.606 141.607z" fill="#f05467"/><path d="M235.819 430.794c-107.51 0-194.975-87.466-194.975-194.975 0-21.826 3.585-43.265 10.656-63.721 3.698-10.7 15.369-16.377 26.072-12.677 10.7 3.699 16.377 15.372 12.678 26.073-5.578 16.137-8.406 33.069-8.406 50.326 0 84.902 69.072 153.975 153.975 153.975s153.976-69.073 153.976-153.975S320.721 81.844 235.819 81.844c-11.322 0-20.5-9.178-20.5-20.5s9.178-20.5 20.5-20.5c107.51 0 194.976 87.466 194.976 194.975s-87.467 194.975-194.976 194.975z" fill="#56b1f0"/></svg></g><g transform="translate(732.0 436.0) rotate(0.0 101.0 101.0) scale(1.1355076618660551 1.1355076618660551)"><svg width="177.894" height="177.894" viewBox="0 0 177.894 177.894"><circle cx="88.947" cy="88.947" fill="#fff" r="85.947"/><g fill="#25242E"><circle cx="88.947" cy="56.501" r="30.649"/><path d="M161.39 135.168c-16.769-21.071-42.633-34.582-71.655-34.582-29.528 0-55.785 13.985-72.522 35.689 15.38 23.264 41.758 38.619 71.734 38.619 30.447 0 57.175-15.846 72.443-39.726z"/><path d="M88.947 177.894C39.901 177.894 0 137.993 0 88.947S39.901 0 88.947 0s88.947 39.901 88.947 88.947-39.901 88.947-88.947 88.947zM88.947 6C43.21 6 6 43.21 6 88.947s37.21 82.947 82.947 82.947 82.947-37.21 82.947-82.947S134.684 6 88.947 6z"/></g></svg></g><g transform="translate(284.0 630.0) rotate(0.0 85.5 124.5) scale(1.1411563717900806 1.1501154734411085)"><svg width="149.848" height="216.5" viewBox="0 0 149.848 216.5"><path d="M129.651 56.227v39.091h-33.84c8.678 0 15.728-7.049 15.728-15.728V56.878a36.987 36.987 0 0 0-10.88-26.256 36.983 36.983 0 0 0-26.256-10.88c-20.51 0-37.136 16.627-37.136 37.136V79.59c0 8.678 7.049 15.728 15.728 15.728H20.196V56.227c0-30.23 24.497-54.727 54.728-54.727 15.115 0 28.797 6.124 38.7 16.027s16.027 23.585 16.027 38.7z" fill="#fff"/><path d="M129.651 96.818h-33.84a1.5 1.5 0 0 1 0-3c7.845 0 14.228-6.382 14.228-14.228V56.878c0-9.528-3.708-18.475-10.44-25.194-6.721-6.734-15.669-10.442-25.197-10.442-19.65 0-35.636 15.986-35.636 35.636V79.59c0 7.845 6.382 14.228 14.228 14.228a1.5 1.5 0 0 1 0 3H20.196a1.5 1.5 0 0 1-1.5-1.5V56.227C18.696 25.223 43.92 0 74.924 0c15.021 0 29.142 5.848 39.76 16.467 10.619 10.619 16.467 24.739 16.467 39.761v39.091a1.5 1.5 0 0 1-1.5 1.5zm-24.135-3h22.635V56.227c0-14.22-5.536-27.587-15.588-37.639S89.144 3 74.924 3c-29.35 0-53.227 23.878-53.227 53.227v37.591H43.29c-4.539-3.106-7.523-8.325-7.523-14.228V56.878c0-21.304 17.332-38.636 38.636-38.636 10.33 0 20.032 4.02 27.318 11.321 7.298 7.284 11.319 16.986 11.319 27.316v22.712c0 5.903-2.984 11.122-7.523 14.228z" fill="#25242E"/><path d="M15.096 71.864h119.657c8.332 0 15.096 6.764 15.096 15.096v54.616c0 41.352-33.572 74.924-74.924 74.924C33.572 216.5 0 182.928 0 141.576V86.96c0-8.332 6.764-15.096 15.096-15.096z" fill="#24968B"/><g fill="#fff"><circle cx="74.43" cy="128.923" r="17.77"/><path d="M84.017 170.894h-19.23a3.315 3.315 0 0 1-3.247-3.983l8.301-40.32h9.121l8.301 40.32a3.315 3.315 0 0 1-3.247 3.983z"/></g></svg></g></svg>