<svg xmlns="http://www.w3.org/2000/svg" viewBox="0 0 3000 3000" width="3000" height="3000"><g transform="translate(516.6666666666667 1068.3333333333335) rotate(0.0 1059.1666666666665 848.3333333333333) scale(1.660489801378768 1.6614050068022945)"><svg width="1275.728" height="1021.224" viewBox="0 0 1275.728 1021.224"><path d="M184.443 906.898c254.574-205.34 413.255-191.114 427.96 113.326 58.241-297.064 307.939-328.221 404.24-101.958-45.626-196.575 29.959-296.285 258.085-285.045-141.935-89.863-214.102-149.927-83.451-362.339-113.076 38.603-191.931-.302-166.109-138.706C910.251 206.985 818.06 254.978 744.576 1 672.28 221.132 554.569 215.598 346.66 85.402c72.785 233.893-22.917 280.621-284.849 297.804C165.923 469.245 166.652 543.01 1 642.711c195.048 32.459 247.442 54.133 183.443 264.187z" fill="#ffe993"/><path d="M612.404 1021.224a.998.998 0 0 1-.999-.952c-6.367-131.815-40.189-212.383-100.528-239.466-71.842-32.245-181.459 10.44-325.805 126.87a1.002 1.002 0 0 1-1.585-1.069c30.209-99.151 33.65-153.919 11.875-189.033-26.701-43.059-94.357-57.207-194.525-73.877a.999.999 0 0 1-.351-1.843c44.08-26.53 76.124-50.976 97.963-74.73 21.333-23.205 32.51-45.315 34.172-67.595 2.708-36.315-19.994-73.032-71.444-115.551a.999.999 0 0 1 .572-1.768c83.735-5.493 140.478-13.429 183.985-25.729 49.687-14.048 81.907-33.81 101.399-62.19 15.098-21.983 22.337-49.191 22.131-83.179-.207-34.118-7.912-75.141-23.555-125.411a1 1 0 0 1 1.485-1.145c62.25 38.981 113.19 64.568 155.734 78.223 46.586 14.951 85.187 16.448 118.009 4.58 26.229-9.485 48.786-27.337 68.96-54.573C710.35 85.173 727.926 48.506 743.629.689c.137-.416.536-.714.968-.688.438.008.821.301.943.722 16.479 56.957 34.051 99.675 53.72 130.593 18.089 28.435 37.584 46.237 59.599 54.425 22.598 8.403 47.35 6.741 77.9-5.236 28.632-11.225 59.107-30.442 87.867-49.164a.997.997 0 0 1 1.101.007.998.998 0 0 1 .427 1.015c-11.419 61.206-2.583 106.423 25.555 130.761 29.053 25.132 78.507 27.55 139.248 6.814a1 1 0 0 1 1.175 1.47c-62.181 101.093-80.811 170.873-60.408 226.255 19.511 52.959 74.146 90.777 143.542 134.715.383.243.555.714.418 1.146s-.556.71-1.002.697c-57.061-2.811-105.587 1.415-144.229 12.563-38.046 10.976-67.77 29.029-88.346 53.658-19.697 23.577-31.688 53.991-35.639 90.397-3.884 35.789-.132 78.585 11.152 127.2a1 1 0 0 1-1.894.618c-21.501-50.517-52.044-90.705-88.328-116.22-34.411-24.198-73.118-34.84-111.937-30.771-44.9 4.704-87.065 28.476-121.937 68.742-37.924 43.793-65.635 106.038-80.137 180.008a1.005 1.005 0 0 1-.983.808zM459.266 768.406c19.226 0 36.711 3.521 52.429 10.576 59.87 26.872 93.932 105.356 101.292 233.353 14.951-70.936 42.195-130.709 79.022-173.234 35.21-40.658 77.826-64.664 123.24-69.423 39.305-4.12 78.483 6.645 113.296 31.125 34.333 24.144 63.554 61.278 84.911 107.786-9.6-44.761-12.622-84.407-8.98-117.965 3.994-36.806 16.137-67.578 36.092-91.464 20.837-24.94 50.891-43.209 89.327-54.298 37.998-10.963 85.458-15.274 141.112-12.815-68.207-43.29-121.736-80.962-141.163-133.693-20.476-55.578-2.235-125.246 59.139-225.643-60.25 20.016-109.393 17.175-138.586-8.076-28.351-24.523-37.544-69.563-26.631-130.353-28.273 18.374-58.12 37.044-86.281 48.084-30.61 11.999-56.558 13.717-79.327 5.249-22.439-8.346-42.258-26.41-60.589-55.227-19.414-30.518-36.781-72.42-53.054-128.02-15.515 46.534-32.87 82.41-53.014 109.606-20.416 27.563-43.276 45.64-69.886 55.263-33.254 12.028-72.278 10.536-119.301-4.556-42.182-13.538-92.545-38.735-153.903-77.006 15.169 49.293 22.646 89.688 22.85 123.423.208 34.408-7.146 61.991-22.483 84.322-19.771 28.788-52.342 48.802-102.503 62.983-43.213 12.218-99.382 20.139-181.897 25.635 50.633 42.294 72.961 79.08 70.235 115.638-3.367 45.157-44.938 90.47-130.782 142.491 99.244 16.57 166.324 30.964 193.229 74.351 21.883 35.29 18.801 89.76-10.72 187.568 112.432-90.269 203.885-135.68 272.926-135.68z" fill="#112c41"/></svg></g><g transform="translate(411.6666666666667 768.3333333333334) rotate(0.0 700.0 682.5) scale(1.668297228600811 1.6686857968555358)"><svg width="839.179" height="818.009" viewBox="0 0 839.179 818.009"><path d="M694.418 543.618 366.265 816.357C241.446 646.11 118.341 489.15 1 376.878L329.153 104.14z" fill="#dedffe"/><path d="M366.265 817.357a.997.997 0 0 1-.806-.409C169.593 549.798 67.43 441.822.309 377.6a1 1 0 0 1 .052-1.492L328.514 103.37a.998.998 0 0 1 1.408.13l365.265 439.479a1 1 0 0 1-.13 1.409L366.904 817.127c-.18.149-.407.23-.639.23zM2.501 376.93c127.39 122.091 261.309 298.019 363.942 437.979l326.566-271.42-363.986-437.941z" fill="#112c41"/><path d="m769.234 594.402-403.657 222.11c-99.054-203.748-198.17-392.927-297.461-540.596l403.656-222.11z" fill="#dedffe"/><path d="M365.578 817.513a1.003 1.003 0 0 1-.9-.563C245.486 571.78 153.767 405.091 67.287 276.473a.997.997 0 0 1 .348-1.434L471.291 52.93a1 1 0 0 1 1.358.394L770.111 593.92a1 1 0 0 1-.394 1.359L366.06 817.388a.99.99 0 0 1-.482.125zM69.556 276.265c86.247 128.41 177.726 294.69 296.461 538.864l401.859-221.122L471.379 55.164z" fill="#112c41"/><path d="m838.179 634.459-472.995 182.55C288.565 579.895 209.07 358.101 120.703 183.55L593.698 1c95.054 188.192 174.981 401.996 244.481 633.459z" fill="#dedffe"/><path d="M365.183 818.01a.996.996 0 0 1-.951-.693C271.247 529.552 195.864 334.23 119.811 184.002a.995.995 0 0 1-.041-.81.994.994 0 0 1 .573-.574L593.338.067a1 1 0 0 1 1.253.481c90.09 178.365 170.082 385.625 244.546 633.623a1 1 0 0 1-.598 1.22L365.543 817.942a.995.995 0 0 1-.36.068zM122.094 184.086c75.844 150.018 151.05 344.922 243.716 631.61l471.145-181.837c-74.239-247.103-153.983-453.743-243.741-631.6z" fill="#112c41"/><g fill="#9797f7"><path d="M209.684 241.444a3.001 3.001 0 0 1-1.053-5.81l387-145a3 3 0 0 1 2.105 5.619l-387 145c-.347.13-.703.191-1.052.191zm51 131a3.001 3.001 0 0 1-1.053-5.81l387-145a3 3 0 0 1 2.105 5.619l-387 145c-.347.13-.703.191-1.052.191zm47 128a3.001 3.001 0 0 1-1.053-5.81l387-145a3 3 0 0 1 2.105 5.619l-387 145c-.347.13-.703.191-1.052.191zm46 120a3.001 3.001 0 0 1-1.053-5.81l387-145a3 3 0 0 1 2.105 5.619l-387 145c-.347.13-.703.191-1.052.191z"/></g></svg></g><g transform="translate(1295.0 1241.6666666666667) rotate(152.7976632417468 205.83333333333337 260.83333333333337) scale(1.6602340997296579 1.666384499323331)"><svg width="247.957" height="313.053" viewBox="0 0 247.957 313.053"><path d="M20.2 245.044c-28.701-12.022-24.088-76.081 6.26-146.782C43.991 57.42 61.503 27.105 84.583 1.405a1.225 1.225 0 0 1 1.364-.318L245.82 64.81a1.803 1.803 0 0 1 .711 2.839c-19.878 23.628-39.857 53.604-56.329 94.93-28.487 71.469-32.814 137.145-6.79 147.518l-.489-.195L20.2 245.043z" fill="#fff"/><path d="M183.412 311.098c-.123 0-.249-.023-.37-.071l-.489-.195-162.722-64.859-.017-.007c-6.757-2.83-11.883-8.47-15.237-16.763-10.596-26.2-2.563-76.525 20.965-131.336 18.32-42.68 36.299-72.636 58.297-97.13a2.233 2.233 0 0 1 2.479-.579l159.873 63.723a2.771 2.771 0 0 1 1.681 1.92 2.78 2.78 0 0 1-.576 2.492c-23.575 28.021-41.947 58.984-56.166 94.656-13.906 34.887-22.346 69.105-23.767 96.352-1.426 27.35 4.397 45.054 16.395 49.858l.024.01a1 1 0 0 1-.371 1.929zM20.555 244.197c.826.241 2.561.933 6.607 2.545L175.7 305.947c-7.862-8.375-11.493-24.507-10.333-46.749 1.432-27.46 9.922-61.904 23.906-96.988 14.299-35.875 32.778-67.016 56.493-95.203a.802.802 0 0 0-.315-1.266L85.576 2.016a.225.225 0 0 0-.25.057C63.481 26.398 45.61 56.185 27.379 98.656 4.054 152.995-3.972 202.73 6.431 228.453c3.146 7.78 7.909 13.052 14.155 15.668l-.031.075z" fill="#112c41"/><path d="M66.672 223.638a.983.983 0 0 0-1.167.36c-18.283 26.594-33.03 25.9-45.305 21.045l163.212 65.054c12.058 4.807 32.763 1.692 44.856-20.028a1.656 1.656 0 0 0-.824-2.349z" fill="#dedffe"/><path d="M194.29 313.044c-4.257 0-8.134-.776-11.248-2.017L19.83 245.972a1 1 0 0 1 .738-1.859h.003c11.626 4.599 25.952 5.732 44.111-20.681a1.97 1.97 0 0 1 2.36-.723h.001l160.773 64.083a2.644 2.644 0 0 1 1.511 1.569c.257.723.19 1.523-.183 2.195-9.445 16.964-23.499 22.488-34.853 22.488zM32.138 248.725l151.645 60.444c10.759 4.289 31.253 2.613 43.612-19.585a.665.665 0 0 0 .047-.552.639.639 0 0 0-.367-.382L66.322 224.575c-13.089 19.035-24.376 24.312-34.184 24.15z" fill="#112c41"/><g fill="#b2b0f7"><path d="M194.883 94.678a1.99 1.99 0 0 1-.74-.143l-47.951-19.113a2 2 0 1 1 1.481-3.715l47.951 19.113a2 2 0 0 1-.741 3.858zm-53.073 48.223a1.99 1.99 0 0 1-.74-.143l-82.167-32.751a2 2 0 1 1 1.481-3.715l82.167 32.751a2 2 0 0 1-.741 3.858zm-10.385 32.618a1.99 1.99 0 0 1-.74-.143l-82.394-32.841a2 2 0 1 1 1.481-3.715l82.394 32.841a2 2 0 0 1-.741 3.858zm-10.095 32.708a1.99 1.99 0 0 1-.74-.143l-82.394-32.841a2 2 0 1 1 1.481-3.715l82.394 32.841a2 2 0 0 1-.741 3.858zm61.588-93.603a1.99 1.99 0 0 1-.74-.143l-47.951-19.113a2 2 0 1 1 1.481-3.715l47.951 19.113a2 2 0 0 1-.741 3.858z"/></g></svg></g><g transform="translate(361.6666666666667 236.66666666666669) rotate(0.0 931.6666666666666 926.6666666666666) scale(1.6669246075943176 1.6672679026639403)"><svg width="1117.827" height="1111.599" viewBox="0 0 1117.827 1111.599"><g><g><g><path style="fill:#dedffe" d="m655.298 190.085-549.81 99.92h-.01c-2.88.26-5.77.64-8.66 1.15C36.361 301.716-4.255 362.368 1.551 429.914c.468 5.442 5.546 9.29 10.935 8.398l223.652-37.037 587.83-106.29-168.67-104.9z"/><path style="fill:#112c41" d="M10.946 439.439c-2.315 0-4.594-.768-6.443-2.203-2.298-1.786-3.701-4.355-3.948-7.235-2.841-33.047 5.311-65.506 22.955-91.397 17.785-26.101 43.759-43.301 73.136-48.433 2.869-.506 5.811-.896 8.742-1.161l549.731-99.908c.244-.044.496.005.707.136l168.67 104.899a1 1 0 0 1-.35 1.834l-587.83 106.29-223.667 37.038c-.566.094-1.135.14-1.703.14zm644.151-248.301-549.431 99.851a.978.978 0 0 1-.179.017c-2.796.255-5.681.639-8.496 1.135-28.842 5.038-54.351 21.939-71.829 47.589-17.385 25.513-25.416 57.511-22.615 90.1.199 2.318 1.33 4.388 3.183 5.827a8.527 8.527 0 0 0 6.592 1.671l223.652-37.037 585.26-105.826-166.137-103.327z"/></g><g><path style="fill:#fff" d="M96.548 291.285c2.98-.7 5.97-1.24 8.97-1.62l-8.97 1.62z"/><path style="fill:#112c41" d="M96.547 292.285a1 1 0 0 1-.228-1.974c3-.705 6.053-1.256 9.073-1.639a1.006 1.006 0 0 1 1.114.841 1 1 0 0 1-.811 1.136l-8.97 1.62a.974.974 0 0 1-.178.016z"/></g><g><path style="fill:#fff" d="m1105.998 1002.315-584.53 105.87c-.03.01-.05.01-.08.02l-12.04 2.18c-7.84 1.42-15.11-4.4-15.5-12.36-18.11-373.76-220.8-830.13-388.33-808.36l581.33-105.29 32.57-5.9c59.46-7.93 115.79 30 166.36 95.09 7.89 10.15 15.63 20.96 23.23 32.36 116.26 174.47 197.38 486.96 207.8 682.71.35 6.63-4.27 12.5-10.81 13.68z"/><path style="fill:#112c41" d="M507.007 1111.595a14.144 14.144 0 0 1-8.799-3.069 14.237 14.237 0 0 1-5.358-10.451c-3.542-73.097-14.122-150.643-31.446-230.488-16.623-76.613-38.633-151.726-65.418-223.25-26.674-71.229-56.514-134.719-88.691-188.707-33.283-55.845-67.325-98.519-101.18-126.837-35.148-29.399-68.95-42.23-100.467-38.136a1 1 0 0 1-.307-1.976l613.9-111.19c56.03-7.464 112.311 24.648 167.328 95.462 7.732 9.946 15.562 20.854 23.272 32.418 53.541 80.349 104.582 198.842 143.719 333.651 35.518 122.343 58.935 249.753 64.248 349.561.376 7.125-4.624 13.452-11.631 14.718l-584.492 105.862a1.63 1.63 0 0 0-.057.014l-12.1 2.193c-.84.151-1.683.225-2.521.225zM120.489 287.97c27.679.966 56.837 14.134 86.908 39.288 34.028 28.463 68.216 71.309 101.615 127.348 32.238 54.09 62.13 117.689 88.846 189.029 26.819 71.614 48.856 146.819 65.499 223.527 17.347 79.951 27.942 157.609 31.489 230.815a12.23 12.23 0 0 0 4.604 8.981 12.14 12.14 0 0 0 9.719 2.441l12.008-2.174.047-.011 584.595-105.885c6.018-1.086 10.312-6.521 9.989-12.644-5.305-99.661-28.695-226.906-64.172-349.108-39.082-134.619-90.031-252.916-143.462-333.1-7.683-11.524-15.485-22.392-23.187-32.301-54.549-70.213-110.211-102.083-165.438-94.713l-32.524 5.894L120.489 287.97zm400.899 820.235h.01-.01z"/></g><path style="fill:#dedffe" d="m1105.998 1002.315-584.53 105.87c126.5-29.8 298.251-100.816 399.5-242.2 111-155 53.316-430.776-34-581l-1.19-11.42c7.89 10.15 15.63 20.96 23.23 32.36 116.26 174.47 197.38 486.96 207.8 682.71.35 6.63-4.27 12.5-10.81 13.68z"/><path style="fill:#dedffe" d="M909.008 305.925c-66.28 38.66-152.16 20.16-196.3-44.11-16.32-23.77-24.75-50.62-25.86-77.44l32.57-5.9c68.74-9.17 133.29 42.95 189.59 127.45z"/><path style="fill:#112c41" d="M507.006 1111.592a14.154 14.154 0 0 1-8.805-3.072 14.225 14.225 0 0 1-5.351-10.447c-3.625-74.817-14.608-154.205-32.642-235.957-17.305-78.442-40.174-155.051-67.974-227.697-27.736-72.479-58.632-136.454-91.83-190.15-34.445-55.712-69.471-97.193-104.105-123.29-31.599-23.811-61.978-33.999-90.448-30.362l-9.125 1.653a1 1 0 0 1-.407-1.958 90.906 90.906 0 0 1 9.242-1.675l613.676-111.146c38.096-5.083 76.694 8.357 114.765 39.939 37.092 30.771 73.574 78.538 108.434 141.977 31.56 57.434 60.921 125.954 87.266 203.656 24.088 71.046 44.971 148.376 60.393 223.633 14.995 73.174 24.576 142.984 27.71 201.885.379 7.125-4.619 13.455-11.627 14.725L509.53 1111.365a14.16 14.16 0 0 1-2.524.227zM120.542 287.955c24.583.874 50.368 11.387 76.961 31.425 34.833 26.247 70.026 67.912 104.602 123.836 33.264 53.803 64.216 117.892 91.996 190.487 27.835 72.738 50.733 149.442 68.059 227.981 18.059 81.861 29.056 161.361 32.687 236.29a12.222 12.222 0 0 0 4.598 8.979 12.145 12.145 0 0 0 9.728 2.443l596.647-108.061.178.984-.178-.984c6.019-1.09 10.312-6.528 9.986-12.65-3.128-58.802-12.697-128.511-27.672-201.589-15.405-75.176-36.266-152.424-60.328-223.392-26.308-77.593-55.62-146.004-87.125-203.336-34.738-63.217-71.06-110.791-107.958-141.4-37.624-31.211-75.703-44.502-113.178-39.503l-599.003 108.49z"/><path style="fill:#112c41" d="M600.511 1033.122c-1.984 0-3.914-.249-5.771-.753-15.752-4.276-20.323-23.213-21.646-34.121-2.345-19.335-.074-34.464 6.943-46.252 7.962-13.376 25.85-23.652 42.002-17.694a2.5 2.5 0 0 1-1.73 4.691c-10.766-3.968-27.167.764-35.975 15.56-6.43 10.803-8.483 24.898-6.276 43.094.943 7.776 4.585 26.258 17.993 29.896 9.597 2.61 19.517-4.022 24.575-8.206 13.167-10.889 22.436-25.465 32.304-44.001 14.18-26.639 26.435-54.376 37.57-82.505 6.874-31.122 19.013-64.661 36.592-101.521a2.5 2.5 0 0 1 4.621 1.887c-11.468 33.466-23.146 67.545-36.415 101.1-7.515 34.232-8.539 65.438-3.313 94.865a385.98 385.98 0 0 0 42.531-68.823 2.498 2.498 0 0 1 3.076-1.276 2.499 2.499 0 0 1 1.615 2.912c-2.729 12.063-2.837 24.84-.312 36.948.307 1.474 1.519 6.298 4.207 6.494 1.766.138 3.624-1.889 4.869-3.418a94.433 94.433 0 0 0 15-25.926 2.524 2.524 0 0 1 2.497-1.602 2.501 2.501 0 0 1 2.269 1.912l4.825 20.112c.49 2.039 1.075 4.096 2.358 4.865.601.359 1.182.436 1.882.245 1.942-.53 4.444-3.089 6.226-6.368l13.774-25.35a2.499 2.499 0 0 1 4.692 1.334 62.95 62.95 0 0 0 2.604 21.822c.929 3.071 2.009 4.748 3.4 5.276 1.072.407 2.593.188 4.522-.65 3.775-1.639 7.117-4.306 10.655-7.128 5.243-4.184 10.665-8.51 17.698-9.299 11.814-1.322 20.246 7.396 28.398 15.831 2.535 2.623 5.156 5.334 7.772 7.599 9.213 7.974 22.197 11.628 35.624 10.017 13.427-1.607 25.182-8.222 32.252-18.145a2.5 2.5 0 1 1 4.072 2.9c-7.885 11.068-20.908 18.434-35.73 20.209-14.823 1.772-29.215-2.307-39.491-11.2-2.785-2.41-5.485-5.204-8.096-7.905-7.648-7.913-14.869-15.388-24.245-14.337-5.599.628-10.232 4.324-15.136 8.238-3.637 2.901-7.398 5.902-11.78 7.806-3.213 1.397-5.926 1.637-8.292.738-3.886-1.478-5.519-5.561-6.409-8.503a68.05 68.05 0 0 1-2.666-13.845l-9.225 16.978c-.938 1.727-4.381 7.462-9.303 8.805-2.009.547-4.004.278-5.77-.78-3.191-1.914-4.103-5.716-4.648-7.987l-3.064-12.77a99.44 99.44 0 0 1-12.788 20.265c-1.243 1.526-4.544 5.593-9.11 5.246-4.293-.312-7.397-4.027-8.738-10.461a92.405 92.405 0 0 1-1.775-23.981 391.151 391.151 0 0 1-39.709 60.621 2.5 2.5 0 0 1-4.404-1.057c-5.104-24.91-5.783-50.993-1.896-78.983-8.773 20.78-18.284 41.253-28.873 61.145-8.178 15.363-18.189 32.817-33.531 45.505-7.888 6.523-15.965 9.931-23.301 9.931z"/><path style="fill:#9797f7" d="M322.463 318.486a4.002 4.002 0 0 1-3.932-3.291 3.999 3.999 0 0 1 3.227-4.646l427-77a4 4 0 0 1 4.646 3.227 3.999 3.999 0 0 1-3.227 4.646l-427 77a4.033 4.033 0 0 1-.714.064zm55 68a4.002 4.002 0 0 1-3.932-3.291 3.999 3.999 0 0 1 3.227-4.646l427-77a3.999 3.999 0 1 1 1.419 7.873l-427 77a4.033 4.033 0 0 1-.714.064zm169.5 73.5a4.002 4.002 0 0 1-.71-7.936l294.5-53.5a3.999 3.999 0 1 1 1.429 7.871l-294.5 53.5a3.997 3.997 0 0 1-.719.065z"/><g><circle style="fill:#ff90d8" cx="489.468" cy="468.485" r="15.5"/><path style="fill:#ff90d8" d="M489.468 487.986c-10.752 0-19.5-8.748-19.5-19.5s8.748-19.5 19.5-19.5 19.5 8.748 19.5 19.5-8.748 19.5-19.5 19.5zm0-31c-6.341 0-11.5 5.159-11.5 11.5s5.159 11.5 11.5 11.5 11.5-5.159 11.5-11.5-5.159-11.5-11.5-11.5z"/></g><path style="fill:#9797f7" d="M578.963 554.987a4.002 4.002 0 0 1-.71-7.936l294.5-53.5a3.999 3.999 0 1 1 1.429 7.871l-294.5 53.5a4.09 4.09 0 0 1-.719.065z"/><g><circle style="fill:#ff90d8" cx="521.468" cy="563.485" r="15.5"/><path style="fill:#ff90d8" d="M521.468 582.986c-10.752 0-19.5-8.748-19.5-19.5s8.748-19.5 19.5-19.5 19.5 8.748 19.5 19.5-8.748 19.5-19.5 19.5zm0-31c-6.341 0-11.5 5.159-11.5 11.5s5.159 11.5 11.5 11.5 11.5-5.159 11.5-11.5-5.159-11.5-11.5-11.5z"/></g><path style="fill:#9797f7" d="M619.963 648.987a4.002 4.002 0 0 1-.71-7.936l294.5-53.5a4 4 0 0 1 1.429 7.871l-294.5 53.5a4.09 4.09 0 0 1-.719.065z"/><g><circle style="fill:#ff90d8" cx="562.468" cy="657.485" r="15.5"/><path style="fill:#ff90d8" d="M562.468 676.986c-10.752 0-19.5-8.748-19.5-19.5s8.748-19.5 19.5-19.5 19.5 8.748 19.5 19.5-8.748 19.5-19.5 19.5zm0-31c-6.341 0-11.5 5.159-11.5 11.5s5.159 11.5 11.5 11.5 11.5-5.159 11.5-11.5-5.159-11.5-11.5-11.5z"/></g><path style="fill:#9797f7" d="M648.963 749.987a4.002 4.002 0 0 1-.71-7.936l294.5-53.5a3.998 3.998 0 0 1 4.65 3.221 3.999 3.999 0 0 1-3.221 4.65l-294.5 53.5a4.09 4.09 0 0 1-.719.065z"/><g><circle style="fill:#ff90d8" cx="591.468" cy="758.485" r="15.5"/><path style="fill:#ff90d8" d="M591.468 777.986c-10.752 0-19.5-8.748-19.5-19.5s8.748-19.5 19.5-19.5 19.5 8.748 19.5 19.5-8.748 19.5-19.5 19.5zm0-31c-6.341 0-11.5 5.159-11.5 11.5s5.159 11.5 11.5 11.5 11.5-5.159 11.5-11.5-5.159-11.5-11.5-11.5z"/></g><g><g><circle style="fill:#7bdaac" cx="853.129" cy="142.201" r="141.188"/><path style="fill:#112c41" d="M853.336 284.343c-45.314 0-89.887-21.558-117.42-61.651-44.382-64.631-27.909-153.32 36.722-197.703 64.631-44.382 153.32-27.908 197.703 36.723 44.382 64.632 27.908 153.32-36.722 197.702-24.537 16.849-52.553 24.929-80.283 24.929zm-.413-282.285c-27.345 0-54.958 7.965-79.153 24.579-63.722 43.759-79.964 131.2-36.206 194.922 43.758 63.723 131.199 79.966 194.921 36.206 63.722-43.758 79.964-131.199 36.206-194.921-27.142-39.527-71.096-60.786-115.768-60.786z"/></g><path style="fill:#fff" d="M849.195 206.822a14.001 14.001 0 0 1-11.33-5.779l-51.394-70.852c-4.54-6.259-3.146-15.014 3.112-19.554 6.258-4.539 15.013-3.146 19.553 3.112l38.024 52.421 51.447-100.044c3.536-6.875 11.977-9.583 18.853-6.048 6.876 3.536 9.584 11.977 6.048 18.853l-61.86 120.293a14 14 0 0 1-12.453 7.598z"/></g></g></g></svg></g><g transform="translate(1933.3333333333335 498.33333333333337) rotate(0.0 340.0 668.3333333333333) scale(1.6707165162612312 1.6684037204154782)"><svg width="407.011" height="801.165" viewBox="0 0 407.011 801.165"><path d="M75.108 746.156c-25.365 8.534-47.734 27.404-68.106 53.176-.522.661-1.232.901-1.9.817-1.166-.108-2.223-1.148-1.964-2.563 5.719-31.788 6.614-61.297-1.95-86.366-.427-1.274-.119-2.677.843-3.616 24.648-24.053 48.32-48.102 61.123-72.149l31.248 14.763a68.972 68.972 0 0 0-3.291 7.116c-8.611 21.49-11.146 53.608-13.621 85.81-.106 1.399-1.054 2.566-2.382 3.012z" fill="#ffe993"/><path d="M5.364 801.166c-.127 0-.256-.008-.385-.024a3.225 3.225 0 0 1-2.254-1.26c-.531-.7-.734-1.579-.57-2.475 6.364-35.377 5.739-63.464-1.912-85.863-.561-1.671-.142-3.452 1.091-4.655 24.851-24.252 48.212-48 60.938-71.902a1 1 0 0 1 1.31-.435l31.248 14.763a.996.996 0 0 1 .453 1.377 67.784 67.784 0 0 0-3.242 7.013c-8.638 21.557-11.137 54.072-13.554 85.517-.136 1.779-1.337 3.304-3.061 3.884-23.71 7.977-45.835 25.264-67.64 52.848-.617.781-1.485 1.212-2.422 1.212zm58.222-164.401c-12.954 23.87-36.177 47.471-60.855 71.555-.678.662-.906 1.651-.594 2.582 7.762 22.725 8.412 51.139 1.986 86.861-.064.35.002.654.196.909.205.27.532.449.876.48.298.039.686-.013 1.024-.44 22.053-27.898 44.483-45.399 68.572-53.505.961-.322 1.63-1.163 1.704-2.14 2.428-31.596 4.939-64.267 13.69-86.105a70.835 70.835 0 0 1 2.848-6.286z" fill="#112c41"/><path d="M75.108 746.156c-25.365 8.534-47.734 27.404-68.106 53.176-.522.661-1.232.901-1.9.817l70.925-149.112 15.085 6.298c-8.611 21.49-11.146 53.608-13.621 85.81-.107 1.398-1.055 2.565-2.383 3.011z" fill="#ffd169"/><path d="M5.364 801.166c-.127 0-.256-.008-.385-.024a3.225 3.225 0 0 1-2.254-1.26c-.531-.7-.734-1.579-.57-2.475 6.364-35.377 5.739-63.464-1.912-85.863-.561-1.671-.142-3.452 1.091-4.655 24.851-24.252 48.212-48 60.938-71.902a1 1 0 0 1 1.31-.435l31.248 14.763a.996.996 0 0 1 .453 1.377 67.784 67.784 0 0 0-3.242 7.013c-8.638 21.557-11.137 54.072-13.554 85.517-.136 1.779-1.337 3.304-3.061 3.884-23.71 7.977-45.835 25.264-67.64 52.848-.617.781-1.485 1.212-2.422 1.212zm58.222-164.401c-12.954 23.87-36.177 47.471-60.855 71.555-.678.662-.906 1.651-.594 2.582 7.762 22.725 8.412 51.139 1.986 86.861-.064.35.002.654.196.909.205.27.532.449.876.48.298.039.686-.013 1.024-.44 22.053-27.898 44.483-45.399 68.572-53.505.961-.322 1.63-1.163 1.704-2.14 2.428-31.596 4.939-64.267 13.69-86.105a70.835 70.835 0 0 1 2.848-6.286z" fill="#112c41"/><path d="M188.363 493.989c-22.518 53.022-48.753 104.48-77.444 154.591l-.066.123-7.219-3.408a12.583 12.583 0 0 1-.652-.304l-7.976-3.769.001-.01-42.024-19.852c20.48-54.035 43.601-107.013 70.28-158.123l8.326 3.933 36.631 17.306 11.806 5.578c.049.022.097.047.146.06l8.191 3.875z" fill="#b2b0f7"/><path d="M110.912 648.575a513.098 513.098 0 0 1-7.277-3.278 8.773 8.773 0 0 1-.651-.307 514.944 514.944 0 0 1-7.977-3.763l-.005-.013c15.689-23.813 73.582-146.4 73.215-156.734l11.812 5.572c.045.021.077.047.136.064l.009.004 8.19 3.874c-20.85 49.683-47.248 101.426-77.452 154.581z" fill="#9797f7"/><path d="M110.79 649.686a.834.834 0 0 1-.363-.079l-7.219-3.407a11.948 11.948 0 0 1-.668-.312l-7.96-3.761a1.223 1.223 0 0 1-.118-.065l-41.906-19.797a1 1 0 0 1-.508-1.259c21.885-57.74 44.89-109.498 70.329-158.23a.996.996 0 0 1 1.313-.441l56.763 26.817c.062.016.089.032.146.06l8.191 3.874a1 1 0 0 1 .493 1.295c-21.405 50.402-46.755 101.004-77.496 154.697-.191.356-.6.608-.997.608zm-15.238-9.312 7.858 3.713c.212.104.408.2.615.288l6.416 3.027c30.348-53.059 55.421-103.096 76.626-152.92l-7.267-3.438a1.836 1.836 0 0 1-.179-.075l-55.916-26.417c-25.098 48.168-47.83 99.318-69.46 156.298l41.189 19.458c.042.02.081.041.118.066z" fill="#112c41"/><path d="M247.584 384.461a1932.209 1932.209 0 0 1-50.638 100.081c-2.821 5.137-8.914 7.67-14.451 6.374a12.938 12.938 0 0 1-2.322-.797l-.009-.004c-.058-.017-.09-.043-.136-.064l-11.812-5.572-36.625-17.31c-6.073-2.876-9.008-10.297-6.494-16.564a1915.194 1915.194 0 0 1 97.965-205.661l51.06 24.119 19.464 9.203.009.004-1.1 2.754a1908.23 1908.23 0 0 1-44.911 103.437z" fill="#b2b0f7"/><path d="M247.584 384.461a1742.482 1742.482 0 0 1-51.294 99.761c-2.5 5.3-8.313 7.965-13.795 6.695a12.938 12.938 0 0 1-2.322-.797l-.009-.004c-.058-.017-.09-.043-.136-.064l-11.812-5.572c-.02-.496-.16-.739-.454-.701 46.715-71.913 106.36-214.715 106.36-214.715l19.464 9.203c-.368.921-.723 1.837-1.091 2.758a1716.268 1716.268 0 0 1-44.911 103.436z" fill="#9797f7"/><path d="M185.387 492.249c-1.041 0-2.087-.117-3.119-.358-.9-.221-1.705-.496-2.469-.843a1.335 1.335 0 0 1-.22-.104l-48.414-22.87c-6.558-3.105-9.695-11.108-6.995-17.84 28.407-70.112 61.385-139.343 98.018-205.772a1 1 0 0 1 1.303-.421l70.524 33.322c.478.227.706.79.51 1.28l-1.1 2.754a1918.146 1918.146 0 0 1-44.935 103.488v.001a1943.3 1943.3 0 0 1-50.664 100.134c-2.46 4.478-7.38 7.229-12.439 7.229zm-4.859-3.065a12.009 12.009 0 0 0 2.207.762c5.181 1.207 10.796-1.262 13.335-5.885a1940.292 1940.292 0 0 0 50.609-100.026 1916.527 1916.527 0 0 0 44.888-103.38l.752-1.882-68.834-32.522c-36.413 66.107-69.202 134.986-97.461 204.731-2.312 5.765.376 12.623 5.995 15.284l48.436 22.881.073.037zm-.09-.03.003.001-.003-.001zm67.146-104.693h.01z" fill="#112c41"/><path d="M402.697 64.095a2258.515 2258.515 0 0 1-104.402 215.588l-3.615-1.704-19.47-9.206-51.061-24.123-4.519-2.136A2255.93 2255.93 0 0 1 319.856 24.956c9.62-18.01 30.828-26.909 49.937-23.08a43.997 43.997 0 0 1 10.058 3.335 44.076 44.076 0 0 1 8.962 5.655c.057.044.105.088.163.132 6.174 5.075 10.843 11.705 13.738 19.098 4.156 10.668 4.636 22.913-.017 33.999z" fill="#b2b0f7"/><path d="M298.294 280.683a.983.983 0 0 1-.426-.096l-78.665-37.169a1 1 0 0 1-.502-1.273c29.376-73.867 63.112-147.097 100.27-217.654C328.427 6.788 349.88-3.131 369.989.896a45.129 45.129 0 0 1 10.287 3.41 45.198 45.198 0 0 1 9.169 5.786l.087.069.079.063c6.171 5.074 11.024 11.819 14.035 19.507 4.52 11.6 4.51 23.94-.026 34.75v.001c-30.802 73.292-65.943 145.858-104.448 215.683-.183.33-.524.518-.878.518zm-77.387-38.672 76.965 36.367c38.295-69.512 73.249-141.729 103.903-214.671 4.334-10.327 4.337-22.136.007-33.248-2.886-7.369-7.534-13.832-13.442-18.689l-.081-.065-.079-.063a43.15 43.15 0 0 0-8.759-5.526 43.103 43.103 0 0 0-9.826-3.258c-19.262-3.863-39.809 5.632-48.857 22.57-36.975 70.21-70.564 143.08-99.831 216.583zm181.79-177.916h.01z" fill="#112c41"/><path d="M400.7 69.105c-22.356 59.112-102.405 210.578-102.405 210.578l-3.615-1.704-19.47-9.206 9.307.811s41.045-89.467 63.13-135.098c22.085-45.621 33.66-68.903 41.31-123.495a43.489 43.489 0 0 1 13.263 18.884c3.749 10.483 5.824 23.898-1.52 39.23z" fill="#9797f7"/><path d="M298.294 280.683a.983.983 0 0 1-.426-.096l-78.665-37.169a1 1 0 0 1-.502-1.273c29.376-73.867 63.112-147.097 100.27-217.654C328.427 6.788 349.88-3.131 369.989.896a45.129 45.129 0 0 1 10.287 3.41 45.198 45.198 0 0 1 9.169 5.786l.087.069.079.063c6.171 5.074 11.024 11.819 14.035 19.507 4.52 11.6 4.51 23.94-.026 34.75v.001c-30.802 73.292-65.943 145.858-104.448 215.683-.183.33-.524.518-.878.518zm-77.387-38.672 76.965 36.367c38.295-69.512 73.249-141.729 103.903-214.671 4.334-10.327 4.337-22.136.007-33.248-2.886-7.369-7.534-13.832-13.442-18.689l-.081-.065-.079-.063a43.15 43.15 0 0 0-8.759-5.526 43.103 43.103 0 0 0-9.826-3.258c-19.262-3.863-39.809 5.632-48.857 22.57-36.975 70.21-70.564 143.08-99.831 216.583zm181.79-177.916h.01z" fill="#112c41"/><path d="M312.162 267.039c-2.014 4.269-4.032 8.547-6.054 12.811-2.099 4.45-7.593 6.767-12.226 5.08a467.4 467.4 0 0 1-22.291-8.812 468.1 468.1 0 0 1-54.763-27.591c-4.249-2.502-5.95-8.224-3.851-12.674a6225.32 6225.32 0 0 0 6.054-12.811c2.099-4.45 7.209-5.953 11.467-3.447a468.665 468.665 0 0 0 63.632 31.244 428.577 428.577 0 0 0 13.413 5.155c4.642 1.691 6.723 6.587 4.619 11.045z" fill="#ffe993"/><path d="M312.162 267.039c-2.014 4.269-4.032 8.547-6.054 12.811-2.099 4.45-7.593 6.767-12.226 5.08a467.4 467.4 0 0 1-22.291-8.812c10.326-3.256 20.921-11.371 22.535-25.271l.004-.009a428.577 428.577 0 0 0 13.413 5.155c4.642 1.692 6.723 6.588 4.619 11.046z" fill="#ffd169"/><path d="M297.061 286.482c-1.188 0-2.38-.198-3.525-.617a471.586 471.586 0 0 1-77.213-36.479c-4.677-2.752-6.583-9.013-4.248-13.955l6.054-12.815c1.125-2.382 3.068-4.102 5.472-4.843 2.445-.752 5.075-.413 7.404.957a469.535 469.535 0 0 0 76.887 36.32c2.538.929 4.469 2.743 5.44 5.108.955 2.328.862 4.923-.264 7.306l-6.055 12.816c-1.809 3.835-5.851 6.202-9.952 6.202zm-70.865-67.099c-.677 0-1.351.1-2.006.302-1.86.573-3.37 1.917-4.252 3.784l-6.054 12.815c-1.905 4.032-.355 9.137 3.454 11.378a469.451 469.451 0 0 0 76.885 36.323c4.151 1.52 9.078-.524 10.982-4.559l6.055-12.816c.883-1.869.962-3.891.222-5.692-.755-1.84-2.274-3.257-4.277-3.989a471.626 471.626 0 0 1-77.215-36.476c-1.205-.708-2.506-1.07-3.794-1.07z" fill="#112c41"/><path d="m312.858 171.598 75.935-160.74c-2.679-2.195-5.674-4.096-8.947-5.642s-6.644-2.652-10.041-3.328L292.301 165.95c-3.479 7.364-8.851 13.58-15.236 18.636a21.166 21.166 0 0 0-5.996 7.579c-4.836 10.237-.862 22.265 8.875 26.865 9.738 4.6 21.552.031 26.388-10.207 1.643-3.478 2.267-7.162 1.993-10.69-.706-9.114.629-18.27 4.533-26.535z" fill="#ffe993"/><path d="M287.932 221.827a19.63 19.63 0 0 1-8.414-1.893c-4.959-2.343-8.662-6.572-10.425-11.909-1.757-5.319-1.376-11.104 1.073-16.287a22.331 22.331 0 0 1 6.279-7.937c6.697-5.302 11.728-11.452 14.953-18.278L368.901 1.461A.994.994 0 0 1 370 .907a44.33 44.33 0 0 1 10.273 3.404 44.323 44.323 0 0 1 9.154 5.773 1 1 0 0 1 .271 1.2l-75.935 160.74c-3.629 7.683-5.164 16.684-4.44 26.031.295 3.809-.426 7.68-2.086 11.194-2.449 5.185-6.675 9.152-11.899 11.173a20.49 20.49 0 0 1-7.406 1.405zm82.44-218.8-77.167 163.35c-3.358 7.107-8.579 13.498-15.52 18.993-2.438 1.931-4.361 4.36-5.713 7.222-2.229 4.719-2.577 9.977-.982 14.807 1.59 4.812 4.921 8.621 9.38 10.728 4.459 2.106 9.518 2.259 14.244.433 4.744-1.835 8.583-5.443 10.812-10.161 1.512-3.201 2.169-6.724 1.901-10.187-.751-9.693.848-19.043 4.625-27.039L387.55 11.145a42.422 42.422 0 0 0-8.133-5.023 42.282 42.282 0 0 0-9.045-3.095z" fill="#112c41"/><path d="M196.081 490.525c-2.283 4.839-8.06 7.266-13.478 5.296a324.677 324.677 0 0 1-12.705-4.921 338.92 338.92 0 0 1-44.392-22.057c-5.378-3.178-7.032-9.962-3.818-14.947.894-1.403 2.69-1.882 4.164-1.187.117.055.235.111.344.184a325.487 325.487 0 0 0 48.459 24.827 324.905 324.905 0 0 0 19.835 7.433c1.699.57 2.645 2.409 2.085 4.112-.137.433-.306.862-.494 1.26z" fill="#ffe993"/><path d="M196.081 490.525c-2.283 4.839-8.06 7.266-13.478 5.296a324.677 324.677 0 0 1-12.705-4.921c2.177-4.358 3.846-8.856 4.758-13.18a324.905 324.905 0 0 0 19.835 7.433c1.699.57 2.645 2.409 2.085 4.112-.138.433-.307.862-.495 1.26z" fill="#ffd169"/><path d="M186.474 497.511c-1.409 0-2.829-.25-4.21-.753a342.882 342.882 0 0 1-57.267-27.052c-2.878-1.7-4.878-4.392-5.631-7.578-.722-3.056-.194-6.173 1.487-8.776 1.251-1.959 3.887-2.549 5.875-1.31a326.566 326.566 0 0 0 68.082 32.161c2.218.75 3.437 3.16 2.719 5.374-.943 2.948-3.016 5.336-5.835 6.719a11.806 11.806 0 0 1-5.22 1.215zm-62.019-44.119a2.27 2.27 0 0 0-1.919 1.04c-1.386 2.146-1.819 4.715-1.224 7.236.626 2.652 2.296 4.896 4.702 6.316a340.954 340.954 0 0 0 56.932 26.895c2.626.955 5.419.822 7.866-.379 2.326-1.141 4.035-3.107 4.812-5.536.383-1.182-.27-2.465-1.456-2.866a328.552 328.552 0 0 1-68.499-32.358 2.279 2.279 0 0 0-1.214-.348z" fill="#112c41"/><path d="M92.818 658.36a358.125 358.125 0 0 1-14.729-6.373c.013-.005.013-.005.022 0 17.526 2.529 27.359-15.621 24.192-23.251a303.503 303.503 0 0 0 10.933 4.317c4.417 1.653 6.805 6.505 5.284 10.973a699.498 699.498 0 0 1-1.472 4.292c-3.122 9.385-14.093 14.172-24.23 10.042z" fill="#ffd169"/><path d="M92.818 658.36a358.125 358.125 0 0 1-35.843-16.93c-9.625-5.215-12.899-16.721-7.624-25.091.785-1.288 1.583-2.581 2.376-3.866 2.489-4.011 7.753-5.255 11.824-2.892a324.924 324.924 0 0 0 38.752 19.154 303.503 303.503 0 0 0 10.933 4.317c4.417 1.653 6.805 6.505 5.284 10.973a699.498 699.498 0 0 1-1.472 4.292c-3.122 9.386-14.093 14.173-24.23 10.043z" fill="#ffe993"/><path d="M100.337 660.842a20.96 20.96 0 0 1-7.897-1.557 361.41 361.41 0 0 1-35.94-16.978c-5.006-2.709-8.669-7.285-10.052-12.556-1.276-4.864-.548-9.816 2.05-13.944l2.374-3.862c2.785-4.479 8.574-5.897 13.183-3.229a327.982 327.982 0 0 0 49.535 23.399c4.988 1.865 7.572 7.237 5.882 12.229l-1.48 4.301c-1.535 4.618-4.898 8.325-9.466 10.43-2.555 1.178-5.354 1.767-8.189 1.767zm-41.184-51.437c-2.601 0-5.143 1.282-6.579 3.593l-2.377 3.866c-2.306 3.664-2.948 8.058-1.814 12.382 1.242 4.736 4.548 8.857 9.069 11.304a359.4 359.4 0 0 0 35.741 16.884v.001c4.762 1.938 10.046 1.876 14.496-.175 4.06-1.87 7.046-5.157 8.408-9.254l1.482-4.306c1.317-3.892-.786-8.25-4.689-9.71a330.063 330.063 0 0 1-49.837-23.542 7.766 7.766 0 0 0-3.9-1.043z" fill="#112c41"/><circle cx="288.665" cy="199.31" fill="#b2b0f7" r="9"/><path d="M288.649 209.309a9.941 9.941 0 0 1-4.256-.957 9.939 9.939 0 0 1-5.143-5.669 9.933 9.933 0 0 1 .372-7.644 9.938 9.938 0 0 1 5.668-5.144 9.931 9.931 0 0 1 7.645.372c4.986 2.355 7.126 8.328 4.771 13.313-1.705 3.611-5.307 5.729-9.057 5.729zm.021-18.003c-.91 0-1.822.157-2.704.473a7.955 7.955 0 0 0-4.535 4.114 7.947 7.947 0 0 0-.298 6.116 7.95 7.95 0 0 0 4.114 4.534c3.99 1.884 8.767.173 10.651-3.815 1.885-3.989.172-8.768-3.816-10.651a7.967 7.967 0 0 0-3.412-.771zm8.132 11.849h.01z" fill="#112c41"/></svg></g></svg>