<svg height="115.514" viewBox="0 0 191.063 115.514" width="191.063" xmlns="http://www.w3.org/2000/svg"><rect fill="#ffd169" height="113.4" rx="9.483" width="189" x="1.032" y="1.057"/><g fill="#112c41"><path d="m10.546 115.514a10.493 10.493 0 0 1 -10.482-10.475l-.064-94.439a10.483 10.483 0 0 1 10.476-10.486l170.034-.114h.008a10.482 10.482 0 0 1 10.482 10.475l.063 94.435a10.482 10.482 0 0 1 -10.475 10.49l-170.035.114zm169.972-113.514h-.006l-170.035.114a8.484 8.484 0 0 0 -8.477 8.486l.064 94.435a8.481 8.481 0 0 0 8.482 8.477h.006l170.034-.114a8.483 8.483 0 0 0 8.477-8.488l-.063-94.433a8.492 8.492 0 0 0 -8.482-8.477z"/><path d="m1.016 21.457h189v27h-189z"/><path d="m1.025 49.521a1 1 0 0 1 -1-1l-.018-27a1 1 0 0 1 1-1l189-.127a1 1 0 0 1 1 1l.018 27a1 1 0 0 1 -1 1l-189 .127zm.983-27 .017 25 187-.126-.017-25z"/></g><circle cx="161.983" cy="82.592" fill="#fcaa51" r="16"/><path d="m162 99.593c-.2 0-.393 0-.591-.01a16.981 16.981 0 1 1 .591.01zm-.022-32a15 15 0 1 0 15 15.508 15 15 0 0 0 -14.483-15.5c-.176-.001-.348-.009-.519-.009z" fill="#112c41"/><circle cx="139.72" cy="84.169" fill="#ffe993" r="16"/><path d="m139.719 101.169a17 17 0 0 1 -.019-34h.02a17 17 0 0 1 17 16.981 17 17 0 0 1 -16.981 17.019zm0-32h-.019a15 15 0 0 0 .016 30h.017a15 15 0 0 0 14.987-15.017 15 15 0 0 0 -15-14.983z" fill="#112c41"/></svg>