<svg xmlns="http://www.w3.org/2000/svg" viewBox="0 0 1800 1800" width="1800" height="1800"><g transform="translate(278.0 1672.0) rotate(0.0 187.0 24.5) scale(0.9118526212105696 0.9057133879225893)"><svg width="410.154" height="54.101" viewBox="0 0 410.154 54.101"><ellipse cx="205.077" cy="27.05" fill="#cbc8ff" rx="205.077" ry="27.05"/></svg></g><g transform="translate(1170.0 1676.0) rotate(0.0 172.5 22.5) scale(0.8411474714375576 0.8317776011533983)"><svg width="410.154" height="54.101" viewBox="0 0 410.154 54.101"><ellipse cx="205.077" cy="27.05" fill="#cbc8ff" rx="205.077" ry="27.05"/></svg></g><g transform="translate(1206.0 1441.0) rotate(0.0 154.5 129.5) scale(1.036850123146924 1.0302962797950546)"><svg width="298.018" height="251.384" viewBox="0 0 298.018 251.384"><path d="M293.018 250.384H5a4 4 0 0 1-4-4V5a4 4 0 0 1 4-4h288.018a4 4 0 0 1 4 4v241.384c0 2.21-1.79 4-4 4z" fill="#ffa7da"/><path d="M293.018 251.385H5c-2.757 0-5-2.243-5-5V5c0-2.757 2.243-5 5-5h288.019c2.757 0 5 2.243 5 5v241.385a5.008 5.008 0 0 1-5.001 5zM5 2C3.345 2 2 3.346 2 5v241.385c0 1.654 1.346 3 3 3h288.019c1.654 0 3-1.346 3-3V5c0-1.654-1.346-3-3-3z" fill="#112c41"/><path d="M72.472 250.384H5c-2.209 0-4-1.993-4-4.451V5.748C1 3.29 2.791 1.297 5 1.297h67.472c-1.016-.017-1.996.421-2.719 1.215s-1.13 1.878-1.129 3.009l.236 240.524c.001 2.273 1.574 4.163 3.612 4.339z" fill="#ff90d8"/><path d="M72.471 251.385H5c-2.757 0-5-2.445-5-5.451V5.748C0 2.742 2.243.297 5 .297h67.489l-.017 2h-.105c-.7.014-1.362.327-1.874.888-.553.606-.869 1.457-.868 2.334l.235 240.523c.002 1.745 1.187 3.214 2.699 3.346zM5 2.297c-1.654 0-3 1.548-3 3.451v240.185c0 1.903 1.346 3.451 3 3.451h63.946a5.64 5.64 0 0 1-1.087-3.34L67.624 5.521a5.48 5.48 0 0 1 1.018-3.225H5z" fill="#112c41"/></svg></g><g transform="translate(1300.0 761.0) rotate(-32.72579255800936 -402.0 444.5) scale(-1.108123343500319 1.1075825173892948)"><svg width="725.551" height="802.649" viewBox="0 0 725.551 802.649"><path d="M618.029 296.352a833.941 833.941 0 0 1-38.854-4.463l-.218-.019c-.084-.014-.167-.019-.229-.027-13.222-1.832-26.06-3.597-37.257-5.232 0 0-9.512 93.225-20.865 142.758 12.51 1.523 23.17 2.019 36.467 3.083 22.859 1.835 42.386 3.339 42.386 3.339z" fill="#ffd6c0"/><path d="M531.319 300.971 616.107 312c3.073-3.559 9.103-10.395 10.742-13.099-33.822-4.591-90.517-12.316-90.517-12.316z" fill="#f5b9ab"/><path d="m599.459 436.791-.078-.003c-.195-.015-19.789-1.525-42.389-3.339-3.961-.317-7.688-.584-11.299-.843-8.436-.603-16.403-1.173-25.209-2.244a1.003 1.003 0 0 1-.853-1.217c11.21-48.907 20.75-141.705 20.845-142.637a1.002 1.002 0 0 1 1.14-.888c9.774 1.428 20.688 2.938 32.242 4.538l5.008.693c.11.011.187.019.264.032l.14.009c13.48 1.857 25.812 3.274 38.851 4.462a.998.998 0 0 1 .9 1.128l-18.57 139.439c-.068.502-.495.87-.992.87zm-77.632-8.282c8.324.981 15.952 1.526 24.009 2.104 3.617.259 7.35.525 11.316.843 19.783 1.588 37.263 2.943 41.439 3.266l18.309-137.47a827.517 827.517 0 0 1-37.861-4.373l-.161-.012-.165-.021a4.462 4.462 0 0 1-.121-.014l-5.008-.693c-11.153-1.544-21.71-3.005-31.226-4.39-1.079 10.31-10.042 94.304-20.531 140.76z" fill="#112c41"/><path d="M672.359 507.873c20.888-46.7 25.563-110.95 20.667-165.732-1.431-15.97-3.664-31.133-6.557-44.822 0 0-42.755.155-68.44-.967l-1.469 11.267s-16.973 127.842-17.102 128.173c4.212 10.356 26.305 57.702 72.901 72.081z" fill="#ffa9dc"/><path d="M686.469 297.319s-42.755.155-68.44-.967l.706 14.124c22.14 3.849 56.823 9.336 73.426 21.391.175.127-2.798-20.858-5.692-34.548z" fill="#ff90d8"/><path d="M672.36 508.873c-.098 0-.197-.015-.295-.045-47.871-14.771-69.652-63.118-73.533-72.66a1.003 1.003 0 0 1-.051-.585c.395-2.356 16.922-126.837 17.089-128.097l1.468-11.264c.066-.515.522-.912 1.035-.87 25.368 1.109 67.965.966 68.393.967h.004a1 1 0 0 1 .979.793c2.935 13.883 5.146 29.002 6.575 44.939 5.589 62.542-2.168 124.685-20.75 166.229a1.003 1.003 0 0 1-.914.593zm-71.882-73.231c2.763 6.711 24.49 56.045 71.33 71.01 18.188-41.243 25.746-102.61 20.223-164.422-1.395-15.554-3.538-30.321-6.373-43.908-5.966.017-43.222.055-66.756-.932l-1.35 10.357c-14.429 108.683-16.685 125.269-17.074 127.895z" fill="#112c41"/><path d="M693.546 424.981c-.381 0-.767-.088-1.129-.271-16.934-8.592-28.019-24.105-37.063-51.875-8.725-26.788-20.798-37.79-46.137-42.044-1.361-.229-2.28-1.518-2.052-2.88s1.514-2.279 2.88-2.052c27.196 4.566 40.765 16.878 50.062 45.427 10.806 33.173 23.54 43.368 34.571 48.965a2.5 2.5 0 0 1-1.132 4.73z" fill="#fff"/><path d="M694.892 513.201c1.589.157 3.06-.252 4.286-1.543 22.32-23.516 34.177-146.025 17.611-207.13-1.419-5.234-4.31-6.554-7.602-7.018l-22.718-.19c12.804 60.672 12.863 150.243-14.11 210.554 7.602 2.535 15.354 4.617 22.533 5.327z" fill="#fff"/><path d="M695.527 514.232c-.24 0-.484-.013-.733-.037-6.349-.628-13.791-2.386-22.75-5.374a.998.998 0 0 1-.597-1.357c27.237-60.903 26.373-151.52 14.044-209.939a1.002 1.002 0 0 1 .978-1.206h.009l22.718.189c.043 0 .087.004.131.01 3.253.458 6.799 1.737 8.428 7.747 7.703 28.411 9.874 72.527 5.808 118.011-3.965 44.359-13.03 78.872-23.658 90.069-1.191 1.255-2.661 1.887-4.378 1.887zm-21.806-6.962c8.351 2.73 15.317 4.347 21.27 4.936 1.406.14 2.54-.265 3.462-1.236 21.144-22.276 34.474-143.102 17.372-206.18-1.24-4.572-3.58-5.827-6.713-6.281l-21.41-.178c12.082 58.436 12.793 148.066-13.981 208.939z" fill="#112c41"/><path d="M618.024 296.352c4.255 42.71-4.733 102.553-18.566 139.439 0 0-16.056-1.315-36.052-2.83-.693-.051-1.394-.109-2.095-.166s-1.401-.115-2.109-.166c-.701-.058-1.415-.115-2.13-.173 12.278-34.335 19.937-91.5 21.371-140.637 0 0 .099.013.283.026.064.007.148.006.226.026.078.006.149.006.219.019a833.744 833.744 0 0 0 38.853 4.462z" fill="#fff"/><g fill="#112c41"><path d="m599.458 436.791-.082-.003c-.16-.014-16.281-1.332-36.045-2.83-.694-.051-1.398-.108-2.102-.166a196.06 196.06 0 0 0-2.098-.166l-2.139-.173a1 1 0 0 1-.862-1.334c11.389-31.851 19.754-86.933 21.312-140.329a1 1 0 0 1 1.126-.962c.011.002.091.011.227.02.11.008.202.017.286.03.116.008.197.016.279.031a827.574 827.574 0 0 0 38.754 4.447 1 1 0 0 1 .904.896c4.049 40.641-3.959 100.78-18.625 139.891a.997.997 0 0 1-.935.648zm-41.01-5.226.837.067c.7.051 1.404.108 2.108.166.697.058 1.396.115 2.086.166a6777.238 6777.238 0 0 1 35.306 2.769c14.308-38.61 22.135-97.345 18.324-137.461a827.267 827.267 0 0 1-37.699-4.339c-1.623 52.57-9.806 106.645-20.962 138.632z"/><path d="M618.026 297.352a.957.957 0 0 1-.092-.004c-13.086-1.192-25.445-2.612-38.897-4.467l-.17-.014a1.042 1.042 0 0 1-.167-.029l-.08.001c-.183-.012-.302-.027-.302-.027a1 1 0 0 1-.863-1.12c.07-.546.578-.928 1.114-.864.017.002.096.011.228.02.11.008.202.017.286.03.116.008.197.016.279.031a827.574 827.574 0 0 0 38.754 4.447 1 1 0 0 1-.09 1.996zm-18.567 139.439-.078-.003s-16.035-1.237-36.054-2.83c-.69-.051-1.395-.108-2.098-.166a196.06 196.06 0 0 0-2.098-.166l-2.139-.173a1 1 0 0 1 .16-1.994l2.132.173c.7.051 1.404.108 2.108.166a16757.839 16757.839 0 0 0 38.142 2.996 1 1 0 0 1-.075 1.997z"/></g><circle cx="628.79" cy="425.941" fill="#ffe993" r="8.5"/><path d="M631.286 427.514c-1.592 15.221-11.337 30.751-16.276 34.949a2.833 2.833 0 0 1-3.669-4.315c3.791-3.223 13.25-18.019 14.392-32.102a2.833 2.833 0 0 1 5.646.454c-.026.337-.058.676-.093 1.014z" fill="#fff"/><path d="M613.179 464.136a3.829 3.829 0 0 1-2.923-1.348 3.838 3.838 0 0 1 .437-5.402c3.693-3.138 12.924-17.613 14.044-31.422.173-2.107 2.049-3.663 4.128-3.512a3.839 3.839 0 0 1 3.513 4.127c-.028.346-.061.693-.096 1.039l-.001.001c-1.643 15.698-11.542 31.288-16.623 35.605a3.808 3.808 0 0 1-2.479.912zm15.376-39.696c-.942 0-1.746.728-1.824 1.686-1.165 14.354-10.861 29.485-14.742 32.783a1.833 1.833 0 0 0 2.373 2.792c4.729-4.018 14.365-19.334 15.931-34.291.034-.33.064-.662.091-.992a1.834 1.834 0 0 0-1.829-1.978zm2.731 3.075h.01z" fill="#112c41"/><circle cx="647.953" cy="444.79" fill="#ffe993" r="8.5"/><path d="M650.402 446.436c-2.042 15.167-14.306 31.264-19.367 35.314a2.833 2.833 0 0 1-3.539-4.423c3.885-3.109 15.841-18.48 17.4-32.524a2.832 2.832 0 1 1 5.63.622c-.037.337-.079.675-.124 1.011z" fill="#fff"/><path d="M629.27 483.369a3.826 3.826 0 0 1-2.996-1.436 3.837 3.837 0 0 1 .597-5.387c3.57-2.857 15.479-17.869 17.031-31.854.233-2.102 2.137-3.612 4.229-3.389 1.017.112 1.93.614 2.57 1.413s.931 1.8.818 2.817c-.038.345-.08.69-.127 1.035-2.139 15.881-14.982 32.159-19.732 35.961-.705.566-1.55.84-2.39.84zm18.439-40.088c-.92 0-1.715.696-1.819 1.633-1.617 14.56-14.044 30.212-17.77 33.194a1.834 1.834 0 0 0-.285 2.575 1.834 1.834 0 0 0 2.575.285c4.572-3.658 16.938-19.343 19-34.666v-.001c.045-.329.085-.658.121-.986a1.817 1.817 0 0 0-.392-1.347 1.82 1.82 0 0 0-1.43-.687z" fill="#112c41"/><path d="M121.833 676.098c88.522.842 123.788-65.916 123.788-65.916a834.16 834.16 0 0 1-18.967-34.202l-.111-.188c-.038-.077-.082-.146-.112-.202-6.199-11.821-11.4-22.284-16.582-32.343 0 0-83.746 41.888-130.643 61.461l.559 1.021c5.928 10.809 13.033 22.939 19.691 34.024a1919.827 1919.827 0 0 0 22.201 36.053z" fill="#ffd6c0"/><path d="m191.699 543.447 40.108 75.511c4.681.444 13.746 1.402 16.9 1.172-15.843-30.232-40.97-80.936-40.97-80.936z" fill="#f5b9ab"/><path d="m122.908 675.821-.071.002c-.337.094-.674.188-1.018.275-5.975 9.45-32.069 55.034-16.665 101.302 64.749-13.134 137.578-65.279 179.486-110.981 0 0-24.993-34.689-39.018-56.237" fill="#ffa9dc"/><path d="M284.522 667.821s-24.886-34.766-38.845-56.357l-11.106 8.755c9.683 20.279 25.294 51.732 25.081 72.249-.002.215 15.385-14.361 24.87-24.647z" fill="#ff90d8"/><path d="M105.153 778.4a1 1 0 0 1-.948-.685c-15.7-47.156 11.214-93.367 16.77-102.151.137-.217.352-.372.6-.436.297-.075.589-.156.881-.237l.115-.032a1.08 1.08 0 0 1 .24-.036c.508.008 1.047.419 1.062.972.015.532-.357.978-.879 1.022l-.004.001c-.178.05-.356.1-.535.147-5.865 9.371-31.267 53.83-16.628 99.275 64.864-13.497 137.24-66.203 177.525-109.899-3.527-4.91-25.755-35.927-38.568-55.613a1 1 0 1 1 1.676-1.092c13.852 21.28 38.741 55.851 38.991 56.197.277.385.246.911-.074 1.261-40.565 44.239-114.203 97.935-180.023 111.286a.986.986 0 0 1-.201.02z" fill="#112c41"/><path d="M183.592 747.011a2.501 2.501 0 0 1-2.475-2.163c-2.56-18.816 3.899-36.756 21.599-59.985 17.075-22.409 19.261-38.597 8.351-61.858a2.5 2.5 0 0 1 4.527-2.123c11.709 24.967 9.297 43.129-8.901 67.013-21.143 27.749-22.288 44.021-20.62 56.28a2.5 2.5 0 0 1-2.481 2.836z" fill="#fff"/><path d="M113.925 798.829c.796 1.384 1.985 2.343 3.748 2.589 32.112 4.479 138.665-57.127 178.737-106.142 3.432-4.199 2.825-7.318 1.288-10.266l-13.058-18.591c-41.908 45.703-114.737 97.846-179.486 110.981 2.359 7.659 5.174 15.176 8.771 21.429z" fill="#fff"/><path d="M121.156 802.641c-1.3 0-2.507-.077-3.62-.232-1.951-.272-3.458-1.309-4.478-3.08h-.001c-3.181-5.53-6.079-12.606-8.859-21.634a1.006 1.006 0 0 1 .757-1.275c65.385-13.265 138.596-66.67 178.947-110.677a1.05 1.05 0 0 1 .802-.322c.303.02.58.176.754.423l13.059 18.592c.025.036.048.074.068.112 1.519 2.913 2.54 6.54-1.4 11.36-18.632 22.79-53.256 50.215-92.621 73.361-35.596 20.93-66.857 33.372-83.408 33.372zm-6.364-4.311c.706 1.227 1.693 1.912 3.021 2.098 30.448 4.234 136.458-55.188 177.823-105.785 2.999-3.667 2.658-6.3 1.206-9.111l-12.308-17.521c-40.509 43.815-113.007 96.523-178.098 110.147 2.636 8.381 5.373 14.989 8.356 20.172z" fill="#112c41"/><path d="M226.281 575.334c-40.794 27.42-91.76 54.439-126.829 64.421a1964.608 1964.608 0 0 0 22.203 36.046c.4.014.831.02 1.253.016 41.033-10.841 90.233-37.156 122.706-65.624l.011-.009a830.647 830.647 0 0 1-18.967-34.205 1.836 1.836 0 0 1-.114-.19c-.034-.073-.079-.137-.114-.2a1.761 1.761 0 0 1-.061-.106c-.063-.096-.088-.149-.088-.149z" fill="#fff"/><path d="M122.631 676.818c-.343 0-.687-.007-1.011-.019a1 1 0 0 1-.811-.464 1982.117 1982.117 0 0 1-22.215-36.066.998.998 0 0 1-.072-.882.996.996 0 0 1 .656-.595c32.561-9.268 82.231-34.502 126.544-64.289a.998.998 0 0 1 1.445.369 9.237 9.237 0 0 1 .136.23c.064.107.107.182.145.262-.006-.012-.005-.009.034.05.021.032.041.064.06.099 6.332 12.055 12.352 22.91 18.944 34.164.238.408.159.928-.19 1.246-32.559 28.543-82.032 55.001-123.133 65.859-.172.048-.351.037-.532.036zm-.417-2.003c.185.002.374.002.56.003 40.549-10.737 89.272-36.738 121.569-64.843-6.387-10.927-12.251-21.51-18.401-33.209-43.68 29.253-92.429 54.053-124.962 63.589a2000.36 2000.36 0 0 0 21.234 34.46z" fill="#112c41"/><path d="M122.632 676.818c-.344 0-.688-.007-1.012-.019a1 1 0 0 1-.811-.464 1982.117 1982.117 0 0 1-22.215-36.066c-8.116-13.521-14.937-25.324-20.271-35.082a1 1 0 0 1 .494-1.403c46.333-19.338 129.752-61.01 130.589-61.429a1.001 1.001 0 0 1 1.336.437c1.963 3.811 3.929 7.681 5.951 11.662 3.313 6.523 6.74 13.27 10.561 20.563l.072.121c.043.071.086.146.123.226-.006-.012-.005-.009.034.05.021.032.041.064.06.099 6.332 12.055 12.352 22.91 18.944 34.164.238.408.159.928-.19 1.246-32.559 28.543-82.032 55.001-123.133 65.859-.173.048-.353.037-.532.036zm-.418-2.003c.185.002.374.002.56.003 40.549-10.737 89.272-36.738 121.57-64.843-6.438-11.013-12.345-21.677-18.549-33.487a4.024 4.024 0 0 1-.127-.215l.802-.615-.855.517a5.416 5.416 0 0 1-.06-.102l-.052-.088c-3.847-7.343-7.276-14.095-10.593-20.624-1.865-3.672-3.684-7.25-5.494-10.773-9.042 4.506-84.82 42.164-128.803 60.615 5.239 9.542 11.861 20.986 19.696 34.038a2013.14 2013.14 0 0 0 21.905 35.574z" fill="#112c41"/><circle cx="146.463" cy="694.306" fill="#ffe993" r="8.5"/><path d="M146.635 697.252c-13.308 7.558-31.609 8.663-37.896 7.087a2.833 2.833 0 0 1 1.377-5.495c4.827 1.21 22.364.298 34.485-6.963a2.833 2.833 0 0 1 2.915 4.857c-.291.174-.585.346-.881.514z" fill="#fff"/><path d="M115.536 705.966c-2.944 0-5.384-.242-7.04-.657a3.836 3.836 0 0 1-2.785-4.649 3.829 3.829 0 0 1 4.648-2.785c4.695 1.175 21.842.269 33.728-6.851a3.841 3.841 0 0 1 5.257 1.313 3.837 3.837 0 0 1-1.313 5.258c-.298.179-.599.354-.901.527-10.21 5.797-23.033 7.844-31.594 7.844zm-6.108-6.207c-.82 0-1.569.556-1.777 1.387a1.836 1.836 0 0 0 1.332 2.224c6.019 1.505 24.086.437 37.158-6.986v-.001c.289-.163.576-.331.86-.502a1.835 1.835 0 0 0 .628-2.514 1.836 1.836 0 0 0-2.515-.627c-12.352 7.399-30.3 8.314-35.241 7.074a1.79 1.79 0 0 0-.445-.055z" fill="#112c41"/><circle cx="142.276" cy="720.857" fill="#ffe993" r="8.5"/><path d="M142.361 723.807c-13.526 7.16-33.753 6.546-39.99 4.784a2.832 2.832 0 0 1 1.539-5.451c4.789 1.352 24.246 2.138 36.577-4.762a2.832 2.832 0 1 1 2.769 4.941c-.296.166-.595.329-.895.488z" fill="#fff"/><path d="M114.124 730.719c-5.383 0-9.788-.533-12.025-1.166a3.803 3.803 0 0 1-2.303-1.815 3.813 3.813 0 0 1-.345-2.913 3.835 3.835 0 0 1 4.729-2.647c4.4 1.244 23.536 2.199 35.817-4.672a3.843 3.843 0 0 1 5.216 1.47 3.836 3.836 0 0 1-1.471 5.217c-.301.17-.608.338-.917.5-8.75 4.63-20.001 6.026-28.701 6.026zm-10.983-6.686c-.8 0-1.536.528-1.765 1.334a1.835 1.835 0 0 0 1.266 2.261c5.636 1.593 25.585 2.53 39.251-4.705l.002-.001c.293-.154.583-.312.87-.474a1.836 1.836 0 0 0 .704-2.496 1.836 1.836 0 0 0-2.495-.701c-12.782 7.153-32.744 6.149-37.336 4.851a1.861 1.861 0 0 0-.497-.069z" fill="#112c41"/><path d="M543.15 284.455c-1.1 28.72-9.99 104.68-21.14 145-40.98-2.28-226.61-24.18-285.22-211.05-110.58 112.85-34.07 273.12-15.96 309.66.09.2.19.39.28.58 1.92 3.87.39 8.59-3.27 10.89-.25.16-.51.32-.79.49-.54.34-1.12.69-1.74 1.07-.93.56-1.94 1.16-3.02 1.81-.72.42-1.47.86-2.25 1.32-.23.14-.47.27-.7.41l-.72.42c-.22.12-.43.24-.64.37-28.68 16.56-92.72 50.08-128.64 59.521-20.64-36.13-173.99-283.06 14.61-514.25 16.55-20.28 33.85-36.7 51.48-49.69.38-.28.75-.56 1.13-.83 98.2-71.479 205.72-36.49 242.72 35.57.25.49.5.98.74 1.48.47.94.93 1.9 1.38 2.86 21.6 46.48 23.68 96.13 41.46 132.85.35.73.71 1.44 1.08 2.15 11.82 23.27 30.44 41.07 65.16 49.13 19.63 4.55 33.39 4.81 36.67 5.13 3.02.3 5.13 1.44 6.33 3.49.01.01.02.03.02.04.71 1.24 1.09 2.81 1.13 4.73.05 1.809.01 4.109-.1 6.849z" fill="#b2b0f7"/><path d="M542.81 283.775c-.12 3.24-.35 7.09-.66 11.42 0-1.62-.03-3.06-.1-4.26-.26-5.25-2.02-10.84-7.15-11.19-3.46-.23-17.137-.352-37.71-5.39-99.407-24.341-82.355-106.802-122.315-185.002-35.36-69.2-133.695-101.528-229.445-48.348.38-.28.75-.56 1.13-.83 98.2-71.479 205.72-36.49 242.72 35.57.25.49.5.98.74 1.48.35.72.7 1.45 1.04 2.18 21.73 46.77 23.7 96.74 41.8 133.53.35.73.71 1.44 1.08 2.15 11.82 23.27 30.44 41.07 65.16 49.13 19.63 4.55 33.39 4.81 36.67 5.13 3.02.3 5.13 1.44 6.33 3.49.01.01.02.03.02.04.49 1.12.75 2.47.79 4.05.05 1.81.01 4.11-.1 6.85zm-321.7 244.87c1.92 3.87.39 8.59-3.27 10.89-.25.16-.51.32-.79.49-.54.34-1.12.69-1.74 1.07-.93.56-1.94 1.16-3.02 1.81-.72.42-1.47.86-2.25 1.32-.23.14-.47.27-.7.41-.24.13-.48.27-.72.41-.22.13-.43.24-.64.37 2.13-2.77 5.26-8.99 2.54-14.12-19.29-36.3-111.86-218.1 13.81-336.34 0 0 9.28 11.23 12.46 23.45-110.58 112.85-34.07 273.12-15.96 309.66.09.2.19.39.28.58z" fill="#9797f7"/><path d="M336.794 84.035c-21.275 0-39.583-9.776-49.716-21.59a1 1 0 0 1 1.517-1.303c13.36 15.578 41.427 27.488 71.488 16.82a1 1 0 0 1 .668 1.884c-8.207 2.915-16.276 4.189-23.957 4.189zM236.786 219.409a1 1 0 0 1-.944-.671c-5.241-15.028-11.774-24.857-18.895-28.422a1.002 1.002 0 0 1-.446-1.343 1.002 1.002 0 0 1 1.343-.446c7.702 3.857 14.394 13.801 19.887 29.553a1 1 0 0 1-.945 1.329z" fill="#112c41"/><path d="M79.335 605.941a.998.998 0 0 1-.868-.504 709.756 709.756 0 0 0-2.238-3.875c-13.678-23.584-55.3-95.35-70.545-189.195-8.635-53.151-7.402-105.042 3.661-154.232 13.456-59.831 41.662-116.379 83.834-168.072 16.345-20.035 34.105-37.09 52.79-50.691l.589.809-.589-.809C194.336 4.161 248.821-8.022 299.387 5.065c42.083 10.892 75.951 38.082 92.921 74.598 11.254 24.217 17.148 48.955 22.849 72.88 12.339 51.784 22.995 96.507 84.168 110.699 16.45 3.816 28.88 4.604 34.188 4.94 1.038.065 1.829.116 2.355.168 5.44.542 8.262 3.647 8.387 9.229.042 1.86.008 4.187-.103 6.912-1.087 28.216-9.935 104.822-21.129 145.318a1 1 0 0 1-1.04.73c-27.49-2.093-81.811-9.655-136.732-36.789-73.716-36.417-123.81-94.769-148.913-173.445-45.971 47.617-64.363 108.962-54.673 182.367 5.277 39.979 18.849 82.214 40.338 125.529 2.096 4.232.5 9.584-3.632 12.184-1.946 1.226-4.506 2.765-7.824 4.705l-2.053 1.188c-22.776 13.153-90.305 49.49-128.904 59.63a.976.976 0 0 1-.255.033zM259.027 1.943c-37.909 0-76.531 13.312-111.88 39.045-18.546 13.5-36.183 30.437-52.419 50.338-41.973 51.451-70.044 107.722-83.432 167.248C.288 307.514-.935 359.148 7.657 412.046c15.187 93.482 56.67 165.009 70.302 188.513.694 1.197 1.316 2.271 1.861 3.219 38.506-10.351 105.106-46.198 127.659-59.223l2.058-1.19c3.298-1.93 5.84-3.458 7.769-4.672 3.274-2.06 4.551-6.277 2.904-9.603-21.587-43.512-35.223-85.957-40.529-126.155-9.855-74.661 9.117-136.979 56.392-185.226a1.002 1.002 0 0 1 1.668.402c24.763 78.944 74.69 137.436 148.396 173.848 54.076 26.716 107.579 34.354 135.177 36.524 11.053-40.558 19.764-116.117 20.841-144.069.108-2.687.142-4.97.101-6.789-.101-4.532-2.193-6.847-6.585-7.284a73.018 73.018 0 0 0-2.283-.162c-5.357-.34-17.902-1.135-34.513-4.988-62.38-14.473-73.17-59.754-85.662-112.185-5.678-23.827-11.549-48.466-22.718-72.499-16.717-35.973-50.106-62.764-91.607-73.505a158.741 158.741 0 0 0-39.861-5.059z" fill="#112c41"/></svg></g><g transform="translate(611.0 386.0) rotate(0.0 287.0 223.0) scale(1.0454573602748058 1.0422314034136584)"><svg width="549.042" height="427.928" viewBox="0 0 549.042 427.928"><path d="M442.581 53.512C402.049 22.089 321.935-.215 276.607 1.051c-16.644.465-34.468 2.494-45.764 5.049-11.484 2.597-20.496 4.04-31.998 8.947-62.214 26.539-100.573 89.395-97.054 160.682 4.541 91.991 81.965 162.122 173.012 158.43 112.881-4.577 139.256-90.123 143.135-95.393 1.082-4.015 1.022-5.513 1.915-4.722 47.703 42.246 109.352-113.377 22.728-180.532z" fill="#fff"/><path d="M267.895 335.299c-41.862.002-81.649-15.386-112.712-43.735-32.87-29.999-52.186-71.119-54.391-115.786-3.524-71.388 34.81-134.84 97.66-161.651 9.583-4.088 17.359-5.773 26.364-7.725 1.877-.407 3.804-.825 5.806-1.277C242.234 2.499 260.273.508 276.578.052c44.981-1.263 125.765 21.001 166.614 52.67 33.996 26.355 49.691 71.024 41.987 119.491-5.374 33.805-21.855 61.977-40.081 68.51-8.715 3.124-17.448 1.259-25.293-5.395-.07.281-.146.605-.22.926-.17.736-.384 1.659-.684 2.774-.032.12-.087.232-.16.333-.34.461-1.022 1.954-1.887 3.844-4.245 9.283-14.188 31.021-35.935 51.231-27.192 25.271-62.883 38.973-106.078 40.725a177.16 177.16 0 0 1-6.946.138zM280.318 2.001c-1.255 0-2.479.017-3.683.05-16.188.452-34.074 2.425-45.571 5.024-2.008.454-3.94.873-5.823 1.281-8.905 1.93-16.596 3.597-26.003 7.61-62.072 26.479-99.931 89.169-96.447 159.712 2.178 44.136 21.264 84.767 53.741 114.407 32.384 29.555 74.365 44.856 118.231 43.073 42.704-1.731 77.964-15.254 104.797-40.191 21.454-19.939 31.281-41.424 35.478-50.598.935-2.045 1.529-3.345 1.978-4.029.271-1.013.466-1.858.623-2.539.418-1.809.609-2.634 1.451-2.903.332-.105.842-.12 1.426.396 7.529 6.668 15.576 8.532 23.909 5.544 17.569-6.297 33.517-33.824 38.78-66.941 7.588-47.734-7.827-91.696-41.236-117.596-39.433-30.569-116.42-52.3-161.651-52.3z" fill="#112c41"/><path d="M264.497 318.119c-.014-.005-.023-.001-.023-.001-84.991-13.099-143.443-77.725-154.713-149.241-17.299-39.163 23.956-32.217 33.397 6.167 18.434 74.947 48.961 96.361 112.562 113.413.116.031 64.192 29.03 8.777 29.662z" fill="#dedffe"/><path d="M205.075 12.517C68.748 52.108-1.644 146.779 1.076 240.861c2.426 83.901 70.488 187.973 221.051 186.04 4.799-.062 15.573-1.154 18.232-16.72 6.788-39.732 7.122-85.407-4.295-128.317-2.757-10.362-10.833-12.62-18.166-13.645-25.473-3.562-64.787-3.686-69.688-35.929-1.691-11.126 1.839-21.601 8.669-29.14" fill="#fff"/><path d="M218.003 427.928c-83.936 0-134.717-33.113-162.661-61.153C21.552 332.869 1.409 286.986.076 240.89c-1.396-48.28 15.927-95.06 50.095-135.283 36.256-42.681 89.725-75.203 154.625-94.051a.999.999 0 1 1 .558 1.92C140.831 32.215 87.696 64.521 51.695 106.902 17.852 146.742.694 193.054 2.076 240.832c1.317 45.592 21.249 90.982 54.683 124.531 27.674 27.77 78 60.563 161.246 60.565 1.363 0 2.729-.009 4.109-.027 9.673-.124 15.479-5.47 17.26-15.889 5.307-31.065 8.873-78.47-4.276-127.892-2.547-9.573-9.838-11.863-17.338-12.912-3.107-.435-6.392-.814-9.868-1.216-25.062-2.897-56.254-6.503-60.669-35.554-1.664-10.949 1.586-21.87 8.916-29.962a1 1 0 1 1 1.482 1.343c-6.925 7.644-9.994 17.966-8.422 28.319 4.186 27.54 34.536 31.048 58.922 33.867 3.489.403 6.785.784 9.916 1.222 7.79 1.089 16.14 3.649 18.994 14.379 13.241 49.77 9.654 97.481 4.313 128.743-1.352 7.912-5.78 17.379-19.205 17.552-1.386.018-2.767.027-4.136.027z" fill="#112c41"/><path d="M214.603 288.229c-2.99 12.31-4.404 34.322-3.362 59.493.685 16.784 2.356 32.234 4.585 44.342 1.288 7.033 2.755 12.931 4.333 17.349.037.108 2.826 8.153 5.798 8.796 2.134.462 4.584-3.148 6.134-8.79.648-2.214 2.163-8.559 3.15-20.009 1.006-11.539 1.285-25.746.653-41.148-1.056-25.783-4.43-48.376-8.56-60.663-.821-2.315-3.334-9.75-6.649-9.827-.199-.003-3.495-.305-6.082 10.457z" fill="#112c41"/><path d="M226.327 419.25c-.194 0-.389-.021-.583-.063-3.383-.732-6.034-8-6.532-9.449-1.586-4.44-3.058-10.33-4.369-17.494-2.308-12.534-3.941-28.332-4.601-44.481-1.015-24.508.252-46.851 3.388-59.768 2.417-10.052 5.631-11.223 6.992-11.223l.089.002c3.45.08 5.81 5.52 7.479 10.25l.086.242c4.3 12.796 7.6 36.147 8.616 60.957.615 15.02.389 29.292-.656 41.276-1.056 12.243-2.706 18.558-3.187 20.202-1.641 5.982-4.176 9.549-6.722 9.549zm-5.686-140.477c-.8 0-3.151 1.724-5.066 9.69l-.001.002c-3.095 12.745-4.341 34.882-3.334 59.216.656 16.059 2.278 31.757 4.569 44.202 1.293 7.059 2.736 12.844 4.29 17.194 1.091 3.173 3.38 7.79 5.068 8.155 1.071.228 3.321-2.118 4.958-8.077.472-1.615 2.078-7.77 3.118-19.83 1.037-11.9 1.262-26.085.65-41.021-1.01-24.634-4.27-47.772-8.509-60.386l-.081-.229c-2.585-7.321-4.495-8.89-5.644-8.917l-.018.001zm-6.039 9.456h.01z" fill="#112c41"/><path d="M300.67 43.461c-10.418 13.173-48.415 5.832-58.137-.797-4.039 9.759-1.88 37.884-26.219 45.016-20.185 5.914-56.771-12.809-61.353-55.829 5.783-2.481 9.791-4.275 15.313-6.349l.009-.011a465.304 465.304 0 0 1 11.028-3.956c12.459-4.279 23.777-7.627 33.657-10.388 12.217-3.412 25.708-6.079 40.028-8.176A523.495 523.495 0 0 1 271.714.79c16.302 11.803 38.273 30.898 28.956 42.671z" fill="#dedffe"/><path d="M299.356 45.145c-11.25 12.04-46.65-8.263-58.079-14.871 1.583 9.352-1.722 55.426-26.98 57.723-37.116 3.375-44.682-59.047-45.091-63.163 2.94-1.179 25.871-10.38 48.745-16.161 28.571-7.222 54.861-7.339 57.937-7.616 0 .001 39.134 27.323 23.468 44.088z" fill="#fff"/><path d="M211.433 89.129c-36.398.006-43.158-63.536-43.224-64.195a1 1 0 0 1 .623-1.027c6.106-2.448 27.627-10.833 48.873-16.202C242.48 1.443 265.712.494 273.346.182c1.205-.049 2.04-.083 2.451-.12a.982.982 0 0 1 .662.176c1.054.736 25.83 18.203 27.508 34.142.459 4.35-.848 8.202-3.881 11.449-11.362 12.16-44.443-6.131-57.602-13.701.637 9.102-1.354 33.6-11.919 47.32-4.438 5.762-9.881 8.974-16.179 9.547-1.003.09-1.991.134-2.953.134zM170.286 25.48c.887 7.255 9.09 64.688 43.92 61.522 5.721-.52 10.692-3.473 14.775-8.775 11.117-14.437 12.416-41.244 11.309-47.785a1.002 1.002 0 0 1 1.487-1.032c30.549 17.662 49.676 22.728 56.849 15.054l.73.683-.73-.683c2.656-2.843 3.754-6.073 3.354-9.874-1.492-14.165-23.598-30.506-26.38-32.509-.483.029-1.216.06-2.173.099-7.582.31-30.657 1.252-55.231 7.464-20.387 5.152-41.044 13.102-47.91 15.836z" fill="#112c41"/><path d="M235.765 36.153c-20.969 3.511-39.631-3.587-41.687-15.839-.141-.822-.373-3.108-.354-3.931 11.58-4.19 21.88-7.077 33.949-9.74 12.386-2.734 25.14-3.825 39.551-5.158.773 1.367 2.53 4.568 2.794 6.112 2.046 12.253-13.276 25.034-34.253 28.556z" fill="#112c41"/><path d="M417.279 239.746c4.739-12.013 7.49-21.572 10.035-33.196" fill="#fff"/><path d="M417.279 240.746a1 1 0 0 1-.93-1.367c4.455-11.294 7.256-20.558 9.989-33.043a1 1 0 0 1 1.953.428c-2.758 12.598-5.584 21.948-10.081 33.349a1.003 1.003 0 0 1-.931.633z" fill="#112c41"/><path d="M210.967 425.646c-41.548.044-77.612-10.822-104.163-24.23C54.552 375.03 15.806 326.889 4.482 264.22c-3.82-21.143-3.096-30.584-1.129-51.33 2.978-31.394 19.285-62.172 21.59-66.972-8.581 33.847-15.323 64.417-13.03 95.821C19.01 338.95 95.359 385.92 130.859 401.803c24.405 10.92 54.647 22.11 80.108 23.843z" fill="#dedffe"/><path d="M150.103 419.891a.998.998 0 0 1-.9-.563c-22.499-46.263-14.607-126.631 15.934-162.251a1 1 0 0 1 1.517 1.302c-13.751 16.039-23.937 43.989-27.247 74.767-3.439 31.99.786 63.083 11.595 85.308a1.002 1.002 0 0 1-.899 1.437zm140.899-285.064c-6.017-39.448-24.167-76.772-49.798-102.403l1.414-1.414c25.926 25.926 44.281 63.656 50.36 103.516z" fill="#112c41"/><path d="M409.842 172.978c1.815 14.795-.155 22.524-4.724 31.168l8.509 16.583s7.754-8.192 5.353-24.352c-2.401-16.161-9.207-23.008-9.138-23.399z" fill="#dedffe"/><path d="M368.603 305.852s-32.868 17.141-62.492 43.592c0 0-20.333-25.062-62.757-50.59a343.675 343.675 0 0 0-22.528-12.413c-18.357-9.241-39.768-18.002-64.322-25.03a1.104 1.104 0 0 1-.722-1.479l10.24-24.915 209.905 45.232c-5.462 14.039-7.324 25.603-7.324 25.603z" fill="#7cdaac"/><path d="M306.11 350.443a1.001 1.001 0 0 1-.776-.37c-.202-.25-20.733-25.234-62.496-50.363a343.532 343.532 0 0 0-22.463-12.377c-20.168-10.153-41.75-18.551-64.146-24.962a2.102 2.102 0 0 1-1.371-2.822l10.24-24.914a.995.995 0 0 1 1.136-.597l209.905 45.232a1.002 1.002 0 0 1 .721 1.34c-5.356 13.768-7.251 25.285-7.27 25.4a1.004 1.004 0 0 1-.524.728c-.328.171-33.104 17.393-62.289 43.451a1 1 0 0 1-.667.254zm-149.331-89.994c22.516 6.445 44.216 14.889 64.495 25.098a346.101 346.101 0 0 1 22.595 12.449c21.985 13.229 37.936 26.327 47.445 34.985 8.216 7.48 13.186 13.042 14.898 15.032 27.334-24.21 57.51-40.688 61.488-42.816.414-2.301 2.367-12.336 6.874-24.218L166.63 236.17l-9.923 24.141-.203 1.099zm211.823 45.403h.01z" fill="#112c41"/><path d="M375.927 280.249c-34.68 15.584-61.318 38.253-61.318 38.253-20.851-17.738-42.168-32.224-61.912-43.857a474.139 474.139 0 0 0-22.351-12.372c-37.106-19.259-64.325-27.257-64.325-27.257 19.614-16.385 46.688-28.652 51.684-30.839a2.203 2.203 0 0 1 1.635-.077c20.94 7.049 46.841 18.181 71.815 30.054.505.243 1.024.481 1.52.72a1178.712 1178.712 0 0 1 21.049 10.323c.492.249.985.497 1.467.742 26.521 13.417 49.492 26.405 60.736 34.31z" fill="#ddfeee"/><path d="M314.609 319.502a.999.999 0 0 1-.648-.238c-18.683-15.894-39.466-30.616-61.771-43.757a474.068 474.068 0 0 0-22.303-12.345c-36.583-18.987-63.875-27.105-64.146-27.185a1 1 0 0 1-.359-1.727c19.777-16.522 46.724-28.712 51.924-30.988a3.2 3.2 0 0 1 2.355-.108c24.386 8.208 52.573 20.898 71.926 30.099l1.524.723c6.69 3.195 13.778 6.671 21.063 10.33l1.47.743c26.291 13.301 49.61 26.475 60.859 34.383a1 1 0 0 1-.165 1.73c-34.156 15.348-60.815 37.877-61.08 38.102a1.007 1.007 0 0 1-.649.238zm-146.521-84.89c6.658 2.126 31.289 10.461 62.72 26.774a476.654 476.654 0 0 1 22.397 12.397c22.149 13.05 42.806 27.652 61.411 43.412 4.244-3.497 28.609-23.046 59.292-37.128-11.653-7.94-34.037-20.522-59.167-33.235l-1.468-.741a1175.673 1175.673 0 0 0-21.028-10.313l-1.522-.722c-19.299-9.174-47.408-21.83-71.701-30.007a1.209 1.209 0 0 0-.901.039c-5.047 2.208-30.616 13.773-50.033 29.524z" fill="#112c41"/><ellipse cx="311.942" cy="297.231" fill="#7cdaac" rx="5.503" ry="8.845" transform="matrix(.5753 -.8179 .8179 .5753 -110.641 381.3605)"/><path d="M315.258 305.106c-2.196 0-4.738-.837-7.099-2.498-2.095-1.473-3.713-3.381-4.559-5.375-.919-2.165-.837-4.192.23-5.708 1.066-1.516 2.954-2.28 5.294-2.145 2.162.122 4.505 1.001 6.599 2.474s3.713 3.382 4.559 5.375c.918 2.165.837 4.192-.23 5.708-1.02 1.45-2.758 2.169-4.794 2.169zm-6.649-13.598c-1.388 0-2.453.437-3.025 1.25-.625.889-.628 2.181-.01 3.638.691 1.63 2.047 3.213 3.818 4.459 3.447 2.425 7.525 2.812 8.908.848.625-.888.628-2.18.01-3.638-.691-1.63-2.048-3.213-3.818-4.459-1.771-1.246-3.72-1.987-5.487-2.087a7.628 7.628 0 0 0-.396-.011z" fill="#112c41"/><ellipse cx="224.588" cy="217.166" fill="#7cdaac" rx="5.503" ry="8.845" transform="matrix(.2825 -.9593 .9593 .2825 -47.1803 371.252)"/><path d="M226.834 224.086c-1.3 0-2.689-.198-4.104-.614-5.334-1.571-8.696-5.572-7.654-9.108.523-1.778 2.06-3.103 4.326-3.73 2.084-.578 4.587-.498 7.043.226 5.334 1.571 8.697 5.572 7.655 9.108-.764 2.598-3.666 4.118-7.266 4.118zm-3.498-2.669c4.045 1.191 8.031.249 8.71-2.055.678-2.304-2.164-5.257-6.206-6.447-2.077-.612-4.159-.689-5.866-.216-1.526.423-2.535 1.229-2.843 2.271-.678 2.303 2.163 5.256 6.205 6.447z" fill="#112c41"/><path d="M243.354 298.854a343.675 343.675 0 0 0-22.528-12.413l9.521-24.167a474.234 474.234 0 0 1 22.351 12.372z" fill="#fff"/><path d="M243.353 299.854a1 1 0 0 1-.516-.143 343.532 343.532 0 0 0-22.463-12.377 1 1 0 0 1-.48-1.26l9.521-24.167a1 1 0 0 1 1.391-.521 475.296 475.296 0 0 1 22.398 12.398 1 1 0 0 1 .425 1.222l-9.344 24.209a.999.999 0 0 1-.932.639zm-21.263-13.895a346.56 346.56 0 0 1 20.759 11.426l8.61-22.309a474.793 474.793 0 0 0-20.589-11.404z" fill="#112c41"/><path d="M264.455 265.964c11.728 5.722 28.116 6.822 33.385-1.119 5.261-7.928-4.713-17.8-16.465-23.471-13.282-6.41-28.588-6.181-32.798 1.302-3.846 6.837 3.117 17.063 15.878 23.288z" fill="#7cdaac"/><path d="M283.464 271.495c-6.334 0-13.438-1.699-19.447-4.632-8.697-4.243-15.023-10.414-16.924-16.508-.93-2.98-.718-5.805.613-8.169 4.356-7.746 19.974-8.531 34.104-1.712 7.483 3.612 16.165 9.97 18.089 16.985.785 2.861.373 5.532-1.225 7.94-2.816 4.241-8.593 6.095-15.21 6.096zm-20.837-33.664c-6.184 0-11.187 1.796-13.179 5.335-1.068 1.899-1.218 4.118-.446 6.594 1.714 5.495 7.803 11.36 15.892 15.306 11.289 5.508 27.256 6.545 32.114-.774 1.264-1.904 1.587-4.026.962-6.305-1.461-5.328-7.986-11.349-17.029-15.713-6.166-2.975-12.723-4.443-18.314-4.443z" fill="#112c41"/><path d="m313.724 245.199-61.027 29.447a474.139 474.139 0 0 0-22.351-12.372l60.809-28.118c.505.243 1.024.481 1.52.72a1165.377 1165.377 0 0 1 21.049 10.323z" fill="#fff"/><path d="M252.697 275.645a1 1 0 0 1-.508-.138 474.068 474.068 0 0 0-22.303-12.345 1 1 0 0 1 .04-1.795l60.81-28.118c.271-.125.584-.123.854.007l1.521.72c6.69 3.195 13.778 6.671 21.063 10.33a1.001 1.001 0 0 1-.014 1.795l-61.027 29.447a1.044 1.044 0 0 1-.436.097zm-20.085-13.318a476.456 476.456 0 0 1 20.132 11.185l58.715-28.331a1163.634 1163.634 0 0 0-19.214-9.404l-1.094-.519z" fill="#112c41"/><path d="M309.082 331.382c-9.795-9.338-20.442-17.511-26.215-21.497" fill="#7cdaac"/><path d="M309.082 332.382a1 1 0 0 1-.69-.276c-9.497-9.054-19.991-17.185-26.093-21.397a1.001 1.001 0 0 1 1.137-1.646c6.161 4.254 16.755 12.462 26.337 21.596a1 1 0 0 1-.691 1.723z" fill="#112c41"/><path d="M306.199 350.145a1 1 0 0 1-.998-1.079c.014-.166 1.398-16.727 8.516-31.012a1.002 1.002 0 0 1 1.791.892c-6.94 13.929-8.3 30.117-8.312 30.279-.043.523-.48.92-.997.92z" fill="#112c41"/><path d="M163.49 158.891c.055.528 13.43 44.746 16.026 74.494 0 0 31.959-4.486 80.404 5.741a343.557 343.557 0 0 1 24.946 6.267c19.795 5.765 41.51 13.978 64.35 25.625a.885.885 0 0 0 1.232-.473l20.533-20.402-195.408-114.975c-5.492 13.804-11.907 23.459-12.083 23.723z" fill="#7cdaac"/><path d="M349.621 272.117c-.295 0-.59-.069-.858-.206-20.828-10.622-42.42-19.22-64.175-25.556a343.71 343.71 0 0 0-24.874-6.249c-47.688-10.068-79.739-5.774-80.059-5.729a1 1 0 0 1-1.135-.904c-1.501-17.205-6.861-42.291-15.5-72.546-.51-1.784-.511-1.793-.524-1.93a1.002 1.002 0 0 1 .163-.661c.064-.096 6.518-9.796 11.986-23.537a1.001 1.001 0 0 1 1.435-.492l195.407 114.977a.997.997 0 0 1 .198 1.571l-20.409 20.279a1.882 1.882 0 0 1-1.655.983zm-150.71-40.71c.859 0 1.743.005 2.652.015 12.86.144 33.459 1.427 58.564 6.727a346.289 346.289 0 0 1 25.019 6.286c21.876 6.371 43.585 15.016 64.524 25.695.051-.135-.029-.19.072-.292l19.614-19.489-193.289-113.73c-4.831 11.849-10.28 20.559-11.498 22.447.081.29.208.731.373 1.312 8.504 29.781 13.845 54.6 15.476 71.893 2.4-.267 8.857-.864 18.493-.864zm-35.421-72.516h.01z" fill="#112c41"/><path d="M175.573 135.168c15.747 41.555 18.808 69.781 18.808 69.781 27.347 1.227 52.82 5.152 75.197 10.094a474.017 474.017 0 0 1 24.788 6.177c40.281 11.191 65.882 23.559 65.882 23.559-3.189-25.357-14.875-52.459-17.041-57.463a2.207 2.207 0 0 0-1.145-1.171c-20.129-9.111-46.67-18.614-73.039-26.943-.536-.166-1.077-.346-1.603-.509a1174.356 1174.356 0 0 0-24.018-7.246c-28.55-8.253-54.213-14.402-67.829-16.279z" fill="#ddfeee"/><path d="M360.25 245.779a.996.996 0 0 1-.435-.1c-.256-.123-25.996-12.461-65.716-23.496a474.204 474.204 0 0 0-24.736-6.164c-25.279-5.583-50.521-8.971-75.026-10.071a1 1 0 0 1-.949-.891c-.03-.281-3.236-28.596-18.749-69.535a.998.998 0 0 1 1.072-1.345c13.621 1.878 39.666 8.128 67.97 16.309l1.58.458a1173.02 1173.02 0 0 1 22.461 6.795l1.601.508c20.436 6.456 49.712 16.377 73.154 26.987a3.22 3.22 0 0 1 1.656 1.698c4.17 9.635 14.198 34.577 17.109 57.721a.999.999 0 0 1-.992 1.126zm-164.98-41.79c24.354 1.144 49.423 4.534 74.524 10.077a476.178 476.178 0 0 1 24.84 6.19c34.165 9.492 58.055 19.955 64.383 22.846-3.155-22.373-12.692-46.07-16.727-55.389a1.22 1.22 0 0 0-.639-.657c-23.354-10.57-52.549-20.463-72.928-26.901l-1.599-.507a1177.181 1177.181 0 0 0-22.424-6.784l-1.576-.456c-27.1-7.833-52.093-13.886-66.019-16.007 13.627 36.413 17.514 62.62 18.165 67.588z" fill="#112c41"/><ellipse cx="210.729" cy="191.291" fill="#7cdaac" rx="5.503" ry="8.845" transform="matrix(.0984 -.9951 .9951 .0984 -.3759 382.1668)"/><path d="M211.59 197.908c-.497 0-1.001-.025-1.508-.075-5.533-.547-9.584-3.85-9.222-7.519.365-3.668 4.983-6.113 10.516-5.566s9.584 3.85 9.222 7.518c-.183 1.845-1.444 3.433-3.554 4.473-1.556.767-3.453 1.169-5.454 1.169zm-1.297-2.207c2.155.213 4.217-.1 5.804-.883 1.421-.7 2.262-1.681 2.368-2.762.236-2.39-3.106-4.76-7.3-5.175-4.2-.417-7.936 1.255-8.172 3.645s3.106 4.76 7.3 5.175z" fill="#112c41"/><ellipse cx="329.321" cy="192.131" fill="#7cdaac" rx="5.503" ry="8.845" transform="matrix(.4469 -.8946 .8946 .4469 10.2621 400.8604)"/><path d="M332.356 199.526c-1.854 0-3.932-.494-5.974-1.514-4.974-2.485-7.58-7.015-5.934-10.313.829-1.659 2.575-2.692 4.916-2.911 2.152-.201 4.604.317 6.894 1.462 2.29 1.144 4.176 2.79 5.31 4.635 1.23 2.004 1.452 4.02.623 5.679-.971 1.943-3.173 2.962-5.835 2.962zm-5.016-3.431c3.772 1.884 7.86 1.659 8.936-.49.485-.971.296-2.25-.533-3.599-.927-1.508-2.504-2.872-4.44-3.84-1.938-.968-3.972-1.408-5.737-1.245-1.576.147-2.712.764-3.198 1.735-1.074 2.149 1.203 5.556 4.972 7.439z" fill="#112c41"/><path d="M259.92 239.127a343.557 343.557 0 0 1 24.946 6.267l9.501-24.175a475.273 475.273 0 0 0-24.788-6.177z" fill="#fff"/><path d="M284.867 246.395a.99.99 0 0 1-.279-.04 343.71 343.71 0 0 0-24.874-6.249 1 1 0 0 1-.721-1.351l9.658-24.084a1.001 1.001 0 0 1 1.144-.604 476.178 476.178 0 0 1 24.84 6.19 1 1 0 0 1 .663 1.329l-9.5 24.175c-.154.39-.53.634-.931.634zm-23.576-7.998a346.329 346.329 0 0 1 22.979 5.784l8.761-22.294a474.76 474.76 0 0 0-22.839-5.684z" fill="#112c41"/><path d="M266.89 200.677c-12.482-3.805-25.225-14.167-23.671-23.57 1.552-9.388 15.579-9.815 28.045-5.957 14.089 4.36 25.134 14.957 23.116 23.303-1.844 7.625-13.909 10.364-27.49 6.224z" fill="#7cdaac"/><path d="M279.037 203.613c-3.857 0-8.102-.657-12.439-1.979-13.078-3.987-25.99-14.859-24.364-24.689.471-2.85 1.989-5.086 4.514-6.646 6.188-3.823 16.874-2.56 24.813-.104 14.985 4.638 25.881 15.854 23.791 24.493-.638 2.637-2.407 4.849-5.117 6.396-2.946 1.683-6.824 2.529-11.198 2.529zm-11.856-3.892c8.606 2.624 17.062 2.482 22.061-.373 2.252-1.286 3.653-3.011 4.166-5.13 1.818-7.517-8.668-17.85-22.439-22.113-9.592-2.969-18.47-3.009-23.171-.106-2.011 1.242-3.219 3.015-3.592 5.271-1.433 8.667 10.958 18.788 22.975 22.451z" fill="#112c41"/><path d="m244.982 151.905 24.597 63.138a474.017 474.017 0 0 1 24.788 6.177l-25.343-62.017c-.536-.166-1.077-.346-1.603-.509a1157.997 1157.997 0 0 0-22.439-6.789z" fill="#fff"/><path d="M294.367 222.219a.984.984 0 0 1-.268-.037 474.197 474.197 0 0 0-24.736-6.163.999.999 0 0 1-.716-.614l-24.597-63.138a1 1 0 0 1 1.212-1.323c7.845 2.292 15.4 4.578 22.459 6.794l1.601.508a1 1 0 0 1 .629.577l25.342 62.017a.998.998 0 0 1-.926 1.379zm-24.05-8.037a478.106 478.106 0 0 1 22.354 5.532l-24.396-59.701-1.15-.365c-6.463-2.03-13.34-4.116-20.474-6.213z" fill="#112c41"/><path d="M189.649 218.143c12.526-.105 26.893 1.115 33.835 2.132" fill="#7cdaac"/><path d="M223.485 221.275c-.048 0-.097-.004-.146-.011-7.521-1.103-21.9-2.222-33.682-2.122-.591-.006-1.004-.439-1.009-.992a.999.999 0 0 1 .991-1.008c11.879-.1 26.395 1.03 33.988 2.143a1 1 0 0 1-.142 1.99z" fill="#112c41"/><path d="M179.655 234.108a.998.998 0 0 1-.782-1.621c.101-.127 10.137-12.901 14.55-27.824a1 1 0 1 1 1.918.568c-4.526 15.304-14.798 28.369-14.901 28.499-.198.248-.49.378-.785.378z" fill="#112c41"/><path d="M175.095 170.084c2.512 9.899 6.955 26.344 8.489 37.7" fill="#fff"/><path d="M183.583 208.784a1 1 0 0 1-.99-.866c-1.321-9.782-4.817-23.375-7.369-33.3-.393-1.527-.763-2.966-1.099-4.287a1 1 0 0 1 .724-1.215 1.002 1.002 0 0 1 1.216.723c.335 1.32.704 2.756 1.096 4.281 2.565 9.973 6.077 23.632 7.415 33.531a1 1 0 0 1-.993 1.133z" fill="#112c41"/><path d="M400.124 263.495c-.372.571-1.102.711-1.701.387-18.88-10.354-76.192-41.298-142.541-51.675-12.595-28.759-30.688-63.583-35.857-73.925-.422-.845-.332-1.844.199-2.626 2.473-3.647 9.784-14.767 15.047-26.289l33.97 71.524 149.241 49.057s-8.458 18.345-18.358 33.547z" fill="#7cdaac"/><path d="M399.083 265.054a2.39 2.39 0 0 1-1.137-.292c-49.636-27.221-97.484-44.57-142.219-51.566a1 1 0 0 1-.762-.587c-10.451-23.864-24.59-51.706-32.186-66.664a1521.233 1521.233 0 0 1-3.649-7.215c-.576-1.151-.475-2.543.265-3.634 2.173-3.202 9.67-14.55 14.967-26.144a.996.996 0 0 1 .901-.584 1.03 1.03 0 0 1 .911.571l33.786 71.137 148.834 48.923a.998.998 0 0 1 .595 1.369c-.085.184-8.603 18.586-18.429 33.674a2.223 2.223 0 0 1-1.877 1.012zm1.041-1.559h.01zm-143.546-52.191c44.808 7.088 92.69 24.481 142.325 51.701.094.05.283.099.383-.056 8.426-12.938 15.89-28.35 17.811-32.405L268.929 181.84a.998.998 0 0 1-.591-.521l-33.059-69.607c-5.103 10.693-11.575 20.593-14.229 24.504-.333.492-.384 1.112-.131 1.617.874 1.75 2.118 4.2 3.644 7.204 7.552 14.873 21.563 42.463 32.015 66.267z" fill="#112c41"/><path d="M256.038 212.951a1 1 0 0 1-.874-1.485c.075-.135 7.578-13.753 13.124-30.878a1.001 1.001 0 0 1 1.903.617c-5.608 17.318-13.201 31.095-13.276 31.232a1.006 1.006 0 0 1-.877.514z" fill="#112c41"/><path d="M418.481 229.951c-16.921-1.826-40.253-7.524-64.243-15.015-31.561-9.852-64.267-22.793-84.999-34.041l-.057-.112-4.763-10.035-29.15-61.379c5.301 3.345 11.376 6.963 18.069 10.731 36.4 20.549 91.071 45.631 140.218 55.064 2.064 11.734 8.097 35.452 24.925 54.787z" fill="#ddfeee"/><path d="M418.481 230.951a.973.973 0 0 1-.107-.006c-15.979-1.724-38.863-7.07-64.434-15.054-32.382-10.108-65.02-23.18-85.178-34.116a1 1 0 0 1-.416-.428l-.057-.112-33.923-71.437a1.002 1.002 0 0 1 .239-1.177 1.002 1.002 0 0 1 1.197-.098c5.424 3.422 11.488 7.024 18.025 10.706 17.692 9.988 80.063 43.466 139.916 54.953.407.078.725.4.797.809 2.134 12.136 8.181 35.329 24.693 54.303a.999.999 0 0 1-.752 1.657zm-148.483-50.782c20.074 10.847 52.423 23.788 84.538 33.812 24.138 7.537 45.846 12.709 61.546 14.682-15.301-18.599-21.191-40.56-23.389-52.647-59.944-11.665-122.155-45.058-139.846-55.045a440.814 440.814 0 0 1-15.208-8.946z" fill="#112c41"/><path d="M418.482 229.948c-15.908-1.705-37.49-6.851-59.949-13.684l-.174-.056-4.123-1.274a650.782 650.782 0 0 1-20.135-6.652l-.009-.005a589.34 589.34 0 0 1-6.643-2.343c-22.334-8.039-43.352-16.977-58.208-25.043l-.057-.108c-.37-.646-18.718-44.839-15.057-81.613a.41.41 0 0 1 .739-.2c14.021 19.003 33.375 36.204 53.127 45.792.44.215.881.43 1.326.636.098.05.2.092.289.137 1.851.883 3.703 1.721 5.55 2.524 8.418 3.682 16.821 6.647 24.768 9.165.031.005.067.023.098.028.383.129.762.245 1.15.366.116.037.218.078.325.111 23.809 7.422 37.317 8.971 49.941 10.05a1.54 1.54 0 0 1 1.375 1.19c3.611 15.518 10.777 37.027 25.667 60.979z" fill="#ddfeee"/><path d="M418.482 230.948a.942.942 0 0 1-.106-.006c-15.181-1.627-35.975-6.372-60.134-13.722l-4.302-1.331a653.47 653.47 0 0 1-20.218-6.682 583.851 583.851 0 0 1-6.612-2.332c-23.169-8.34-43.89-17.256-58.347-25.105a1.01 1.01 0 0 1-.408-.414l-.057-.108c-.181-.315-18.868-45.001-15.167-82.177a1.4 1.4 0 0 1 1.028-1.218 1.4 1.4 0 0 1 1.511.524c14.521 19.68 33.751 36.259 52.759 45.486.456.222.881.43 1.31.628l.326.155c1.739.829 3.544 1.65 5.491 2.496 7.326 3.204 15.393 6.189 24.661 9.126l.056.016a.83.83 0 0 1 .071.021c.325.11.647.209.975.311l.47.156c23.514 7.33 36.943 8.918 49.736 10.011a2.54 2.54 0 0 1 2.264 1.958c4.836 20.778 13.43 41.192 25.543 60.678a1.003 1.003 0 0 1-.85 1.529zm-84.01-23.595a651.943 651.943 0 0 0 20.062 6.627l4.306 1.333c22.62 6.882 42.997 11.612 57.713 13.408-11.661-19.141-19.972-39.157-24.711-59.524a.54.54 0 0 0-.486-.42c-12.908-1.103-26.456-2.705-50.153-10.092a5.86 5.86 0 0 1-.211-.071l-.263-.086a37.741 37.741 0 0 1-1.003-.32l-.045-.013a.748.748 0 0 1-.056-.016c-9.341-2.96-17.476-5.97-24.867-9.203a170.102 170.102 0 0 1-5.58-2.538l-.313-.149a67.168 67.168 0 0 1-1.28-.614c-18.917-9.183-38.007-25.486-52.602-44.876-2.941 35.503 13.818 76.532 15.021 79.367 14.357 7.765 34.859 16.574 57.784 24.826a561.85 561.85 0 0 0 6.632 2.339l.052.022z" fill="#112c41"/><path d="m358.359 216.208-11.662 22.711a267.644 267.644 0 0 0-3.749-1.521 532.993 532.993 0 0 0-19.947-7.477l11.145-21.706c10.197 3.764 13.796 4.746 24.213 7.993z" fill="#fff"/><path d="M346.698 239.919c-.128 0-.258-.025-.383-.076a256.29 256.29 0 0 0-3.736-1.515 532.088 532.088 0 0 0-19.911-7.463 1.001 1.001 0 0 1-.557-1.399l11.146-21.706a1 1 0 0 1 1.236-.481c8.386 3.095 12.243 4.287 19.244 6.451 1.479.457 3.095.956 4.92 1.525a1.002 1.002 0 0 1 .592 1.412l-11.661 22.711a1.002 1.002 0 0 1-.89.541zm-22.285-10.558a529.942 529.942 0 0 1 18.905 7.109c.972.385 1.94.776 2.91 1.174l10.698-20.834a1909.03 1909.03 0 0 0-3.78-1.17c-6.799-2.101-10.646-3.29-18.515-6.179z" fill="#112c41"/><path d="M331.463 195.851c-11.934-5.277-23.34-17.096-20.667-26.243 2.669-9.133 16.646-7.872 28.558-2.544 13.463 6.022 23.155 17.869 20.148 25.912-2.747 7.347-15.053 8.617-28.039 2.875z" fill="#7cdaac"/><path d="M346.84 200.455c-4.779 0-10.269-1.252-15.78-3.689-12.505-5.529-24.018-17.874-21.223-27.438.811-2.773 2.587-4.811 5.28-6.055 6.604-3.052 17.061-.514 24.646 2.879 14.319 6.405 23.788 18.849 20.677 27.175-.95 2.541-2.973 4.524-5.85 5.735-2.22.933-4.855 1.393-7.75 1.393zm-14.972-5.518c8.232 3.64 16.64 4.513 21.946 2.281 2.39-1.006 3.988-2.551 4.752-4.592 2.707-7.245-6.461-18.763-19.62-24.649-9.166-4.1-17.977-5.207-22.99-2.889-2.146.991-3.559 2.607-4.199 4.801-2.464 8.431 8.622 19.967 20.111 25.048z" fill="#112c41"/><path d="m358.359 216.208-4.123-1.274a650.782 650.782 0 0 1-20.135-6.652l-.009-.005-18.934-60.218c8.418 3.682 16.821 6.647 24.768 9.165.031.005.067.023.098.028z" fill="#fff"/><path d="M358.359 217.208a1 1 0 0 1-.295-.044l-4.124-1.274a653.47 653.47 0 0 1-20.168-6.663 1.025 1.025 0 0 1-.634-.649l-18.935-60.218a1 1 0 0 1 1.354-1.216c7.324 3.203 15.391 6.188 24.659 9.125l.056.016a.998.998 0 0 1 .706.672l18.335 58.955a1 1 0 0 1-.954 1.296zm-23.463-9.708a649.617 649.617 0 0 0 19.638 6.479l2.307.713-17.615-56.64c-8.338-2.653-15.713-5.349-22.459-8.21z" fill="#112c41"/><ellipse cx="269.193" cy="130.699" fill="#7cdaac" rx="4.794" ry="8.517" transform="matrix(.7468 -.6651 .6651 .7468 -18.7558 212.1388)"/><path d="M272.666 138.818c-.721 0-1.502-.14-2.323-.422-1.905-.654-3.851-2.019-5.477-3.844-3.549-3.985-4.429-8.8-2.003-10.96 1.237-1.103 3.078-1.312 5.18-.591 1.906.654 3.852 2.019 5.477 3.844s2.758 3.914 3.188 5.883c.474 2.172.054 3.975-1.185 5.077-.755.672-1.733 1.013-2.857 1.013zm-6.306-5.596c1.4 1.573 3.046 2.739 4.632 3.283 1.367.469 2.535.4 3.2-.192s.869-1.743.561-3.157c-.357-1.638-1.326-3.407-2.728-4.979-1.4-1.573-3.045-2.738-4.631-3.282-1.37-.47-2.537-.4-3.201.192-1.34 1.191-.779 4.827 2.167 8.135z" fill="#112c41"/><path d="M243.714 148.882c-4.995-11.507-13.541-28.788-13.541-28.788" fill="#7cdaac"/><path d="M243.715 149.882a.999.999 0 0 1-.918-.602c-4.927-11.353-13.434-28.57-13.52-28.742a1 1 0 0 1 1.793-.887c.086.173 8.614 17.435 13.561 28.833a.999.999 0 0 1-.916 1.398z" fill="#112c41"/><path d="M268.021 198.764c11.399 2.514 29.791 7.831 41.526 12.469" fill="#7cdaac"/><path d="M309.547 212.232a.984.984 0 0 1-.367-.07c-11.813-4.669-30.313-9.982-41.374-12.422a1 1 0 0 1 .431-1.953c11.137 2.457 29.771 7.809 41.677 12.515a.999.999 0 0 1-.367 1.93z" fill="#112c41"/><path d="M411.973 243.023c-7.173-2.088-16.783-5.189-24.533-7.794" fill="#7cdaac"/><path d="M411.972 244.023a.996.996 0 0 1-.279-.04c-6.302-1.835-15.487-4.753-24.572-7.806a1.001 1.001 0 0 1 .637-1.896c9.061 3.045 18.218 5.954 24.494 7.782a1.001 1.001 0 0 1-.28 1.96z" fill="#112c41"/><ellipse cx="394.894" cy="214.646" fill="#7cdaac" rx="4.794" ry="8.845" transform="matrix(.2825 -.9593 .9593 .2825 77.4283 532.8124)"/><path d="M397.732 220.881c-1.395 0-2.916-.218-4.475-.677-2.424-.714-4.563-1.908-6.026-3.364-1.619-1.611-2.252-3.378-1.781-4.975.918-3.116 5.785-4.336 11.08-2.776 2.424.714 4.563 1.908 6.026 3.364 1.619 1.611 2.252 3.378 1.781 4.975-.647 2.199-3.261 3.453-6.605 3.453zm-5.674-10.47c-2.529 0-4.344.843-4.69 2.018-.249.847.215 1.938 1.273 2.992 1.231 1.225 3.071 2.242 5.181 2.863 4.436 1.306 8.09.299 8.598-1.423.249-.847-.215-1.938-1.273-2.992-1.231-1.225-3.071-2.242-5.181-2.863-1.407-.413-2.734-.595-3.908-.595z" fill="#112c41"/><path d="M216.904 285.061c8.318-.82 19.433-3.568 28.519-7.066 5.763-2.219 10.844-5.125 15.462-8.258.25-.166.5-.332.736-.5 7.041-4.871 12.905-10.45 18.001-16.047.261-.293.534-.606.804-.905.273-.313.545-.625.832-.935.281-.318.556-.645.851-.96 4.348-5.006 15.293-22.051 24.876-17.042 5.675 2.969 7.121 10.924 5.78 23.055-.94 8.554.028 12.531 3.299 16.433 3.221 3.828 11.115 9.873 33.353-5.72 18.183-12.749 27.883-13.936 33.75-7.075 7.396 8.642.788 23.161-5.808 31.708 0 0 11.54 17.633-4.999 38.963 6.632 16.611-7.833 35.251-31.994 51.434-31.713 18.334-62.156 29.132-117.807 32.966-12.004-24.5-16.183-116.177-5.655-130.051z" fill="#ffd6c0"/><path d="M343.498 352.383a1.001 1.001 0 0 1-.352-1.937c10.895-4.089 21.32-11.489 29.357-20.836a1 1 0 1 1 1.515 1.304c-8.252 9.598-18.967 17.2-30.17 21.405a.997.997 0 0 1-.35.064zm1.879-36.771a1.001 1.001 0 0 1-.22-1.976c6.929-1.569 22.778-11.329 31.846-23.053a1 1 0 1 1 1.582 1.224c-9.335 12.071-25.772 22.147-32.986 23.781a1.062 1.062 0 0 1-.222.024z" fill="#112c41"/><path d="M222.782 415.714a.998.998 0 0 1-.885-.535c-14.205-27.012-13.909-111.129-7.06-130.221.125-.347.43-.597.794-.652 8.773-1.303 22.174-4.333 29.729-7.379a81.667 81.667 0 0 0 15.274-8.158c.249-.165.49-.325.718-.487 6.111-4.228 11.943-9.429 17.842-15.906l.801-.901c.267-.307.546-.626.839-.944l.238-.273c.202-.232.404-.464.617-.692.616-.71 1.415-1.73 2.34-2.911 5.557-7.095 14.856-18.971 23.729-14.334 5.786 3.026 7.792 10.668 6.312 24.051-.885 8.041-.138 11.852 3.071 15.681 5.812 6.906 16.584 4.922 32.012-5.896 17.963-12.593 28.454-14.658 35.084-6.906 3.517 4.108 4.397 9.917 2.549 16.799-1.357 5.055-4.224 10.711-7.903 15.616 1.968 3.344 10.058 19.533-4.501 38.718 5.865 15.718-5.273 33.988-31.442 51.516-24.06 15.917-73.047 32.64-120.133 33.812-.008.002-.017.002-.025.002zm-6.254-129.519c-6.354 19.318-6.395 101.157 6.855 127.503 46.516-1.294 94.736-17.775 118.447-33.461 14.821-9.927 38.497-29.582 30.487-49.644a.998.998 0 0 1 .139-.984c15.865-20.461 4.869-36.744 4.394-37.427a1.003 1.003 0 0 1 .027-1.184c5.617-7.28 13.169-21.884 5.84-30.447-5.802-6.785-15.497-4.617-32.416 7.244-16.426 11.517-28.098 13.381-34.691 5.545-3.581-4.273-4.472-8.61-3.528-17.187 1.378-12.456-.29-19.465-5.25-22.059-7.392-3.867-16.056 7.189-21.229 13.795-.941 1.202-1.755 2.241-2.429 3.016-.221.237-.408.452-.595.667l-.263.3c-.294.319-.56.624-.826.93l-.811.913c-6.009 6.6-11.953 11.898-18.179 16.205-.234.167-.493.339-.753.511a83.63 83.63 0 0 1-15.641 8.352c-7.523 3.035-20.689 6.045-29.578 7.412z" fill="#112c41"/><path d="M438.026 50.034c36.176 25.643 77.29 61.51 99.617 122.568 14.352 39.249 17.285 106.769-13.668 157.354-16.42 26.835-34.307 39.329-60.837 49.599-8.465 3.277-16.087 1.689-19.247-2.684-25.531-35.334-39.792-75.111-49.014-127.648-1.12-6.381 1.99-13.577 6.02-16.195 14.26-7.132 20.166-22.538 18.011-37.554-.888-6.185-3.209-14.481-8.223-22.802" fill="#fff"/><path d="M454.376 382.28c-4.855 0-9.014-1.667-11.296-4.825-24.399-33.767-39.569-73.262-49.188-128.061-1.13-6.44 1.768-14.158 6.46-17.206a.857.857 0 0 1 .098-.056c12.873-6.438 19.729-20.771 17.468-36.517-.633-4.414-2.526-13.197-8.089-22.427a1 1 0 0 1 1.713-1.033c5.457 9.056 7.556 17.601 8.356 23.176 2.382 16.592-4.879 31.722-18.501 38.564-3.556 2.348-6.619 8.973-5.534 15.154 9.563 54.485 24.626 93.726 48.839 127.235 3.104 4.294 10.537 5.256 18.075 2.337 24.47-9.472 43.1-21.004 60.347-49.188 14.007-22.892 22.194-51.404 23.677-82.453 1.246-26.097-2.434-53.082-10.096-74.035-22.635-61.902-64.934-97.766-99.256-122.095a1.001 1.001 0 0 1 1.157-1.632c34.559 24.497 77.153 60.62 99.979 123.04 7.749 21.194 11.473 48.464 10.215 74.817-1.498 31.384-9.787 60.224-23.97 83.402-17.54 28.665-36.471 40.387-61.329 50.01-3.124 1.207-6.247 1.793-9.125 1.793z" fill="#112c41"/><path d="M401.094 253.073c.017.395.042.795.079 1.213.031.333.065.68.099 1.027 1.206 12.555 7.049 33.691 16.224 56.972 6.109 15.527 12.707 29.473 18.739 40.095 3.498 6.171 6.794 11.219 9.712 14.84.157.2.311.385.479.568.081.095.166.204.247.3 3.352 3.975 5.672 6.08 7.575 5.453 2.063-.682 3.273-4.486 2.887-10.3a25.083 25.083 0 0 0-.083-1.169c-.437-4.96-1.622-11.325-3.48-18.667-2.815-11.168-7.18-24.598-12.788-38.846-9.387-23.851-19.908-43.933-27.781-54.088-.343-.428-.67-.846-.998-1.241-3.539-4.297-6.46-6.416-8.435-5.763-2.005.659-2.784 4.106-2.476 9.606z" fill="#112c41"/><path d="M453.552 374.653c-2.186 0-4.529-2.227-7.646-5.921l-.244-.298a10.39 10.39 0 0 1-.502-.596c-2.937-3.643-6.234-8.681-9.797-14.966-6.244-10.996-12.921-25.281-18.799-40.222-8.934-22.669-15.022-44.068-16.288-57.243l-.1-1.032a28.808 28.808 0 0 1-.082-1.256c-.354-6.319.681-9.787 3.16-10.604 2.388-.792 5.503 1.2 9.52 6.077.234.281.47.577.711.881l.296.371c8.2 10.577 18.899 31.397 27.932 54.347 5.469 13.896 9.904 27.371 12.827 38.967 1.882 7.435 3.062 13.768 3.507 18.823.04.402.066.818.086 1.206.41 6.194-.926 10.424-3.573 11.3a3.114 3.114 0 0 1-1.008.166zm-49.246-130.299c-.179 0-.318.027-.425.062-1.396.46-2.065 3.675-1.789 8.601l.001.014c.016.38.04.764.076 1.167l.098 1.017c1.249 13.001 7.29 34.198 16.159 56.704 5.844 14.857 12.478 29.051 18.677 39.968 3.51 6.191 6.747 11.139 9.621 14.706.148.188.286.354.438.518l.272.33c2.381 2.824 5.031 5.641 6.499 5.15 1.328-.439 2.584-3.532 2.203-9.285a24.658 24.658 0 0 0-.08-1.136c-.431-4.89-1.625-11.29-3.455-18.52-2.902-11.516-7.311-24.907-12.749-38.725-8.968-22.786-19.559-43.417-27.641-53.842l-.291-.365a47.67 47.67 0 0 0-.686-.85c-3.884-4.716-5.966-5.514-6.928-5.514z" fill="#112c41"/><path d="M407.259 246.348c-7.95 2.581-17.22 4.476-26.946 4.91-6.17.275-11.989-.352-17.475-1.373-.296-.052-.591-.103-.875-.163-8.403-1.643-16.01-4.406-22.921-7.494-.357-.164-.732-.341-1.099-.507-.375-.177-.75-.355-1.137-.524-.385-.179-.768-.368-1.165-.539-5.989-2.845-22.845-14.079-29.619-5.651-4.011 4.993-2.149 12.862 3.938 23.44 4.288 7.461 4.993 11.493 3.56 16.379-1.418 4.797-6.23 13.498-32.851 8.118-21.768-4.398-31.13-1.6-33.758 7.036-3.315 10.881 8.555 21.537 18.022 26.727 0 0-3.511 20.779 20.187 33.698.577 17.877 21.297 29.162 49.918 34.313 36.402 4.096 68.621 1.797 121.148-16.981 1.185-27.258-33.723-112.894-48.927-121.389z" fill="#ffd6c0"/><path d="M316.379 359.118c-10.936 0-22.429-2.661-32.733-7.62a1 1 0 0 1 .867-1.803c11.108 5.346 23.626 7.946 35.245 7.333a1.01 1.01 0 0 1 1.052.946 1.001 1.001 0 0 1-.946 1.052 66.048 66.048 0 0 1-3.485.092zm-17.477-32.69c-8.948 0-23.991-2.857-35.104-8.934a1 1 0 0 1 .959-1.755c13.005 7.111 31.442 9.706 38.414 8.367a1 1 0 1 1 .377 1.964c-1.235.238-2.813.358-4.646.358z" fill="#112c41"/><path d="M356.539 387.662c-8.792 0-16.89-.617-23.991-1.894-30.999-5.579-48.523-17.857-49.445-34.609-21.025-11.748-20.096-29.824-19.632-33.674-8.606-4.892-21.465-15.826-17.892-27.556 2.93-9.628 13.695-12.011 34.914-7.724 18.471 3.733 29.135 1.236 31.693-7.422 1.407-4.792.564-8.582-3.468-15.597-6.716-11.669-7.939-19.474-3.851-24.564 6.27-7.804 19.552-.647 27.487 3.629 1.319.711 2.459 1.325 3.341 1.744.255.109.537.242.816.375l.341.161c.375.164.759.345 1.143.526l1.089.502c7.988 3.568 15.415 5.997 22.696 7.421.287.06.57.11.854.16a81.755 81.755 0 0 0 17.273 1.359c7.715-.223 22.277-3.076 29.394-4.964a.999.999 0 0 1 .884.188c14.834 11.939 47.935 91.492 47.97 121.548a1 1 0 0 1-.654.939c-33.68 12.415-71.269 19.451-100.962 19.452zm-93.406-105.569c-9.027 0-13.913 2.742-15.64 8.418-3.285 10.782 9.483 21.139 17.546 25.559.383.21.585.645.5 1.073-.162.817-3.716 20.141 19.017 32.533.312.17.51.491.521.846.517 16.001 17.502 27.819 47.825 33.277 30.614 5.503 80.056-1.417 123.248-17.224-.253-13.436-7.225-38.646-18.316-66.142-10.479-25.976-21.855-47.027-28.52-52.835-6.435 1.663-20.942 4.656-29.346 4.898a83.663 83.663 0 0 1-17.687-1.389 26.801 26.801 0 0 1-.898-.168c-7.417-1.45-14.985-3.924-23.124-7.559l-1.102-.509c-.383-.18-.749-.354-1.126-.519l-.375-.176a25.403 25.403 0 0 0-.784-.361c-.961-.456-2.122-1.081-3.465-1.805-7.388-3.981-19.749-10.644-24.98-4.137-3.504 4.363-2.226 11.453 4.026 22.314 4.3 7.483 5.222 11.813 3.652 17.159-2.904 9.824-14.344 12.791-34.009 8.817-6.794-1.371-12.406-2.07-16.963-2.07z" fill="#112c41"/><path d="M422.932 208.676c69.042 4.575 107.306 77.776 97.579 126.589" fill="#fff"/><path d="M520.512 336.266a.999.999 0 0 1-.981-1.196c5.238-26.291-3.817-59.51-23.071-84.629-18.689-24.383-44.825-38.861-73.594-40.768-.551-.037-.968-.513-.932-1.064s.525-.966 1.064-.932c29.351 1.945 56.004 16.7 75.048 41.546 19.589 25.556 28.792 59.406 23.445 86.236a.999.999 0 0 1-.979.807z" fill="#112c41"/><ellipse cx="502.698" cy="334.923" fill="#fff" rx="7.165" ry="5.796" transform="matrix(.293 -.9561 .9561 .293 35.1944 717.4391)"/><path d="M501.984 342.981a5.705 5.705 0 0 1-1.679-.251c-3.583-1.098-5.425-5.493-4.105-9.798.627-2.048 1.872-3.782 3.504-4.883 1.699-1.146 3.614-1.476 5.387-.933 3.583 1.098 5.425 5.493 4.105 9.798-1.116 3.639-4.14 6.067-7.212 6.067zm1.411-14.118c-.861 0-1.746.286-2.572.844-1.255.845-2.217 2.199-2.711 3.811-.996 3.25.251 6.525 2.779 7.3 2.533.775 5.396-1.24 6.393-4.49.996-3.25-.251-6.525-2.779-7.3a3.797 3.797 0 0 0-1.11-.165z" fill="#112c41"/><g fill="#f5b9ab"><path d="M319.79 358.982c-11.341 2.448-22.387 2.767-32.019 1.475-1.675-2.88-2.001-5.184-2.554-8.175 9.201 3.931 21.024 7.466 34.573 6.7zm-16.175-32.905c-12.447 3.224-26.436 2.915-37.499 1.314-1.048-3.473-.868-7.664-.726-9.041 10.281 4.83 25.022 8.997 38.225 7.727zm149.933 22.766c-38.502 20.326-72.931 30.156-124.884 33.968 18.119 4.308 44.506 3.57 71.905-1.352 18.86-3.388 38.418-8.613 55.501-14.917-.006-6.38-1.301-12.017-2.522-17.699zM223.44 413.709c21.801-.702 37.886-3.669 56.645-8.313 21.738-5.848 39.968-12.476 52.41-19.649-5.188-.849-8.479-1.864-14.459-3.285-31.119 8.783-60.705 12.538-99.942 13.906 1.127 5.701 2.653 11.363 5.346 17.341z"/></g><path d="M449.49 220.402s-36.987 2.459-74.754 14.745c0 0-8.523-31.127-37.08-71.573a342.864 342.864 0 0 0-15.625-20.432c-13.084-15.849-29.156-32.488-48.803-48.807a1.104 1.104 0 0 1-.065-1.645l19.404-18.684 173.935 125.908c-10.652 10.652-17.012 20.488-17.012 20.488z" fill="#7cdaac"/><path d="M374.737 236.147a1.001 1.001 0 0 1-.965-.736c-.085-.31-8.821-31.446-36.934-71.261a343.672 343.672 0 0 0-15.578-20.372c-14.376-17.414-30.751-33.79-48.67-48.674a2.103 2.103 0 0 1-.12-3.135l19.404-18.684a1 1 0 0 1 1.279-.09l173.935 125.908a1.001 1.001 0 0 1 .121 1.517c-10.446 10.447-16.817 20.227-16.88 20.324a1.001 1.001 0 0 1-.773.455c-.369.024-37.305 2.594-74.51 14.698a.961.961 0 0 1-.309.05zM292.659 75.306 273.857 93.41l.011.155c18.016 14.964 34.479 31.429 48.936 48.939a345.34 345.34 0 0 1 15.669 20.492c25.503 36.119 35.189 65.207 36.932 70.884 34.77-11.16 69.024-14.093 73.524-14.44 1.306-1.94 7.133-10.34 16.042-19.402zM449.49 220.402h.01z" fill="#112c41"/><path d="M466.502 199.914c-38.019.304-71.529 10.331-71.529 10.331-11.946-24.631-25.627-46.474-39.018-65.07a474.88 474.88 0 0 0-15.479-20.323c-26.213-32.568-47.909-50.846-47.909-50.846 24.55-7.102 54.272-7.433 59.725-7.423a2.201 2.201 0 0 1 1.528.588c16.33 14.883 35.558 35.5 53.639 56.422.365.426.744.853 1.101 1.271a1171.59 1171.59 0 0 1 16.157 19.193c18.876 22.958 34.675 44.095 41.785 55.857z" fill="#ddfeee"/><path d="M394.973 211.245a.998.998 0 0 1-.899-.564c-10.707-22.074-23.805-43.917-38.931-64.922a474.456 474.456 0 0 0-15.446-20.28c-25.843-32.108-47.557-50.526-47.773-50.709a1.002 1.002 0 0 1 .366-1.725c24.403-7.06 53.488-7.462 59.749-7.462h.297c.787 0 1.558.301 2.159.85 19.021 17.334 39.713 40.296 53.722 56.507l1.105 1.276a1177.894 1177.894 0 0 1 15.122 17.935l1.047 1.273c18.709 22.755 34.752 44.203 41.867 55.973a1 1 0 0 1-.847 1.517c-37.431.3-70.917 10.189-71.251 10.289a.983.983 0 0 1-.287.042zM294.622 74.467c5.238 4.627 24.43 22.172 46.634 49.758a477.615 477.615 0 0 1 15.511 20.365c15.021 20.858 28.051 42.541 38.739 64.461 5.293-1.492 35.466-9.579 69.222-10.117-7.474-11.962-22.898-32.491-40.782-54.242l-1.044-1.269a1170.436 1170.436 0 0 0-15.098-17.906l-1.103-1.273c-13.972-16.166-34.605-39.065-53.554-56.334a1.216 1.216 0 0 0-.841-.327h-.253c-6.063 0-33.663.378-57.431 6.884z" fill="#112c41"/><ellipse cx="401.095" cy="189.7" fill="#7cdaac" rx="5.503" ry="8.845" transform="matrix(.8559 -.5171 .5171 .8559 -40.3073 234.7274)"/><path d="M403.719 198.866c-1.014 0-2.101-.282-3.208-.846-1.929-.982-3.721-2.73-5.044-4.921-1.324-2.191-2.037-4.59-2.009-6.755.03-2.351.922-4.174 2.509-5.132s3.614-.899 5.71.167c1.93.982 3.721 2.73 5.044 4.921 1.324 2.191 2.037 4.59 2.009 6.755-.03 2.351-.922 4.174-2.509 5.132a4.768 4.768 0 0 1-2.502.679zm-5.244-16.186c-.521 0-.995.122-1.4.366-.93.562-1.453 1.743-1.474 3.327-.023 1.77.58 3.765 1.7 5.618 1.119 1.853 2.604 3.316 4.183 4.119 1.411.719 2.7.804 3.63.243.93-.562 1.453-1.743 1.474-3.327.023-1.77-.58-3.765-1.7-5.618-1.119-1.854-2.604-3.316-4.182-4.119-.797-.405-1.555-.609-2.231-.609z" fill="#112c41"/><ellipse cx="353.365" cy="81.243" fill="#7cdaac" rx="5.503" ry="8.845" transform="matrix(.6448 -.7644 .7644 .6448 63.4207 298.9568)"/><path d="M356.696 89.41c-2.356 0-5.12-1.075-7.57-3.142-4.25-3.585-5.718-8.601-3.342-11.419 2.377-2.819 7.569-2.216 11.819 1.368 4.25 3.585 5.718 8.601 3.342 11.419-1.007 1.194-2.519 1.774-4.249 1.774zm-6.189-4.78c3.223 2.718 7.252 3.46 8.8 1.625 1.549-1.836.136-5.683-3.084-8.4-3.222-2.716-7.251-3.461-8.8-1.625s-.136 5.683 3.084 8.4z" fill="#112c41"/><path d="M337.656 163.574a342.864 342.864 0 0 0-15.625-20.432l18.445-18.289a474.252 474.252 0 0 1 15.479 20.323z" fill="#fff"/><path d="M337.656 164.574a.997.997 0 0 1-.816-.423 344.466 344.466 0 0 0-15.579-20.373 1 1 0 0 1 .067-1.347l18.444-18.289a.999.999 0 0 1 1.484.082 477.014 477.014 0 0 1 15.511 20.366 1 1 0 0 1-.103 1.289l-18.299 18.399a1 1 0 0 1-.709.296zm-14.273-21.364a346.175 346.175 0 0 1 14.401 18.816l16.862-16.955a476.53 476.53 0 0 0-14.255-18.728z" fill="#112c41"/><path d="M370.213 141.962c8.432 9.959 22.991 17.563 31.011 12.416 8.008-5.139 2.851-18.191-5.623-28.114-9.578-11.214-23.68-17.167-30.547-12.012-6.273 4.71-4.016 16.874 5.159 27.71z" fill="#7cdaac"/><path d="M395.129 157.002c-8.314 0-18.86-6.34-25.68-14.394-6.253-7.385-9.56-15.582-8.846-21.925.35-3.102 1.681-5.602 3.851-7.231 7.11-5.336 21.721.235 31.907 12.162 5.396 6.318 10.783 15.634 9.721 22.83-.434 2.935-1.887 5.214-4.318 6.775-1.915 1.228-4.177 1.783-6.635 1.783zm-23.852-43.599c-2.199 0-4.128.527-5.622 1.649-1.743 1.308-2.773 3.279-3.063 5.855-.645 5.72 2.568 13.54 8.384 20.408h.001c8.118 9.588 22.313 16.964 29.707 12.22 1.924-1.235 3.074-3.046 3.42-5.384.807-5.465-2.742-13.603-9.264-21.239-7.1-8.312-16.661-13.509-23.563-13.509z" fill="#112c41"/><path d="m423.673 142.788-67.718 2.387a474.88 474.88 0 0 0-15.479-20.323l66.984-1.259c.365.426.744.853 1.101 1.271a1176.462 1176.462 0 0 1 15.112 17.924z" fill="#fff"/><path d="M355.955 146.175a1 1 0 0 1-.812-.416 475.087 475.087 0 0 0-15.446-20.28 1 1 0 0 1 .761-1.627l66.983-1.259a.943.943 0 0 1 .777.349l1.104 1.273a1177.894 1177.894 0 0 1 15.122 17.935 1 1 0 0 1-.735 1.636l-67.719 2.387c-.012.002-.024.002-.035.002zm-13.426-20.361a478.121 478.121 0 0 1 13.925 18.343l65.153-2.296a1154.842 1154.842 0 0 0-13.804-16.343l-.793-.915z" fill="#112c41"/><path d="M384.728 219.811c-5.207-12.491-11.663-24.259-15.343-30.232" fill="#7cdaac"/><path d="M384.728 220.811a.999.999 0 0 1-.923-.615c-5.049-12.11-11.382-23.779-15.272-30.092a1 1 0 0 1 1.703-1.049c3.928 6.375 10.322 18.154 15.415 30.371a1 1 0 0 1-.923 1.385z" fill="#112c41"/><path d="M374.936 235.909a1 1 0 0 1-.88-1.474c.079-.146 8.015-14.749 20.28-24.96a1 1 0 1 1 1.279 1.537c-11.971 9.966-19.722 24.228-19.798 24.371a.996.996 0 0 1-.881.526z" fill="#112c41"/><path d="M522.067 331.249c.785-1.36 8.307-13.727 11.185-20.859 20.879-51.745 19.762-119.184-13.107-173.042-11.193-18.34-16.82-26.409-31.627-42.902-21.067-23.466-57.838-50.067-74.528-57.629 25.483 20.309 64.645 50.138 90.485 91.898 44.78 72.368 34.684 136.546 17.468 176.416 1.445 8.674 1.858 14.87.124 26.118z" fill="#dedffe"/></svg></g><g transform="translate(710.0 114.0) rotate(22.33809317311746 143.5 123.5) scale(1.0747091357765803 1.071620707009354)"><svg width="267.049" height="230.492" viewBox="0 0 267.049 230.492"><circle cx="237.478" cy="84.689" fill="#ffd6c0" r="28.57"/><path d="M239.064 113.215a28.569 28.569 0 0 0 26.984-28.6 28.572 28.572 0 0 1-55.55-7.7q-.039-.765-.039-1.522a28.59 28.59 0 0 0 28.6 37.824z" fill="#f5b9ab"/><path d="M237.491 114.259a29.664 29.664 0 0 1-20.626-8.37 1 1 0 1 1 1.394-1.433 27.679 27.679 0 0 0 20.747 7.761 27.57 27.57 0 1 0-29.093-28.088 1.016 1.016 0 0 1-1.019.98 1 1 0 0 1-.981-1.019A29.571 29.571 0 0 1 267 83.051a29.57 29.57 0 0 1-27.887 31.162q-.813.045-1.622.046z" fill="#112c41"/><path d="M224.133 93.791a1 1 0 0 1-.927-.622 18.121 18.121 0 0 1 9.616-23.718 17.634 17.634 0 0 1 15.378 1.024 1 1 0 1 1-.98 1.744 15.659 15.659 0 0 0-13.642-.917 16.121 16.121 0 0 0-8.519 21.111 1 1 0 0 1-.925 1.378z" fill="#112c41"/><circle cx="139.02" cy="126.977" fill="#ffd6c0" r="102.5"/><path d="M85.849 39.346c.3-.179.6-.341.893-.517l12.185 7.207C53.322 73.888 37.991 130.909 65.3 175.917c27.359 45.089 87.153 61.047 132.952 33.258A98.411 98.411 0 0 0 210.98 200 102.511 102.511 0 1 1 85.849 39.346z" fill="#f5b9ab"/><g fill="#112c41"><path d="M139.19 230.453a103.539 103.539 0 0 1-88.656-49.786A103.5 103.5 0 1 1 227.505 73.288a103.464 103.464 0 0 1-88.315 157.165zM52.244 179.63a101.5 101.5 0 1 0-11.815-76.782 101.619 101.619 0 0 0 11.815 76.782z"/><ellipse cx="119.578" cy="114.282" rx="6.828" ry="9.104" transform="matrix(.88298037 -.46940992 .46940992 .88298037 -39.653 69.506)"/><ellipse cx="98.237" cy="84.337" rx="14.13" ry="9.336" transform="matrix(.77004578 -.63798863 .63798863 .77004578 -31.216 82.068)"/><ellipse cx="184.169" cy="56.381" rx="8.6" ry="13.016" transform="matrix(.05862688 -.99827997 .99827997 .05862688 117.086 236.927)"/><path d="M183.505 49.762c.348 0 .7.01 1.051.031 5.961.35 10.82 3.663 10.61 7.234-.193 3.294-4.829 5.973-10.334 5.973-.348 0-.7-.011-1.051-.031-5.961-.35-10.819-3.663-10.61-7.235.194-3.293 4.83-5.973 10.334-5.973m0-2c-6.653 0-12.067 3.374-12.331 7.856-.278 4.741 5.314 8.927 12.49 9.348q.589.035 1.168.035c6.653 0 12.068-3.375 12.331-7.857.278-4.741-5.314-8.926-12.49-9.348q-.589-.034-1.168-.034z"/><ellipse cx="184.703" cy="89.853" rx="6.828" ry="9.104" transform="matrix(.95494228 -.29679159 .29679159 .95494228 -18.346 58.868)"/><path d="M141.387 123.839c5.779 11.079 16.366 17.191 25.211 13.944s12.962-14.758 10.2-26.944z"/><path d="M161.66 139.651c-7.878 0-16.176-5.8-21.16-15.349a1 1 0 0 1 .542-1.4l35.411-13a1 1 0 0 1 1.32.718c2.925 12.906-1.629 24.726-10.831 28.1a15.248 15.248 0 0 1-5.282.931zm-18.843-15.272c5.736 10.175 15.449 15.4 23.436 12.465s12.014-13.2 9.8-24.668z"/></g><path d="M172.664 132.8c-4.282-2.943-10.72-2.981-16.217.355a17.715 17.715 0 0 0-3.694 2.974c4.5 2.555 9.392 3.293 13.845 1.658a14.687 14.687 0 0 0 6.438-4.719q-.183-.142-.372-.268z" fill="#ffa6e0"/><path d="M161.67 139.646a19.1 19.1 0 0 1-9.411-2.652 1 1 0 0 1-.233-1.556 18.713 18.713 0 0 1 3.9-3.141c5.647-3.429 12.6-3.557 17.3-.325q.207.142.406.291a1 1 0 0 1 .181 1.424 15.609 15.609 0 0 1-6.875 5.033 15.212 15.212 0 0 1-5.268.926zm-7.235-3.765a15.02 15.02 0 0 0 11.818.963 13.436 13.436 0 0 0 5.294-3.577c-4.05-2.423-9.816-2.153-14.582.739a16.928 16.928 0 0 0-2.53 1.875z" fill="#112c41"/><circle cx="31.504" cy="164.725" fill="#ffd6c0" r="30.5"/><path d="M61.661 169.937a33.288 33.288 0 0 1-4.42 6.2c-11.072 12.7-30.711 13.559-43.4 2.494-8.341-7.256-11.164-17.571-9.412-27.709-6.351 12.195-4.408 27.109 6.423 36.553a30.493 30.493 0 0 0 43.033-2.945c3.806-4.362 6.864-9.263 7.776-14.593z" fill="#f5b9ab"/><path d="M31.562 196.238a31.7 31.7 0 0 1-7.546-.916 31.5 31.5 0 0 1-8.852-57.522 31.614 31.614 0 0 1 41.959 8.6 1 1 0 1 1-1.628 1.162 29.609 29.609 0 0 0-39.295-8.057 29.5 29.5 0 1 0 30.605 50.441A31.465 31.465 0 0 0 60.68 169.74a1 1 0 1 1 1.961.395 33.52 33.52 0 0 1-14.8 21.52 31.312 31.312 0 0 1-16.279 4.583z" fill="#112c41"/><path d="M14.894 164.787a1 1 0 0 1-.98-1.2 18.756 18.756 0 0 1 9.908-13.061 19.278 19.278 0 0 1 25.753 8.834 1 1 0 1 1-1.785.9 17.275 17.275 0 0 0-23.065-7.951 16.765 16.765 0 0 0-8.852 11.68 1 1 0 0 1-.979.798z" fill="#112c41"/><path d="M30.5 124.339c15.441-22.283 39.375-43.273 69.326-58.78A213.343 213.343 0 0 1 138.318 50.1a64.028 64.028 0 0 0-14.207-23.569c.149.073.307.141.448.219a75.854 75.854 0 0 1 25.665 20.3c2.48-.558 4.944-1.047 7.4-1.494 18.033-3.245 35.258-3.521 50.535-.918a1.861 1.861 0 0 0 1.884-2.851 89.532 89.532 0 0 0-21.923-22.749C157.148-3.4 112.834-5.685 76.132 16.585a108.767 108.767 0 0 0-17.117 12.831C32.039 54.182 20.3 90.489 27.853 123.815a1.477 1.477 0 0 0 2.647.524z" fill="#fcaa51"/><path d="M30.5 124.339a155.947 155.947 0 0 1 13.334-16.618c-6.51-29.679 4.019-61.928 28.015-83.951A98.052 98.052 0 0 1 99.505 5.948a109.1 109.1 0 0 0-40.49 23.468C32.039 54.182 20.3 90.489 27.853 123.815a1.477 1.477 0 0 0 2.647.524z" fill="#ff9522"/><path d="M29.245 125.8a2.424 2.424 0 0 1-.479-.048 2.672 2.672 0 0 1-2.007-2.258C19.545 89.51 31.647 53.18 58.341 28.681A109.929 109.929 0 0 1 75.613 15.73 106.707 106.707 0 0 1 134.305.048a97.23 97.23 0 0 1 54.4 18.18 89.87 89.87 0 0 1 22.069 22.854 2.9 2.9 0 0 1 .193 3.25 3.1 3.1 0 0 1-3.152 1.264c-17.291-2.923-37.131-2.082-57.374 2.428a1.007 1.007 0 0 1-.987-.337 76.831 76.831 0 0 0-21.112-17.866 66.794 66.794 0 0 1 10.918 19.951 1 1 0 0 1-.666 1.287 212.549 212.549 0 0 0-38.307 15.386C71.879 81.151 47.5 101.756 31.63 124.464a2.97 2.97 0 0 1-2.385 1.336zm29.773-96.38.676.736c-26.176 24.021-38.046 59.627-30.979 92.92.042.2.169.657.449.714a.933.933 0 0 0 .826-.471c16.048-22.97 40.687-43.8 69.378-58.649a214.69 214.69 0 0 1 37.651-15.233 62.881 62.881 0 0 0-13.629-22.21 1 1 0 0 1 1.137-1.6A76.628 76.628 0 0 1 150.6 45.94c20.288-4.451 40.174-5.253 57.548-2.316a1.133 1.133 0 0 0 1.14-.378 1 1 0 0 0-.176-1.053 87.9 87.9 0 0 0-21.58-22.346 95.239 95.239 0 0 0-53.288-17.8 104.741 104.741 0 0 0-57.593 15.392 107.985 107.985 0 0 0-16.957 12.715zM198.6 115.551a22.539 22.539 0 0 1-4.937-.57 31.953 31.953 0 0 1-16.637-10.364 31.95 31.95 0 0 1-8.089-17.853c-.565-6.307 1.333-11.715 5.343-15.229s9.62-4.686 15.8-3.3a33.805 33.805 0 0 1 24.72 28.221c.565 6.307-1.333 11.716-5.343 15.229a16.152 16.152 0 0 1-10.857 3.866zm-13.449-45.922a14.242 14.242 0 0 0-9.584 3.379c-3.527 3.089-5.19 7.914-4.682 13.582a30 30 0 0 0 7.611 16.738 30 30 0 0 0 15.594 9.744c5.552 1.248 10.553.232 14.08-2.859 3.527-3.09 5.19-7.914 4.682-13.582a31.856 31.856 0 0 0-23.205-26.483 20.582 20.582 0 0 0-4.496-.519zm-68.7 78.582c-11.468 0-21.021-11.958-21.384-26.9a31.874 31.874 0 0 1 5.626-19.422c3.866-5.34 9.131-8.357 14.826-8.5 5.7-.16 11.1 2.617 15.221 7.764a31.876 31.876 0 0 1 6.564 19.125c.367 15.11-8.807 27.635-20.452 27.918a3.85 3.85 0 0 1-.401.015zm-.524-52.765h-.356c-5.039.123-9.732 2.839-13.214 7.647a29.818 29.818 0 0 0-5.236 18.168c.336 13.823 8.973 24.894 19.33 24.894h.353c10.513-.257 18.79-11.838 18.45-25.816a29.817 29.817 0 0 0-6.114-17.893c-3.625-4.524-8.305-7-13.215-7z" fill="#112c41"/><path d="M134.849 112.312a1 1 0 0 1-.822-1.567c7.29-10.57 23.564-19.278 39.367-14.593a1 1 0 0 1-.569 1.918c-14.357-4.256-30.165 3.681-37.152 13.81a1 1 0 0 1-.824.432zm-89.044 25.803a1 1 0 0 1-.728-1.686c10.54-11.19 32.406-18.714 50.861-17.5a1 1 0 0 1 .932 1.063 1.016 1.016 0 0 1-1.063.933c-20.417-1.354-40.625 7.694-49.274 16.878a1 1 0 0 1-.728.312zm162.324-55.631a1 1 0 0 1-.807-1.589c3.746-5.139 12.54-9.978 18.121-9.978h.036a1 1 0 0 1 0 2 .2.2 0 0 1-.035 0c-4.965 0-13.127 4.526-16.5 9.156a1 1 0 0 1-.815.411z" fill="#112c41"/></svg></g><g transform="translate(713.0 1674.0) rotate(0.0 176.5 23.0) scale(0.8606523403404575 0.8502615478456961)"><svg width="410.154" height="54.101" viewBox="0 0 410.154 54.101"><ellipse cx="205.077" cy="27.05" fill="#cbc8ff" rx="205.077" ry="27.05"/></svg></g><g transform="translate(311.0 1520.0) rotate(0.0 170.5 90.0) scale(1.1442261876799389 1.1415452717829033)"><svg width="298.018" height="157.681" viewBox="0 0 298.018 157.681"><path d="M293.018 156.681H5a4 4 0 0 1-4-4V5.03a4 4 0 0 1 4-4h288.018a4 4 0 0 1 4 4v147.65a4 4 0 0 1-4 4.001z" fill="#ffe993"/><path d="M293.019 157.681H5c-2.757 0-5-2.243-5-5V5.031c0-2.757 2.243-5 5-5h288.019c2.757 0 5 2.243 5 5v147.65c0 2.757-2.243 5-5 5zM5 2.031c-1.654 0-3 1.346-3 3v147.65c0 1.654 1.346 3 3 3h288.019c1.654 0 3-1.346 3-3V5.031c0-1.654-1.346-3-3-3z" fill="#112c41"/><path d="M72.472 156.681H5c-2.209 0-4-1.245-4-2.782V3.782C1 2.246 2.791 1 5 1h67.472c-1.016-.011-1.996.263-2.719.759s-1.13 1.174-1.129 1.88l.236 150.328c.001 1.422 1.574 2.604 3.612 2.714z" fill="#ffd169"/><path d="M72.472 157.681H5c-2.804 0-5-1.661-5-3.782V3.782C0 1.662 2.197 0 5 0h67.483l-.011 2h-.11c-.772.009-1.513.22-2.044.584-.441.303-.695.687-.694 1.054l.235 150.328c.002.866 1.198 1.636 2.667 1.716zM5 2c-1.767 0-3 .939-3 1.782v150.117c0 .843 1.232 1.782 3 1.782h63.397a3.043 3.043 0 0 1-.539-1.711L67.623 3.642A2.981 2.981 0 0 1 68.126 2z" fill="#112c41"/></svg></g><g transform="translate(745.0 1462.0) rotate(0.0 161.0 119.0) scale(1.0804716493634614 1.079458093894712)"><svg width="298.018" height="220.481" viewBox="0 0 298.018 220.481"><path d="M293.018 219.481H5a4 4 0 0 1-4-4V5a4 4 0 0 1 4-4h288.018a4 4 0 0 1 4 4v210.481a4 4 0 0 1-4 4z" fill="#afadf4"/><path d="M293.018 220.481H5c-2.757 0-5-2.243-5-5V5c0-2.757 2.243-5 5-5h288.019c2.757 0 5 2.243 5 5v210.481a5.007 5.007 0 0 1-5.001 5zM5 2C3.345 2 2 3.346 2 5v210.481c0 1.654 1.346 3 3 3h288.019c1.654 0 3-1.346 3-3V5c0-1.654-1.346-3-3-3z" fill="#112c41"/><path d="M72.472 219.481H5c-2.209 0-4-1.748-4-3.904V4.905C1 2.748 2.791 1 5 1h67.472c-1.016-.015-1.996.369-2.719 1.065s-1.13 1.647-1.129 2.639l.236 210.969c.001 1.996 1.574 3.653 3.612 3.808z" fill="#9494f4"/><path d="M72.471 220.481H5c-2.757 0-5-2.2-5-4.904V4.905C0 2.2 2.243 0 5 0h67.486l-.015 2h-.101a2.858 2.858 0 0 0-1.924.786 2.675 2.675 0 0 0-.822 1.917l.235 210.97c.001 1.462 1.183 2.697 2.688 2.811zM5 2C3.345 2 2 3.303 2 4.905v210.672c0 1.602 1.346 2.904 3 2.904h63.791a4.728 4.728 0 0 1-.932-2.806L67.624 4.706A4.662 4.662 0 0 1 68.494 2z" fill="#112c41"/></svg></g><g transform="translate(524.0 853.0) rotate(-10.02072278185998 105.5 -66.0) scale(1.188350783128798 -1.1811234989888868)"><svg width="177.557" height="111.758" viewBox="0 0 177.557 111.758"><path d="M176.039 63.985a1.557 1.557 0 0 0 .183-2.124c-26.27-33.189-58.579-38.073-79.789-40.385-22.26-2.426-33.867-8.006-44.79-19.959a1.55 1.55 0 0 0-2.265-.049c-6.924 7.167-42.5 44.659-47.955 50.408a1.541 1.541 0 0 0-.272 1.724c2.017 4.288 11.615 21.388 39 28.306 31.1 7.855 49.117-2.336 81.9 28.421a1.551 1.551 0 0 0 2.1.033c6.836-6.175 44.949-40.179 51.888-46.375z" fill="#ddfeee"/><path d="M123.123 111.763a2.564 2.564 0 0 1-1.758-.7c-22.743-21.339-38.25-22.745-56.2-24.374-7.813-.709-15.892-1.442-25.254-3.806C12.434 75.939 2.6 59.043.246 54.03A2.535 2.535 0 0 1 .7 51.188C7.505 44.012 41.814 7.859 48.659.774A2.52 2.52 0 0 1 50.516 0a2.583 2.583 0 0 1 1.865.842C63.491 13 75.047 18.139 96.542 20.482c18.437 2.011 52.756 5.752 80.464 40.758a2.557 2.557 0 0 1-.3 3.491l-.359.32c-28.89 25.78-47.188 42.136-51.525 46.055a2.521 2.521 0 0 1-1.699.657zM50.48 2a.52.52 0 0 0-.383.162C43.258 9.242 8.955 45.39 2.148 52.565a.539.539 0 0 0-.092.613C4.319 57.991 13.775 74.215 40.4 80.94c9.209 2.326 17.209 3.052 24.944 3.754 18.324 1.662 34.149 3.1 57.393 24.907a.55.55 0 0 0 .748.021c4.338-3.922 22.641-20.281 51.533-46.063l.359-.32a.555.555 0 0 0 .064-.758c-27.191-34.35-60.969-38.032-79.116-40.011C74.556 20.1 62.246 14.6 50.9 2.192A.566.566 0 0 0 50.487 2z" fill="#112c41"/><ellipse cx="90.356" cy="54.439" fill="#7bdaac" rx="16.596" ry="22.723" transform="matrix(.2369738 -.97151604 .97151604 .2369738 16.056 129.321)"/><path d="M93.578 72.436a31.262 31.262 0 0 1-7.391-.9A28.354 28.354 0 0 1 71.2 62.677c-3.638-4.313-5.02-9.235-3.892-13.86 2.3-9.427 14.507-14.572 27.217-11.473a28.364 28.364 0 0 1 14.987 8.856c3.638 4.313 5.02 9.235 3.892 13.86-1.846 7.567-10.077 12.376-19.826 12.376zm-6.494-34c-8.821 0-16.209 4.2-17.832 10.856-.973 3.988.262 8.284 3.478 12.1a26.332 26.332 0 0 0 13.93 8.2c11.64 2.837 22.763-1.648 24.8-10 .973-3.989-.262-8.285-3.478-12.1a26.332 26.332 0 0 0-13.931-8.2 29.484 29.484 0 0 0-6.967-.856z" fill="#112c41"/><ellipse cx="153.907" cy="59.371" fill="#7bdaac" rx="6.016" ry="8.237" transform="matrix(.71018538 -.70401472 .70401472 .71018538 2.807 125.56)"/><path d="M156.114 67.58a10.435 10.435 0 0 1-7.19-3.269c-3.586-3.618-4.268-8.777-1.52-11.5a6.275 6.275 0 0 1 5.582-1.558 11.5 11.5 0 0 1 9.032 9.111 6.282 6.282 0 0 1-1.608 5.567 5.975 5.975 0 0 1-4.296 1.649zm-4.409-14.432a4.007 4.007 0 0 0-2.893 1.083c-1.964 1.947-1.277 5.837 1.533 8.672s6.693 3.554 8.657 1.608a4.343 4.343 0 0 0 1.038-3.848 8.915 8.915 0 0 0-2.571-4.823 8.914 8.914 0 0 0-4.8-2.613 6.109 6.109 0 0 0-.964-.079z" fill="#112c41"/><ellipse cx="22.368" cy="58.165" fill="#7bdaac" rx="6.016" ry="8.237" transform="matrix(.71018538 -.70401472 .70401472 .71018538 -34.467 32.605)"/><path d="M24.575 66.374a10.433 10.433 0 0 1-7.19-3.269c-3.585-3.617-4.267-8.776-1.521-11.5a6.274 6.274 0 0 1 5.582-1.558 10.912 10.912 0 0 1 5.9 3.179 10.927 10.927 0 0 1 3.127 5.932 6.278 6.278 0 0 1-1.607 5.567 5.975 5.975 0 0 1-4.291 1.649zm-4.409-14.432a4.005 4.005 0 0 0-2.893 1.083C15.309 54.972 16 58.863 18.806 61.7s6.693 3.553 8.657 1.608a4.343 4.343 0 0 0 1.037-3.851 8.912 8.912 0 0 0-2.571-4.823 8.914 8.914 0 0 0-4.8-2.613 6.119 6.119 0 0 0-.963-.079z" fill="#112c41"/></svg></g><g transform="translate(247.0 1109.0) rotate(52.79207807821906 94.5 64.5) scale(1.1831578420202578 1.1810915483286182)"><svg width="159.742" height="109.221" viewBox="0 0 159.742 109.221"><path d="M127.482 1.488C100.948 31.118 44.243 44.969 2.9 32.935a1.5 1.5 0 0 0-1.875 1.729l13.047 67.516a1.509 1.509 0 0 0 1.089 1.172c51.147 13.642 116.089-2.168 143.275-37.652a1.506 1.506 0 0 0 .167-1.545L129.946 1.877a1.5 1.5 0 0 0-2.464-.389z" fill="#ddfeee"/><path d="M53.93 109.252a151.914 151.914 0 0 1-39.03-4.934 2.523 2.523 0 0 1-1.813-1.948L.046 34.854a2.488 2.488 0 0 1 .774-2.328 2.459 2.459 0 0 1 2.363-.55c19.921 5.8 43.829 5.76 67.319-.111C94.124 25.963 114.1 14.938 126.736.821a2.472 2.472 0 0 1 2.214-.794 2.5 2.5 0 0 1 1.905 1.432l28.656 62.278a2.505 2.505 0 0 1-.282 2.573C138.782 93 96.318 109.251 53.93 109.252zM2.486 33.875a.479.479 0 0 0-.319.125.5.5 0 0 0-.157.471l13.044 67.519a.514.514 0 0 0 .366.4c52.032 13.876 115.834-2.852 142.222-37.294a.506.506 0 0 0 .052-.52L129.038 2.3a.5.5 0 0 0-.387-.289.45.45 0 0 0-.424.149c-12.907 14.407-33.234 25.648-57.24 31.646-23.83 5.954-48.108 5.988-68.363.09a.515.515 0 0 0-.138-.021z" fill="#112c41"/><ellipse cx="80.127" cy="65.747" fill="#7bdaac" rx="22.723" ry="16.596" transform="matrix(.98212664 -.18822131 .18822131 .98212664 -10.943 16.256)"/><path d="M77.448 83.605a26.539 26.539 0 0 1-11.32-2.405c-5.1-2.41-8.4-6.313-9.3-10.988s.73-9.522 4.579-13.648a28.356 28.356 0 0 1 15.409-8.1 28.343 28.343 0 0 1 17.31 1.828c5.1 2.41 8.405 6.313 9.3 10.987S102.7 70.8 98.848 74.93a28.343 28.343 0 0 1-15.409 8.1 31.844 31.844 0 0 1-5.991.575zm5.364-33.716a29.844 29.844 0 0 0-5.62.542 26.337 26.337 0 0 0-14.323 7.5c-3.4 3.647-4.849 7.876-4.077 11.907s3.682 7.427 8.19 9.558a26.367 26.367 0 0 0 16.08 1.671 26.354 26.354 0 0 0 14.323-7.5c3.4-3.648 4.849-7.876 4.077-11.909s-3.682-7.425-8.191-9.556a24.538 24.538 0 0 0-10.459-2.213z" fill="#112c41"/><ellipse cx="139.488" cy="65.84" fill="#7bdaac" rx="8.237" ry="6.016" transform="matrix(.80403331 -.59458425 .59458425 .80403331 -11.812 95.841)"/><path d="M137.288 73.724a5.946 5.946 0 0 1-5.967-8.14 11.5 11.5 0 0 1 10.315-7.628 5.949 5.949 0 0 1 6.019 8.14 11.5 11.5 0 0 1-10.315 7.628zm4.4-13.768h-.04a9.516 9.516 0 0 0-8.418 6.226 4.344 4.344 0 0 0 .439 3.961 4.449 4.449 0 0 0 3.66 1.581 9.516 9.516 0 0 0 8.418-6.226 3.964 3.964 0 0 0-4.059-5.542z" fill="#112c41"/><ellipse cx="21.233" cy="49.497" fill="#7bdaac" rx="6.016" ry="8.237" transform="matrix(.21700188 -.97617118 .97617118 .21700188 -31.692 59.483)"/><path d="M22.334 56.638a12.132 12.132 0 0 1-2.623-.292 10.923 10.923 0 0 1-5.838-3.3 5.949 5.949 0 0 1 2.2-9.881 10.917 10.917 0 0 1 6.685-.516 10.915 10.915 0 0 1 5.838 3.3 5.949 5.949 0 0 1-2.2 9.881 10.158 10.158 0 0 1-4.062.808zm-2.207-12.283a8.14 8.14 0 0 0-3.256.645 3.967 3.967 0 0 0-1.5 6.729 8.91 8.91 0 0 0 4.77 2.668A8.879 8.879 0 0 0 25.6 54a3.966 3.966 0 0 0 1.5-6.728 8.9 8.9 0 0 0-4.778-2.672 10.089 10.089 0 0 0-2.195-.245z" fill="#112c41"/></svg></g><g transform="translate(313.0 508.0) rotate(24.330845870342053 94.5 64.5) scale(1.1831578420202578 1.1810915483286182)"><svg width="159.742" height="109.221" viewBox="0 0 159.742 109.221"><path d="M127.482 1.488C100.948 31.118 44.243 44.969 2.9 32.935a1.5 1.5 0 0 0-1.875 1.729l13.047 67.516a1.509 1.509 0 0 0 1.089 1.172c51.147 13.642 116.089-2.168 143.275-37.652a1.506 1.506 0 0 0 .167-1.545L129.946 1.877a1.5 1.5 0 0 0-2.464-.389z" fill="#ddfeee"/><path d="M53.93 109.252a151.914 151.914 0 0 1-39.03-4.934 2.523 2.523 0 0 1-1.813-1.948L.046 34.854a2.488 2.488 0 0 1 .774-2.328 2.459 2.459 0 0 1 2.363-.55c19.921 5.8 43.829 5.76 67.319-.111C94.124 25.963 114.1 14.938 126.736.821a2.472 2.472 0 0 1 2.214-.794 2.5 2.5 0 0 1 1.905 1.432l28.656 62.278a2.505 2.505 0 0 1-.282 2.573C138.782 93 96.318 109.251 53.93 109.252zM2.486 33.875a.479.479 0 0 0-.319.125.5.5 0 0 0-.157.471l13.044 67.519a.514.514 0 0 0 .366.4c52.032 13.876 115.834-2.852 142.222-37.294a.506.506 0 0 0 .052-.52L129.038 2.3a.5.5 0 0 0-.387-.289.45.45 0 0 0-.424.149c-12.907 14.407-33.234 25.648-57.24 31.646-23.83 5.954-48.108 5.988-68.363.09a.515.515 0 0 0-.138-.021z" fill="#112c41"/><ellipse cx="80.127" cy="65.747" fill="#7bdaac" rx="22.723" ry="16.596" transform="matrix(.98212664 -.18822131 .18822131 .98212664 -10.943 16.256)"/><path d="M77.448 83.605a26.539 26.539 0 0 1-11.32-2.405c-5.1-2.41-8.4-6.313-9.3-10.988s.73-9.522 4.579-13.648a28.356 28.356 0 0 1 15.409-8.1 28.343 28.343 0 0 1 17.31 1.828c5.1 2.41 8.405 6.313 9.3 10.987S102.7 70.8 98.848 74.93a28.343 28.343 0 0 1-15.409 8.1 31.844 31.844 0 0 1-5.991.575zm5.364-33.716a29.844 29.844 0 0 0-5.62.542 26.337 26.337 0 0 0-14.323 7.5c-3.4 3.647-4.849 7.876-4.077 11.907s3.682 7.427 8.19 9.558a26.367 26.367 0 0 0 16.08 1.671 26.354 26.354 0 0 0 14.323-7.5c3.4-3.648 4.849-7.876 4.077-11.909s-3.682-7.425-8.191-9.556a24.538 24.538 0 0 0-10.459-2.213z" fill="#112c41"/><ellipse cx="139.488" cy="65.84" fill="#7bdaac" rx="8.237" ry="6.016" transform="matrix(.80403331 -.59458425 .59458425 .80403331 -11.812 95.841)"/><path d="M137.288 73.724a5.946 5.946 0 0 1-5.967-8.14 11.5 11.5 0 0 1 10.315-7.628 5.949 5.949 0 0 1 6.019 8.14 11.5 11.5 0 0 1-10.315 7.628zm4.4-13.768h-.04a9.516 9.516 0 0 0-8.418 6.226 4.344 4.344 0 0 0 .439 3.961 4.449 4.449 0 0 0 3.66 1.581 9.516 9.516 0 0 0 8.418-6.226 3.964 3.964 0 0 0-4.059-5.542z" fill="#112c41"/><ellipse cx="21.233" cy="49.497" fill="#7bdaac" rx="6.016" ry="8.237" transform="matrix(.21700188 -.97617118 .97617118 .21700188 -31.692 59.483)"/><path d="M22.334 56.638a12.132 12.132 0 0 1-2.623-.292 10.923 10.923 0 0 1-5.838-3.3 5.949 5.949 0 0 1 2.2-9.881 10.917 10.917 0 0 1 6.685-.516 10.915 10.915 0 0 1 5.838 3.3 5.949 5.949 0 0 1-2.2 9.881 10.158 10.158 0 0 1-4.062.808zm-2.207-12.283a8.14 8.14 0 0 0-3.256.645 3.967 3.967 0 0 0-1.5 6.729 8.91 8.91 0 0 0 4.77 2.668A8.879 8.879 0 0 0 25.6 54a3.966 3.966 0 0 0 1.5-6.728 8.9 8.9 0 0 0-4.778-2.672 10.089 10.089 0 0 0-2.195-.245z" fill="#112c41"/></svg></g><g transform="translate(1227.0 401.0) rotate(53.12924501227342 94.5 64.5) scale(1.1831578420202578 1.1810915483286182)"><svg width="159.742" height="109.221" viewBox="0 0 159.742 109.221"><path d="M127.482 1.488C100.948 31.118 44.243 44.969 2.9 32.935a1.5 1.5 0 0 0-1.875 1.729l13.047 67.516a1.509 1.509 0 0 0 1.089 1.172c51.147 13.642 116.089-2.168 143.275-37.652a1.506 1.506 0 0 0 .167-1.545L129.946 1.877a1.5 1.5 0 0 0-2.464-.389z" fill="#ddfeee"/><path d="M53.93 109.252a151.914 151.914 0 0 1-39.03-4.934 2.523 2.523 0 0 1-1.813-1.948L.046 34.854a2.488 2.488 0 0 1 .774-2.328 2.459 2.459 0 0 1 2.363-.55c19.921 5.8 43.829 5.76 67.319-.111C94.124 25.963 114.1 14.938 126.736.821a2.472 2.472 0 0 1 2.214-.794 2.5 2.5 0 0 1 1.905 1.432l28.656 62.278a2.505 2.505 0 0 1-.282 2.573C138.782 93 96.318 109.251 53.93 109.252zM2.486 33.875a.479.479 0 0 0-.319.125.5.5 0 0 0-.157.471l13.044 67.519a.514.514 0 0 0 .366.4c52.032 13.876 115.834-2.852 142.222-37.294a.506.506 0 0 0 .052-.52L129.038 2.3a.5.5 0 0 0-.387-.289.45.45 0 0 0-.424.149c-12.907 14.407-33.234 25.648-57.24 31.646-23.83 5.954-48.108 5.988-68.363.09a.515.515 0 0 0-.138-.021z" fill="#112c41"/><ellipse cx="80.127" cy="65.747" fill="#7bdaac" rx="22.723" ry="16.596" transform="matrix(.98212664 -.18822131 .18822131 .98212664 -10.943 16.256)"/><path d="M77.448 83.605a26.539 26.539 0 0 1-11.32-2.405c-5.1-2.41-8.4-6.313-9.3-10.988s.73-9.522 4.579-13.648a28.356 28.356 0 0 1 15.409-8.1 28.343 28.343 0 0 1 17.31 1.828c5.1 2.41 8.405 6.313 9.3 10.987S102.7 70.8 98.848 74.93a28.343 28.343 0 0 1-15.409 8.1 31.844 31.844 0 0 1-5.991.575zm5.364-33.716a29.844 29.844 0 0 0-5.62.542 26.337 26.337 0 0 0-14.323 7.5c-3.4 3.647-4.849 7.876-4.077 11.907s3.682 7.427 8.19 9.558a26.367 26.367 0 0 0 16.08 1.671 26.354 26.354 0 0 0 14.323-7.5c3.4-3.648 4.849-7.876 4.077-11.909s-3.682-7.425-8.191-9.556a24.538 24.538 0 0 0-10.459-2.213z" fill="#112c41"/><ellipse cx="139.488" cy="65.84" fill="#7bdaac" rx="8.237" ry="6.016" transform="matrix(.80403331 -.59458425 .59458425 .80403331 -11.812 95.841)"/><path d="M137.288 73.724a5.946 5.946 0 0 1-5.967-8.14 11.5 11.5 0 0 1 10.315-7.628 5.949 5.949 0 0 1 6.019 8.14 11.5 11.5 0 0 1-10.315 7.628zm4.4-13.768h-.04a9.516 9.516 0 0 0-8.418 6.226 4.344 4.344 0 0 0 .439 3.961 4.449 4.449 0 0 0 3.66 1.581 9.516 9.516 0 0 0 8.418-6.226 3.964 3.964 0 0 0-4.059-5.542z" fill="#112c41"/><ellipse cx="21.233" cy="49.497" fill="#7bdaac" rx="6.016" ry="8.237" transform="matrix(.21700188 -.97617118 .97617118 .21700188 -31.692 59.483)"/><path d="M22.334 56.638a12.132 12.132 0 0 1-2.623-.292 10.923 10.923 0 0 1-5.838-3.3 5.949 5.949 0 0 1 2.2-9.881 10.917 10.917 0 0 1 6.685-.516 10.915 10.915 0 0 1 5.838 3.3 5.949 5.949 0 0 1-2.2 9.881 10.158 10.158 0 0 1-4.062.808zm-2.207-12.283a8.14 8.14 0 0 0-3.256.645 3.967 3.967 0 0 0-1.5 6.729 8.91 8.91 0 0 0 4.77 2.668A8.879 8.879 0 0 0 25.6 54a3.966 3.966 0 0 0 1.5-6.728 8.9 8.9 0 0 0-4.778-2.672 10.089 10.089 0 0 0-2.195-.245z" fill="#112c41"/></svg></g></svg>