<svg enable-background="new 0 0 633.007 425.124" height="426" viewBox="0 0 633.007 425.124" width="634" xmlns="http://www.w3.org/2000/svg"><ellipse cx="44.718" cy="147.563" fill="#ffd169" rx="43.998" ry="42.031" transform="matrix(.9214 -.3886 .3886 .9214 -53.8291 28.9757)"/><path d="m43.352 190.895c-17.177 0-33.265-9.652-40.096-25.846-9.22-21.862 1.878-47.493 24.74-57.135 22.864-9.644 48.963.3 58.185 22.162 9.22 21.862-1.878 47.493-24.74 57.135-5.928 2.5-12.077 3.684-18.089 3.684zm2.737-84.666c-5.756 0-11.638 1.133-17.315 3.527-21.846 9.214-32.466 33.67-23.674 54.516 8.792 20.847 33.719 30.31 55.563 21.097 21.846-9.213 32.466-33.669 23.674-54.515-6.507-15.429-21.855-24.625-38.248-24.625z" fill="#112c41"/><ellipse cx="48.934" cy="145.549" fill="#ffe993" rx="41.853" ry="41.945"/><path d="m48.935 188.494c-23.629 0-42.853-19.265-42.853-42.945s19.224-42.945 42.853-42.945 42.853 19.265 42.853 42.945-19.224 42.945-42.853 42.945zm0-83.89c-22.526 0-40.853 18.368-40.853 40.945s18.326 40.945 40.853 40.945 40.853-18.368 40.853-40.945-18.327-40.945-40.853-40.945z" fill="#112c41"/><ellipse cx="48.934" cy="145.549" fill="#ffe993" rx="32.474" ry="32.403" transform="matrix(.8892 -.4575 .4575 .8892 -61.1651 38.5109)"/><g fill="#112c41"><path d="m48.932 178.962c-12.135 0-23.851-6.606-29.764-18.1-4.081-7.934-4.822-16.986-2.087-25.489 2.736-8.502 8.621-15.437 16.572-19.527 7.95-4.09 17.014-4.846 25.522-2.129 8.509 2.717 15.442 8.583 19.524 16.518s4.823 16.986 2.087 25.489c-2.736 8.501-8.621 15.437-16.572 19.527-4.893 2.518-10.126 3.711-15.282 3.711zm.026-64.846c-4.948 0-9.861 1.179-14.391 3.509-7.476 3.846-13.01 10.367-15.582 18.361-2.572 7.993-1.876 16.503 1.962 23.961 7.922 15.398 26.922 21.465 42.354 13.525 7.476-3.846 13.01-10.367 15.582-18.361s1.876-16.503-1.962-23.961c-3.837-7.458-10.354-12.973-18.354-15.527-3.154-1.008-6.389-1.507-9.609-1.507zm14.8 60.246h.01z"/><path d="m25.63 140.311h35.624v2h-35.624z" transform="matrix(.7071 -.7071 .7071 .7071 -87.1982 72.1073)"/><path d="m56.943 151.811c-.005 0-.009 0-.014 0-2.634-.003-5.11-1.032-6.974-2.896l-6.686-6.687c-.391-.391-.391-1.024 0-1.414.391-.391 1.023-.391 1.414 0l6.686 6.687c1.487 1.487 3.462 2.308 5.562 2.311h.011c2.095 0 4.062-.814 5.542-2.293 1.476-1.475 2.317-3.52 2.31-5.609-.008-2.091-.865-4.134-2.353-5.606l-9.63-9.535c-.393-.388-.396-1.021-.008-1.414.39-.392 1.022-.396 1.414-.007l9.63 9.535c1.863 1.843 2.937 4.402 2.946 7.02.01 2.619-1.046 5.182-2.896 7.031-1.855 1.855-4.325 2.877-6.954 2.877z"/><path d="m45.077 165.837c-2.33 0-4.468-.863-6.062-2.458l-11.464-11.466c-.391-.391-.391-1.024 0-1.414.391-.391 1.023-.391 1.414 0l11.464 11.466c1.292 1.292 3.056 1.953 5.003 1.863 1.969-.093 3.861-.952 5.327-2.417 3.221-3.22 3.486-8.195.593-11.089l-6.651-6.652c-.391-.391-.391-1.024 0-1.414.391-.391 1.023-.391 1.414 0l6.651 6.652c3.674 3.674 3.407 9.918-.593 13.917-1.819 1.819-4.18 2.885-6.647 3.001-.15.008-.299.011-.449.011z"/><path d="m58.482 131.386c-.256 0-.512-.098-.707-.293-.391-.391-.391-1.024 0-1.414l4.265-4.264c.391-.391 1.023-.391 1.414 0s.391 1.024 0 1.414l-4.265 4.264c-.196.196-.451.293-.707.293z"/><path d="m63.433 136.338c-.256 0-.512-.098-.707-.293-.391-.391-.391-1.024 0-1.414l4.265-4.264c.391-.391 1.023-.391 1.414 0s.391 1.024 0 1.414l-4.265 4.264c-.195.196-.451.293-.707.293z"/><path d="m28.499 161.363c-.256 0-.512-.098-.707-.293-.391-.391-.391-1.024 0-1.414l4.388-4.386c.391-.391 1.023-.391 1.414 0s.391 1.024 0 1.414l-4.388 4.386c-.195.195-.451.293-.707.293z"/><path d="m33.45 166.315c-.256 0-.512-.098-.707-.293-.391-.391-.391-1.024 0-1.414l4.388-4.386c.391-.391 1.023-.391 1.414 0s.391 1.024 0 1.414l-4.388 4.386c-.195.195-.451.293-.707.293z"/></g><ellipse cx="206.79" cy="51.487" fill="#ffd169" rx="50.532" ry="48.273" transform="matrix(.9214 -.3886 .3886 .9214 -3.7554 84.4067)"/><path d="m205.22 101.107c-19.668 0-38.092-11.052-45.912-29.594-5.118-12.135-4.984-25.626.376-37.989 5.354-12.347 15.283-22.091 27.958-27.437 26.184-11.042 56.073.341 66.631 25.375s-2.153 54.384-28.335 65.426c-6.79 2.863-13.831 4.219-20.718 4.219zm3.144-97.24c-6.63 0-13.405 1.305-19.944 4.062-12.199 5.145-21.752 14.517-26.9 26.39-5.141 11.857-5.271 24.79-.367 36.417 10.128 24.018 38.845 34.922 64.009 24.309 25.166-10.614 37.398-38.789 27.269-62.806-7.499-17.778-25.181-28.372-44.067-28.372z" fill="#112c41"/><ellipse cx="211.632" cy="49.174" fill="#ffe993" rx="48.068" ry="48.174"/><path d="m211.632 98.348c-27.057 0-49.068-22.059-49.068-49.174s22.011-49.174 49.068-49.174 49.068 22.06 49.068 49.174-22.011 49.174-49.068 49.174zm0-96.348c-25.953 0-47.068 21.162-47.068 47.174s21.115 47.174 47.068 47.174 47.068-21.162 47.068-47.174-21.115-47.174-47.068-47.174z" fill="#112c41"/><ellipse cx="211.632" cy="49.174" fill="#ffe993" rx="37.215" ry="37.297" transform="matrix(.9998 -.02 .02 .9998 -.9424 4.2486)"/><path d="m211.615 87.471c-9.917 0-19.285-3.776-26.458-10.682-7.361-7.087-11.527-16.623-11.732-26.85s3.576-19.921 10.647-27.298 16.587-11.552 26.792-11.757c10.241-.186 19.881 3.586 27.242 10.674 7.361 7.087 11.527 16.623 11.732 26.85.205 10.227-3.576 19.921-10.647 27.298s-16.587 11.552-26.792 11.757c-.261.005-.523.008-.784.008zm.033-74.594c-.248 0-.494.002-.742.008-9.672.193-18.688 4.15-25.39 11.141-6.701 6.992-10.285 16.18-10.091 25.874.193 9.694 4.143 18.731 11.119 25.449s16.169 10.33 25.814 10.115c9.672-.193 18.688-4.15 25.39-11.141 6.701-6.992 10.285-16.18 10.091-25.874-.193-9.693-4.143-18.731-11.119-25.449-6.797-6.544-15.676-10.123-25.072-10.123z" fill="#112c41"/><path d="m203.488 32.243h2.001v40.915h-2.001z" fill="#112c41" transform="matrix(.946 -.3242 .3242 .946 -6.0408 69.1407)"/><path d="m204.974 53.254c-.416 0-.804-.261-.946-.676-.179-.522.1-1.091.622-1.27l10.273-3.521c2.322-.796 4.196-2.446 5.276-4.646s1.238-4.686.444-7c-.788-2.304-2.5-4.235-4.695-5.3-2.196-1.064-4.778-1.214-7.085-.41l-14.698 5.121c-.524.184-1.093-.094-1.273-.615-.182-.521.094-1.092.615-1.273l14.698-5.121c2.805-.977 5.946-.796 8.616.499 2.672 1.295 4.755 3.647 5.715 6.452.967 2.82.774 5.85-.541 8.53-1.315 2.679-3.597 4.688-6.424 5.656l-10.273 3.52c-.107.037-.217.054-.324.054z" fill="#112c41"/><path d="m207.031 74.359c-.416 0-.804-.261-.946-.676-.179-.522.1-1.091.622-1.27l17.615-6.037c2.026-.695 3.637-2.222 4.536-4.302.913-2.112.983-4.536.199-6.824-1.723-5.026-6.807-7.851-11.329-6.302l-10.22 3.502c-.523.181-1.092-.1-1.271-.622s.1-1.091.622-1.27l10.22-3.502c5.563-1.907 11.788 1.476 13.87 7.545.946 2.76.855 5.695-.256 8.266-1.125 2.603-3.158 4.521-5.724 5.4l-17.615 6.037c-.106.038-.215.055-.323.055z" fill="#112c41"/><path d="m200.811 32.67c-.416 0-.804-.261-.946-.676l-2.245-6.552c-.179-.522.1-1.091.622-1.27.521-.181 1.09.1 1.271.622l2.245 6.552c.179.522-.1 1.091-.622 1.27-.108.037-.218.054-.325.054z" fill="#112c41"/><path d="m208.419 30.063c-.416 0-.804-.261-.946-.676l-2.245-6.552c-.179-.522.1-1.091.622-1.27.522-.182 1.091.1 1.271.622l2.245 6.552c.179.522-.1 1.091-.622 1.27-.108.036-.217.054-.325.054z" fill="#112c41"/><path d="m216.597 78.734c-.416 0-.804-.261-.946-.676l-2.31-6.74c-.179-.522.1-1.091.622-1.27.522-.182 1.091.099 1.271.622l2.31 6.74c.179.522-.1 1.091-.622 1.27-.108.037-.218.054-.325.054z" fill="#112c41"/><path d="m224.205 76.127c-.416 0-.804-.261-.946-.676l-2.31-6.74c-.179-.522.1-1.091.622-1.27.522-.18 1.091.099 1.271.622l2.31 6.74c.179.522-.1 1.091-.622 1.27-.108.036-.217.054-.325.054z" fill="#112c41"/><ellipse cx="408.17" cy="121.335" fill="#ffd169" rx="60.015" ry="57.331" transform="matrix(.9214 -.3886 .3886 .9214 -15.071 168.1541)"/><path d="m406.236 180.111c-7.395 0-14.755-1.33-21.769-3.997-14.91-5.67-26.458-16.704-32.517-31.068-6.058-14.364-5.899-30.335.447-44.971 6.339-14.62 18.096-26.157 33.104-32.487 30.996-13.074 66.388.399 78.888 30.036 6.058 14.364 5.899 30.335-.447 44.971-6.339 14.62-18.096 26.157-33.104 32.487-7.941 3.349-16.294 5.029-24.602 5.029zm3.803-115.519c-7.897 0-15.972 1.555-23.76 4.839-14.532 6.129-25.914 17.294-32.047 31.44-6.127 14.129-6.283 29.541-.438 43.397 5.844 13.856 16.989 24.502 31.384 29.976 14.412 5.481 30.353 5.123 44.883-1.006 14.532-6.129 25.914-17.294 32.047-31.44 6.127-14.129 6.283-29.541.438-43.397-8.934-21.185-30.003-33.809-52.507-33.809z" fill="#112c41"/><ellipse cx="413.921" cy="118.588" fill="#ffe993" rx="57.088" ry="57.214"/><path d="m413.921 176.802c-32.029 0-58.088-26.115-58.088-58.214s26.059-58.214 58.088-58.214 58.088 26.115 58.088 58.214-26.059 58.214-58.088 58.214zm0-114.428c-30.927 0-56.088 25.217-56.088 56.214s25.161 56.214 56.088 56.214 56.088-25.217 56.088-56.214-25.161-56.214-56.088-56.214z" fill="#112c41"/><ellipse cx="413.921" cy="118.588" fill="#ffe993" rx="44.198" ry="44.296" transform="matrix(.8892 -.4575 .4575 .8892 -8.397 202.4994)"/><path d="m414.049 163.886c-4.655 0-9.333-.729-13.896-2.196-11.505-3.702-20.889-11.666-26.424-22.424-11.426-22.209-2.691-49.554 19.47-60.955 22.16-11.4 49.487-2.609 60.913 19.601 11.426 22.209 2.691 49.553-19.47 60.955-6.478 3.331-13.508 5.019-20.593 5.019zm-.279-88.568c-6.637 0-13.362 1.533-19.656 4.771-21.18 10.897-29.526 37.033-18.604 58.262 5.29 10.284 14.26 17.896 25.257 21.436 10.995 3.539 22.702 2.58 32.963-2.699 21.18-10.897 29.526-37.033 18.604-58.261-7.678-14.922-22.864-23.509-38.564-23.509z" fill="#112c41"/><path d="m407.141 101.783h2v48.593h-2z" fill="#112c41" transform="matrix(.7072 -.707 .707 .7072 30.3717 325.4921)"/><path d="m408.426 126.35c-.256 0-.512-.098-.707-.293-.391-.391-.391-1.024 0-1.414l9.121-9.119c4.328-4.328 4.339-11.36.023-15.676-2.081-2.081-4.96-3.279-7.909-3.257-2.948.011-5.829 1.22-7.905 3.317l-13.006 13.136c-.39.392-1.022.396-1.414.007-.393-.388-.396-1.021-.008-1.414l13.006-13.137c2.447-2.472 5.844-3.897 9.319-3.91h.049c3.459 0 6.84 1.399 9.282 3.843 5.095 5.096 5.085 13.397-.023 18.504l-9.121 9.119c-.195.196-.451.294-.707.294z" fill="#112c41"/><path d="m421.639 147.789c-.256 0-.512-.098-.707-.293-.391-.391-.391-1.024 0-1.414l15.64-15.636c1.837-1.836 2.777-4.357 2.648-7.098-.131-2.777-1.34-5.443-3.404-7.507-2.209-2.209-5.062-3.504-8.034-3.645-2.95-.148-5.639.868-7.606 2.836l-9.074 9.072c-.391.391-1.023.391-1.414 0s-.391-1.024 0-1.414l9.074-9.072c2.372-2.372 5.611-3.582 9.115-3.42 3.471.165 6.792 1.667 9.354 4.229 2.417 2.417 3.833 5.552 3.987 8.827.156 3.311-.991 6.367-3.231 8.606l-15.64 15.636c-.196.195-.452.293-.708.293z" fill="#112c41"/><path d="m393.24 106.565c-.256 0-.512-.098-.707-.293l-5.816-5.817c-.391-.391-.391-1.023 0-1.414s1.023-.391 1.414 0l5.816 5.817c.391.391.391 1.023 0 1.414-.196.195-.452.293-.707.293z" fill="#112c41"/><path d="m399.994 99.811c-.256 0-.512-.098-.707-.293l-5.816-5.817c-.391-.391-.391-1.023 0-1.414s1.023-.391 1.414 0l5.816 5.817c.391.391.391 1.023 0 1.414-.195.195-.451.293-.707.293z" fill="#112c41"/><path d="m434.128 147.462c-.256 0-.512-.098-.707-.293l-5.983-5.984c-.391-.391-.391-1.024 0-1.414.391-.391 1.023-.391 1.414 0l5.983 5.984c.391.391.391 1.024 0 1.414-.195.195-.451.293-.707.293z" fill="#112c41"/><path d="m440.883 140.708c-.256 0-.512-.098-.707-.293l-5.983-5.984c-.391-.391-.391-1.024 0-1.414.391-.391 1.023-.391 1.414 0l5.983 5.984c.391.391.391 1.024 0 1.414-.195.196-.451.293-.707.293z" fill="#112c41"/><ellipse cx="550.552" cy="349.253" fill="#ffd169" rx="77.795" ry="74.317" transform="matrix(.9214 -.3886 .3886 .9214 -92.4507 241.3978)"/><path d="m548.133 425.104c-30.07 0-58.231-16.891-70.185-45.23-16.138-38.267 3.302-83.134 43.335-100.018 19.383-8.176 40.652-8.65 59.889-1.334 19.251 7.321 34.16 21.566 41.982 40.111 7.821 18.545 7.616 39.165-.578 58.061-8.187 18.88-23.371 33.781-42.756 41.957-10.384 4.379-21.155 6.453-31.687 6.453zm4.927-149.744c-10.469 0-20.99 2.117-30.999 6.338-39.017 16.455-57.979 60.147-42.269 97.397s60.237 54.164 99.251 37.711c18.908-7.975 33.717-22.503 41.698-40.909 7.975-18.391 8.177-38.452.569-56.488-7.606-18.037-22.114-31.894-40.85-39.019-8.824-3.355-18.092-5.03-27.4-5.03z" fill="#112c41"/><ellipse cx="558.006" cy="345.692" fill="#ffe993" rx="74.001" ry="74.165"/><path d="m558.006 420.856c-41.355 0-75.001-33.719-75.001-75.165s33.646-75.165 75.001-75.165 75.001 33.719 75.001 75.165-33.645 75.165-75.001 75.165zm0-148.329c-40.253 0-73.001 32.821-73.001 73.165s32.748 73.165 73.001 73.165 73.001-32.821 73.001-73.165-32.748-73.165-73.001-73.165z" fill="#112c41"/><ellipse cx="558.006" cy="345.692" fill="#ffe993" rx="57.419" ry="57.292" transform="matrix(.8892 -.4575 .4575 .8892 -96.3313 293.575)"/><path d="m557.968 404.04c-5.978 0-11.981-.927-17.836-2.797-14.849-4.742-26.949-14.979-34.073-28.825-7.123-13.846-8.416-29.643-3.642-44.481s15.046-26.94 28.922-34.079c13.876-7.138 29.693-8.458 44.541-3.716 14.849 4.743 26.949 14.979 34.073 28.826 7.123 13.846 8.416 29.643 3.642 44.481-4.774 14.837-15.046 26.94-28.922 34.079-8.404 4.323-17.522 6.512-26.705 6.512zm.078-114.695c-8.869 0-17.675 2.114-25.793 6.291-13.4 6.895-23.32 18.583-27.932 32.914-4.611 14.329-3.362 29.583 3.517 42.954 6.878 13.37 18.563 23.255 32.902 27.835 14.34 4.58 29.616 3.305 43.019-3.589 13.4-6.895 23.32-18.583 27.932-32.913 4.611-14.329 3.362-29.583-3.517-42.954-6.878-13.37-18.563-23.256-32.902-27.835-5.654-1.807-11.453-2.703-17.226-2.703z" fill="#112c41"/><path d="m516.8 337.2h62.989v2h-62.989z" fill="#112c41" transform="matrix(.7071 -.7071 .7071 .7071 -78.5512 486.7596)"/><path d="m572.165 355.988c-4.274 0-8.553-1.63-11.811-4.888l-11.82-11.824c-.391-.391-.391-1.024 0-1.414.391-.391 1.023-.391 1.414 0l11.82 11.824c5.725 5.726 15.029 5.739 20.739.03 2.753-2.751 4.323-6.565 4.309-10.464-.015-3.899-1.614-7.71-4.388-10.457l-17.027-16.858c-.393-.388-.396-1.021-.008-1.414.39-.392 1.022-.396 1.414-.007l17.027 16.858c3.149 3.117 4.965 7.444 4.981 11.87.017 4.428-1.768 8.76-4.895 11.886-3.238 3.239-7.494 4.858-11.755 4.858z" fill="#112c41"/><path d="m551.2 380.788c-3.773 0-7.437-1.358-10.189-4.112l-20.269-20.273c-.391-.391-.391-1.024 0-1.414.391-.391 1.023-.391 1.414 0l20.269 20.273c5.062 5.064 13.744 4.625 19.353-.979 5.994-5.994 6.464-15.277 1.047-20.694l-11.76-11.762c-.391-.391-.391-1.024 0-1.414.391-.391 1.023-.391 1.414 0l11.76 11.762c6.196 6.197 5.727 16.749-1.047 23.522-3.378 3.377-7.755 5.091-11.992 5.091z" fill="#112c41"/><path d="m574.888 319.882c-.256 0-.512-.098-.707-.293-.391-.391-.391-1.024 0-1.414l7.54-7.539c.391-.391 1.023-.391 1.414 0s.391 1.024 0 1.414l-7.54 7.539c-.195.196-.451.293-.707.293z" fill="#112c41"/><path d="m583.642 328.639c-.256 0-.512-.098-.707-.293-.391-.391-.391-1.024 0-1.414l7.54-7.539c.391-.391 1.023-.391 1.414 0s.391 1.024 0 1.414l-7.54 7.539c-.195.195-.451.293-.707.293z" fill="#112c41"/><path d="m521.874 372.885c-.256 0-.512-.098-.707-.293-.391-.391-.391-1.023 0-1.414l7.757-7.756c.391-.391 1.023-.391 1.414 0s.391 1.023 0 1.414l-7.757 7.756c-.195.196-.451.293-.707.293z" fill="#112c41"/><path d="m530.628 381.642c-.256 0-.512-.098-.707-.293-.391-.391-.391-1.024 0-1.414l7.758-7.756c.391-.391 1.023-.391 1.414 0s.391 1.024 0 1.414l-7.758 7.756c-.195.195-.451.293-.707.293z" fill="#112c41"/></svg>