<svg xmlns="http://www.w3.org/2000/svg" viewBox="0 0 1800 1800" width="1800" height="1800"><g transform="translate(493.0 1260.0) rotate(0.0 207.0 22.0) scale(1.0507614213197969 1.0476190476190477)"><svg width="394" height="42" viewBox="0 0 394 42"><ellipse cx="197" cy="21" fill="#cbc8ff" rx="197" ry="21"/></svg></g><g transform="translate(571.0 956.0) rotate(0.0 436.0 198.5) scale(0.9998406217357554 0.9993530636338692)"><svg width="872.139" height="397.257" viewBox="0 0 872.139 397.257"><path d="M758.429 342.575v.041h-.01c-.29.01-.58.01-.87.02-7.75.179-23.5.449-38.89.79-16.14.34-31.87.76-37.54 1.21 0 0-.01-.25-.04-.73-.08-1.851-.32-7.16-.73-14.831-1.49-28.169-5.19-88.139-11.2-125.52 8.4.48 23.52.321 38.18-.029 18.47-.431 36.2-1.14 38.82-1.221.41-.01.76-.02 1.02-.02 1.23-.02 1.89-.029 1.89-.029s.01.15.03.4l8.29 124.22.96 14.34z" fill="#ffd6c0"/><path d="m672.206 329.308 85.329-2.436c2.832 3.753 8.4 10.97 9.858 13.777-34.05 2.359-91.13 3.343-91.13 3.343z" fill="#f5b9ab"/><path d="M826.534 135.118c17.775 47.971 18.218 112.389 9.734 166.731a384.878 384.878 0 0 1-9.487 44.3s-42.652-2.964-68.356-3.531l-.725-11.339s-8.538-128.681-8.645-129.02c4.883-10.059 30.038-55.859 77.479-67.141z" fill="#b2b0f7"/><path d="M826.782 347.143h-.07c-.427-.03-42.923-2.968-68.31-3.528a1 1 0 0 1-.975-.936l-.726-11.339c-.084-1.266-8.4-126.583-8.635-128.941a.986.986 0 0 1 .089-.58c4.5-9.266 29.414-56.078 78.147-67.672a1 1 0 0 1 1.169.625c15.813 42.675 19.471 105.192 9.786 167.234a384.847 384.847 0 0 1-9.513 44.41 1 1 0 0 1-.962.727zm-67.418-5.508c23.546.561 60.72 3.049 66.673 3.455a383.946 383.946 0 0 0 9.243-43.39c9.573-61.316 6.063-123.047-9.378-165.394-47.716 11.853-72.641 59.654-75.839 66.169.214 2.638 1.375 19.314 8.634 128.738z" fill="#360815"/><path d="M826.781 346.144s-42.652-2.964-68.356-3.531l1.633-14.048c22.345-2.386 57.313-5.583 74.673-16.521.182-.115-4.164 20.63-7.95 34.1z" fill="#9797f7"/><path d="M761.4 343.3a2.418 2.418 0 0 1-.292-.017 2.5 2.5 0 0 1-2.194-2.772c2.121-18.241 12.461-35.779 29.116-49.384 15.466-12.634 34.313-20.2 51.707-20.77a2.53 2.53 0 0 1 2.58 2.418 2.5 2.5 0 0 1-2.418 2.58c-32.4 1.053-71.792 29.388-76.018 65.734a2.5 2.5 0 0 1-2.481 2.211z" fill="#fff"/><path d="M826.782 347.143h-.07c-.427-.03-42.923-2.968-68.31-3.528a1 1 0 0 1-.975-.936l-.726-11.339c-.084-1.266-8.4-126.583-8.635-128.941a.986.986 0 0 1 .089-.58c4.5-9.266 29.414-56.078 78.147-67.672a1 1 0 0 1 1.169.625c15.813 42.675 19.471 105.192 9.786 167.234a384.847 384.847 0 0 1-9.513 44.41 1 1 0 0 1-.962.727zm-67.418-5.508c23.546.561 60.72 3.049 66.673 3.455a383.946 383.946 0 0 0 9.243-43.39c9.573-61.316 6.063-123.047-9.378-165.394-47.716 11.853-72.641 59.654-75.839 66.169.214 2.638 1.375 19.314 8.634 128.738z" fill="#112c41"/><path d="M849.367 131.282a4.93 4.93 0 0 1 4.176 1.821c20.727 24.932 24.511 147.955 3.966 207.84-1.76 5.13-4.732 6.257-8.047 6.5l-22.681-1.3c16.762-59.7 22.705-149.073-.247-211.026 7.751-2.03 15.624-3.598 22.833-3.835z" fill="#fff"/><path d="M849.462 348.446h-.058l-22.68-1.3a1 1 0 0 1-.906-1.268c16.141-57.485 22.956-147.849-.222-210.407a1 1 0 0 1 .683-1.316c9.136-2.393 16.677-3.658 23.055-3.867a5.934 5.934 0 0 1 4.978 2.181c9.87 11.871 16.648 46.9 17.691 91.428 1.069 45.653-4 89.532-13.548 117.375-2.021 5.89-5.642 6.933-8.919 7.176-.024-.003-.05-.002-.074-.002zm-21.385-3.229 21.376 1.227c3.156-.247 5.572-1.345 7.11-5.825 21.209-61.82 15.845-183.26-3.788-206.876a3.941 3.941 0 0 0-3.375-1.462 102.173 102.173 0 0 0-21.547 3.528c22.716 62.498 16.12 151.891.224 209.408zm-146.958.419a1 1 0 0 1-1-.961c0-.007-.01-.249-.039-.707-.064-1.482-.3-6.87-.73-14.839-1.324-25.015-5.063-87.31-11.189-125.414a1 1 0 0 1 .245-.829.987.987 0 0 1 .8-.329c7.1.405 20.278.4 38.1-.032 14.736-.343 28.756-.854 35.493-1.1 1.644-.06 2.79-.1 3.32-.118l.276-.007c.3-.007.567-.014.774-.014l1.876-.029a1 1 0 0 1 1.015 1l.026.321 9.342 139.932v.106a1 1 0 0 1-1 1l-.848.02c-3.555.083-8.773.184-14.864.3-7.228.141-15.686.305-24.036.49-20.121.423-32.732.829-37.484 1.207a.935.935 0 0 1-.077.003zm-10.788-141.018c6.027 38.3 9.706 99.622 11.018 124.4.4 7.511.637 12.736.717 14.542 5.428-.358 17.714-.741 36.572-1.138 8.352-.185 16.811-.349 24.041-.489 6-.116 11.147-.215 14.686-.3l-.984-14.7-8.253-123.663-.943.015c-.209 0-.455.006-.74.014l-.272.007c-.521.015-1.662.057-3.3.117-6.741.246-20.77.759-35.519 1.1-17.141.411-29.583.443-37.023.095z" fill="#112c41"/><path d="M760.269 328.545c-.06.571-.11 1.141-.17 1.7-.4 3.76-.88 7.42-1.45 10.95-.06.43-.13.849-.2 1.27-.01.04-.01.07-.02.109v.01a.038.038 0 0 0-.01.031c-.29.01-.58.01-.87.02-7.75.179-23.5.449-38.89.79.01-.17.01-.351.02-.52.16-4.9.26-9.89.29-14.93.32-44.22-4.47-93.1-11.64-124.45 18.47-.431 36.2-1.14 38.82-1.221.41-.01.76-.02 1.02-.02 1.23-.02 1.89-.029 1.89-.029 10.17 33.701 15.27 85.451 11.21 126.29z" fill="#fff"/><path d="M718.659 344.426a1 1 0 0 1-1-1.058l.008-.22c0-.1.007-.206.013-.306.161-4.981.259-10 .288-14.872.312-43.244-4.247-92-11.615-124.222a1 1 0 0 1 .951-1.223c14.736-.343 28.756-.854 35.493-1.1 1.644-.06 2.79-.1 3.32-.118l.276-.007c.3-.007.567-.014.774-.014l1.876-.029h.015a1 1 0 0 1 .957.711c10.558 34.988 15.184 87.08 11.248 126.677v.007l-.17 1.7c-.411 3.862-.9 7.564-1.457 11-.059.42-.13.848-.2 1.277a2.92 2.92 0 0 1-.025.138.878.878 0 0 1-.026.1 1 1 0 0 1-.929.741l-.874.021c-3.555.083-8.773.183-14.864.3-7.228.141-15.686.305-24.036.49zM708.574 204.5c7.242 32.358 11.705 80.633 11.4 123.486a561.31 561.31 0 0 1-.274 14.42c8.007-.175 16.059-.331 22.983-.465 6.089-.118 11.3-.219 14.846-.3h.047c.03-.187.06-.381.087-.579.553-3.425 1.039-7.09 1.447-10.916l.169-1.693c3.885-39.094-.619-90.424-10.957-125.18l-1.133.018c-.209 0-.455.006-.74.014l-.272.007c-.521.015-1.662.057-3.3.117-6.56.233-20.005.725-34.303 1.071z" fill="#112c41"/><circle cx="777.676" cy="214.01" fill="#ffe993" r="8.5"/><path d="M780.27 212.6c-.589-15.292-9.292-31.429-13.944-35.942a2.832 2.832 0 1 0-3.945 4.065c3.572 3.465 12.037 18.851 12.252 32.979a2.832 2.832 0 0 0 5.664-.083q-.007-.504-.027-1.019z" fill="#fff"/><path d="M777.462 217.5a3.838 3.838 0 0 1-3.829-3.773c-.211-13.853-8.471-28.9-11.948-32.278a3.832 3.832 0 1 1 5.337-5.5c4.786 4.643 13.64 20.851 14.248 36.622q.02.522.027 1.041a3.837 3.837 0 0 1-3.776 3.888zm-13.108-40.634h-.029a1.833 1.833 0 0 0-1.248 3.148c3.656 3.547 12.337 19.284 12.556 33.68a1.837 1.837 0 0 0 1.83 1.806h.028a1.834 1.834 0 0 0 1.806-1.858c0-.331-.014-.665-.025-1-.58-15.023-9.19-30.942-13.643-35.261a1.819 1.819 0 0 0-1.275-.519z" fill="#112c41"/><circle cx="798.036" cy="196.461" fill="#ffe993" r="8.5"/><path d="M800.588 194.979c-1.042-15.269-12.222-32.136-17-36.51a2.833 2.833 0 0 0-3.823 4.181c3.673 3.358 14.593 19.481 15.226 33.6a2.832 2.832 0 0 0 5.659-.25c-.02-.342-.039-.682-.062-1.021z" fill="#fff"/><path d="M797.814 199.954a3.839 3.839 0 0 1-3.827-3.662c-.63-14.058-11.527-29.819-14.9-32.9a3.833 3.833 0 0 1 5.172-5.658c4.49 4.105 16.237 21.191 17.329 37.18.023.347.043.694.058 1.041a3.833 3.833 0 0 1-3.66 4c-.058-.002-.116-.001-.172-.001zm-16.142-41.226a1.832 1.832 0 0 0-1.237 3.185c3.521 3.219 14.893 19.653 15.55 34.289a1.832 1.832 0 1 0 3.661-.161 47.275 47.275 0 0 0-.056-.994c-1.053-15.428-12.36-31.889-16.683-35.839a1.824 1.824 0 0 0-1.235-.48z" fill="#112c41"/><path d="M232.218 65.737a435.473 435.473 0 0 1 46.9 15.9c132.214 52.993 192 106 390.29 121.956 8.71 43.044 11.71 141.044 11.71 141.044-106.273 3.332-222.871-5.725-283-5-83 1-153.915.8-187.957 4.9z" fill="#ffa9dc"/><path d="M631.014 346.368c-49.419 0-98.975-1.862-140.893-3.437-36.8-1.382-68.59-2.581-91.99-2.295-15.695.189-30.959.335-45.623.475-64.069.613-114.676 1.1-142.227 4.417a1 1 0 0 1-1.116-1.072l22.056-278.8a1 1 0 0 1 .422-.739 1.01 1.01 0 0 1 .84-.147 438.552 438.552 0 0 1 47.008 15.936c32.971 13.215 61.282 26.356 88.659 39.065 81.9 38.021 152.639 70.857 301.339 82.823a1 1 0 0 1 .9.8c8.627 42.633 11.7 140.23 11.729 141.211a1 1 0 0 1-.969 1.03c-16.486.517-33.306.733-50.135.733zm-225.627-7.774c22.581 0 51.659 1.092 84.809 2.338 55.873 2.1 125.338 4.71 189.891 2.735-.347-10.4-3.5-98.647-11.51-139.139-148.536-12.046-219.331-44.9-301.269-82.94-27.354-12.7-55.64-25.829-88.561-39.024a438.12 438.12 0 0 0-45.628-15.541L211.255 343.4c27.913-3.2 78.03-3.682 141.234-4.288 14.662-.14 29.924-.286 45.619-.475q3.513-.044 7.279-.043z" fill="#112c41"/><path d="M681.119 344.636c-106.27 3.33-222.87-5.72-283-5-83 1-153.91.8-187.96 4.9l.96-42.9c38.16-1.49 108.93 13.78 189.04 16.77 60.09 2.24 173.74 16.52 280.72 19.46.16 4.31.24 6.77.24 6.77z" fill="#ff90d8"/><path d="M631.014 346.368c-49.419 0-98.975-1.862-140.893-3.437-36.8-1.382-68.59-2.581-91.99-2.295-15.695.189-30.959.335-45.623.475-64.069.613-114.676 1.1-142.227 4.417a1 1 0 0 1-1.116-1.072l22.056-278.8a1 1 0 0 1 .422-.739 1.01 1.01 0 0 1 .84-.147 438.552 438.552 0 0 1 47.008 15.936c32.971 13.215 61.282 26.356 88.659 39.065 81.9 38.021 152.639 70.857 301.339 82.823a1 1 0 0 1 .9.8c8.627 42.633 11.7 140.23 11.729 141.211a1 1 0 0 1-.969 1.03c-16.486.517-33.306.733-50.135.733zm-225.627-7.774c22.581 0 51.659 1.092 84.809 2.338 55.873 2.1 125.338 4.71 189.891 2.735-.347-10.4-3.5-98.647-11.51-139.139-148.536-12.046-219.331-44.9-301.269-82.94-27.354-12.7-55.64-25.829-88.561-39.024a438.12 438.12 0 0 0-45.628-15.541L211.255 343.4c27.913-3.2 78.03-3.682 141.234-4.288 14.662-.14 29.924-.286 45.619-.475q3.513-.044 7.279-.043z" fill="#112c41"/><path d="m685.509 270.466-144.39 25.17c-2.38-11.291-6.87-28.93-11.39-44.96-3.08-10.95-6.17-21.141-8.61-28.04 0 0 96.6-16.071 146-28 2.42 7.26 5.37 18.57 8.19 30.25 4.18 17.34 8.08 35.52 9.57 42.55.07.329.13.629.19.909.07.371.14.69.2.96.04.21.08.391.11.54.01.051.02.1.03.141.07.314.1.48.1.48z" fill="#ffd6c0"/><path d="M758.437 342.521c-46.453 21.432-110.644 26.856-165.479 22.6a385.008 385.008 0 0 1-44.9-6.033s-1.943-37.452-7.943-67.452l17.426-2.573S685.18 270.6 685.51 270.466c10.405 4.092 58.006 25.634 72.927 72.055z" fill="#b2b0f7"/><path d="M582.679 364.376c.07.1-7.1-.791-15.82-2.1-.32-.05-.65-.09-.97-.14-5.46-.831-11.43-1.811-16.56-2.8-.43-.079-.85-.169-1.27-.25 0 0-1.72-34.04-6.92-63.059-.01-.13-.01-.26-.02-.39l14 1c4.09 22 15.27 51.04 27.42 67.54.04.069.09.128.14.199z" fill="#9797f7"/><path d="M622.14 368.919a2.5 2.5 0 0 1-2.483-2.226c-1.759-15.948-10.957-32.28-25.232-44.806-14.832-13.014-32.877-20.206-50.812-20.251a2.5 2.5 0 0 1 .006-5h.006c19.145.048 38.357 7.681 54.1 21.493 15.2 13.34 25.011 30.841 26.906 48.015a2.5 2.5 0 0 1-2.211 2.76 2.6 2.6 0 0 1-.28.015z" fill="#fff"/><path d="m530.9 202.905 23.018 83.654c-3.523 3.114-10.288 9.224-12.973 10.894-4.986-33.766-24.372-89.367-24.372-89.367z" fill="#f5b9ab"/><path d="m540.34 296.787-.2-.945c-2.311-10.963-6.776-28.585-11.374-44.895-3.269-11.623-6.321-21.559-8.59-27.978l-.4-1.124 1.177-.2c.966-.161 97.13-16.2 145.93-27.985l.892-.216.29.871c2.143 6.426 4.907 16.631 8.214 30.332 4.143 17.186 8.078 35.5 9.577 42.577l.19.91c.072.378.139.688.2.949l.14.678c.077.339.109.525.109.525l.174.987-.986.174zm-17.885-73.361c2.258 6.517 5.094 15.805 8.237 26.979 4.48 15.888 8.834 33.027 11.205 44.08l142.423-24.827-.033-.165c-.055-.249-.128-.578-.2-.961l-.187-.889c-1.5-7.069-5.426-25.362-9.562-42.523-3.149-13.039-5.8-22.887-7.881-29.3-46.174 11.072-132.902 25.742-144.002 27.606z" fill="#112c41"/><path d="M627.54 367.465c-11.449 0-23.042-.442-34.658-1.342a418.098 418.098 0 0 1-10.447-.953 382.72 382.72 0 0 1-15.717-1.905l-.983-.141a335.442 335.442 0 0 1-16.6-2.807c-.231-.043-.467-.091-.7-.137l-.564-.112a1 1 0 0 1-.811-.931c-.017-.34-1.778-34.312-6.906-62.935a363.583 363.583 0 0 0-1.016-5.372 1 1 0 0 1 .89-1.19l17.43-1.571c1.205-.176 125.525-18.167 127.834-18.58a1 1 0 0 1 .582.046c9.587 3.767 58.185 24.973 73.517 72.685a1 1 0 0 1-.533 1.213C725.2 358.957 677.8 367.465 627.54 367.465zm-78.524-9.209.5.1a330.825 330.825 0 0 0 16.519 2.793l.981.142c4.957.71 10.219 1.348 15.627 1.894 3.184.334 6.585.644 10.4.948 61.873 4.8 123.15-3.477 164.174-22.141-15.512-46.675-65.092-67.815-71.839-70.5-2.59.412-19.077 2.852-127.681 18.568l-16.377 1.477q.414 2.133.809 4.315c4.712 26.328 6.591 57.141 6.887 62.404z" fill="#112c41"/><path d="M764.027 364.99a4.928 4.928 0 0 1-1.493 4.3c-23.254 22.593-145.616 35.88-206.91 20.027-5.251-1.357-6.6-4.233-7.106-7.519l-.456-22.714c60.817 12.095 150.383 11.108 210.375-16.567 2.624 7.575 4.797 15.303 5.59 22.473z" fill="#fff"/><path d="M623.817 397.281c-26.6 0-50.589-2.374-68.443-6.992-6.029-1.558-7.349-5.089-7.845-8.336a1.177 1.177 0 0 1-.011-.131l-.455-22.714a1 1 0 0 1 .357-.787.981.981 0 0 1 .838-.214c58.56 11.647 149.181 11.453 209.761-16.494a1 1 0 0 1 1.364.581c3.092 8.921 4.935 16.342 5.639 22.686a5.917 5.917 0 0 1-1.79 5.131c-11.073 10.758-45.477 20.226-89.788 24.709-16.97 1.716-33.764 2.561-49.627 2.561zm-74.3-15.566c.49 3.127 1.772 5.452 6.358 6.638 63.274 16.364 183.936 1.626 205.963-19.776a3.948 3.948 0 0 0 1.2-3.477 102.116 102.116 0 0 0-5.183-21.21c-60.556 27.482-150.189 27.817-208.763 16.418z" fill="#112c41"/><path d="M685.509 270.466c-36.72 14.26-101.63 28.93-144.39 25.17-2.38-11.291-6.87-28.93-11.39-44.96 31.77.08 111.62-15.1 145.58-25.79 4.18 17.34 8.08 35.52 9.57 42.55.07.329.13.629.19.909.08.361.14.681.2.96.04.21.08.391.11.54.01.051.02.1.03.141.07.314.1.48.1.48z" fill="#fff"/><path d="M555.256 297.212c-4.988 0-9.751-.187-14.225-.58a1 1 0 0 1-.89-.79c-2.311-10.963-6.776-28.585-11.374-44.895a1 1 0 0 1 .963-1.271.831.831 0 0 0 .249 0c31.413 0 110.7-14.94 145.031-25.744a1.013 1.013 0 0 1 .792.083 1 1 0 0 1 .479.636c4.143 17.186 8.078 35.5 9.577 42.577l.19.91c.046.206.086.407.124.593l.188.923a11.298 11.298 0 0 1 .134.636 1 1 0 0 1-.622 1.108c-34.888 13.548-90.148 25.814-130.616 25.814zm-13.313-2.51c40.24 3.313 103.6-9.942 142.415-24.863l-.146-.71c-.036-.176-.074-.364-.119-.567l-.193-.919c-1.466-6.926-5.268-24.629-9.313-41.485C640 236.852 563 251.346 531.048 251.671c4.383 15.629 8.598 32.278 10.895 43.029z" fill="#112c41"/><circle cx="676.002" cy="299.911" fill="#ffe993" r="8.5"/><path d="M677.605 302.389c15.2-1.77 30.616-11.7 34.756-16.683a2.832 2.832 0 0 0-4.361-3.618c-3.179 3.829-17.863 13.459-31.932 14.766a2.832 2.832 0 0 0 .52 5.64c.34-.031.679-.066 1.017-.105z" fill="#fff"/><path d="M676.326 303.507a3.833 3.833 0 0 1-.348-7.649c13.794-1.281 28.161-10.68 31.256-14.409a3.832 3.832 0 1 1 5.9 4.9c-4.26 5.13-19.736 15.212-35.411 17.037-.347.04-.7.077-1.039.108-.122.006-.241.013-.358.013zm33.858-21.442a1.83 1.83 0 0 0-1.411.661c-3.253 3.919-18.272 13.791-32.61 15.124a1.832 1.832 0 1 0 .336 3.648c.33-.029.661-.065.99-.1 14.933-1.738 30.139-11.553 34.1-16.328a1.831 1.831 0 0 0-1.408-3z" fill="#112c41"/><circle cx="695.073" cy="318.853" fill="#ffe993" r="8.5"/><path d="M696.748 321.282c15.143-2.219 31.095-14.67 35.086-19.777a2.833 2.833 0 1 0-4.464-3.488c-3.064 3.921-18.294 16.055-32.319 17.778a2.832 2.832 0 0 0 .687 5.623q.506-.061 1.01-.136z" fill="#fff"/><path d="M695.393 322.439a3.832 3.832 0 0 1-.465-7.635c13.967-1.717 28.839-13.8 31.654-17.4a3.832 3.832 0 1 1 6.039 4.719c-3.746 4.794-19.873 17.827-35.728 20.15-.344.051-.69.1-1.034.139a3.667 3.667 0 0 1-.466.027zm34.212-24.509a1.832 1.832 0 0 0-1.447.7c-2.938 3.759-18.445 16.367-32.985 18.154a1.832 1.832 0 1 0 .444 3.638c.327-.04.658-.084.985-.133 15.3-2.241 30.836-14.789 34.441-19.4a1.83 1.83 0 0 0-1.44-2.96z" fill="#112c41"/><path d="M667.119 194.636c-30.02 7.75-149.055 29.229-154.12 29.98-6.88 1.02-8.98-4.13-9.84-5.68-20.04-36.3-39.04-49.3-59.04-49.3a50.708 50.708 0 0 0-6.63.429c-13.03 1.75-23.15 8.691-33.58 19.03l-.06.061c-5.65 5.589-11.39 12.179-17.73 19.48-8.41 9.669-27.13 33.659-51.7 58.879-.18.181-.36.371-.54.55a511.568 511.568 0 0 1-15.88 15.561c-.01.01-.02.02-.03.02-31.56 29.53-69.9 56.9-107.81 60.89-27.53 3.319-60.04 2.73-91.14-4.82a197.93 197.93 0 0 1-24.66-7.641c-.01-.01-.01 0-.01 0a160.824 160.824 0 0 1-35.69-18.929c-25.85-18.41-46-45.7-54.22-84.831q-1.4-6.613-2.32-13.679a134.171 134.171 0 0 1-1.04-21.93c2.97-85 86.58-166.57 231.14-126.97 33.35-25.441 77.04-49.28 130.9-59.1 192-35 280 101 304 188z" fill="#ffa9dc"/><path d="M177.992 347.448a253.731 253.731 0 0 1-59.209-6.761 199.685 199.685 0 0 1-24.713-7.652l-.08-.026a162.211 162.211 0 0 1-35.911-19.049c-28.613-20.379-46.99-49.125-54.618-85.439a178.09 178.09 0 0 1-2.333-13.756A135.55 135.55 0 0 1 .08 192.672c1.48-42.361 22.261-81.319 57.02-106.885 20.932-15.4 45.838-25.256 74.025-29.3 30.847-4.423 64.789-1.679 100.887 8.151C272.3 33.992 316.351 14.146 362.94 5.652c45.207-8.24 87.448-7.435 125.554 2.39a231.378 231.378 0 0 1 90.262 46.073c59.2 48.931 82.19 114.385 89.327 140.255a1 1 0 0 1-.714 1.234c-30.039 7.755-149.749 29.337-154.223 30-7.064 1.038-9.676-3.927-10.658-5.8a38.839 38.839 0 0 0-.2-.383c-18.375-33.284-36.857-48.785-58.166-48.785a49.89 49.89 0 0 0-6.5.421c-11.427 1.535-21.3 7.142-33.007 18.749-5.8 5.737-11.6 12.415-17.739 19.485-2.058 2.367-4.8 5.677-7.983 9.508-10.032 12.09-25.193 30.361-43.756 49.415l-.551.56a512.954 512.954 0 0 1-15.9 15.581.917.917 0 0 1-.082.07c-39.731 37.163-76.179 57.72-108.337 61.1a270.347 270.347 0 0 1-32.275 1.923zm-83.253-16.3a197.867 197.867 0 0 0 24.515 7.594c27.947 6.783 60.189 8.489 90.785 4.8 31.744-3.341 67.822-23.738 107.247-60.628a1.115 1.115 0 0 1 .086-.071 513.465 513.465 0 0 0 15.792-15.478l.548-.558c18.5-18.987 33.628-37.22 43.64-49.287 3.187-3.84 5.939-7.158 8.012-9.542 5.9-6.787 11.991-13.805 17.783-19.535 12.1-12 22.314-17.772 34.21-19.37a52.009 52.009 0 0 1 6.762-.438c22.114 0 41.153 15.829 59.915 49.816.068.12.143.263.226.423.951 1.815 2.924 5.585 8.593 4.751 4.422-.655 121.5-21.76 153.029-29.707-7.39-26.328-30.374-90.3-88.4-138.263a229.4 229.4 0 0 0-89.488-45.676C450.174.224 408.22-.568 363.3 7.619c-46.428 8.466-90.325 28.286-130.473 58.911a.991.991 0 0 1-.871.17c-36.011-9.866-69.846-12.637-100.551-8.23-27.859 3.994-52.462 13.73-73.126 28.93C24.022 112.6 3.537 151 2.078 192.741a133.677 133.677 0 0 0 1.032 21.766 176.134 176.134 0 0 0 2.308 13.6c7.522 35.808 25.63 64.144 53.821 84.222a160.161 160.161 0 0 0 35.392 18.781l.108.04z" fill="#112c41"/><path d="M524.119 222.636c-3 0-15 6-19.62-2.291-23.273-41.759-45.847-54.629-67.01-50.28-17.37 3.571-23.05 9.28-33.58 19.03l-.06.061a173.011 173.011 0 0 0-17.73 19.48 680.164 680.164 0 0 1-51.7 58.879c-.18.181-.36.371-.54.55q-5.205 5.235-10.76 10.571-2.565 2.474-5.12 4.99c-.01.01-.02.02-.03.02-31.56 29.53-69.9 56.9-107.81 60.89-27.53 3.319-60.04 2.73-91.14-4.82 85.1 16.92 137.32-32.415 177.1-77.08 57-64 95-120 146-116 37.1 2.909 62.56 49.85 70.71 70.439 1.46 3.69 7.44 6.311 11.29 5.561z" fill="#ff90d8"/><g fill="#112c41"><path d="M177.992 347.448a253.731 253.731 0 0 1-59.209-6.761 199.685 199.685 0 0 1-24.713-7.652l-.08-.026a162.211 162.211 0 0 1-35.911-19.049c-28.613-20.379-46.99-49.125-54.618-85.439a178.09 178.09 0 0 1-2.333-13.756A135.55 135.55 0 0 1 .08 192.672c1.48-42.361 22.261-81.319 57.02-106.885 20.932-15.4 45.838-25.256 74.025-29.3 30.847-4.423 64.789-1.679 100.887 8.151C272.3 33.992 316.351 14.146 362.94 5.652c45.207-8.24 87.448-7.435 125.554 2.39a231.378 231.378 0 0 1 90.262 46.073c59.2 48.931 82.19 114.385 89.327 140.255a1 1 0 0 1-.714 1.234c-30.039 7.755-149.749 29.337-154.223 30-7.064 1.038-9.676-3.927-10.658-5.8a38.839 38.839 0 0 0-.2-.383c-18.375-33.284-36.857-48.785-58.166-48.785a49.89 49.89 0 0 0-6.5.421c-11.427 1.535-21.3 7.142-33.007 18.749-5.8 5.737-11.6 12.415-17.739 19.485-2.058 2.367-4.8 5.677-7.983 9.508-10.032 12.09-25.193 30.361-43.756 49.415l-.551.56a512.954 512.954 0 0 1-15.9 15.581.917.917 0 0 1-.082.07c-39.731 37.163-76.179 57.72-108.337 61.1a270.347 270.347 0 0 1-32.275 1.923zm-83.253-16.3a197.867 197.867 0 0 0 24.515 7.594c27.947 6.783 60.189 8.489 90.785 4.8 31.744-3.341 67.822-23.738 107.247-60.628a1.115 1.115 0 0 1 .086-.071 513.465 513.465 0 0 0 15.792-15.478l.548-.558c18.5-18.987 33.628-37.22 43.64-49.287 3.187-3.84 5.939-7.158 8.012-9.542 5.9-6.787 11.991-13.805 17.783-19.535 12.1-12 22.314-17.772 34.21-19.37a52.009 52.009 0 0 1 6.762-.438c22.114 0 41.153 15.829 59.915 49.816.068.12.143.263.226.423.951 1.815 2.924 5.585 8.593 4.751 4.422-.655 121.5-21.76 153.029-29.707-7.39-26.328-30.374-90.3-88.4-138.263a229.4 229.4 0 0 0-89.488-45.676C450.174.224 408.22-.568 363.3 7.619c-46.428 8.466-90.325 28.286-130.473 58.911a.991.991 0 0 1-.871.17c-36.011-9.866-69.846-12.637-100.551-8.23-27.859 3.994-52.462 13.73-73.126 28.93C24.022 112.6 3.537 151 2.078 192.741a133.677 133.677 0 0 0 1.032 21.766 176.134 176.134 0 0 0 2.308 13.6c7.522 35.808 25.63 64.144 53.821 84.222a160.161 160.161 0 0 0 35.392 18.781l.108.04z"/><path d="M152.459 151.636a1 1 0 0 1-.855-1.517c.269-.447 27.561-45.174 80.007-85.179a1 1 0 1 1 1.213 1.59c-52.127 39.762-79.24 84.178-79.507 84.622a1 1 0 0 1-.858.484z"/></g></svg></g><g transform="translate(587.0 677.0) rotate(0.0 297.0 214.5) scale(0.999631449011223 0.9981177685902342)"><svg width="594.219" height="429.809" viewBox="0 0 594.219 429.809"><path d="M475.727 145.939a103.945 103.945 0 0 1-7.831 9.87c-22.6 24.78-57.33 81.37-91 107-67 51-123.06 25.22-145.73-30.43a139.459 139.459 0 0 1-5.27-15.57c15 35 65 87 115 24 26.65-33.58 38.621-69.98 57-97 17-25 39.331-38.89 50-30 2.43 2.02 3.3 4.95 3.141 8.32 9.469-10.13 18.839-15.04 25.859-11.32 10.831 5.73 4.704 23.2-1.169 35.13z" fill="#ffd6c0"/><path d="M307.33 291.276a75.027 75.027 0 0 1-19.839-2.628c-25.021-6.834-45.353-26.684-57.25-55.892a140.967 140.967 0 0 1-5.309-15.681 1 1 0 0 1 1.883-.66c13.977 32.611 40.1 50.107 58.45 52.562 19.186 2.569 37.648-7.119 54.848-28.789 15.664-19.738 26.037-40.063 36.069-59.719 6.849-13.42 13.318-26.095 20.887-37.222 12.463-18.328 28.272-31.259 40.273-32.944 4.5-.629 8.258.291 11.194 2.738a9.755 9.755 0 0 1 3.431 6.682c9.782-9.844 18.746-13.321 25.4-9.8 6.224 3.294 11.148 12.292-.741 36.455a1.067 1.067 0 0 1-.082.138 104.565 104.565 0 0 1-7.908 9.966c-7.78 8.531-17.205 21.116-27.183 34.439-19.6 26.169-41.809 55.829-63.949 72.682-24.053 18.309-47.949 27.673-70.174 27.673zm-76.607-62.783q.664 1.778 1.369 3.509c11.659 28.618 31.52 48.05 55.925 54.717 26.871 7.34 57.4-1.2 88.274-24.706 21.918-16.684 44.041-46.225 63.559-72.288 10.008-13.364 19.461-25.987 27.307-34.59a102.154 102.154 0 0 0 7.707-9.709c5.05-10.28 11.919-28.255 1.564-33.733-6.151-3.26-14.91.687-24.661 11.119a1 1 0 0 1-1.729-.73c.156-3.315-.779-5.84-2.781-7.5-2.487-2.072-5.729-2.844-9.637-2.294-11.469 1.61-26.736 14.2-38.9 32.088-7.5 11.023-13.94 23.644-20.759 37.006-10.077 19.744-20.5 40.159-36.285 60.053-17.668 22.261-36.734 32.2-56.678 29.528-12.662-1.694-25.479-8.669-37.065-20.172a111.86 111.86 0 0 1-17.21-22.298z" fill="#112c41"/><path d="M232.9 242.809c-10.57 73.01-70.37 125.21-134.08 115.99S-7.974 282.909 2.6 209.9c6.99-48.36 38.11-87.78 76.1-106.69 19.37-9.65 40.531-13.96 61.2-11.4 1.21.15 2.41.32 3.6.53 61.767 10.029 99.767 78.839 89.4 150.469z" fill="#ffe993"/><path d="M113.338 360.846a102.353 102.353 0 0 1-14.665-1.057c-31.1-4.5-58.329-22.6-76.662-50.976-18.3-28.328-25.551-63.507-20.4-99.057 6.652-46.056 36.021-87.223 76.64-107.442 20.136-10.032 41.492-14.009 61.768-11.5 1.366.169 2.561.345 3.652.537 29.809 4.841 55.542 23.528 72.443 52.618 16.571 28.524 22.883 63.676 17.771 98.98-9.844 68.003-62.285 117.897-120.547 117.897zm14.728-268.761A109.954 109.954 0 0 0 79.142 104.1C39.1 124.035 10.15 164.628 3.586 210.042c-5.077 35.072 2.062 69.764 20.105 97.686 18.015 27.878 44.746 45.664 75.269 50.081 62.8 9.089 122.439-42.564 132.947-115.143 5.047-34.861-1.177-69.554-17.523-97.689-16.594-28.563-41.826-46.906-71.047-51.651a70.63 70.63 0 0 0-3.564-.525 95.4 95.4 0 0 0-11.707-.716z" fill="#112c41"/><path d="M232.9 242.809c-10.57 73.01-70.37 125.21-134.08 115.99C38.026 350-3.974 288.909 1.487 219.9 6.2 278.589 45.2 327.039 98.816 334.8c63.71 9.22 123.51-42.98 134.08-115.99q.825-5.76 1.25-11.49a162.505 162.505 0 0 1-1.246 35.489z" fill="#ffd169"/><path d="M139.9 91.809c34 3 55 16 80 48 11.621 14.87 26.48 52.18 27 75 .15 6.75-1.26 11.58-4 15-21.08 26.34-123.79 46.99-169.53 39.22-9.119-1.55-15.98-4.23-19.47-8.22-7.75-8.86-10.859-53.93 3.03-97.99.311-1 .64-2.01.97-3.01" fill="#ffe993"/><path d="M96.617 271.7a142.77 142.77 0 0 1-23.418-1.68c-9.8-1.666-16.552-4.542-20.056-8.548-8.4-9.6-10.906-55.376 2.829-98.949.311-1 .643-2.016.975-3.022a1 1 0 1 1 1.9.627c-.328.994-.656 2-.963 2.992-13.32 42.252-11.144 87.992-3.233 97.036 3.193 3.65 9.547 6.305 18.885 7.892 21.8 3.7 57.683 1.095 93.63-6.81 37.466-8.239 65.484-20.22 74.952-32.049 2.685-3.35 3.921-8.045 3.78-14.352-.507-22.259-15.153-59.518-26.788-74.407-25.166-32.213-45.918-44.674-79.3-47.62a1 1 0 1 1 .176-1.992c34.022 3 55.139 15.662 80.7 48.38 11.819 15.125 26.7 52.977 27.212 75.593.152 6.8-1.228 11.916-4.22 15.649-9.743 12.173-38.185 24.418-76.083 32.752-25.266 5.551-50.529 8.508-70.978 8.508z" fill="#112c41"/><path d="M113.514 360.857q-4.621 0-9.288-.418a105.19 105.19 0 0 1-5.55-.651c-31.1-4.5-58.33-22.6-76.663-50.974C3.707 280.487-3.54 245.308 1.605 209.755a144.425 144.425 0 0 1 50.013-89.889c26.328-22.16 58.555-32.746 88.4-29.049 33.987 3 55.1 15.658 80.665 48.376 11.823 15.133 26.7 52.987 27.212 75.594.154 6.789-1.227 11.907-4.219 15.647a42.385 42.385 0 0 1-9.219 8.164c-.17 1.447-.363 2.909-.573 4.355-9.829 67.927-61.734 117.9-120.37 117.904zM128.186 92.1c-25.907 0-52.767 10.352-75.28 29.3a142.43 142.43 0 0 0-49.322 88.642c-5.076 35.074 2.065 69.766 20.109 97.687 18.016 27.877 44.747 45.662 75.271 50.079a101.461 101.461 0 0 0 14.551 1.049c57.657 0 108.7-49.25 118.392-116.191.228-1.579.436-3.178.617-4.752a1 1 0 0 1 .435-.716 41.054 41.054 0 0 0 9.156-8.013c2.686-3.358 3.924-8.053 3.781-14.353-.5-22.25-15.149-59.51-26.788-74.407-25.166-32.213-45.917-44.674-79.3-47.62a94.653 94.653 0 0 0-11.622-.705z" fill="#112c41"/><path d="M78.037 262.719a41.787 41.787 0 0 1-4.671 6.31c-9.119-1.55-15.98-4.23-19.47-8.22-7.75-8.86-10.859-53.93 3.03-97.99 5.97 11.99.99 61.25 18.48 77.12-2.5 1.2-4.73 2.41-6.69 3.6v.01c-6.429 3.92-9.8 7.72-9.219 11.02s5.049 5.71 12.409 7.2c1.861.38 3.91.7 6.131.95z" fill="#ffd169"/><g fill="#112c41"><path d="M73.367 270.029a1.09 1.09 0 0 1-.169-.014c-9.8-1.666-16.551-4.542-20.055-8.548-8.4-9.6-10.906-55.376 2.829-98.949.311-1 .643-2.016.975-3.022a1 1 0 1 1 1.9.627c-.328.994-.656 2-.963 2.992-13.32 42.252-11.144 87.992-3.233 97.036 3.193 3.65 9.547 6.305 18.885 7.892a1 1 0 0 1-.167 1.986z"/><path d="M231.166 232.379c-12.879 9.07-43.12 19.14-79.16 25.51-33.82 5.98-63.95 7.15-80.1 3.88-7.36-1.49-11.83-3.9-12.409-7.2s2.79-7.1 9.219-11.02v-.01c14.071-8.6 42.761-17.82 76.551-23.79 33.849-5.98 64.009-7.15 80.149-3.87 7.331 1.49 11.77 3.9 12.351 7.19.5 2.82-1.891 6-6.601 9.31z"/><path d="M94.454 264.556a119.125 119.125 0 0 1-22.746-1.807c-8.113-1.642-12.552-4.336-13.2-8.007-.631-3.6 2.465-7.55 9.206-11.751l.478-.3c14.671-8.968 44.137-18.134 76.9-23.922 32.846-5.8 63.7-7.283 80.524-3.865 8.069 1.641 12.489 4.331 13.135 8 .562 3.171-1.8 6.638-7.008 10.3-13.377 9.421-44.607 19.5-79.563 25.678-21.128 3.728-41.445 5.674-57.726 5.674zm-24.815-20.407-.4.254c-6.123 3.732-9.232 7.281-8.755 9.993s4.6 4.971 11.622 6.393c16.609 3.362 47.157 1.875 79.729-3.885 34.688-6.131 65.6-16.079 78.758-25.342 4.459-3.134 6.6-6.01 6.19-8.317-.476-2.7-4.583-4.966-11.565-6.385-16.591-3.372-47.161-1.887-79.777 3.875-32.234 5.693-61.195 14.646-75.802 23.414z"/><path d="M231.166 232.379c-12.879 9.07-43.12 19.14-79.16 25.51-29.92 5.29-56.96 6.82-73.969 4.83 4.019-6.81 5.659-15.26-2.631-22.78 15.45-7.5 40.77-15.05 69.861-20.19 33.849-5.98 64.009-7.15 80.149-3.87 7.331 1.49 11.77 3.9 12.351 7.19.5 2.82-1.891 6-6.601 9.31z"/><path d="M94.42 264.551a144.246 144.246 0 0 1-16.5-.839l-1.527-.179.782-1.322c4.927-8.348 4.106-15.592-2.442-21.531l-1.1-.994 1.331-.646c16.23-7.879 41.789-15.269 70.123-20.276 32.846-5.8 63.7-7.283 80.524-3.865 8.069 1.641 12.489 4.331 13.135 8 .562 3.171-1.8 6.638-7.008 10.3-13.377 9.421-44.607 19.5-79.563 25.678-20.975 3.706-41.384 5.674-57.755 5.674zm-14.774-2.663c17.539 1.782 44.342-.06 72.187-4.984 34.688-6.131 65.6-16.079 78.758-25.342 4.459-3.134 6.6-6.01 6.19-8.317-.476-2.7-4.583-4.966-11.565-6.385-16.591-3.372-47.161-1.887-79.777 3.875-27.414 4.844-52.181 11.917-68.3 19.486 5.944 6.07 6.804 13.511 2.507 21.667z"/></g><path d="M451.06 121.4c0 13.286-17.164 34.411-17.164 34.411" fill="#ffd6c0"/><path d="M433.9 156.809a1 1 0 0 1-.775-1.63c.17-.209 16.94-21 16.94-33.78a1 1 0 0 1 2 0c0 13.485-16.677 34.167-17.387 35.041a1 1 0 0 1-.778.369z" fill="#112c41"/><path d="M544.426 240.619q-1.32 2.25-2.689 4.52-1.4 2.325-2.841 4.66c-53.52 86.88-147.359 179.01-260 179.01-72.53 0-120.26-26.44-151.57-59.34-35.49-37.29-49.89-82.88-55.42-107.7a171.239 171.239 0 0 1-3.19-18.22c14.071-8.61 42.761-17.83 76.551-23.8 33.849-5.98 64.009-7.15 80.149-3.87l.48.93a139.459 139.459 0 0 0 5.27 15.57c22.67 55.65 78.73 81.43 145.73 30.43 33.67-25.63 68.4-82.22 91-107a118.536 118.536 0 0 0 10.98-14.5q1.815-2.775 3.56-5.64a190.23 190.23 0 0 0 6.98-12.57c1.72-3.41 3.19-6.63 4.311-9.47 5.129-12.93 13.089-24.43 22.169-23.82 6.851.46 12.16 10.04 12.72 26.3 8.671-17.65 22.43-34.31 33.28-29.3 4.71 2.17 7.341 6.49 8.11 12.69a11 11 0 0 1 3.43-.2 9.835 9.835 0 0 1 1.831.34.292.292 0 0 1 .089.02 3.594 3.594 0 0 1 .54.15c23.36 7.791 9.16 71.5-31.47 140.81z" fill="#ffd6c0"/><path d="M278.9 429.809c-63.387 0-114.626-20.069-152.3-59.651-35.863-37.683-50.272-83.948-55.671-108.172a174.7 174.7 0 0 1-3.2-18.283 1.072 1.072 0 0 1 .468-1.007c14.662-8.972 44.127-18.142 76.9-23.932 32.847-5.8 63.7-7.282 80.524-3.865a1 1 0 0 1 .689.522l.48.93a.942.942 0 0 1 .075.193A139.222 139.222 0 0 0 232.092 232c11.659 28.618 31.52 48.05 55.926 54.717 26.87 7.34 57.4-1.2 88.273-24.706 21.918-16.684 44.041-46.225 63.559-72.288 10.008-13.364 19.461-25.987 27.307-34.59a117.572 117.572 0 0 0 10.884-14.374c1.239-1.9 2.431-3.784 3.541-5.611 1.9-3.134 3.68-6.277 5.3-9.339a204.231 204.231 0 0 0 1.643-3.166c1.733-3.437 3.171-6.6 4.27-9.383 2.956-7.45 10.966-24.477 22.393-24.477q.384 0 .775.027c7.13.478 12.24 9.6 13.432 23.57 4.369-8.232 9.392-15.3 14.344-20.136 6.786-6.629 13.213-8.824 18.575-6.345 4.675 2.154 7.543 6.336 8.536 12.442a11.777 11.777 0 0 1 2.689-.039 10.709 10.709 0 0 1 1.975.366l.034.008a4.668 4.668 0 0 1 .665.183c4.485 1.5 7.761 4.923 9.739 10.186 8.453 22.5-8.269 76.815-40.664 132.078q-1.323 2.254-2.7 4.53-1.395 2.328-2.844 4.668c-21.047 34.166-56.881 83.128-108.073 122.355C382.2 410.587 330.8 429.809 278.9 429.809zM69.783 244.073c.262 2.209 1.105 8.529 3.1 17.479 5.352 24.021 19.637 69.893 55.169 107.227 37.276 39.17 88.028 59.03 150.845 59.03 51.454 0 102.447-19.083 151.563-56.719 50.949-39.042 86.628-87.793 107.586-121.816q1.437-2.334 2.834-4.649 1.364-2.263 2.685-4.512c32.112-54.778 48.773-108.386 40.517-130.363-1.755-4.671-4.615-7.7-8.5-8.992a2.422 2.422 0 0 0-.387-.112 1.287 1.287 0 0 1-.1-.022.959.959 0 0 1-.1-.021 8.755 8.755 0 0 0-1.644-.308 10.011 10.011 0 0 0-3.141.183 1 1 0 0 1-1.2-.855c-.748-6.02-3.213-9.914-7.536-11.906-7.228-3.336-19.908 4.29-31.965 28.833a1 1 0 0 1-1.9-.407c-.515-14.945-5.142-24.89-11.788-25.336a8.897 8.897 0 0 0-.59-.02c-7.137 0-14.787 8.6-20.583 23.211-1.121 2.842-2.584 6.056-4.347 9.551a190.124 190.124 0 0 1-7.017 12.638 202.556 202.556 0 0 1-3.578 5.67 119.632 119.632 0 0 1-11.079 14.626c-7.781 8.532-17.206 21.117-27.184 34.44-19.6 26.169-41.809 55.829-63.949 72.682-31.391 23.895-62.517 32.555-90.011 25.043-25.021-6.835-45.353-26.684-57.25-55.892a140.7 140.7 0 0 1-5.281-15.581l-.211-.409c-16.7-3.251-47-1.74-79.309 3.968-32.132 5.678-61.006 14.594-75.649 23.339z" fill="#112c41"/><path d="M301.9 415.809c58.81 0 111.49-31.11 156.99-67.49-49.79 46.33-111.4 80.49-179.99 80.49-72.53 0-120.26-26.44-151.57-59.34-35.49-37.29-49.89-82.88-55.42-107.7a171.239 171.239 0 0 1-3.19-18.22c5.63-3.44 13.58-6.98 23.271-10.37.469 2.67 1.1 5.9 1.919 9.59 5.53 24.82 20.93 76.41 56.42 113.7 31.306 32.9 79.036 59.34 151.57 59.34z" fill="#f5b9ab"/><path d="M278.9 429.809c-63.387 0-114.626-20.069-152.3-59.651-35.863-37.683-50.272-83.948-55.671-108.172a174.7 174.7 0 0 1-3.2-18.283 1.072 1.072 0 0 1 .468-1.007c14.662-8.972 44.127-18.142 76.9-23.932 32.847-5.8 63.7-7.282 80.524-3.865a1 1 0 0 1 .689.522l.48.93a.942.942 0 0 1 .075.193A139.222 139.222 0 0 0 232.092 232c11.659 28.618 31.52 48.05 55.926 54.717 26.87 7.34 57.4-1.2 88.273-24.706 21.918-16.684 44.041-46.225 63.559-72.288 10.008-13.364 19.461-25.987 27.307-34.59a117.572 117.572 0 0 0 10.884-14.374c1.239-1.9 2.431-3.784 3.541-5.611 1.9-3.134 3.68-6.277 5.3-9.339a204.231 204.231 0 0 0 1.643-3.166c1.733-3.437 3.171-6.6 4.27-9.383 2.956-7.45 10.966-24.477 22.393-24.477q.384 0 .775.027c7.13.478 12.24 9.6 13.432 23.57 4.369-8.232 9.392-15.3 14.344-20.136 6.786-6.629 13.213-8.824 18.575-6.345 4.675 2.154 7.543 6.336 8.536 12.442a11.777 11.777 0 0 1 2.689-.039 10.709 10.709 0 0 1 1.975.366l.034.008a4.668 4.668 0 0 1 .665.183c4.485 1.5 7.761 4.923 9.739 10.186 8.453 22.5-8.269 76.815-40.664 132.078q-1.323 2.254-2.7 4.53-1.395 2.328-2.844 4.668c-21.047 34.166-56.881 83.128-108.073 122.355C382.2 410.587 330.8 429.809 278.9 429.809zM69.783 244.073c.262 2.209 1.105 8.529 3.1 17.479 5.352 24.021 19.637 69.893 55.169 107.227 37.276 39.17 88.028 59.03 150.845 59.03 51.454 0 102.447-19.083 151.563-56.719 50.949-39.042 86.628-87.793 107.586-121.816q1.437-2.334 2.834-4.649 1.364-2.263 2.685-4.512c32.112-54.778 48.773-108.386 40.517-130.363-1.755-4.671-4.615-7.7-8.5-8.992a2.422 2.422 0 0 0-.387-.112 1.287 1.287 0 0 1-.1-.022.959.959 0 0 1-.1-.021 8.755 8.755 0 0 0-1.644-.308 10.011 10.011 0 0 0-3.141.183 1 1 0 0 1-1.2-.855c-.748-6.02-3.213-9.914-7.536-11.906-7.228-3.336-19.908 4.29-31.965 28.833a1 1 0 0 1-1.9-.407c-.515-14.945-5.142-24.89-11.788-25.336a8.897 8.897 0 0 0-.59-.02c-7.137 0-14.787 8.6-20.583 23.211-1.121 2.842-2.584 6.056-4.347 9.551a190.124 190.124 0 0 1-7.017 12.638 202.556 202.556 0 0 1-3.578 5.67 119.632 119.632 0 0 1-11.079 14.626c-7.781 8.532-17.206 21.117-27.184 34.44-19.6 26.169-41.809 55.829-63.949 72.682-31.391 23.895-62.517 32.555-90.011 25.043-25.021-6.835-45.353-26.684-57.25-55.892a140.7 140.7 0 0 1-5.281-15.581l-.211-.409c-16.7-3.251-47-1.74-79.309 3.968-32.132 5.678-61.006 14.594-75.649 23.339z" fill="#112c41"/><path d="M528.621 116.107c-4.725 9.7-8.725 25.7-8.725 25.7" fill="#ffd6c0"/><path d="M519.9 142.809a.968.968 0 0 1-.243-.03 1 1 0 0 1-.728-1.213c.165-.657 4.08-16.212 8.795-25.9a1 1 0 0 1 1.8.876c-4.626 9.5-8.614 25.348-8.654 25.507a1 1 0 0 1-.97.76zm19 6h-.092a1 1 0 0 1-.9-1.086c.951-10.464 15.538-45.743 31.9-49.2a1 1 0 0 1 .414 1.957c-15.222 3.211-29.439 37.62-30.33 47.42a1 1 0 0 1-.992.909z" fill="#112c41"/><path d="m481.386 207.023 16.684 7.777c6.109 2.839 11.3 3.047 15.541 1.378s7.621-5.244 10.021-10.352c1.126-2.427 22.525-48.552 42.562-91.522 9.931-21.3 19.256-41.219 24.917-53.187 2.5-5.379 2.7-10.391 1.052-14.742S586.98 38.309 581.82 35.9l-16.684-7.78c5.16 2.406 8.693 6.119 10.343 10.474s1.447 9.364-1.052 14.742c-5.66 11.968-14.986 31.89-24.917 53.187-20.037 42.97-41.436 89.1-42.562 91.523-2.4 5.107-5.791 8.68-10.021 10.351s-9.427 1.464-15.541-1.374z" fill="#9797f7"/><path d="M507.9 218.234a24.435 24.435 0 0 1-10.25-2.531l-16.684-7.78a.993.993 0 0 1 .838-1.8c5.538 2.573 10.5 3.029 14.757 1.354 3.959-1.564 7.152-4.879 9.487-9.85.9-1.936 22.282-48.03 42.561-91.519 10.771-23.1 19.62-41.989 24.918-53.193 2.3-4.957 2.649-9.658 1.022-13.966-1.608-4.242-5.008-7.674-9.834-9.924a.993.993 0 1 1 .839-1.8l.021.009L582.24 35c5.3 2.473 9.058 6.285 10.852 11.021 1.8 4.76 1.424 10.124-1.08 15.513-5.206 11.006-14.054 29.893-24.918 53.189a57871.627 57871.627 0 0 0-42.561 91.52c-2.56 5.449-6.111 9.1-10.557 10.858a16.459 16.459 0 0 1-6.076 1.133zm-16.805-7.78 7.394 3.448c5.536 2.573 10.5 3.029 14.757 1.354 3.958-1.565 7.15-4.879 9.485-9.85.9-1.937 22.282-48.03 42.562-91.52 10.865-23.3 19.715-42.189 24.919-53.192 2.3-4.958 2.648-9.658 1.02-13.966-1.606-4.242-5.007-7.674-9.833-9.925l-8.041-3.749a18 18 0 0 1 3.049 5.191c1.8 4.759 1.425 10.124-1.08 15.513-5.3 11.206-14.149 30.094-24.917 53.188-20.278 43.488-41.661 89.579-42.562 91.52-2.559 5.45-6.111 9.1-10.557 10.858a17.04 17.04 0 0 1-6.191 1.13z" fill="#112c41"/><path d="M420.126 175.529a22.216 22.216 0 0 0 9.04 7.14c4.28 2.01 11.36 5.31 18.96 8.85 7.78 3.63 16.1 7.51 22.47 10.47 3.18 1.49 5.881 2.74 7.78 3.63s3 1.4 3.01 1.4c6.111 2.84 11.3 3.05 15.54 1.38s7.62-5.24 10.02-10.35c1.13-2.43 22.531-48.55 42.56-91.52 9.94-21.3 19.261-41.22 24.92-53.19 2.5-5.38 2.7-10.39 1.051-14.74s-5.181-8.07-10.341-10.48c-2.56-1.15-5.25-2.39-8.18-3.76-1.16-.54-2.36-1.1-3.59-1.67-9.139-4.3-20-9.46-29.15-13.73l-4.31-2c-2.679-1.23-5.13-2.36-7.25-3.3-5.656-2.53-10.48-3.34-14.57-2.059a14.117 14.117 0 0 0-5.79 3.6 29.139 29.139 0 0 0-5.24 7.47c-7.28 14.08-16.86 34.11-26.789 55.41-15.02 32.2-30.821 67.3-40.651 89.23a24.438 24.438 0 0 0-2.21 8.26 15.23 15.23 0 0 0 2.72 9.959z" fill="#fff"/><path d="M491.221 210.459a24.453 24.453 0 0 1-10.256-2.533v-.008c-.236-.1-.647-.289-1.456-.666l-4.385-2.045c-1.452-.676-3.124-1.454-4.955-2.313-6.368-2.958-14.688-6.839-22.468-10.469-7.6-3.54-14.683-6.84-18.962-8.851a23.094 23.094 0 0 1-9.437-7.474 16.287 16.287 0 0 1-2.9-10.594 25.505 25.505 0 0 1 2.295-8.6c16.088-35.892 29.387-65.084 40.657-89.246 11.322-24.276 20.346-42.931 26.814-55.45a30.007 30.007 0 0 1 5.432-7.724 15.065 15.065 0 0 1 6.19-3.842c4.182-1.308 9.179-.622 15.274 2.1 1.863.827 3.986 1.8 6.294 2.861l5.278 2.445c5.794 2.7 12.271 5.763 18.563 8.735 3.649 1.724 7.237 3.419 10.593 5l3.587 1.668a576.096 576.096 0 0 0 8.168 3.755c5.318 2.484 9.071 6.3 10.865 11.038s1.43 10.117-1.078 15.515c-5.011 10.6-13.394 28.49-24.921 53.192a67462.703 67462.703 0 0 0-41.114 88.4l-1.446 3.115c-2.559 5.449-6.111 9.1-10.559 10.858a16.428 16.428 0 0 1-6.073 1.133zm-9.456-4.365.043.018c5.539 2.575 10.5 3.031 14.752 1.356 3.957-1.562 7.148-4.874 9.481-9.844l1.444-3.11c15.736-33.9 29.57-63.64 41.115-88.407 11.529-24.706 19.913-42.6 24.922-53.195 2.306-4.962 2.65-9.66 1.02-13.958-1.607-4.243-5-7.676-9.828-9.929a582.616 582.616 0 0 1-8.181-3.76l-3.587-1.665c-3.362-1.581-6.95-3.276-10.6-5-6.289-2.97-12.762-6.028-18.55-8.73l-5.27-2.44c-2.3-1.056-4.414-2.027-6.273-2.852-5.631-2.517-10.166-3.177-13.866-2.02A13.125 13.125 0 0 0 493 5.91a28.032 28.032 0 0 0-5.055 7.218c-6.461 12.5-15.469 31.126-26.772 55.374-11.266 24.152-24.561 53.335-40.645 89.216a23.526 23.526 0 0 0-2.124 7.918 14.137 14.137 0 0 0 2.543 9.321 21.141 21.141 0 0 0 8.642 6.805c4.281 2.011 11.36 5.31 18.959 8.849 7.779 3.631 16.1 7.51 22.469 10.47 1.832.859 3.5 1.636 4.953 2.312l4.386 2.045c.815.38 1.303.608 1.409.656z" fill="#112c41"/><path d="m521.666 18.069 25.91 12.14a4.322 4.322 0 0 0 5.6-2.39l2.19-4.13c-9.139-4.3-20-9.46-29.15-13.73l-4.31-2-1.97 4.26a4.331 4.331 0 0 0 1.73 5.85z" fill="#9797f7"/><path d="M549.133 31.546a4.649 4.649 0 0 1-1.978-.437l-25.91-12.141a5.332 5.332 0 0 1-2.208-7.17l1.969-4.256a.991.991 0 0 1 1.319-.484l4.31 2c5.793 2.7 12.27 5.763 18.562 8.735 3.649 1.724 7.237 3.419 10.593 5a.995.995 0 0 1 .455 1.364l-2.19 4.13a5.555 5.555 0 0 1-4.922 3.259zM522.089 17.17 548 29.31a3.348 3.348 0 0 0 4.28-1.915l1.72-3.25c-3.082-1.452-6.342-2.992-9.654-4.556-6.289-2.97-12.762-6.028-18.55-8.73l-3.407-1.58-1.552 3.357a3.355 3.355 0 0 0 1.251 4.534z" fill="#112c41"/><path d="m544.434 81.044-63.406-29.368a2.863 2.863 0 0 0-3.694 1.6l-28.527 61.632a2.841 2.841 0 0 0 1.151 3.834l63.406 29.368a2.849 2.849 0 0 0 3.683-1.6l28.539-61.638a2.84 2.84 0 0 0-1.152-3.828z" fill="#badcee"/><path d="M552.9 68.767a1.039 1.039 0 0 1-.438-.1l-66.33-30.722a1.046 1.046 0 1 1 .879-1.9l66.33 30.723a1.046 1.046 0 0 1-.441 1.995zm-45 96a1.039 1.039 0 0 1-.438-.1l-66.33-30.722a1.046 1.046 0 1 1 .879-1.9l66.33 30.723a1.046 1.046 0 0 1-.441 2z" fill="#afaef8"/><path d="M389.472 179.242c14.171-20.372 43.35-36.245 53.144-29.23 12.28 8.8-13.531 28.517-13.72 43.8" fill="#ffd6c0"/><path d="M428.9 194.809h-.012a1 1 0 0 1-.988-1.012c.083-6.749 4.782-14.062 9.326-21.134 5.97-9.291 11.125-17.315 4.812-21.838-2.032-1.455-5.228-1.858-9.234-1.167-13.49 2.325-32.558 15.853-42.507 30.155a1 1 0 0 1-1.643-1.143c10.386-14.929 29.629-28.539 43.81-30.983 4.614-.794 8.227-.287 10.738 1.512 7.86 5.631 1.957 14.818-4.293 24.545-4.392 6.835-8.933 13.9-9.009 20.077a1 1 0 0 1-1 .988z" fill="#112c41"/><path d="M463.9 218.809c-3.23-22.59 4.66-36.36 9.68-45.96a41.341 41.341 0 0 0 4.31-13.41c.51-3.67 1.46-14.89 4.55-23.77 1.331-3.83 3.061-7.22 5.331-9.39a8.318 8.318 0 0 1 5.129-2.47c18.19-1.52 16.841 37.98 32 40 15 2 28.04-22.27 33.28-32.69 3.361-6.71 11.33-23.51 15.26-31.82a9.835 9.835 0 0 1 1.831.34.292.292 0 0 1 .089.02 3.594 3.594 0 0 1 .54.15c23.36 7.79 9.16 71.5-31.47 140.81q-1.32 2.25-2.689 4.52-1.4 2.325-2.841 4.66" fill="#ffd6c0"/><path d="M538.9 250.8a1 1 0 0 1-.85-1.524q1.437-2.336 2.834-4.65 1.364-2.263 2.685-4.512c32.112-54.778 48.773-108.386 40.517-130.363-1.755-4.671-4.615-7.7-8.5-8.992a2.422 2.422 0 0 0-.387-.112c-.033-.006-.066-.013-.1-.022s-.064-.013-.095-.021a9.347 9.347 0 0 0-.968-.221c-3.613 7.638-11.614 24.5-14.959 31.185-11.141 22.152-22.033 33.358-32.4 33.36a14.242 14.242 0 0 1-1.9-.127c-7.667-1.021-11.347-10.659-14.907-19.98-3.9-10.208-7.937-20.772-16.878-20.014a7.356 7.356 0 0 0-4.52 2.2c-1.942 1.856-3.65 4.882-5.078 9-2.562 7.363-3.639 16.411-4.217 21.272-.112.935-.2 1.718-.287 2.308a42.269 42.269 0 0 1-4.415 13.736l-.636 1.211c-5.06 9.625-11.99 22.806-8.94 44.144a1 1 0 0 1-1.98.283c-3.142-21.979 3.963-35.491 9.15-45.358l.634-1.207A40.3 40.3 0 0 0 476.9 159.3c.08-.578.172-1.348.281-2.268.588-4.936 1.681-14.124 4.315-21.692 1.533-4.415 3.412-7.707 5.583-9.784a9.3 9.3 0 0 1 5.74-2.743c10.434-.879 14.748 10.394 18.911 21.294 3.5 9.177 6.815 17.847 13.3 18.711 10 1.339 20.856-9.483 32.255-32.148 3.434-6.859 11.809-24.522 15.249-31.8a1 1 0 0 1 .986-.569 10.769 10.769 0 0 1 2 .368l.035.008a4.692 4.692 0 0 1 .664.183c4.485 1.5 7.761 4.923 9.739 10.186 8.453 22.5-8.269 76.815-40.664 132.078q-1.323 2.254-2.7 4.53-1.395 2.328-2.844 4.668a1 1 0 0 1-.85.478z" fill="#112c41"/><path d="M463.9 218.809c-3.23-22.59 4.66-36.36 9.68-45.96a41.341 41.341 0 0 0 4.31-13.41c.51-3.67 1.46-14.89 4.55-23.77 1.331-3.83 3.061-7.22 5.331-9.39a8.318 8.318 0 0 1 5.129-2.47c18.19-1.52 16.841 37.98 32 40" fill="#ffd6c0"/><path d="M463.9 219.809a1 1 0 0 1-.989-.858c-3.142-21.979 3.963-35.491 9.15-45.358l.634-1.207A40.3 40.3 0 0 0 476.9 159.3c.08-.578.172-1.348.281-2.268.588-4.936 1.681-14.124 4.315-21.692 1.533-4.415 3.412-7.707 5.583-9.784a9.3 9.3 0 0 1 5.74-2.743c10.434-.879 14.748 10.394 18.911 21.294 3.5 9.177 6.815 17.847 13.3 18.711a1 1 0 1 1-.264 1.982c-7.667-1.021-11.347-10.659-14.907-19.98-3.9-10.208-7.937-20.772-16.878-20.014a7.356 7.356 0 0 0-4.52 2.2c-1.942 1.856-3.65 4.882-5.078 9-2.562 7.363-3.639 16.411-4.217 21.272-.112.935-.2 1.718-.287 2.308a42.269 42.269 0 0 1-4.415 13.736l-.636 1.211c-5.06 9.625-11.99 22.806-8.94 44.144a1 1 0 0 1-.991 1.141zm24.442 110.836q-3.352 0-8.655-2.663c-11.566-5.83-28.952-20.7-45.371-38.8-16.392-18.065-29.486-36.795-34.172-48.881-2.417-6.2-2.5-10.375-.26-12.412 2.025-1.838 5.627-1.607 10.7.69a1 1 0 1 1-.825 1.822c-4.163-1.882-7.194-2.249-8.536-1.031-1.523 1.384-1.247 5.008.781 10.207 4.6 11.873 17.549 30.365 33.788 48.261 16.266 17.934 33.428 32.632 44.79 38.359 4.961 2.495 8.525 3.113 10.038 1.742 1.641-1.493 1.15-5.721-1.349-11.6a1 1 0 1 1 1.84-.782c2.978 7 3.266 11.667.853 13.861a5.2 5.2 0 0 1-3.622 1.227zm-44.688 41.471c-2.105 0-4.712-1.236-7.782-3.7-10.143-8.118-24.283-28.284-36.9-52.629-10.626-20.48-18.466-40.824-20.975-54.419-1.647-8.97-.874-14.349 2.294-15.99 2.628-1.366 6.428.115 11.291 4.4a1 1 0 1 1-1.322 1.5c-4.064-3.577-7.276-5.044-9.048-4.123-2.2 1.14-2.655 6.189-1.248 13.852 2.474 13.411 10.244 33.546 20.784 53.861 12.31 23.748 26.59 44.155 36.378 51.989 3.411 2.734 6.147 3.8 7.7 2.993 1.938-1 2.53-4.973 1.669-11.185a1 1 0 1 1 1.98-.274c1.017 7.322.1 11.776-2.73 13.236a4.5 4.5 0 0 1-2.091.489z" fill="#112c41"/></svg></g><g transform="translate(527.0 442.0) rotate(7.541336456958689 173.0 149.0) scale(0.9958095413519985 0.994185018499181)"><svg width="347.456" height="299.743" viewBox="0 0 347.456 299.743"><circle cx="313.794" cy="133.433" fill="#ffd6c0" r="28.57"/><path d="M321.584 160.92a28.567 28.567 0 0 0 20.071-33.809 28.572 28.572 0 0 1-55.89 4.64q-.2-.739-.37-1.478a28.59 28.59 0 0 0 36.189 30.647z" fill="#f5b9ab"/><path d="M313.817 163a29.653 29.653 0 0 1-15.5-4.365 1 1 0 0 1 1.047-1.705 27.568 27.568 0 1 0-12.594-18.009 1 1 0 0 1-1.959.4 29.678 29.678 0 0 1 20.92-34.335A29.569 29.569 0 1 1 313.817 163z" fill="#112c41"/><path d="M302.546 145.26a1 1 0 0 1-.823-.429 18.122 18.122 0 0 1 4.192-25.247 17.645 17.645 0 0 1 15.229-2.366 1 1 0 0 1-.574 1.916 15.646 15.646 0 0 0-13.513 2.092 16.118 16.118 0 0 0-3.691 22.463 1 1 0 0 1-.82 1.571z" fill="#112c41"/><circle cx="226.446" cy="196.341" fill="#ffd6c0" r="102.5"/><path d="M155.917 122.373c.249-.239.507-.463.758-.7l13.467 4.366c-38.4 37.156-40.885 96.151-4.388 134.091 36.563 38.009 98.4 40.494 137.007 3.356a98.234 98.234 0 0 0 10.412-11.736 102.51 102.51 0 1 1-157.256-129.377z" fill="#f5b9ab"/><path d="M227 299.694a103.45 103.45 0 1 1 71.733-28.86A103.206 103.206 0 0 1 227 299.694zm-73.173-33.084a101.5 101.5 0 1 0 2.783-143.516 101.616 101.616 0 0 0-2.783 143.516z" fill="#112c41"/><ellipse cx="205.228" cy="188.111" fill="#112c41" rx="6.828" ry="9.104" transform="matrix(.72068422 -.69326348 .69326348 .72068422 -73.087 194.819)"/><ellipse cx="181.282" cy="169.093" fill="#112c41" rx="14.13" ry="9.336" transform="matrix(.61176177 -.79104205 .79104205 .61176177 -63.379 209.051)"/><ellipse cx="287.714" cy="168.082" fill="#ffa6e0" rx="12.121" ry="8.009" transform="matrix(.64400347 -.76502257 .76502257 .64400347 -26.161 279.944)"/><ellipse cx="208.206" cy="216.799" fill="#ffa6e0" rx="12.121" ry="8.009" transform="matrix(.95320122 -.30233662 .30233662 .95320122 -55.802 73.094)"/><g fill="#112c41"><ellipse cx="256.241" cy="121.518" rx="13.016" ry="8.6" transform="matrix(.98691207 -.16125933 .16125933 .98691207 -16.242 42.911)"/><path d="M257.99 114.772c4.816 0 8.653 2.09 9.124 4.969.348 2.135-1.207 3.94-2.165 4.825a14.849 14.849 0 0 1-7.643 3.465 17.461 17.461 0 0 1-2.813.232c-4.816 0-8.654-2.09-9.124-4.969-.349-2.135 1.207-3.939 2.165-4.825a14.846 14.846 0 0 1 7.643-3.469 17.566 17.566 0 0 1 2.813-.232m0-2a19.623 19.623 0 0 0-3.135.258c-7.094 1.159-12.225 5.9-11.459 10.587.651 3.983 5.348 6.646 11.1 6.646a19.489 19.489 0 0 0 3.135-.258c7.1-1.159 12.225-5.9 11.459-10.586-.65-3.983-5.348-6.647-11.1-6.647z"/><ellipse cx="263.428" cy="150.022" rx="6.828" ry="9.104" transform="matrix(.92030014 -.39121305 .39121305 .92030014 -37.695 115.014)"/><path d="M228.417 192.649c8.063 9.545 19.732 13.193 27.651 8.089s9.418-17.237 4.056-28.523z"/><path d="M247.916 204.046c-6.836 0-14.4-3.816-20.263-10.752a1 1 0 0 1 .222-1.486l31.707-20.434a1 1 0 0 1 1.445.412c5.68 11.953 3.822 24.483-4.417 29.792a15.868 15.868 0 0 1-8.694 2.468zm-17.986-11.184c7.824 8.674 18.447 11.643 25.6 7.035s8.834-15.507 4.167-26.215z"/></g><path d="M260.9 194.544c-4.822-1.935-11.112-.562-15.747 3.895a17.791 17.791 0 0 0-2.953 3.71c4.947 1.51 9.885 1.158 13.872-1.411a14.684 14.684 0 0 0 5.25-6.014q-.213-.094-.422-.18z" fill="#ffa6e0"/><path d="M247.921 204.04a20.637 20.637 0 0 1-6.017-.934 1 1 0 0 1-.567-1.467 18.67 18.67 0 0 1 3.119-3.92c4.761-4.579 11.52-6.229 16.812-4.1h.005q.229.093.453.193a1 1 0 0 1 .492 1.35 15.6 15.6 0 0 1-5.609 6.417 15.868 15.868 0 0 1-8.688 2.461zm-4.137-2.5a15.024 15.024 0 0 0 11.742-1.646 13.427 13.427 0 0 0 4.383-4.649c-4.482-1.478-10.05.047-14.066 3.912a16.9 16.9 0 0 0-2.059 2.386z" fill="#112c41"/><circle cx="130.328" cy="256.606" fill="#ffd6c0" r="30.5"/><path d="M160.894 255.092a33.246 33.246 0 0 1-2.955 7.019c-8.024 14.817-27 19.952-41.808 11.933-9.718-5.259-14.734-14.706-15.242-24.981-3.528 13.289 1.631 27.416 14.266 34.261a30.493 30.493 0 0 0 41.345-12.291c2.76-5.09 4.671-10.541 4.394-15.941z" fill="#f5b9ab"/><path d="M130.345 288.106c-.209 0-.417 0-.627-.006a31.5 31.5 0 0 1-21.228-54.2 31.618 31.618 0 0 1 42.824-.792 1 1 0 0 1-1.334 1.491 29.606 29.606 0 0 0-40.1.743 29.5 29.5 0 1 0 40.9 42.52 31.456 31.456 0 0 0 9.115-22.753 1 1 0 0 1 2-.043 33.52 33.52 0 0 1-9.728 24.238 31.286 31.286 0 0 1-21.822 8.802z" fill="#112c41"/><path d="M113.915 260.325a1 1 0 0 1-1-.982 18.676 18.676 0 0 1 20.826-19.038 19.639 19.639 0 0 1 13.046 7.109 1 1 0 0 1-1.545 1.272 17.643 17.643 0 0 0-11.721-6.393 16.678 16.678 0 0 0-18.606 17.015 1 1 0 0 1-.983 1.017z" fill="#112c41"/><path d="M116.179 139.982a104.786 104.786 0 0 1 10.347-19.834 108.554 108.554 0 0 1 13.557-16.548c30.324-30.385 73.906-38.744 109.335-24.349a88.937 88.937 0 0 1 26.588 16.739c1.6 1.464.5 3.229-1.195 3.354-17.081 1.261-45.442 10.938-64.12 20.7-12.461 6.512-24.387 15.38-35.909 25.459q-7.269 6.358-13.747 13.111a63.913 63.913 0 0 1-11.53-25.056c-1.708 10.215-.23 22.976 3.071 34.471-13.549 16.058-24.416 33.839-30.892 50.6-.536 1.385-2.243 1.978-3.129.143-11.712-24.237-12.536-52.872-2.376-78.79z" fill="#b2b0f7"/><path d="M121.487 219.133c2.448-6.416 8.485-18.3 12.014-24.739-10.389-21.658-13.911-55.679 4.136-82.793a98.047 98.047 0 0 1 22.6-23.909 109.117 109.117 0 0 0-33.718 32.455c-20.285 30.489-23.019 68.548-7.729 99.108a1.477 1.477 0 0 0 2.697-.122z" fill="#9797f7"/><path d="M120.044 220.918a2.7 2.7 0 0 1-2.39-1.715c-11.791-24.4-12.668-53.406-2.406-79.587a106.068 106.068 0 0 1 10.446-20.022 109.871 109.871 0 0 1 13.681-16.7 106.771 106.771 0 0 1 53.252-29.239 97.235 97.235 0 0 1 57.173 4.67 89.9 89.9 0 0 1 26.886 16.926 2.9 2.9 0 0 1 .963 3.11 3.091 3.091 0 0 1-2.758 1.981c-17.737 1.309-46.332 11.5-63.732 20.588-11.3 5.9-22.981 14.187-35.714 25.324a219.196 219.196 0 0 0-13.684 13.052 1.015 1.015 0 0 1-.784.3 1 1 0 0 1-.739-.4A66.874 66.874 0 0 1 149.9 139.1a88.366 88.366 0 0 0 3.637 28.653 1 1 0 0 1-.2.921c-13.421 15.907-24.333 33.774-30.725 50.312a2.869 2.869 0 0 1-2.474 1.932h-.094zm93.863-147.536a99.744 99.744 0 0 0-20.861 2.229 104.786 104.786 0 0 0-52.255 28.7 108.014 108.014 0 0 0-13.433 16.389 104.115 104.115 0 0 0-10.249 19.646c-10.058 25.663-9.2 54.088 2.346 77.985.086.178.313.586.594.586h.011a.944.944 0 0 0 .691-.655c6.415-16.6 17.314-34.5 30.718-50.473-3.472-12.328-4.548-24.837-2.951-34.4a1 1 0 0 1 .967-.835h.02a1 1 0 0 1 .979.8 62.887 62.887 0 0 0 10.656 23.71 222.508 222.508 0 0 1 12.984-12.317c12.853-11.242 24.663-19.613 36.1-25.592 17.579-9.186 46.516-19.481 64.51-20.808a1.142 1.142 0 0 0 1.017-.641c.129-.373-.159-.738-.423-.979a87.911 87.911 0 0 0-26.289-16.549 93.136 93.136 0 0 0-35.132-6.796z" fill="#112c41"/><circle cx="151.717" cy="281.49" fill="#fff" r="11.5"/><path d="M151.69 293.994a12.5 12.5 0 0 1-12.268-10.256 12.474 12.474 0 1 1 12.268 10.256zm.049-23.007a10.671 10.671 0 0 0-1.911.174 10.514 10.514 0 0 0-8.44 12.218 10.5 10.5 0 1 0 10.351-12.392z" fill="#112c41"/><circle cx="334.954" cy="160.56" fill="#fff" r="11.5"/><path d="M334.928 173.064a12.508 12.508 0 0 1-12.27-10.256 12.5 12.5 0 1 1 14.542 10.048 12.715 12.715 0 0 1-2.272.208zm-10.3-10.616a10.5 10.5 0 1 0 8.44-12.217 10.432 10.432 0 0 0-8.44 12.217zM59.964 133.784q-1.794 0-3.585-.092c-16.968-.875-32.062-7.912-42.5-19.812C-8.73 88.113-3.147 45.283 26.322 18.405a1 1 0 0 1 1.348 1.479C-1 46.032-6.513 87.608 15.381 112.562c10.081 11.49 24.677 18.286 41.1 19.132 19.1.987 38.44-6.2 53.02-19.719a1 1 0 1 1 1.359 1.467 75.455 75.455 0 0 1-50.896 20.342z" fill="#112c41"/><path d="M114.454 109.405a63 63 0 1 0-89.079-1.728 63 63 0 0 0 89.079 1.728" fill="#9797f7"/><path d="M34.856 88.594a61.054 61.054 0 0 0 98.02-13.948A63.027 63.027 0 0 0 21.948 24.175a61.029 61.029 0 0 0 12.908 64.419z" fill="#b2b0f7"/><path d="M70.792 127.972a63.975 63.975 0 0 1-49.618-104.43 64.754 64.754 0 0 1 5.231-5.665 64 64 0 1 1 44.387 110.1zM70.765 2.03a61.791 61.791 0 0 0-42.972 17.288 62.7 62.7 0 0 0-5.07 5.489A62.079 62.079 0 1 0 70.765 2.03z" fill="#112c41"/></svg></g><g transform="translate(952.0 559.0) rotate(0.0 79.5 56.5) scale(1.0817798339910192 1.0900917413492055)"><svg width="146.98" height="103.661" viewBox="0 0 146.98 103.661"><path d="M88.973 101.82 24.937 31.925A4.38 4.38 0 0 0 18 32.29L2.217 53.644c-2.417 3.17-.893 5.451 1.607 6.7l84.557 42.261a.5.5 0 0 0 .592-.785z" fill="#ffe993"/><path d="M88.613 103.662a1.513 1.513 0 0 1-.679-.163L3.377 61.239a5.659 5.659 0 0 1-3.27-3.625 5.45 5.45 0 0 1 1.315-4.576L17.2 31.7a5.367 5.367 0 0 1 4.071-2.3 5.521 5.521 0 0 1 4.4 1.846l64.036 69.9a1.5 1.5 0 0 1-1.1 2.518zM21.57 31.395c-.061 0-.123 0-.184.005a3.414 3.414 0 0 0-2.576 1.479L3.02 54.239a3.61 3.61 0 0 0-.964 2.922 3.9 3.9 0 0 0 2.215 2.289l82.137 41.05L24.2 32.6a3.586 3.586 0 0 0-2.631-1.206z" fill="#112c41"/><path d="m80.827 1.737-18.268 8.787a4.35 4.35 0 0 0-1.743 6.625l43.46 62.474a.5.5 0 0 0 .9-.4L87.151 4.735C86.478 1.95 84.8-.186 80.827 1.737z" fill="#ffe993"/><path d="M104.677 80.842a1.484 1.484 0 0 1-1.222-.648L60 17.721a5.58 5.58 0 0 1-.871-4.631 5.369 5.369 0 0 1 3.013-3.472L80.394.836C82.323-.1 83.982-.249 85.325.385s2.292 2.021 2.8 4.114l18.021 74.486a1.481 1.481 0 0 1-.843 1.721 1.515 1.515 0 0 1-.626.136zM83.537 2a5.416 5.416 0 0 0-2.274.637l-18.27 8.789a3.413 3.413 0 0 0-1.937 2.184 3.582 3.582 0 0 0 .582 2.969l41.935 60.283L86.18 4.97c-.358-1.476-.932-2.41-1.708-2.777A2.168 2.168 0 0 0 83.537 2z" fill="#112c41"/><path d="m121.879 16.5 19.189-1.189c3.1-.192 5.732 1.5 4.674 5.7l-16.36 61.61a.5.5 0 0 1-.976-.041l-10.722-60.755c-.471-2.671.116-5.011 4.195-5.325z" fill="#ffe993"/><path d="M128.9 84h-.066a1.49 1.49 0 0 1-1.413-1.238L116.7 22a5.587 5.587 0 0 1 .758-4.582A5.789 5.789 0 0 1 121.8 15.5h.015l19.19-1.189a5.717 5.717 0 0 1 4.918 1.777c.731.88 1.461 2.492.787 5.168L130.349 82.88A1.491 1.491 0 0 1 128.9 84zm-6.952-66.5a3.949 3.949 0 0 0-2.91 1.146 3.781 3.781 0 0 0-.369 3.009L129 80.176l15.778-59.42a3.91 3.91 0 0 0-.388-3.39 3.854 3.854 0 0 0-3.257-1.058z" fill="#112c41"/></svg></g><g transform="translate(1247.0 577.0) rotate(0.0 103.0 80.0) scale(1.0085827454014011 1.0001437706670333)"><svg width="204.247" height="159.977" viewBox="0 0 204.247 159.977"><path d="M1.1 73.885a1.4 1.4 0 0 0 .755.7l43.788 18.586a3.659 3.659 0 0 1 .617.34c.059.04.11.085.166.128a2.964 2.964 0 0 1 .344.3c.054.055.1.111.151.17a2.705 2.705 0 0 1 .245.352c.035.059.073.116.1.178.013.027.033.051.045.079a2.455 2.455 0 0 1 .161.491l5.39 25.1a2.506 2.506 0 0 0-.206-.57c-.03-.062-.068-.119-.1-.178a2.621 2.621 0 0 0-.245-.353 4.07 4.07 0 0 0-.151-.17 3.053 3.053 0 0 0-.344-.3c-.055-.043-.107-.089-.166-.129a3.687 3.687 0 0 0-.617-.339L7.245 99.683a1.4 1.4 0 0 1-.755-.7 1.087 1.087 0 0 1-.074-.226l-5.391-25.1a1.219 1.219 0 0 0 .075.228z" fill="#cbc8ff"/><path d="M52.864 121.313a1 1 0 0 1-.976-.79 1.588 1.588 0 0 0-.127-.343c0-.005-.067-.11-.07-.115a1.769 1.769 0 0 0-.152-.219.986.986 0 0 0-.1-.107 2.088 2.088 0 0 0-.239-.21l.331-.649-.013-.058-.437.612a2.527 2.527 0 0 0-.442-.243L6.854 100.6a2.4 2.4 0 0 1-1.278-1.21 2.171 2.171 0 0 1-.138-.424l-5.39-25.1A1 1 0 1 1 2 73.449l.007.029a.435.435 0 0 0 .232.187l43.79 18.588a4.578 4.578 0 0 1 .785.431c.064.042.122.089.181.136a4.236 4.236 0 0 1 .49.431c.073.076.14.151.2.228a3.626 3.626 0 0 1 .335.48 2.547 2.547 0 0 1 .145.256.666.666 0 0 1 .064.121 3.4 3.4 0 0 1 .216.671l5.384 25.065.007.03a1 1 0 0 1-.768 1.187 1.01 1.01 0 0 1-.204.024zM2.543 75.962l4.851 22.585a.419.419 0 0 0 .242.215l43.549 18.486L46.5 95.424a1.579 1.579 0 0 0-.08-.256 1.084 1.084 0 0 1-.044-.078l-.069-.117a1.688 1.688 0 0 0-.155-.224l-.1-.116a2.311 2.311 0 0 0-.232-.2l.468-.9-.585.811a2.585 2.585 0 0 0-.447-.248z" fill="#112c41"/><path d="M52.893 129.444a1.974 1.974 0 0 0 .4.123 2.223 2.223 0 0 0 .52.036 2.383 2.383 0 0 0 .505-.082c.053-.014.1-.03.158-.048L94.8 115.468c.111-.039.223-.074.336-.1a5.272 5.272 0 0 1 1.129-.181l5.39 25.1a5.344 5.344 0 0 0-1.129.18c-.113.031-.225.066-.336.1l-40.315 14c-.053.018-.1.035-.158.049a2.38 2.38 0 0 1-.505.081 2.227 2.227 0 0 1-.52-.035 2.059 2.059 0 0 1-.4-.123 1.4 1.4 0 0 1-.757-.693l-5.39-25.1a1.385 1.385 0 0 0 .748.698z" fill="#cbc8ff"/><path d="M59.1 155.7a3.2 3.2 0 0 1-.6-.056 3 3 0 0 1-.606-.184 2.363 2.363 0 0 1-1.281-1.207.965.965 0 0 1-.064-.2l-5.391-25.1a1 1 0 0 1 1.891-.617.453.453 0 0 0 .234.18 1 1 0 0 0 .2.061 1.055 1.055 0 0 0 .282.019 1.413 1.413 0 0 0 .29-.047l40.409-14.034c.134-.046.266-.088.4-.124a6.3 6.3 0 0 1 1.342-.215 1 1 0 0 1 1.026.789l5.391 25.1a1 1 0 0 1-.927 1.208 4.32 4.32 0 0 0-.917.147c-.089.024-.18.052-.268.083L60.2 155.516a3.934 3.934 0 0 1-.213.067 3.406 3.406 0 0 1-.728.117H59.1zm-.625-2.214a.57.57 0 0 0 .2.133 1.085 1.085 0 0 0 .484.079 1.306 1.306 0 0 0 .293-.047l.095-.029 40.311-14a6.209 6.209 0 0 1 .592-.173l-4.969-23.143-.084.022a4.111 4.111 0 0 0-.273.084l-40.316 14.006c-.074.025-.15.048-.226.069a3.373 3.373 0 0 1-.716.114 2.912 2.912 0 0 1-.31 0z" fill="#112c41"/><path d="M97.44 115.264a4.279 4.279 0 0 1 .866.261l42.865 18.195a1.945 1.945 0 0 0 .394.119 2.179 2.179 0 0 0 .529.036 2.364 2.364 0 0 0 .515-.082l5.39 25.1a2.355 2.355 0 0 1-.514.082 2.172 2.172 0 0 1-.529-.036 1.907 1.907 0 0 1-.394-.119L103.7 140.624a4.308 4.308 0 0 0-.867-.261 4.918 4.918 0 0 0-1.18-.081l-5.39-25.1a4.97 4.97 0 0 1 1.177.082z" fill="#cbc8ff"/><path d="M147.369 159.977a3.179 3.179 0 0 1-.6-.057 3 3 0 0 1-.593-.18l-42.865-18.2a3.3 3.3 0 0 0-.666-.2 3.854 3.854 0 0 0-.942-.063 1.015 1.015 0 0 1-1.026-.789l-5.391-25.1a1 1 0 0 1 .929-1.209 5.953 5.953 0 0 1 1.418.1 5.223 5.223 0 0 1 1.069.324l42.86 18.197a.983.983 0 0 0 .191.057 1.341 1.341 0 0 0 .292.02 1.36 1.36 0 0 0 .3-.049 1 1 0 0 1 1.241.755l5.39 25.1a1 1 0 0 1-.713 1.174 3.344 3.344 0 0 1-.732.117 4.336 4.336 0 0 1-.162.003zM102.463 139.3c.187.018.373.044.556.079a5.354 5.354 0 0 1 1.068.323l42.657 18.107-4.926-22.935a3.22 3.22 0 0 1-.441-.054 2.929 2.929 0 0 1-.6-.181l-42.861-18.193a2.965 2.965 0 0 0-.392-.136z" fill="#112c41"/><path d="m143.735 133.065 53.827-70.789a1.288 1.288 0 0 0 .269-1.056l5.39 25.1a1.286 1.286 0 0 1-.269 1.056l-53.826 70.79a2.115 2.115 0 0 1-1.127.728l-5.39-25.1a2.112 2.112 0 0 0 1.126-.729z" fill="#cbc8ff"/><path d="M148 159.892a1 1 0 0 1-.978-.79L141.632 134a1 1 0 0 1 .714-1.174 1.12 1.12 0 0 0 .592-.368l53.827-70.79a.333.333 0 0 0 .088-.238 1 1 0 1 1 1.955-.421l5.39 25.1a2.268 2.268 0 0 1-.451 1.871l-53.826 70.79a3.121 3.121 0 0 1-1.659 1.087 1.035 1.035 0 0 1-.262.035zm-4.242-25.52 4.889 22.771 53.51-70.374a.327.327 0 0 0 .088-.24L197.428 64.1l-52.9 69.567a2.915 2.915 0 0 1-.771.705z" fill="#112c41"/><path d="M57.685 1.158a2.264 2.264 0 0 0-2.564.655L1.3 72.6a1.24 1.24 0 0 0 .559 1.981l43.784 18.59a2.91 2.91 0 0 1 1.864 2.229l4.54 33.045a1.3 1.3 0 0 0 .845 1 2.22 2.22 0 0 0 1.588.029l40.32-14.007a4.986 4.986 0 0 1 3.511.058l42.866 18.195a2.262 2.262 0 0 0 2.563-.655l53.827-70.789A1.24 1.24 0 0 0 197 60.3z" fill="#fff"/><path d="M141.973 134.876a3.053 3.053 0 0 1-1.192-.235l-42.865-18.2a4.007 4.007 0 0 0-2.793-.033l-40.315 14a3.2 3.2 0 0 1-2.306-.053 2.287 2.287 0 0 1-1.445-1.784l-4.54-33.049a1.927 1.927 0 0 0-1.265-1.44L1.464 75.5a2.349 2.349 0 0 1-1.393-1.532A2.284 2.284 0 0 1 .5 72L54.325 1.208a3.277 3.277 0 0 1 3.75-.971l139.318 59.137a2.349 2.349 0 0 1 1.392 1.537 2.281 2.281 0 0 1-.428 1.97l-53.826 70.79a3.247 3.247 0 0 1-2.558 1.205zm-45.457-20.7a5.586 5.586 0 0 1 2.181.429l42.865 18.2a1.268 1.268 0 0 0 1.377-.339l53.827-70.796a.322.322 0 0 0 .086-.247.4.4 0 0 0-.241-.208L57.294 2.078a1.271 1.271 0 0 0-1.377.34L2.091 73.208a.32.32 0 0 0-.091.247.392.392 0 0 0 .241.208l43.792 18.588a3.917 3.917 0 0 1 2.467 3.007l4.54 33.046c.016.106.161.183.246.22a1.214 1.214 0 0 0 .869 0l40.315-14a6.264 6.264 0 0 1 2.046-.348z" fill="#112c41"/><path d="M63.069 81.14c5.77 2.61 23.15 9.07 30.4 11.76 1.76.65 2.93 1.08 3.18 1.18l15.76 6.05a2.62 2.62 0 0 0 1.66.03 2.269 2.269 0 0 0 1.19-.81L138.8 66.72a1.331 1.331 0 0 0 .23-1.18 1.516 1.516 0 0 0-.97-.98l-15.73-6.05c-.01 0-1.5-.53-3.04-1.13-.73-.28-1.48-.57-2.1-.84a8.109 8.109 0 0 1-4.95-5.24c-.9-3.16 0-6.75.46-9.65a11.235 11.235 0 0 0 .14-3.68 2.754 2.754 0 0 0-.52-1.19 2.532 2.532 0 0 0-1.11-.77 6.183 6.183 0 0 0-3.29-.32 11.2 11.2 0 0 0-5.05 2.61 32.584 32.584 0 0 0-5.25 5.84c-.68.94-1.34 1.93-1.99 2.97a1.45 1.45 0 0 1-.74.57 1.058 1.058 0 0 1-.7.02 31.44 31.44 0 0 0-4.85-2.37 24.093 24.093 0 0 0-9.19-1.75 13.754 13.754 0 0 0-4.06.66 9.635 9.635 0 0 0-3.27 1.79 6.262 6.262 0 0 0-.9.98 6.486 6.486 0 0 0-.68 5.87c-3.16.55-6.16 1.55-8.16 4.55a7.129 7.129 0 0 0 0 8 9.21 9.21 0 0 0-6 4c-2.141 3.69-.001 9 5.989 11.71z" fill="#fff"/><path d="M113.264 101.28a3.422 3.422 0 0 1-1.208-.214l-15.765-6.052c-.2-.082-.941-.354-2.072-.771l-1.1-.405c-6.067-2.251-24.527-9.1-30.466-11.787a12.44 12.44 0 0 1-6.993-7.119 7.35 7.35 0 0 1 .55-6 9.988 9.988 0 0 1 5.373-4.115 8.122 8.122 0 0 1 .66-7.938c2.031-3.044 4.972-4.185 7.757-4.779a6.855 6.855 0 0 1 2.185-6.842 10.7 10.7 0 0 1 3.6-1.97 14.748 14.748 0 0 1 4.35-.709A25.064 25.064 0 0 1 89.7 44.4a32.173 32.173 0 0 1 4.842 2.349.527.527 0 0 0 .25-.184 54.127 54.127 0 0 1 2.017-3.009 33.414 33.414 0 0 1 5.42-6.022 12.234 12.234 0 0 1 5.518-2.827 7.2 7.2 0 0 1 3.813.369 3.511 3.511 0 0 1 1.536 1.077 3.7 3.7 0 0 1 .721 1.612 12.111 12.111 0 0 1-.13 4.037c-.073.465-.157.94-.242 1.428-.441 2.509-.941 5.353-.244 7.8a7.119 7.119 0 0 0 4.388 4.6c.607.265 1.343.549 2.058.823 1.432.558 2.806 1.051 2.981 1.11l.06.021 15.731 6.05a2.5 2.5 0 0 1 1.574 1.647 2.315 2.315 0 0 1-.384 2.033l-23.54 32.628a3.241 3.241 0 0 1-1.7 1.181 3.81 3.81 0 0 1-1.105.157zM63.481 80.229c5.876 2.658 24.287 9.489 30.336 11.734l1.094.4c1.159.428 1.914.707 2.11.786l15.747 6.051a1.615 1.615 0 0 0 1.012.007 1.28 1.28 0 0 0 .668-.438l23.54-32.63a.329.329 0 0 0 .081-.314.541.541 0 0 0-.363-.325l-15.736-6.057v-.008c-.379-.114-1.194-.4-3.048-1.123-.739-.284-1.5-.579-2.136-.855a9.122 9.122 0 0 1-5.512-5.879c-.823-2.891-.281-5.975.2-8.7.083-.477.165-.941.236-1.389a10.709 10.709 0 0 0 .148-3.317 1.784 1.784 0 0 0-.317-.765 1.557 1.557 0 0 0-.689-.466 5.157 5.157 0 0 0-2.769-.269 10.3 10.3 0 0 0-4.58 2.4 31.377 31.377 0 0 0-5.076 5.656 51.35 51.35 0 0 0-1.952 2.912 2.473 2.473 0 0 1-1.271.989 2.045 2.045 0 0 1-1.346.016 1 1 0 0 1-.181-.085 30.32 30.32 0 0 0-4.7-2.3 23.2 23.2 0 0 0-8.8-1.684 12.763 12.763 0 0 0-3.776.609 8.593 8.593 0 0 0-2.937 1.615 5.066 5.066 0 0 0-.753.826 5.478 5.478 0 0 0-.529 4.924 1 1 0 0 1-.771 1.32c-2.793.487-5.635 1.322-7.5 4.12a6.13 6.13 0 0 0 0 6.891 1 1 0 0 1-.613 1.53 8.155 8.155 0 0 0-5.355 3.527 5.374 5.374 0 0 0-.374 4.388 10.461 10.461 0 0 0 5.912 5.908z" fill="#112c41"/><path d="M93.469 92.9c1.76.65 2.93 1.08 3.18 1.18l15.76 6.05a2.62 2.62 0 0 0 1.66.03 2.269 2.269 0 0 0 1.19-.81L138.8 66.72a1.331 1.331 0 0 0 .23-1.18 1.516 1.516 0 0 0-.97-.98l-15.73-6.05c-.01 0-1.5-.53-3.04-1.13z" fill="#9797f7"/><path d="M113.264 101.28a3.422 3.422 0 0 1-1.208-.214l-15.765-6.052c-.2-.082-.941-.354-2.072-.771l-1.1-.405a1 1 0 0 1-.462-1.526l25.819-35.52a1 1 0 0 1 1.172-.344c1.427.556 2.8 1.049 2.976 1.108l.06.021 15.731 6.05a2.5 2.5 0 0 1 1.574 1.647 2.315 2.315 0 0 1-.384 2.033l-23.54 32.628a3.241 3.241 0 0 1-1.7 1.181 3.81 3.81 0 0 1-1.101.164zm-18.208-8.86c1.077.4 1.777.657 1.965.732l15.747 6.048a1.615 1.615 0 0 0 1.012.007 1.28 1.28 0 0 0 .668-.438l23.54-32.63a.329.329 0 0 0 .081-.314.541.541 0 0 0-.363-.325l-15.736-6.056v-.009c-.327-.1-.974-.324-2.329-.845z" fill="#112c41"/></svg></g><g transform="translate(325.0 606.0) rotate(0.0 104.5 81.0) scale(1.023270843635402 1.0126455678003712)"><svg width="204.247" height="159.977" viewBox="0 0 204.247 159.977"><path d="M203.147 73.885a1.394 1.394 0 0 1-.755.7L158.6 93.171a3.582 3.582 0 0 0-.617.34c-.06.04-.11.085-.166.128a3.06 3.06 0 0 0-.345.3c-.053.055-.1.111-.15.17a2.611 2.611 0 0 0-.245.352c-.035.059-.073.116-.1.178-.014.027-.034.051-.046.079a2.452 2.452 0 0 0-.16.491l-5.391 25.1a2.5 2.5 0 0 1 .2-.57c.031-.062.069-.119.1-.178a2.707 2.707 0 0 1 .244-.353c.048-.058.1-.115.152-.17a3.132 3.132 0 0 1 .343-.3c.056-.043.107-.089.167-.129a3.677 3.677 0 0 1 .616-.339L197 99.683a1.4 1.4 0 0 0 .755-.7 1.087 1.087 0 0 0 .074-.226l5.39-25.1a1.087 1.087 0 0 1-.072.228z" fill="#cbc8ff"/><path d="m152.359 120.522-1.956-.42c0-.021.009-.042.015-.063L155.794 95a3.456 3.456 0 0 1 .225-.69 1.667 1.667 0 0 1 .093-.171 1.315 1.315 0 0 1 .077-.136 4.142 4.142 0 0 1 .362-.528c.073-.087.139-.161.209-.234a4.167 4.167 0 0 1 .451-.4c.094-.075.152-.122.218-.165a4.608 4.608 0 0 1 .784-.431L202 73.663a.449.449 0 0 0 .232-.184l.009-.029a1 1 0 1 1 1.955.419l-5.389 25.1a2.238 2.238 0 0 1-.137.42 2.4 2.4 0 0 1-1.279 1.216L153.6 119.19a2.668 2.668 0 0 0-.448.248l-.12.095a2.108 2.108 0 0 0-.231.2c-.031.032-.065.071-.1.11a1.825 1.825 0 0 0-.156.226l-.068.113a1.476 1.476 0 0 0-.122.332zm4.633-25.908.881.474-.073.128c0 .007-.029.106-.051.205l-4.687 21.826 43.549-18.485a.437.437 0 0 0 .234-.187l4.855-22.613-42.706 18.129a2.629 2.629 0 0 0-.448.248l-.114.092a2.156 2.156 0 0 0-.236.2.948.948 0 0 0-.1.12 1.681 1.681 0 0 0-.149.217z" fill="#112c41"/><path d="M151.354 129.444a1.993 1.993 0 0 1-.4.123 2.227 2.227 0 0 1-.52.036 2.392 2.392 0 0 1-.506-.082 2.35 2.35 0 0 1-.157-.048l-40.315-14.005a3.146 3.146 0 0 0-.336-.1 5.282 5.282 0 0 0-1.129-.181l-5.39 25.1a5.344 5.344 0 0 1 1.129.18c.112.031.225.066.336.1l40.315 14c.052.018.1.035.157.049a2.389 2.389 0 0 0 .506.081 2.231 2.231 0 0 0 .52-.035 2.059 2.059 0 0 0 .4-.123 1.4 1.4 0 0 0 .757-.693l5.39-25.1a1.392 1.392 0 0 1-.757.698z" fill="#cbc8ff"/><path d="M145.151 155.7h-.16a3.378 3.378 0 0 1-.72-.115 3.306 3.306 0 0 1-.219-.068l-40.318-14.006a4.436 4.436 0 0 0-.277-.086 4.339 4.339 0 0 0-.911-.145 1 1 0 0 1-.927-1.208l5.39-25.1a1.016 1.016 0 0 1 1.026-.789 6.31 6.31 0 0 1 1.344.215c.134.036.268.078.4.123l40.409 14.035a1.41 1.41 0 0 0 .292.047 1.137 1.137 0 0 0 .282-.02.936.936 0 0 0 .2-.06.448.448 0 0 0 .233-.179 1 1 0 0 1 1.891.616l-5.39 25.1a.986.986 0 0 1-.064.2 2.366 2.366 0 0 1-1.278 1.206 3.046 3.046 0 0 1-.607.184 3.148 3.148 0 0 1-.596.05zM103.8 139.449a6.476 6.476 0 0 1 .588.173l40.412 14.035a1.374 1.374 0 0 0 .288.046 1.184 1.184 0 0 0 .282-.02 1.026 1.026 0 0 0 .2-.062.577.577 0 0 0 .2-.131l4.915-22.888h-.31a3.42 3.42 0 0 1-.722-.117 2.799 2.799 0 0 1-.216-.067l-40.319-14.006a4.424 4.424 0 0 0-.27-.084l-.086-.022z" fill="#112c41"/><path d="M106.807 115.264a4.308 4.308 0 0 0-.867.261L63.075 133.72a1.907 1.907 0 0 1-.394.119 2.175 2.175 0 0 1-.529.036 2.355 2.355 0 0 1-.514-.082l-5.391 25.1a2.364 2.364 0 0 0 .515.082 2.175 2.175 0 0 0 .529-.036 1.907 1.907 0 0 0 .394-.119l42.865-18.195a4.308 4.308 0 0 1 .867-.261 4.911 4.911 0 0 1 1.18-.081l5.39-25.1a4.97 4.97 0 0 0-1.18.081z" fill="#cbc8ff"/><path d="M56.878 159.977h-.166a3.4 3.4 0 0 1-.728-.117 1 1 0 0 1-.714-1.174l5.39-25.1a1 1 0 0 1 .459-.645.991.991 0 0 1 .783-.109 1.453 1.453 0 0 0 .3.048 1.215 1.215 0 0 0 .291-.02.906.906 0 0 0 .189-.057l42.867-18.2a5.228 5.228 0 0 1 1.067-.323 6.054 6.054 0 0 1 1.417-.1 1 1 0 0 1 .929 1.209l-5.39 25.1a1.006 1.006 0 0 1-1.026.789 3.919 3.919 0 0 0-.943.063 3.364 3.364 0 0 0-.663.2l-42.865 18.198a2.838 2.838 0 0 1-.6.181 3.132 3.132 0 0 1-.597.057zm5.551-25.1L57.5 157.81l42.659-18.11a5.272 5.272 0 0 1 1.068-.324q.274-.053.557-.079l4.938-22.991a3.069 3.069 0 0 0-.389.135l-42.867 18.2a2.877 2.877 0 0 1-.6.18 3.1 3.1 0 0 1-.437.053z" fill="#112c41"/><path d="M60.511 133.065 6.685 62.276a1.288 1.288 0 0 1-.269-1.056l-5.391 25.1a1.284 1.284 0 0 0 .27 1.056l53.826 70.79a2.112 2.112 0 0 0 1.126.728l5.391-25.1a2.111 2.111 0 0 1-1.127-.729z" fill="#cbc8ff"/><path d="M56.247 159.892a.981.981 0 0 1-.263-.036 3.109 3.109 0 0 1-1.66-1.087L.5 87.979a2.268 2.268 0 0 1-.45-1.871l5.39-25.1a1 1 0 0 1 1.956.418.323.323 0 0 0 .088.242l53.825 70.79a1.129 1.129 0 0 0 .595.37 1 1 0 0 1 .711 1.172l-5.39 25.1a1 1 0 0 1-.978.79zM6.819 64.1 2 86.528a.329.329 0 0 0 .087.241L55.6 157.142l4.89-22.77a2.943 2.943 0 0 1-.775-.7z" fill="#112c41"/><path d="M146.562 1.158a2.264 2.264 0 0 1 2.564.655L202.952 72.6a1.24 1.24 0 0 1-.56 1.981L158.6 93.171a2.912 2.912 0 0 0-1.865 2.224L152.2 128.44a1.3 1.3 0 0 1-.846 1 2.217 2.217 0 0 1-1.587.029l-40.315-14.006a4.989 4.989 0 0 0-3.512.058L63.075 133.72a2.264 2.264 0 0 1-2.564-.655L6.685 62.276a1.24 1.24 0 0 1 .56-1.981z" fill="#fff"/><path d="M62.276 134.875a3.25 3.25 0 0 1-2.561-1.2L5.889 62.881a2.282 2.282 0 0 1-.427-1.972 2.347 2.347 0 0 1 1.392-1.534L146.171.238a3.281 3.281 0 0 1 3.751.969L203.748 72a2.28 2.28 0 0 1 .427 1.971 2.348 2.348 0 0 1-1.392 1.535l-43.789 18.585a1.926 1.926 0 0 0-1.264 1.441l-4.54 33.044a2.289 2.289 0 0 1-1.444 1.789 3.219 3.219 0 0 1-2.305.053l-40.317-14.006a4 4 0 0 0-2.792.034l-42.866 18.195a3.05 3.05 0 0 1-1.19.234zM147.37 2a1.073 1.073 0 0 0-.418.079L7.635 61.215a.4.4 0 0 0-.24.208.315.315 0 0 0 .086.247l53.826 70.79a1.273 1.273 0 0 0 1.378.34l42.865-18.2a5.962 5.962 0 0 1 4.229-.083l40.321 14.011a1.213 1.213 0 0 0 .869 0c.084-.036.23-.113.245-.222l4.54-33.043a3.92 3.92 0 0 1 2.464-3.009L202 73.663a.392.392 0 0 0 .24-.208.315.315 0 0 0-.086-.247L148.33 2.418a1.246 1.246 0 0 0-.96-.418z" fill="#112c41"/><g fill="#ffa9dc"><path d="M109.987 46.56a15.142 15.142 0 0 1 6.327-1.135c8.4.221 17.11 7.546 16.076 18.243-1.145 11.82-5.563 23.081-6.816 26.092a1.017 1.017 0 0 1-1.123.615 209.381 209.381 0 0 1-33.717-9.025C77.907 76.536 73.945 67.2 77.984 61.7a10.779 10.779 0 0 1 4.55-3.482c4.785-2.03 11.727-1.658 18.984 2.013a.717.717 0 0 0 1.05-.674c-.418-6.426 2.691-10.99 7.419-12.997z"/><path d="M124.636 90.892a1.591 1.591 0 0 1-.273-.024 208.756 208.756 0 0 1-33.8-9.05c-7.457-2.8-12.616-7.366-14.154-12.532a8.792 8.792 0 0 1 1.172-7.886 11.226 11.226 0 0 1 4.758-3.646c5.243-2.226 12.5-1.467 19.4 2.026a.225.225 0 0 0 .235-.011.193.193 0 0 0 .091-.183c-.405-6.219 2.482-11.26 7.722-13.485a15.622 15.622 0 0 1 6.537-1.175 17.6 17.6 0 0 1 12.46 5.927 16.757 16.757 0 0 1 4.1 12.863c-1.145 11.8-5.534 23.066-6.853 26.237a1.513 1.513 0 0 1-1.395.939zm-35.594-33.4a16.141 16.141 0 0 0-6.312 1.183 10.225 10.225 0 0 0-4.343 3.317A7.814 7.814 0 0 0 77.364 69c1.448 4.863 6.384 9.193 13.546 11.88a207.462 207.462 0 0 0 33.629 9 .521.521 0 0 0 .573-.315c1.305-3.138 5.651-14.285 6.781-25.949a15.553 15.553 0 0 0-3.854-12.1 16.583 16.583 0 0 0-11.739-5.591 14.449 14.449 0 0 0-6.119 1.1c-4.9 2.082-7.5 6.637-7.115 12.5a1.191 1.191 0 0 1-.538 1.084 1.229 1.229 0 0 1-1.237.068 27.656 27.656 0 0 0-12.249-3.186z"/></g></svg></g></svg>