<svg xmlns="http://www.w3.org/2000/svg" viewBox="0 0 3000 3000" width="3000" height="3000"><g transform="translate(699.0 394.0) rotate(-23.64324385308852 122.5 86.0) scale(1.6668934548918222 1.6592546859474633)"><svg width="146.98" height="103.661" viewBox="0 0 146.98 103.661"><path d="M88.973 101.82 24.937 31.925A4.38 4.38 0 0 0 18 32.29L2.217 53.644c-2.417 3.17-.893 5.451 1.607 6.7l84.557 42.261a.5.5 0 0 0 .592-.785z" fill="#ffe993"/><path d="M88.613 103.662a1.513 1.513 0 0 1-.679-.163L3.377 61.239a5.659 5.659 0 0 1-3.27-3.625 5.45 5.45 0 0 1 1.315-4.576L17.2 31.7a5.367 5.367 0 0 1 4.071-2.3 5.521 5.521 0 0 1 4.4 1.846l64.036 69.9a1.5 1.5 0 0 1-1.1 2.518zM21.57 31.395c-.061 0-.123 0-.184.005a3.414 3.414 0 0 0-2.576 1.479L3.02 54.239a3.61 3.61 0 0 0-.964 2.922 3.9 3.9 0 0 0 2.215 2.289l82.137 41.05L24.2 32.6a3.586 3.586 0 0 0-2.631-1.206z" fill="#112c41"/><path d="m80.827 1.737-18.268 8.787a4.35 4.35 0 0 0-1.743 6.625l43.46 62.474a.5.5 0 0 0 .9-.4L87.151 4.735C86.478 1.95 84.8-.186 80.827 1.737z" fill="#ffe993"/><path d="M104.677 80.842a1.484 1.484 0 0 1-1.222-.648L60 17.721a5.58 5.58 0 0 1-.871-4.631 5.369 5.369 0 0 1 3.013-3.472L80.394.836C82.323-.1 83.982-.249 85.325.385s2.292 2.021 2.8 4.114l18.021 74.486a1.481 1.481 0 0 1-.843 1.721 1.515 1.515 0 0 1-.626.136zM83.537 2a5.416 5.416 0 0 0-2.274.637l-18.27 8.789a3.413 3.413 0 0 0-1.937 2.184 3.582 3.582 0 0 0 .582 2.969l41.935 60.283L86.18 4.97c-.358-1.476-.932-2.41-1.708-2.777A2.168 2.168 0 0 0 83.537 2z" fill="#112c41"/><path d="m121.879 16.5 19.189-1.189c3.1-.192 5.732 1.5 4.674 5.7l-16.36 61.61a.5.5 0 0 1-.976-.041l-10.722-60.755c-.471-2.671.116-5.011 4.195-5.325z" fill="#ffe993"/><path d="M128.9 84h-.066a1.49 1.49 0 0 1-1.413-1.238L116.7 22a5.587 5.587 0 0 1 .758-4.582A5.789 5.789 0 0 1 121.8 15.5h.015l19.19-1.189a5.717 5.717 0 0 1 4.918 1.777c.731.88 1.461 2.492.787 5.168L130.349 82.88A1.491 1.491 0 0 1 128.9 84zm-6.952-66.5a3.949 3.949 0 0 0-2.91 1.146 3.781 3.781 0 0 0-.369 3.009L129 80.176l15.778-59.42a3.91 3.91 0 0 0-.388-3.39 3.854 3.854 0 0 0-3.257-1.058z" fill="#112c41"/></svg></g><g transform="translate(600.0 2670.0) rotate(0.0 526.0 38.5) scale(3.6488628520094757 3.8066047063476365)"><svg width="288.309" height="20.228" viewBox="0 0 288.309 20.228"><ellipse cx="144.155" cy="10.114" fill="#cbc8ff" rx="144.155" ry="10.114"/></svg></g><g transform="translate(1590.0 372.0) rotate(0.0 497.5 1152.0) scale(1.6626951369091583 1.6612205933672306)"><svg width="598.426" height="1386.932" viewBox="0 0 598.426 1386.932"><path d="M15.213 1h568c7.844 0 14.213 6.369 14.213 14.213v1370.596H1V15.213C1 7.369 7.369 1 15.213 1z" fill="#cbc8ff"/><path d="M597.426 1386.808H1a1 1 0 0 1-1-1V15.213C0 6.825 6.824 0 15.213 0h568c8.388 0 15.213 6.824 15.213 15.213v1370.595a1 1 0 0 1-1 1zm-595.426-2h594.426V15.213C596.426 7.928 590.499 2 583.213 2h-568C7.927 2 2 7.927 2 15.213z" fill="#112c41"/><path d="M64.362 52.021h469.702c7.844 0 14.213 6.369 14.213 14.213v1319.698H50.149V66.234c0-7.844 6.369-14.213 14.213-14.213z" fill="#dedffe"/><path d="M548.277 1386.931H50.149a1 1 0 0 1-1-1V66.234c0-8.388 6.824-15.213 15.213-15.213h469.702c8.388 0 15.213 6.824 15.213 15.213v1319.697a1 1 0 0 1-1 1zm-497.128-2h496.128V66.234c0-7.285-5.927-13.213-13.213-13.213H64.362c-7.286 0-13.213 5.927-13.213 13.213v1318.697z" fill="#112c41"/><rect fill="#cbc8ff" height="81.702" rx="12.766" width="32.681" x="532.043" y="204.681"/><path d="M551.958 287.383h-7.149c-7.591 0-13.766-6.175-13.766-13.766v-56.17c0-7.591 6.176-13.766 13.766-13.766h7.149c7.591 0 13.766 6.176 13.766 13.766v56.17c0 7.591-6.175 13.766-13.766 13.766zm-7.149-81.702c-6.488 0-11.766 5.278-11.766 11.766v56.17c0 6.488 5.278 11.766 11.766 11.766h7.149c6.488 0 11.766-5.278 11.766-11.766v-56.17c0-6.488-5.278-11.766-11.766-11.766z" fill="#112c41"/><rect fill="#cbc8ff" height="81.702" rx="12.766" width="32.681" x="531.702" y="1101.106"/><path d="M551.617 1183.808h-7.149c-7.591 0-13.766-6.175-13.766-13.766v-56.17c0-7.591 6.175-13.766 13.766-13.766h7.149c7.591 0 13.766 6.176 13.766 13.766v56.17c0 7.591-6.176 13.766-13.766 13.766zm-7.149-81.702c-6.488 0-11.766 5.278-11.766 11.766v56.17c0 6.488 5.278 11.766 11.766 11.766h7.149c6.488 0 11.766-5.278 11.766-11.766v-56.17c0-6.488-5.278-11.766-11.766-11.766z" fill="#112c41"/><circle cx="143.388" cy="693.426" fill="#fccc86" r="36.452"/><path d="M143.388 730.878c-20.651 0-37.452-16.801-37.452-37.452s16.801-37.452 37.452-37.452 37.452 16.801 37.452 37.452-16.801 37.452-37.452 37.452zm0-72.904c-19.548 0-35.452 15.904-35.452 35.452s15.904 35.452 35.452 35.452 35.452-15.904 35.452-35.452-15.904-35.452-35.452-35.452z" fill="#112c41"/><rect fill="#fccc86" height="32.546" rx="16.273" width="131.907" x="130.668" y="677.152"/><path d="M246.301 710.699h-99.36c-9.524 0-17.273-7.749-17.273-17.273s7.749-17.273 17.273-17.273h99.36c9.524 0 17.273 7.749 17.273 17.273s-7.749 17.273-17.273 17.273zm-99.36-32.546c-8.422 0-15.273 6.852-15.273 15.273s6.852 15.273 15.273 15.273h99.36c8.422 0 15.273-6.852 15.273-15.273s-6.852-15.273-15.273-15.273z" fill="#112c41"/></svg></g><g transform="translate(417.0 247.0) rotate(0.0 701.0 1239.0) scale(1.6638263734281469 1.665049548326753)"><svg width="842.636" height="1488.244" viewBox="0 0 842.636 1488.244"><path d="M577.274 493.556c-7.683 9.197-15.737 19.628-23.741 30.906-.498.699-1.004 1.391-1.474 2.075a470.654 470.654 0 0 0-4.016 5.784c-.08-.09-8.159 11.848-16.823 24.954-5.798 8.78-11.859 18.07-15.947 24.627 2.166.319 4.19.627 6.079.931 4.453.698 8.191 1.336 11.46 1.944 6.817 1.273 11.586 2.422 16.493 3.702 2.421.63 4.865 1.295 7.607 2.023 12.109 3.222 71.884 19.429 70.633 50.507-.853 21.073-25.157 37.132-55.13 43.549-.014 0-.035.008-.049.008-12.261 2.632-25.469 3.647-38.401 2.732-21.968-1.551-48.298-34.819-60.039-23.903-5.18 4.817-5.324 12.871 7.877 30.918-18.342 1.892-53.712 28.983-35.213 60.333-5.902 17.837 6.574 35.196 15.24 42.044-1.083 12.76 11.54 35.775 36.299 35.838 21.399.059 35.652-16.51 34.328-26.371 80.937-2.091 241.866-57.641 251.18-161.863 8.393-93.956-106.058-157.083-154.509-180.644-.165-.088-.33-.161-.487-.242a292.852 292.852 0 0 0-13.408-6.124l-.14-.201a79.48 79.48 0 0 0-2.605 1.815c-9.386 6.837-21.787 19.014-35.216 34.656z" fill="#ffd6c0"/><path d="M498.239 833.531h-.111c-13.489-.035-22.312-6.58-27.338-12.065-6.451-7.04-10.418-16.735-9.993-24.321-9.362-7.632-20.815-24.85-15.295-42.379-6.373-11.054-6.786-22.746-1.187-33.839 7.452-14.762 23.877-25.364 35.702-27.375-11.026-15.44-13.106-24.997-6.773-30.887 6.974-6.482 17.8.747 30.336 9.118 9.709 6.483 20.714 13.832 30.454 14.519 12.54.888 25.721-.05 38.121-2.712l.056-.01.01-.002c32.232-6.905 53.556-23.628 54.324-42.608 1.11-27.596-48.507-43.81-69.891-49.5l-2.932-.783a675.357 675.357 0 0 0-4.67-1.239c-5.019-1.309-9.732-2.437-16.424-3.687a407.086 407.086 0 0 0-11.431-1.939 459.02 459.02 0 0 0-6.07-.93 1 1 0 0 1-.703-1.518c3.544-5.685 8.914-13.978 15.961-24.649 12.365-18.705 15.754-23.614 16.904-24.918l-.072-.049a465.086 465.086 0 0 1 4.024-5.797c.33-.48.685-.974 1.042-1.472l.435-.607c7.794-10.982 15.798-21.402 23.788-30.967l.009-.01c13.355-15.556 25.922-27.92 35.386-34.813a80.945 80.945 0 0 1 2.637-1.837 1 1 0 0 1 1.353.225 294.712 294.712 0 0 1 13.189 6.032l.204.1c.104.05.209.102.315.157 40.201 19.549 73.444 41.109 98.773 64.066 40.983 37.145 59.912 76.694 56.262 117.55-5.245 58.689-56.874 97.664-99.261 120.026-56.505 29.81-116.814 41.61-151.836 42.717.115 4.142-2.06 9.133-5.974 13.595-7.038 8.024-17.994 12.806-29.324 12.807zm-18.503-171.337c-1.955 0-3.678.587-5.129 1.936-3.781 3.516-6.288 10.058 8.004 29.596a1 1 0 0 1-.704 1.585c-11.422 1.178-28.535 12.115-35.805 26.518-5.343 10.585-4.876 21.759 1.351 32.312.146.249.179.548.088.823-5.613 16.961 5.842 33.78 14.911 40.946a1 1 0 0 1 .376.869c-.504 5.94 2.219 15.46 9.437 23.337 4.756 5.19 13.104 11.383 25.868 11.416h.106c10.764 0 21.156-4.528 27.821-12.125 3.893-4.438 5.914-9.34 5.408-13.113a1.002 1.002 0 0 1 .965-1.133c34.641-.895 95.237-12.567 152.008-42.517 41.948-22.13 93.037-60.642 98.202-118.435 3.591-40.198-15.12-79.189-55.613-115.89-25.189-22.83-58.274-44.284-98.336-63.765a8.83 8.83 0 0 0-.279-.139l-.227-.112a292.121 292.121 0 0 0-13.113-5.995c-.647.44-1.316.907-1.996 1.403-9.342 6.804-21.786 19.054-35.041 34.494-7.956 9.524-15.926 19.899-23.69 30.839l-.44.614c-.349.487-.696.97-1.026 1.449a477.349 477.349 0 0 0-4.014 5.782.946.946 0 0 1-.133.156c-.751.955-8.082 11.776-16.681 24.785-6.519 9.872-11.6 17.703-15.123 23.311 1.608.24 3.133.476 4.58.709 4.303.674 8.061 1.312 11.484 1.948 6.75 1.261 11.503 2.398 16.562 3.718 1.529.398 3.067.81 4.683 1.242l2.928.782c27.14 7.222 72.502 23.517 71.376 51.514-.806 19.925-22.756 37.386-55.92 44.486l-.055.01-.01.002c-12.577 2.698-25.947 3.647-38.665 2.748-10.27-.725-21.508-8.23-31.424-14.851-8.88-5.929-16.852-11.253-22.735-11.253z" fill="#112c41"/><path d="M532.459 806.159c-25.13-.747-38.432 4.55-38.432 4.55" fill="#ffd6c0"/><path d="M494.027 811.709a1 1 0 0 1-.371-1.929c.551-.219 13.784-5.366 38.832-4.621a1 1 0 0 1-.059 1.999c-24.586-.729-37.901 4.428-38.033 4.48a1 1 0 0 1-.369.071z" fill="#112c41"/><path d="M461.832 796.692c1.735-14.899 12.172-21.537 17.754-24.511" fill="#ffd6c0"/><path d="M461.833 797.692a1.001 1.001 0 0 1-.995-1.116c1.298-11.147 7.276-19.416 18.277-25.278a1 1 0 0 1 .941 1.765c-10.378 5.531-16.014 13.297-17.23 23.745a1 1 0 0 1-.992.884z" fill="#112c41"/><path d="M446.591 754.648c4.636-12.145 13.026-18.455 18.552-20.995" fill="#ffd6c0"/><path d="M446.591 755.648a1.001 1.001 0 0 1-.934-1.357c5.34-13.99 15.114-19.729 19.069-21.548a1 1 0 0 1 .835 1.817c-3.732 1.715-12.959 7.142-18.036 20.444a1.002 1.002 0 0 1-.935.644z" fill="#112c41"/><path d="M531.221 557.276c-5.798 8.78-11.859 18.07-15.947 24.627 2.166.319 4.19.627 6.079.931 4.453.698 8.191 1.336 11.46 1.944 6.817 1.273 11.586 2.422 16.493 3.702 2.421.63 4.865 1.295 7.607 2.023 12.109 3.222 71.884 19.429 70.633 50.507-.853 21.073-25.157 37.132-55.13 43.549 38.387-2.745 71.306-19.92 69.047-52.399-2.027-29.136-44.681-58.962-110.242-74.885z" fill="#f5b9ab"/><path d="M498.239 833.531h-.111c-13.489-.035-22.312-6.58-27.338-12.065-6.451-7.04-10.418-16.735-9.993-24.321-9.362-7.632-20.815-24.85-15.295-42.379-6.373-11.054-6.786-22.746-1.187-33.839 7.452-14.762 23.877-25.364 35.702-27.375-11.026-15.44-13.106-24.997-6.773-30.887 6.974-6.482 17.8.747 30.336 9.118 9.709 6.483 20.714 13.832 30.454 14.519 12.54.888 25.721-.05 38.121-2.712l.056-.01.01-.002c32.232-6.905 53.556-23.628 54.324-42.608 1.11-27.596-48.507-43.81-69.891-49.5l-2.932-.783a675.357 675.357 0 0 0-4.67-1.239c-5.019-1.309-9.732-2.437-16.424-3.687a407.086 407.086 0 0 0-11.431-1.939 459.02 459.02 0 0 0-6.07-.93 1 1 0 0 1-.703-1.518c3.544-5.685 8.914-13.978 15.961-24.649 12.365-18.705 15.754-23.614 16.904-24.918l-.072-.049a465.086 465.086 0 0 1 4.024-5.797c.33-.48.685-.974 1.042-1.472l.435-.607c7.794-10.982 15.798-21.402 23.788-30.967l.009-.01c13.355-15.556 25.922-27.92 35.386-34.813a80.945 80.945 0 0 1 2.637-1.837 1 1 0 0 1 1.353.225 294.712 294.712 0 0 1 13.189 6.032l.204.1c.104.05.209.102.315.157 40.201 19.549 73.444 41.109 98.773 64.066 40.983 37.145 59.912 76.694 56.262 117.55-5.245 58.689-56.874 97.664-99.261 120.026-56.505 29.81-116.814 41.61-151.836 42.717.115 4.142-2.06 9.133-5.974 13.595-7.038 8.024-17.994 12.806-29.324 12.807zm-18.503-171.337c-1.955 0-3.678.587-5.129 1.936-3.781 3.516-6.288 10.058 8.004 29.596a1 1 0 0 1-.704 1.585c-11.422 1.178-28.535 12.115-35.805 26.518-5.343 10.585-4.876 21.759 1.351 32.312.146.249.179.548.088.823-5.613 16.961 5.842 33.78 14.911 40.946a1 1 0 0 1 .376.869c-.504 5.94 2.219 15.46 9.437 23.337 4.756 5.19 13.104 11.383 25.868 11.416h.106c10.764 0 21.156-4.528 27.821-12.125 3.893-4.438 5.914-9.34 5.408-13.113a1.002 1.002 0 0 1 .965-1.133c34.641-.895 95.237-12.567 152.008-42.517 41.948-22.13 93.037-60.642 98.202-118.435 3.591-40.198-15.12-79.189-55.613-115.89-25.189-22.83-58.274-44.284-98.336-63.765a8.83 8.83 0 0 0-.279-.139l-.227-.112a292.121 292.121 0 0 0-13.113-5.995c-.647.44-1.316.907-1.996 1.403-9.342 6.804-21.786 19.054-35.041 34.494-7.956 9.524-15.926 19.899-23.69 30.839l-.44.614c-.349.487-.696.97-1.026 1.449a477.349 477.349 0 0 0-4.014 5.782.946.946 0 0 1-.133.156c-.751.955-8.082 11.776-16.681 24.785-6.519 9.872-11.6 17.703-15.123 23.311 1.608.24 3.133.476 4.58.709 4.303.674 8.061 1.312 11.484 1.948 6.75 1.261 11.503 2.398 16.562 3.718 1.529.398 3.067.81 4.683 1.242l2.928.782c27.14 7.222 72.502 23.517 71.376 51.514-.806 19.925-22.756 37.386-55.92 44.486l-.055.01-.01.002c-12.577 2.698-25.947 3.647-38.665 2.748-10.27-.725-21.508-8.23-31.424-14.851-8.88-5.929-16.852-11.253-22.735-11.253z" fill="#112c41"/><path d="M361.606 1288.943c-1.93 10.81-3.99 24.72-5.79 37.71-2.73 19.74-4.86 37.37-5.04 38.92-.01.07-.02.11-.02.11l-124.74 6.13-15.72.78h-.04v-.15c.17-9.09.83-24.48 1.42-39.54.7-17.67 1.31-34.88.93-40.96 0 0 5.44.23 14.41.49 29.25.85 96.09 2.01 134.59-3.49z" fill="#ffd6c0"/><path d="m227.016 1292.433-1 79.38v.16c-3.81 2.77-12.58 8.56-15.41 9.97-.16-2.96-.27-6.1-.35-9.35v-.15c.36-19.75 3.05-69.24 2.35-80.5 0 0 5.44.23 14.41.49z" fill="#f5b9ab"/><path d="M416.523 1444.334c-48.276 16.93-112.693 16.241-166.877 6.804-15.796-2.755-30.72-6.242-44.121-10.264 0 0 3.713-42.594 4.731-68.283l11.35-.526s128.811-6.275 129.152-6.376c9.97 5.059 55.314 31.015 65.765 78.647z" fill="#b2b0f7"/><path d="M324.391 1458.709c-24.164 0-49.596-2.176-74.916-6.586-15.764-2.75-30.647-6.212-44.237-10.292a1 1 0 0 1-.709-1.045c.037-.426 3.723-42.864 4.729-68.236a1 1 0 0 1 .953-.959l11.35-.526c1.267-.062 126.725-6.174 129.073-6.37.196-.025.398.009.578.1 9.186 4.662 55.553 30.393 66.289 79.324a1 1 0 0 1-.646 1.158c-25.369 8.896-57.591 13.431-92.463 13.431zm-117.799-18.561c13.303 3.956 27.841 7.321 43.227 10.004 61.137 10.648 122.92 8.224 165.534-6.47-11.014-47.919-58.37-73.679-64.827-76.992-2.644.169-19.343 1.036-128.869 6.372l-10.437.484c-.976 23.532-4.117 60.656-4.627 66.602z" fill="#360815"/><path d="M205.526 1440.873s3.713-42.594 4.731-68.283l14.017 1.879c1.993 22.384 4.575 57.403 15.207 74.952.112.184-20.554-4.525-33.955-8.548z" fill="#9797f7"/><path d="M278.576 1457.698a2.5 2.5 0 0 1-2.499-2.463c-.489-32.759-26.56-71.593-64.592-77.19a2.5 2.5 0 1 1 .728-4.946c40.549 5.968 68.344 47.25 68.863 82.062a2.5 2.5 0 0 1-2.462 2.537z" fill="#fff"/><path d="M210.295 1373.593c-.258 0-.523-.098-.709-.276a1.021 1.021 0 0 1-.331-.724v-.15c.138-7.375.594-18.813 1.077-30.922l.343-8.657c.654-16.512 1.319-34.648.931-40.858a.995.995 0 0 1 .284-.762.974.974 0 0 1 .756-.299c.054.002 5.537.233 14.397.49 27.498.799 95.642 2.059 134.42-3.48a1 1 0 0 1 1.126 1.166c-1.671 9.36-3.617 22.035-5.784 37.671a2330.55 2330.55 0 0 0-5.037 38.898 2.19 2.19 0 0 1-.042.232 1.02 1.02 0 0 1-.922.762l-140.46 6.91-.05.001zm3.363-80.607c.269 7.131-.362 24.277-.983 39.956l-.344 8.658c-.463 11.604-.901 22.591-1.057 29.942l14.692-.728 123.905-6.089c.427-3.543 2.391-19.676 4.955-38.209 2.068-14.921 3.935-27.153 5.556-36.392-39.142 5.341-106.164 4.1-133.395 3.309-6.583-.191-11.306-.367-13.329-.446z" fill="#112c41"/><path d="M324.391 1458.709c-24.164 0-49.596-2.176-74.916-6.586-15.764-2.75-30.647-6.212-44.237-10.292a1 1 0 0 1-.709-1.045c.037-.426 3.723-42.864 4.729-68.236a1 1 0 0 1 .953-.959l11.35-.526c1.267-.062 126.725-6.174 129.073-6.37.196-.025.398.009.578.1 9.186 4.662 55.553 30.393 66.289 79.324a1 1 0 0 1-.646 1.158c-25.369 8.896-57.591 13.431-92.463 13.431zm-117.799-18.561c13.303 3.956 27.841 7.321 43.227 10.004 61.137 10.648 122.92 8.224 165.534-6.47-11.014-47.919-58.37-73.679-64.827-76.992-2.644.169-19.343 1.036-128.869 6.372l-10.437.484c-.976 23.532-4.117 60.656-4.627 66.602z" fill="#112c41"/><path d="M419.957 1467.232c.024 1.597-.505 3.029-1.895 4.143-25.292 20.286-148.363 21.907-207.877.313-5.098-1.85-6.173-4.841-6.361-8.159l1.701-22.655c59.396 17.809 148.651 25.321 210.998 3.461 1.894 7.786 3.324 15.685 3.434 22.898z" fill="#fff"/><path d="M323.961 1488.245c-44.577 0-87.051-5.797-114.116-15.617-5.853-2.124-6.833-5.763-7.018-9.043a.97.97 0 0 1 .001-.132l1.701-22.655a1 1 0 0 1 1.285-.883c57.192 17.148 147.422 25.55 210.38 3.475a.997.997 0 0 1 1.302.708c2.232 9.175 3.365 16.738 3.462 23.119.031 2.044-.732 3.706-2.269 4.938-12.043 9.659-47.19 15.821-91.725 16.081a501.51 501.51 0 0 1-3.003.009zm-119.134-24.708c.191 3.159 1.246 5.595 5.7 7.211 29.469 10.693 72.777 15.514 112.495 15.515 43.084.001 81.949-5.669 94.415-15.667 1.045-.838 1.542-1.933 1.521-3.348-.092-5.982-1.122-13.06-3.149-21.606-62.889 21.615-152.148 13.448-209.379-3.455l-1.603 21.351z" fill="#112c41"/><path d="M211.676 1332.903c47.47 2.45 108.98 2.26 144.14-6.25-2.73 19.74-4.86 37.37-5.04 38.92-.01.07-.02.11-.02.11-37.9 10.72-98.25 14.7-140.46 6.91-.01-.01-.03-.01-.04-.01v-.14z" fill="#fff"/><path d="M260.987 1377.637c-18.375 0-36.019-1.32-50.873-4.061a1.008 1.008 0 0 1-.079-.018 1 1 0 0 1-.78-.976v-.14l1.421-39.576a.997.997 0 0 1 1.051-.962c22.844 1.179 100.729 4.214 143.853-6.223a1.002 1.002 0 0 1 1.226 1.108 2322.372 2322.372 0 0 0-5.037 38.898 2.356 2.356 0 0 1-.043.237 1.03 1.03 0 0 1-.698.72c-25.315 7.16-58.736 10.992-90.041 10.992zm-49.706-5.881c39.688 7.138 98.92 4.212 138.569-6.857.366-3.054 2.255-18.619 4.775-36.937-43.022 9.953-118.132 7.193-141.987 5.991z" fill="#112c41"/><circle cx="338.501" cy="1394.097" fill="#ffe993" r="8.5"/><path d="M339.861 1396.716c15.301-.32 31.588-8.739 36.182-13.311a2.833 2.833 0 0 0-3.996-4.016c-3.527 3.51-19.059 11.704-33.189 11.671a2.832 2.832 0 0 0-.018 5.664c.339.001.68-.002 1.019-.009z" fill="#fff"/><path d="M338.992 1397.725h-.153c-1.023-.003-1.984-.405-2.706-1.131s-1.117-1.689-1.114-2.713c.006-2.111 1.721-3.843 3.843-3.821h.084c13.831 0 28.969-7.969 32.397-11.38a3.838 3.838 0 0 1 5.42.013 3.837 3.837 0 0 1-.013 5.419c-4.726 4.704-21.088 13.272-36.866 13.602-.296.006-.594.009-.89.009zm-.139-5.664a1.836 1.836 0 0 0-1.835 1.826c-.001.49.188.95.533 1.297s.804.539 1.294.541c.333 0 .664-.002.995-.009 15.033-.314 31.1-8.643 35.498-13.02a1.834 1.834 0 0 0 .006-2.591 1.835 1.835 0 0 0-2.592-.006c-3.603 3.585-19.433 11.962-33.809 11.962-.03 0-.053.002-.09 0z" fill="#112c41"/><circle cx="355.69" cy="1414.763" fill="#ffe993" r="8.5"/><path d="M357.127 1417.34c15.285-.773 32.346-11.655 36.803-16.361a2.832 2.832 0 1 0-4.113-3.895c-3.422 3.613-19.735 14.248-33.859 14.633a2.835 2.835 0 0 0-2.756 2.906 2.833 2.833 0 0 0 2.906 2.756 43.57 43.57 0 0 0 1.019-.039z" fill="#fff"/><path d="M356.031 1418.38a3.836 3.836 0 0 1-3.828-3.73 3.838 3.838 0 0 1 3.728-3.932c14.065-.384 30.016-11.001 33.16-14.321 1.454-1.534 3.884-1.6 5.418-.147s1.6 3.884.147 5.418c-4.184 4.417-21.475 15.863-37.479 16.672-.347.017-.696.031-1.043.04l-.104.001zm35.843-21.18c-.486 0-.971.192-1.332.572-3.281 3.465-19.914 14.545-34.557 14.945a1.835 1.835 0 0 0-1.783 1.88c.013.489.216.944.571 1.281s.822.517 1.309.502c.332-.009.664-.021.995-.038 15.441-.781 32.1-11.798 36.127-16.05a1.835 1.835 0 0 0-.071-2.591 1.826 1.826 0 0 0-1.259-.501z" fill="#112c41"/><path d="M625.566 1376.117a833.657 833.657 0 0 0-4.062-38.898l-.017-.218c-.013-.084-.017-.167-.024-.23-1.696-13.24-3.328-26.096-4.847-37.309 0 0 92.618-8.256 142.266-19.097 1.393 12.525 2.48 22.895 3.407 36.203 1.599 22.877 2.902 42.418 2.902 42.418l-139.624 17.131z" fill="#ffd6c0"/><path d="m631.08 1289.459 10.154 84.897c-3.59 3.036-10.488 8.996-13.209 10.606-4.242-33.868-11.381-90.639-11.381-90.639l14.437-4.864z" fill="#f5b9ab"/><path d="M625.566 1377.117a1.001 1.001 0 0 1-.997-.919c-1.053-13.048-2.343-25.393-4.057-38.852l-.021-.252a2.164 2.164 0 0 1-.017-.157l-.652-5.109c-1.478-11.55-2.873-22.458-4.197-32.23a.999.999 0 0 1 .902-1.13c.926-.083 93.124-8.374 142.141-19.078a.998.998 0 0 1 1.207.867c1.297 11.656 2.448 22.429 3.411 36.244 1.581 22.617 2.889 42.226 2.902 42.421a1 1 0 0 1-.876 1.059l-139.624 17.131a.998.998 0 0 1-.122.007zm-7.82-76.753c1.283 9.511 2.633 20.062 4.059 31.209l.649 5.072.012.118c.004.026.016.136.018.162l.017.221a826.29 826.29 0 0 1 3.977 37.853l137.651-16.889c-.28-4.18-1.455-21.673-2.838-41.471-.929-13.341-2.037-23.844-3.281-35.06-46.538 10.001-129.975 17.842-140.263 18.786z" fill="#112c41"/><path d="M836.516 1432.627c-46.913 20.405-111.208 24.417-165.936 18.956-15.954-1.596-31.093-3.985-44.752-7.019 0 0 .597-42.751-.261-68.447l11.281-1.352s128.011-15.653 128.343-15.779c10.313 4.319 57.428 26.898 71.325 73.641z" fill="#b2b0f7"/><path d="M714.852 1454.792a447.84 447.84 0 0 1-44.372-2.214c-15.924-1.593-31.02-3.961-44.87-7.038a1 1 0 0 1-.783-.99c.006-.427.587-43.022-.261-68.399a1 1 0 0 1 .881-1.026l11.281-1.352c1.259-.154 125.923-15.398 128.264-15.766a1 1 0 0 1 .584.058c9.501 3.979 57.621 26.26 71.898 74.278a1 1 0 0 1-.56 1.202c-31.782 13.824-75.451 21.248-122.062 21.248zm-88.014-11.029c13.555 2.975 28.3 5.271 43.841 6.825 61.751 6.162 123.193-.763 164.621-18.525-14.48-46.989-63.588-69.226-70.27-72.059-2.622.361-19.208 2.443-128.062 15.753L626.594 1377c.743 23.541.317 60.795.242 66.762z" fill="#360815"/><path d="M626.04 1444.606s.597-42.751-.261-68.447l14.116.852c3.62 22.179 8.749 56.916 20.633 73.643.125.176-20.829-3.014-34.488-6.048z" fill="#9797f7"/><path d="M699.726 1456.022a2.5 2.5 0 0 1-2.487-2.281c-2.871-32.57-33.345-70.346-69.831-72.153a2.499 2.499 0 1 1 .247-4.993c40.133 1.987 71.507 42.021 74.564 76.708a2.5 2.5 0 0 1-2.493 2.72z" fill="#fff"/><path d="M714.852 1454.792a447.84 447.84 0 0 1-44.372-2.214c-15.924-1.593-31.02-3.961-44.87-7.038a1 1 0 0 1-.783-.99c.006-.427.587-43.022-.261-68.399a1 1 0 0 1 .881-1.026l11.281-1.352c1.259-.154 125.923-15.398 128.264-15.766a1 1 0 0 1 .584.058c9.501 3.979 57.621 26.26 71.898 74.278a1 1 0 0 1-.56 1.202c-31.782 13.824-75.451 21.248-122.062 21.248zm-88.014-11.029c13.555 2.975 28.3 5.271 43.841 6.825 61.751 6.162 123.193-.763 164.621-18.525-14.48-46.989-63.588-69.226-70.27-72.059-2.622.361-19.208 2.443-128.062 15.753L626.594 1377c.743 23.541.317 60.795.242 66.762z" fill="#112c41"/><path d="M841.611 1455.213c.141 1.591-.283 3.058-1.587 4.27-23.746 22.076-146.37 32.669-207.301 15.473-5.219-1.473-6.509-4.378-6.939-7.674l.044-22.719c60.536 13.429 150.102 14.413 210.688-11.937 2.457 7.627 4.459 15.401 5.095 22.586z" fill="#fff"/><path d="M710.857 1484.524c-30.623 0-58.431-2.968-78.406-8.605-5.992-1.691-7.234-5.249-7.659-8.507a.95.95 0 0 1-.008-.131l.044-22.719a.998.998 0 0 1 1.217-.975c58.29 12.931 148.892 14.73 210.073-11.877a1.001 1.001 0 0 1 1.351.611c2.896 8.989 4.577 16.448 5.139 22.805.18 2.037-.46 3.75-1.903 5.091-11.306 10.512-45.91 19.22-90.308 22.728a504.162 504.162 0 0 1-39.54 1.58zm-84.073-17.307c.421 3.137 1.652 5.49 6.211 6.776 62.898 17.751 183.854 5.67 206.348-15.243.981-.912 1.397-2.04 1.272-3.45-.528-5.959-2.072-12.942-4.716-21.319-61.145 26.145-150.763 24.509-209.073 11.824l-.042 21.411z" fill="#112c41"/><path d="M625.567 1376.112c42.664 4.695 102.596-3.675 139.624-17.126 0 0-1.149-16.069-2.458-36.079-.044-.694-.094-1.395-.145-2.096s-.101-1.402-.144-2.11a740.17 740.17 0 0 1-.151-2.132c-34.46 11.923-91.701 18.992-140.85 19.918 0 0 .012.099.023.283.006.064.004.149.024.227.006.078.004.149.017.22a834.49 834.49 0 0 1 4.06 38.896z" fill="#fff"/><path d="M651.363 1378.405c-9.19 0-17.924-.42-25.906-1.298a.999.999 0 0 1-.887-.913 828.792 828.792 0 0 0-4.055-38.85 1.674 1.674 0 0 1-.02-.226 2.23 2.23 0 0 1-.024-.235 5.013 5.013 0 0 0-.021-.276 1 1 0 0 1 .974-1.119c53.409-1.007 108.575-8.804 140.542-19.864a.997.997 0 0 1 1.324.875l.151 2.13c.044.715.094 1.412.144 2.11.051.708.102 1.41.146 2.105a6545.017 6545.017 0 0 0 2.458 36.071.999.999 0 0 1-.656 1.011c-31.541 11.458-76.615 18.479-114.169 18.479zm-24.866-3.198c40.075 4.224 98.887-2.997 137.643-16.905a6877.297 6877.297 0 0 1-2.405-35.331c-.044-.691-.094-1.387-.144-2.084-.051-.71-.102-1.415-.145-2.126l-.059-.827c-32.098 10.824-86.258 18.45-138.838 19.531 1.658 13.083 2.915 25.095 3.948 37.741z" fill="#112c41"/><circle cx="755.038" cy="1388.214" fill="#ffe993" r="8.5"/><path d="M756.585 1390.726c15.237-1.435 30.866-11.019 35.115-15.914a2.834 2.834 0 0 0-4.278-3.714c-3.262 3.758-18.155 13.063-32.249 14.06a2.832 2.832 0 1 0 .396 5.65c.338-.024.678-.051 1.016-.083z" fill="#fff"/><path d="M755.368 1391.817a3.837 3.837 0 0 1-3.82-3.564 3.838 3.838 0 0 1 3.554-4.09c13.819-.978 28.389-10.059 31.565-13.719a3.836 3.836 0 0 1 5.406-.382 3.836 3.836 0 0 1 .382 5.406c-4.371 5.036-20.065 14.775-35.776 16.254a45.52 45.52 0 0 1-1.04.085 4.11 4.11 0 0 1-.27.01zm34.195-20.692c-.513 0-1.023.214-1.385.63-3.338 3.846-18.57 13.386-32.933 14.402a1.832 1.832 0 1 0 .256 3.655c.33-.023.662-.05.992-.081 14.969-1.41 30.386-10.888 34.454-15.574a1.835 1.835 0 0 0-.183-2.585 1.825 1.825 0 0 0-1.199-.448z" fill="#112c41"/><circle cx="773.688" cy="1407.571" fill="#ffe993" r="8.5"/><path d="M775.309 1410.036c15.188-1.886 31.41-13.983 35.512-19.001a2.832 2.832 0 1 0-4.386-3.584c-3.149 3.853-18.643 15.649-32.702 17.064a2.832 2.832 0 1 0 .564 5.636 43.56 43.56 0 0 0 1.013-.113z" fill="#fff"/><path d="M774.007 1411.164a3.8 3.8 0 0 1-2.419-.867 3.804 3.804 0 0 1-1.386-2.585 3.84 3.84 0 0 1 3.431-4.194c14-1.408 29.135-13.161 32.028-16.701a3.837 3.837 0 0 1 5.392-.542 3.837 3.837 0 0 1 .542 5.392c-3.85 4.711-20.26 17.387-36.162 19.361-.345.043-.692.082-1.038.116-.13.013-.259.019-.387.019zm34.622-23.753a1.83 1.83 0 0 0-1.421.672c-3.02 3.695-18.8 15.959-33.376 17.425a1.836 1.836 0 0 0-1.641 2.006c.049.487.284.926.663 1.236s.854.454 1.342.405c.33-.033.66-.07.989-.111 15.344-1.905 31.155-14.108 34.86-18.642a1.835 1.835 0 0 0-.259-2.578 1.82 1.82 0 0 0-1.157-.413z" fill="#112c41"/><path d="M759.006 1281.473c-4.6 2.53-106.4 15.47-138.71 18.46-.8.07-1.74.15-2.74.23-4.51.37-10.5.78-12.95.78-2.81 0-5.07-.82-6.71-2.27-.03-.03-.06-.05-.08-.08-1.23-1.13-2.09-2.63-2.55-4.42-.17-.67-.34-1.34-.52-2.01-59.5-232.13-112.32-365.46-173.14-449.22-3.29 55.18-45 370-60.42 448.4-50.31 4.32-93.94 4.58-144.1 2.33-.01 0-.01-.01-.02-.01-1.76-.08-6.96-.58-11.58-1.38-2.25-.38-4.36-.83-5.88-1.34-2.06-.69-3.65-1.85-4.32-3.66-.02-.03-.02-.06-.03-.09-.28-.81-.38-1.75-.26-2.83s.24-2.16.35-3.23c24.52-225.31 28.74-291.94 18.26-407.19-12-132 12.04-198.85 69-241 39.84-29.48 110.8-38.01 171.88-14.96 15.57 5.87 30.51 13.8 44.12 23.96 161 120.15 238 437 260.4 639.53z" fill="#ffa9dc"/><path d="M604.606 1301.943c-2.958 0-5.507-.872-7.372-2.521-.043-.039-.092-.082-.141-.136-1.348-1.256-2.288-2.892-2.795-4.864-.17-.669-.338-1.334-.517-2-57.212-223.206-110.136-361.192-171.359-446.639-4.392 62.029-44.765 367-60.254 445.752a.999.999 0 0 1-.896.803c-47.198 4.052-90.332 4.75-144.23 2.333a1.01 1.01 0 0 1-.144-.017c-1.918-.101-6.958-.586-11.582-1.386-2.567-.433-4.597-.897-6.028-1.377-2.547-.853-4.209-2.287-4.94-4.261a1.372 1.372 0 0 1-.062-.193c-.313-.893-.417-1.992-.285-3.184.126-1.139.242-2.185.349-3.221 24.016-220.676 28.946-289.476 18.259-406.997-5.919-65.106-3.08-115.667 8.679-154.574 11.257-37.248 30.552-64.995 60.722-87.321 19.83-14.673 47.699-24.393 78.473-27.37 32.19-3.114 64.818 1.132 94.354 12.278 16.207 6.11 31.134 14.217 44.365 24.094 38.097 28.431 73.665 69.618 105.716 122.417 28.382 46.755 54.222 102.916 76.804 166.925 50.023 141.793 70.514 280.7 78.276 350.88a1 1 0 0 1-.512.986c-5.05 2.778-108.813 15.777-139.1 18.58-.807.07-1.75.151-2.752.231-4.753.39-10.626.783-13.03.783zm-6.041-4.013.038.036c1.471 1.298 3.505 1.977 6.003 1.977 2.347 0 8.154-.39 12.868-.777.999-.08 1.937-.16 2.735-.23 31.325-2.899 128.293-15.235 137.719-18.114-7.816-70.334-28.313-208.58-78.09-349.675-48.523-137.542-109.7-234.575-181.83-288.404-13.081-9.765-27.843-17.781-43.875-23.826-57.904-21.851-129.791-15.615-170.933 14.828-60.18 44.532-80.054 114.096-68.599 240.105 10.703 117.701 5.771 186.561-18.262 407.389-.106 1.036-.223 2.087-.34 3.139-.11.988-.039 1.793.201 2.486l.017.054.006.015c.51 1.378 1.755 2.407 3.7 3.059 1.333.447 3.26.885 5.729 1.302 4.626.801 9.826 1.293 11.459 1.367.046.002.093.008.138.016 53.488 2.393 96.335 1.715 143.1-2.27 15.835-81.135 56.989-392.702 60.258-447.527a1 1 0 0 1 1.808-.527c31.144 42.891 59.664 98.236 87.188 169.197 28.268 72.878 56.435 164.585 86.112 280.362.178.663.349 1.338.52 2.012.414 1.611 1.174 2.934 2.257 3.929.025.023.05.048.072.074z" fill="#112c41"/><path d="M454.486 617.983c-50.35-14.65-100.25-2.51-142.88 27.96-57.31 40.98-78 91-75 218 2.89 122.23-1 162-29.06 420.33-.34 3.11 3.94 6.84 7.51 8.6.18.03.37.06.55.07-.15-.01-.29-.01-.44-.02.4.19.79.36 1.16.49l-1.55-.51c-3.37-.15-6.98-.42-9.29-.62-1.38-.11-2.3-.2-2.44-.22-.19-.04-6.32-.1-7.76-4.78-.02-.03-.02-.06-.03-.09-.22-.72-.32-1.56-.27-2.53.01-.1.01-.2.01-.3.12-1.08.24-2.16.35-3.23 24.52-225.31 28.74-291.94 18.26-407.19-12-132 12.04-198.85 69-241 39.84-29.48 110.8-38.01 171.88-14.96zm164.74 682.25c-3.63.39-10.55.77-13.67 1.06-.21.02-.4.04-.57.06-2.77.3-5.31-.78-7.09-2.68-.03-.03-.06-.05-.08-.08a9.617 9.617 0 0 1-2.13-3.77c-.26-.85-.57-1.74-.94-2.66-59.5-232.13-112.32-365.46-173.14-449.22 0-10 2-23 4-28 36 26 67.738 77.438 103 177 34 96 70.63 253.75 78.69 298.51 1.25 6.93 5.72 9.1 9.54 9.63.24.04.48.06.72.08.58.06 1.15.08 1.67.07z" fill="#ff90d8"/><path d="m421.606 843.943-.051-.001a1 1 0 0 1-.949-1.049c1.018-20.35 5.085-34.394 13.19-45.538a1 1 0 1 1 1.618 1.176c-7.862 10.811-11.813 24.523-12.81 44.462a1 1 0 0 1-.998.95z" fill="#112c41"/><path d="M604.606 1301.943c-2.958 0-5.507-.872-7.372-2.521-.043-.039-.092-.082-.141-.136-1.348-1.256-2.288-2.892-2.795-4.864-.17-.669-.338-1.334-.517-2-57.212-223.206-110.136-361.192-171.359-446.639-4.392 62.029-44.765 367-60.254 445.752a.999.999 0 0 1-.896.803c-47.198 4.052-90.332 4.75-144.23 2.333a1.01 1.01 0 0 1-.144-.017c-1.918-.101-6.958-.586-11.582-1.386-2.567-.433-4.597-.897-6.028-1.377-2.547-.853-4.209-2.287-4.94-4.261a1.372 1.372 0 0 1-.062-.193c-.313-.893-.417-1.992-.285-3.184.126-1.139.242-2.185.349-3.221 24.016-220.676 28.946-289.476 18.259-406.997-5.919-65.106-3.08-115.667 8.679-154.574 11.257-37.248 30.552-64.995 60.722-87.321 19.83-14.673 47.699-24.393 78.473-27.37 32.19-3.114 64.818 1.132 94.354 12.278 16.207 6.11 31.134 14.217 44.365 24.094 38.097 28.431 73.665 69.618 105.716 122.417 28.382 46.755 54.222 102.916 76.804 166.925 50.023 141.793 70.514 280.7 78.276 350.88a1 1 0 0 1-.512.986c-5.05 2.778-108.813 15.777-139.1 18.58-.807.07-1.75.151-2.752.231-4.753.39-10.626.783-13.03.783zm-6.041-4.013.038.036c1.471 1.298 3.505 1.977 6.003 1.977 2.347 0 8.154-.39 12.868-.777.999-.08 1.937-.16 2.735-.23 31.325-2.899 128.293-15.235 137.719-18.114-7.816-70.334-28.313-208.58-78.09-349.675-48.523-137.542-109.7-234.575-181.83-288.404-13.081-9.765-27.843-17.781-43.875-23.826-57.904-21.851-129.791-15.615-170.933 14.828-60.18 44.532-80.054 114.096-68.599 240.105 10.703 117.701 5.771 186.561-18.262 407.389-.106 1.036-.223 2.087-.34 3.139-.11.988-.039 1.793.201 2.486l.017.054.006.015c.51 1.378 1.755 2.407 3.7 3.059 1.333.447 3.26.885 5.729 1.302 4.626.801 9.826 1.293 11.459 1.367.046.002.093.008.138.016 53.488 2.393 96.335 1.715 143.1-2.27 15.835-81.135 56.989-392.702 60.258-447.527a1 1 0 0 1 1.808-.527c31.144 42.891 59.664 98.236 87.188 169.197 28.268 72.878 56.435 164.585 86.112 280.362.178.663.349 1.338.52 2.012.414 1.611 1.174 2.934 2.257 3.929.025.023.05.048.072.074z" fill="#112c41"/><path d="M644.835 478.75a102.591 102.591 0 0 1-2.572 5.276c-12.674 24.401-48.614 76.411-97.28 110.206-4.298-2.776-8.078-5.314-11.308-7.48l-1.665-1.121c-19.448 19.424-44.265 33.299-71.667 39.62a.075.075 0 0 1-.052.012c-18.074 4.173-37.276 5.051-56.79 2.057-39.568-6.064-73.137-26.923-95.755-55.96 0 0-12.421-1.645-31.789-1.796-9.946-.076-21.73.234-34.605 1.374a316.01 316.01 0 0 0-7.858.776c-16.377-23.617-61.171-105.764-60.259-139.898.06-2.634.405-4.978 1.051-6.996.039-.137.09-.257.14-.377.899-2.582 2.33-4.573 4.356-5.88.066-.046.17-.106.291-.177.002-.014.019-.025.033-.023a70.967 70.967 0 0 1 1.857-1.13c.264-.146.549-.296.857-.448.253-.127.528-.256.803-.386 17.821-8.293 94.228-28.371 196.432-23.076a661.791 661.791 0 0 1 30.695 2.323c.77.075 1.551.166 2.335.243 9.71.982 19.603 2.227 29.655 3.738.504.077.979.149 1.447.226.323.044.651.096.979.149 1.936.3 3.886.603 5.84.928a632.483 632.483 0 0 1 57.217 12.054c43.52 11.306 88.851 28.086 134.314 52.234 6.726 3.575 5.698 8.218 3.299 13.532z" fill="#ffe993"/><path d="M426.657 630.099c-7.75 0-15.53-.596-23.308-1.789-38.315-5.872-72.441-25.757-96.137-56.007-2.284-.276-14.1-1.604-31.263-1.737a360.873 360.873 0 0 0-34.509 1.37c-2.566.221-5.202.481-7.836.774a.999.999 0 0 1-.932-.424c-17.938-25.868-61.328-107.133-60.436-140.494.063-2.743.432-5.192 1.098-7.274a4.05 4.05 0 0 1 .167-.451c.97-2.792 2.571-4.942 4.739-6.341.036-.026.122-.078.226-.14a1.048 1.048 0 0 1 .189-.118 70.253 70.253 0 0 1 1.823-1.107c.276-.153.575-.31.898-.47.257-.128.539-.262.821-.395 20.219-9.409 97.863-28.3 196.911-23.171a664.71 664.71 0 0 1 30.742 2.327c.402.039.81.083 1.219.127l1.115.116c9.726.983 19.72 2.243 29.706 3.744l.125.019c.463.07.903.137 1.336.209.302.041.637.094.973.147 1.936.3 3.89.604 5.846.929a635.876 635.876 0 0 1 57.304 12.073c46.8 12.159 92.063 29.761 134.532 52.319 7.764 4.126 6.003 9.815 3.742 14.824-.69 1.545-1.54 3.288-2.597 5.327-12.025 23.152-47.899 76.055-97.598 110.567a.998.998 0 0 1-1.113.019c-4.161-2.688-7.792-5.122-10.995-7.27l-1.313-.883c-19.702 19.462-44.431 33.047-71.565 39.307l-.052.012a150.237 150.237 0 0 1-33.858 3.861zM273.13 568.555c.945 0 1.889.003 2.834.011 19.208.149 31.788 1.788 31.913 1.804.26.035.496.17.658.377 23.391 30.03 57.171 49.771 95.117 55.586 18.96 2.909 37.941 2.221 56.413-2.043l.029-.006.024-.006c27.038-6.237 51.654-19.845 71.186-39.353a1 1 0 0 1 1.265-.122l1.991 1.339a750.763 750.763 0 0 0 10.403 6.886c49.092-34.296 84.511-86.549 96.413-109.463a102.366 102.366 0 0 0 2.546-5.223l.002-.004c2.531-5.606 2.826-9.217-2.857-12.237-42.331-22.484-87.448-40.029-134.096-52.149a633.53 633.53 0 0 0-57.127-12.035c-1.953-.325-3.899-.627-5.832-.927a42.582 42.582 0 0 0-.961-.146c-.453-.075-.885-.14-1.339-.209l-.124-.019a619.127 619.127 0 0 0-29.606-3.731l-1.129-.118c-.403-.043-.803-.086-1.201-.125a663.767 663.767 0 0 0-30.651-2.32c-98.675-5.11-175.885 13.644-195.958 22.984a41.18 41.18 0 0 0-.778.374c-.296.147-.568.289-.819.428a67.59 67.59 0 0 0-1.867 1.139c-.13.076-.189.11-.229.138-1.813 1.171-3.143 2.977-3.982 5.387-.059.147-.096.229-.122.322-.617 1.93-.955 4.189-1.013 6.745-.875 32.733 41.712 112.583 59.742 138.816 2.452-.268 4.902-.508 7.289-.713a362.656 362.656 0 0 1 31.864-1.388z" fill="#112c41"/><path d="M440.597 399.471c-49.302-6.554-160.94-3.36-243.079 32.618-.398-.381-.799-.748-1.18-1.105-.248-.217-.488-.441-.73-.65-4.97-4.342-8.939-6.153-11.431-4.851-2.055 1.072-2.931 4.162-2.762 8.863.014.319.026.651.051.987.004.058.008.116.017.183-4.622 1.003-7.289 1.598-7.548 1.644-.438-1.948-.662-3.727-.7-5.344-.095-2.769.331-5.085 1.051-6.996.039-.137.09-.257.14-.377a14.087 14.087 0 0 1 4.647-6.057c.002-.014.019-.025.033-.023a70.967 70.967 0 0 1 1.857-1.13c.264-.146.549-.296.857-.448.253-.127.528-.256.803-.386 17.821-8.293 94.228-28.371 196.432-23.076a661.791 661.791 0 0 1 30.695 2.323c.77.075 1.551.166 2.335.243a924.158 924.158 0 0 1 28.513 3.581zm3.627.564c-.334-.06-.69-.118-1.038-.181.323.044.651.096.979.149zm-167.082 95.954s2.255 16.295 5.52 27.185c.344 1.12.682 2.228 1.05 3.337l.231.395a170.81 170.81 0 0 0 4.356 11.449l1.04 2.327c19.829 44.583 61.726 78.605 114.163 86.641 19.515 2.988 38.714 2.114 56.785-2.057-67.666 9.399-130.472-37.179-159.923-108.41-2.28-5.516-17.415-19.275-23.222-20.868z" fill="#ffd169"/><g fill="#112c41"><path d="M457.829 402.389c.03.136.06.272.082.413.946 2.264 1.273 4.589.88 6.876-1.92 11.018-19.828 17.098-40.012 13.592-20.19-3.514-35.006-15.27-33.095-26.283a11.343 11.343 0 0 1 1.375-3.739l.003-.014a650.822 650.822 0 0 1 62.532 7.672c.502.088.976.17 1.441.257.322.051.649.11.976.17a540.4 540.4 0 0 1 5.818 1.055z"/><path d="M426.657 630.099c-7.75 0-15.53-.596-23.308-1.789-38.315-5.872-72.441-25.757-96.137-56.007-2.284-.276-14.1-1.604-31.263-1.737a360.873 360.873 0 0 0-34.509 1.37c-2.566.221-5.202.481-7.836.774a.999.999 0 0 1-.932-.424c-17.938-25.868-61.328-107.133-60.436-140.494.063-2.743.432-5.192 1.098-7.274a4.05 4.05 0 0 1 .167-.451c.97-2.792 2.571-4.942 4.739-6.341.036-.026.122-.078.226-.14a1.048 1.048 0 0 1 .189-.118 70.253 70.253 0 0 1 1.823-1.107c.276-.153.575-.31.898-.47.257-.128.539-.262.821-.395 20.219-9.409 97.863-28.3 196.911-23.171a664.71 664.71 0 0 1 30.742 2.327c.402.039.81.083 1.219.127l1.115.116c9.726.983 19.72 2.243 29.706 3.744l.125.019c.463.07.903.137 1.336.209.302.041.637.094.973.147 1.936.3 3.89.604 5.846.929a635.876 635.876 0 0 1 57.304 12.073c46.8 12.159 92.063 29.761 134.532 52.319 7.764 4.126 6.003 9.815 3.742 14.824-.69 1.545-1.54 3.288-2.597 5.327-12.025 23.152-47.899 76.055-97.598 110.567a.998.998 0 0 1-1.113.019c-4.161-2.688-7.792-5.122-10.995-7.27l-1.313-.883c-19.702 19.462-44.431 33.047-71.565 39.307l-.052.012a150.237 150.237 0 0 1-33.858 3.861zM273.13 568.555c.945 0 1.889.003 2.834.011 19.208.149 31.788 1.788 31.913 1.804.26.035.496.17.658.377 23.391 30.03 57.171 49.771 95.117 55.586 18.96 2.909 37.941 2.221 56.413-2.043l.029-.006.024-.006c27.038-6.237 51.654-19.845 71.186-39.353a1 1 0 0 1 1.265-.122l1.991 1.339a750.763 750.763 0 0 0 10.403 6.886c49.092-34.296 84.511-86.549 96.413-109.463a102.366 102.366 0 0 0 2.546-5.223l.002-.004c2.531-5.606 2.826-9.217-2.857-12.237-42.331-22.484-87.448-40.029-134.096-52.149a633.53 633.53 0 0 0-57.127-12.035c-1.953-.325-3.899-.627-5.832-.927a42.582 42.582 0 0 0-.961-.146c-.453-.075-.885-.14-1.339-.209l-.124-.019a619.127 619.127 0 0 0-29.606-3.731l-1.129-.118c-.403-.043-.803-.086-1.201-.125a663.767 663.767 0 0 0-30.651-2.32c-98.675-5.11-175.885 13.644-195.958 22.984a41.18 41.18 0 0 0-.778.374c-.296.147-.568.289-.819.428a67.59 67.59 0 0 0-1.867 1.139c-.13.076-.189.11-.229.138-1.813 1.171-3.143 2.977-3.982 5.387-.059.147-.096.229-.122.322-.617 1.93-.955 4.189-1.013 6.745-.875 32.733 41.712 112.583 59.742 138.816 2.452-.268 4.902-.508 7.289-.713a362.656 362.656 0 0 1 31.864-1.388z"/><path d="M228.154 472.797c6.191 10.261 12.56 21.798 18.75 34.165.386.767.78 1.528 1.14 2.276a469.18 469.18 0 0 1 3.087 6.329c.159-.122 17.238 36.284 24.825 53.999-2.189-.015-4.236-.02-6.15-.007a362.93 362.93 0 0 0-28.455 1.381c-.011-.016-.029-.041-.032-.063-9.218-15.646-21.348-37.56-27.407-49.141-18.295-34.931-30.312-67.072-32.246-84.058a45.85 45.85 0 0 1-.201-2.343c-.026-.335-.037-.668-.051-.987-.169-4.702.706-7.791 2.762-8.863 2.492-1.302 6.462.509 11.431 4.851.242.209.482.432.73.65.739.68 1.513 1.409 2.298 2.191 8.233 8.188 18.632 22.114 29.519 39.621z"/><path d="M241.351 571.939a1 1 0 0 1-.91-.583c-9.36-15.888-21.516-37.882-27.416-49.158-17.654-33.705-30.353-66.837-32.354-84.408a48.516 48.516 0 0 1-.206-2.397c-.02-.262-.032-.539-.044-.809l-.008-.192c-.189-5.262.92-8.555 3.298-9.795 2.844-1.485 7.066.192 12.552 4.984.137.118.278.245.421.374l.311.278a81.246 81.246 0 0 1 2.344 2.233c8.301 8.256 18.836 22.391 29.663 39.802l.007.011c6.438 10.671 12.759 22.189 18.788 34.234l.337.666c.277.546.552 1.088.81 1.623a465.147 465.147 0 0 1 3.088 6.331l-.05.024c.795 1.241 2.8 5.449 9.722 20.385 3.039 6.557 10.601 22.961 15.17 33.628.133.31.1.666-.086.947-.187.281-.488.466-.84.447a469.744 469.744 0 0 0-6.136-.007c-9.523.091-19.071.554-28.374 1.377a.877.877 0 0 1-.088.004zM185.97 426.071c-.503 0-.948.099-1.331.299-1.613.842-2.382 3.587-2.226 7.941l.008.187c.011.248.021.503.041.76.044.749.11 1.513.198 2.31 1.974 17.342 14.589 50.198 32.138 83.703 5.833 11.148 17.793 32.793 27.1 48.617a364.812 364.812 0 0 1 27.899-1.329c1.467-.01 3.011-.01 4.636-.002-7.626-17.642-23.052-50.537-24.096-52.383a1.037 1.037 0 0 1-.107-.175 455.466 455.466 0 0 0-3.08-6.315c-.258-.535-.527-1.064-.797-1.598l-.341-.674c-6.006-11.998-12.3-23.467-18.71-34.092-10.746-17.281-21.177-31.286-29.371-39.435a80.633 80.633 0 0 0-2.27-2.164l-.313-.279c-.132-.118-.262-.236-.394-.349-3.77-3.293-6.882-5.021-8.984-5.021zm240.689 204.027c-7.749 0-15.528-.595-23.308-1.786-51.158-7.84-94.121-40.447-114.926-87.223-6.222-13.993-10.182-28.757-11.769-43.882a1 1 0 0 1 1.989-.209c1.565 14.917 5.47 29.477 11.607 43.278 20.527 46.151 62.919 78.323 113.401 86.059 18.97 2.905 37.949 2.218 56.409-2.043.026-.006.052-.011.079-.015 28.319-6.544 53.809-21.058 73.712-41.973a88.355 88.355 0 0 0 2.008-2.144 127.13 127.13 0 0 0 1.926-2.148 144.115 144.115 0 0 0 18.748-27.014 142.615 142.615 0 0 0 9.464-21.929 1 1 0 1 1 1.897.635 144.767 144.767 0 0 1-9.597 22.238c-5.232 9.768-11.61 18.963-18.957 27.329s-.038.046-.079.091c-.663.761-1.294 1.457-1.921 2.143a87.97 87.97 0 0 1-2.045 2.184c-20.175 21.2-46.018 35.913-74.73 42.543v-.002l-.079.017a150.324 150.324 0 0 1-33.829 3.852z"/></g><path d="M228.154 472.797c6.191 10.261 12.56 21.798 18.75 34.165.386.767.78 1.528 1.14 2.276a469.18 469.18 0 0 1 3.087 6.329c.093-.077 6.257 12.954 12.82 27.228 4.391 9.562 8.965 19.667 12.005 26.771-2.189-.015-4.236-.02-6.15-.007-4.508.01-8.298.071-11.623.174-6.931.218-11.819.627-16.864 1.144-2.489.254-5.005.538-7.827.839-12.458 1.338-74.006 8.239-77.51 39.144-2.371 20.956 19.2 40.534 47.844 51.447.014.003.034.013.047.016 11.716 4.471 24.614 7.489 37.536 8.556 21.948 1.818 53.043-27.046 62.982-14.468 4.385 5.551 3.299 13.532-12.5 29.355 17.839 4.667 48.664 36.835 25.6 64.997 3.113 18.529-11.865 33.782-21.474 39.228-.876 12.776-16.861 33.596-41.34 29.883-21.157-3.205-32.718-21.754-29.905-31.298-79.67-14.408-230.245-93.85-223.556-198.274 6.033-94.137 128.773-139.072 180.25-154.968.176-.062.35-.109.518-.165a292.603 292.603 0 0 1 14.185-4.007l.169-.178c.739.68 1.513 1.409 2.298 2.191 8.233 8.188 18.632 22.114 29.519 39.621z" fill="#ffd6c0"/><path d="M260.438 821.318c-1.884 0-3.853-.142-5.91-.454-11.242-1.703-21.387-8.113-27.138-17.146-3.188-5.008-4.577-10.271-3.831-14.348-34.443-6.435-92.247-27.294-143.545-65.373C41.532 695.433-3.549 649.04.218 590.238c2.624-40.935 27.363-77.135 73.531-107.595 28.534-18.826 64.676-35.065 107.422-48.265.078-.028.189-.062.298-.096l.199-.063a293.614 293.614 0 0 1 13.976-3.956 1.001 1.001 0 0 1 1.371-.016 83.086 83.086 0 0 1 2.327 2.218c8.302 8.256 18.836 22.391 29.663 39.802l.007.011c6.438 10.671 12.759 22.189 18.788 34.234l.337.666c.277.546.552 1.088.81 1.623a465.147 465.147 0 0 1 3.088 6.331l-.079.038c.937 1.465 3.538 6.833 12.906 27.204 5.341 11.63 9.384 20.645 12.015 26.795.133.31.1.666-.087.947s-.488.466-.84.446a469.744 469.744 0 0 0-6.136-.007c-4.347.01-8.139.067-11.598.174-6.803.214-11.634.61-16.793 1.139a629.83 629.83 0 0 0-4.8.512l-3.022.327c-22.001 2.362-73.511 10.819-76.622 38.262-2.135 18.873 16.386 38.652 47.185 50.392l.018.006.052.018c11.849 4.522 24.734 7.459 37.261 8.494 9.734.805 21.728-4.778 32.312-9.705 13.666-6.362 25.469-11.856 31.372-4.386 5.361 6.788 1.848 15.916-11.404 29.493 11.38 3.792 25.997 16.774 31.11 32.5 3.842 11.817 1.651 23.31-6.333 33.262 2.783 18.165-11.162 33.436-21.579 39.55-.737 7.562-6.135 16.539-13.585 22.513-4.909 3.937-12.618 8.208-22.948 8.209zm-64.267-389.124a292.305 292.305 0 0 0-13.892 3.931l-.225.071c-.086.026-.172.052-.26.083-42.599 13.156-78.569 29.313-106.945 48.034-45.616 30.096-70.055 65.778-72.636 106.053-3.709 57.905 40.909 103.757 78.992 132.026 51.54 38.258 109.646 59.034 143.746 65.201a1.002 1.002 0 0 1 .781 1.267c-1.076 3.651.174 8.804 3.345 13.784 5.445 8.553 15.072 14.625 25.751 16.242 12.619 1.914 21.815-2.934 27.307-7.338 8.335-6.684 12.478-15.677 12.886-21.625.023-.335.212-.636.504-.802 10.056-5.699 23.941-20.574 20.981-38.193a1 1 0 0 1 .212-.799c7.764-9.48 9.929-20.451 6.263-31.728-4.989-15.344-20.234-28.762-31.343-31.668a1.002 1.002 0 0 1-.455-1.675c17.104-17.13 15.624-23.977 12.424-28.029-4.923-6.229-16.061-1.045-28.958 4.959-10.81 5.032-23.062 10.733-33.321 9.885-12.705-1.05-25.773-4.027-37.791-8.611l-.011-.004a.888.888 0 0 1-.055-.019c-31.693-12.074-50.723-32.68-48.481-52.494 3.156-27.841 50.473-37.028 78.396-40.026l3.018-.327c1.662-.181 3.243-.353 4.813-.513 5.201-.533 10.072-.932 16.934-1.148 3.479-.107 7.29-.164 11.652-.175 1.462-.01 3.005-.01 4.63-.002-2.623-6.072-6.45-14.586-11.391-25.345-6.515-14.168-12.111-25.98-12.707-27.039a1.028 1.028 0 0 1-.107-.174 455.466 455.466 0 0 0-3.08-6.315c-.258-.535-.527-1.064-.797-1.598l-.341-.674c-6.006-11.998-12.3-23.468-18.71-34.093-10.746-17.281-21.177-31.285-29.371-39.434a76.518 76.518 0 0 0-1.759-1.691z" fill="#112c41"/><path d="M224.773 788.577c24.95 3.094 37.289 10.358 37.289 10.358" fill="#ffd6c0"/><path d="M262.061 799.935a.994.994 0 0 1-.506-.138c-.122-.072-12.493-7.2-36.905-10.228a1 1 0 1 1 .246-1.984c24.87 3.084 37.162 10.188 37.673 10.489a.999.999 0 0 1-.509 1.861z" fill="#112c41"/><path d="M296.018 789.992c.558-14.99-8.745-23.141-13.808-26.932" fill="#ffd6c0"/><path d="M296.019 790.992h-.038a1 1 0 0 1-.962-1.037c.391-10.51-3.995-19.045-13.408-26.094a1 1 0 0 1 1.199-1.601c9.978 7.472 14.625 16.555 14.208 27.77a1 1 0 0 1-.999.963z" fill="#112c41"/><path d="M317.492 750.764c-2.729-12.71-10.059-20.225-15.133-23.579" fill="#ffd6c0"/><path d="M317.491 751.764c-.461 0-.876-.321-.977-.79-3.073-14.312-12.034-21.188-14.707-22.955a1 1 0 1 1 1.102-1.668c3.631 2.4 12.416 9.562 15.56 24.204a1 1 0 0 1-.979 1.21z" fill="#112c41"/><path d="M263.952 542.794c4.391 9.562 8.965 19.667 12.005 26.771-2.189-.015-4.236-.02-6.15-.007-4.508.01-8.298.071-11.623.174-6.931.218-11.819.627-16.864 1.144-2.489.254-5.005.538-7.827.839-12.458 1.338-74.006 8.239-77.51 39.144-2.371 20.956 19.2 40.534 47.844 51.447-37.519-8.567-67.434-30.561-60.248-62.316 6.446-28.486 53.151-51.459 120.373-57.197z" fill="#f5b9ab"/><path d="M260.438 821.318c-1.884 0-3.853-.142-5.91-.454-11.242-1.703-21.387-8.113-27.138-17.146-3.188-5.008-4.577-10.271-3.831-14.348-34.443-6.435-92.247-27.294-143.545-65.373C41.532 695.433-3.549 649.04.218 590.238c2.624-40.935 27.363-77.135 73.531-107.595 28.534-18.826 64.676-35.065 107.422-48.265.078-.028.189-.062.298-.096l.199-.063a293.614 293.614 0 0 1 13.976-3.956 1.001 1.001 0 0 1 1.371-.016 83.086 83.086 0 0 1 2.327 2.218c8.302 8.256 18.836 22.391 29.663 39.802l.007.011c6.438 10.671 12.759 22.189 18.788 34.234l.337.666c.277.546.552 1.088.81 1.623a465.147 465.147 0 0 1 3.088 6.331l-.079.038c.937 1.465 3.538 6.833 12.906 27.204 5.341 11.63 9.384 20.645 12.015 26.795.133.31.1.666-.087.947s-.488.466-.84.446a469.744 469.744 0 0 0-6.136-.007c-4.347.01-8.139.067-11.598.174-6.803.214-11.634.61-16.793 1.139a629.83 629.83 0 0 0-4.8.512l-3.022.327c-22.001 2.362-73.511 10.819-76.622 38.262-2.135 18.873 16.386 38.652 47.185 50.392l.018.006.052.018c11.849 4.522 24.734 7.459 37.261 8.494 9.734.805 21.728-4.778 32.312-9.705 13.666-6.362 25.469-11.856 31.372-4.386 5.361 6.788 1.848 15.916-11.404 29.493 11.38 3.792 25.997 16.774 31.11 32.5 3.842 11.817 1.651 23.31-6.333 33.262 2.783 18.165-11.162 33.436-21.579 39.55-.737 7.562-6.135 16.539-13.585 22.513-4.909 3.937-12.618 8.208-22.948 8.209zm-64.267-389.124a292.305 292.305 0 0 0-13.892 3.931l-.225.071c-.086.026-.172.052-.26.083-42.599 13.156-78.569 29.313-106.945 48.034-45.616 30.096-70.055 65.778-72.636 106.053-3.709 57.905 40.909 103.757 78.992 132.026 51.54 38.258 109.646 59.034 143.746 65.201a1.002 1.002 0 0 1 .781 1.267c-1.076 3.651.174 8.804 3.345 13.784 5.445 8.553 15.072 14.625 25.751 16.242 12.619 1.914 21.815-2.934 27.307-7.338 8.335-6.684 12.478-15.677 12.886-21.625.023-.335.212-.636.504-.802 10.056-5.699 23.941-20.574 20.981-38.193a1 1 0 0 1 .212-.799c7.764-9.48 9.929-20.451 6.263-31.728-4.989-15.344-20.234-28.762-31.343-31.668a1.002 1.002 0 0 1-.455-1.675c17.104-17.13 15.624-23.977 12.424-28.029-4.923-6.229-16.061-1.045-28.958 4.959-10.81 5.032-23.062 10.733-33.321 9.885-12.705-1.05-25.773-4.027-37.791-8.611l-.011-.004a.888.888 0 0 1-.055-.019c-31.693-12.074-50.723-32.68-48.481-52.494 3.156-27.841 50.473-37.028 78.396-40.026l3.018-.327c1.662-.181 3.243-.353 4.813-.513 5.201-.533 10.072-.932 16.934-1.148 3.479-.107 7.29-.164 11.652-.175 1.462-.01 3.005-.01 4.63-.002-2.623-6.072-6.45-14.586-11.391-25.345-6.515-14.168-12.111-25.98-12.707-27.039a1.028 1.028 0 0 1-.107-.174 455.466 455.466 0 0 0-3.08-6.315c-.258-.535-.527-1.064-.797-1.598l-.341-.674c-6.006-11.998-12.3-23.468-18.71-34.093-10.746-17.281-21.177-31.285-29.371-39.434a76.518 76.518 0 0 0-1.759-1.691z" fill="#112c41"/><path d="M182.031 794.828a4.531 4.531 0 0 1-1.498-.248c-3.901-1.354-5.537-7.66-4.863-18.744a1 1 0 0 1 1.996.122c-.587 9.654.697 15.753 3.522 16.733.298.104.616.155.951.155 7.354.003 23.402-24.63 37.036-63.921 14.255-41.082 16.51-71.219 9.674-73.591-2.786-.969-7.493 2.916-12.918 10.652a1.001 1.001 0 0 1-1.638-1.148c6.238-8.897 11.355-12.73 15.211-11.393 10.044 3.485 3.596 41.448-8.44 76.136-11.46 33.026-28.737 65.245-39.034 65.249zm-53.722-18.835c-1.08 0-2.057-.256-2.9-.821-4.169-2.797-2.099-13.712.941-22.209a1.002 1.002 0 0 1 1.884.674c-3.939 11.011-3.821 18.458-1.71 19.874 3.023 2.03 10.561-2.277 20.161-11.518 10.212-9.829 21.854-24.213 32.782-40.503s19.823-32.518 25.044-45.695c4.909-12.388 6.035-20.995 3.011-23.023-2.232-1.496-7.153.553-13.504 5.624a1.002 1.002 0 0 1-1.406-.157 1.002 1.002 0 0 1 .157-1.406c7.391-5.902 12.729-7.827 15.866-5.722 5.098 3.42 1.582 15.712-2.266 25.421-5.273 13.305-14.238 29.667-25.243 46.072s-22.745 30.905-33.056 40.83c-6.281 6.045-14.313 12.559-19.762 12.559z" fill="#112c41"/><circle cx="568.041" cy="273.554" fill="#ffd6c0" r="28.57"/><path d="M556.312 299.605c13.92 6.269 30.208.472 37.122-12.957-8.163 7.778-20.527 10.275-31.443 5.368-14.385-6.482-20.799-23.404-14.318-37.789.212-.465.435-.922.667-1.369a28.392 28.392 0 0 0-6.345 8.968c-6.482 14.385-.069 31.298 14.317 37.78z" fill="#f5b9ab"/><path d="M568.029 303.14c-4.131 0-8.251-.877-12.13-2.624a29.656 29.656 0 0 1-15.918-17.635 1.001 1.001 0 0 1 1.898-.632 27.652 27.652 0 0 0 14.842 16.443c13.861 6.243 30.217.044 36.459-13.817 6.243-13.861.044-30.217-13.817-36.459-13.082-5.892-28.689-.644-35.531 11.946a1 1 0 1 1-1.757-.955c7.339-13.504 24.079-19.133 38.11-12.814 7.202 3.243 12.709 9.097 15.508 16.483s2.554 15.42-.689 22.621c-3.243 7.202-9.097 12.709-16.483 15.508a29.554 29.554 0 0 1-10.491 1.935z" fill="#112c41"/><path d="M552.465 275.6a1 1 0 0 1-.997-1.091c.446-4.87 2.712-9.282 6.381-12.421 3.677-3.146 8.323-4.64 13.077-4.203 5.37.491 10.173 3.404 13.178 7.992a.998.998 0 0 1-.289 1.384.998.998 0 0 1-1.384-.289c-2.669-4.074-6.928-6.66-11.687-7.096-4.217-.386-8.332.939-11.594 3.731-3.271 2.799-5.291 6.735-5.689 11.083a1 1 0 0 1-.995.909z" fill="#112c41"/><circle cx="566.777" cy="307.935" fill="#fff" r="11.5"/><path d="M566.756 320.432a12.42 12.42 0 0 1-6.172-1.64 12.418 12.418 0 0 1-5.864-7.56 12.418 12.418 0 0 1 1.199-9.491c1.654-2.9 4.339-4.983 7.56-5.864s6.592-.455 9.491 1.199c5.987 3.415 8.08 11.064 4.665 17.051-2.303 4.038-6.533 6.304-10.879 6.304zm.038-23.002c-.93 0-1.866.125-2.787.377a10.43 10.43 0 0 0-6.35 4.926c-2.869 5.029-1.111 11.454 3.918 14.323s11.455 1.111 14.323-3.918c2.869-5.029 1.111-11.455-3.918-14.323a10.445 10.445 0 0 0-5.186-1.384z" fill="#112c41"/><circle cx="461.18" cy="265.169" fill="#ffd6c0" r="102.5"/><path d="M454.33 163.477c.345-.023.686-.028 1.031-.048l7.497 12.009c-53.307 3.72-93.176 47.274-89.662 99.802 3.52 52.622 49.247 94.325 102.698 90.749a98.332 98.332 0 0 0 15.523-2.281 102.88 102.88 0 0 1-23.405 4.312c-56.484 3.778-105.334-38.947-109.112-95.431s38.947-105.334 95.431-109.112z" fill="#f5b9ab"/><path d="M461.1 369.251c-53.95 0-99.547-41.991-103.199-96.595-3.809-56.943 39.419-106.368 96.362-110.177 56.948-3.812 106.368 39.419 110.177 96.362 1.845 27.584-7.162 54.236-25.363 75.045s-43.415 33.286-70.999 35.131c-2.339.156-4.667.234-6.978.234zm-101.203-96.729c3.735 55.843 52.205 98.239 108.048 94.5 27.051-1.809 51.779-14.045 69.627-34.452s26.682-46.544 24.872-73.595c-3.735-55.843-52.204-98.238-108.048-94.5-55.839 3.735-98.229 52.209-94.5 108.048z" fill="#112c41"/><ellipse cx="449.759" cy="245.526" fill="#112c41" rx="6.828" ry="9.104" transform="matrix(.99777013 -.0667441 .0667441 .99777013 -15.383 30.564)"/><ellipse cx="456.872" cy="219.303" fill="#112c41" rx="9.336" ry="14.13" transform="matrix(.4574394 -.88924079 .88924079 .4574394 52.868 525.255)"/><ellipse cx="525.781" cy="283.287" fill="#ffa6e0" rx="12.121" ry="8.009" transform="matrix(.98526794 -.17101778 .17101778 .98526794 -40.7 94.089)"/><ellipse cx="433.575" cy="269.399" fill="#ffa6e0" rx="8.009" ry="12.121" transform="matrix(.38210287 -.9241198 .9241198 .38210287 18.946 567.134)"/><ellipse cx="519.3" cy="228.322" fill="#112c41" rx="13.016" ry="8.6" transform="matrix(.9684006 -.24939983 .24939983 .9684006 -40.534 136.726)"/><path d="M521.879 221.382c4.192 0 7.444 1.685 8.09 4.193.893 3.464-3.239 7.649-9.022 9.139-1.416.365-2.836.55-4.223.55-4.194 0-7.445-1.686-8.091-4.194-.54-2.095.847-4.032 1.722-5 1.716-1.899 4.309-3.369 7.3-4.139a16.95 16.95 0 0 1 4.224-.55m0-2c-1.512 0-3.108.197-4.722.613-6.961 1.792-11.645 6.975-10.46 11.574.91 3.533 5.017 5.695 10.028 5.695 1.512 0 3.107-.197 4.722-.613 6.961-1.793 11.645-6.975 10.46-11.575-.91-3.533-5.017-5.694-10.028-5.694z" fill="#112c41"/><ellipse cx="518.817" cy="253.834" fill="#112c41" rx="9.104" ry="6.828" transform="matrix(.29290576 -.95614132 .95614132 .29290576 124.151 675.546)"/><circle cx="348.351" cy="249.742" fill="#ffd6c0" r="30.5"/><path d="M372.718 268.256c-1.939 1.379-4.473 2.558-6.779 3.47-15.678 6.176-33.505-2.107-39.677-17.776-4.053-10.28-1.812-20.738 4.412-28.93-11.254 7.9-16.397 22.033-11.133 35.404 6.163 15.672 23.877 23.38 39.554 17.204 5.388-2.119 10.36-5.061 13.623-9.372z" fill="#f5b9ab"/><path d="M348.329 281.243c-16.419 0-30.296-12.78-31.408-29.399-.562-8.395 2.18-16.506 7.719-22.84 5.539-6.333 13.213-10.131 21.609-10.692 16.352-1.091 30.976 10.747 33.284 26.957a1 1 0 1 1-1.98.282c-2.162-15.179-15.857-26.263-31.171-25.243-16.23 1.086-28.551 15.173-27.465 31.403s15.175 28.551 31.403 27.465c8.038-.538 16.322-4.962 21.62-11.547a1 1 0 1 1 1.558 1.254c-5.637 7.007-14.467 11.715-23.045 12.289-.712.048-1.42.071-2.124.071z" fill="#112c41"/><path d="M365.863 254.289h-.011a1 1 0 0 1-.989-1.011c.05-4.679-1.675-9.096-4.856-12.436-3.175-3.333-7.421-5.195-11.956-5.244-5.122-.064-9.947 2.238-13.236 6.291a1 1 0 1 1-1.552-1.26c3.676-4.529 9.07-7.083 14.811-7.03 5.08.054 9.833 2.137 13.383 5.864 3.543 3.72 5.463 8.634 5.408 13.837a1 1 0 0 1-1 .989z" fill="#112c41"/><path d="M412.583 151.377a104.853 104.853 0 0 1 20.685-8.52 108.616 108.616 0 0 1 21.025-3.939c42.765-3.738 81.501 17.915 99.351 51.736 4.839 9.168 8.163 19.227 9.576 29.922.284 2.152-1.695 2.794-3.074 1.798-13.884-10.029-41.819-20.876-62.396-25.427-13.729-3.036-28.563-3.925-43.868-3.627-6.438.125-12.768.527-18.96 1.187.574-9.766 3.13-18.879 7.302-26.597-7.881 6.719-14.964 17.437-19.836 28.358-20.705 3.57-40.466 10.184-56.208 18.84-1.302.716-2.99.071-2.487-1.904 6.633-26.084 24.432-48.529 48.89-61.828z" fill="#b2b0f7"/><path d="M365.703 215.372c6.002-3.335 18.272-8.545 25.117-11.201 5.988-23.263 25.189-51.567 56.452-60.704a97.72 97.72 0 0 1 18.815-3.521 97.093 97.093 0 0 1 13.873-.229 107.9 107.9 0 0 0-25.667-.798 108.824 108.824 0 0 0-21.027 3.936c-35.148 10.279-61.737 37.648-69.704 70.878-.293 1.24 1.03 2.259 2.141 1.64z" fill="#9797f7"/><path d="M561.506 223.835a3.34 3.34 0 0 1-1.945-.649c-14.417-10.414-42.858-21.022-62.027-25.262-12.451-2.754-26.725-3.933-43.633-3.604-6.318.123-12.668.52-18.874 1.181a1.003 1.003 0 0 1-1.104-1.053c.457-7.78 2.183-15.299 5.037-22.045-5.861 6.19-11.417 14.761-15.659 24.272a1.003 1.003 0 0 1-.743.578c-20.508 3.536-40.359 10.188-55.896 18.731-1.063.584-2.294.54-3.137-.113-.819-.634-1.111-1.695-.801-2.913 6.678-26.261 24.677-49.027 49.381-62.46a106.107 106.107 0 0 1 20.882-8.601 109.941 109.941 0 0 1 21.219-3.975c20.895-1.828 41.495 2.288 59.575 11.896 17.677 9.395 31.768 23.354 40.748 40.368 5.032 9.533 8.29 19.714 9.683 30.258.172 1.303-.301 2.425-1.265 3.001-.436.26-.933.389-1.441.389zm-102.173-31.568c14.713 0 27.395 1.219 38.634 3.705 19.366 4.283 48.139 15.027 62.766 25.593.39.282.88.35 1.189.165.357-.213.346-.731.307-1.021-1.363-10.309-4.548-20.263-9.469-29.586-18.329-34.728-56.946-54.824-98.38-51.206a107.97 107.97 0 0 0-20.832 3.902 103.996 103.996 0 0 0-20.487 8.439c-24.216 13.167-41.857 35.472-48.398 61.195-.049.194-.14.664.086.839.17.131.561.156.95-.058 15.594-8.574 35.459-15.263 55.995-18.858 5.277-11.67 12.505-21.937 19.881-28.225a1 1 0 0 1 1.529 1.237c-3.971 7.349-6.418 15.971-7.104 25.005a221.308 221.308 0 0 1 17.863-1.069c1.854-.036 3.678-.054 5.47-.054z" fill="#112c41"/><circle cx="348.704" cy="282.553" fill="#fff" r="11.5"/><path d="M348.683 295.051a12.42 12.42 0 0 1-6.172-1.64c-5.987-3.415-8.08-11.064-4.665-17.051 3.415-5.987 11.064-8.08 17.051-4.665a12.418 12.418 0 0 1 5.864 7.56c.881 3.22.455 6.591-1.199 9.492-2.303 4.038-6.533 6.304-10.879 6.304zm-9.1-17.7c-2.868 5.029-1.111 11.454 3.918 14.323a10.43 10.43 0 0 0 7.973 1.007c2.705-.74 4.96-2.489 6.35-4.925s1.748-5.268 1.007-7.973a10.433 10.433 0 0 0-4.925-6.35c-5.029-2.868-11.454-1.11-14.323 3.918zm82.273-149.618c-19.08 0-37.486-7.057-50.993-19.659-12.423-11.591-19.447-26.69-19.778-42.518-.717-34.271 31.122-63.457 70.974-65.061a1.01 1.01 0 0 1 1.04.959 1.001 1.001 0 0 1-.959 1.04c-38.771 1.561-69.75 29.832-69.055 63.02.32 15.283 7.118 29.878 19.142 41.097 13.994 13.057 33.409 19.993 53.271 19.033a1 1 0 1 1 .097 1.997c-1.247.061-2.496.09-3.739.091z" fill="#112c41"/><path d="M430.943 126.865c34.716-2.322 60.977-32.348 58.655-67.064S457.25-1.176 422.534 1.146c-34.716 2.322-60.977 32.348-58.655 67.064s32.348 60.977 67.064 58.655" fill="#b2b0f7"/><path d="M363.876 68.207c2.324 34.717 32.352 60.978 67.069 58.654 13.951-.932 26.547-6.34 36.454-14.736-5.915 2.425-12.302 3.935-19.037 4.397-33.619 2.249-62.706-23.185-64.944-56.82-1.634-24.453 11.384-46.52 31.547-57.592-30.875 5.836-53.228 33.956-51.088 66.097z" fill="#9797f7"/><path d="M426.699 128.01c-33.362.003-61.558-25.965-63.821-59.731-2.157-32.297 20.172-61.171 51.935-67.165a64.685 64.685 0 0 1 7.651-.969c35.213-2.354 65.774 24.376 68.134 59.587 1.351 20.184-7.075 40.053-22.539 53.15-10.478 8.878-23.289 14.06-37.048 14.983a65.1 65.1 0 0 1-4.313.144zm.078-126.009c-1.384 0-2.777.046-4.178.14-2.546.172-5.04.488-7.412.938h-.001c-30.773 5.805-52.402 33.777-50.312 65.067 2.286 34.11 31.891 60.005 66.004 57.725 13.329-.895 25.739-5.914 35.889-14.514 14.982-12.688 23.145-31.937 21.836-51.49-2.192-32.709-29.51-57.865-61.826-57.865zm71.262 283.956c.243 2.208-1.34 3.497-3.227 3.293l-17.629-1.938-13.474-1.488c-1.566-.173-2.549-1.753-2.049-3.247a32.734 32.734 0 0 1 1.993-4.693c4.134-7.873 11.043-12.765 18.292-11.967 8.431.929 14.906 9.257 16.093 20.041z" fill="#112c41"/><path d="M495.197 290.27c-.162 0-.327-.009-.492-.027l-31.104-3.427a3.427 3.427 0 0 1-2.521-1.566 3.477 3.477 0 0 1-.366-2.992 33.781 33.781 0 0 1 2.054-4.837c4.478-8.529 11.871-13.316 19.289-12.5 8.747.964 15.728 9.569 16.978 20.925.145 1.316-.229 2.495-1.054 3.322-.711.712-1.705 1.101-2.782 1.101zm-14.779-23.438c-6.105 0-12.087 4.294-15.879 11.516a31.785 31.785 0 0 0-1.93 4.545c-.145.433-.088.899.155 1.28.239.374.614.607 1.055.656l31.102 3.426c.654.071 1.254-.111 1.642-.499.394-.395.56-.979.482-1.69-1.147-10.418-7.401-18.295-15.209-19.156a12.971 12.971 0 0 0-1.418-.078z" fill="#112c41"/><path d="m477.183 287.312-13.382-1.478c-1.613-.178-2.63-1.807-2.111-3.345a32.69 32.69 0 0 1 1.964-4.605c5.994 1.363 10.9 4.884 13.53 9.428z" fill="#ffa6e0"/><path d="M477.184 288.312c-.037 0-.073-.002-.11-.006l-13.382-1.478a3.502 3.502 0 0 1-2.58-1.606 3.544 3.544 0 0 1-.368-3.052 33.88 33.88 0 0 1 2.023-4.746 1 1 0 0 1 1.109-.514c6.18 1.405 11.346 5.014 14.173 9.903a1 1 0 0 1-.865 1.501zm-12.995-9.268a31.757 31.757 0 0 0-1.551 3.765c-.152.451-.094.938.16 1.337.248.39.654.643 1.113.694l11.252 1.243c-2.548-3.344-6.427-5.843-10.975-7.039z" fill="#112c41"/></svg></g><g transform="translate(1823.0 589.0) rotate(0.0 283.5 349.0) scale(1.6631711716996904 1.666380182967589)"><svg width="340.915" height="418.872" viewBox="0 0 340.915 418.872"><rect fill="#cbc8ff" height="313.532" rx="33.702" width="313.532" x="27.383" y="105.34"/><rect fill="#fff" height="313.532" rx="33.702" width="313.532" x="1" y="85.511"/><path d="M280.83 400.042H34.702C15.567 400.042 0 384.475 0 365.34V119.213c0-19.135 15.567-34.702 34.702-34.702H280.83c19.135 0 34.702 15.567 34.702 34.702v246.128c0 19.135-15.567 34.702-34.702 34.702zM34.702 86.511C16.67 86.511 2 101.181 2 119.213v246.128c0 18.032 14.67 32.702 32.702 32.702H280.83c18.032 0 32.702-14.67 32.702-32.702V119.213c0-18.032-14.67-32.702-32.702-32.702z" fill="#112c41"/><path d="m196.435 242.277 40.119-40.119c10.634-10.634 10.634-28.035 0-38.669-10.634-10.634-28.035-10.634-38.669 0l-40.119 40.119-40.119-40.119c-10.634-10.634-28.035-10.634-38.669 0-10.634 10.634-10.634 28.035 0 38.669l40.119 40.119-40.119 40.119c-10.634 10.634-10.634 28.035 0 38.669s28.035 10.634 38.669 0l40.119-40.119 40.119 40.119c10.634 10.634 28.035 10.634 38.669 0 10.634-10.634 10.634-28.035 0-38.669z" fill="#ffa9dc"/><path d="M217.219 330.059c-7.258 0-14.516-2.763-20.041-8.288l-39.412-39.412-39.412 39.412c-11.051 11.051-29.032 11.051-40.083 0-5.332-5.332-8.269-12.449-8.269-20.042s2.937-14.709 8.269-20.041l39.411-39.412-39.411-39.412c-5.332-5.332-8.269-12.449-8.269-20.041s2.937-14.71 8.269-20.042c11.051-11.051 29.032-11.051 40.083 0l39.412 39.412 39.412-39.412c11.051-11.051 29.032-11.051 40.083 0s11.051 29.032 0 40.083l-39.412 39.412 39.412 39.412c11.051 11.051 11.051 29.032 0 40.083-5.525 5.526-12.783 8.288-20.042 8.288zm-59.453-50.114c.265 0 .52.105.707.293l40.119 40.119c10.271 10.271 26.984 10.271 37.255 0s10.271-26.984 0-37.255l-40.119-40.119a.999.999 0 0 1 0-1.414l40.119-40.119c10.271-10.271 10.271-26.983 0-37.255-10.271-10.271-26.983-10.271-37.255 0l-40.119 40.119a1.03 1.03 0 0 1-1.414 0l-40.119-40.119c-10.271-10.271-26.984-10.271-37.255 0-4.954 4.954-7.683 11.57-7.683 18.627s2.729 13.673 7.683 18.627l40.119 40.119a.999.999 0 0 1 0 1.414l-40.119 40.119c-4.954 4.954-7.683 11.569-7.683 18.627s2.729 13.673 7.683 18.627c10.271 10.271 26.983 10.271 37.255 0l40.119-40.119a1 1 0 0 1 .707-.293z" fill="#112c41"/><circle cx="277.681" cy="113.553" fill="#dedffe" r="8.043"/><path d="M277.681 122.596c-4.986 0-9.043-4.057-9.043-9.043s4.057-9.042 9.043-9.042 9.042 4.056 9.042 9.042-4.056 9.043-9.042 9.043zm0-16.085c-3.883 0-7.043 3.159-7.043 7.042s3.159 7.043 7.043 7.043 7.042-3.159 7.042-7.043-3.159-7.042-7.042-7.042z" fill="#112c41"/><path d="M276.021 112.766c-.229 0-.46-.079-.649-.239L157.837 12.23 40.302 112.527a1 1 0 0 1-1.299-1.522L157.188 10.154a1 1 0 0 1 1.298 0L276.67 111.005a1 1 0 0 1-.649 1.761z" fill="#112c41"/><circle cx="157.553" cy="17.34" fill="#ffe993" r="16.34"/><path d="M157.553 34.681c-9.562 0-17.341-7.779-17.341-17.34S147.992 0 157.553 0s17.34 7.779 17.34 17.34-7.779 17.34-17.34 17.34zm0-32.681c-8.459 0-15.341 6.882-15.341 15.34s6.882 15.34 15.341 15.34 15.34-6.882 15.34-15.34S166.011 2 157.553 2z" fill="#112c41"/></svg></g></svg>