<svg height="112.092" viewBox="0 0 184.405 112.092" width="184.405" xmlns="http://www.w3.org/2000/svg"><path d="m183.265 38.831c-3.73 8.31-22.7 45.01-49.07 71.55a2.531 2.531 0 0 1 -2.45.621c-11.85-3.181-96.29-25.75-129.64-34.451a1.186 1.186 0 0 1 .08-2.37c8.35-1.21 12.63-1.96 21.34-3.64.91-.17 1.34-.83.96-1.48a145.525 145.525 0 0 1 -9.33-18.08 1.055 1.055 0 0 1 .97-1.5c9.08-1.15 13.77-1.91 23.33-3.67.9-.16 1.33-.83.96-1.49a142.026 142.026 0 0 1 -9.05-18.42 1.068 1.068 0 0 1 .98-1.51c8.96-1.01 13.6-1.71 23.08-3.36.89-.16 1.29-.81.96-1.49-3.13-6.549-4.81-9.87-7.99-16.88-.47-1.04.81-2.08 2.64-1.49 12.44 3.96 69.83 19.26 105.03 28.581 12.57 3.319 22.31 5.889 26.16 6.9a1.579 1.579 0 0 1 1.04 2.179z" fill="#fff"/><g fill="#112c41"><path d="m132.439 112.092a3.727 3.727 0 0 1 -.95-.124c-14.377-3.857-96.961-25.925-129.636-34.449a2.237 2.237 0 0 1 -1.853-2.243 2.288 2.288 0 0 1 2.033-2.084c8.472-1.228 12.747-1.984 21.3-3.632a.918.918 0 0 0 .237-.075 146.254 146.254 0 0 1 -9.331-18.1 2.016 2.016 0 0 1 .057-1.822 2.226 2.226 0 0 1 1.704-1.073c9.292-1.177 13.962-1.947 23.278-3.662a.808.808 0 0 0 .234-.075 142.613 142.613 0 0 1 -9.067-18.466 2.08 2.08 0 0 1 .1-1.856 2.22 2.22 0 0 1 1.683-1.031c9.141-1.03 13.766-1.74 23.025-3.352a.531.531 0 0 0 .269-.106c-.912-1.792-1.671-3.366-2.381-4.84-1.876-3.888-3.359-6.959-5.658-12.025a1.993 1.993 0 0 1 .34-2.2 3.289 3.289 0 0 1 3.519-.658c12.481 3.974 71.13 19.6 104.978 28.566 12.57 3.32 22.309 5.889 26.159 6.9a2.58 2.58 0 0 1 1.7 3.553c-4.726 10.53-23.922 46.331-49.273 71.845a3.451 3.451 0 0 1 -2.467 1.009zm-82.431-110.092c-.446 0-.685.168-.713.241 2.3 5.052 3.776 8.115 5.646 11.991.712 1.475 1.473 3.052 2.346 4.879a1.956 1.956 0 0 1 .01 1.75 2.3 2.3 0 0 1 -1.7 1.156c-9.31 1.62-13.957 2.333-23.145 3.369a.354.354 0 0 0 -.2.067 141.215 141.215 0 0 0 9.023 18.377 1.886 1.886 0 0 1 .086 1.752 2.3 2.3 0 0 1 -1.732 1.218c-9.35 1.723-14.041 2.495-23.378 3.679a.39.39 0 0 0 -.213.076 147.536 147.536 0 0 0 9.308 18 1.859 1.859 0 0 1 .114 1.731 2.318 2.318 0 0 1 -1.752 1.241c-8.58 1.654-12.874 2.413-21.38 3.645-.237.036-.325.161-.328.212 0 .023.085.13.358.2 32.68 8.526 115.271 30.6 129.646 34.453a1.522 1.522 0 0 0 1.479-.357c25.142-25.305 44.18-60.809 48.869-71.256a.584.584 0 0 0 0-.5.57.57 0 0 0 -.378-.308c-3.849-1.011-13.59-3.58-26.161-6.9-33.871-8.966-92.556-24.604-105.081-28.592a2.373 2.373 0 0 0 -.724-.124z"/><path d="m71.235 71.742a1 1 0 0 1 -.508-1.862l53.745-31.707a1 1 0 1 1 1.015 1.723l-53.745 31.704a.994.994 0 0 1 -.507.142z"/><path d="m86.516 48.561a8.889 8.889 0 0 1 -2.393-.321 6.7 6.7 0 0 1 -4.5-3.743c-1.6-3.686.706-8.244 5.132-10.161s9.325-.478 10.923 3.207a6.7 6.7 0 0 1 -.347 5.84 9.693 9.693 0 0 1 -4.785 4.323 10.191 10.191 0 0 1 -4.03.855zm2.284-13.081a8.2 8.2 0 0 0 -3.249.692c-3.414 1.479-5.249 4.857-4.091 7.531a4.739 4.739 0 0 0 3.2 2.61 7.679 7.679 0 0 0 5.092-.443 7.694 7.694 0 0 0 3.807-3.411 4.739 4.739 0 0 0 .284-4.121 5.262 5.262 0 0 0 -5.043-2.858z"/><path d="m105.875 79.573a7.265 7.265 0 0 1 -6.906-4.057c-1.6-3.685.705-8.244 5.131-10.162s9.328-.477 10.923 3.208-.706 8.244-5.131 10.162a10.15 10.15 0 0 1 -4.017.849zm2.268-13.073a8.2 8.2 0 0 0 -3.248.692c-3.414 1.478-5.249 4.857-4.09 7.531s4.878 3.645 8.292 2.167 5.249-4.857 4.09-7.531a5.261 5.261 0 0 0 -5.044-2.859z"/></g><path d="m183.265 38.831c-3.73 8.31-22.7 45.01-49.07 71.55a2.531 2.531 0 0 1 -2.45.621c-11.85-3.181-96.29-25.75-129.64-34.451 74.94 16.98 132.11 23.22 180.12-39.9a1.579 1.579 0 0 1 1.04 2.18z" fill="#dedffe"/><path d="m132.439 112.092a3.727 3.727 0 0 1 -.95-.124c-14.377-3.857-96.961-25.925-129.636-34.449a2.237 2.237 0 0 1 -1.853-2.243 2.288 2.288 0 0 1 2.033-2.084c8.472-1.228 12.747-1.984 21.3-3.632a.918.918 0 0 0 .237-.075 146.254 146.254 0 0 1 -9.331-18.1 2.016 2.016 0 0 1 .057-1.822 2.226 2.226 0 0 1 1.704-1.073c9.292-1.177 13.962-1.947 23.278-3.662a.808.808 0 0 0 .234-.075 142.613 142.613 0 0 1 -9.067-18.466 2.08 2.08 0 0 1 .1-1.856 2.22 2.22 0 0 1 1.683-1.031c9.141-1.03 13.766-1.74 23.025-3.352a.531.531 0 0 0 .269-.106c-.912-1.792-1.671-3.366-2.381-4.84-1.876-3.888-3.359-6.959-5.658-12.025a1.993 1.993 0 0 1 .34-2.2 3.289 3.289 0 0 1 3.519-.658c12.481 3.974 71.13 19.6 104.978 28.566 12.57 3.32 22.309 5.889 26.159 6.9a2.58 2.58 0 0 1 1.7 3.553c-4.726 10.53-23.922 46.331-49.273 71.845a3.451 3.451 0 0 1 -2.467 1.009zm-82.431-110.092c-.446 0-.685.168-.713.241 2.3 5.052 3.776 8.115 5.646 11.991.712 1.475 1.473 3.052 2.346 4.879a1.956 1.956 0 0 1 .01 1.75 2.3 2.3 0 0 1 -1.7 1.156c-9.31 1.62-13.957 2.333-23.145 3.369a.354.354 0 0 0 -.2.067 141.215 141.215 0 0 0 9.023 18.377 1.886 1.886 0 0 1 .086 1.752 2.3 2.3 0 0 1 -1.732 1.218c-9.35 1.723-14.041 2.495-23.378 3.679a.39.39 0 0 0 -.213.076 147.536 147.536 0 0 0 9.308 18 1.859 1.859 0 0 1 .114 1.731 2.318 2.318 0 0 1 -1.752 1.241c-8.58 1.654-12.874 2.413-21.38 3.645-.237.036-.325.161-.328.212 0 .023.085.13.358.2 32.68 8.526 115.271 30.6 129.646 34.453a1.522 1.522 0 0 0 1.479-.357c25.142-25.305 44.18-60.809 48.869-71.256a.584.584 0 0 0 0-.5.57.57 0 0 0 -.378-.308c-3.849-1.011-13.59-3.58-26.161-6.9-33.871-8.966-92.556-24.604-105.081-28.592a2.373 2.373 0 0 0 -.724-.124z" fill="#112c41"/></svg>