<svg xmlns="http://www.w3.org/2000/svg" viewBox="0 0 3000 3000" width="3000" height="3000"><g transform="translate(1615.0 2461.666666666667) rotate(0.0 487.5 40.0) scale(1.1209924519841568 1.085010578853144)"><svg width="869.765" height="73.732" viewBox="0 0 869.765 73.732"><ellipse cx="434.882" cy="36.866" fill="#cbc8ff" rx="434.882" ry="36.866"/></svg></g><g transform="translate(1701.6666666666667 1188.3333333333335) rotate(0.0 442.5000000000001 661.6666666666667) scale(1.6729678638941403 1.6722330545295405)"><svg width="529" height="791.357" viewBox="0 0 529 791.357"><path d="M118.989 416.811c-26.397 39.102-66.589 67.41-84.569 78.863-3.83 2.439-8.772-.654-8.252-5.165 2.443-21.177 10.339-69.7 33.973-110.531 35.647-61.586 78.666-101.308 97.127-89.753s1.535 67.608-38.279 126.586z" fill="#b2b0f7"/><path d="M31.522 497.528a6.372 6.372 0 0 1-3.39-.983 6.339 6.339 0 0 1-2.957-6.151c2.252-19.526 10.083-69.422 34.101-110.918 28.464-49.178 62.636-85.957 85.032-91.519 5.332-1.324 9.871-.846 13.491 1.419s6.034 6.14 7.172 11.514c4.785 22.575-13.361 69.384-45.154 116.479l-.829-.56.829.56c-26.826 39.738-68.282 68.588-84.86 79.147a6.372 6.372 0 0 1-3.435 1.012zm118.332-208.299c-1.576 0-3.266.223-5.064.67-21.903 5.44-55.573 41.841-83.784 90.58-23.83 41.17-31.607 90.743-33.844 110.145-.199 1.726.56 3.306 2.031 4.227 1.47.921 3.224.914 4.69-.02 16.473-10.492 57.661-39.152 84.277-78.579 31.509-46.674 49.535-92.867 44.854-114.945-1.022-4.823-3.134-8.266-6.277-10.233-1.962-1.229-4.265-1.845-6.883-1.845z" fill="#112c41"/><path d="M408.481 396.528a346.789 346.789 0 0 1-2.431 25.674c-.158 1.22-.326 2.431-.514 3.631-2.375 16.244-6.191 31.62-11.249 45.927-11.122 31.457-28.232 57.804-49.172 77.076-24.505 22.568-54.266 35.453-85.816 35.502-71.7.11-134.332-66.084-147.248-161.684a309.338 309.338 0 0 1-2.483-27.766c-.715-16.519-.061-32.79 1.975-48.483 5.159-39.998 19.193-76.229 41.892-103.174 14.024-16.642 31.354-29.748 51.942-38.01 15.85-6.354 33.635-9.851 53.325-9.882 25.05-.038 46.737 4.818 65.211 13.57 55.6 26.305 82.255 87.894 84.872 157.7.375 9.838.27 19.838-.304 29.919z" fill="#fff"/><path d="M259.123 585.338c-35.167 0-69.333-16.073-96.228-45.273-27.199-29.531-45.608-71.181-51.836-117.277a311.683 311.683 0 0 1-2.491-27.856c-.719-16.603-.052-32.973 1.983-48.656 5.349-41.476 19.914-77.331 42.119-103.69 14.611-17.338 32.219-30.222 52.334-38.294 16.401-6.575 34.467-9.924 53.696-9.954h.293c24.221 0 46.202 4.597 65.347 13.666 26.855 12.705 47.973 33.897 62.768 62.987 13.484 26.513 21.325 59.564 22.675 95.579.374 9.806.271 19.905-.305 30.015-.49 8.56-1.31 17.223-2.438 25.748a136.747 136.747 0 0 1-.518 3.655c-2.342 16.017-6.142 31.533-11.294 46.106-10.965 31.012-28.06 57.803-49.438 77.478-25.355 23.35-55.263 35.718-86.492 35.766h-.175zm-.129-389h-.291c-18.974.029-36.79 3.33-52.954 9.81-19.808 7.949-37.151 20.642-51.549 37.726-21.957 26.064-36.365 61.563-41.665 102.658-2.02 15.57-2.682 31.824-1.968 48.312.404 9.189 1.236 18.5 2.475 27.676 6.173 45.694 24.401 86.957 51.325 116.19 26.509 28.783 60.157 44.628 94.757 44.628h.174c30.719-.047 60.16-12.232 85.14-35.237 21.139-19.455 38.05-45.968 48.906-76.673 5.109-14.451 8.878-29.839 11.203-45.739.188-1.202.355-2.403.512-3.615a347.175 347.175 0 0 0 2.424-25.602c.573-10.047.675-20.082.303-29.825-1.339-35.728-9.105-68.491-22.459-94.748-14.589-28.686-35.396-49.575-61.841-62.086-18.876-8.942-40.572-13.475-64.492-13.475zm149.487 200.19h.01z" fill="#112c41"/><path d="M408.481 396.528a346.789 346.789 0 0 1-2.431 25.674c-.158 1.22-.326 2.431-.514 3.631-2.375 16.244-6.191 31.62-11.249 45.927-9.934-9.105-19.57-19.36-27.937-30.657-43.43-58.674-61.968-116.205-41.909-129.916 16.463-11.256 50.989 12.422 84.345 55.42.374 9.84.269 19.84-.305 29.921z" fill="#dedffe"/><path d="M410.002 381.158c.384 8.516 1.265-4.073 1.011 4.59-.033 1.23-4.814.21-4.879 1.423-30.171 19.228-95.85 23.259-99.11 23.39-110.133 4.43-185.019-9.891-197.037-28.748-2.397-16.36-.911-4.4-.487-20.218l13.728 21.856c32.594 13.698 79.659 18.686 139.785 19.628 50.351.79 103.75-7.787 146.989-21.921z" fill="#dedffe"/><path d="M345.114 548.836c-24.505 22.568-54.266 35.453-85.816 35.502-71.7.11-134.332-66.084-147.248-161.684-9.265-68.516 4.811-136.017 41.385-179.424 14.024-16.642 31.354-29.748 51.942-38.01-.965 16.461.363 15.2.363 15.2-48.959 27.075-69.061 134.58-54.669 216.084C165.194 516.482 241 583.357 345.114 548.836z" fill="#dedffe"/><path d="M323.912 208.908c-10.159 20.346-39.125 42.39-76.117 47.447-27.784 3.802-68.005-3.106-94.36-13.125 24.815-29.458 59.997-47.822 105.266-47.892 25.05-.038 46.738 4.819 65.211 13.57z" fill="#dedffe"/><path d="M259.123 585.338c-35.168 0-69.333-16.073-96.227-45.273-27.197-29.531-45.607-71.182-51.837-117.281-9.712-71.865 6.467-139.957 43.28-182.145 26.375-30.226 62.462-46.236 104.361-46.3 44.849-.069 80.912 15.151 107.328 45.237 35.986 40.986 50.936 107.598 41.013 182.755-6.088 46.118-24.37 87.825-51.477 117.44-26.848 29.331-61.036 45.515-96.265 45.569-.057-.002-.118-.002-.176-.002zm-.121-389h-.298c-41.305.063-76.872 15.837-102.856 45.615-36.439 41.76-52.441 109.26-42.805 180.562 6.175 45.697 24.403 86.962 51.326 116.194 26.509 28.783 60.156 44.628 94.756 44.628h.174c34.662-.053 68.327-16.006 94.792-44.919 26.833-29.315 44.934-70.636 50.97-116.351l.991.131-.991-.131c9.846-74.585-4.928-140.62-40.534-181.173-25.962-29.566-61.464-44.556-105.525-44.556z" fill="#112c41"/><path d="M319.1 208.808c-13.65 14.38-30.98 25.66-51.17 32.21-18.5 6.01-37.39 7.39-55.42 4.8-44.25-6.37-83.34-36.72-98.83-81.65-.25-.72-.49-1.44-.72-2.15-20.16-62.09 11.72-128.59 71.58-152.29 2.43-.97 4.9-1.86 7.42-2.68 64.61-20.98 134 14.39 154.98 79 14.43 44.43 2.21 91.109-27.84 122.76z" fill="#fff"/><path d="M230.027 248.077c-5.871 0-11.762-.423-17.659-1.27-46.247-6.658-84.424-38.198-99.633-82.314-.251-.725-.494-1.451-.726-2.168C91.849 100.238 123.547 32.8 184.172 8.798a121.994 121.994 0 0 1 7.479-2.701c31.504-10.23 65.105-7.579 94.615 7.464 29.511 15.043 51.396 40.676 61.626 72.178 14.061 43.293 3.307 90.714-28.066 123.758-14.121 14.876-31.959 26.105-51.586 32.473-12.522 4.066-25.316 6.107-38.213 6.107zm-.163-246.054c-12.461 0-25.118 1.924-37.595 5.975a119.673 119.673 0 0 0-7.358 2.658c-59.648 23.616-90.834 89.966-71 151.052.228.704.466 1.417.714 2.131 14.964 43.406 52.526 74.438 98.027 80.988 18.549 2.664 37.043 1.062 54.969-4.761 19.312-6.265 36.862-17.312 50.754-31.947 30.867-32.511 41.448-79.168 27.614-121.763C329.264 34.85 281.306 2.023 229.864 2.023z" fill="#112c41"/><path d="M319.1 208.808c-13.65 14.38-30.98 25.66-51.17 32.21-18.5 6.01-37.39 7.39-55.42 4.8-44.25-6.37-83.34-36.72-98.83-81.65-.25-.72-.49-1.44-.72-2.15-20.16-62.09 11.72-128.59 71.58-152.29C76 104.357 163 306.357 319 208.357c.04.15.07.3.1.451z" fill="#dedffe"/><path d="M160 211.357c20 4 59.142 1.677 88-4 61-12 98.132-42.935 98.132-42.935L350 139.357l-157 42-52 16z" fill="#dedffe"/><path d="M229.818 248.095c-19.312 0-38.483-4.564-56.186-13.588-29.508-15.043-51.393-40.676-61.622-72.179s-7.578-65.103 7.464-94.612c15.043-29.509 40.676-51.393 72.179-61.622s65.103-7.578 94.612 7.465 51.393 40.676 61.622 72.179c21.116 65.032-14.612 135.118-79.644 156.234-12.603 4.092-25.546 6.123-38.425 6.123zm.259-246.123c-12.673 0-25.404 1.998-37.806 6.025-30.995 10.064-56.215 31.595-71.015 60.628s-17.408 62.091-7.344 93.085 31.595 56.215 60.628 71.015c29.032 14.8 62.091 17.408 93.085 7.344 63.982-20.775 99.134-89.731 78.359-153.714-10.064-30.994-31.595-56.215-60.628-71.015-17.415-8.877-36.281-13.368-55.279-13.368z" fill="#112c41"/><path d="M244.22 199.788c-31.85 6.34-61.6 8.36-84.59 6.52-14.28-1.13-25.95-3.76-33.89-7.74-5.78-2.9-9.58-6.53-10.98-10.84l-15.17-73.07c3.32 8.28 15.81 13.94 34.2 16.62 24.01 3.53 58.09 1.98 94.98-5.36 67.54-13.44 118.93-41.27 114.77-62.13-.11-.53-.24-1.05-.43-1.56l.53.71s12.42 60.39 14.92 72.59c.27 1.26.42 2.01.44 2.12 4.15 20.87-47.24 48.689-114.78 62.14z" fill="#b2b0f7"/><path d="M176.875 207.959c-6.056 0-11.852-.216-17.324-.654-14.459-1.145-26.305-3.857-34.258-7.843-6.161-3.091-10.024-6.935-11.483-11.425a.973.973 0 0 1-.028-.106l-15.17-73.07a1 1 0 0 1 1.907-.576c3.058 7.625 14.925 13.308 33.416 16.003 24.758 3.64 59.253 1.69 94.641-5.351 32.566-6.48 62.395-16.489 83.992-28.181 20.952-11.344 31.884-23.289 29.993-32.772a9.442 9.442 0 0 0-.387-1.406.999.999 0 0 1 1.738-.947l.53.71c.088.118.148.253.178.397 0 0 12.42 60.39 14.92 72.591.272 1.269.424 2.03.444 2.142 2.097 10.544-8.917 22.948-31.014 34.911-21.764 11.783-51.793 21.865-84.554 28.389-23.753 4.725-47.118 7.188-67.541 7.188zm-61.147-20.489c1.301 3.941 4.82 7.374 10.461 10.204 7.724 3.872 19.315 6.513 33.521 7.637 23.751 1.901 53.696-.409 84.316-6.504 32.57-6.486 62.399-16.496 83.993-28.186 20.953-11.343 31.888-23.291 30.001-32.778-.022-.124-.17-.863-.437-2.106-1.965-9.593-10.054-48.93-13.431-65.348-2.581 8.896-13.128 18.649-30.633 28.126-21.768 11.785-51.796 21.865-84.553 28.384-35.604 7.084-70.346 9.041-95.321 5.368-15.664-2.283-26.551-6.577-31.983-12.549zm128.492 12.318h.01z" fill="#112c41"/><path d="M244.22 199.788c-31.85 6.34-61.6 8.36-84.59 6.52-14.28-1.13-25.95-3.76-33.89-7.74 9.42-3.48 11.26-4.21 11.26-4.21s50.574 8.17 107-4c51-11 105-34 114.56-54.83.27 1.26.42 2.01.44 2.12 4.15 20.87-47.24 48.689-114.78 62.14z" fill="#9797f7"/><path d="M157 206.357c-23-3-38.92-8.41-42.24-18.63l-15.17-73.07c3.32 8.28 15.81 13.94 34.2 16.62l.64.84c4.57 26.24 10.57 52.24 22.57 74.24z" fill="#9797f7"/><path d="M177 207.951c-34.413 0-59-6.983-63.193-19.918a1.02 1.02 0 0 1-.028-.105l-15.167-73.072a1 1 0 0 1 1.907-.575c3.564 8.895 18.547 14.945 42.189 17.035 24.038 2.125 54.532-.139 85.863-6.375 32.57-6.484 62.4-16.494 83.996-28.186 20.953-11.344 31.885-23.29 29.993-32.774a9.661 9.661 0 0 0-.388-1.406 1 1 0 0 1 1.739-.944l.527.706c.088.118.149.253.179.397.617 2.997 15.089 73.336 15.36 74.719 2.102 10.559-8.91 22.962-31.006 34.925-21.765 11.784-51.793 21.865-84.554 28.387-24.391 4.857-47.543 7.186-67.417 7.186zm-61.274-20.484c3.938 11.963 27.998 18.426 61.278 18.427 19.834.001 42.938-2.295 67.023-7.091 32.57-6.484 62.398-16.493 83.992-28.185 20.951-11.343 31.884-23.29 29.996-32.776l-.001-.005c-.189-.975-10.04-48.862-13.863-67.444-2.583 8.893-13.13 18.644-30.632 28.12-21.767 11.784-51.796 21.866-84.558 28.388-31.512 6.272-62.207 8.547-86.43 6.405-20.253-1.79-34.423-6.558-40.875-13.623z" fill="#112c41"/><path d="M228.88 125.268c-37.73 7.69-72.48 9.69-96.56 6.6-19.17-2.47-31.58-8.16-33.33-16.78-1.05-5.13 3.05-12.61 10.68-18.24-.63 2.03-1.72 6.94-1.33 8.85 1.05 5.12 5.66 9.13 13.1 11.99 4.46 1.71 9.92 3.01 16.24 3.89 14.26 1.99 32.86 1.85 53.93-.49 11.48-1.28 23.71-3.2 36.36-5.78 63.28-12.9 109.24-39.77 107.16-55.92-.16-1.18-2.19-4.34-2.81-5.39 5.72 2.8 11.21 6.72 12.09 11.03 3.96 19.45-47.76 46.409-115.53 60.24z" fill="#cbc8ff"/><path d="M156.48 134.258c-8.809 0-16.978-.461-24.288-1.399-20.566-2.65-32.386-8.726-34.182-17.573-1.16-5.666 3.39-13.58 11.066-19.243a1 1 0 0 1 1.548 1.101c-.74 2.386-1.617 6.826-1.305 8.353.954 4.653 5.153 8.44 12.479 11.257 4.354 1.669 9.744 2.959 16.019 3.833 14.274 1.992 32.837 1.822 53.682-.493 11.704-1.305 23.907-3.245 36.271-5.766 63.258-12.896 108.33-39.575 106.368-54.813-.105-.78-1.69-3.38-2.287-4.359a76.6 76.6 0 0 1-.393-.649 1 1 0 0 1 1.3-1.406c5.188 2.539 11.591 6.635 12.631 11.728 4.13 20.289-46.959 47.267-116.31 61.42-25.842 5.266-51.119 8.009-72.599 8.009zM107.964 99.5c-5.666 4.954-8.889 11.017-7.994 15.387 1.587 7.817 13.121 13.495 32.478 15.989 24.921 3.198 59.998.797 96.232-6.588 32.69-6.671 62.665-16.587 84.401-27.919 21.079-10.99 32.141-22.341 30.349-31.141-.572-2.801-3.531-5.825-8.438-8.675.604 1.096 1.04 2.046 1.128 2.701 2.342 18.185-48.103 44.834-107.951 57.034-12.422 2.533-24.686 4.482-36.449 5.794-21.008 2.333-39.743 2.501-54.179.486-6.425-.894-11.963-2.222-16.46-3.946-8.005-3.078-12.621-7.358-13.722-12.723-.298-1.467.124-4.186.605-6.399zm120.916 25.768h.01z" fill="#112c41"/><path d="m137.68 121.577-3.89 9.7s-.53.22-1.47.59c-19.17-2.47-31.58-8.16-33.33-16.78-1.05-5.13 3.05-12.61 10.68-18.24-.63 2.03-1.72 6.94-1.33 8.85 1.05 5.12 5.66 9.13 13.1 11.99 4.46 1.71 9.92 3.01 16.24 3.89z" fill="#b2b0f7"/><g fill="#112c41"><path d="M156.284 134.354c-33.115 0-55.739-6.621-58.279-19.063-1.174-5.758 3.276-13.492 11.075-19.247a1.001 1.001 0 0 1 1.548 1.104c-.726 2.312-1.618 6.82-1.308 8.346.95 4.66 5.149 8.447 12.48 11.255 14.401 5.537 39.151 6.726 69.695 3.348 11.72-1.306 23.924-3.246 36.271-5.768 63.267-12.901 108.337-39.577 106.368-54.809-.099-.771-1.66-3.341-2.247-4.308a60.118 60.118 0 0 1-.429-.713 1 1 0 0 1 1.304-1.402c5.185 2.542 11.584 6.642 12.628 11.733v.001c4.131 20.289-46.96 47.266-116.315 61.414-26.828 5.473-51.899 8.109-72.791 8.109zm-48.323-34.846c-5.664 4.954-8.886 11.016-7.995 15.384 1.796 8.799 16.418 14.91 40.117 16.766 24.441 1.914 55.905-.704 88.594-7.373 32.69-6.669 62.666-16.583 84.405-27.916 21.079-10.989 32.141-22.338 30.351-31.138-.575-2.802-3.537-5.829-8.443-8.683.606 1.102 1.044 2.059 1.129 2.716 2.35 18.172-48.094 44.819-107.951 57.025-12.406 2.534-24.67 4.484-36.451 5.796-30.856 3.413-55.94 2.181-70.632-3.469-8.01-3.068-12.628-7.349-13.724-12.723-.301-1.48.119-4.183.6-6.385z"/><ellipse cx="180.532" cy="153.346" rx="7.307" ry="5.48" transform="matrix(.1075 -.9942 .9942 .1075 8.6736 316.3537)"/><ellipse cx="124.806" cy="149.987" rx="5.48" ry="7.307" transform="matrix(.9931 -.1171 .1171 .9931 -16.7008 15.6425)"/><path d="M162.272 167.141c-1.091 7.595-5.979 13.292-11.764 13.213s-10.515-5.909-11.396-13.531z"/><path d="m150.628 181.354-.133-.001c-6.215-.085-11.419-6.148-12.376-14.416a.998.998 0 0 1 1.007-1.115l23.16.318c.288.004.56.132.747.35s.271.507.229.792c-1.175 8.18-6.477 14.072-12.634 14.072zm-10.361-13.515c1.142 6.671 5.333 11.447 10.255 11.515 4.943.059 9.243-4.592 10.567-11.229z"/></g><path d="M189.702 115.145c-19.332 1.839-36.136 1.575-48.955-.716-2.354-.43-4.583-.914-6.658-1.475-4.191-1.123-6.76-5.759-5.935-10.451l3.128-17.784c.743-4.196 4.159-7.235 8.061-7.158l7.019.121 38.83.65c4.067.077 7.648 3.304 8.402 7.643l3.251 18.687c.918 5.23-2.323 10.02-7.143 10.483z" fill="#dedffe"/><path d="M185.38 114.507c-18.73 1.67-35.01 1.43-47.43-.65-2.28-.39-4.44-.83-6.45-1.34-4.06-1.02-6.55-5.23-5.75-9.49l3.03-16.15c.72-3.81 4.03-6.57 7.81-6.5l6.8.11 37.62.59c3.94.07 7.41 3 8.14 6.94l3.15 16.97c.89 4.75-2.25 9.1-6.92 9.52z" fill="#b2b0f7"/><path d="M137.95 113.848v.01c-2.28-.39-4.44-.83-6.45-1.34-4.06-1.02-6.55-5.23-5.75-9.49l3.03-16.15c.72-3.81 4.03-6.57 7.81-6.5l6.8.11c-.18.559-6.46 20.059-5.44 33.36z" fill="#9797f7"/><path d="m228.993 351.855-2.243 57.967c-27.334-1.53-51.834-4.526-71.506-8.553l1.9-49.149c.663-17.022 15.925-31.634 35.131-32.701 20.459-1.136 37.447 13.354 36.718 32.436z" fill="#dedffe"/><path d="M163.189 116.604c-9.168 0-17.405-.588-24.403-1.76-2.444-.418-4.58-.862-6.531-1.357-4.542-1.141-7.393-5.817-6.487-10.644l3.03-16.15c.816-4.319 4.548-7.398 8.811-7.315l44.417.7c4.46.08 8.29 3.342 9.108 7.758l3.15 16.969c.488 2.603-.116 5.263-1.656 7.298-1.491 1.97-3.678 3.178-6.158 3.401-8.237.734-16.05 1.1-23.281 1.1zm-25.74-35.228c-3.26 0-6.061 2.373-6.687 5.687l-3.03 16.149c-.711 3.79 1.489 7.451 5.011 8.336 1.902.482 3.987.915 6.375 1.324 12.351 2.068 28.664 2.29 47.172.64 1.911-.172 3.595-1.101 4.742-2.616 1.201-1.586 1.668-3.673 1.284-5.724l-3.15-16.971c-.635-3.429-3.72-6.061-7.175-6.123l-44.418-.7a5.046 5.046 0 0 0-.124-.002zm48.931 33.131h.01z" fill="#112c41"/><path d="M164.336 94.467c1.943 5.49-.822 11.499-6.201 13.346-5.38 1.847-11.22-1.208-13.019-6.748-1.773-5.458 1.055-11.282 6.292-13.079 5.236-1.798 11.013 1.072 12.928 6.481z" fill="#112c41"/><path d="M154.912 109.354c-1.685 0-3.363-.394-4.926-1.174-2.779-1.387-4.846-3.805-5.821-6.806-1.927-5.933 1.176-12.363 6.918-14.334 5.747-1.972 12.114 1.21 14.196 7.094 1.052 2.974.886 6.156-.469 8.96-1.301 2.694-3.557 4.706-6.351 5.665a10.904 10.904 0 0 1-3.547.595zm-.326-20.899c-.951 0-1.913.153-2.854.477-4.716 1.619-7.257 6.923-5.665 11.825.808 2.488 2.517 4.489 4.812 5.635 2.185 1.091 4.646 1.261 6.931.477s4.131-2.433 5.199-4.643c1.121-2.32 1.257-4.956.384-7.423-1.375-3.886-4.999-6.348-8.807-6.348zm109.718 324.1c-1.421 0-2.836-.004-4.268-.013a663.546 663.546 0 0 1-37.75-1.265c-25.03-1.556-48.166-4.524-66.905-8.583-30.19-6.55-46.785-15.408-46.727-24.944.004-.552.492-.997 1.006-.994a1 1 0 0 1 .994 1.006c-.05 8.367 16.406 16.742 45.151 22.978 18.642 4.038 41.674 6.991 66.605 8.542 12.188.766 24.85 1.19 37.637 1.261 81.055.476 149.656-13.724 149.76-31.013a1 1 0 0 1 1-.994h.006a1 1 0 0 1 .994 1.006c-.111 18.686-64.563 33.012-147.503 33.013z" fill="#112c41"/><path d="M160.165 97.374a1.501 1.501 0 0 1-1.45-1.119c-.556-2.115-3.383-3.764-5.497-3.208a1.5 1.5 0 0 1-.763-2.901c3.73-.98 8.181 1.619 9.161 5.347a1.5 1.5 0 0 1-1.451 1.881z" fill="#fff"/><ellipse cx="206.761" cy="15.383" fill="#ffa9dc" rx="14.5" ry="5.5" transform="matrix(.9742 -.2257 .2257 .9742 1.8626 47.0597)"/><path d="M200.451 22.652c-4.499 0-8.175-1.115-8.79-3.771-.432-1.865.874-3.926 3.677-5.804 2.532-1.696 6.067-3.126 9.956-4.027s7.692-1.171 10.712-.761c3.344.454 5.423 1.731 5.855 3.595.432 1.865-.874 3.926-3.677 5.804-2.532 1.696-6.067 3.126-9.956 4.027-2.594.601-5.309.937-7.777.937zm12.588-12.55c-2.228 0-4.734.305-7.293.898-3.658.847-6.959 2.176-9.294 3.74-2.004 1.342-3.066 2.722-2.842 3.691.424 1.831 6.018 3.225 14.167 1.337 3.658-.847 6.959-2.176 9.294-3.74 2.004-1.342 3.066-2.722 2.842-3.691-.225-.969-1.786-1.741-4.176-2.065a20.093 20.093 0 0 0-2.698-.17z" fill="#112c41"/><path d="M458.643 508.762c-18.436-10.722-59.737-37.379-87.696-75.386-42.158-57.315-61.343-112.646-43.362-124.934a11.318 11.318 0 0 1 1.989-1.093v-.01c19.107-8.499 61.914 28.865 98.693 86.859 25.261 39.841 35.116 88.006 38.408 109.061.02.13.04.25.041.37.396 4.3-4.26 7.357-8.073 5.133z" fill="#cbc8ff"/><path d="M461.359 510.513a6.368 6.368 0 0 1-3.22-.888c-16.994-9.883-59.59-37.04-87.998-75.657-33.671-45.777-53.693-91.817-49.822-114.563.921-5.414 3.176-9.38 6.701-11.789a12.35 12.35 0 0 1 2.038-1.134c.035-.021.071-.04.109-.057 19.834-8.825 62.806 28.678 99.944 87.237 25.684 40.508 35.516 90.031 38.551 109.442.032.206.053.365.053.524.215 2.291-.91 4.575-2.94 5.869a6.33 6.33 0 0 1-3.416 1.016zm-131.264-202.31a.914.914 0 0 1-.132.068c-.618.261-1.228.596-1.812.997-3.061 2.092-5.032 5.616-5.859 10.474-3.786 22.246 16.091 67.674 49.461 113.042 28.185 38.314 70.505 65.293 87.393 75.114l.001.001c1.444.842 3.146.811 4.553-.086 1.417-.903 2.172-2.432 2.02-4.091-.004-.151-.018-.21-.028-.273-3.021-19.322-12.786-68.523-38.27-108.714-35.938-56.669-78.642-94.616-97.327-86.532z" fill="#112c41"/><path d="M458.643 508.762c-18.436-10.722-59.737-37.379-87.696-75.386-42.158-57.315-61.343-112.646-43.362-124.934a11.318 11.318 0 0 1 1.989-1.093c-2.673 17.894 7.934 54.766 29.445 94.835 23.066 42.965 96.974 113.532 107.696 101.445.397 4.3-4.259 7.357-8.072 5.133z" fill="#b2b0f7"/><path d="M461.355 510.499a6.398 6.398 0 0 1-3.219-.876c-16.992-9.881-59.58-37.031-87.99-75.652-33.67-45.771-53.693-91.809-49.825-114.559.921-5.416 3.175-9.384 6.701-11.794 3.526-2.411 8.042-3.071 13.423-1.964 22.603 4.652 58.233 40.02 88.662 88.007 25.675 40.491 35.517 90.03 38.556 109.449a6.342 6.342 0 0 1-2.706 6.266 6.374 6.374 0 0 1-3.602 1.123zM335.652 307.135c-2.911 0-5.422.713-7.501 2.134-3.061 2.093-5.032 5.618-5.858 10.479-3.784 22.249 16.095 67.676 49.464 113.038 28.188 38.319 70.5 65.291 87.385 75.108 1.502.874 3.254.81 4.686-.17 1.433-.979 2.128-2.589 1.859-4.305-3.02-19.296-12.795-68.513-38.27-108.687-30.157-47.558-65.271-82.569-87.376-87.119-1.549-.319-3.014-.478-4.389-.478z" fill="#112c41"/><path d="m224.221 354.104-1.872 56.176c-22.121-1.377-42.252-3.815-59.186-7.028a300.05 300.05 0 0 1-7.57-1.534l1.586-47.63c.548-16.365 14.512-30.376 32.227-31.538.14-.004.29-.02.43-.025 19.086-1.022 34.992 13.086 34.385 31.579z" fill="#dedffe"/><path d="m222.349 411.28-.062-.002c-21.599-1.344-42.108-3.78-59.311-7.044a303.02 303.02 0 0 1-7.595-1.539 1 1 0 0 1-.788-1.011l1.586-47.63c.571-17.044 15.137-31.321 33.161-32.502l.461-.026c9.876-.53 19.421 2.955 26.164 9.56 6.255 6.127 9.542 14.314 9.255 23.051l-1.872 56.176a1.001 1.001 0 0 1-.999.967zm-65.729-10.365c2.236.477 4.496.931 6.729 1.354 16.849 3.197 36.896 5.596 58.035 6.948l1.838-55.147c.269-8.17-2.806-15.826-8.656-21.556-6.344-6.214-15.343-9.491-24.677-8.991l-.453.026c-16.976 1.113-30.722 14.543-31.258 30.571zm67.601-46.811h.01z" fill="#112c41"/><path d="M189.405 322.55c-12.09 5.361-20.861 14.207-23.636 25.304-2.839 11.355-2.607 55.398-2.607 55.398a300.05 300.05 0 0 1-7.57-1.534l1.586-47.63c.548-16.366 14.512-30.377 32.227-31.538z" fill="#cbc8ff"/><path d="m222.349 411.28-.062-.002c-25.03-1.557-48.166-4.525-66.906-8.583a1 1 0 0 1-.788-1.011l1.586-47.63c.58-17.26 15.34-31.548 33.603-32.527 9.907-.531 19.44 2.954 26.184 9.559 6.255 6.127 9.542 14.314 9.255 23.051l-1.872 56.176a1.001 1.001 0 0 1-1 .967zm-65.729-10.365c18.24 3.893 40.589 6.758 64.764 8.302l1.838-55.147c.269-8.17-2.806-15.826-8.656-21.556-6.344-6.214-15.343-9.491-24.677-8.991-17.237.924-31.166 14.364-31.711 30.597zm67.601-46.811h.01zM225 678.357c0 56.424-96 112-96 112h-16c-61.856 0-112-50.144-112-112s50.144-112 112-112h19s93 58.184 93 112z" fill="#112c41"/><path d="M129 791.357h-16c-62.309 0-113-50.692-113-113s50.691-113 113-113h19a1 1 0 0 1 .53.152c.233.146 23.594 14.838 46.645 35.929C210.246 629.867 226 655.746 226 678.357c0 16.295-8.387 43.039-48.342 77.912-23.798 20.77-47.916 34.814-48.157 34.953a.99.99 0 0 1-.501.135zm0-1h.01zm-16-223c-61.206 0-111 49.794-111 111s49.794 111 111 111h15.728c5.229-3.089 95.272-57.132 95.272-111 0-51.326-87.045-107.656-92.29-111z" fill="#112c41"/><circle cx="129" cy="678.357" fill="#9797f7" r="112"/><path d="M129 791.357c-62.309 0-113-50.692-113-113s50.691-113 113-113 113 50.692 113 113-50.691 113-113 113zm0-224c-61.206 0-111 49.794-111 111s49.794 111 111 111 111-49.794 111-111-49.794-111-111-111z" fill="#112c41"/><circle cx="129" cy="678.357" fill="#cbc8ff" r="82"/><path d="M129 761.357c-45.767 0-83-37.234-83-83s37.233-83 83-83 83 37.234 83 83-37.233 83-83 83zm0-164c-44.664 0-81 36.336-81 81s36.336 81 81 81 81-36.336 81-81-36.336-81-81-81z" fill="#112c41"/><path d="m382 613.357-1 .02v144.98l-227.78-.12c-41.07-2.24-73.69-36.25-73.69-77.88 0-34.7 22.66-64.09 53.99-74.22l-.01-.01 29.13-14.06c4.39-2.11 7.8-5.64 9.82-9.87 1.31-2.75 2.02-5.81 2.02-8.98v-1.071a7.43 7.43 0 0 1 7.508-7.43l9.762.102 140.897 1.464a7.43 7.43 0 0 1 7.353 7.43v3.106c0 .69.03 1.37.1 2.05.66 6.95 4.66 13.2 10.79 16.71l13.41 7.66 16.7.08v9.47z" fill="#fff"/><path d="m381 759.357-227.78-.12c-41.906-2.284-74.689-36.931-74.689-78.88 0-34.332 21.904-64.5 54.525-75.121l.02-.01 29.13-14.06c4.07-1.956 7.391-5.295 9.352-9.401a20.005 20.005 0 0 0 1.922-8.549v-1.072a8.37 8.37 0 0 1 2.5-5.992 8.328 8.328 0 0 1 6.018-2.438l150.658 1.565c4.601.048 8.343 3.83 8.343 8.43v3.106a20.645 20.645 0 0 0 10.387 17.892l13.18 7.529 16.438.079a1 1 0 0 1 .995 1v8.889l.495.282a1 1 0 0 1-.475 1.868h-.02v144a1.004 1.004 0 0 1-.999 1.003zM134.087 606.959a1.005 1.005 0 0 1-.26.13c-31.879 10.308-53.297 39.752-53.297 73.269 0 40.886 31.953 74.657 72.745 76.881l226.725.118v-143.98c0-.103.016-.202.044-.295a.999.999 0 0 1-.044-.295v-8.475l-15.705-.075a.998.998 0 0 1-.491-.132l-13.41-7.66A22.648 22.648 0 0 1 339 576.817v-3.106c0-3.509-2.855-6.394-6.364-6.43l-150.658-1.566h-.069a6.381 6.381 0 0 0-4.521 1.86 6.384 6.384 0 0 0-1.907 4.571v1.072c0 3.249-.732 6.503-2.117 9.41-2.157 4.517-5.811 8.189-10.29 10.341z" fill="#112c41"/><path d="M381 731.457v26.9l-227.78-.12c-41.07-2.24-73.69-36.25-73.69-77.88 0-34.7 22.66-64.09 53.99-74.22l-.01-.01 29.13-14.06c4.39-2.11 7.8-5.64 9.82-9.87 1.31-2.75 2.02-5.81 2.02-8.98a8.492 8.492 0 0 1 8.58-8.491l8.69.091c3.033 13.944-1.797 28.437-12.618 37.738-22.171 19.056-56.663 43.171-56.132 66.802 2 89 168.44 64.15 258 62.1z" fill="#dedffe"/><path d="m381 759.357-227.78-.124c-41.907-2.28-74.692-36.926-74.692-78.876 0-34.337 21.91-64.506 54.537-75.122a.03.03 0 0 0 .008-.004l29.133-14.062c6.847-3.305 11.271-10.353 11.271-17.956v-1.831c0-2.065.808-4.002 2.276-5.454a7.623 7.623 0 0 1 5.477-2.219l152.176 1.579c4.187.043 7.594 3.486 7.594 7.673v3.853a20.66 20.66 0 0 0 10.386 17.898l13.179 7.531 16.439.072a1 1 0 0 1 .996 1v8.891l.496.283a1 1 0 0 1-.473 1.868H382v144a.997.997 0 0 1-1 1zM134.087 606.963a.957.957 0 0 1-.256.127c-31.882 10.305-53.303 39.749-53.303 73.268 0 40.888 31.955 74.657 72.747 76.877l226.725.122V613.38c0-.104.016-.203.045-.297a1.018 1.018 0 0 1-.045-.297v-8.476l-15.707-.068a1.002 1.002 0 0 1-.492-.132l-13.407-7.661A22.664 22.664 0 0 1 339 576.814v-3.853c0-3.096-2.519-5.641-5.614-5.673L181.21 565.71c-1.552-.023-2.965.567-4.05 1.641s-1.683 2.506-1.683 4.032v1.831c0 8.365-4.868 16.12-12.402 19.757z" fill="#112c41"/><path d="M512 678.357c0 56.424-96 112-96 112h-16c-61.856 0-112-50.144-112-112s50.144-112 112-112h19s93 58.184 93 112z" fill="#112c41"/><path d="M416 791.357h-16c-62.309 0-113-50.692-113-113s50.691-113 113-113h19a1 1 0 0 1 .53.152c.233.146 23.594 14.838 46.645 35.929C497.246 629.867 513 655.746 513 678.357c0 16.295-8.387 43.039-48.342 77.912-23.798 20.77-47.916 34.814-48.157 34.953a.99.99 0 0 1-.501.135zm0-1h.01zm-16-223c-61.206 0-111 49.794-111 111s49.794 111 111 111h15.728c5.229-3.089 95.272-57.132 95.272-111 0-51.326-87.045-107.656-92.29-111z" fill="#112c41"/><circle cx="416" cy="678.357" fill="#9797f7" r="112"/><path d="M416 791.357c-62.309 0-113-50.692-113-113s50.691-113 113-113 113 50.692 113 113-50.691 113-113 113zm0-224c-61.206 0-111 49.794-111 111s49.794 111 111 111 111-49.794 111-111-49.794-111-111-111z" fill="#112c41"/><path d="M498 678.357c0 27.4-13.43 51.66-34.08 66.54-13.48 9.73-30.03 15.46-47.92 15.46-45.29 0-82-36.71-82-82 0-17.89 5.73-34.44 15.46-47.92 14.88-20.65 39.14-34.08 66.54-34.08 45.29 0 82 36.71 82 82z" fill="#cbc8ff"/><path d="M416 761.357c-45.767 0-83-37.234-83-83 0-17.549 5.412-34.322 15.649-48.505 15.564-21.599 40.742-34.495 67.351-34.495 45.767 0 83 37.234 83 83 0 26.609-12.896 51.787-34.496 67.351-14.182 10.238-30.955 15.649-48.504 15.649zm0-164c-25.968 0-50.539 12.585-65.729 33.665-9.99 13.841-15.271 30.209-15.271 47.335 0 44.664 36.336 81 81 81 17.126 0 33.494-5.281 47.334-15.271C484.415 728.896 497 704.325 497 678.357c0-44.663-36.336-81-81-81z" fill="#112c41"/><path d="M490 685.357c0 23.55-10.04 44.74-26.08 59.54-13.48 9.73-30.03 15.46-47.92 15.46-45.29 0-82-36.71-82-82 0-17.89 5.73-34.44 15.46-47.92 14.8-16.04 35.99-26.08 59.54-26.08 44.74 0 81 36.26 81 81z" fill="#dedffe"/><path d="M416 761.357c-45.767 0-83-37.234-83-83s37.233-83 83-83 83 37.234 83 83-37.233 83-83 83zm0-164c-44.664 0-81 36.336-81 81s36.336 81 81 81 81-36.336 81-81-36.336-81-81-81z" fill="#112c41"/><ellipse cx="413.5" cy="682.857" fill="#cbc8ff" rx="27.5" ry="26.5"/><circle cx="416" cy="678.357" fill="#9797f7" r="26"/><path d="M416 705.357c-14.888 0-27-12.112-27-27s12.112-27 27-27 27 12.112 27 27-12.112 27-27 27zm0-52c-13.785 0-25 11.215-25 25s11.215 25 25 25 25-11.215 25-25-11.215-25-25-25z" fill="#112c41"/></svg></g><g transform="translate(573.3333333333334 2461.666666666667) rotate(0.0 487.50000000000006 40.0) scale(1.1209924519841568 1.085010578853144)"><svg width="869.765" height="73.732" viewBox="0 0 869.765 73.732"><ellipse cx="434.882" cy="36.866" fill="#cbc8ff" rx="434.882" ry="36.866"/></svg></g><g transform="translate(650.0 1123.3333333333335) rotate(0.0 496.66666666666674 700.8333333333333) scale(1.6828029398228543 1.6792500601015776)"><svg width="590.285" height="834.698" viewBox="0 0 590.285 834.698"><path d="M70.993 720.88a834.077 834.077 0 0 0-1.863-39.065l-.004-.218c-.009-.085-.007-.167-.011-.231-.947-13.315-1.852-26.242-2.737-37.523 0 0 92.936-3.022 143.116-11.048.685 12.584 1.186 22.999 1.361 36.337.307 22.931.506 42.514.506 42.514z" fill="#ffd6c0"/><path d="m81.382 634.671 5.352 85.335c-3.756 2.829-10.978 8.39-13.786 9.845-2.326-34.053-6.254-91.137-6.254-91.137z" fill="#f5b9ab"/><path d="M70.993 721.88a1.001 1.001 0 0 1-1-.976c-.317-13.086-.908-25.484-1.861-39.019l-.007-.269s-.006-.076-.008-.144l-.36-5.091c-.826-11.631-1.605-22.617-2.377-32.461a1.002 1.002 0 0 1 .964-1.078c.929-.03 93.447-3.112 142.991-11.036a1.001 1.001 0 0 1 1.157.933c.638 11.713 1.18 22.535 1.362 36.378.303 22.67.504 42.321.506 42.517a1 1 0 0 1-.935 1.008l-140.367 9.234a1.368 1.368 0 0 1-.065.002zm-3.538-77.074c.746 9.583 1.5 20.208 2.297 31.434l.359 5.055.005.119.009.163.004.218a827.097 827.097 0 0 1 1.837 38.019l138.383-9.103c-.044-4.189-.23-21.72-.496-41.565-.176-13.369-.689-23.919-1.299-35.189-47.028 7.362-130.774 10.487-141.1 10.85z" fill="#112c41"/><path d="M278.422 789.19c-47.988 17.729-112.407 18.11-166.741 9.573-15.839-2.493-30.819-5.731-44.285-9.531 0 0 3.005-42.649 3.597-68.352l11.34-.714s128.689-8.412 129.028-8.519c10.053 4.893 55.821 30.092 67.061 77.544z" fill="#b2b0f7"/><path d="M179.775 805.149c-22.125 0-45.218-1.779-68.249-5.398-15.805-2.487-30.744-5.702-44.402-9.556a1 1 0 0 1-.726-1.033c.03-.426 3.011-42.92 3.596-68.305a1 1 0 0 1 .937-.975l11.339-.714c1.266-.083 126.591-8.276 128.949-8.511a.998.998 0 0 1 .58.091c9.262 4.508 56.051 29.468 67.597 78.212a1 1 0 0 1-.626 1.168c-26.841 9.916-61.526 15.021-98.994 15.021zM68.45 788.49c13.37 3.735 27.962 6.857 43.387 9.285 61.307 9.634 123.04 6.184 165.404-9.217-11.808-47.729-59.585-72.7-66.097-75.905-2.638.213-19.315 1.356-128.746 8.51l-10.427.657c-.585 23.545-3.11 60.716-3.521 66.669z" fill="#360815"/><path d="M67.396 789.232s3.005-42.649 3.597-68.352l14.046 1.646c2.364 22.347 5.527 57.319 16.449 74.689.115.182-20.626-4.183-34.092-7.983z" fill="#9797f7"/><path d="M140.673 804.842a2.5 2.5 0 0 1-2.497-2.421c-1.026-32.551-29.444-72.019-65.939-76.115a2.5 2.5 0 0 1 .557-4.969c18.304 2.055 35.906 12.383 49.564 29.082 12.678 15.501 20.265 34.397 20.815 51.845a2.499 2.499 0 0 1-2.42 2.577l-.08.001z" fill="#fff"/><path d="M179.775 805.149c-22.125 0-45.218-1.779-68.249-5.398-15.805-2.487-30.744-5.702-44.402-9.556a1 1 0 0 1-.726-1.033c.03-.426 3.011-42.92 3.596-68.305a1 1 0 0 1 .937-.975l11.339-.714c1.266-.083 126.591-8.276 128.949-8.511a.998.998 0 0 1 .58.091c9.262 4.508 56.051 29.468 67.597 78.212a1 1 0 0 1-.626 1.168c-26.841 9.916-61.526 15.021-98.994 15.021zM68.45 788.49c13.37 3.735 27.962 6.857 43.387 9.285 61.307 9.634 123.04 6.184 165.404-9.217-11.808-47.729-59.585-72.7-66.097-75.905-2.638.213-19.315 1.356-128.746 8.51l-10.427.657c-.585 23.545-3.11 60.716-3.521 66.669z" fill="#112c41"/><path d="M282.236 812.028c.051 1.596-.455 3.037-1.826 4.174-24.952 20.703-147.979 24.367-207.843 3.764-5.128-1.765-6.252-4.737-6.495-8.053l1.325-22.68c59.683 16.82 149.051 22.85 211.026-.042 2.023 7.754 3.584 15.627 3.814 22.838z" fill="#fff"/><path d="M178.072 834.702c-41.429 0-80.347-5.021-105.831-13.791-5.888-2.027-6.927-5.649-7.167-8.925a.954.954 0 0 1 0-.131l1.324-22.68a1 1 0 0 1 1.27-.904c57.469 16.196 147.827 23.099 210.408-.018a1.001 1.001 0 0 1 1.314.685c2.384 9.138 3.642 16.68 3.845 23.059.065 2.043-.67 3.717-2.186 4.975-11.881 9.857-46.921 16.602-91.446 17.602-3.856.087-7.708.129-11.531.129zM67.073 811.904c.244 3.155 1.339 5.573 5.819 7.116 61.797 21.267 183.243 16.022 206.879-3.588 1.03-.855 1.509-1.958 1.464-3.373-.19-5.979-1.338-13.039-3.507-21.551-62.521 22.656-151.904 15.972-209.408.021l-1.248 21.375z" fill="#112c41"/><path d="M70.994 720.875c42.332 7.092 102.64 2.114 140.367-9.229 0 0-.242-16.108-.42-36.161-.004-.695-.015-1.398-.026-2.101s-.022-1.406-.025-2.115l-.031-2.137c-35.077 9.962-92.626 13.793-141.749 11.948 0 0 .007.1.007.284.002.064-.004.149.011.228.001.078-.004.149.005.22a833.177 833.177 0 0 1 1.861 39.063z" fill="#fff"/><path d="M115.557 725.134c-16.132 0-31.517-1.059-44.729-3.272a.999.999 0 0 1-.834-.962c-.317-13.096-.908-25.494-1.859-39.017a1.925 1.925 0 0 1-.007-.228 2.348 2.348 0 0 1-.011-.232c0-.19-.005-.268-.005-.282-.017-.282.086-.558.284-.759s.456-.312.752-.301c53.38 2.006 108.899-2.669 141.438-11.91a1 1 0 0 1 1.273.948l.031 2.134c.003.717.014 1.415.025 2.114.011.708.022 1.414.026 2.112.177 19.817.418 35.991.42 36.152.006.447-.284.844-.712.973-26.88 8.082-63.042 12.531-96.091 12.531zm-43.584-5.11c39.773 6.476 98.899 2.582 138.376-9.12a6829.49 6829.49 0 0 1-.41-35.41 210.52 210.52 0 0 0-.026-2.093c-.011-.709-.021-1.414-.025-2.126l-.012-.829c-32.658 8.998-87.161 13.559-139.722 11.674a829.075 829.075 0 0 1 1.818 37.904z" fill="#112c41"/><circle cx="199.577" cy="740.255" fill="#ffe993" r="8.5"/><path d="M200.98 742.851c15.293-.574 31.438-9.262 35.956-13.91a2.832 2.832 0 1 0-4.062-3.948c-3.468 3.568-18.862 12.019-32.99 12.22a2.83 2.83 0 1 0 .077 5.663c.339-.004.679-.013 1.019-.026z" fill="#fff"/><path d="M199.92 743.878a3.807 3.807 0 0 1-2.67-1.086 3.81 3.81 0 0 1-1.159-2.694 3.839 3.839 0 0 1 3.779-3.884c13.853-.197 28.911-8.442 32.288-11.917a3.838 3.838 0 0 1 5.419-.077c.734.713 1.146 1.67 1.161 2.693s-.371 1.992-1.084 2.726c-4.647 4.781-20.864 13.619-36.634 14.211-.348.014-.698.022-1.045.027h-.054zm34.986-18.741a1.83 1.83 0 0 0-1.314.554c-3.549 3.652-19.294 12.318-33.693 12.523a1.836 1.836 0 0 0-1.808 1.856c.007.489.204.947.554 1.289.351.341.825.518 1.302.519.331-.004.663-.012.994-.025h.001c15.025-.564 30.952-9.158 35.276-13.607.342-.351.526-.814.519-1.303s-.204-.947-.555-1.288a1.826 1.826 0 0 0-1.276-.517z" fill="#112c41"/><circle cx="217.106" cy="760.633" fill="#ffe993" r="8.5"/><path d="M218.586 763.186c15.27-1.026 32.148-12.19 36.526-16.97a2.833 2.833 0 0 0-4.177-3.827c-3.361 3.669-19.495 14.574-33.612 15.193a2.832 2.832 0 1 0 .245 5.659c.339-.014.679-.033 1.018-.056z" fill="#fff"/><path d="M217.44 764.245a3.8 3.8 0 0 1-2.584-1.008 3.808 3.808 0 0 1-1.238-2.659 3.839 3.839 0 0 1 3.662-3.994c14.056-.617 29.83-11.498 32.919-14.869a3.837 3.837 0 0 1 5.414-.237 3.836 3.836 0 0 1 .237 5.414c-4.109 4.486-21.208 16.218-37.197 17.292-.347.024-.695.042-1.043.057-.057.002-.113.004-.169.004zm35.584-21.772c-.496 0-.991.2-1.352.594-3.224 3.519-19.671 14.874-34.305 15.516a1.835 1.835 0 0 0-1.752 1.909c.021.489.231.94.592 1.271.36.331.82.498 1.317.48.332-.014.663-.032.994-.054 15.426-1.037 31.9-12.33 35.856-16.647a1.835 1.835 0 0 0-.114-2.589 1.826 1.826 0 0 0-1.236-.48z" fill="#112c41"/><path d="M363.725 710.176a833.569 833.569 0 0 0-9.787-37.865l-.049-.213c-.026-.082-.041-.162-.058-.223-3.641-12.842-7.162-25.314-10.328-36.178 0 0 90.368-21.903 137.859-39.989 3.236 12.18 5.849 22.274 8.739 35.297 4.975 22.387 9.162 41.518 9.162 41.518l-135.538 37.652z" fill="#ffd6c0"/><path d="m356.323 623.659 22.635 82.452c-3.1 3.535-9.038 10.452-11.49 12.448-9.218-32.864-24.7-87.948-24.7-87.948l13.556-6.952z" fill="#f5b9ab"/><path d="M363.725 711.176a.994.994 0 0 1-.973-.773c-2.977-12.744-6.083-24.761-9.775-37.821l-.062-.264s-.021-.073-.037-.139l-1.417-5.007c-3.169-11.182-6.162-21.744-8.916-31.195a.998.998 0 0 1 .725-1.252c.903-.219 90.851-22.095 137.739-39.951a.996.996 0 0 1 1.322.677c3.011 11.333 5.748 21.815 8.749 35.336 4.918 22.133 9.121 41.33 9.163 41.521a1 1 0 0 1-.709 1.177l-135.539 37.652a1.019 1.019 0 0 1-.268.037zm-18.97-74.755c2.676 9.2 5.57 19.415 8.628 30.207l1.41 4.975.029.113c.009.027.037.135.043.162l.047.205a827.626 827.626 0 0 1 9.549 36.852l133.623-37.121c-.897-4.092-4.653-21.217-8.958-40.591-2.898-13.058-5.551-23.28-8.445-34.186-44.54 16.793-125.891 36.924-135.925 39.384z" fill="#112c41"/><path d="M580.723 734.77c-43.367 27.138-106.356 40.642-161.289 43.36-16.015.788-31.34.672-45.298-.303 0 0-5.751-42.367-10.411-67.651l10.956-3.011s124.273-34.468 124.582-34.642c10.839 2.741 60.783 18.082 81.46 62.246z" fill="#b2b0f7"/><path d="M398.711 779.651c-8.517 0-16.754-.276-24.645-.827a1 1 0 0 1-.921-.863c-.058-.424-5.802-42.632-10.404-67.604a1.001 1.001 0 0 1 .718-1.146l10.956-3.011c1.223-.339 122.262-33.911 124.507-34.618.187-.068.392-.078.586-.029 9.986 2.525 60.879 17.422 82.12 62.792a1 1 0 0 1-.375 1.271c-38.58 24.143-99.055 40.409-161.77 43.512-7.073.348-14.011.522-20.772.522zm-23.694-2.767c13.849.932 28.771 1.015 44.368.247 61.981-3.066 121.716-19.028 160.052-42.739-21.289-44.321-73.152-59.028-80.18-60.838-2.538.746-18.626 5.263-124.309 34.575l-10.074 2.768c4.227 23.17 9.333 60.076 10.143 65.987z" fill="#360815"/><path d="M374.136 777.827s-5.751-42.367-10.411-67.651l14.087-1.251c6.87 21.396 17.095 54.989 31.328 69.768.149.155-21.046.109-35.004-.866z" fill="#9797f7"/><path d="M448.547 778.225a2.5 2.5 0 0 1-2.428-1.914c-7.641-31.659-43.51-64.506-80.071-61.076a2.5 2.5 0 1 1-.467-4.979c18.335-1.719 37.676 4.803 54.452 18.369 15.572 12.591 26.851 29.544 30.946 46.513a2.5 2.5 0 0 1-2.432 3.087z" fill="#fff"/><path d="M398.711 779.651c-8.517 0-16.754-.276-24.645-.827a1 1 0 0 1-.921-.863c-.058-.424-5.802-42.632-10.404-67.604a1.001 1.001 0 0 1 .718-1.146l10.956-3.011c1.223-.339 122.262-33.911 124.507-34.618.187-.068.392-.078.586-.029 9.986 2.525 60.879 17.422 82.12 62.792a1 1 0 0 1-.375 1.271c-38.58 24.143-99.055 40.409-161.77 43.512-7.073.348-14.011.522-20.772.522zm-23.694-2.767c13.849.932 28.771 1.015 44.368.247 61.981-3.066 121.716-19.028 160.052-42.739-21.289-44.321-73.152-59.028-80.18-60.838-2.538.746-18.626 5.263-124.309 34.575l-10.074 2.768c4.227 23.17 9.333 60.076 10.143 65.987z" fill="#112c41"/><path d="M589.112 756.351c.375 1.552.174 3.066-.936 4.458-20.208 25.354-139.905 54.019-202.712 46.051-5.38-.683-7.087-3.364-8.001-6.56l-3.326-22.474c61.859 4.301 150.579-8.012 206.587-43.057 3.561 7.178 6.694 14.569 8.389 21.581z" fill="#fff"/><path d="M409.504 809.217c-8.818 0-16.943-.448-24.167-1.365-6.177-.784-7.933-4.119-8.836-7.277a1.123 1.123 0 0 1-.028-.128l-3.326-22.474a1 1 0 0 1 1.058-1.144c59.569 4.143 149.431-7.519 205.987-42.907a.999.999 0 0 1 1.426.403c4.197 8.458 6.966 15.586 8.465 21.79.48 1.987.101 3.776-1.126 5.316-9.622 12.073-42.552 25.818-85.938 35.873-33.481 7.759-66.688 11.913-93.516 11.913zm-31.062-9.129c.881 3.04 2.447 5.184 7.147 5.78 64.833 8.228 182.661-21.665 201.804-45.682.835-1.047 1.079-2.225.747-3.601-1.406-5.816-3.969-12.493-7.827-20.384-56.59 34.925-145.457 46.602-205.006 42.706z" fill="#112c41"/><path d="M363.725 710.172c42.889-1.685 100.916-18.852 135.539-37.648 0 0-3.52-15.72-7.783-35.316-.146-.68-.3-1.366-.454-2.052s-.308-1.372-.456-2.065l-.466-2.086c-32.31 16.903-87.87 32.384-136.337 40.591 0 0 .027.096.065.277.015.062.026.146.057.221.017.076.026.146.05.215a835.01 835.01 0 0 1 9.785 37.863z" fill="#fff"/><path d="M363.724 711.172a1 1 0 0 1-.973-.772c-2.98-12.757-6.086-24.774-9.774-37.819a1.84 1.84 0 0 1-.053-.22 2.592 2.592 0 0 1-.058-.226 5.552 5.552 0 0 0-.062-.272 1.005 1.005 0 0 1 .797-1.252c52.67-8.918 106.069-24.812 136.041-40.492a1.001 1.001 0 0 1 1.44.668l.465 2.084c.147.691.298 1.364.449 2.037l.042.188c.143.636.285 1.271.42 1.901 4.213 19.365 7.746 35.15 7.781 35.307a1 1 0 0 1-.499 1.098c-36.708 19.928-95.166 36.165-135.977 37.768h-.04zm-8.72-38.77a830.46 830.46 0 0 1 9.506 36.737c40.258-1.767 97.349-17.631 133.612-37.134-.746-3.339-3.92-17.581-7.619-34.583-.135-.627-.276-1.256-.417-1.885l-.036-.16c-.159-.708-.312-1.388-.458-2.076l-.181-.809c-30.137 15.467-82.563 31.041-134.408 39.91z" fill="#112c41"/><circle cx="493.558" cy="702.935" fill="#ffe993" r="8.5"/><path d="M495.462 705.19c14.855-3.679 28.89-15.476 32.366-20.947a2.832 2.832 0 1 0-4.781-3.037c-2.668 4.2-16.016 15.612-29.807 18.688a2.833 2.833 0 0 0 1.229 5.529c.331-.073.663-.151.992-.233z" fill="#fff"/><path d="M493.854 706.491a3.838 3.838 0 0 1-3.74-3.001 3.84 3.84 0 0 1 2.907-4.572c13.521-3.017 26.583-14.159 29.181-18.249a3.84 3.84 0 0 1 5.29-1.18 3.837 3.837 0 0 1 1.18 5.29c-3.576 5.629-17.651 17.588-32.97 21.382a45.3 45.3 0 0 1-1.016.239 3.833 3.833 0 0 1-.832.091zm31.586-25.598c-.606 0-1.201.3-1.55.849-2.73 4.299-16.378 15.992-30.433 19.128a1.836 1.836 0 0 0-1.391 2.186c.106.478.392.886.805 1.148.412.263.902.35 1.381.243.323-.072.646-.148.969-.228 14.594-3.614 28.435-15.275 31.762-20.513a1.834 1.834 0 0 0-1.543-2.814z" fill="#112c41"/><circle cx="514.873" cy="719.311" fill="#ffe993" r="8.5"/><path d="M516.843 721.509c14.74-4.118 28.988-18.487 32.3-24.059a2.833 2.833 0 0 0-4.869-2.895c-2.543 4.277-16.115 18.242-29.809 21.726a2.834 2.834 0 0 0 1.393 5.491 42 42 0 0 0 .985-.262z" fill="#fff"/><path d="M515.155 722.86a3.818 3.818 0 0 1-1.954-.541 3.81 3.81 0 0 1-1.754-2.351 3.838 3.838 0 0 1 2.771-4.657c13.635-3.469 26.86-17.337 29.197-21.268a3.836 3.836 0 0 1 5.252-1.335 3.837 3.837 0 0 1 1.336 5.252c-3.109 5.23-17.458 20.2-32.891 24.511-.335.094-.672.184-1.009.269-.314.08-.632.119-.948.119zm31.558-28.689c-.626 0-1.236.32-1.579.896-2.438 4.102-16.226 18.572-30.422 22.184a1.837 1.837 0 0 0-1.326 2.227c.12.475.418.874.838 1.124a1.82 1.82 0 0 0 1.388.202c.322-.081.643-.167.962-.256 14.891-4.16 28.717-18.573 31.71-23.607a1.836 1.836 0 0 0-.639-2.512 1.815 1.815 0 0 0-.932-.256z" fill="#112c41"/><path d="M483.32 603.14S447 621.1 409 631.1c-18.17 4.78-38.17 8.19-54.09 10.45-4.85.69-9.33 1.27-13.26 1.75-9.26 1.13-17.8-5.17-19.41-14.37-4.72-26.86-15.38-84.63-31.24-153.83-21.27-92.8-53.75-178.13-90.22-228.88v-.01s-.01 0-.02-.02c-1.25-1.74-2.5-3.44-3.76-5.09.02.34.05.68.07 1.02v.01C201.1 298.66 209 344.83 209 465.1c0 121 .9 175.48.9 175.48S182 648.1 133 649.1c-25.76.53-46.56-.61-60.48-1.8-2.23-.19-4.28-.38-6.15-.57a16.157 16.157 0 0 1-14.48-14.71C48.85 596.5 40.1 495.65 32 417.1c-7.54-73.16-31-165-31-247C1 107.96 45.12 26.43 130.09 5.87 149.04 1.28 170.02-.27 193 2.1c140.85 14.53 200 211 234 339s56.32 262.04 56.32 262.04z" fill="#ffa9dc"/><path d="M120.182 650.233c-20.366 0-36.837-1.003-47.747-1.936-2.236-.19-4.291-.381-6.166-.571-8.208-.828-14.675-7.397-15.375-15.621-3.335-38.968-11.949-137.916-19.888-214.902-2.784-27.01-7.692-56.285-12.889-87.278C9.21 276.804 0 221.874 0 170.1c0-32.827 11.978-68.65 32.864-98.283C49.706 47.92 80.205 16.912 129.855 4.898c19.82-4.8 41.1-6.076 63.247-3.792 33.226 3.428 64.097 17.336 91.755 41.338 23.94 20.776 46.175 49.753 66.088 86.125 35.228 64.346 57.836 140.05 77.021 212.274 33.624 126.582 56.117 260.792 56.34 262.133.072.435-.148.865-.543 1.061-.364.18-36.847 18.12-74.509 28.031-15.218 4.003-33.455 7.527-54.204 10.473-4.31.613-8.777 1.203-13.279 1.752-9.807 1.194-18.817-5.477-20.516-15.19-4.93-28.051-15.542-85.332-31.23-153.779-22.072-96.299-54.896-179.591-90.057-228.52-.009-.013-.018-.025-.026-.039-.589-.82-1.154-1.598-1.703-2.343.96 13.072 2.118 25.601 3.338 38.822 3.948 42.75 8.422 91.204 8.422 181.856 0 119.605.891 174.919.9 175.463a1 1 0 0 1-.74.982c-.28.076-28.58 7.563-77.14 8.555-4.43.091-8.714.132-12.838.132zM172.043 2.005c-14.454 0-28.42 1.616-41.718 4.836C46.975 27.01 2 106.009 2 170.1c0 51.607 9.196 106.454 18.089 159.494 5.202 31.025 10.116 60.331 12.906 87.404C40.935 494 49.551 592.962 52.887 631.935c.619 7.266 6.332 13.07 13.583 13.801 1.866.189 3.911.379 6.135.568 13.072 1.117 34.158 2.336 60.375 1.797 43.926-.897 71.139-7.121 75.909-8.296-.108-7.159-.888-62.797-.888-174.705 0-90.56-4.47-138.965-8.414-181.672-1.295-14.025-2.519-27.273-3.513-41.226l-.071-1.043a1 1 0 0 1 1.793-.665 217.34 217.34 0 0 1 3.738 5.059.986.986 0 0 1 .118.167c35.289 49.148 68.208 132.663 90.324 229.158 15.698 68.491 26.317 125.81 31.25 153.881 1.517 8.666 9.56 14.617 18.304 13.55a671.103 671.103 0 0 0 13.24-1.748c20.673-2.935 38.833-6.443 53.976-10.427 34.672-9.124 68.344-25.09 73.464-27.564-1.844-10.908-23.87-139.588-56.176-261.211-19.152-72.103-41.717-147.668-76.842-211.828C306.72 51.951 254.135 9.412 192.897 3.095a203.238 203.238 0 0 0-20.854-1.089z" fill="#112c41"/><path d="M30 210.1c1 65 24 233 29 309 4.007 60.901 2.03 114.4 13.52 128.2-2.23-.19-4.28-.38-6.15-.57a16.157 16.157 0 0 1-14.48-14.71C48.85 596.5 40.1 495.65 32 417.1c-7.54-73.16-31-165-31-247C1 107.96 45.12 26.43 130.09 5.87 49 47.1 28.568 117.052 30 210.1zm324.91 431.45c-4.85.69-9.33 1.27-13.26 1.75-9.26 1.13-17.8-5.17-19.41-14.37-4.72-26.86-15.38-84.63-31.24-153.83-21.27-92.8-53.75-178.13-90.22-228.88v-.01s-.01 0-.02-.02c-.24-.15-2.36-1.62-3.69-4.06v-.01c-.62-1.14-1.07-2.49-1.07-4.02 0-5-.82-28.94 1.09-33.97 0 0 52.91 39.97 81.91 146.97 24.94 92.022 43 192 50 231s8.54 55.12 24.77 59.06c.43.1.81.23 1.14.39z" fill="#ff90d8"/><g fill="#112c41"><path d="M120.027 650.233c-23.363 0-41.769-1.307-53.756-2.509-8.208-.823-14.675-7.391-15.378-15.617-3.313-38.75-11.882-137.262-19.887-214.904-2.784-27.008-7.692-56.278-12.888-87.267C9.21 276.812 0 221.878 0 170.1c0-21.472 5.128-44.429 14.829-66.388 10.361-23.454 25.57-44.631 43.982-61.241 25.058-22.606 68.7-48.135 134.291-41.365 33.226 3.428 64.097 17.336 91.755 41.339 23.94 20.776 46.175 49.752 66.088 86.125 35.227 64.346 57.836 140.05 77.02 212.274 33.624 126.582 56.122 260.796 56.345 262.137.072.435-.148.865-.543 1.061-.364.18-36.852 18.115-74.514 28.026-23.333 6.14-49.575 10.035-67.482 12.221-9.801 1.196-18.813-5.473-20.519-15.183-4.915-27.986-15.506-85.179-31.228-153.782-22.545-98.379-55.903-182.225-91.784-230.896.96 13.089 2.12 25.644 3.341 38.875 3.946 42.743 8.417 91.188 8.417 181.797 0 119.605.895 174.917.904 175.462a1 1 0 0 1-.74.982c-.28.076-28.584 7.564-77.144 8.556-4.483.091-8.818.133-12.994.133zM171.979 1.998c-53.348 0-89.835 22.117-111.829 41.958C24.282 76.315 2 124.65 2 170.1c0 51.612 9.196 106.461 18.09 159.505 5.201 31.021 10.114 60.322 12.904 87.393C41 494.656 49.572 593.181 52.885 631.936c.621 7.268 6.334 13.071 13.584 13.798 14.075 1.412 37.041 2.969 66.509 2.366 43.926-.896 71.142-7.122 75.913-8.296-.108-7.159-.892-62.796-.892-174.704 0-90.517-4.467-138.914-8.409-181.613-1.327-14.383-2.582-27.968-3.588-42.317a1 1 0 0 1 1.794-.675c36.819 48.446 71.146 133.875 94.178 234.381 15.732 68.647 26.331 125.878 31.249 153.883 1.521 8.662 9.564 14.613 18.307 13.543 17.845-2.179 43.992-6.059 67.215-12.17 34.665-9.122 68.346-25.086 73.469-27.56-1.845-10.908-23.875-139.592-56.181-261.216-19.152-72.102-41.717-147.668-76.842-211.827C306.721 51.952 254.136 9.413 192.897 3.095a203.789 203.789 0 0 0-20.918-1.097z"/><path d="M198.998 265.1a1 1 0 0 1-.988-.854c-6.296-42.812-4.02-70.365 7.164-86.71a1 1 0 1 1 1.651 1.129c-10.882 15.905-13.054 43.006-6.836 85.29a1 1 0 0 1-.991 1.146z"/></g></svg></g><g transform="translate(1068.3333333333335 405.0) rotate(50.480596407834966 250.0 250.0) scale(1.6666666666666667 1.6666666666666667)"><svg width="300" height="300" viewBox="0 0 300 300"><path d="M51.314 158.691c1.598 22.007 14.142 97.056 16.264 109.663a1.945 1.945 0 0 0 2.135 1.616c16.507-1.79 140.867-17.19 217.782-82.03a1.968 1.968 0 0 0 .448-2.456l-53.83-97.331a1.96 1.96 0 0 0-2.423-.879L52.562 156.731a1.952 1.952 0 0 0-1.248 1.96z" fill="#b2b0f7"/><path d="m52.558 156.729 2.456-.95c5.845 26.727 25.531 94.799 30.561 112.095-7.677 1.151-13.191 1.806-15.866 2.092a1.944 1.944 0 0 1-2.134-1.611c-2.117-12.603-14.665-87.651-16.263-109.664a1.961 1.961 0 0 1 1.246-1.962z" fill="#9797f7"/><path d="M69.501 270.98a2.954 2.954 0 0 1-2.908-2.461c-2.438-14.48-14.684-87.82-16.275-109.757a2.935 2.935 0 0 1 1.885-2.964L231.33 86.34a2.969 2.969 0 0 1 3.66 1.328l53.83 97.33a2.972 2.972 0 0 1-.68 3.704c-77.516 65.347-204.136 80.722-218.318 82.26a2.692 2.692 0 0 1-.321.018zM232.396 88.142a.974.974 0 0 0-.345.064L52.924 157.664a.946.946 0 0 0-.612.954c1.586 21.847 13.817 95.105 16.254 109.569a.94.94 0 0 0 1.04.787c14.121-1.531 140.184-16.836 217.245-81.801a.967.967 0 0 0 .219-1.206l-53.831-97.331a.964.964 0 0 0-.843-.494z" fill="#112c41"/><circle cx="252.068" cy="108.927" fill="#ffd6c0" r="28.57"/><path d="M278.757 115.809a26.846 26.846 0 0 1-1.273 3.792 10.52 10.52 0 0 1 1.804.867 28.264 28.264 0 0 0 1.327-3.852 14.952 14.952 0 0 0-1.858-.807z" fill="#ffd6c0"/><path d="M253.618 137.454c15.244-.826 27.048-13.459 27.02-28.563-3.678 10.659-13.512 18.556-25.463 19.213-15.755.852-29.226-11.233-30.078-26.988a31.14 31.14 0 0 1-.037-1.523 28.41 28.41 0 0 0-1.516 10.88c.852 15.757 14.319 27.833 30.074 26.981z" fill="#f5b9ab"/><path d="M252.082 138.497a29.668 29.668 0 0 1-20.654-8.396 1 1 0 1 1 1.396-1.432c5.508 5.364 13.067 8.192 20.737 7.787 15.179-.824 26.859-13.843 26.036-29.023-.823-15.179-13.863-26.895-29.023-26.036-14.325.776-25.777 12.607-26.071 26.934a1.012 1.012 0 0 1-1.021.979 1.001 1.001 0 0 1-.979-1.021c.315-15.366 12.599-28.057 27.964-28.89 16.264-.909 30.244 11.646 31.127 27.926.884 16.28-11.644 30.244-27.925 31.127-.529.03-1.059.044-1.587.045z" fill="#112c41"/><path d="M238.712 118.012a1 1 0 0 1-.927-.623c-1.841-4.531-1.854-9.49-.038-13.965 1.82-4.483 5.26-7.942 9.684-9.741 4.995-2.028 10.6-1.648 15.376 1.045a1 1 0 0 1-.982 1.742c-4.242-2.394-9.216-2.734-13.64-.934-3.921 1.593-6.969 4.661-8.585 8.641-1.619 3.988-1.605 8.413.039 12.458a1.002 1.002 0 0 1-.927 1.377z" fill="#112c41"/><circle cx="153.017" cy="151.069" fill="#ffd6c0" r="102.5"/><path d="M100.496 63.393c.296-.179.597-.34.894-.516l12.176 7.222c-45.64 27.794-61.043 84.796-33.791 129.838 27.301 45.124 87.076 61.157 132.91 33.426a98.414 98.414 0 0 0 12.74-9.157 102.822 102.822 0 0 1-18.808 14.582c-48.435 29.305-111.453 13.797-140.758-34.637S52.061 92.698 100.496 63.393z" fill="#f5b9ab"/><path d="M153.743 254.632c-8.298 0-16.653-1.006-24.918-3.039-26.846-6.606-49.511-23.271-63.822-46.925C35.46 155.84 51.15 92.08 99.978 62.537c48.825-29.542 112.586-13.854 142.131 34.976 29.542 48.829 13.853 112.588-34.976 142.131-16.37 9.905-34.734 14.988-53.39 14.988zm-87.029-50.999c14.035 23.196 36.263 39.539 62.589 46.018 26.328 6.479 53.6 2.316 76.796-11.718 47.884-28.972 63.271-91.5 34.3-139.385-28.973-47.885-91.499-63.271-139.385-34.3-47.885 28.972-63.272 91.5-34.3 139.385z" fill="#112c41"/><ellipse cx="134.131" cy="138.371" fill="#112c41" rx="6.828" ry="9.104" transform="matrix(.8556 -.5177 .5177 .8556 -52.259 89.4168)"/><ellipse cx="114.957" cy="114.55" fill="#112c41" rx="14.13" ry="9.336" transform="matrix(.7708 -.637 .637 .7708 -46.6279 99.4788)"/><ellipse cx="219.002" cy="136.986" fill="#ffa6e0" rx="12.121" ry="8.009" transform="matrix(.7966 -.6045 .6045 .7966 -38.2632 160.2611)"/><ellipse cx="130.722" cy="167.011" fill="#ffa6e0" rx="12.121" ry="8.009" transform="matrix(.9964 -.0851 .0851 .9964 -13.7458 11.7371)"/><g fill="#112c41"><ellipse cx="198.549" cy="84.637" rx="8.6" ry="13.016" transform="matrix(.0599 -.9982 .9982 .0599 102.1716 277.7607)"/><path d="M197.873 78.017c.354 0 .714.011 1.071.032 5.961.358 10.816 3.677 10.602 7.248-.197 3.287-4.826 5.96-10.319 5.96-.355 0-.716-.011-1.073-.032-5.961-.358-10.816-3.677-10.602-7.248.197-3.286 4.827-5.96 10.321-5.96m-.002-2c-6.641 0-12.047 3.365-12.316 7.841-.284 4.741 5.302 8.933 12.478 9.364.402.024.799.036 1.192.036 6.641 0 12.047-3.365 12.316-7.841.284-4.741-5.302-8.934-12.478-9.364a19.94 19.94 0 0 0-1.192-.036z"/><ellipse cx="199.286" cy="114.024" rx="6.828" ry="9.104" transform="matrix(.9838 -.1791 .1791 .9838 -17.1985 37.533)"/><path d="M155.752 147.901c5.765 11.086 16.345 17.212 25.193 13.976s12.981-14.742 10.233-26.931z"/><path d="M176.025 163.739c-7.885 0-16.185-5.808-21.161-15.377a.998.998 0 0 1 .544-1.4l35.428-12.955a1 1 0 0 1 1.319.72c2.909 12.91-1.66 24.724-10.866 28.09a15.288 15.288 0 0 1-5.264.922zm-18.843-15.296c5.725 10.184 15.433 15.42 23.42 12.494 7.991-2.922 12.031-13.183 9.835-24.655z"/></g><path d="M187.018 156.898c-4.278-2.949-10.716-2.995-16.218.334a17.747 17.747 0 0 0-3.698 2.969c4.494 2.561 9.388 3.305 13.843 1.676 2.562-.937 4.729-2.568 6.445-4.711a10.958 10.958 0 0 0-.372-.268z" fill="#ffa6e0"/><path d="M176.035 163.734c-3.104 0-6.328-.897-9.428-2.664a1 1 0 0 1-.23-1.557 18.726 18.726 0 0 1 3.906-3.137c5.65-3.421 12.604-3.541 17.302-.302h.001c.137.095.272.191.405.292a1 1 0 0 1 .18 1.424c-1.884 2.354-4.199 4.045-6.882 5.025-1.68.616-3.446.919-5.254.919zm-7.25-3.775c4.022 1.958 8.176 2.312 11.816.979 2.01-.734 3.788-1.934 5.298-3.569-4.045-2.429-9.81-2.166-14.581.72a16.874 16.874 0 0 0-2.533 1.87z" fill="#112c41"/><circle cx="45.993" cy="188.703" fill="#ffd6c0" r="30.5"/><circle cx="45.993" cy="188.703" fill="#ffd6c0" r="30.5"/><path d="M76.143 193.953c-1.088 2.116-2.798 4.327-4.427 6.197-11.088 12.688-30.728 13.521-43.409 2.439-8.322-7.269-11.137-17.588-9.371-27.723-6.366 12.187-4.442 27.103 6.376 36.561 12.674 11.089 31.949 9.797 43.037-2.891 3.812-4.357 6.876-9.254 7.794-14.583z" fill="#f5b9ab"/><path d="M46.046 220.196c-10.67.001-21.089-5.411-27.004-15.187-8.991-14.86-4.216-34.266 10.646-43.257 14.023-8.488 32.449-4.687 41.947 8.651a1 1 0 0 1-1.629 1.161c-8.895-12.49-26.149-16.05-39.283-8.101-6.742 4.079-11.492 10.539-13.375 18.19s-.674 15.578 3.405 22.32c8.421 13.917 26.594 18.39 40.512 9.969 6.893-4.171 12.218-11.906 13.897-20.189a1 1 0 0 1 1.961.399c-1.788 8.812-7.468 17.052-14.823 21.502a31.328 31.328 0 0 1-16.254 4.542z" fill="#112c41"/><path d="M29.384 188.744a1 1 0 0 1-.98-1.204c1.186-5.712 4.804-10.468 9.926-13.049 4.538-2.284 9.715-2.621 14.581-.938 4.856 1.676 8.819 5.159 11.161 9.806.248.493.05 1.095-.443 1.344a1.004 1.004 0 0 1-1.344-.443c-2.104-4.18-5.666-7.311-10.026-8.816-4.352-1.503-8.979-1.206-13.028.836-4.575 2.304-7.807 6.557-8.867 11.668-.1.472-.516.796-.98.796z" fill="#112c41"/><path d="M57.857 71.824a104.829 104.829 0 0 1 14.459-17.07 108.596 108.596 0 0 1 16.866-13.157c36.268-22.966 80.622-21.529 112.014.31 8.51 5.92 16.083 13.328 22.252 22.178 1.241 1.781-.222 3.261-1.904 3.01-16.94-2.53-46.735.669-67.103 6.08-13.589 3.61-27.174 9.636-40.631 16.932a219.756 219.756 0 0 0-16.296 9.764c-3.977-8.938-5.893-18.207-5.733-26.979-3.914 9.589-5.281 22.362-4.59 34.301-16.751 12.683-31.264 27.636-41.27 42.557-.827 1.234-2.623 1.437-3.084-.548-6.093-26.216-.595-54.33 15.02-77.378z" fill="#b2b0f7"/><path d="M45.616 150.203c3.799-5.72 12.304-15.984 17.164-21.488-5.369-23.413-1.317-57.375 22.255-79.853a97.703 97.703 0 0 1 15.094-11.771 97.066 97.066 0 0 1 12.217-6.576 107.892 107.892 0 0 0-23.165 11.082 108.766 108.766 0 0 0-16.869 13.156c-26.497 25.278-37.54 61.802-29.351 94.978.31 1.235 1.953 1.532 2.655.472z" fill="#9797f7"/><path d="M44.345 151.687c-.146 0-.29-.013-.435-.039-1.018-.188-1.764-.996-2.048-2.22-6.134-26.394-.605-54.884 15.166-78.164l.828.561-.828-.561a105.986 105.986 0 0 1 14.597-17.233 109.904 109.904 0 0 1 17.021-13.278c17.72-11.222 37.914-16.999 58.381-16.803 20.018.224 38.946 6.15 54.739 17.137 8.85 6.158 16.42 13.703 22.501 22.427.752 1.079.847 2.293.255 3.247-.618.996-1.847 1.516-3.127 1.324-17.59-2.628-47.724 1.017-66.698 6.058-12.322 3.272-25.541 8.782-40.412 16.844a219.754 219.754 0 0 0-16.222 9.721 1.004 1.004 0 0 1-1.465-.429c-3.168-7.12-5.089-14.592-5.653-21.895-2.362 8.192-3.358 18.356-2.758 28.753a.996.996 0 0 1-.395.854C71.2 120.554 56.624 135.582 46.75 150.307c-.583.869-1.493 1.38-2.405 1.38zM145.863 25.943c-19.695 0-39.083 5.692-56.146 16.498a107.852 107.852 0 0 0-16.711 13.036 104.027 104.027 0 0 0-14.321 16.907c-15.461 22.821-20.882 50.737-14.875 76.59.046.195.182.654.462.706.216.028.57-.119.818-.488 9.909-14.778 24.481-29.846 41.072-42.475-.675-12.79 1.028-25.229 4.691-34.204a1 1 0 0 1 1.926.396c-.151 8.351 1.636 17.134 5.178 25.474a221.997 221.997 0 0 1 15.375-9.156c15.012-8.139 28.374-13.705 40.852-17.02 19.171-5.093 49.665-8.768 67.507-6.103.483.077.943-.093 1.133-.399.219-.354-.029-.81-.196-1.05-5.945-8.528-13.348-15.906-22.003-21.928-15.463-10.758-34.004-16.56-53.618-16.779-.382-.003-.764-.005-1.144-.005zM273.626 145.54a14.774 14.774 0 0 1-13.486-8.763 1 1 0 1 1 1.828-.812 12.771 12.771 0 0 0 11.658 7.575c7.032 0 12.753-5.722 12.753-12.754s-5.721-12.753-12.753-12.753a12.706 12.706 0 0 0-8.725 3.451 1.001 1.001 0 0 1-1.369-1.459 14.7 14.7 0 0 1 10.094-3.992c8.135 0 14.753 6.618 14.753 14.753 0 8.136-6.618 14.754-14.753 14.754zM45.815 236.962c-8.135 0-14.753-6.618-14.753-14.754 0-8.135 6.618-14.753 14.753-14.753a1 1 0 1 1 0 2c-7.032 0-12.753 5.721-12.753 12.753s5.721 12.754 12.753 12.754 12.754-5.722 12.754-12.754c0-1.799-.366-3.537-1.09-5.168a.999.999 0 1 1 1.828-.81 14.654 14.654 0 0 1 1.262 5.979c0 8.135-6.618 14.753-14.754 14.753z" fill="#112c41"/></svg></g><g transform="translate(2315.0 983.3333333333334) rotate(8.83443462820995 -123.33333333333326 87.50000000000006) scale(-1.6782328661495887 1.6881951746558503)"><svg width="146.98" height="103.661" viewBox="0 0 146.98 103.661"><path d="M88.973 101.82 24.937 31.925A4.38 4.38 0 0 0 18 32.29L2.217 53.644c-2.417 3.17-.893 5.451 1.607 6.7l84.557 42.261a.5.5 0 0 0 .592-.785z" fill="#ffe993"/><path d="M88.613 103.662a1.513 1.513 0 0 1-.679-.163L3.377 61.239a5.659 5.659 0 0 1-3.27-3.625 5.45 5.45 0 0 1 1.315-4.576L17.2 31.7a5.367 5.367 0 0 1 4.071-2.3 5.521 5.521 0 0 1 4.4 1.846l64.036 69.9a1.5 1.5 0 0 1-1.1 2.518zM21.57 31.395c-.061 0-.123 0-.184.005a3.414 3.414 0 0 0-2.576 1.479L3.02 54.239a3.61 3.61 0 0 0-.964 2.922 3.9 3.9 0 0 0 2.215 2.289l82.137 41.05L24.2 32.6a3.586 3.586 0 0 0-2.631-1.206z" fill="#112c41"/><path d="m80.827 1.737-18.268 8.787a4.35 4.35 0 0 0-1.743 6.625l43.46 62.474a.5.5 0 0 0 .9-.4L87.151 4.735C86.478 1.95 84.8-.186 80.827 1.737z" fill="#ffe993"/><path d="M104.677 80.842a1.484 1.484 0 0 1-1.222-.648L60 17.721a5.58 5.58 0 0 1-.871-4.631 5.369 5.369 0 0 1 3.013-3.472L80.394.836C82.323-.1 83.982-.249 85.325.385s2.292 2.021 2.8 4.114l18.021 74.486a1.481 1.481 0 0 1-.843 1.721 1.515 1.515 0 0 1-.626.136zM83.537 2a5.416 5.416 0 0 0-2.274.637l-18.27 8.789a3.413 3.413 0 0 0-1.937 2.184 3.582 3.582 0 0 0 .582 2.969l41.935 60.283L86.18 4.97c-.358-1.476-.932-2.41-1.708-2.777A2.168 2.168 0 0 0 83.537 2z" fill="#112c41"/><path d="m121.879 16.5 19.189-1.189c3.1-.192 5.732 1.5 4.674 5.7l-16.36 61.61a.5.5 0 0 1-.976-.041l-10.722-60.755c-.471-2.671.116-5.011 4.195-5.325z" fill="#ffe993"/><path d="M128.9 84h-.066a1.49 1.49 0 0 1-1.413-1.238L116.7 22a5.587 5.587 0 0 1 .758-4.582A5.789 5.789 0 0 1 121.8 15.5h.015l19.19-1.189a5.717 5.717 0 0 1 4.918 1.777c.731.88 1.461 2.492.787 5.168L130.349 82.88A1.491 1.491 0 0 1 128.9 84zm-6.952-66.5a3.949 3.949 0 0 0-2.91 1.146 3.781 3.781 0 0 0-.369 3.009L129 80.176l15.778-59.42a3.91 3.91 0 0 0-.388-3.39 3.854 3.854 0 0 0-3.257-1.058z" fill="#112c41"/></svg></g><g transform="translate(403.33333333333337 688.3333333333334) rotate(0.0 833.3333333333333 358.3333333333333) scale(1.6674086635219338 1.6670155769036927)"><svg width="999.555" height="429.91" viewBox="0 0 999.555 429.91"><ellipse cx="938.771" cy="329.105" fill="#ffd6c0" rx="30.331" ry="18.199" transform="matrix(.8245 -.5659 .5659 .8245 -21.4546 589.0432)"/><path d="M926.685 352.904c-6.196 0-11.037-2.123-13.745-6.068-2.958-4.309-2.973-10.211-.043-16.619 2.853-6.238 8.183-12.255 15.01-16.941s14.357-7.497 21.204-7.917c7.029-.43 12.535 1.705 15.492 6.014 5.991 8.728-.723 23.782-14.966 33.559-6.827 4.686-14.357 7.497-21.204 7.917-.594.037-1.177.055-1.748.055zm24.172-45.598c-.53 0-1.072.017-1.625.051-6.49.397-13.662 3.085-20.194 7.569s-11.619 10.21-14.323 16.123c-2.626 5.744-2.671 10.948-.127 14.655s7.411 5.535 13.722 5.15c6.49-.397 13.662-3.085 20.194-7.569l.566.824-.566-.824c13.334-9.153 19.816-22.96 14.449-30.778-2.321-3.383-6.581-5.201-12.096-5.201z" fill="#112c41"/><ellipse cx="929.808" cy="304.991" fill="#ffd6c0" rx="31.225" ry="18.735" transform="matrix(.7962 -.605 .605 .7962 4.9703 624.7374)"/><path d="M917.268 330.066c-5.756 0-10.348-1.932-13.118-5.577-6.584-8.664-.431-24.46 13.717-35.21 6.783-5.154 14.381-8.417 21.396-9.188 7.198-.791 12.954 1.128 16.202 5.403 3.249 4.275 3.556 10.333.866 17.058-2.621 6.552-7.8 12.998-14.583 18.153-6.783 5.154-14.381 8.417-21.395 9.188a28.65 28.65 0 0 1-3.085.173zm25.077-48.15c-.921 0-1.876.054-2.864.162-6.659.731-13.905 3.854-20.404 8.792-13.269 10.084-19.251 24.622-13.334 32.408 2.807 3.694 7.92 5.336 14.392 4.625 6.659-.731 13.905-3.854 20.403-8.792 6.499-4.938 11.448-11.083 13.936-17.303 2.419-6.047 2.205-11.411-.602-15.105-2.378-3.129-6.412-4.787-11.527-4.787z" fill="#112c41"/><path d="M998.555 293.769c0 20-19 31-28 8-6.46-16.5-25-22-42-14-18.89 8.89-10 51-10 51s-8.59 10.15-30.6 22.86c-2.89 1.68-6.02 3.39-9.4 5.14-38.43 19.88-96 55-151 61s-137-11-195-67c-21.34-20.61-38.17-42.46-50.42-60.7-16.36-24.36-24.58-42.3-24.58-42.3l160-17c27 30 56.64 53.99 94 57 62 5 155-82 231-63 42.379 10.59 56 39 56 59z" fill="#ffd6c0"/><path d="M887.954 361.629c-2.89 1.68-6.02 3.39-9.4 5.14-38.43 19.88-96 55-151 61s-137-11-195-67c-21.34-20.61-38.17-42.46-50.42-60.7 12.93-7.7 25.42-12.3 25.42-12.3l21.31 26.72c28.69 39.28 78.69 78.312 151.69 94.28 64.001 14 155.791-22.28 207.4-47.14z" fill="#f5b9ab"/><path d="M705.67 429.921c-24.088 0-49.948-3.914-74.78-11.444-38.157-11.571-72.401-31.277-99.029-56.988-49.417-47.712-74.962-102.752-75.215-103.303a1 1 0 0 1 .804-1.411l160-17c.317-.034.634.087.849.325 42.271 46.968 72.085 54.958 93.337 56.672 27.102 2.186 60.355-13.461 95.567-30.025 45.618-21.459 92.789-43.65 135.595-32.949 19.442 4.861 34.391 13.716 44.431 26.32 10.725 13.465 12.327 26.862 12.327 33.65 0 10.924-5.772 20.25-13.426 21.694-3.162.596-11.096.492-16.505-13.33-2.768-7.074-7.849-12.254-14.694-14.98-7.82-3.114-17.277-2.56-25.949 1.52-17.96 8.452-9.535 49.475-9.447 49.889a1 1 0 0 1-.271.914c-.121.121-12.416 12.278-40.211 28.161l-.626.358c-38.172 21.814-95.859 54.779-150.762 60.768-7.103.776-14.462 1.159-21.995 1.159zM459.065 258.614c4.11 8.477 29.201 58.004 74.184 101.435 26.402 25.491 60.366 45.033 98.221 56.512 32.347 9.809 66.435 13.436 95.977 10.213 54.488-5.944 111.958-38.785 149.986-60.516l.626-.358c24.841-14.195 37.15-25.341 39.407-27.472-1.033-5.232-7.757-42.896 10.664-51.565 9.169-4.315 19.207-4.887 27.54-1.569 7.268 2.894 12.885 8.615 15.817 16.109 3.424 8.751 8.629 13.159 14.271 12.093 6.726-1.269 11.797-9.751 11.797-19.729 0-32.638-29.759-51.659-55.243-58.03-42.113-10.528-88.957 11.508-134.258 32.818-35.459 16.681-68.95 32.436-96.58 30.209-40.951-3.303-71.896-32.087-94.321-56.948z" fill="#112c41"/><path d="M643.567 256.916a102.753 102.753 0 0 1-4.599 3.647c-21.972 16.531-82.923 51.752-141.414 61.206-2.677-4.36-11-15-11-15-24-3-35.556-12.863-63-19-.02.003.011.008 0 0-18.103-4.045-35.206-11.155-51-23-40-30-52-49-73.006-69.958 0 0-10.492-6.85-27.894-15.353-8.937-4.365-19.698-9.177-31.803-13.711a316.594 316.594 0 0 0-7.423-2.695c-4.567-28.375-9.476-121.812 6.093-152.202 1.192-2.349 2.516-4.315 3.97-5.855.094-.106.192-.193.289-.279 1.926-1.941 4.076-3.117 6.469-3.421.079-.013.199-.022.339-.034.008-.011.028-.015.039-.006.676-.078 1.862-.198 2.163-.216s.623-.029.967-.034c.283-.005.587-.003.891-.002 19.655.22 97.238 15.121 187.125 64.05a662.872 662.872 0 0 1 26.679 15.356c.662.4 1.327.82 2.001 1.228a618.355 618.355 0 0 1 25.131 16.182c.421.287.819.557 1.207.829.272.179.545.368.819.557a520.032 520.032 0 0 1 4.866 3.36 632.295 632.295 0 0 1 46.395 35.59c34.364 28.998 67.998 63.715 98.568 105.134 4.52 6.127 1.588 9.871-2.872 13.627z" fill="#ffe993"/><path d="M497.555 322.769a1 1 0 0 1-.852-.477c-2.357-3.839-9.272-12.77-10.683-14.583-12.909-1.666-22.367-5.346-32.372-9.239-8.731-3.398-17.759-6.911-30.218-9.704a1.108 1.108 0 0 1-.193-.043c-19.586-4.39-36.362-11.964-51.282-23.154-28.635-21.476-42.783-37.135-56.465-52.279-5.458-6.04-10.613-11.746-16.573-17.697-1.034-.666-11.376-7.26-27.701-15.237-10.448-5.103-21.118-9.704-31.714-13.673a314.72 314.72 0 0 0-7.401-2.687 1.002 1.002 0 0 1-.658-.785c-5.002-31.079-9.027-123.114 6.19-152.817 1.241-2.447 2.632-4.495 4.133-6.086.1-.113.222-.225.346-.335 2.081-2.098 4.453-3.346 7.013-3.671a4.48 4.48 0 0 1 .27-.029c.07-.015.141-.023.212-.024.705-.08 1.831-.193 2.125-.211.315-.019.653-.031 1.013-.036.286-.005.599-.003.91-.002 22.299.249 100.487 16.754 187.598 64.172a666.752 666.752 0 0 1 26.72 15.379c.345.208.693.423 1.042.639l.958.588a621.322 621.322 0 0 1 25.173 16.21c.447.304.837.57 1.219.837.243.16.509.344.777.528a533.224 533.224 0 0 1 4.908 3.389 635.914 635.914 0 0 1 46.465 35.644c36.955 31.184 70.171 66.613 98.728 105.304 5.219 7.075 1.174 11.445-3.028 14.985a103.517 103.517 0 0 1-4.645 3.683c-25.175 18.941-85.948 52.358-141.855 61.394a.68.68 0 0 1-.16.017zm-73.776-35.974c12.652 2.83 21.773 6.379 30.594 9.812 9.993 3.888 19.431 7.561 32.306 9.171.262.033.501.168.664.376.327.418 7.736 9.899 10.706 14.522 55.372-9.132 115.395-42.159 140.319-60.911a102.565 102.565 0 0 0 4.553-3.61l.003-.003c4.705-3.963 6.53-7.092 2.71-12.271-28.463-38.565-61.572-73.88-98.408-104.963a633.877 633.877 0 0 0-46.321-35.534c-1.621-1.137-3.246-2.25-4.859-3.355-.295-.203-.55-.38-.804-.547a91.29 91.29 0 0 0-1.187-.814 619.769 619.769 0 0 0-25.121-16.178l-.97-.596c-.344-.212-.686-.424-1.027-.63a663.664 663.664 0 0 0-26.64-15.334C353.512 18.69 275.776 2.249 253.638 2.002a41.146 41.146 0 0 0-.862.001c-.331.005-.638.015-.925.032a66.567 66.567 0 0 0-2.174.22c-.152.013-.221.018-.269.026-2.14.272-4.12 1.327-5.917 3.138-.117.107-.186.165-.251.239-1.39 1.474-2.67 3.365-3.827 5.644-14.93 29.144-11.019 119.555-6.09 151.003 2.329.818 4.642 1.66 6.881 2.506a363.516 363.516 0 0 1 31.889 13.748c17.258 8.433 27.896 15.345 28.002 15.414.057.038.111.081.16.129 6.027 6.014 11.22 11.761 16.718 17.846 13.619 15.073 27.701 30.66 56.182 52.02 14.713 11.035 31.271 18.501 50.618 22.824l.006.003z" fill="#112c41"/><path d="M493.621 97.183c-41.633-27.21-143.695-72.559-233.316-75.597-.194-.516-.397-1.02-.587-1.506-.13-.303-.25-.608-.378-.901-2.606-6.063-5.404-9.411-8.214-9.313-2.317.079-4.441 2.487-6.32 6.801-.125.294-.258.599-.38.912a2.102 2.102 0 0 0-.063.172c-4.602-1.093-7.264-1.708-7.518-1.778.447-1.946 1.013-3.647 1.677-5.122 1.111-2.539 2.496-4.443 3.97-5.855.094-.106.192-.193.289-.279a14.097 14.097 0 0 1 6.807-3.456c.008-.011.028-.015.039-.006.676-.078 1.862-.198 2.163-.216s.623-.029.967-.034c.283-.005.587-.003.891-.002 19.655.22 97.238 15.121 187.125 64.05a662.872 662.872 0 0 1 26.679 15.356c.662.4 1.327.82 2.001 1.228a915.478 915.478 0 0 1 24.168 15.546z" fill="#ffd169"/><path d="M497.555 322.769a1 1 0 0 1-.852-.477c-2.357-3.839-9.272-12.77-10.683-14.583-12.909-1.666-22.367-5.346-32.372-9.239-8.731-3.398-17.759-6.911-30.218-9.704a1.108 1.108 0 0 1-.193-.043c-19.586-4.39-36.362-11.964-51.282-23.154-28.635-21.476-42.783-37.135-56.465-52.279-5.458-6.04-10.613-11.746-16.573-17.697-1.034-.666-11.376-7.26-27.701-15.237-10.448-5.103-21.118-9.704-31.714-13.673a314.72 314.72 0 0 0-7.401-2.687 1.002 1.002 0 0 1-.658-.785c-5.002-31.079-9.027-123.114 6.19-152.817 1.241-2.447 2.632-4.495 4.133-6.086.1-.113.222-.225.346-.335 2.081-2.098 4.453-3.346 7.013-3.671a4.48 4.48 0 0 1 .27-.029c.07-.015.141-.023.212-.024.705-.08 1.831-.193 2.125-.211.315-.019.653-.031 1.013-.036.286-.005.599-.003.91-.002 22.299.249 100.487 16.754 187.598 64.172a666.752 666.752 0 0 1 26.72 15.379c.345.208.693.423 1.042.639l.958.588a621.322 621.322 0 0 1 25.173 16.21c.447.304.837.57 1.219.837.243.16.509.344.777.528a533.224 533.224 0 0 1 4.908 3.389 635.914 635.914 0 0 1 46.465 35.644c36.955 31.184 70.171 66.613 98.728 105.304 5.219 7.075 1.174 11.445-3.028 14.985a103.517 103.517 0 0 1-4.645 3.683c-25.175 18.941-85.948 52.358-141.855 61.394a.68.68 0 0 1-.16.017zm-73.776-35.974c12.652 2.83 21.773 6.379 30.594 9.812 9.993 3.888 19.431 7.561 32.306 9.171.262.033.501.168.664.376.327.418 7.736 9.899 10.706 14.522 55.372-9.132 115.395-42.159 140.319-60.911a102.565 102.565 0 0 0 4.553-3.61l.003-.003c4.705-3.963 6.53-7.092 2.71-12.271-28.463-38.565-61.572-73.88-98.408-104.963a633.877 633.877 0 0 0-46.321-35.534c-1.621-1.137-3.246-2.25-4.859-3.355-.295-.203-.55-.38-.804-.547a91.29 91.29 0 0 0-1.187-.814 619.769 619.769 0 0 0-25.121-16.178l-.97-.596c-.344-.212-.686-.424-1.027-.63a663.664 663.664 0 0 0-26.64-15.334C353.512 18.69 275.776 2.249 253.638 2.002a41.146 41.146 0 0 0-.862.001c-.331.005-.638.015-.925.032a66.567 66.567 0 0 0-2.174.22c-.152.013-.221.018-.269.026-2.14.272-4.12 1.327-5.917 3.138-.117.107-.186.165-.251.239-1.39 1.474-2.67 3.365-3.827 5.644-14.93 29.144-11.019 119.555-6.09 151.003 2.329.818 4.642 1.66 6.881 2.506a363.516 363.516 0 0 1 31.889 13.748c17.258 8.433 27.896 15.345 28.002 15.414.057.038.111.081.16.129 6.027 6.014 11.22 11.761 16.718 17.846 13.619 15.073 27.701 30.66 56.182 52.02 14.713 11.035 31.271 18.501 50.618 22.824l.006.003z" fill="#112c41"/><path d="M496.649 99.258c-.275-.199-.572-.404-.858-.611.272.179.545.368.819.557l.039.054z" fill="#ffd169"/><g fill="#112c41"><path d="M507.902 107.259c-.032.136-.063.271-.105.408-.125 2.45-.834 4.689-2.177 6.581-6.491 9.107-25.268 6.854-41.957-5.027-16.691-11.891-24.974-28.895-18.493-38.001a11.328 11.328 0 0 1 2.856-2.778l.009-.011a650.826 650.826 0 0 1 53.081 33.934c.415.296.807.575 1.189.855.268.185.537.38.807.575a524.919 524.919 0 0 1 4.79 3.464zM270.349 71.534c1.15 11.929 1.91 25.085 2.15 38.913.017.858.043 1.715.045 2.545.036 2.364.049 4.712.049 7.042.196-.042-.129 40.171-.94 59.424a441.788 441.788 0 0 0-5.543-2.663 363.152 363.152 0 0 0-26.259-11.048c-.003-.02-.008-.049-.001-.071-1.555-18.093-3.026-43.097-3.488-56.159-1.41-39.407 1.638-73.585 7.233-89.739.271-.773.548-1.506.831-2.2.122-.313.255-.618.38-.912 1.879-4.313 4.003-6.721 6.32-6.801 2.81-.098 5.608 3.25 8.214 9.313.128.293.248.598.378.901.373.933.755 1.924 1.126 2.969 3.888 10.942 7.25 27.994 9.505 48.486z"/><path d="M271.654 180.458c-.15 0-.3-.034-.438-.101a447.063 447.063 0 0 0-5.531-2.657 362.68 362.68 0 0 0-26.185-11.016 1 1 0 0 1-.649-.952c-1.578-18.375-3.039-43.463-3.488-56.18-1.36-38.024 1.5-73.392 7.287-90.102.277-.793.561-1.542.85-2.251.097-.251.208-.512.317-.766l.068-.16c2.102-4.827 4.525-7.317 7.206-7.408 3.233-.113 6.29 3.226 9.167 9.918.073.167.146.344.219.522l.16.382c.386.965.773 1.969 1.149 3.026 3.92 11.033 7.314 28.332 9.557 48.711l.001.013c1.196 12.406 1.921 25.524 2.155 38.991l.016.744c.014.613.027 1.221.029 1.816.036 2.356.049 4.709.049 7.044h-.055c.181 1.464.171 6.125-.038 22.584-.092 7.227-.359 25.288-.847 36.882a1 1 0 0 1-.999.96zm-30.855-15.423a364.905 364.905 0 0 1 25.735 10.854c1.328.625 2.72 1.292 4.183 2.001.744-19.204 1.043-55.536.898-57.652a.995.995 0 0 1-.021-.204c0-2.325-.013-4.667-.049-7.026-.001-.594-.015-1.189-.028-1.788l-.017-.753c-.233-13.414-.955-26.477-2.145-38.829-2.226-20.227-5.583-37.364-9.453-48.254a80.143 80.143 0 0 0-1.112-2.932l-.16-.383c-.068-.165-.135-.329-.206-.489-2.451-5.7-5.02-8.792-7.263-8.715-1.818.062-3.698 2.206-5.438 6.201l-.066.156c-.1.233-.203.473-.298.719a45.155 45.155 0 0 0-.819 2.169c-5.711 16.493-8.529 51.575-7.177 89.373.443 12.571 1.878 37.258 3.436 55.552z"/></g><path d="M270.349 71.534c1.15 11.929 1.91 25.085 2.15 38.913.017.858.043 1.715.045 2.545.036 2.364.049 4.712.049 7.042.117-.029.046 14.385-.201 30.094-.171 10.521-.412 21.61-.739 29.33a441.788 441.788 0 0 0-5.543-2.663 406.224 406.224 0 0 0-10.557-4.864c-6.345-2.797-10.93-4.541-15.703-6.254-2.354-.847-4.747-1.677-7.421-2.624-11.814-4.176-70.303-24.541-86.814 1.818-11.192 17.875-.196 44.851 20.923 67.068.011.008.025.026.036.035 8.635 9.093 18.964 17.388 30.156 23.932 19.009 11.121 59.522-1.477 63.051 14.161 1.556 6.9-2.871 13.629-23.956 21.074 14.072 11.915 27.975 54.244-4.992 69.678-5.197 18.055-25.295 25.341-36.314 26.102-6.309 11.144-29.721 23.015-50.193 9.091-17.697-12.031-20.109-33.754-13.449-41.146C65.25 307.451-36.228 170.754 14.916 79.467c46.11-82.292 176.217-69.792 229.51-61.89.186.021.363.053.539.075a293.389 293.389 0 0 1 14.524 2.514l.229-.087c.373.933.755 1.924 1.126 2.969 3.888 10.942 7.25 27.994 9.505 48.486z" fill="#ffd6c0"/><path d="M164.404 403.332c-6.144 0-13.354-1.538-20.64-6.493-9.403-6.393-15.784-16.557-17.067-27.188-.711-5.893.31-11.24 2.743-14.594-28.283-20.683-71.403-64.468-101.217-120.971-14.753-27.96-23.832-54.747-26.986-79.618-3.611-28.478.698-53.877 12.806-75.489 20.051-35.784 58.001-57.744 112.798-65.27 33.867-4.651 73.478-3.682 117.731 2.88.083.009.199.026.312.043l.206.03c4.875.72 9.683 1.55 14.312 2.469a1 1 0 0 1 1.243.578c.377.944.764 1.948 1.14 3.005 3.92 11.033 7.314 28.332 9.557 48.711l.001.013c1.196 12.406 1.92 25.524 2.155 38.991l.016.744c.014.613.027 1.221.029 1.816.036 2.357.049 4.709.049 7.044h-.087c.213 1.726.239 7.692-.113 30.11-.208 12.803-.457 22.68-.74 29.357a1 1 0 0 1-1.437.857 447.063 447.063 0 0 0-5.531-2.657 408.443 408.443 0 0 0-10.535-4.854c-6.228-2.745-10.755-4.475-15.638-6.228-1.48-.532-2.976-1.058-4.546-1.611l-2.871-1.012c-15.287-5.404-29.229-8.934-41.438-10.492-22.576-2.882-37.444 1.122-44.194 11.898-10.08 16.099-1.921 41.938 20.784 65.831l.011.011a.793.793 0 0 1 .041.041c8.733 9.197 19.085 17.413 29.936 23.758 8.429 4.931 21.66 5.077 33.334 5.207 15.074.167 28.092.311 30.188 9.598 1.289 5.716-.216 13.31-23.026 21.672 8.625 8.336 16.199 26.36 14.017 42.751-1.64 12.317-8.581 21.735-20.081 27.262-5.338 17.585-24.512 25.332-36.547 26.347-3.932 6.502-12.679 12.265-21.978 14.434a38.688 38.688 0 0 1-8.737 1.019zm7.395-390.512c-15.831 0-30.747.956-44.686 2.87-54.142 7.436-91.597 29.058-111.325 64.266-15.654 27.94-25.896 77.198 14.203 153.196 29.954 56.769 73.383 100.61 101.471 120.903a1.001 1.001 0 0 1 .158 1.48c-2.548 2.828-3.646 8.015-2.939 13.876 1.216 10.066 7.274 19.701 16.207 25.774 10.555 7.178 20.943 6.779 27.797 5.18 10.405-2.427 18.026-8.748 20.964-13.936a1 1 0 0 1 .801-.505c11.531-.796 30.479-8.212 35.422-25.381a.999.999 0 0 1 .537-.629c11.097-5.196 17.79-14.154 19.354-25.908 2.129-15.994-5.822-34.682-14.585-42.102a1 1 0 0 1 .313-1.706c22.826-8.06 24.449-14.875 23.313-19.911-1.748-7.745-14.034-7.881-28.259-8.038-11.922-.132-25.436-.281-34.322-5.48-11.004-6.435-21.502-14.765-30.36-24.091l-.009-.009a.416.416 0 0 1-.042-.042c-23.367-24.581-31.627-51.386-21.045-68.287 7.202-11.496 22.728-15.81 46.143-12.821 12.35 1.576 26.431 5.14 41.852 10.591l2.867 1.011c1.576.554 3.075 1.081 4.559 1.615 4.921 1.767 9.487 3.511 15.769 6.28a411.08 411.08 0 0 1 10.584 4.876c1.322.623 2.714 1.289 4.176 1.998.257-6.604.484-15.936.676-27.779.246-15.593.302-28.662.222-29.874a.988.988 0 0 1-.021-.204c0-2.324-.013-4.667-.049-7.026-.001-.594-.015-1.189-.028-1.788l-.017-.753c-.233-13.413-.955-26.477-2.145-38.828-2.226-20.228-5.583-37.364-9.453-48.255a75.738 75.738 0 0 0-.856-2.285 292.352 292.352 0 0 0-14.227-2.456l-.232-.033c-.089-.013-.179-.027-.271-.038-25.85-3.832-50.097-5.751-72.517-5.751z" fill="#112c41"/><path d="M130.877 354.866c21.165 13.569 29.154 25.451 29.154 25.451" fill="#ffd6c0"/><path d="M160.033 381.316c-.321 0-.637-.155-.831-.441-.079-.117-8.157-11.891-28.865-25.168a1 1 0 1 1 1.079-1.684c21.097 13.526 29.114 25.242 29.445 25.735a1 1 0 0 1-.828 1.558z" fill="#112c41"/><path d="M194.519 386.92c6.979-13.278 2.11-24.648-.818-30.254" fill="#ffd6c0"/><path d="M194.518 387.921a1 1 0 0 1-.884-1.465c4.894-9.31 4.625-18.903-.819-29.326a1 1 0 1 1 1.772-.926c5.771 11.049 6.039 21.249.817 31.183a1.001 1.001 0 0 1-.886.534z" fill="#112c41"/><path d="M230.833 360.819c3.03-12.642-.334-22.586-3.462-27.803" fill="#ffd6c0"/><path d="M230.834 361.819a1.001 1.001 0 0 1-.974-1.234c3.412-14.235-1.699-24.308-3.347-27.056a1 1 0 0 1 1.715-1.029c2.238 3.733 7.067 13.987 3.577 28.55a1 1 0 0 1-.971.769z" fill="#112c41"/><path d="M272.393 150.128c-.171 10.521-.412 21.61-.739 29.33a441.788 441.788 0 0 0-5.543-2.663 406.224 406.224 0 0 0-10.557-4.864c-6.345-2.797-10.93-4.541-15.703-6.254-2.354-.847-4.747-1.677-7.421-2.624-11.814-4.176-70.303-24.541-86.814 1.818-11.192 17.875-.196 44.851 20.923 67.068-30.136-23.936-47.614-56.695-27.414-82.229 18.118-22.907 70.164-23.448 133.268.418z" fill="#f5b9ab"/><path d="M164.404 403.332c-6.144 0-13.354-1.538-20.64-6.493-9.403-6.393-15.784-16.557-17.067-27.188-.711-5.893.31-11.24 2.743-14.594-28.283-20.683-71.403-64.468-101.217-120.971-14.753-27.96-23.832-54.747-26.986-79.618-3.611-28.478.698-53.877 12.806-75.489 20.051-35.784 58.001-57.744 112.798-65.27 33.867-4.651 73.478-3.682 117.731 2.88.083.009.199.026.312.043l.206.03c4.875.72 9.683 1.55 14.312 2.469a1 1 0 0 1 1.243.578c.377.944.764 1.948 1.14 3.005 3.92 11.033 7.314 28.332 9.557 48.711l.001.013c1.196 12.406 1.92 25.524 2.155 38.991l.016.744c.014.613.027 1.221.029 1.816.036 2.357.049 4.709.049 7.044h-.087c.213 1.726.239 7.692-.113 30.11-.208 12.803-.457 22.68-.74 29.357a1 1 0 0 1-1.437.857 447.063 447.063 0 0 0-5.531-2.657 408.443 408.443 0 0 0-10.535-4.854c-6.228-2.745-10.755-4.475-15.638-6.228-1.48-.532-2.976-1.058-4.546-1.611l-2.871-1.012c-15.287-5.404-29.229-8.934-41.438-10.492-22.576-2.882-37.444 1.122-44.194 11.898-10.08 16.099-1.921 41.938 20.784 65.831l.011.011a.793.793 0 0 1 .041.041c8.733 9.197 19.085 17.413 29.936 23.758 8.429 4.931 21.66 5.077 33.334 5.207 15.074.167 28.092.311 30.188 9.598 1.289 5.716-.216 13.31-23.026 21.672 8.625 8.336 16.199 26.36 14.017 42.751-1.64 12.317-8.581 21.735-20.081 27.262-5.338 17.585-24.512 25.332-36.547 26.347-3.932 6.502-12.679 12.265-21.978 14.434a38.688 38.688 0 0 1-8.737 1.019zm7.395-390.512c-15.831 0-30.747.956-44.686 2.87-54.142 7.436-91.597 29.058-111.325 64.266-15.654 27.94-25.896 77.198 14.203 153.196 29.954 56.769 73.383 100.61 101.471 120.903a1.001 1.001 0 0 1 .158 1.48c-2.548 2.828-3.646 8.015-2.939 13.876 1.216 10.066 7.274 19.701 16.207 25.774 10.555 7.178 20.943 6.779 27.797 5.18 10.405-2.427 18.026-8.748 20.964-13.936a1 1 0 0 1 .801-.505c11.531-.796 30.479-8.212 35.422-25.381a.999.999 0 0 1 .537-.629c11.097-5.196 17.79-14.154 19.354-25.908 2.129-15.994-5.822-34.682-14.585-42.102a1 1 0 0 1 .313-1.706c22.826-8.06 24.449-14.875 23.313-19.911-1.748-7.745-14.034-7.881-28.259-8.038-11.922-.132-25.436-.281-34.322-5.48-11.004-6.435-21.502-14.765-30.36-24.091l-.009-.009a.416.416 0 0 1-.042-.042c-23.367-24.581-31.627-51.386-21.045-68.287 7.202-11.496 22.728-15.81 46.143-12.821 12.35 1.576 26.431 5.14 41.852 10.591l2.867 1.011c1.576.554 3.075 1.081 4.559 1.615 4.921 1.767 9.487 3.511 15.769 6.28a411.08 411.08 0 0 1 10.584 4.876c1.322.623 2.714 1.289 4.176 1.998.257-6.604.484-15.936.676-27.779.246-15.593.302-28.662.222-29.874a.988.988 0 0 1-.021-.204c0-2.324-.013-4.667-.049-7.026-.001-.594-.015-1.189-.028-1.788l-.017-.753c-.233-13.413-.955-26.477-2.145-38.828-2.226-20.228-5.583-37.364-9.453-48.255a75.738 75.738 0 0 0-.856-2.285 292.352 292.352 0 0 0-14.227-2.456l-.232-.033c-.089-.013-.179-.027-.271-.038-25.85-3.832-50.097-5.751-72.517-5.751z" fill="#112c41"/><path d="M92.633 342.659c-1.734 0-3.194-.448-4.248-1.492-2.934-2.907-1.685-9.301 3.712-19.006a1 1 0 0 1 1.748.972c-4.701 8.452-6.178 14.508-4.053 16.613 2.587 2.563 10.8-.244 21.972-7.507 11.883-7.726 26.03-19.655 39.835-33.591 30.604-30.892 45.658-57.097 40.517-62.19-2.095-2.075-8.017-.608-16.252 4.026a1 1 0 0 1-.981-1.743c9.47-5.329 15.741-6.575 18.64-3.703 7.553 7.483-14.663 38.935-40.503 65.019-13.902 14.033-28.167 26.058-40.166 33.86-6.64 4.316-14.776 8.741-20.221 8.742zm-38.057-39.911c-3.718 0-6.343-.903-7.521-2.899-2.551-4.324 4.031-13.273 10.443-19.623a1 1 0 1 1 1.407 1.421c-8.31 8.229-11.42 14.996-10.128 17.186 3.678 6.232 32.772-1.942 70.222-24.044 37.449-22.102 58.667-43.621 54.989-49.854-1.365-2.314-6.689-2.592-14.608-.762a1 1 0 1 1-.45-1.948c9.213-2.129 14.861-1.559 16.781 1.694 5.403 9.156-24.075 33.931-55.695 52.593-24.728 14.593-52.1 26.234-65.44 26.236z" fill="#112c41"/><path d="M304.488 114.838c-5.137 14.421-7.863 29.387-8.286 44.352-1.377 48.775 21.71 97.558 65.529 127.459 16.309 11.126 34.002 18.631 52.102 22.677.02.007.04.015.053.015 28.674 6.406 58.364 4.165 85.209-6.045a86.454 86.454 0 0 0 2.761-1.076c.855-.345 1.718-.697 2.567-1.063.061-.031.122-.049.184-.081a144.677 144.677 0 0 0 28.704-16.344 143.163 143.163 0 0 0 18.136-15.799" fill="#ffe993"/><path d="M446.542 313.96c-10.973 0-21.986-1.21-32.875-3.642v-.002a2.014 2.014 0 0 1-.083-.02c-18.727-4.19-36.362-11.867-52.418-22.821-42.751-29.172-67.411-77.139-65.965-128.313.433-15.306 3.24-30.332 8.344-44.66a.999.999 0 1 1 1.883.672c-5.033 14.13-7.801 28.949-8.229 44.045-1.426 50.49 22.908 97.819 65.093 126.605 15.854 10.815 33.268 18.395 51.756 22.527a.969.969 0 0 1 .077.021c28.367 6.332 57.625 4.254 84.611-6.009a88.026 88.026 0 0 0 2.737-1.066c.854-.345 1.708-.694 2.551-1.056l.113-.049a144.11 144.11 0 0 0 28.58-16.264 142.526 142.526 0 0 0 18.009-15.688 1 1 0 1 1 1.436 1.392 144.586 144.586 0 0 1-18.263 15.91 145.935 145.935 0 0 1-29.014 16.506c-.926.4-1.795.754-2.657 1.102-.922.379-1.855.739-2.788 1.086a148.686 148.686 0 0 1-52.898 9.724z" fill="#112c41"/><path d="M304.51 113.614s-5.006 15.671-6.766 26.902c-.174 1.159-.347 2.304-.494 3.463l.038.456c-.489 4.08-.824 8.144-1.018 12.207l-.068 2.548c-1.377 48.775 21.71 97.558 65.529 127.459 16.309 11.126 34.001 18.631 52.101 22.677-65.086-20.756-101.606-89.897-97.394-166.86.326-5.958-7.379-24.906-11.928-28.852z" fill="#ffd169"/><path d="M446.542 313.96c-10.973 0-21.986-1.21-32.875-3.642v-.002a2.014 2.014 0 0 1-.083-.02c-18.727-4.19-36.362-11.867-52.418-22.821-42.751-29.172-67.411-77.139-65.965-128.313.433-15.306 3.24-30.332 8.344-44.66a.999.999 0 1 1 1.883.672c-5.033 14.13-7.801 28.949-8.229 44.045-1.426 50.49 22.908 97.819 65.093 126.605 15.854 10.815 33.268 18.395 51.756 22.527a.969.969 0 0 1 .077.021c28.367 6.332 57.625 4.254 84.611-6.009a88.026 88.026 0 0 0 2.737-1.066c.854-.345 1.708-.694 2.551-1.056l.113-.049a144.11 144.11 0 0 0 28.58-16.264 142.526 142.526 0 0 0 18.009-15.688 1 1 0 1 1 1.436 1.392 144.586 144.586 0 0 1-18.263 15.91 145.935 145.935 0 0 1-29.014 16.506c-.926.4-1.795.754-2.657 1.102-.922.379-1.855.739-2.788 1.086a148.686 148.686 0 0 1-52.898 9.724z" fill="#112c41"/><path d="M924.387 290.651c-13.832 13.119-.832 32.119 7.168 46.119 9.543 16.701-2 27-24 18-12.891-5.274-41-22-51-30" fill="#ffd6c0"/><path d="M922.205 359.103c-4.344 0-9.466-1.133-15.029-3.408-13.404-5.483-41.545-22.384-51.246-30.145a1 1 0 1 1 1.249-1.562c9.608 7.687 37.479 24.425 50.754 29.855 10.755 4.399 19.914 4.307 23.903-.242 3.149-3.591 2.73-9.546-1.15-16.336-.652-1.141-1.338-2.316-2.039-3.518-8.12-13.914-18.226-31.23-4.948-43.822a1.001 1.001 0 0 1 1.376 1.451c-12.127 11.501-2.465 28.059 5.299 41.363a421.968 421.968 0 0 1 2.048 3.534c4.33 7.578 4.665 14.374.917 18.647-2.441 2.784-6.307 4.183-11.134 4.183z" fill="#112c41"/></svg></g></svg>