<svg enable-background="new 0 0 1117.827 1111.599" height="1112" viewBox="0 0 1117.827 1111.599" width="1118" xmlns="http://www.w3.org/2000/svg"><path d="m655.298 190.085-549.81 99.92h-.01c-2.88.26-5.77.64-8.66 1.15-60.457 10.561-101.073 71.213-95.267 138.759.468 5.442 5.546 9.29 10.935 8.398l223.652-37.037 587.83-106.29z" fill="#dedffe"/><path d="m10.946 439.439c-2.315 0-4.594-.768-6.443-2.203-2.298-1.786-3.701-4.355-3.948-7.235-2.841-33.047 5.311-65.506 22.955-91.397 17.785-26.101 43.759-43.301 73.136-48.433 2.869-.506 5.811-.896 8.742-1.161l549.731-99.908c.244-.044.496.005.707.136l168.67 104.899c.351.219.532.631.454 1.037s-.397.723-.804.797l-587.83 106.29-223.667 37.038c-.566.094-1.135.14-1.703.14zm644.151-248.301-549.431 99.851c-.059.011-.119.017-.179.017-2.796.255-5.681.639-8.496 1.135-28.842 5.038-54.351 21.939-71.829 47.589-17.385 25.513-25.416 57.511-22.615 90.1.199 2.318 1.33 4.388 3.183 5.827 1.863 1.447 4.265 2.052 6.592 1.671l223.652-37.037 585.26-105.826z" fill="#112c41"/><path d="m96.548 291.285c2.98-.7 5.97-1.24 8.97-1.62z" fill="#fff"/><path d="m96.547 292.285c-.465 0-.88-.325-.978-.797-.11-.53.223-1.053.75-1.177 3-.705 6.053-1.256 9.073-1.639.538-.06 1.032.305 1.114.841.082.535-.277 1.039-.811 1.136l-8.97 1.62c-.059.011-.119.016-.178.016z" fill="#112c41"/><path d="m1105.998 1002.315-584.53 105.87c-.03.01-.05.01-.08.02l-12.04 2.18c-7.84 1.42-15.11-4.4-15.5-12.36-18.11-373.76-220.8-830.13-388.33-808.36l581.33-105.29 32.57-5.9c59.46-7.93 115.79 30 166.36 95.09 7.89 10.15 15.63 20.96 23.23 32.36 116.26 174.47 197.38 486.96 207.8 682.71.35 6.63-4.27 12.5-10.81 13.68z" fill="#fff"/><path d="m507.007 1111.595c-3.171 0-6.278-1.066-8.799-3.069-3.204-2.546-5.157-6.354-5.358-10.451-3.542-73.097-14.122-150.643-31.446-230.488-16.623-76.613-38.633-151.726-65.418-223.25-26.674-71.229-56.514-134.719-88.691-188.707-33.283-55.845-67.325-98.519-101.18-126.837-35.148-29.399-68.95-42.23-100.467-38.136-.537.07-1.034-.301-1.117-.838-.083-.536.276-1.041.81-1.138l613.9-111.19c56.03-7.464 112.311 24.648 167.328 95.462 7.732 9.946 15.562 20.854 23.272 32.418 53.541 80.349 104.582 198.842 143.719 333.651 35.518 122.343 58.935 249.753 64.248 349.561.376 7.125-4.624 13.452-11.631 14.718l-584.492 105.862c-.022.005-.042.01-.057.014l-12.1 2.193c-.84.151-1.683.225-2.521.225zm-386.518-823.625c27.679.966 56.837 14.134 86.908 39.288 34.028 28.463 68.216 71.309 101.615 127.348 32.238 54.09 62.13 117.689 88.846 189.029 26.819 71.614 48.856 146.819 65.499 223.527 17.347 79.951 27.942 157.609 31.489 230.815.172 3.521 1.851 6.794 4.604 8.981 2.737 2.175 6.279 3.065 9.719 2.441l12.008-2.174c.018-.004.035-.008.047-.011l584.595-105.885c6.018-1.086 10.312-6.521 9.989-12.644-5.305-99.661-28.695-226.906-64.172-349.108-39.082-134.619-90.031-252.916-143.462-333.1-7.683-11.524-15.485-22.392-23.187-32.301-54.549-70.213-110.211-102.083-165.438-94.713l-32.524 5.894zm400.899 820.235h.01z" fill="#112c41"/><path d="m1105.998 1002.315-584.53 105.87c126.5-29.8 298.251-100.816 399.5-242.2 111-155 53.316-430.776-34-581l-1.19-11.42c7.89 10.15 15.63 20.96 23.23 32.36 116.26 174.47 197.38 486.96 207.8 682.71.35 6.63-4.27 12.5-10.81 13.68z" fill="#dedffe"/><path d="m909.008 305.925c-66.28 38.66-152.16 20.16-196.3-44.11-16.32-23.77-24.75-50.62-25.86-77.44l32.57-5.9c68.74-9.17 133.29 42.95 189.59 127.45z" fill="#dedffe"/><path d="m507.006 1111.592c-3.174 0-6.283-1.068-8.805-3.072-3.202-2.546-5.153-6.354-5.351-10.447-3.625-74.817-14.608-154.205-32.642-235.957-17.305-78.442-40.174-155.051-67.974-227.697-27.736-72.479-58.632-136.454-91.83-190.15-34.445-55.712-69.471-97.193-104.105-123.29-31.599-23.811-61.978-33.999-90.448-30.362l-9.125 1.653c-.533.092-1.047-.249-1.157-.78s.222-1.054.75-1.178c3.059-.719 6.139-1.277 9.242-1.675l613.676-111.146c38.096-5.083 76.694 8.357 114.765 39.939 37.092 30.771 73.574 78.538 108.434 141.977 31.56 57.434 60.921 125.954 87.266 203.656 24.088 71.046 44.971 148.376 60.393 223.633 14.995 73.174 24.576 142.984 27.71 201.885.379 7.125-4.619 13.455-11.627 14.725l-596.648 108.059c-.839.152-1.684.227-2.524.227zm-386.464-823.637c24.583.874 50.368 11.387 76.961 31.425 34.833 26.247 70.026 67.912 104.602 123.836 33.264 53.803 64.216 117.892 91.996 190.487 27.835 72.738 50.733 149.442 68.059 227.981 18.059 81.861 29.056 161.361 32.687 236.29.171 3.52 1.846 6.792 4.598 8.979 2.739 2.178 6.285 3.068 9.728 2.443l596.647-108.061.178.984-.178-.984c6.019-1.09 10.312-6.528 9.986-12.65-3.128-58.802-12.697-128.511-27.672-201.589-15.405-75.176-36.266-152.424-60.328-223.392-26.308-77.593-55.62-146.004-87.125-203.336-34.738-63.217-71.06-110.791-107.958-141.4-37.624-31.211-75.703-44.502-113.178-39.503z" fill="#112c41"/><path d="m600.511 1033.122c-1.984 0-3.914-.249-5.771-.753-15.752-4.276-20.323-23.213-21.646-34.121-2.345-19.335-.074-34.464 6.943-46.252 7.962-13.376 25.85-23.652 42.002-17.694 1.295.478 1.958 1.915 1.48 3.211-.478 1.295-1.915 1.959-3.21 1.48-10.766-3.968-27.167.764-35.975 15.56-6.43 10.803-8.483 24.898-6.276 43.094.943 7.776 4.585 26.258 17.993 29.896 9.597 2.61 19.517-4.022 24.575-8.206 13.167-10.889 22.436-25.465 32.304-44.001 14.18-26.639 26.435-54.376 37.57-82.505 6.874-31.122 19.013-64.661 36.592-101.521.57-1.195 1.975-1.739 3.201-1.238 1.227.501 1.85 1.871 1.42 3.125-11.468 33.466-23.146 67.545-36.415 101.1-7.515 34.232-8.539 65.438-3.313 94.865 16.53-21.359 30.824-44.486 42.531-68.823.551-1.146 1.875-1.696 3.076-1.276 1.201.418 1.896 1.672 1.615 2.912-2.729 12.063-2.837 24.84-.312 36.948.307 1.474 1.519 6.298 4.207 6.494 1.766.138 3.624-1.889 4.869-3.418 6.356-7.803 11.402-16.526 15-25.926.392-1.023 1.405-1.657 2.497-1.602 1.094.071 2.013.847 2.269 1.912l4.825 20.112c.49 2.039 1.075 4.096 2.358 4.865.601.359 1.182.436 1.882.245 1.942-.53 4.444-3.089 6.226-6.368l13.774-25.35c.558-1.027 1.755-1.534 2.88-1.211 1.125.319 1.878 1.377 1.812 2.545-.416 7.393.461 14.735 2.604 21.822.929 3.071 2.009 4.748 3.4 5.276 1.072.407 2.593.188 4.522-.65 3.775-1.639 7.117-4.306 10.655-7.128 5.243-4.184 10.665-8.51 17.698-9.299 11.814-1.322 20.246 7.396 28.398 15.831 2.535 2.623 5.156 5.334 7.772 7.599 9.213 7.974 22.197 11.628 35.624 10.017 13.427-1.607 25.182-8.222 32.252-18.145.801-1.125 2.363-1.388 3.487-.586 1.125.801 1.386 2.362.585 3.486-7.885 11.068-20.908 18.434-35.73 20.209-14.823 1.772-29.215-2.307-39.491-11.2-2.785-2.41-5.485-5.204-8.096-7.905-7.648-7.913-14.869-15.388-24.245-14.337-5.599.628-10.232 4.324-15.136 8.238-3.637 2.901-7.398 5.902-11.78 7.806-3.213 1.397-5.926 1.637-8.292.738-3.886-1.478-5.519-5.561-6.409-8.503-1.371-4.534-2.261-9.164-2.666-13.845l-9.225 16.978c-.938 1.727-4.381 7.462-9.303 8.805-2.009.547-4.004.278-5.77-.78-3.191-1.914-4.103-5.716-4.648-7.987l-3.064-12.77c-3.426 7.238-7.71 14.029-12.788 20.265-1.243 1.526-4.544 5.593-9.11 5.246-4.293-.312-7.397-4.027-8.738-10.461-1.635-7.84-2.226-15.945-1.775-23.981-11.322 21.375-24.642 41.714-39.709 60.621-.605.758-1.594 1.102-2.538.872-.944-.226-1.671-.979-1.866-1.929-5.104-24.91-5.783-50.993-1.896-78.983-8.773 20.78-18.284 41.253-28.873 61.145-8.178 15.363-18.189 32.817-33.531 45.505-7.888 6.523-15.965 9.931-23.301 9.931z" fill="#112c41"/><g fill="#9797f7"><path d="m322.463 318.486c-1.898 0-3.583-1.357-3.932-3.291-.392-2.174 1.052-4.255 3.227-4.646l427-77c2.174-.393 4.254 1.053 4.646 3.227s-1.052 4.255-3.227 4.646l-427 77c-.239.043-.478.064-.714.064z"/><path d="m377.463 386.486c-1.898 0-3.583-1.357-3.932-3.291-.392-2.174 1.052-4.255 3.227-4.646l427-77c2.173-.387 4.254 1.054 4.646 3.227.392 2.174-1.052 4.255-3.227 4.646l-427 77c-.239.043-.478.064-.714.064z"/><path d="m546.963 459.986c-1.896 0-3.58-1.354-3.931-3.286-.395-2.174 1.047-4.256 3.221-4.65l294.5-53.5c2.172-.392 4.256 1.048 4.65 3.221.395 2.174-1.047 4.256-3.221 4.65l-294.5 53.5c-.241.044-.481.065-.719.065z"/></g><circle cx="489.468" cy="468.485" fill="#ff90d8" r="15.5"/><path d="m489.468 487.986c-10.752 0-19.5-8.748-19.5-19.5s8.748-19.5 19.5-19.5 19.5 8.748 19.5 19.5-8.748 19.5-19.5 19.5zm0-31c-6.341 0-11.5 5.159-11.5 11.5s5.159 11.5 11.5 11.5 11.5-5.159 11.5-11.5-5.159-11.5-11.5-11.5z" fill="#ff90d8"/><path d="m578.963 554.987c-1.896 0-3.58-1.354-3.931-3.286-.395-2.174 1.047-4.256 3.221-4.65l294.5-53.5c2.173-.392 4.256 1.048 4.65 3.221.395 2.174-1.047 4.256-3.221 4.65l-294.5 53.5c-.241.043-.481.065-.719.065z" fill="#9797f7"/><circle cx="521.468" cy="563.485" fill="#ff90d8" r="15.5"/><path d="m521.468 582.986c-10.752 0-19.5-8.748-19.5-19.5s8.748-19.5 19.5-19.5 19.5 8.748 19.5 19.5-8.748 19.5-19.5 19.5zm0-31c-6.341 0-11.5 5.159-11.5 11.5s5.159 11.5 11.5 11.5 11.5-5.159 11.5-11.5-5.159-11.5-11.5-11.5z" fill="#ff90d8"/><path d="m619.963 648.987c-1.896 0-3.58-1.354-3.931-3.286-.395-2.174 1.047-4.256 3.221-4.65l294.5-53.5c2.174-.393 4.256 1.048 4.65 3.221.395 2.174-1.047 4.256-3.221 4.65l-294.5 53.5c-.241.043-.481.065-.719.065z" fill="#9797f7"/><circle cx="562.468" cy="657.485" fill="#ff90d8" r="15.5"/><path d="m562.468 676.986c-10.752 0-19.5-8.748-19.5-19.5s8.748-19.5 19.5-19.5 19.5 8.748 19.5 19.5-8.748 19.5-19.5 19.5zm0-31c-6.341 0-11.5 5.159-11.5 11.5s5.159 11.5 11.5 11.5 11.5-5.159 11.5-11.5-5.159-11.5-11.5-11.5z" fill="#ff90d8"/><path d="m648.963 749.987c-1.896 0-3.58-1.354-3.931-3.286-.395-2.174 1.047-4.256 3.221-4.65l294.5-53.5c2.174-.396 4.256 1.047 4.65 3.221.395 2.174-1.047 4.256-3.221 4.65l-294.5 53.5c-.241.043-.481.065-.719.065z" fill="#9797f7"/><circle cx="591.468" cy="758.485" fill="#ff90d8" r="15.5"/><path d="m591.468 777.986c-10.752 0-19.5-8.748-19.5-19.5s8.748-19.5 19.5-19.5 19.5 8.748 19.5 19.5-8.748 19.5-19.5 19.5zm0-31c-6.341 0-11.5 5.159-11.5 11.5s5.159 11.5 11.5 11.5 11.5-5.159 11.5-11.5-5.159-11.5-11.5-11.5z" fill="#ff90d8"/><circle cx="853.129" cy="142.201" fill="#7bdaac" r="141.188"/><path d="m853.336 284.343c-45.314 0-89.887-21.558-117.42-61.651-44.382-64.631-27.909-153.32 36.722-197.703 64.631-44.382 153.32-27.908 197.703 36.723 44.382 64.632 27.908 153.32-36.722 197.702-24.537 16.849-52.553 24.929-80.283 24.929zm-.413-282.285c-27.345 0-54.958 7.965-79.153 24.579-63.722 43.759-79.964 131.2-36.206 194.922 43.758 63.723 131.199 79.966 194.921 36.206 63.722-43.758 79.964-131.199 36.206-194.921-27.142-39.527-71.096-60.786-115.768-60.786z" fill="#112c41"/><path d="m849.195 206.822c-4.462 0-8.685-2.133-11.33-5.779l-51.394-70.852c-4.54-6.259-3.146-15.014 3.112-19.554 6.258-4.539 15.013-3.146 19.553 3.112l38.024 52.421 51.447-100.044c3.536-6.875 11.977-9.583 18.853-6.048 6.876 3.536 9.584 11.977 6.048 18.853l-61.86 120.293c-2.224 4.325-6.534 7.187-11.383 7.557-.358.028-.715.041-1.07.041z" fill="#fff"/></svg>