<svg height="313.053" viewBox="0 0 247.957 313.053" width="247.957" xmlns="http://www.w3.org/2000/svg"><path d="m20.2 245.044c-28.701-12.022-24.088-76.081 6.26-146.782 17.531-40.842 35.043-71.157 58.123-96.857.342-.381.888-.508 1.364-.318l159.873 63.723c1.145.456 1.505 1.896.711 2.839-19.878 23.628-39.857 53.604-56.329 94.93-28.487 71.469-32.814 137.145-6.79 147.518 0 0-.166-.066-.489-.195-9.77-3.894-162.723-64.859-162.723-64.859z" fill="#fff"/><path d="m183.412 311.098c-.123 0-.249-.023-.37-.071l-.489-.195c-9.763-3.892-162.507-64.773-162.722-64.859l-.017-.007c-6.757-2.83-11.883-8.47-15.237-16.763-10.596-26.2-2.563-76.525 20.965-131.336 18.32-42.68 36.299-72.636 58.297-97.13.62-.69 1.616-.923 2.479-.579l159.873 63.723c.847.337 1.459 1.037 1.681 1.92.222.884.012 1.793-.576 2.492-23.575 28.021-41.947 58.984-56.166 94.656-13.906 34.887-22.346 69.105-23.767 96.352-1.426 27.35 4.397 45.054 16.395 49.858l.024.01c.513.205.762.786.558 1.299-.156.391-.532.63-.929.63zm-162.857-66.901c.826.241 2.561.933 6.607 2.545l148.538 59.205c-7.862-8.375-11.493-24.507-10.333-46.749 1.432-27.46 9.922-61.904 23.906-96.988 14.299-35.875 32.778-67.016 56.493-95.203.17-.202.23-.463.167-.717-.063-.252-.239-.453-.482-.549l-159.875-63.725c-.087-.035-.188-.012-.25.057-21.845 24.325-39.716 54.112-57.947 96.583-23.325 54.339-31.351 104.074-20.948 129.797 3.146 7.78 7.909 13.052 14.155 15.668l-.031.075z" fill="#112c41"/><path d="m66.672 223.638c-.423-.168-.908-.015-1.167.36-18.283 26.594-33.03 25.9-45.305 21.045l163.212 65.054c12.058 4.807 32.763 1.692 44.856-20.028.486-.874.106-1.979-.824-2.349z" fill="#dedffe"/><path d="m194.29 313.044c-4.257 0-8.134-.776-11.248-2.017l-163.212-65.055c-.512-.204-.763-.785-.559-1.298s.784-.764 1.297-.561h.003c11.626 4.599 25.952 5.732 44.111-20.681.529-.768 1.5-1.065 2.36-.723h.001l160.773 64.083c.705.281 1.256.853 1.511 1.569.257.723.19 1.523-.183 2.195-9.445 16.964-23.499 22.488-34.853 22.488zm-162.152-64.319 151.645 60.444c10.759 4.289 31.253 2.613 43.612-19.585.129-.232.085-.446.047-.552-.037-.103-.133-.288-.367-.382l-160.753-64.075c-13.089 19.035-24.376 24.312-34.184 24.15z" fill="#112c41"/><g fill="#b2b0f7"><path d="m194.883 94.678c-.247 0-.497-.046-.74-.143l-47.951-19.113c-1.026-.409-1.526-1.572-1.117-2.598s1.573-1.526 2.598-1.117l47.951 19.113c1.026.409 1.526 1.572 1.117 2.598-.312.783-1.064 1.26-1.858 1.26z"/><path d="m141.81 142.901c-.247 0-.497-.046-.74-.143l-82.167-32.751c-1.026-.409-1.526-1.572-1.117-2.598s1.573-1.526 2.598-1.117l82.167 32.751c1.026.409 1.526 1.572 1.117 2.598-.312.783-1.064 1.26-1.858 1.26z"/><path d="m131.425 175.519c-.247 0-.497-.046-.74-.143l-82.394-32.841c-1.026-.409-1.526-1.572-1.117-2.598s1.573-1.526 2.598-1.117l82.394 32.841c1.026.409 1.526 1.572 1.117 2.598-.312.783-1.064 1.26-1.858 1.26z"/><path d="m121.33 208.227c-.247 0-.497-.046-.74-.143l-82.394-32.841c-1.026-.409-1.526-1.572-1.117-2.598s1.573-1.526 2.598-1.117l82.394 32.841c1.026.409 1.526 1.572 1.117 2.598-.312.783-1.064 1.26-1.858 1.26z"/><path d="m182.918 114.624c-.247 0-.497-.046-.74-.143l-47.951-19.113c-1.026-.409-1.526-1.572-1.117-2.598s1.573-1.526 2.598-1.117l47.951 19.113c1.026.409 1.526 1.572 1.117 2.598-.312.783-1.064 1.26-1.858 1.26z"/></g></svg>