<svg xmlns="http://www.w3.org/2000/svg" viewBox="0 0 3000 3000" width="3000" height="3000"><g transform="translate(950.0 2725.0) rotate(0.0 600.0 39.16666666666674) scale(0.8250257820556892 0.8289767957048435)"><svg width="1454.5" height="94.494" viewBox="0 0 1454.5 94.494"><ellipse cx="727.25" cy="47.247" fill="#cbc8ff" rx="727.25" ry="47.247"/></svg></g><g transform="translate(576.6666666666667 1396.6666666666667) rotate(0.0 384.16666666666663 189.16666666666663) scale(1.6666666666666665 1.6710836277974084)"><svg width="461" height="226.4" viewBox="0 0 461 226.4"><path d="M460 1v186c-201.55 3.68-370.84 18.34-459 38.4v-186C89.16 19.34 258.45 4.68 460 1z" fill="#6ecfea"/><path d="M1 226.4a.999.999 0 0 1-1-1v-186a1 1 0 0 1 .778-.975C90.659 17.974 262.324 3.609 459.982 0c.26-.019.527.098.719.286S461 .731 461 1v186a1 1 0 0 1-.982 1c-197.529 3.607-369.042 17.953-458.796 38.376A1.048 1.048 0 0 1 1 226.4zM2 40.199v183.949c90.06-20.27 260.646-34.508 457-38.13v-184C262.464 5.645 91.81 19.905 2 40.199z" fill="#112c41"/><path d="M76 60.22v115c-11.26 1.57-21.94 3.19-32 4.86v-115c10.06-1.67 20.74-3.29 32-4.86z" fill="#9dd9f4"/><path d="M44 181.08a.998.998 0 0 1-1-1v-115a1 1 0 0 1 .836-.986c9.963-1.654 20.738-3.29 32.025-4.863a.976.976 0 0 1 .794.236.995.995 0 0 1 .345.753v115a1 1 0 0 1-.862.99 1258.242 1258.242 0 0 0-31.975 4.855.899.899 0 0 1-.163.015zm1-115.153v112.974a1253.95 1253.95 0 0 1 30-4.551V61.37a1253.766 1253.766 0 0 0-30 4.557z" fill="#fff"/><path d="M139 84.65v83c-11.04 1.15-21.72 2.34-32 3.57v-83c10.28-1.23 20.96-2.42 32-3.57z" fill="#9dd9f4"/><path d="M107 172.22a1.003 1.003 0 0 1-1-1v-83a1 1 0 0 1 .881-.993 2112.533 2112.533 0 0 1 32.015-3.571 1 1 0 0 1 1.104.994v83a1 1 0 0 1-.896.994 2122.374 2122.374 0 0 0-31.985 3.569.95.95 0 0 1-.119.007zm1-83.112v80.985c9.51-1.132 19.592-2.256 30-3.345V85.76a2108.378 2108.378 0 0 0-30 3.348z" fill="#fff"/><path d="M202 46.91v115c-2.81.22-5.61.45-8.39.68h-.01c-8.01.66-15.88 1.34-23.6 2.04v-115c10.4-.94 21.07-1.85 32-2.72z" fill="#9dd9f4"/><path d="M170 165.631a.998.998 0 0 1-1-1v-115a1 1 0 0 1 .91-.996 3005.02 3005.02 0 0 1 32.01-2.722.998.998 0 0 1 1.08.997v115a1 1 0 0 1-.922.997c-2.809.221-5.607.45-8.386.681-7.939.652-15.877 1.338-23.602 2.039a.903.903 0 0 1-.09.004zm1-115.086v112.991a2887.942 2887.942 0 0 1 30-2.549V47.993c-9.954.796-20.036 1.653-30 2.552z" fill="#fff"/><path d="M265 74.5v83c-10.86.66-21.53 1.36-32 2.09v-83c10.47-.73 21.14-1.43 32-2.09z" fill="#9dd9f4"/><path d="M233 160.59a1.002 1.002 0 0 1-1-1v-83a1 1 0 0 1 .93-.998c10.763-.75 21.533-1.454 32.009-2.091A1.003 1.003 0 0 1 266 74.5v83a1 1 0 0 1-.939.998c-10.47.637-21.234 1.34-31.991 2.091l-.07.001zm1-83.067v80.995c10.085-.7 20.167-1.359 30-1.96V75.562c-9.834.602-19.916 1.26-30 1.961z" fill="#fff"/><path d="M328 71.16v83a4020.1 4020.1 0 0 0-32 1.57v-83a4020.1 4020.1 0 0 1 32-1.57z" fill="#9dd9f4"/><path d="M296 156.73a1.002 1.002 0 0 1-1-1v-83a1 1 0 0 1 .947-.999 4120.713 4120.713 0 0 1 32.008-1.57.999.999 0 0 1 1.045.999v83a1 1 0 0 1-.955.999c-11.156.506-21.92 1.033-31.992 1.57l-.053.001zm1-83.052v80.997c9.484-.502 19.566-.996 30-1.472V72.207a4026.75 4026.75 0 0 0-30 1.471z" fill="#fff"/><path d="M391 68.73v83c-10.79.34-21.46.71-32 1.12v-83c10.54-.41 21.21-.78 32-1.12z" fill="#9dd9f4"/><path d="M359 153.85a1.002 1.002 0 0 1-1-1v-83c0-.537.424-.979.961-.999 10.185-.396 20.654-.763 32.008-1.12a1.002 1.002 0 0 1 1.031.999v83a1 1 0 0 1-.969.999A4327.333 4327.333 0 0 0 359 153.85zm1-83.038v80.999c9.566-.37 19.403-.714 30-1.05V69.762c-10.597.336-20.433.68-30 1.05z" fill="#fff"/></svg></g><g transform="translate(931.6666666666667 1396.6666666666667) rotate(0.0 605.0000000000001 693.3333333333334) scale(1.6679279510263274 1.6668529855701018)"><svg width="725.451" height="831.907" viewBox="0 0 725.451 831.907"><path d="M700.532 632.835c-4.14 13.62-9.59 28.24-16.16 43.19a457.66 457.66 0 0 1-13.97 28.97c-22.11 42.03-52.04 83.16-85.82 108.69-34.46-35.67-30.96-88.67-29.63-100.04-2.88-2.16-6.83-4.83-11.7-7.99-37.93-24.6-130.82-78.72-193.3-150.2-2.45-2.8-4.85-5.63-7.2-8.48-21.28-25.84-40.52-60.53-56.37-94.12-23.77-50.4-39.89-98.32-43.74-110.12-.59-1.8-.89-2.76-.89-2.76s-10.48 45.05-21 143c-13 121-9.21 213.29-8.95 227.97h.02c.41 6.21 1.01 13.4 1.68 20.74 2.13 23.51 5 48.62 5 48.62-13.53 4.46-28.62 8.41-44.62 11.65-7.81 1.58-15.84 2.98-24.01 4.17-49.21 7.24-103.47 7.11-146-6.54 9.33-48.71 54.68-76.35 64.75-81.81-.05-1.52-.15-4.73-.29-9.15-.27-8.03-.65-20.04-1.04-33.13-.42-13.58-.92-24.42-.97-37.25-.12-34.79-1.63-87.37-1.39-146.84v-.01c.12-32.36.76-66.75 2.43-101.42v-.01c3.03-63.26 9.46-127.43 22.35-181.83.01-.05.03-.11.04-.16 27.23-114.71 63.32-180.38 139.73-194.21 16.18-2.93 34.17-3.54 54.27-1.79 115 10 138.6 126.61 141 177 .1 2.12.18 4.33.25 6.65 1.31 43.65-2.12 121.68 19.75 191.35 27 86 101 149 145 186 9.55 8.04 31.57 22.19 53.47 35.67.01 0 .02.01.03.01 28.74 17.68 57.28 34.18 57.28 34.18z" fill="#dedffe"/><path d="M242.642 342.735c-.59-1.8-.89-2.76-.89-2.76s-10.48 45.05-21 143c-13 121-9.21 213.29-8.95 227.97h.02c.41 6.21 1.01 13.4 1.68 20.74 0-.01-.01-.02-.01-.03-14.25-41.32-14.74-172.68-8.74-254.68s11-108 12-163c.849-46.683 3.67-107.61 3.67-107.61 1.67 4.39 6.33 28.61 5.84 32.37s2.49 25.24 4.49 40.24 11.79 62.58 11.79 62.58z" fill="#cbc8ff"/><path d="M666.722 711.835c-21.69 39.61-50.19 77.71-82.14 101.85-34.31-35.52-30.99-88.21-29.65-99.89 33.53-17.84 71.88-22.05 111.79-1.96zm-532.28 86.29c-44.89 5.07-92.44 3.7-130.57-8.54 9.29-48.5 54.3-76.11 64.62-81.74 34.12 17.1 59.37 45.88 65.95 90.28z" fill="#fff"/><path d="M643.222 598.645c-60.5-23.33-152.56-83.36-200.47-175.67-41-79-37-168-42-259-.2-3.72-.47-7.39-.82-11 11.55-.53 19.69.92 22.79 4.37l.01.01c1.09 8.01 1.72 15.33 2.02 21.62.1 2.12.18 4.33.25 6.65 1.31 43.65-2.12 121.68 19.75 191.35 27 86 101 149 145 186 9.55 8.04 31.57 22.19 53.47 35.67z" fill="#cbc8ff"/><path d="M422.722 157.315v.03c-3.1-3.45-11.24-4.9-22.79-4.37-7.91-84.67-53.18-138.46-170.45-149.21 6.96-1.243 13.964-2.078 22-2.5.891-.03 1.36-.081 3.16-.13 16.155-.469 33.957.396 50.79 4.19 5.822 1.319 11.943 3.043 18.47 5.5 14.494 5.406 28.627 13.65 40.88 24.55.41.35.81.71 1.21 1.08a107.84 107.84 0 0 1 2.64 2.46c2.928 2.772 6.159 6.157 9.49 9.99a159.232 159.232 0 0 1 13.77 18.71l.09.15c3.629 5.722 7.819 13.392 10.99 20.29 1.673 3.595 3.731 8.315 5.43 12.78 6.83 17.663 11.599 36.762 14.32 56.48z" fill="#cbc8ff"/><path d="M584.581 814.681c-.263 0-.524-.104-.72-.305-34.801-36.014-31.259-88.595-29.971-100.273-5.716-4.23-15.486-10.402-27.769-18.162-45.155-28.525-129.206-81.621-184.142-148.329-52.327-63.54-92.815-181.886-100.035-203.805-2.625 12.513-11.443 57.778-20.199 139.275-7.943 73.929-10.99 148.94-9.059 222.952.052 1.991.093 3.568.115 4.713a.91.91 0 0 1 .017.129c1.717 25.793 6.626 68.88 6.676 69.312a.997.997 0 0 1-.681 1.062c-13.723 4.524-28.774 8.454-44.734 11.682-62.656 12.654-126.399 11.758-170.513-2.395a1.002 1.002 0 0 1-.677-1.141c9.407-49.13 54.348-76.494 64.708-82.207-.17-5.16-.728-22.228-1.312-41.667-.107-3.542-.221-6.896-.332-10.15-.308-9.063-.598-17.625-.63-27.12-.045-13.089-.283-28.461-.56-46.26-1.542-99.392-4.122-265.743 24.012-384.249C106.854 121.594 127.358 74 155.259 43.426 186.196 9.529 227.055-3.964 283.838.98c50.297 4.373 88.487 29.224 113.511 73.86 23.125 41.249 27.565 86.533 28.401 104.088.419 8.812.528 19.234.654 31.303.479 45.823 1.134 108.581 19.301 166.445 27.242 86.772 103.644 151.019 144.689 185.534 21.771 18.308 109.751 69.242 110.637 69.754.402.233.591.712.457 1.157-4.198 13.817-9.647 28.388-16.198 43.305-25.718 58.518-63.142 110.126-100.107 138.053a.992.992 0 0 1-.602.202zM241.752 338.976a1 1 0 0 1 .954.7c.429 1.362 43.536 137.107 100.818 206.664C398.255 612.8 482.13 665.784 527.19 694.25c12.655 7.994 22.651 14.31 28.36 18.595a1 1 0 0 1 .393.916c-1.193 10.193-5.374 62.605 28.744 98.584 36.476-27.852 73.351-78.878 98.773-136.724 6.399-14.571 11.741-28.807 15.884-42.324-8.338-4.838-89.361-52.002-110.236-69.556-41.202-34.647-117.894-99.138-145.311-186.466-18.255-58.146-18.913-121.076-19.393-167.024-.125-12.048-.234-22.453-.652-31.228-.829-17.413-5.231-62.328-28.148-103.206-24.68-44.023-62.341-68.533-111.939-72.845-56.118-4.873-96.447 8.403-126.925 41.803-27.66 30.311-48.02 77.631-66.016 153.433-28.076 118.261-25.498 284.456-23.958 383.755.276 17.805.515 33.182.56 46.282.032 9.466.322 18.013.629 27.061.11 3.255.224 6.613.332 10.157.61 20.299 1.191 38.011 1.332 42.276a.999.999 0 0 1-.523.912c-9.022 4.893-54.287 31.643-64.069 80.252 43.77 13.795 106.72 14.577 168.658 2.068 15.584-3.151 30.292-6.974 43.732-11.366-.683-6.054-4.982-44.532-6.581-68.425a1.015 1.015 0 0 1-.03-.222 684.428 684.428 0 0 0-.118-4.872c-1.935-74.101 1.117-149.202 9.069-223.218 10.409-96.886 20.915-142.669 21.02-143.12a.998.998 0 0 1 .936-.772z" fill="#112c41"/><path d="M1.004 812.982c.019 1.625.597 3.069 2.041 4.164 26.293 19.953 151.581 18.242 211.556-5.359 5.137-2.022 6.15-5.095 6.25-8.477l-2.35-23.008c-59.958 19.745-150.584 29.828-214.628 9.284-1.715 7.975-2.954 16.052-2.869 23.396z" fill="#dedffe"/><path d="M85.923 831.908c-40.429.001-71.928-5.198-83.482-13.966-1.593-1.209-2.413-2.874-2.437-4.949-.075-6.495.871-14.22 2.892-23.617a.993.993 0 0 1 .477-.655.994.994 0 0 1 .806-.087c64.675 20.747 156.274 9.732 214.01-9.282a1 1 0 0 1 1.307.848l2.35 23.008c.005.044.006.088.005.131-.099 3.338-.995 7.062-6.883 9.379-27.885 10.973-72.279 18.105-118.754 19.081-3.486.073-6.923.109-10.291.109zm-81.3-41.035c-1.832 8.764-2.689 16.001-2.619 22.097.017 1.446.555 2.552 1.646 3.379 11.655 8.846 44.965 13.545 83.442 13.546 43.756.002 94.197-6.073 127.144-19.038 4.498-1.77 5.506-4.283 5.615-7.512l-2.217-21.707c-57.784 18.769-148.416 29.526-213.011 9.235z" fill="#112c41"/><path d="M134.442 799.13a.997.997 0 0 1-.996-.902c-6.038-40.656-28.042-70.765-65.402-89.489a1 1 0 1 1 .896-1.787c37.99 19.04 60.361 49.666 66.491 91.027a1.004 1.004 0 0 1-.989 1.151z" fill="#112c41"/><path d="M602.061 829.494c1.34.92 2.853 1.278 4.58.728 31.451-10.015 102.169-113.45 117.393-176.078 1.304-5.365-.626-7.961-3.334-9.991l-20.167-11.323c-18.367 60.395-62.287 140.305-115.951 180.85 5.533 5.994 11.425 11.657 17.479 15.814z" fill="#dedffe"/><g fill="#112c41"><path d="M605.031 831.484c-1.222 0-2.405-.389-3.536-1.165-5.354-3.677-11.127-8.897-17.648-15.959a1.003 1.003 0 0 1 .132-1.477c54.193-40.944 97.911-122.187 115.598-180.344a1 1 0 0 1 1.446-.581l20.167 11.323a.99.99 0 0 1 .11.072c2.671 2.002 5.201 4.877 3.707 11.026-7.078 29.117-26.799 69.525-52.753 108.091-25.312 37.611-50.336 63.937-65.308 68.704a6.272 6.272 0 0 1-1.915.31zm-2.405-2.814c1.193.817 2.407 1.016 3.711.599 29.796-9.487 101.008-110.706 116.725-175.361 1.141-4.696-.333-6.968-2.911-8.915l-19.026-10.683c-17.912 58.055-61.286 138.358-115.06 179.499 6.111 6.543 11.536 11.41 16.561 14.861z"/><path d="M554.933 714.795a1 1 0 0 1-.471-1.883c37.079-19.729 76.043-20.416 112.678-1.986.345.158.586.506.586.909 0 .553-.443 1-.995 1a1.04 1.04 0 0 1-.459-.106c-36.554-18.4-73.856-17.745-110.871 1.949a.987.987 0 0 1-.468.117zM245.092 351.106c-.422 0-.815-.27-.952-.692-10.852-33.604-17.436-87.8-19.036-114.067a214.736 214.736 0 0 1-.241-4.538l-.001-.057c-.049-.957-.079-1.846-.108-2.715-.295-9.544-3.15-19.211-8.484-28.764-8.664-15.51-21.015-25.415-21.139-25.514a.999.999 0 1 1 1.243-1.566c.126.101 12.777 10.236 21.642 26.105 5.493 9.834 8.432 19.809 8.736 29.646.03.89.06 1.775.109 2.73l.001.066a223.3 223.3 0 0 0 .238 4.481c1.713 28.107 8.723 81.926 18.943 113.575a1 1 0 0 1-.645 1.259.935.935 0 0 1-.306.051z"/><path d="M156.752 738.976c-.417 0-.807-.263-.948-.681-.469-1.392-46.908-140.977-42.052-297.351 2.263-72.853 12.432-145.029 29.408-208.727 14.04-52.678 32.183-97.081 49.776-121.821a.996.996 0 0 1 .628-.403c21.312-4.059 70.226 4.834 88.708 16.129.239.146.406.387.46.662 4.318 22.165 5.481 50.037 6.827 82.31 3.367 80.707 7.557 181.149 63.038 269.35 41.392 65.802 111.757 112.466 163.499 140.024 59.202 31.533 112.588 48.047 126.758 49.513.549.058.949.549.892 1.098a1.01 1.01 0 0 1-1.098.893c-14.3-1.479-68.049-18.076-127.492-49.737-51.955-27.673-122.625-74.551-164.251-140.726-55.764-88.65-59.966-189.387-63.343-270.33-1.334-31.98-2.487-59.628-6.708-81.575-17.996-10.712-65.908-19.414-86.521-15.718-35.572 50.354-73.931 179.373-78.582 329.122-4.845 156.001 41.479 295.261 41.948 296.649a1 1 0 0 1-.947 1.319z"/></g><path d="M145.752 431.975c0 35.9-21.94 65-49 65-12.14 0-23.26-5.86-31.82-15.57v-.01c.12-32.36.76-66.75 2.43-101.42 0 0-.01-.01 0-.01 8.19-8.15 18.36-12.99 29.39-12.99 27.06 0 49 29.101 49 65z" fill="#fff"/><path d="M96.752 497.976c-11.959 0-23.526-5.65-32.57-15.909a1.001 1.001 0 0 1-.25-.661c.138-37.166.932-70.334 2.427-101.406a.995.995 0 0 1 .331-.777c8.725-8.666 19.119-13.247 30.062-13.247 27.57 0 50 29.607 50 66s-22.43 66-50 66zm-30.819-16.948c8.621 9.643 19.551 14.948 30.818 14.948 26.467 0 48-28.71 48-64s-21.533-64-48-64c-10.302 0-20.118 4.295-28.41 12.426-1.478 30.852-2.266 63.775-2.408 100.626z" fill="#112c41"/><path d="M369.962 548.695c-6.12 3.92-12.93 6.13-20.01 6.76-2.45-2.8-4.85-5.63-7.2-8.48-21.28-25.84-40.52-60.53-56.37-94.12 3.43-5.44 7.95-10.1 13.51-13.66 24.55-15.71 60.13-3.93 79.48 26.31s15.13 67.48-9.41 83.19z" fill="#fff"/><path d="M349.952 556.455a.995.995 0 0 1-.752-.342 381.801 381.801 0 0 1-7.219-8.501c-18.635-22.63-37.646-54.367-56.503-94.33a.997.997 0 0 1 .059-.96c3.594-5.701 8.243-10.4 13.817-13.969 12.131-7.765 27.241-9.25 42.543-4.184 15.228 5.041 28.836 15.978 38.318 30.796 19.612 30.649 15.254 68.588-9.713 84.571-6.127 3.925-13.012 6.251-20.461 6.914a.673.673 0 0 1-.089.005zm-62.43-103.527c18.709 39.577 37.55 71.006 56.002 93.412a378.988 378.988 0 0 0 6.844 8.071c6.932-.692 13.339-2.897 19.054-6.558 24.039-15.39 28.125-52.089 9.107-81.81-9.235-14.433-22.469-25.078-37.262-29.976-14.72-4.873-29.222-3.463-40.836 3.97-5.174 3.313-9.515 7.648-12.909 12.891z" fill="#112c41"/><circle cx="156.252" cy="738.475" fill="#fff" r="10.5"/><path d="M156.252 749.976c-6.341 0-11.5-5.159-11.5-11.5s5.159-11.5 11.5-11.5 11.5 5.159 11.5 11.5-5.159 11.5-11.5 11.5zm0-21c-5.238 0-9.5 4.262-9.5 9.5s4.262 9.5 9.5 9.5 9.5-4.262 9.5-9.5-4.262-9.5-9.5-9.5z" fill="#112c41"/><circle cx="643.252" cy="669.475" fill="#fff" r="10.5"/><path d="M643.252 680.976c-6.341 0-11.5-5.159-11.5-11.5s5.159-11.5 11.5-11.5 11.5 5.159 11.5 11.5-5.159 11.5-11.5 11.5zm0-21c-5.238 0-9.5 4.262-9.5 9.5s4.262 9.5 9.5 9.5 9.5-4.262 9.5-9.5-4.262-9.5-9.5-9.5z" fill="#112c41"/><circle cx="281.252" cy="127.475" fill="#fff" r="10.5"/><path d="M281.252 138.976c-6.341 0-11.5-5.159-11.5-11.5s5.159-11.5 11.5-11.5 11.5 5.159 11.5 11.5-5.159 11.5-11.5 11.5zm0-21c-5.238 0-9.5 4.262-9.5 9.5s4.262 9.5 9.5 9.5 9.5-4.262 9.5-9.5-4.262-9.5-9.5-9.5z" fill="#112c41"/><circle cx="194.252" cy="111.475" fill="#fff" r="10.5"/><path d="M194.252 122.976c-6.341 0-11.5-5.159-11.5-11.5s5.159-11.5 11.5-11.5 11.5 5.159 11.5 11.5-5.159 11.5-11.5 11.5zm0-21c-5.238 0-9.5 4.262-9.5 9.5s4.262 9.5 9.5 9.5 9.5-4.262 9.5-9.5-4.262-9.5-9.5-9.5z" fill="#112c41"/></svg></g><g transform="translate(633.3333333333334 540.0) rotate(0.0 800.8333333333333 480.0) scale(1.6667273695365248 1.6666695601902086)"><svg width="960.965" height="575.999" viewBox="0 0 960.965 575.999"><path d="M827.208 565.999c-113 16-232-125-232-125s-277-39-285-37-124 27-212-5-104-132-95-187c10.3-62.97 41-128.32 53.66-140.99 15.58-14.8 68.99-30.26 70.68-21.07 1.37-8.13 7.62-38.36 26.19-47.64 15.56-7.79 27.32 19.87 9.11 72.03 12.36 33.67-17.64 61.67-27.64 112.67-5.15 26.25-13.71 83.14 31 84 22.65.44 60.48-10.89 108.78-21.59 36.84-8.16 79.76-15.94 126.69-17.86 19.68-.8 40.06-.58 61 1.09 13.95 1.11 28.14 2.85 42.53 5.36 5.86 1.02 11.59 2.13 17.19 3.33 27.87 5.92 52.73 13.88 74.99 23.18 4.81 2 9.49 4.07 14.06 6.2.95.44 1.91.89 2.86 1.35 36.03 17.12 64.69 37.67 88.08 58.07 4.68 4.08 9.15 8.16 13.43 12.2 45.86 43.33 69.4 82.67 91.39 82.67 27.07 0 33.9-31.27 26.45-72.13-8.93-49.01-21.02-68.16-13.78-79.47 3.45-5.4 15.23-7.67 30.88 9.42-17.55-44.22-6.04-58.11-.58-61.3 7.73-4.51 17.78 2.06 23.11 10.32.23-5.82 5.5-18.99 15.36-19.84 6.74-.57 19.18 7.21 23.55 26.14 7.04-18.1 27.08-9.36 35.21 22.43 7.25 28.32 11.22 73.72 12.4 110.39 1.791 55.94-9.92 177.67-132.6 195.04z" fill="#dedffe"/><g fill="#cbc8ff"><path d="M611.448 270.709c-1.25 4.21-2.52 8.41-3.8 12.62-31.44-16.49-62.44-27.33-88.44-35.33l-2.1-7.76 2.38.479c.98.2 1.94.4 2.91.61 34.03 7.221 63.44 17.431 89.05 29.381zm-578.65-156.71c-22.4 66.72-25.55 121.95-12.34 167.44-5.21 5.94-8.55 13.63-9.83 22.15-10.45-32.77-11.48-66.76-7.42-91.59 5.741-35.11 17.831-70.95 29.59-98zm258.36 293.41c0 .11-.01.21-.01.32-37.95 6.43-124.03 16.33-192.94-8.73-18.57-6.75-33.94-16.54-46.54-28.29 9.62 2.88 19.57 2.4 28.3-2.12.26-.13.521-.27.771-.42 52.39 30.77 150.32 33.53 193.81 23.37-.15 10.53-1.35 17.33-3.62 18.56 7.69-.88 14.509-1.82 20.229-2.69zm516.11 156.83c.61 1.05 1.26 2.06 1.95 3.03-68.81.12-137.39-51.86-177.73-89.15.1-.24.2-.47.3-.71 4.36 3.92 9.05 8.01 14.03 12.18-.54-3.43 2.28-11.25 7.63-21.77 29.59 32.59 86.07 68.91 149.02 74.36-.63 7.66.881 15.27 4.8 22.06zm92.84-28.32c.59-6.23-.24-12.45-2.62-18.22 40.23-32.87 56.03-92.18 62.47-138.21.19 43.38-8.58 115.06-59.85 156.43z"/><path d="M291.158 407.409c-5.72.87-12.54 1.81-20.23 2.69 2.27-1.23 3.47-8.03 3.62-18.56 7.19-1.68 12.9-3.72 16.66-6.04.25 6.5.19 14.09-.05 21.91zm354.66 82.18c-4.98-4.17-9.67-8.26-14.03-12.18 4.33-10.25 8.14-19.98 9.87-24.41 3.23 4.76 7.18 9.75 11.79 14.82-5.349 10.52-8.169 18.34-7.63 21.77zm-31.51-217.53c43.24 20.55 75.86 46.03 101.51 70.27-32.46-21.84-79.03-45.91-108.17-59 1.28-4.21 2.55-8.41 3.8-12.62.95.44 1.91.89 2.86 1.35z"/></g><path d="M809.048 568.257c-20.817 0-42.982-4.722-66.137-14.112-24.011-9.737-49.137-24.49-74.681-43.849-41.36-31.344-70.553-64.886-73.535-68.359-77.248-10.875-277.786-38.533-284.243-36.968-1.178.294-121.853 27.965-212.584-5.03-49.45-17.981-73.227-56.396-84.466-85.454-12.31-31.827-16.489-70.2-11.179-102.646C12.677 147.916 43.52 82.953 56.161 70.302c14.181-13.47 58.159-27.139 69.292-23.515.618.2 1.117.445 1.519.715 2.096-10.945 8.861-37.373 26.319-46.098 4.442-2.224 8.781-1.782 12.218 1.239 8.896 7.822 11.834 33.007-1.599 71.679 7.341 20.424-.388 38.363-10.158 61.041-6.365 14.772-13.58 31.517-17.562 51.828-2.561 13.051-10.352 52.765 5.085 71.896 5.673 7.03 14.068 10.702 24.953 10.911 16.21.313 40.247-5.445 70.679-12.736 57.65-13.812 136.599-32.725 225.852-25.621 14.428 1.148 28.769 2.956 42.622 5.372a454.887 454.887 0 0 1 17.228 3.338c57.076 12.118 106.4 33.533 150.789 65.469 37.491 26.973 63.519 55.725 84.434 78.827 20.682 22.845 35.625 39.352 49.378 39.352 8.014 0 14.45-2.846 19.131-8.457 9.382-11.248 11.632-33.441 6.335-62.493-3.545-19.459-7.526-33.967-10.725-45.624-4.844-17.655-7.513-27.381-2.914-34.565 1.578-2.469 4.455-4.056 7.895-4.354 3.761-.335 11.224.687 21.164 10.159-6.363-17.208-8.799-31.329-7.245-42.026 1.553-10.68 6.688-14.735 8.824-15.983 7.617-4.445 17.084.844 22.965 8.526 1.34-6.487 6.477-17.365 15.923-18.179 6.92-.601 18.894 6.74 23.898 24.157 2.679-5.017 6.641-7.604 11.341-7.306 8.227.496 19.016 10.728 24.575 32.466 7.481 29.223 11.326 76.297 12.431 110.606.772 24.134-.762 70.831-19.713 112.431-21.82 47.896-60.09 76.034-113.746 83.632l-.14-.99.14.99a130.403 130.403 0 0 1-18.301 1.268zM311.132 402.95c20.748 0 273.196 35.508 284.216 37.06a.995.995 0 0 1 .625.346c.297.352 30.204 35.568 73.496 68.371 25.4 19.246 50.369 33.906 74.213 43.573 29.739 12.059 57.795 16.335 83.387 12.71 52.936-7.495 90.688-35.246 112.207-82.48 18.783-41.229 20.301-87.579 19.534-111.537-1.101-34.204-4.928-81.108-12.369-110.175-5.31-20.763-15.256-30.513-22.758-30.966-4.524-.296-8.275 2.798-10.551 8.65a.992.992 0 0 1-1.004.635 1 1 0 0 1-.903-.772c-4.029-17.453-15.662-25.947-22.491-25.368-8.894.767-14.208 12.876-14.445 18.883a.999.999 0 0 1-1.839.503c-5.231-8.105-14.801-14.063-21.766-9.999-3.095 1.809-17.594 13.205 1.006 60.067a1.001 1.001 0 0 1-1.667 1.045c-11.06-12.077-19.108-13.329-22.918-12.996-2.816.244-5.142 1.497-6.382 3.438-4.12 6.437-1.535 15.857 3.158 32.959 3.209 11.695 7.202 26.249 10.764 45.794 5.405 29.646 3.002 52.423-6.768 64.134-5.079 6.089-12.032 9.176-20.667 9.176-14.641 0-29.833-16.782-50.861-40.01-20.851-23.032-46.8-51.696-84.119-78.545-44.159-31.771-93.236-53.077-150.038-65.137a451.378 451.378 0 0 0-17.154-3.323c-13.793-2.405-28.071-4.205-42.438-5.349-88.932-7.08-167.708 11.792-225.227 25.572-30.572 7.324-54.728 13.085-71.184 12.791-11.503-.222-20.409-4.143-26.471-11.655-16.022-19.857-8.096-60.261-5.491-73.537 4.024-20.521 11.283-37.37 17.688-52.235 9.648-22.394 17.269-40.081 9.995-59.897a.994.994 0 0 1-.005-.674c6.11-17.503 9.283-33.638 9.177-46.661-.09-10.967-2.602-19.421-6.893-23.193-2.826-2.485-6.284-2.814-10.002-.952-4.547 2.271-19.833 12.369-25.651 46.911-.081.479-.494.83-.979.834-.45-.024-.902-.341-.991-.819-.042-.228-.17-.923-1.73-1.431-10.471-3.409-53.807 10.25-67.278 23.045C45.091 84.21 14.587 148.627 4.195 212.161c-5.254 32.111-1.116 70.094 11.071 101.604 11.089 28.672 34.54 66.57 83.284 84.296 90.181 32.793 210.244 5.262 211.416 4.97.213-.055.605-.081 1.166-.081z" fill="#112c41"/><path d="M883.272 276.539h-.025a1 1 0 0 1-.975-1.024c.468-19.128-2.194-30.821-9.823-43.146a1 1 0 1 1 1.7-1.053c7.757 12.53 10.595 24.937 10.122 44.247a1 1 0 0 1-.999.976zm32.819 8.944a1 1 0 0 1-.984-1.183c2.361-12.738 1.091-27.753-3.882-45.9a1 1 0 1 1 1.929-.529c5.054 18.446 6.336 33.753 3.92 46.795-.09.481-.511.817-.983.817zm-8.402 41.345a.995.995 0 0 1-.822-.43c-13.396-19.286-40.536-22.533-40.808-22.563a1 1 0 0 1-.769-.521c-.038-.07-3.921-7.178-15.278-19.835a1 1 0 1 1 1.488-1.336c10.052 11.204 14.269 18.006 15.296 19.772 3.894.56 28.849 4.82 41.713 23.342a1 1 0 0 1-.82 1.571z" fill="#112c41"/><path d="M932.686 295.525a.994.994 0 0 1-.589-.192c-14.372-10.506-44.597-20.995-64.993-19.269a1 1 0 1 1-.17-1.992c20.829-1.771 51.685 8.932 66.343 19.646a1 1 0 0 1-.591 1.807z" fill="#112c41"/><path d="M90.899 65.937C87.279 82.938 79.9 96.494 69.808 95.612c-8.942-.782-14.478-15.606-15.446-32.968-1.343-24.1 11.009-30.66 21.091-29.675C88.7 34.263 95.142 46.008 90.899 65.937z" fill="#dedffe"/><path d="M70.717 96.652c-.331 0-.662-.015-.996-.044-6.707-.586-15.015-9.818-16.357-33.908-.649-11.656 1.882-20.574 7.321-25.79 3.898-3.74 9.18-5.486 14.866-4.936 5.708.558 10.326 3.04 13.355 7.179 4.418 6.037 5.446 15.371 2.971 26.992-4.094 19.227-11.955 30.507-21.16 30.507zm2.836-62.775c-3.122 0-7.631.78-11.483 4.476-5.004 4.8-7.324 13.18-6.708 24.235 1.029 18.487 6.87 31.357 14.534 32.027 10.066.882 16.93-14.346 20.026-28.887 2.353-11.049 1.443-19.83-2.629-25.395-2.722-3.719-6.738-5.862-11.936-6.37a19.02 19.02 0 0 0-1.804-.086z" fill="#112c41"/><path d="M124.758 61.986c-3.836 18.015-11.655 32.381-22.349 31.446-9.475-.828-15.342-16.538-16.367-34.935-1.423-25.538 11.666-32.49 22.349-31.446 14.037 1.371 20.863 13.817 16.367 34.935z" fill="#dedffe"/><path d="M103.371 94.474c-.348 0-.697-.015-1.049-.046-9.328-.816-16.11-14.898-17.279-35.876-.687-12.333 1.989-21.768 7.739-27.282 4.118-3.949 9.695-5.806 15.706-5.214 6.031.589 10.91 3.211 14.109 7.583 4.672 6.384 5.757 16.258 3.139 28.555-4.332 20.345-12.641 32.28-22.365 32.28zm3.006-66.521c-3.319 0-8.113.83-12.21 4.76-5.316 5.099-7.781 13.995-7.127 25.728 1.093 19.62 7.304 33.282 15.456 33.995 9.079.791 17.028-10.669 21.284-30.658 2.497-11.725 1.53-21.047-2.796-26.957-2.895-3.955-7.165-6.234-12.69-6.774a19.865 19.865 0 0 0-1.917-.094z" fill="#112c41"/><path d="M165.786 93.741c3.312-33.945-47.982-53.89-57.126-35.601-5.795 11.591 5.795 26.493 17.386 36.428-15.73 10.763-23.6 24.915-27.899 39.351" fill="#dedffe"/><path d="M98.147 134.919a.999.999 0 0 1-.959-1.285c5.035-16.907 13.95-29.728 27.234-39.153-6.814-6.033-23.613-22.877-16.658-36.787 3.562-7.123 13.292-9.382 25.39-5.896 9.02 2.599 17.738 7.999 23.918 14.818 7.302 8.058 10.659 17.471 9.708 27.223a1 1 0 1 1-1.99-.194c1.889-19.366-15.174-35.024-32.189-39.926-11.113-3.201-19.945-1.337-23.047 4.869-1.686 3.371-5.431 15.874 17.143 35.221a1.003 1.003 0 0 1-.086 1.585c-13.477 9.222-22.474 21.917-27.505 38.811-.13.434-.528.714-.959.714z" fill="#112c41"/><path d="M649.188 422.069c-.27 1.77-.56 3.54-.88 5.29-15.25 83.97-88.74 147.64-177.1 147.64-83.15 0-153.13-56.38-173.79-133-4.05-14.98-6.21-30.74-6.21-47 0-7.52.46-14.93 1.36-22.21z" fill="#dedffe"/><path d="M648.309 427.359c-15.25 83.97-88.74 147.64-177.1 147.64-83.15 0-153.13-56.38-173.79-133 33.79 72 130.066 134.84 211.79 95 80-39 89-86 98-95s41.09-14.67 41.09-14.67 0 .01.01.03z" fill="#cbc8ff"/><path d="M471.208 575.999c-99.804 0-181-81.196-181-181 0-7.465.459-14.979 1.364-22.333a.994.994 0 0 1 1.115-.87 1 1 0 0 1 .871 1.114 181.334 181.334 0 0 0-1.35 22.089c0 98.701 80.299 179 179 179 43.105 0 84.751-15.54 117.266-43.757 32.191-27.937 53.401-66.406 59.723-108.322a1.008 1.008 0 0 1 1.138-.84c.546.083.922.592.84 1.139-6.393 42.386-27.84 81.286-60.39 109.534-32.878 28.533-74.99 44.246-118.577 44.246z" fill="#112c41"/><path d="M433.76 572.098a1 1 0 0 1-.938-.653c-13.702-37.047-15.169-100.762-3.83-166.281 12.333-71.254 37.171-133.031 64.823-161.224a1 1 0 1 1 1.428 1.4c-27.383 27.918-52.014 89.289-64.28 160.165-11.283 65.191-9.852 128.51 3.735 165.246a1 1 0 0 1-.938 1.347z" fill="#112c41"/><path d="M527.338 254.249c-1.78 11.18-19.4 17.67-39.35 14.5-19.95-3.18-34.68-14.81-32.91-26 .65-4.07 3.4-7.52 7.6-10.11 13.95 1.11 28.14 2.85 42.53 5.36 5.86 1.02 11.59 2.13 17.19 3.33 3.76 4.01 5.641 8.5 4.94 12.92z" fill="#112c41"/><path d="M497.879 270.543a64.14 64.14 0 0 1-10.047-.807c-20.457-3.261-35.593-15.438-33.741-27.144.676-4.233 3.464-7.97 8.063-10.806.181-.111.389-.162.604-.146 14.428 1.148 28.769 2.956 42.622 5.372a454.887 454.887 0 0 1 17.228 3.338.993.993 0 0 1 .52.294c4.129 4.402 5.927 9.161 5.198 13.76v.001c-1.551 9.741-14.389 16.138-30.447 16.138zm-34.95-36.881c-3.924 2.496-6.294 5.688-6.863 9.244-1.679 10.617 12.712 21.768 32.08 24.855 19.376 3.074 36.515-3.055 38.205-13.67.616-3.89-.929-7.982-4.471-11.851a450.815 450.815 0 0 0-16.843-3.257c-13.688-2.386-27.853-4.176-42.108-5.321zm64.409 20.587h.01z" fill="#112c41"/><path d="M423.033 470.107c-29.518-5.715-49.386-33.568-45.164-63.336a504.967 504.967 0 0 1 9.657-49.881c7.193-29.193 36.02-47.618 65.539-41.903 31.457 6.09 51.567 37.12 44.214 68.306a505.096 505.096 0 0 0-7.734 39.946c-4.818 31.676-35.056 52.958-66.512 46.868z" fill="#b2b0f7"/><path d="M433.928 472.159c-3.677 0-7.385-.354-11.085-1.07-30.075-5.822-50.265-34.136-45.964-64.458a508.134 508.134 0 0 1 9.677-49.979c7.327-29.735 36.625-48.47 66.699-42.645 15.5 3 28.758 11.954 37.33 25.21 8.56 13.237 11.283 28.973 7.667 44.307a506.239 506.239 0 0 0-7.718 39.866c-2.369 15.575-10.768 29.156-23.649 38.242-9.821 6.927-21.231 10.527-32.957 10.527zm-10.705-3.034c14.961 2.895 30.059-.345 42.51-9.129 12.432-8.769 20.539-21.877 22.825-36.908a507.878 507.878 0 0 1 7.749-40.024c3.489-14.799.861-29.985-7.401-42.762-8.274-12.795-21.069-21.437-36.03-24.333-29.034-5.62-57.307 12.46-64.377 41.16a506.295 506.295 0 0 0-9.639 49.782c-4.152 29.266 15.335 56.594 44.363 62.214zM124.145 177.159c-1.499 0-3.103-.04-4.817-.121-11.654-.55-26.726-2.963-42.438-6.793-15.713-3.831-30.204-8.625-40.803-13.499-11.346-5.218-16.646-9.72-15.754-13.382a1 1 0 0 1 1.943.475c-.461 1.893 3.144 5.8 14.646 11.09 10.487 4.822 24.849 9.572 40.441 13.373 15.591 3.801 30.528 6.194 42.058 6.738 12.643.599 17.646-1.214 18.106-3.105a1.001 1.001 0 0 1 1.943.473c-.768 3.158-5.918 4.751-15.325 4.751zm755.003 193.979c-23.856.001-44.628-2.922-45.022-9.478a1 1 0 0 1 .938-1.058 1.008 1.008 0 0 1 1.058.938c.264 4.373 22.384 9.396 61.691 7.029 16.513-.993 31.956-3.137 43.483-6.036 12.654-3.184 17.038-6.394 16.921-8.337a1 1 0 0 1 1.996-.12c.227 3.765-5.974 7.262-18.429 10.396-11.645 2.929-27.218 5.093-43.852 6.093-6.266.379-12.629.573-18.784.573z" fill="#112c41"/><path d="M227.565 383.683c-32.836 0-61.773-3.361-86.48-10.069-35.657-9.683-62.727-26.354-80.459-49.554-15.849-20.735-24.098-46.368-24.52-76.187-.371-26.279 5.585-55.85 17.224-85.515a.999.999 0 1 1 1.861.731c-11.545 29.426-17.454 58.733-17.086 84.756.415 29.38 8.526 54.613 24.109 75 17.459 22.843 44.171 39.273 79.395 48.838 39.4 10.698 89.696 12.826 149.491 6.322a1 1 0 0 1 .216 1.989c-22.622 2.46-43.9 3.689-63.751 3.689z" fill="#112c41"/><path d="M80.739 368.169c-.25.15-.51.29-.771.42-8.729 4.52-18.68 5-28.3 2.12-20.16-18.79-33.23-42.61-41.04-67.12 1.28-8.52 4.62-16.21 9.83-22.15 7.78 26.78 21.22 50.18 39.75 70.56 5.531 6.09 12.491 11.46 20.531 16.17z" fill="#dedffe"/><path d="M80.739 368.169c-8.04-4.71-15-10.08-20.53-16.17-18.53-20.38-31.97-43.78-39.75-70.56 2.86-3.26 6.28-5.98 10.24-8.03 21-10.88 49.05 1.62 62.66 27.91 13.43 25.95 7.76 55.66-12.62 66.85z" fill="#fff"/><path d="M63.63 373.527c-3.997 0-8.103-.618-12.249-1.859a.997.997 0 0 1-.395-.227C32.31 354.034 18.41 331.307 9.675 303.893a.99.99 0 0 1-.036-.452c2.097-13.962 9.605-25.231 20.6-30.919 10.43-5.404 22.849-5.406 34.968-.01 12.04 5.363 22.353 15.431 29.04 28.347 13.833 26.732 7.635 57.514-13.819 68.618-5.202 2.693-10.879 4.05-16.798 4.05zm-11.451-3.709c9.703 2.85 19.148 2.119 27.33-2.116 20.474-10.598 26.289-40.171 12.961-65.923-6.479-12.515-16.45-22.26-28.077-27.439-11.551-5.147-23.354-5.162-33.234-.042-10.359 5.359-17.459 15.996-19.507 29.21 8.608 26.9 22.241 49.207 40.527 66.31zm756.903 156.725c-15.481.001-31.678-3.031-48.166-9.096-37.586-13.824-76.094-42.686-114.456-85.783a1 1 0 1 1 1.494-1.33c38.14 42.85 76.378 71.526 113.652 85.236 32.448 11.933 63.727 11.962 90.456.078 24.408-10.853 44.122-30.916 57.009-58.022 12.8-26.923 17.691-58.223 14.143-90.518a1.001 1.001 0 0 1 .885-1.104 1.005 1.005 0 0 1 1.104.885c3.588 32.664-1.365 64.337-14.325 91.596-13.095 27.543-33.152 47.941-58.002 58.99-13.595 6.046-28.338 9.068-43.794 9.068z" fill="#112c41"/><path d="M900.108 535.919c-18.34 14.8-42.13 25.73-72.9 30.08-5.99.85-11.98 1.26-17.98 1.27h-.01c-.69-.97-1.34-1.98-1.95-3.03-3.92-6.79-5.43-14.4-4.8-22.06 13.68 1.18 27.66.91 41.74-1.18 21.35-3.16 38.88-11.54 53.28-23.3 2.381 5.77 3.21 11.99 2.62 18.22z" fill="#dedffe"/><path d="M897.488 517.699c-14.4 11.76-31.93 20.14-53.28 23.3-14.08 2.09-28.06 2.36-41.74 1.18 1.25-15.44 11.17-31.06 27.43-40.45 24.33-14.05 53.63-8.83 65.46 11.65.81 1.41 1.52 2.85 2.13 4.32z" fill="#fff"/><path d="M809.228 568.269c-.324 0-.637-.156-.825-.42a40.242 40.242 0 0 1-2-3.108c-5.873-10.166-6.695-22.422-2.317-34.512 4.355-12.028 13.345-22.457 25.312-29.366 24.762-14.298 54.74-8.907 66.826 12.017 3.974 6.884 5.661 14.883 4.88 23.135a.998.998 0 0 1-.368.684c-19.855 16.022-44.546 26.214-73.388 30.292a130.842 130.842 0 0 1-18.119 1.279l-.001-.001zm49.269-73.412c-9.27 0-19.041 2.507-28.099 7.738-11.56 6.673-20.236 16.729-24.431 28.314-4.174 11.526-3.404 23.185 2.167 32.829.501.863 1.04 1.712 1.604 2.528a128.678 128.678 0 0 0 17.33-1.258c28.32-4.004 52.569-13.963 72.083-29.603.646-7.687-.961-15.122-4.658-21.527-7.146-12.37-20.903-19.021-35.996-19.021zm41.611 41.062h.01zM441.173 399.821c-2.485 0-5.006-.256-7.515-.774-9.117-1.887-16.96-7.034-21.519-14.121-3.609-5.612-4.839-12.038-3.461-18.095 1.458-6.411 3.015-11.853 4.625-16.174a1.006 1.006 0 0 1 1.286-.588 1 1 0 0 1 .588 1.287c-1.58 4.237-3.11 9.594-4.549 15.918-1.257 5.528-.123 11.412 3.193 16.569 4.27 6.639 11.647 11.466 20.242 13.244 8.602 1.781 17.343.286 23.986-4.099 5.144-3.395 8.593-8.312 9.714-13.848 1.397-6.9 2.539-11.935 3.391-14.961a.999.999 0 1 1 1.924.541c-.838 2.979-1.967 7.965-3.355 14.816-1.227 6.061-4.982 11.431-10.573 15.121-5.133 3.39-11.429 5.164-17.977 5.164zm-14.964 31.178a1.03 1.03 0 0 1-.25-.031l-21.512-5.527a1.001 1.001 0 0 1 .498-1.938l21.512 5.527a1.001 1.001 0 0 1-.248 1.969z" fill="#112c41"/><circle cx="413.301" cy="355.1" fill="#fff" r="10.5"/><path d="m413.307 366.6-.189-.001a11.428 11.428 0 0 1-8.077-3.497c-2.137-2.206-3.287-5.113-3.238-8.185s1.291-5.94 3.497-8.077a11.385 11.385 0 0 1 8.185-3.238 11.428 11.428 0 0 1 8.077 3.497c2.137 2.206 3.287 5.113 3.238 8.185s-1.291 5.94-3.497 8.077a11.422 11.422 0 0 1-7.996 3.239zm-.011-20.999c-2.479 0-4.82.946-6.605 2.676a9.44 9.44 0 0 0-2.889 6.672 9.439 9.439 0 0 0 2.675 6.762 9.437 9.437 0 0 0 6.672 2.889c2.556.041 4.939-.909 6.761-2.675s2.849-4.135 2.889-6.672a9.439 9.439 0 0 0-2.675-6.762 9.437 9.437 0 0 0-6.672-2.889l-.156-.001zm10.504 9.667h.01z" fill="#112c41"/><circle cx="471.087" cy="369.022" fill="#fff" r="10.5"/><path d="m471.093 380.521-.189-.001a11.428 11.428 0 0 1-8.077-3.497 11.422 11.422 0 0 1-3.238-8.184c.101-6.341 5.365-11.413 11.681-11.316 6.341.102 11.417 5.342 11.316 11.682a11.423 11.423 0 0 1-3.498 8.077 11.421 11.421 0 0 1-7.995 3.239zm-.008-20.999c-5.169 0-9.415 4.162-9.497 9.349a9.438 9.438 0 0 0 2.675 6.761 9.435 9.435 0 0 0 6.672 2.889c2.56.066 4.939-.909 6.761-2.675a9.435 9.435 0 0 0 2.889-6.672l1 .016-1-.016c.083-5.237-4.11-9.566-9.348-9.65-.05-.002-.101-.002-.152-.002z" fill="#112c41"/><circle cx="404.188" cy="424.964" fill="#fff" r="10.5"/><path d="m404.19 436.464-.185-.001c-6.341-.102-11.417-5.342-11.316-11.682.1-6.278 5.24-11.317 11.497-11.317l.185.001c6.341.102 11.417 5.342 11.316 11.682-.1 6.278-5.24 11.317-11.497 11.317zm-.003-21c-5.169 0-9.415 4.162-9.497 9.349-.083 5.237 4.11 9.566 9.348 9.65l.152.001c5.169.001 9.415-4.162 9.497-9.349.083-5.237-4.11-9.566-9.348-9.65l-.152-.001zm29.573 156.634a1 1 0 0 1-.938-.653c-13.702-37.047-15.169-100.762-3.83-166.281 3.646-21.067 8.43-41.54 14.219-60.851a1 1 0 1 1 1.916.574c-5.766 19.234-10.532 39.629-14.164 60.618-11.283 65.191-9.852 128.51 3.735 165.246a1 1 0 0 1-.938 1.347z" fill="#112c41"/><circle cx="443.708" cy="347.499" fill="#fff" r="10.5"/><path d="m443.714 358.998-.189-.001a11.428 11.428 0 0 1-8.077-3.497c-2.137-2.206-3.287-5.112-3.238-8.184s1.291-5.94 3.497-8.078a11.385 11.385 0 0 1 8.185-3.238 11.428 11.428 0 0 1 8.077 3.497c2.137 2.206 3.287 5.113 3.238 8.185s-1.291 5.94-3.497 8.077a11.417 11.417 0 0 1-7.996 3.239zm-.01-20.999c-2.479 0-4.82.946-6.605 2.676a9.441 9.441 0 0 0-2.889 6.673 9.438 9.438 0 0 0 2.675 6.761 9.435 9.435 0 0 0 6.672 2.889c2.572.049 4.939-.909 6.761-2.675s2.849-4.135 2.889-6.672a9.439 9.439 0 0 0-2.675-6.762A9.437 9.437 0 0 0 443.86 338l-.156-.001zm10.503 9.667h.01z" fill="#112c41"/><path d="M344.258 285.449c-36.35 4.07-67.62-8.7-69.83-28.52-.28-2.53-.08-5.05.56-7.52 36.84-8.16 79.76-15.94 126.69-17.86 2.43 3.24 3.95 6.81 4.38 10.65 2.221 19.82-25.45 39.18-61.8 43.25z" fill="#fff"/><path d="M330.807 287.208c-12.769 0-24.745-2.092-34.644-6.135-13.545-5.532-21.617-14.067-22.728-24.034a21.78 21.78 0 0 1 .585-7.882c.095-.363.385-.645.752-.726 30.175-6.683 76.155-15.808 126.865-17.882a.99.99 0 0 1 .841.399c2.595 3.46 4.133 7.207 4.574 11.138 1.117 9.966-4.87 20.074-16.856 28.462-11.807 8.263-28.081 13.906-45.826 15.894-4.58.513-9.121.766-13.563.766zm-54.994-36.958a19.67 19.67 0 0 0-.39 6.568c1.026 9.205 8.661 17.161 21.497 22.403 13.038 5.324 29.811 7.185 47.228 5.232 17.418-1.949 33.364-7.47 44.901-15.544 11.359-7.948 17.047-17.396 16.016-26.601-.383-3.414-1.687-6.688-3.877-9.739-50.004 2.096-95.373 11.051-125.375 17.681z" fill="#112c41"/><path d="M702.388 330.129c-.06 3.82-.96 7.38-2.79 10.55-9.97 17.27-43.73 16.44-75.41-1.84-31.68-18.29-49.27-47.12-39.3-64.39 2.65-4.59 6.98-7.9 12.5-9.94 4.81 2 9.49 4.07 14.06 6.2.95.44 1.91.89 2.86 1.35 36.03 17.12 64.69 37.67 88.08 58.07z" fill="#fff"/><path d="M671.503 354.044c-14.143 0-31.286-4.802-47.814-14.339-32.104-18.535-49.897-48.033-39.666-65.757 2.711-4.695 7.091-8.187 13.02-10.378a1.01 1.01 0 0 1 .73.015 368.17 368.17 0 0 1 14.099 6.218c.953.44 1.918.894 2.873 1.355 31.859 15.139 60.745 34.183 88.302 58.217.222.193.347.476.343.77-.064 4.072-1.048 7.784-2.924 11.034-4.964 8.595-15.631 12.865-28.963 12.865zm-74.133-88.46c-5.293 2.031-9.2 5.18-11.615 9.364-9.681 16.769 7.785 45.041 38.934 63.024 31.153 17.976 64.369 18.967 74.044 2.206 1.634-2.829 2.522-6.059 2.645-9.604-27.31-23.767-55.938-42.616-87.498-57.612a367.898 367.898 0 0 0-16.51-7.378z" fill="#112c41"/></svg></g><g transform="translate(1300.0 551.6666666666667) rotate(0.0 204.16666666666674 173.33333333333331) scale(1.6704165814413316 1.674281427389312)"><svg width="244.45" height="207.054" viewBox="0 0 244.45 207.054"><path d="M211.168 124.739a4 4 0 0 1-3.811-5.22l28.281-88.334a4 4 0 1 1 7.619 2.439l-28.281 88.334a4 4 0 0 1-3.808 2.781z" fill="#dedffe"/><path d="M211.168 125.738a5.006 5.006 0 0 1-4.763-6.525l28.281-88.334a4.966 4.966 0 0 1 2.473-2.922 4.966 4.966 0 0 1 3.814-.315 5.005 5.005 0 0 1 3.236 6.286l-28.281 88.334a4.982 4.982 0 0 1-4.76 3.476zm28.276-96.336c-.471 0-.938.112-1.368.334a2.98 2.98 0 0 0-1.484 1.753l-28.281 88.334a3.004 3.004 0 0 0 2.859 3.916 2.99 2.99 0 0 0 2.856-2.086l28.281-88.334a3.004 3.004 0 0 0-2.863-3.917z" fill="#112c41"/><path d="M66.429 98.513c-1.25 7.86-3.7 15.08-7.01 21.27-7.81 14.62-20.35 23.49-32.87 21.5-16.03-2.55-26.57-22.01-25.47-45.14.12-2.59.39-5.23.82-7.89 4.2-26.46 22.06-45.6 39.88-42.77s28.86 26.58 24.65 53.03z" fill="#fff"/><path d="M30.077 142.562a23.47 23.47 0 0 1-3.686-.291C9.998 139.663-1.068 120.244.08 96.096a71.03 71.03 0 0 1 .832-8.002C2.973 75.107 8.332 63.425 16 55.202c7.766-8.327 16.974-12.137 25.936-10.706 8.958 1.422 16.535 7.895 21.336 18.224 4.74 10.196 6.211 22.964 4.145 35.95-1.244 7.817-3.637 15.08-7.116 21.585-7.513 14.064-18.831 22.307-30.224 22.307zm8.168-96.357c-7.205 0-14.472 3.596-20.783 10.361C10.063 64.5 4.887 75.81 2.887 88.41a68.979 68.979 0 0 0-.809 7.779c-1.099 23.112 9.259 41.661 24.628 44.106 11.723 1.863 23.921-6.178 31.831-20.983 3.373-6.309 5.696-13.359 6.904-20.957 2.005-12.598.591-24.954-3.983-34.793-4.512-9.707-11.557-15.776-19.836-17.092a21.641 21.641 0 0 0-3.377-.265z" fill="#112c41"/><path d="M59.419 119.783c-7.81 14.62-20.35 23.49-32.87 21.5-16.03-2.55-26.57-22.01-25.47-45.14 3.37 20.26 18.36 41.39 58.34 23.64z" fill="#dedffe"/><path d="M30.036 142.554a23.14 23.14 0 0 1-3.647-.288c-8.958-1.424-16.535-7.896-21.335-18.224C.315 113.848-1.157 101.08.908 88.092c4.287-26.954 22.688-46.514 41.03-43.597 8.958 1.424 16.535 7.896 21.335 18.224 4.739 10.194 6.211 22.962 4.146 35.95l-.988-.157.988.157c-4.003 25.165-20.314 43.885-37.383 43.885zm8.224-96.35c-16.09 0-31.53 18.017-35.376 42.202-2.004 12.6-.589 24.956 3.984 34.793 4.511 9.705 11.556 15.774 19.836 17.092 17.25 2.739 34.627-16.069 38.74-41.937 2.004-12.6.589-24.956-3.983-34.793-4.511-9.705-11.556-15.774-19.836-17.092a21.604 21.604 0 0 0-3.365-.265z" fill="#112c41"/><path d="M220.529 112.043c-.49 5.76-1.47 11.55-2.98 17.32-.34 1.29-.7 2.57-1.08 3.84-16.39 54.19-73.6 84.82-127.78 68.43-.75-.23-1.5-.46-2.24-.71-.52-.17-1.04-.34-1.55-.52-.31-.1-.63-.21-.94-.33-.45-.16-.9-.32-1.35-.49-.08-.02-.17-.05-.25-.09-1.15-.43-2.29-.88-3.42-1.35-.27-.1-.55-.22-.82-.35-.41-.17-.82-.34-1.22-.53a74.79 74.79 0 0 1-4.06-1.89c-.51-.25-1.03-.51-1.54-.77-.35-.18-.7-.36-1.05-.56-.38-.19-.75-.39-1.12-.6-.65-.34-1.29-.7-1.93-1.07-.09-.06-.17-.11-.26-.16-40.25-23.28-60.73-71.94-46.68-118.37 4.06-13.42 10.63-25.4 19.03-35.57 20.31-24.6 51.36-38.66 83.73-37.17 8.31.38 16.7 1.79 25.02 4.31 26.46 8.01 47.31 25.76 59.8 48.13 9.77 17.48 14.44 37.8 12.69 58.5z" fill="#dedffe"/><path d="M220.889 103.483c0 2.84-.12 5.7-.36 8.56a108.548 108.548 0 0 1-2.98 17.32c-.34 1.29-.7 2.57-1.08 3.84-16.39 54.19-73.6 84.82-127.78 68.43-.75-.23-1.5-.46-2.24-.71-.52-.17-1.04-.34-1.55-.52-.31-.1-.63-.21-.94-.33-.45-.16-.9-.32-1.35-.49-.08-.02-.17-.05-.25-.09-1.15-.43-2.29-.88-3.42-1.35-.27-.1-.55-.22-.82-.35-.41-.17-.82-.34-1.22-.53a74.79 74.79 0 0 1-4.06-1.89c-.51-.25-1.03-.51-1.54-.77-.35-.18-.7-.36-1.05-.56-.38-.19-.75-.39-1.12-.6-.65-.34-1.29-.7-1.93-1.07-.09-.06-.17-.11-.26-.16 4.61 2.23 9.46 4.14 14.52 5.67 51.28 15.51 108.41-21.81 118.99-73.48 4.77-23.31 1.97-45.7-6.99-65.09 6.94-1.97 12.06-4.14 14.38-5.77.53.94 1.04 1.89 1.53 2.85.22.42.44.85.66 1.28 1.33 2.66 2.54 5.37 3.64 8.14.23.56.44 1.12.66 1.69.67 1.79 1.29 3.59 1.86 5.42.15.46.29.93.43 1.4.11.34.2.68.3 1.02.17.6.34 1.19.5 1.79.47 1.76.9 3.53 1.27 5.32.09.43.18.86.26 1.29.44 2.18.8 4.38 1.08 6.59.08.54.14 1.08.2 1.63.05.43.1.86.14 1.29.05.44.09.89.12 1.33.03.21.05.43.06.65.04.45.07.9.1 1.35.03.35.05.71.07 1.06.03.47.05.95.07 1.43l.03.58a102.85 102.85 0 0 1 .07 3.83z" fill="#cbc8ff"/><path d="M66.939 192.213c.09.05.17.1.26.16-.12-.07-.23-.13-.35-.2.03.01.06.03.09.04z" fill="#dedffe"/><path d="M207.839 53.543c-2.32 1.63-7.44 3.8-14.38 5.77-12.61-27.32-37.43-48.68-70.44-58.21 8.31.38 16.7 1.79 25.02 4.31 26.46 8.01 47.31 25.76 59.8 48.13z" fill="#cbc8ff"/><path d="M118.498 207.076c-10.069 0-20.193-1.485-30.103-4.483-26.461-8.005-48.222-25.835-61.273-50.206-13.051-24.372-15.83-52.367-7.825-78.829 16.524-54.625 74.41-85.62 129.035-69.097 26.462 8.005 48.222 25.835 61.273 50.206 13.051 24.372 15.83 52.367 7.825 78.829-8.005 26.461-25.835 48.222-50.207 61.272-15.245 8.164-31.908 12.308-48.725 12.308zm-.083-205.059c-43.574 0-83.951 28.311-97.205 72.121-7.85 25.95-5.125 53.404 7.674 77.305 12.799 23.9 34.139 41.387 60.089 49.236 25.951 7.851 53.405 5.126 77.305-7.673 23.901-12.799 41.387-34.139 49.237-60.09 7.85-25.95 5.125-53.404-7.673-77.305-12.799-23.9-34.139-41.387-60.089-49.236a101.22 101.22 0 0 0-29.338-4.358z" fill="#112c41"/><ellipse cx="133.47" cy="88.322" fill="#112c41" rx="9.104" ry="6.828" transform="matrix(.3405 -.9403 .9403 .3405 4.982 183.7464)"/><ellipse cx="50.226" cy="100.398" fill="#b2b0f7" rx="8.009" ry="12.121" transform="matrix(.4372 -.8994 .8994 .4372 -62.0273 101.675)"/><ellipse cx="142.589" cy="115.509" fill="#b2b0f7" rx="12.121" ry="8.009" transform="matrix(.9938 -.1112 .1112 .9938 -11.9615 16.574)"/><g fill="#112c41"><ellipse cx="64.813" cy="77.178" rx="6.828" ry="9.104" transform="matrix(.9999 -.0166 .0166 .9999 -1.2747 1.0887)"/><path d="M113.361 101.888c-3.487 11.999-12.666 20.074-21.976 18.63s-15.611-11.921-15.299-24.412z"/><path d="M93.542 121.684c-.769 0-1.54-.059-2.312-.178-9.686-1.502-16.476-12.194-16.145-25.426a1 1 0 0 1 1.152-.963l37.275 5.782a1 1 0 0 1 .807 1.267c-3.397 11.697-11.893 19.518-20.777 19.518zM77.075 97.271c.087 11.681 6.054 20.955 14.462 22.259 8.405 1.316 16.905-5.727 20.527-16.831z"/></g><path d="M84.456 116.822c3.619-3.728 9.924-5.031 15.97-2.842a17.757 17.757 0 0 1 4.207 2.189c-3.907 3.39-8.561 5.076-13.249 4.349-2.696-.418-5.14-1.594-7.241-3.361.102-.113.207-.225.313-.335z" fill="#b2b0f7"/><path d="M93.527 121.683c-.768 0-1.534-.059-2.296-.177-2.823-.438-5.424-1.644-7.731-3.583a1 1 0 0 1-.102-1.431c.111-.124.224-.246.34-.366h.001c3.974-4.094 10.818-5.334 17.028-3.086a18.74 18.74 0 0 1 4.444 2.313 1.002 1.002 0 0 1 .078 1.572c-3.588 3.112-7.691 4.758-11.762 4.758zm-7.883-4.619c1.8 1.31 3.778 2.138 5.893 2.466 3.832.592 7.836-.563 11.398-3.269a16.961 16.961 0 0 0-2.85-1.341c-5.241-1.9-10.947-1.028-14.441 2.144zm21.963-77.162a1 1 0 0 1-.891-1.452c8.081-15.944 18.214-29.712 27.108-36.827a1 1 0 0 1 1.249 1.562c-8.682 6.945-18.615 20.466-26.573 36.169a1 1 0 0 1-.893.548z" fill="#112c41"/><ellipse cx="109.449" cy="38.903" fill="#fff" rx="8.5" ry="11" transform="matrix(.1571 -.9876 .9876 .1571 53.8383 140.8833)"/><path d="M110.324 48.474c-.775 0-1.567-.061-2.367-.188-6.534-1.04-11.181-6.095-10.359-11.268.823-5.173 6.805-8.546 13.343-7.496 6.534 1.039 11.181 6.093 10.359 11.267-.722 4.539-5.421 7.685-10.976 7.685zm-1.774-17.143c-4.578 0-8.411 2.444-8.977 6.001-.649 4.084 3.252 8.111 8.698 8.979 5.45.863 10.404-1.752 11.053-5.837.65-4.084-3.252-8.111-8.698-8.978a13.312 13.312 0 0 0-2.076-.165zm11.762 9.3h.01z" fill="#112c41"/><path d="M219.549 130.363c1.27-4.93 2.19-9.98 2.76-15.12-.53 5.03-1.44 10.08-2.76 15.12z" fill="#dedffe"/><path d="M238.429 124.513c-4.2 26.45-22.06 45.6-39.88 42.77-8.2-1.31-14.97-7.04-19.47-15.44-5.28-9.83-7.45-23.32-5.18-37.59 3.9-24.59 19.61-42.86 36.1-43.05 1.26-.01 2.52.08 3.78.28 17.82 2.83 28.86 26.58 24.65 53.03z" fill="#fff"/><path d="M202.093 168.564c-1.236 0-2.471-.098-3.701-.293-8.215-1.312-15.386-6.979-20.195-15.955-5.572-10.375-7.499-24.306-5.286-38.22 3.938-24.824 19.876-43.694 37.076-43.893a24.89 24.89 0 0 1 3.948.293c8.958 1.422 16.535 7.895 21.336 18.224 4.74 10.196 6.211 22.964 4.145 35.95-2.062 12.986-7.421 24.667-15.089 32.89-6.7 7.185-14.474 11.004-22.234 11.004zm8.088-96.362-.174.001c-16.234.188-31.334 18.332-35.12 42.206-2.146 13.491-.297 26.963 5.073 36.96 4.507 8.414 11.165 13.715 18.747 14.927 8.281 1.316 16.859-2.271 24.158-10.1 7.399-7.936 12.576-19.243 14.576-31.841 2.005-12.598.591-24.954-3.983-34.793-4.512-9.707-11.557-15.776-19.836-17.092a22.155 22.155 0 0 0-3.441-.268z" fill="#112c41"/><path d="M238.429 124.513c-4.2 26.45-22.06 45.6-39.88 42.77-8.2-1.31-14.97-7.04-19.47-15.44 43.37 34.56 67.37-64.44 30.93-80.63 0 0-.01 0-.01-.01 1.26-.01 2.52.08 3.78.28 17.82 2.83 28.86 26.58 24.65 53.03z" fill="#dedffe"/><path d="M202.036 168.554a23.14 23.14 0 0 1-3.647-.288c-8.958-1.424-16.535-7.896-21.335-18.224-4.739-10.194-6.211-22.962-4.146-35.95 4.287-26.954 22.691-46.522 41.03-43.597 8.958 1.424 16.535 7.896 21.335 18.224 4.739 10.194 6.211 22.962 4.146 35.95l-.988-.157.988.157c-4.003 25.165-20.314 43.885-37.383 43.885zm8.224-96.35c-16.09 0-31.53 18.017-35.376 42.202-2.004 12.6-.589 24.956 3.984 34.793 4.511 9.705 11.556 15.774 19.836 17.092 17.252 2.744 34.626-16.069 38.74-41.937 2.004-12.6.589-24.956-3.983-34.793-4.511-9.705-11.556-15.774-19.836-17.092a21.604 21.604 0 0 0-3.365-.265z" fill="#112c41"/><path d="M228.149 122.653c-2.37 14.87-12.41 25.63-22.42 24.04-5.18-.82-9.34-4.78-11.82-10.48-2.33-5.32-3.19-12.15-2.04-19.33 2.36-14.87 12.4-25.64 22.42-24.04 1.55.25 3 .77 4.35 1.54 7.38 4.21 11.51 15.7 9.51 28.27z" fill="#b2b0f7"/><path d="M207.68 147.848a13.39 13.39 0 0 1-2.108-.167c-5.377-.852-9.846-4.782-12.581-11.068-2.5-5.708-3.25-12.771-2.11-19.888 1.172-7.386 4.224-14.034 8.594-18.72 4.47-4.794 9.789-6.975 14.972-6.149 1.646.266 3.222.823 4.687 1.658 7.916 4.516 12.029 16.562 10.003 29.297-2.289 14.36-11.65 25.037-21.457 25.037zm4.616-54.163c-3.925 0-7.897 1.973-11.358 5.684-4.101 4.397-6.971 10.674-8.082 17.672-1.08 6.742-.381 13.409 1.968 18.771 2.454 5.641 6.381 9.153 11.061 9.895 9.458 1.497 18.997-8.911 21.276-23.21 1.898-11.93-1.811-23.133-9.019-27.245a11.91 11.91 0 0 0-4.013-1.421 11.509 11.509 0 0 0-1.833-.146zm15.853 28.969h.01z" fill="#112c41"/><path d="M228.149 122.653c-2.37 14.87-12.41 25.63-22.42 24.04-5.18-.82-9.34-4.78-11.82-10.48 19.54 16.19 39.54-23.81 24.73-41.83 7.38 4.21 11.51 15.7 9.51 28.27z" fill="#9797f7"/><path d="M207.723 147.851c-.719 0-1.438-.057-2.156-.171-5.184-.824-9.561-4.55-12.322-10.492-2.701-5.81-3.541-13.077-2.366-20.464s4.229-14.035 8.598-18.72c4.469-4.793 9.782-6.977 14.97-6.152 5.184.824 9.56 4.55 12.322 10.492 2.7 5.81 3.541 13.077 2.366 20.464-1.175 7.387-4.229 14.035-8.598 18.72-3.851 4.129-8.331 6.323-12.814 6.323zm4.58-54.169c-3.928 0-7.901 1.974-11.364 5.686-4.101 4.397-6.972 10.673-8.084 17.671-1.113 6.998-.331 13.854 2.204 19.307 2.473 5.319 6.316 8.644 10.823 9.36 4.506.721 9.191-1.251 13.193-5.541 4.101-4.397 6.972-10.673 8.084-17.671 1.113-6.998.33-13.854-2.204-19.307-2.473-5.319-6.316-8.644-10.823-9.36a11.585 11.585 0 0 0-1.829-.145zm15.844 28.969h.01z" fill="#112c41"/></svg></g><g transform="translate(1930.0 661.6666666666667) rotate(0.0 306.66666666666674 322.5) scale(1.6734879490677586 1.6748026589115081)"><svg width="366.5" height="385.12" viewBox="0 0 366.5 385.12"><path d="M365 46.41v276c-6.61 18.95-78.55 35.99-190.93 48.29-2.97.32-5.97.65-9 .96-48.24 5.08-103.56 9.31-164.07 12.46v-276c207.91-10.84 354.43-34.27 364-61.71z" fill="#badcee"/><path d="M1 385.12a1.002 1.002 0 0 1-1-1v-276a1 1 0 0 1 .948-.999c211.493-11.026 354.021-34.986 363.108-61.04a1 1 0 0 1 1.944.329v276a.993.993 0 0 1-.056.329c-8.824 25.299-123.935 41.531-191.765 48.955l-1.93.209c-2.341.253-4.7.509-7.077.752-48.858 5.145-104.077 9.339-164.12 12.464L1 385.12zm1-276.051v273.997c59.6-3.117 114.425-7.289 162.966-12.4 2.376-.243 4.731-.498 7.068-.751l1.929-.209c114.289-12.509 183.505-29.803 190.037-47.47V50.282c-22.909 30.483-199.516 50.274-362 58.787z" fill="#112c41"/><path d="M365.5 43.55c0 .96-.17 1.91-.5 2.86-5.18 14.86-50.52 28.54-124 39.69V1c48.59 7.37 84.88 15.86 105.38 25.05 10.51 4.71 16.87 9.61 18.62 14.65.33.94.5 1.89.5 2.85z" fill="#6ecfea"/><path d="M241 87.1c-.238 0-.469-.085-.652-.241A1.004 1.004 0 0 1 240 86.1V1a1 1 0 0 1 1.15-.988c49.731 7.542 85.273 15.995 105.639 25.126 10.896 4.883 17.341 10.008 19.156 15.233a9.593 9.593 0 0 1 .555 3.179 9.687 9.687 0 0 1-.556 3.188c-6.513 18.688-71.458 32.258-124.794 40.351-.05.007-.1.011-.15.011zm1-84.936v82.771c73.927-11.292 117.254-25.081 122.056-38.855a7.595 7.595 0 0 0 .444-2.53c0-.833-.149-1.681-.443-2.52-1.628-4.688-7.712-9.419-18.086-14.068C325.927 17.977 290.95 9.634 242 2.164z" fill="#112c41"/><path d="M181.75 302.54c.08 18.95-1.54 43.3-7.68 68.16C123.75 376.21 65.31 380.77 1 384.12v-52.25c10.42 10.07 19.33 16.18 28 16.18 27.07 0 33.9-31.27 26.45-72.13-8.93-49.01-21.02-68.16-13.78-79.47 3.45-5.4 15.23-7.67 30.88 9.42-17.55-44.22-6.04-58.11-.58-61.3 7.73-4.51 17.78 2.06 23.11 10.32.23-5.82 5.5-18.99 15.36-19.84 6.74-.57 19.18 7.21 23.55 26.14 7.04-18.1 27.08-9.36 35.21 22.43 7.25 28.32 11.22 73.72 12.4 110.39.09 2.7.14 5.55.15 8.53z" fill="#6ecfea"/><path d="M181.75 302.54c.08 18.95-1.54 43.3-7.68 68.16-2.97.32-5.97.65-9 .96 8.63-23.24 13.67-47.63 16.68-69.12z" fill="#6ecfea"/><g fill="#fff"><path d="M174.081 371.7a1 1 0 0 1-.972-1.239c7.262-29.479 8.083-57.828 7.492-76.418-1.101-34.204-4.928-81.108-12.369-110.175-5.31-20.763-15.256-30.514-22.758-30.966-4.524-.299-8.275 2.798-10.551 8.65-.159.41-.568.684-1.004.635a1 1 0 0 1-.903-.772c-2.153-9.327-10.957-26.346-22.491-25.368-8.894.767-14.208 12.876-14.445 18.883a.999.999 0 0 1-1.839.503c-5.231-8.106-14.802-14.06-21.766-9.999-3.095 1.809-17.593 13.205 1.005 60.067a1.001 1.001 0 0 1-1.667 1.045C60.754 194.47 52.704 193.22 48.896 193.55c-2.815.244-5.142 1.497-6.382 3.438-4.12 6.437-1.535 15.857 3.158 32.959 3.209 11.694 7.202 26.249 10.764 45.793 5.405 29.646 3.001 52.424-6.768 64.135-5.079 6.089-12.032 9.176-20.667 9.176-8.174 0-16.756-4.923-28.695-16.462a1 1 0 1 1 1.39-1.437C13.227 342.295 21.393 347.05 29 347.05c8.013 0 14.45-2.846 19.13-8.457 9.383-11.248 11.633-33.442 6.336-62.494-3.545-19.459-7.526-33.966-10.725-45.623-4.844-17.655-7.513-27.381-2.914-34.565 1.578-2.469 4.455-4.056 7.895-4.354 3.757-.322 11.225.687 21.164 10.159-6.363-17.208-8.799-31.329-7.244-42.026 1.553-10.68 6.688-14.735 8.824-15.983 5.799-3.383 15.529-1.405 22.969 8.507 1.346-6.489 6.482-17.347 15.919-18.159 6.913-.602 18.893 6.74 23.898 24.157 2.679-5.017 6.637-7.579 11.341-7.307 11.417.689 20.569 16.803 24.575 32.467 7.481 29.223 11.326 76.297 12.431 110.606.595 18.716-.232 47.26-7.548 76.961a1 1 0 0 1-.97.761z"/><path d="M105.064 199.59h-.025a1 1 0 0 1-.975-1.024c.468-19.128-2.194-30.821-9.823-43.146a1 1 0 1 1 1.7-1.053c7.757 12.53 10.595 24.937 10.122 44.247a1 1 0 0 1-.999.976zm32.818 8.944a1 1 0 0 1-.984-1.183c2.361-12.738 1.091-27.753-3.882-45.9a1 1 0 1 1 1.929-.529c5.054 18.446 6.336 33.753 3.92 46.795-.09.481-.51.817-.983.817zm-8.402 41.344a.995.995 0 0 1-.822-.43c-13.396-19.286-40.536-22.533-40.808-22.563a1 1 0 0 1-.769-.521c-.038-.07-3.921-7.178-15.278-19.835a1 1 0 1 1 1.488-1.336c10.052 11.204 14.269 18.006 15.296 19.772 3.894.56 28.849 4.82 41.713 23.342a1 1 0 0 1-.82 1.571z"/><path d="M154.478 218.576a.994.994 0 0 1-.589-.192c-14.372-10.506-44.598-21.004-64.993-19.269a1 1 0 1 1-.17-1.992c20.828-1.771 51.685 8.932 66.343 19.646a1 1 0 0 1-.591 1.807zm-53.538 75.613c-23.856.001-44.628-2.922-45.022-9.478a1 1 0 0 1 1.996-.12c.264 4.372 22.384 9.393 61.691 7.029 16.513-.993 31.956-3.137 43.483-6.036 12.654-3.184 17.038-6.394 16.921-8.337a1 1 0 0 1 1.996-.12c.227 3.765-5.974 7.262-18.429 10.396-11.645 2.929-27.218 5.093-43.852 6.093-6.266.379-12.63.573-18.784.573z"/><path d="M135.359 375.6a1 1 0 0 1-.93-1.365c10.123-25.839 13.781-54.912 10.577-84.075a1.001 1.001 0 0 1 1.989-.219c3.239 29.484-.462 58.885-10.703 85.024a1.004 1.004 0 0 1-.933.635z"/></g><path d="M1 385.12a1.002 1.002 0 0 1-1-1v-276a1 1 0 0 1 .948-.999c211.493-11.026 354.021-34.986 363.108-61.04a1 1 0 0 1 1.944.329v276a.993.993 0 0 1-.056.329c-8.824 25.299-123.935 41.531-191.765 48.955l-1.93.209c-2.341.253-4.7.509-7.077.752-48.858 5.145-104.077 9.339-164.12 12.464L1 385.12zm1-276.051v273.997c59.6-3.117 114.425-7.289 162.966-12.4 2.376-.243 4.731-.498 7.068-.751l1.929-.209c114.289-12.509 183.505-29.803 190.037-47.47V50.282c-22.909 30.483-199.516 50.274-362 58.787z" fill="#112c41"/><path d="M352 108.275V288.81a5.696 5.696 0 0 1-3.241 5.135c-22.502 10.819-66.78 20.682-127.293 28.963-3.415.467-6.466-2.185-6.466-5.632V135.752a5.69 5.69 0 0 1 4.929-5.634c57.382-7.793 100.338-16.999 124.208-27.093 3.734-1.578 7.863 1.196 7.863 5.25z" fill="#6ecfea"/><path d="M220.693 323.961a6.7 6.7 0 0 1-4.403-1.651 6.68 6.68 0 0 1-2.29-5.033V135.752c0-3.328 2.491-6.177 5.794-6.625 57.869-7.858 100.731-17.203 123.953-27.022a6.612 6.612 0 0 1 6.253.586 6.685 6.685 0 0 1 3 5.584V288.81c0 2.555-1.495 4.925-3.807 6.037-22.047 10.601-66.167 20.646-127.591 29.053a6.782 6.782 0 0 1-.909.061zM346.34 103.574c-.609 0-1.223.123-1.813.373-23.717 10.028-65.592 19.168-124.463 27.163a4.705 4.705 0 0 0-4.063 4.643v181.524c0 1.352.585 2.637 1.605 3.526a4.7 4.7 0 0 0 3.726 1.114c61.22-8.378 105.134-18.361 126.996-28.873a4.67 4.67 0 0 0 2.674-4.234V108.275a4.69 4.69 0 0 0-2.104-3.917 4.614 4.614 0 0 0-2.558-.784z" fill="#fff"/><path d="M227.142 313.332a4.145 4.145 0 0 1-4.142-4.136V153.354a1 1 0 1 1 2 0v155.842a2.139 2.139 0 0 0 2.426 2.117c46.088-6.216 82.126-13.203 107.113-20.768a1 1 0 1 1 .58 1.914c-25.087 7.596-61.23 14.605-107.425 20.836a4.117 4.117 0 0 1-.552.037z" fill="#fff"/><path d="M241.002 289.05a2 2 0 0 1-1.986-2.251c3.207-25.372 13.817-45.079 27.03-50.205 7.257-2.814 14.779-1.167 21.754 4.766 8.656 7.365 16.122 9.544 22.19 6.477 13.239-6.692 19.306-36.84 16.23-80.646a2 2 0 0 1 1.855-2.135 2.006 2.006 0 0 1 2.135 1.855c3.241 46.145-3.472 76.941-18.416 84.495-5.254 2.656-14.131 3.596-26.586-6.999-5.87-4.993-11.831-6.367-17.715-4.083-11.863 4.602-21.483 23.042-24.508 46.978a2.002 2.002 0 0 1-1.983 1.748z" fill="#fff"/></svg></g><g transform="translate(450.0 210.0) rotate(0.0 360.0 333.33333333333337) scale(1.6822429906542056 1.6875500991435686)"><svg width="428" height="395.05" viewBox="0 0 428 395.05"><path d="M179 1v311.19H1V54.102c0-5.974 2.881-11.607 7.793-15.007C30.057 24.379 91.122 11.189 179 1z" fill="#6ecfea"/><path d="M179 313.19H1a1 1 0 0 1-1-1V54.102c0-6.348 3.074-12.266 8.224-15.829C29.206 23.752 88.219 10.519 178.885.007A1.002 1.002 0 0 1 180 1v311.19a1 1 0 0 1-1 1zm-177-2h176V2.123C88.296 12.576 29.989 25.642 9.362 39.918 4.752 43.108 2 48.411 2 54.102z" fill="#112c41"/><path d="M427 118.05v276c-67-2.54-128.93-6.35-183.65-11.16-44.6-3.92-84.4-8.52-118.23-13.64-1.45-.22-2.89-.44-4.32-.66C49.79 357.56 6.08 344.11 1 329.55v-276c10.5 30.09 185.73 55.37 426 64.5z" fill="#badcee"/><path d="m427 395.05-.038-.001c-66.162-2.508-127.968-6.264-183.699-11.162-44.496-3.91-84.294-8.503-118.292-13.648-1.452-.22-2.892-.439-4.323-.66-51.486-7.998-114.199-21.376-120.592-39.7A.998.998 0 0 1 0 329.55v-276a1 1 0 0 1 1.944-.329c10.084 28.9 180.917 54.552 425.094 63.83a1 1 0 0 1 .962.999v276c0 .271-.111.532-.306.721a1.005 1.005 0 0 1-.694.279zM2 329.376c5.002 13.514 47.219 27.084 118.953 38.226 1.429.221 2.868.44 4.317.66 33.957 5.139 73.714 9.726 118.167 13.633 55.407 4.87 116.826 8.609 182.562 11.116V119.013c-118.824-4.539-221.959-12.962-298.312-24.363C76.55 87.013 14.992 74.513 2 57.396z" fill="#112c41"/><path d="M268.64 280.52c11.5 31.33-13.68 57.75-25.29 102.37-46.51-4.09-87.8-8.91-122.55-14.3 5.37-17.64 11.63-34.23 17.79-48.4v-.01c9.34-21.46 18.47-37.38 24.07-42.98 15.58-14.8 68.99-30.26 70.68-21.07 1.37-8.13 7.62-38.36 26.19-47.64 15.56-7.79 27.32 19.87 9.11 72.03z" fill="#6ecfea"/><path d="M243.351 383.89a1.001 1.001 0 0 1-.968-1.252c4.148-15.941 10.086-29.723 15.325-41.882 9.647-22.392 17.267-40.077 9.994-59.891a.997.997 0 0 1-.005-.675c6.11-17.502 9.284-33.637 9.177-46.66-.09-10.967-2.603-19.42-6.894-23.193-2.825-2.486-6.284-2.814-10.002-.952-4.546 2.271-19.83 12.368-25.651 46.911-.081.479-.494.83-.979.834h-.007a1 1 0 0 1-.983-.819c-.042-.229-.17-.923-1.73-1.431-10.472-3.407-53.807 10.25-67.277 23.045-9.619 9.63-28.643 48.487-41.602 90.957a1 1 0 0 1-1.914-.584c10.533-34.518 29.971-79.644 42.119-91.805 14.181-13.472 58.155-27.137 69.292-23.515a6.072 6.072 0 0 1 1.518.715c2.096-10.945 8.863-37.374 26.319-46.098 4.442-2.224 8.78-1.782 12.218 1.239 8.896 7.822 11.835 33.007-1.599 71.679 7.339 20.421-.388 38.358-10.158 61.033-5.21 12.094-11.116 25.801-15.226 41.595a1 1 0 0 1-.967.749z" fill="#fff"/><path d="M196.691 272.128c-3.62 17.001-10.999 30.558-21.091 29.675-8.942-.782-14.478-15.606-15.446-32.968-1.343-24.1 11.009-30.66 21.091-29.675 13.247 1.294 19.689 13.039 15.446 32.968z" fill="#6ecfea"/><path d="M176.508 302.843c-.331 0-.662-.015-.996-.044-6.707-.586-15.015-9.818-16.357-33.908-.649-11.656 1.882-20.574 7.321-25.79 3.898-3.739 9.178-5.491 14.866-4.936 5.708.558 10.326 3.04 13.355 7.179 4.418 6.037 5.446 15.371 2.971 26.992-4.093 19.227-11.954 30.507-21.16 30.507zm2.836-62.775c-3.122 0-7.631.78-11.483 4.476-5.004 4.8-7.324 13.18-6.708 24.235 1.029 18.487 6.87 31.357 14.534 32.027 10.072.917 16.93-14.346 20.026-28.887 2.353-11.049 1.443-19.83-2.629-25.395-2.722-3.719-6.738-5.862-11.936-6.37a19.002 19.002 0 0 0-1.804-.086z" fill="#fff"/><path d="M230.549 268.177c-3.836 18.015-11.655 32.381-22.349 31.446-9.475-.828-15.342-16.538-16.367-34.935-1.423-25.538 11.666-32.49 22.349-31.446 14.038 1.371 20.864 13.817 16.367 34.935z" fill="#6ecfea"/><path d="M209.162 300.665c-.348 0-.697-.015-1.049-.046-9.328-.816-16.11-14.898-17.279-35.876-.687-12.333 1.989-21.768 7.739-27.282 4.118-3.95 9.696-5.804 15.706-5.214 6.031.589 10.91 3.211 14.109 7.583 4.672 6.384 5.757 16.258 3.139 28.555-4.332 20.345-12.64 32.28-22.365 32.28zm3.006-66.521c-3.319 0-8.113.83-12.21 4.76-5.316 5.099-7.781 13.995-7.127 25.728 1.093 19.62 7.304 33.282 15.456 33.995 9.077.778 17.028-10.668 21.284-30.658 2.497-11.725 1.53-21.047-2.796-26.957-2.895-3.955-7.165-6.234-12.69-6.774a19.832 19.832 0 0 0-1.917-.094z" fill="#fff"/><path d="M271.577 299.932c3.312-33.945-47.982-53.89-57.126-35.601-5.795 11.591 5.795 26.493 17.386 36.428-15.73 10.763-23.6 24.915-27.899 39.351" fill="#6ecfea"/><path d="M203.939 341.11a.999.999 0 0 1-.959-1.285c5.035-16.907 13.95-29.728 27.234-39.153-6.814-6.033-23.613-22.877-16.658-36.787 3.562-7.122 13.292-9.381 25.39-5.896 9.02 2.599 17.738 7.999 23.918 14.818 7.302 8.058 10.659 17.471 9.708 27.223a1 1 0 1 1-1.99-.194c1.889-19.366-15.174-35.024-32.189-39.926-11.114-3.2-19.945-1.336-23.047 4.869-1.686 3.371-5.431 15.874 17.143 35.221a1.003 1.003 0 0 1-.086 1.585c-13.477 9.222-22.474 21.917-27.505 38.811-.13.434-.528.714-.959.714z" fill="#fff"/><path d="m427 395.05-.038-.001c-66.162-2.508-127.968-6.264-183.699-11.162-44.496-3.91-84.294-8.503-118.292-13.648-1.452-.22-2.892-.439-4.323-.66-51.486-7.998-114.199-21.376-120.592-39.7A.998.998 0 0 1 0 329.55v-276a1 1 0 0 1 1.944-.329c10.084 28.9 180.917 54.552 425.094 63.83a1 1 0 0 1 .962.999v276c0 .271-.111.532-.306.721a1.005 1.005 0 0 1-.694.279zM2 329.376c5.002 13.514 47.219 27.084 118.953 38.226 1.429.221 2.868.44 4.317.66 33.957 5.139 73.714 9.726 118.167 13.633 55.407 4.87 116.826 8.609 182.562 11.116V119.013c-118.824-4.539-221.959-12.962-298.312-24.363C76.55 87.013 14.992 74.513 2 57.396z" fill="#112c41"/><g fill="#fff"><path d="M134.001 174.559a.893.893 0 0 1-.145-.011c-48.557-7.01-84.628-14.881-107.209-23.394a.999.999 0 0 1-.583-1.288.998.998 0 0 1 1.288-.583c22.447 8.462 58.376 16.296 106.791 23.286a1 1 0 0 1-.142 1.99zm0 52.011a.893.893 0 0 1-.145-.011c-48.531-7.007-84.602-14.882-107.209-23.404a.999.999 0 1 1 .705-1.871c22.473 8.472 58.402 16.31 106.791 23.297a1 1 0 0 1-.142 1.989zm0 51.989a.996.996 0 0 1-.144-.01c-48.515-6.994-84.585-14.865-107.21-23.395a.999.999 0 1 1 .705-1.871c22.489 8.478 58.418 16.312 106.79 23.285a1 1 0 0 1-.141 1.991zM260.5 233.19c-16.818 0-30.5-13.683-30.5-30.5s13.682-30.5 30.5-30.5 30.5 13.683 30.5 30.5-13.682 30.5-30.5 30.5zm0-59c-15.715 0-28.5 12.785-28.5 28.5s12.785 28.5 28.5 28.5 28.5-12.785 28.5-28.5-12.785-28.5-28.5-28.5z"/><circle cx="260.5" cy="202.69" r="20.5"/><path d="M260.5 224.19c-11.855 0-21.5-9.645-21.5-21.5s9.645-21.5 21.5-21.5 21.5 9.645 21.5 21.5-9.645 21.5-21.5 21.5zm0-41c-10.752 0-19.5 8.748-19.5 19.5s8.748 19.5 19.5 19.5 19.5-8.748 19.5-19.5-8.748-19.5-19.5-19.5zm81 113c-16.818 0-30.5-13.683-30.5-30.5s13.682-30.5 30.5-30.5 30.5 13.683 30.5 30.5-13.682 30.5-30.5 30.5zm0-59c-15.715 0-28.5 12.785-28.5 28.5s12.785 28.5 28.5 28.5 28.5-12.785 28.5-28.5-12.785-28.5-28.5-28.5z"/><circle cx="341.5" cy="265.69" r="12.5"/><path d="M341.5 279.19c-7.444 0-13.5-6.056-13.5-13.5s6.056-13.5 13.5-13.5 13.5 6.056 13.5 13.5-6.056 13.5-13.5 13.5zm0-25c-6.341 0-11.5 5.159-11.5 11.5s5.159 11.5 11.5 11.5 11.5-5.159 11.5-11.5-5.159-11.5-11.5-11.5z"/><circle cx="318" cy="330.19" r="14"/><path d="M318 345.19c-8.271 0-15-6.729-15-15s6.729-15 15-15 15 6.729 15 15-6.729 15-15 15zm0-28c-7.168 0-13 5.832-13 13s5.832 13 13 13 13-5.832 13-13-5.832-13-13-13z"/></g></svg></g><g transform="translate(1638.3333333333335 173.33333333333334) rotate(0.0 298.33333333333326 169.16666666666669) scale(1.6666666666666663 1.6734263197810533)"><svg width="358" height="202.18" viewBox="0 0 358 202.18"><path d="M357 21.18v180C263.06 190.47 139.25 183.16 1 181V1c138.25 2.16 262.06 9.47 356 20.18z" fill="#6ecfea"/><path d="M357 202.18a.847.847 0 0 1-.113-.007C261.109 191.254 134.714 184.09.984 182A1 1 0 0 1 0 181V1C0 .732.107.476.298.287.49.1.75.005 1.016 0c133.792 2.091 260.257 9.26 356.098 20.187a1 1 0 0 1 .887.993v180a1 1 0 0 1-1.001 1zM2 180.016c132.916 2.102 258.528 9.215 354 20.044V22.073C260.571 11.238 134.942 4.12 2 2.016z" fill="#112c41"/><path d="M236 96.33c0 29.25-18.07 54.28-43.66 64.53-7.99 3.21-16.71 4.97-25.84 4.97-38.38 0-69.5-31.12-69.5-69.5 0-.17 0-.33.01-.5.18-26.98 15.75-50.31 38.37-61.66 9.36-4.7 19.93-7.34 31.12-7.34 28.44 0 52.89 17.08 63.64 41.55 3.77 8.55 5.86 18.01 5.86 27.95z" fill="#9dd9f4"/><path d="M166.5 166.83c-38.874 0-70.5-31.626-70.5-70.5 0-.19 0-.37.012-.561.175-26.569 15.089-50.536 38.919-62.493 9.839-4.941 20.46-7.446 31.568-7.446 27.968 0 53.308 16.544 64.556 42.147C235 76.923 237 86.462 237 96.33c0 28.988-17.384 54.683-44.288 65.459-8.326 3.345-17.146 5.041-26.212 5.041zm0-139c-10.793 0-21.113 2.434-30.671 7.233-23.156 11.619-37.646 34.906-37.819 60.774-.011.203-.01.344-.01.493 0 37.771 30.729 68.5 68.5 68.5 8.81 0 17.378-1.647 25.468-4.897C218.109 149.462 235 124.497 235 96.33c0-9.589-1.943-18.856-5.775-27.547-10.93-24.878-35.55-40.953-62.725-40.953z" fill="#fff"/><path d="M167 95.83H97.01c.18-26.98 15.75-50.31 38.37-61.66z" fill="#9dd9f4"/><path d="M167 96.83H97.01a.996.996 0 0 1-1-1.007c.177-26.623 15.091-50.59 38.921-62.547a.998.998 0 0 1 1.338.438l31.62 61.66A1 1 0 0 1 167 96.83zm-68.976-2h67.339l-30.417-59.315C112.603 47.122 98.554 69.696 98.024 94.83z" fill="#fff"/><path d="M236 96.33c0 29.25-18.07 54.28-43.66 64.53L167 95.83l63.14-27.45c3.77 8.55 5.86 18.01 5.86 27.95z" fill="#9dd9f4"/><path d="M192.34 161.861a.998.998 0 0 1-.932-.637l-25.34-65.03a1 1 0 0 1 .533-1.28l63.14-27.45a.997.997 0 0 1 1.314.514C235 76.923 237 86.462 237 96.33c0 28.988-17.384 54.683-44.288 65.459a.997.997 0 0 1-.372.072zm-24.059-65.497 24.622 63.187C218.511 148.864 235 124.16 235 96.33c0-9.253-1.81-18.209-5.38-26.634z" fill="#fff"/><circle cx="166.5" cy="96.33" fill="#6ecfea" r="30.5"/><g fill="#fff"><path d="M166.5 127.83c-17.369 0-31.5-14.131-31.5-31.5s14.131-31.5 31.5-31.5S198 78.961 198 96.33s-14.131 31.5-31.5 31.5zm0-61c-16.267 0-29.5 13.233-29.5 29.5s13.233 29.5 29.5 29.5 29.5-13.233 29.5-29.5-13.233-29.5-29.5-29.5zm156.14-6.285c-.032 0-.065-.002-.099-.005-21.041-2.064-43.481-3.985-66.698-5.709a1 1 0 0 1-.923-1.071c.041-.55.52-.979 1.071-.923 23.233 1.725 45.689 3.646 66.745 5.713.55.054.952.543.897 1.093a.998.998 0 0 1-.993.902zm0 34c-.032 0-.065-.002-.099-.005-21.041-2.064-43.481-3.985-66.698-5.709a1 1 0 0 1 .148-1.994c23.233 1.725 45.689 3.646 66.745 5.713.55.054.952.543.897 1.093a.998.998 0 0 1-.993.902zm0 34c-.032 0-.065-.002-.099-.005-21.041-2.064-43.481-3.985-66.698-5.709a1 1 0 0 1-.923-1.071.994.994 0 0 1 1.071-.923c23.233 1.725 45.689 3.646 66.745 5.713.55.054.952.543.897 1.093a.998.998 0 0 1-.993.902zM62.916 45.333h-.028a5112.71 5112.71 0 0 0-41.212-.97 1 1 0 0 1-.98-1.02c.011-.553.474-.955 1.02-.98 13.738.269 27.609.595 41.228.97a1.001 1.001 0 0 1-.028 2zm0 22h-.028a5112.71 5112.71 0 0 0-41.212-.97 1 1 0 0 1-.98-1.02c.011-.553.474-.963 1.02-.98 13.738.269 27.609.595 41.228.97a1.001 1.001 0 0 1-.028 2zm0 22h-.028a5112.71 5112.71 0 0 0-41.212-.97 1 1 0 0 1-.98-1.02c.011-.552.474-.971 1.02-.98 13.738.269 27.609.595 41.228.97a1.001 1.001 0 0 1-.028 2zm0 22h-.028a5112.71 5112.71 0 0 0-41.212-.97 1 1 0 0 1-.98-1.02 1.012 1.012 0 0 1 1.02-.98c13.738.269 27.609.595 41.228.97a1.001 1.001 0 0 1-.028 2zM241 54.83h-53a1 1 0 1 1 0-2h53a1 1 0 1 1 0 2zm-119.999 17c-.077 0-.155-.009-.233-.027l-46-11a1 1 0 1 1 .465-1.945l46 11a1 1 0 0 1-.232 1.972zm129.998 83a.997.997 0 0 1-.525-.149l-42-26a1 1 0 1 1 1.052-1.701l42 26a1 1 0 0 1-.527 1.85z"/></g></svg></g></svg>