<svg enable-background="new 0 0 185.937 178.801" height="179" viewBox="0 0 185.937 178.801" width="186" xmlns="http://www.w3.org/2000/svg"><ellipse cx="90.561" cy="91.054" fill="#ffd169" rx="90.135" ry="86.104" transform="matrix(.9214 -.3886 .3886 .9214 -28.2664 42.3492)"/><path d="m87.656 178.826c-11.045 0-22.04-1.986-32.515-5.97-22.265-8.467-39.507-24.94-48.552-46.386s-8.808-45.292.669-67.146c9.469-21.837 27.032-39.072 49.454-48.528 22.421-9.457 47.021-10.005 69.27-1.544 22.265 8.467 39.507 24.94 48.552 46.386 18.664 44.255-3.821 96.146-50.123 115.674-11.866 5.004-24.341 7.514-36.755 7.514zm5.811-173.543c-12.15 0-24.36 2.457-35.978 7.356-21.945 9.255-39.133 26.118-48.396 47.481-9.257 21.347-9.491 44.635-.66 65.572 8.83 20.937 25.67 37.023 47.419 45.294 21.764 8.276 45.834 7.738 67.781-1.518 45.286-19.1 67.293-69.815 49.057-113.054-8.83-20.938-25.67-37.023-47.419-45.294-10.243-3.894-21-5.837-31.804-5.837z" fill="#112c41"/><ellipse cx="99.198" cy="86.928" fill="#ffe993" rx="85.739" ry="85.928"/><path d="m99.199 173.856c-47.828 0-86.739-38.996-86.739-86.928-.001-47.932 38.911-86.928 86.739-86.928s86.738 38.996 86.738 86.928-38.91 86.928-86.738 86.928zm0-171.856c-46.726 0-84.74 38.099-84.74 84.928s38.014 84.928 84.739 84.928 84.738-38.099 84.738-84.928c.001-46.829-38.013-84.928-84.737-84.928z" fill="#112c41"/><ellipse cx="99.198" cy="86.928" fill="#ffe993" rx="66.526" ry="66.38" transform="matrix(.7071 -.7071 .7071 .7071 -32.4129 95.6044)"/><g fill="#112c41"><path d="m99.051 154.349c-17.25 0-34.483-6.555-47.602-19.673-26.271-26.271-26.225-69.064.104-95.393 26.327-26.33 69.121-26.375 95.394-.104 26.271 26.271 26.225 69.064-.104 95.393-13.181 13.182-30.495 19.777-47.792 19.777zm.294-132.844c-16.787 0-33.583 6.397-46.378 19.192-25.548 25.549-25.595 67.074-.104 92.565s67.016 25.444 92.565-.104l.707.707-.707-.707c25.549-25.549 25.595-67.073.104-92.565-12.725-12.725-29.452-19.088-46.187-19.088z"/><path d="m49.344 81.096h72.98v2.001h-72.98z" transform="matrix(.4573 -.8893 .8893 .4573 -26.4289 120.8823)"/><path d="m112.543 94.062c-3.016 0-6.009-.719-8.769-2.139l-17.224-8.864c-.49-.252-.684-.855-.432-1.347.253-.491.856-.684 1.348-.432l17.225 8.863c4.078 2.1 8.729 2.489 13.093 1.096 4.364-1.392 7.92-4.399 10.012-8.466 2.083-4.048 2.471-8.855 1.063-13.19-1.407-4.335-4.549-8.008-8.619-10.077l-24.75-12.577c-.492-.25-.688-.852-.438-1.345s.851-.689 1.345-.438l24.75 12.577c4.54 2.308 8.045 6.405 9.615 11.243s1.138 10.205-1.187 14.723c-2.338 4.543-6.31 7.902-11.183 9.457-1.92.612-3.889.916-5.849.916z"/><path d="m98.804 128.755c-2.543 0-5.035-.593-7.325-1.771l-29.533-15.198c-.49-.253-.684-.855-.432-1.347.253-.491.855-.684 1.348-.432l29.533 15.198c3.596 1.85 7.776 2.048 11.771.556 4.028-1.504 7.383-4.541 9.445-8.551 2.205-4.283 2.762-9.085 1.567-13.521-1.184-4.401-3.954-7.915-7.799-9.894l-17.136-8.818c-.49-.253-.684-.855-.432-1.347.253-.491.856-.684 1.348-.432l17.136 8.818c4.352 2.239 7.481 6.2 8.814 11.152 1.323 4.917.713 10.229-1.721 14.956-2.291 4.454-6.028 7.831-10.524 9.509-2 .75-4.046 1.122-6.06 1.122z"/><path d="m108.34 52.378c-.154 0-.311-.036-.457-.111-.49-.252-.684-.855-.432-1.347l5.652-10.984c.253-.491.856-.684 1.348-.432.49.252.684.855.432 1.347l-5.652 10.984c-.178.346-.527.543-.891.543z"/><path d="m121.096 58.942c-.154 0-.311-.036-.457-.111-.49-.252-.684-.855-.432-1.347l5.653-10.984c.252-.491.856-.684 1.348-.432.49.252.684.855.432 1.347l-5.653 10.985c-.178.345-.528.542-.891.542z"/><path d="m68.597 129.607c-.154 0-.311-.036-.457-.111-.49-.253-.684-.855-.432-1.347l5.815-11.301c.253-.491.855-.684 1.348-.432.49.253.684.855.432 1.347l-5.815 11.301c-.178.346-.528.543-.891.543z"/><path d="m81.353 136.172c-.154 0-.311-.036-.457-.111-.49-.253-.684-.855-.432-1.347l5.815-11.301c.253-.491.855-.684 1.348-.432.49.253.684.855.432 1.347l-5.815 11.301c-.178.345-.528.543-.891.543z"/></g></svg>