<svg xmlns="http://www.w3.org/2000/svg" viewBox="0 0 1800 1800" width="1800" height="1800"><g transform="translate(460.0 362.0) rotate(0.0 198.0 166.0) scale(1.2449463352678205 1.2424405724208132)"><svg width="318.086" height="267.216" viewBox="0 0 318.086 267.216"><circle cx="284.021" cy="174.117" fill="#ffd6c0" r="33.06"/><path d="M266.302 202.028c14.914 9.47 34.524 5.508 44.651-8.737-10.63 7.566-25.202 8.393-36.899.978-15.411-9.79-19.975-30.228-10.185-45.64.32-.498.649-.984.989-1.459a32.852 32.852 0 0 0-8.742 9.229c-9.79 15.411-5.226 35.839 10.186 45.629z" fill="#f5b9ab"/><path d="M283.954 208.189c-6.392 0-12.665-1.81-18.192-5.319a34.157 34.157 0 0 1-15.262-22.713 1 1 0 0 1 1.969-.356 32.157 32.157 0 0 0 14.366 21.38c7.229 4.591 15.813 6.092 24.171 4.226s15.489-6.875 20.08-14.104 6.091-15.813 4.225-24.171-6.875-15.489-14.104-20.08c-14.084-8.944-32.917-5.483-42.874 7.878a1 1 0 1 1-1.603-1.195c10.579-14.196 30.586-17.873 45.55-8.372 7.68 4.877 13.001 12.453 14.984 21.333 1.982 8.879.388 17.999-4.489 25.679s-12.453 13.001-21.332 14.984c-2.49.556-4.999.83-7.489.83z" fill="#112c41"/><path d="M266.007 173.752a1 1 0 0 1-.973-1.232c1.302-5.465 4.599-10.111 9.283-13.082 4.692-2.976 10.215-3.915 15.549-2.644 6.023 1.435 11.008 5.53 13.674 11.235a1 1 0 1 1-1.812.847c-2.407-5.149-6.899-8.843-12.326-10.136-4.805-1.145-9.782-.297-14.015 2.387-4.241 2.69-7.228 6.9-8.408 11.856-.11.46-.52.769-.972.769z" fill="#112c41"/><circle cx="162.891" cy="147.599" fill="#ffd6c0" r="118.611"/><path d="M171.875 29.329c.399.03.791.081 1.188.115l6.613 14.988c-61.672-4.506-114.501 38.826-119.116 99.57-4.623 60.854 40.896 116.142 102.709 120.837 6.139.466 12.21.44 18.155-.06a119.006 119.006 0 0 1-27.518 1.089c-65.32-4.962-114.248-61.935-109.286-127.254S106.555 24.367 171.875 29.329z" fill="#f5b9ab"/><g fill="#112c41"><path d="M163.08 267.218c-3.072 0-6.153-.116-9.249-.352-65.764-4.995-115.203-62.562-110.207-128.326S106.192 23.335 171.951 28.332c65.764 4.996 115.203 62.563 110.208 128.328-2.42 31.857-17.101 60.866-41.339 81.681-21.883 18.792-49.196 28.877-77.74 28.877zm-.273-237.234c-60.842 0-112.507 47.058-117.19 108.707-4.912 64.665 43.7 121.27 108.365 126.182 31.327 2.379 61.701-7.582 85.534-28.049s38.268-48.991 40.648-80.315c4.912-64.665-43.7-121.27-108.365-126.182-3.015-.23-6.015-.343-8.992-.343z"/><ellipse cx="153.146" cy="122.56" rx="10.535" ry="7.901" transform="matrix(.0757 -.9971 .9971 .0757 19.3383 265.983)"/><ellipse cx="151.103" cy="87.234" rx="16.351" ry="10.803" transform="matrix(.9975 -.0706 .0706 .9975 -5.7842 10.8907)"/></g><ellipse cx="235.235" cy="174.865" fill="#ffa9dc" rx="14.027" ry="9.267" transform="matrix(.9996 -.0292 .0292 .9996 -5.014 6.9553)"/><ellipse cx="130.604" cy="146.911" fill="#ffa9dc" rx="9.267" ry="14.027" transform="matrix(.5096 -.8604 .8604 .5096 -62.3543 184.426)"/><ellipse cx="249.944" cy="115.259" fill="#112c41" rx="9.952" ry="15.062" transform="matrix(.6287 -.7777 .7777 .6287 3.1757 237.169)"/><path d="M244.827 105.029c3.249 0 6.936 1.475 10.116 4.046 2.828 2.286 4.888 5.131 5.801 8.012.821 2.589.593 4.856-.642 6.384-1.348 1.668-3.485 2.018-5.04 2.018-3.249 0-6.937-1.475-10.117-4.046-5.506-4.451-7.869-11.044-5.159-14.396 1.348-1.668 3.485-2.018 5.041-2.018m-.001-2c-2.728 0-5.095.904-6.596 2.76-3.455 4.274-1.012 11.979 5.457 17.208 3.66 2.958 7.822 4.491 11.375 4.491 2.727 0 5.095-.904 6.595-2.76 3.456-4.274 1.012-11.979-5.457-17.208-3.659-2.958-7.822-4.491-11.374-4.491z" fill="#112c41"/><ellipse cx="230.881" cy="143.433" fill="#112c41" rx="10.535" ry="7.901" transform="matrix(.4258 -.9048 .9048 .4258 2.7877 291.2585)"/><circle cx="36.296" cy="110.711" fill="#ffd6c0" r="35.294"/><path d="M61.163 135.925c-2.447 1.261-5.544 2.195-8.336 2.86-18.973 4.496-38.031-7.924-42.524-26.886-2.952-12.441 1.335-24.052 9.812-32.411C5.925 86.686-2.29 102.028 1.54 118.21c4.482 18.965 23.504 30.707 42.477 26.211 6.521-1.543 12.699-4.094 17.146-8.496z" fill="#f5b9ab"/><path d="M35.973 146.992c-.814 0-1.622-.03-2.426-.091C13.592 145.385-1.41 127.917.106 107.962.84 98.295 5.295 89.493 12.65 83.177s16.728-9.392 26.395-8.656c18.833 1.43 33.568 17.329 33.547 36.193a1 1 0 0 1-1 .999h-.001a1 1 0 0 1-.999-1.001c.02-17.825-13.903-32.846-31.698-34.197-9.133-.692-17.991 2.211-24.941 8.179S2.794 98.979 2.1 108.113c-1.432 18.855 12.743 35.361 31.598 36.793 9.337.708 19.6-3.013 26.782-9.713a1.001 1.001 0 0 1 1.364 1.463c-6.96 6.494-16.679 10.335-25.871 10.336z" fill="#112c41"/><path d="M55.773 118.654a1 1 0 0 1-.99-1.153c1.718-11.121-5.675-21.526-16.481-23.196-5.906-.913-11.857.935-16.327 5.069a1 1 0 1 1-1.358-1.469c4.92-4.55 11.477-6.582 17.99-5.577 11.896 1.838 20.039 13.267 18.152 25.478a1 1 0 0 1-.986.848z" fill="#112c41"/><path d="M62.549 72.029c29.537-10.568 66.195-14.201 104.823-8.621 16.473 2.377 32.134 6.271 46.636 11.376 3.202-10.828 3.994-21.723 2.504-31.747.092.169.195.34.275.508 5.774 10.315 9.49 22.806 10.477 36.389a214.591 214.591 0 0 1 7.968 3.576c19.154 9.091 35.549 20.433 48.171 33.171 1.325 1.343 3.631.473 3.693-1.414a103.658 103.658 0 0 0-5.306-36.17C267.757 37.123 227.596 5.129 178.061 1.366a125.85 125.85 0 0 0-24.749.546c-42.064 5.137-77.563 31.395-92.9 67.842-.567 1.362.753 2.773 2.137 2.275z" fill="#fcaa51"/><path d="M62.549 72.029c7.48-2.681 15.425-4.909 23.739-6.657C100.15 33.06 131.777 9.804 169.19 5.242a113.19 113.19 0 0 1 22.145-.488 112.257 112.257 0 0 1 15.884 2.344c-9.23-2.999-18.992-4.959-29.158-5.731a125.85 125.85 0 0 0-24.749.546c-42.064 5.137-77.563 31.395-92.9 67.842-.567 1.361.753 2.772 2.137 2.274z" fill="#ff9522"/><path d="M285.088 118.348c-.903 0-1.826-.387-2.54-1.105-14.319-14.41-33.571-26.993-55.674-36.39a1 1 0 0 1-.606-.848c-.83-11.437-3.646-22.331-8.199-31.825.597 8.735-.456 17.927-3.106 26.888a1.002 1.002 0 0 1-1.291.66c-14.749-5.196-30.373-9.007-46.438-11.329-36.662-5.298-73.51-2.329-103.757 8.363-1.264.445-2.596.181-3.394-.678-.771-.829-.895-2.034-.339-3.307C75.82 31.992 111.628 5.992 153.192.923A127.1 127.1 0 0 1 178.136.37c24.17 1.836 46.892 10.391 65.708 24.739 18.395 14.028 31.844 32.586 38.893 53.671 3.949 11.813 5.755 24.03 5.367 36.313-.047 1.478-.742 2.588-1.908 3.048a3.025 3.025 0 0 1-1.108.207zm-56.871-39.097c22.105 9.472 41.372 22.113 55.75 36.582.443.446 1.044.625 1.497.447.505-.199.628-.79.642-1.25.381-12.045-1.391-24.028-5.265-35.616-6.921-20.702-20.134-38.931-38.209-52.714-18.508-14.115-40.863-22.53-64.647-24.337a125.192 125.192 0 0 0-24.551.544C112.568 7.89 77.37 33.437 61.576 69.576c-.131.299-.308.845-.03 1.144.209.225.71.35 1.263.154 30.546-10.797 67.733-13.801 104.709-8.457 15.831 2.288 31.24 6.012 45.817 11.072 2.87-10.194 3.625-20.65 2.182-30.304a1 1 0 0 1 1.858-.643c6.042 10.608 9.785 23.288 10.842 36.709zM200.87 175.77a1 1 0 0 1-1-.994c-.018-2.947-1.962-5.602-5.475-7.476-6.33-3.375-17.771-3.84-26.508 1.947a1 1 0 0 1-1.105-1.667c9.483-6.282 21.542-5.784 28.553-2.045 4.191 2.235 6.512 5.512 6.534 9.229a1.001 1.001 0 0 1-.994 1.006h-.005z" fill="#112c41"/></svg></g><g transform="translate(222.0 1213.0) rotate(0.0 264.0 46.5) scale(0.8627450980392157 0.8611111111111112)"><svg width="612" height="108" viewBox="0 0 612 108"><ellipse cx="306" cy="54" fill="#cbc8ff" rx="306" ry="54"/></svg></g><g transform="translate(627.0 1194.0) rotate(0.0 117.0 50.0) scale(1.2124352331606219 1.203094358690552)"><svg width="193" height="83.119" viewBox="0 0 193 83.119"><path d="M191.754 77.977c-.244 2.369-1.698 4.143-3.43 4.143H11.947c-.757 0-1.488-.338-2.085-.974-3.985-4.173-17.833-21.307.109-41.928 10.77-12.376 27.838-22.466 47.1-29.162C94.595-3.007 140.416-3.182 164 17.767c16.303 14.478 23.365 29.162 26.224 40.841 2.068 8.418 1.942 15.278 1.53 19.369z" fill="#cbc8ff"/><path d="M191.754 77.977c-.244 2.369-1.698 4.143-3.43 4.143H11.947c-.757 0-1.488-.338-2.085-.974-3.985-4.173-17.833-21.307.109-41.928 10.77-12.376 23.895-21.153 43.157-27.849 20.178 0 36.531 6.932 46.209 17.37 12.519 13.494 13.486 21.594 15.167 28.772 2.522 1.025 25.223 11.279 45.729 10.418 14.439-.607 21.978-3.374 29.94-10.418 2.068 8.418 1.993 16.375 1.581 20.466z" fill="#b2b0f7"/><g fill="#112c41"><path d="M188.327 83.119H11.949c-1.025 0-2.024-.455-2.812-1.282-3.282-3.441-18.7-21.698.08-43.278C27.092 18.018 63.574 2.644 99.996.302c27.571-1.773 50.54 4.164 64.669 16.714 28.375 25.205 29.092 51.096 28.083 61.057-.296 2.924-2.156 5.046-4.422 5.046zM109.411 1.994c-3.029 0-6.124.101-9.286.304-35.925 2.309-71.852 17.409-89.4 37.574-17.199 19.763-4.457 36.061-.142 40.585.413.433.885.662 1.365.662h176.379c1.199 0 2.244-1.396 2.432-3.248.978-9.655.264-34.768-27.421-59.36-12.122-10.767-31.05-16.517-53.927-16.517z"/><path d="M115.346 83.12a1 1 0 0 1-.99-1.153c2.999-19.331-2.676-38.755-15.179-51.959-11.921-12.59-28.833-18.491-47.632-16.618a1 1 0 1 1-.198-1.99c19.425-1.935 36.927 4.184 49.283 17.233 12.926 13.651 18.796 33.703 15.703 53.641a1 1 0 0 1-.987.847z"/><path d="M156.714 68.943c-13.442 0-28.316-3.345-42.413-10.038a1 1 0 0 1 .857-1.806c27.618 13.113 58.165 13.165 74.283.126a1 1 0 1 1 1.258 1.555c-8.375 6.775-20.455 10.164-33.985 10.164z"/><path d="M166.301 68.384a1 1 0 0 1-.993-.894c-3.007-28.073-25.833-57.474-50.885-65.538a1 1 0 0 1 .613-1.904c25.733 8.284 49.177 38.443 52.26 67.229a1 1 0 0 1-.996 1.107z"/></g></svg></g><g transform="translate(478.0 811.0) rotate(0.0 207.0 164.0) scale(0.4935498753607742 0.49174527594705947)"><svg width="838.821" height="667.012" viewBox="0 0 838.821 667.012"><path d="M595.031 278.41c-27 63-60 89-80 89-10.54 0-25.36-7.45-39.1-15.02-11.42-6.31-22.09-12.71-28.9-14.98-15-5-253-23-255-23-.82 0-22.1-6.59-48.13-15.05-37.27-12.12-84.27-28.06-94.87-33.95-6.19-3.44-13.94-8.66-21.4-14.92-14.22-11.93-27.36-27.66-26.6-42.08.46-8.67 14.64-25.88 33-45 21.88-22.8 51.59-45.53 97-51 37.81-4.55 89.14-7.24 143.55-4.42h.01c4.63.24 9.28.5 13.95.79 23.83 1.48 48.08 3.61 71.88 6.37 37.01 4.28 72.95 10.08 104.61 17.26 57.25 12.99 93.6 25.62 115.83 36.05 15.44 7.26 24.07 13.44 28.17 17.95 8.77 9.65 6.44 44.3-14 92z" fill="#ffe993"/><path d="M595.031 278.41c-27 63-60 89-80 89-10.54 0-25.36-7.45-39.1-15.02 1.29-3.39 2.757-6.717 4.59-8.73 7.51-8.25 20.51-48.25 20.51-48.25s5-39 24-72c13.944-24.219 30.74-48.27 49-58 15.44 7.26 30.9 16.49 35 21 8.77 9.65 6.44 44.3-14 92z" fill="#fff"/><path d="M274.581 107.99c-1.83.08-207.55-15.58-248.55 109.42-4.469 13.624 3.57 23.21 1.6 33.08-14.22-11.93-27.36-27.66-26.6-42.08 2-25 59-87 130-96 37.781-4.789 89.14-7.24 143.55-4.42z" fill="#ffd169"/><path d="M176.031 300.41c.17.76-18.96-.3-32.13-1.05-37.27-12.12-84.27-28.06-94.87-33.95-6.19-3.44-13.94-8.66-21.4-14.92-14.22-11.93-27.36-27.66-26.6-42.08.46-8.67 9-21 23-39 41.69 3.27 64 11 93 28 33.601 19.697 54 47 53.52 51.76-.04 4.48 4.74 47.98 5.48 51.24z" fill="#fff"/><path d="M515.031 368.83c-12.626 0-30.67-10.129-46.589-19.064-8.445-4.741-16.422-9.219-21.727-10.987-15.297-5.099-252.695-22.901-254.693-22.948-1.364 0-36.424-11.081-65.804-20.801-24.638-8.15-67.492-22.669-77.672-28.325-6.865-3.814-14.723-9.292-21.557-15.028C16.54 242.91-.857 225.68.033 208.779c.52-9.87 12.945-31.15 34.951-51.147 18.855-17.134 50.797-39.059 95.891-46.207 35.643-5.65 85.354-7.038 143.759-4.012 5.042.262 9.608.521 13.97.791 24.238 1.506 48.439 3.65 71.933 6.375 38.629 4.468 73.86 10.28 104.716 17.277 43.315 9.824 78.57 20.313 104.787 31.177 26.115 10.821 36.103 19.134 39.732 23.126 8.53 9.386 7.843 42.513-13.82 93.066-12.353 28.825-27.164 52.488-42.831 68.433-13.418 13.652-26.945 21.172-38.09 21.172zm-322.913-54.995c1.833 0 240.314 18.075 255.229 23.047 5.485 1.828 13.172 6.144 22.073 11.14 14.928 8.38 33.507 18.809 45.61 18.809 20.506 0 52.912-27.332 79.081-88.394 20.368-47.53 22.55-81.723 14.179-90.934-5.683-6.252-32.827-28.601-143.481-53.697-30.785-6.981-65.945-12.782-104.503-17.242-23.458-2.72-47.625-4.861-71.827-6.365a1356.43 1356.43 0 0 0-13.94-.789c-58.278-3.021-107.845-1.64-143.352 3.988C50.406 126.205 3.021 190.053 2.03 208.882c-.845 16.035 16.08 32.734 26.244 41.262 6.741 5.657 14.484 11.056 21.243 14.812 16.837 9.353 137.577 48.139 142.601 48.879zm402.913-35.005h.01z" fill="#112c41"/><path d="M602.672 214.9c-.26 1.479-.59 3.03-.98 4.67-8.81 36.6-50.61 111.6-69.44 128.65-.61.55-1.21 1.05-1.77 1.48-13.68 11.38-17.47 5.63-15.08-8.83.14-.84.3-1.7.48-2.59.08-.41.16-.83.26-1.25.14-.67.29-1.35.46-2.04.18-.78.38-1.57.59-2.38l.18-.7c.13-.49.26-.98.4-1.49 1.21-4.41 2.75-9.229 4.56-14.36.42-1.19.85-2.4 1.3-3.63 13.82-37.48 40.9-88.43 60.85-106.46.26-.25.52-.48.78-.7 5.21-4.52 9.9-6.72 13.71-5.74 4.289 1.1 5.2 6.79 3.7 15.37z" fill="#112c41"/><path d="M519.273 356.727c-.92 0-1.739-.207-2.461-.621-3.038-1.741-3.822-6.778-2.397-15.399.142-.852.304-1.724.487-2.625l.023-.121c.075-.383.151-.772.244-1.162.136-.654.289-1.346.461-2.048.179-.774.381-1.573.594-2.392l.179-.699c.146-.547.27-1.016.404-1.505 1.182-4.307 2.723-9.161 4.581-14.428.421-1.194.853-2.407 1.304-3.641 13.729-37.236 41-88.677 61.119-106.858.252-.243.529-.488.804-.722 5.72-4.963 10.636-6.963 14.605-5.945 4.65 1.192 6.143 6.747 4.436 16.511v.001a81.48 81.48 0 0 1-.992 4.729c-8.968 37.253-50.962 112.154-69.742 129.16a30.035 30.035 0 0 1-1.833 1.531c-5.008 4.168-8.913 6.234-11.816 6.234zM597.1 200.299c-3.044 0-6.795 1.919-11.183 5.726-.253.215-.498.431-.742.666-19.916 17.999-46.958 69.073-60.605 106.085a363.364 363.364 0 0 0-1.296 3.617c-1.842 5.222-3.369 10.03-4.538 14.291-.133.483-.256.948-.379 1.412l-.197.766c-.208.8-.406 1.581-.583 2.353-.17.693-.318 1.361-.456 2.021-.093.39-.163.752-.232 1.107l-.025.129a75.158 75.158 0 0 0-.475 2.562c-1.219 7.377-.715 12.114 1.419 13.337 2.098 1.201 6.372-.729 12.035-5.439a29.198 29.198 0 0 0 1.74-1.454c18.604-16.847 60.234-91.155 69.137-128.142.405-1.705.722-3.214.967-4.608 1.028-5.882 1.348-13.123-2.964-14.229a6.484 6.484 0 0 0-1.623-.2z" fill="#112c41"/><path d="M829.031 219.41c-27.746 89.079-125 198-296.78 128.81-5.545-2.233-11.15-4.72-16.85-7.35 1.11-6.69 3.54-15.23 6.93-24.81 13.51-38.23 39.7-88.65 62.7-110.65 0 0 16.974 16.394 56 15 56-2 84-55 70-87-8.254-18.867-39-31-43.37-49.55-1.69-7.21-.12-13.85 5.12-17.01-13.69-16.81 14.07-29.62 42.12-27.54-.51-.48-20.91-20.72-12.35-32.24 14.64-19.71 77.6 11.48 107.72 51.85 23.4 31.37 37.76 99.49 18.76 160.49z" fill="#ffd6c0"/><path d="M635.49 371.132c-32.537 0-67.389-7.395-103.612-21.984-4.967-2.001-10.335-4.343-16.896-7.37a1 1 0 0 1-.567-1.072c1.093-6.586 3.439-14.99 6.974-24.979 13.482-38.152 39.435-88.545 62.951-111.039a1 1 0 0 1 1.385.003c.167.161 17.182 16.071 55.271 14.721 26.368-.942 49.125-13.623 62.436-34.791 10.517-16.725 13.078-36.193 6.684-50.81-3.809-8.705-12.729-16.11-21.356-23.271-10.126-8.406-19.691-16.347-22.071-26.449-1.782-7.599-.046-14.032 4.644-17.475-4.329-5.855-3.422-10.648-1.834-13.692 4.933-9.462 23.098-15.645 42.901-14.761-5.033-5.43-18.29-21.408-10.651-31.688 3.185-4.287 8.508-6.466 15.82-6.474h.04c26.147 0 70.681 27.786 93.464 58.323 12.135 16.269 21.418 41.632 25.468 69.588 3.191 22.029 4.645 55.838-6.555 91.797l-.955-.298.955.298C811.592 278.76 769.972 328.552 718.65 352.9c-25.29 11.998-53.025 18.132-82.435 18.231l-.725.001zm-118.973-30.849c6.215 2.858 11.35 5.093 16.108 7.01 35.983 14.493 70.588 21.84 102.865 21.84l.718-.001c29.114-.099 56.562-6.168 81.584-18.038 50.826-24.113 92.053-73.451 110.284-131.981 14.543-46.69 11.56-119.152-18.607-159.594C789.205 32.357 745.627 2 717.612 2h-.041c-6.646.008-11.43 1.914-14.217 5.667-4.098 5.515-.729 13.449 2.819 19.134 4.08 6.538 9.364 11.735 9.414 11.782a1 1 0 0 1-.76 1.725c-19.703-1.461-38.835 4.487-43.556 13.54-2.018 3.869-1.249 8.032 2.285 12.371a1.004 1.004 0 0 1-.259 1.489c-4.606 2.778-6.349 8.731-4.663 15.925 2.226 9.45 11.54 17.183 21.401 25.368 8.806 7.311 17.912 14.87 21.911 24.01 6.656 15.214 4.042 35.397-6.823 52.675-13.669 21.738-37.017 34.759-64.058 35.725-35.052 1.256-52.347-11.534-56.007-14.635-17.24 16.937-44.49 60.675-61.786 109.619-3.36 9.499-5.631 17.53-6.755 23.888z" fill="#112c41"/><path d="M830.031 217.41c-29 95-129.39 199.97-297.78 130.81-5.53-2.27-11.15-4.72-16.85-7.35 1.11-6.69 3.54-15.23 6.93-24.81 12.7 11.35 64.879 39.521 119.7 37.35 101-4 154-68 188-136z" fill="#f5b9ab"/><path d="M733.502 83.052a.999.999 0 0 1-.535-.155c-6.424-4.075-17.921-9.85-29.125-13.563-13.94-4.62-24.506-5.183-30.553-1.622a1 1 0 1 1-1.015-1.723c14.66-8.628 48.553 6.841 61.764 15.22.466.296.604.914.309 1.381a1 1 0 0 1-.845.462zm21.767-28.607a.999.999 0 0 1-.535-.155c-7.684-4.875-20.857-11.258-39.975-13.985a1 1 0 0 1 .282-1.981c19.47 2.778 32.914 9.297 40.764 14.276a1 1 0 0 1-.536 1.845z" fill="#112c41"/><path d="M504.671 272.8c-9.38 76.86-66.4 139.01-140.64 156-13.18 3.02-26.91 4.61-41 4.61-76.03 0-141.23-46.37-168.87-112.37-4.5-10.74-8-22-10.39-33.66z" fill="#ffe993"/><path d="M364.031 428.8c-13.18 3.02-26.91 4.61-41 4.61-76.03 0-141.23-46.37-168.87-112.37 5.42-4.72 4.87-33.63 4.87-33.63s54 146 204.97 141.39z" fill="#ffd169"/><path d="M323.031 434.41c-42.627 0-84.181-14.911-117.006-41.988-32.39-26.716-54.847-63.948-63.236-104.837a1 1 0 0 1 .778-1.181 1.004 1.004 0 0 1 1.181.778c8.298 40.443 30.512 77.27 62.55 103.697 32.468 26.781 73.569 41.53 115.733 41.53 91.879 0 169.543-68.669 180.651-159.73.067-.548.562-.956 1.114-.871a1 1 0 0 1 .872 1.113C494.437 364.985 415.92 434.41 323.031 434.41z" fill="#112c41"/><path d="M175.031 291.41c-.08.05-.15.1-.23.14-18.96 11.34-126.26-38.51-151.45-61.75l-.45-.42c-1.11-1.07-2.06-2.06-2.83-2.99-10.71-11.94-7.65-16.41 3.22-15.86 1.59.07 3.36.26 5.27.55 34.74 5.23 118.76 43.52 139.46 68.5.62 2.97 4.59 6.22 6.33 9.89 0 0 0 .01.01.01.29.63.53 1.27.67 1.93z" fill="#112c41"/><path d="M166.578 294.238c-17.724.001-50.439-13.154-65.562-19.677-33.86-14.604-66.076-32.708-78.343-44.025l-.454-.424c-1.221-1.177-2.172-2.183-2.918-3.084-5.782-6.445-7.896-11.081-6.436-14.141 1.218-2.553 4.652-3.651 10.477-3.356 1.563.069 3.372.258 5.369.561 16.779 2.525 46.328 13.097 75.276 26.93 31.634 15.116 55.254 30.396 64.804 41.921l.158.19.051.243c.293 1.403 1.579 3.036 2.941 4.764 1.088 1.382 2.21 2.805 3.03 4.341h.03l.268.582c.357.774.599 1.475.74 2.141l.144.678-.584.372-.538-.843.491.873c-.091.06-.179.114-.274.162-2.089 1.249-5.071 1.792-8.67 1.792zM21.586 211.485c-3.829 0-6.206.773-6.916 2.263-.596 1.249-.59 4.466 6.146 11.975.724.874 1.625 1.825 2.78 2.938l.44.41c25.252 23.3 130.567 71.71 149.829 61.855a8.78 8.78 0 0 0-.162-.446h-.341l-.007-.774c-.74-1.482-1.879-2.928-2.983-4.328-1.443-1.831-2.809-3.564-3.269-5.339-20.01-23.84-103.021-62.6-138.689-67.97-1.928-.292-3.666-.474-5.166-.54a33.416 33.416 0 0 0-1.662-.044z" fill="#112c41"/><path d="M217.661 650.97c-13.51 9.78-41.13-11.53-59.48-10.74-35.58 1.52-99.76 39.89-123.93 20.15-5.82-4.75-6.78-13.78-3.48-18.92-10.18 2.92-18.73.38-22.33-4.61-5.98-8.29-1.02-16.81-1.02-16.81-12.32-10.57-10.54-35.25 41.31-46.17 22.9-4.83 34.91-8.8 39.08-22.86l.01-.01c3.39-11.44 1.61-29.54-3.7-60.18-4.77-27.46-12.89-54.65-22.13-81.56-.81-2.76-1.77-5.98-2.84-9.61-.2-.66-.4-1.33-.6-2.01-.21-.69-.42-1.38-.62-2.09-.22-.71-.43-1.44-.65-2.17-1.31-4.41-2.73-9.25-4.24-14.45-.24-.82-.47-1.64-.71-2.47-.78-2.7-1.58-5.5-2.39-8.37-.34-1.18-.68-2.37-1.01-3.58-.21-.72-.41-1.43-.6-2.15-.14-.49-.27-.98-.41-1.47-1.91-6.85-3.85-14.06-5.78-21.52-.27-1.01-.53-2.02-.79-3.04-2.48-9.72-4.92-19.8-7.17-29.97-.25-1.12-.5-2.25-.74-3.37-1.79-8.24-3.45-16.52-4.89-24.69-.33-1.88-.65-3.75-.96-5.61-.76-4.56-1.44-9.07-2.04-13.51-.23-1.74-.45-3.47-.66-5.19-.55-4.46-.99-8.84-1.33-13.1-.08-.93-.14-1.86-.21-2.78-.14-2.03-.26-4.03-.34-6-.03-.63-.06-1.25-.08-1.86-.03-.61-.05-1.21-.06-1.8-.03-.89-.05-1.76-.06-2.64-.04-2.71-.03-5.36.06-7.92.01-.56.03-1.12.06-1.67.02-.55.05-1.09.08-1.64.01-.37.03-.74.06-1.11.03-.4.05-.81.08-1.21.04-.59.09-1.16.14-1.73 1.59.07 3.36.26 5.27.55 5.46.82 12.14 2.46 19.59 4.73 39.99 12.21 102.42 42.72 119.87 63.77.62 2.97 4.59 6.22 6.33 9.89.15.69.3 1.38.45 2.08 2.78 13.02 5.95 27.78 9.23 42.86 10 46 17 93 21 134 4.21 43.14-.05 88.68-.75 116.04-.31 11.85 3.3 21.12 8.19 29.82 8.66 15.41 15.2 29.45 5.19 36.7z" fill="#ffd6c0"/><path d="M87.821 551c8.21-100.59-71.63-226.482-64.53-340.47 6.447.341 15.474 2.438 24.86 5.28-16.357 80.676 73.278 298.055 39.67 335.19z" fill="#f5b9ab"/><g fill="#112c41"><path d="M53.427 667.005c-7.888.001-14.687-1.667-19.808-5.85-5.694-4.646-6.885-12.691-4.725-18.19-9.021 1.96-17.387-.154-21.264-5.529-5.324-7.38-2.557-14.827-1.452-17.163C1.056 615.536-1 608.897.674 602.364c1.961-7.655 10.786-21.665 47.851-29.472 29.165-6.15 35.186-11.571 38.327-22.165a.958.958 0 0 1 .039-.106c3.455-11.805 1.239-30.815-3.755-59.629-4.15-23.894-10.963-49-22.091-81.405-.812-2.769-1.756-5.942-2.816-9.506-11.213-37.686-34.544-116.104-36.328-170.667-.237-6.898-.104-13.281.394-18.97.047-.533.521-.956 1.04-.912 1.57.069 3.378.258 5.375.561 16.779 2.525 46.328 13.097 75.276 26.93 31.591 15.096 55.189 30.354 64.765 41.873 3.07 2.905 4.697 6.338 6.419 9.971l.047.101c.057.095.099.2.122.312.109.528.224 1.062.339 1.603l.099.461c3.289 15.399 6.394 29.818 9.229 42.855 9.416 43.313 16.684 89.69 21.018 134.116 3.199 32.775 1.545 66.404.217 93.426-.408 8.294-.793 16.129-.962 22.736-.33 12.597 3.891 21.883 8.062 29.305 8.746 15.563 15.703 30.18 4.905 38-8.282 5.998-21.445.979-34.174-3.873-9.027-3.441-18.361-6.995-25.85-6.678-13.342.57-30.545 6.309-48.758 12.384-19.844 6.618-40.146 13.389-56.037 13.39zm-22.655-26.544a1.002 1.002 0 0 1 .841 1.54c-2.97 4.626-2.203 13.138 3.271 17.605 14.584 11.911 44.764 1.846 73.95-7.891 18.351-6.121 35.683-11.902 49.306-12.484 7.895-.335 17.43 3.294 26.647 6.807 12.796 4.877 24.88 9.483 32.289 4.123 9.463-6.854 2.81-20.657-5.476-35.4-4.305-7.66-8.66-17.255-8.318-30.337.169-6.631.555-14.477.964-22.783 1.325-26.956 2.975-60.504-.209-93.134-4.327-44.349-11.583-90.646-20.982-133.884a11798.17 11798.17 0 0 1-9.231-42.863l-.098-.459c-.107-.499-.213-.992-.315-1.481l-.046-.098c-1.719-3.626-3.204-6.758-6.027-9.413a.915.915 0 0 1-.085-.091c-9.234-11.143-33.207-26.616-64.126-41.392-28.785-13.755-58.112-24.258-74.712-26.757a54.202 54.202 0 0 0-4.206-.484c-.424 5.362-.527 11.331-.306 17.762 1.774 54.307 25.057 132.558 36.246 170.163 1.061 3.566 2.006 6.743 2.804 9.47 11.149 32.467 17.987 57.668 22.156 81.67 5.058 29.186 7.28 48.463 3.673 60.636a.836.836 0 0 1-.04.109c-4.501 14.995-18.049 18.867-39.802 23.454-36.007 7.584-44.48 20.805-46.326 28.011-1.543 6.025.498 12.165 5.461 16.423.365.313.454.844.214 1.261-.188.326-4.548 8.079.966 15.723 3.073 4.259 10.833 7.222 21.243 4.234a.914.914 0 0 1 .274-.04zm186.89 10.509h.01z"/><path d="M30.772 642.456a1 1 0 0 1-.773-1.634c15.192-18.546 39.358-19.78 39.601-19.79.57-.052 1.018.404 1.042.956a1 1 0 0 1-.956 1.042c-.233.01-23.527 1.222-38.139 19.06a1.003 1.003 0 0 1-.775.366zm-23.35-21.414a1 1 0 0 1-.875-1.483c9.625-17.45 32.042-25.992 44.162-26.271a.999.999 0 0 1 1.022.977 1 1 0 0 1-.977 1.023c-12.118.278-33.613 9.204-42.457 25.238a.996.996 0 0 1-.875.516zM178.03 307.41a1 1 0 0 1-.971-.765c-3.622-14.938-6.888-58.321-7.025-60.161a1 1 0 1 1 1.994-.148c.034.448 3.392 45.06 6.975 59.839a1 1 0 0 1-.973 1.235zm185.951-180.47c-.66 13.52-19.76 23.56-42.65 22.44s-40.91-12.99-40.25-26.5c.24-4.96 2.97-9.46 7.46-13.1 23.83 1.48 48.08 3.61 71.88 6.37 2.46 3.34 3.75 7 3.56 10.79z"/><path d="M324.827 150.466a72.72 72.72 0 0 1-3.544-.087c-23.404-1.146-41.886-13.503-41.2-27.548.247-5.094 2.954-9.875 7.829-13.828l.303-.246.389.024c24.238 1.506 48.439 3.65 71.933 6.375l.432.05.258.351c2.688 3.648 3.951 7.495 3.754 11.432-.337 6.906-5.14 13.138-13.522 17.547-7.344 3.862-16.692 5.93-26.632 5.93zm-35.954-39.664c-4.232 3.533-6.579 7.72-6.792 12.126-.633 12.944 16.997 24.362 39.3 25.453 10.891.537 21.247-1.46 29.146-5.616 7.731-4.066 12.154-9.704 12.456-15.874v-.001c.167-3.342-.88-6.636-3.114-9.798-23.194-2.68-47.076-4.796-70.996-6.29zm346.617 260.33c-32.536 0-67.389-7.395-103.612-21.984-4.937-1.988-10.306-4.33-16.896-7.37a.998.998 0 0 1-.567-1.072c.142-.851.304-1.723.486-2.624l.023-.121c.075-.383.15-.772.244-1.162.136-.654.289-1.346.461-2.048.179-.774.381-1.573.594-2.392l.179-.699c.146-.547.27-1.016.404-1.505 1.182-4.307 2.723-9.161 4.581-14.428.421-1.194.853-2.407 1.304-3.641 13.729-37.236 41-88.677 61.119-106.858a.998.998 0 0 1 1.229-.087c3.563 2.398 9.571 5.875 17.962 8.815 11.713 4.098 24.495 5.931 37.994 5.454 26.367-.942 49.125-13.623 62.436-34.791 10.517-16.725 13.078-36.193 6.684-50.81-3.808-8.708-12.73-16.114-21.359-23.277-10.125-8.403-19.688-16.342-22.068-26.443-1.781-7.599-.045-14.032 4.645-17.475-4.329-5.855-3.422-10.649-1.834-13.693 4.934-9.462 23.102-15.611 42.916-14.76-1.959-2.129-5.18-5.884-7.938-10.302-5.56-8.91-6.503-16.306-2.728-21.387 3.185-4.287 8.508-6.466 15.82-6.474h.04c26.147 0 70.681 27.785 93.464 58.322 12.135 16.269 21.418 41.632 25.468 69.588 3.191 22.03 4.645 55.839-6.555 91.798-18.397 59.056-60.02 108.848-111.341 133.194-25.289 11.997-53.023 18.13-82.433 18.229-.239.003-.482.003-.722.003zm-118.973-30.849c6.242 2.871 11.377 5.105 16.108 7.01 36.25 14.601 71.111 21.9 103.581 21.839 29.113-.099 56.561-6.167 81.583-18.037 50.825-24.11 92.055-73.45 110.289-131.982 14.543-46.691 11.56-119.153-18.607-159.595C789.205 32.357 745.627 2 717.613 2h-.042c-6.646.008-11.429 1.914-14.217 5.667-7.979 10.738 12.026 30.721 12.233 30.915a1.001 1.001 0 0 1-.76 1.726c-19.712-1.46-38.836 4.485-43.556 13.539-2.018 3.87-1.249 8.032 2.285 12.372a1.004 1.004 0 0 1-.259 1.489c-4.606 2.777-6.35 8.73-4.663 15.925 2.226 9.448 11.539 17.179 21.398 25.363 8.809 7.311 17.917 14.871 21.915 24.015 6.656 15.214 4.042 35.397-6.823 52.675-13.669 21.738-37.017 34.759-64.058 35.725-13.75.491-26.777-1.385-38.726-5.564-8.097-2.837-14.04-6.171-17.761-8.608-19.836 18.427-46.494 68.881-60.01 105.54a363.364 363.364 0 0 0-1.296 3.617c-1.842 5.222-3.369 10.03-4.538 14.291-.133.483-.256.948-.379 1.412l-.197.766a87.57 87.57 0 0 0-.584 2.353 59.67 59.67 0 0 0-.455 2.021c-.093.39-.163.752-.232 1.107l-.025.129a71.76 71.76 0 0 0-.346 1.808zM829.031 219.41h.01z"/></g></svg></g><g transform="translate(182.0 640.0) rotate(0.0 479.0 333.5) scale(1.2501419132913052 1.2521095323643094)"><svg width="766.313" height="532.701" viewBox="0 0 766.313 532.701"><g><g><g><path style="fill:#ffe993" d="M673.753 254c-17.57 20.15-85.08 46.99-163.75 67.11-73.57 18.81-156.88 31.76-218.25 27.89-46.2-2.91-77.71-2.64-100.69-2.82-40.2-.29-54.31-1.91-75.31-24.18-33-35-87.09-105-87.09-105-5.82-6.39-10.52-13.07-12.73-19.43-1.95-5.57-1.98-10.9.82-15.57 1.97-3.28 14.31-17.27 38.74-34.56 45.22-32.02 131.84-75.38 270.68-83.2.43-.02.86-.05 1.29-.07 13.9-.77 28.33-1.17 43.29-1.17 10.92 0 21.61.29 32.07.86 121.75 6.52 212.03 49.01 261.86 81.39 27.84 18.08 43.05 33.01 44.07 36.75 3.17 11.62-1 33-35 72z"/><path style="fill:#112c41" d="M314.6 350.681c-8.011 0-15.662-.226-22.91-.683-39.863-2.511-69.261-2.655-90.726-2.76-3.472-.017-6.77-.033-9.908-.058-39.6-.286-54.396-1.552-76.03-24.494-32.656-34.635-86.613-104.374-87.154-105.075-6.453-7.081-10.806-13.734-12.883-19.713-2.185-6.241-1.88-11.764.907-16.413 2.372-3.949 15.489-18.208 39.02-34.862 28.522-20.197 62.327-37.289 100.476-50.802 51.155-18.12 108.595-29.082 170.725-32.581l1.3-.071C341.442 62.394 356.026 62 370.753 62c10.826 0 21.634.29 32.125.862 129.767 6.949 220.071 54.076 262.35 81.55 27.205 17.668 43.318 33.029 44.49 37.325 4.485 16.441-7.362 40.975-35.211 72.92-17.058 19.563-83.068 46.658-164.256 67.421-72.339 18.496-142.04 28.603-195.651 28.603zM370.753 64c-14.691 0-29.237.393-43.235 1.169l-1.299.07c-61.931 3.488-119.184 14.413-170.16 32.469-37.975 13.451-71.616 30.458-99.988 50.549-25.572 18.098-37.002 31.829-38.461 34.259-2.467 4.114-2.714 9.069-.734 14.725 1.989 5.724 6.203 12.146 12.525 19.087.593.761 54.49 70.424 87.078 104.987 21.076 22.35 35.624 23.585 74.59 23.866 3.137.024 6.433.041 9.904.058 21.49.105 50.921.25 90.842 2.764 55.549 3.502 134.986-6.652 217.939-27.861 80.827-20.671 146.43-47.516 163.244-66.798 18.825-21.594 40.143-51.454 34.789-71.08-.931-3.414-16.313-18.422-43.65-36.175-42.112-27.365-132.065-74.305-261.369-81.23A590.772 590.772 0 0 0 370.753 64zm303 190h.01-.01z"/></g><path style="fill:#ffe993" d="M589.423 273.75c-8.27 48.22-31.52 91.32-64.79 124.34-41.66 41.36-99.04 66.91-162.38 66.91-109.78 0-201.64-76.75-224.84-179.52l-.15-.67 2.09-.05 45.26-1.11 404.81-9.9z"/><path style="fill:#ffd169" d="m327.463 64.17-1.71 5.83c-64 7-193 37-261 104-20.49 20.19-36.89 26.03-48.82 23.57-1.95-5.57-1.98-10.9.82-15.57 1.97-3.28 14.31-17.27 38.74-34.56 45.22-32.02 131.84-75.38 270.68-83.2.43-.02.86-.05 1.29-.07zm197.17 333.92c-41.66 41.36-99.04 66.91-162.38 66.91-109.78 0-201.64-76.75-224.84-179.52.65-.24 1.29-.48 1.94-.72 22.39-8.26 42.4-13.76 42.4-13.76l2.86 12.65 4.14 18.35c27 59 63 113 156 124 86.41 10.22 145-6 179.88-27.91z"/><path style="fill:#112c41" d="M362.253 466c-52.963 0-104.734-18.345-145.778-51.654-40.458-32.834-68.937-78.761-80.192-129.321a1 1 0 1 1 1.952-.434c11.158 50.122 39.391 95.652 79.5 128.203C258.424 445.814 309.748 464 362.253 464c54.46 0 107.259-19.412 148.671-54.659 40.946-34.852 68.475-83.064 77.515-135.758a1 1 0 1 1 1.971.338c-9.119 53.155-36.888 101.789-78.19 136.943C470.447 446.419 417.188 466 362.253 466z"/><path style="fill:#fff" d="M673.753 254c-17.57 20.15-85.08 46.99-163.75 67.11-.02-5.38 5.47-8.71 8.75-16.11 30.29-68.37 103-143 145.93-159.75 27.84 18.08 43.05 33.01 44.07 36.75 3.17 11.62-1 33-35 72z"/><g><path style="fill:#112c41" d="M414.613 81.06c-.98 12.94-22.76 21.84-48.64 19.87-25.88-1.96-46.07-14.05-45.08-26.99.27-3.6 2.15-6.88 5.28-9.7 14.3-.81 29.16-1.24 44.58-1.24 10.92 0 21.61.29 32.07.86 7.75 4.82 12.27 10.91 11.79 17.2z"/><path style="fill:#112c41" d="M373.135 102.204c-2.382 0-4.799-.092-7.239-.277-12.668-.959-24.407-4.339-33.054-9.517-8.858-5.304-13.456-11.891-12.947-18.547.283-3.781 2.17-7.27 5.607-10.367a.99.99 0 0 1 .613-.255A794.064 794.064 0 0 1 370.753 62c10.826 0 21.634.29 32.125.862.168.009.331.061.474.149 8.399 5.223 12.752 11.66 12.259 18.125-.504 6.656-6.045 12.471-15.601 16.376-7.534 3.077-16.885 4.692-26.875 4.692zm-46.55-36.986c-2.879 2.679-4.458 5.637-4.695 8.797-.449 5.863 3.806 11.786 11.98 16.68 8.386 5.021 19.814 8.302 32.178 9.239 12.364.941 24.156-.576 33.204-4.272 8.819-3.603 13.92-8.815 14.364-14.676v-.001c.43-5.631-3.511-11.356-11.104-16.139A589.812 589.812 0 0 0 370.753 64c-14.91 0-29.768.41-44.168 1.218z"/></g><path style="fill:#fff" d="M182.345 331.107c-23 3-46.592-30.837-67.592-53.107-33-35-86.09-61-86.09-61-10.91-12-17.91-25-11.91-35 1.97-3.28 14.31-17.27 38.74-34.56 49.96 21.1 147.892 80.867 163.852 141.667-15 17-27 39-37 42z"/><path style="fill:#112c41" d="M115.753 323a.997.997 0 0 1-.728-.314c-32.656-34.635-86.613-104.374-87.154-105.074-13.246-14.565-17.405-27.078-11.976-36.126 2.466-4.112 25.774-30.777 77.012-58.246 44.562-23.89 121.194-53.692 233.209-59.999A794.002 794.002 0 0 1 370.753 62c10.826 0 21.634.29 32.125.862 100.21 5.365 176.832 35.088 223.463 59.078 51.479 26.483 81.777 53.919 83.377 59.798 4.485 16.441-7.362 40.975-35.211 72.92a1 1 0 1 1-1.507-1.314c18.825-21.594 40.143-51.454 34.789-71.08-1.193-4.381-29.199-31.195-82.363-58.545-46.458-23.9-122.798-53.513-222.656-58.859a589.874 589.874 0 0 0-32.017-.86 791.84 791.84 0 0 0-44.523 1.238c-61.625 3.47-151.964 16.655-232.376 59.764-50.836 27.254-73.823 53.478-76.242 57.512-6.227 10.378 2.976 24.115 11.792 33.813.592.761 54.489 70.423 87.078 104.987a1 1 0 0 1-.729 1.686z"/><g><ellipse transform="matrix(0.9939 -0.1101 0.1101 0.9939 -41.9599 49.9576)" style="fill:#ffd6c0" cx="431.303" cy="404.856" rx="40.138" ry="21.619"/><path style="fill:#112c41" d="M425.655 427.791c-18.914 0-34.035-7.531-35.24-18.405-.678-6.123 3.025-12.31 10.427-17.422 7.219-4.985 17.152-8.391 27.97-9.59 22.545-2.497 42.005 5.555 43.379 17.951 1.373 12.396-15.852 24.514-38.397 27.012a73.917 73.917 0 0 1-8.139.454zm7.919-2.442.11.994-.11-.994c21.449-2.376 37.882-13.503 36.63-24.803-1.252-11.299-19.72-18.56-41.171-16.183-10.494 1.163-20.103 4.447-27.054 9.248-6.769 4.674-10.169 10.199-9.576 15.555 1.252 11.3 19.722 18.561 41.171 16.183z"/></g><g><path style="fill:#112c41" d="M184.415 321.127c-1.71 2.13-5.73 2.23-11.5.58-.53-.14-1.07-.3-1.62-.48-16.54-5.29-49.67-28.19-80.24-52.76-27.95-22.46-50.19-44.94-60.46-60.11-1.28-1.89-2.38-3.67-3.27-5.32-2.95-5.39-3.76-9.41-2.03-11.57 1.98-2.47 7.07-2.21 14.4.32 6.61 2.28 15.03 6.41 24.65 12.05.32.18.64.37.95.55 1.08.64 2.17 1.3 3.28 1.97.76.46 1.52.93 2.29 1.41a371.2 371.2 0 0 1 14.84 9.74c1.03.71 2.06 1.43 3.1 2.16 1 .7 2 1.41 3.01 2.13 7.39 5.28 15.07 11.08 22.83 17.32 1.68 1.35 3.36 2.73 5.05 4.13.84.7 1.68 1.41 2.52 2.12 14.7 12.42 28.63 25.91 39.44 37.64l.41.44c6.65 7.23 12.1 13.78 15.8 18.98.77 1.07 1.48 2.12 2.13 3.12 4.82 7.42 6.56 12.92 4.42 15.58z"/><path style="fill:#112c41" d="M179.639 323.84c-1.932 0-4.268-.39-6.999-1.171a30.374 30.374 0 0 1-1.656-.491c-17.998-5.756-53.415-31.118-80.556-52.932-27.216-21.87-49.894-44.423-60.662-60.329-1.323-1.954-2.441-3.773-3.322-5.406-3.252-5.943-3.903-10.207-1.93-12.67 2.23-2.783 7.448-2.782 15.507 0 6.666 2.299 15.02 6.381 24.829 12.133.222.125.459.263.693.4l.254.148c.973.576 1.947 1.165 2.936 1.762l.359.217c.765.463 1.528.935 2.302 1.417a374.301 374.301 0 0 1 11.811 7.67c1.022.691 2.044 1.393 3.065 2.094 1.034.713 2.066 1.434 3.109 2.166 1.001.701 2.004 1.412 3.016 2.134a507.46 507.46 0 0 1 22.876 17.355 448.892 448.892 0 0 1 5.061 4.139c.824.687 1.646 1.381 2.468 2.076 13.932 11.771 27.971 25.169 39.59 37.776l.408.438c6.661 7.242 12.152 13.838 15.881 19.08.717.997 1.423 2.03 2.154 3.155 5.287 8.139 6.755 13.775 4.362 16.751-1.116 1.392-2.976 2.088-5.556 2.088zM30.061 190.746c-1.91 0-3.265.448-3.986 1.347-1.379 1.722-.624 5.438 2.127 10.464.852 1.58 1.935 3.341 3.221 5.24 10.662 15.75 33.189 38.139 60.258 59.891 27.001 21.701 62.175 46.912 79.918 52.587.537.176 1.059.331 1.571.466 5.395 1.542 9.104 1.456 10.465-.239v-.001c1.741-2.164.15-7.281-4.479-14.408a76.952 76.952 0 0 0-2.103-3.081c-3.685-5.179-9.122-11.708-15.724-18.887l-.405-.435c-11.568-12.553-25.543-25.889-39.354-37.558a494.187 494.187 0 0 0-2.515-2.116 429.176 429.176 0 0 0-5.036-4.118 505.123 505.123 0 0 0-22.785-17.286 427.238 427.238 0 0 0-3.002-2.124 433.28 433.28 0 0 0-3.094-2.156 372.648 372.648 0 0 0-14.801-9.715c-.767-.478-1.523-.946-2.279-1.403l-.358-.216c-.984-.594-1.953-1.18-2.914-1.749l-.251-.147c-.224-.131-.451-.264-.679-.392-9.712-5.694-17.945-9.72-24.486-11.977-3.831-1.322-6.982-1.987-9.309-1.987z"/></g><g><path style="fill:#112c41" d="M696.473 200.45c-7.94 16.47-26.84 42.01-51.45 68.36-37.51 40.16-74.07 66.96-81.67 59.87-6.79-6.35 11.85-37.62 42.67-72.87 2.89-3.3 5.88-6.64 8.98-10 .82-.9 1.66-1.8 2.5-2.7 24.67-26.41 48.93-47.05 64.81-56.06 8.27-4.7 14.27-6.24 16.87-3.81 2.61 2.44 1.46 8.58-2.71 17.21z"/><path style="fill:#112c41" d="M566.713 330.774c-1.688 0-3.051-.438-4.042-1.362-8.44-7.894 16.166-44.027 42.599-74.26a517.687 517.687 0 0 1 8.998-10.02c.818-.898 1.661-1.801 2.504-2.704 24.07-25.767 48.386-46.794 65.048-56.247 9.067-5.153 15.139-6.389 18.046-3.671 2.919 2.729 2.081 8.912-2.492 18.376v-.001c-8.322 17.262-27.619 42.91-51.62 68.608-30.031 32.152-65.284 61.281-79.041 61.281zm128.983-147.677c-2.345 0-6.284 1.069-12.888 4.823-16.249 9.219-40.992 30.629-64.573 55.873-.837.897-1.674 1.794-2.491 2.691a518.656 518.656 0 0 0-8.967 9.985c-14.979 17.133-27.526 33.868-35.329 47.121-10.723 18.213-8.754 23.103-7.41 24.36 6.291 5.869 40.042-16.767 80.256-59.822 23.871-25.559 43.041-51.021 51.28-68.112v-.001c5.439-11.256 4.169-14.884 2.927-16.045-.479-.446-1.324-.873-2.805-.873z"/></g><g><path style="fill:#ffd6c0" d="M496.755 472.997c7 17-3 28-22 24 5 12-2 25-21 26-10.57.56-43.51 2.39-74.91 4.07h-.07c-22.03 1.18-43.29 2.27-55.52 2.79-.06.01-.12.01-.19.01-.74.03-1.44.06-2.1.09-.41.01-.81.02-1.21.04-26 1-220 21-290-107-.45-.81-.89-1.63-1.32-2.44-46.64-87.48-23.91-165.87-4.09-211.45.88-2.03 1.9-4.07 2.98-6.07 2.44-4.53 5.14-8.78 7.02-11.93 6.62 2.29 20.07 7.05 30 12.73.32.18.64.37.95.55 1.08.64 2.17 1.3 3.28 1.97.76.46 1.52.93 2.29 1.41a371.2 371.2 0 0 1 14.84 9.74c1.03.71 2.06 1.43 3.1 2.16 1 .7 2 1.41 3.01 2.13 7.39 5.28 15.07 11.08 22.83 17.32 1.68 1.35 3.36 2.73 5.05 4.13.84.7 1.68 1.41 2.52 2.12 14.2 12.05 28.25 25.66 39.44 37.64l.41.44c6.65 7.23 12.1 13.78 15.8 18.98.77 1.07 1.48 2.12 2.13 3.12-4.03 5.01-6.31 10.48-7.08 16.16-3.78 27.22 26.62 59.24 62.84 68.29 49.18 12.3 108 5 152 5s64.09 1.99 93 19c34 20 41 57 16 59z"/><path style="fill:#112c41" d="M273.118 532.687c-25.736 0-58.973-1.78-93.064-8.983-72.297-15.276-123.16-48.997-151.176-100.226-.45-.81-.893-1.636-1.326-2.452-35.249-66.114-36.636-137.548-4.124-212.317.827-1.907 1.814-3.918 3.017-6.146 1.821-3.381 3.745-6.54 5.442-9.326.575-.945 1.115-1.83 1.599-2.642a1.002 1.002 0 0 1 1.186-.433c8.45 2.923 20.771 7.431 30.17 12.807.231.13.469.269.702.405l.254.148c.973.576 1.947 1.165 2.936 1.762l.359.217c.765.463 1.528.935 2.302 1.417a372.567 372.567 0 0 1 14.876 9.765c1.034.713 2.066 1.434 3.109 2.166 1.001.701 2.004 1.412 3.016 2.134a507.46 507.46 0 0 1 22.876 17.355 448.892 448.892 0 0 1 5.061 4.139c.824.687 1.646 1.381 2.468 2.076 13.407 11.376 27.443 24.772 39.585 37.771l.413.443c6.661 7.241 12.152 13.838 15.881 19.08.717.997 1.423 2.03 2.154 3.155a1 1 0 0 1-.059 1.172c-3.786 4.707-6.097 9.978-6.868 15.667-3.63 26.137 25.965 58.159 62.091 67.186 36.308 9.081 78.108 7.429 114.986 5.972 13.042-.515 25.36-1.002 36.771-1.002 43.332 0 63.923 1.731 93.507 19.138 13.685 8.05 21.288 17.625 25.257 24.24 5.179 8.632 7.248 17.503 5.677 24.337-1.578 6.863-6.538 11.136-14.033 12.14 2.886 7.777 2.366 14.564-1.502 19.215-4.042 4.858-11.397 6.73-20.356 5.24 1.763 5.44 1.193 11.009-1.641 15.511-3.811 6.056-11.218 9.67-20.856 10.177-4.358.231-12.521.678-22.811 1.241a41869.09 41869.09 0 0 1-52.098 2.829l-.124.001c-17.654.947-41.645 2.201-55.434 2.787-.086.01-.176.013-.276.013-.698.029-1.396.059-2.054.089-.423.01-.815.02-1.206.04-1.569.061-3.728.189-6.462.351-8.436.502-22.567 1.341-40.225 1.341zM34.785 192.318c-.373.618-.772 1.273-1.189 1.958-1.684 2.765-3.593 5.899-5.39 9.235-1.176 2.178-2.139 4.139-2.943 5.994-32.258 74.182-30.893 145.032 4.055 210.582.428.806.865 1.621 1.312 2.425 54.119 98.961 183.548 112.721 282.596 106.839 2.745-.163 4.914-.292 6.492-.352.397-.02.806-.031 1.225-.041.64-.03 1.341-.06 2.083-.09l.152.997-.051-.999c13.86-.594 37.875-1.849 55.596-2.798l.124-.001c18.397-.986 37.379-2.025 52.042-2.828 10.292-.563 18.456-1.01 22.815-1.241 8.971-.472 15.814-3.755 19.269-9.245 2.778-4.415 3.092-10.017.861-15.372a.998.998 0 0 1 1.129-1.363c9.001 1.895 16.35.353 20.163-4.23 3.575-4.297 3.826-10.835.707-18.41a1.002 1.002 0 0 1 .845-1.378c7.295-.584 12.115-4.396 13.572-10.736 2.863-12.453-7.576-33.215-29.999-46.405-29.158-17.156-49.548-18.862-92.493-18.862-11.372 0-23.671.486-36.692 1-37.012 1.462-78.964 3.12-115.55-6.03-17.578-4.393-34.676-14.46-46.91-27.621-12.429-13.372-18.508-28.599-16.678-41.777.789-5.822 3.09-11.228 6.839-16.076a74.017 74.017 0 0 0-1.711-2.482c-3.685-5.179-9.122-11.708-15.724-18.887l-.405-.435c-12.09-12.944-26.067-26.283-39.356-37.56a501.278 501.278 0 0 0-2.513-2.114 439.673 439.673 0 0 0-5.036-4.119 505.123 505.123 0 0 0-22.785-17.286 405.065 405.065 0 0 0-3.002-2.124 433.28 433.28 0 0 0-3.094-2.156 372.648 372.648 0 0 0-14.801-9.715c-.767-.478-1.523-.946-2.279-1.403l-.358-.216c-.984-.594-1.953-1.18-2.914-1.749l-.251-.147c-.224-.131-.451-.264-.679-.392-8.985-5.136-20.735-9.489-29.074-12.39z"/></g><path style="fill:#f5b9ab" d="M378.775 527.067c-28.86 1.74-44.43 2.37-55.52 2.79-.06.01-.12.01-.19.01l-2.1.09c-.41.01-.81.02-1.21.04-26 1-220 21-290-107-.45-.81-.89-1.63-1.32-2.44-46.64-87.48-23.91-165.87-4.09-211.45.88-2.03 1.9-4.07 2.98-6.07 2.44-4.53 5.14-8.78 7.02-11.93 6.62 2.29 20.07 7.05 30 12.73.32.18.64.37.95.55-47.54 78.61-47.54 168.61 3.46 230.61 73.86 89.8 201 85 310.02 92.07z"/><g><path style="fill:#ffd6c0" d="M750.753 390c-65 119-198 48-246 0-32.38-32.38-62.93-78.4-84-142.69v-.01c-10.17-31.01-18.12-66.27-23-106.3-22 1-30-38-16-53 1-21 16-40 49-37-17-18-40-15-50-21s-5-29 32-29 73 28 92 59 21.15 78.95 28 100c14 43 29 87 63 108 .82-.9 20.91-23.99 21.75-24.89 24.67-26.41 48.93-47.05 64.81-56.06 4.31 3.85 9.11 8.34 14.16 13.4 16.14 16.17 35.52 38.56 49.61 64.71 19.66 36.51 28.98 80.34 4.67 124.84z"/><path style="fill:#112c41" d="M648.397 456.243c-57.43 0-116.419-37.604-144.351-65.536-36.865-36.865-65.208-85.006-84.243-143.085a.898.898 0 0 1-.021-.074c-10.531-32.129-18.239-67.628-22.911-105.529-7.973-.035-14.916-5.24-19.153-14.415-7.024-15.208-3.973-32.168 3.055-40.013.624-11.304 5.193-21.202 12.89-27.903 8.366-7.282 20.248-10.676 34.484-9.882-10.585-10.012-23.205-12.551-33.459-14.613-5.831-1.173-10.867-2.186-14.449-4.335-4.198-2.518-5.954-7.594-4.476-12.932C378.163 9.26 389.141 0 412.753 0c38.96 0 74.708 29.872 92.853 59.478 12.948 21.126 18.093 49.854 22.226 72.937 1.973 11.015 3.676 20.528 5.872 27.276 13.053 40.093 27.834 85.498 61.861 107.013 1.346-1.534 4.867-5.573 8.557-9.804 5.984-6.863 12.172-13.959 12.65-14.472 24.07-25.767 48.386-46.794 65.048-56.248a1.002 1.002 0 0 1 1.16.124 342.76 342.76 0 0 1 14.201 13.44c21.327 21.367 38.077 43.217 49.783 64.942 24.173 44.891 25.743 87.213 4.667 125.793-20.538 37.601-49.39 59.315-85.755 64.542-5.785.831-11.628 1.222-17.479 1.222zm-226.673-209.18c18.936 57.75 47.108 105.602 83.736 142.229 30.493 30.493 98.3 72.63 160.131 63.749 35.707-5.132 64.064-26.503 84.284-63.521 20.731-37.948 19.159-79.629-4.673-123.886-11.614-21.554-28.247-43.248-49.438-64.478a340.933 340.933 0 0 0-13.581-12.88c-16.254 9.406-40.668 30.592-63.95 55.516-.455.488-6.91 7.89-12.605 14.421-4.703 5.394-8.765 10.052-9.137 10.46-.324.355-.856.43-1.265.177-35.156-21.714-50.175-67.843-63.426-108.541-2.239-6.879-3.953-16.455-5.939-27.542-4.104-22.918-9.211-51.44-21.963-72.245C486.047 31.393 450.939 2 412.753 2c-22.491 0-32.859 8.502-35.063 16.459-1.232 4.447.173 8.64 3.577 10.683 3.286 1.971 8.165 2.953 13.815 4.089 11.146 2.242 25.017 5.032 36.398 17.082a1 1 0 0 1-.818 1.683c-14.878-1.353-27.218 1.829-35.686 9.2-7.364 6.41-11.705 15.946-12.224 26.852a.999.999 0 0 1-.268.635c-7.576 8.117-8.9 25.201-2.951 38.082 2.375 5.144 7.892 13.708 18.174 13.236a.996.996 0 0 1 1.038.878c4.649 38.134 12.373 73.834 22.958 106.11a.898.898 0 0 1 .021.074z"/></g><path style="fill:#f5b9ab" d="M750.753 390c-65 119-198 48-246 0-32.38-32.38-62.93-78.4-84-142.69l-2-7.31c46 119 171 221 259 189 61.784-22.467 97-95 68.34-163.8 0-.01-.01-.03-.01-.04 19.66 36.51 28.98 80.34 4.67 124.84z"/><path style="fill:#112c41" d="M648.397 456.243c-57.43 0-116.419-37.604-144.351-65.536-26.432-26.432-48.663-58.954-66.076-96.663-20.237-43.824-34.063-94.966-41.1-152.026-7.973-.035-14.916-5.24-19.153-14.415-7.024-15.208-3.973-32.168 3.055-40.013.624-11.304 5.193-21.203 12.89-27.903 8.366-7.282 20.248-10.676 34.484-9.882-10.585-10.012-23.205-12.551-33.459-14.613-5.831-1.173-10.867-2.186-14.449-4.335-4.198-2.518-5.954-7.594-4.476-12.932C378.163 9.26 389.141 0 412.753 0c38.96 0 74.708 29.872 92.853 59.478 12.947 21.123 18.09 49.847 22.223 72.927 1.973 11.019 3.677 20.536 5.875 27.286 13.054 40.093 27.834 85.498 61.861 107.013 1.346-1.534 4.867-5.573 8.557-9.804 5.984-6.863 12.172-13.959 12.65-14.472 24.07-25.767 48.386-46.794 65.048-56.248a1 1 0 0 1 1.16.124 342.76 342.76 0 0 1 14.201 13.44c26.778 26.84 46.122 54.087 57.494 80.983 16.475 38.965 15.451 75.892-3.044 109.752l-.878-.479.878.479c-20.538 37.601-49.39 59.315-85.755 64.542-5.785.831-11.628 1.222-17.479 1.222zM397.753 140a1 1 0 0 1 .992.879c6.977 57.213 20.785 108.463 41.04 152.327 17.314 37.495 39.41 69.823 65.674 96.087 27.677 27.677 86.105 64.95 142.892 64.954 5.778 0 11.529-.385 17.239-1.205 35.707-5.132 64.064-26.503 84.284-63.521 18.188-33.298 19.183-69.64 2.958-108.014-11.272-26.659-30.472-53.693-57.068-80.35a341.656 341.656 0 0 0-13.581-12.88c-16.254 9.406-40.668 30.592-63.95 55.516-.455.488-6.91 7.89-12.605 14.421-4.703 5.394-8.765 10.052-9.137 10.46a1 1 0 0 1-1.264.177c-35.156-21.714-50.175-67.843-63.426-108.541-2.24-6.881-3.956-16.46-5.942-27.552-4.104-22.915-9.21-51.433-21.96-72.235C486.047 31.393 450.939 2 412.753 2c-22.491 0-32.859 8.502-35.063 16.459-1.232 4.447.173 8.64 3.577 10.683 3.286 1.971 8.165 2.953 13.815 4.089 11.146 2.242 25.017 5.032 36.398 17.082a1 1 0 0 1-.818 1.683c-14.878-1.353-27.218 1.829-35.686 9.2-7.364 6.41-11.705 15.946-12.224 26.852a.999.999 0 0 1-.268.635c-7.576 8.117-8.9 25.201-2.951 38.082 2.375 5.144 7.892 13.708 18.174 13.236l.046-.001zm77.428 359.111a1 1 0 0 1-.899-.56c-3.507-7.155-13.254-11.886-20.813-14.596-8.896-3.188-20.025-5.415-29.771-5.957a1 1 0 1 1 .111-1.997c16.553.919 45.38 7.616 52.27 21.669a1 1 0 0 1-.898 1.441zm22.225-23.4c-.391 0-.762-.231-.923-.614-3.798-9.058-20.624-30.223-45.882-34.109a1 1 0 1 1 .304-1.976c26.086 4.013 43.489 25.93 47.422 35.312a1 1 0 0 1-.921 1.387z"/><path style="fill:#112c41" d="M398.476 147.728a1 1 0 0 1-.991-.875c-1.719-13.679.252-34.736.272-34.947a1 1 0 0 1 1.991.189c-.02.209-1.969 21.05-.279 34.508a1 1 0 0 1-.993 1.125zm-20.057-53.985a1 1 0 0 1-.861-1.508c6.318-10.717 24.782-21.559 41.642-13.13a1 1 0 0 1-.895 1.789c-10.019-5.01-29.682-3.492-39.024 12.356a.998.998 0 0 1-.862.493zM651.754 298a.968.968 0 0 1-.243-.03c-19.653-4.913-51.355-24.365-65.756-35.932a1 1 0 1 1 1.253-1.559c22.467 18.046 52.688 32.476 64.989 35.551a1 1 0 0 1-.243 1.97zm-472.688 34.411c-1.912 0-3.95-.422-6.127-1.39a1 1 0 1 1 .812-1.827c8.681 3.856 14.88-2.229 19.798-8.692a576.65 576.65 0 0 0 3.523-4.7c8.501-11.411 21.348-28.655 32.704-36.517a1 1 0 1 1 1.138 1.645c-11.086 7.675-23.815 24.761-32.238 36.067-1.308 1.755-2.495 3.349-3.535 4.716-3.973 5.221-9.193 10.698-16.075 10.698z"/><path style="fill:#112c41" d="M273.118 532.687c-25.736 0-58.973-1.78-93.064-8.983-72.297-15.276-123.16-48.997-151.176-100.226-.45-.81-.893-1.636-1.326-2.452-35.249-66.114-36.636-137.548-4.124-212.317.827-1.907 1.814-3.918 3.017-6.146 1.821-3.381 3.745-6.54 5.442-9.326.575-.945 1.115-1.83 1.599-2.642a1.002 1.002 0 0 1 1.186-.433c8.45 2.923 20.771 7.431 30.17 12.807.231.13.469.269.702.405l.254.148c.973.576 1.947 1.165 2.936 1.762l.359.217c.765.463 1.528.935 2.302 1.417a372.567 372.567 0 0 1 14.876 9.765c1.034.713 2.066 1.434 3.109 2.166 1.001.701 2.004 1.412 3.016 2.134a507.46 507.46 0 0 1 22.876 17.355 448.892 448.892 0 0 1 5.061 4.139c.824.687 1.646 1.381 2.468 2.076 13.407 11.376 27.443 24.772 39.585 37.771l.413.443c6.661 7.241 12.152 13.838 15.881 19.08.717.997 1.423 2.03 2.154 3.155a1 1 0 0 1-.059 1.172c-3.786 4.707-6.097 9.978-6.868 15.667-3.63 26.137 25.965 58.159 62.091 67.186 36.308 9.081 78.108 7.429 114.986 5.972 13.042-.515 25.36-1.002 36.771-1.002 43.332 0 63.923 1.731 93.507 19.138 13.685 8.05 21.288 17.625 25.257 24.24 5.179 8.632 7.248 17.503 5.677 24.337-1.578 6.863-6.538 11.136-14.033 12.14 2.886 7.777 2.366 14.564-1.502 19.215-4.042 4.858-11.397 6.73-20.356 5.24 1.763 5.44 1.193 11.009-1.641 15.511-3.811 6.056-11.218 9.67-20.856 10.177-4.358.231-12.521.678-22.811 1.241a41869.09 41869.09 0 0 1-52.098 2.829l-.124.001c-17.654.947-41.645 2.201-55.434 2.787-.086.01-.176.013-.276.013-.698.029-1.396.059-2.054.089-.423.01-.815.02-1.206.04-1.569.061-3.728.189-6.462.351-8.436.502-22.567 1.341-40.225 1.341zM34.785 192.318c-.373.618-.772 1.273-1.189 1.958-1.684 2.765-3.593 5.899-5.39 9.235-1.176 2.178-2.139 4.139-2.943 5.994-32.258 74.182-30.893 145.032 4.055 210.582.428.806.865 1.621 1.312 2.425 54.119 98.961 183.548 112.721 282.596 106.839 2.745-.163 4.914-.292 6.492-.352.397-.02.806-.031 1.225-.041.64-.03 1.341-.06 2.083-.09l.152.997-.051-.999c13.86-.594 37.875-1.849 55.596-2.798l.124-.001c18.397-.986 37.379-2.025 52.042-2.828 10.292-.563 18.456-1.01 22.815-1.241 8.971-.472 15.814-3.755 19.269-9.245 2.778-4.415 3.092-10.017.861-15.372a.998.998 0 0 1 1.129-1.363c9.001 1.895 16.35.353 20.163-4.23 3.575-4.297 3.826-10.835.707-18.41a1.002 1.002 0 0 1 .845-1.378c7.295-.584 12.115-4.396 13.572-10.736 2.863-12.453-7.576-33.215-29.999-46.405-29.158-17.156-49.548-18.862-92.493-18.862-11.372 0-23.671.486-36.692 1-37.012 1.462-78.964 3.12-115.55-6.03-17.578-4.393-34.676-14.46-46.91-27.621-12.429-13.372-18.508-28.599-16.678-41.777.789-5.822 3.09-11.228 6.839-16.076a74.017 74.017 0 0 0-1.711-2.482c-3.685-5.179-9.122-11.708-15.724-18.887l-.405-.435c-12.09-12.944-26.067-26.283-39.356-37.56a501.278 501.278 0 0 0-2.513-2.114 439.673 439.673 0 0 0-5.036-4.119 505.123 505.123 0 0 0-22.785-17.286 405.065 405.065 0 0 0-3.002-2.124 433.28 433.28 0 0 0-3.094-2.156 372.648 372.648 0 0 0-14.801-9.715c-.767-.478-1.523-.946-2.279-1.403l-.358-.216c-.984-.594-1.953-1.18-2.914-1.749l-.251-.147c-.224-.131-.451-.264-.679-.392-8.985-5.136-20.735-9.489-29.074-12.39z"/></g></g></svg></g><g transform="translate(1633.0 940.0) rotate(0.0 -373.0 177.0) scale(-1.4528373172755211 1.4563226618616247)"><svg width="513.478" height="243.078" viewBox="0 0 513.478 243.078"><path d="M393.928 242.078H57.548a6.493 6.493 0 0 1-6.32-5l-3.07-13-46-194.72C-2.5 10.057 7.286 1.121 24.538 1.078c71.435-.176 285.74 0 285.74 0a36.931 36.931 0 0 1 35.91 28.42l2.66 11.25c.07.32.14.64.22.96l43.09 182.37 3.07 13 .61 2.59a1.959 1.959 0 0 1-1.91 2.41z" fill="#dedffe"/><path d="M393.928 243.078H57.548a7.464 7.464 0 0 1-7.294-5.77L1.184 29.588c-2.231-9.242-1.323-16.527 2.7-21.647S15.045.1 24.535.078c70.62-.175 283.6 0 285.744 0a37.932 37.932 0 0 1 36.882 29.191l2.661 11.249c.082.375.144.661.215.948l46.775 197.973a2.959 2.959 0 0 1-2.884 3.639zM130.179 2c-42.342 0-81.979.02-105.638.078C15.685 2.1 9.084 4.555 5.454 9.176S1.049 20.5 3.129 29.124L52.2 236.848a5.471 5.471 0 0 0 5.347 4.23h336.38a.959.959 0 0 0 .937-1.18l-3.681-15.59-43.089-182.369c-.073-.293-.14-.6-.207-.9l-2.673-11.307a35.932 35.932 0 0 0-34.936-27.65C308.852 2.077 214.2 2 130.179 2z" fill="#112c41"/><path d="M512.478 229.578v7a5.5 5.5 0 0 1-5.5 5.5H57.545a6.491 6.491 0 0 1-6.317-5l-3.07-13h458.82a5.5 5.5 0 0 1 5.5 5.5z" fill="#b2b0f7"/><path d="M506.978 243.078H57.545a7.464 7.464 0 0 1-7.291-5.77l-3.07-13a1 1 0 0 1 .974-1.23h458.82a6.508 6.508 0 0 1 6.5 6.5v7a6.508 6.508 0 0 1-6.5 6.5zm-457.557-18 2.78 11.77a5.47 5.47 0 0 0 5.344 4.23h449.433a4.5 4.5 0 0 0 4.5-4.5v-7a4.505 4.505 0 0 0-4.5-4.5z" fill="#112c41"/><path d="M395.228 237.078a4.066 4.066 0 0 1-3.957 5H57.548a6.493 6.493 0 0 1-6.32-5l-3.07-13h344z" fill="#cbc8ff"/><path d="M391.271 243.078H57.548a7.464 7.464 0 0 1-7.294-5.77l-3.07-13a1 1 0 0 1 .974-1.23h344a1 1 0 0 1 .973.77l3.07 13a5.067 5.067 0 0 1-4.93 6.229zm-341.85-18 2.78 11.77a5.471 5.471 0 0 0 5.347 4.23h333.723a3.065 3.065 0 0 0 2.983-3.77l-2.887-12.23z" fill="#112c41"/><circle cx="183.478" cy="118.078" fill="#fff" r="21.447"/></svg></g></svg>