<svg height="209.471" viewBox="0 0 473.16 209.471" width="473.16" xmlns="http://www.w3.org/2000/svg"><path d="m468.141 169.455c-142.399 52.022-320.724 52.022-463.123 0-4.011-1.465-5.322-6.492-2.541-9.733 31.074-36.219 58.956-68.717 84.113-98.038 1.573-1.833 4.066-2.548 6.382-1.863 89.786 26.586 197.431 26.586 287.216 0 2.316-.686 4.809.03 6.382 1.863 25.157 29.322 53.038 61.819 84.113 98.038 2.781 3.241 1.47 8.268-2.541 9.733z" fill="#ddfeee"/><path d="m236.58 209.471c-81.735 0-161.927-13.513-231.903-39.077-2.191-.8-3.852-2.626-4.441-4.884-.592-2.26-.037-4.667 1.483-6.439l84.112-98.039c1.816-2.116 4.731-2.968 7.425-2.171 89.746 26.575 196.905 26.574 286.647 0 2.696-.796 5.61.055 7.425 2.171l84.113 98.038c1.521 1.772 2.075 4.18 1.484 6.44-.591 2.258-2.252 4.084-4.442 4.884-69.977 25.564-150.168 39.077-231.904 39.077zm-145.359-148.905c-1.47 0-2.894.628-3.872 1.768l-84.113 98.039c-1.109 1.293-1.498 2.981-1.066 4.631.431 1.648 1.595 2.928 3.192 3.511 142.623 52.103 319.817 52.103 462.437 0 1.598-.583 2.762-1.863 3.192-3.511.432-1.65.043-3.338-1.066-4.632l-84.113-98.038c-1.303-1.52-3.398-2.129-5.339-1.556-45.045 13.338-94.478 20.008-143.892 20.009-49.427.001-98.837-6.668-143.893-20.009-.484-.144-.979-.213-1.467-.213z" fill="#112c41"/><path d="m286.009 135.434c4.008 18-17.876 35.697-49.429 35.681-31.553.016-53.437-17.681-49.429-35.681 3.787-17.109 25.744-28.744 49.429-28.788 23.684.043 45.642 11.679 49.429 28.788z" fill="#7bdaac"/><path d="m236.622 172.115c-.025 0-.055 0-.083 0-19.192 0-36.523-6.747-45.243-17.615-4.82-6.009-6.592-12.677-5.121-19.283 3.723-16.812 25.392-29.524 50.404-29.57 25.016.045 46.684 12.759 50.407 29.57 1.471 6.606-.301 13.274-5.121 19.283-8.719 10.867-26.052 17.615-45.243 17.615zm-.042-2h.041c18.601 0 35.336-6.461 43.684-16.867 4.428-5.52 6.063-11.604 4.729-17.597-3.524-15.922-24.354-27.961-48.454-28.005-24.096.044-44.927 12.083-48.451 28.004-1.335 5.994.301 12.079 4.729 17.598 8.348 10.405 25.085 16.867 43.683 16.867h.041z" fill="#112c41"/><path d="m120.165 86.837c-3.556 6.23-14.225 9.762-23.516 7.428-9.222-2.31-12.679-9.305-8.079-15.183 4.513-5.771 14.567-8.543 22.761-6.579 8.246 1.988 12.321 8.223 8.834 14.334z" fill="#7bdaac"/><path d="m102.559 95.977c-2.071 0-4.15-.238-6.154-.741-5.32-1.333-9.111-4.249-10.399-8.002-1-2.912-.369-6.025 1.777-8.767 4.664-5.966 15.108-9.012 23.782-6.935 4.921 1.186 8.608 3.871 10.119 7.367 1.156 2.678.925 5.673-.651 8.435-3.012 5.277-10.683 8.644-18.474 8.644zm3.234-23.108c-6.534 0-13.124 2.595-16.436 6.83-1.739 2.222-2.244 4.603-1.461 6.885 1.064 3.1 4.343 5.546 8.995 6.711 8.738 2.198 19-.989 22.404-6.954 1.275-2.234 1.466-4.534.551-6.65-1.258-2.913-4.447-5.178-8.75-6.215-1.717-.412-3.509-.607-5.304-.607z" fill="#112c41"/><path d="m437.182 150.199c5.72 7.401.816 16.772-11.516 20.277-12.454 3.552-26.575-.546-31.042-8.461-4.371-7.746 1.508-15.998 12.705-19.042 11.102-3.001 24.25-.025 29.852 7.226z" fill="#7bdaac"/><path d="m416.315 172.756c-9.747 0-18.973-3.89-22.562-10.25-1.839-3.258-2.081-6.726-.701-10.029 1.994-4.774 7.103-8.59 14.015-10.469 11.621-3.142 25.195.188 30.906 7.58 2.49 3.222 3.21 6.978 2.026 10.575-1.68 5.104-6.805 9.213-14.061 11.275-3.142.896-6.412 1.319-9.624 1.319zm-.056-29.945c-2.901 0-5.844.363-8.669 1.126-6.218 1.691-10.964 5.171-12.692 9.31-1.134 2.713-.927 5.575.598 8.275 4.351 7.712 18.038 11.37 29.896 7.991 6.511-1.851 11.261-5.58 12.708-9.977.984-2.99.394-6.007-1.708-8.727-3.892-5.037-11.843-7.999-20.132-7.999z" fill="#112c41"/><path d="m313.757 111.685h-32.2c-13.301-4.199-29.788-6.685-47.648-6.685s-34.347 2.486-47.648 6.685h-32.504l.314 27c0 .053-.009.105-.009.157 0 18.691 35.749 33.843 79.848 33.843s79.848-15.152 79.848-33.843c0-.053-.009-.105-.009-.157h.009v-27z" fill="#ffe993"/><path d="m233.909 173.685c-21.459 0-41.649-3.548-56.851-9.992-15.475-6.559-23.997-15.384-23.997-24.851 0-.028.006-.135.008-.163l-.313-26.983c-.003-.267.101-.525.289-.715s.443-.297.711-.297h32.352c13.918-4.374 30.443-6.685 47.801-6.685s33.883 2.312 47.801 6.685h32.047c.553 0 1 .448 1 1v27c0 .024 0 .049-.003.073.002.028.003.056.003.085 0 9.467-8.522 18.292-23.997 24.851-15.201 6.443-35.392 9.992-56.851 9.992zm-79.141-61 .302 25.988c0 .032-.005.142-.008.174 0 18.105 35.37 32.838 78.847 32.838s78.848-14.733 78.848-32.842c-.006-.049-.009-.104-.009-.158 0-.045.003-.089.009-.133v-25.867h-31.2c-.103 0-.204-.016-.301-.046-13.757-4.343-30.129-6.639-47.347-6.639s-33.59 2.295-47.347 6.639c-.097.031-.198.046-.301.046z" fill="#112c41"/><path d="m313.757 112.843c0 18.691-35.749 33.843-79.848 33.843s-80.152-15.309-80.152-34 36.053-33.685 80.152-33.685 79.848 15.152 79.848 33.843z" fill="#ffe993"/><path d="m233.909 147.685c-44.748 0-81.152-15.701-81.152-35 0-9.451 8.577-18.249 24.152-24.774 15.258-6.391 35.501-9.911 57-9.911s41.649 3.548 56.851 9.992c15.475 6.559 23.997 15.384 23.997 24.851s-8.522 18.292-23.997 24.851c-15.201 6.443-35.392 9.992-56.851 9.992zm0-67.685c-43.645 0-79.152 14.663-79.152 32.685 0 8.615 8.144 16.814 22.93 23.088 15.063 6.392 35.029 9.912 56.223 9.912 43.477 0 78.848-14.733 78.848-32.842s-35.371-32.843-78.848-32.843z" fill="#112c41"/><ellipse cx="233.909" cy="112.382" fill="#ffd169" rx="58.121" ry="24.634"/><path d="m243.642 128.883c-6.702 0-14.746-.9-24.041-3.019-.538-.123-.875-.659-.752-1.197.122-.539.654-.877 1.197-.753 24.78 5.649 40.432 2.427 44.489-2.958 1.067-1.417 1.218-2.917.436-4.335-2.053-3.725-10.457-6.958-24.594-5.79-18.138 1.502-30.186-.323-33.039-5.005-.857-1.407-.813-3.01.128-4.514 2.603-4.162 12.68-7.897 26.232-6.614.55.052.954.54.901 1.09-.052.549-.538.949-1.089.901-13.544-1.277-22.391 2.554-24.35 5.683-.54.864-.578 1.653-.115 2.413 1.858 3.052 11.023 5.718 31.167 4.052 16.032-1.327 24.213 2.651 26.51 6.817 1.174 2.129.965 4.439-.59 6.503-2.929 3.889-10.597 6.723-22.491 6.723z" fill="#112c41"/><path d="m258.773 131.414c-.218 0-.438-.071-.622-.218l-44.937-35.764c-.432-.344-.503-.973-.159-1.405.343-.431.971-.504 1.405-.16l44.937 35.764c.432.344.503.973.159 1.405-.197.248-.488.377-.783.377z" fill="#112c41"/><g fill="#ffd169"><path d="m234.256 169.685c-1.381 0-2.5-1.119-2.5-2.5v-14c0-1.381 1.119-2.5 2.5-2.5s2.5 1.119 2.5 2.5v14c0 1.381-1.119 2.5-2.5 2.5z"/><path d="m215.256 168.685c-1.381 0-2.5-1.119-2.5-2.5v-14c0-1.381 1.119-2.5 2.5-2.5s2.5 1.119 2.5 2.5v14c0 1.381-1.119 2.5-2.5 2.5z"/><path d="m199.256 165.685c-1.381 0-2.5-1.119-2.5-2.5v-14c0-1.381 1.119-2.5 2.5-2.5s2.5 1.119 2.5 2.5v14c0 1.381-1.119 2.5-2.5 2.5z"/><path d="m184.256 161.685c-1.381 0-2.5-1.119-2.5-2.5v-14c0-1.381 1.119-2.5 2.5-2.5s2.5 1.119 2.5 2.5v14c0 1.381-1.119 2.5-2.5 2.5z"/><path d="m172.256 156.685c-1.381 0-2.5-1.119-2.5-2.5v-14c0-1.381 1.119-2.5 2.5-2.5s2.5 1.119 2.5 2.5v14c0 1.381-1.119 2.5-2.5 2.5z"/><path d="m162.256 149.685c-1.381 0-2.5-1.119-2.5-2.5v-14c0-1.381 1.119-2.5 2.5-2.5s2.5 1.119 2.5 2.5v14c0 1.381-1.119 2.5-2.5 2.5z"/><path d="m253.256 168.685c-1.381 0-2.5-1.119-2.5-2.5v-14c0-1.381 1.119-2.5 2.5-2.5s2.5 1.119 2.5 2.5v14c0 1.381-1.119 2.5-2.5 2.5z"/><path d="m268.256 166.685c-1.381 0-2.5-1.119-2.5-2.5v-14c0-1.381 1.119-2.5 2.5-2.5s2.5 1.119 2.5 2.5v14c0 1.381-1.119 2.5-2.5 2.5z"/><path d="m283.256 162.685c-1.381 0-2.5-1.119-2.5-2.5v-14c0-1.381 1.119-2.5 2.5-2.5s2.5 1.119 2.5 2.5v14c0 1.381-1.119 2.5-2.5 2.5z"/><path d="m295.256 157.685c-1.381 0-2.5-1.119-2.5-2.5v-14c0-1.381 1.119-2.5 2.5-2.5s2.5 1.119 2.5 2.5v14c0 1.381-1.119 2.5-2.5 2.5z"/><path d="m305.256 150.685c-1.381 0-2.5-1.119-2.5-2.5v-14c0-1.381 1.119-2.5 2.5-2.5s2.5 1.119 2.5 2.5v14c0 1.381-1.119 2.5-2.5 2.5z"/></g><path d="m301.757 74.685h-32.2c-13.301-4.199-29.788-6.685-47.648-6.685s-34.347 2.486-47.648 6.685h-32.504l.314 27c0 .053-.009.105-.009.157 0 18.691 35.749 33.843 79.848 33.843s79.848-15.152 79.848-33.843c0-.053-.009-.105-.009-.157h.009v-27z" fill="#ffe993"/><path d="m221.909 136.685c-21.459 0-41.649-3.548-56.851-9.992-15.475-6.559-23.997-15.384-23.997-24.851 0-.028.006-.135.008-.163l-.313-26.983c-.003-.267.101-.525.289-.715s.443-.297.711-.297h32.352c13.918-4.374 30.443-6.685 47.801-6.685s33.883 2.312 47.801 6.685h32.047c.553 0 1 .448 1 1v27c0 .024 0 .049-.003.073.002.028.003.056.003.085 0 9.467-8.522 18.292-23.997 24.851-15.201 6.443-35.392 9.992-56.851 9.992zm-79.141-61 .302 25.988c0 .032-.005.142-.008.174 0 18.105 35.37 32.838 78.847 32.838s78.848-14.733 78.848-32.842c-.006-.049-.009-.104-.009-.158 0-.045.003-.089.009-.133v-25.867h-31.2c-.103 0-.204-.016-.301-.046-13.757-4.343-30.129-6.639-47.347-6.639s-33.59 2.295-47.347 6.639c-.097.031-.198.046-.301.046z" fill="#112c41"/><path d="m301.757 75.843c0 18.691-35.749 33.843-79.848 33.843s-80.152-15.309-80.152-34 36.053-33.685 80.152-33.685 79.848 15.152 79.848 33.843z" fill="#ffe993"/><path d="m221.909 110.685c-44.748 0-81.152-15.701-81.152-35 0-9.451 8.577-18.249 24.152-24.774 15.258-6.391 35.501-9.911 57-9.911s41.649 3.548 56.851 9.992c15.475 6.559 23.997 15.384 23.997 24.851s-8.522 18.292-23.997 24.851c-15.201 6.443-35.392 9.992-56.851 9.992zm0-67.685c-43.645 0-79.152 14.663-79.152 32.685 0 8.615 8.144 16.814 22.93 23.088 15.063 6.392 35.029 9.912 56.223 9.912 43.477 0 78.848-14.733 78.848-32.842s-35.371-32.843-78.848-32.843z" fill="#112c41"/><ellipse cx="221.909" cy="75.382" fill="#ffd169" rx="58.121" ry="24.634"/><path d="m231.642 91.883c-6.702 0-14.746-.9-24.041-3.019-.538-.123-.875-.659-.752-1.197.122-.539.65-.875 1.197-.753 24.78 5.649 40.434 2.427 44.489-2.958 1.067-1.417 1.218-2.917.436-4.335-2.054-3.725-10.453-6.96-24.594-5.79-18.141 1.501-30.186-.322-33.039-5.005-.857-1.407-.813-3.01.128-4.514 2.603-4.162 12.679-7.896 26.232-6.614.55.052.954.54.901 1.09-.052.549-.542.957-1.089.901-13.542-1.279-22.391 2.554-24.35 5.683-.54.864-.578 1.653-.115 2.413 1.858 3.052 11.021 5.719 31.167 4.052 16.03-1.325 24.212 2.651 26.51 6.817 1.174 2.129.965 4.439-.59 6.503-2.929 3.889-10.597 6.723-22.491 6.723z" fill="#112c41"/><path d="m246.773 94.414c-.218 0-.438-.071-.622-.218l-44.937-35.764c-.432-.344-.503-.973-.159-1.405.342-.431.972-.505 1.405-.16l44.937 35.764c.432.344.503.973.159 1.405-.197.248-.488.377-.783.377z" fill="#112c41"/><path d="m222.256 132.685c-1.381 0-2.5-1.119-2.5-2.5v-14c0-1.381 1.119-2.5 2.5-2.5s2.5 1.119 2.5 2.5v14c0 1.381-1.119 2.5-2.5 2.5z" fill="#ffd169"/><path d="m203.256 131.685c-1.381 0-2.5-1.119-2.5-2.5v-14c0-1.381 1.119-2.5 2.5-2.5s2.5 1.119 2.5 2.5v14c0 1.381-1.119 2.5-2.5 2.5z" fill="#ffd169"/><path d="m187.256 128.685c-1.381 0-2.5-1.119-2.5-2.5v-14c0-1.381 1.119-2.5 2.5-2.5s2.5 1.119 2.5 2.5v14c0 1.381-1.119 2.5-2.5 2.5z" fill="#ffd169"/><path d="m172.256 124.685c-1.381 0-2.5-1.119-2.5-2.5v-14c0-1.381 1.119-2.5 2.5-2.5s2.5 1.119 2.5 2.5v14c0 1.381-1.119 2.5-2.5 2.5z" fill="#ffd169"/><path d="m160.256 119.685c-1.381 0-2.5-1.119-2.5-2.5v-14c0-1.381 1.119-2.5 2.5-2.5s2.5 1.119 2.5 2.5v14c0 1.381-1.119 2.5-2.5 2.5z" fill="#ffd169"/><path d="m150.256 112.685c-1.381 0-2.5-1.119-2.5-2.5v-14c0-1.381 1.119-2.5 2.5-2.5s2.5 1.119 2.5 2.5v14c0 1.381-1.119 2.5-2.5 2.5z" fill="#ffd169"/><path d="m241.256 131.685c-1.381 0-2.5-1.119-2.5-2.5v-14c0-1.381 1.119-2.5 2.5-2.5s2.5 1.119 2.5 2.5v14c0 1.381-1.119 2.5-2.5 2.5z" fill="#ffd169"/><path d="m256.256 129.685c-1.381 0-2.5-1.119-2.5-2.5v-14c0-1.381 1.119-2.5 2.5-2.5s2.5 1.119 2.5 2.5v14c0 1.381-1.119 2.5-2.5 2.5z" fill="#ffd169"/><path d="m271.256 125.685c-1.381 0-2.5-1.119-2.5-2.5v-14c0-1.381 1.119-2.5 2.5-2.5s2.5 1.119 2.5 2.5v14c0 1.381-1.119 2.5-2.5 2.5z" fill="#ffd169"/><path d="m283.256 120.685c-1.381 0-2.5-1.119-2.5-2.5v-14c0-1.381 1.119-2.5 2.5-2.5s2.5 1.119 2.5 2.5v14c0 1.381-1.119 2.5-2.5 2.5z" fill="#ffd169"/><path d="m293.256 113.685c-1.381 0-2.5-1.119-2.5-2.5v-14c0-1.381 1.119-2.5 2.5-2.5s2.5 1.119 2.5 2.5v14c0 1.381-1.119 2.5-2.5 2.5z" fill="#ffd169"/><path d="m313.757 33.685h-32.2c-13.301-4.199-29.788-6.685-47.648-6.685s-34.347 2.486-47.648 6.685h-32.504l.314 27c0 .053-.009.105-.009.157 0 18.691 35.749 33.843 79.848 33.843s79.848-15.152 79.848-33.843c0-.053-.009-.105-.009-.157h.009v-27z" fill="#ffe993"/><path d="m233.909 95.685c-21.459 0-41.649-3.548-56.851-9.992-15.475-6.559-23.997-15.384-23.997-24.851 0-.028.006-.135.008-.163l-.313-26.983c-.003-.267.101-.525.289-.715s.443-.297.711-.297h32.352c13.918-4.374 30.443-6.685 47.801-6.685s33.883 2.312 47.801 6.685h32.047c.553 0 1 .448 1 1v27c0 .024 0 .049-.003.073.002.028.003.056.003.085 0 9.467-8.522 18.292-23.997 24.851-15.201 6.443-35.392 9.992-56.851 9.992zm-79.141-61 .302 25.988c0 .032-.005.142-.008.174 0 18.105 35.37 32.838 78.847 32.838s78.848-14.733 78.848-32.842c-.006-.049-.009-.104-.009-.158 0-.045.003-.089.009-.133v-25.867h-31.2c-.103 0-.204-.016-.301-.046-13.757-4.343-30.129-6.639-47.347-6.639s-33.59 2.295-47.347 6.639c-.097.031-.198.046-.301.046z" fill="#112c41"/><path d="m313.757 34.843c0 18.691-35.749 33.843-79.848 33.843s-80.152-15.309-80.152-34 36.053-33.686 80.152-33.686 79.848 15.152 79.848 33.843z" fill="#ffe993"/><path d="m233.909 69.685c-44.748 0-81.152-15.701-81.152-35 0-9.451 8.577-18.249 24.152-24.774 15.257-6.391 35.501-9.911 57-9.911s41.649 3.548 56.851 9.992c15.475 6.559 23.997 15.384 23.997 24.851s-8.522 18.292-23.997 24.851c-15.201 6.443-35.392 9.992-56.851 9.992zm0-67.685c-43.645 0-79.152 14.663-79.152 32.685 0 8.615 8.144 16.814 22.93 23.088 15.063 6.392 35.029 9.912 56.223 9.912 43.477 0 78.848-14.733 78.848-32.842s-35.373-32.843-78.849-32.843z" fill="#112c41"/><ellipse cx="233.909" cy="34.382" fill="#ffd169" rx="58.121" ry="24.634"/><path d="m243.642 50.883c-6.702 0-14.746-.9-24.041-3.019-.538-.123-.875-.659-.752-1.197.122-.539.654-.878 1.197-.753 24.78 5.649 40.432 2.427 44.489-2.958 1.067-1.417 1.218-2.917.436-4.335-2.053-3.725-10.457-6.959-24.594-5.79-18.138 1.501-30.186-.323-33.039-5.005-.857-1.407-.813-3.01.128-4.514 2.603-4.162 12.68-7.896 26.232-6.614.55.052.954.54.901 1.09-.052.549-.538.95-1.089.901-13.544-1.277-22.391 2.554-24.35 5.683-.54.864-.578 1.653-.115 2.413 1.858 3.052 11.023 5.719 31.167 4.052 16.032-1.325 24.213 2.651 26.51 6.817 1.174 2.129.965 4.439-.59 6.503-2.929 3.889-10.597 6.723-22.491 6.723z" fill="#112c41"/><path d="m258.773 53.414c-.218 0-.438-.071-.622-.218l-44.937-35.764c-.432-.344-.503-.973-.159-1.405.343-.431.971-.505 1.405-.16l44.937 35.764c.432.344.503.973.159 1.405-.197.248-.488.377-.783.377z" fill="#112c41"/><path d="m234.256 91.685c-1.381 0-2.5-1.119-2.5-2.5v-14c0-1.381 1.119-2.5 2.5-2.5s2.5 1.119 2.5 2.5v14c0 1.381-1.119 2.5-2.5 2.5z" fill="#ffd169"/><path d="m215.256 90.685c-1.381 0-2.5-1.119-2.5-2.5v-14c0-1.381 1.119-2.5 2.5-2.5s2.5 1.119 2.5 2.5v14c0 1.381-1.119 2.5-2.5 2.5z" fill="#ffd169"/><path d="m199.256 87.685c-1.381 0-2.5-1.119-2.5-2.5v-14c0-1.381 1.119-2.5 2.5-2.5s2.5 1.119 2.5 2.5v14c0 1.381-1.119 2.5-2.5 2.5z" fill="#ffd169"/><path d="m184.256 83.685c-1.381 0-2.5-1.119-2.5-2.5v-14c0-1.381 1.119-2.5 2.5-2.5s2.5 1.119 2.5 2.5v14c0 1.381-1.119 2.5-2.5 2.5z" fill="#ffd169"/><path d="m172.256 78.685c-1.381 0-2.5-1.119-2.5-2.5v-14c0-1.381 1.119-2.5 2.5-2.5s2.5 1.119 2.5 2.5v14c0 1.381-1.119 2.5-2.5 2.5z" fill="#ffd169"/><path d="m162.256 71.685c-1.381 0-2.5-1.119-2.5-2.5v-14c0-1.381 1.119-2.5 2.5-2.5s2.5 1.119 2.5 2.5v14c0 1.381-1.119 2.5-2.5 2.5z" fill="#ffd169"/><path d="m253.256 90.685c-1.381 0-2.5-1.119-2.5-2.5v-14c0-1.381 1.119-2.5 2.5-2.5s2.5 1.119 2.5 2.5v14c0 1.381-1.119 2.5-2.5 2.5z" fill="#ffd169"/><path d="m268.256 88.685c-1.381 0-2.5-1.119-2.5-2.5v-14c0-1.381 1.119-2.5 2.5-2.5s2.5 1.119 2.5 2.5v14c0 1.381-1.119 2.5-2.5 2.5z" fill="#ffd169"/><path d="m283.256 84.685c-1.381 0-2.5-1.119-2.5-2.5v-14c0-1.381 1.119-2.5 2.5-2.5s2.5 1.119 2.5 2.5v14c0 1.381-1.119 2.5-2.5 2.5z" fill="#ffd169"/><path d="m295.256 79.685c-1.381 0-2.5-1.119-2.5-2.5v-14c0-1.381 1.119-2.5 2.5-2.5s2.5 1.119 2.5 2.5v14c0 1.381-1.119 2.5-2.5 2.5z" fill="#ffd169"/><path d="m305.256 72.685c-1.381 0-2.5-1.119-2.5-2.5v-14c0-1.381 1.119-2.5 2.5-2.5s2.5 1.119 2.5 2.5v14c0 1.381-1.119 2.5-2.5 2.5z" fill="#ffd169"/></svg>