<svg height="375.919" viewBox="0 0 527.928 375.919" width="527.928" xmlns="http://www.w3.org/2000/svg"><path d="m507.734 283.516-427.63 90.87c-9.7 2.06-19.29-2-24.71-9.59-1.9-2.63-3.29-5.69-4.01-9.07l-49.85-234.61c-2.78-13.09 5.57-25.95 18.65-28.73l427.63-90.86c.91-.19 1.82-.33 2.72-.41 12.11-1.19 23.42 6.89 26.01 19.07l49.85 234.61c2.78 13.08-5.57 25.94-18.66 28.72z" fill="#ff90d8"/><path d="m75.064 375.916c-8.028 0-15.7-3.841-20.484-10.539-2.035-2.817-3.44-5.995-4.175-9.442l-49.849-234.611c-2.89-13.605 5.822-27.026 19.42-29.916l427.63-90.86c.973-.203 1.927-.347 2.839-.428 12.771-1.261 24.402 7.283 27.077 19.858l49.85 234.61c1.4 6.588.15 13.327-3.519 18.975-3.669 5.649-9.32 9.531-15.911 10.931l-427.631 90.87c-1.748.372-3.507.552-5.247.552zm377.855-373.917c-.756 0-1.52.037-2.287.112-.845.075-1.721.208-2.613.394l-427.627 90.859c-12.52 2.661-20.54 15.017-17.879 27.544l49.85 234.61c.676 3.173 1.968 6.098 3.842 8.692 5.363 7.507 14.66 11.114 23.691 9.197l427.631-90.87c6.069-1.289 11.271-4.863 14.65-10.064 3.378-5.2 4.528-11.404 3.238-17.47l-49.85-234.609c-2.301-10.822-11.815-18.396-22.646-18.396z" fill="#112c41"/><path d="m485.734 273.516-427.63 90.87c-.91.19-1.81.33-2.71.41-1.9-2.63-3.29-5.69-4.01-9.07l-49.85-234.61c-2.78-13.09 5.57-25.95 18.65-28.73l427.63-90.86c.91-.19 1.82-.33 2.72-.41 1.9 2.63 3.29 5.69 4.01 9.07l49.85 234.61c2.78 13.08-5.57 25.94-18.66 28.72z" fill="#ffa9dc"/><rect fill="#ffe993" height="60" rx="17.413" transform="matrix(.97829975 -.20719462 .20719462 .97829975 -27.375 21.996)" width="101" x="40.823" y="111.691"/><path d="m61.523 179.279c-3.524 0-6.978-1.017-10.002-2.984-4.123-2.682-6.954-6.809-7.974-11.62l-5.216-24.628c-2.103-9.933 4.267-19.725 14.199-21.829l64.737-13.71c9.929-2.103 19.725 4.266 21.829 14.199l5.216 24.627c2.103 9.933-4.267 19.725-14.199 21.829l-64.738 13.71c-1.281.271-2.572.405-3.853.405zm59.563-73.172c-1.124 0-2.263.116-3.404.358l-64.737 13.71c-8.854 1.875-14.531 10.604-12.656 19.458l5.216 24.628c.908 4.289 3.432 7.967 7.107 10.358 3.675 2.39 8.058 3.208 12.35 2.298l64.738-13.71c8.854-1.875 14.531-10.604 12.656-19.458l-5.216-24.627c-1.634-7.711-8.468-13.014-16.054-13.014z" fill="#112c41"/><rect fill="#fff" height="58" rx="10.37" transform="matrix(.97829975 -.20719462 .20719462 .97829975 -40.916 90.425)" width="150" x="336.247" y="211.551"/><path d="m351.855 283.542c-2.176 0-4.309-.628-6.176-1.843-2.546-1.656-4.295-4.204-4.924-7.175l-7.72-36.452c-1.299-6.133 2.634-12.179 8.768-13.479l126.456-26.782c2.97-.63 6.01-.063 8.555 1.592 2.546 1.656 4.294 4.205 4.924 7.176l7.72 36.452c.63 2.971.064 6.009-1.592 8.555-1.655 2.546-4.204 4.294-7.176 4.924l-126.456 26.781c-.791.167-1.588.25-2.379.25zm118.778-83.98c-.651 0-1.308.068-1.96.207l-126.456 26.782c-5.054 1.07-8.295 6.053-7.225 11.107l7.72 36.452c.519 2.448 1.959 4.548 4.058 5.913 2.097 1.364 4.603 1.831 7.05 1.312l126.456-26.781c2.448-.519 4.549-1.959 5.913-4.057 1.365-2.098 1.831-4.602 1.312-7.05l-7.72-36.453c-.519-2.448-1.959-4.548-4.058-5.913-1.538-1.001-3.296-1.519-5.09-1.519z" fill="#112c41"/><g fill="#fff"><path d="m60.597 239.061c-2.313 0-4.389-1.613-4.887-3.965-.572-2.702 1.154-5.355 3.855-5.928l73.55-15.577c2.707-.57 5.355 1.155 5.928 3.855.572 2.702-1.154 5.355-3.855 5.928l-73.55 15.577c-.35.074-.698.109-1.041.109z"/><path d="m172.063 215.454c-2.313 0-4.389-1.613-4.887-3.965-.572-2.702 1.154-5.355 3.855-5.928l73.55-15.577c2.709-.573 5.355 1.155 5.928 3.855.572 2.702-1.154 5.355-3.855 5.928l-73.55 15.577c-.35.074-.698.109-1.041.109z"/><path d="m283.53 191.847c-2.313 0-4.389-1.613-4.887-3.965-.572-2.702 1.154-5.355 3.855-5.928l73.551-15.577c2.71-.573 5.356 1.154 5.928 3.855.572 2.702-1.154 5.355-3.855 5.928l-73.551 15.577c-.35.074-.698.109-1.041.109z"/><path d="m394.998 168.24c-2.313 0-4.389-1.613-4.887-3.965-.572-2.702 1.154-5.355 3.855-5.928l73.55-15.577c2.704-.572 5.355 1.154 5.928 3.855.572 2.702-1.154 5.355-3.855 5.928l-73.55 15.577c-.35.074-.698.109-1.041.109z"/><path d="m78.735 326.194c-2.313 0-4.389-1.613-4.887-3.965-.572-2.702 1.154-5.355 3.855-5.928l143.811-30.457c2.703-.57 5.355 1.155 5.928 3.855.572 2.702-1.154 5.355-3.855 5.928l-143.811 30.457c-.35.074-.698.109-1.041.109z"/><path d="m406.188 115.672c-1.02 0-2.048-.311-2.936-.956-2.234-1.624-2.729-4.75-1.105-6.984 6.294-8.658 8.359-21.815 5.525-35.194-2.833-13.379-10.055-24.569-19.318-29.933-2.39-1.384-3.205-4.443-1.821-6.833 1.385-2.391 4.443-3.205 6.833-1.822 11.674 6.76 20.68 20.411 24.09 36.515 3.411 16.105.712 32.234-7.219 43.146-.979 1.346-2.503 2.061-4.049 2.061z"/><path d="m381.615 110.655c-1.02 0-2.048-.311-2.936-.956-2.234-1.624-2.729-4.75-1.105-6.984 4.372-6.014 5.794-15.213 3.804-24.608-1.989-9.395-7.019-17.228-13.452-20.954-2.39-1.383-3.205-4.442-1.821-6.832 1.385-2.39 4.443-3.205 6.833-1.822 8.844 5.122 15.657 15.415 18.224 27.535 2.567 12.121.512 24.293-5.497 32.561-.979 1.346-2.503 2.061-4.049 2.061z"/><path d="m357.399 102.495c-1.02 0-2.048-.311-2.936-.956-2.234-1.624-2.729-4.75-1.105-6.984 1.845-2.538 2.444-6.694 1.564-10.847-.879-4.152-3.111-7.708-5.826-9.279-2.39-1.384-3.205-4.443-1.821-6.833 1.383-2.39 4.443-3.205 6.833-1.822 5.243 3.036 9.105 8.817 10.598 15.861 1.492 7.044.305 13.896-3.258 18.798-.979 1.346-2.503 2.061-4.049 2.061z"/></g><path d="m75.064 375.916c-8.028 0-15.7-3.841-20.484-10.539-2.035-2.817-3.44-5.995-4.175-9.442l-49.849-234.611c-2.89-13.605 5.822-27.026 19.42-29.916l427.63-90.86c.973-.203 1.927-.347 2.839-.428 12.771-1.261 24.402 7.283 27.077 19.858l49.85 234.61c1.4 6.588.15 13.327-3.519 18.975-3.669 5.649-9.32 9.531-15.911 10.931l-427.631 90.87c-1.748.372-3.507.552-5.247.552zm377.855-373.917c-.756 0-1.52.037-2.287.112-.845.075-1.721.208-2.613.394l-427.627 90.859c-12.52 2.661-20.54 15.017-17.879 27.544l49.85 234.61c.676 3.173 1.968 6.098 3.842 8.692 5.363 7.507 14.66 11.114 23.691 9.197l427.631-90.87c6.069-1.289 11.271-4.863 14.65-10.064 3.378-5.2 4.528-11.404 3.238-17.47l-49.85-234.609c-2.301-10.822-11.815-18.396-22.646-18.396z" fill="#112c41"/></svg>