<svg xmlns="http://www.w3.org/2000/svg" viewBox="0 0 3000 3000" width="3000" height="3000"><g transform="translate(525.0 873.3333333333334) rotate(0.0 1002.5 501.6666666666667) scale(1.6666666666666667 1.6666666666666667)"><svg width="1203" height="602" viewBox="0 0 1203 602"><path d="M958.956 601.998a1 1 0 0 1-.004-2 246.541 246.541 0 0 0 29.787-1.924.996.996 0 0 1 1.117.867 1 1 0 0 1-.867 1.117 248.29 248.29 0 0 1-30.029 1.939l-.004.001zm-29.855-2.536a.972.972 0 0 1-.169-.014c-9.66-1.652-19.492-4.109-29.224-7.302a1 1 0 1 1 .623-1.901c9.639 3.163 19.375 5.595 28.937 7.231a1 1 0 0 1-.167 1.986zm89.21-4.973a1 1 0 0 1-.245-1.969 242.198 242.198 0 0 0 28.436-9.138 1 1 0 0 1 .728 1.862 243.9 243.9 0 0 1-28.671 9.214 1.015 1.015 0 0 1-.248.031zm-146.084-13.533a.99.99 0 0 1-.434-.1 242.855 242.855 0 0 1-26.236-14.765 1 1 0 1 1 1.086-1.679 241.221 241.221 0 0 0 26.02 14.643.999.999 0 0 1-.436 1.901zm201.836-8.274a1 1 0 0 1-.477-1.879 243.757 243.757 0 0 0 25.33-15.811 1 1 0 0 1 1.161 1.629 246.052 246.052 0 0 1-25.539 15.94.993.993 0 0 1-.475.121zM821.95 548.486a.997.997 0 0 1-.639-.231 262.551 262.551 0 0 1-21.992-20.546 1.001 1.001 0 0 1 1.447-1.381 259.986 259.986 0 0 0 21.823 20.389 1 1 0 0 1-.639 1.769zm300.846-10.543a1 1 0 0 1-.676-1.738 245.56 245.56 0 0 0 20.737-21.473 1 1 0 1 1 1.521 1.299 247.41 247.41 0 0 1-20.906 21.648.997.997 0 0 1-.676.264zm-342.205-32.738a.997.997 0 0 1-.796-.394 277.161 277.161 0 0 1-4.606-6.228 416.555 416.555 0 0 0-13.431-17.69 1 1 0 1 1 1.56-1.252 419.071 419.071 0 0 1 13.495 17.775 279.407 279.407 0 0 0 4.573 6.183 1 1 0 0 1-.795 1.606zm381.057-12.757a1 1 0 0 1-.833-1.552 243.51 243.51 0 0 0 14.902-25.848 1 1 0 0 1 1.791.891A245.643 245.643 0 0 1 1162.483 492c-.193.29-.511.448-.835.448zm-418.713-33.801a.993.993 0 0 1-.73-.317 388.301 388.301 0 0 0-21.23-20.995 1 1 0 0 1 1.351-1.475 390.519 390.519 0 0 1 21.339 21.104 1.001 1.001 0 0 1-.73 1.683zm445.34-19.765a1 1 0 0 1-.944-1.332 242.392 242.392 0 0 0 8.129-28.72 1 1 0 1 1 1.954.424 244.101 244.101 0 0 1-8.196 28.958 1 1 0 0 1-.943.67zm-489.451-20.663a.996.996 0 0 1-.619-.215c-7.65-6.032-15.525-11.826-24.074-17.715a1 1 0 0 1 1.135-1.647c8.584 5.914 16.493 11.733 24.177 17.792a1 1 0 0 1-.619 1.785zm-49.242-34.098a1 1 0 0 1-.525-.149c-7.737-4.781-15.916-9.642-25.739-15.298a1 1 0 0 1 .998-1.734c9.842 5.667 18.038 10.538 25.792 15.33a.999.999 0 0 1-.526 1.851zm551.403-3.704a1 1 0 0 1-.997-1.091 247.009 247.009 0 0 0 .899-29.835 1 1 0 0 1 .969-1.03 1.008 1.008 0 0 1 1.03.969 249.39 249.39 0 0 1-.907 30.077 1 1 0 0 1-.994.91zm-603.248-26.391a.996.996 0 0 1-.489-.128c-7.589-4.271-17.035-9.585-26.079-14.815a1 1 0 1 1 1.001-1.731c9.034 5.225 18.474 10.536 26.058 14.804a1 1 0 0 1-.491 1.87zm-509.68-.759a.992.992 0 0 1-.544-.162 193.417 193.417 0 0 1-23.898-18.34 1 1 0 1 1 1.338-1.487 191.258 191.258 0 0 0 23.65 18.15c.463.301.595.92.293 1.383a.996.996 0 0 1-.839.456zm457.887-29.435a.994.994 0 0 1-.527-.151c-9.032-5.623-17.241-11.009-25.095-16.466a1 1 0 1 1 1.141-1.642c7.827 5.438 16.008 10.807 25.01 16.411a1 1 0 0 1-.529 1.848zm653.096-3.197a1 1 0 0 1-.986-.838 209.723 209.723 0 0 0-6.891-29.009 1 1 0 1 1 1.907-.601 211.716 211.716 0 0 1 6.957 29.286 1 1 0 0 1-.987 1.162zm-1155.4-7.333a.997.997 0 0 1-.777-.37 193.044 193.044 0 0 1-17.098-24.796 1 1 0 1 1 1.731-1.003 191.142 191.142 0 0 0 16.92 24.538 1 1 0 0 1-.776 1.631zm453.196-23.758a.998.998 0 0 1-.622-.217 415.593 415.593 0 0 1-22.819-19.501 1 1 0 0 1 1.354-1.472 414.018 414.018 0 0 0 22.709 19.407 1 1 0 0 1-.622 1.783zm684.272-25.924a1 1 0 0 1-.903-.568c-4.167-8.713-9.076-17.47-14.591-26.026a1 1 0 0 1 1.681-1.084c5.561 8.627 10.511 17.458 14.715 26.247a1 1 0 0 1-.902 1.431zM13.695 261.614a1 1 0 0 1-.933-.641 191.285 191.285 0 0 1-8.566-28.865 1 1 0 0 1 1.956-.416 189.227 189.227 0 0 0 8.476 28.562.999.999 0 0 1-.933 1.36zm439.127-12.61a.993.993 0 0 1-.73-.317 408.324 408.324 0 0 1-19.658-22.672 1 1 0 1 1 1.558-1.254 406.72 406.72 0 0 0 19.561 22.561 1 1 0 0 1-.731 1.682zm696.057-35.807a.998.998 0 0 1-.78-.374c-5.979-7.452-12.412-14.823-19.668-22.534a1.001 1.001 0 0 1 1.456-1.371c7.292 7.75 13.759 15.16 19.771 22.652a1 1 0 0 1-.779 1.627zM1.266 203.192a1 1 0 0 1-.998-.947 194.946 194.946 0 0 1 .747-30.107 1 1 0 1 1 1.99.204 192.97 192.97 0 0 0-.739 29.798 1 1 0 0 1-.946 1.051l-.054.001zm414.007-.768a.997.997 0 0 1-.821-.428 480.045 480.045 0 0 1-16.355-25.149 1 1 0 1 1 1.709-1.039 478.777 478.777 0 0 0 16.287 25.043.999.999 0 0 1-.82 1.573zm692.694-33.047a.995.995 0 0 1-.689-.275 724.582 724.582 0 0 0-8.955-8.366c-4.528-4.162-8.687-8.492-12.359-12.87a1 1 0 1 1 1.533-1.285c3.617 4.312 7.715 8.579 12.18 12.682a720.81 720.81 0 0 1 8.979 8.389 1.001 1.001 0 0 1-.689 1.725zm-723.821-18.072a.998.998 0 0 1-.883-.529 610.236 610.236 0 0 1-13.441-26.815 1 1 0 0 1 1.81-.853 610.682 610.682 0 0 0 13.397 26.727 1 1 0 0 1-.883 1.47zM7.405 143.772a.998.998 0 0 1-.966-1.257 191.173 191.173 0 0 1 10.026-28.42.999.999 0 1 1 1.827.813 189.106 189.106 0 0 0-9.92 28.122 1.005 1.005 0 0 1-.967.742zm1063.469-20.88a1 1 0 0 1-.92-.607c-4.117-9.646-6.292-19.569-6.464-29.492a1.001 1.001 0 0 1 .982-1.018 1.013 1.013 0 0 1 1.018.982c.168 9.664 2.289 19.334 6.304 28.742a1 1 0 0 1-.92 1.393zM357.008 97.881a.997.997 0 0 1-.857-.484 208.224 208.224 0 0 0-17.183-24.38 1 1 0 1 1 1.548-1.266 209.998 209.998 0 0 1 17.348 24.614 1 1 0 0 1-.856 1.516zm-325.34-8.726a1 1 0 0 1-.837-1.544 193.31 193.31 0 0 1 18.326-23.908 1 1 0 0 1 1.487 1.337A191.316 191.316 0 0 0 32.509 88.7a1 1 0 0 1-.841.455zm1038.286-24.666a1 1 0 0 1-.929-1.37c3.602-9.044 8.902-17.708 15.754-25.751a1 1 0 1 1 1.523 1.297c-6.71 7.876-11.898 16.354-15.418 25.195-.156.39-.532.629-.93.629zm-750.85-12.838a.997.997 0 0 1-.672-.26 196.411 196.411 0 0 0-23.527-18.314 1 1 0 0 1 1.104-1.668 198.583 198.583 0 0 1 23.768 18.501 1 1 0 0 1-.673 1.741zm-247.5-6.935a1 1 0 0 1-.631-1.776A193.019 193.019 0 0 1 95.75 25.831a.999.999 0 1 1 1.004 1.73 191.066 191.066 0 0 0-24.52 16.932.997.997 0 0 1-.63.223zm197.65-26.008a1 1 0 0 1-.414-.09 185.326 185.326 0 0 0-28.03-10.13 1 1 0 0 1 .526-1.93 187.316 187.316 0 0 1 28.333 10.24 1.001 1.001 0 0 1-.415 1.91zM123.25 14.747a1 1 0 0 1-.36-1.934 191.23 191.23 0 0 1 28.866-8.589 1.001 1.001 0 0 1 .417 1.957 189.091 189.091 0 0 0-28.563 8.499 1.01 1.01 0 0 1-.36.067zm88.369-11.73a1.23 1.23 0 0 1-.105-.005 191.024 191.024 0 0 0-29.795-.738 1 1 0 0 1-.107-1.997c9.983-.531 20.204-.289 30.11.746a1 1 0 0 1-.103 1.994z" fill="#112c41"/></svg></g><g transform="translate(246.66666666666669 1263.3333333333335) rotate(0.0 527.5 496.66666666666674) scale(1.667709973379871 1.6692910386519302)"><svg width="632.604" height="595.063" viewBox="0 0 632.604 595.063"><circle cx="295.386" cy="299.677" fill="#ffd169" r="294.363"/><path d="M294.833 595.073c-67.651 0-132.712-23.031-185.897-66.32C47.748 478.951 9.616 408.302 1.565 329.819c-8.051-78.482 14.942-155.402 64.744-216.591S186.762 13.907 265.244 5.856c78.481-8.049 155.402 14.943 216.591 64.745 61.188 49.803 99.321 120.452 107.372 198.934 8.051 78.483-14.942 155.403-64.745 216.592s-120.452 99.32-198.934 107.372a301.17 301.17 0 0 1-30.695 1.574zm1.1-588.792c-10.116 0-20.284.518-30.485 1.564-77.951 7.996-148.123 45.87-197.587 106.645C18.395 175.265-4.442 251.664 3.555 329.614c7.997 77.951 45.871 148.123 106.645 197.588s137.173 72.308 215.125 64.306c77.951-7.996 148.122-45.87 197.587-106.645 49.465-60.774 72.303-137.174 64.307-215.125-7.997-77.95-45.871-148.121-106.645-197.586C427.751 29.16 363.121 6.281 295.933 6.281z" fill="#112c41"/><path d="M630.044 265.346c12.92 125.947-55.578 241.476-162.903 294.262l-.01.001c-30.482 15.006-64.096 24.932-99.873 28.602C205.534 604.802 60.983 487.149 44.392 325.426c-6.489-63.25 7.552-123.872 36.745-175.237l-.001-.01C126.576 70.208 208.705 12.662 307.178 2.56c161.724-16.591 306.275 101.062 322.866 262.786z" fill="#ffe993"/><path d="M336.667 590.782c-67.651.002-132.714-23.032-185.898-66.32C89.58 474.659 51.449 404.01 43.397 325.527c-6.305-61.462 6.427-122.23 36.823-175.75.014-.032.029-.062.046-.093 22.801-40.128 55.115-74.828 93.449-100.349 39.601-26.364 85.716-42.883 133.36-47.771 78.48-8.046 155.403 14.942 216.591 64.745 61.188 49.802 99.32 120.451 107.371 198.935 6.279 61.203-6.337 121.773-36.483 175.16-29.487 52.219-73.394 93.749-126.973 120.102-.026.013-.053.024-.08.035-31.345 15.419-65.037 25.063-100.143 28.666a301.05 301.05 0 0 1-30.691 1.575zM82.052 150.59a1.127 1.127 0 0 1-.046.092c-30.222 53.175-42.885 113.565-36.62 174.642 7.997 77.95 45.871 148.122 106.645 197.587 60.775 49.466 137.175 72.308 215.125 64.307 34.895-3.58 68.382-13.171 99.533-28.505a.988.988 0 0 1 .081-.035c53.186-26.176 96.769-67.411 126.044-119.256 29.941-53.024 42.472-113.184 36.235-173.973-7.997-77.951-45.871-148.123-106.645-197.588C461.631 18.396 385.233-4.441 307.28 3.555 259.958 8.409 214.155 24.816 174.824 51c-38.05 25.331-70.127 59.766-92.772 99.59zm385.089 409.019h.01z" fill="#112c41"/><path d="M467.13 559.609c-30.482 15.006-64.096 24.932-99.873 28.602C205.534 604.802 60.983 487.149 44.392 325.426c-6.489-63.25 7.552-123.872 36.745-175.237-39.348 98.357-40.572 225.152 32.55 315.026 76.185 93.637 190.418 140.329 353.443 94.394z" fill="#ffd169"/><path d="M336.667 590.782c-67.651.002-132.713-23.032-185.898-66.32C89.58 474.659 51.449 404.01 43.397 325.527c-8.051-78.481 14.942-155.401 64.745-216.59S228.594 9.616 307.076 1.565C385.56-6.481 462.479 16.507 523.667 66.31c61.188 49.802 99.32 120.451 107.371 198.935 8.051 78.482-14.942 155.402-64.744 216.591s-120.452 99.32-198.935 107.372a301.37 301.37 0 0 1-30.692 1.574zm1.099-588.793c-10.116 0-20.286.519-30.486 1.565-77.951 7.996-148.122 45.87-197.587 106.645-49.465 60.774-72.303 137.173-64.306 215.124 7.997 77.95 45.871 148.122 106.645 197.587s137.173 72.309 215.124 64.307c77.951-7.996 148.123-45.87 197.587-106.645 49.465-60.774 72.303-137.174 64.306-215.124-7.997-77.951-45.871-148.123-106.645-197.588-52.821-42.992-117.45-65.871-184.638-65.871z" fill="#112c41"/><path d="M149.864 134.348s64.934-94.898 196.948-95.695c120.402-.727 222.92 81.756 247.084 203.981 29.869 151.083-77.679 262.661-181.906 288.268-102.103 25.086-262.126-396.554-262.126-396.554z" fill="#ffd169"/><path d="M582.983 270.174c10.369 101.077-41.737 194.159-125.074 240.849-28.571 16.014-60.82 26.572-95.478 30.128-135.735 13.924-257.052-84.817-270.977-220.553-6.545-63.805 11.798-124.403 47.173-172.175 39.895-53.879 101.439-91.421 173.38-98.802 135.734-13.924 257.051 84.817 270.976 220.553z" fill="#dedffe"/><path d="M336.754 543.468c-56.817 0-111.458-19.342-156.123-55.696C129.244 445.948 97.22 386.614 90.459 320.7c-6.328-61.685 10.493-123.079 47.364-172.872 20.329-27.455 45.553-50.033 74.974-67.107 30.452-17.674 63.796-28.471 99.107-32.094 65.915-6.759 130.513 12.549 181.9 54.373 51.387 41.825 83.411 101.159 90.173 167.072 10.105 98.502-39.188 193.423-125.581 241.823-29.583 16.582-61.836 26.76-95.865 30.251a252.74 252.74 0 0 1-25.777 1.322zm.926-494.164c-8.484 0-17.016.435-25.571 1.312-35.027 3.593-68.103 14.303-98.308 31.833-29.184 16.938-54.206 39.334-74.371 66.567-36.574 49.393-53.259 110.291-46.982 171.479 6.708 65.382 38.473 124.237 89.446 165.725s115.055 60.643 180.434 53.935c33.755-3.463 65.748-13.558 95.091-30.005 85.696-48.011 134.592-142.167 124.569-239.874-6.708-65.383-38.473-124.238-89.446-165.726-44.302-36.058-98.508-55.246-154.862-55.246z" fill="#112c41"/><path d="M566.277 282.456c9.594 93.526-34.997 180.12-108.369 228.567-28.571 16.014-60.82 26.572-95.478 30.128-135.735 13.924-257.052-84.817-270.977-220.553-6.545-63.805 11.798-124.403 47.173-172.175 39.273-45.72 95.45-77.068 160.133-83.704 134-13.747 253.771 83.737 267.518 217.737z" fill="#fff"/><path d="M336.755 543.468c-56.815.002-111.456-19.343-156.123-55.697C129.244 445.945 97.22 386.612 90.458 320.7c-6.762-65.911 12.549-130.512 54.374-181.899 41.826-51.388 101.159-83.412 167.071-90.174 65.916-6.76 130.513 12.548 181.901 54.373 51.388 41.826 83.412 101.16 90.174 167.071 6.762 65.912-12.549 130.512-54.375 181.899-41.825 51.388-101.159 83.412-167.071 90.175a252.456 252.456 0 0 1-25.777 1.323zm.924-494.164c-8.485 0-17.015.435-25.571 1.312-65.38 6.707-124.236 38.473-165.724 89.446S85.741 255.115 92.448 320.496c6.708 65.38 38.474 124.234 89.447 165.723 50.974 41.488 115.049 60.643 180.433 53.937 65.38-6.707 124.236-38.474 165.724-89.447s60.643-115.052 53.936-180.432c-6.708-65.381-38.474-124.236-89.447-165.725-44.303-36.06-98.509-55.248-154.862-55.248z" fill="#112c41"/><path d="m321.099 133.233-1.021.105c-5.494.564-10.405-3.433-10.968-8.927l-4.503-43.899c-.564-5.494 3.433-10.405 8.927-10.968l1.021-.105c5.494-.564 10.405 3.433 10.968 8.927l4.503 43.899c.564 5.494-3.433 10.405-8.927 10.968z" fill="#9797f7"/><path d="M319.037 134.392c-2.519 0-4.943-.858-6.923-2.471a10.925 10.925 0 0 1-3.999-7.409l-4.503-43.897c-.619-6.034 3.786-11.446 9.82-12.065l1.02-.105c6.035-.607 11.447 3.787 12.066 9.82l4.503 43.899c.62 6.032-3.786 11.445-9.82 12.065l-1.021.104c-.382.039-.763.059-1.143.059zm2.062-1.158h.01zm-5.518-62.848c-.306 0-.614.016-.925.048l-1.02.105c-4.938.506-8.542 4.935-8.036 9.871l4.503 43.897c.506 4.938 4.939 8.547 9.872 8.035l1.021-.104c4.937-.507 8.541-4.936 8.035-9.871l-4.503-43.899c-.474-4.626-4.393-8.082-8.947-8.082z" fill="#112c41"/><path d="m360.902 521.228-1.021.105c-5.494.564-10.405-3.433-10.968-8.927l-4.503-43.899c-.564-5.494 3.433-10.405 8.927-10.968l1.021-.105c5.494-.564 10.405 3.433 10.968 8.927l4.503 43.899c.564 5.493-3.433 10.404-8.927 10.968z" fill="#9797f7"/><path d="M358.852 522.385c-5.565 0-10.354-4.224-10.934-9.878l-4.503-43.898a10.93 10.93 0 0 1 2.411-8.066 10.933 10.933 0 0 1 7.409-3.999l1.021-.104a10.937 10.937 0 0 1 8.066 2.411 10.925 10.925 0 0 1 3.999 7.409l4.503 43.897c.3 2.924-.556 5.788-2.411 8.067a10.933 10.933 0 0 1-7.409 3.999l-1.021.104c-.379.039-.757.058-1.131.058zm2.05-1.157h.01zm-5.517-62.847c-.306 0-.614.016-.925.048l-1.021.104c-2.391.245-4.544 1.407-6.062 3.271s-2.218 4.208-1.973 6.6l4.503 43.899c.507 4.937 4.933 8.538 9.872 8.033l1.021-.104c2.392-.245 4.544-1.407 6.062-3.271s2.218-4.209 1.973-6.6l-4.503-43.899c-.476-4.625-4.394-8.081-8.947-8.081z" fill="#112c41"/><path d="m175.066 311.505.105 1.021c.564 5.494-3.433 10.405-8.927 10.968l-43.899 4.503c-5.494.564-10.405-3.433-10.968-8.927l-.105-1.021c-.564-5.494 3.433-10.405 8.927-10.968l43.899-4.503c5.493-.564 10.404 3.433 10.968 8.927z" fill="#9797f7"/><path d="M121.316 329.05c-5.565 0-10.354-4.224-10.935-9.878l-.104-1.021c-.619-6.032 3.786-11.445 9.82-12.065l43.899-4.503c6.037-.625 11.446 3.786 12.065 9.819v.001l.104 1.021c.3 2.922-.556 5.786-2.411 8.065a10.93 10.93 0 0 1-7.409 3.999l-43.899 4.504c-.379.038-.757.058-1.13.058zm43.808-25.525c-.306 0-.614.016-.925.048l-43.899 4.503c-4.937.507-8.541 4.936-8.035 9.872l.104 1.021c.507 4.937 4.934 8.541 9.872 8.034l43.899-4.504c2.392-.245 4.544-1.407 6.062-3.271s2.218-4.208 1.973-6.6l-.104-1.021c-.475-4.626-4.394-8.082-8.947-8.082z" fill="#112c41"/><path d="m563.06 271.702.105 1.021c.564 5.494-3.433 10.405-8.927 10.968l-43.899 4.503c-5.494.564-10.405-3.433-10.968-8.927l-.105-1.021c-.564-5.494 3.433-10.405 8.927-10.968l43.899-4.503c5.494-.564 10.404 3.433 10.968 8.927z" fill="#9797f7"/><g fill="#112c41"><path d="M509.298 289.248a10.91 10.91 0 0 1-6.923-2.471 10.925 10.925 0 0 1-3.999-7.409l-.104-1.021c-.62-6.032 3.786-11.445 9.82-12.065l43.898-4.503c6.032-.6 11.446 3.786 12.065 9.82l.105 1.021a10.93 10.93 0 0 1-2.411 8.066 10.933 10.933 0 0 1-7.409 3.999l-43.899 4.504c-.383.04-.764.059-1.143.059zm43.821-25.526c-.306 0-.614.016-.925.048l-43.898 4.503c-4.937.507-8.541 4.936-8.035 9.871l.104 1.021a8.945 8.945 0 0 0 3.272 6.062 8.937 8.937 0 0 0 6.6 1.973l43.899-4.504c2.391-.245 4.544-1.407 6.062-3.271s2.218-4.208 1.973-6.6l-.105-1.021v-.001c-.475-4.625-4.394-8.081-8.947-8.081zM240.381 163.196c-1.411 0-2.8-.661-3.677-1.9l-16.398-23.169a4.498 4.498 0 0 1 1.073-6.272 4.499 4.499 0 0 1 6.272 1.073l16.398 23.169a4.498 4.498 0 0 1-3.668 7.099zm-58.727 75.713a4.473 4.473 0 0 1-1.82-.387l-25.952-11.499a4.5 4.5 0 1 1 3.645-8.229l25.952 11.499a4.502 4.502 0 0 1-1.825 8.616zm77.132 240.438a4.5 4.5 0 0 1-4.122-6.301l11.353-26.016a4.501 4.501 0 0 1 8.249 3.6l-11.353 26.016a4.502 4.502 0 0 1-4.127 2.701zm-84.588-71.701a4.5 4.5 0 0 1-2.624-8.158l23.077-16.528a4.5 4.5 0 0 1 5.24 7.316l-23.077 16.528a4.48 4.48 0 0 1-2.616.842zm231.044-261.363a4.5 4.5 0 0 1-4.122-6.301l11.353-26.016a4.5 4.5 0 0 1 8.249 3.6l-11.353 26.016a4.5 4.5 0 0 1-4.127 2.701zm72.876 62.212a4.5 4.5 0 0 1-2.624-8.158l23.076-16.528a4.5 4.5 0 0 1 5.24 7.316l-23.076 16.528a4.473 4.473 0 0 1-2.616.842zM451.41 459.586c-1.411 0-2.8-.661-3.677-1.9l-16.398-23.169a4.499 4.499 0 0 1 1.074-6.272 4.499 4.499 0 0 1 6.273 1.073l16.398 23.169a4.499 4.499 0 0 1-3.67 7.099zm68.268-87.382a4.473 4.473 0 0 1-1.82-.387l-25.952-11.498a4.499 4.499 0 1 1 3.645-8.229l25.952 11.498a4.502 4.502 0 0 1-1.825 8.616zm-229.423 2.632a5.5 5.5 0 0 1-4.627-8.465l46.054-71.997-53.362-131.747a5.499 5.499 0 0 1 3.033-7.162 5.498 5.498 0 0 1 7.163 3.033l54.428 134.381a5.502 5.502 0 0 1-.464 5.028l-47.585 74.392a5.5 5.5 0 0 1-4.64 2.537z"/></g><circle cx="337.218" cy="295.386" fill="#9797f7" r="17.872"/><path d="M337.182 314.26a18.732 18.732 0 0 1-11.877-4.237 18.746 18.746 0 0 1-6.86-12.712c-1.062-10.351 6.496-19.637 16.848-20.699 10.35-1.061 19.637 6.497 20.699 16.848a18.748 18.748 0 0 1-4.137 13.84 18.748 18.748 0 0 1-12.711 6.86c-.656.067-1.311.1-1.962.1zm.048-35.747c-.573 0-1.151.029-1.734.089-9.255.949-16.012 9.251-15.062 18.505a16.759 16.759 0 0 0 6.134 11.364 16.744 16.744 0 0 0 12.372 3.698c4.483-.459 8.519-2.638 11.364-6.133s4.159-7.89 3.699-12.373v.001c-.89-8.673-8.237-15.151-16.773-15.151z" fill="#112c41"/><circle cx="339.564" cy="292.503" fill="#b2b0f7" r="14.192"/><path d="M337.182 314.26a18.732 18.732 0 0 1-11.877-4.237 18.746 18.746 0 0 1-6.86-12.712c-1.062-10.351 6.496-19.637 16.848-20.699 10.35-1.061 19.637 6.497 20.699 16.848a18.748 18.748 0 0 1-4.137 13.84 18.748 18.748 0 0 1-12.711 6.86c-.656.067-1.311.1-1.962.1zm.048-35.747c-.573 0-1.151.029-1.734.089-9.255.949-16.012 9.251-15.062 18.505a16.759 16.759 0 0 0 6.134 11.364 16.744 16.744 0 0 0 12.372 3.698c4.483-.459 8.519-2.638 11.364-6.133s4.159-7.89 3.699-12.373v.001c-.89-8.673-8.237-15.151-16.773-15.151zm-59.566-77.065a5.5 5.5 0 0 1-5.497-5.79l2.417-45.693a5.498 5.498 0 0 1 9.433-3.545l32.118 32.995a5.5 5.5 0 1 1-7.881 7.672l-23.349-23.985-1.753 33.137a5.501 5.501 0 0 1-5.488 5.209zm4.526 185.697a5.499 5.499 0 0 1-5.438-6.32l6.857-45.532a5.492 5.492 0 0 1 6.258-4.619 5.5 5.5 0 0 1 4.619 6.258l-4.985 33.1 27.453-18.642a5.501 5.501 0 0 1 6.18 9.1l-37.854 25.705c-.931.632-2.01.95-3.09.95z" fill="#112c41"/></svg></g><g transform="translate(720.0 491.6666666666667) rotate(15.499800751111732 808.3333333333335 1060.0000000000002) scale(1.6719306627946824 1.6723555680368678)"><svg width="966.946" height="1267.673" viewBox="0 0 966.946 1267.673"><path d="m819.174 1145.974-416.295 116.233c-64.041 17.881-130.451-19.54-148.332-83.58L5.466 286.529c-17.881-64.041 19.54-130.452 83.58-148.332L505.341 21.964c64.041-17.881 130.451 19.54 148.332 83.58l249.08 892.097c17.882 64.042-19.539 130.453-83.579 148.333z" fill="#ff90d8"/><path d="M370.542 1267.656c-53.106 0-101.996-35.166-116.959-88.76L4.503 286.798c-8.72-31.23-4.756-63.987 11.161-92.236s41.883-48.608 73.113-57.328L505.072 21.001c64.468-18 131.564 19.805 149.565 84.275l249.08 892.097c8.72 31.23 4.756 63.987-11.161 92.236s-41.883 48.608-73.113 57.329l-416.295 116.233a121.147 121.147 0 0 1-32.606 4.485zM537.678 18.516a119.097 119.097 0 0 0-32.068 4.411L89.315 139.16c-30.716 8.576-56.253 28.6-71.908 56.384-15.655 27.784-19.554 60-10.978 90.716l249.08 892.097c17.704 63.408 83.695 100.59 147.101 82.886l416.295-116.232.269.963-.269-.963c30.716-8.576 56.253-28.601 71.908-56.384s19.554-60 10.978-90.716l-249.08-892.098c-14.716-52.706-62.806-87.297-115.033-87.297z" fill="#112c41"/><path d="m102.028 497.905-2.233.623c-7.112 1.986-14.487-2.17-16.472-9.282L43.722 347.41c-1.986-7.112 2.17-14.487 9.282-16.472l2.233-.623c7.112-1.986 14.487 2.17 16.472 9.282l39.602 141.836c1.985 7.111-2.171 14.486-9.283 16.472z" fill="#ffa9dc"/><path d="M96.205 500.022c-6.286 0-12.074-4.163-13.845-10.507L42.758 347.679c-1.032-3.697-.563-7.574 1.321-10.918s4.958-5.754 8.655-6.786l2.232-.624c7.635-2.131 15.574 2.345 17.705 9.976l39.602 141.836c1.032 3.697.563 7.574-1.321 10.918s-4.958 5.754-8.654 6.786l-2.233.624a14.32 14.32 0 0 1-3.86.531zM58.827 330.82a12.31 12.31 0 0 0-3.322.457l-2.232.624c-3.183.888-5.828 2.963-7.45 5.842s-2.026 6.217-1.137 9.399l39.602 141.836c1.834 6.569 8.675 10.422 15.24 8.587l2.233-.624c3.182-.888 5.828-2.963 7.45-5.842s2.026-6.217 1.137-9.399L70.745 339.865c-1.524-5.461-6.507-9.045-11.918-9.045z" fill="#112c41"/><path d="m157.964 698.242-2.233.623c-7.112 1.986-14.487-2.17-16.472-9.282L99.657 547.748c-1.986-7.112 2.17-14.487 9.282-16.472l2.233-.623c7.112-1.986 14.487 2.17 16.472 9.282l39.602 141.836c1.986 7.111-2.17 14.486-9.282 16.471z" fill="#ffa9dc"/><path d="M152.141 700.36c-6.287 0-12.073-4.163-13.845-10.507L98.694 548.017c-2.131-7.631 2.345-15.573 9.976-17.705l2.232-.623c7.63-2.129 15.574 2.344 17.705 9.976l39.602 141.836c1.032 3.697.563 7.574-1.321 10.918s-4.958 5.754-8.655 6.786l-.269-.963.269.963-2.232.623c-1.288.36-2.584.532-3.86.532zm-37.378-169.202a12.31 12.31 0 0 0-3.322.457l-2.232.623c-3.183.889-5.828 2.963-7.45 5.842s-2.026 6.217-1.137 9.399l39.602 141.836c1.834 6.569 8.672 10.423 15.24 8.587l2.232-.623c3.183-.888 5.828-2.963 7.45-5.842s2.026-6.217 1.137-9.399l-39.602-141.836c-1.524-5.46-6.507-9.044-11.918-9.044z" fill="#112c41"/><path d="m93.364 500.339-2.233.623c-7.112 1.986-14.487-2.17-16.472-9.282L35.057 349.844c-1.986-7.112 2.17-14.487 9.282-16.472l2.233-.623c7.112-1.986 14.487 2.17 16.472 9.282l39.602 141.836c1.985 7.111-2.17 14.486-9.282 16.472z" fill="#ff90d8"/><path d="M87.514 502.461c-2.439 0-4.849-.627-7.032-1.857a14.28 14.28 0 0 1-6.787-8.655L34.094 350.113c-1.032-3.697-.563-7.574 1.321-10.918s4.958-5.754 8.655-6.786l2.232-.623c7.631-2.13 15.574 2.344 17.705 9.976l39.602 141.836c1.032 3.697.563 7.574-1.321 10.918s-4.958 5.754-8.654 6.786l-2.233.623c-1.284.359-2.59.536-3.887.536zM50.162 333.255a12.31 12.31 0 0 0-3.322.457l-2.232.623c-3.183.889-5.828 2.963-7.45 5.842s-2.026 6.216-1.137 9.398l39.602 141.836a12.286 12.286 0 0 0 5.842 7.45 12.284 12.284 0 0 0 9.398 1.137l2.233-.623c3.182-.888 5.828-2.963 7.45-5.842s2.026-6.217 1.137-9.399L62.08 342.299c-1.524-5.46-6.506-9.044-11.918-9.044zm43.202 167.084h.01z" fill="#112c41"/><path d="m149.3 700.677-2.233.623c-7.112 1.986-14.487-2.17-16.472-9.282L90.993 550.182c-1.986-7.112 2.17-14.487 9.282-16.472l2.233-.623c7.112-1.986 14.487 2.17 16.472 9.282l39.602 141.836c1.985 7.111-2.17 14.486-9.282 16.472z" fill="#ff90d8"/><path d="M143.476 702.794c-6.286 0-12.074-4.163-13.845-10.507L90.03 550.451c-1.032-3.697-.563-7.574 1.321-10.918s4.958-5.754 8.655-6.786l2.232-.623a14.27 14.27 0 0 1 10.918 1.321 14.28 14.28 0 0 1 6.787 8.655l39.602 141.836c1.032 3.697.563 7.574-1.321 10.918s-4.958 5.754-8.655 6.786l-2.232.623c-1.288.36-2.585.531-3.861.531zm-37.355-169.206c-1.117 0-2.24.153-3.345.461l-2.232.623c-3.183.888-5.828 2.963-7.45 5.842s-2.026 6.217-1.137 9.399l39.602 141.836c1.834 6.569 8.673 10.422 15.24 8.587l2.232-.623c3.183-.889 5.828-2.963 7.45-5.842s2.026-6.216 1.137-9.398l-39.602-141.836a12.286 12.286 0 0 0-5.842-7.45 12.293 12.293 0 0 0-6.053-1.599zM149.3 700.677h.01z" fill="#112c41"/><path d="m877.9 1129.476-416.295 116.233c-64.041 17.881-130.452-19.54-148.332-83.58L64.192 270.031c-17.881-64.041 19.54-130.451 83.58-148.332L564.068 5.466c64.041-17.881 130.451 19.54 148.332 83.58l249.08 892.097c17.881 64.041-19.539 130.452-83.58 148.333z" fill="#ffa9dc"/><path d="M429.044 1251.198c-20.605 0-40.964-5.296-59.406-15.688-28.249-15.917-48.608-41.883-57.329-73.113L63.228 270.3c-18-64.47 19.806-131.564 84.275-149.564L563.799 4.502c31.231-8.719 63.987-4.756 92.236 11.162 28.249 15.917 48.608 41.883 57.328 73.113l249.08 892.097c8.72 31.23 4.756 63.987-11.161 92.236s-41.883 48.608-73.113 57.328l-.269-.963.269.963-416.295 116.233c-10.843 3.027-21.873 4.527-32.83 4.527zM596.625 1.977c-10.779 0-21.624 1.474-32.289 4.451L148.041 122.662c-63.407 17.704-100.59 83.692-82.886 147.1l249.08 892.097c8.576 30.716 28.601 56.253 56.384 71.908s60.001 19.553 90.716 10.978l416.295-116.233c30.716-8.576 56.253-28.6 71.909-56.383s19.554-60 10.978-90.716L711.436 89.315c-8.576-30.716-28.6-56.253-56.383-71.908-18.136-10.22-38.163-15.43-58.428-15.43z" fill="#112c41"/><path d="m862.42 1102.65-401.471 112.094c-48.985 13.677-99.782-14.946-113.459-63.93L99.322 261.983c-13.677-48.985 14.946-99.782 63.93-113.459L564.723 36.43c48.985-13.677 99.782 14.946 113.459 63.93L926.35 989.191c13.677 48.985-14.945 99.782-63.93 113.459z" fill="#fff"/><g fill="#112c41"><path d="M436.215 1219.147c-40.724 0-78.214-26.967-89.688-68.064L98.358 262.251c-13.803-49.437 15.188-100.888 64.625-114.691L564.454 35.467c49.441-13.802 100.889 15.188 114.691 64.625l248.168 888.831c13.803 49.438-15.188 100.888-64.625 114.691l-.269-.963.269.963-401.471 112.094a92.885 92.885 0 0 1-25.002 3.439zM589.458 34.028a90.86 90.86 0 0 0-24.466 3.365L163.521 149.487c-48.375 13.507-76.743 63.852-63.237 112.227l248.168 888.831c11.228 40.211 47.916 66.598 87.761 66.602 8.09 0 16.302-1.086 24.466-3.366l401.471-112.094c48.375-13.506 76.743-63.851 63.236-112.227L677.219 100.629c-11.227-40.211-47.916-66.601-87.761-66.601z"/><path d="m406.72 128.459-110.585 30.876c-5.418 1.513-11.036-1.653-12.549-7.071-1.513-5.418 1.653-11.036 7.071-12.549l110.585-30.876c5.418-1.513 11.036 1.653 12.549 7.071 1.512 5.418-1.653 11.036-7.071 12.549z"/><path d="M293.378 160.715c-1.898 0-3.774-.488-5.474-1.445a11.115 11.115 0 0 1-5.283-6.737c-1.658-5.94 1.825-12.122 7.766-13.781l110.585-30.876c5.941-1.658 12.123 1.824 13.782 7.765 1.658 5.94-1.825 12.123-7.766 13.781l-110.585 30.876c-.998.279-2.015.417-3.025.417zm110.617-51.256c-.829 0-1.664.114-2.484.343l-110.585 30.876a9.128 9.128 0 0 0-5.533 4.338c-1.204 2.137-1.504 4.616-.844 6.979s2.2 4.328 4.338 5.532a9.126 9.126 0 0 0 6.979.845l110.585-30.876a9.128 9.128 0 0 0 5.533-4.338c1.204-2.137 1.504-4.616.844-6.979s-2.2-4.328-4.338-5.532a9.126 9.126 0 0 0-4.495-1.188z"/><circle cx="451.568" cy="104.881" r="12.5"/><path d="M451.573 118.383c-5.906 0-11.343-3.911-13.008-9.871-2.001-7.17 2.203-14.631 9.373-16.633a13.415 13.415 0 0 1 10.258 1.241 13.407 13.407 0 0 1 6.375 8.131c2.001 7.169-2.203 14.631-9.372 16.633a13.457 13.457 0 0 1-3.626.499zm-.009-25.003c-1.021 0-2.058.137-3.088.425-6.108 1.705-9.689 8.062-7.984 14.169 1.705 6.108 8.063 9.689 14.169 7.984 6.107-1.705 9.689-8.061 7.983-14.169-1.417-5.077-6.048-8.409-11.08-8.409z"/></g></svg></g><g transform="translate(1213.3333333333335 1021.6666666666667) rotate(0.0 365.83333333333326 352.5) scale(1.6695874939910058 1.666899165604659)"><svg width="438.232" height="422.941" viewBox="0 0 438.232 422.941"><path d="M22.587 195.28 229.459 56.766 437.232 195.28l-196.08 138.515z" fill="#cbc8ff"/><path d="M241.152 334.796c-.186 0-.372-.052-.535-.155L22.052 196.125a1.001 1.001 0 0 1-.021-1.676L228.903 55.934a1 1 0 0 1 1.111-.001l207.772 138.515a1 1 0 0 1 .022 1.648l-196.08 138.516a.993.993 0 0 1-.576.184zM24.418 195.257l216.704 137.336 194.343-137.289L229.46 57.968z" fill="#112c41"/><path d="M88.246 44.623v62.512H1V44.623C1 20.527 20.527 1 44.623 1c1.673 0 3.328.09 4.947.279 10.074 1.133 19.104 5.702 25.904 12.493 7.888 7.897 12.772 18.799 12.772 30.851z" fill="#dedffe"/><path d="M88.246 108.134H1a1 1 0 0 1-1-1V44.623C0 20.018 20.017 0 44.623 0c1.736 0 3.439.096 5.063.286 9.954 1.12 19.365 5.658 26.495 12.779 8.426 8.435 13.066 19.643 13.066 31.558v62.512a1 1 0 0 1-1.001.999zm-86.246-2h85.247V44.623c0-11.382-4.432-22.087-12.48-30.144C67.956 7.678 58.969 3.342 49.458 2.273A41.86 41.86 0 0 0 44.623 2C21.121 2 2 21.121 2 44.623z" fill="#112c41"/><path d="M380.566 43.997v344.664H87.347l-.899-281.527V44.623c0-12.053-4.884-22.954-12.772-30.851-6.8-6.791-15.83-11.36-25.904-12.493V1H337.57c23.746 0 42.996 19.251 42.996 42.997z" fill="#fff"/><path d="M380.566 389.662H87.347a1 1 0 0 1-1-.997l-.899-281.527V44.623c0-11.382-4.432-22.087-12.48-30.144C66.158 7.678 57.17 3.342 47.66 2.273a1 1 0 0 1-.888-.994V1a1 1 0 0 1 1-1H337.57c24.26 0 43.997 19.737 43.997 43.998v344.664a1 1 0 0 1-1.001 1zm-292.222-2h291.223V43.998C379.566 20.84 360.726 2 337.569 2H56.044a44.854 44.854 0 0 1 18.338 11.064c8.426 8.435 13.066 19.643 13.066 31.558v62.512z" fill="#112c41"/><path d="M106.235 94.394H159.6v53.365h-53.365z" fill="#fff"/><path d="M159.6 148.759h-53.365a1 1 0 0 1-1-1V94.393a1 1 0 0 1 1-1H159.6a1 1 0 0 1 1 1v53.365a1 1 0 0 1-1 1.001zm-52.365-2H158.6V95.393h-51.365z" fill="#112c41"/><g fill="#ff90d8"><path d="M133.105 139.907a2.001 2.001 0 0 1-2-1.978l-.375-33.661a2 2 0 0 1 1.978-2.022h.023c1.094 0 1.987.881 2 1.978l.375 33.661a2 2 0 0 1-1.978 2.022h-.023z"/><path d="M119.325 133a2 2 0 0 1-1.181-3.615l27.189-19.848a1.999 1.999 0 1 1 2.358 3.231l-27.189 19.848a1.992 1.992 0 0 1-1.177.384z"/><path d="M147.39 131.667a1.99 1.99 0 0 1-1.019-.28l-28.949-17.181a1.999 1.999 0 1 1 2.041-3.439l28.949 17.181a1.999 1.999 0 0 1-1.022 3.719z"/></g><path d="M172.737 94.394h53.365v53.365h-53.365z" fill="#fff"/><path d="M226.102 148.759h-53.365a1 1 0 0 1-1-1V94.393a1 1 0 0 1 1-1h53.365a1 1 0 0 1 1 1v53.365a1 1 0 0 1-1 1.001zm-52.365-2h51.365V95.393h-51.365z" fill="#112c41"/><path d="M199.606 139.907a2.001 2.001 0 0 1-2-1.978l-.375-33.661a2 2 0 0 1 1.978-2.022h.023c1.094 0 1.987.881 2 1.978l.375 33.661a2 2 0 0 1-1.978 2.022h-.023z" fill="#ff90d8"/><path d="M185.826 133a2 2 0 0 1-1.181-3.615l27.19-19.848a2 2 0 0 1 2.358 3.231l-27.19 19.848a1.992 1.992 0 0 1-1.177.384z" fill="#ff90d8"/><path d="M213.892 131.667a1.99 1.99 0 0 1-1.019-.28l-28.949-17.181a1.999 1.999 0 1 1 2.041-3.439l28.949 17.181a1.999 1.999 0 0 1-1.022 3.719z" fill="#ff90d8"/><path d="M241.037 94.394h53.365v53.365h-53.365z" fill="#fff"/><path d="M294.402 148.759h-53.365a1 1 0 0 1-1-1V94.393a1 1 0 0 1 1-1h53.365a1 1 0 0 1 1 1v53.365a1 1 0 0 1-1 1.001zm-52.365-2h51.365V95.393h-51.365z" fill="#112c41"/><path d="M267.907 139.907a2.001 2.001 0 0 1-2-1.978l-.375-33.661a2 2 0 0 1 1.978-2.022h.023c1.094 0 1.987.881 2 1.978l.375 33.661a2 2 0 0 1-1.978 2.022h-.023z" fill="#ff90d8"/><path d="M254.126 133a2 2 0 0 1-1.181-3.615l27.19-19.848a2 2 0 0 1 2.358 3.231l-27.19 19.848a1.992 1.992 0 0 1-1.177.384z" fill="#ff90d8"/><path d="M282.192 131.667a1.99 1.99 0 0 1-1.019-.28l-28.949-17.181a1.999 1.999 0 1 1 2.041-3.439l28.949 17.181a1.999 1.999 0 0 1-1.022 3.719z" fill="#ff90d8"/><path d="M308.437 94.394h53.365v53.365h-53.365z" fill="#fff"/><path d="M361.803 148.759h-53.365a1 1 0 0 1-1-1V94.393a1 1 0 0 1 1-1h53.365a1 1 0 0 1 1 1v53.365a1 1 0 0 1-1 1.001zm-52.366-2h51.365V95.393h-51.365z" fill="#112c41"/><path d="M335.308 139.907a2.001 2.001 0 0 1-2-1.978l-.375-33.661a2 2 0 0 1 1.978-2.022h.023c1.094 0 1.987.881 2 1.978l.375 33.661a2 2 0 0 1-1.978 2.022h-.023z" fill="#ff90d8"/><path d="M321.527 133a2 2 0 0 1-1.181-3.615l27.189-19.848a1.999 1.999 0 1 1 2.358 3.231l-27.189 19.848a1.992 1.992 0 0 1-1.177.384z" fill="#ff90d8"/><path d="M349.593 131.667a1.99 1.99 0 0 1-1.019-.28l-28.949-17.181a1.999 1.999 0 1 1 2.041-3.439l28.949 17.181a1.999 1.999 0 0 1-1.022 3.719z" fill="#ff90d8"/><path d="M437.232 421.941H22.587V195.28l207.322 126.822L437.232 195.28z" fill="#dedffe"/><path d="M437.232 422.941H22.587a1 1 0 0 1-1-1V195.28a1 1 0 0 1 1.522-.853l206.8 126.504L436.71 194.426a1 1 0 0 1 1.522.853V421.94a1 1 0 0 1-1 1.001zm-413.645-2h412.645V197.064L230.431 322.956c-.32.195-.724.195-1.044 0l-205.8-125.892z" fill="#112c41"/><path d="M22.587 421.941 223.981 280.09a9.536 9.536 0 0 1 10.966-.011l202.285 141.863H22.587z" fill="#dedffe"/><path d="M437.232 422.941H22.587a.998.998 0 0 1-.576-1.817l201.394-141.852a10.56 10.56 0 0 1 12.116-.012l202.286 141.862c.357.25.511.703.379 1.119s-.518.7-.954.7zm-411.489-2h408.321L234.372 280.897a8.555 8.555 0 0 0-9.816.01z" fill="#112c41"/></svg></g><g transform="translate(1430.0 1956.6666666666667) rotate(0.0 150.0 150.0000000000001) scale(1.6831994254679294 1.6831994254679308)"><svg width="178.232" height="178.232" viewBox="0 0 178.232 178.232"><circle cx="89.116" cy="89.116" fill="#7bdaac" r="88.108"/><path d="M89.246 178.195c-28.398 0-56.331-13.51-73.586-38.636C-12.154 99.055-1.83 43.474 38.674 15.66c40.503-27.815 96.084-17.49 123.897 23.013 13.474 19.621 18.5 43.314 14.154 66.716s-17.546 43.709-37.167 57.183a88.618 88.618 0 0 1-50.312 15.623zM88.989 2.036c-16.991 0-34.149 4.948-49.183 15.272C.211 44.498-9.881 98.831 17.309 138.426c27.19 39.594 81.522 49.684 121.118 22.497 19.18-13.171 32.083-33.023 36.333-55.899s-.665-46.038-13.836-65.218c-16.867-24.561-44.178-37.77-71.935-37.77z" fill="#112c41"/><path d="M84.232 143.374a8.5 8.5 0 0 1-6.879-3.509L39.471 87.64a8.5 8.5 0 0 1 13.761-9.982l29.765 41.035 39.274-76.374c2.146-4.177 7.272-5.817 11.446-3.673a8.5 8.5 0 0 1 3.672 11.446l-45.596 88.669a8.502 8.502 0 0 1-7.561 4.613z" fill="#fff"/></svg></g><g transform="translate(2200.0 543.3333333333334) rotate(-14.207316350780308 301.66666666666674 161.66666666666669) scale(1.6650476148422901 1.665284652084267)"><svg width="362.352" height="194.161" viewBox="0 0 362.352 194.161"><path d="M354.352 5 109.917 192.798a1.752 1.752 0 0 1-2.573-.494L64.352 120z" fill="#dedffe"/><path d="M108.849 194.16a2.76 2.76 0 0 1-2.366-1.345l-42.99-72.304a1.001 1.001 0 0 1 .491-1.441l290-115a1 1 0 0 1 .977 1.723L110.526 193.591a2.753 2.753 0 0 1-1.677.57zm-43.038-73.663 42.392 71.296c.15.253.382.331.506.354a.741.741 0 0 0 .599-.142L348.066 8.569z" fill="#112c41"/><path d="m64.352 120-61.937-4.424c-1.68-.12-1.952-2.474-.343-2.974L361.352 1z" fill="#fff"/><path d="M64.352 121c-.023 0-.048 0-.071-.003l-61.937-4.424a2.494 2.494 0 0 1-2.327-2.228 2.494 2.494 0 0 1 1.758-2.699L361.055.045a1 1 0 0 1 .669 1.883l-297 119a1.009 1.009 0 0 1-.372.072zM337.759 9.376 2.369 113.557c-.36.112-.383.399-.364.559.015.13.092.434.482.462l61.707 4.408z" fill="#112c41"/><path d="M361.352 1 34.767 189.301c-1.926 1.11-4.123-.949-3.14-2.943L64.352 120z" fill="#fff"/><path d="M33.628 190.615a3.214 3.214 0 0 1-2.206-.892c-1.067-1.001-1.339-2.495-.691-3.807l32.725-66.358a1 1 0 0 1 .524-.486l297-119a.998.998 0 0 1 .871 1.794L35.266 190.167c-.521.3-1.083.448-1.638.448zm31.451-69.829-32.556 66.015c-.302.612-.061 1.157.267 1.464.325.307.885.51 1.478.171L348.666 7.16 65.08 120.786z" fill="#112c41"/></svg></g></svg>