<svg xmlns="http://www.w3.org/2000/svg" viewBox="0 0 1800 1800" width="1800" height="1800"><g transform="translate(787.0 767.0) rotate(0.0 221.0 437.5) scale(1.0012617710553797 1.0004104541177465)"><svg width="441.443" height="874.641" viewBox="0 0 441.443 874.641"><path d="M232.168 676.115a833.345 833.345 0 0 1-17.487-34.982l-.103-.193c-.034-.078-.075-.15-.103-.207-5.688-12.076-11.223-23.793-15.97-34.065 0 0-82.533 42.831-130.225 60.381 5.559 11.31 10.218 20.639 16.59 32.357a15033.306 15033.306 0 0 0 20.358 37.327z" fill="#ffd6c0"/><path d="m180.931 606.01 37.08 77.044c4.659.63 13.679 1.947 16.84 1.842-14.631-30.837-39.132-82.545-39.132-82.545z" fill="#f5b9ab"/><path d="M105.229 737.733a1 1 0 0 1-.878-.52c-.094-.172-9.533-17.409-20.359-37.329-6.611-12.157-11.433-21.863-16.609-32.394a1 1 0 0 1 .552-1.379c47.086-17.327 129.285-59.902 130.109-60.33a1.01 1.01 0 0 1 .784-.059c.258.089.469.279.584.526 4.12 8.915 8.786 18.818 13.727 29.304l2.24 4.756c.047.089.083.159.115.233l.068.121c5.814 12.317 11.364 23.42 17.488 34.984a1.002 1.002 0 0 1-.453 1.37l-126.94 60.618a.96.96 0 0 1-.428.099zm-35.562-70.13c4.983 10.131 9.698 19.585 16.082 31.326a15145.935 15145.935 0 0 0 19.902 36.493l125.146-59.761c-5.947-11.262-11.369-22.126-17.02-34.102l-.081-.149-.073-.146a2.694 2.694 0 0 1-.047-.093l-2.246-4.767c-4.768-10.118-9.28-19.695-13.294-28.368-9.182 4.735-83.752 42.98-128.369 59.567z" fill="#112c41"/><path d="M84.676 837.172c50.527-8.015 106.897-39.198 150.107-73.225 12.595-9.923 24.075-20.076 33.961-29.978 0 0-23.486-35.727-36.577-57.854l-10.239 4.925s-116.353 55.621-116.701 55.693c-6.373 9.186-33.962 53.555-20.551 100.439z" fill="#b2b0f7"/><path d="M84.676 838.172a1 1 0 0 1-.961-.725c-13.776-48.16 14.819-92.82 20.691-101.284a.997.997 0 0 1 .462-.362c2.185-.955 115.483-55.115 116.629-55.663l10.237-4.924a.999.999 0 0 1 1.294.393c12.929 21.854 36.317 57.457 36.552 57.813a1 1 0 0 1-.128 1.256c-10.023 10.04-21.479 20.153-34.05 30.057-49.332 38.848-105.62 66.297-150.57 73.427a1.025 1.025 0 0 1-.156.012zm21.234-100.667c-4.111 5.981-33.563 51.135-20.512 98.537 44.482-7.295 100.012-34.488 148.767-72.882 12.269-9.666 23.467-19.528 33.297-29.323-3.271-4.991-23.658-36.175-35.687-56.424l-9.413 4.527c-98.942 47.299-114.047 54.46-116.452 55.565z" fill="#360815"/><path d="M268.745 733.969s-23.486-35.727-36.577-57.854l-11.445 8.307c8.871 20.647 23.221 52.695 22.194 73.188-.011.216 15.942-13.739 25.828-23.641z" fill="#9797f7"/><path d="M211.25 783.755a2.499 2.499 0 0 1-2.22-1.348c-8.056-15.485-10.684-35.678-7.21-55.399 3.743-21.247 14.042-38.866 29-49.612a2.499 2.499 0 1 1 2.917 4.06c-29.826 21.427-35.302 69.752-20.272 98.645a2.5 2.5 0 0 1-2.215 3.654z" fill="#fff"/><path d="M84.676 838.172a1 1 0 0 1-.961-.725c-13.776-48.16 14.819-92.82 20.691-101.284a.997.997 0 0 1 .462-.362c2.185-.955 115.483-55.115 116.629-55.663l10.237-4.924a.999.999 0 0 1 1.294.393c12.929 21.854 36.317 57.457 36.552 57.813a1 1 0 0 1-.128 1.256c-10.023 10.04-21.479 20.153-34.05 30.057-49.332 38.848-105.62 66.297-150.57 73.427a1.025 1.025 0 0 1-.156.012zm21.234-100.667c-4.111 5.981-33.563 51.135-20.512 98.537 44.482-7.295 100.012-34.488 148.767-72.882 12.269-9.666 23.467-19.528 33.297-29.323-3.271-4.991-23.658-36.175-35.687-56.424l-9.413 4.527c-98.942 47.299-114.047 54.46-116.452 55.565z" fill="#112c41"/><path d="M92.523 858.956c.736 1.417 1.883 2.426 3.634 2.747 31.891 5.849 140.982-51.143 183.113-98.4 3.609-4.048 3.135-7.191 1.725-10.201l-12.251-19.133c-43.824 43.868-118.817 92.848-184.069 103.202 2.03 7.753 4.521 15.384 7.848 21.785z" fill="#fff"/><path d="M101.12 863.105c-1.896 0-3.613-.138-5.143-.419-1.938-.355-3.398-1.455-4.341-3.27-2.944-5.663-5.537-12.856-7.927-21.992a1.002 1.002 0 0 1 .81-1.24c65.891-10.455 141.319-60.681 183.518-102.922a1 1 0 0 1 1.55.168l12.251 19.133a.856.856 0 0 1 .063.115c1.393 2.975 2.259 6.643-1.885 11.29-19.59 21.973-55.356 47.891-95.674 69.332-35.358 18.804-66.304 29.804-83.222 29.805zm-15.195-25.123c2.273 8.485 4.725 15.203 7.485 20.513.652 1.255 1.61 1.982 2.927 2.225 1.422.261 3.021.388 4.774.388 35.506.005 135.966-51.982 177.412-98.469 3.152-3.536 2.925-6.182 1.594-9.054l-11.546-18.031c-42.347 42.043-117.034 91.602-182.646 102.428z" fill="#112c41"/><path d="M232.165 676.112c-33.45 26.895-88.484 52.058-126.937 60.622 0 0-7.67-14.167-17.324-31.743-.336-.609-.67-1.227-1.005-1.845a190.71 190.71 0 0 0-1.013-1.857c-.334-.618-.676-1.249-1.019-1.879 35.466-8.473 87.532-33.285 129.472-58.927 0 0 .043.09.133.251.029.057.076.128.102.204.037.069.076.128.104.194a835.219 835.219 0 0 0 17.487 34.98z" fill="#fff"/><path d="M105.228 737.733a1 1 0 0 1-.879-.523c-.077-.142-7.779-14.365-17.321-31.738a241.27 241.27 0 0 1-.975-1.79c-.366-.677-.698-1.292-1.041-1.908l-1.023-1.888a1 1 0 0 1 .647-1.449c32.9-7.859 83.607-30.942 129.183-58.808a.999.999 0 0 1 1.426.426c.005.011.039.079.102.192.053.094.096.176.131.256.058.102.096.177.129.257a831.329 831.329 0 0 0 17.443 34.885 1 1 0 0 1-.257 1.247c-31.83 25.593-86.577 51.738-127.347 60.818a1.084 1.084 0 0 1-.218.023zm-18.862-37.659.4.738c.341.614.677 1.235 1.013 1.858.354.654.677 1.25 1 1.836a6901.046 6901.046 0 0 1 16.968 31.085c40.155-9.107 93.627-34.637 125.148-59.743a830.362 830.362 0 0 1-16.959-33.947c-44.919 27.356-94.687 50.044-127.57 58.173z" fill="#112c41"/><circle cx="129.502" cy="755.92" fill="#ffe993" r="8.5"/><path d="M129.548 758.871c-13.619 6.981-31.95 7.303-38.164 5.459a2.833 2.833 0 0 1 1.611-5.431c4.771 1.415 22.331 1.255 34.751-5.482a2.832 2.832 0 0 1 2.703 4.978c-.298.162-.599.321-.901.476z" fill="#fff"/><path d="M100.617 766.298c-4.074 0-7.436-.393-9.518-1.01a3.837 3.837 0 0 1-2.584-4.764 3.838 3.838 0 0 1 4.763-2.585c4.646 1.378 21.814 1.201 33.99-5.401a3.837 3.837 0 0 1 5.196 1.538 3.837 3.837 0 0 1-1.538 5.197 47.7 47.7 0 0 1-.922.486h-.001c-9.47 4.857-20.951 6.539-29.386 6.539zm-8.427-6.516a1.834 1.834 0 0 0-.522 3.589c5.948 1.766 24.043 1.469 37.424-5.39.295-.152.59-.308.882-.466a1.834 1.834 0 0 0 .734-2.483 1.835 1.835 0 0 0-2.486-.735c-12.656 6.866-30.628 7.009-35.512 5.562a1.771 1.771 0 0 0-.52-.077z" fill="#112c41"/><circle cx="124.183" cy="782.268" fill="#ffe993" r="8.5"/><path d="M124.141 785.219c-13.82 6.575-34.002 5.096-40.158 3.069a2.832 2.832 0 1 1 1.771-5.381c4.727 1.556 24.133 3.173 36.747-3.193a2.832 2.832 0 0 1 2.555 5.055c-.302.154-.608.304-.915.45z" fill="#fff"/><path d="M99.175 790.992c-6.964 0-12.829-.872-15.505-1.753a3.837 3.837 0 0 1-2.442-4.839c.32-.973 1-1.763 1.913-2.224a3.804 3.804 0 0 1 2.925-.219c4.344 1.432 23.424 3.202 35.984-3.136a3.84 3.84 0 0 1 5.148 1.691 3.838 3.838 0 0 1-1.691 5.149c-.31.156-.622.31-.935.459l-.001.001c-7.77 3.697-17.322 4.871-25.396 4.871zm-14.31-7.227c-.283 0-.564.065-.823.197a1.834 1.834 0 0 0 .253 3.375c5.562 1.833 25.455 3.62 39.416-3.022.299-.143.599-.29.894-.438.9-.456 1.263-1.561.808-2.462s-1.56-1.266-2.463-.808c-13.076 6.6-32.976 4.741-37.51 3.25a1.864 1.864 0 0 0-.575-.092z" fill="#112c41"/><path d="M381.506 748.715a833.164 833.164 0 0 1-1.934-39.062l-.017-.218c0-.086-.009-.167-.011-.231-.349-13.344-.702-26.298-.915-37.612 0 0-92.791 6.005-143.513 2.883.538 12.591 1.05 23.005 2.169 36.298 1.918 22.852 3.619 42.363 3.619 42.363z" fill="#ffd6c0"/><path d="m362.805 663.919 2.949 85.451c4.012 2.451 11.74 7.286 14.676 8.461-.987-34.118-2.613-91.314-2.613-91.314z" fill="#f5b9ab"/><path d="M240.904 754.137a1 1 0 0 1-.996-.913c-.017-.195-1.723-19.773-3.62-42.365-1.161-13.797-1.671-24.62-2.172-36.339a.998.998 0 0 1 1.061-1.041c50.078 3.081 142.46-2.823 143.387-2.884a1.002 1.002 0 0 1 1.065.98c.186 9.86.475 20.856.781 32.497l.134 5.106c.007.105.011.182.011.26l.014.138c.366 13.613.98 26.011 1.935 39.065a1 1 0 0 1-.965 1.073l-140.602 4.423h-.033zm-4.742-78.595c.486 11.275.998 21.825 2.119 35.149a15023.63 15023.63 0 0 0 3.537 41.417l138.614-4.36c-.914-12.707-1.506-24.833-1.861-38.068l-.014-.168-.007-.162a4.052 4.052 0 0 1-.006-.11l-.134-5.114c-.295-11.235-.575-21.87-.761-31.468-10.312.639-93.967 5.651-141.487 2.884z" fill="#112c41"/><path d="M181.679 836.819c49.482 12.991 113.634 7.123 166.883-6.643 15.523-4.017 30.118-8.693 43.152-13.78 0 0-7.127-42.157-10.209-67.681l-11.355.389s-128.899 4.107-129.246 4.034c-9.531 5.844-52.639 35.363-59.225 83.681z" fill="#b2b0f7"/><path d="M244.626 844.978c-23.311 0-44.861-2.377-63.2-7.192a1 1 0 0 1-.737-1.102c6.765-49.639 50.912-79.015 59.693-84.399a.994.994 0 0 1 .569-.146h.005c2.537 0 127.894-3.993 129.163-4.033l11.353-.39.035-.001a1 1 0 0 1 .992.88c3.043 25.21 10.131 67.214 10.202 67.635a1 1 0 0 1-.623 1.099c-13.219 5.16-27.776 9.809-43.265 13.816-35.465 9.168-71.547 13.833-104.187 13.833zm-61.832-8.902c43.658 11.218 105.436 8.665 165.518-6.867 15.117-3.912 29.337-8.436 42.281-13.449-.987-5.886-7.104-42.636-9.97-66.014l-10.439.357c-109.587 3.492-126.314 3.972-128.967 4.016-6.169 3.82-51.299 33.304-58.423 81.957zm58.11-82.939h.01z" fill="#360815"/><path d="M391.715 816.396s-7.127-42.157-10.209-67.681l-13.82 3.001c-.186 22.471.057 57.585-9.128 75.932-.097.192 20.123-6.164 33.157-11.252z" fill="#9797f7"/><path d="M320.05 839.051a2.5 2.5 0 0 1-2.492-2.336c-1.144-17.419 4.574-36.962 15.689-53.619 11.975-17.946 28.492-29.933 46.51-33.752a2.494 2.494 0 0 1 2.964 1.927 2.5 2.5 0 0 1-1.927 2.964c-35.926 7.616-60.382 49.654-58.247 82.152a2.499 2.499 0 0 1-2.497 2.664z" fill="#fff"/><path d="M244.626 844.978c-23.311 0-44.861-2.377-63.2-7.192a1 1 0 0 1-.737-1.102c6.765-49.639 50.912-79.015 59.693-84.399a.994.994 0 0 1 .569-.146h.005c2.537 0 127.894-3.993 129.163-4.033l11.353-.39.035-.001a1 1 0 0 1 .992.88c3.043 25.21 10.131 67.214 10.202 67.635a1 1 0 0 1-.623 1.099c-13.219 5.16-27.776 9.809-43.265 13.816-35.465 9.168-71.547 13.833-104.187 13.833zm-61.832-8.902c43.658 11.218 105.436 8.665 165.518-6.867 15.117-3.912 29.337-8.436 42.281-13.449-.987-5.886-7.104-42.636-9.97-66.014l-10.439.357c-109.587 3.492-126.314 3.972-128.967 4.016-6.169 3.82-51.299 33.304-58.423 81.957zm58.11-82.939h.01z" fill="#112c41"/><path d="M180.098 859.919c.104 1.593.747 2.978 2.222 3.977 26.842 18.185 149.644 9.901 207.229-16.411 4.933-2.254 5.763-5.322 5.684-8.645l-3.518-22.445c-57.771 22.529-146.132 37.197-210.035 20.423-1.262 7.915-2.052 15.903-1.582 23.101z" fill="#fff"/><path d="M242.265 874.643c-28.942 0-51.006-3.483-60.506-9.919-1.631-1.105-2.525-2.7-2.659-4.739-.416-6.369.104-13.998 1.591-23.323.044-.279.205-.526.441-.681.237-.153.528-.2.8-.129 64.531 16.938 153.791 1.305 209.418-20.388a1 1 0 0 1 1.352.776l3.518 22.445a.981.981 0 0 1 .012.131c.079 3.284-.604 6.99-6.268 9.578-26.774 12.234-69.946 21.572-115.484 24.979-11.4.855-22.219 1.27-32.215 1.27zm-61.169-14.789c.093 1.411.676 2.463 1.785 3.214 25.427 17.228 146.808 10.671 206.252-16.491 4.309-1.97 5.165-4.482 5.101-7.646l-3.315-21.153c-39.307 15.144-94.882 27.231-146.826 27.233-21.642 0-42.649-2.098-61.597-6.946-1.332 8.682-1.79 15.818-1.4 21.789z" fill="#112c41"/><path d="M381.505 748.711c-41.444 11.164-101.951 12.058-140.6 4.427 0 0-1.322-16.055-3.088-36.031-.063-.692-.12-1.393-.178-2.094-.057-.701-.115-1.401-.18-2.107-.057-.701-.117-1.415-.177-2.13 35.878 6.513 93.527 4.745 142.239-1.855 0 0 .003.1.021.284.004.064.018.147.011.228.006.078.019.148.017.22a834.37 834.37 0 0 0 1.935 39.058z" fill="#fff"/><path d="M299.062 759.116c-20.892 0-41.319-1.635-58.351-4.997a1.002 1.002 0 0 1-.803-.899c-.013-.16-1.342-16.281-3.088-36.025a214.12 214.12 0 0 1-.178-2.099 195.85 195.85 0 0 0-.179-2.098l-.178-2.138a1 1 0 0 1 1.175-1.068c33.281 6.041 88.991 5.312 141.926-1.862.281-.035.565.046.781.229.216.184.344.45.353.733 0 .012.004.088.016.217.011.11.017.202.017.288.012.117.017.199.015.282a829.615 829.615 0 0 0 1.934 38.959 1 1 0 0 1-.737 1.039c-23.045 6.206-53.332 9.439-82.703 9.439zm-57.223-6.815c40.426 7.815 99.652 5.961 138.609-4.344a831.18 831.18 0 0 1-1.868-37.901c-52.128 6.972-106.819 7.72-140.194 1.932l.069.837a174 174 0 0 1 .18 2.107c.057.696.114 1.394.177 2.083a6893.964 6893.964 0 0 1 3.027 35.286z" fill="#112c41"/><circle cx="255.407" cy="780.469" fill="#ffe993" r="8.5"/><path d="M254.262 783.189c-15.277.912-32.188-6.169-37.136-10.357a2.833 2.833 0 0 1 3.66-4.324c3.798 3.215 19.939 10.133 34.02 8.963a2.833 2.833 0 0 1 .473 5.645c-.338.028-.678.053-1.017.073z" fill="#fff"/><path d="M251.474 784.271c-14.903 0-30.208-6.626-34.993-10.676a3.837 3.837 0 0 1-.449-5.401 3.84 3.84 0 0 1 5.401-.45c3.698 3.132 19.482 9.862 33.292 8.731 2.106-.191 3.962 1.395 4.138 3.499s-1.394 3.961-3.499 4.138c-.345.029-.693.055-1.04.075h-.001c-.946.057-1.898.084-2.849.084zm-32.516-15.432c-.521 0-1.039.22-1.4.647a1.835 1.835 0 0 0 .215 2.582c4.736 4.009 21.419 11.008 36.43 10.123h-.001c.331-.021.663-.044.993-.071a1.836 1.836 0 0 0 1.673-1.979c-.084-1.005-.972-1.771-1.979-1.672-14.351 1.186-30.862-5.907-34.749-9.198a1.82 1.82 0 0 0-1.182-.432z" fill="#112c41"/><circle cx="239.937" cy="802.45" fill="#ffe993" r="8.5"/><path d="M238.712 805.135c-15.297.459-33.178-9.015-38-13.347a2.833 2.833 0 0 1 3.786-4.214c3.701 3.326 20.817 12.614 34.926 11.862a2.833 2.833 0 0 1 .306 5.656 43.07 43.07 0 0 1-1.018.043z" fill="#fff"/><path d="M237.618 806.152c-15.732 0-33.154-9.648-37.575-13.62-1.571-1.412-1.701-3.84-.289-5.412s3.84-1.702 5.412-.29c3.401 3.057 20.163 12.389 34.205 11.607a3.837 3.837 0 0 1 4.032 3.62 3.837 3.837 0 0 1-3.619 4.033 45.76 45.76 0 0 1-1.041.044l-.001.001c-.373.011-.749.017-1.124.017zm-35.012-18.302c-.502 0-1.003.204-1.364.606a1.834 1.834 0 0 0 .138 2.587c4.254 3.823 21.038 13.108 36.215 13.108a41.529 41.529 0 0 0 2.083-.059 1.836 1.836 0 0 0 1.729-1.929 1.836 1.836 0 0 0-1.93-1.729c-14.623.76-32.098-8.929-35.647-12.117a1.834 1.834 0 0 0-1.224-.467z" fill="#112c41"/><path d="M389.305 489.147c-2.92 67.69-.24 138.35 1.21 168.25.41 8.36-5.75 15.59-14.07 16.52-1.52.17-3.13.35-4.83.53-16.79 1.8-41.6 4.11-63.31 4.7-37 1-73.05-1.38-73.05-1.38s-12.95-152.62-14.95-245.62 12-207 12-207-.16.23-.45.67v.01c-4.48 6.64-40.32 61.37-50.55 124.32-12.07 74.27 6.03 189.03 25.48 238.71 2.56 6.53.42 13.98-5.28 18.07-4.14 2.97-8.78 6.02-13.8 9.09-38.77 23.74-99.61 48.94-118.22 53.48-7.36-9.7-83.18-164.35-65.18-335.35 16.36-155.43 113-349 274-332 2.84.3 5.64.64 8.39 1.03 146.81 20.26 160.6 152 151.61 220.97-9 69-43 126-49 265z" fill="#ffa9dc"/><path d="M289.448 680.39c-29.236 0-53.96-1.605-54.259-1.625a1 1 0 0 1-.93-.913c-.13-1.527-12.976-153.716-14.954-245.684-1.764-82.018 9.047-181.504 11.514-202.95-8.565 13.264-39.217 63.798-48.528 121.089-12.327 75.853 6.5 189.849 25.424 238.186 2.74 6.988.425 14.903-5.628 19.247-4.098 2.939-8.762 6.012-13.861 9.131-39.382 24.114-100.421 49.187-118.505 53.599a1.013 1.013 0 0 1-1.034-.367c-3.714-4.895-24.515-45.833-42.264-107.516C10.668 507.833-6.131 423.737 3.31 334.043c8.795-83.559 39.8-169.964 82.937-231.133C152.455 9.028 227.289-4.24 278.41 1.153c2.923.309 5.758.656 8.426 1.034 34.512 4.763 63.901 16.056 87.347 33.563 20.298 15.157 36.329 35.082 47.648 59.221 24.239 51.688 20.289 107.646 17.466 129.305-3.233 24.787-9.561 47.589-16.888 73.991-12.59 45.368-28.259 101.83-32.105 190.923l-.999-.043.999.043c-2.951 68.413-.137 140.389 1.21 168.158.435 8.861-6.136 16.576-14.958 17.563-1.522.17-3.134.35-4.836.529-16.993 1.823-41.785 4.119-63.388 4.706a698.47 698.47 0 0 1-18.884.244zm-53.269-3.567c5.691.347 38.704 2.225 72.099 1.324 21.537-.585 46.272-2.876 63.23-4.694 1.699-.18 3.308-.359 4.826-.529 7.775-.869 13.565-7.668 13.182-15.478-1.348-27.798-4.165-99.847-1.21-168.342 3.855-89.322 19.558-145.906 32.176-191.372 7.307-26.329 13.617-49.067 16.832-73.714 2.801-21.485 6.722-76.986-17.294-128.197-24.365-51.958-69.268-82.794-133.461-91.653-2.647-.375-5.458-.72-8.358-1.026-50.59-5.337-124.67 7.831-190.318 100.921C44.932 164.965 14.06 251.017 5.299 334.252c-17.465 165.92 54.449 319.198 64.603 334.11 18.752-4.81 78.516-29.461 117.28-53.197 5.059-3.094 9.681-6.139 13.74-9.05 5.309-3.81 7.337-10.756 4.932-16.893-19.008-48.55-37.918-163.049-25.536-239.235 10.269-63.186 46.303-118.178 50.656-124.642a.783.783 0 0 1 .047-.079c.298-.452.463-.689.463-.689a1 1 0 0 1 1.814.693c-.14 1.139-13.968 114.995-11.993 206.856 1.898 88.302 13.827 232.202 14.874 244.697z" fill="#112c41"/><path d="M389.305 489.147c-2.92 67.69-.24 138.35 1.21 168.25.41 8.36-5.75 15.59-14.07 16.52-1.52.17-3.13.35-4.83.53 8.32-14.7-5.867-87.106-3.31-163.3 5-149 48-241 45-333-4.538-139.156-126.61-174.97-126.61-174.97 146.81 20.26 160.6 152 151.61 220.97-9 69-43 126-49 265zm-157.45-263.33v.01c-4.48 6.64-40.32 61.37-50.55 124.32-12.07 74.27 6.03 189.03 25.48 238.71 2.56 6.53.42 13.98-5.28 18.07-4.14 2.97-8.78 6.02-13.8 9.09 8.6-28.87-37.4-107.87-29.4-228.87 4.63-70.025 19-121 70.91-190.93 0 0 4.42 16.63 2.64 29.6z" fill="#ff90d8"/><g fill="#112c41"><path d="M230.829 239.085a.999.999 0 0 1-.994-1.123c.119-.959.247-1.945.379-2.957 1.524-11.691 3.422-26.243-3.832-43.47a1.001 1.001 0 0 1 1.844-.776c7.463 17.725 5.527 32.573 3.971 44.504-.131 1.007-.259 1.988-.377 2.944a1 1 0 0 1-.991.878z"/><path d="M288.898 680.29c-29.236 0-53.961-1.605-54.259-1.625a1 1 0 0 1-.93-.913c-.13-1.527-12.976-153.716-14.953-245.684-1.764-82.018 9.047-181.505 11.514-202.951-8.565 13.265-39.217 63.799-48.528 121.09-12.327 75.852 6.5 189.849 25.424 238.186 2.74 6.987.425 14.902-5.628 19.247-4.098 2.939-8.762 6.012-13.861 9.131-39.384 24.114-100.421 49.186-118.505 53.598a1.01 1.01 0 0 1-1.034-.367c-3.714-4.895-24.515-45.833-42.264-107.516-15.756-54.754-32.555-138.85-23.113-228.544 8.795-83.559 39.8-169.964 82.937-231.133C151.905 8.927 226.74-4.344 277.86 1.052c2.949.312 5.784.659 8.426 1.034 34.511 4.763 63.9 16.056 87.346 33.563 20.298 15.157 36.329 35.082 47.648 59.221 24.239 51.688 20.289 107.646 17.466 129.305-3.233 24.787-9.561 47.589-16.888 73.991-12.59 45.368-28.259 101.83-32.105 190.923l-.999-.043.999.043c-2.951 68.403-.137 140.386 1.21 168.158.435 8.862-6.136 16.576-14.958 17.562l-.271.03c-1.442.161-2.964.331-4.566.5-17.005 1.823-41.807 4.119-63.388 4.706-6.369.173-12.726.245-18.882.245zm-53.269-3.568c5.692.347 38.705 2.228 72.099 1.324 21.515-.584 46.26-2.875 63.23-4.694 1.599-.169 3.117-.339 4.555-.5l.271-.03c7.775-.868 13.565-7.667 13.182-15.477-1.348-27.801-4.165-99.855-1.21-168.342 3.855-89.322 19.558-145.906 32.176-191.372 7.307-26.329 13.617-49.067 16.832-73.714 2.801-21.485 6.722-76.986-17.294-128.197-24.365-51.958-69.268-82.794-133.461-91.653a237.238 237.238 0 0 0-8.358-1.026c-50.588-5.342-124.67 7.831-190.318 100.921C44.382 164.865 13.51 250.917 4.75 334.151-12.716 500.07 59.198 653.348 69.352 668.26c18.751-4.81 78.515-29.46 117.28-53.196 5.059-3.094 9.681-6.139 13.739-9.05 5.309-3.811 7.337-10.757 4.932-16.893-19.008-48.551-37.918-163.05-25.536-239.235 10.268-63.186 46.303-118.178 50.656-124.642a.999.999 0 0 1 .046-.078c.3-.455.465-.692.465-.692a.999.999 0 0 1 1.813.695c-.14 1.139-13.968 114.995-11.993 206.856 1.9 88.303 13.828 232.202 14.875 244.697z"/></g></svg></g><g transform="translate(367.0 621.0) rotate(0.0 179.0 170.0) scale(0.9982962039647417 0.9977140610190182)"><svg width="358.611" height="340.779" viewBox="0 0 358.611 340.779"><path d="M107.179 299.484a1 1 0 0 1-.886-.535l-51.268-97.56-52.222 97.566a1 1 0 1 1-1.764-.944l53.112-99.229a1 1 0 0 1 .882-.528h.004c.37 0 .709.207.881.535l52.145 99.229a.999.999 0 0 1-.884 1.465zm249.512.294a1 1 0 0 1-.886-.535l-51.268-97.559-52.223 97.565a1 1 0 0 1-1.764-.944l53.112-99.228c.174-.325.514-.528.882-.528h.004c.37 0 .709.207.881.535l52.145 99.228a.999.999 0 0 1-.884 1.465z" fill="#112c41"/><path d="M357.436 301.981c-7.746 22.021-28.713 37.794-53.374 37.794-7.456 0-14.574-1.441-21.093-4.071-15.038-6.044-26.876-18.365-32.282-33.723-.697-1.992.764-4.081 2.882-4.081h100.984c2.118 0 3.578 2.089 2.882 4.081z" fill="#ffe993"/><path d="M304.062 340.775c-7.432 0-14.654-1.395-21.467-4.144a57.61 57.61 0 0 1-32.852-34.318 4.084 4.084 0 0 1 .521-3.708 4.006 4.006 0 0 1 3.305-1.705h100.985c1.331 0 2.535.621 3.305 1.705a4.084 4.084 0 0 1 .521 3.706v.002c-8.092 23.005-29.921 38.462-54.317 38.462zM253.569 298.9a2.03 2.03 0 0 0-1.674.862 2.056 2.056 0 0 0-.264 1.889 55.607 55.607 0 0 0 31.711 33.125c6.575 2.653 13.546 3.999 20.72 3.999 23.548 0 44.618-14.92 52.43-37.124a2.053 2.053 0 0 0-.264-1.889 2.03 2.03 0 0 0-1.674-.862z" fill="#112c41"/><path d="M28.722 189.234c5.41 2.572 11.37 3.974 17.456 4.591 6.094.62 12.328.47 18.553-.12 12.47-1.198 24.903-4.063 37.266-7.414 12.385-3.359 24.683-7.314 37.365-11.006 6.36-1.832 12.798-3.618 19.678-4.99 3.45-.677 7.028-1.239 10.936-1.481a44.444 44.444 0 0 1 6.279.073c2.24.205 4.696.602 7.439 1.659l1.959.755c5.318 2.049 7.967 8.022 5.918 13.339-2.049 5.318-8.021 7.967-13.339 5.918a10.766 10.766 0 0 1-2.346-1.274c-.266-.193-1.028-.471-2.014-.645-.99-.18-2.178-.299-3.463-.339-2.597-.064-5.497.117-8.472.452-5.973.678-12.221 1.844-18.498 3.106-12.581 2.555-25.376 5.529-38.375 7.924-12.999 2.386-26.253 4.334-39.794 4.513-6.761.077-13.604-.312-20.392-1.577-6.77-1.26-13.526-3.429-19.624-6.98a3.688 3.688 0 0 1 3.425-6.524l.043.021z" fill="#b2b0f7"/><path d="M63.662 205.303c-6.968 0-13.187-.526-18.968-1.603-7.56-1.407-14.271-3.796-19.943-7.099a4.665 4.665 0 0 1-2.175-2.854 4.664 4.664 0 0 1 .481-3.555 4.659 4.659 0 0 1 6.094-1.863c4.9 2.33 10.663 3.844 17.127 4.499 5.544.564 11.55.525 18.358-.12 13.534-1.301 26.936-4.63 37.099-7.384 7.694-2.088 15.532-4.458 23.111-6.75 4.643-1.404 9.443-2.856 14.236-4.252 6.11-1.76 12.668-3.596 19.762-5.011 4.19-.822 7.604-1.284 11.07-1.499 2.324-.126 4.363-.103 6.426.075 1.985.183 4.65.543 7.712 1.722l1.959.755c5.823 2.245 8.735 8.81 6.492 14.633-1.087 2.821-3.208 5.05-5.972 6.275s-5.841 1.302-8.66.216a11.717 11.717 0 0 1-2.568-1.394c-.124-.082-.702-.314-1.605-.474-.955-.174-2.102-.286-3.32-.323-2.38-.066-5.18.09-8.328.445-6.117.694-12.465 1.896-18.413 3.093-4.704.955-9.536 1.99-14.21 2.991-7.884 1.689-16.036 3.436-24.181 4.937-11.614 2.132-25.444 4.337-39.962 4.529-.545.006-1.086.009-1.622.009zm-36.539-15.438c-.932 0-1.843.485-2.337 1.334a2.667 2.667 0 0 0-.275 2.038 2.673 2.673 0 0 0 1.246 1.637c5.475 3.188 11.97 5.496 19.304 6.86 6.096 1.136 12.69 1.645 20.198 1.561 14.368-.19 28.094-2.38 39.625-4.496 8.116-1.496 16.255-3.239 24.124-4.925 4.679-1.002 9.517-2.039 14.232-2.997 5.994-1.204 12.393-2.416 18.584-3.119 3.239-.365 6.144-.521 8.609-.458 1.323.042 2.572.164 3.618.355.822.145 1.895.437 2.421.818.66.472 1.394.871 2.118 1.149 4.794 1.851 10.199-.55 12.046-5.343 1.848-4.795-.55-10.199-5.344-12.048l-1.959-.754c-2.832-1.091-5.319-1.427-7.171-1.597-1.959-.169-3.912-.191-6.133-.07-3.367.208-6.7.66-10.798 1.464-7.015 1.399-13.525 3.223-19.594 4.97-4.78 1.393-9.575 2.843-14.213 4.245-7.593 2.297-15.444 4.671-23.167 6.766-10.239 2.775-23.748 6.13-37.432 7.444-6.943.659-13.075.697-18.751.12-6.692-.679-12.676-2.255-17.784-4.683s-.043-.021-.043-.021a2.63 2.63 0 0 0-1.125-.251z" fill="#112c41"/><path d="M336.862 189.234c-5.41 2.572-11.37 3.974-17.456 4.591-6.094.62-12.328.47-18.553-.12-12.47-1.198-24.903-4.063-37.266-7.414-12.385-3.359-24.683-7.314-37.365-11.006-6.36-1.832-12.798-3.618-19.678-4.99-3.45-.677-7.028-1.239-10.936-1.481a44.444 44.444 0 0 0-6.279.073c-2.24.205-4.696.602-7.439 1.659l-1.959.755c-5.318 2.049-7.967 8.022-5.918 13.339 2.049 5.318 8.021 7.967 13.339 5.918a10.766 10.766 0 0 0 2.346-1.274c.266-.193 1.028-.471 2.014-.645.99-.18 2.178-.299 3.463-.339 2.597-.064 5.497.117 8.472.452 5.973.678 12.221 1.844 18.498 3.106 12.581 2.555 25.376 5.529 38.375 7.924 12.999 2.386 26.253 4.334 39.794 4.513 6.761.077 13.604-.312 20.392-1.577 6.77-1.26 13.526-3.429 19.624-6.98a3.688 3.688 0 0 0-3.425-6.524l-.043.021z" fill="#b2b0f7"/><path d="M301.922 205.303c-.536 0-1.076-.003-1.621-.009-14.521-.192-28.35-2.397-39.962-4.529-8.147-1.501-16.301-3.248-24.186-4.937-4.673-1.001-9.504-2.036-14.209-2.991-5.944-1.195-12.29-2.397-18.411-3.094-3.148-.354-5.954-.506-8.335-.444-1.211.037-2.357.149-3.308.322-.909.16-1.487.393-1.612.475a11.745 11.745 0 0 1-2.567 1.394c-5.828 2.244-12.387-.669-14.631-6.491-2.244-5.823.668-12.388 6.491-14.632l1.959-.756c3.062-1.179 5.728-1.539 7.707-1.722 2.066-.178 4.107-.202 6.424-.075 3.476.215 6.889.677 11.074 1.498 7.097 1.416 13.654 3.252 19.762 5.011 4.8 1.397 9.604 2.851 14.249 4.256 7.576 2.291 15.41 4.66 23.102 6.747 10.164 2.755 23.567 6.083 37.101 7.384 6.808.646 12.813.685 18.355.12 6.466-.655 12.229-2.169 17.128-4.499l.042-.02c2.183-1.029 4.841-.201 6.052 1.882a4.655 4.655 0 0 1 .481 3.555 4.655 4.655 0 0 1-2.174 2.854c-5.673 3.304-12.384 5.691-19.945 7.099-5.78 1.076-12 1.603-18.966 1.603zm-105.689-18.017c2.226 0 4.75.157 7.526.47 6.195.704 12.593 1.916 18.582 3.12 4.717.958 9.554 1.994 14.231 2.996 7.871 1.687 16.01 3.43 24.129 4.926 11.529 2.116 25.255 4.306 39.625 4.496 7.491.082 14.101-.425 20.195-1.561 7.336-1.364 13.831-3.673 19.306-6.86a2.69 2.69 0 0 0 .97-3.675 2.703 2.703 0 0 0-3.466-1.081l-.47-.884.43.903c-5.107 2.428-11.092 4.004-17.785 4.683-5.675.577-11.806.538-18.748-.12-13.684-1.314-27.192-4.669-37.434-7.444-7.72-2.094-15.567-4.467-23.157-6.763-4.641-1.403-9.439-2.854-14.226-4.249-6.065-1.746-12.576-3.569-19.594-4.97-4.094-.803-7.426-1.255-10.802-1.464-2.215-.119-4.166-.097-6.131.071-1.846.17-4.334.505-7.166 1.597l-1.959.755c-4.794 1.848-7.191 7.252-5.344 12.047 1.848 4.793 7.251 7.192 12.046 5.343a9.639 9.639 0 0 0 2.122-1.152c.522-.379 1.595-.671 2.423-.816 1.041-.19 2.29-.313 3.605-.354.354-.01.719-.014 1.09-.014z" fill="#112c41"/><rect fill="#b2b0f7" height="172.144" rx="6.286" width="12.572" x="175.921" y="1"/><path d="M182.206 174.144c-4.018 0-7.286-3.269-7.286-7.286V7.286c0-4.017 3.269-7.286 7.286-7.286s7.286 3.269 7.286 7.286v159.572c0 4.018-3.269 7.286-7.286 7.286zm0-172.144a5.292 5.292 0 0 0-5.286 5.286v159.572c0 2.915 2.371 5.286 5.286 5.286s5.286-2.371 5.286-5.286V7.286A5.292 5.292 0 0 0 182.206 2z" fill="#112c41"/><circle cx="182.207" cy="174.594" fill="#b2b0f7" r="20.793"/><path d="M182.206 196.387c-12.017 0-21.792-9.776-21.792-21.793s9.775-21.792 21.792-21.792 21.793 9.775 21.793 21.792-9.776 21.793-21.793 21.793zm0-41.585c-10.913 0-19.792 8.879-19.792 19.792s8.879 19.793 19.792 19.793 19.793-8.879 19.793-19.793-8.879-19.792-19.793-19.792z" fill="#112c41"/><circle cx="182.207" cy="174.594" fill="#fff" r="12.089"/><path d="M357.436 301.981c-7.746 22.021-28.713 37.794-53.374 37.794-7.456 0-14.574-1.441-21.093-4.071 34.148 3.782 53.297-13.626 59.196-37.804h12.389c2.118 0 3.578 2.089 2.882 4.081z" fill="#ffd169"/><path d="M107.924 301.56c-7.746 22.011-28.713 37.794-53.374 37.794a56.308 56.308 0 0 1-35.889-12.853 56.697 56.697 0 0 1-17.485-24.942c-.696-1.992.764-4.081 2.882-4.081h100.984c2.118 0 3.578 2.089 2.882 4.081z" fill="#ffe993"/><path d="M54.549 340.355c-13.299 0-26.27-4.646-36.524-13.081A57.672 57.672 0 0 1 .232 301.893a4.085 4.085 0 0 1 .521-3.709 4.006 4.006 0 0 1 3.305-1.705h100.984c1.331 0 2.535.621 3.305 1.705a4.084 4.084 0 0 1 .521 3.706v.002c-8.097 23.006-29.926 38.463-54.318 38.463zM4.057 298.479a2.03 2.03 0 0 0-1.674.862 2.056 2.056 0 0 0-.264 1.889 55.66 55.66 0 0 0 17.176 24.499c9.897 8.142 22.417 12.626 35.254 12.626 23.544 0 44.614-14.922 52.432-37.126a2.057 2.057 0 0 0-.265-1.888 2.03 2.03 0 0 0-1.674-.862z" fill="#112c41"/><path d="M107.924 301.691c-7.746 22.011-28.713 37.794-53.374 37.794a56.308 56.308 0 0 1-35.889-12.853c30.57 12.853 67.32 4.149 74.089-27.765.087-.425.194-.851.3-1.257h11.992c2.118 0 3.578 2.089 2.882 4.081z" fill="#ffd169"/><g fill="#112c41"><path d="M304.062 340.78c-24.394 0-46.221-15.457-54.315-38.463a4.082 4.082 0 0 1 .517-3.708 4.004 4.004 0 0 1 3.304-1.709h100.989c1.33 0 2.533.622 3.303 1.708a4.084 4.084 0 0 1 .518 3.709c-8.095 23.006-29.922 38.463-54.314 38.463zm-50.495-41.88c-.673 0-1.282.315-1.671.864a2.053 2.053 0 0 0-.263 1.889c7.813 22.207 28.883 37.127 52.429 37.127s44.614-14.92 52.428-37.127a2.05 2.05 0 0 0-.263-1.889 2.023 2.023 0 0 0-1.671-.864zM54.549 340.485c-24.393 0-46.22-15.457-54.314-38.462a4.082 4.082 0 0 1 .517-3.708 4.004 4.004 0 0 1 3.304-1.709h100.988c1.33 0 2.533.622 3.303 1.708a4.084 4.084 0 0 1 .518 3.709c-8.095 23.005-29.922 38.462-54.315 38.462zM4.055 298.606c-.673 0-1.282.315-1.671.864a2.053 2.053 0 0 0-.263 1.889c7.813 22.206 28.882 37.126 52.428 37.126s44.615-14.92 52.429-37.126a2.05 2.05 0 0 0-.263-1.889 2.023 2.023 0 0 0-1.671-.864z"/></g></svg></g><g transform="translate(717.0 801.0) rotate(0.0 291.0 420.5) scale(1.0 1.0)"><svg width="582" height="841" viewBox="0 0 582 841"><path d="M129 82h416v710H129z" fill="#fccc86"/><path d="M545 793H129a1 1 0 0 1-1-1V82a1 1 0 0 1 1-1h416a1 1 0 0 1 1 1v710a1 1 0 0 1-1 1zm-415-2h414V83H130z" fill="#112c41"/><rect fill="#fccc86" height="32" rx="9.391" width="452" x="111" y="50"/><path d="M553.609 83H120.391c-5.729 0-10.392-4.662-10.392-10.392V59.39c0-5.729 4.662-10.391 10.392-10.391h433.218c5.729 0 10.391 4.661 10.391 10.391v13.218C564 78.337 559.339 83 553.609 83zM120.391 51c-4.627 0-8.392 3.764-8.392 8.391v13.218c0 4.627 3.765 8.392 8.392 8.392h433.218c4.627 0 8.391-3.765 8.391-8.392V59.391c0-4.627-3.764-8.391-8.391-8.391z" fill="#112c41"/><rect fill="#fccc86" height="32" rx="9.391" width="452" x="111" y="776"/><path d="M553.609 809H120.391c-5.729 0-10.392-4.662-10.392-10.392V785.39c0-5.729 4.662-10.391 10.392-10.391h433.218c5.729 0 10.391 4.661 10.391 10.391v13.218c0 5.729-4.661 10.392-10.391 10.392zm-433.218-32c-4.627 0-8.392 3.764-8.392 8.391v13.218c0 4.627 3.765 8.392 8.392 8.392h433.218c4.627 0 8.391-3.765 8.391-8.392v-13.218c0-4.627-3.764-8.391-8.391-8.391z" fill="#112c41"/><rect fill="#fccc86" height="32" rx="9.391" width="488" x="93" y="808"/><path d="M571.609 841H102.391c-5.729 0-10.392-4.662-10.392-10.392V817.39c0-5.729 4.662-10.391 10.392-10.391h469.218c5.729 0 10.391 4.661 10.391 10.391v13.218c0 5.729-4.661 10.392-10.391 10.392zm-469.218-32c-4.627 0-8.392 3.764-8.392 8.391v13.218c0 4.627 3.765 8.392 8.392 8.392h469.218c4.627 0 8.391-3.765 8.391-8.392v-13.218c0-4.627-3.764-8.391-8.391-8.391z" fill="#112c41"/><rect fill="#fccc86" height="32" rx="9.391" width="416" x="129" y="18"/><path d="M535.609 51H138.391c-5.729 0-10.392-4.662-10.392-10.392V27.39c0-5.729 4.662-10.391 10.392-10.391h397.218c5.729 0 10.391 4.661 10.391 10.391v13.218C546 46.337 541.339 51 535.609 51zM138.391 19c-4.627 0-8.392 3.764-8.392 8.391v13.218c0 4.627 3.765 8.392 8.392 8.392h397.218c4.627 0 8.391-3.765 8.391-8.392V27.391c0-4.627-3.764-8.391-8.391-8.391z" fill="#112c41"/><path d="M37 82h416v710H37z" fill="#fcd7ac"/><path d="M453 793H37a1 1 0 0 1-1-1V82a1 1 0 0 1 1-1h416a1 1 0 0 1 1 1v710a1 1 0 0 1-1 1zm-415-2h414V83H38z" fill="#112c41"/><path d="M453 82v710H347.78c-46.53-5.15-79.78-10-79.78-10s119 14 153-43c30.137-50.525 30-600 0-629C398.793 88.533 37 97 37 95.01V82z" fill="#fccc86"/><path d="M453 793H37a1 1 0 0 1-1-1V82a1 1 0 0 1 1-1h416a1 1 0 0 1 1 1v710a1 1 0 0 1-1 1zm-415-2h414V83H38z" fill="#112c41"/><path d="M164 82h160v710H164z" fill="#fccc86"/><path d="M324 793H164a1 1 0 0 1-1-1V82a1 1 0 0 1 1-1h160a1 1 0 0 1 1 1v710a1 1 0 0 1-1 1zm-159-2h158V83H165z" fill="#112c41"/><rect fill="#fcd7ac" height="32" rx="9.39" width="452" x="19" y="50"/><path d="M461.61 83H28.39c-5.729 0-10.391-4.661-10.391-10.391v-13.22c0-5.729 4.661-10.39 10.391-10.39h433.22c5.729 0 10.39 4.661 10.39 10.39v13.22C472 78.338 467.339 83 461.61 83zM28.39 51c-4.627 0-8.391 3.764-8.391 8.39v13.22c0 4.627 3.764 8.391 8.391 8.391h433.22c4.626 0 8.39-3.764 8.39-8.391V59.39c0-4.626-3.764-8.39-8.39-8.39z" fill="#112c41"/><rect fill="#fcd7ac" height="32" rx="9.39" width="452" x="19" y="776"/><path d="M461.61 809H28.39c-5.729 0-10.391-4.661-10.391-10.391v-13.22c0-5.729 4.661-10.39 10.391-10.39h433.22c5.729 0 10.39 4.661 10.39 10.39v13.22c0 5.729-4.661 10.391-10.39 10.391zM28.39 777c-4.627 0-8.391 3.764-8.391 8.39v13.22c0 4.627 3.764 8.391 8.391 8.391h433.22c4.626 0 8.39-3.764 8.39-8.391v-13.22c0-4.626-3.764-8.39-8.39-8.39z" fill="#112c41"/><rect fill="#fcd7ac" height="32" rx="9.39" width="488" x="1" y="808"/><path d="M479.61 841H10.39C4.661 841 0 836.339 0 830.61v-13.22C0 811.661 4.661 807 10.391 807H479.61c5.729 0 10.39 4.661 10.39 10.39v13.22c0 5.729-4.661 10.391-10.39 10.391zM10.39 809c-4.627 0-8.391 3.764-8.391 8.39v13.22c0 4.627 3.764 8.391 8.391 8.391h469.22c4.626 0 8.39-3.764 8.39-8.391v-13.22c0-4.626-3.764-8.39-8.39-8.39z" fill="#112c41"/><path d="M471 785.39v13.22c0 5.19-4.2 9.39-9.39 9.39H123.09c37.91-4 306.193-1.094 329.91-9 9-3 11-11 5.64-23h2.97c5.19 0 9.39 4.2 9.39 9.39zm18 32v13.22c0 5.19-4.2 9.39-9.39 9.39H42.22c36.78-5 408.018-4.233 419.78-7 17-4 13.79-12.46 14-25h3.61c5.19 0 9.39 4.2 9.39 9.39z" fill="#fccc86"/><path d="M461.609 809H28.391c-5.729 0-10.392-4.662-10.392-10.392V785.39c0-5.729 4.662-10.391 10.392-10.391h433.218c5.729 0 10.391 4.661 10.391 10.391v13.218c0 5.729-4.661 10.392-10.391 10.392zM28.391 777c-4.627 0-8.392 3.764-8.392 8.391v13.218c0 4.627 3.765 8.392 8.392 8.392h433.218c4.627 0 8.391-3.765 8.391-8.392v-13.218c0-4.627-3.764-8.391-8.391-8.391z" fill="#112c41"/><path d="M479.609 841H10.391C4.662 841 0 836.338 0 830.609v-13.218C0 811.662 4.662 807 10.392 807h469.217c5.729 0 10.391 4.661 10.391 10.391v13.218c0 5.729-4.661 10.392-10.391 10.392zM10.391 809c-4.627 0-8.392 3.764-8.392 8.391v13.218c0 4.627 3.765 8.392 8.392 8.392h469.218c4.627 0 8.391-3.765 8.391-8.392v-13.218c0-4.627-3.764-8.391-8.391-8.391z" fill="#112c41"/><rect fill="#fcd7ac" height="32" rx="9.39" width="416" x="37" y="18"/><path d="M443.61 51H46.39c-5.729 0-10.391-4.661-10.391-10.391v-13.22c0-5.729 4.661-10.39 10.391-10.39h397.22c5.729 0 10.39 4.661 10.39 10.39v13.22C454 46.338 449.339 51 443.61 51zM46.39 19c-4.627 0-8.391 3.764-8.391 8.39v13.22c0 4.627 3.764 8.391 8.391 8.391h397.22c4.626 0 8.39-3.764 8.39-8.391V27.39c0-4.626-3.764-8.39-8.39-8.39z" fill="#112c41"/><path d="M453 27.39v13.22c0 5.19-4.2 9.39-9.39 9.39H129c105-8 283-2 300-8s14-24 14-24h.61c5.19 0 9.39 4.2 9.39 9.39zm18 32v13.22c0 5.19-4.2 9.39-9.39 9.39H135.65S385.217 75.011 406 73c31-3 58 0 54.83-23h.78c5.19 0 9.39 4.2 9.39 9.39z" fill="#fccc86"/><path d="M461.609 83H28.391c-5.729 0-10.392-4.662-10.392-10.392V59.39c0-5.729 4.662-10.391 10.392-10.391h433.218c5.729 0 10.391 4.661 10.391 10.391v13.218C472 78.337 467.339 83 461.609 83zM28.391 51c-4.627 0-8.392 3.764-8.392 8.391v13.218c0 4.627 3.765 8.392 8.392 8.392h433.218c4.627 0 8.391-3.765 8.391-8.392V59.391c0-4.627-3.764-8.391-8.391-8.391z" fill="#112c41"/><path d="M443.609 51H46.391c-5.729 0-10.392-4.662-10.392-10.392V27.39c0-5.729 4.662-10.391 10.392-10.391h397.218c5.729 0 10.391 4.661 10.391 10.391v13.218C454 46.337 449.339 51 443.609 51zM46.391 19c-4.627 0-8.392 3.764-8.392 8.391v13.218c0 4.627 3.765 8.392 8.392 8.392h397.218c4.627 0 8.391-3.765 8.391-8.392V27.391c0-4.627-3.764-8.391-8.391-8.391z" fill="#112c41"/><rect fill="#fcaa51" height="17" rx="8.5" width="168" x="160" y="1"/><path d="M319.5 19h-151c-5.238 0-9.5-4.262-9.5-9.5s4.261-9.5 9.5-9.5h151c5.238 0 9.5 4.262 9.5 9.5s-4.262 9.5-9.5 9.5zm-151-17c-4.136 0-7.5 3.364-7.5 7.5s3.364 7.5 7.5 7.5h151c4.136 0 7.5-3.364 7.5-7.5S323.636 2 319.5 2z" fill="#112c41"/></svg></g><g transform="translate(513.0 544.0) rotate(0.0 460.0 156.5) scale(0.9990053381633069 1.0)"><svg width="920.916" height="313" viewBox="0 0 920.916 313"><path d="M461.627 172s-74 38-140 54-154 6-193 0c-15.02-2.31-30.34-7.29-43.49-12.54v-.01c-21.01-8.38-36.51-17.45-36.51-17.45s-27-65-2-87 109 8 184 2c56.96-4.56 156-57 156-57l62.64 98.56z" fill="#ffd6c0"/><path d="M236.38 235.656c-44.609 0-86.304-5.345-107.905-8.668-13.112-2.017-27.817-6.256-43.708-12.6a.902.902 0 0 1-.121-.059c-20.778-8.298-36.368-17.376-36.523-17.467a1.003 1.003 0 0 1-.419-.479c-1.113-2.682-26.984-65.917-1.736-88.135 14.376-12.651 46.286-8.698 86.685-3.692 30.522 3.781 65.113 8.068 97.896 5.446 56.105-4.491 154.624-56.363 155.612-56.887a.998.998 0 0 1 1.312.348l75 118a1.001 1.001 0 0 1-.387 1.426c-.741.381-74.862 38.237-140.222 54.082-26.613 6.452-56.659 8.685-85.482 8.685zM85.63 212.58c15.703 6.261 30.22 10.443 43.149 12.432 35.441 5.453 125.156 16.367 192.612.017 61.051-14.8 129.825-48.9 138.8-53.422L386.276 55.313c-9.659 5.031-101.796 52.38-155.569 56.685-32.979 2.637-67.683-1.662-98.302-5.456-38.32-4.747-71.415-8.849-85.118 3.21-23.312 20.515.176 80.672 2.138 85.555 2.23 1.279 16.949 9.584 36.083 17.216a.858.858 0 0 1 .122.059z" fill="#112c41"/><path d="M461.627 172s-74 38-140 54-154 6-193 0c-15.02-2.31-30.34-7.29-43.49-12.54v-.01C151.627 225 285.627 241 416.627 167c13.83-7.81 24.59-12.44 32.64-14.44z" fill="#f5b9ab"/><path d="M236.38 235.656c-44.609 0-86.304-5.345-107.905-8.668-38.74-5.96-79.941-29.885-80.353-30.125a1.003 1.003 0 0 1-.419-.479c-1.113-2.682-26.984-65.917-1.736-88.135 14.376-12.651 46.286-8.698 86.685-3.692 30.522 3.781 65.113 8.068 97.896 5.446 56.101-4.487 154.623-56.363 155.612-56.887a.998.998 0 0 1 1.312.348l75 118a1.001 1.001 0 0 1-.387 1.426c-.741.381-74.862 38.237-140.222 54.082-26.613 6.452-56.659 8.685-85.482 8.685zM49.424 195.305c3.755 2.15 42.707 24.067 79.355 29.706 35.441 5.453 125.156 16.367 192.612.017 61.051-14.8 129.825-48.9 138.8-53.422L386.276 55.312c-9.659 5.032-101.797 52.383-155.569 56.685-32.979 2.637-67.683-1.662-98.302-5.456-38.32-4.747-71.415-8.849-85.118 3.21-23.312 20.515.176 80.672 2.137 85.555z" fill="#112c41"/><path d="M815.397 85c-2.99 21.87-15.1 53.75-29.77 74-21 29-50.51 31.36-50.51 31.36S690.627 174 667.627 180s-220.96.26-220.96.26-10.4 4.47-24.22 10.1C391.627 167 350.977 78.22 360.627 60c9-17 118.91-59 212-59 6.73 0 13.46.15 20.17.45 107.83 4.73 209.53 45.6 220.83 62.55 2.65 3.97 3.06 11.55 1.77 21z" fill="#cbc8ff"/><path d="M735.117 191.36a.997.997 0 0 1-.345-.062c-.442-.163-44.463-16.184-66.894-10.331-22.695 5.923-210.212.61-221.021.298-1.523.653-11.411 4.879-24.034 10.021a1 1 0 0 1-.981-.129c-16.941-12.841-35.07-43.278-46.388-67.481-10.747-22.983-21.311-53.573-15.712-64.144 4.79-9.048 35.651-24 75.051-36.361C462.375 14.517 516.957 0 572.627 0c6.713 0 13.514.151 20.215.451 105.039 4.608 209.416 44.691 221.617 62.994 3.355 5.026 2.901 14.569 1.93 21.689-3.182 23.266-16.058 55.272-29.952 74.452-21.027 29.037-50.939 31.746-51.239 31.771a1.09 1.09 0 0 1-.08.003zm-55.396-13.694c22.749 0 52.362 10.527 55.524 11.677 2.662-.292 30.021-3.932 49.572-30.93 13.727-18.947 26.447-50.566 29.589-73.549 1.327-9.72.771-16.742-1.611-20.309C802.406 48.97 703.434 7.304 592.753 2.449A453.104 453.104 0 0 0 572.627 2c-55.403 0-109.763 14.46-137.234 23.079-43.416 13.622-70.03 28.113-73.882 35.389-4.258 8.04 2.074 33.101 15.756 62.361 11.115 23.77 28.812 53.57 45.334 66.389 13.392-5.461 23.569-9.833 23.672-9.877.133-.058.279-.074.424-.081 1.979.059 198.077 5.668 220.678-.228 3.684-.961 7.884-1.366 12.347-1.366z" fill="#112c41"/><path d="M815.397 85c-3.58-2.3-7.26-4.87-11.01-7.71-43.23-32.71-144.76-66.29-208.76-72.56-1.078-.106-2.83-3.28-2.83-3.28 107.83 4.73 209.53 45.6 220.83 62.55 2.65 3.97 3.06 11.55 1.77 21z" fill="#b2b0f7"/><path d="M422.448 191.363a.997.997 0 0 1-.604-.203c-16.941-12.842-35.07-43.28-46.387-67.483-10.747-22.983-21.311-53.573-15.714-64.145 4.79-9.048 35.652-24 75.052-36.361C462.377 14.517 516.959 0 572.627 0c67.797 0 128.979 15.534 159.416 24.793 41.839 12.729 75.729 28.623 82.416 38.652 8.945 13.417-6.506 66.429-28.022 96.142-21.026 29.037-50.937 31.749-51.236 31.773a1.01 1.01 0 0 1-.425-.059c-.442-.163-44.462-16.189-66.896-10.334-22.697 5.92-210.209.61-221.017.3a1662.75 1662.75 0 0 1-24.036 10.021.994.994 0 0 1-.378.074zm257.271-13.697c22.75 0 52.366 10.53 55.529 11.68 2.662-.293 30.019-3.935 49.569-30.933 20.709-28.599 36.397-81.229 27.978-93.858C800.701 46.414 685.194 2 572.627 2c-55.401 0-109.761 14.46-137.232 23.079-43.417 13.622-70.032 28.114-73.884 35.389-4.257 8.04 2.076 33.102 15.758 62.361 11.114 23.771 28.811 53.572 45.333 66.392 13.392-5.469 23.572-9.834 23.675-9.878.134-.058.275-.076.424-.081 1.979.058 198.072 5.668 220.675-.229 3.683-.961 7.881-1.366 12.344-1.366z" fill="#112c41"/><path d="M706.577 145.3c-.56 1.9-1.15 3.79-1.79 5.67-20 59.32-76.1 102.03-142.16 102.03-36.62 0-70.18-13.13-96.23-34.94-26.42-22.11-45.11-53.17-51.43-88.51z" fill="#cbc8ff"/><path d="M466.397 218.06c26.05 21.81 59.61 34.94 96.23 34.94 52.821 0 99.27-27.309 125.992-68.578-10.649-4.781-22.782-7.729-34.467-10.544-22.682 28.168-84.696 92.47-187.755 44.183z" fill="#b2b0f7"/><path d="M562.627 254c-73.267 0-135.778-52.264-148.641-124.271a1 1 0 1 1 1.969-.351c12.691 71.053 74.376 122.623 146.672 122.623 51.501 0 98.661-26.047 126.153-69.675a1 1 0 0 1 1.692 1.066C662.613 227.605 614.82 254 562.627 254zM806.818 78.689c-.17.53-.35 1.08-.56 1.64-.07.21-.15.42-.23.64-5.07 13.81-19.06 37.18-37.79 62.02-14.14 18.76-28.21 34.7-39.37 45.11-1.94-.66-21.22-5.81-21.22-5.81s8.5-13.11 18.66-28.03l1.17-1.7v-.01c6.2-9.07 12.92-18.64 18.64-26.24 17.69-23.47 35.28-42.52 47.19-51.87.17-.14.34-.27.51-.4.72-.56 1.41-1.07 2.08-1.55 5.25-3.76 9.12-5.21 11-3.8 1.7 1.29 1.58 4.8-.08 10z" fill="#112c41"/><path d="M728.867 189.099a.994.994 0 0 1-.322-.054c-1.886-.642-20.963-5.738-21.155-5.79a.999.999 0 0 1-.581-1.509c.085-.131 8.622-13.291 18.673-28.049l1.119-1.627a.92.92 0 0 1 .052-.085c7.187-10.514 13.642-19.601 18.666-26.277 17.185-22.799 34.894-42.259 47.372-52.055.161-.134.341-.271.52-.408a68.584 68.584 0 0 1 2.105-1.568c5.931-4.248 9.916-5.486 12.182-3.787 2.07 1.57 2.158 5.201.272 11.104a36.374 36.374 0 0 1-.575 1.688c-.043.13-.103.293-.164.459l-.063.173c-5.283 14.394-19.817 38.257-37.931 62.279-13.76 18.256-27.783 34.321-39.487 45.239a1.002 1.002 0 0 1-.682.269zm-19.63-7.42c4.096 1.097 16.236 4.355 19.371 5.292 11.536-10.831 25.305-26.639 38.83-44.583 18.004-23.877 32.431-47.544 37.65-61.764l.064-.177c.055-.147.108-.292.156-.436.216-.578.39-1.112.556-1.627 2.14-6.702 1.012-8.456.428-8.899-.654-.491-2.932-1.113-9.813 3.816a66.514 66.514 0 0 0-2.537 1.909c-12.366 9.71-29.94 29.031-47.026 51.699-4.994 6.637-11.411 15.669-18.561 26.126a.877.877 0 0 1-.054.089l-1.17 1.7a1725.647 1725.647 0 0 0-17.895 26.854z" fill="#112c41"/><ellipse cx="36.007" cy="178.687" fill="#ffd6c0" rx="17.895" ry="29.039" transform="matrix(.49904745 -.86657466 .86657466 .49904745 -136.809 120.718)"/><path d="M46.645 200.913c-6.399 0-13.487-2.062-20.067-5.852-6.88-3.962-12.405-9.353-15.559-15.18-3.237-5.982-3.607-11.73-1.042-16.185 2.564-4.454 7.722-7.019 14.521-7.222 6.617-.214 14.059 1.876 20.938 5.838 6.88 3.962 12.405 9.353 15.559 15.18 3.237 5.982 3.607 11.73 1.042 16.185-2.564 4.455-7.722 7.02-14.521 7.223-.288.008-.58.013-.871.013zm-21.271-42.45c-.273 0-.546.004-.816.012-6.08.182-10.643 2.391-12.849 6.221-2.205 3.83-1.826 8.886 1.068 14.235 2.979 5.505 8.234 10.619 14.798 14.398s13.612 5.745 19.881 5.572c6.08-.182 10.643-2.391 12.849-6.222 2.205-3.83 1.826-8.886-1.068-14.234-2.979-5.505-8.235-10.619-14.798-14.399-6.279-3.615-13.014-5.583-19.064-5.583z" fill="#112c41"/><ellipse cx="28.337" cy="149.291" fill="#ffd6c0" rx="18.796" ry="30.5" transform="matrix(.60141072 -.79894001 .79894001 .60141072 -107.979 82.144)"/><path d="M40.042 173.959c-7.238 0-15.854-3.014-23.611-8.853-6.654-5.01-11.715-11.332-14.249-17.803-2.599-6.637-2.248-12.658.988-16.957 3.236-4.3 8.928-6.308 16.022-5.641 6.919.646 14.395 3.76 21.05 8.77 13.877 10.446 19.825 26.04 13.261 34.761-2.896 3.846-7.749 5.723-13.461 5.723zm-23.444-47.376c-5.242 0-9.39 1.725-11.83 4.967-2.803 3.723-3.06 9.059-.724 15.024 2.4 6.131 7.227 12.145 13.59 16.935 12.994 9.781 28.369 11.364 34.271 3.524 5.901-7.84.13-22.177-12.866-31.96-6.362-4.79-13.478-7.765-20.033-8.376a26.278 26.278 0 0 0-2.408-.114z" fill="#112c41"/><ellipse cx="26.337" cy="116.291" fill="#ffd6c0" rx="18.796" ry="30.5" transform="matrix(.70710678 -.70710678 .70710678 .70710678 -74.516 52.684)"/><path d="M37.783 142.591c-7.889 0-17.501-4.358-25.444-12.303C.057 118.006-3.656 101.735 4.063 94.017c7.719-7.72 23.99-4.006 36.271 8.275s15.995 28.554 8.276 36.272c-2.727 2.727-6.52 4.026-10.827 4.026zM14.942 91.935c-3.789 0-7.097 1.127-9.466 3.496-6.938 6.938-3.226 21.941 8.276 33.443 11.503 11.501 26.503 15.214 33.443 8.276 6.938-6.938 3.226-21.941-8.276-33.444-7.575-7.574-16.669-11.771-23.978-11.771z" fill="#112c41"/><path d="M108.627 116s-50-32-65-20c-8.903 7.123 4 34 30 42 5 29 27 41 27 41" fill="#ffd6c0"/><g fill="#112c41"><path d="M100.626 180a.994.994 0 0 1-.478-.122c-.223-.121-22.177-12.396-27.4-41.105-18.27-5.86-30.405-21.03-32.583-32.468-.939-4.933.068-8.87 2.837-11.086 15.384-12.303 64.098 18.616 66.164 19.939a1 1 0 1 1-1.078 1.685c-.494-.316-49.567-31.479-63.836-20.062-2.163 1.729-2.916 4.979-2.122 9.149 2.092 10.984 13.944 25.622 31.791 31.113.36.111.628.415.691.786 4.854 28.154 26.278 40.174 26.494 40.292a1 1 0 0 1-.481 1.878zM589.927 1.34c7.16 3.3 11.7 8.19 11.7 13.66 0 9.94-15 18-33.5 18s-33.5-8.06-33.5-18c0-5.02 3.83-9.56 10-12.83"/><path d="M568.127 34c-19.023 0-34.5-8.523-34.5-19 0-5.244 3.74-10.114 10.532-13.713a1 1 0 0 1 .936 1.768c-6.105 3.235-9.468 7.478-9.468 11.945 0 9.374 14.579 17 32.5 17s32.5-7.626 32.5-17c0-4.848-4.053-9.495-11.118-12.751a1 1 0 1 1 .838-1.816c7.804 3.597 12.28 8.906 12.28 14.567 0 10.477-15.477 19-34.5 19zM102.248 233.439a5.01 5.01 0 0 1-1.657-.275c-3.584-1.25-5.409-6.375-5.427-15.233a1 1 0 0 1 .998-1.002h.002a1 1 0 0 1 1 .998c.015 7.694 1.466 12.436 4.085 13.349 7.257 2.542 24.753-22.615 39.214-64.094 14.46-41.477 16.396-72.05 9.134-74.582-3.298-1.153-8.803 3.541-15.113 12.863a1 1 0 0 1-1.657-1.121c4.925-7.273 11.951-15.537 17.428-13.631 10.596 3.694 4.303 42.117-7.903 77.129-11.594 33.252-29.278 65.599-40.104 65.6zm60.154 16.147c-.118 0-.234-.005-.353-.014-5.818-.454-8.977-10.728-10.602-19.267a1 1 0 1 1 1.965-.373c2.082 10.94 5.287 17.372 8.793 17.646 1.79.144 6.574-1.807 11.961-22.921 3.697-14.494 6.638-34.057 8.278-55.082 1.557-19.933 1.239-38.801-.894-53.128-2.007-13.489-5.571-21.727-9.534-22.036-3.258-.276-7.149 4.883-10.692 14.093a1 1 0 1 1-1.867-.719c4.056-10.539 8.305-15.731 12.716-15.368 6.542.511 9.787 13.189 11.356 23.736 2.154 14.472 2.477 33.499.909 53.578-1.649 21.136-4.609 40.818-8.335 55.42-4.138 16.218-8.746 24.434-13.702 24.435z"/></g><ellipse cx="643.805" cy="161.027" fill="#ffd6c0" rx="18.079" ry="35.604" transform="matrix(.92145006 -.38849683 .38849683 .92145006 -11.987 262.768)"/><path d="M653.761 195.601c-9.315 0-20.656-10.844-27.536-27.161-3.754-8.905-5.522-18.038-4.978-25.715.562-7.918 3.522-13.396 8.337-15.427 4.815-2.029 10.805-.326 16.866 4.8 5.876 4.97 11.181 12.612 14.936 21.517 3.754 8.905 5.522 18.038 4.978 25.715-.562 7.918-3.522 13.396-8.337 15.427a10.9 10.9 0 0 1-4.266.845zm-19.953-67.136a8.792 8.792 0 0 0-3.446.677c-4.085 1.722-6.613 6.596-7.119 13.725-.523 7.369 1.19 16.175 4.826 24.796 7.412 17.582 20.515 28.912 29.181 25.25 4.085-1.722 6.613-6.596 7.119-13.725.523-7.369-1.19-16.175-4.826-24.796-3.634-8.621-8.742-15.996-14.384-20.767-4.022-3.401-7.935-5.16-11.351-5.16z" fill="#112c41"/><path d="M627.368 298.226a15.048 15.048 0 0 1-12.032-4.183 15.02 15.02 0 0 1-4.517-9.314l-18.56-182.719 25.111-2.553 4.935-.499 18.561 182.719c.85 8.3-5.199 15.708-13.497 16.549z" fill="#fcaa51"/><path d="M625.827 299.304c-4.159 0-8.164-1.61-11.188-4.544a16.082 16.082 0 0 1-4.816-9.929l-18.561-182.722a1 1 0 0 1 .894-1.096l30.047-3.052c.555-.04 1.04.346 1.096.895l18.561 182.719a15.975 15.975 0 0 1-3.533 11.799 16 16 0 0 1-10.857 5.847c-.548.056-1.097.083-1.642.083zm-32.474-196.401 18.46 181.726a14.087 14.087 0 0 0 4.217 8.694c2.996 2.907 7.082 4.341 11.235 3.908a14.01 14.01 0 0 0 9.51-5.12 13.99 13.99 0 0 0 3.093-10.333l-18.459-181.725-28.057 2.85z" fill="#112c41"/><path d="M627.368 298.226a15.048 15.048 0 0 1-12.032-4.183c8.619.22 16.032-6.102 15.627-13.184-.757-13.231-16.97-173.224-16.97-173.224l3.377-8.178 4.935-.499 18.561 182.719c.85 8.3-5.199 15.708-13.497 16.549z" fill="#ff9522"/><path d="M625.814 299.306a15.981 15.981 0 0 1-10.146-3.625 16 16 0 0 1-5.843-10.852l-18.564-182.718a1 1 0 0 1 .894-1.096l30.05-3.054a1 1 0 0 1 1.096.894l18.563 182.719a15.994 15.994 0 0 1-3.541 11.805 16 16 0 0 1-10.852 5.843c-.554.056-1.108.084-1.658.084zm-32.462-196.401 18.464 181.723a14.011 14.011 0 0 0 5.116 9.504 13.996 13.996 0 0 0 10.338 3.101 14.011 14.011 0 0 0 9.503-5.116 14.013 14.013 0 0 0 3.101-10.338l-18.462-181.725-28.061 2.852z" fill="#112c41"/><path d="m662.704 97.191-112.947 11.467c-5.428.558-10.327-3.15-11.329-8.419a8.535 8.535 0 0 1-.14-.93l-3.302-32.489c-.584-5.753 3.605-10.883 9.359-11.467l111.806-11.365 1.134-.114c5.754-.584 10.884 3.605 11.47 9.349l3.299 32.498c.586 5.744-3.596 10.886-9.349 11.47z" fill="#fcaa51"/><path d="M548.703 109.711c-5.407 0-10.231-3.891-11.259-9.285a9.425 9.425 0 0 1-.153-1.029l-3.301-32.476c-.638-6.289 3.961-11.926 10.253-12.564l112.94-11.479c6.283-.646 11.924 3.956 12.565 10.242l3.299 32.499a11.385 11.385 0 0 1-2.517 8.402 11.384 11.384 0 0 1-7.727 4.164l-112.947 11.467a11.51 11.51 0 0 1-1.154.059zm109.646-64.892c-.319 0-.641.016-.964.049l-1.135.114-111.806 11.364c-5.195.527-8.992 5.18-8.465 10.372l3.302 32.487c.026.292.07.565.125.834.908 4.775 5.416 8.121 10.247 7.622l112.949-11.467a9.395 9.395 0 0 0 6.377-3.437 9.398 9.398 0 0 0 2.077-6.938l-3.299-32.499c-.496-4.865-4.618-8.503-9.409-8.503z" fill="#112c41"/><path d="m662.704 97.191-112.947 11.467c-5.428.558-10.327-3.15-11.329-8.419.181-.539.287-.834.287-.834l1.94.386c15.266 7.476 96.469-6.46 113.618-12.275 10.767-3.651 6.712-28.08 1.877-43.528l1.134-.114c5.754-.584 10.884 3.605 11.47 9.349l3.299 32.498c.586 5.744-3.596 10.886-9.349 11.47z" fill="#ff9522"/><path d="M548.938 109.69c-5.943 0-11.056-4.515-11.67-10.553l-3.246-31.944c-.654-6.44 4.053-12.213 10.492-12.867l112.4-11.419c6.41-.663 12.211 4.052 12.865 10.492l3.245 31.945c.316 3.119-.6 6.176-2.582 8.605a11.657 11.657 0 0 1-7.911 4.26l-112.397 11.42a11.77 11.77 0 0 1-1.196.061zm109.17-64.844c-.328 0-.658.017-.991.051l-112.4 11.419c-5.342.543-9.247 5.331-8.704 10.674l3.246 31.944c.543 5.344 5.333 9.26 10.673 8.705l112.398-11.42a9.678 9.678 0 0 0 6.563-3.533 9.672 9.672 0 0 0 2.142-7.14l-3.245-31.945c-.509-5.009-4.751-8.755-9.682-8.755z" fill="#112c41"/><rect fill="#fcaa51" height="12.666" rx="6.333" transform="matrix(.99487894 -.10107366 .10107366 .99487894 -7.995 61.959)" width="68.202" x="573.316" y="103.541"/><path d="M579.786 120.014c-3.714 0-6.907-2.82-7.291-6.592a7.293 7.293 0 0 1 1.613-5.377 7.283 7.283 0 0 1 4.942-2.661l55.251-5.613c4.011-.411 7.628 2.532 8.037 6.556a7.288 7.288 0 0 1-1.613 5.375 7.283 7.283 0 0 1-4.941 2.661l-55.252 5.613a7.5 7.5 0 0 1-.746.038zm55.261-18.28c-.18 0-.361.009-.544.027l-55.25 5.613a5.297 5.297 0 0 0-3.595 1.936 5.298 5.298 0 0 0-1.173 3.909 5.338 5.338 0 0 0 5.846 4.767l55.25-5.613a5.3 5.3 0 0 0 3.594-1.935 5.298 5.298 0 0 0 1.173-3.909 5.34 5.34 0 0 0-5.302-4.795z" fill="#112c41"/><rect fill="#fcaa51" height="57.485" rx="13.64" transform="matrix(.99487894 -.10107366 .10107366 .99487894 -5.883 53.233)" width="27.281" x="508.723" y="55.924"/><path d="M523.862 114.333a14.533 14.533 0 0 1-9.226-3.296 14.549 14.549 0 0 1-5.313-9.866l-3.054-30.049c-.815-8.031 5.056-15.229 13.086-16.046 3.899-.391 7.703.748 10.733 3.22s4.917 5.976 5.313 9.866l3.053 30.05c.816 8.03-5.054 15.229-13.085 16.045-.505.051-1.008.076-1.508.076zM520.86 57c-.432 0-.866.021-1.301.066-6.935.704-12.003 6.919-11.299 13.854l3.054 30.049a12.56 12.56 0 0 0 4.586 8.519 12.534 12.534 0 0 0 9.267 2.779c6.935-.704 12.003-6.919 11.298-13.853l-3.053-30.05a12.562 12.562 0 0 0-4.587-8.519 12.544 12.544 0 0 0-7.965-2.846z" fill="#112c41"/><rect fill="#fcaa51" height="57.485" rx="13.64" transform="matrix(.99487894 -.10107366 .10107366 .99487894 -3.354 69.554)" width="27.281" x="671.043" y="39.128"/><path d="M686.2 97.536c-7.413 0-13.79-5.631-14.556-13.161l-3.053-30.05a14.537 14.537 0 0 1 3.22-10.732 14.548 14.548 0 0 1 9.865-5.313c8.04-.826 15.229 5.055 16.046 13.085l3.053 30.051a14.536 14.536 0 0 1-3.22 10.731 14.543 14.543 0 0 1-9.865 5.313c-.5.051-.997.075-1.489.075zm-3.033-57.331c-.426 0-.855.021-1.287.065a12.557 12.557 0 0 0-8.519 4.587 12.552 12.552 0 0 0-2.779 9.266l3.053 30.05c.703 6.932 6.895 12.009 13.854 11.298a12.557 12.557 0 0 0 8.518-4.587 12.552 12.552 0 0 0 2.779-9.266l-3.053-30.051c-.66-6.501-6.166-11.362-12.565-11.362z" fill="#112c41"/><path d="M877.648 292.289c-61 45-189 0-213.39-8.14-5.71-1.9-11.9-3.99-17.59-5.92q-.01-.01-.02-.01c-10.57-3.6-19.42-6.68-20.3-7.09-5.12 11.05-28.6 12.95-45.88 3.77-19.99-10.63-20.36-34.63-14.03-44.48-4.08-9.24-6.74-28.61 5.65-40.51-1.56-33.25 37.39-34.33 54.24-33.73 31.32 1.11 82.32 23.11 82.32 23.11l17.66-25.03 1.17-1.7v-.01c6.2-9.07 12.92-18.64 18.64-26.24 17.69-23.47 35.28-42.52 47.19-51.87.17-.14.34-.27.51-.4 3.98 1.85 8.15 3.96 12.44 6.29 35.54 19.27 70.62 48.37 91.39 74.96 4.45 5.69 8.61 12.27 12.1 19.49 16.16 33.38 18.05 80.51-32.1 117.51z" fill="#ffd6c0"/><path d="M802.909 312.981c-33.205 0-77.508-7.223-136.577-27.081l-2.391-.803a3157.054 3157.054 0 0 1-17.595-5.921 1.368 1.368 0 0 1-.068-.026c-7.573-2.579-16.517-5.661-19.454-6.759-1.862 3.307-5.362 5.894-10.188 7.516-10.576 3.555-25.302 1.898-36.638-4.125-10.921-5.807-15.268-14.893-16.99-21.492-2.207-8.45-1.275-17.984 2.304-23.953-4.302-10.193-6.183-28.997 5.758-40.831-.329-9.041 2.296-16.447 7.805-22.019 8.871-8.972 24.853-13.12 47.487-12.307 29.082 1.03 75.487 20.16 81.933 22.874l18.306-25.984a.92.92 0 0 1 .052-.085c7.187-10.514 13.642-19.601 18.666-26.277 17.185-22.799 34.894-42.259 47.372-52.055.161-.134.341-.271.52-.408a.997.997 0 0 1 1.029-.112 226.601 226.601 0 0 1 12.496 6.318c35.247 19.111 70.385 47.936 91.7 75.224 4.697 6.006 8.807 12.624 12.213 19.67 6.465 13.355 13.257 34.262 8.899 58.014-4.262 23.224-18.159 43.658-41.307 60.736-14.438 10.65-37.791 19.886-75.332 19.887zm-155.882-35.687a3086.201 3086.201 0 0 0 17.546 5.905l2.396.804c125.034 42.037 183.258 27.271 210.084 7.481l.594.805-.594-.805c58.576-43.217 41.748-95.707 31.794-116.27-3.344-6.919-7.377-13.415-11.988-19.31-21.157-27.086-56.056-55.708-91.078-74.697a225.095 225.095 0 0 0-11.831-6.003l-.008.006c-12.366 9.71-29.94 29.031-47.026 51.699-4.994 6.637-11.411 15.669-18.561 26.126a.877.877 0 0 1-.054.089l-1.17 1.7-17.667 25.04a1 1 0 0 1-1.214.342c-.508-.219-51.188-21.938-81.959-23.029-22.064-.777-37.533 3.156-45.995 11.715-5.19 5.25-7.617 12.306-7.21 20.97.014.288-.099.568-.307.769-11.756 11.29-9.688 29.738-5.428 39.384.136.308.107.662-.074.945-2.936 4.568-4.797 13.397-2.335 22.824 1.622 6.212 5.714 14.765 15.994 20.231 10.881 5.78 24.97 7.385 35.063 3.995 4.693-1.578 7.958-4.104 9.44-7.303a1.003 1.003 0 0 1 1.33-.486c.787.367 9.283 3.332 20.199 7.05.02.007.038.015.058.021z" fill="#112c41"/><path d="M877.648 292.289c-61 45-189 0-213.39-8.14-5.71-1.9-11.9-3.99-17.59-5.92 66.98 19.06 157.908 29.641 204.98 11.06 38-15 76-59 58.12-114.45-.01-.02-.01-.04-.02-.06 16.16 33.38 18.05 80.51-32.1 117.51z" fill="#f5b9ab"/><path d="M802.909 312.981c-33.205 0-77.508-7.223-136.577-27.081l-2.391-.803c-13.601-4.53-32.614-11.026-37.117-12.707-1.861 3.307-5.361 5.895-10.188 7.517-10.576 3.555-25.302 1.898-36.638-4.125-10.921-5.807-15.268-14.893-16.99-21.492-2.207-8.45-1.275-17.984 2.304-23.953-4.302-10.193-6.183-28.997 5.758-40.831-.329-9.04 2.295-16.444 7.803-22.017 8.867-8.97 24.851-13.111 47.489-12.309 29.082 1.03 75.487 20.16 81.933 22.874l18.306-25.984a.92.92 0 0 1 .052-.085c7.187-10.514 13.642-19.601 18.666-26.277 17.185-22.799 34.894-42.259 47.372-52.055.161-.134.341-.271.52-.408a.997.997 0 0 1 1.029-.112 226.248 226.248 0 0 1 12.496 6.318c35.242 19.108 70.38 47.932 91.7 75.224 16.959 21.707 25.072 49.361 21.704 73.976-3.387 24.751-17.483 46.434-41.898 64.444-14.438 10.65-37.791 19.887-75.332 19.887zm-176.562-42.852c.145 0 .289.031.423.094 1.202.562 20.477 7.205 37.804 12.978l2.396.803c125.034 42.037 183.258 27.271 210.084 7.481 23.964-17.678 37.793-38.91 41.104-63.106 3.297-24.09-4.665-51.183-21.299-72.474-21.162-27.088-56.062-55.71-91.078-74.696a225.095 225.095 0 0 0-11.831-6.003l-.008.006c-12.366 9.71-29.94 29.031-47.026 51.699-4.994 6.637-11.411 15.669-18.561 26.126a.877.877 0 0 1-.054.089l-1.17 1.7-17.667 25.04a1 1 0 0 1-1.214.342c-.508-.219-51.188-21.938-81.959-23.029-22.064-.775-37.538 3.161-45.997 11.717-5.189 5.25-7.615 12.305-7.208 20.968.014.288-.099.568-.307.769-11.756 11.29-9.688 29.738-5.428 39.384.136.308.107.662-.074.945-2.936 4.568-4.797 13.397-2.335 22.824 1.622 6.212 5.714 14.765 15.994 20.231 10.881 5.78 24.97 7.385 35.063 3.995 4.693-1.578 7.958-4.104 9.44-7.303a1 1 0 0 1 .907-.58z" fill="#112c41"/><path d="M566.438 230.414c7.768-11.304 19.043-12.21 24.826-12.23" fill="#ffd6c0"/><path d="M566.438 231.414a1.002 1.002 0 0 1-.823-1.567c5.829-8.481 14.218-12.623 25.646-12.664h.004a1 1 0 0 1 .004 2c-10.724.038-18.575 3.896-24.005 11.797a1 1 0 0 1-.825.434z" fill="#112c41"/><path d="M572.082 189.912c8.937-7.838 18.416-9.354 23.969-9.047" fill="#ffd6c0"/><path d="M572.082 190.912a1 1 0 0 1-.659-1.752c10.316-9.047 20.7-9.517 24.683-9.293.552.03.975.502.943 1.053-.03.552-.512.985-1.053.943-3.745-.204-13.491.237-23.255 8.801a.997.997 0 0 1-.659.248z" fill="#112c41"/><path d="M586.479 255.503s3.426.741 8.853 2.419c7.371 2.274 18.443 6.265 29.683 12.475.442.234.89.481 1.332.737" fill="#ffd6c0"/><path d="M626.347 272.134a.99.99 0 0 1-.5-.135c-.432-.249-.867-.49-1.299-.719-11.183-6.178-22.219-10.154-29.511-12.402-5.315-1.644-8.735-2.391-8.77-2.397a1 1 0 0 1 .423-1.955c.142.031 3.53.77 8.936 2.441 7.382 2.276 18.556 6.303 29.872 12.555.438.231.896.484 1.35.747a1 1 0 0 1-.502 1.865z" fill="#112c41"/><path d="M627.363 298.228a15.062 15.062 0 0 1-12.024-4.184 15.029 15.029 0 0 1-4.52-9.318l-2.127-20.902-.078-.837c8.583 3.449 19.681 8.007 29.765 11.97l1.88.698-.002.03.61 5.989c.847 8.299-5.204 15.707-13.503 16.554z" fill="#fcaa51"/><path d="M625.838 299.305a16.058 16.058 0 0 1-11.195-4.544 16.11 16.11 0 0 1-4.819-9.934l-2.206-21.748a1.004 1.004 0 0 1 .398-.895.995.995 0 0 1 .971-.126c2.837 1.14 5.948 2.4 9.208 3.722 6.47 2.622 13.803 5.594 20.55 8.245l1.861.69a.999.999 0 0 1 .652.937l.603 5.919a15.983 15.983 0 0 1-3.542 11.806 16.018 16.018 0 0 1-10.854 5.846 16.12 16.12 0 0 1-1.625.082zm-16.07-34.775 2.045 20.094a14.11 14.11 0 0 0 4.22 8.7 14.08 14.08 0 0 0 11.228 3.909 14.025 14.025 0 0 0 9.508-5.12 13.996 13.996 0 0 0 3.102-10.338l-.55-5.402-1.29-.479c-6.774-2.662-14.113-5.636-20.588-8.26a3856.093 3856.093 0 0 0-7.674-3.104z" fill="#112c41"/><path d="M639.908 288.708a14.96 14.96 0 0 1-.832 1.772c-.215.387-.438.755-.681 1.12-.121.173-.243.356-.374.528-.262.355-.534.688-.815 1.022-.431.484-.89.947-1.379 1.387a14.99 14.99 0 0 1-8.455 3.692 14.709 14.709 0 0 1-4.623-.247c-.386-.074-.78-.179-1.155-.282a10.45 10.45 0 0 1-.785-.259c-.167-.06-.343-.122-.509-.192-.431-.167-.86-.354-1.286-.581-.35-.172-.689-.363-1.017-.564a.846.846 0 0 1-.154-.1 5.65 5.65 0 0 1-.462-.299 10.362 10.362 0 0 1-1.053-.787c-.172-.131-.343-.282-.505-.422a9.992 9.992 0 0 1-.483-.451c8.613.215 16.03-6.107 15.618-13.187-.082-1.417-.339-4.54-.735-8.963l-.019-.182c2.747 1.093 5.495 2.185 8.174 3.244l1.88.698-.002.03.61 5.989a14.904 14.904 0 0 1-.958 7.034z" fill="#ff9522"/><path d="M625.822 299.308a15.47 15.47 0 0 1-3.285-.35c-.419-.08-.841-.184-1.233-.303a11.788 11.788 0 0 1-.847-.279c-.236-.086-.396-.144-.547-.208a12.425 12.425 0 0 1-1.367-.619 12.765 12.765 0 0 1-1.038-.575 1.799 1.799 0 0 1-.218-.139 6.977 6.977 0 0 1-.488-.317 11.003 11.003 0 0 1-1.12-.84 8.974 8.974 0 0 1-.487-.407 10.9 10.9 0 0 1-.558-.519 16.042 16.042 0 0 1-4.811-9.927l-2.206-21.746a1.004 1.004 0 0 1 .398-.895.996.996 0 0 1 .971-.126c2.763 1.111 5.785 2.337 8.95 3.62 4.06 1.646 8.354 3.387 12.639 5.105 2.745 1.092 5.491 2.184 8.17 3.242l1.86.689a.999.999 0 0 1 .652.937l.603 5.919a15.784 15.784 0 0 1-1.022 7.502 15.934 15.934 0 0 1-1.61 3.079l-.106.154a11.41 11.41 0 0 1-.305.426 13.5 13.5 0 0 1-.857 1.074 15.664 15.664 0 0 1-1.471 1.479 15.943 15.943 0 0 1-9.017 3.938c-.552.057-1.103.085-1.65.085zm-16.054-34.777 2.045 20.093a14.048 14.048 0 0 0 4.22 8.7c.155.154.299.289.444.415.165.145.309.271.453.381.347.293.667.532.995.746.162.114.289.197.418.271.039.022.076.048.112.075.382.237.693.403 1.006.561a10.8 10.8 0 0 0 1.199.542c.147.063.272.106.394.15l.097.035c.239.09.479.168.719.237.355.107.716.193 1.067.261 1.419.309 2.867.385 4.333.234a13.956 13.956 0 0 0 7.896-3.447c.462-.407.895-.842 1.286-1.293.271-.309.521-.615.754-.943.107-.143.189-.263.271-.38l.099-.144c.215-.323.424-.668.626-1.031.292-.529.553-1.085.773-1.651v-.003c.829-2.1 1.129-4.308.895-6.563l-.551-5.404-1.29-.479c-2.7-1.066-5.448-2.158-8.197-3.253-4.288-1.72-8.586-3.462-12.647-5.108-2.59-1.05-5.083-2.062-7.417-3.002zm166.744-72.645c-25.874 0-61.835-7.895-79.306-16.147a1 1 0 0 1 .853-1.809c19.835 9.37 65.021 18.3 89.469 15.366a1 1 0 0 1 .238 1.986c-3.434.412-7.223.604-11.255.604z" fill="#112c41"/></svg></g><g transform="translate(954.0 153.0) rotate(8.902467738487983 135.5 187.5) scale(1.0042355766202098 1.007498475318974)"><svg width="269.857" height="372.209" viewBox="0 0 269.857 372.209"><circle cx="29.571" cy="300.231" fill="#ffd6c0" r="28.57"/><path d="M46.836 322.995c-12.163 9.227-29.336 7.224-39.08-4.316 9.697 5.752 22.306 5.418 31.847-1.809 12.569-9.538 15.031-27.467 5.492-40.036-.311-.406-.63-.801-.957-1.185a28.397 28.397 0 0 1 8.192 7.319c9.538 12.569 7.075 30.488-5.494 40.027z" fill="#f5b9ab"/><path d="M29.633 329.806c-1.354 0-2.718-.093-4.083-.28-7.825-1.074-14.763-5.131-19.537-11.424-9.854-12.99-7.303-31.575 5.687-41.43 12.26-9.299 29.835-7.562 40.012 3.956a1 1 0 1 1-1.499 1.325c-9.487-10.738-25.874-12.358-37.304-3.687-12.111 9.188-14.49 26.516-5.302 38.627 4.451 5.867 10.919 9.65 18.215 10.651 7.296 1.002 14.544-.898 20.412-5.349a27.652 27.652 0 0 0 10.783-19.348 1 1 0 0 1 1.991.191 29.657 29.657 0 0 1-11.565 20.751c-5.195 3.941-11.401 6.017-17.81 6.017z" fill="#112c41"/><path d="M44.988 298.763c-.42 0-.812-.268-.95-.688-1.362-4.149-4.212-7.533-8.026-9.528-3.806-1.991-8.116-2.36-12.135-1.041-4.541 1.49-8.113 4.964-9.802 9.532a1 1 0 1 1-1.876-.694c1.901-5.144 5.93-9.058 11.054-10.739 4.539-1.489 9.399-1.074 13.686 1.169 4.279 2.238 7.475 6.03 9 10.676a1 1 0 0 1-.951 1.313z" fill="#112c41"/><circle cx="132.378" cy="268.328" fill="#ffd6c0" r="102.5"/><path d="M115.748 167.487c-.341.055-.675.126-1.015.184l-4.618 13.383c52.787-8.311 101.395 25.211 109.733 77.191 8.352 52.074-26.876 102.957-79.77 111.441a98.349 98.349 0 0 1-15.639 1.253c7.778.565 15.738.251 23.776-1.039 55.895-8.965 93.939-61.544 84.973-117.439-8.966-55.896-61.545-93.939-117.44-84.974z" fill="#f5b9ab"/><g fill="#112c41"><path d="M131.921 372.203c-49.909 0-93.982-36.295-102.134-87.118-9.039-56.35 29.452-109.547 85.802-118.585 56.347-9.043 109.546 29.452 118.585 85.802 4.378 27.297-2.135 54.665-18.341 77.063s-40.164 37.144-67.461 41.522a103.765 103.765 0 0 1-16.451 1.316zm.119-205.019c-5.326 0-10.71.421-16.134 1.291-55.261 8.864-93.008 61.033-84.144 116.294 8.863 55.26 61.034 93.004 116.294 84.144 26.769-4.293 50.264-18.755 66.157-40.72s22.28-48.805 17.987-75.574c-7.994-49.837-51.22-85.435-100.16-85.435z"/><ellipse cx="138.574" cy="246.43" rx="6.828" ry="9.104" transform="matrix(.9874 -.1584 .1584 .9874 -37.2785 25.0562)"/><ellipse cx="137.796" cy="211.861" rx="14.13" ry="9.336" transform="matrix(.9999 -.0125 .0125 .9999 -2.6441 1.7434)"/><ellipse cx="54.69" cy="243.096" rx="13.016" ry="8.6" transform="matrix(.7227 -.6912 .6912 .7227 -152.8518 105.2076)"/><path d="M59.06 234.161c1.062 0 2.547.229 3.591 1.322 2.473 2.585.916 8.257-3.4 12.384-2.728 2.609-6.067 4.166-8.932 4.166-1.062 0-2.547-.229-3.591-1.321-2.473-2.586-.916-8.257 3.4-12.384 2.728-2.61 6.067-4.167 8.932-4.167m0-2c-3.25 0-7.102 1.648-10.315 4.72-5.195 4.969-6.746 11.779-3.463 15.212 1.253 1.31 3.03 1.939 5.036 1.939 3.25 0 7.102-1.648 10.315-4.72 5.195-4.969 6.746-11.779 3.463-15.212-1.252-1.31-3.029-1.939-5.036-1.939z"/><ellipse cx="73.13" cy="269.99" rx="6.828" ry="9.104" transform="matrix(.8663 -.4996 .4996 .8663 -125.098 72.637)"/><path d="M128.243 267.681c2.771 12.184-1.338 23.698-10.18 26.952-8.842 3.253-19.434-2.852-25.221-13.926z"/><path d="M113.115 296.504c-7.875 0-16.171-5.789-21.159-15.335a1.001 1.001 0 0 1 .541-1.401l35.401-13.025a.997.997 0 0 1 1.32.717c2.935 12.904-1.612 24.727-10.811 28.112a15.274 15.274 0 0 1-5.292.932zm-18.842-15.259c5.743 10.171 15.46 15.387 23.444 12.449 7.985-2.938 12.004-13.208 9.786-24.675z"/></g><path d="M110.211 294.761c1.356-5.016 6.238-9.214 12.587-10.232a17.739 17.739 0 0 1 4.74-.126c-1.772 4.86-5.024 8.592-9.476 10.23-2.561.942-5.268 1.099-7.962.574.035-.15.072-.298.111-.446z" fill="#ffa6e0"/><path d="M113.133 296.507c-1.059 0-2.134-.106-3.224-.319a.995.995 0 0 1-.646-.435.995.995 0 0 1-.138-.766c.037-.164.078-.326.122-.488 1.489-5.508 6.872-9.912 13.394-10.957a18.703 18.703 0 0 1 5.007-.133 1.002 1.002 0 0 1 .831 1.337c-1.934 5.303-5.51 9.148-10.07 10.826-1.695.622-3.46.935-5.276.935zm-1.765-2.111c2.208.271 4.34.037 6.35-.702 3.639-1.339 6.579-4.294 8.381-8.388a16.915 16.915 0 0 0-3.142.21c-5.504.883-10.072 4.412-11.589 8.88z" fill="#112c41"/><circle cx="238.352" cy="227.832" fill="#ffd6c0" r="30.5"/><path d="M218.748 251.332c2.198.91 4.932 1.492 7.384 1.864 16.662 2.509 32.183-9.556 34.69-26.209 1.648-10.926-2.877-20.617-10.778-27.207 12.737 5.18 20.914 17.802 18.778 32.012-2.497 16.654-18.035 28.132-34.698 25.624-5.726-.859-11.23-2.613-15.376-6.084z" fill="#f5b9ab"/><path d="M238.79 259.289c-7.244 0-14.835-2.581-20.661-7.172a1 1 0 1 1 1.238-1.571c6.638 5.231 15.703 7.691 23.657 6.413 7.78-1.248 14.609-5.451 19.228-11.835s6.476-14.185 5.228-21.965c-2.576-16.061-17.732-27.028-33.8-24.456-15.157 2.432-26.019 16.304-24.727 31.582a1 1 0 0 1-1.993.169c-1.379-16.315 10.218-31.129 26.404-33.725 17.152-2.75 33.34 8.964 36.091 26.114 1.333 8.308-.65 16.637-5.582 23.454-4.932 6.816-12.224 11.304-20.532 12.637a28.718 28.718 0 0 1-4.551.355z" fill="#112c41"/><path d="M222.078 236.21a1 1 0 0 1-.971-.766c-1.219-5.059-.448-10.278 2.172-14.697 2.625-4.428 6.791-7.521 11.73-8.712 5.576-1.344 11.411-.055 16.009 3.536a1 1 0 0 1-1.232 1.576c-4.114-3.214-9.331-4.369-14.309-3.167-4.41 1.062-8.131 3.828-10.479 7.788-2.353 3.968-3.045 8.659-1.948 13.208a1.001 1.001 0 0 1-.972 1.234z" fill="#112c41"/><path d="M153.725 146.347a104.89 104.89 0 0 0-22.067-3.672 108.656 108.656 0 0 0-21.373.869c-42.516 5.933-75.42 35.709-85.244 72.668-2.663 10.018-3.65 20.567-2.633 31.307.205 2.161 2.278 2.344 3.398 1.064 11.286-12.883 36.082-29.71 55.118-38.753 12.7-6.033 26.959-10.221 41.942-13.358a219.624 219.624 0 0 1 18.745-3.089c-2.746-9.39-7.278-17.699-13.072-24.287 9.186 4.784 18.488 13.643 25.682 23.197 20.978-1.157 41.719.865 58.999 5.776 1.429.406 2.93-.6 1.998-2.412-12.305-23.936-34.678-41.826-61.493-49.31z" fill="#b2b0f7"/><path d="M213.744 198.22c-6.597-1.907-19.722-4.237-26.987-5.293-11.044-21.331-36.096-44.618-68.611-46.522a97.696 97.696 0 0 0-19.126.781 97.155 97.155 0 0 0-13.572 2.883 107.888 107.888 0 0 1 24.837-6.525 108.736 108.736 0 0 1 21.375-.872c36.558 2.148 68.599 22.868 83.804 53.47.563 1.143-.499 2.432-1.72 2.078z" fill="#9797f7"/><path d="M24.155 250.386c-.284 0-.566-.043-.839-.131-1.069-.345-1.781-1.333-1.905-2.641-1.002-10.589-.107-21.24 2.663-31.658 4.942-18.593 15.549-35.353 30.673-48.468 15.47-13.413 34.626-22.035 55.398-24.934a109.745 109.745 0 0 1 21.57-.877 106.035 106.035 0 0 1 22.278 3.707c27.084 7.56 49.723 25.717 62.112 49.817.575 1.117.528 2.217-.128 3.018-.676.825-1.864 1.146-3.032.813-17.055-4.848-37.893-6.887-58.671-5.74a.995.995 0 0 1-.854-.397c-6.264-8.319-13.597-15.429-20.696-20.149 4.292 5.935 7.658 12.877 9.845 20.357a1 1 0 0 1-.84 1.274c-6.2.746-12.478 1.781-18.659 3.076-16.552 3.464-30.198 7.809-41.718 13.282-17.732 8.424-43.077 25.131-54.795 38.508-.644.735-1.527 1.143-2.402 1.143zM125.4 143.492c-4.989 0-10.004.349-14.977 1.042-20.389 2.845-39.188 11.305-54.364 24.464-14.821 12.851-25.212 29.266-30.051 47.47-2.708 10.188-3.584 20.604-2.604 30.956.034.355.153.805.528.927.344.11.806-.064 1.122-.427 11.89-13.573 37.525-30.486 55.441-38.998 11.666-5.542 25.458-9.936 42.167-13.433a221.795 221.795 0 0 1 17.649-2.958c-2.691-8.651-7.007-16.507-12.523-22.78a1 1 0 0 1 1.213-1.547c8.597 4.477 17.94 12.864 25.696 23.057 20.823-1.093 41.679.977 58.796 5.842.428.123.802.01.938-.157.181-.221-.012-.659-.103-.837-12.135-23.605-34.322-41.394-60.872-48.804a104.022 104.022 0 0 0-21.857-3.637c-2.058-.119-4.127-.18-6.199-.18z" fill="#112c41"/><circle cx="245.354" cy="259.889" fill="#fff" r="11.5"/><path d="M245.366 272.389a12.422 12.422 0 0 1-9.208-4.033c-4.668-5.07-4.342-12.994.729-17.663a12.398 12.398 0 0 1 8.982-3.294 12.422 12.422 0 0 1 8.681 4.022 12.418 12.418 0 0 1 3.293 8.982 12.418 12.418 0 0 1-4.022 8.681 12.406 12.406 0 0 1-8.455 3.305zm-.022-23a10.43 10.43 0 0 0-7.103 2.776c-4.259 3.922-4.533 10.577-.611 14.836a10.427 10.427 0 0 0 7.292 3.378 10.392 10.392 0 0 0 7.545-2.767c2.063-1.899 3.263-4.489 3.378-7.292s-.867-5.482-2.767-7.545a10.427 10.427 0 0 0-7.734-3.386z" fill="#112c41"/><circle cx="38.502" cy="333.456" fill="#fff" r="11.5"/><path d="M38.507 345.95a12.47 12.47 0 0 1-9.201-4.027c-4.668-5.07-4.342-12.994.729-17.663 5.07-4.667 12.993-4.342 17.663.729 4.668 5.07 4.342 12.994-.729 17.663a12.455 12.455 0 0 1-8.462 3.298zm-.01-22.989a10.46 10.46 0 0 0-7.108 2.771c-4.259 3.921-4.533 10.578-.611 14.837 3.921 4.258 10.576 4.534 14.837.611 4.259-3.922 4.533-10.578.611-14.837a10.474 10.474 0 0 0-7.729-3.382zm97.054-196.817a1 1 0 0 1-.175-1.984c19.571-3.51 36.941-14.619 47.657-30.477 9.207-13.626 12.564-29.374 9.454-44.34-6.755-32.502-43.28-53.122-81.413-45.958a1 1 0 0 1-.369-1.965c39.198-7.359 76.766 13.957 83.74 47.517 3.221 15.5-.243 31.789-9.755 45.867-11.016 16.303-28.861 27.721-48.96 31.326a1.22 1.22 0 0 1-.179.014z" fill="#112c41"/><path d="M130.343 126.568c-34.355 5.51-66.672-17.873-72.182-52.228S76.033 7.669 110.388 2.158s66.672 17.873 72.182 52.228-17.872 66.672-52.227 72.182" fill="#9797f7"/><path d="M161.624 50.473c5.344 33.277-17.304 64.573-50.574 69.91-6.661 1.063-13.241 1.018-19.553-.02-17.165-8.867-30.046-25.485-33.34-46.024C52.652 39.987 76.03 7.667 110.39 2.155a63.175 63.175 0 0 1 7.554-.757c22.147 6.263 39.796 24.853 43.68 49.075z" fill="#b2b0f7"/><path d="M120.238 128.38c-10.131 0-20.07-2.409-29.2-7.129-18.004-9.301-30.665-26.779-33.868-46.754-5.584-34.845 18.219-67.741 53.061-73.33a64.418 64.418 0 0 1 7.673-.769c32.308-1.279 60.528 21.869 65.657 53.83 5.584 34.845-18.219 67.741-53.062 73.331a64.832 64.832 0 0 1-10.261.821zm.205-126.032c-.817 0-1.637.016-2.459.048h-.001a62.522 62.522 0 0 0-7.435.745c-33.754 5.416-56.813 37.284-51.403 71.04 3.103 19.35 15.369 36.283 32.811 45.293 11.818 6.109 25.036 8.222 38.228 6.11 33.753-5.415 56.813-37.283 51.403-71.039-4.838-30.148-30.891-52.197-61.144-52.197zm-2.499-.95h.01zM70.072 300.975c-.136 0-.273-.002-.409-.005-10.879-.295-19.405-12.504-19.007-27.217.399-14.712 9.569-26.439 20.453-26.148 10.879.295 19.405 12.505 19.007 27.217-.192 7.071-2.39 13.676-6.188 18.598-3.771 4.885-8.677 7.555-13.856 7.555zm.633-51.418c-9.646 0-17.727 10.777-18.092 24.249-.37 13.634 7.303 24.941 17.103 25.207 4.703.14 9.185-2.284 12.662-6.789 3.547-4.596 5.601-10.794 5.781-17.455.37-13.634-7.303-24.942-17.103-25.208a20.421 20.421 0 0 0-.351-.004zm82.5 24.061c-7.769 0-16.366-4.305-22.512-12.092-4.504-5.708-7.046-12.424-7.158-18.911-.113-6.592 2.287-12.166 6.759-15.694 4.471-3.529 10.451-4.568 16.835-2.926 6.284 1.616 12.225 5.649 16.73 11.357 9.364 11.865 9.543 27.389.399 34.605-3.143 2.48-6.985 3.661-11.053 3.661zm-11.847-48.329c-3.707 0-7.077 1.099-9.793 3.243-3.957 3.123-6.08 8.111-5.978 14.047.104 6.041 2.489 12.318 6.717 17.675 8.663 10.977 22.427 14.606 30.682 8.091 8.255-6.515 7.923-20.746-.739-31.723-4.228-5.357-9.778-9.136-15.629-10.641-1.803-.463-3.567-.692-5.26-.692zm22.264 43.862h.01z" fill="#112c41"/><path d="M88.336 267.546a1.001 1.001 0 0 1-.83-1.556c9.173-13.692 27.258-17.381 39.615-13.902a.998.998 0 0 1 .691 1.233.994.994 0 0 1-1.233.691c-11.846-3.334-29.078.65-37.412 13.09a.997.997 0 0 1-.831.444zm74.014-31.752a.998.998 0 0 1-.687-1.726c13.7-12.969 33.011-20.435 48.051-18.578.548.068.938.567.87 1.115s-.571.933-1.115.87c-14.482-1.789-33.141 5.463-46.431 18.045a1 1 0 0 1-.688.274zM31.947 281.586a1 1 0 0 1-.642-1.767c4.281-3.578 14.168-5.48 20.346-3.912a1 1 0 0 1-.492 1.938c-5.563-1.411-14.764.326-18.572 3.508a.99.99 0 0 1-.64.233z" fill="#112c41"/></svg></g></svg>