<svg xmlns="http://www.w3.org/2000/svg" viewBox="0 0 1800 1800" width="1800" height="1800"><g transform="translate(169.0 634.0) rotate(0.0 645.0 430.5) scale(0.9783541050297261 0.9787104892529404)"><svg width="1318.541" height="879.729" viewBox="0 0 1318.541 879.729"><ellipse cx="734.048" cy="330.129" fill="#b0aef5" rx="625.659" ry="237.95" transform="matrix(.92 -.3919 .3919 .92 -70.6588 314.0432)"/><path d="M366.309 659.825c-49.899 0-92.42-5.911-126.678-17.634-41.791-14.302-69.422-36.676-82.125-66.502s-9.691-65.252 8.955-105.294c17.941-38.529 49.545-79.72 93.936-122.426 91.195-87.737 226.155-172.147 380.019-237.68C794.277 44.756 948.652 5.932 1075.103.97c61.554-2.417 113.148 3.337 153.362 17.098 41.791 14.301 69.422 36.675 82.125 66.501 12.704 29.826 9.691 65.252-8.954 105.294-17.941 38.529-49.546 79.72-93.936 122.427-91.195 87.737-226.155 172.147-380.019 237.68S519.443 654.326 392.993 659.289c-9.114.357-18.011.536-26.684.536zM1101.795 2.433c-8.65 0-17.521.178-26.613.535-126.214 4.953-280.339 43.72-433.984 109.161C324.306 247.099 108.147 454.7 159.345 574.906 183 630.445 259.665 657.759 366.55 657.76c124.45.003 289.872-37.022 460.348-109.63 153.646-65.441 288.391-149.709 379.415-237.282 44.212-42.535 75.673-83.524 93.509-121.83 18.396-39.506 21.399-74.384 8.928-103.667-12.472-29.282-39.701-51.283-80.933-65.393-34.048-11.65-76.351-17.525-126.022-17.525z" fill="#112c41"/><path d="M852.31 502.516C536.133 638.168 237.291 644.67 186.335 524.151c-11.294-26.712-8.774-57.108 4.269-90.65-38.742 56.632-46.814 104.207-31.43 140.498 50.537 121.598 349.784 108.571 665.949-25.175 172.858-73.234 314.056-167.995 399.79-256.495 39.994-41.284 66.563-81.516 81.081-118.849-27.396 41.472-68.892 88.385-122.565 131.923-85.861 69.648-200.523 141.082-331.119 197.113z" fill="#9595f5"/><ellipse cx="261.31" cy="536.286" fill="#ffa8db" rx="203.581" ry="33.649" transform="matrix(.9085 -.4178 .4178 .9085 -200.1743 158.2415)"/><path d="M92.001 627.727c-8.386 0-14.56-1.659-16.547-5.938-.897-1.931-.856-4.26.123-6.923 8.022-21.813 79.997-68.078 171.139-110.006 49.45-22.749 97.424-40.96 135.084-51.28 26.979-7.393 60.219-13.879 65.365-2.797.897 1.931.856 4.26-.123 6.923-8.022 21.813-79.996 68.078-171.139 110.007-49.45 22.749-97.424 40.96-135.084 51.279-16.562 4.538-35.485 8.735-48.818 8.735zm338.805-180.896c-10.917 0-27.449 2.915-48.477 8.678-37.559 10.291-85.423 28.463-134.777 51.167-89.242 41.054-162.368 87.862-170.097 108.88-.789 2.146-.852 3.959-.187 5.391 3.506 7.545 26.478 6.131 63.023-3.884 37.559-10.291 85.423-28.463 134.777-51.167 89.243-41.056 162.369-87.864 170.098-108.881.789-2.146.852-3.959.187-5.391-1.489-3.204-6.49-4.793-14.547-4.793z" fill="#112c41"/><path d="m1.269 301.801 159.117 184.342c43.252-107.814 173.709-200.371 173.673-200.258-47.905-35.357-85.678-44.4-153.041-48.202-61.134-3.45-129.593 20.16-179.616 62.518a1.135 1.135 0 0 0-.133 1.6z" fill="#ffa8db"/><path d="M160.386 487.144c-.288 0-.565-.125-.757-.347L.512 302.454l-.006-.007a2.139 2.139 0 0 1 .25-3.009c49.807-42.174 118.899-66.216 180.319-62.753 37.143 2.097 62.279 5.778 84.049 12.309 24.045 7.214 45.489 18.344 69.53 36.087l-.594.805.534.845c-.277.183-33.007 23.379-71.188 60.25-34.339 33.16-79.926 84.285-102.091 139.536a.998.998 0 0 1-.929.627zM2.026 301.147l158.048 183.104c12.67-30.921 40.729-79.765 102.636-139.381 19.689-18.961 37.857-34.199 49.632-43.643a595.202 595.202 0 0 1 15.405-11.968c2.256-1.688 3.67-2.748 4.589-3.401-48.626-35.572-87.704-43.584-151.374-47.178-60.93-3.44-129.482 20.426-178.914 62.282a.134.134 0 0 0-.017.189z" fill="#112c41"/><path d="m244.472 877.707-21.868-242.532c107.563 43.872 264.397 14.097 264.292 14.044-9.522 57.406-27.02 95.982-71.366 143.872-41.602 44.928-104.591 79.128-169.816 85.633a1.135 1.135 0 0 1-1.242-1.017z" fill="#ffa8db"/><path d="M245.597 879.729a2.12 2.12 0 0 1-1.348-.483 2.12 2.12 0 0 1-.772-1.44l-.001-.009-21.868-242.533a1.001 1.001 0 0 1 1.373-1.016c55.121 22.481 123.453 25.158 171.071 23.459 52.952-1.899 92.281-9.387 92.604-9.46l.238.971.986.164c-10.002 60.303-28.744 98.086-71.618 144.389-44.047 47.566-107.766 79.696-170.45 85.948-.071.007-.143.01-.215.01zm-.13-2.119c.008.062.084.121.147.118 62.212-6.204 125.457-38.099 169.181-85.317 42.234-45.609 60.884-82.89 70.873-141.924-1.107.207-2.837.489-5.569.936a587.072 587.072 0 0 1-19.268 2.793c-14.94 1.928-38.474 4.438-65.741 5.454-47.666 1.776-115.893-.797-171.344-22.956l21.721 240.903z" fill="#112c41"/><ellipse cx="877.699" cy="255.392" fill="#ffe993" rx="147.788" ry="146.247"/><path d="M877.514 402.641c-18.466 0-37.228-3.424-55.38-10.656-37.064-14.767-66.023-42.967-81.543-79.406-15.354-36.05-15.678-75.891-.913-112.183 30.643-75.312 117.487-111.916 193.587-81.598 37.064 14.767 66.024 42.968 81.543 79.407 15.354 36.05 15.678 75.891.913 112.183-23.333 57.349-79.255 92.253-138.207 92.253zm.366-292.499c-58.162 0-113.331 34.432-136.349 91.008-14.563 35.795-14.244 75.089.899 110.646 15.309 35.945 43.878 63.764 80.443 78.332 75.087 29.916 160.766-6.194 190.993-80.493l.927.377-.927-.377c14.563-35.795 14.244-75.09-.899-110.646-15.309-35.945-43.878-63.764-80.443-78.332-17.91-7.136-36.424-10.515-54.644-10.515z" fill="#112c41"/><path d="m1101.571 1 124.566 291.499c74.29-77.294 107.676-151.788 83.763-207.748C1285.987 28.792 1208.963 1.168 1101.571 1z" fill="#ffa8db"/><path d="M1226.137 293.499a.996.996 0 0 1-.92-.607L1100.651 1.393a1 1 0 0 1 .92-1.393h.002c111.763.174 186.075 30.133 209.247 84.358 23.171 54.227-6.647 128.392-83.963 208.833a.995.995 0 0 1-.72.308zM1103.088 2.004l123.374 288.71c75.943-79.402 105.251-152.374 82.519-205.57-22.733-53.199-95.828-82.7-205.893-83.14z" fill="#112c41"/><g fill="#ff90d8"><path d="M484.05 659.394c-74.847 25.132-152.932 28.085-230.303 15.624 9.277 72.564 14.253 120.435 17.676 198.764-14.271 2.987-25.839 4.172-25.934 3.888l-21.588-240.782c21.365 8.802 76.968 24.111 150.54 23.245 54.294-.639 92.556-6.184 111.249-9.706-.678 3.988-1.061 5.798-1.64 8.967zM327.757 282.633c-70.008 36.504-130.111 89.037-174.782 153.427-43.918-54.596-74.756-91.296-131.004-150.367-8.147 5.674-11.68 8.474-20.034 15.289l158.095 183.164c4.236-10.422 24.498-59.356 87.54-124.102 37.829-38.852 69.692-63.129 84.719-74.118-1.041-.972-3.289-2.388-4.534-3.293zM120.371 601.24c-7.142-15.323 49.944-57.112 139.655-100.142-4.428 1.966-16.722 7.628-21.208 9.684-99.386 45.564-168.815 95.741-161.456 110.161 5.974 11.707 52.977 1.9 114.656-20.638 23.827-8.707 48.155-18.647 76.397-31.319 6.45-2.894 20.048-9.336 26.25-12.31-92.997 39.533-167.004 60.207-174.294 44.564zm1043.358-457.506 65.236 120.121c27.674-21.006 53.422-51.948 79.476-95.697-13.177 40.313-45.108 83.492-81.974 122.564z"/></g><ellipse cx="877.699" cy="255.392" fill="#112c41" rx="114.231" ry="113.039"/><path d="M877.555 369.433c-14.301 0-28.829-2.652-42.888-8.252-28.705-11.437-51.133-33.277-63.152-61.498-11.892-27.92-12.143-58.776-.706-86.884 23.729-58.327 90.986-86.673 149.923-63.195 28.705 11.437 51.133 33.276 63.152 61.498 11.892 27.92 12.143 58.777.706 86.885-18.069 44.413-61.38 71.446-107.035 71.446zm.283-226.082c-44.866 0-87.422 26.56-105.177 70.202-11.233 27.61-10.987 57.92.693 85.347 11.81 27.727 33.847 49.186 62.053 60.423 57.923 23.079 124.014-4.778 147.33-62.09 11.233-27.61 10.987-57.921-.693-85.347-11.81-27.727-33.847-49.186-62.053-60.423-13.815-5.505-28.098-8.112-42.153-8.112z" fill="#112c41"/></svg></g><g transform="translate(1456.0 1063.0) rotate(28.245449202917122 -71.5 96.0) scale(-0.9814081491191347 0.9878372538124344)"><svg width="145.709" height="194.364" viewBox="0 0 145.709 194.364"><path d="M24.149 193.364s35.474-10.756 75.146-12.591c0 0-3.013-32.132 9.429-80.055a343.157 343.157 0 0 1 7.407-24.632c6.647-19.447 15.811-40.689 28.433-62.892a1.105 1.105 0 0 0-.519-1.562L119.294 1 1 180.2c13.726 6.207 23.149 13.164 23.149 13.164z" fill="#7cdaac"/><path d="M24.149 194.364c-.211 0-.42-.067-.594-.195-.094-.069-9.507-6.972-22.968-13.058a1.002 1.002 0 0 1-.423-1.462L118.458.449a.999.999 0 0 1 1.229-.368l24.751 10.632c.548.235.971.694 1.16 1.26a2.11 2.11 0 0 1-.166 1.715c-11.511 20.249-21.052 41.352-28.356 62.721a344.881 344.881 0 0 0-7.385 24.561c-12.248 47.176-9.431 79.391-9.4 79.711a1.004 1.004 0 0 1-.95 1.092c-39.083 1.809-74.549 12.442-74.902 12.55a1.058 1.058 0 0 1-.29.041zM2.477 179.777c11.534 5.333 19.952 11.136 21.858 12.49 4.332-1.264 37.418-10.611 73.889-12.443-.374-5.927-1.579-36.562 9.532-79.356a345.655 345.655 0 0 1 7.428-24.705c7.346-21.487 16.937-42.705 28.511-63.063l.35-1.067-.395.919-23.982-10.303z" fill="#112c41"/><path d="M1 180.2c35.679-13.136 70.571-15.583 70.571-15.583 2.482-27.262 7.573-52.528 13.537-74.654a474.718 474.718 0 0 1 7.309-24.478C105.447 25.76 119.294 1 119.294 1 93.817 3.021 65.892 13.203 60.793 15.138a2.2 2.2 0 0 0-1.222 1.09c-10.026 19.689-20.738 45.766-30.27 71.724-.191.527-.395 1.06-.582 1.578a1164.946 1164.946 0 0 0-7.812 22.104c-.178.522-.356 1.044-.529 1.557C10.822 141.332 3.501 166.685 1 180.2z" fill="#ddfeee"/><path d="M1 181.2a1.002 1.002 0 0 1-.984-1.181c2.502-13.52 9.94-39.25 19.414-67.15l.53-1.558a1172.7 1172.7 0 0 1 7.819-22.124l.581-1.576c7.388-20.117 18.643-48.906 30.318-71.838a3.228 3.228 0 0 1 1.772-1.575C65.745 12.19 93.52 2.041 119.214.003c.357-.026.722.146.921.457s.211.706.031 1.028c-.139.247-13.954 25.145-26.799 64.308a473.427 473.427 0 0 0-7.294 24.428c-6.738 24.999-11.283 50.06-13.507 74.484a1 1 0 0 1-.926.906c-.348.024-35.169 2.591-70.296 15.524A.972.972 0 0 1 1 181.2zM117.535 2.156C92.637 4.492 66.283 14.124 61.147 16.072c-.306.111-.538.32-.686.609-11.63 22.843-22.854 51.553-30.221 71.615l-.58 1.572a1179.409 1179.409 0 0 0-7.807 22.089l-.528 1.554c-9.056 26.669-16.241 51.321-19.009 65.146 31.771-11.412 62.857-14.496 68.336-14.969 2.262-24.274 6.799-49.16 13.49-73.986a478.058 478.058 0 0 1 7.325-24.529c11.036-33.648 22.799-56.839 26.068-63.017z" fill="#112c41"/><ellipse cx="58.592" cy="147.556" fill="#7cdaac" rx="8.845" ry="5.503" transform="matrix(.1817 -.9834 .9834 .1817 -97.1525 178.3678)"/><path d="M57.632 157.384c-.281 0-.562-.025-.842-.077-3.625-.669-5.674-5.478-4.664-10.945 1.012-5.47 4.651-9.222 8.267-8.558 3.625.671 5.673 5.479 4.664 10.945-.466 2.518-1.524 4.785-2.983 6.386-1.341 1.471-2.892 2.249-4.442 2.249zm1.926-17.514c-2.239 0-4.606 2.996-5.324 6.88-.765 4.144.584 8.014 2.945 8.449 1.072.203 2.245-.338 3.312-1.509 1.192-1.308 2.065-3.201 2.459-5.33.765-4.144-.584-8.013-2.946-8.449a2.475 2.475 0 0 0-.446-.041zm4.445 8.685h.01z" fill="#112c41"/><ellipse cx="64.965" cy="29.232" fill="#7cdaac" rx="8.845" ry="5.503" transform="matrix(.4876 -.8731 .8731 .4876 7.7692 71.7)"/><path d="M62.479 38.486a4.758 4.758 0 0 1-2.349-.596c-3.219-1.799-3.616-7.009-.905-11.863 2.712-4.855 7.36-7.25 10.575-5.453 3.218 1.797 3.616 7.008.905 11.863-2.101 3.763-5.365 6.049-8.226 6.049zm4.97-16.365c-2.053 0-4.683 1.96-6.353 4.95-2.055 3.679-2.019 7.775.079 8.947 2.098 1.173 5.604-.946 7.659-4.627 2.054-3.679 2.018-7.776-.079-8.947a2.656 2.656 0 0 0-1.306-.323zm2.321 9.793h.01z" fill="#112c41"/><path d="M108.724 100.718a343.157 343.157 0 0 1 7.407-24.632L92.417 65.484a474.718 474.718 0 0 0-7.309 24.478z" fill="#fff"/><path d="M108.724 101.718a.993.993 0 0 1-.414-.09L84.694 90.873a1.002 1.002 0 0 1-.552-1.171 478.058 478.058 0 0 1 7.325-24.529.999.999 0 0 1 1.358-.602l23.713 10.601a1 1 0 0 1 .538 1.236 344.881 344.881 0 0 0-7.385 24.561.998.998 0 0 1-.967.749zm-22.43-12.314 21.763 9.911a345.635 345.635 0 0 1 6.833-22.689l-21.867-9.775a475.522 475.522 0 0 0-6.729 22.553z" fill="#112c41"/><path d="M70.635 91.989c-4.374 12.294-15.311 24.548-24.632 22.563-9.307-1.982-9.089-16.014-4.663-28.289 5.003-13.874 16.096-24.421 24.34-22.021 7.532 2.193 9.714 14.37 4.955 27.747z" fill="#7cdaac"/><path d="M47.994 115.759c-.741 0-1.475-.074-2.199-.229-2.826-.602-4.989-2.222-6.432-4.814-3.535-6.357-1.782-16.975 1.036-24.792 5.322-14.758 17.033-25.122 25.561-22.642 2.605.758 4.733 2.628 6.154 5.406 2.907 5.684 2.707 14.52-.537 23.636-4.243 11.924-14.372 23.435-23.583 23.435zm15.282-50.851c-7.236 0-16.555 9.378-20.996 21.693-3.405 9.447-3.854 18.314-1.169 23.143 1.148 2.065 2.864 3.354 5.1 3.829 8.581 1.846 19.271-10.082 23.481-21.919 3.018-8.479 3.263-16.931.642-22.055-1.181-2.309-2.841-3.788-4.933-4.397a7.6 7.6 0 0 0-2.125-.294z" fill="#112c41"/><path d="m20.907 111.633 64.201-21.671a474.718 474.718 0 0 1 7.309-24.478L29.301 87.951c-.191.527-.395 1.06-.582 1.578a1176.99 1176.99 0 0 0-7.812 22.104z" fill="#fff"/><path d="M20.907 112.633a1 1 0 0 1-.946-1.324 1177.368 1177.368 0 0 1 7.819-22.122l.581-1.576c.103-.281.324-.501.605-.602l63.116-22.467a1 1 0 0 1 1.285 1.254 473.427 473.427 0 0 0-7.294 24.428 1 1 0 0 1-.646.687l-64.201 21.67a1.03 1.03 0 0 1-.319.052zm9.171-23.896-.418 1.132a1159.81 1159.81 0 0 0-7.146 20.167l61.769-20.849a477.13 477.13 0 0 1 6.555-22.078z" fill="#112c41"/><path d="M84.533 169.95c.463-13.525 2.349-26.814 3.684-33.701" fill="#7cdaac"/><g fill="#112c41"><path d="m84.535 170.95-.035-.001a1 1 0 0 1-.965-1.033c.451-13.226 2.275-26.504 3.701-33.857a1 1 0 1 1 1.963.381c-1.411 7.281-3.218 20.436-3.666 33.545a.999.999 0 0 1-.998.965z"/><path d="M99.024 181.621a.994.994 0 0 1-.656-.246c-.123-.106-12.422-10.719-27.127-15.812a1 1 0 0 1 .654-1.89c15.081 5.225 27.66 16.086 27.785 16.195a.998.998 0 0 1-.656 1.753z"/></g></svg></g><g transform="translate(320.0 622.0) rotate(8.234060994411802 82.5 56.5) scale(1.0329155763668916 1.0345995733421227)"><svg width="159.742" height="109.221" viewBox="0 0 159.742 109.221"><path d="M127.482 1.488C100.948 31.118 44.243 44.969 2.9 32.935a1.5 1.5 0 0 0-1.875 1.729l13.047 67.516a1.509 1.509 0 0 0 1.089 1.172c51.147 13.642 116.089-2.168 143.275-37.652a1.506 1.506 0 0 0 .167-1.545L129.946 1.877a1.5 1.5 0 0 0-2.464-.389z" fill="#ddfeee"/><path d="M53.93 109.252a151.914 151.914 0 0 1-39.03-4.934 2.523 2.523 0 0 1-1.813-1.948L.046 34.854a2.488 2.488 0 0 1 .774-2.328 2.459 2.459 0 0 1 2.363-.55c19.921 5.8 43.829 5.76 67.319-.111C94.124 25.963 114.1 14.938 126.736.821a2.472 2.472 0 0 1 2.214-.794 2.5 2.5 0 0 1 1.905 1.432l28.656 62.278a2.505 2.505 0 0 1-.282 2.573C138.782 93 96.318 109.251 53.93 109.252zM2.486 33.875a.479.479 0 0 0-.319.125.5.5 0 0 0-.157.471l13.044 67.519a.514.514 0 0 0 .366.4c52.032 13.876 115.834-2.852 142.222-37.294a.506.506 0 0 0 .052-.52L129.038 2.3a.5.5 0 0 0-.387-.289.45.45 0 0 0-.424.149c-12.907 14.407-33.234 25.648-57.24 31.646-23.83 5.954-48.108 5.988-68.363.09a.515.515 0 0 0-.138-.021z" fill="#112c41"/><ellipse cx="80.127" cy="65.747" fill="#7bdaac" rx="22.723" ry="16.596" transform="matrix(.98212664 -.18822131 .18822131 .98212664 -10.943 16.256)"/><path d="M77.448 83.605a26.539 26.539 0 0 1-11.32-2.405c-5.1-2.41-8.4-6.313-9.3-10.988s.73-9.522 4.579-13.648a28.356 28.356 0 0 1 15.409-8.1 28.343 28.343 0 0 1 17.31 1.828c5.1 2.41 8.405 6.313 9.3 10.987S102.7 70.8 98.848 74.93a28.343 28.343 0 0 1-15.409 8.1 31.844 31.844 0 0 1-5.991.575zm5.364-33.716a29.844 29.844 0 0 0-5.62.542 26.337 26.337 0 0 0-14.323 7.5c-3.4 3.647-4.849 7.876-4.077 11.907s3.682 7.427 8.19 9.558a26.367 26.367 0 0 0 16.08 1.671 26.354 26.354 0 0 0 14.323-7.5c3.4-3.648 4.849-7.876 4.077-11.909s-3.682-7.425-8.191-9.556a24.538 24.538 0 0 0-10.459-2.213z" fill="#112c41"/><ellipse cx="139.488" cy="65.84" fill="#7bdaac" rx="8.237" ry="6.016" transform="matrix(.80403331 -.59458425 .59458425 .80403331 -11.812 95.841)"/><path d="M137.288 73.724a5.946 5.946 0 0 1-5.967-8.14 11.5 11.5 0 0 1 10.315-7.628 5.949 5.949 0 0 1 6.019 8.14 11.5 11.5 0 0 1-10.315 7.628zm4.4-13.768h-.04a9.516 9.516 0 0 0-8.418 6.226 4.344 4.344 0 0 0 .439 3.961 4.449 4.449 0 0 0 3.66 1.581 9.516 9.516 0 0 0 8.418-6.226 3.964 3.964 0 0 0-4.059-5.542z" fill="#112c41"/><ellipse cx="21.233" cy="49.497" fill="#7bdaac" rx="6.016" ry="8.237" transform="matrix(.21700188 -.97617118 .97617118 .21700188 -31.692 59.483)"/><path d="M22.334 56.638a12.132 12.132 0 0 1-2.623-.292 10.923 10.923 0 0 1-5.838-3.3 5.949 5.949 0 0 1 2.2-9.881 10.917 10.917 0 0 1 6.685-.516 10.915 10.915 0 0 1 5.838 3.3 5.949 5.949 0 0 1-2.2 9.881 10.158 10.158 0 0 1-4.062.808zm-2.207-12.283a8.14 8.14 0 0 0-3.256.645 3.967 3.967 0 0 0-1.5 6.729 8.91 8.91 0 0 0 4.77 2.668A8.879 8.879 0 0 0 25.6 54a3.966 3.966 0 0 0 1.5-6.728 8.9 8.9 0 0 0-4.778-2.672 10.089 10.089 0 0 0-2.195-.245z" fill="#112c41"/></svg></g><g transform="translate(778.0 448.0) rotate(45.78614860712048 85.5 -53.5) scale(0.9630710138152819 -0.9574258666046279)"><svg width="177.557" height="111.758" viewBox="0 0 177.557 111.758"><path d="M176.039 63.985a1.557 1.557 0 0 0 .183-2.124c-26.27-33.189-58.579-38.073-79.789-40.385-22.26-2.426-33.867-8.006-44.79-19.959a1.55 1.55 0 0 0-2.265-.049c-6.924 7.167-42.5 44.659-47.955 50.408a1.541 1.541 0 0 0-.272 1.724c2.017 4.288 11.615 21.388 39 28.306 31.1 7.855 49.117-2.336 81.9 28.421a1.551 1.551 0 0 0 2.1.033c6.836-6.175 44.949-40.179 51.888-46.375z" fill="#ddfeee"/><path d="M123.123 111.763a2.564 2.564 0 0 1-1.758-.7c-22.743-21.339-38.25-22.745-56.2-24.374-7.813-.709-15.892-1.442-25.254-3.806C12.434 75.939 2.6 59.043.246 54.03A2.535 2.535 0 0 1 .7 51.188C7.505 44.012 41.814 7.859 48.659.774A2.52 2.52 0 0 1 50.516 0a2.583 2.583 0 0 1 1.865.842C63.491 13 75.047 18.139 96.542 20.482c18.437 2.011 52.756 5.752 80.464 40.758a2.557 2.557 0 0 1-.3 3.491l-.359.32c-28.89 25.78-47.188 42.136-51.525 46.055a2.521 2.521 0 0 1-1.699.657zM50.48 2a.52.52 0 0 0-.383.162C43.258 9.242 8.955 45.39 2.148 52.565a.539.539 0 0 0-.092.613C4.319 57.991 13.775 74.215 40.4 80.94c9.209 2.326 17.209 3.052 24.944 3.754 18.324 1.662 34.149 3.1 57.393 24.907a.55.55 0 0 0 .748.021c4.338-3.922 22.641-20.281 51.533-46.063l.359-.32a.555.555 0 0 0 .064-.758c-27.191-34.35-60.969-38.032-79.116-40.011C74.556 20.1 62.246 14.6 50.9 2.192A.566.566 0 0 0 50.487 2z" fill="#112c41"/><ellipse cx="90.356" cy="54.439" fill="#7bdaac" rx="16.596" ry="22.723" transform="matrix(.2369738 -.97151604 .97151604 .2369738 16.056 129.321)"/><path d="M93.578 72.436a31.262 31.262 0 0 1-7.391-.9A28.354 28.354 0 0 1 71.2 62.677c-3.638-4.313-5.02-9.235-3.892-13.86 2.3-9.427 14.507-14.572 27.217-11.473a28.364 28.364 0 0 1 14.987 8.856c3.638 4.313 5.02 9.235 3.892 13.86-1.846 7.567-10.077 12.376-19.826 12.376zm-6.494-34c-8.821 0-16.209 4.2-17.832 10.856-.973 3.988.262 8.284 3.478 12.1a26.332 26.332 0 0 0 13.93 8.2c11.64 2.837 22.763-1.648 24.8-10 .973-3.989-.262-8.285-3.478-12.1a26.332 26.332 0 0 0-13.931-8.2 29.484 29.484 0 0 0-6.967-.856z" fill="#112c41"/><ellipse cx="153.907" cy="59.371" fill="#7bdaac" rx="6.016" ry="8.237" transform="matrix(.71018538 -.70401472 .70401472 .71018538 2.807 125.56)"/><path d="M156.114 67.58a10.435 10.435 0 0 1-7.19-3.269c-3.586-3.618-4.268-8.777-1.52-11.5a6.275 6.275 0 0 1 5.582-1.558 11.5 11.5 0 0 1 9.032 9.111 6.282 6.282 0 0 1-1.608 5.567 5.975 5.975 0 0 1-4.296 1.649zm-4.409-14.432a4.007 4.007 0 0 0-2.893 1.083c-1.964 1.947-1.277 5.837 1.533 8.672s6.693 3.554 8.657 1.608a4.343 4.343 0 0 0 1.038-3.848 8.915 8.915 0 0 0-2.571-4.823 8.914 8.914 0 0 0-4.8-2.613 6.109 6.109 0 0 0-.964-.079z" fill="#112c41"/><ellipse cx="22.368" cy="58.165" fill="#7bdaac" rx="6.016" ry="8.237" transform="matrix(.71018538 -.70401472 .70401472 .71018538 -34.467 32.605)"/><path d="M24.575 66.374a10.433 10.433 0 0 1-7.19-3.269c-3.585-3.617-4.267-8.776-1.521-11.5a6.274 6.274 0 0 1 5.582-1.558 10.912 10.912 0 0 1 5.9 3.179 10.927 10.927 0 0 1 3.127 5.932 6.278 6.278 0 0 1-1.607 5.567 5.975 5.975 0 0 1-4.291 1.649zm-4.409-14.432a4.005 4.005 0 0 0-2.893 1.083C15.309 54.972 16 58.863 18.806 61.7s6.693 3.553 8.657 1.608a4.343 4.343 0 0 0 1.037-3.851 8.912 8.912 0 0 0-2.571-4.823 8.914 8.914 0 0 0-4.8-2.613 6.119 6.119 0 0 0-.963-.079z" fill="#112c41"/></svg></g><g transform="translate(717.0 1528.0) rotate(-22.20933422943258 87.0 -54.5) scale(0.9799669965137956 -0.9753216771953686)"><svg width="177.557" height="111.758" viewBox="0 0 177.557 111.758"><path d="M176.039 63.985a1.557 1.557 0 0 0 .183-2.124c-26.27-33.189-58.579-38.073-79.789-40.385-22.26-2.426-33.867-8.006-44.79-19.959a1.55 1.55 0 0 0-2.265-.049c-6.924 7.167-42.5 44.659-47.955 50.408a1.541 1.541 0 0 0-.272 1.724c2.017 4.288 11.615 21.388 39 28.306 31.1 7.855 49.117-2.336 81.9 28.421a1.551 1.551 0 0 0 2.1.033c6.836-6.175 44.949-40.179 51.888-46.375z" fill="#ddfeee"/><path d="M123.123 111.763a2.564 2.564 0 0 1-1.758-.7c-22.743-21.339-38.25-22.745-56.2-24.374-7.813-.709-15.892-1.442-25.254-3.806C12.434 75.939 2.6 59.043.246 54.03A2.535 2.535 0 0 1 .7 51.188C7.505 44.012 41.814 7.859 48.659.774A2.52 2.52 0 0 1 50.516 0a2.583 2.583 0 0 1 1.865.842C63.491 13 75.047 18.139 96.542 20.482c18.437 2.011 52.756 5.752 80.464 40.758a2.557 2.557 0 0 1-.3 3.491l-.359.32c-28.89 25.78-47.188 42.136-51.525 46.055a2.521 2.521 0 0 1-1.699.657zM50.48 2a.52.52 0 0 0-.383.162C43.258 9.242 8.955 45.39 2.148 52.565a.539.539 0 0 0-.092.613C4.319 57.991 13.775 74.215 40.4 80.94c9.209 2.326 17.209 3.052 24.944 3.754 18.324 1.662 34.149 3.1 57.393 24.907a.55.55 0 0 0 .748.021c4.338-3.922 22.641-20.281 51.533-46.063l.359-.32a.555.555 0 0 0 .064-.758c-27.191-34.35-60.969-38.032-79.116-40.011C74.556 20.1 62.246 14.6 50.9 2.192A.566.566 0 0 0 50.487 2z" fill="#112c41"/><ellipse cx="90.356" cy="54.439" fill="#7bdaac" rx="16.596" ry="22.723" transform="matrix(.2369738 -.97151604 .97151604 .2369738 16.056 129.321)"/><path d="M93.578 72.436a31.262 31.262 0 0 1-7.391-.9A28.354 28.354 0 0 1 71.2 62.677c-3.638-4.313-5.02-9.235-3.892-13.86 2.3-9.427 14.507-14.572 27.217-11.473a28.364 28.364 0 0 1 14.987 8.856c3.638 4.313 5.02 9.235 3.892 13.86-1.846 7.567-10.077 12.376-19.826 12.376zm-6.494-34c-8.821 0-16.209 4.2-17.832 10.856-.973 3.988.262 8.284 3.478 12.1a26.332 26.332 0 0 0 13.93 8.2c11.64 2.837 22.763-1.648 24.8-10 .973-3.989-.262-8.285-3.478-12.1a26.332 26.332 0 0 0-13.931-8.2 29.484 29.484 0 0 0-6.967-.856z" fill="#112c41"/><ellipse cx="153.907" cy="59.371" fill="#7bdaac" rx="6.016" ry="8.237" transform="matrix(.71018538 -.70401472 .70401472 .71018538 2.807 125.56)"/><path d="M156.114 67.58a10.435 10.435 0 0 1-7.19-3.269c-3.586-3.618-4.268-8.777-1.52-11.5a6.275 6.275 0 0 1 5.582-1.558 11.5 11.5 0 0 1 9.032 9.111 6.282 6.282 0 0 1-1.608 5.567 5.975 5.975 0 0 1-4.296 1.649zm-4.409-14.432a4.007 4.007 0 0 0-2.893 1.083c-1.964 1.947-1.277 5.837 1.533 8.672s6.693 3.554 8.657 1.608a4.343 4.343 0 0 0 1.038-3.848 8.915 8.915 0 0 0-2.571-4.823 8.914 8.914 0 0 0-4.8-2.613 6.109 6.109 0 0 0-.964-.079z" fill="#112c41"/><ellipse cx="22.368" cy="58.165" fill="#7bdaac" rx="6.016" ry="8.237" transform="matrix(.71018538 -.70401472 .70401472 .71018538 -34.467 32.605)"/><path d="M24.575 66.374a10.433 10.433 0 0 1-7.19-3.269c-3.585-3.617-4.267-8.776-1.521-11.5a6.274 6.274 0 0 1 5.582-1.558 10.912 10.912 0 0 1 5.9 3.179 10.927 10.927 0 0 1 3.127 5.932 6.278 6.278 0 0 1-1.607 5.567 5.975 5.975 0 0 1-4.291 1.649zm-4.409-14.432a4.005 4.005 0 0 0-2.893 1.083C15.309 54.972 16 58.863 18.806 61.7s6.693 3.553 8.657 1.608a4.343 4.343 0 0 0 1.037-3.851 8.912 8.912 0 0 0-2.571-4.823 8.914 8.914 0 0 0-4.8-2.613 6.119 6.119 0 0 0-.963-.079z" fill="#112c41"/></svg></g><g transform="translate(1437.0 162.0) rotate(-64.88171166673789 -71.5 96.0) scale(-0.9814081491191347 0.9878372538124344)"><svg width="145.709" height="194.364" viewBox="0 0 145.709 194.364"><path d="M24.149 193.364s35.474-10.756 75.146-12.591c0 0-3.013-32.132 9.429-80.055a343.157 343.157 0 0 1 7.407-24.632c6.647-19.447 15.811-40.689 28.433-62.892a1.105 1.105 0 0 0-.519-1.562L119.294 1 1 180.2c13.726 6.207 23.149 13.164 23.149 13.164z" fill="#7cdaac"/><path d="M24.149 194.364c-.211 0-.42-.067-.594-.195-.094-.069-9.507-6.972-22.968-13.058a1.002 1.002 0 0 1-.423-1.462L118.458.449a.999.999 0 0 1 1.229-.368l24.751 10.632c.548.235.971.694 1.16 1.26a2.11 2.11 0 0 1-.166 1.715c-11.511 20.249-21.052 41.352-28.356 62.721a344.881 344.881 0 0 0-7.385 24.561c-12.248 47.176-9.431 79.391-9.4 79.711a1.004 1.004 0 0 1-.95 1.092c-39.083 1.809-74.549 12.442-74.902 12.55a1.058 1.058 0 0 1-.29.041zM2.477 179.777c11.534 5.333 19.952 11.136 21.858 12.49 4.332-1.264 37.418-10.611 73.889-12.443-.374-5.927-1.579-36.562 9.532-79.356a345.655 345.655 0 0 1 7.428-24.705c7.346-21.487 16.937-42.705 28.511-63.063l.35-1.067-.395.919-23.982-10.303z" fill="#112c41"/><path d="M1 180.2c35.679-13.136 70.571-15.583 70.571-15.583 2.482-27.262 7.573-52.528 13.537-74.654a474.718 474.718 0 0 1 7.309-24.478C105.447 25.76 119.294 1 119.294 1 93.817 3.021 65.892 13.203 60.793 15.138a2.2 2.2 0 0 0-1.222 1.09c-10.026 19.689-20.738 45.766-30.27 71.724-.191.527-.395 1.06-.582 1.578a1164.946 1164.946 0 0 0-7.812 22.104c-.178.522-.356 1.044-.529 1.557C10.822 141.332 3.501 166.685 1 180.2z" fill="#ddfeee"/><path d="M1 181.2a1.002 1.002 0 0 1-.984-1.181c2.502-13.52 9.94-39.25 19.414-67.15l.53-1.558a1172.7 1172.7 0 0 1 7.819-22.124l.581-1.576c7.388-20.117 18.643-48.906 30.318-71.838a3.228 3.228 0 0 1 1.772-1.575C65.745 12.19 93.52 2.041 119.214.003c.357-.026.722.146.921.457s.211.706.031 1.028c-.139.247-13.954 25.145-26.799 64.308a473.427 473.427 0 0 0-7.294 24.428c-6.738 24.999-11.283 50.06-13.507 74.484a1 1 0 0 1-.926.906c-.348.024-35.169 2.591-70.296 15.524A.972.972 0 0 1 1 181.2zM117.535 2.156C92.637 4.492 66.283 14.124 61.147 16.072c-.306.111-.538.32-.686.609-11.63 22.843-22.854 51.553-30.221 71.615l-.58 1.572a1179.409 1179.409 0 0 0-7.807 22.089l-.528 1.554c-9.056 26.669-16.241 51.321-19.009 65.146 31.771-11.412 62.857-14.496 68.336-14.969 2.262-24.274 6.799-49.16 13.49-73.986a478.058 478.058 0 0 1 7.325-24.529c11.036-33.648 22.799-56.839 26.068-63.017z" fill="#112c41"/><ellipse cx="58.592" cy="147.556" fill="#7cdaac" rx="8.845" ry="5.503" transform="matrix(.1817 -.9834 .9834 .1817 -97.1525 178.3678)"/><path d="M57.632 157.384c-.281 0-.562-.025-.842-.077-3.625-.669-5.674-5.478-4.664-10.945 1.012-5.47 4.651-9.222 8.267-8.558 3.625.671 5.673 5.479 4.664 10.945-.466 2.518-1.524 4.785-2.983 6.386-1.341 1.471-2.892 2.249-4.442 2.249zm1.926-17.514c-2.239 0-4.606 2.996-5.324 6.88-.765 4.144.584 8.014 2.945 8.449 1.072.203 2.245-.338 3.312-1.509 1.192-1.308 2.065-3.201 2.459-5.33.765-4.144-.584-8.013-2.946-8.449a2.475 2.475 0 0 0-.446-.041zm4.445 8.685h.01z" fill="#112c41"/><ellipse cx="64.965" cy="29.232" fill="#7cdaac" rx="8.845" ry="5.503" transform="matrix(.4876 -.8731 .8731 .4876 7.7692 71.7)"/><path d="M62.479 38.486a4.758 4.758 0 0 1-2.349-.596c-3.219-1.799-3.616-7.009-.905-11.863 2.712-4.855 7.36-7.25 10.575-5.453 3.218 1.797 3.616 7.008.905 11.863-2.101 3.763-5.365 6.049-8.226 6.049zm4.97-16.365c-2.053 0-4.683 1.96-6.353 4.95-2.055 3.679-2.019 7.775.079 8.947 2.098 1.173 5.604-.946 7.659-4.627 2.054-3.679 2.018-7.776-.079-8.947a2.656 2.656 0 0 0-1.306-.323zm2.321 9.793h.01z" fill="#112c41"/><path d="M108.724 100.718a343.157 343.157 0 0 1 7.407-24.632L92.417 65.484a474.718 474.718 0 0 0-7.309 24.478z" fill="#fff"/><path d="M108.724 101.718a.993.993 0 0 1-.414-.09L84.694 90.873a1.002 1.002 0 0 1-.552-1.171 478.058 478.058 0 0 1 7.325-24.529.999.999 0 0 1 1.358-.602l23.713 10.601a1 1 0 0 1 .538 1.236 344.881 344.881 0 0 0-7.385 24.561.998.998 0 0 1-.967.749zm-22.43-12.314 21.763 9.911a345.635 345.635 0 0 1 6.833-22.689l-21.867-9.775a475.522 475.522 0 0 0-6.729 22.553z" fill="#112c41"/><path d="M70.635 91.989c-4.374 12.294-15.311 24.548-24.632 22.563-9.307-1.982-9.089-16.014-4.663-28.289 5.003-13.874 16.096-24.421 24.34-22.021 7.532 2.193 9.714 14.37 4.955 27.747z" fill="#7cdaac"/><path d="M47.994 115.759c-.741 0-1.475-.074-2.199-.229-2.826-.602-4.989-2.222-6.432-4.814-3.535-6.357-1.782-16.975 1.036-24.792 5.322-14.758 17.033-25.122 25.561-22.642 2.605.758 4.733 2.628 6.154 5.406 2.907 5.684 2.707 14.52-.537 23.636-4.243 11.924-14.372 23.435-23.583 23.435zm15.282-50.851c-7.236 0-16.555 9.378-20.996 21.693-3.405 9.447-3.854 18.314-1.169 23.143 1.148 2.065 2.864 3.354 5.1 3.829 8.581 1.846 19.271-10.082 23.481-21.919 3.018-8.479 3.263-16.931.642-22.055-1.181-2.309-2.841-3.788-4.933-4.397a7.6 7.6 0 0 0-2.125-.294z" fill="#112c41"/><path d="m20.907 111.633 64.201-21.671a474.718 474.718 0 0 1 7.309-24.478L29.301 87.951c-.191.527-.395 1.06-.582 1.578a1176.99 1176.99 0 0 0-7.812 22.104z" fill="#fff"/><path d="M20.907 112.633a1 1 0 0 1-.946-1.324 1177.368 1177.368 0 0 1 7.819-22.122l.581-1.576c.103-.281.324-.501.605-.602l63.116-22.467a1 1 0 0 1 1.285 1.254 473.427 473.427 0 0 0-7.294 24.428 1 1 0 0 1-.646.687l-64.201 21.67a1.03 1.03 0 0 1-.319.052zm9.171-23.896-.418 1.132a1159.81 1159.81 0 0 0-7.146 20.167l61.769-20.849a477.13 477.13 0 0 1 6.555-22.078z" fill="#112c41"/><path d="M84.533 169.95c.463-13.525 2.349-26.814 3.684-33.701" fill="#7cdaac"/><g fill="#112c41"><path d="m84.535 170.95-.035-.001a1 1 0 0 1-.965-1.033c.451-13.226 2.275-26.504 3.701-33.857a1 1 0 1 1 1.963.381c-1.411 7.281-3.218 20.436-3.666 33.545a.999.999 0 0 1-.998.965z"/><path d="M99.024 181.621a.994.994 0 0 1-.656-.246c-.123-.106-12.422-10.719-27.127-15.812a1 1 0 0 1 .654-1.89c15.081 5.225 27.66 16.086 27.785 16.195a.998.998 0 0 1-.656 1.753z"/></g></svg></g><g transform="translate(685.0 528.0) rotate(-8.074251342543521 129.5 111.5) scale(0.9698594639934994 0.9674956180691738)"><svg width="267.049" height="230.492" viewBox="0 0 267.049 230.492"><circle cx="237.478" cy="84.689" fill="#ffd6c0" r="28.57"/><path d="M239.064 113.215a28.569 28.569 0 0 0 26.984-28.6 28.572 28.572 0 0 1-55.55-7.7q-.039-.765-.039-1.522a28.59 28.59 0 0 0 28.6 37.824z" fill="#f5b9ab"/><path d="M237.491 114.259a29.664 29.664 0 0 1-20.626-8.37 1 1 0 1 1 1.394-1.433 27.679 27.679 0 0 0 20.747 7.761 27.57 27.57 0 1 0-29.093-28.088 1.016 1.016 0 0 1-1.019.98 1 1 0 0 1-.981-1.019A29.571 29.571 0 0 1 267 83.051a29.57 29.57 0 0 1-27.887 31.162q-.813.045-1.622.046z" fill="#112c41"/><path d="M224.133 93.791a1 1 0 0 1-.927-.622 18.121 18.121 0 0 1 9.616-23.718 17.634 17.634 0 0 1 15.378 1.024 1 1 0 1 1-.98 1.744 15.659 15.659 0 0 0-13.642-.917 16.121 16.121 0 0 0-8.519 21.111 1 1 0 0 1-.925 1.378z" fill="#112c41"/><circle cx="139.02" cy="126.977" fill="#ffd6c0" r="102.5"/><path d="M85.849 39.346c.3-.179.6-.341.893-.517l12.185 7.207C53.322 73.888 37.991 130.909 65.3 175.917c27.359 45.089 87.153 61.047 132.952 33.258A98.411 98.411 0 0 0 210.98 200 102.511 102.511 0 1 1 85.849 39.346z" fill="#f5b9ab"/><g fill="#112c41"><path d="M139.19 230.453a103.539 103.539 0 0 1-88.656-49.786A103.5 103.5 0 1 1 227.505 73.288a103.464 103.464 0 0 1-88.315 157.165zM52.244 179.63a101.5 101.5 0 1 0-11.815-76.782 101.619 101.619 0 0 0 11.815 76.782z"/><ellipse cx="119.578" cy="114.282" rx="6.828" ry="9.104" transform="matrix(.88298037 -.46940992 .46940992 .88298037 -39.653 69.506)"/><ellipse cx="98.237" cy="84.337" rx="14.13" ry="9.336" transform="matrix(.77004578 -.63798863 .63798863 .77004578 -31.216 82.068)"/><ellipse cx="184.169" cy="56.381" rx="8.6" ry="13.016" transform="matrix(.05862688 -.99827997 .99827997 .05862688 117.086 236.927)"/><path d="M183.505 49.762c.348 0 .7.01 1.051.031 5.961.35 10.82 3.663 10.61 7.234-.193 3.294-4.829 5.973-10.334 5.973-.348 0-.7-.011-1.051-.031-5.961-.35-10.819-3.663-10.61-7.235.194-3.293 4.83-5.973 10.334-5.973m0-2c-6.653 0-12.067 3.374-12.331 7.856-.278 4.741 5.314 8.927 12.49 9.348q.589.035 1.168.035c6.653 0 12.068-3.375 12.331-7.857.278-4.741-5.314-8.926-12.49-9.348q-.589-.034-1.168-.034z"/><ellipse cx="184.703" cy="89.853" rx="6.828" ry="9.104" transform="matrix(.95494228 -.29679159 .29679159 .95494228 -18.346 58.868)"/><path d="M141.387 123.839c5.779 11.079 16.366 17.191 25.211 13.944s12.962-14.758 10.2-26.944z"/><path d="M161.66 139.651c-7.878 0-16.176-5.8-21.16-15.349a1 1 0 0 1 .542-1.4l35.411-13a1 1 0 0 1 1.32.718c2.925 12.906-1.629 24.726-10.831 28.1a15.248 15.248 0 0 1-5.282.931zm-18.843-15.272c5.736 10.175 15.449 15.4 23.436 12.465s12.014-13.2 9.8-24.668z"/></g><path d="M172.664 132.8c-4.282-2.943-10.72-2.981-16.217.355a17.715 17.715 0 0 0-3.694 2.974c4.5 2.555 9.392 3.293 13.845 1.658a14.687 14.687 0 0 0 6.438-4.719q-.183-.142-.372-.268z" fill="#ffa6e0"/><path d="M161.67 139.646a19.1 19.1 0 0 1-9.411-2.652 1 1 0 0 1-.233-1.556 18.713 18.713 0 0 1 3.9-3.141c5.647-3.429 12.6-3.557 17.3-.325q.207.142.406.291a1 1 0 0 1 .181 1.424 15.609 15.609 0 0 1-6.875 5.033 15.212 15.212 0 0 1-5.268.926zm-7.235-3.765a15.02 15.02 0 0 0 11.818.963 13.436 13.436 0 0 0 5.294-3.577c-4.05-2.423-9.816-2.153-14.582.739a16.928 16.928 0 0 0-2.53 1.875z" fill="#112c41"/><circle cx="31.504" cy="164.725" fill="#ffd6c0" r="30.5"/><path d="M61.661 169.937a33.288 33.288 0 0 1-4.42 6.2c-11.072 12.7-30.711 13.559-43.4 2.494-8.341-7.256-11.164-17.571-9.412-27.709-6.351 12.195-4.408 27.109 6.423 36.553a30.493 30.493 0 0 0 43.033-2.945c3.806-4.362 6.864-9.263 7.776-14.593z" fill="#f5b9ab"/><path d="M31.562 196.238a31.7 31.7 0 0 1-7.546-.916 31.5 31.5 0 0 1-8.852-57.522 31.614 31.614 0 0 1 41.959 8.6 1 1 0 1 1-1.628 1.162 29.609 29.609 0 0 0-39.295-8.057 29.5 29.5 0 1 0 30.605 50.441A31.465 31.465 0 0 0 60.68 169.74a1 1 0 1 1 1.961.395 33.52 33.52 0 0 1-14.8 21.52 31.312 31.312 0 0 1-16.279 4.583z" fill="#112c41"/><path d="M14.894 164.787a1 1 0 0 1-.98-1.2 18.756 18.756 0 0 1 9.908-13.061 19.278 19.278 0 0 1 25.753 8.834 1 1 0 1 1-1.785.9 17.275 17.275 0 0 0-23.065-7.951 16.765 16.765 0 0 0-8.852 11.68 1 1 0 0 1-.979.798z" fill="#112c41"/><path d="M30.5 124.339c15.441-22.283 39.375-43.273 69.326-58.78A213.343 213.343 0 0 1 138.318 50.1a64.028 64.028 0 0 0-14.207-23.569c.149.073.307.141.448.219a75.854 75.854 0 0 1 25.665 20.3c2.48-.558 4.944-1.047 7.4-1.494 18.033-3.245 35.258-3.521 50.535-.918a1.861 1.861 0 0 0 1.884-2.851 89.532 89.532 0 0 0-21.923-22.749C157.148-3.4 112.834-5.685 76.132 16.585a108.767 108.767 0 0 0-17.117 12.831C32.039 54.182 20.3 90.489 27.853 123.815a1.477 1.477 0 0 0 2.647.524z" fill="#fcaa51"/><path d="M30.5 124.339a155.947 155.947 0 0 1 13.334-16.618c-6.51-29.679 4.019-61.928 28.015-83.951A98.052 98.052 0 0 1 99.505 5.948a109.1 109.1 0 0 0-40.49 23.468C32.039 54.182 20.3 90.489 27.853 123.815a1.477 1.477 0 0 0 2.647.524z" fill="#ff9522"/><path d="M29.245 125.8a2.424 2.424 0 0 1-.479-.048 2.672 2.672 0 0 1-2.007-2.258C19.545 89.51 31.647 53.18 58.341 28.681A109.929 109.929 0 0 1 75.613 15.73 106.707 106.707 0 0 1 134.305.048a97.23 97.23 0 0 1 54.4 18.18 89.87 89.87 0 0 1 22.069 22.854 2.9 2.9 0 0 1 .193 3.25 3.1 3.1 0 0 1-3.152 1.264c-17.291-2.923-37.131-2.082-57.374 2.428a1.007 1.007 0 0 1-.987-.337 76.831 76.831 0 0 0-21.112-17.866 66.794 66.794 0 0 1 10.918 19.951 1 1 0 0 1-.666 1.287 212.549 212.549 0 0 0-38.307 15.386C71.879 81.151 47.5 101.756 31.63 124.464a2.97 2.97 0 0 1-2.385 1.336zm29.773-96.38.676.736c-26.176 24.021-38.046 59.627-30.979 92.92.042.2.169.657.449.714a.933.933 0 0 0 .826-.471c16.048-22.97 40.687-43.8 69.378-58.649a214.69 214.69 0 0 1 37.651-15.233 62.881 62.881 0 0 0-13.629-22.21 1 1 0 0 1 1.137-1.6A76.628 76.628 0 0 1 150.6 45.94c20.288-4.451 40.174-5.253 57.548-2.316a1.133 1.133 0 0 0 1.14-.378 1 1 0 0 0-.176-1.053 87.9 87.9 0 0 0-21.58-22.346 95.239 95.239 0 0 0-53.288-17.8 104.741 104.741 0 0 0-57.593 15.392 107.985 107.985 0 0 0-16.957 12.715zM198.6 115.551a22.539 22.539 0 0 1-4.937-.57 31.953 31.953 0 0 1-16.637-10.364 31.95 31.95 0 0 1-8.089-17.853c-.565-6.307 1.333-11.715 5.343-15.229s9.62-4.686 15.8-3.3a33.805 33.805 0 0 1 24.72 28.221c.565 6.307-1.333 11.716-5.343 15.229a16.152 16.152 0 0 1-10.857 3.866zm-13.449-45.922a14.242 14.242 0 0 0-9.584 3.379c-3.527 3.089-5.19 7.914-4.682 13.582a30 30 0 0 0 7.611 16.738 30 30 0 0 0 15.594 9.744c5.552 1.248 10.553.232 14.08-2.859 3.527-3.09 5.19-7.914 4.682-13.582a31.856 31.856 0 0 0-23.205-26.483 20.582 20.582 0 0 0-4.496-.519zm-68.7 78.582c-11.468 0-21.021-11.958-21.384-26.9a31.874 31.874 0 0 1 5.626-19.422c3.866-5.34 9.131-8.357 14.826-8.5 5.7-.16 11.1 2.617 15.221 7.764a31.876 31.876 0 0 1 6.564 19.125c.367 15.11-8.807 27.635-20.452 27.918a3.85 3.85 0 0 1-.401.015zm-.524-52.765h-.356c-5.039.123-9.732 2.839-13.214 7.647a29.818 29.818 0 0 0-5.236 18.168c.336 13.823 8.973 24.894 19.33 24.894h.353c10.513-.257 18.79-11.838 18.45-25.816a29.817 29.817 0 0 0-6.114-17.893c-3.625-4.524-8.305-7-13.215-7z" fill="#112c41"/><path d="M134.849 112.312a1 1 0 0 1-.822-1.567c7.29-10.57 23.564-19.278 39.367-14.593a1 1 0 0 1-.569 1.918c-14.357-4.256-30.165 3.681-37.152 13.81a1 1 0 0 1-.824.432zm-89.044 25.803a1 1 0 0 1-.728-1.686c10.54-11.19 32.406-18.714 50.861-17.5a1 1 0 0 1 .932 1.063 1.016 1.016 0 0 1-1.063.933c-20.417-1.354-40.625 7.694-49.274 16.878a1 1 0 0 1-.728.312zm162.324-55.631a1 1 0 0 1-.807-1.589c3.746-5.139 12.54-9.978 18.121-9.978h.036a1 1 0 0 1 0 2 .2.2 0 0 1-.035 0c-4.965 0-13.127 4.526-16.5 9.156a1 1 0 0 1-.815.411z" fill="#112c41"/></svg></g><g transform="translate(755.0 350.0) rotate(0.0 291.0 393.5) scale(0.9852083326280008 0.9862254258188052)"><svg width="590.738" height="797.992" viewBox="0 0 590.738 797.992"><path d="M561.01 179.513c4.205 30.567-7.038 168.469-186.26 258.204C404.844 506.9 379.87 605 302 636.135c-44.236 18.517-62.188 15.74-104.285 11.959-38.736-3.479-84.327-33.813-121.107-94.815-9.25-63.55 15.237-106.736 17.585-111.44l3.118-4.251c2.812-2.824 5.585-5.166 8.356-7.811 9.538-9.086 18.321-17.358 26.149-23.989 9.68-8.197 20.935-15.74 33.075-23.619a522.306 522.306 0 0 1 14.285-8.956 539.156 539.156 0 0 1 4.758-2.858c33.683-20.049 72.511-37.693 106.957-55.684 41.003-21.404 74.652-44.959 90.369-62.548 34.735-38.882 35.701-72.701 40.646-91.355 5.99-22.593 136.355-1.24 139.104 18.745z" fill="#fff"/><path d="M553.321 241.844c-14.751 60.318-62.027 145.755-178.228 198.163-7.265-10.378-14.358-17.718-19.157-22.151 107-25.912 185.641-121.114 197.385-176.012z" fill="#dedffe"/><g fill="#112c41"><path d="M247.044 653.255c-1.578 0-3.261-.28-4.905-.554-1.909-.318-3.712-.614-5.171-.467-35.99 3.767-64.474-3.176-92.337-22.5-21.3-14.771-38.248-36.064-60.448-75.944a.989.989 0 0 1-.115-.342c-.562-3.853-4.179-4.541-8.01-5.271-3.938-.75-8.404-1.601-8.379-6.609.129-26.256 5.018-75.543 36.313-110.641 7.872-8.828 17.083-16.588 24.484-22.823l2.606-2.2c9.061-7.673 19.708-14.574 30.981-21.882l2.506-1.624c28.552-18.562 62.447-35.816 95.227-52.502 10.636-5.413 20.682-10.527 30.614-15.713 41.153-21.481 73.669-43.778 89.209-61.174 28.694-32.117 34.795-61.741 38.832-81.343.848-4.115 1.579-7.668 2.421-10.844 2.88-10.859 28.974-11.588 44.266-11.057 38.441 1.337 94.061 13.614 97.316 30.572 1.972 10.267.995 27.091-2.613 45.006-3.23 16.037-10.21 41.149-25.12 69.715-22.678 43.448-68.649 103.761-158.972 144.762.291.653.577 1.287.86 1.913 2.425 5.373 4.716 10.447 7.67 23.519 11.195 49.547-2.164 85.488-6.525 95.324-16.525 37.273-34.062 59.659-89.021 86.071-5.752 2.766-11.227 1.934-16.521 1.131-4.111-.624-7.996-1.214-11.878-.149-1.921.526-3.518 1.533-5.209 2.6-1.882 1.188-3.828 2.414-6.204 2.865-.602.114-1.231.161-1.877.161zm-9.25-3.06c1.475 0 3.096.27 4.673.532 2.147.358 4.368.729 6.081.401 2.003-.38 3.707-1.454 5.511-2.592 1.74-1.098 3.539-2.232 5.747-2.838 4.292-1.173 8.568-.525 12.706.102 5.224.793 10.157 1.541 15.354-.956 54.396-26.141 71.737-48.263 88.061-85.079 4.298-9.693 17.463-45.125 6.402-94.072-2.909-12.874-5.056-17.63-7.542-23.137-.414-.917-.835-1.85-1.268-2.839a1 1 0 0 1 .505-1.312c90.395-40.772 136.317-100.961 158.924-144.273 26.27-50.329 30.835-96.277 27.542-113.418-2.744-14.294-54.445-27.525-95.421-28.95-24.66-.863-40.447 2.721-42.263 9.569-.828 3.122-1.554 6.65-2.396 10.735-4.08 19.812-10.246 49.753-39.299 82.271-15.695 17.568-48.417 40.026-89.775 61.615-9.942 5.19-19.992 10.306-30.632 15.722-32.733 16.662-66.581 33.892-95.046 52.396l-2.507 1.626c-11.218 7.271-21.813 14.139-30.776 21.729l-2.611 2.204c-7.353 6.194-16.503 13.904-24.28 22.625-30.857 34.606-35.679 83.346-35.806 109.319-.016 3.184 2.556 3.836 6.754 4.636 3.895.741 8.73 1.663 9.584 6.76 21.996 39.49 38.756 60.556 59.755 75.119 27.439 19.031 55.5 25.861 90.989 22.154.335-.033.68-.049 1.034-.049z"/><path d="M553.291 181.746c-.294 1.892-3.211 3.261-8.124 4.094-.048.018-.092.022-.145.032-11.021 1.845-31.846 1.056-55.393-2.55-23.29-3.554-43.223-8.963-53.283-13.972a.272.272 0 0 1-.079-.033c-4.684-2.337-7.208-4.594-6.91-6.535.282-1.837 3.048-3.183 7.708-4.023.098-.014.19-.036.301-.046 10.934-1.909 31.915-1.135 55.644 2.499 23.342 3.581 43.328 8.98 53.371 14 .057.035.118.056.175.091 4.573 2.311 7.027 4.529 6.735 6.443z"/><path d="M530.376 187.83c-11.388.001-25.815-1.21-40.898-3.521-22.455-3.426-42.925-8.792-53.475-14.015l-.04-.009-.211-.112c-5.317-2.649-7.755-5.13-7.383-7.545.352-2.296 3.138-3.885 8.519-4.855l.112-.019c.088-.016.178-.03.279-.039 11.348-1.984 32.795-1.029 55.883 2.507 22.669 3.478 43.232 8.879 53.666 14.095.131.065.193.098.255.136 5.181 2.614 7.56 5.063 7.196 7.443v.004c-.366 2.347-3.271 3.954-8.879 4.914-.076.021-.14.031-.18.038-3.924.658-8.982.978-14.844.978zm-93.71-19.433.126.057c10.347 5.152 30.65 10.471 52.987 13.879 22.654 3.469 43.76 4.449 55.077 2.553h.005l.139-.032c6.475-1.098 7.227-2.773 7.303-3.262.074-.498-.161-2.346-6.198-5.396l-.233-.123c-10.198-5.096-30.535-10.425-53.012-13.873-22.889-3.505-44.088-4.465-55.321-2.502l-.334.051c-6.076 1.098-6.786 2.715-6.858 3.185-.079.502.15 2.377 6.319 5.463zm77.561 91.631c-40.694 0-85.364-18.319-107.164-47.277a1 1 0 0 1 1.597-1.203c28.358 37.669 96.077 57.04 142.081 40.637a1 1 0 0 1 .672 1.884c-11.382 4.058-24.081 5.959-37.186 5.959z"/></g><path d="M580.062 39.591c5.329 1.558 8.466 5.365 9.399 10.91 1.582 9.406-3.598 19.948-15.81 43.259-12.454 23.755-22.177 50.664-25.89 70.92-.293 1.573-.821 5.813-1.38 10.532-.424 3.575-.854 7.424-1.214 10.629-.048.018-.092.022-.145.032-11.021 1.845-31.846 1.056-55.393-2.55-23.29-3.554-43.223-8.963-53.283-13.972.309-3.173.673-7.052 1.02-10.638.472-5.124.872-9.627.905-10.577 1.443-41.225-18.242-61.045-20.053-73.618a4.964 4.964 0 0 1-.068-.582 8.978 8.978 0 0 1-.049-1.478l-.005-.008c.042-1.522.416-2.945 1.217-4.269.132-.223.269-.438.423-.664.116-.155.235-.323.364-.474a5.62 5.62 0 0 1 .254-.311 7.646 7.646 0 0 1 1.017-1.034c8.5-7.462 26.927 1.336 35.655 8.293 0 0 .005.008.019.012.395.331.779.646 1.136.954.012-.019.015-.033.027-.052 8.977-16.76 22.349-42.407 43.31-58.537 35.606-27.42 58.359-12.681 52.827 2.157 16.514-4.964 30.108 5.513 25.717 21.066z" fill="#ffd6c0"/><path d="M530.376 187.83c-11.388.001-25.815-1.21-40.898-3.521-22.528-3.438-43.058-8.826-53.576-14.064a1.002 1.002 0 0 1-.55-.992c.162-1.666.339-3.526.521-5.437l.498-5.201c.571-6.195.875-9.735.901-10.516.985-28.185-7.831-45.951-14.269-58.924-2.9-5.844-5.19-10.459-5.775-14.518a5.698 5.698 0 0 1-.075-.653 9.643 9.643 0 0 1-.055-1.506c-.002-.026-.002-.053-.002-.079.047-1.742.505-3.343 1.361-4.759.137-.233.285-.466.453-.711l.108-.147c.103-.138.208-.279.319-.41.062-.084.156-.198.26-.318a8.593 8.593 0 0 1 1.128-1.143c4.025-3.536 10.495-4.041 18.688-1.45 7.345 2.321 14.203 6.521 18.191 9.69.028.02.057.04.083.063l.191.159.196-.366c8.871-16.581 22.276-41.638 42.832-57.456C511.431 7.47 521.892 2.297 531.16.614c7.921-1.438 14.869-.32 19.568 3.146 4.412 3.256 6.272 8.239 5.092 13.327 8.308-1.993 16.105-.308 21.136 4.64 4.368 4.296 5.916 10.522 4.312 17.202 5.058 1.799 8.223 5.724 9.179 11.405 1.651 9.82-3.685 20.552-15.91 43.889-12.183 23.239-22.065 50.306-25.792 70.637-.32 1.721-.937 6.799-1.371 10.47-.405 3.415-.816 7.082-1.166 10.196l-.047.425a1 1 0 0 1-.633.821c-.133.052-.247.07-.308.08-3.924.658-8.982.978-14.844.978zm14.791-1.99h.01zm-107.758-17.084c10.521 5.058 30.468 10.235 52.37 13.577 22.261 3.409 43.024 4.413 54.478 2.649.342-3.048.739-6.585 1.131-9.889.697-5.877 1.139-9.245 1.391-10.598 3.76-20.512 13.718-47.795 25.987-71.2 12.01-22.924 17.254-33.446 15.709-42.629-.889-5.287-3.813-8.69-8.692-10.116a1 1 0 0 1-.682-1.231c1.806-6.399.547-12.14-3.547-16.166-4.856-4.775-12.679-6.15-20.921-3.674a1.001 1.001 0 0 1-1.225-1.307c1.821-4.885.376-9.671-3.867-12.802-7.564-5.583-24.52-5.844-47.412 11.787-20.215 15.556-33.498 40.385-42.288 56.814l-.751 1.402c-.008.015-.042.081-.051.095a.998.998 0 0 1-.699.473.98.98 0 0 1-.812-.23 68.551 68.551 0 0 0-.7-.59l-.385-.321-.04-.03v.001c-8.015-6.389-26.323-15.39-34.371-8.323a6.576 6.576 0 0 0-.899.91 5.115 5.115 0 0 0-.234.286c-.119.143-.196.249-.272.351l-.091.122c-.114.169-.239.366-.36.57-.676 1.118-1.026 2.327-1.076 3.704.003.04.004.08.001.119a7.85 7.85 0 0 0 .045 1.312c.015.194.027.354.057.506.546 3.787 2.773 8.275 5.594 13.958 6.164 12.422 15.479 31.193 14.476 59.883-.028.841-.317 4.221-.908 10.635l-.499 5.202c-.16 1.651-.313 3.266-.457 4.75z" fill="#112c41"/><path d="M585.191 42.322c2.27 1.979 3.696 4.743 4.27 8.179 1.582 9.406-3.598 19.948-15.81 43.259-12.454 23.755-22.177 50.664-25.89 70.92-.293 1.573-.821 5.813-1.38 10.532-.424 3.575-.854 7.424-1.214 10.629-.048.018-.092.022-.145.032-3.626.609-8.303.931-13.79.955.565-3.179 1.208-6.855 1.834-10.296.908-4.936 1.741-9.367 2.153-11.013 5.251-21.095 17.287-48.832 31.989-73.081 14.43-23.797 20.594-34.575 19.536-44.578-.212-2.061-.731-3.917-1.553-5.538z" fill="#f5b9ab"/><path d="M580.052 39.591c-16.052-2.51-35.609 13.739-49.94 35.148" fill="#ffd6c0"/><path d="M530.111 75.738a1.001 1.001 0 0 1-.83-1.557c19.453-29.062 39.064-37.439 50.925-35.579a1.001 1.001 0 0 1-.309 1.977c-14.146-2.212-33.358 11.416-48.954 34.716a.998.998 0 0 1-.832.443z" fill="#112c41"/><path d="M554.348 18.524c-13.683 4.111-30.066 16.12-41.505 33.813" fill="#ffd6c0"/><path d="M512.842 53.337a1 1 0 0 1-.839-1.543c10.688-16.529 26.803-29.645 42.057-34.228a1 1 0 1 1 .576 1.916c-14.819 4.451-30.512 17.249-40.953 33.397a.999.999 0 0 1-.841.458z" fill="#112c41"/><path d="M499.704 43.443c11.963 5.677 31.89 29.758 38.121 45.473" fill="#ffd6c0"/><path d="M537.825 89.916c-.397 0-.774-.239-.93-.632-6.306-15.902-25.995-39.421-37.62-44.938a1 1 0 1 1 .857-1.807c11.965 5.678 32.178 29.756 38.622 46.008a1 1 0 0 1-.929 1.369z" fill="#112c41"/><path d="M475.654 95.596s-5.407-11.077-17.472-20.645" fill="#ffd6c0"/><path d="M475.654 96.596a.999.999 0 0 1-.899-.561c-.054-.109-5.466-10.999-17.194-20.302a.998.998 0 0 1-.162-1.404.996.996 0 0 1 1.404-.162c12.104 9.599 17.524 20.529 17.749 20.99a1 1 0 0 1-.898 1.439z" fill="#112c41"/><path d="M530.376 187.83c-11.388.001-25.815-1.21-40.898-3.521-22.528-3.438-43.058-8.826-53.576-14.064a1.002 1.002 0 0 1-.55-.992c.162-1.666.339-3.526.521-5.437l.498-5.201c.571-6.195.875-9.735.901-10.516.985-28.185-7.831-45.951-14.269-58.924-2.9-5.844-5.19-10.459-5.775-14.518a5.698 5.698 0 0 1-.075-.653 9.643 9.643 0 0 1-.055-1.506c-.002-.026-.002-.053-.002-.079.047-1.742.505-3.343 1.361-4.759.137-.233.285-.466.453-.711l.108-.147c.103-.138.208-.279.319-.41.062-.084.156-.198.26-.318a8.593 8.593 0 0 1 1.128-1.143c4.025-3.536 10.495-4.041 18.688-1.45 7.345 2.321 14.203 6.521 18.191 9.69.028.02.057.04.083.063l.191.159.196-.366c8.871-16.581 22.276-41.638 42.832-57.456C511.431 7.47 521.892 2.297 531.16.614c7.921-1.438 14.869-.32 19.568 3.146 4.412 3.256 6.272 8.239 5.092 13.327 8.308-1.993 16.105-.308 21.136 4.64 4.368 4.296 5.916 10.522 4.312 17.202 5.058 1.799 8.223 5.724 9.179 11.405 1.651 9.82-3.685 20.552-15.91 43.889-12.183 23.239-22.065 50.306-25.792 70.637-.32 1.721-.937 6.799-1.371 10.47-.405 3.415-.816 7.082-1.166 10.196l-.047.425a1 1 0 0 1-.633.821c-.133.052-.247.07-.308.08-3.924.658-8.982.978-14.844.978zm14.791-1.99h.01zm-107.758-17.084c10.521 5.058 30.468 10.235 52.37 13.577 22.261 3.409 43.024 4.413 54.478 2.649.342-3.048.739-6.585 1.131-9.889.697-5.877 1.139-9.245 1.391-10.598 3.76-20.512 13.718-47.795 25.987-71.2 12.01-22.924 17.254-33.446 15.709-42.629-.889-5.287-3.813-8.69-8.692-10.116a1 1 0 0 1-.682-1.231c1.806-6.399.547-12.14-3.547-16.166-4.856-4.775-12.679-6.15-20.921-3.674a1.001 1.001 0 0 1-1.225-1.307c1.821-4.885.376-9.671-3.867-12.802-7.564-5.583-24.52-5.844-47.412 11.787-20.215 15.556-33.498 40.385-42.288 56.814l-.751 1.402c-.008.015-.042.081-.051.095a.998.998 0 0 1-.699.473.98.98 0 0 1-.812-.23 68.551 68.551 0 0 0-.7-.59l-.385-.321-.04-.03v.001c-8.015-6.389-26.323-15.39-34.371-8.323a6.576 6.576 0 0 0-.899.91 5.115 5.115 0 0 0-.234.286c-.119.143-.196.249-.272.351l-.091.122c-.114.169-.239.366-.36.57-.676 1.118-1.026 2.327-1.076 3.704.003.04.004.08.001.119a7.85 7.85 0 0 0 .045 1.312c.015.194.027.354.057.506.546 3.787 2.773 8.275 5.594 13.958 6.164 12.422 15.479 31.193 14.476 59.883-.028.841-.317 4.221-.908 10.635l-.499 5.202c-.16 1.651-.313 3.266-.457 4.75z" fill="#112c41"/><circle cx="327.497" cy="549.811" fill="#fff" r="6.313"/><path d="M327.501 557.128a7.305 7.305 0 0 1-2.572-.47c-3.774-1.416-5.694-5.64-4.279-9.415 1.416-3.775 5.639-5.699 9.417-4.28a7.269 7.269 0 0 1 4.089 3.822 7.261 7.261 0 0 1 .189 5.594 7.275 7.275 0 0 1-3.821 4.09 7.312 7.312 0 0 1-3.023.659zm-.006-12.634c-.748 0-1.494.16-2.196.479a5.277 5.277 0 0 0-2.776 2.972 5.32 5.32 0 0 0 3.109 6.84 5.274 5.274 0 0 0 4.063-.138 5.277 5.277 0 0 0 2.776-2.972 5.274 5.274 0 0 0-.137-4.063 5.28 5.28 0 0 0-2.972-2.776 5.292 5.292 0 0 0-1.867-.342z" fill="#112c41"/><path d="M356.994 417.55c7.303 5.155 16.754 16.325 22.769 34.798" fill="#fff"/><path d="M379.763 453.348c-.422 0-.813-.269-.951-.69-7.052-21.659-18.01-31.195-22.395-34.29a1.001 1.001 0 0 1 1.155-1.635c4.547 3.211 15.904 13.076 23.143 35.306a1 1 0 0 1-.952 1.309z" fill="#112c41"/><path d="M131.97 405.866C9.994 505.481-37.433 647.946 35.644 734.403c61.818 73.196 150.366 83.665 287.618 23.604 4.384-1.955 14.481-6.43 11.59-21.955-7.38-39.627-21.642-72.453-46.481-109.258-6.93-10.268-15.628-10.605-22.294-7.688-26.876 11.76-75.774 34.507-101.123 20.758-12.964-7.032-19.334-25.779-12.46-38.668" fill="#fff"/><path d="M169.693 797.997c-6.359 0-12.558-.275-18.618-.824-46.434-4.206-84.441-24.527-116.194-62.124C8.469 703.801-3.313 663.694.81 619.063c3.29-35.61 16.797-73.845 39.062-110.569 22.548-37.193 54.176-72.949 91.465-103.402a1 1 0 1 1 1.265 1.549c-37.115 30.312-68.589 65.89-91.021 102.89-22.106 36.467-35.517 74.406-38.778 109.716-4.073 44.085 7.548 83.682 33.605 114.511 31.396 37.176 68.964 57.267 114.848 61.423 47.144 4.276 103.274-8.188 171.605-38.089 4.473-1.995 13.75-6.132 11.007-20.856-7.255-38.955-21.109-71.518-46.327-108.882-7.501-11.117-16.416-9.364-21.063-7.332l-3.965 1.741c-27.473 12.085-73.453 32.316-98.036 18.98-13.639-7.397-19.891-26.846-12.866-40.018a1.002 1.002 0 0 1 1.766.942c-6.545 12.271-.688 30.407 12.054 37.318 23.72 12.863 69.139-7.117 96.278-19.054l3.968-1.742c12.611-5.521 20.65 3.788 23.523 8.045 25.38 37.605 39.327 70.394 46.636 109.635 3.031 16.274-7.604 21.018-12.145 23.042-59.91 26.217-110.528 39.084-153.998 39.086z" fill="#112c41"/><path d="M222.64 402.116c-3.974 16.318-41.57 25.496-53.17 23.527.4 10.554 14.094 35.215-5.051 51.85-15.878 13.795-60.271 15.512-82.381-21.675 6.04-7.45 11.267-13.249 21.441-23.698 10.438-10.721 22.641-20.453 30.469-27.084 9.68-8.197 18.151-12.787 30.291-20.667 4.627-3.012 9.401-6.279 14.285-9.238 19.74 3.927 47.673 12.4 44.116 26.985z" fill="#dedffe"/><path d="M327.751 746.077c-1.702.769-4.273-.799-7.448-4.339-.039-.029-.065-.063-.099-.101-7.103-7.955-20.987-33.376-30.054-54.584-8.979-20.97-14.748-40.239-15.814-51.234a.289.289 0 0 1-.014-.083c-.493-5.122.048-8.439 1.771-9.279 1.629-.795 4.127.71 7.179 4.04.061.072.126.135.191.22 7.11 7.849 17.163 25.387 26.3 46.759 8.984 21.028 18.71 48.336 19.759 59.323.631 4.615.044 8.458-1.771 9.278z" fill="#112c41"/><path d="M326.82 747.274c-1.934 0-4.312-1.592-7.215-4.818-.059-.053-.1-.1-.127-.13-7.066-7.915-20.908-33.037-30.248-54.881-8.655-20.216-14.731-39.895-15.878-51.412l-.017-.048-.014-.251c-.561-5.777.201-9.138 2.333-10.178 2.068-1.003 4.799.387 8.354 4.264l.072.082c.057.062.114.127.173.203 7.39 8.151 17.535 26.176 26.428 46.976 9.05 21.185 18.77 48.466 19.835 59.622.742 5.422-.137 9.282-2.354 10.285a3.209 3.209 0 0 1-1.342.286zm-5.87-6.303.098.099c2.771 3.091 5.121 4.622 6.291 4.097 1.059-.479 1.836-3.526 1.192-8.232-1.051-10.993-10.698-38.024-19.688-59.066-8.811-20.61-18.819-38.42-26.121-46.479l-.211-.244c-3.937-4.293-5.567-3.985-5.979-3.789-.45.22-1.862 1.46-1.22 8.226l.019.141c1.098 11.311 7.129 30.829 15.738 50.938 9.27 21.678 22.953 46.55 29.881 54.309zm-55.89 39.658a.992.992 0 0 1-.506-.138c-18.393-10.808-34.788-36.168-43.859-67.838-8.617-30.087-8.914-58.962-.774-75.357a.999.999 0 1 1 1.791.889c-16.766 33.774 5.026 117.766 43.856 140.582a1 1 0 0 1-.508 1.862z" fill="#112c41"/><ellipse cx="275.629" cy="757.48" fill="#fff" rx="6.726" ry="7.18" transform="matrix(.4845 -.8748 .8748 .4845 -520.5433 631.5543)"/><path d="M276.007 765.313a8.5 8.5 0 0 1-4.121-1.074c-3.946-2.187-5.477-6.997-3.413-10.723 2.063-3.728 6.953-4.981 10.899-2.795 3.946 2.186 5.477 6.996 3.413 10.723-1.376 2.485-4.008 3.869-6.778 3.869zm-.761-13.667c-2.065 0-4.012 1.013-5.023 2.839-1.53 2.762-.35 6.353 2.632 8.004 2.982 1.653 6.65.748 8.181-2.014 1.53-2.763.349-6.353-2.632-8.004a6.525 6.525 0 0 0-3.158-.825z" fill="#112c41"/><path d="M222.933 401.084c-4.856 15.982-45.649 13.127-58.964 12.122 5.766 7.911 24.225 51.818 2.657 65.162-16.846 10.423-53.901-6.641-71.45-38.717 12.49-13.022 24.299-24.912 44.988-40.019 24.84-18.137 36.958-23.698 44.011-28.212 0 .001 44.857 9.593 38.758 29.664z" fill="#fff"/><path d="M154.467 482.409c-3.357 0-6.989-.498-10.791-1.502-19.219-5.072-38.601-21.078-49.377-40.776a1 1 0 0 1 .155-1.172c13.04-13.595 24.643-25.182 45.12-40.134 18.455-13.475 29.902-20.023 37.477-24.356 2.671-1.528 4.78-2.735 6.585-3.89a.988.988 0 0 1 .748-.136c1.231.263 30.235 6.6 38.14 20.01 2.051 3.481 2.512 7.155 1.367 10.922-4.923 16.197-42.765 14.094-57.987 12.979 4.874 8.192 14.619 32.044 11.213 49.438-1.37 6.994-4.723 12.185-9.964 15.428-3.426 2.118-7.762 3.189-12.686 3.189zm-58.06-42.597c10.592 18.945 29.272 34.276 47.778 39.161 8.845 2.335 16.626 1.817 21.914-1.456 4.749-2.938 7.795-7.686 9.054-14.111 3.579-18.272-7.868-43.952-11.992-49.611-.23-.314-.256-.734-.066-1.075s.55-.548.949-.511c35.333 2.666 54.821-1.175 57.933-11.416.988-3.253.604-6.303-1.176-9.323-6.981-11.848-32.917-18.172-36.44-18.982-1.765 1.112-3.792 2.272-6.316 3.717-7.536 4.312-18.925 10.827-37.29 24.236-20.08 14.661-31.582 26.077-44.348 39.371zm126.527-38.728h.01z" fill="#112c41"/><path d="M151.108 427.414c-16.933 12.856-36.756 15.247-44.272 5.356-.507-.662-1.112-1.713-1.478-2.451 8.102-8.997 17.045-15.921 26.422-23.135 9.68-8.197 20.829-16.248 32.968-24.128a13.498 13.498 0 0 1 3.413 3.152c7.508 9.897-.117 28.336-17.053 41.206z" fill="#112c41"/><path d="M216.868 791.361c-21.892 4.497-59.201 7.053-90.191 0-58.125-13.229-97.393-57.716-112.845-94.465-3.236-7.696-26.853-59.346 3.73-138.988-7.59 39.033-9.423 64.671-4.622 94.123 12.849 78.809 81.016 118.883 119.835 130.626 21.848 6.609 63.806 8.716 84.093 8.704z" fill="#dedffe"/><circle cx="292.046" cy="497.671" fill="#fff" r="6.313"/><path d="M292.05 504.988a7.31 7.31 0 0 1-2.572-.47 7.275 7.275 0 0 1-4.09-3.821 7.269 7.269 0 0 1-.189-5.595c1.416-3.774 5.64-5.692 9.415-4.279h.001a7.274 7.274 0 0 1 4.09 3.822 7.269 7.269 0 0 1 .189 5.595 7.269 7.269 0 0 1-3.822 4.089 7.288 7.288 0 0 1-3.022.659zm.003-12.631a5.321 5.321 0 0 0-4.981 3.448 5.27 5.27 0 0 0 .138 4.063 5.277 5.277 0 0 0 2.972 2.776 5.314 5.314 0 0 0 6.702-7.172 5.277 5.277 0 0 0-2.972-2.776 5.3 5.3 0 0 0-1.859-.339z" fill="#112c41"/><circle cx="242.966" cy="457.536" fill="#fff" r="6.313"/><path d="M242.979 464.852a7.352 7.352 0 0 1-1.669-.192 7.264 7.264 0 0 1-4.552-3.258c-2.133-3.422-1.082-7.94 2.34-10.073 3.422-2.132 7.942-1.082 10.074 2.341 2.133 3.423 1.082 7.941-2.34 10.074a7.264 7.264 0 0 1-3.853 1.108zm-.022-12.628c-.959 0-1.929.259-2.801.802a5.319 5.319 0 0 0-1.7 7.318 5.273 5.273 0 0 0 3.307 2.367 5.286 5.286 0 0 0 4.013-.665 5.319 5.319 0 0 0 1.7-7.318v-.001a5.316 5.316 0 0 0-4.519-2.503z" fill="#112c41"/><path d="M329.931 519.245c-.332 0-.656-.165-.847-.466-26.606-42.137-76.649-94.16-163.953-102.709a1 1 0 1 1 .196-1.99c88.108 8.628 138.604 61.117 165.449 103.631a1 1 0 0 1-.845 1.534z" fill="#112c41"/><circle cx="536.177" cy="232.017" fill="#fff" r="6.313"/><path d="M536.188 239.328a7.313 7.313 0 0 1-6.219-3.445c-2.133-3.422-1.082-7.94 2.34-10.073a7.273 7.273 0 0 1 5.522-.916 7.264 7.264 0 0 1 4.552 3.258c2.132 3.422 1.082 7.94-2.34 10.073a7.27 7.27 0 0 1-3.855 1.103zm-.021-12.627a5.319 5.319 0 0 0-4.5 8.124 5.32 5.32 0 0 0 7.319 1.702 5.319 5.319 0 0 0 1.7-7.318v-.001a5.276 5.276 0 0 0-3.307-2.366 5.326 5.326 0 0 0-1.212-.141z" fill="#112c41"/><path d="M153.501 601.451c12.094 20.244 36.631 33.301 73.964 32.425-9.99 3.33-44.256 16.651-64.149 3.856-10.364-6.666-17.001-24.889-9.815-36.281z" fill="#dedffe"/><path d="M276.476 639.309c23.46-12.254 33.976-30.947 39.396-45.551.1-.279.99-2.788 1.073-3.003 1.841-5.337 5.059-22.279 14.22-21.373 5.426.538 9.1 6.36 11.901 16.366 1.98 7.054 4.01 9.886 7.835 11.927 3.762 1.997 11.919 4.259 24.516-15.131 10.301-15.854 17.583-19.877 24.399-16.327 8.591 4.471 7.993 18.038 5.504 26.887 0 0 14.724 10.252 8.452 32.357 10.523 11.006 5.033 30.328-8.896 50.796-19.208 24.569-40.723 43.356-83.447 64.093-17.276-15.527-48.852-86.735-44.953-101.041z" fill="#ffd6c0"/><path d="M397.089 652.347a1 1 0 0 1-.675-1.737c7.281-6.678 13.145-15.816 16.51-25.733a1.001 1.001 0 0 1 1.895.643c-3.472 10.229-9.527 19.664-17.053 26.565a1.005 1.005 0 0 1-.677.262zm-10.217-29.634a1.001 1.001 0 0 1-.57-1.823c4.895-3.39 14.516-16.378 17.862-28.23a.996.996 0 0 1 1.233-.69.997.997 0 0 1 .69 1.233c-3.518 12.458-13.394 25.693-18.647 29.332a.995.995 0 0 1-.568.178z" fill="#112c41"/><path d="M320.163 741.782c-.288 0-.57-.125-.766-.356-18.781-22.33-44.547-83.069-45.157-101.552a.999.999 0 0 1 .488-.893c16.201-9.622 30.389-19.68 39.936-45.4.489-1.361 1.006-3.086 1.554-4.912 2.651-8.842 6.284-20.944 14.775-20.111 5.6.556 9.656 5.986 12.766 17.092 1.848 6.585 3.632 9.334 7.343 11.314 6.702 3.559 14.515-1.416 23.206-14.794 10.093-15.529 18.019-20.67 25.7-16.67 9.308 4.844 8.337 19.168 6.187 27.376 2.783 2.17 14.07 12.406 8.765 32.023 9.618 10.608 6.624 28.618-8.476 50.809-14.979 22-50.298 49.131-85.893 65.979a1.01 1.01 0 0 1-.428.095zm-43.897-101.389c1.097 18.723 25.821 76.828 44.17 99.152 35.067-16.732 69.694-43.371 84.395-64.963 14.713-21.623 17.658-38.926 8.293-48.721a1 1 0 0 1-.239-.965c5.984-21.092-7.791-30.4-8.38-30.786a1.002 1.002 0 0 1-.417-1.108c2.107-7.493 3.425-21.344-5.003-25.729-6.657-3.466-13.565 1.314-23.099 15.986-9.353 14.396-18.042 19.604-25.823 15.469-4.23-2.257-6.331-5.421-8.329-12.539-2.858-10.208-6.365-15.179-11.037-15.642-6.863-.675-10.212 10.52-12.663 18.695-.555 1.853-1.079 3.602-1.59 5.023-9.661 26.026-24.544 36.745-40.278 46.128z" fill="#112c41"/><path d="M397.859 652.046c7.794-4.744 14.421-10.279 19.73-18.638a19.838 19.838 0 0 0-3.351-6.288c-3.351 9.074-8.133 16.906-16.379 24.926zm-10.317-29.632c8.284-5.347 18.525-13.931 22.893-21.763-1.619-2.749-4.007-5.118-4.97-5.798-2.949 9.449-9.94 21.122-17.923 27.561zM311 725.936c35.753-9.779 60.505-22.965 94.474-52.315-14.774 22.323-50.332 49.355-85.038 65.931-3.59-4.35-6.757-9.29-9.436-13.616z" fill="#f5b9ab"/></svg></g><g transform="translate(1185.0 869.0) rotate(-111.63123440073804 -83.0 57.0) scale(-1.0391756707691153 1.0437553217787787)"><svg width="159.742" height="109.221" viewBox="0 0 159.742 109.221"><path d="M127.482 1.488C100.948 31.118 44.243 44.969 2.9 32.935a1.5 1.5 0 0 0-1.875 1.729l13.047 67.516a1.509 1.509 0 0 0 1.089 1.172c51.147 13.642 116.089-2.168 143.275-37.652a1.506 1.506 0 0 0 .167-1.545L129.946 1.877a1.5 1.5 0 0 0-2.464-.389z" fill="#ddfeee"/><path d="M53.93 109.252a151.914 151.914 0 0 1-39.03-4.934 2.523 2.523 0 0 1-1.813-1.948L.046 34.854a2.488 2.488 0 0 1 .774-2.328 2.459 2.459 0 0 1 2.363-.55c19.921 5.8 43.829 5.76 67.319-.111C94.124 25.963 114.1 14.938 126.736.821a2.472 2.472 0 0 1 2.214-.794 2.5 2.5 0 0 1 1.905 1.432l28.656 62.278a2.505 2.505 0 0 1-.282 2.573C138.782 93 96.318 109.251 53.93 109.252zM2.486 33.875a.479.479 0 0 0-.319.125.5.5 0 0 0-.157.471l13.044 67.519a.514.514 0 0 0 .366.4c52.032 13.876 115.834-2.852 142.222-37.294a.506.506 0 0 0 .052-.52L129.038 2.3a.5.5 0 0 0-.387-.289.45.45 0 0 0-.424.149c-12.907 14.407-33.234 25.648-57.24 31.646-23.83 5.954-48.108 5.988-68.363.09a.515.515 0 0 0-.138-.021z" fill="#112c41"/><ellipse cx="80.127" cy="65.747" fill="#7bdaac" rx="22.723" ry="16.596" transform="matrix(.98212664 -.18822131 .18822131 .98212664 -10.943 16.256)"/><path d="M77.448 83.605a26.539 26.539 0 0 1-11.32-2.405c-5.1-2.41-8.4-6.313-9.3-10.988s.73-9.522 4.579-13.648a28.356 28.356 0 0 1 15.409-8.1 28.343 28.343 0 0 1 17.31 1.828c5.1 2.41 8.405 6.313 9.3 10.987S102.7 70.8 98.848 74.93a28.343 28.343 0 0 1-15.409 8.1 31.844 31.844 0 0 1-5.991.575zm5.364-33.716a29.844 29.844 0 0 0-5.62.542 26.337 26.337 0 0 0-14.323 7.5c-3.4 3.647-4.849 7.876-4.077 11.907s3.682 7.427 8.19 9.558a26.367 26.367 0 0 0 16.08 1.671 26.354 26.354 0 0 0 14.323-7.5c3.4-3.648 4.849-7.876 4.077-11.909s-3.682-7.425-8.191-9.556a24.538 24.538 0 0 0-10.459-2.213z" fill="#112c41"/><ellipse cx="139.488" cy="65.84" fill="#7bdaac" rx="8.237" ry="6.016" transform="matrix(.80403331 -.59458425 .59458425 .80403331 -11.812 95.841)"/><path d="M137.288 73.724a5.946 5.946 0 0 1-5.967-8.14 11.5 11.5 0 0 1 10.315-7.628 5.949 5.949 0 0 1 6.019 8.14 11.5 11.5 0 0 1-10.315 7.628zm4.4-13.768h-.04a9.516 9.516 0 0 0-8.418 6.226 4.344 4.344 0 0 0 .439 3.961 4.449 4.449 0 0 0 3.66 1.581 9.516 9.516 0 0 0 8.418-6.226 3.964 3.964 0 0 0-4.059-5.542z" fill="#112c41"/><ellipse cx="21.233" cy="49.497" fill="#7bdaac" rx="6.016" ry="8.237" transform="matrix(.21700188 -.97617118 .97617118 .21700188 -31.692 59.483)"/><path d="M22.334 56.638a12.132 12.132 0 0 1-2.623-.292 10.923 10.923 0 0 1-5.838-3.3 5.949 5.949 0 0 1 2.2-9.881 10.917 10.917 0 0 1 6.685-.516 10.915 10.915 0 0 1 5.838 3.3 5.949 5.949 0 0 1-2.2 9.881 10.158 10.158 0 0 1-4.062.808zm-2.207-12.283a8.14 8.14 0 0 0-3.256.645 3.967 3.967 0 0 0-1.5 6.729 8.91 8.91 0 0 0 4.77 2.668A8.879 8.879 0 0 0 25.6 54a3.966 3.966 0 0 0 1.5-6.728 8.9 8.9 0 0 0-4.778-2.672 10.089 10.089 0 0 0-2.195-.245z" fill="#112c41"/></svg></g><g transform="translate(479.0 415.0) rotate(0.0 35.0 35.0) scale(0.6227203985410551 0.6227203985410551)"><svg width="112.41" height="112.41" viewBox="0 0 112.41 112.41"><path d="M55.16 111.41 36.318 75.354 1 55.16l36.057-18.842L57.25 1l18.843 36.057L111.41 57.25 75.354 76.093z" fill="#ffe993"/><path d="M55.16 112.41h-.019a1.002 1.002 0 0 1-.868-.537L35.567 76.076.504 56.028a.998.998 0 0 1 .033-1.755l35.797-18.706L56.382.504c.182-.318.573-.509.887-.504.366.007.698.213.868.537l18.706 35.797 35.063 20.049a1.001 1.001 0 0 1-.033 1.755L76.077 76.844l-20.049 35.062a.999.999 0 0 1-.868.504zM3.084 55.199l33.73 19.286c.166.095.302.235.391.405l17.994 34.436 19.287-33.729c.095-.166.235-.302.405-.391l34.436-17.994-33.73-19.287a1.003 1.003 0 0 1-.391-.405L57.212 3.084l-19.287 33.73a1.003 1.003 0 0 1-.405.391z" fill="#112c41"/></svg></g><g transform="translate(1523.0 485.0) rotate(0.0 56.0 56.0) scale(0.9963526376656882 0.9963526376656882)"><svg width="112.41" height="112.41" viewBox="0 0 112.41 112.41"><path d="M55.16 111.41 36.318 75.354 1 55.16l36.057-18.842L57.25 1l18.843 36.057L111.41 57.25 75.354 76.093z" fill="#ffe993"/><path d="M55.16 112.41h-.019a1.002 1.002 0 0 1-.868-.537L35.567 76.076.504 56.028a.998.998 0 0 1 .033-1.755l35.797-18.706L56.382.504c.182-.318.573-.509.887-.504.366.007.698.213.868.537l18.706 35.797 35.063 20.049a1.001 1.001 0 0 1-.033 1.755L76.077 76.844l-20.049 35.062a.999.999 0 0 1-.868.504zM3.084 55.199l33.73 19.286c.166.095.302.235.391.405l17.994 34.436 19.287-33.729c.095-.166.235-.302.405-.391l34.436-17.994-33.73-19.287a1.003 1.003 0 0 1-.391-.405L57.212 3.084l-19.287 33.73a1.003 1.003 0 0 1-.405.391z" fill="#112c41"/></svg></g><g transform="translate(1025.0 904.0) rotate(0.0 73.0 88.5) scale(0.997867570670895 0.9966609044275394)"><svg width="146.312" height="177.593" viewBox="0 0 146.312 177.593"><path d="M2.236 75.12c23.46-12.254 33.976-30.947 39.396-45.551.1-.279.99-2.788 1.073-3.003 1.841-5.337 5.059-22.279 14.22-21.373 5.426.538 9.1 6.36 11.901 16.366 1.98 7.054 4.01 9.886 7.835 11.927 3.762 1.997 11.919 4.259 24.516-15.131C111.479 2.5 118.76-1.523 125.576 2.027c8.591 4.471 7.993 18.038 5.504 26.887 0 0 14.724 10.252 8.452 32.357 10.523 11.006 5.033 30.328-8.896 50.796-19.208 24.569-40.723 43.356-83.447 64.093C29.913 160.634-1.662 89.426 2.236 75.12z" fill="#ffd6c0"/><g fill="#112c41"><path d="M122.849 88.157a1 1 0 0 1-.675-1.737c7.283-6.68 13.146-15.818 16.51-25.733a1.001 1.001 0 0 1 1.895.643c-3.47 10.228-9.525 19.662-17.053 26.565a1.005 1.005 0 0 1-.677.262zm-10.217-29.633a1.001 1.001 0 0 1-.57-1.823c4.895-3.39 14.515-16.379 17.862-28.23a.993.993 0 0 1 1.233-.69.997.997 0 0 1 .69 1.233c-3.518 12.458-13.394 25.693-18.647 29.332a.988.988 0 0 1-.568.178z"/><path d="M45.923 177.593c-.288 0-.57-.125-.766-.356C26.375 154.904.611 94.165.001 75.685a.999.999 0 0 1 .488-.893c16.201-9.623 30.389-19.682 39.936-45.4.489-1.362 1.007-3.087 1.554-4.913 2.65-8.843 6.298-20.968 14.774-20.109 5.601.556 9.657 5.986 12.766 17.091 1.848 6.585 3.632 9.334 7.343 11.314 6.707 3.56 14.516-1.416 23.207-14.794 10.089-15.527 18.01-20.676 25.699-16.669 9.308 4.844 8.338 19.168 6.188 27.376 2.782 2.17 14.069 12.406 8.764 32.023 9.619 10.608 6.624 28.618-8.476 50.808-14.976 21.999-50.296 49.13-85.893 65.979a1.025 1.025 0 0 1-.428.095zM2.027 76.204c1.096 18.721 25.819 76.826 44.169 99.152 35.069-16.733 69.696-43.373 84.395-64.963 14.714-21.622 17.659-38.925 8.293-48.72a1 1 0 0 1-.239-.965c5.984-21.093-7.79-30.4-8.379-30.786a1.002 1.002 0 0 1-.417-1.108c2.107-7.493 3.424-21.343-5.004-25.729-6.658-3.466-13.565 1.313-23.098 15.985-9.354 14.397-18.045 19.603-25.824 15.469-4.23-2.257-6.331-5.421-8.329-12.539-2.858-10.208-6.365-15.178-11.038-15.641-6.842-.666-10.211 10.519-12.661 18.693-.556 1.853-1.08 3.603-1.591 5.024C32.645 56.1 17.762 66.82 2.027 76.204z"/></g><path d="M123.62 87.857c7.794-4.744 14.421-10.279 19.73-18.638a19.838 19.838 0 0 0-3.351-6.288c-3.352 9.074-8.134 16.906-16.379 24.926zm-10.317-29.633c8.284-5.347 18.525-13.931 22.893-21.763-1.619-2.749-4.007-5.118-4.97-5.798-2.949 9.45-9.941 21.123-17.923 27.561zM36.76 161.747c35.753-9.779 60.505-22.965 94.474-52.315-14.774 22.323-50.332 49.355-85.038 65.931-3.589-4.35-6.756-9.29-9.436-13.616z" fill="#f5b9ab"/></svg></g><g transform="translate(1118.0 1410.0) rotate(0.0 53.5 53.5) scale(0.9518726091984699 0.9518726091984699)"><svg width="112.41" height="112.41" viewBox="0 0 112.41 112.41"><path d="M55.16 111.41 36.318 75.354 1 55.16l36.057-18.842L57.25 1l18.843 36.057L111.41 57.25 75.354 76.093z" fill="#ffe993"/><path d="M55.16 112.41h-.019a1.002 1.002 0 0 1-.868-.537L35.567 76.076.504 56.028a.998.998 0 0 1 .033-1.755l35.797-18.706L56.382.504c.182-.318.573-.509.887-.504.366.007.698.213.868.537l18.706 35.797 35.063 20.049a1.001 1.001 0 0 1-.033 1.755L76.077 76.844l-20.049 35.062a.999.999 0 0 1-.868.504zM3.084 55.199l33.73 19.286c.166.095.302.235.391.405l17.994 34.436 19.287-33.729c.095-.166.235-.302.405-.391l34.436-17.994-33.73-19.287a1.003 1.003 0 0 1-.391-.405L57.212 3.084l-19.287 33.73a1.003 1.003 0 0 1-.405.391z" fill="#112c41"/></svg></g></svg>