<svg xmlns="http://www.w3.org/2000/svg" viewBox="0 0 1800 1800" width="1800" height="1800"><g transform="translate(398.0 259.0) rotate(0.0 172.0 121.5) scale(0.9998081763382608 0.9988531685842181)"><svg width="344.066" height="243.279" viewBox="0 0 344.066 243.279"><path d="M141.533 1c77.614 0 140.533 43.479 140.533 97.113 0 23.406-11.984 44.876-31.94 61.644 9.772 7.917 14.642 18.614 11.537 28.04-4.536 13.77-24.366 19.611-44.293 13.047a49.127 49.127 0 0 1-21.084-13.264 195.438 195.438 0 0 1-54.753 7.647C63.919 195.227 1 151.748 1 98.113S63.919 1 141.533 1z" fill="#fff"/><path d="M233.674 204.546a53.359 53.359 0 0 1-16.616-2.752 50.762 50.762 0 0 1-21.089-13.081 196.01 196.01 0 0 1-54.436 7.514C63.491 196.227 0 152.213 0 98.113S63.491 0 141.533 0s141.533 44.014 141.533 98.113c0 22.412-11.135 44.259-31.386 61.636 9.786 8.362 13.97 19.141 10.932 28.361-2.3 6.981-8.351 12.235-17.042 14.795a42.152 42.152 0 0 1-11.896 1.641zm-37.388-17.966a1 1 0 0 1 .743.33 48.449 48.449 0 0 0 20.654 12.99c9.446 3.111 19.149 3.5 27.322 1.091 8.042-2.368 13.62-7.163 15.708-13.5 2.865-8.7-1.433-19.023-11.217-26.95a1 1 0 0 1-.013-1.543c20.366-17.113 31.583-38.733 31.583-60.878 0-53-62.594-96.113-139.533-96.113S2 45.116 2 98.113s62.594 96.114 139.533 96.114a193.867 193.867 0 0 0 54.472-7.607 1 1 0 0 1 .281-.04z" fill="#112c41"/><circle cx="288.977" cy="209.966" fill="#fff" r="18.966"/><path d="M288.977 229.932a19.966 19.966 0 1 1 19.966-19.966 19.988 19.988 0 0 1-19.966 19.966zm0-37.932a17.966 17.966 0 1 0 17.966 17.966A17.986 17.986 0 0 0 288.977 192z" fill="#112c41"/><circle cx="329.368" cy="228.581" fill="#fff" r="13.698"/><path d="M329.368 243.279a14.7 14.7 0 1 1 14.7-14.7 14.715 14.715 0 0 1-14.7 14.7zm0-27.4a12.7 12.7 0 1 0 12.7 12.7 12.713 12.713 0 0 0-12.7-12.696z" fill="#112c41"/></svg></g><g transform="translate(1138.0 502.0) rotate(0.0 107.0 108.0) scale(0.9962431391900637 0.9962777954586338)"><svg width="214.807" height="216.807" viewBox="0 0 214.807 216.807"><path d="M213.537 121.328q.264-3.678.27-7.424 0-4.144-.329-8.206l-28.5-10.316a74.437 74.437 0 0 0-8.455-20.41l12.8-27.334a102.537 102.537 0 0 0-11.146-11.146l-27.334 12.8a74.462 74.462 0 0 0-20.409-8.455L120.11 12.33q-4.062-.324-8.206-.33-3.747 0-7.425.271L94.142 40.834a74.468 74.468 0 0 0-20.41 8.455L45.909 36.263a102.4 102.4 0 0 0-10.925 10.8L48.05 74.972a74.47 74.47 0 0 0-8.456 20.41l-29.29 10.6Q10 109.9 10 113.9c0 2.4.089 4.782.253 7.142l29.341 10.619a74.47 74.47 0 0 0 8.456 20.41l-13.3 28.4a102.658 102.658 0 0 0 10.58 10.584l28.4-13.3a74.439 74.439 0 0 0 20.41 8.456l10.619 29.341c2.36.164 4.741.253 7.143.253q4 0 7.921-.3l10.6-29.29a74.433 74.433 0 0 0 20.409-8.456l27.908 13.067a102.507 102.507 0 0 0 10.8-10.926l-13.026-27.823a74.437 74.437 0 0 0 8.455-20.41zM113.805 135.2A23.195 23.195 0 1 1 137 112a23.2 23.2 0 0 1-23.195 23.2z" fill="#cbc8ff"/><path d="M111.9 216.807c-2.341 0-4.768-.086-7.212-.255a1 1 0 0 1-.871-.657l-10.435-28.843a75.417 75.417 0 0 1-19.706-8.164l-27.922 13.073a1 1 0 0 1-1.077-.149 103.969 103.969 0 0 1-10.682-10.681 1 1 0 0 1-.149-1.078l13.073-27.922a75.388 75.388 0 0 1-8.164-19.706L9.912 121.986a1 1 0 0 1-.657-.871 102.736 102.736 0 0 1 .053-15.215 1 1 0 0 1 .656-.863l28.791-10.42a75.409 75.409 0 0 1 8.164-19.707L34.078 47.488a1 1 0 0 1 .151-1.08A103.879 103.879 0 0 1 45.261 35.5a1 1 0 0 1 1.072-.144l27.343 12.8a75.442 75.442 0 0 1 19.706-8.164l10.157-28.062a1 1 0 0 1 .869-.657 103.757 103.757 0 0 1 15.781.06 1 1 0 0 1 .861.656l10.135 28.005a75.449 75.449 0 0 1 19.707 8.164l26.853-12.572a1 1 0 0 1 1.075.147 103.906 103.906 0 0 1 11.255 11.254 1 1 0 0 1 .146 1.075l-12.572 26.853a75.449 75.449 0 0 1 8.164 19.707l28.005 10.135a1 1 0 0 1 .656.861c.221 2.772.333 5.559.333 8.285 0 2.455-.092 4.977-.273 7.5a1 1 0 0 1-.657.868l-28.064 10.157a75.442 75.442 0 0 1-8.164 19.706l12.8 27.343a1 1 0 0 1-.144 1.072 103.78 103.78 0 0 1-10.905 11.029 1 1 0 0 1-1.08.152l-27.427-12.842a75.409 75.409 0 0 1-19.707 8.164l-10.419 28.791a1 1 0 0 1-.864.657c-2.656.2-5.347.307-8.003.307zm-6.425-2.207a101.294 101.294 0 0 0 13.626-.047l10.38-28.68a1 1 0 0 1 .7-.63 73.44 73.44 0 0 0 20.139-8.343 1 1 0 0 1 .939-.049l27.317 12.789a101.93 101.93 0 0 0 9.789-9.9l-12.753-27.24a1 1 0 0 1 .049-.94A73.4 73.4 0 0 0 184 131.424a1 1 0 0 1 .63-.7l27.951-10.116c.148-2.256.223-4.509.223-6.706 0-2.463-.093-4.978-.277-7.484l-27.9-10.1a1 1 0 0 1-.63-.7 73.4 73.4 0 0 0-8.342-20.136 1 1 0 0 1-.049-.939L188.135 47.8a101.936 101.936 0 0 0-10.128-10.129L151.259 50.2a1 1 0 0 1-.939-.049 73.445 73.445 0 0 0-20.136-8.351 1 1 0 0 1-.7-.63l-10.1-27.9a101.192 101.192 0 0 0-14.191-.053L95.082 41.174a1 1 0 0 1-.7.63 73.457 73.457 0 0 0-20.135 8.342 1 1 0 0 1-.94.049L46.07 37.442a101.842 101.842 0 0 0-9.9 9.79l12.785 27.316a1 1 0 0 1-.048.939 73.4 73.4 0 0 0-8.342 20.136 1 1 0 0 1-.63.7L11.254 106.7c-.169 2.39-.254 4.81-.254 7.2 0 2.085.07 4.244.207 6.425l28.728 10.4a1 1 0 0 1 .63.7 73.39 73.39 0 0 0 8.342 20.135 1 1 0 0 1 .048.94l-13.022 27.812a102.127 102.127 0 0 0 9.562 9.562l27.813-13.022a1 1 0 0 1 .94.049 73.433 73.433 0 0 0 20.135 8.342 1 1 0 0 1 .7.63zm8.33-78.4A24.195 24.195 0 1 1 138 112a24.222 24.222 0 0 1-24.195 24.2zm0-46.389A22.195 22.195 0 1 0 136 112a22.22 22.22 0 0 0-22.195-22.192z" fill="#cbc8ff"/><path d="M204.537 110.328q.264-3.678.27-7.424 0-4.144-.329-8.206l-28.5-10.316a74.437 74.437 0 0 0-8.455-20.41l12.8-27.334a102.537 102.537 0 0 0-11.146-11.146l-27.334 12.8a74.462 74.462 0 0 0-20.409-8.455L111.11 1.33q-4.062-.324-8.21-.33-3.747 0-7.425.271L85.142 29.834a74.468 74.468 0 0 0-20.41 8.455L36.909 25.263a102.4 102.4 0 0 0-10.925 10.8L39.05 63.972a74.47 74.47 0 0 0-8.456 20.41L1.3 94.982Q1 98.9 1 102.9c0 2.4.089 4.782.253 7.142l29.341 10.619a74.47 74.47 0 0 0 8.456 20.41l-13.3 28.4a102.658 102.658 0 0 0 10.58 10.584l28.4-13.3a74.439 74.439 0 0 0 20.41 8.456l10.619 29.341c2.36.164 4.741.253 7.143.253q4 0 7.921-.3l10.6-29.29a74.433 74.433 0 0 0 20.409-8.456l27.908 13.067a102.507 102.507 0 0 0 10.8-10.926l-13.026-27.823a74.437 74.437 0 0 0 8.455-20.41zM104.805 124.2A23.195 23.195 0 1 1 128 101a23.2 23.2 0 0 1-23.195 23.2z" fill="#dedffe"/><path d="M102.9 205.807c-2.341 0-4.768-.086-7.212-.255a1 1 0 0 1-.871-.657l-10.435-28.843a75.417 75.417 0 0 1-19.706-8.164l-27.922 13.073a1 1 0 0 1-1.077-.149A103.969 103.969 0 0 1 25 170.131a1 1 0 0 1-.149-1.078l13.073-27.922a75.388 75.388 0 0 1-8.164-19.706L.912 110.986a1 1 0 0 1-.657-.871A102.736 102.736 0 0 1 .308 94.9a1 1 0 0 1 .656-.863l28.791-10.42a75.409 75.409 0 0 1 8.164-19.707L25.078 36.488a1 1 0 0 1 .151-1.08A103.879 103.879 0 0 1 36.261 24.5a1 1 0 0 1 1.072-.144l27.343 12.8a75.442 75.442 0 0 1 19.706-8.164L94.539.93a1 1 0 0 1 .869-.657 103.5 103.5 0 0 1 15.781.06 1 1 0 0 1 .861.656l10.135 28.005a75.449 75.449 0 0 1 19.707 8.164l26.853-12.572a1 1 0 0 1 1.075.147 103.906 103.906 0 0 1 11.255 11.254 1 1 0 0 1 .146 1.075l-12.572 26.853a75.449 75.449 0 0 1 8.164 19.707l28.005 10.135a1 1 0 0 1 .656.861c.221 2.772.333 5.559.333 8.285 0 2.455-.092 4.977-.273 7.5a1 1 0 0 1-.657.868l-28.064 10.157a75.442 75.442 0 0 1-8.164 19.706l12.8 27.343a1 1 0 0 1-.144 1.072 103.78 103.78 0 0 1-10.905 11.029 1 1 0 0 1-1.08.152l-27.427-12.842a75.409 75.409 0 0 1-19.707 8.164l-10.419 28.791a1 1 0 0 1-.864.657c-2.656.2-5.347.307-8.003.307zm-6.421-2.207a101.294 101.294 0 0 0 13.626-.047l10.38-28.68a1 1 0 0 1 .7-.63 73.44 73.44 0 0 0 20.135-8.343 1 1 0 0 1 .939-.049l27.317 12.789a101.93 101.93 0 0 0 9.789-9.9l-12.753-27.24a1 1 0 0 1 .049-.94A73.4 73.4 0 0 0 175 120.424a1 1 0 0 1 .63-.7l27.951-10.116c.148-2.256.223-4.509.223-6.706 0-2.463-.093-4.978-.277-7.484l-27.9-10.1a1 1 0 0 1-.63-.7 73.4 73.4 0 0 0-8.342-20.136 1 1 0 0 1-.049-.939L179.135 36.8a101.936 101.936 0 0 0-10.128-10.129L142.259 39.2a1 1 0 0 1-.939-.049 73.445 73.445 0 0 0-20.136-8.351 1 1 0 0 1-.7-.63l-10.1-27.9A101.192 101.192 0 0 0 96.2 2.224l-10.118 27.95a1 1 0 0 1-.7.63 73.457 73.457 0 0 0-20.135 8.342 1 1 0 0 1-.94.049L37.07 26.442a101.842 101.842 0 0 0-9.9 9.79l12.785 27.316a1 1 0 0 1-.048.939 73.4 73.4 0 0 0-8.342 20.136 1 1 0 0 1-.63.7L2.254 95.7C2.085 98.09 2 100.51 2 102.9c0 2.085.07 4.244.207 6.425l28.728 10.4a1 1 0 0 1 .63.7 73.39 73.39 0 0 0 8.342 20.135 1 1 0 0 1 .048.94l-13.022 27.812a102.127 102.127 0 0 0 9.562 9.562l27.813-13.022a1 1 0 0 1 .94.049 73.433 73.433 0 0 0 20.135 8.342 1 1 0 0 1 .7.63zm8.326-78.4A24.195 24.195 0 1 1 129 101a24.222 24.222 0 0 1-24.195 24.2zm0-46.389A22.195 22.195 0 1 0 127 101a22.22 22.22 0 0 0-22.195-22.192z" fill="#112c41"/></svg></g><g transform="translate(840.0 244.0) rotate(0.0 188.5 183.5) scale(0.9998514809471273 0.9974262597602372)"><svg width="377.056" height="367.947" viewBox="0 0 377.056 367.947"><path d="M376.779 200.408q.269-4.933.277-9.934t-.277-9.935l-28.833-13.949a151.481 151.481 0 0 0-4.637-20.067l20-25.14a179.043 179.043 0 0 0-8.617-17.855l-32.365-.016A153 153 0 0 0 309.684 87.8l7.186-31.657a180.834 180.834 0 0 0-15.512-12.4l-29.511 14.142a151.666 151.666 0 0 0-17.82-8.514l-7.345-31.986A179.038 179.038 0 0 0 227.341 13l-20.616 25.819a154.466 154.466 0 0 0-9.237-.287c-3.4 0-6.769.123-10.113.342L166.715 13a178.984 178.984 0 0 0-19.341 4.385l-7.44 32.4a151.984 151.984 0 0 0-17.23 8.336L92.7 43.743a180.834 180.834 0 0 0-15.512 12.4L84.554 88.6a152.91 152.91 0 0 0-11.9 14.909l-33.286.016a179.286 179.286 0 0 0-8.618 17.856l20.672 25.982a151.51 151.51 0 0 0-4.307 18.741l-29.838 14.435q-.269 4.934-.277 9.935t.277 9.935l29.667 14.352a151.579 151.579 0 0 0 4.273 19.071l-20.472 25.732a179.607 179.607 0 0 0 8.617 17.856l32.648.016a153.13 153.13 0 0 0 12.377 15.642l-7.2 31.724A180.834 180.834 0 0 0 92.7 337.2l29.119-13.954a151.828 151.828 0 0 0 18.35 8.927l7.207 31.385a178.93 178.93 0 0 0 19.341 4.385l19.96-25c3.573.251 7.177.387 10.813.387 3.34 0 6.651-.119 9.937-.331l19.916 24.942a179.038 179.038 0 0 0 19.341-4.385l7.111-30.97a151.611 151.611 0 0 0 18.941-9.1l28.621 13.714a180.668 180.668 0 0 0 15.512-12.4l-7.017-30.917a153.113 153.113 0 0 0 13.114-16.45l31.727-.016a179.279 179.279 0 0 0 8.617-17.856l-19.8-24.889a151.472 151.472 0 0 0 4.6-20.4zm-110.467 18.943a74.941 74.941 0 0 1-3.614 7.49l-13.307.006a64.127 64.127 0 0 1-5.5 6.9l2.943 12.968a75.841 75.841 0 0 1-6.506 5.2l-12.006-5.753a63.705 63.705 0 0 1-7.944 3.819l-2.983 12.99a75.142 75.142 0 0 1-8.112 1.839l-8.354-10.462a64.625 64.625 0 0 1-4.167.139c-1.525 0-3.038-.057-4.536-.162l-8.372 10.485a75.088 75.088 0 0 1-8.112-1.839l-3.023-13.164a63.545 63.545 0 0 1-7.7-3.745l-12.213 5.853a75.673 75.673 0 0 1-6.507-5.2l3.021-13.306a64.147 64.147 0 0 1-5.192-6.561l-13.694-.007a75.258 75.258 0 0 1-3.614-7.489l8.587-10.793a63.394 63.394 0 0 1-1.792-8l-12.444-6.02q-.113-2.07-.116-4.167t.116-4.167l12.513-6.054a63.576 63.576 0 0 1 1.807-7.86l-8.671-10.9a75.168 75.168 0 0 1 3.615-7.49l13.965-.001a64.328 64.328 0 0 1 4.993-6.254l-3.09-13.614a75.855 75.855 0 0 1 6.507-5.2l12.585 6.031a63.659 63.659 0 0 1 7.227-3.5l3.121-13.591a75.142 75.142 0 0 1 8.112-1.839l8.666 10.853c1.4-.092 2.815-.144 4.242-.144 1.3 0 2.592.044 3.874.12l8.647-10.829a75.142 75.142 0 0 1 8.112 1.839l3.081 13.416a63.67 63.67 0 0 1 7.474 3.571l12.378-5.931a76.01 76.01 0 0 1 6.507 5.2l-3.015 13.278a64.08 64.08 0 0 1 5.3 6.59l13.575.007a74.819 74.819 0 0 1 3.614 7.489l-8.389 10.545a63.441 63.441 0 0 1 1.945 8.416l12.094 5.851q.112 2.07.116 4.167t-.116 4.167l-12.025 5.817a63.345 63.345 0 0 1-1.93 8.556z" fill="#cbc8ff"/><path d="M190.17 317.236c-74.4 0-134.931-61.234-134.931-136.5s60.53-136.5 134.931-136.5 134.93 61.234 134.93 136.5-60.529 136.5-134.93 136.5zm0-231.793c-51.941 0-94.2 42.748-94.2 95.293s42.256 95.292 94.2 95.292 94.2-42.748 94.2-95.292-42.259-95.293-94.2-95.293z" fill="#fff"/><path d="M180.567 67.971A110.043 110.043 0 1 0 290.61 178.013 110.166 110.166 0 0 0 180.567 67.971zm75.395 114.568-12.025 5.817a63.345 63.345 0 0 1-1.93 8.556l8.305 10.439a74.941 74.941 0 0 1-3.614 7.49l-13.307.006a64.127 64.127 0 0 1-5.5 6.9l2.943 12.968a75.841 75.841 0 0 1-6.506 5.2l-12.006-5.753a63.565 63.565 0 0 1-7.944 3.819l-2.983 12.99a75.142 75.142 0 0 1-8.112 1.839l-8.354-10.462a64.625 64.625 0 0 1-4.167.139c-1.526 0-3.038-.057-4.536-.162l-8.372 10.485a75.088 75.088 0 0 1-8.112-1.839l-3.023-13.164a63.545 63.545 0 0 1-7.7-3.745l-12.213 5.853a76.01 76.01 0 0 1-6.507-5.2l3.021-13.307a64.009 64.009 0 0 1-5.192-6.561l-13.694-.007a75.258 75.258 0 0 1-3.614-7.489l8.587-10.793a63.394 63.394 0 0 1-1.792-8l-12.444-6.02q-.113-2.07-.116-4.167t.116-4.167l12.513-6.054a63.576 63.576 0 0 1 1.807-7.86l-8.671-10.9a75.168 75.168 0 0 1 3.615-7.49H128.4a64.328 64.328 0 0 1 4.993-6.254l-3.09-13.614a76.01 76.01 0 0 1 6.507-5.2l12.585 6.031a63.49 63.49 0 0 1 7.227-3.5l3.121-13.591a75.142 75.142 0 0 1 8.112-1.839l8.666 10.853c1.4-.092 2.815-.144 4.242-.144 1.3 0 2.592.044 3.874.12l8.647-10.829a75.142 75.142 0 0 1 8.112 1.839l3.081 13.416a63.67 63.67 0 0 1 7.474 3.571l12.378-5.931a76.01 76.01 0 0 1 6.507 5.2l-3.015 13.279a63.961 63.961 0 0 1 5.3 6.589l13.575.007a74.819 74.819 0 0 1 3.614 7.489l-8.389 10.545a63.441 63.441 0 0 1 1.945 8.416l12.094 5.851q.112 2.07.116 4.167t-.114 4.168z" fill="#b2b0f7"/><path d="M180.567 289.056A111.043 111.043 0 1 1 291.61 178.013a111.168 111.168 0 0 1-111.043 111.043zm0-220.085A109.043 109.043 0 1 0 289.61 178.013 109.165 109.165 0 0 0 180.567 68.971zm12.715 184.84a1 1 0 0 1-.782-.376l-8.029-10.056a64.057 64.057 0 0 1-7.791-.021l-8.046 10.077a.993.993 0 0 1-.948.362 76.23 76.23 0 0 1-8.221-1.864 1 1 0 0 1-.7-.738l-2.907-12.659a64.978 64.978 0 0 1-6.877-3.345l-11.742 5.627a1 1 0 0 1-1.012-.087 77.2 77.2 0 0 1-6.593-5.27 1 1 0 0 1-.309-.967l2.906-12.8a65.637 65.637 0 0 1-4.624-5.844l-13.172-.006a1 1 0 0 1-.875-.517 76.487 76.487 0 0 1-3.662-7.589 1 1 0 0 1 .141-1.007l8.265-10.388a64.9 64.9 0 0 1-1.592-7.107l-11.976-5.794a1 1 0 0 1-.563-.845c-.077-1.43-.117-2.85-.117-4.222s.04-2.792.117-4.221a1 1 0 0 1 .563-.846l12.049-5.829a64.759 64.759 0 0 1 1.6-6.969l-8.347-10.492a1 1 0 0 1-.141-1.006 76.52 76.52 0 0 1 3.663-7.59 1 1 0 0 1 .874-.516l13.444-.006a65.806 65.806 0 0 1 4.421-5.538l-2.975-13.108a1 1 0 0 1 .309-.967 76.975 76.975 0 0 1 6.593-5.271 1 1 0 0 1 1.012-.087l12.118 5.807a64.72 64.72 0 0 1 6.4-3.1l3-13.087a1 1 0 0 1 .7-.738 76.328 76.328 0 0 1 8.221-1.864 1 1 0 0 1 .948.362l8.342 10.446a63.325 63.325 0 0 1 7.2-.02l8.325-10.426a1 1 0 0 1 .949-.362 76.328 76.328 0 0 1 8.221 1.864 1 1 0 0 1 .7.738l2.964 12.908a65.165 65.165 0 0 1 6.65 3.177l11.912-5.708a1 1 0 0 1 1.012.088 76.922 76.922 0 0 1 6.593 5.27 1 1 0 0 1 .309.967l-2.9 12.768a65.559 65.559 0 0 1 4.731 5.878l13.058.007a1 1 0 0 1 .875.516 76.695 76.695 0 0 1 3.662 7.589 1 1 0 0 1-.141 1.006l-8.064 10.136a64.938 64.938 0 0 1 1.74 7.529l11.626 5.625a1 1 0 0 1 .563.846c.078 1.434.118 2.855.118 4.221s-.04 2.787-.118 4.221a1 1 0 0 1-.563.846l-11.553 5.589a64.758 64.758 0 0 1-1.731 7.668l7.982 10.033a1 1 0 0 1 .141 1.007 76.718 76.718 0 0 1-3.663 7.589 1 1 0 0 1-.875.516l-12.785.006a65.627 65.627 0 0 1-4.932 6.187l2.827 12.46a1 1 0 0 1-.309.967 77.027 77.027 0 0 1-6.592 5.27 1 1 0 0 1-1.012.087l-11.536-5.528a64.788 64.788 0 0 1-7.124 3.424l-2.858 12.486a1 1 0 0 1-.7.737 76.43 76.43 0 0 1-8.22 1.864.949.949 0 0 1-.167.01zm-32.7-3.641a73.903 73.903 0 0 0 6.858 1.554l8-10.022a1 1 0 0 1 .852-.374 62.164 62.164 0 0 0 8.569.023 1 1 0 0 1 .846.374l7.984 10a74.123 74.123 0 0 0 6.858-1.554l2.85-12.412a1 1 0 0 1 .605-.705 62.875 62.875 0 0 0 7.82-3.759 1 1 0 0 1 .926-.033l11.472 5.5a75.243 75.243 0 0 0 5.5-4.4l-2.812-12.391a1 1 0 0 1 .238-.9 63.557 63.557 0 0 0 5.415-6.792 1 1 0 0 1 .822-.432l12.715-.006a74.57 74.57 0 0 0 3.056-6.331l-7.937-9.976a1 1 0 0 1-.175-.909 62.7 62.7 0 0 0 1.9-8.421 1 1 0 0 1 .553-.749l11.491-5.558c.056-1.2.085-2.382.085-3.525s-.029-2.327-.085-3.525l-11.56-5.592a1 1 0 0 1-.552-.742 62.891 62.891 0 0 0-1.915-8.285 1 1 0 0 1 .175-.913l8.02-10.081a74.843 74.843 0 0 0-3.055-6.331l-12.983-.006a1 1 0 0 1-.818-.426 63.391 63.391 0 0 0-5.222-6.486 1 1 0 0 1-.239-.9l2.883-12.7a75.296 75.296 0 0 0-5.5-4.4l-11.844 5.675a1 1 0 0 1-.92-.029 62.8 62.8 0 0 0-7.358-3.515 1 1 0 0 1-.6-.7l-2.948-12.838a74.513 74.513 0 0 0-6.858-1.555l-8.278 10.367a.982.982 0 0 1-.841.374 61.754 61.754 0 0 0-7.991.024 1.008 1.008 0 0 1-.847-.374l-8.3-10.391a74.513 74.513 0 0 0-6.858 1.555l-2.979 13.008a1 1 0 0 1-.6.7 62.78 62.78 0 0 0-7.113 3.442 1.008 1.008 0 0 1-.924.031l-12.051-5.776a74.66 74.66 0 0 0-5.5 4.4l2.958 13.036a1 1 0 0 1-.234.892 63.419 63.419 0 0 0-4.915 6.157 1 1 0 0 1-.818.425l-13.369.007a74.267 74.267 0 0 0-3.056 6.331l8.3 10.434a1 1 0 0 1 .176.908 62.653 62.653 0 0 0-1.778 7.737 1 1 0 0 1-.551.739l-11.98 5.8a74.206 74.206 0 0 0 0 7.05l11.91 5.762a1 1 0 0 1 .553.745 62.8 62.8 0 0 0 1.764 7.874 1 1 0 0 1-.177.9l-8.218 10.329a74.55 74.55 0 0 0 3.055 6.331l13.1.006a1 1 0 0 1 .822.432 63.3 63.3 0 0 0 5.111 6.459 1 1 0 0 1 .233.891l-2.89 12.73a76.107 76.107 0 0 0 5.5 4.4l11.679-5.6a1 1 0 0 1 .929.035 63.032 63.032 0 0 0 7.576 3.685 1 1 0 0 1 .6.7z" fill="#112c41"/><path d="M360.779 188.408c.178-3.289.277-6.6.277-9.934s-.1-6.646-.277-9.935l-28.833-13.949a151.481 151.481 0 0 0-4.637-20.067l20-25.14a179.043 179.043 0 0 0-8.617-17.855l-32.365-.016A153 153 0 0 0 293.684 75.8l7.186-31.657a180.834 180.834 0 0 0-15.512-12.4l-29.511 14.142a151.666 151.666 0 0 0-17.82-8.514l-7.345-31.986A179.038 179.038 0 0 0 211.341 1l-20.616 25.819a154.466 154.466 0 0 0-9.237-.287c-3.4 0-6.769.123-10.113.342L150.715 1a178.984 178.984 0 0 0-19.341 4.385l-7.44 32.4a151.984 151.984 0 0 0-17.23 8.336L76.7 31.743a180.834 180.834 0 0 0-15.512 12.4L68.554 76.6a152.91 152.91 0 0 0-11.9 14.909l-33.286.016a179.286 179.286 0 0 0-8.618 17.856l20.672 25.982a151.51 151.51 0 0 0-4.307 18.741L1.277 168.539q-.268 4.934-.277 9.935t.277 9.935l29.668 14.352a151.441 151.441 0 0 0 4.272 19.071l-20.472 25.732a179.607 179.607 0 0 0 8.617 17.856l32.648.016a153.13 153.13 0 0 0 12.377 15.642l-7.2 31.724A180.679 180.679 0 0 0 76.7 325.2l29.119-13.954a151.828 151.828 0 0 0 18.35 8.927l7.207 31.385a178.93 178.93 0 0 0 19.341 4.385l19.96-25c3.573.251 7.177.387 10.813.387 3.34 0 6.651-.119 9.937-.331l19.916 24.942a179.038 179.038 0 0 0 19.341-4.385l7.111-30.97a151.611 151.611 0 0 0 18.941-9.1l28.621 13.714a180.668 180.668 0 0 0 15.512-12.4l-7.017-30.917a153.113 153.113 0 0 0 13.114-16.45l31.727-.016a179.173 179.173 0 0 0 8.617-17.856l-19.8-24.889a151.472 151.472 0 0 0 4.6-20.4zM180.567 303.71a125.7 125.7 0 1 1 125.7-125.7 125.839 125.839 0 0 1-125.7 125.7z" fill="#b2b0f7"/><path d="M211.34 356.947a1 1 0 0 1-.781-.376l-19.591-24.535c-3.25.2-6.437.3-9.48.3-3.374 0-6.857-.119-10.359-.353L151.5 356.571a1 1 0 0 1-.948.362 180.228 180.228 0 0 1-19.449-4.41 1 1 0 0 1-.7-.737l-7.091-30.88a153.24 153.24 0 0 1-17.531-8.528L77.13 326.106a1 1 0 0 1-1.012-.088 182.194 182.194 0 0 1-15.6-12.47 1 1 0 0 1-.309-.967l7.091-31.218a154.655 154.655 0 0 1-11.811-14.928l-32.124-.015a1 1 0 0 1-.875-.516 181.117 181.117 0 0 1-8.665-17.955 1 1 0 0 1 .141-1.007l20.15-25.327a153.1 153.1 0 0 1-4.074-18.181L.841 189.309a1 1 0 0 1-.563-.846C.094 185.068 0 181.707 0 178.474s.094-6.594.278-9.989a1 1 0 0 1 .563-.846l29.368-14.207a152.893 152.893 0 0 1 4.1-17.851l-20.346-25.576a1 1 0 0 1-.141-1.005 181.332 181.332 0 0 1 8.665-17.955 1 1 0 0 1 .875-.516l32.768-.016a154.731 154.731 0 0 1 11.333-14.196l-7.252-31.951a1 1 0 0 1 .309-.968 182.453 182.453 0 0 1 15.6-12.469 1 1 0 0 1 1.012-.088L106.668 45a153.165 153.165 0 0 1 16.407-7.938l7.324-31.9a1 1 0 0 1 .7-.737A180.76 180.76 0 0 1 150.548.014a1 1 0 0 1 .948.362l20.335 25.467c3.306-.206 6.552-.311 9.657-.311 2.847 0 5.724.085 8.778.258L210.559.376a1 1 0 0 1 .949-.362 180.76 180.76 0 0 1 19.449 4.41 1 1 0 0 1 .7.737l7.228 31.478a153.109 153.109 0 0 1 17 8.12l29.043-13.918a1 1 0 0 1 1.013.088 182.583 182.583 0 0 1 15.6 12.47 1 1 0 0 1 .309.967l-7.07 31.146a154.7 154.7 0 0 1 12.072 15l31.847.016a1 1 0 0 1 .874.516A181.133 181.133 0 0 1 348.234 109a1 1 0 0 1-.141 1.007l-19.675 24.73a153.114 153.114 0 0 1 4.432 19.18l28.364 13.723a1 1 0 0 1 .563.846c.185 3.4.279 6.758.279 9.989s-.094 6.591-.279 9.989a1 1 0 0 1-.563.846l-28.195 13.64a152.806 152.806 0 0 1-4.4 19.511l19.478 24.482a1 1 0 0 1 .141 1.007 181.11 181.11 0 0 1-8.666 17.955 1 1 0 0 1-.875.516l-31.2.015a154.446 154.446 0 0 1-12.548 15.74l6.9 30.406a1 1 0 0 1-.309.968 182.3 182.3 0 0 1-15.6 12.469 1 1 0 0 1-1.012.088l-28.153-13.491a153.408 153.408 0 0 1-18.121 8.712l-7 30.459a1 1 0 0 1-.7.738 180.681 180.681 0 0 1-19.449 4.409.952.952 0 0 1-.165.013zm-79.124-6.185a178.526 178.526 0 0 0 18.086 4.1l19.591-24.536a1.026 1.026 0 0 1 .852-.374c3.632.255 7.247.384 10.743.384 3.163 0 6.485-.111 9.872-.329a.988.988 0 0 1 .846.374l19.548 24.481a178.692 178.692 0 0 0 18.085-4.1l6.979-30.393a1 1 0 0 1 .6-.706 151.314 151.314 0 0 0 18.816-9.044 1 1 0 0 1 .927-.033l28.09 13.461a180.536 180.536 0 0 0 14.507-11.6l-6.886-30.341a1 1 0 0 1 .238-.9 152.705 152.705 0 0 0 13.029-16.342 1 1 0 0 1 .822-.432l31.135-.015a179.293 179.293 0 0 0 8.059-16.7l-19.43-24.417a1 1 0 0 1-.175-.909 150.967 150.967 0 0 0 4.574-20.263 1 1 0 0 1 .552-.748l28.135-13.612c.162-3.161.245-6.284.245-9.291s-.083-6.131-.245-9.292l-28.3-13.692a1 1 0 0 1-.551-.742 150.857 150.857 0 0 0-4.607-19.934 1 1 0 0 1 .174-.913l19.634-24.677a179.311 179.311 0 0 0-8.058-16.7l-31.774-.015a1 1 0 0 1-.818-.426 152.941 152.941 0 0 0-12.562-15.608 1 1 0 0 1-.239-.9l7.054-31.078a180.847 180.847 0 0 0-14.507-11.6l-28.978 13.886a1 1 0 0 1-.92-.029 151.457 151.457 0 0 0-17.7-8.457 1 1 0 0 1-.6-.7l-7.213-31.41a179.05 179.05 0 0 0-18.085-4.1l-20.255 25.353a1.006 1.006 0 0 1-.841.374c-3.208-.192-6.21-.285-9.177-.285-3.224 0-6.6.114-10.048.34a1 1 0 0 1-.847-.374L150.3 2.085a179.069 179.069 0 0 0-18.086 4.1l-7.306 31.825a1 1 0 0 1-.6.7 151.2 151.2 0 0 0-17.108 8.284 1.008 1.008 0 0 1-.924.03L76.8 32.9a180.847 180.847 0 0 0-14.508 11.6l7.237 31.882a1 1 0 0 1-.235.893 152.615 152.615 0 0 0-11.826 14.81 1 1 0 0 1-.818.426l-32.7.016a179.033 179.033 0 0 0-8.058 16.7l20.3 25.52a1 1 0 0 1 .176.908 151.04 151.04 0 0 0-4.268 18.612 1 1 0 0 1-.551.739l-29.3 14.176C2.082 172.34 2 175.463 2 178.474s.082 6.133.245 9.291l29.135 14.1a1 1 0 0 1 .552.745 151.226 151.226 0 0 0 4.245 18.946 1 1 0 0 1-.177.9l-20.1 25.268a179.276 179.276 0 0 0 8.057 16.7l32.058.016a1 1 0 0 1 .822.432 152.568 152.568 0 0 0 12.3 15.54 1 1 0 0 1 .233.892l-7.07 31.148a180.582 180.582 0 0 0 14.507 11.6l28.586-13.7a1 1 0 0 1 .93.034 151.089 151.089 0 0 0 18.228 8.868 1 1 0 0 1 .6.7zm48.351-46.052a126.7 126.7 0 1 1 126.7-126.7 126.84 126.84 0 0 1-126.7 126.7zm0-251.394a124.7 124.7 0 1 0 124.7 124.7 124.838 124.838 0 0 0-124.7-124.7z" fill="#112c41"/></svg></g><g transform="translate(759.0 325.0) rotate(-21.067079102702614 139.5 115.5) scale(0.9989044274022041 0.997594544755719)"><svg width="279.306" height="231.557" viewBox="0 0 279.306 231.557"><circle cx="249.73" cy="141.181" fill="#ffd6c0" r="28.57"/><path d="M236.717 166.615a28.567 28.567 0 0 0 37.721-11.09 28.572 28.572 0 0 1-44.087-34.662q.353-.681.734-1.335a28.592 28.592 0 0 0 5.632 47.087z" fill="#f5b9ab"/><path d="M249.7 170.766a29.617 29.617 0 0 1-28.46-21.666 1 1 0 1 1 1.926-.535 27.569 27.569 0 1 0 3.042-21.764 1 1 0 0 1-1.707-1.041 29.677 29.677 0 0 1 38.7-10.9 29.57 29.57 0 0 1-4.385 54.462 29.675 29.675 0 0 1-9.116 1.444z" fill="#112c41"/><path d="M234.121 142.449a.978.978 0 0 1-.142-.01 1 1 0 0 1-.849-1.131 18.126 18.126 0 0 1 20.262-15.634 17.634 17.634 0 0 1 12.763 8.639 1 1 0 0 1-1.725 1.012 15.641 15.641 0 0 0-11.319-7.67 16.114 16.114 0 0 0-18 13.934 1 1 0 0 1-.99.86z" fill="#112c41"/><circle cx="143.381" cy="128.057" fill="#ffd6c0" r="102.5"/><path d="M141.648 25.571c.346-.005.687.007 1.032 0l6.889 12.368C96.143 39 54.153 80.513 55.043 133.15c.892 52.733 44.483 96.663 98.045 95.757a98.341 98.341 0 0 0 15.617-1.5 102.511 102.511 0 1 1-27.057-201.836z" fill="#f5b9ab"/><path d="M143.356 231.557a103.526 103.526 0 1 1 1.776-.015c-.593.01-1.186.015-1.776.015zM41.9 129.774a101.5 101.5 0 1 0 28.507-72.265A101.6 101.6 0 0 0 41.9 129.774z" fill="#112c41"/><ellipse cx="132.993" cy="107.291" fill="#112c41" rx="6.828" ry="9.104" transform="matrix(.99985699 -.01691143 .01691143 .99985699 -1.795 2.264)"/><ellipse cx="128.408" cy="77.058" fill="#112c41" rx="14.13" ry="9.336" transform="matrix(.987 -.163 .163 .987 -10.826 21.917)"/><ellipse cx="207.812" cy="145.729" fill="#ffa9dc" rx="12.121" ry="8.009" transform="matrix(.99256953 -.12167879 .12167879 .99256953 -16.188 26.369)"/><ellipse cx="115.545" cy="130.048" fill="#ffa9dc" rx="8.009" ry="12.121" transform="matrix(.42770497 -.90391839 .90391839 .42770497 -51.427 178.869)"/><g fill="#112c41"><ellipse cx="215.699" cy="93.264" rx="8.6" ry="13.016" transform="matrix(.5539729 -.8325347 .8325347 .5539729 18.562 221.174)"/><path d="M211.366 85.1a15.023 15.023 0 0 1 7.989 2.667c4.971 3.308 7.5 8.619 5.516 11.6-1.192 1.791-3.543 2.058-4.839 2.058a16.09 16.09 0 0 1-13.522-8.976c-.508-1.2-1.181-3.487.017-5.288s3.543-2.059 4.839-2.059m0-2c-2.805 0-5.194.983-6.5 2.951-2.631 3.954.088 10.388 6.073 14.371a16.862 16.862 0 0 0 9.1 3c2.806 0 5.194-.983 6.5-2.95 2.631-3.955-.088-10.389-6.073-14.371a16.861 16.861 0 0 0-9.1-3z"/><ellipse cx="201.551" cy="119.031" rx="9.104" ry="6.828" transform="matrix(.34021543 -.94034752 .94034752 .34021543 21.049 268.063)"/><path d="M181.025 146.913a2.935 2.935 0 0 1-3.44 3.07l-17.46-3.11-12.76-2.28a2.923 2.923 0 0 1-2.18-4.03 32.737 32.737 0 0 1 2.07-4c4.65-7.58 11.87-12 19.05-10.72 8.35 1.49 14.095 10.24 14.72 21.07z"/><path d="M178.1 151.029a3.968 3.968 0 0 1-.693-.062l-30.222-5.39a3.924 3.924 0 0 1-2.922-5.412 33.864 33.864 0 0 1 2.133-4.122c5.037-8.211 12.73-12.494 20.08-11.184 8.621 1.538 14.867 10.378 15.543 22a3.939 3.939 0 0 1-3.919 4.173zm-14.259-24.4c-5.811 0-11.677 3.839-15.738 10.459a31.861 31.861 0 0 0-2 3.875 1.892 1.892 0 0 0 .072 1.657 1.927 1.927 0 0 0 1.366.992L177.76 149a1.936 1.936 0 0 0 2.267-2.027c-.621-10.676-6.206-18.771-13.9-20.144a13.1 13.1 0 0 0-2.282-.203z"/></g><path d="m160.125 146.873-12.76-2.28a2.923 2.923 0 0 1-2.18-4.03 32.737 32.737 0 0 1 2.07-4 20.807 20.807 0 0 1 12.87 10.31z" fill="#ffa6e0"/><path d="M160.125 147.873a1.055 1.055 0 0 1-.176-.015l-12.76-2.281a3.924 3.924 0 0 1-2.922-5.412 33.864 33.864 0 0 1 2.133-4.122 1 1 0 0 1 1.141-.438 21.74 21.74 0 0 1 13.481 10.827 1 1 0 0 1-.9 1.441zm-12.414-10.117a31.755 31.755 0 0 0-1.609 3.2 1.892 1.892 0 0 0 .072 1.657 1.927 1.927 0 0 0 1.366.992l10.652 1.9a20.149 20.149 0 0 0-10.481-7.749z" fill="#112c41"/><circle cx="31.5" cy="106.445" fill="#ffd6c0" r="30.5"/><path d="M54.915 126.151a33.19 33.19 0 0 1-6.944 3.128c-15.966 5.387-33.359-3.775-38.742-19.732-3.535-10.469-.776-20.8 5.849-28.673C3.445 88.2-2.4 102.061 2.194 115.678a30.493 30.493 0 0 0 38.647 19.155c5.488-1.848 10.599-4.538 14.074-8.682z" fill="#f5b9ab"/><path d="M31.485 137.946a31.5 31.5 0 0 1-.518-63 31.61 31.61 0 0 1 31.9 28.582 1 1 0 0 1-1.992.183A29.5 29.5 0 0 0 2 106.945a29.5 29.5 0 0 0 29.995 29 31.465 31.465 0 0 0 22.169-10.454 1 1 0 1 1 1.494 1.33 33.527 33.527 0 0 1-23.629 11.124c-.179-.001-.362.001-.544.001z" fill="#112c41"/><path d="M48.815 111.862h-.062a1 1 0 0 1-.938-1.059 17.274 17.274 0 0 0-15.91-18.5 16.759 16.759 0 0 0-13.533 5.623 1 1 0 0 1-1.488-1.336 18.735 18.735 0 0 1 15.143-6.283 19.277 19.277 0 0 1 17.785 20.613 1 1 0 0 1-.997.942z" fill="#112c41"/><path d="M50.994 71.061C75.564 59.6 106.816 53.544 140.5 55.255a213.343 213.343 0 0 1 41.038 6.057 64.009 64.009 0 0 0-.385-27.517c.092.138.2.276.277.415a75.841 75.841 0 0 1 11.927 30.473c2.423.769 4.8 1.589 7.143 2.439 17.208 6.29 32.223 14.738 44.1 24.688a1.861 1.861 0 0 0 3.065-1.512 89.559 89.559 0 0 0-7.46-30.7C224.774 24.606 187.657.29 144.734 1.016a108.758 108.758 0 0 0-21.252 2.45C87.7 11.252 59.254 36.686 48.974 69.275a1.477 1.477 0 0 0 2.02 1.786z" fill="#fcaa51"/><path d="M50.994 71.061a155.865 155.865 0 0 1 19.894-7.628c9.343-28.912 34.695-51.454 66.523-58.373a98.06 98.06 0 0 1 32.87-1.446 109.117 109.117 0 0 0-46.8-.148C87.7 11.252 59.254 36.686 48.974 69.275a1.477 1.477 0 0 0 2.02 1.786z" fill="#ff9522"/><path d="M245.93 93.257a3.306 3.306 0 0 1-2.105-.792c-13.46-11.241-31.016-20.519-50.771-26.832a1 1 0 0 1-.682-.788 76.824 76.824 0 0 0-9.224-26.073 66.81 66.81 0 0 1-.631 22.733 1 1 0 0 1-1.225.777 212.238 212.238 0 0 0-40.838-6.028c-31.948-1.624-63.4 3.875-88.546 15.486a2.872 2.872 0 0 1-3.121-.333 2.674 2.674 0 0 1-.595-2.962C59.1 35.461 87.865 10.189 123.271 2.491A109.98 109.98 0 0 1 144.717.016a106.715 106.715 0 0 1 58.592 16.05A97.233 97.233 0 0 1 241.122 59.2a89.886 89.886 0 0 1 7.535 30.862 2.9 2.9 0 0 1-1.473 2.9 2.774 2.774 0 0 1-1.254.295zm-51.688-29.343c19.763 6.386 37.34 15.72 50.866 27.016a1.137 1.137 0 0 0 1.174.248c.371-.187.4-.7.379-1A87.885 87.885 0 0 0 239.292 60a95.24 95.24 0 0 0-37.043-42.24 104.611 104.611 0 0 0-57.5-15.746A107.764 107.764 0 0 0 123.7 4.446c-34.718 7.547-62.922 32.311-73.6 64.626-.063.19-.185.652.028.842a.937.937 0 0 0 .951.009c25.44-11.742 57.219-17.306 89.485-15.667a214.687 214.687 0 0 1 40.195 5.83 62.871 62.871 0 0 0-.571-26.051 1 1 0 0 1 1.79-.812 76.634 76.634 0 0 1 12.264 30.691z" fill="#112c41"/></svg></g><g transform="translate(755.0 1613.0) rotate(0.0 113.5 19.5) scale(0.5841542373055821 0.5945212579460052)"><svg width="388.596" height="65.599" viewBox="0 0 388.596 65.599"><ellipse cx="194.298" cy="32.799" fill="#cbc8ff" rx="194.298" ry="32.799"/></svg></g><g transform="translate(586.0 831.0) rotate(0.0 288.5 409.5) scale(0.9995686436875594 0.9989217986934736)"><svg width="577.249" height="819.884" viewBox="0 0 577.249 819.884"><path d="M54.753 706.149a834.548 834.548 0 0 0-1.894-39.063v-.219c-.009-.085-.008-.167-.012-.23-.957-13.314-1.872-26.241-2.766-37.521 0 0 93.649-3.349 143.823-11.414.695 12.583.488 23.253.674 36.591.324 22.93.539 42.514.539 42.514z" fill="#ffd6c0"/><path d="m65.075 619.932 5.418 85.33c-3.753 2.832-10.972 8.4-13.778 9.856-2.353-34.051-6.325-91.132-6.325-91.132z" fill="#f5b9ab"/><path d="M54.753 707.149a1 1 0 0 1-1-.975 827.524 827.524 0 0 0-1.891-39.018l-.007-.265a1.385 1.385 0 0 1-.008-.148l-.373-5.207C50.643 649.949 49.858 639 49.08 629.2a1 1 0 0 1 .962-1.079c.935-.033 94.161-3.439 143.7-11.4a1 1 0 0 1 1.157.932c.489 8.859.533 16.85.579 25.31.02 3.618.04 7.352.1 11.322.321 22.67.537 42.321.539 42.517a1 1 0 0 1-.934 1.008l-140.36 9.343zm-3.6-77.073c.751 9.548 1.511 20.133 2.313 31.317l.372 5.172v.118s.008.135.008.161l.005.221a827.274 827.274 0 0 1 1.867 38.018l138.382-9.211c-.047-4.189-.247-21.721-.528-41.565-.056-3.976-.076-7.716-.1-11.339-.044-8.08-.086-15.73-.517-24.1-47.04 7.4-131.441 10.811-141.799 11.208z" fill="#112c41"/><path d="M262.234 774.3C214.26 792.064 149.841 792.5 95.5 784a384.781 384.781 0 0 1-44.293-9.5s2.973-42.651 3.545-68.355l11.339-.723s128.682-8.512 129.021-8.619c10.058 4.889 55.845 30.053 67.122 77.497z" fill="#ffa9dc"/><path d="M51.208 774.5s2.973-42.651 3.545-68.355l14.047 1.64c2.382 22.345 5.572 57.314 16.507 74.676.115.182-20.63-4.167-34.099-7.961z" fill="#ff90d8"/><path d="M163.279 790.333a442.47 442.47 0 0 1-67.933-5.345 384.516 384.516 0 0 1-44.408-9.521 1 1 0 0 1-.727-1.032c.03-.426 2.977-42.923 3.542-68.308a1 1 0 0 1 .936-.976l11.339-.723c1.266-.083 126.584-8.374 128.942-8.611a1 1 0 0 1 .58.09c9.265 4.5 56.072 29.422 67.657 78.16a1 1 0 0 1-.626 1.169c-26.908 9.964-61.713 15.097-99.302 15.097zM52.262 773.761a384.1 384.1 0 0 0 43.394 9.252c61.312 9.584 123.045 6.086 165.4-9.346-11.845-47.722-59.641-72.653-66.155-75.853-2.64.215-19.322 1.372-128.739 8.61l-10.427.665c-.571 23.545-3.067 60.719-3.473 66.672z" fill="#112c41"/><path d="M175.632 792.315a2.5 2.5 0 0 1-2.3-1.519c-4.858-11.377-14.192-24.755-46.58-37.722-27.875-11.159-39.266-25.51-42.029-52.948a2.5 2.5 0 0 1 4.975-.5c2.574 25.564 12.757 38.336 38.912 48.808 27.113 10.854 41.863 22.936 49.321 40.4a2.5 2.5 0 0 1-2.3 3.482z" fill="#fff"/><path d="M266.066 797.133a4.932 4.932 0 0 1-1.822 4.175c-24.937 20.723-147.96 24.482-207.841 3.925-5.129-1.761-6.256-4.732-6.5-8.047l1.305-22.686c59.7 16.774 149.069 22.735 211.026-.206 2.03 7.756 3.596 15.629 3.832 22.839z" fill="#fff"/><path d="M161.523 819.889c-41.28 0-80.036-4.987-105.445-13.71-5.889-2.021-6.931-5.643-7.174-8.919a.969.969 0 0 1 0-.132l1.307-22.681a1 1 0 0 1 1.269-.9c57.481 16.151 147.843 22.984 210.408-.182a1 1 0 0 1 1.315.685c2.391 9.135 3.655 16.677 3.863 23.055a5.912 5.912 0 0 1-2.182 4.978c-11.874 9.866-46.908 16.638-91.432 17.672-3.991.088-7.976.134-11.929.134zM50.9 797.176c.247 3.156 1.344 5.574 5.825 7.112 61.814 21.22 183.255 15.881 206.876-3.748a3.953 3.953 0 0 0 1.462-3.374 102.2 102.2 0 0 0-3.523-21.549c-62.5 22.7-151.893 16.09-209.408.184z" fill="#112c41"/><path d="M54.753 706.145c42.337 7.059 102.642 2.034 140.36-9.338 0 0-.254-16.108-.449-36.161 0-.695-.016-1.4-.028-2.1s-.022-1.4-.026-2.115-.022-1.419-.033-2.136c-35.069 9.988-92.615 13.865-141.739 12.057 0 0 .007.1.007.284a1.418 1.418 0 0 0 .012.228v.22a827.638 827.638 0 0 1 1.896 39.061z" fill="#fff"/><g fill="#112c41"><path d="M99.036 710.369a276.358 276.358 0 0 1-44.447-3.238 1 1 0 0 1-.836-.962c-.327-13.1-.927-25.5-1.889-39.015a1.905 1.905 0 0 1-.007-.226 2.1 2.1 0 0 1-.011-.234c0-.188 0-.266-.006-.28a1 1 0 0 1 .283-.76.963.963 0 0 1 .752-.3c53.381 1.963 108.9-2.754 141.428-12.02a1 1 0 0 1 1.274.947l.033 2.135c0 .716.015 1.414.026 2.113s.023 1.414.028 2.112c.193 19.818.446 35.991.449 36.152a1 1 0 0 1-.711.973c-26.952 8.124-63.238 12.603-96.366 12.603zm-43.3-5.077c39.777 6.446 98.9 2.506 138.369-9.227-.052-3.42-.268-18.01-.437-35.409 0-.695-.016-1.395-.027-2.094s-.024-1.414-.027-2.126l-.013-.829c-32.652 9.025-87.147 13.63-139.712 11.782a839.461 839.461 0 0 1 1.843 37.903z"/><path d="M54.753 707.145a1 1 0 0 1-1-.975c-.327-13.1-.927-25.5-1.889-39.016a1.905 1.905 0 0 1-.007-.226 2.1 2.1 0 0 1-.011-.234c0-.188 0-.266-.006-.28a1 1 0 0 1 2-.129s.009.123.009.348a1.4 1.4 0 0 1 .011.215l-1 .087 1 .052c.967 13.576 1.569 26 1.9 39.133a1 1 0 0 1-.975 1.025zm140.36-9.338a1 1 0 0 1-1-.989s-.178-16.08-.449-36.158c0-.675-.015-1.351-.026-2.027-.013-.778-.025-1.484-.028-2.2l-.033-2.128a1 1 0 0 1 .986-1.015 1.019 1.019 0 0 1 1.014.986l.032 2.135c0 .716.016 1.416.027 2.115.013.754.024 1.436.028 2.111.271 20.074.449 36.155.449 36.155a1 1 0 0 1-.989 1.012z"/></g><circle cx="183.351" cy="725.425" fill="#ffe993" r="8.5"/><path d="M184.757 728.02c15.293-.586 31.431-9.287 35.945-13.938a2.832 2.832 0 1 0-4.065-3.945c-3.465 3.571-18.852 12.034-32.981 12.246a2.832 2.832 0 1 0 .082 5.663q.509-.006 1.019-.026z" fill="#fff"/><path d="M183.7 729.047a3.832 3.832 0 0 1-.055-7.664c13.852-.208 28.9-8.466 32.279-11.943a3.832 3.832 0 0 1 5.5 5.338c-4.644 4.786-20.855 13.637-36.625 14.241-.348.013-.7.023-1.044.027zm34.974-18.769a1.832 1.832 0 0 0-1.316.555c-3.546 3.655-19.285 12.333-33.682 12.55a1.832 1.832 0 1 0 .051 3.663c.331 0 .663-.013.995-.025 15.025-.575 30.945-9.182 35.267-13.634a1.831 1.831 0 0 0-1.315-3.108z" fill="#112c41"/><circle cx="200.896" cy="745.789" fill="#ffe993" r="8.5"/><path d="M202.378 748.341c15.269-1.039 32.138-12.215 36.513-17a2.832 2.832 0 1 0-4.18-3.823c-3.358 3.672-19.484 14.588-33.6 15.219a2.832 2.832 0 0 0 .249 5.658c.34-.012.679-.031 1.018-.054z" fill="#fff"/><path d="M201.233 749.4a3.832 3.832 0 0 1-.166-7.66c14.055-.628 29.82-11.521 32.906-14.895a3.832 3.832 0 0 1 5.656 5.173c-4.106 4.489-21.2 16.233-37.183 17.32q-.522.036-1.043.058c-.057.004-.114.004-.17.004zm35.567-21.8a1.827 1.827 0 0 0-1.353.6c-3.221 3.521-19.659 14.889-34.293 15.543a1.832 1.832 0 1 0 .16 3.66c.331-.014.663-.032.994-.055 15.426-1.049 31.891-12.354 35.843-16.675a1.831 1.831 0 0 0-1.351-3.073z" fill="#112c41"/><path d="M349.249 706.3a832.986 832.986 0 0 0-11.023-37.524l-.055-.211c-.029-.081-.047-.161-.066-.222-4.06-12.716-7.988-25.065-11.508-35.819 0 0 90.237-25.269 137.11-44.9 3.633 12.067 5.94 22.487 9.256 35.407 5.7 22.212 10.517 41.2 10.517 41.2z" fill="#ffd6c0"/><path d="m339.015 620.069 25.325 81.665c-2.982 3.635-8.69 10.743-11.076 12.819-10.29-32.544-27.569-87.092-27.569-87.092z" fill="#f5b9ab"/><path d="M349.249 707.3a1 1 0 0 1-.966-.741c-3.393-12.643-6.892-24.553-11.01-37.479l-.069-.26a1.278 1.278 0 0 1-.042-.137l-1.591-4.991c-3.53-11.062-6.865-21.509-9.925-30.857a1 1 0 0 1 .681-1.274c.9-.253 90.715-25.477 136.994-44.861a1 1 0 0 1 1.343.634c2.559 8.5 4.481 16.257 6.515 24.471.869 3.51 1.766 7.132 2.752 10.976a14749.284 14749.284 0 0 1 10.519 41.2 1 1 0 0 1-.671 1.2l-134.231 42.07a.982.982 0 0 1-.299.049zm-21.378-74.1c2.973 9.1 6.2 19.2 9.605 29.881l1.582 4.955.033.114c.009.025.04.131.046.156l.057.214c4 12.564 7.433 24.21 10.75 36.511l132.334-41.48a14857.28 14857.28 0 0 0-10.284-40.276c-.988-3.85-1.886-7.477-2.757-10.992-1.942-7.845-3.782-15.274-6.17-23.314-43.987 18.256-125.222 41.411-135.196 44.231z" fill="#112c41"/><path d="M566.937 723.765c-42.455 28.545-104.967 44.106-159.781 48.623a384.766 384.766 0 0 1-45.284 1.182s-7.137-42.156-12.623-67.273l10.851-3.369s123.077-38.522 123.38-38.706c10.92 2.385 61.343 16.078 83.457 59.543z" fill="#ffa9dc"/><path d="M361.872 773.57s-7.137-42.156-12.623-67.273l14.038-1.713c7.568 21.16 18.889 54.4 33.6 68.7.153.154-21.033.803-35.015.286z" fill="#ff90d8"/><path d="M374.194 774.792q-6.3 0-12.359-.223a1 1 0 0 1-.949-.832c-.071-.422-7.2-42.42-12.614-67.227a1 1 0 0 1 .681-1.168l10.851-3.369c1.211-.379 121.071-37.9 123.305-38.68a1.015 1.015 0 0 1 .585-.048c10.063 2.2 61.417 15.417 84.134 60.066a1 1 0 0 1-.333 1.284c-37.768 25.393-97.676 43.633-160.257 48.79-11.41.937-22.477 1.407-33.044 1.407zm-11.473-2.192a384.576 384.576 0 0 0 44.353-1.208c61.849-5.1 121.028-23.008 158.565-47.963-22.731-43.6-75.048-56.6-82.132-58.177-2.51.828-18.436 5.869-123.108 38.63l-9.978 3.1c4.984 23.018 11.296 59.735 12.3 65.618z" fill="#112c41"/><path d="M486.409 761.7a2.5 2.5 0 0 1-2.006-1c-7.4-9.916-19.614-20.726-54.143-25.716-29.717-4.294-44.162-15.565-53.3-41.584a2.5 2.5 0 1 1 4.718-1.656c8.511 24.242 21.411 34.262 49.3 38.292 28.9 4.177 46.081 12.453 57.435 27.674a2.5 2.5 0 0 1-2 4z" fill="#fff"/><path d="M576.028 745.059a4.931 4.931 0 0 1-.789 4.486c-19.367 26-138.06 58.576-201.094 52.671-5.4-.5-7.194-3.129-8.212-6.293l-4.061-22.353c61.967 2.271 150.236-12.944 205.065-49.805 3.794 7.057 7.168 14.341 9.091 21.294z" fill="#fff"/><path d="M390.4 803.916c-5.833 0-11.3-.231-16.349-.7-6.2-.581-8.064-3.856-9.07-6.983a1.14 1.14 0 0 1-.032-.128l-4.061-22.352a1 1 0 0 1 1.021-1.179c59.669 2.193 149.1-12.412 204.47-49.635a1 1 0 0 1 1.439.356c4.471 8.317 7.472 15.35 9.174 21.5a5.915 5.915 0 0 1-.951 5.351c-9.221 12.381-41.683 27.2-84.716 38.67-36.525 9.734-72.869 15.1-100.925 15.1zm-23.5-8.238c.981 3.009 2.616 5.1 7.333 5.543 65.073 6.1 181.853-27.64 200.2-52.273a3.95 3.95 0 0 0 .627-3.623 102.124 102.124 0 0 0-8.49-20.116c-55.414 36.761-143.853 51.341-203.5 49.4z" fill="#112c41"/><path d="M349.249 706.292c42.81-3.09 100.243-22.15 134.231-42.07 0 0-4.033-15.6-8.936-35.042-.168-.674-.344-1.355-.521-2.035s-.352-1.361-.523-2.049-.355-1.375-.534-2.07c-31.739 17.953-86.761 35.247-134.933 45.038 0 0 .03.1.074.274a1.413 1.413 0 0 0 .064.219c.02.076.032.146.057.213a837.618 837.618 0 0 1 11.021 37.522z" fill="#fff"/><path d="M349.248 707.292a1 1 0 0 1-.965-.741 833.902 833.902 0 0 0-11.008-37.478 1.617 1.617 0 0 1-.06-.217 1.987 1.987 0 0 1-.066-.228 5.545 5.545 0 0 0-.07-.266 1 1 0 0 1 .755-1.278c52.347-10.639 105.2-28.274 134.64-44.928a1 1 0 0 1 1.461.621l.533 2.068c.165.666.333 1.314.5 1.962l-.936.374.968-.251c.173.671.348 1.342.514 2.008a6578.444 6578.444 0 0 0 8.934 35.034 1 1 0 0 1-.463 1.113c-36.036 21.12-93.93 39.264-134.665 42.2zm-9.95-38.465c4 12.574 7.4 24.16 10.7 36.406 40.178-3.085 96.718-20.812 132.324-41.493a6860.26 6860.26 0 0 1-8.748-34.315c-.165-.662-.338-1.328-.51-1.994l-.032-.123c-.17-.655-.339-1.309-.5-1.972l-.207-.8c-29.617 16.443-81.508 33.728-133.025 44.291z" fill="#112c41"/><path d="M349.248 707.293a1 1 0 0 1-.965-.741 833.938 833.938 0 0 0-11.008-37.479 1.663 1.663 0 0 1-.06-.217 2.2 2.2 0 0 1-.066-.227 6.043 6.043 0 0 0-.071-.267 1 1 0 0 1 1.909-.6s.037.117.091.337a1.645 1.645 0 0 1 .061.2l.024.1c4.142 13.014 7.648 24.951 11.052 37.63a1 1 0 0 1-.707 1.225.974.974 0 0 1-.26.039zm134.232-42.071a1 1 0 0 1-.969-.754s-3.953-15.588-8.935-35.04c-.169-.677-.345-1.355-.521-2.032-.192-.743-.361-1.4-.526-2.06l-.529-2.061a1 1 0 0 1 1.937-.5l.533 2.068c.165.666.333 1.314.5 1.962.2.77.377 1.454.546 2.131 4.981 19.449 8.935 35.039 8.935 35.039a1 1 0 0 1-.97 1.245z" fill="#112c41"/><circle cx="478.775" cy="694.803" fill="#ffe993" r="8.5"/><path d="M480.751 697c14.727-4.164 28.368-16.414 31.662-22a2.832 2.832 0 0 0-4.878-2.879c-2.529 4.286-15.5 16.128-29.178 19.656a2.832 2.832 0 1 0 1.41 5.485q.494-.128.984-.262z" fill="#fff"/><path d="M479.056 698.351a3.833 3.833 0 0 1-.949-7.545c13.415-3.458 26.1-15.022 28.567-19.2a3.832 3.832 0 1 1 6.6 3.9c-3.389 5.743-17.065 18.157-32.251 22.451-.335.094-.672.185-1.008.271a3.839 3.839 0 0 1-.959.123zm30.922-26.619a1.836 1.836 0 0 0-1.582.9c-2.588 4.387-15.846 16.521-29.789 20.116a1.832 1.832 0 1 0 .911 3.549q.483-.125.961-.259c14.468-4.091 27.919-16.2 31.073-21.543a1.831 1.831 0 0 0-1.574-2.763z" fill="#112c41"/><circle cx="500.616" cy="710.472" fill="#ffe993" r="8.5"/><path d="M502.656 712.6c14.6-4.6 28.366-19.427 31.494-25.1a2.832 2.832 0 1 0-4.961-2.734c-2.4 4.359-15.509 18.76-29.081 22.691a2.832 2.832 0 1 0 1.572 5.442q.489-.141.976-.299z" fill="#fff"/><path d="M500.9 714.011a3.832 3.832 0 0 1-1.067-7.514c13.515-3.914 26.277-18.208 28.483-22.213a3.833 3.833 0 1 1 6.714 3.7c-2.936 5.329-16.786 20.761-32.07 25.576a33.87 33.87 0 0 1-1 .3 3.8 3.8 0 0 1-1.06.151zm30.777-29.707a1.836 1.836 0 0 0-1.609.948c-2.3 4.18-15.607 19.093-29.678 23.168a1.832 1.832 0 0 0 1.016 3.521c.318-.092.637-.188.953-.287 14.747-4.646 28.094-19.5 30.919-24.633a1.832 1.832 0 0 0-1.6-2.717z" fill="#112c41"/><path d="M464.087 588.464s-17.571 12.217-68.38 28.934a476.747 476.747 0 0 1-57.194 14.926h-.01a424.478 424.478 0 0 1-18.535 3.214 14.867 14.867 0 0 1-16.818-11.914c-6.328-33.311-24.045-122.794-48.962-218.851-31.529-121.552-58.012-199.832-58.012-199.832s.031-.238-.045 1c-.815 12.9-5.283 87.851-2.7 192.075 2.831 114.246.757 226.267.757 226.267s-39.413 8.224-81.551 10.318a444.634 444.634 0 0 1-46.78-.619 685.892 685.892 0 0 1-25.805-2.03 11.916 11.916 0 0 1-10.752-11.39c-1.883-45.692-9.355-232.452-10.2-329.55-.97-111.157-14.693-183.853 44.328-249.248C98.042 3.412 185.013-4.369 219.761 3.792c89.453 21.008 102.277 57.08 146.464 181.829 59.461 167.864 97.862 402.843 97.862 402.843z" fill="#b2b0f7"/><path d="M338.5 632.324a424.478 424.478 0 0 1-18.535 3.214 14.867 14.867 0 0 1-16.818-11.914c-6.328-33.311-24.045-122.794-48.962-218.851-31.529-121.552-58.427-188.981-58.427-188.981s.547-14.208.471-12.97c-.13-7.053.147-15.609 1.939-19.813 3.36-7.856 5.579-10.878 5.579-10.878s28.045 79.7 48.839 157.492c21.4 80.051 43.115 175.132 52.112 219.585s13.489 79.682 33.802 83.116z" fill="#9797f7"/><path d="M195.761 216.792a1 1 0 0 1-1-1c0-.586 0-1.253-.009-1.992-.064-10.863-.215-36.3 10.4-44.261a1 1 0 0 1 1.2 1.6c-9.81 7.352-9.662 32.087-9.6 42.649 0 .742.009 1.414.009 2a1 1 0 0 1-1 1.004z" fill="#112c41"/><path d="M56.761 95.792c-49.987 85.271-30.249 226.015-24 326 6 96 2.379 194.22 33.1 212.189a685.892 685.892 0 0 1-25.805-2.03A11.916 11.916 0 0 1 29.3 620.562c-1.885-45.692-19.539-233.77-23.539-328.77-3.179-75.488-13-134 9-186 19.474-46.03 56-79 93-93 25.907-9.8 53-11 78.626-11.5-34.676 8.166-95.626 36.5-129.626 94.5z" fill="#9797f7"/><path d="M317.177 637.182a15.821 15.821 0 0 1-15.553-12.894c-6.422-33.808-24.048-122.8-48.947-218.788-26.716-102.995-50.056-169.1-56.328-186.271-4.07 65.745-3.592 133.619-2.461 179.237 2.8 112.958 1.271 225.7 1.255 226.828a1 1 0 0 1-.81.968c-.4.077-40.463 7.738-82.19 9.812a438.476 438.476 0 0 1-46.889-.619 678.59 678.59 0 0 1-25.842-2.033 12.979 12.979 0 0 1-11.657-12.343c-.839-20.36-4.315-67.629-8.339-122.363-5.1-69.377-10.883-148.011-13.654-202.874-.749-14.821-1.715-28.906-2.65-42.528C-2.933 165.249-7.3 101.621 62.085 38.054c12.81-11.736 37.227-27.26 80.8-34.568 27.079-4.542 56.953-4.621 76.106-.2C264.431 13.768 289.9 28.41 309.832 55.5c20.547 27.933 35.75 70.854 56.792 130.259 58.81 166.027 98.06 400.192 98.45 402.537a1 1 0 0 1-.413.983c-.182.128-18.819 12.969-69.185 29.541a475.847 475.847 0 0 1-57.315 14.957.55.55 0 0 1-.069.011 426.844 426.844 0 0 1-18.519 3.21 16.12 16.12 0 0 1-2.396.184zm-120.61-423.121c.264.693 26.863 70.721 58.046 190.937 24.913 96.045 42.55 185.09 48.976 218.916a13.832 13.832 0 0 0 15.687 11.111c6.123-.922 12.345-2 18.49-3.207.023 0 .046-.008.07-.011a473.769 473.769 0 0 0 57.014-14.883c45.441-14.95 64.836-26.795 68.143-28.934-2.32-13.742-41.02-239.983-98.254-401.559-43.7-123.361-56.883-160.591-146.2-181.2-33.735-7.781-114.415-2.979-155.1 34.3C-5.239 102.444-.9 165.67 5.107 253.177c.935 13.631 1.9 27.725 2.652 42.564 2.77 54.84 8.551 133.459 13.651 202.829 4.026 54.75 7.503 102.03 8.343 122.43a10.971 10.971 0 0 0 9.854 10.435c8.674.848 17.343 1.53 25.766 2.027a437.079 437.079 0 0 0 46.672.618c38.331-1.9 75.261-8.543 81.109-9.628.134-10.435 1.406-118.088-1.265-225.933-1.147-46.248-1.622-115.36 2.624-181.968l.076-1.194c.03-.482.043-.726.048-.846a.944.944 0 0 1 0-.219 1.018 1.018 0 0 1 1.091-.886.818.818 0 0 1 .834.658z" fill="#112c41"/></svg></g><g transform="translate(1197.0 244.0) rotate(0.0 130.0 125.0) scale(0.9957984963442706 0.9923824721438239)"><svg width="261.097" height="251.919" viewBox="0 0 261.097 251.919"><path d="M238.485 140.209 261.1 124.02c-.123-2.5-.313-5.006-.59-7.524s-.636-5.007-1.059-7.472L234.016 98.2a99.9 99.9 0 0 0-8.62-19.209l8.709-26.191a123.544 123.544 0 0 0-10.148-11.145l-26.873 6.189a101.039 101.039 0 0 0-18.351-10.48l-8.325-26.309A122.312 122.312 0 0 0 155.671 8l-18.183 20.91a101.647 101.647 0 0 0-20.777 2.343L94.35 14.742a122.377 122.377 0 0 0-13.722 6.183l-2.446 27.9a101.082 101.082 0 0 0-15.067 13.809l-28.109-.207a123.864 123.864 0 0 0-7.484 13.084l14.57 24.305a99.925 99.925 0 0 0-3.982 19.537L15 135.9c.123 2.5.312 5 .589 7.524s.637 5.007 1.06 7.472l26.309 11.2a99.976 99.976 0 0 0 8.077 17.833l-9.043 27.191a123.4 123.4 0 0 0 10.148 11.145l27.978-6.443a101.043 101.043 0 0 0 16.913 9.683l8.657 27.36a122.368 122.368 0 0 0 14.738 3.054l18.759-21.573q5.026-.05 10.135-.6 4.826-.531 9.486-1.5l22.941 16.939a122.28 122.28 0 0 0 13.721-6.183l2.471-28.179a101.018 101.018 0 0 0 14.974-13.531l28.177.207a123.582 123.582 0 0 0 7.485-13.083l-14.358-23.95a99.936 99.936 0 0 0 4.268-20.257zM119.838 76.777l25.028-2.752 1.526 13.882a42.874 42.874 0 1 1-25.048 2.575z" fill="#cbc8ff"/><path d="M129.1 206.209c-47.421 0-86-39.028-86-87s38.579-87 86-87 86 39.028 86 87-38.583 87-86 87zm0-147.736c-33.106 0-60.038 27.246-60.038 60.736s26.932 60.736 60.038 60.736 60.037-27.246 60.037-60.736S162.2 58.473 129.1 58.473z" fill="#fff"/><path d="M247.1 117.02c-.123-2.5-.313-5-.59-7.524s-.636-5.007-1.059-7.472L220.016 91.2a99.9 99.9 0 0 0-8.62-19.209l8.709-26.191a123.544 123.544 0 0 0-10.148-11.145l-26.873 6.189a101.039 101.039 0 0 0-18.351-10.48l-8.325-26.31A122.312 122.312 0 0 0 141.671 1l-18.183 20.91a101.647 101.647 0 0 0-20.777 2.343L80.35 7.742a122.377 122.377 0 0 0-13.722 6.183l-2.446 27.9a101.033 101.033 0 0 0-15.067 13.809l-28.109-.207a123.864 123.864 0 0 0-7.484 13.084l14.57 24.305a99.925 99.925 0 0 0-3.982 19.537L1 128.9c.123 2.5.312 5 .589 7.524s.637 5.007 1.06 7.472l26.309 11.2a99.976 99.976 0 0 0 8.077 17.833l-9.043 27.191a123.4 123.4 0 0 0 10.148 11.145l27.978-6.443a101.043 101.043 0 0 0 16.913 9.683l8.657 27.359a122.177 122.177 0 0 0 14.738 3.055l18.759-21.573q5.026-.05 10.135-.6c3.217-.353 6.38-.861 9.486-1.5l22.941 16.939a122.28 122.28 0 0 0 13.721-6.183l2.471-28.179a100.963 100.963 0 0 0 14.974-13.531l28.177.208a123.7 123.7 0 0 0 7.485-13.084l-14.358-23.95a99.936 99.936 0 0 0 4.268-20.249zM132.83 200.1a77.935 77.935 0 1 1 68.951-85.985A78.024 78.024 0 0 1 132.83 200.1z" fill="#9797f7"/><path d="M106.426 245.919a.984.984 0 0 1-.143-.011 123.631 123.631 0 0 1-14.858-3.079 1 1 0 0 1-.69-.663l-8.523-26.935a102.255 102.255 0 0 1-16.305-9.331l-27.543 6.34a1 1 0 0 1-.922-.258 125.068 125.068 0 0 1-10.23-11.235 1 1 0 0 1-.169-.943l8.9-26.77a101.3 101.3 0 0 1-7.788-17.2l-25.9-11.023a1 1 0 0 1-.594-.751c-.45-2.625-.8-5.089-1.068-7.532S.132 131.6 0 128.949a1 1 0 0 1 .417-.863L23.161 111.8a101.3 101.3 0 0 1 3.844-18.854l-14.34-23.921a1 1 0 0 1-.039-.957 125.163 125.163 0 0 1 7.544-13.19.925.925 0 0 1 .844-.451l27.657.2a102.255 102.255 0 0 1 14.554-13.338l2.407-27.451a1 1 0 0 1 .529-.8A123.707 123.707 0 0 1 80 6.807a1 1 0 0 1 .948.13l22 16.243a103.4 103.4 0 0 1 10.252-1.658c3.251-.357 6.555-.561 9.829-.607L140.916.344a.993.993 0 0 1 .9-.334 123.6 123.6 0 0 1 14.858 3.08 1 1 0 0 1 .691.663l8.188 25.878A102.172 102.172 0 0 1 183.3 39.767l26.433-6.088a1.006 1.006 0 0 1 .922.257 124.97 124.97 0 0 1 10.23 11.236 1 1 0 0 1 .17.943l-8.567 25.764a101.212 101.212 0 0 1 8.337 18.578l25.014 10.643a1 1 0 0 1 .594.751c.443 2.58.8 5.114 1.068 7.532s.466 4.969.594 7.584a1 1 0 0 1-.416.862l-22.247 15.929a101.191 101.191 0 0 1-4.125 19.569l14.125 23.563a1 1 0 0 1 .039.957 125.157 125.157 0 0 1-7.545 13.189 1.1 1.1 0 0 1-.843.451l-27.731-.2a102.265 102.265 0 0 1-14.452 13.064l-2.432 27.73a1 1 0 0 1-.53.8 123.723 123.723 0 0 1-13.833 6.233 1 1 0 0 1-.948-.13l-22.587-16.677a101.98 101.98 0 0 1-9.141 1.428c-3.229.356-6.519.559-9.784.606l-18.465 21.234a1 1 0 0 1-.754.344zm-13.949-4.877a121.85 121.85 0 0 0 13.553 2.808l18.4-21.16a1 1 0 0 1 .745-.344 100.81 100.81 0 0 0 10.036-.6c3.1-.341 6.261-.841 9.393-1.488a1 1 0 0 1 .8.174l22.5 16.615a121.721 121.721 0 0 0 12.619-5.686l2.423-27.635a1 1 0 0 1 .4-.718 100.183 100.183 0 0 0 14.826-13.4 1.061 1.061 0 0 1 .749-.329l27.63.2a123.458 123.458 0 0 0 6.885-12.035l-14.076-23.472a1 1 0 0 1-.1-.821 99.2 99.2 0 0 0 4.226-20.046 1 1 0 0 1 .412-.709l22.167-15.871c-.127-2.385-.314-4.71-.557-6.92s-.565-4.52-.96-6.875l-24.923-10.61a1 1 0 0 1-.559-.608 99.158 99.158 0 0 0-8.535-19.019 1 1 0 0 1-.084-.818L218.983 46a122.752 122.752 0 0 0-9.334-10.252l-26.341 6.066a1 1 0 0 1-.808-.162 100.242 100.242 0 0 0-18.169-10.377 1 1 0 0 1-.552-.614L155.62 4.877a121.908 121.908 0 0 0-13.553-2.809l-17.825 20.5a1 1 0 0 1-.745.344 101.38 101.38 0 0 0-10.081.6 100.917 100.917 0 0 0-10.492 1.719 1.008 1.008 0 0 1-.807-.172L80.195 8.871a121.763 121.763 0 0 0-12.619 5.686l-2.4 27.352a1 1 0 0 1-.4.714A100.274 100.274 0 0 0 49.862 56.3a.924.924 0 0 1-.754.335l-27.563-.2a123.009 123.009 0 0 0-6.884 12.035L28.95 92.3a1 1 0 0 1 .1.811 99.247 99.247 0 0 0-3.95 19.343 1 1 0 0 1-.412.712L2.027 129.394c.127 2.411.31 4.68.556 6.919s.561 4.49.96 6.876l25.806 10.983a1 1 0 0 1 .556.6 99.229 99.229 0 0 0 8 17.654 1 1 0 0 1 .083.815l-8.871 26.676a123.038 123.038 0 0 0 9.334 10.252l27.446-6.321a1 1 0 0 1 .8.159 100.247 100.247 0 0 0 16.746 9.587 1 1 0 0 1 .542.61zm31.777-39.474a78.971 78.971 0 1 1 8.686-.477 79.045 79.045 0 0 1-8.686.477zm.117-155.878a77.336 77.336 0 0 0-8.465.465 76.894 76.894 0 1 0 8.465-.465z" fill="#112c41"/><path d="M116.648 52.908a70.141 70.141 0 1 0 77.387 62.055 70.221 70.221 0 0 0-77.387-62.055zm12.085 112.659a42.865 42.865 0 0 1-21.389-82.085l-1.506-13.7 25.028-2.752 1.526 13.882a42.869 42.869 0 0 1-3.659 84.66z" fill="#9797f7"/><path d="M124.26 193.774a71.146 71.146 0 0 1-7.721-141.861l.109.994-.109-.994a71.142 71.142 0 1 1 7.721 141.861zm.1-140.291a69.144 69.144 0 1 0 68.676 61.59 69.317 69.317 0 0 0-68.671-61.59zm-.4 113.346a43.875 43.875 0 0 1-43.516-39.076 44.14 44.14 0 0 1 25.823-44.9l-1.426-12.97a1 1 0 0 1 .884-1.1l25.028-2.752a1 1 0 0 1 1.1.885l1.447 13.159a43.869 43.869 0 0 1-4.464 86.486 44.741 44.741 0 0 1-4.873.268zm-17.019-96.167 1.4 12.71a1 1 0 0 1-.6 1.031 42.117 42.117 0 0 0-25.3 43.131 41.865 41.865 0 0 0 46.188 37.039 41.869 41.869 0 0 0 3.571-82.685 1 1 0 0 1-.8-.872l-1.417-12.887z" fill="#112c41"/></svg></g><g transform="translate(508.0 295.0) rotate(0.0 33.0 63.5) scale(0.9730638241408289 0.9831547655911316)"><svg width="67.827" height="129.176" viewBox="0 0 67.827 129.176"><g fill="#cbc8ff"><path d="M38.8 94.854a7.8 7.8 0 0 1-11.47-6.062c-1.809-17.689 7.293-28.9 14.607-37.909 7.41-9.128 11.148-14.29 8.386-22.861-3.049-9.466-11.252-12.047-17.913-11.3-7.294.811-15.024 5.732-15.851 14.9a7.8 7.8 0 0 1-15.528-1.4c1.38-15.28 13.573-27.2 29.655-28.992C46.5-.538 60.355 8.311 65.164 23.241 70.646 40.257 61.439 51.6 54.041 60.71c-6.629 8.165-12.354 15.218-11.2 26.5a7.8 7.8 0 0 1-4.041 7.644z"/><path d="M35.069 96.8a8.8 8.8 0 0 1-8.733-7.9c-1.851-18.1 7.394-29.488 14.823-38.64 7.387-9.1 10.821-13.83 8.213-21.925-2.864-8.899-10.583-11.323-16.851-10.625-6.889.767-14.189 5.39-14.965 13.99a8.8 8.8 0 0 1-15.513 4.848 8.737 8.737 0 0 1-2.007-6.425C1.459 14.364 14.018 2.071 30.576.228c16.3-1.817 30.581 7.312 35.54 22.707 5.648 17.531-3.748 29.105-11.3 38.4-6.491 8-12.1 14.9-10.984 25.766a8.777 8.777 0 0 1-4.557 8.628 8.744 8.744 0 0 1-3.3 1.016 8.973 8.973 0 0 1-.906.055zm-.492-81.2c6.548 0 13.806 3.138 16.7 12.119 2.914 9.046-1.142 14.658-8.562 23.8-7.2 8.868-16.155 19.9-14.389 37.177a6.8 6.8 0 0 0 10 5.286 6.782 6.782 0 0 0 3.521-6.667c-1.2-11.691 4.651-18.892 11.42-27.23 7.246-8.925 16.263-20.032 10.947-36.531C59.553 9.083 46.124.514 30.8 2.215 15.2 3.952 3.364 15.5 2.028 30.3a6.8 6.8 0 1 0 13.536 1.221C16.442 21.8 24.6 16.579 32.3 15.723a20.561 20.561 0 0 1 2.277-.123z"/><circle cx="36.113" cy="117.389" r="10.784"/><path d="M36.13 129.172A11.783 11.783 0 1 1 46.88 112.6a11.783 11.783 0 0 1-10.75 16.57zm-.021-21.572a9.79 9.79 0 1 0 8.943 5.814 9.8 9.8 0 0 0-8.943-5.814z"/></g></svg></g><g transform="translate(388.0 516.0) rotate(0.0 367.5 246.0) scale(0.9993201903467029 0.9980627034922052)"><svg width="735.5" height="492.955" viewBox="0 0 735.5 492.955"><path d="M220.613 358.329s65-10 72 11-22 23-22 23z" fill="#ffd6c0"/><path d="M270.613 393.329a1.012 1.012 0 0 1-.563-.173l-50-34a1 1 0 0 1 .411-1.816c2.688-.413 65.916-9.88 73.1 11.672 1.848 5.543 1.452 10.343-1.176 14.268-5.935 8.861-21.062 10-21.7 10.046zm-47.289-34.366L270.88 391.3c2.231-.219 14.918-1.774 19.846-9.138 2.263-3.383 2.579-7.6.938-12.518-3.428-10.284-22.373-12.578-37.662-12.691a238.272 238.272 0 0 0-30.678 2.01z" fill="#112c41"/><path d="M668.214 284.207A240.184 240.184 0 0 1 639.5 296.2c-28.994 10.044-56.544 14.039-61.213 9.592-6.227-5.94-17.419-19.639-17.133-21.619.249-1.773-267.829-48.837-324.065-60.887-6.694-1.434-6.588-11.9-6.588-11.9s-.776.166-2.249.427a195 195 0 0 1-31.888 2.41c-21.214.024-45.519-49.286-58.5-100.216-4.543-17.814-15.764-66.874 4.736-76.085a69.267 69.267 0 0 1 9.593-2.934c7.228-1.816 17.993-4.04 31.761-6.1 41.181-6.177 109.276-10.977 190.127.675h.01a682.3 682.3 0 0 1 67.383 13.169q18.886 4.7 38.283 10.715 10.842 3.382 21.111 6.916c113.349 38.9 176.171 90.128 207.3 124.523 13.339 14.751 20.865 26.394 24.039 32.661 11.052 21.76-21.591 45.408-63.993 66.66z" fill="#ffe993"/><path d="M586.386 241.62c-9.21 64.87-55.23 115.832-115.157 136.446a184.437 184.437 0 0 1-86.143 8.067c-90.628-12.853-155.941-88.319-154.593-173.841 0-.3 0-.6.011-.906" fill="#ffe993"/><path d="M411.369 388.985a188.1 188.1 0 0 1-26.424-1.862c-89.992-12.763-156.822-87.93-155.452-174.847 0-.288 0-.6.012-.913a1 1 0 0 1 2 .047c-.007.29-.014.581-.011.872-1.354 85.937 64.737 160.239 153.733 172.86a184.583 184.583 0 0 0 85.673-8.022c61.763-21.244 105.634-73.22 114.5-135.64a1 1 0 1 1 1.98.281c-8.968 63.17-53.349 115.761-115.821 137.25a185.178 185.178 0 0 1-60.19 9.974z" fill="#112c41"/><path d="M471.408 377.765s-.064.1-.179.3a184.437 184.437 0 0 1-86.143 8.067c-90.628-12.853-155.941-88.319-154.593-173.841l1-.783.144-.022 18.972-3.158s9-2 9 1c0 12.725 1.058 52.122 20.107 84.73 24.111 41.276 59 68.77 101.057 79.015s90.635 4.692 90.635 4.692zM374.082 29.559c-12.649.6-61.881-1.524-111.661 5.412-48.683 6.79-70.978 20.434-76.137 22.959-.932.449-1.356.7-1.356.7l-32.734-23.642c7.228-1.816 17.993-4.04 31.761-6.1 41.181-6.181 109.276-10.981 190.127.671z" fill="#ffd169"/><path d="M235.712 210.016c-4.561.785-23.321 4.186-39.345 4.207-21.214.024-45.519-49.286-58.5-100.216-4.546-17.814-15.767-66.874 4.733-76.085 3.81-1.715 18.406-5.591 41.354-9.038 15.952 13.825 30.8 37.555 41.208 71 13.697 44.016 15.338 82.944 10.55 110.132zm432.502 74.191A240.184 240.184 0 0 1 639.5 296.2l-61.537-50.866s24.149-32.278 73.864-51.314c24.5-9.381 43.308-10.417 56.34-9.137 13.339 14.751 20.865 26.394 24.039 32.661 11.053 21.763-21.59 45.411-63.992 66.663z" fill="#fff"/><g fill="#112c41"><path d="M194.869 204.022c-2.016.657-4.534-.491-7.376-3.17-.723-.674-1.443-1.448-2.2-2.308q-1.232-1.407-2.516-3.123c-9.044-12.083-20.093-35.558-29.168-63.5-8.713-26.8-13.525-51.341-13.709-66.619-.011-.646 0-1.28 0-1.884.113-7.987 1.65-13.077 4.726-14.076 2.739-.88 6.4 1.557 10.537 6.614q.869 1.046 1.748 2.242c9.024 12.161 19.978 35.514 28.979 63.24 8.647 26.6 13.459 50.98 13.7 66.285.03 1.384.018 2.7-.042 3.925-.019.391-.037.781-.064 1.161-.403 6.334-1.917 10.338-4.615 11.213z"/><path d="M193.7 205.2c-2.026 0-4.338-1.213-6.9-3.625-.663-.618-1.363-1.351-2.267-2.373a53.295 53.295 0 0 1-2.566-3.186c-9.515-12.712-20.475-36.56-29.319-63.8-8.415-25.899-13.558-50.916-13.748-66.907-.009-.544 0-1.083 0-1.6v-.3c.124-8.842 1.946-13.893 5.416-15.02 3.124-1.005 7.032 1.328 11.619 6.932.581.7 1.182 1.469 1.78 2.283 9.463 12.752 20.352 36.5 29.125 63.523 8.357 25.712 13.5 50.6 13.749 66.579a57.343 57.343 0 0 1-.043 3.989c-.022.451-.039.822-.065 1.183-.445 7.028-2.229 11.1-5.3 12.1a4.742 4.742 0 0 1-1.481.222zM145.777 50.161a2.765 2.765 0 0 0-.847.128c-2.491.809-3.924 5.476-4.031 13.138v.294c0 .505-.008 1.028 0 1.56.191 15.806 5.3 40.6 13.66 66.326 8.78 27.037 19.627 50.669 29.018 63.215a51.71 51.71 0 0 0 2.467 3.063c.857.969 1.516 1.659 2.133 2.236 2.6 2.447 4.8 3.465 6.384 2.951 2.152-.7 3.546-4.367 3.923-10.33a55.139 55.139 0 0 0 .105-5.001c-.25-15.8-5.353-40.465-13.652-66-8.71-26.829-19.488-50.362-28.831-62.953a48.522 48.522 0 0 0-1.714-2.2c-3.434-4.188-6.445-6.427-8.615-6.427z"/><path d="M586.914 308.251c-4.151 0-7.588-.555-9.192-2.082-5.124-4.887-17.847-19.621-17.434-22.486a1 1 0 1 1 1.98.286c.2 1.8 10.131 14.358 16.834 20.753 5.75 5.473 51.792-3.211 88.785-21.756 38.571-19.331 59.689-35.915 64.558-50.7a18.466 18.466 0 0 0-1.006-14.616c-6.883-13.56-26.378-38.789-58.67-65.265C627.73 115.457 569.826 84.7 500.665 60.959a763.278 763.278 0 0 0-21.083-6.907 682.458 682.458 0 0 0-38.227-10.7 694.782 694.782 0 0 0-203.766-19.204c-53.917 3.035-88.579 11.7-94.457 14.339-18.183 8.172-10.42 50.451-4.175 74.925 12.291 48.224 36.624 99.465 57.516 99.465h.014c20.857-.024 33.7-2.448 33.829-2.473a1 1 0 0 1 .378 1.964c-.129.025-13.139 2.485-34.2 2.509h-.016c-22.139 0-46.664-50.785-59.455-100.97-7.823-30.64-13.251-68.907 5.289-77.244 5.964-2.682 40.969-11.461 95.165-14.512a696.775 696.775 0 0 1 204.36 19.261 681.135 681.135 0 0 1 38.34 10.73 778.822 778.822 0 0 1 21.139 6.926c69.385 23.815 127.5 54.691 172.721 91.771 20.332 16.67 48.032 43.933 59.185 65.906a20.4 20.4 0 0 1 1.123 16.147c-5.045 15.316-26.49 32.28-65.562 51.862a257.709 257.709 0 0 1-56.637 20.007c-4.62 1.039-16.504 3.49-25.232 3.49z"/><path d="M411.841 388.942a190.41 190.41 0 0 1-26.766-1.9c-44.083-6.256-84.145-27.491-112.808-59.793-28.541-32.166-43.772-72.969-42.885-114.893a1.023 1.023 0 0 1 1.021-.979 1 1 0 0 1 .978 1.021c-.875 41.419 14.176 81.736 42.382 113.523 28.348 31.948 67.979 52.951 111.593 59.14 47.083 6.682 93.834-4.588 131.645-31.732s62.133-66.886 68.525-111.932a1 1 0 0 1 1.98.282c-6.469 45.591-31.1 85.819-69.339 113.275a181.647 181.647 0 0 1-106.326 33.988zm308.695-154.166c-9.822 10.929-32.327 26.312-60.089 40.263-24.993 12.564-48.36 21-63.449 23.559a63.782 63.782 0 0 1-3.892.55c-6.969.769-11.59-.072-12.942-2.756-.95-1.9-.193-4.553 2.025-7.768.556-.816 1.213-1.651 1.95-2.534 9.245-10.973 32.336-26.941 61.071-41.38 25.183-12.659 48.708-21.127 63.784-23.616 8.945-1.483 14.922-.854 16.49 2.26 1.291 2.579-.572 6.565-4.948 11.422z"/><path d="M588.608 300.42c-5 0-8.138-1.2-9.337-3.578-1.107-2.211-.4-5.166 2.1-8.785.514-.754 1.152-1.584 2-2.607 9.724-11.541 33.246-27.493 61.39-41.634 24.356-12.243 48.307-21.107 64.07-23.709 9.884-1.637 15.787-.7 17.546 2.8 1.47 2.937-.245 7.155-5.1 12.541-10.253 11.409-33.391 26.923-60.383 40.488-24.143 12.136-47.968 20.978-63.73 23.651-1.43.243-2.76.431-3.954.558a42.067 42.067 0 0 1-4.602.275zm128.411-79.082a49.124 49.124 0 0 0-7.861.742c-15.576 2.572-39.313 11.365-63.5 23.523-27.5 13.815-51.343 29.96-60.757 41.132-.807.968-1.408 1.748-1.887 2.452-2.026 2.936-2.7 5.271-1.958 6.757 1.085 2.155 5.325 2.94 11.938 2.21a63.624 63.624 0 0 0 3.835-.542c15.577-2.641 39.191-11.414 63.167-23.467 26.784-13.46 49.7-28.8 59.794-40.038 4.127-4.58 5.83-8.239 4.8-10.3-.82-1.633-3.475-2.469-7.571-2.469z"/></g><path d="M292.613 394.329c-18.959-20.991-56.811-36.009-65.538-41.291-27.184-16.465-56.754-36.22-72.462-71.709-12.287-27.761-18.876-74.179 28.161-85.908a101.833 101.833 0 0 1 16.708-2.617c.028-.38.045-.77.064-1.161.06-1.222.072-2.541.042-3.925-.241-15.3-5.052-39.681-13.7-66.285-9-27.726-19.956-51.079-28.98-63.24a384.813 384.813 0 0 0-17.011 5.22c-21.255 7.032-86.285 26.916-116.285 83.916-32.4 61.563-24.813 143.879 6 188s50 65 84 92c35.2 27.95 67 39 85 45 25.456 8.485 33 20 43 20 16 0 14-16 14-16s4.591 6.618 16 4c9.936-2.287 17-21 2-52 28.001 17 47.001-3 19.001-34z" fill="#ffd6c0"/><path d="M510.831 86.19c-4.955 13.483-28.09 17.39-51.674 8.727S420.451 68.32 425.4 54.835c2.222-6.063 8.123-10.179 16.08-12.106q18.886 4.7 38.283 10.715 10.842 3.382 21.111 6.916c8.766 8.26 12.892 17.83 9.957 25.83z" fill="#112c41"/><path d="M483.507 100.491a72.473 72.473 0 0 1-24.695-4.636c-24.069-8.828-39.481-27.384-34.356-41.364 2.249-6.135 8.209-10.657 16.783-12.734a.987.987 0 0 1 .477 0 681.135 681.135 0 0 1 38.34 10.73 768.666 768.666 0 0 1 21.138 6.926 1 1 0 0 1 .36.217c9.487 8.934 13.21 18.739 10.215 26.9-3.312 9.02-14.369 13.961-28.262 13.961zm-42.034-56.732c-7.773 1.941-13.148 5.987-15.139 11.421-4.746 12.944 10.133 30.349 33.167 38.8s45.635 4.811 50.391-8.133c2.65-7.223-.921-16.411-9.553-24.61-6.677-2.3-13.7-4.6-20.878-6.837a681.31 681.31 0 0 0-37.988-10.641z" fill="#112c41"/><path d="M707.613 356.329c-53 62.425-145.417 25.43-175-14-30.562-40.735-43.322-88.828-45.355-129.385s3.119-90.3-5.076-97.361a22.793 22.793 0 0 0-9.569-5.254c-5.651-1.486-9.118-3.839-16-9-24-18-13-33-13-33s-7.793-11.57-4-23c3.213-9.679 8-10 8-10s-15-19-5-31c8.094-9.713 32.5 5.584 49.625 13.75s45.152 19.077 63.375 10.25c16.743-8.115 28.444-26.206 38-22 11.324 4.979 3.344 28.317 1 51-2.628 25.422-.791 49.386 1 87 2 42 3 82 37.059 106.77 20.576-11.559 34.17-18.4 47.107-22.382s32.239-8.1 32.239-8.1 40.595 82.712-4.405 135.712z" fill="#ffd6c0"/><path d="M477.614 55.329a1.021 1.021 0 0 1-.2-.02 49.352 49.352 0 0 1-30.6-19.38 1 1 0 0 1 1.6-1.2 47.407 47.407 0 0 0 29.4 18.62 1 1 0 0 1-.2 1.981zm-15.001 27a1.009 1.009 0 0 1-.275-.039c-7.681-2.194-13.58-4.44-19.557-13.407a1 1 0 1 1 1.664-1.109c5.612 8.418 10.946 10.451 18.442 12.593a1 1 0 0 1-.274 1.962zM226.411 212.887a1 1 0 0 1-.139-1.99c2.585-.365 5.191-.815 7.711-1.25 10.079-1.739 20.5-3.538 31.9-.28a1 1 0 0 1-.549 1.923c-10.965-3.133-20.7-1.451-31.015.328-2.535.438-5.156.89-7.772 1.259a.951.951 0 0 1-.136.01zm430.335 48.238a.974.974 0 0 1-.2-.02c-13.648-2.766-20.777-5.187-29.6-13.029a1 1 0 0 1 1.329-1.5c8.475 7.534 15.392 9.874 28.667 12.564a1 1 0 0 1-.2 1.98z" fill="#112c41"/><path d="M177.613 464.329c-13.732-6.043-32-15-59-33-17.151-11.435-61.792-43.978-92-99-28-51-34.943-117.2-5-180 9.047-18.952 28.861-43.116 47.414-55.591-17.334 26.471-48.185 90.381-44.414 137.591 7.006 87.725 34.11 122.067 55 147 31 37 79 73 96 82 0 0 1.987.998 2 1zm544-131c-2.24 3.36-8.214 16.128-10.881 19.394-51.119 62.606-148.119 35.606-187.119-9.394-31.709-36.587-44.968-91.444-47-132s5.764-92.686-2.431-99.746c-2.8-2.412-8.588-6.207-12.569-7.254 9.9-1.122 25 2.59 25 31 0 55 7.245 113.281 28 159 21.2 46.7 68.552 76.259 119 76 31.256-.161 65-14 88-37z" fill="#f5b9ab"/><path d="M631.376 390.972h-1.072c-45.061-.379-89-24.5-107.465-47-27.692-33.75-43.58-77.342-47.224-129.565-1.221-17.5-.578-37.117-.01-54.425.772-23.544 1.5-45.783-3.507-48.787-1.271-.763-3.146-1.736-5.317-2.864-6.316-3.28-14.966-7.773-18.924-12.339-10.707-12.337-6.558-24.708-5.4-27.518a27.988 27.988 0 0 1-4.846-16.136c0-10.868 5.933-15.722 8.476-17.3a48.73 48.73 0 0 1-6.361-10.913c-3.645-8.973-2.532-16.419 3.22-21.532 7.789-6.923 23.762 1.356 39.208 9.363 3.592 1.862 6.984 3.62 10.251 5.177 18.4 8.772 39.9 16.967 59.931 11.246 7.466-2.133 13.073-7.789 18.5-13.259 7.124-7.187 13.853-13.973 23.2-9.689 9.569 4.39 7.218 20.333 4.5 38.793-.688 4.667-1.4 9.493-1.92 14.226-2.393 21.72-2.392 54.331 0 91.827q.26 4.072.49 8.138c2.044 34.911 3.973 67.9 35.386 91.451 19.423-10.9 33.343-18.026 46.736-22.147 12.831-3.948 32.132-8.082 32.325-8.123a1 1 0 0 1 1.106.536 194.935 194.935 0 0 1 14.887 48.268c4.222 25.132 4.324 60.9-19.171 88.571-18.895 22.258-45.504 34.001-76.999 34.001zM450.617 2.013a9.215 9.215 0 0 0-6.34 2.063c-5.133 4.563-6.041 11.051-2.7 19.284a47.246 47.246 0 0 0 6.793 11.321 1 1 0 0 1-.358 1.563c-.341.152-8.4 3.9-8.4 16.085a25.775 25.775 0 0 0 4.769 15.361 1.006 1.006 0 0 1 .123 1.091c-.265.524-6.348 12.975 4.863 25.892 3.708 4.278 12.162 8.668 18.335 11.874 2.2 1.143 4.1 2.13 5.424 2.924 6.016 3.609 5.37 23.306 4.477 50.567-.566 17.261-1.207 36.824.006 54.221 3.614 51.8 19.352 95.012 46.776 128.435 18.176 22.153 61.482 45.9 105.935 46.273 31.341.233 57.816-11.246 76.529-33.286l.763.648-.763-.648c22.986-27.071 22.874-62.2 18.732-86.894a195.009 195.009 0 0 0-14.388-47.08c-3.723.811-20.091 4.437-31.382 7.911-13.352 4.108-27.311 11.287-46.911 22.3a1 1 0 0 1-1.084-.067c-32.663-24.138-34.63-57.747-36.712-93.329q-.237-4.059-.49-8.128c-2.4-37.607-2.4-70.341 0-92.173.525-4.769 1.239-9.614 1.93-14.3C599.044 26.992 601.4 11 593.2 7.238c-8.076-3.705-14.038 2.312-20.943 9.278-5.342 5.389-11.4 11.5-19.366 13.774-20.668 5.906-42.606-2.43-61.341-11.363-3.3-1.572-6.7-3.338-10.31-5.207-10.751-5.572-22.588-11.707-30.623-11.707zM242.16 492.955q-.468 0-.95-.025c-8.964-.471-14.46-3.91-21.418-8.264a119.619 119.619 0 0 0-30.48-14.384c-19.616-6.194-51.565-25-68.254-36.121-37.376-24.918-69.776-59.677-96.3-103.313C-7.751 277.365-8.38 206.964 23.117 147.12c29.272-55.62 91.401-76.033 114.79-83.72l2.067-.68a382.796 382.796 0 0 1 17.053-5.233 1 1 0 0 1 1.074.367c9.466 12.754 20.354 36.5 29.128 63.526 8.357 25.712 13.5 50.6 13.748 66.579a56.67 56.67 0 0 1-.043 3.989v.1c-.017.364-.035.728-.06 1.082a1 1 0 0 1-.919.925 101.42 101.42 0 0 0-16.543 2.59c-15.279 3.81-25.9 11.617-31.566 23.2-11.236 22.975.279 52.75 4.075 61.329 17 38.413 49.246 59.051 72.019 71.232l1.689.9c14.507 7.755 44.692 23.894 52 29.517 26.768 20.583 28.516 41.328 23.5 47.86-4.8 6.258-16.108 8.151-29.156.521 12.817 26.881 6.5 43.684-1.209 48.544-3.945 2.483-10.989 3.4-18.4-1.666-.345 2.777-1.482 8.051-5.219 11.534a12.706 12.706 0 0 1-8.985 3.339zM156.9 59.6a383.895 383.895 0 0 0-16.3 5.017l-2.073.682c-23.179 7.617-84.749 27.85-113.644 82.751-31.172 59.226-30.566 128.871 1.58 181.757 26.371 43.384 58.569 77.933 95.7 102.687 16.594 11.063 48.33 29.748 67.747 35.879a121.426 121.426 0 0 1 30.939 14.6c6.975 4.365 12.015 7.519 20.462 7.963a11.079 11.079 0 0 0 8.465-2.769c4.546-4.237 4.732-11.879 4.734-11.956a1 1 0 0 1 1.619-.767c7.117 5.617 13.909 4.925 17.562 2.625 7.108-4.479 13.092-21.787-1.11-49.164a1 1 0 0 1 1.454-1.284c9.816 6.751 23.49 9.695 29.5 1.859 4.446-5.794 2.2-25.576-23.135-45.057-7.177-5.523-38.393-22.212-51.722-29.339l-1.69-.9c-23.034-12.321-55.653-33.209-72.9-72.186-3.885-8.779-15.658-39.266-4.042-63.018 5.938-12.142 17-20.306 32.877-24.265a102.157 102.157 0 0 1 16-2.572c0-.06 0-.12.008-.18v-.1c.058-1.163.072-2.46.042-3.855-.249-15.8-5.352-40.465-13.651-66C176.743 95.56 166.151 72.321 156.9 59.6z" fill="#112c41"/><path d="M273.471 429.442a1 1 0 0 1-.835-.448c-8.41-12.711-21.238-21.649-30.438-25.776a1 1 0 1 1 .818-1.825c9.457 4.242 22.642 13.43 31.288 26.5a1 1 0 0 1-.833 1.552zm-17.962 47.788a1 1 0 0 1-1-.953c-.746-15.816-13.284-36.057-35.807-44.14a1 1 0 1 1 .675-1.883c23.35 8.38 36.353 29.449 37.129 45.929a1 1 0 0 1-.951 1.046z" fill="#112c41"/></svg></g></svg>