<svg xmlns="http://www.w3.org/2000/svg" viewBox="0 0 1800 1800" width="1800" height="1800"><g transform="translate(238.0 1584.0) rotate(0.0 365.5 26.5) scale(1.154818325434439 1.1521739130434783)"><svg width="633" height="46" viewBox="0 0 633 46"><ellipse cx="316.5" cy="23" fill="#cbc8ff" rx="316.5" ry="23"/></svg></g><g transform="translate(969.0 127.0) rotate(0.0 333.5 741.5) scale(1.0415105181631938 1.0419923624700067)"><svg width="640.416" height="1423.235" viewBox="0 0 640.416 1423.235"><path d="M637.822 1384.593a37.633 37.633 0 0 1-37.635 37.642H269.082V591.826l149.773-441.138h181.118c20.783 0 37.631 16.846 37.635 37.628z" fill="#9696f6"/><path d="M600.187 1423.235H268.082V591.66l.053-.156 150.004-441.816h181.835c21.3 0 38.631 17.329 38.635 38.629l.214 1196.276c.001 10.321-4.018 20.025-11.314 27.323-7.298 7.299-17.001 11.319-27.322 11.319zm-330.105-2h330.105c9.787 0 18.988-3.812 25.907-10.732s10.729-16.122 10.729-25.909l-.214-1196.276c-.004-20.197-16.438-36.629-36.635-36.629H419.573l-149.49 440.303v829.243z" fill="#112c41"/><path d="M309.174 1422.235H32.152c-17.162 0-31.074-13.912-31.074-31.074v-749.93c0-4.712.885-9.382 2.608-13.767l178.01-452.904a37.636 37.636 0 0 1 35.027-23.868h292.451c-7.348.796-11.768 3.609-14.446 11.047L309.174 634.404z" fill="#cac7ff"/><path d="M309.173 1423.235H32.152c-17.686 0-32.074-14.389-32.074-32.074v-749.93c0-4.857.9-9.612 2.678-14.134l178.01-452.903c5.851-14.884 19.965-24.502 35.958-24.502h292.45a.999.999 0 0 1 .107 1.994c-7.392.801-11.208 3.714-13.611 10.392L310.173 634.594v787.641a1 1 0 0 1-1 1zm-92.45-1271.543c-15.165 0-28.549 9.12-34.097 23.234L4.617 627.829a36.485 36.485 0 0 0-2.539 13.401v749.93c0 16.583 13.491 30.074 30.074 30.074h276.021v-786.83a.99.99 0 0 1 .069-.365l185.555-472.666c1.706-4.741 4.137-7.837 7.814-9.682H216.723z" fill="#112c41"/><path d="m1 1252.483 124.37-125.548a44.2 44.2 0 0 1 62.655-.147c17.922 17.922 17.922 46.978 0 64.9L1.067 1378.646z" fill="#fff"/><path d="M1.067 1379.646a1 1 0 0 1-1-.999L0 1252.484c0-.265.104-.518.29-.705l124.37-125.548c8.401-8.48 20.066-13.361 32.005-13.389h.105c11.9 0 23.544 4.821 31.962 13.238 18.282 18.283 18.282 48.031 0 66.313L1.774 1379.353a1.002 1.002 0 0 1-.707.293zM2 1252.894l.065 123.339 185.253-185.253c17.502-17.503 17.502-45.981 0-63.485-8.045-8.044-19.175-12.652-30.548-12.652h-.102c-11.409.026-22.559 4.69-30.589 12.797zM1.657 633.72h307.496v2H1.657z" fill="#112c41"/><path d="M358.951 430.291c-2.316 6.484-8.008 10.749-14.346 10.749h-188.41c-2.289 0-4.43-1.244-5.719-3.323s-1.56-4.724-.723-7.065l70.493-177.725c1.718-4.809 5.939-7.972 10.64-7.972h192.601c2.407 0 4.658 1.308 6.014 3.494s1.64 4.967.761 7.43z" fill="#fff"/><path d="M344.606 442.039H156.195c-2.64 0-5.095-1.419-6.568-3.795-1.449-2.338-1.754-5.302-.814-7.93l70.505-177.758c1.862-5.213 6.408-8.603 11.569-8.603h192.601c2.758 0 5.323 1.483 6.863 3.967 1.517 2.445 1.835 5.545.853 8.294l-71.316 174.434c-2.483 6.921-8.478 11.391-15.282 11.391zm-113.72-196.085c-4.306 0-8.112 2.868-9.698 7.309l-70.505 177.758c-.724 2.026-.488 4.345.643 6.169 1.106 1.784 2.927 2.85 4.869 2.85h188.411c5.954 0 11.216-3.958 13.404-10.084a.749.749 0 0 1 .016-.043l71.31-174.413c.764-2.138.513-4.592-.685-6.523-1.173-1.893-3.104-3.021-5.164-3.021H230.886z" fill="#112c41"/><circle cx="230.005" cy="488.274" fill="#fff" r="7.216"/><path d="M230.005 496.49c-4.53 0-8.216-3.686-8.216-8.216s3.686-8.216 8.216-8.216 8.216 3.686 8.216 8.216-3.686 8.216-8.216 8.216zm0-14.432c-3.428 0-6.216 2.788-6.216 6.216s2.788 6.216 6.216 6.216 6.216-2.788 6.216-6.216-2.788-6.216-6.216-6.216z" fill="#112c41"/><circle cx="264.097" cy="488.274" fill="#fff" r="7.216"/><path d="M264.097 496.49c-4.53 0-8.216-3.686-8.216-8.216s3.686-8.216 8.216-8.216 8.217 3.686 8.217 8.216-3.687 8.216-8.217 8.216zm0-14.432c-3.428 0-6.216 2.788-6.216 6.216s2.788 6.216 6.216 6.216 6.217-2.788 6.217-6.216-2.789-6.216-6.217-6.216z" fill="#112c41"/><circle cx="298.301" cy="488.274" fill="#fff" r="7.216"/><path d="M298.3 496.49c-4.53 0-8.216-3.686-8.216-8.216s3.686-8.216 8.216-8.216 8.217 3.686 8.217 8.216-3.687 8.216-8.217 8.216zm0-14.432c-3.428 0-6.216 2.788-6.216 6.216s2.788 6.216 6.216 6.216 6.217-2.788 6.217-6.216-2.789-6.216-6.217-6.216z" fill="#112c41"/><circle cx="219.005" cy="514.996" fill="#fff" r="7.216"/><path d="M219.005 523.212c-4.53 0-8.216-3.686-8.216-8.216s3.686-8.216 8.216-8.216 8.216 3.686 8.216 8.216c0 4.531-3.686 8.216-8.216 8.216zm0-14.431c-3.428 0-6.216 2.788-6.216 6.216s2.788 6.216 6.216 6.216 6.216-2.788 6.216-6.216-2.788-6.216-6.216-6.216z" fill="#112c41"/><circle cx="253.097" cy="514.996" fill="#fff" r="7.216"/><path d="M253.097 523.212c-4.53 0-8.216-3.686-8.216-8.216s3.686-8.216 8.216-8.216 8.217 3.686 8.217 8.216c0 4.531-3.687 8.216-8.217 8.216zm0-14.431c-3.428 0-6.216 2.788-6.216 6.216s2.788 6.216 6.216 6.216 6.217-2.788 6.217-6.216-2.789-6.216-6.217-6.216z" fill="#112c41"/><circle cx="287.301" cy="514.996" fill="#fff" r="7.216"/><path d="M287.3 523.212c-4.53 0-8.216-3.686-8.216-8.216s3.686-8.216 8.216-8.216 8.217 3.686 8.217 8.216c0 4.531-3.687 8.216-8.217 8.216zm0-14.431c-3.428 0-6.216 2.788-6.216 6.216s2.788 6.216 6.216 6.216 6.217-2.788 6.217-6.216-2.789-6.216-6.217-6.216z" fill="#112c41"/><circle cx="210.005" cy="541.044" fill="#fff" r="7.216"/><path d="M210.005 549.259c-4.53 0-8.216-3.686-8.216-8.216s3.686-8.216 8.216-8.216 8.216 3.686 8.216 8.216-3.686 8.216-8.216 8.216zm0-14.432c-3.428 0-6.216 2.788-6.216 6.216s2.788 6.216 6.216 6.216 6.216-2.788 6.216-6.216-2.788-6.216-6.216-6.216z" fill="#112c41"/><circle cx="244.097" cy="541.044" fill="#fff" r="7.216"/><path d="M244.097 549.259c-4.53 0-8.216-3.686-8.216-8.216s3.686-8.216 8.216-8.216 8.217 3.686 8.217 8.216-3.687 8.216-8.217 8.216zm0-14.432c-3.428 0-6.216 2.788-6.216 6.216s2.788 6.216 6.216 6.216 6.217-2.788 6.217-6.216-2.789-6.216-6.217-6.216z" fill="#112c41"/><circle cx="278.301" cy="541.044" fill="#fff" r="7.216"/><path d="M278.3 549.259c-4.53 0-8.216-3.686-8.216-8.216s3.686-8.216 8.216-8.216 8.217 3.686 8.217 8.216-3.687 8.216-8.217 8.216zm0-14.432c-3.428 0-6.216 2.788-6.216 6.216s2.788 6.216 6.216 6.216 6.217-2.788 6.217-6.216-2.789-6.216-6.217-6.216z" fill="#112c41"/><circle cx="200.005" cy="565.202" fill="#fff" r="7.216"/><path d="M200.005 573.418c-4.53 0-8.216-3.687-8.216-8.217s3.686-8.216 8.216-8.216 8.216 3.686 8.216 8.216-3.686 8.217-8.216 8.217zm0-14.432c-3.428 0-6.216 2.788-6.216 6.216s2.788 6.217 6.216 6.217 6.216-2.789 6.216-6.217-2.788-6.216-6.216-6.216z" fill="#112c41"/><circle cx="234.097" cy="565.202" fill="#fff" r="7.216"/><path d="M234.097 573.418c-4.53 0-8.216-3.687-8.216-8.217s3.686-8.216 8.216-8.216 8.217 3.686 8.217 8.216-3.687 8.217-8.217 8.217zm0-14.432c-3.428 0-6.216 2.788-6.216 6.216s2.788 6.217 6.216 6.217 6.217-2.789 6.217-6.217-2.789-6.216-6.217-6.216z" fill="#112c41"/><circle cx="268.301" cy="565.202" fill="#fff" r="7.216"/><path d="M268.3 573.418c-4.53 0-8.216-3.687-8.216-8.217s3.686-8.216 8.216-8.216 8.217 3.686 8.217 8.216-3.687 8.217-8.217 8.217zm0-14.432c-3.428 0-6.216 2.788-6.216 6.216s2.788 6.217 6.216 6.217 6.217-2.789 6.217-6.217-2.789-6.216-6.217-6.216z" fill="#112c41"/><ellipse cx="322.128" cy="196.559" fill="#fff" rx="15.98" ry="13.049" transform="matrix(.3495 -.9369 .9369 .3495 25.3847 429.68)"/><path d="M320.331 213.21c-1.396 0-2.789-.239-4.138-.742-3.553-1.324-6.254-4.246-7.607-8.225-1.328-3.907-1.194-8.38.379-12.595 1.571-4.214 4.399-7.683 7.962-9.765 3.629-2.122 7.584-2.56 11.135-1.234 7.258 2.708 10.502 12.047 7.229 20.819-2.664 7.145-8.839 11.742-14.96 11.742zm3.563-31.309c-1.982 0-4.019.576-5.958 1.71-3.165 1.851-5.686 4.953-7.098 8.737-1.411 3.784-1.539 7.78-.358 11.252 1.156 3.399 3.434 5.884 6.413 6.995 6.23 2.323 13.638-2.086 16.525-9.825 2.886-7.738.17-15.924-6.056-18.247a9.885 9.885 0 0 0-3.468-.622zm10.461 19.218h.01z" fill="#112c41"/><path d="M637.415 692.384 515.44 814.896a47.285 47.285 0 0 1-66.943.074c-16.758-16.758-16.758-43.928 0-60.686l189.065-189.065z" fill="#fff"/><path d="M481.931 829.819c-12.898 0-25.02-5.021-34.142-14.143-17.121-17.121-17.121-44.979 0-62.1l189.065-189.065a1.001 1.001 0 0 1 1.707.708l-.147 127.166a.995.995 0 0 1-.291.704L516.149 815.601c-9.114 9.154-21.247 14.204-34.164 14.218h-.054zm154.628-262.184L449.203 754.991c-16.341 16.341-16.341 42.931 0 59.271 8.743 8.743 20.364 13.557 32.728 13.557h.052c12.382-.014 24.012-4.854 32.748-13.628l121.684-122.22zm.855 124.749h.01z" fill="#112c41"/><path d="m1.214 1057.479 122.938-123.48a45.92 45.92 0 0 1 65.014-.071c17.291 17.292 17.291 45.327 0 62.618l-188.099 188.1z" fill="#fff"/><path d="M1.067 1185.646a1.002 1.002 0 0 1-1-1.001l.147-127.167c0-.265.105-.518.291-.704l122.938-123.479c8.857-8.896 20.648-13.803 33.2-13.816h.05c12.535 0 24.315 4.879 33.18 13.743 17.653 17.653 17.653 46.379 0 64.032l-188.1 188.1c-.191.19-.446.292-.706.292zm1.147-127.754-.144 124.337 186.39-186.39c16.873-16.874 16.873-44.33 0-61.204-8.485-8.485-19.766-13.157-31.766-13.157h-.048c-12.017.014-23.305 4.711-31.784 13.228z" fill="#112c41"/><path d="m41.023 532.829 41.437-18.236c5.639-2.482 12.227.088 14.697 5.732 2.609 5.963-.11 12.912-6.073 15.521L29.04 562.99z" fill="#fff"/><path d="M29.04 563.99a1 1 0 0 1-.929-1.369l11.982-30.16c.098-.244.286-.44.527-.546l41.437-18.236c2.973-1.309 6.277-1.378 9.304-.197s5.41 3.469 6.712 6.444a12.692 12.692 0 0 1 .192 9.783 12.696 12.696 0 0 1-6.781 7.054l-62.043 27.144a1.022 1.022 0 0 1-.401.083zm12.761-30.411-10.934 27.52 59.815-26.169c5.447-2.384 7.94-8.755 5.558-14.204a10.075 10.075 0 0 0-5.606-5.382 10.081 10.081 0 0 0-7.772.164z" fill="#112c41"/><path d="m18.232 590.504 40.963-18.028c5.853-2.576 12.691.091 15.254 5.95 2.515 5.749-.106 12.448-5.855 14.963l-62.31 27.26z" fill="#fff"/><path d="M6.285 621.65a1 1 0 0 1-.929-1.368l11.947-30.146a.998.998 0 0 1 .527-.547l40.963-18.027a12.485 12.485 0 0 1 9.628-.205 12.479 12.479 0 0 1 6.944 6.669c1.324 3.024 1.391 6.384.188 9.459s-3.532 5.497-6.558 6.82l-62.31 27.261a1.004 1.004 0 0 1-.4.084zm12.725-30.396L8.109 618.76l60.085-26.287a10.297 10.297 0 0 0 5.496-5.717 10.3 10.3 0 0 0-.157-7.93 10.49 10.49 0 0 0-5.84-5.606 10.5 10.5 0 0 0-8.096.172z" fill="#112c41"/><path d="M637.415 897.805 515.44 1020.316a47.285 47.285 0 0 1-66.943.074c-16.758-16.758-16.758-43.928 0-60.686l189.065-189.065z" fill="#fff"/><path d="M481.927 1035.239c-12.895 0-25.016-5.021-34.138-14.142-17.121-17.121-17.121-44.979 0-62.101l189.065-189.065a1.001 1.001 0 0 1 1.707.708l-.147 127.167a.995.995 0 0 1-.291.704l-121.975 122.512c-9.113 9.154-21.246 14.203-34.164 14.217h-.057zm154.632-262.184L449.203 960.41c-16.342 16.342-16.342 42.931 0 59.272 8.744 8.742 20.364 13.556 32.724 13.556h.056c12.382-.014 24.013-4.854 32.748-13.627l121.684-122.22zm.855 124.75h.01z" fill="#112c41"/><path d="M637.415 1089.694 515.44 1212.206a47.285 47.285 0 0 1-66.943.074c-16.758-16.758-16.758-43.928 0-60.686l189.065-189.065z" fill="#fff"/><path d="M481.931 1227.129c-12.897 0-25.019-5.021-34.142-14.143-17.121-17.121-17.121-44.979 0-62.101L636.854 961.82a1.001 1.001 0 0 1 1.707.708l-.147 127.167a.995.995 0 0 1-.291.704l-121.975 122.512c-9.113 9.153-21.246 14.203-34.164 14.218h-.053zm154.628-262.184L449.203 1152.3c-16.342 16.342-16.342 42.931 0 59.272 8.744 8.743 20.365 13.557 32.728 13.557h.052c12.383-.015 24.013-4.854 32.748-13.628l121.684-122.22zm.855 124.75h.01z" fill="#112c41"/><path d="m142.119 489.255-27.922 71.609" fill="#ffa8db"/><path d="M114.197 561.865a.999.999 0 0 1-.931-1.363l27.922-71.609a.999.999 0 1 1 1.863.727l-27.922 71.609a1.003 1.003 0 0 1-.932.636z" fill="#112c41"/><path d="m155.956 489.255-27.921 71.609" fill="#ffa8db"/><path d="M128.035 561.865a.999.999 0 0 1-.931-1.363l27.922-71.609a.999.999 0 1 1 1.863.727l-27.922 71.609a1.003 1.003 0 0 1-.932.636z" fill="#112c41"/><path d="M169.921 489.255 142 560.864" fill="#ffa8db"/><path d="M141.999 561.865a.999.999 0 0 1-.931-1.363l27.922-71.609a.999.999 0 1 1 1.863.727l-27.922 71.609a1.001 1.001 0 0 1-.932.636z" fill="#112c41"/><path d="m183.759 489.255-27.922 71.609" fill="#ffa8db"/><path d="M155.837 561.865a.999.999 0 0 1-.931-1.363l27.922-71.609a.999.999 0 1 1 1.863.727l-27.922 71.609a1.001 1.001 0 0 1-.932.636z" fill="#112c41"/><g fill="#ffa8db"><ellipse cx="334.885" cy="326.53" rx="9.104" ry="6.828" transform="matrix(.2705 -.9627 .9627 .2705 -70.0701 560.5829)"/><ellipse cx="241.329" cy="326.681" rx="9.104" ry="6.828" transform="matrix(.2768 -.9609 .9609 .2768 -139.3822 468.1701)"/><path d="M297.306 358.949c-1.492 12.406-12.803 22.591-23.66 21.951-9.209-.543-15.011-11.625-14.06-21.604z"/></g><path d="M412.09 9.611h2v141.237h-2z" fill="#112c41"/><circle cx="413.392" cy="8.216" fill="#ffa8db" r="7.216"/><path d="M413.392 16.432c-4.53 0-8.216-3.686-8.216-8.216S408.862 0 413.392 0s8.216 3.686 8.216 8.216-3.686 8.216-8.216 8.216zm0-14.432c-3.428 0-6.216 2.788-6.216 6.216s2.788 6.216 6.216 6.216 6.216-2.788 6.216-6.216S416.82 2 413.392 2z" fill="#112c41"/><path d="M154.215 371.461a8 8 0 0 1-7.431 5.038h-14.102a6.12 6.12 0 0 1-5.687-8.389l36.311-91.103a9.347 9.347 0 0 1 8.682-5.886h14.053a5.534 5.534 0 0 1 5.142 7.586z" fill="#ffa8db"/><path d="M146.784 377.499h-14.103a7.117 7.117 0 0 1-5.895-3.125 7.114 7.114 0 0 1-.721-6.634l36.311-91.104a10.297 10.297 0 0 1 9.611-6.516h14.054a6.53 6.53 0 0 1 5.41 2.868 6.528 6.528 0 0 1 .661 6.088l-36.969 92.754a8.952 8.952 0 0 1-8.359 5.669zm25.204-105.378a8.306 8.306 0 0 0-7.754 5.256l-36.311 91.104a5.112 5.112 0 0 0 .52 4.771 5.113 5.113 0 0 0 4.238 2.248h14.103a6.966 6.966 0 0 0 6.503-4.408l36.969-92.754a4.528 4.528 0 0 0-.46-4.225 4.53 4.53 0 0 0-3.754-1.991h-14.054zm-17.773 99.34h.01z" fill="#112c41"/><path d="m140.363 367.68 35.11-88.237" fill="#fff"/><path d="M140.363 368.68a.999.999 0 0 1-.929-1.37l35.11-88.237a.996.996 0 0 1 1.299-.559.999.999 0 0 1 .559 1.299l-35.11 88.237a1 1 0 0 1-.929.63z" fill="#112c41"/><path d="M153.631 337.026c-.196 0-.394-.011-.593-.032-.638-.069-1.56-.415-2.323-1.671-1.307-2.148-1.766-6.535.155-11.494 2.578-6.654 6.604-10.7 10.771-10.824 1.144-.031 2.12.498 2.823 1.491 1.632 2.309 1.563 6.865-.17 11.34-2.038 5.258-6.008 11.19-10.663 11.19zm8.115-22.023-.046.001c-3.286.097-6.721 3.755-8.965 9.547-1.592 4.108-1.362 8.006-.312 9.732.266.436.561.692.83.722 3.055.328 6.752-3.642 9.175-9.893 1.648-4.254 1.45-7.98.402-9.463-.398-.564-.801-.646-1.084-.646z" fill="#112c41"/></svg></g><g transform="translate(1016.0 715.0) rotate(0.0 -337.0 459.5) scale(-1.0395122620804744 1.0390626501637739)"><svg width="648.381" height="884.451" viewBox="0 0 648.381 884.451"><path d="M481.031 685.149c1.93 10.81 3.99 24.72 5.79 37.71 2.73 19.74 4.86 37.37 5.04 38.92.01.07.02.11.02.11l124.74 6.13 15.72.78h.04v-.15c-.17-9.09-.83-24.48-1.42-39.54-.7-17.67-1.31-34.88-.93-40.96 0 0-5.44.23-14.41.49-29.25.85-96.09 2.01-134.59-3.49z" fill="#ffd6c0"/><path d="m615.621 688.639 1 79.38v.16c3.81 2.77 12.58 8.56 15.41 9.97.16-2.96.27-6.1.35-9.35v-.15c-.36-19.75-3.05-69.24-2.35-80.5 0 0-5.44.23-14.41.49z" fill="#f5b9ab"/><path d="M426.113 840.54c48.276 16.93 112.693 16.241 166.877 6.804 15.796-2.755 30.72-6.242 44.121-10.264 0 0-3.713-42.594-4.731-68.283l-11.35-.526s-128.811-6.275-129.152-6.376c-9.971 5.058-55.314 31.014-65.765 78.645z" fill="#ffa6d9"/><path d="M518.246 854.915c-34.877 0-67.093-4.534-92.464-13.431a1 1 0 0 1-.646-1.158c10.736-48.931 57.104-74.663 66.289-79.324.18-.091.383-.126.578-.101 2.363.196 127.805 6.308 129.075 6.37l11.348.526a1 1 0 0 1 .953.959c1.006 25.372 4.691 67.811 4.729 68.236a1 1 0 0 1-.708 1.045c-13.591 4.079-28.474 7.542-44.237 10.292-25.317 4.41-50.757 6.586-74.917 6.586zm-90.962-15.026c42.613 14.693 104.397 17.119 165.534 6.47 15.384-2.684 29.922-6.048 43.226-10.004-.51-5.945-3.651-43.07-4.627-66.602l-10.435-.483c-109.528-5.335-126.228-6.203-128.872-6.372-6.456 3.312-53.812 29.071-64.826 76.991zm64.594-77.995h.01z" fill="#112c41"/><path d="M637.111 837.08s-3.713-42.594-4.731-68.283l-14.017 1.879c-1.993 22.384-4.575 57.403-15.207 74.952-.112.183 20.554-4.526 33.955-8.548z" fill="#ff90d8"/><path d="M564.061 853.904h-.038a2.5 2.5 0 0 1-2.462-2.537c.519-34.812 28.314-76.095 68.863-82.062a2.5 2.5 0 0 1 .728 4.946c-30.705 4.519-63.987 36.614-64.592 77.19a2.5 2.5 0 0 1-2.499 2.463z" fill="#fff"/><path d="m632.381 769.799-140.549-6.911a1.023 1.023 0 0 1-.919-.751s-.022-.08-.042-.219a2332.34 2332.34 0 0 0-5.041-38.921c-2.167-15.637-4.113-28.312-5.784-37.671a1 1 0 0 1 1.126-1.166c38.779 5.54 106.922 4.279 134.419 3.48 8.86-.257 14.343-.487 14.397-.489a1.002 1.002 0 0 1 1.041 1.061c-.388 6.21.277 24.347.931 40.858l.342 8.623c.484 12.123.941 23.574 1.079 30.938v.168a1 1 0 0 1-1 1zm-139.613-8.868 138.595 6.818c-.156-7.342-.595-18.35-1.06-29.978l-.342-8.624c-.621-15.679-1.251-32.825-.983-39.956-2.022.08-6.745.256-13.329.446-27.227.792-94.249 2.033-133.394-3.309 1.621 9.239 3.488 21.471 5.556 36.392a2389.628 2389.628 0 0 1 4.957 38.211z" fill="#112c41"/><path d="M518.246 854.915c-34.877 0-67.093-4.534-92.464-13.431a1 1 0 0 1-.646-1.158c10.736-48.931 57.104-74.663 66.289-79.324.18-.091.383-.126.578-.101 2.363.196 127.805 6.308 129.075 6.37l11.348.526a1 1 0 0 1 .953.959c1.006 25.372 4.691 67.811 4.729 68.236a1 1 0 0 1-.708 1.045c-13.591 4.079-28.474 7.542-44.237 10.292-25.317 4.41-50.757 6.586-74.917 6.586zm-90.962-15.026c42.613 14.693 104.397 17.119 165.534 6.47 15.384-2.684 29.922-6.048 43.226-10.004-.51-5.945-3.651-43.07-4.627-66.602l-10.435-.483c-109.528-5.335-126.228-6.203-128.872-6.372-6.456 3.312-53.812 29.071-64.826 76.991zm64.594-77.995h.01z" fill="#112c41"/><path d="M422.679 863.438c-.024 1.597.505 3.029 1.895 4.143 25.292 20.286 148.363 21.907 207.877.313 5.098-1.85 6.173-4.841 6.361-8.159l-1.701-22.655c-59.396 17.809-148.651 25.321-210.998 3.461-1.894 7.786-3.324 15.684-3.434 22.897z" fill="#fff"/><path d="M518.676 884.451c-1.001 0-2-.003-3.003-.009-44.535-.26-79.682-6.422-91.725-16.081-1.537-1.233-2.3-2.895-2.269-4.938.098-6.381 1.23-13.943 3.462-23.119a1.004 1.004 0 0 1 1.303-.708c62.957 22.075 153.187 13.674 210.38-3.475a1 1 0 0 1 1.285.884l1.701 22.655a.953.953 0 0 1 .001.131c-.186 3.28-1.165 6.919-7.018 9.043-27.065 9.82-69.543 15.617-114.117 15.617zm-95.997-21.013 1 .015c-.022 1.415.476 2.51 1.52 3.348 23.959 19.216 145.474 22.444 206.911.153 4.454-1.616 5.509-4.052 5.7-7.211l-1.603-21.351c-57.231 16.904-146.49 25.069-209.379 3.455-2.027 8.547-3.058 15.625-3.149 21.606z" fill="#112c41"/><path d="M630.961 729.109c-47.47 2.45-108.98 2.26-144.14-6.25 2.73 19.74 4.86 37.37 5.04 38.92.01.07.02.11.02.11 37.9 10.72 98.25 14.7 140.46 6.91.01-.01.03-.01.04-.01v-.14z" fill="#fff"/><path d="M581.65 773.844c-31.308 0-64.725-3.832-90.041-10.992a1.034 1.034 0 0 1-.697-.714s-.022-.08-.042-.219a2332.34 2332.34 0 0 0-5.041-38.921 1.003 1.003 0 0 1 1.226-1.109c10.902 2.639 53.497 10.886 143.853 6.224a1 1 0 0 1 1.051.962l1.42 39.716a1 1 0 0 1-.785.977 1.923 1.923 0 0 1-.073.017c-14.851 2.738-32.499 4.058-50.871 4.059zm-88.862-12.739c39.65 11.068 98.882 13.995 138.568 6.857l-1.358-37.802c-86.423 4.385-129.091-3.059-141.988-5.995a2367.718 2367.718 0 0 1 4.778 36.94z" fill="#112c41"/><circle cx="504.135" cy="790.304" fill="#ffe993" r="8.5"/><path d="M502.775 792.923c-15.301-.32-31.588-8.739-36.182-13.311a2.832 2.832 0 1 1 3.995-4.015c3.527 3.51 19.059 11.704 33.189 11.671a2.832 2.832 0 0 1 .018 5.664c-.34.001-.68-.002-1.02-.009z" fill="#fff"/><path d="M503.667 793.931c-.304 0-.609-.003-.913-.009h-.001c-15.778-.33-32.14-8.898-36.867-13.602-1.498-1.49-1.503-3.921-.013-5.419s3.921-1.504 5.419-.014c3.428 3.411 18.567 11.38 32.396 11.38h.092c2.11 0 3.83 1.712 3.836 3.82a3.838 3.838 0 0 1-3.821 3.844h-.128zm-.872-2.008c.332.007.665.007.996.009a1.835 1.835 0 0 0 1.827-1.838 1.836 1.836 0 0 0-1.835-1.826c-.023.007-.061 0-.09 0-14.376.001-30.206-8.376-33.809-11.962-.716-.712-1.879-.71-2.591.006s-.71 1.878.006 2.591c4.397 4.377 20.465 12.706 35.496 13.02z" fill="#112c41"/><circle cx="486.946" cy="810.969" fill="#ffe993" r="8.5"/><path d="M485.509 813.547c-15.285-.773-32.346-11.655-36.803-16.361a2.832 2.832 0 1 1 4.113-3.895c3.422 3.613 19.735 14.248 33.859 14.633a2.833 2.833 0 0 1-.15 5.662 43.57 43.57 0 0 1-1.019-.039z" fill="#fff"/><path d="m486.604 814.587-.103-.001a40.304 40.304 0 0 1-1.042-.04c-16.003-.809-33.295-12.254-37.479-16.672-.704-.743-1.076-1.716-1.048-2.739s.453-1.975 1.196-2.679a3.838 3.838 0 0 1 5.417.147c3.144 3.32 19.095 13.938 33.161 14.322a3.84 3.84 0 0 1 3.728 3.932 3.838 3.838 0 0 1-3.83 3.73zm-1.044-2.039c.332.017.664.029.994.038a1.831 1.831 0 1 0 .097-3.663c-14.645-.399-31.276-11.48-34.557-14.945a1.836 1.836 0 0 0-2.59-.07 1.835 1.835 0 0 0-.07 2.591c4.025 4.251 20.685 15.268 36.126 16.049z" fill="#112c41"/><path d="M217.07 772.323a833.657 833.657 0 0 1 4.062-38.898l.017-.218c.013-.084.017-.167.024-.23 1.696-13.24 3.328-26.096 4.847-37.309 0 0-92.618-8.256-142.266-19.097-1.393 12.525-2.48 22.896-3.407 36.203-1.599 22.877-2.902 42.418-2.902 42.418z" fill="#ffd6c0"/><path d="m211.557 685.665-10.154 84.897c3.59 3.036 10.488 8.996 13.209 10.606 4.242-33.867 11.381-90.639 11.381-90.639z" fill="#f5b9ab"/><path d="M217.07 773.324a.998.998 0 0 1-.122-.007L77.325 756.185a1 1 0 0 1-.876-1.059c.013-.195 1.321-19.804 2.901-42.421.962-13.812 2.114-24.586 3.411-36.243a.995.995 0 0 1 .411-.702.997.997 0 0 1 .796-.165c49.018 10.704 141.215 18.996 142.141 19.078a1.002 1.002 0 0 1 .902 1.13c-1.313 9.695-2.698 20.512-4.163 31.962l-.684 5.34a3.077 3.077 0 0 1-.029.262l-.007.138c-1.72 13.513-3.009 25.858-4.062 38.898a.997.997 0 0 1-.365.694.989.989 0 0 1-.631.227zM78.507 754.315l137.65 16.889c1.04-12.689 2.309-24.765 3.982-37.905l.01-.15a10.627 10.627 0 0 1 .03-.287l.685-5.35c1.414-11.05 2.752-21.507 4.025-30.942-10.288-.944-93.726-8.785-140.263-18.787-1.245 11.217-2.352 21.721-3.281 35.06a15549.926 15549.926 0 0 0-2.838 41.472z" fill="#112c41"/><path d="M6.121 828.833c46.913 20.405 111.208 24.417 165.936 18.956 15.954-1.596 31.093-3.985 44.752-7.019 0 0-.597-42.751.261-68.447l-11.281-1.352S77.778 755.318 77.446 755.192c-10.313 4.319-57.428 26.899-71.325 73.641z" fill="#ffa6d9"/><path d="M127.783 850.998c-46.615 0-90.276-7.422-122.061-21.248a1 1 0 0 1-.56-1.202c14.276-48.018 62.396-70.299 71.898-74.278a1.01 1.01 0 0 1 .584-.058c2.355.369 127.004 15.612 128.266 15.766l11.279 1.353a1 1 0 0 1 .88 1.026c-.847 25.377-.267 67.972-.261 68.399a1 1 0 0 1-.783.99c-13.852 3.078-28.948 5.446-44.869 7.038a448.149 448.149 0 0 1-44.373 2.214zM7.336 828.269c41.429 17.763 102.87 24.687 164.621 18.525 15.538-1.554 30.283-3.85 43.84-6.825-.075-5.967-.5-43.221.243-66.762l-10.371-1.244c-108.855-13.31-125.44-15.391-128.063-15.753-6.682 2.833-55.791 25.07-70.27 72.059zm70.11-73.077h.01z" fill="#112c41"/><path d="M216.596 840.812s-.597-42.751.261-68.447l-14.116.852c-3.62 22.179-8.749 56.916-20.633 73.643-.125.176 20.829-3.013 34.488-6.048z" fill="#ff90d8"/><path d="M142.911 852.228a2.5 2.5 0 0 1-2.494-2.72c1.541-17.484 10.108-35.942 23.504-50.641 14.487-15.896 32.62-25.153 51.06-26.066a2.505 2.505 0 0 1 2.621 2.374 2.502 2.502 0 0 1-2.374 2.621c-17.112.847-34.021 9.527-47.612 24.44-12.487 13.702-20.793 31.539-22.219 47.713a2.499 2.499 0 0 1-2.486 2.279z" fill="#fff"/><path d="M127.783 850.998c-46.615 0-90.276-7.422-122.061-21.248a1 1 0 0 1-.56-1.202c14.276-48.018 62.396-70.299 71.898-74.278a1.01 1.01 0 0 1 .584-.058c2.355.369 127.004 15.612 128.266 15.766l11.279 1.353a1 1 0 0 1 .88 1.026c-.847 25.377-.267 67.972-.261 68.399a1 1 0 0 1-.783.99c-13.852 3.078-28.948 5.446-44.869 7.038a448.149 448.149 0 0 1-44.373 2.214zM7.336 828.269c41.429 17.763 102.87 24.687 164.621 18.525 15.538-1.554 30.283-3.85 43.84-6.825-.075-5.967-.5-43.221.243-66.762l-10.371-1.244c-108.855-13.31-125.44-15.391-128.063-15.753-6.682 2.833-55.791 25.07-70.27 72.059zm70.11-73.077h.01z" fill="#112c41"/><path d="M1.026 851.419c-.141 1.591.283 3.058 1.587 4.27 23.746 22.076 146.37 32.669 207.301 15.473 5.219-1.473 6.509-4.378 6.939-7.674l-.044-22.719c-60.536 13.429-150.102 14.413-210.688-11.937-2.457 7.628-4.459 15.402-5.095 22.587z" fill="#fff"/><path d="M131.78 880.73c-12.812 0-26.111-.519-39.54-1.58-44.397-3.508-79.001-12.216-90.308-22.728-1.443-1.342-2.083-3.055-1.903-5.091.562-6.357 2.243-13.816 5.139-22.805a.997.997 0 0 1 .54-.604.996.996 0 0 1 .811-.006c61.179 26.608 151.782 24.808 210.072 11.877a1 1 0 0 1 1.217.974l.044 22.719c0 .044-.003.088-.008.131-.425 3.257-1.667 6.815-7.659 8.507-19.973 5.638-47.785 8.606-78.405 8.606zM6.738 830.189c-2.645 8.376-4.188 15.359-4.716 21.319-.125 1.409.291 2.538 1.272 3.45 22.493 20.912 143.449 32.994 206.348 15.243 4.559-1.287 5.789-3.64 6.21-6.776l-.042-21.411c-58.309 12.684-147.927 14.318-209.072-11.825zm-5.712 21.23h.01z" fill="#112c41"/><path d="M217.07 772.319c-42.664 4.695-102.596-3.675-139.624-17.127 0 0 1.149-16.069 2.458-36.079.044-.694.094-1.395.145-2.096s.101-1.402.144-2.11c.051-.701.101-1.416.151-2.132 34.46 11.923 91.701 18.992 140.85 19.918 0 0-.012.099-.023.283-.006.064-.004.149-.024.227-.006.078-.004.149-.017.22a834.49 834.49 0 0 0-4.06 38.896z" fill="#fff"/><path d="M191.272 774.611c-37.557 0-82.625-7.02-114.167-18.479a1 1 0 0 1-.656-1.011 6594.46 6594.46 0 0 0 2.457-36.073c.044-.695.095-1.399.146-2.103l.008-.116c.047-.659.095-1.317.135-1.982l.152-2.142a1.001 1.001 0 0 1 1.324-.874c31.966 11.06 87.132 18.857 140.542 19.863a.998.998 0 0 1 .974 1.121c-.001.011-.01.088-.017.22a3.267 3.267 0 0 1-.027.285 2.073 2.073 0 0 1-.028.279 829.595 829.595 0 0 0-4.048 38.8 1.001 1.001 0 0 1-.887.914c-7.98.878-16.721 1.298-25.908 1.298zM78.498 754.509c38.755 13.909 97.568 21.131 137.643 16.904a829.702 829.702 0 0 1 3.95-37.741c-52.587-1.081-106.742-8.705-138.84-19.531l-.06.838c-.04.661-.088 1.327-.136 1.993l-.008.117c-.051.699-.101 1.397-.145 2.087a6916.799 6916.799 0 0 1-2.404 35.333zm138.572 17.81h.01z" fill="#112c41"/><circle cx="87.599" cy="784.42" fill="#ffe993" r="8.5"/><path d="M86.051 786.933c-15.237-1.435-30.866-11.019-35.115-15.914a2.834 2.834 0 0 1 4.278-3.714c3.262 3.758 18.155 13.063 32.249 14.06a2.832 2.832 0 1 1-.396 5.65c-.338-.022-.678-.05-1.016-.082z" fill="#fff"/><path d="M87.268 788.023c-.09 0-.18-.003-.271-.009a45.52 45.52 0 0 1-1.04-.085c-15.711-1.48-31.405-11.218-35.777-16.254a3.838 3.838 0 0 1 .382-5.406 3.838 3.838 0 0 1 5.406.381c3.177 3.66 17.747 12.741 31.565 13.719a3.839 3.839 0 0 1 3.554 4.09 3.836 3.836 0 0 1-3.819 3.564zm-1.123-2.086c.33.031.662.058.993.082a1.832 1.832 0 1 0 .254-3.656c-14.363-1.017-29.595-10.556-32.934-14.403a1.835 1.835 0 0 0-2.585-.182 1.836 1.836 0 0 0-.182 2.585c4.068 4.686 19.485 14.165 34.454 15.574z" fill="#112c41"/><circle cx="68.949" cy="803.777" fill="#ffe993" r="8.5"/><path d="M67.327 806.243c-15.188-1.885-31.41-13.983-35.512-19.001a2.832 2.832 0 1 1 4.386-3.584c3.149 3.853 18.643 15.649 32.702 17.064a2.832 2.832 0 1 1-.564 5.636 51.386 51.386 0 0 1-1.012-.115z" fill="#fff"/><path d="M68.629 807.371c-.129 0-.259-.007-.389-.02a46.3 46.3 0 0 1-1.037-.116c-15.901-1.974-32.312-14.65-36.162-19.361-.648-.792-.948-1.79-.846-2.809s.595-1.936 1.388-2.584a3.836 3.836 0 0 1 5.392.542c2.894 3.541 18.028 15.293 32.028 16.702a3.84 3.84 0 0 1 3.432 4.194 3.805 3.805 0 0 1-1.386 2.584 3.8 3.8 0 0 1-2.42.868zm-34.622-23.754c-.408 0-.818.135-1.158.413-.379.31-.615.748-.664 1.235s.095.964.405 1.343c3.706 4.534 19.517 16.737 34.86 18.642.329.041.66.078.989.11a1.83 1.83 0 0 0 2.005-1.641 1.836 1.836 0 0 0-1.642-2.005c-14.575-1.466-30.355-13.731-33.375-17.426a1.834 1.834 0 0 0-1.42-.671z" fill="#112c41"/><path d="M83.631 677.679c4.6 2.53 106.4 15.47 138.71 18.46.8.07 1.74.15 2.74.23 4.51.37 10.5.78 12.95.78 2.81 0 5.07-.82 6.71-2.27.03-.03.06-.05.08-.08 1.23-1.13 2.09-2.63 2.55-4.42.17-.67.34-1.34.52-2.01 59.5-232.13 112.32-365.46 173.14-449.22 3.29 55.18 45 370 60.42 448.4 50.31 4.32 93.94 4.58 144.1 2.33.01 0 .01-.01.02-.01 1.76-.08 6.943-.687 11.58-1.38 7.56-1.13 10.831-4.465 10.14-11.15-22.825-220.758-28.74-291.94-18.26-407.19 12-132-12.04-198.85-69-241-39.84-29.48-110.8-38.01-171.88-14.96-15.57 5.87-30.51 13.8-44.12 23.96-161 120.15-238 437-260.4 639.53z" fill="#afadf4"/><path d="M238.031 698.149c-2.406 0-8.279-.394-13.032-.784-1.001-.08-1.943-.16-2.746-.23-30.292-2.803-134.055-15.802-139.104-18.58a1 1 0 0 1-.512-.986c7.762-70.18 28.253-209.086 78.276-350.88 22.582-64.008 48.422-120.169 76.804-166.924 32.051-52.799 67.619-93.986 105.716-122.417 13.232-9.878 28.159-17.985 44.366-24.094C417.336 2.108 449.963-2.137 482.153.975c30.775 2.977 58.644 12.697 78.474 27.371 30.17 22.325 49.465 50.072 60.723 87.321 11.758 38.906 14.597 89.468 8.679 154.573-10.64 117.009-4.081 190.938 18.258 406.997.737 7.122-2.754 11.012-10.986 12.242-4.392.656-9.617 1.28-11.567 1.384a1 1 0 0 1-.181.017c-53.853 2.417-96.986 1.719-144.186-2.333a1.002 1.002 0 0 1-.896-.804c-15.489-78.752-55.863-383.724-60.255-445.752-30.411 42.431-58.335 96.93-85.317 166.492-28.239 72.803-56.382 164.436-86.039 280.135-.182.677-.351 1.343-.52 2.008-.51 1.987-1.458 3.631-2.819 4.889-.03.033-.061.062-.084.083-1.9 1.68-4.449 2.551-7.406 2.551zM84.709 677.03c9.425 2.878 106.394 15.214 137.724 18.114.792.069 1.73.149 2.727.229 4.715.387 10.522.777 12.871.777 2.495 0 4.529-.678 6.044-2.017a1.14 1.14 0 0 1 .069-.07c1.083-.995 1.843-2.318 2.257-3.933.17-.671.342-1.346.523-2.021 29.673-115.766 57.841-207.473 86.108-280.351 27.524-70.961 56.044-126.306 87.188-169.197a1 1 0 0 1 1.807.527c3.269 54.825 44.423 366.392 60.258 447.527 46.784 3.985 89.637 4.665 143.106 2.268a.966.966 0 0 1 .178-.016c1.554-.071 6.547-.639 11.432-1.369 7.133-1.065 9.912-4.073 9.293-10.058-22.354-216.206-28.918-290.19-18.261-407.383 5.895-64.845 3.082-115.158-8.601-153.814-11.126-36.815-30.191-64.235-59.998-86.292-19.542-14.46-47.058-24.045-77.477-26.987-31.889-3.084-64.204 1.12-93.456 12.159-16.031 6.043-30.793 14.06-43.875 23.826-37.891 28.277-73.286 69.273-105.203 121.852-28.311 46.637-54.092 102.674-76.627 166.552C113.022 468.45 92.525 606.695 84.709 677.03zm159.285 17.207-.003.005.003-.005z" fill="#360815"/><path d="M388.151 14.189c50.35-14.65 100.25-2.51 142.88 27.96 57.31 40.98 87.032 91.536 75 218-11.75 123.497-3.587 240.778 23.048 413.479 1.519 9.848-6.311 13.706-9.881 15.466-.1.017 11.316.472 20.393-.824 7.613-2.073 7.945-8.555 7.7-10.93-23.296-225.44-28.74-291.94-18.26-407.19 12-132-12.04-198.85-69-241-39.84-29.481-110.8-38.011-171.88-14.961zM221.175 695.556c3.63.39 12.786 1.653 15.906 1.943 8.268.788 10.337-7.954 10.81-9.13 59.5-232.13 112.32-365.46 173.14-449.22 0-10-2-23-4-28-36 26-67.738 77.438-103 177-34 96-71.022 250.841-79.082 295.601-.062.343-2.984 12.014-13.774 11.806z" fill="#9494f4"/><g fill="#112c41"><path d="M421.03 240.149a1 1 0 0 1-.998-.95c-.997-19.938-4.948-33.651-12.81-44.461a1 1 0 0 1 1.617-1.177c8.104 11.144 12.173 25.188 13.19 45.539a.999.999 0 0 1-.949 1.048l-.05.001z"/><path d="M236.862 698.13c-2.668 0-5.931-.271-9.967-.607l-1.896-.157c-1-.08-1.943-.16-2.745-.23-30.292-2.803-134.055-15.802-139.104-18.58a1 1 0 0 1-.512-.986c7.762-70.18 28.253-209.086 78.276-350.88 22.582-64.008 48.422-120.169 76.804-166.924 32.05-52.799 67.619-93.986 105.716-122.417 13.232-9.878 28.159-17.985 44.366-24.094C417.337 2.109 449.964-2.136 482.154.976c30.775 2.977 58.644 12.697 78.474 27.371 30.17 22.326 49.465 50.072 60.723 87.321 11.758 38.906 14.597 89.468 8.679 154.573-10.654 117.166-6.069 181.14 18.171 403.881 1.014 9.864-2.152 14.312-10.928 15.361a572.69 572.69 0 0 0-4.896.616c-2.895.373-5.407.696-6.64.765-.06.011-.122.017-.183.017-53.851 2.417-96.986 1.719-144.186-2.334a1 1 0 0 1-.896-.803c-15.489-78.752-55.863-383.724-60.255-445.752-30.411 42.431-58.335 96.93-85.317 166.492-28.239 72.803-56.382 164.436-86.039 280.135-2.048 7.615-4.946 9.511-11.999 9.511zm-152.153-21.1c9.425 2.878 106.394 15.214 137.724 18.114.792.069 1.73.149 2.727.229l1.901.158c14.47 1.204 17.48 1.454 19.864-7.42 29.673-115.766 57.841-207.474 86.108-280.351 27.524-70.961 56.044-126.306 87.188-169.197a1 1 0 0 1 1.807.527c3.269 54.825 44.423 366.392 60.258 447.527 46.784 3.986 89.637 4.665 143.106 2.268a.966.966 0 0 1 .178-.016c1.058-.049 3.724-.392 6.547-.755 1.588-.204 3.282-.422 4.914-.617 7.583-.907 10.07-4.475 9.177-13.166-24.257-222.895-28.845-286.926-18.174-404.272 5.895-64.845 3.082-115.158-8.601-153.814-11.126-36.815-30.191-64.235-59.998-86.292-19.542-14.46-47.058-24.045-77.477-26.987-31.886-3.083-64.204 1.121-93.455 12.159-16.031 6.043-30.792 14.06-43.875 23.826-37.891 28.277-73.286 69.273-105.203 121.852-28.311 46.638-54.092 102.674-76.627 166.552-49.776 141.095-70.273 279.34-78.089 349.675z"/><path d="M561.144 171.706c-24.394 0-43.352-14.22-51.306-28.817a1 1 0 1 1 1.755-.957c8.53 15.653 30.219 30.851 57.692 27.236a1 1 0 0 1 .261 1.983 64.313 64.313 0 0 1-8.402.555z"/></g></svg></g><g transform="translate(203.0 342.0) rotate(0.0 411.5 275.5) scale(1.0479283996236115 1.046452223093738)"><svg width="785.359" height="526.541" viewBox="0 0 785.359 526.541"><path d="M444.1 348.867c32.877 27.775 85.027 40.813 116.203 40.246 116.19-2.113 195.016-139.772 195.579-149.33 1.407-23.926-93.676-90.036-119.415-90.036-12.028 0-13.319 8.179-23.697 27.535-7.884 14.705-30.43 57.478-63.263 60.414-29.034 2.596-44.18-14.019-90.786-53.563-35.149-29.824-71.364-46.866-105.98-56.452-15.817-4.38-45.421-10.068-65.505-11.184-11.961-.665-21.205-.107-29.238.577C150 126.266 135.199 179.685 135.199 261.118c0 82.212 63.314 166.992 171.797 166.992 109.65 0 132.866-69.171 137.104-79.243z" fill="#fff"/><path d="M306.996 429.11c-64.33 0-104.739-28.812-127.311-52.983-28.907-30.956-45.486-72.875-45.486-115.009 0-36.062 2.554-73.098 21.079-99.684 18.508-26.56 51.12-40.972 102.634-45.355 8.165-.695 17.375-1.247 29.379-.579 19.478 1.082 49.277 6.666 65.716 11.218 39.549 10.952 74.339 29.484 106.361 56.653a3365.892 3365.892 0 0 1 15.014 12.837c35.214 30.236 49.795 42.746 75.036 40.493 31.906-2.854 53.903-43.902 62.185-59.355l.287-.535c1.962-3.659 3.601-6.924 5.047-9.805 6.295-12.536 9.168-18.258 19.531-18.258 19.42 0 77.999 36.81 106.237 66.757 9.748 10.339 14.518 18.527 14.176 24.338-.315 5.363-20.833 42.665-54.704 78.089-30.897 32.314-80.589 71.067-141.854 72.182-32.368.562-83.668-13.086-115.812-39.601l-.087.216c-2.931 7.295-10.717 26.671-31.162 44.515-25.749 22.471-61.502 33.866-106.266 33.866zm-30.375-311.911c-7.025 0-13.022.403-18.539.872-50.876 4.33-83.021 18.473-101.162 44.507-18.211 26.133-20.721 62.804-20.721 98.54 0 41.633 16.383 83.054 44.948 113.644 22.301 23.881 62.237 52.349 125.849 52.349 44.268 0 79.577-11.229 104.95-33.374 20.083-17.528 27.738-36.58 30.621-43.753.237-.592.439-1.096.611-1.503a1 1 0 0 1 1.567-.376c31.694 26.776 83.224 40.59 115.539 40.009 60.578-1.102 109.812-39.524 140.445-71.563 33.634-35.176 53.883-72.219 54.154-76.824.304-5.165-4.411-13.066-13.635-22.849-27.39-29.047-86.146-66.129-104.782-66.129-9.13 0-11.651 5.022-17.744 17.155-1.451 2.892-3.097 6.169-5.071 9.853l-.287.535c-8.421 15.713-30.788 57.452-63.77 60.402-26.084 2.333-40.85-10.343-76.517-40.968a3136.433 3136.433 0 0 0-15.006-12.829c-31.795-26.978-66.337-45.378-105.6-56.251-16.34-4.524-45.949-10.074-65.294-11.149-3.777-.21-7.279-.298-10.556-.298z" fill="#112c41"/><path d="M236.464 412.676c-19.084-8.786-39.248-22.349-59.304-42.527-5.766-5.801-10.489-12.481-15.146-20.055-7.082-11.519-13.361-24.86-17.791-38.382-5.659-17.273-9.031-35.33-8.03-53.435-15.347-39.968 17.848-40.028 25.386-1.226-9.802 47.945 24.422 98.014 73.356 126.403a202.691 202.691 0 0 0 5.7 3.185c.864.467-4.051 26.092-4.171 26.037z" fill="#dedffe"/><path d="M269.128 116.498c-53.347.321-104.544 10.826-149.651 34.084C17.225 203.306-5.143 282.658 2.313 348.696c10.909 96.624 86.808 168.29 245.368 176.807 4.793.257 15.611-.385 19.035-15.801 8.738-39.349 10.468-84.778 2.037-128.373-2.352-12.163-10.251-15.165-17.499-15.809-28.709-2.553-73.54 3.579-91.648-20.772-9.606-12.919-5.3-31.801 6.294-38.095" fill="#fff"/><g fill="#112c41"><path d="M249.007 526.54c-.467 0-.927-.014-1.381-.037-76.128-4.09-136.221-22.787-178.61-55.572-39.193-30.312-61.97-71.4-67.697-122.122-4.266-37.785 1.636-72.981 17.542-104.611 19.309-38.396 53.007-70.191 100.158-94.504 43.352-22.353 93.854-33.857 150.103-34.195h.006a1 1 0 0 1 .006 2c-55.932.336-106.129 11.766-149.198 33.973-46.768 24.115-80.173 55.614-99.287 93.625C4.92 276.373-.915 311.191 3.307 348.584c11.924 105.618 98.73 168.095 244.427 175.921 9.486.523 15.71-4.686 18.005-15.02 9.23-41.564 9.952-87.01 2.032-127.967-1.816-9.389-7.093-14.156-16.606-15.002-6.42-.571-13.624-.705-21.252-.847-26.614-.494-56.78-1.055-71.109-20.325-4.862-6.539-6.608-15.021-4.79-23.268 1.61-7.298 5.769-13.24 11.409-16.303a1 1 0 0 1 .955 1.757c-5.132 2.785-8.926 8.244-10.411 14.976-1.693 7.681-.074 15.569 4.442 21.644 13.743 18.482 43.387 19.033 69.541 19.519 7.664.143 14.902.277 21.393.854 10.393.924 16.408 6.359 18.392 16.615 7.972 41.219 7.246 86.954-2.042 128.779-3.008 13.54-11.542 16.623-18.686 16.623z"/><path d="M248.571 382.065c-.137.373-.268.753-.395 1.155-.1.321-.203.656-.305.99-3.726 12.108-6.463 33.995-6.939 59.183-.327 16.795.41 32.318 1.906 44.538.862 7.097 1.971 13.074 3.28 17.579.068.247.14.48.225.715.038.12.075.255.113.375 1.575 5.004 2.914 7.87 4.92 8.039 2.176.182 4.766-2.866 6.652-8.405.127-.352.257-.733.374-1.115 1.509-4.767 2.865-11.133 3.975-18.667 1.699-11.457 2.833-25.622 3.13-41.034.499-25.8-1.509-48.555-4.89-61.069-.153-.532-.295-1.048-.447-1.544-1.624-5.377-3.514-8.491-5.598-8.666-2.112-.177-4.165 2.709-6.001 7.926z"/><path d="M251.563 515.647a3.07 3.07 0 0 1-.271-.012c-2.613-.22-4.102-3.369-5.791-8.735l-.11-.365a10.604 10.604 0 0 1-.237-.759c-1.315-4.529-2.43-10.497-3.309-17.724-1.547-12.65-2.227-28.518-1.913-44.679.463-24.523 3.074-46.751 6.983-59.457.102-.334.205-.673.307-.996.132-.416.267-.81.407-1.193 2.111-5.997 4.411-8.814 7.026-8.583 2.514.211 4.631 3.276 6.472 9.373.105.344.206.699.31 1.063l.141.493c3.522 13.033 5.409 36.54 4.93 61.364-.291 15.028-1.377 29.262-3.142 41.161-1.124 7.631-2.473 13.964-4.011 18.822-.119.389-.255.784-.386 1.15-1.946 5.714-4.698 9.077-7.406 9.077zm2.827-140.515c-1.455 0-3.269 2.696-4.876 7.265l-.005.013c-.131.358-.257.725-.379 1.111-.1.316-.201.647-.302.979-3.859 12.542-6.437 34.563-6.896 58.911-.312 16.07.362 31.838 1.898 44.398.865 7.121 1.958 12.981 3.247 17.42.065.235.131.446.206.659l.125.409c1.12 3.559 2.477 7.212 4.051 7.345 1.387.074 3.756-2.255 5.622-7.73.126-.354.252-.72.364-1.086 1.486-4.698 2.849-11.1 3.941-18.52 1.753-11.818 2.831-25.964 3.12-40.908.477-24.647-1.384-47.94-4.856-60.788l-.138-.483c-.1-.352-.197-.695-.299-1.029-2.116-7.006-4.01-7.901-4.727-7.962a1.45 1.45 0 0 0-.096-.004zm-5.819 6.933h.01zm387.288-212.406c.231.323.471.646.731.977.208.264.427.537.646.81 7.897 9.905 24.426 24.511 44.958 39.11 13.685 9.743 26.918 17.889 37.853 23.546 6.347 3.291 11.907 5.746 16.366 7.206.242.083.475.155.717.218.121.036.253.082.374.118 5.021 1.522 7.705.883 8.976-.678 1.377-1.695.758-4.402-2.751-9.083-.22-.303-.46-.626-.71-.938-3.086-3.935-7.577-8.645-13.173-13.811-8.503-7.865-19.56-16.791-32.119-25.728-21.023-14.963-40.946-26.14-53.187-30.405-.526-.173-1.031-.347-1.527-.502-5.356-1.692-8.994-1.887-10.314-.265-1.338 1.643-.113 4.966 3.16 9.425z"/><path d="M742.45 243.511c-1.487 0-3.234-.303-5.237-.91l-.369-.117a10.964 10.964 0 0 1-.756-.229c-4.482-1.469-10.039-3.914-16.502-7.265-11.318-5.856-24.805-14.244-37.973-23.619-19.992-14.217-36.874-28.909-45.159-39.302l-.647-.812a28.56 28.56 0 0 1-.757-1.012c-3.762-5.126-4.784-8.608-3.125-10.644 1.592-1.957 5.315-1.976 11.391-.057.339.105.687.222 1.043.34l.494.164c12.75 4.443 33.226 16.144 53.454 30.541 12.249 8.718 23.39 17.643 32.218 25.809 5.67 5.235 10.139 9.922 13.281 13.929.254.317.504.653.733.97 2.471 3.296 5.023 7.459 2.717 10.3-1.041 1.276-2.649 1.914-4.806 1.914zm-106.451-83.395c-1.638 0-2.278.447-2.522.749-.934 1.145.26 4.21 3.189 8.202a25.835 25.835 0 0 0 .711.952l.641.802c8.176 10.256 24.906 24.806 44.755 38.92 13.095 9.322 26.495 17.658 37.733 23.474 6.367 3.301 11.824 5.704 16.218 7.144.229.079.439.144.656.199l.409.129c4.001 1.213 6.738 1.093 7.915-.352.399-.491 1.618-1.992-2.775-7.852a24.058 24.058 0 0 0-.691-.913c-3.039-3.876-7.557-8.611-13.07-13.702-8.768-8.11-19.84-16.979-32.021-25.648-20.085-14.295-40.368-25.896-52.936-30.275l-.485-.161c-.343-.114-.679-.227-1.01-.329-3.208-1.015-5.324-1.339-6.717-1.339z"/></g><path d="M324.881 161.885c-12.363 11.368-49.684-2.633-58.241-10.71-5.525 9.001-6.869 37.882-32.028 41.092-20.865 2.661-54.542-20.887-52.292-64.092 6.101-1.539 9.613-2.589 15.392-3.768l1.237-.803a462.187 462.187 0 0 1 11.514-2.17c12.977-2.264 24.681-3.787 34.873-4.958 12.602-1.445 24.026-.751 38.497-.566 5.521.063 15.637 2.742 21.342 2.991 14.243 14.223 30.761 32.826 19.706 42.984z" fill="#dedffe"/><path d="M323.249 161.704c-16.194 8.976-44.875-15.187-55.181-23.44.157 9.484-10.042 54.536-35.357 53.007-37.201-2.247-35.41-63.618-35.197-67.748 3.084-.723 29.027-5.775 52.583-7.102 35.169-1.982 52.736 1.521 59.974 2.48 8.154 7.771 32.081 32.432 13.178 42.803z" fill="#fff"/><path d="M233.964 192.308c-.436 0-.873-.014-1.313-.04-39.122-2.363-36.17-68.134-36.136-68.798a1 1 0 0 1 .771-.922c2.905-.682 29.161-5.798 52.756-7.127 31.352-1.768 48.921.835 57.363 2.085 1.067.158 1.996.296 2.799.402a.99.99 0 0 1 .558.268c8.29 7.9 21.974 22.873 20.472 34.379-.551 4.224-3.075 7.597-7.502 10.025-16.037 8.881-43.144-12.949-54.746-22.297-.743 9.1-6.398 33.012-18.904 44.981-4.889 4.679-10.305 7.044-16.118 7.044zm-35.479-67.975c-.206 7.255-.67 63.828 34.286 65.939 5.737.342 11.093-1.824 15.926-6.452 13.163-12.599 18.481-38.906 18.371-45.54a1 1 0 0 1 1.625-.797l1.523 1.226c9.505 7.658 29.762 23.979 44.795 23.98 2.801 0 5.418-.566 7.753-1.86l.003-.002c3.892-2.135 6.011-4.925 6.481-8.53 1.423-10.896-13.063-26.154-19.634-32.449-.733-.1-1.566-.224-2.504-.362-8.377-1.24-25.812-3.821-56.957-2.067-22.076 1.243-46.472 5.816-51.668 6.914z" fill="#112c41"/><path d="M261.734 143.246c-21.258.316-38.64-9.508-38.83-21.93-.016-.834-.219-1.226-.076-2.037 10.657-1.601 26.588-3.265 38.941-3.644 14.622.664 25.693.383 36.338 1.635 1.508 1.402 1.757 1.334 1.786 2.901.181 12.419-16.89 22.749-38.159 23.075z" fill="#112c41"/><path d="M633.693 165.825c.502.775 1.089 1.6 1.746 2.447.219.272.441.553.656.847 8.073 10.173 25.013 25.225 46.07 40.324 14.046 10.068 27.635 18.498 38.878 24.375 2.829 1.478 5.501 2.801 7.988 3.936 3.271 1.502 6.241 2.702 8.851 3.566.242.089.491.167.738.234 1.487.475 2.842.842 4.055 1.07.132-.275.262-.559.385-.831.419-.933.831-1.854 1.234-2.773a219.315 219.315 0 0 0 2.376-5.613c.102-.235.194-.467.295-.703.102-.235.191-.477.283-.709.59-1.446 1.161-2.887 1.712-4.323.319-.844.641-1.678.95-2.519 11.139-29.528 15.16-57.328 16.005-76.958.017-.43.038-.85.055-1.28.171-3.892.225-7.608.198-11.125 0-.684-.01-1.365-.017-2.037a189.46 189.46 0 0 0-.08-3.295c-.005-.361-.02-.72-.033-1.069-.018-.71-.052-1.406-.084-2.092s-.061-1.362-.099-2.036a172.013 172.013 0 0 0-.387-5.709c-.052-.608-.099-1.196-.155-1.782-.073-.799-.15-1.576-.222-2.334-.067-.625-.128-1.23-.197-1.823-.045-.392-.087-.774-.136-1.144l-.045-.392c-.041-.341-.08-.673-.128-1.002a8.076 8.076 0 0 0-.084-.651c-.052-.38-.101-.75-.15-1.12a138.65 138.65 0 0 0-.814-5.261c-.26-1.484-.497-2.736-.711-3.745a731.39 731.39 0 0 0-1.156-5.375c-.118-.548-.247-1.094-.362-1.632-.263-1.152-.527-2.272-.786-3.372a207.608 207.608 0 0 0-2.392-9.184c8.862 5.087 17.516 6.26 22.399 2.502a8.381 8.381 0 0 0 1.374-1.307c.39-.469.734-.957 1.033-1.495.4-.7.708-1.468.934-2.276.347-1.235.507-2.585.486-4.03a21.04 21.04 0 0 0-.086-1.531 19.814 19.814 0 0 0-.104-.873c-.511-3.696-2.05-7.816-4.495-11.99l-.003-.01a51.313 51.313 0 0 0-2.078-3.247 54.756 54.756 0 0 0-2.425-3.225s-.01.003-.012-.007a55.129 55.129 0 0 0-2.184-2.534 65.818 65.818 0 0 0-2.409-2.483c-4.126-4.026-8.573-7.218-12.899-9.437a43.675 43.675 0 0 0-1.983-.962c-8.059-3.626-15.505-3.792-19.521.331a9.273 9.273 0 0 0-1.319 1.739c-.44-.471-.891-.949-1.346-1.437 0 0 12.832-31.416-2.085-36.737-21.17-7.532-53.192 45.56-67 79.555-6.609 16.274-12.997 45.361-26.517 75.587a255.9 255.9 0 0 1-4.197 8.957z" fill="#ffd6c0"/><path d="M729.032 237.754c3.271 1.502 6.241 2.702 8.851 3.566.242.089.491.167.738.234 1.487.475 2.842.842 4.055 1.07.132-.275.262-.559.385-.831.419-.933.831-1.854 1.234-2.773a219.315 219.315 0 0 0 2.376-5.613c.201-.48.394-.947.579-1.412.59-1.446 1.161-2.887 1.712-4.323.319-.844.641-1.678.95-2.519 11.139-29.528 15.16-57.328 16.005-76.958.017-.43.038-.85.055-1.28.171-3.892.225-7.608.198-11.125 0-.684-.01-1.365-.017-2.037a189.46 189.46 0 0 0-.08-3.295c-.005-.361-.02-.72-.033-1.069-.018-.71-.052-1.406-.084-2.092s-.061-1.362-.099-2.036a172.013 172.013 0 0 0-.387-5.709c-.052-.608-.099-1.196-.155-1.782a81.897 81.897 0 0 0-.222-2.334c-.067-.625-.128-1.23-.197-1.823-.045-.392-.087-.774-.136-1.144l-.045-.392c-.041-.341-.08-.673-.128-1.002a8.076 8.076 0 0 0-.084-.651c-.052-.38-.101-.75-.15-1.12a138.65 138.65 0 0 0-.814-5.261c.804 27.902-3.246 70.646-26.367 118.221a275.188 275.188 0 0 1-8.14 15.49z" fill="#f5b9ab"/><path d="M733.625 39.87c9.375.716 19.885 13.832 23.281 31.044 3.739 18.95-1.493 35.942-11.686 37.953s-21.487-11.72-25.226-30.67c-.886-4.492-.956-7.771-.888-11.87" fill="#ffd6c0"/><path d="M743.259 110.057c-10.106.002-20.662-13.503-24.247-31.667-.945-4.793-.97-8.307-.906-12.08a.986.986 0 0 1 1.017-.983 1 1 0 0 1 .983 1.017c-.062 3.657-.039 7.06.869 11.66 3.626 18.376 14.409 31.791 24.052 29.882 9.636-1.901 14.524-18.4 10.897-36.778-3.151-15.972-13.189-29.538-22.376-30.24a1 1 0 0 1-.921-1.073.992.992 0 0 1 1.073-.921c10.192.779 20.815 14.769 24.187 31.848 3.84 19.46-1.756 37.012-12.474 39.128-.713.139-1.433.207-2.154.207z" fill="#112c41"/><path d="M733.491 38.462c-5.831 13.342-14.343 28.36-21.348 36.841" fill="#ffd6c0"/><path d="M712.142 76.303a1 1 0 0 1-.771-1.637c6.611-8.005 15.132-22.715 21.203-36.605a1 1 0 1 1 1.832.8c-6.138 14.044-14.775 28.944-21.492 37.078a.998.998 0 0 1-.772.364z" fill="#112c41"/><path d="M741.633 243.173c-3.315 0-9.789-2.254-18.244-6.389-8.224-4.021-22.105-11.683-41.537-25.34-36.025-25.321-47.969-42.904-49.212-44.826a1.004 1.004 0 0 1-.058-.985l.391-.79c1.379-2.798 2.805-5.689 4.006-8.386 8.344-18.655 14.036-37.109 18.609-51.938 2.876-9.324 5.359-17.377 7.894-23.617 6.128-15.086 17.454-37.607 30.864-55.572C704.534 11.684 719.304-3.646 731.743.781c2.9 1.034 5.032 3.042 6.34 5.967 4.473 10.011-2.044 27.926-3.427 31.492l.057.061c.23-.299.472-.578.729-.841 4.174-4.282 11.894-4.483 20.647-.544.674.309 1.355.632 2.036.988 4.534 2.325 9.078 5.648 13.135 9.606a67.74 67.74 0 0 1 2.447 2.523 55.612 55.612 0 0 1 2.17 2.514c.024.024.047.05.069.077a59.69 59.69 0 0 1 2.466 3.282 52.555 52.555 0 0 1 2.118 3.31c.013.021.024.042.035.063 2.478 4.242 4.065 8.496 4.592 12.307.043.319.083.623.109.921.052.545.078 1.081.09 1.6.022 1.555-.153 3.007-.523 4.322a11.003 11.003 0 0 1-2.161 4.14 10.477 10.477 0 0 1-1.523 1.453c-4.71 3.626-12.776 3.1-21.423-1.288 1.812 6.683 4.421 17.729 5.616 26.436a206.95 206.95 0 0 1 1.117 10.218c.524 6.295.709 12.758.71 16.404.043 5.613-.139 9.764-.226 11.758l-.029.688c-.629 14.62-3.553 44.097-16.068 77.27-1.278 3.475-3.217 8.271-3.845 9.724-3.032 7.346-3.483 7.761-4.173 7.812a4.905 4.905 0 0 1-1.195.129zm-107.002-77.172c2.32 3.406 14.683 20.128 48.371 43.807 34.066 23.942 55.007 32.114 59.143 31.341.265-.421 1.014-1.853 3.014-6.698.611-1.412 2.564-6.248 3.813-9.643 12.42-32.92 15.32-62.157 15.944-76.655l.029-.69c.086-1.978.266-6.094.224-11.663-.001-3.615-.185-10.012-.696-16.163a206.571 206.571 0 0 0-1.112-10.199c-1.33-9.679-4.431-22.303-6.19-28.426a1 1 0 0 1 1.459-1.143c8.704 4.997 16.863 5.982 21.29 2.577a8.42 8.42 0 0 0 .856-.767c.127-.129.254-.264.363-.394a8.945 8.945 0 0 0 1.768-3.395c.319-1.133.471-2.393.45-3.747-.01-.465-.034-.952-.081-1.452a20.117 20.117 0 0 0-.1-.835c-.492-3.563-2.003-7.582-4.366-11.616a49.64 49.64 0 0 0-2.04-3.192 56.078 56.078 0 0 0-2.333-3.109.926.926 0 0 1-.059-.066l-.001.001a52.68 52.68 0 0 0-2.145-2.488 65.958 65.958 0 0 0-2.371-2.445c-3.913-3.819-8.29-7.021-12.655-9.261a42.338 42.338 0 0 0-1.944-.942c-7.951-3.579-14.827-3.537-18.389.119a8.17 8.17 0 0 0-1.175 1.553 1 1 0 0 1-1.59.171l-1.347-1.438a.999.999 0 0 1-.194-1.06c.083-.203 8.22-20.385 3.688-30.521-1.091-2.44-2.786-4.042-5.184-4.896-19.194-6.835-50.506 41.487-65.737 78.988-2.502 6.16-4.974 14.175-7.836 23.455-4.59 14.88-10.302 33.399-18.694 52.164-1.216 2.73-2.651 5.641-4.039 8.454zm107.989 75.048h-.004z" fill="#112c41"/><path d="M707.613 160.211c17.85-10.804 24.739-21.764 31.649-41.806 0 0 2.282-6.057 2.345-8.473-5.507-.801-8.788-4.532-9.731-5.214-2.525 1.548-16.45 11.482-16.45 11.482s2.99 25.378-7.813 44.011z" fill="#f5b9ab"/><path d="M707.199 311.946a.973.973 0 0 1-.107-.006c-24.585-2.64-51.351-16.204-75.367-38.195-21.187-19.398-37.18-42.998-41.739-61.587a1.002 1.002 0 0 1 .733-1.21 1.003 1.003 0 0 1 1.21.733c4.47 18.227 20.236 41.442 41.146 60.589 23.704 21.705 50.066 35.087 74.229 37.682a1 1 0 0 1-.105 1.994z" fill="#112c41"/><path d="M699.434 78.58c30.685-20.891 46.708-16.274 49.755-7.576 3.697 10.552-8.749 29.128-34.337 44.822 2.452 12.409-.075 32.249-7.918 44.758" fill="#ffd6c0"/><path d="M706.934 161.584a1.001 1.001 0 0 1-.846-1.531c7.846-12.513 10.119-32.215 7.784-44.033-.081-.41.103-.827.459-1.046 26.589-16.31 37.188-34.298 33.915-43.639-.942-2.69-3.231-4.754-6.446-5.812-9.17-3.018-24.409 2.042-41.803 13.884a.997.997 0 0 1-1.389-.264.998.998 0 0 1 .264-1.389c24.524-16.699 37.812-16.02 43.554-14.131 3.817 1.257 6.556 3.761 7.707 7.05 4.159 11.869-9.873 30.581-34.17 45.644 2.192 12.266-.221 32.104-8.18 44.799a1.003 1.003 0 0 1-.849.468z" fill="#112c41"/><ellipse cx="704.837" cy="286.957" fill="#fff" rx="6.726" ry="7.18" transform="matrix(.1228 -.9924 .9924 .1228 333.506 951.2256)"/><path d="M704.968 294.691c-.358 0-.719-.022-1.08-.067-2.156-.267-4.089-1.307-5.442-2.93-1.369-1.643-1.982-3.681-1.728-5.741.522-4.228 4.576-7.224 9.067-6.663 4.476.554 7.692 4.444 7.169 8.672-.255 2.061-1.347 3.888-3.074 5.146a8.309 8.309 0 0 1-4.912 1.583zm-.25-13.468c-3.044 0-5.659 2.098-6.016 4.976-.186 1.505.269 3.002 1.279 4.214 1.027 1.231 2.502 2.022 4.152 2.227 1.641.2 3.272-.203 4.568-1.147 1.276-.93 2.081-2.271 2.268-3.776.388-3.133-2.049-6.022-5.431-6.441a6.305 6.305 0 0 0-.82-.053z" fill="#112c41"/><path d="M444.1 348.867c9.07-34.578 13.604-81.059 3.968-117.904" fill="#fff"/><path d="M444.101 349.868a1 1 0 0 1-.968-1.254c10.87-41.446 12.354-85.333 3.967-117.397a1.001 1.001 0 0 1 .715-1.221 1.007 1.007 0 0 1 1.221.715c8.469 32.382 6.985 76.647-3.969 118.411a.998.998 0 0 1-.966.746z" fill="#112c41"/><path d="M453.734 296.963c59.446 73.074 130.542 93.993 234.224 32.314-37.167 35.095-85.221 59.883-130.666 58.923-18.389-.389-36.443-2.619-58.275-10.878-26.889-10.172-36.578-15.503-53.754-28.721 2.595-9.277 7.771-36.034 8.471-51.638z" fill="#dedffe"/><path d="M170.844 515.922a1 1 0 0 1-.906-.576c-8.812-18.832-11.944-49.44-8.172-79.882 4.055-32.724 15.088-59.452 30.271-73.331a1.001 1.001 0 0 1 1.35 1.476c-32.052 29.298-39.608 112.486-21.639 150.889a.999.999 0 0 1-.904 1.424z" fill="#112c41"/><path d="M250.136 380.522c8.349-.409 19.547-2.199 28.794-5.245 20.099-6.62 33.757-21.337 38.002-25.763 4.59-4.785 16.362-21.27 25.686-15.794 5.522 3.245 6.574 11.262 4.636 23.312-1.361 8.497-.368 12.438 2.707 16.497 3.028 3.982 10.393 10.487 33.372-3.99 18.79-11.837 28.536-12.544 34.058-5.403 6.961 8.997-.355 23.172-7.364 31.383 0 0 11.422 18.075-6.149 38.563 7.426 15.296-8.742 33.857-35.257 49.9-30.791 14.899-63.399 24.196-120.428 26.971-10.781-25.062-9.257-117.093 1.943-130.431z" fill="#ffd6c0"/><path d="M373.468 454.126a1 1 0 0 1-.305-1.952c11.082-3.548 21.86-10.425 30.348-19.364a1.001 1.001 0 0 1 1.451 1.377c-8.716 9.18-19.792 16.243-31.189 19.892a1.042 1.042 0 0 1-.305.047zm3.69-36.634a1 1 0 0 1-.172-1.985c7.055-1.235 23.38-10.136 32.905-21.272a1 1 0 1 1 1.519 1.301c-9.811 11.469-26.736 20.656-34.079 21.942a1.131 1.131 0 0 1-.173.014z" fill="#112c41"/><path d="M248.343 511.509c-.403 0-.767-.242-.923-.614-11.254-26.933-8.841-109.311 1.186-129.849a1 1 0 0 1 .795-.557c6.503-.676 21.552-3.509 29.417-6.237a81.596 81.596 0 0 0 15.659-7.396c.256-.152.504-.299.738-.45 6.313-3.922 12.396-8.828 18.606-15.008l.845-.861c.28-.292.575-.598.883-.9l.269-.278c.207-.216.416-.432.633-.643.651-.68 1.499-1.659 2.48-2.792 5.9-6.813 15.772-18.219 24.41-13.147 5.629 3.308 7.255 11.039 5.117 24.333-1.279 7.987-.723 11.83 2.294 15.813 5.464 7.184 16.319 5.734 32.264-4.311 18.561-11.693 29.144-13.238 35.383-5.168 3.309 4.276 3.903 10.121 1.718 16.903-1.605 4.981-4.748 10.489-8.665 15.208 1.801 3.438 9.083 20.005-6.403 38.449 5.083 15.988-6.943 33.687-33.945 49.903-26.749 16.06-76.078 27.151-122.75 27.601l-.011.001zm1.826-129.09c-9.62 20.896-11.896 100.072-1.156 127.084 46.145-.547 94.721-11.494 121.062-27.309 15.297-9.188 39.913-27.651 32.902-48.083a1.001 1.001 0 0 1 .188-.976c16.854-19.653 6.675-36.459 6.233-37.165a1.003 1.003 0 0 1 .086-1.181c5.97-6.993 14.231-21.208 7.334-30.121-5.46-7.063-15.249-5.378-32.734 5.636-16.972 10.692-28.724 11.98-34.923 3.828-3.366-4.445-4.041-8.82-2.676-17.34 1.989-12.373.669-19.456-4.156-22.291-7.198-4.228-16.393 6.389-21.885 12.732-.999 1.153-1.862 2.15-2.573 2.892-.226.22-.419.421-.61.62l-.294.304c-.308.303-.589.595-.87.887l-.855.873c-6.327 6.295-12.525 11.293-18.956 15.288-.24.154-.508.314-.776.474a83.478 83.478 0 0 1-16.033 7.57c-7.781 2.699-22.444 5.495-29.308 6.278z" fill="#112c41"/><path d="M373.791 454.09c11.177-1.857 21.426-4.939 30.283-10.101.353-2.878.111-5.552-.677-8.556-7.586 8.259-17.017 14.012-29.606 18.657zm3.033-36.274c11.219-1.882 26.215-6.431 35.66-12.41-.461-3.598-1.845-7.197-2.537-8.396-7.796 8.628-20.713 17.254-33.123 20.806zm-132.246 73.759c42.944 7.171 76.048 2.717 126.559-10.021-26.745 16.535-77.876 28.268-122.39 28.268-2.001-6.058-3.553-12.829-4.169-18.247z" fill="#f5b9ab"/><ellipse cx="193.647" cy="506.464" fill="#fff" rx="6.726" ry="7.18" transform="matrix(.1228 -.9924 .9924 .1228 -332.7611 636.4583)"/><path d="M193.779 514.198c-.358 0-.719-.022-1.08-.067-4.477-.554-7.693-4.444-7.17-8.672.255-2.061 1.347-3.888 3.074-5.146 1.708-1.245 3.841-1.784 5.993-1.516 2.156.267 4.089 1.307 5.441 2.93 1.369 1.643 1.982 3.682 1.728 5.742s-1.347 3.888-3.074 5.146a8.313 8.313 0 0 1-4.912 1.583zm-.261-13.469c-1.356 0-2.66.414-3.737 1.199-1.275.93-2.081 2.271-2.268 3.776-.388 3.133 2.049 6.022 5.432 6.441 1.649.2 3.272-.203 4.568-1.147 1.276-.93 2.081-2.271 2.268-3.776.186-1.506-.269-3.002-1.279-4.215-1.026-1.231-2.501-2.022-4.151-2.227a7.094 7.094 0 0 0-.833-.051z" fill="#112c41"/><circle cx="322.026" cy="284.462" fill="#fff" r="6.313"/><path d="M322.02 291.775c-3.8 0-7.019-2.95-7.289-6.799-.284-4.022 2.758-7.525 6.78-7.809 4.003-.289 7.525 2.758 7.809 6.78a7.268 7.268 0 0 1-1.772 5.31 7.265 7.265 0 0 1-5.008 2.499 7.009 7.009 0 0 1-.52.019zm.009-12.626a5.321 5.321 0 0 0-5.304 5.687c.206 2.922 2.753 5.126 5.674 4.927a5.279 5.279 0 0 0 3.638-1.816 5.274 5.274 0 0 0 1.289-3.857 5.321 5.321 0 0 0-5.297-4.941zm20.57 13.646c-.541 0-.985-.431-1-.974-.646-24.49-8.971-53.894-23.439-82.792-13.621-27.207-31.466-51.359-48.957-66.266a.998.998 0 0 1-.112-1.409.997.997 0 0 1 1.409-.112c17.688 15.073 35.712 39.454 49.449 66.892 14.597 29.155 22.996 58.857 23.65 83.635a1 1 0 0 1-.974 1.026h-.026z" fill="#112c41"/><path d="M157.051 510.65c-20.999-5.852-37.177-11.071-63.158-25.611-21.021-11.763-37.957-26.441-49.268-39.718-18.931-22.223-30.846-47.084-37.239-73.394-1.314-5.407-12.68-50.102 2.73-101.106 4.381-14.5 11.938-29.742 21.704-44.71-10.57 28.998-18.997 71.205-17.583 100.899 4.065 85.366 59.139 131.238 94.579 156.919 16.965 12.294 31.593 20.078 48.235 26.721z" fill="#dedffe"/><circle cx="300.382" cy="213.112" fill="#fff" r="6.313"/><path d="M300.371 220.425a7.258 7.258 0 0 1-4.783-1.791 7.264 7.264 0 0 1-2.5-5.009 7.262 7.262 0 0 1 1.773-5.309 7.263 7.263 0 0 1 5.008-2.499c4.026-.294 7.525 2.758 7.809 6.78a7.265 7.265 0 0 1-1.773 5.31 7.26 7.26 0 0 1-5.008 2.499 6.637 6.637 0 0 1-.526.019zm.015-12.626a5.316 5.316 0 0 0-4.016 1.829 5.273 5.273 0 0 0-1.289 3.856 5.284 5.284 0 0 0 1.817 3.639 5.278 5.278 0 0 0 3.856 1.289 5.321 5.321 0 0 0 4.928-5.674 5.32 5.32 0 0 0-5.296-4.939z" fill="#112c41"/></svg></g><g transform="translate(565.0 671.0) rotate(0.0 89.5 72.0) scale(1.0325096329111003 1.0420812678655424)"><svg width="173.364" height="138.185" viewBox="0 0 173.364 138.185"><path d="M6.236 27.818C48.518 12.876 96.859 2.999 142.002 1.092l-10.173 12.717L26.918 37.016z" fill="#ff9421"/><path d="M26.918 38.016a1 1 0 0 1-.406-.086L5.83 28.733a1.001 1.001 0 0 1 .073-1.856C49.498 11.47 97.817 1.958 141.96.093a.988.988 0 0 1 .934.547 1 1 0 0 1-.11 1.077L132.61 14.434a1.01 1.01 0 0 1-.565.352L27.134 37.992a.986.986 0 0 1-.216.024zM8.946 27.929l18.077 8.039 104.245-23.06 8.574-10.718C97.293 4.227 51.008 13.328 8.946 27.929z" fill="#112c41"/><path d="M28.987 137.034 162.8 110.739a8 8 0 0 0 6.307-9.392L150.664 7.489a8 8 0 0 0-9.392-6.307C89.014 16.03 56.134 22.788 7.459 27.476a8 8 0 0 0-6.307 9.392l18.443 93.857a8 8 0 0 0 9.392 6.309z" fill="#fba951"/><path d="M27.425 138.187a8.934 8.934 0 0 1-4.998-1.531 8.936 8.936 0 0 1-3.813-5.736L.17 37.062c-.956-4.869 2.228-9.609 7.097-10.566C54.562 21.935 87.033 15.554 140.998.22c4.948-.978 9.689 2.207 10.647 7.076l18.442 93.858c.464 2.358-.019 4.756-1.359 6.752s-3.377 3.351-5.735 3.814L29.18 138.015a9.165 9.165 0 0 1-1.755.172zM142.815 2.031c-.445 0-.897.043-1.352.132C87.448 17.515 54.89 23.912 7.555 28.472c-3.69.73-6.166 4.417-5.422 8.205l18.443 93.857a6.949 6.949 0 0 0 2.966 4.461 6.94 6.94 0 0 0 5.252 1.057h.001l133.812-26.294c3.787-.745 6.263-4.432 5.518-8.218L149.683 7.682c-.656-3.333-3.591-5.651-6.868-5.651z" fill="#112c41"/><path d="M141.208 58.357c1.137 5.787 6.75 9.556 12.537 8.419l18.619-3.659-4.215-21.452-18.123 3.561c-6.061 1.191-10.009 7.07-8.818 13.131z" fill="#fba951"/><path d="M151.661 67.98c-2.295 0-4.538-.679-6.486-1.986a11.599 11.599 0 0 1-4.948-7.444 12.102 12.102 0 0 1 1.841-9.142 12.103 12.103 0 0 1 7.766-5.162l18.123-3.562a1.003 1.003 0 0 1 1.174.789l4.215 21.452a1 1 0 0 1-.789 1.174l-18.618 3.658c-.759.149-1.522.223-2.278.223zm15.699-25.141-17.143 3.369a10.116 10.116 0 0 0-6.49 4.314 10.113 10.113 0 0 0-1.538 7.641v.001a9.612 9.612 0 0 0 4.101 6.169 9.619 9.619 0 0 0 7.262 1.461l17.638-3.465z" fill="#112c41"/><circle cx="151.717" cy="56.207" fill="#ffe993" r="5.764"/><path d="M151.716 62.971c-3.167 0-6.003-2.239-6.637-5.46v-.001c-.348-1.772.015-3.574 1.022-5.074s2.538-2.518 4.312-2.866c1.771-.348 3.574.014 5.074 1.021s2.518 2.539 2.866 4.312c.72 3.659-1.673 7.222-5.332 7.941a6.764 6.764 0 0 1-1.305.127zm-4.674-5.846a4.775 4.775 0 0 0 5.594 3.756 4.77 4.77 0 0 0 3.755-5.593 4.731 4.731 0 0 0-2.019-3.037 4.723 4.723 0 0 0-3.573-.719 4.729 4.729 0 0 0-3.037 2.019 4.735 4.735 0 0 0-.72 3.574z" fill="#112c41"/><path d="M146.872 112.675c-25.276 4.532-60.381-.527-85.659-16.764C31.546 76.855 20.545 45.474 8.732 28.368c-4.374.156-7.535 3.531-6.861 6.962l18.548 94.562c.665 4.049 4.287 6.863 8.462 6.174z" fill="#ff9421"/><path d="m10.375 40.019 17.306 88.067" fill="#fba951"/><path d="M27.68 129.086a.998.998 0 0 1-.98-.808L9.394 40.211a1.001 1.001 0 0 1 1.963-.385l17.306 88.067a1.001 1.001 0 0 1-.983 1.193z" fill="#112c41"/></svg></g><g transform="translate(953.0 424.0) rotate(0.0 60.0 38.0) scale(1.04826381305962 1.0525149567914913)"><svg width="114.475" height="72.208" viewBox="0 0 114.475 72.208"><path d="M105.475 71.208H9a8 8 0 0 1-8-8V9a8 8 0 0 1 8-8h96.475a8 8 0 0 1 8 8v54.208a8 8 0 0 1-8 8z" fill="#ffa8db"/><g fill="#112c41"><path d="M105.475 72.208H9c-4.963 0-9-4.037-9-9V9c0-4.963 4.037-9 9-9h96.475c4.963 0 9 4.037 9 9v54.208c0 4.963-4.037 9-9 9zM9 2C5.141 2 2 5.14 2 9v54.208c0 3.859 3.141 7 7 7h96.475c3.859 0 7-3.141 7-7V9c0-3.859-3.141-7-7-7z"/><path d="M.983 40.118h112.838v12.891H.983z"/></g></svg></g><g transform="translate(342.0 191.0) rotate(21.371821103280027 135.5 117.0) scale(1.0147950376148198 1.0152196171667565)"><svg width="267.049" height="230.492" viewBox="0 0 267.049 230.492"><circle cx="237.478" cy="84.689" fill="#ffd6c0" r="28.57"/><path d="M239.064 113.215a28.569 28.569 0 0 0 26.984-28.6 28.572 28.572 0 0 1-55.55-7.7q-.039-.765-.039-1.522a28.59 28.59 0 0 0 28.6 37.824z" fill="#f5b9ab"/><path d="M237.491 114.259a29.664 29.664 0 0 1-20.626-8.37 1 1 0 1 1 1.394-1.433 27.679 27.679 0 0 0 20.747 7.761 27.57 27.57 0 1 0-29.093-28.088 1.016 1.016 0 0 1-1.019.98 1 1 0 0 1-.981-1.019A29.571 29.571 0 0 1 267 83.051a29.57 29.57 0 0 1-27.887 31.162q-.813.045-1.622.046z" fill="#112c41"/><path d="M224.133 93.791a1 1 0 0 1-.927-.622 18.121 18.121 0 0 1 9.616-23.718 17.634 17.634 0 0 1 15.378 1.024 1 1 0 1 1-.98 1.744 15.659 15.659 0 0 0-13.642-.917 16.121 16.121 0 0 0-8.519 21.111 1 1 0 0 1-.925 1.378z" fill="#112c41"/><circle cx="139.02" cy="126.977" fill="#ffd6c0" r="102.5"/><path d="M85.849 39.346c.3-.179.6-.341.893-.517l12.185 7.207C53.322 73.888 37.991 130.909 65.3 175.917c27.359 45.089 87.153 61.047 132.952 33.258A98.411 98.411 0 0 0 210.98 200 102.511 102.511 0 1 1 85.849 39.346z" fill="#f5b9ab"/><g fill="#112c41"><path d="M139.19 230.453a103.539 103.539 0 0 1-88.656-49.786A103.5 103.5 0 1 1 227.505 73.288a103.464 103.464 0 0 1-88.315 157.165zM52.244 179.63a101.5 101.5 0 1 0-11.815-76.782 101.619 101.619 0 0 0 11.815 76.782z"/><ellipse cx="119.578" cy="114.282" rx="6.828" ry="9.104" transform="matrix(.88298037 -.46940992 .46940992 .88298037 -39.653 69.506)"/><ellipse cx="98.237" cy="84.337" rx="14.13" ry="9.336" transform="matrix(.77004578 -.63798863 .63798863 .77004578 -31.216 82.068)"/><ellipse cx="184.169" cy="56.381" rx="8.6" ry="13.016" transform="matrix(.05862688 -.99827997 .99827997 .05862688 117.086 236.927)"/><path d="M183.505 49.762c.348 0 .7.01 1.051.031 5.961.35 10.82 3.663 10.61 7.234-.193 3.294-4.829 5.973-10.334 5.973-.348 0-.7-.011-1.051-.031-5.961-.35-10.819-3.663-10.61-7.235.194-3.293 4.83-5.973 10.334-5.973m0-2c-6.653 0-12.067 3.374-12.331 7.856-.278 4.741 5.314 8.927 12.49 9.348q.589.035 1.168.035c6.653 0 12.068-3.375 12.331-7.857.278-4.741-5.314-8.926-12.49-9.348q-.589-.034-1.168-.034z"/><ellipse cx="184.703" cy="89.853" rx="6.828" ry="9.104" transform="matrix(.95494228 -.29679159 .29679159 .95494228 -18.346 58.868)"/><path d="M141.387 123.839c5.779 11.079 16.366 17.191 25.211 13.944s12.962-14.758 10.2-26.944z"/><path d="M161.66 139.651c-7.878 0-16.176-5.8-21.16-15.349a1 1 0 0 1 .542-1.4l35.411-13a1 1 0 0 1 1.32.718c2.925 12.906-1.629 24.726-10.831 28.1a15.248 15.248 0 0 1-5.282.931zm-18.843-15.272c5.736 10.175 15.449 15.4 23.436 12.465s12.014-13.2 9.8-24.668z"/></g><path d="M172.664 132.8c-4.282-2.943-10.72-2.981-16.217.355a17.715 17.715 0 0 0-3.694 2.974c4.5 2.555 9.392 3.293 13.845 1.658a14.687 14.687 0 0 0 6.438-4.719q-.183-.142-.372-.268z" fill="#ffa6e0"/><path d="M161.67 139.646a19.1 19.1 0 0 1-9.411-2.652 1 1 0 0 1-.233-1.556 18.713 18.713 0 0 1 3.9-3.141c5.647-3.429 12.6-3.557 17.3-.325q.207.142.406.291a1 1 0 0 1 .181 1.424 15.609 15.609 0 0 1-6.875 5.033 15.212 15.212 0 0 1-5.268.926zm-7.235-3.765a15.02 15.02 0 0 0 11.818.963 13.436 13.436 0 0 0 5.294-3.577c-4.05-2.423-9.816-2.153-14.582.739a16.928 16.928 0 0 0-2.53 1.875z" fill="#112c41"/><circle cx="31.504" cy="164.725" fill="#ffd6c0" r="30.5"/><path d="M61.661 169.937a33.288 33.288 0 0 1-4.42 6.2c-11.072 12.7-30.711 13.559-43.4 2.494-8.341-7.256-11.164-17.571-9.412-27.709-6.351 12.195-4.408 27.109 6.423 36.553a30.493 30.493 0 0 0 43.033-2.945c3.806-4.362 6.864-9.263 7.776-14.593z" fill="#f5b9ab"/><path d="M31.562 196.238a31.7 31.7 0 0 1-7.546-.916 31.5 31.5 0 0 1-8.852-57.522 31.614 31.614 0 0 1 41.959 8.6 1 1 0 1 1-1.628 1.162 29.609 29.609 0 0 0-39.295-8.057 29.5 29.5 0 1 0 30.605 50.441A31.465 31.465 0 0 0 60.68 169.74a1 1 0 1 1 1.961.395 33.52 33.52 0 0 1-14.8 21.52 31.312 31.312 0 0 1-16.279 4.583z" fill="#112c41"/><path d="M14.894 164.787a1 1 0 0 1-.98-1.2 18.756 18.756 0 0 1 9.908-13.061 19.278 19.278 0 0 1 25.753 8.834 1 1 0 1 1-1.785.9 17.275 17.275 0 0 0-23.065-7.951 16.765 16.765 0 0 0-8.852 11.68 1 1 0 0 1-.979.798z" fill="#112c41"/><path d="M30.5 124.339c15.441-22.283 39.375-43.273 69.326-58.78A213.343 213.343 0 0 1 138.318 50.1a64.028 64.028 0 0 0-14.207-23.569c.149.073.307.141.448.219a75.854 75.854 0 0 1 25.665 20.3c2.48-.558 4.944-1.047 7.4-1.494 18.033-3.245 35.258-3.521 50.535-.918a1.861 1.861 0 0 0 1.884-2.851 89.532 89.532 0 0 0-21.923-22.749C157.148-3.4 112.834-5.685 76.132 16.585a108.767 108.767 0 0 0-17.117 12.831C32.039 54.182 20.3 90.489 27.853 123.815a1.477 1.477 0 0 0 2.647.524z" fill="#fcaa51"/><path d="M30.5 124.339a155.947 155.947 0 0 1 13.334-16.618c-6.51-29.679 4.019-61.928 28.015-83.951A98.052 98.052 0 0 1 99.505 5.948a109.1 109.1 0 0 0-40.49 23.468C32.039 54.182 20.3 90.489 27.853 123.815a1.477 1.477 0 0 0 2.647.524z" fill="#ff9522"/><path d="M29.245 125.8a2.424 2.424 0 0 1-.479-.048 2.672 2.672 0 0 1-2.007-2.258C19.545 89.51 31.647 53.18 58.341 28.681A109.929 109.929 0 0 1 75.613 15.73 106.707 106.707 0 0 1 134.305.048a97.23 97.23 0 0 1 54.4 18.18 89.87 89.87 0 0 1 22.069 22.854 2.9 2.9 0 0 1 .193 3.25 3.1 3.1 0 0 1-3.152 1.264c-17.291-2.923-37.131-2.082-57.374 2.428a1.007 1.007 0 0 1-.987-.337 76.831 76.831 0 0 0-21.112-17.866 66.794 66.794 0 0 1 10.918 19.951 1 1 0 0 1-.666 1.287 212.549 212.549 0 0 0-38.307 15.386C71.879 81.151 47.5 101.756 31.63 124.464a2.97 2.97 0 0 1-2.385 1.336zm29.773-96.38.676.736c-26.176 24.021-38.046 59.627-30.979 92.92.042.2.169.657.449.714a.933.933 0 0 0 .826-.471c16.048-22.97 40.687-43.8 69.378-58.649a214.69 214.69 0 0 1 37.651-15.233 62.881 62.881 0 0 0-13.629-22.21 1 1 0 0 1 1.137-1.6A76.628 76.628 0 0 1 150.6 45.94c20.288-4.451 40.174-5.253 57.548-2.316a1.133 1.133 0 0 0 1.14-.378 1 1 0 0 0-.176-1.053 87.9 87.9 0 0 0-21.58-22.346 95.239 95.239 0 0 0-53.288-17.8 104.741 104.741 0 0 0-57.593 15.392 107.985 107.985 0 0 0-16.957 12.715zM198.6 115.551a22.539 22.539 0 0 1-4.937-.57 31.953 31.953 0 0 1-16.637-10.364 31.95 31.95 0 0 1-8.089-17.853c-.565-6.307 1.333-11.715 5.343-15.229s9.62-4.686 15.8-3.3a33.805 33.805 0 0 1 24.72 28.221c.565 6.307-1.333 11.716-5.343 15.229a16.152 16.152 0 0 1-10.857 3.866zm-13.449-45.922a14.242 14.242 0 0 0-9.584 3.379c-3.527 3.089-5.19 7.914-4.682 13.582a30 30 0 0 0 7.611 16.738 30 30 0 0 0 15.594 9.744c5.552 1.248 10.553.232 14.08-2.859 3.527-3.09 5.19-7.914 4.682-13.582a31.856 31.856 0 0 0-23.205-26.483 20.582 20.582 0 0 0-4.496-.519zm-68.7 78.582c-11.468 0-21.021-11.958-21.384-26.9a31.874 31.874 0 0 1 5.626-19.422c3.866-5.34 9.131-8.357 14.826-8.5 5.7-.16 11.1 2.617 15.221 7.764a31.876 31.876 0 0 1 6.564 19.125c.367 15.11-8.807 27.635-20.452 27.918a3.85 3.85 0 0 1-.401.015zm-.524-52.765h-.356c-5.039.123-9.732 2.839-13.214 7.647a29.818 29.818 0 0 0-5.236 18.168c.336 13.823 8.973 24.894 19.33 24.894h.353c10.513-.257 18.79-11.838 18.45-25.816a29.817 29.817 0 0 0-6.114-17.893c-3.625-4.524-8.305-7-13.215-7z" fill="#112c41"/><path d="M134.849 112.312a1 1 0 0 1-.822-1.567c7.29-10.57 23.564-19.278 39.367-14.593a1 1 0 0 1-.569 1.918c-14.357-4.256-30.165 3.681-37.152 13.81a1 1 0 0 1-.824.432zm-89.044 25.803a1 1 0 0 1-.728-1.686c10.54-11.19 32.406-18.714 50.861-17.5a1 1 0 0 1 .932 1.063 1.016 1.016 0 0 1-1.063.933c-20.417-1.354-40.625 7.694-49.274 16.878a1 1 0 0 1-.728.312zm162.324-55.631a1 1 0 0 1-.807-1.589c3.746-5.139 12.54-9.978 18.121-9.978h.036a1 1 0 0 1 0 2 .2.2 0 0 1-.035 0c-4.965 0-13.127 4.526-16.5 9.156a1 1 0 0 1-.815.411z" fill="#112c41"/></svg></g><g transform="translate(449.0 681.0) rotate(25.305662660287286 91.0 110.5) scale(1.2439171086445404 1.2444184173925774)"><svg width="146.312" height="177.593" viewBox="0 0 146.312 177.593"><path d="M2.236 75.12c23.46-12.254 33.976-30.947 39.396-45.551.1-.279.99-2.788 1.073-3.003 1.841-5.337 5.059-22.279 14.22-21.373 5.426.538 9.1 6.36 11.901 16.366 1.98 7.054 4.01 9.886 7.835 11.927 3.762 1.997 11.919 4.259 24.516-15.131C111.479 2.5 118.76-1.523 125.576 2.027c8.591 4.471 7.993 18.038 5.504 26.887 0 0 14.724 10.252 8.452 32.357 10.523 11.006 5.033 30.328-8.896 50.796-19.208 24.569-40.723 43.356-83.447 64.093C29.913 160.634-1.662 89.426 2.236 75.12z" fill="#ffd6c0"/><g fill="#112c41"><path d="M122.849 88.157a1 1 0 0 1-.675-1.737c7.283-6.68 13.146-15.818 16.51-25.733a1.001 1.001 0 0 1 1.895.643c-3.47 10.228-9.525 19.662-17.053 26.565a1.005 1.005 0 0 1-.677.262zm-10.217-29.633a1.001 1.001 0 0 1-.57-1.823c4.895-3.39 14.515-16.379 17.862-28.23a.993.993 0 0 1 1.233-.69.997.997 0 0 1 .69 1.233c-3.518 12.458-13.394 25.693-18.647 29.332a.988.988 0 0 1-.568.178z"/><path d="M45.923 177.593c-.288 0-.57-.125-.766-.356C26.375 154.904.611 94.165.001 75.685a.999.999 0 0 1 .488-.893c16.201-9.623 30.389-19.682 39.936-45.4.489-1.362 1.007-3.087 1.554-4.913 2.65-8.843 6.298-20.968 14.774-20.109 5.601.556 9.657 5.986 12.766 17.091 1.848 6.585 3.632 9.334 7.343 11.314 6.707 3.56 14.516-1.416 23.207-14.794 10.089-15.527 18.01-20.676 25.699-16.669 9.308 4.844 8.338 19.168 6.188 27.376 2.782 2.17 14.069 12.406 8.764 32.023 9.619 10.608 6.624 28.618-8.476 50.808-14.976 21.999-50.296 49.13-85.893 65.979a1.025 1.025 0 0 1-.428.095zM2.027 76.204c1.096 18.721 25.819 76.826 44.169 99.152 35.069-16.733 69.696-43.373 84.395-64.963 14.714-21.622 17.659-38.925 8.293-48.72a1 1 0 0 1-.239-.965c5.984-21.093-7.79-30.4-8.379-30.786a1.002 1.002 0 0 1-.417-1.108c2.107-7.493 3.424-21.343-5.004-25.729-6.658-3.466-13.565 1.313-23.098 15.985-9.354 14.397-18.045 19.603-25.824 15.469-4.23-2.257-6.331-5.421-8.329-12.539-2.858-10.208-6.365-15.178-11.038-15.641-6.842-.666-10.211 10.519-12.661 18.693-.556 1.853-1.08 3.603-1.591 5.024C32.645 56.1 17.762 66.82 2.027 76.204z"/></g><path d="M123.62 87.857c7.794-4.744 14.421-10.279 19.73-18.638a19.838 19.838 0 0 0-3.351-6.288c-3.352 9.074-8.134 16.906-16.379 24.926zm-10.317-29.633c8.284-5.347 18.525-13.931 22.893-21.763-1.619-2.749-4.007-5.118-4.97-5.798-2.949 9.45-9.941 21.123-17.923 27.561zM36.76 161.747c35.753-9.779 60.505-22.965 94.474-52.315-14.774 22.323-50.332 49.355-85.038 65.931-3.589-4.35-6.756-9.29-9.436-13.616z" fill="#f5b9ab"/></svg></g><g transform="translate(1004.0 410.0) rotate(-18.645610429811466 -39.5 47.0) scale(-1.0773951585407433 1.0895771513353114)"><svg width="73.325" height="86.272" viewBox="0 0 73.325 86.272"><path d="M72.325 85.272c-11.801-8.873-21.261-26.495-23.413-38.959C17.829 40.777.602 27.991 1.007 16.818 1.263 9.751 13.864-6.067 53.81 4.579" fill="#ffd6c0"/><path d="M72.324 86.272a.992.992 0 0 1-.6-.201c-11.975-9.004-21.328-26.66-23.671-38.898C19.268 41.908-.451 29.457.008 16.781c.101-2.782 1.931-7.03 6.766-10.608C19.883-3.528 42.032.404 54.068 3.611a1 1 0 1 1-.515 1.933C26.322-1.712 13.302 3.831 7.963 7.781c-4.269 3.159-5.876 6.862-5.957 9.072-.349 9.614 14.236 22.625 47.081 28.474a1 1 0 0 1 .81.814c2.049 11.871 11.224 29.454 23.029 38.33a1 1 0 0 1-.602 1.801z" fill="#112c41"/></svg></g></svg>