<svg xmlns="http://www.w3.org/2000/svg" viewBox="0 0 1800 1800" width="1800" height="1800"><g transform="translate(148.0 1192.0) rotate(0.0 215.0 28.5) scale(1.048386703530869 1.0535849614609711)"><svg width="410.154" height="54.101" viewBox="0 0 410.154 54.101"><ellipse cx="205.077" cy="27.05" fill="#cbc8ff" rx="205.077" ry="27.05"/></svg></g><g transform="translate(1159.0 954.0) rotate(0.0 -393.0 354.0) scale(-1.0421431554662794 1.0407234497924431)"><svg width="754.215" height="680.296" viewBox="0 0 754.215 680.296"><path d="M505.688 470.473a839.092 839.092 0 0 1-24.061-30.833l-.139-.168c-.049-.07-.1-.132-.141-.182-7.964-10.713-15.708-21.1-22.393-30.234 0 0-71.71 54.944-115.71 84.944 7.686 9.987 14.1 18.21 22.662 28.437A14893.137 14893.137 0 0 0 393.244 555z" fill="#ffd6c0"/><path d="m441.6 411.886 51.586 68.188c4.691-.3 13.794-.8 16.871-1.525a233344.717 233344.717 0 0 1-54.684-73.176z" fill="#f5b9ab"/><path d="M393.246 556a1 1 0 0 1-.766-.356c-.126-.149-12.789-15.18-27.34-32.565-8.9-10.623-15.538-19.178-22.688-28.469a1 1 0 0 1 .268-1.462c42.731-26.3 114.884-84.288 115.608-84.871a1.026 1.026 0 0 1 .757-.213 1 1 0 0 1 .676.4c5.834 7.968 12.407 16.806 19.366 26.163l3.022 4.065c.067.084.115.144.16.209l.086.1c8.133 10.922 15.77 20.707 24.067 30.841a1 1 0 0 1-.173 1.432L393.845 555.8a.987.987 0 0 1-.599.2zm-48.533-61.732c6.882 8.938 13.37 17.268 21.96 27.527a15484.013 15484.013 0 0 0 26.727 31.837L504.254 470.3c-8.063-9.871-15.526-19.448-23.428-30.063l-.106-.124-.1-.132-.072-.091-3.024-4.068c-6.717-9.032-13.074-17.58-18.757-25.332-8.067 6.457-73.598 58.695-114.054 83.778z" fill="#112c41"/><path d="M392.964 657.519c47.943-17.85 97.032-59.566 132.659-101.467a384.664 384.664 0 0 0 27.362-36.1s-30.089-30.376-47.3-49.477l-9.064 6.853S393.571 554.86 393.244 555c-4.431 10.265-22.699 59.214-.28 102.519z" fill="#b2b0f7"/><path d="M392.963 658.519a1 1 0 0 1-.887-.54c-23.032-44.489-3.832-93.919.251-103.376a1 1 0 0 1 .381-.446c1.951-1.368 102.3-76.867 103.315-77.631l9.062-6.851a1 1 0 0 1 1.346.129c17 18.864 46.964 49.139 47.264 49.443a1 1 0 0 1 .123 1.256 384.7 384.7 0 0 1-27.433 36.2c-40.675 47.837-90.423 85.877-133.073 101.756a.986.986 0 0 1-.349.06zm1.1-102.9c-2.848 6.675-22.79 56.758-.618 100.646 42.159-15.948 91.214-53.586 131.414-100.865a384.157 384.157 0 0 0 26.84-35.33c-4.194-4.245-30.346-30.781-46.142-48.25l-8.332 6.3c-87.637 65.94-101.025 75.944-103.159 77.503z" fill="#360815"/><path d="M552.985 519.95s-30.089-30.376-47.3-49.477l-9.576 10.407c12.779 18.485 33.184 47.061 36.23 67.352.035.213 12.914-16.62 20.646-28.282z" fill="#9797f7"/><path d="M505.977 580.172a2.5 2.5 0 0 1-1.948-.931c-22.371-27.735-27.642-78.525.564-107.062a2.5 2.5 0 0 1 3.557 3.514C487 497.1 481.7 543.6 507.921 576.1a2.5 2.5 0 0 1-1.944 4.07z" fill="#fff"/><path d="M392.963 658.519a1 1 0 0 1-.887-.54c-23.032-44.489-3.832-93.919.251-103.376a1 1 0 0 1 .381-.446c1.951-1.368 102.3-76.867 103.315-77.631l9.062-6.851a1 1 0 0 1 1.346.129c17 18.864 46.964 49.139 47.264 49.443a1 1 0 0 1 .123 1.256 384.7 384.7 0 0 1-27.433 36.2c-40.675 47.837-90.423 85.877-133.073 101.756a.986.986 0 0 1-.349.06zm1.1-102.9c-2.848 6.675-22.79 56.758-.618 100.646 42.159-15.948 91.214-53.586 131.414-100.865a384.157 384.157 0 0 0 26.84-35.33c-4.194-4.245-30.346-30.781-46.142-48.25l-8.332 6.3c-87.637 65.94-101.025 75.944-103.159 77.503z" fill="#112c41"/><path d="M404.964 677.321a4.932 4.932 0 0 0 4.105 1.974c32.418-.574 128.082-78.017 160.035-132.673 2.737-4.681 1.651-7.668-.326-10.34l-15.793-16.332c-34.285 51.669-98.106 114.514-160.021 137.569 3.521 7.198 7.472 14.181 12 19.802z" fill="#fff"/><path d="M408.962 680.3a5.9 5.9 0 0 1-4.777-2.348c-4.006-4.969-7.971-11.507-12.12-19.989a1 1 0 0 1 .55-1.377C455.136 633.3 519.141 569.15 552.152 519.4a1 1 0 0 1 1.552-.142l15.796 16.328a1.193 1.193 0 0 1 .085.1c1.954 2.641 3.528 6.065.385 11.44-14.857 25.413-44.79 57.893-80.071 86.885-34.409 28.275-65.374 46.009-80.809 46.283zm-14.614-22.229a102.108 102.108 0 0 0 11.394 18.626 3.919 3.919 0 0 0 3.309 1.6c30.708-.544 126.2-75.756 159.19-132.177 2.391-4.09 1.644-6.638-.229-9.189l-14.883-15.391c-33.196 49.586-96.605 112.937-158.781 136.527z" fill="#112c41"/><path d="M505.684 470.47c-27.47 32.98-76.44 68.53-112.44 84.53 0 0-10.32-12.37-23.26-27.69-.45-.53-.9-1.07-1.35-1.61s-.9-1.08-1.36-1.62-.91-1.09-1.37-1.64c33.09-15.32 79.22-49.94 115.26-83.37 0 0 .06.08.18.22a1.41 1.41 0 0 1 .14.18 2.1 2.1 0 0 1 .14.17 830.186 830.186 0 0 0 24.06 30.83z" fill="#fff"/><path d="M393.245 556a1 1 0 0 1-.768-.359c-.1-.124-10.467-12.544-23.257-27.685-.45-.531-.9-1.073-1.354-1.616s-.9-1.074-1.354-1.612l-1.376-1.647a1 1 0 0 1 .348-1.548c30.695-14.211 75.835-46.868 115-83.2a1.012 1.012 0 0 1 .769-.263 1 1 0 0 1 .711.4c.007.009.054.069.138.168s.13.155.178.224a2.157 2.157 0 0 1 .176.222 831.418 831.418 0 0 0 24 30.752 1 1 0 0 1-.005 1.273c-26.139 31.382-74.633 67.84-112.8 84.8a1 1 0 0 1-.406.091zM367.5 522.795l.539.645c.455.535.907 1.077 1.36 1.62s.9 1.076 1.344 1.6a6856.203 6856.203 0 0 1 22.781 27.114c37.56-16.87 84.927-52.47 110.858-83.315a831.586 831.586 0 0 1-23.338-29.923c-38.616 35.705-82.915 67.788-113.544 82.259z" fill="#112c41"/><circle cx="420.833" cy="569.007" fill="#ffe993" r="8.5"/><path d="M421.462 571.89c-11.969 9.537-29.875 13.478-36.331 12.9a2.832 2.832 0 0 1 .505-5.642c4.956.443 22.138-3.187 32.981-12.247a2.832 2.832 0 1 1 3.634 4.344c-.259.218-.523.433-.789.645z" fill="#fff"/><path d="M386.5 585.845c-.532 0-1.018-.02-1.454-.059a3.833 3.833 0 0 1 .682-7.635c4.821.432 21.619-3.134 32.25-12.017a3.832 3.832 0 1 1 4.918 5.878c-.265.222-.535.444-.807.66-11.534 9.187-28.053 13.173-35.589 13.173zm-1.114-5.709a1.833 1.833 0 0 0-.163 3.658c6.19.555 23.86-3.316 35.619-12.686q.39-.311.77-.629a1.832 1.832 0 1 0-2.352-2.81c-11.048 9.232-28.638 12.928-33.71 12.475a1.94 1.94 0 0 0-.167-.008z" fill="#112c41"/><circle cx="420.83" cy="595.886" fill="#ffe993" r="8.5"/><path d="M421.373 598.787c-12.246 9.179-32.322 11.72-38.758 10.951a2.832 2.832 0 0 1 .672-5.624c4.941.59 24.284-1.663 35.39-10.4a2.832 2.832 0 0 1 3.5 4.45q-.395.317-.804.623z" fill="#fff"/><path d="M385.043 610.855a22.09 22.09 0 0 1-2.546-.124 3.832 3.832 0 1 1 .908-7.61c4.538.543 23.6-1.493 34.654-10.191a3.832 3.832 0 1 1 4.74 6.022 41.8 41.8 0 0 1-.826.635c-11.386 8.534-28.916 11.268-36.93 11.268zm-2.1-5.761a1.832 1.832 0 0 0-.215 3.651c5.824.7 25.668-1.485 38.041-10.758.265-.2.528-.4.787-.606a1.832 1.832 0 1 0-2.256-2.881c-11.515 9.056-31.4 11.167-36.127 10.605a1.844 1.844 0 0 0-.225-.011z" fill="#112c41"/><path d="M214.285 560.154a835.947 835.947 0 0 1 2.757-39.012l.009-.218c.011-.085.012-.167.017-.23 1.252-13.29 2.453-26.193 3.595-37.451 0 0-93.458-6.22-143.441-15.393-.974 12.565-1.1 24.036-1.577 37.367-.832 22.918-1.479 42.491-1.479 42.491z" fill="#ffd6c0"/><path d="m205.873 473.73-7.3 85.189c3.689 2.914 10.783 8.64 13.557 10.158 3.1-33.99 8.34-90.969 8.34-90.969z" fill="#f5b9ab"/><path d="m215.235 561.243-142.1-12.622.032-.946c0-.2.656-19.837 1.479-42.494.129-3.594.233-7.053.334-10.434.274-9.142.532-17.775 1.244-26.974l.086-1.107 1.092.2c49.354 9.057 142.394 15.316 143.328 15.379l1.033.068-.1 1.03c-.988 9.724-2.008 20.568-3.088 32.049l-.508 5.395c0 .1-.009.179-.019.262v.146c-1.267 13.562-2.142 25.944-2.757 39zM75.2 546.795l138.139 12.271c.614-12.711 1.477-24.822 2.71-38.017l.027-.449.507-5.394c1.043-11.082 2.029-21.571 2.985-31.036-10.291-.709-94.55-6.681-141.431-15.137-.645 8.742-.893 17.025-1.155 25.773-.1 3.386-.2 6.849-.335 10.447a12929.43 12929.43 0 0 0-1.447 41.542z" fill="#112c41"/><path d="M5.346 623.7c47.57 18.823 111.963 20.679 166.478 13.389a384.833 384.833 0 0 0 44.492-8.514s-2.028-42.707-2.031-68.417l-11.321-.973S74.5 547.823 74.166 547.708C64 552.37 17.67 576.514 5.346 623.7z" fill="#b2b0f7"/><path d="M113.2 642.019c-41.136 0-79.356-5.971-108.222-17.394a1 1 0 0 1-.6-1.182c12.66-48.466 60.006-72.348 69.37-76.644a.987.987 0 0 1 .582-.077c2.351.289 127.456 11.351 128.721 11.463l11.319.973a1 1 0 0 1 .914 1c0 25.392 2.01 67.943 2.03 68.37a1 1 0 0 1-.75 1.015 384.447 384.447 0 0 1-44.608 8.537 445.251 445.251 0 0 1-58.756 3.939zM6.543 623.091c42 16.365 103.639 21.227 165.148 13a384.446 384.446 0 0 0 43.588-8.289c-.275-5.961-1.947-43.181-1.993-66.733l-10.407-.895c-109.24-9.658-125.887-11.184-128.52-11.457-6.583 3.058-54.92 26.93-67.816 74.374z" fill="#360815"/><path d="M216.316 628.571s-2.028-42.707-2.031-68.417l-14.08 1.324c-2.876 22.288-6.839 57.178-18.155 74.293-.119.18 20.716-3.71 34.266-7.2z" fill="#9797f7"/><path d="M142.757 642.5h-.137a2.5 2.5 0 0 1-2.361-2.633c.957-17.568 8.938-36.357 21.9-51.55 14.018-16.437 31.9-26.3 50.338-27.763a2.5 2.5 0 0 1 .4 4.985c-17.111 1.36-33.778 10.6-46.93 26.023-12.08 14.164-19.822 32.324-20.707 48.578a2.5 2.5 0 0 1-2.503 2.36z" fill="#fff"/><path d="M113.2 642.019c-41.136 0-79.356-5.971-108.222-17.394a1 1 0 0 1-.6-1.182c12.66-48.466 60.006-72.348 69.37-76.644a.987.987 0 0 1 .582-.077c2.351.289 127.456 11.351 128.721 11.463l11.319.973a1 1 0 0 1 .914 1c0 25.392 2.01 67.943 2.03 68.37a1 1 0 0 1-.75 1.015 384.447 384.447 0 0 1-44.608 8.537 445.251 445.251 0 0 1-58.756 3.939zM6.543 623.091c42 16.365 103.639 21.227 165.148 13a384.446 384.446 0 0 0 43.588-8.289c-.275-5.961-1.947-43.181-1.993-66.733l-10.407-.895c-109.24-9.658-125.887-11.184-128.52-11.457-6.583 3.058-54.92 26.93-67.816 74.374z" fill="#112c41"/><path d="M1.01 646.44a4.931 4.931 0 0 0 1.73 4.215c24.471 21.269 147.381 27.749 207.7 8.523 5.167-1.647 6.359-4.593 6.678-7.9l-.8-22.7C156.263 644.02 66.781 648 5.346 623.7c-2.2 7.7-3.941 15.537-4.336 22.74z" fill="#fff"/><path d="M116.273 671.628a511.48 511.48 0 0 1-23.171-.527c-44.49-2.019-79.366-9.564-91.018-19.691a5.907 5.907 0 0 1-2.072-5.025c.349-6.374 1.78-13.886 4.372-22.964a1 1 0 0 1 1.33-.655c62.036 24.544 152.527 19.712 210.353 4.834a1 1 0 0 1 1.248.933l.805 22.7a.832.832 0 0 1 0 .132c-.316 3.27-1.438 6.868-7.37 8.758-23.258 7.419-57.466 11.505-94.477 11.505zM6.008 625.03a102.265 102.265 0 0 0-4 21.465A3.953 3.953 0 0 0 3.4 649.9c13.87 12.055 62.879 19.77 113.337 19.771 33.875 0 68.4-3.474 93.406-11.446 4.514-1.439 5.664-3.831 5.981-6.98l-.758-21.4c-57.859 14.631-147.372 19.266-209.358-4.815z" fill="#112c41"/><path d="M214.284 560.15c-42.483 6.121-102.661-.237-140.118-12.442 0 0 .61-16.1 1.248-36.141.02-.695.047-1.4.074-2.1s.054-1.4.074-2.114.047-.806.074-1.523c34.982 9.07 92.291 15.3 141.443 14.579 0 0-.008.1-.013.283a1.459 1.459 0 0 1-.016.228c0 .078 0 .149-.01.22a834.885 834.885 0 0 0-2.756 39.01z" fill="#fff"/><path d="M177.787 563.481c-35.153 0-75.029-5.4-103.931-14.822a1 1 0 0 1-.689-.989c0-.161.617-16.324 1.248-36.135.019-.694.047-1.4.075-2.1l.008-.229c.023-.624.048-1.249.064-1.879.014-.355.025-.558.037-.757s.024-.409.037-.774a1 1 0 0 1 1.25-.933c35.71 9.259 93.765 15.238 141.179 14.547a.989.989 0 0 1 .747.319 1 1 0 0 1 .264.769c0 .011-.007.088-.01.222 0 .109-.008.2-.018.286a2.19 2.19 0 0 1-.019.284 828.778 828.778 0 0 0-2.745 38.908 1 1 0 0 1-.857.943 261.356 261.356 0 0 1-36.64 2.34zM75.193 546.99c39.2 12.6 98.224 17.851 138.132 12.286a831.577 831.577 0 0 1 2.684-37.853c-46.852.585-103.757-5.265-139.435-14.32 0 .084-.008.179-.013.289-.016.626-.041 1.257-.064 1.888l-.009.224c-.027.7-.055 1.4-.074 2.092a6807.227 6807.227 0 0 1-1.221 35.394z" fill="#112c41"/><circle cx="85.291" cy="576.58" fill="#ffe993" r="8.5"/><path d="M83.829 579.143c-15.277-.924-31.218-9.98-35.629-14.73a2.833 2.833 0 0 1 4.152-3.854c3.385 3.647 18.581 12.448 32.7 12.973a2.832 2.832 0 0 1-.206 5.66 43.509 43.509 0 0 1-1.017-.049z" fill="#fff"/><path d="M84.954 580.194h-.144c-.346-.012-.7-.029-1.042-.05-15.752-.953-31.763-10.16-36.3-15.047a3.832 3.832 0 0 1 5.616-5.216c3.3 3.552 18.164 12.14 32.006 12.654a3.832 3.832 0 0 1-.136 7.662zm-34.679-19.539a1.832 1.832 0 0 0-1.342 3.078c4.223 4.547 19.948 13.5 34.956 14.412.331.02.663.036.993.047a1.755 1.755 0 0 0 1.318-.492 1.833 1.833 0 0 0-1.182-3.173c-14.389-.535-29.932-9.559-33.4-13.292a1.836 1.836 0 0 0-1.343-.58z" fill="#112c41"/><circle cx="67.3" cy="596.55" fill="#ffe993" r="8.5"/><path d="M65.762 599.069c-15.242-1.376-31.86-12.923-36.128-17.8a2.832 2.832 0 0 1 4.263-3.73c3.277 3.746 19.157 15.017 33.255 15.959a2.832 2.832 0 0 1-.374 5.652c-.338-.024-.678-.05-1.016-.081z" fill="#fff"/><path d="M66.97 600.155q-.129 0-.258-.009c-.346-.023-.7-.05-1.041-.081-15.959-1.441-32.784-13.56-36.79-18.139a3.833 3.833 0 1 1 5.769-5.047c3.011 3.442 18.53 14.681 32.568 15.62a3.832 3.832 0 0 1-.248 7.656zm-35.206-22.584a1.831 1.831 0 0 0-1.377 3.038c3.856 4.408 20.067 16.074 35.465 17.464.33.03.661.056.991.078a1.845 1.845 0 0 0 1.328-.45 1.833 1.833 0 0 0-1.087-3.207c-14.616-.977-30.8-12.706-33.941-16.3a1.828 1.828 0 0 0-1.379-.623z" fill="#112c41"/><path d="M676.244 260c-64.14 27.09-152.56 13.18-196.77 24.73a68.625 68.625 0 0 0-8.62 2.82c-.01.01-.02.01-.04.02-5.75 2.36-10.35 5.43-13.57 9.43-8.77 10.91-9.36 24.09-6.01 37.26.01.05.02.09.03.13 6.04 23.52 17.58 42.98 24.37 53.37a8.818 8.818 0 0 1-1.41 11.28c-18.98 17.96-90.2 70.76-130.98 94.96-59.35-73.53-77.07-130.76-78-133-7 45-13 116-13 116a11.108 11.108 0 0 1-11 10c-3.42-.11-7.63-.3-12.46-.56-40.39-2.23-124.23-9.67-151.74-16.17 1.2-59.27 13.2-235.27 121.52-333.88C269.239 72.051 380.854 1 546.244 1c99.22 0 169.38 43.51 194.79 96.94a111.479 111.479 0 0 1 6.21 16.06c23 77-24.67 126.44-71 146z" fill="#ffa9dc"/><path d="M343.246 495a1 1 0 0 1-.78-.372c-48.113-59.609-69.274-108.75-76.831-129.554-6.66 44.564-12.336 111.321-12.394 112.01-1.046 7.329-6.983 11.083-12.029 10.915-3.4-.109-7.6-.3-12.481-.561-37.969-2.1-123.6-9.5-151.916-16.195a1 1 0 0 1-.77-.993c.737-36.424 4.914-92.434 20.623-152.421 20.54-78.437 54.6-139.731 101.223-182.178C296.765 45.64 413.968 0 546.245 0c46.895 0 90.307 9.873 125.542 28.55 32.675 17.322 56.933 41.168 70.151 68.96a113.081 113.081 0 0 1 6.265 16.2c10.565 35.37 7.334 67.449-9.605 95.345-13.532 22.287-35.539 40.706-61.965 51.862-39.3 16.6-87.108 17.858-129.292 18.97-27.087.714-50.482 1.331-67.614 5.807a68.017 68.017 0 0 0-8.445 2.758 1.031 1.031 0 0 1-.1.042c-5.839 2.4-10.146 5.385-13.16 9.129-7.6 9.453-9.558 21.695-5.821 36.387l.033.139c4.483 17.458 12.639 35.314 24.235 53.06a9.758 9.758 0 0 1-1.558 12.553c-18.4 17.412-88.751 69.928-131.158 95.094a.99.99 0 0 1-.507.144zm-78-135a1 1 0 0 1 .924.617c.06.146.191.517.4 1.1 6.565 18.824 27.171 69.171 76.915 130.978 30.621-18.309 105.6-71.235 130.058-94.383a7.78 7.78 0 0 0 1.259-10.007c-11.716-17.93-19.959-35.986-24.5-53.668l-.04-.168c-3.891-15.3-1.8-28.128 6.209-38.1 3.226-4.007 7.784-7.185 13.935-9.714.024-.013.05-.024.076-.035a69.95 69.95 0 0 1 8.745-2.861c17.355-4.535 40.856-5.154 68.068-5.871 42.006-1.107 89.617-2.363 128.567-18.813 26.041-11 47.717-29.127 61.033-51.058 16.632-27.392 19.794-58.929 9.4-93.735a111.12 111.12 0 0 0-6.155-15.916c-13.032-27.4-36.989-50.934-69.282-68.053C635.9 11.792 592.815 2 546.245 2 414.482 2 297.732 47.464 199.237 137.129 164.227 169 82.414 265.15 78.061 469.479c28.97 6.615 113.22 13.889 150.778 15.962 4.866.263 9.05.451 12.438.559 4.153.127 9.1-3.021 9.977-9.142.054-.652 6.078-71.492 13-116.012a1 1 0 0 1 .87-.839.961.961 0 0 1 .121-.007z" fill="#112c41"/><path d="M747.244 114c-.363-1.217-.758-2.43-1.166-3.64q-.143-.422-.289-.842-1.317-3.8-2.928-7.546l-.056-.132C719.714 48.3 652.1 3.754 555.314 1.13 643.9 11.5 703.244 50 723.244 105c12.866 35.38 9 70-10.8 96.832-21.33 28.905-66.288 43.8-110.2 49.168-63.24 7.73-156 2-165 54-4.54 26.23 13 61 30.71 87.19 2.226 3.292 2.82 7.76.63 11 .73-.76 4.96-5.34 5.58-6.04 2.86-3.24 2.164-7.589.04-11.36-13.96-24.79-19.66-36.49-22.94-51.4-.01-.04-.02-.08-.03-.13-5.46-25.02 3.01-39.26 19.58-46.69.021-.009.03-.01.04-.02a41.391 41.391 0 0 1 8.62-2.82c44.21-11.55 132.63 2.36 196.77-24.73 46.33-19.56 94-69 71-146zm-492.87 196.12c1.96 16.33 5.16 36.12 10.87 50.88-7 45-13 116-13 116a11.108 11.108 0 0 1-11 10c-3.42-.11-7.63-.3-12.46-.56.46-.09.94-.19 1.42-.33 3.72-1.03 7.86-3.76 8.19-10.79 1.58-33.67 4.06-102.79 15.98-165.2z" fill="#ff90d8"/><g fill="#112c41"><path d="M265.245 362a1 1 0 0 1-.953-.7c-28.729-90.973-2.534-166.262 75.753-217.726 31-20.388 70.257-37.428 116.676-50.647 19.582-5.588 40.891-10.6 63.335-14.91a1 1 0 1 1 .377 1.964c-22.387 4.3-43.637 9.3-63.164 14.87-46.223 13.163-85.293 30.118-116.125 50.394C263.683 196.167 237.768 270.669 266.2 360.7a1 1 0 0 1-.652 1.255 1.019 1.019 0 0 1-.303.045z"/><path d="M343.246 495a1 1 0 0 1-.78-.372c-48.113-59.609-69.274-108.75-76.831-129.554-6.66 44.564-12.336 111.321-12.394 112.01-1.046 7.329-6.983 11.083-12.029 10.915-3.4-.109-7.6-.3-12.481-.561-37.969-2.1-123.6-9.5-151.916-16.195a1 1 0 0 1-.77-.993c.737-36.424 4.914-92.434 20.623-152.421 20.54-78.437 54.6-139.731 101.223-182.178C296.765 45.64 413.968 0 546.245 0c46.895 0 90.307 9.873 125.542 28.55 32.675 17.322 56.933 41.168 70.151 68.96a113.081 113.081 0 0 1 6.265 16.2c10.565 35.37 7.334 67.449-9.605 95.345-13.532 22.287-35.539 40.706-61.965 51.862-39.3 16.6-87.108 17.858-129.292 18.97-27.087.714-50.482 1.331-67.614 5.807a68.017 68.017 0 0 0-8.445 2.758 1.031 1.031 0 0 1-.1.042c-5.839 2.4-10.146 5.385-13.16 9.129-7.6 9.453-9.558 21.695-5.821 36.387l.033.139c4.483 17.458 12.639 35.314 24.235 53.06a9.758 9.758 0 0 1-1.558 12.553c-18.4 17.412-88.751 69.928-131.158 95.094a.99.99 0 0 1-.507.144zm-78-135a1 1 0 0 1 .924.617c.06.146.191.517.4 1.1 6.565 18.824 27.171 69.171 76.915 130.978 30.621-18.309 105.6-71.235 130.058-94.383a7.78 7.78 0 0 0 1.259-10.007c-11.716-17.93-19.959-35.986-24.5-53.668l-.04-.168c-3.891-15.3-1.8-28.128 6.209-38.1 3.226-4.007 7.784-7.185 13.935-9.714.024-.013.05-.024.076-.035a69.95 69.95 0 0 1 8.745-2.861c17.355-4.535 40.856-5.154 68.068-5.871 42.006-1.107 89.617-2.363 128.567-18.813 26.041-11 47.717-29.127 61.033-51.058 16.632-27.392 19.794-58.929 9.4-93.735a111.12 111.12 0 0 0-6.155-15.916c-13.032-27.4-36.989-50.934-69.282-68.053C635.9 11.792 592.815 2 546.245 2 414.482 2 297.732 47.464 199.237 137.129 164.227 169 82.414 265.15 78.061 469.479c28.97 6.615 113.22 13.889 150.778 15.962 4.866.263 9.05.451 12.438.559 4.153.127 9.1-3.021 9.977-9.142.054-.652 6.078-71.492 13-116.012a1 1 0 0 1 .87-.839.961.961 0 0 1 .121-.007z"/></g></svg></g><g transform="translate(181.0 678.0) rotate(0.0 427.0 212.5) scale(1.0791303271003236 1.0815322640160219)"><svg width="791.378" height="392.961" viewBox="0 0 791.378 392.961"><g><g><g><g><g><g><g><path style="fill:#ffe993" d="M46.899 112.059c.65 1.75 1.41 3.57 2.29 5.45 15.89 34.55 61.365 80.792 89.476 101.252 3.872 3.136 9.988 4.221 14.391 2.387 9.25-5.83 14.993-9.388 21.633-12.178 11.71-4.93 18.73-5.98 18.75-5.98.46.76.92 1.53 1.38 2.28 26.81 43.75 75.16 73.44 130.92 74.6 20.75.43 40.64-3.12 58.91-9.96.02 0 .04-.01.05-.01 28.93-10.83 53.79-29.86 71.56-54.27.62-.83 1.23-1.68 1.82-2.53.55-.8 1.11-1.6 1.65-2.41.03-.07.08-.12.11-.18 1.65-2.46 3.22-4.97 4.72-7.52 0 0 13.34 9.07 18.34 13.07 33-23 103.651-71.964 122.651-94.964 4.85-5.87-5.611-19.816-10.651-26.036-15.62-19.3-78.55-75.76-212.16-90.7a550.21 550.21 0 0 0-36.68-2.86c-12.49-.56-24.75-.68-36.75-.2-3.52.14-7.01.32-10.48.53h-.01c-52.01 3.23-98.56 14.77-137.07 28.91-65.09 23.9-107.2 55.23-113.85 66.32-3 4.999-2.44 11.129-1 14.999z"/><path style="fill:#112c41" d="M329.139 280.904c-1.14 0-2.277-.012-3.42-.035-54.385-1.131-103.638-29.197-131.752-75.077-.311-.506-.621-1.021-.932-1.537l-.098-.162c-1.963.378-8.381 1.806-17.86 5.797-6.54 2.748-12.145 6.214-21.488 12.103a1.04 1.04 0 0 1-.148.077c-4.695 1.956-11.176.893-15.404-2.533-27.089-19.715-73.388-66.023-89.755-101.611a72.253 72.253 0 0 1-2.319-5.52c-1.562-4.196-2.098-10.566 1.08-15.863 6.429-10.721 47.817-42.31 114.362-66.744C205.86 13.477 252.072 3.73 298.758.831c3.677-.222 7.111-.396 10.511-.531 11.511-.46 23.561-.395 36.835.2a553.372 553.372 0 0 1 36.747 2.865C531.525 19.99 589.55 86.86 595.677 94.43c10.908 13.462 14.489 22.648 10.644 27.302-18.59 22.504-87.208 70.314-120.184 93.29l-2.665 1.857a.998.998 0 0 1-1.197-.04c-4.172-3.338-14.347-10.335-17.399-12.424a150.73 150.73 0 0 1-4.263 6.74c-.025.06-.015.035-.051.088-.392.588-.794 1.17-1.195 1.751l-.463.67a90.395 90.395 0 0 1-1.844 2.562c-18.099 24.862-43.002 43.749-72.01 54.608-.04.015-.082.027-.123.037-17.819 6.663-36.572 10.033-55.788 10.033zm-135.7-78.915c.35 0 .675.183.855.482l.453.751c.309.511.616 1.021.924 1.523 27.757 45.297 76.389 73.006 130.088 74.123 20.178.423 39.881-2.911 58.539-9.896.04-.015.081-.027.123-.037 28.608-10.726 53.169-29.361 71.028-53.895a89.017 89.017 0 0 0 1.808-2.512l.463-.671c.383-.554.767-1.109 1.141-1.669a1.67 1.67 0 0 1 .11-.176c1.62-2.42 3.197-4.934 4.725-7.53a1.001 1.001 0 0 1 1.425-.321c.525.357 12.487 8.496 17.815 12.652l2.057-1.433c32.903-22.926 101.37-70.63 119.786-92.923 3.064-3.709-.72-12.506-10.657-24.77-6.074-7.505-63.611-73.799-211.494-90.335a551.444 551.444 0 0 0-36.614-2.854c-13.219-.593-25.211-.659-36.665-.2-3.387.135-6.808.308-10.459.529-46.5 2.887-92.521 12.594-136.796 28.851C96.012 55.942 55.063 87.056 48.757 97.573c-2.816 4.694-2.256 10.549-.92 14.137a70.594 70.594 0 0 0 2.258 5.374c16.229 35.285 62.206 81.25 89.159 100.867 3.648 2.955 9.354 3.923 13.342 2.303 9.389-5.917 15.039-9.407 21.706-12.208 11.955-5.032 19.09-6.057 19.137-6.057z"/></g><path style="fill:#ffd169" d="M46.899 112.059c.65 1.75 3.454 6.853 4.334 8.733 6.421-6.972 15.686-15.383 18.936-18.023 69.29-56.86 174.02-91.31 228.65-100.94-52.01 3.23-98.56 14.77-137.07 28.91-65.09 23.9-107.2 55.23-113.85 66.32-3 5-2.44 11.13-1 15zm296.155 162.37c-54.546-3.45-106.33-39.838-138.412-95.328-3.136-5.435-20.805-17.694-27.077-18.556 0 0 4.593 16.675 9.494 27.576.512 1.12 1.018 2.228 1.554 3.334l.295.38a179.92 179.92 0 0 0 6.116 11.334l1.404 2.283c26.803 43.742 75.154 73.438 130.917 74.599l15.709-5.622z"/><path style="fill:#112c41" d="M329.139 280.904c-1.14 0-2.277-.012-3.42-.035-54.385-1.131-103.638-29.197-131.752-75.077-.311-.506-.621-1.021-.932-1.537l-.098-.162c-1.963.378-8.381 1.806-17.86 5.797-6.353 2.669-11.976 5.74-21.488 11.736-2.891 1.807-10.245 2.107-15.984-2.069-26.835-19.532-72.807-65.717-89.323-101.631a72.253 72.253 0 0 1-2.319-5.52c-1.562-4.196-2.098-10.566 1.08-15.863 6.429-10.721 47.817-42.31 114.362-66.744C205.86 13.477 252.072 3.73 298.758.831c3.677-.222 7.111-.396 10.511-.531 11.511-.46 23.561-.395 36.835.2a553.372 553.372 0 0 1 36.747 2.865C531.837 20.025 589.583 86.54 595.677 94.07c6.016 7.425 15.33 20.823 10.115 27.135-13.464 16.299-54.619 48.489-122.32 95.675a.998.998 0 0 1-1.197-.04c-4.172-3.338-14.347-10.335-17.399-12.424a149.228 149.228 0 0 1-4.203 6.646 1.542 1.542 0 0 1-.06.094c-.025.06-.015.035-.051.088-.392.588-.794 1.17-1.195 1.751l-.463.67a88.442 88.442 0 0 1-1.844 2.562c-18.099 24.862-43.002 43.749-72.01 54.608a1.09 1.09 0 0 1-.123.038c-17.819 6.661-36.572 10.031-55.788 10.031zm-135.7-78.915c.35 0 .675.183.855.482l.453.751c.309.511.616 1.021.924 1.523 27.757 45.297 76.389 73.006 130.088 74.123 20.178.423 39.881-2.911 58.539-9.896.04-.015.081-.027.123-.037 28.608-10.726 53.169-29.361 71.028-53.895a89.017 89.017 0 0 0 1.808-2.512l.463-.671c.383-.554.767-1.109 1.141-1.669.042-.079.084-.139.11-.176 1.62-2.42 3.197-4.934 4.725-7.53a1.001 1.001 0 0 1 1.425-.321c.525.357 12.487 8.496 17.815 12.652 67.192-46.852 108.005-78.773 121.314-94.884 4.594-5.56-6.591-20.237-10.129-24.603-6.041-7.464-63.3-73.404-211.494-89.975a551.444 551.444 0 0 0-36.614-2.854c-13.219-.593-25.211-.659-36.665-.2-3.387.135-6.808.308-10.459.529-46.5 2.887-92.521 12.594-136.796 28.851C96.012 55.942 55.063 87.056 48.757 97.573c-2.816 4.694-2.256 10.549-.92 14.137a70.594 70.594 0 0 0 2.258 5.374c16.378 35.611 62.028 81.453 88.688 100.856 5.136 3.738 11.677 3.283 13.743 1.992 9.613-6.059 15.312-9.169 21.776-11.885 11.955-5.033 19.09-6.058 19.137-6.058z"/><path style="fill:#112c41" d="M329.13 280.907c-1.137 0-2.271-.012-3.411-.035-54.385-1.132-103.637-29.198-131.749-75.077-8.409-13.723-14.565-28.562-18.3-44.105a1 1 0 0 1 1.945-.467c3.685 15.338 9.761 29.983 18.06 43.527 27.755 45.295 76.385 73.004 130.085 74.122 20.186.421 39.872-2.911 58.534-9.895a.746.746 0 0 1 .08-.026c28.627-10.722 53.207-29.364 71.079-53.91a94.115 94.115 0 0 0 1.8-2.512 135.351 135.351 0 0 0 1.709-2.501 151.673 151.673 0 0 0 15.832-30.75 150.127 150.127 0 0 0 6.85-24.167 1 1 0 1 1 1.963.381 151.929 151.929 0 0 1-6.941 24.492 153.263 153.263 0 0 1-15.993 31.083 127.245 127.245 0 0 1-1.775 2.604 91.145 91.145 0 0 1-1.831 2.556c-18.104 24.865-43.009 43.751-72.015 54.609l-.001-.002a1.714 1.714 0 0 1-.084.03c-17.838 6.668-36.607 10.043-55.837 10.043zM297.172 9.174c-.392 11.428 16.967 21.202 38.766 21.833 21.809.631 39.795-8.12 40.187-19.548.097-2.702-.814-5.316-2.543-7.741a584.745 584.745 0 0 0-36.71-2.249 500.102 500.102 0 0 0-36.75.255c-1.822 2.28-2.862 4.795-2.95 7.45z"/></g><g><g><path style="fill:#ffd6c0" d="M502.476 232.609c-6.249-5.385-11.584-10.014-19.577-16.55 30.31-21.13 87.63-71.79 111.48-97.72.18.24.35.48.52.72 24.51 35.01 43.266 83.239 98 89 19 2 40 0 57-15 8.431-7.439 15-12 20.617-8.687 4.55 2.684 5.427 10.59-.017 22.658 7.98-1.064 14.681.766 17.833 5.627 4.375 6.747.632 17.353-8.422 26.427 3.953 1.175 6.999 3.365 8.617 6.542 4.342 8.526-3.115 21.189-16.865 29.517 1.995 1.131 3.548 2.659 4.526 4.579 4.469 8.775-4.744 22.428-20.582 30.513-1.629.958-4.004 2.015-5.706 2.823-40 19-97.307 17.593-148-9-51.635-27.085-64.972-41.762-99.424-71.449z"/><path style="fill:#112c41" d="M688.759 326.882c-2.945 0-5.911-.075-8.9-.227-26.822-1.359-53.94-8.867-78.424-21.71-44.428-23.306-60.999-37.823-86.083-59.797a2126.95 2126.95 0 0 0-13.528-11.781l-1.467-1.263c-5.522-4.761-10.738-9.258-18.09-15.271a1 1 0 0 1 .061-1.594c29.214-20.366 86.432-70.522 111.315-97.576a1 1 0 0 1 1.536.077c.186.247.361.494.536.741 4.508 6.439 8.72 13.16 13.179 20.275 19.609 31.294 39.887 63.653 84.11 68.308 23.753 2.5 42.148-2.326 56.234-14.755 7.747-6.837 15.244-12.656 21.785-8.798 2.008 1.184 7.845 6.229 1.08 22.339 7.864-.66 14.031 1.583 17.067 6.264 4.385 6.761 1.454 17.06-7.445 26.533 3.565 1.375 6.208 3.611 7.692 6.526 4.379 8.599-2.43 21.296-15.892 29.984 1.542 1.126 2.733 2.504 3.552 4.112 4.709 9.246-4.72 23.538-21.018 31.858-1.275.752-3.035 1.574-4.588 2.298l-1.145.537c-17.899 8.503-39.033 12.92-61.567 12.92zm-185.631-95.031c4.882 4.207 9.284 8.063 13.541 11.792 25.865 22.658 41.478 36.334 85.695 59.53 47.923 25.142 105.666 28.666 147.106 8.982l1.156-.543c1.513-.706 3.227-1.506 4.472-2.238 15.369-7.848 24.406-20.934 20.198-29.198-.867-1.7-2.256-3.101-4.128-4.163a1 1 0 0 1-.026-1.726c13.444-8.143 20.535-20.27 16.492-28.208-1.435-2.818-4.205-4.906-8.011-6.038a.999.999 0 0 1-.423-1.665c8.925-8.944 12.256-19.062 8.291-25.176-2.818-4.346-8.962-6.232-16.862-5.18a.998.998 0 0 1-1.043-1.402c4.754-10.54 4.915-18.734.42-21.385-4.877-2.877-10.823.964-19.446 8.575-14.53 12.82-33.422 17.808-57.767 15.245-45.192-4.757-65.732-37.536-85.596-69.235-4.379-6.987-8.519-13.593-12.919-19.899-25.067 26.997-80.446 75.546-109.728 96.202 6.841 5.614 11.836 9.92 17.11 14.467l1.468 1.263z"/></g><path style="fill:#f5b9ab" d="M482.899 216.059c7.99 6.54 13.33 11.17 19.58 16.55 34.45 29.69 47.79 44.36 99.42 71.45 48.18 25.27 102.34 27.8 141.93 11.67-40.28 10.41-91.63 2.27-135.49-26.29-48.85-31.83-60.75-47.7-92.26-80.49-3.41-3.56-6.53-6.81-10.05-10.41-8.58 6.87-16.5 12.9-23.13 17.52z"/><path style="fill:#112c41" d="M693.359 261.42a1.001 1.001 0 0 1-.016-2c.23-.004 23.207-.609 36.842-20.189a1 1 0 1 1 1.641 1.142c-14.234 20.441-38.211 21.042-38.451 21.046l-.016.001z"/><path style="fill:#112c41" d="M688.759 326.882c-2.945 0-5.911-.075-8.9-.227-26.822-1.359-53.94-8.867-78.424-21.71-44.428-23.306-60.999-37.823-86.083-59.797a2126.95 2126.95 0 0 0-13.528-11.781l-1.467-1.263c-5.522-4.761-10.738-9.258-18.09-15.271a1 1 0 0 1 .061-1.594c29.214-20.366 86.432-70.522 111.315-97.576a1 1 0 0 1 1.536.077c.186.247.361.494.536.741 4.508 6.439 8.72 13.16 13.179 20.275 19.609 31.294 39.887 63.653 84.11 68.308 23.753 2.5 42.148-2.326 56.234-14.755 7.747-6.837 15.244-12.656 21.785-8.798 2.008 1.184 7.845 6.229 1.08 22.339 7.864-.66 14.031 1.583 17.067 6.264 4.385 6.761 1.454 17.06-7.445 26.533 3.565 1.375 6.208 3.611 7.692 6.526 4.379 8.599-2.43 21.296-15.892 29.984 1.542 1.126 2.733 2.504 3.552 4.112 4.709 9.246-4.72 23.538-21.018 31.858-1.275.752-3.035 1.574-4.588 2.298l-1.145.537c-17.899 8.503-39.033 12.92-61.567 12.92zm-185.631-95.031c4.882 4.207 9.284 8.063 13.541 11.792 25.865 22.658 41.478 36.334 85.695 59.53 47.923 25.142 105.666 28.666 147.106 8.982l1.156-.543c1.513-.706 3.227-1.506 4.472-2.238 15.369-7.848 24.406-20.934 20.198-29.198-.867-1.7-2.256-3.101-4.128-4.163a1 1 0 0 1-.026-1.726c13.444-8.143 20.535-20.27 16.492-28.208-1.435-2.818-4.205-4.906-8.011-6.038a.999.999 0 0 1-.423-1.665c8.925-8.944 12.256-19.062 8.291-25.176-2.818-4.346-8.962-6.232-16.862-5.18a.998.998 0 0 1-1.043-1.402c4.754-10.54 4.915-18.734.42-21.385-4.877-2.877-10.823.964-19.446 8.575-14.53 12.82-33.422 17.808-57.767 15.245-45.192-4.757-65.732-37.536-85.596-69.235-4.379-6.987-8.519-13.593-12.919-19.899-25.067 26.997-80.446 75.546-109.728 96.202 6.841 5.614 11.836 9.92 17.11 14.467l1.468 1.263z"/></g></g><g><ellipse transform="matrix(0.8058 -0.5922 0.5922 0.8058 -88.4831 214.9143)" style="fill:#ffd6c0" cx="283.397" cy="242.35" rx="50.601" ry="21.116"/><path style="fill:#112c41" d="M254.166 277.825c-5.54 0-9.864-1.594-12.319-4.935-7.333-9.977 5.174-31.206 28.473-48.331 23.297-17.125 47.291-22.726 54.627-12.748 3.586 4.879 2.503 12.648-3.049 21.877-5.403 8.981-14.433 18.375-25.424 26.454-15.497 11.391-31.303 17.683-42.308 17.683zm58.515-69.053c-10.5 0-26.148 6.264-41.219 17.341-22.053 16.209-34.641 36.681-28.061 45.634 6.581 8.954 29.876 3.049 51.93-13.16 10.79-7.931 19.638-17.127 24.912-25.894 5.126-8.519 6.243-15.529 3.148-19.74-2.083-2.835-5.844-4.181-10.71-4.181zm-41.79 16.564h.01-.01z"/></g><g><g><path style="fill:#ffd6c0" d="M324.777 280.911c46.719 30.367 46.234-40.73-33.887-50.35-43.756-5.254-72.6 16.378-120.137 14.079-19.647-.95-27.751-1.888-42.447-7.964-1.206-17.128 11.101-28.174 26.536-34.862-3.852-24.266-47.365-81.624-86.127-97.687-24.12 15.099-72.33 62.883-67.358 133.647 5.645 80.338 70.382 126.229 133.496 131.201 73.567 5.796 112.932-29.72 144.849-29.72h30.336c19.661 0 22.557-12.494 14.292-20.4 11.32 1.257 27.417-14.552.447-37.944z"/><path style="fill:#112c41" d="M151.02 370.618c-5.224 0-10.631-.204-16.245-.646-33.105-2.608-64.673-15.958-88.887-37.589C18.745 308.134 3.002 275.443.36 237.844c-4.904-69.788 42.221-118.538 67.824-134.565a.997.997 0 0 1 .913-.076c17.538 7.268 38.146 24.052 56.539 46.049 16.402 19.616 28.253 40.186 30.192 52.404a.998.998 0 0 1-.59 1.074c-12.396 5.371-26.882 15.485-25.974 33.258 14.354 5.87 22.469 6.729 41.535 7.651 22.799 1.104 41.335-3.349 59.261-7.654 19.609-4.709 38.134-9.159 60.948-6.418 39.09 4.693 61.075 24.237 65.522 41.525 1.791 6.959.295 12.957-4.001 16.044-4.826 3.465-12.378 2.911-21.312-1.411 11.145 12.068 10.016 20.805 8.077 25.233-2.184 4.989-7.361 8.528-12.67 8.929 2.917 3.666 3.818 7.987 2.332 11.69-2.212 5.514-9.108 8.676-18.921 8.676h-30.336c-11.783 0-24.904 5.035-40.099 10.865-22.94 8.805-50.819 19.5-88.58 19.5zM68.809 105.25C43.462 121.334-2.455 169.259 2.354 237.703c2.605 37.07 18.12 69.293 44.866 93.188 23.89 21.342 55.04 34.513 87.711 37.087 45.757 3.609 78.026-8.776 103.955-18.726 15.38-5.901 28.662-10.998 40.815-10.998h30.336c8.953 0 15.173-2.705 17.065-7.421 1.42-3.541.093-7.854-3.466-11.256a1 1 0 0 1 .802-1.716c4.483.498 10.545-2.037 13.025-7.704 3.411-7.793-1.452-18.178-13.343-28.492a1.001 1.001 0 0 1 1.2-1.594c11.218 7.291 20.708 9.273 26.042 5.441 3.601-2.588 4.809-7.792 3.231-13.922-3.192-12.408-20.227-34.803-63.824-40.038-22.463-2.697-40.813 1.711-60.243 6.377-18.062 4.338-36.742 8.821-59.823 7.708-19.578-.947-27.769-1.832-42.781-8.039a.998.998 0 0 1-.615-.854c-1.063-15.098 8.067-27.372 26.414-35.533-4.584-24.478-47.438-80.114-84.912-95.961z"/></g><path style="fill:#f5b9ab" d="M33.215 284.077c-24.162-44.706-24.108-98.962-2.89-141.113C-2.221 184.433-8.288 245.027 18.218 294.07c29.961 55.435 93.953 82.142 155.402 72.99-57.308-1.547-112.369-31.109-140.405-82.983z"/><g><path style="fill:#112c41" d="M129.839 392.961c-.458 0-.913-.047-1.369-.146-1.441-.312-2.672-1.277-3.656-2.867-6.936-11.204-1.431-53.578 7.271-87.759 9.592-37.676 26.823-74.778 39.106-71.657 3.834.977 6.377 5.638 7.559 13.856a1.002 1.002 0 0 1-1.981.284c-1.024-7.132-3.182-11.466-6.072-12.202-8.53-2.18-25.299 25.528-36.675 70.211-9.946 39.076-13.244 76.946-7.508 86.213.688 1.111 1.488 1.772 2.379 1.965 6.483 1.412 14.688-11.942 20.124-20.77l.485-.788a1 1 0 0 1 1.703 1.05l-.485.787c-5.724 9.294-13.442 21.822-20.881 21.823zm56.485-4.051c-.09 0-.179-.002-.269-.008-11.478-.728-18.889-37.381-16.185-80.04 2.39-37.704 12.404-76.223 25.043-75.418 3.854.245 6.839 3.032 9.125 8.522a1 1 0 1 1-1.846.769c-1.965-4.717-4.388-7.104-7.406-7.295-8.75-.58-20.087 28.869-22.92 73.549-2.783 43.898 5.263 77.342 14.315 77.917.049.003.098.005.147.005 4.369 0 10.371-12.092 13.082-23.128a1 1 0 1 1 1.941.476c-2.36 9.619-8.495 24.651-15.027 24.651z"/></g></g></g><g><g><ellipse transform="matrix(0.896 -0.4441 0.4441 0.896 -53.4301 362.3319)" style="fill:#ffd6c0" cx="746.714" cy="295.217" rx="32.862" ry="18.034"/><path style="fill:#112c41" d="M733.008 317.958c-7.774 0-13.984-2.542-16.563-7.533-1.519-2.938-1.669-6.496-.436-10.289 2.593-7.977 11.012-16.349 21.971-21.85 16.688-8.377 34.188-7.604 39.005 1.723 1.519 2.938 1.669 6.495.436 10.288-2.593 7.977-11.012 16.349-21.972 21.85-7.757 3.894-15.689 5.811-22.441 5.811zm27.552-43.53c-6.426 0-14.115 1.88-21.671 5.672-10.491 5.267-18.52 13.184-20.951 20.664-1.062 3.265-.955 6.284.309 8.729 4.312 8.345 20.593 8.721 36.291.84 10.492-5.267 18.521-13.185 20.952-20.665 1.062-3.265.955-6.283-.309-8.728-2.237-4.327-7.695-6.512-14.621-6.512z"/></g><g><ellipse transform="matrix(0.8963 -0.4435 0.4435 0.8963 -37.0341 363.7233)" style="fill:#ffd6c0" cx="759.006" cy="261.029" rx="33.22" ry="18.996"/><path style="fill:#112c41" d="M745.978 284.517c-8.183 0-14.789-2.752-17.562-8.12-1.646-3.185-1.814-7.024-.488-11.104 2.65-8.149 11.042-16.599 21.902-22.05 16.863-8.466 34.703-7.382 39.767 2.417 1.646 3.185 1.814 7.024.488 11.104-2.65 8.149-11.042 16.599-21.902 22.05-7.625 3.827-15.452 5.703-22.205 5.703zm26.185-45.015c-6.435 0-14.009 1.833-21.423 5.555-10.393 5.217-18.395 13.211-20.882 20.864-1.155 3.552-1.03 6.853.36 9.545 4.554 8.815 21.177 9.503 37.054 1.535 10.393-5.217 18.395-13.211 20.882-20.864 1.155-3.552 1.03-6.853-.36-9.545-2.428-4.699-8.286-7.09-15.631-7.09z"/></g><g><ellipse transform="matrix(0.8459 -0.5334 0.5334 0.8459 -6.1229 441.0209)" style="fill:#ffd6c0" cx="760.033" cy="231.105" rx="33.781" ry="19.021"/><path style="fill:#112c41" d="M745.494 256.226c-6.577 0-11.961-2.101-14.771-6.371-1.948-2.961-2.51-6.726-1.623-10.886 1.808-8.479 9.444-17.909 19.93-24.612 16.16-10.33 34.243-11.228 40.312-2.003 1.949 2.961 2.511 6.726 1.624 10.886-1.808 8.479-9.445 17.909-19.931 24.612-8.678 5.547-17.912 8.374-25.541 8.374zm29.134-48.294c-7.202 0-16.097 2.762-24.504 8.136-10.045 6.421-17.34 15.358-19.038 23.325-.771 3.617-.311 6.849 1.333 9.347 5.461 8.302 22.295 7.136 37.523-2.598 10.046-6.421 17.341-15.358 19.039-23.325.771-3.617.31-6.849-1.334-9.347-2.446-3.719-7.175-5.538-13.019-5.538z"/></g></g></g></g></g></svg></g><g transform="translate(1013.0 804.0) rotate(0.0 -267.0 126.5) scale(-1.0399666587468208 1.04081817359037)"><svg width="513.478" height="243.078" viewBox="0 0 513.478 243.078"><path d="M393.928 242.078H57.548a6.493 6.493 0 0 1-6.32-5l-3.07-13-46-194.72C-2.5 10.057 7.286 1.121 24.538 1.078c71.435-.176 285.74 0 285.74 0a36.931 36.931 0 0 1 35.91 28.42l2.66 11.25c.07.32.14.64.22.96l43.09 182.37 3.07 13 .61 2.59a1.959 1.959 0 0 1-1.91 2.41z" fill="#dedffe"/><path d="M393.928 243.078H57.548a7.464 7.464 0 0 1-7.294-5.77L1.184 29.588c-2.231-9.242-1.323-16.527 2.7-21.647S15.045.1 24.535.078c70.62-.175 283.6 0 285.744 0a37.932 37.932 0 0 1 36.882 29.191l2.661 11.249c.082.375.144.661.215.948l46.775 197.973a2.959 2.959 0 0 1-2.884 3.639zM130.179 2c-42.342 0-81.979.02-105.638.078C15.685 2.1 9.084 4.555 5.454 9.176S1.049 20.5 3.129 29.124L52.2 236.848a5.471 5.471 0 0 0 5.347 4.23h336.38a.959.959 0 0 0 .937-1.18l-3.681-15.59-43.089-182.369c-.073-.293-.14-.6-.207-.9l-2.673-11.307a35.932 35.932 0 0 0-34.936-27.65C308.852 2.077 214.2 2 130.179 2z" fill="#112c41"/><path d="M512.478 229.578v7a5.5 5.5 0 0 1-5.5 5.5H57.545a6.491 6.491 0 0 1-6.317-5l-3.07-13h458.82a5.5 5.5 0 0 1 5.5 5.5z" fill="#b2b0f7"/><path d="M506.978 243.078H57.545a7.464 7.464 0 0 1-7.291-5.77l-3.07-13a1 1 0 0 1 .974-1.23h458.82a6.508 6.508 0 0 1 6.5 6.5v7a6.508 6.508 0 0 1-6.5 6.5zm-457.557-18 2.78 11.77a5.47 5.47 0 0 0 5.344 4.23h449.433a4.5 4.5 0 0 0 4.5-4.5v-7a4.505 4.505 0 0 0-4.5-4.5z" fill="#112c41"/><path d="M395.228 237.078a4.066 4.066 0 0 1-3.957 5H57.548a6.493 6.493 0 0 1-6.32-5l-3.07-13h344z" fill="#cbc8ff"/><path d="M391.271 243.078H57.548a7.464 7.464 0 0 1-7.294-5.77l-3.07-13a1 1 0 0 1 .974-1.23h344a1 1 0 0 1 .973.77l3.07 13a5.067 5.067 0 0 1-4.93 6.229zm-341.85-18 2.78 11.77a5.471 5.471 0 0 0 5.347 4.23h333.723a3.065 3.065 0 0 0 2.983-3.77l-2.887-12.23z" fill="#112c41"/><circle cx="183.478" cy="118.078" fill="#fff" r="21.447"/></svg></g><g transform="translate(861.0 558.0) rotate(0.0 332.0 223.0) scale(1.0489615438691833 1.049105672697848)"><svg width="633.007" height="425.124" viewBox="0 0 633.007 425.124"><ellipse cx="44.718" cy="147.563" fill="#ffd169" rx="43.998" ry="42.031" transform="matrix(.9214 -.3886 .3886 .9214 -53.8291 28.9757)"/><path d="M43.352 190.895c-17.177 0-33.265-9.652-40.096-25.846-9.22-21.862 1.878-47.493 24.74-57.135 22.864-9.644 48.963.3 58.185 22.162 9.22 21.862-1.878 47.493-24.74 57.135-5.928 2.5-12.077 3.684-18.089 3.684zm2.737-84.666c-5.756 0-11.638 1.133-17.315 3.527C6.928 118.97-3.692 143.426 5.1 164.272c8.792 20.847 33.719 30.31 55.563 21.097 21.846-9.213 32.466-33.669 23.674-54.515-6.507-15.429-21.855-24.625-38.248-24.625z" fill="#112c41"/><ellipse cx="48.934" cy="145.549" fill="#ffe993" rx="41.853" ry="41.945"/><path d="M48.935 188.494c-23.629 0-42.853-19.265-42.853-42.945s19.224-42.945 42.853-42.945 42.853 19.265 42.853 42.945-19.224 42.945-42.853 42.945zm0-83.89c-22.526 0-40.853 18.368-40.853 40.945s18.326 40.945 40.853 40.945 40.853-18.368 40.853-40.945-18.327-40.945-40.853-40.945z" fill="#112c41"/><ellipse cx="48.934" cy="145.549" fill="#ffe993" rx="32.474" ry="32.403" transform="matrix(.8892 -.4575 .4575 .8892 -61.1651 38.5109)"/><g fill="#112c41"><path d="M48.932 178.962c-12.135 0-23.851-6.606-29.764-18.1-4.081-7.934-4.822-16.986-2.087-25.489 2.736-8.502 8.621-15.437 16.572-19.527 7.95-4.09 17.014-4.846 25.522-2.129 8.509 2.717 15.442 8.583 19.524 16.518s4.823 16.986 2.087 25.489c-2.736 8.501-8.621 15.437-16.572 19.527a33.32 33.32 0 0 1-15.282 3.711zm.026-64.846c-4.948 0-9.861 1.179-14.391 3.509-7.476 3.846-13.01 10.367-15.582 18.361-2.572 7.993-1.876 16.503 1.962 23.961 7.922 15.398 26.922 21.465 42.354 13.525 7.476-3.846 13.01-10.367 15.582-18.361s1.876-16.503-1.962-23.961c-3.837-7.458-10.354-12.973-18.354-15.527a31.532 31.532 0 0 0-9.609-1.507zm14.8 60.246h.01z"/><path d="m30.139 153.198 25.19-25.19 1.414 1.415-25.19 25.19z"/><path d="M56.943 151.811h-.014a9.815 9.815 0 0 1-6.974-2.896l-6.686-6.687a.999.999 0 1 1 1.414-1.414l6.686 6.687a7.832 7.832 0 0 0 5.562 2.311h.011a7.786 7.786 0 0 0 5.542-2.293 7.943 7.943 0 0 0 2.31-5.609 7.981 7.981 0 0 0-2.353-5.606l-9.63-9.535a1 1 0 1 1 1.406-1.421l9.63 9.535a9.991 9.991 0 0 1 2.946 7.02 9.952 9.952 0 0 1-2.896 7.031 9.77 9.77 0 0 1-6.954 2.877z"/><path d="M45.077 165.837c-2.33 0-4.468-.863-6.062-2.458l-11.464-11.466a.999.999 0 1 1 1.414-1.414l11.464 11.466c1.292 1.292 3.056 1.953 5.003 1.863 1.969-.093 3.861-.952 5.327-2.417 3.221-3.22 3.486-8.195.593-11.089l-6.651-6.652a.999.999 0 1 1 1.414-1.414l6.651 6.652c3.674 3.674 3.407 9.918-.593 13.917-1.819 1.819-4.18 2.885-6.647 3.001a8.41 8.41 0 0 1-.449.011zm13.405-34.451a.999.999 0 0 1-.707-1.707l4.265-4.264a.999.999 0 1 1 1.414 1.414l-4.265 4.264a.995.995 0 0 1-.707.293zm4.951 4.952a.999.999 0 0 1-.707-1.707l4.265-4.264a.999.999 0 1 1 1.414 1.414l-4.265 4.264a.993.993 0 0 1-.707.293z"/><path d="M28.499 161.363a.999.999 0 0 1-.707-1.707l4.388-4.386a.999.999 0 1 1 1.414 1.414l-4.388 4.386a.997.997 0 0 1-.707.293zm4.951 4.952a.999.999 0 0 1-.707-1.707l4.388-4.386a.999.999 0 1 1 1.414 1.414l-4.388 4.386a.997.997 0 0 1-.707.293z"/></g><ellipse cx="206.79" cy="51.487" fill="#ffd169" rx="50.532" ry="48.273" transform="matrix(.9214 -.3886 .3886 .9214 -3.7554 84.4067)"/><path d="M205.22 101.107c-19.668 0-38.092-11.052-45.912-29.594-5.118-12.135-4.984-25.626.376-37.989 5.354-12.347 15.283-22.091 27.958-27.437 26.184-11.042 56.073.341 66.631 25.375s-2.153 54.384-28.335 65.426c-6.79 2.863-13.831 4.219-20.718 4.219zm3.144-97.24c-6.63 0-13.405 1.305-19.944 4.062-12.199 5.145-21.752 14.517-26.9 26.39-5.141 11.857-5.271 24.79-.367 36.417 10.128 24.018 38.845 34.922 64.009 24.309 25.166-10.614 37.398-38.789 27.269-62.806-7.499-17.778-25.181-28.372-44.067-28.372z" fill="#112c41"/><ellipse cx="211.632" cy="49.174" fill="#ffe993" rx="48.068" ry="48.174"/><path d="M211.632 98.348c-27.057 0-49.068-22.059-49.068-49.174S184.575 0 211.632 0 260.7 22.06 260.7 49.174s-22.011 49.174-49.068 49.174zm0-96.348c-25.953 0-47.068 21.162-47.068 47.174s21.115 47.174 47.068 47.174S258.7 75.186 258.7 49.174 237.585 2 211.632 2z" fill="#112c41"/><ellipse cx="211.632" cy="49.174" fill="#ffe993" rx="37.215" ry="37.297" transform="matrix(.9998 -.02 .02 .9998 -.9424 4.2486)"/><path d="M211.615 87.471c-9.917 0-19.285-3.776-26.458-10.682-7.361-7.087-11.527-16.623-11.732-26.85s3.576-19.921 10.647-27.298 16.587-11.552 26.792-11.757c10.241-.186 19.881 3.586 27.242 10.674 7.361 7.087 11.527 16.623 11.732 26.85.205 10.227-3.576 19.921-10.647 27.298s-16.587 11.552-26.792 11.757c-.261.005-.523.008-.784.008zm.033-74.594c-.248 0-.494.002-.742.008-9.672.193-18.688 4.15-25.39 11.141-6.701 6.992-10.285 16.18-10.091 25.874.193 9.694 4.143 18.731 11.119 25.449s16.169 10.33 25.814 10.115c9.672-.193 18.688-4.15 25.39-11.141 6.701-6.992 10.285-16.18 10.091-25.874-.193-9.693-4.143-18.731-11.119-25.449-6.797-6.544-15.676-10.123-25.072-10.123z" fill="#112c41"/><path d="m196.912 33.672 1.893-.649 13.265 38.706-1.893.648z" fill="#112c41"/><path d="M204.974 53.254a1 1 0 0 1-.324-1.946l10.273-3.521c2.322-.796 4.196-2.446 5.276-4.646s1.238-4.686.444-7a9.265 9.265 0 0 0-4.695-5.3 9.322 9.322 0 0 0-7.085-.41l-14.698 5.121a1 1 0 1 1-.658-1.888l14.698-5.121a11.335 11.335 0 0 1 8.616.499 11.276 11.276 0 0 1 5.715 6.452 11.08 11.08 0 0 1-.541 8.53 11.123 11.123 0 0 1-6.424 5.656l-10.273 3.52a.992.992 0 0 1-.324.054z" fill="#112c41"/><path d="M207.031 74.359a1 1 0 0 1-.324-1.946l17.615-6.037c2.026-.695 3.637-2.222 4.536-4.302.913-2.112.983-4.536.199-6.824-1.723-5.026-6.807-7.851-11.329-6.302l-10.22 3.502a1 1 0 1 1-.649-1.892l10.22-3.502c5.563-1.907 11.788 1.476 13.87 7.545.946 2.76.855 5.695-.256 8.266-1.125 2.603-3.158 4.521-5.724 5.4l-17.615 6.037a.954.954 0 0 1-.323.055zm-6.22-41.689a1 1 0 0 1-.946-.676l-2.245-6.552a1 1 0 0 1 1.893-.648l2.245 6.552a1 1 0 0 1-.947 1.324zm7.608-2.607a1 1 0 0 1-.946-.676l-2.245-6.552a1 1 0 0 1 1.893-.648l2.245 6.552a1 1 0 0 1-.947 1.324z" fill="#112c41"/><path d="M216.597 78.734a1 1 0 0 1-.946-.676l-2.31-6.74a1 1 0 0 1 1.893-.648l2.31 6.74a1 1 0 0 1-.947 1.324zm7.608-2.607a1 1 0 0 1-.946-.676l-2.31-6.74a1 1 0 0 1 1.893-.648l2.31 6.74a1 1 0 0 1-.947 1.324z" fill="#112c41"/><ellipse cx="408.17" cy="121.335" fill="#ffd169" rx="60.015" ry="57.331" transform="matrix(.9214 -.3886 .3886 .9214 -15.071 168.1541)"/><path d="M406.236 180.111a61.162 61.162 0 0 1-21.769-3.997c-14.91-5.67-26.458-16.704-32.517-31.068-6.058-14.364-5.899-30.335.447-44.971 6.339-14.62 18.096-26.157 33.104-32.487 30.996-13.074 66.388.399 78.888 30.036 6.058 14.364 5.899 30.335-.447 44.971-6.339 14.62-18.096 26.157-33.104 32.487-7.941 3.349-16.294 5.029-24.602 5.029zm3.803-115.519c-7.897 0-15.972 1.555-23.76 4.839-14.532 6.129-25.914 17.294-32.047 31.44-6.127 14.129-6.283 29.541-.438 43.397 5.844 13.856 16.989 24.502 31.384 29.976 14.412 5.481 30.353 5.123 44.883-1.006 14.532-6.129 25.914-17.294 32.047-31.44 6.127-14.129 6.283-29.541.438-43.397-8.934-21.185-30.003-33.809-52.507-33.809z" fill="#112c41"/><ellipse cx="413.921" cy="118.588" fill="#ffe993" rx="57.088" ry="57.214"/><path d="M413.921 176.802c-32.029 0-58.088-26.115-58.088-58.214s26.059-58.214 58.088-58.214 58.088 26.115 58.088 58.214-26.059 58.214-58.088 58.214zm0-114.428c-30.927 0-56.088 25.217-56.088 56.214s25.161 56.214 56.088 56.214 56.088-25.217 56.088-56.214-25.161-56.214-56.088-56.214z" fill="#112c41"/><ellipse cx="413.921" cy="118.588" fill="#ffe993" rx="44.198" ry="44.296" transform="matrix(.8892 -.4575 .4575 .8892 -8.397 202.4994)"/><path d="M414.049 163.886c-4.655 0-9.333-.729-13.896-2.196-11.505-3.702-20.889-11.666-26.424-22.424-11.426-22.209-2.691-49.554 19.47-60.955 22.16-11.4 49.487-2.609 60.913 19.601 11.426 22.209 2.691 49.553-19.47 60.955-6.478 3.331-13.508 5.019-20.593 5.019zm-.279-88.568a42.848 42.848 0 0 0-19.656 4.771c-21.18 10.897-29.526 37.033-18.604 58.262 5.29 10.284 14.26 17.896 25.257 21.436 10.995 3.539 22.702 2.58 32.963-2.699 21.18-10.897 29.526-37.033 18.604-58.261-7.678-14.922-22.864-23.509-38.564-23.509z" fill="#112c41"/><path d="m390.262 109.624 1.415-1.414 34.355 34.365-1.414 1.414z" fill="#112c41"/><path d="M408.426 126.35a.999.999 0 0 1-.707-1.707l9.121-9.119c4.328-4.328 4.339-11.36.023-15.676-2.081-2.081-4.96-3.279-7.909-3.257a11.259 11.259 0 0 0-7.905 3.317l-13.006 13.136a1 1 0 0 1-1.422-1.407L399.627 98.5a13.273 13.273 0 0 1 9.319-3.91h.049c3.459 0 6.84 1.399 9.282 3.843 5.095 5.096 5.085 13.397-.023 18.504l-9.121 9.119a.994.994 0 0 1-.707.294z" fill="#112c41"/><path d="M421.639 147.789a.999.999 0 0 1-.707-1.707l15.64-15.636c1.837-1.836 2.777-4.357 2.648-7.098-.131-2.777-1.34-5.443-3.404-7.507-2.209-2.209-5.062-3.504-8.034-3.645-2.95-.148-5.639.868-7.606 2.836l-9.074 9.072a.999.999 0 1 1-1.414-1.414l9.074-9.072c2.372-2.372 5.611-3.582 9.115-3.42 3.471.165 6.792 1.667 9.354 4.229 2.417 2.417 3.833 5.552 3.987 8.827.156 3.311-.991 6.367-3.231 8.606l-15.64 15.636a1.001 1.001 0 0 1-.708.293zm-28.399-41.224a.997.997 0 0 1-.707-.293l-5.816-5.817a.999.999 0 1 1 1.414-1.414l5.816 5.817a.999.999 0 0 1-.707 1.707zm6.754-6.754a.997.997 0 0 1-.707-.293l-5.816-5.817a.999.999 0 1 1 1.414-1.414l5.816 5.817a.999.999 0 0 1-.707 1.707z" fill="#112c41"/><path d="M434.128 147.462a.997.997 0 0 1-.707-.293l-5.983-5.984a.999.999 0 1 1 1.414-1.414l5.983 5.984a.999.999 0 0 1-.707 1.707zm6.755-6.754a.997.997 0 0 1-.707-.293l-5.983-5.984a.999.999 0 1 1 1.414-1.414l5.983 5.984a.999.999 0 0 1-.707 1.707z" fill="#112c41"/><ellipse cx="550.552" cy="349.253" fill="#ffd169" rx="77.795" ry="74.317" transform="matrix(.9214 -.3886 .3886 .9214 -92.4507 241.3978)"/><path d="M548.133 425.104c-30.07 0-58.231-16.891-70.185-45.23-16.138-38.267 3.302-83.134 43.335-100.018 19.383-8.176 40.652-8.65 59.889-1.334 19.251 7.321 34.16 21.566 41.982 40.111 7.821 18.545 7.616 39.165-.578 58.061-8.187 18.88-23.371 33.781-42.756 41.957-10.384 4.379-21.155 6.453-31.687 6.453zm4.927-149.744c-10.469 0-20.99 2.117-30.999 6.338-39.017 16.455-57.979 60.147-42.269 97.397s60.237 54.164 99.251 37.711c18.908-7.975 33.717-22.503 41.698-40.909 7.975-18.391 8.177-38.452.569-56.488-7.606-18.037-22.114-31.894-40.85-39.019a77.005 77.005 0 0 0-27.4-5.03z" fill="#112c41"/><ellipse cx="558.006" cy="345.692" fill="#ffe993" rx="74.001" ry="74.165"/><path d="M558.006 420.856c-41.355 0-75.001-33.719-75.001-75.165s33.646-75.165 75.001-75.165 75.001 33.719 75.001 75.165-33.645 75.165-75.001 75.165zm0-148.329c-40.253 0-73.001 32.821-73.001 73.165s32.748 73.165 73.001 73.165 73.001-32.821 73.001-73.165-32.748-73.165-73.001-73.165z" fill="#112c41"/><ellipse cx="558.006" cy="345.692" fill="#ffe993" rx="57.419" ry="57.292" transform="matrix(.8892 -.4575 .4575 .8892 -96.3313 293.575)"/><path d="M557.968 404.04a58.558 58.558 0 0 1-17.836-2.797c-14.849-4.742-26.949-14.979-34.073-28.825-7.123-13.846-8.416-29.643-3.642-44.481s15.046-26.94 28.922-34.079c13.876-7.138 29.693-8.458 44.541-3.716 14.849 4.743 26.949 14.979 34.073 28.826 7.123 13.846 8.416 29.643 3.642 44.481-4.774 14.837-15.046 26.94-28.922 34.079-8.404 4.323-17.522 6.512-26.705 6.512zm.078-114.695c-8.869 0-17.675 2.114-25.793 6.291-13.4 6.895-23.32 18.583-27.932 32.914-4.611 14.329-3.362 29.583 3.517 42.954 6.878 13.37 18.563 23.255 32.902 27.835 14.34 4.58 29.616 3.305 43.019-3.589 13.4-6.895 23.32-18.583 27.932-32.913 4.611-14.329 3.362-29.583-3.517-42.954-6.878-13.37-18.563-23.256-32.902-27.835a56.527 56.527 0 0 0-17.226-2.703z" fill="#112c41"/><path d="m525.312 359.764 44.54-44.54 1.414 1.415-44.54 44.54z" fill="#112c41"/><path d="M572.165 355.988c-4.274 0-8.553-1.63-11.811-4.888l-11.82-11.824a.999.999 0 1 1 1.414-1.414l11.82 11.824c5.725 5.726 15.029 5.739 20.739.03a14.811 14.811 0 0 0 4.309-10.464 14.898 14.898 0 0 0-4.388-10.457l-17.027-16.858a1 1 0 1 1 1.406-1.421l17.027 16.858a16.904 16.904 0 0 1 4.981 11.87 16.824 16.824 0 0 1-4.895 11.886c-3.238 3.239-7.494 4.858-11.755 4.858z" fill="#112c41"/><path d="M551.2 380.788c-3.773 0-7.437-1.358-10.189-4.112l-20.269-20.273a.999.999 0 1 1 1.414-1.414l20.269 20.273c5.062 5.064 13.744 4.625 19.353-.979 5.994-5.994 6.464-15.277 1.047-20.694l-11.76-11.762a.999.999 0 1 1 1.414-1.414l11.76 11.762c6.196 6.197 5.727 16.749-1.047 23.522-3.378 3.377-7.755 5.091-11.992 5.091zm23.688-60.906a.999.999 0 0 1-.707-1.707l7.54-7.539a.999.999 0 1 1 1.414 1.414l-7.54 7.539a.993.993 0 0 1-.707.293zm8.754 8.757a.999.999 0 0 1-.707-1.707l7.54-7.539a.999.999 0 1 1 1.414 1.414l-7.54 7.539a.997.997 0 0 1-.707.293z" fill="#112c41"/><path d="M521.874 372.885a.999.999 0 0 1-.707-1.707l7.757-7.756a.999.999 0 1 1 1.414 1.414l-7.757 7.756a.993.993 0 0 1-.707.293zm8.754 8.757a.999.999 0 0 1-.707-1.707l7.758-7.756a.999.999 0 1 1 1.414 1.414l-7.758 7.756a.997.997 0 0 1-.707.293z" fill="#112c41"/></svg></g><g transform="translate(1244.0 1146.0) rotate(0.0 217.0 253.5) scale(1.0371758228102206 1.0378391656346275)"><svg width="418.444" height="488.515" viewBox="0 0 418.444 488.515"><path d="M115.284 179.131c-7.212-12.314-19.201-23.291-35.181-33.152a7.934 7.934 0 0 0-11.222 3.064c-10.614 20.793-11.98 42.101-8.35 63.684" fill="#badcee"/><path d="M60.53 214.061a1.332 1.332 0 0 1-1.312-1.111c-4.078-24.248-1.306-45.348 8.477-64.509a9.048 9.048 0 0 1 5.689-4.638 9.348 9.348 0 0 1 7.418 1.042c16.569 10.223 28.557 21.533 35.631 33.613a1.332 1.332 0 1 1-2.299 1.347c-6.852-11.7-18.538-22.702-34.725-32.695a6.683 6.683 0 0 0-5.301-.743 6.407 6.407 0 0 0-4.034 3.283c-9.513 18.634-12.203 39.194-8.223 62.855a1.333 1.333 0 0 1-1.321 1.556z" fill="#112c41"/><path d="M65.653 389.696s1.472 57.715 28.828 60.436c26.168 2.599 40.16-53.581 40.16-53.581" fill="#6ecfea"/><path d="M96.286 451.553c-.644 0-1.287-.032-1.937-.096-11.792-1.172-20.724-12.317-25.832-32.232a151.208 151.208 0 0 1-4.197-29.496 1.333 1.333 0 0 1 1.298-1.366 1.314 1.314 0 0 1 1.366 1.259l.001.038c.015.566 1.752 56.574 27.628 59.145 24.742 2.455 38.597-52.026 38.734-52.578a1.333 1.333 0 0 1 2.586.644 159.751 159.751 0 0 1-10.365 28.033c-8.73 17.696-18.573 26.649-29.282 26.649z" fill="#112c41"/><path d="M417.11 296.664c0 86.826-88.878 157.212-198.513 157.212-6.342 0-12.608-.235-18.799-.706-100.815-7.488-179.714-74.703-179.714-156.506 0-86.826 88.878-157.212 198.513-157.212 81.617 0 151.736 39.01 182.246 94.78a129.486 129.486 0 0 1 16.267 62.432z" fill="#badcee"/><path d="M218.597 455.208c-6.298 0-12.657-.238-18.899-.71-49.253-3.657-94.86-21.665-128.434-50.705-33.863-29.293-52.511-67.34-52.511-107.129 0-87.422 89.649-158.544 199.845-158.544 79.692 0 151.685 37.476 183.414 95.473a130.334 130.334 0 0 1 16.431 63.071c-.001 87.422-89.651 158.544-199.846 158.544zm0-314.424c-108.727 0-197.181 69.927-197.181 155.879 0 39.003 18.322 76.341 51.591 105.119 33.138 28.668 78.206 46.448 126.89 50.064 6.178.466 12.469.702 18.7.702 108.725 0 197.181-69.927 197.181-155.879a127.687 127.687 0 0 0-16.105-61.792c-31.266-57.161-102.343-94.093-181.076-94.093z" fill="#112c41"/><path d="M417.11 296.664c0 86.826-88.878 157.212-198.513 157.212-6.342 0-12.608-.235-18.799-.706a95.474 95.474 0 0 1 8.14-23.275s39.969 2.665 75.941-9.326 70.612-41.301 95.926-83.935c20.97-35.306 20.917-84.335 21.037-102.401a129.469 129.469 0 0 1 16.268 62.431z" fill="#6ecfea"/><path d="M63.437 314.625a46.41 46.41 0 0 1-10.658 17.586 13.321 13.321 0 0 1-11.269 3.898l-26.278-3.497 9.859-74.109 24.546 3.265a13.769 13.769 0 0 1 10.84 8.242 49.15 49.15 0 0 1 2.441 6.835" fill="#badcee"/><path d="M43.229 337.554c-.634 0-1.266-.042-1.895-.125l-26.276-3.496a1.333 1.333 0 0 1-1.148-1.494l.001-.005 9.859-74.108a1.333 1.333 0 0 1 1.496-1.146l24.545 3.265a15.173 15.173 0 0 1 11.891 9.038 49.801 49.801 0 0 1 2.506 7.032 1.333 1.333 0 1 1-2.582.654 47.348 47.348 0 0 0-2.374-6.639 12.496 12.496 0 0 0-9.791-7.445l-23.225-3.087-9.509 71.469 24.958 3.32a12.064 12.064 0 0 0 10.143-3.512 45.276 45.276 0 0 0 10.348-17.083 1.332 1.332 0 0 1 2.521.863 47.943 47.943 0 0 1-10.968 18.086 14.76 14.76 0 0 1-10.5 4.413z" fill="#112c41"/><path d="M218.22 455.005c-6.298 0-12.657-.238-18.899-.71-49.253-3.657-94.86-21.665-128.434-50.705-33.863-29.295-52.513-67.34-52.513-107.129 0-87.422 89.651-158.544 199.845-158.544 79.686 0 151.687 37.475 183.414 95.473a130.312 130.312 0 0 1 16.431 63.071c.001 87.422-89.648 158.544-199.844 158.544zm0-314.423c-108.725 0-197.181 69.927-197.181 155.879 0 39.003 18.322 76.334 51.591 105.119 33.14 28.668 78.206 46.448 126.89 50.064 6.179.466 12.469.702 18.7.702 108.725 0 197.181-69.927 197.181-155.879a127.7 127.7 0 0 0-16.106-61.798c-31.266-57.156-102.343-94.087-181.075-94.087z" fill="#112c41"/><ellipse cx="22.109" cy="295.964" fill="#badcee" rx="37.764" ry="20.34" transform="matrix(.1319 -.9913 .9913 .1319 -274.1859 278.8499)"/><path d="M18.62 334.832a12.57 12.57 0 0 1-1.667-.111c-5.894-.783-10.82-5.653-13.869-13.709C.137 313.23-.733 303.32.626 293.107c2.891-21.731 14.589-37.494 26.646-35.896 5.893.783 10.818 5.653 13.868 13.709 2.944 7.779 3.817 17.689 2.458 27.902s-4.796 19.55-9.669 26.289c-4.58 6.323-9.956 9.721-15.309 9.721zm6.964-75.069c-9.95 0-19.781 14.63-22.316 33.695-1.302 9.783-.482 19.233 2.309 26.607 2.686 7.097 6.851 11.363 11.724 12.012s10.014-2.379 14.461-8.527c4.622-6.388 7.883-15.295 9.193-25.078s.484-19.236-2.314-26.61c-2.686-7.097-6.851-11.363-11.724-12.012a10.265 10.265 0 0 0-1.333-.087z" fill="#112c41"/><ellipse cx="106.887" cy="245.428" fill="#112c41" rx="12.129" ry="9.097" transform="matrix(.2722 -.9622 .9622 .2722 -158.37 281.4657)"/><ellipse cx="29.873" cy="298.59" fill="#112c41" rx="7.029" ry="5.272" transform="matrix(.2722 -.9622 .9622 .2722 -265.5727 246.05)"/><ellipse cx="12.553" cy="293.261" fill="#112c41" rx="7.029" ry="5.272" transform="matrix(.2722 -.9622 .9622 .2722 -273.0497 225.506)"/><ellipse cx="61.589" cy="232.105" fill="#112c41" rx="12.129" ry="9.097" transform="matrix(.2722 -.9622 .9622 .2722 -178.5165 228.1816)"/><path d="M143.785 216.359c7.727-13.19 20.557-24.938 37.667-35.495a8.495 8.495 0 0 1 12.015 3.286c11.365 22.261 12.826 45.073 8.94 68.182" fill="#badcee"/><path d="M201.222 251.369a1.256 1.256 0 0 1-1.234-1.465c3.999-23.911 1.296-44.689-8.267-63.522a6.535 6.535 0 0 0-4.107-3.36 6.778 6.778 0 0 0-5.394.76c-16.275 10.097-28.021 21.214-34.911 33.045-.335.607-1.095.826-1.699.489s-.822-1.101-.487-1.708l.03-.051c7.098-12.188 19.121-23.594 35.754-33.909a9.271 9.271 0 0 1 7.38-1.042 9.01 9.01 0 0 1 5.659 4.638c9.816 19.331 12.598 40.618 8.506 65.085a1.25 1.25 0 0 1-1.23 1.04z" fill="#112c41"/><path d="M141.324 429.894s7.994 57.289 38.637 57.289c29.311 0 38.637-57.289 38.637-57.289" fill="#badcee"/><path d="M179.96 488.515c-13.117 0-24.196-10.192-32.045-29.475a138.436 138.436 0 0 1-7.913-28.963 1.333 1.333 0 1 1 2.64-.368c.079.561 8.186 56.141 37.318 56.141 27.845 0 37.23-55.609 37.322-56.171a1.331 1.331 0 1 1 2.629.429 146.512 146.512 0 0 1-8.413 28.944c-8.068 19.275-18.977 29.463-31.538 29.463z" fill="#112c41"/><path d="M301.2 417.903s8.251 49.262 38.637 45.298c30.643-3.997 33.308-79.938 33.308-79.938" fill="#6ecfea"/><path d="M336.455 464.758c-11.504 0-21.317-7.579-28.526-22.127a98.158 98.158 0 0 1-8.044-24.508 1.333 1.333 0 0 1 2.629-.439c.08.48 8.401 47.952 37.15 44.196 29.187-3.806 32.123-77.914 32.148-78.663a1.334 1.334 0 0 1 2.665.093c-.111 3.147-3.064 77.116-34.467 81.213a27.624 27.624 0 0 1-3.555.235zm-33.508-303.586c-10.32-3.238-38.66-12.777-68.962-13.498-24.756-.588-52.277 3.459-60.776 6.09-5.345 2.628-6.353 4.826-4.689 8.339 2.773 3.882 8.466 3.909 15.819 2.184 16.391-2.833 32.782-4.25 58.077-3.238 26.929 1.077 63.742 13.222 68.296 14.543 3.959 1.692 8.141-1.404 6.84-5.176-1.849-5.362-14.605-9.244-14.605-9.244z" fill="#112c41"/><ellipse cx="245.214" cy="91.054" fill="#ffd169" rx="90.135" ry="86.104" transform="matrix(.9214 -.3886 .3886 .9214 -16.1113 102.4481)"/><path d="M242.308 178.826a91.34 91.34 0 0 1-32.515-5.97c-22.265-8.467-39.507-24.94-48.552-46.386s-8.808-45.292.669-67.145c9.469-21.838 27.032-39.072 49.454-48.529 22.421-9.456 47.021-10.005 69.27-1.543 22.265 8.467 39.507 24.94 48.552 46.386 18.664 44.255-3.821 96.146-50.123 115.674-11.865 5.003-24.341 7.513-36.755 7.513zM248.12 5.282c-12.151 0-24.36 2.457-35.978 7.356-21.945 9.255-39.134 26.118-48.396 47.481-9.257 21.348-9.491 44.635-.66 65.572 8.83 20.938 25.67 37.023 47.419 45.294 21.766 8.277 45.836 7.738 67.781-1.517 45.286-19.1 67.293-69.815 49.057-113.054-8.83-20.938-25.67-37.023-47.419-45.294a89.402 89.402 0 0 0-31.804-5.838z" fill="#112c41"/><ellipse cx="253.851" cy="86.928" fill="#ffe993" rx="85.739" ry="85.928"/><path d="M253.85 173.856c-47.828 0-86.738-38.996-86.738-86.928S206.022 0 253.85 0s86.739 38.996 86.739 86.928-38.911 86.928-86.739 86.928zM253.85 2c-46.725 0-84.738 38.099-84.738 84.928s38.014 84.928 84.738 84.928c46.726 0 84.739-38.099 84.739-84.928S300.576 2 253.85 2z" fill="#112c41"/><ellipse cx="253.851" cy="86.928" fill="#ffe993" rx="66.38" ry="66.526"/><g fill="#112c41"><path d="M253.85 154.454c-37.153 0-67.38-30.292-67.38-67.526s30.227-67.526 67.38-67.526 67.38 30.292 67.38 67.526-30.227 67.526-67.38 67.526zm0-133.052c-36.051 0-65.38 29.395-65.38 65.526s29.329 65.526 65.38 65.526 65.38-29.395 65.38-65.526-29.329-65.526-65.38-65.526z"/><path d="m228.899 58.514 1.904-.61 22.274 69.498-1.905.61z"/><path d="M241.867 93.183a1 1 0 0 1-.306-1.952l18.446-5.912a17.082 17.082 0 0 0 10.034-8.484 16.993 16.993 0 0 0 1.093-13.067 17.33 17.33 0 0 0-8.575-10.078 17.423 17.423 0 0 0-13.221-1.031l-26.395 8.607a1 1 0 1 1-.619-1.902l26.395-8.607a19.439 19.439 0 0 1 14.748 1.15c4.532 2.311 8.021 6.411 9.571 11.25a18.972 18.972 0 0 1-1.221 14.594 19.066 19.066 0 0 1-11.199 9.471l-18.446 5.912a.958.958 0 0 1-.305.049z"/><path d="M244.781 130.894a1 1 0 0 1-.306-1.952l31.63-10.137c3.853-1.234 6.948-4.051 8.718-7.93 1.785-3.912 2.01-8.432.634-12.726-3.024-9.435-12.423-14.885-20.965-12.15l-18.351 5.881a1 1 0 0 1-.612-1.904l18.352-5.881C273.47 81.02 284 87.054 287.36 97.539c1.528 4.77 1.273 9.801-.718 14.167-2.007 4.398-5.532 7.596-9.928 9.004l-31.629 10.137c-.1.032-.204.047-.304.047zm-9.603-74.568a1 1 0 0 1-.952-.695l-3.771-11.764a.999.999 0 1 1 1.904-.61l3.771 11.764a.999.999 0 0 1-.952 1.305zm13.661-4.378a1 1 0 0 1-.952-.695l-3.771-11.764a.999.999 0 1 1 1.904-.61l3.771 11.764a.999.999 0 0 1-.952 1.305z"/><path d="M261.685 139.038a1 1 0 0 1-.952-.695l-3.879-12.103a.999.999 0 1 1 1.904-.61l3.879 12.103a.999.999 0 0 1-.952 1.305zm13.661-4.379a1 1 0 0 1-.952-.695l-3.879-12.103a.999.999 0 1 1 1.904-.61l3.879 12.103a.999.999 0 0 1-.952 1.305z"/></g><path d="m184.87 164.765 10.398 8.03s25.301 32.762 41.52 32.437c16.219-.324 64.55-23.031 64.55-23.031l-.324-11.353s-18.886-6.806-39.574-9.082c-18.393-2.024-39.249-1.946-45.088-1.298-22.902.112-32.455 5.595-31.482 4.297z" fill="#badcee"/><path d="M310.134 169.106c-10.845-3.402-26.357-12.003-71.54-13.726-26.002-.992-50.707 1.704-59.638 4.468l3.439 4.82c21.597-3.709 35.871-4.94 62.451-3.877 28.298 1.132 51.992 10.751 56.809 12.074z" fill="#112c41"/></svg></g><g transform="translate(954.0 901.0) rotate(0.0 40.5 61.5) scale(1.1601260383844172 1.1547452519316166)"><svg width="69.82" height="106.517" viewBox="0 0 69.82 106.517"><ellipse cx="29.25" cy="84.751" fill="#ffd6c0" rx="30.67" ry="16.977" transform="matrix(.88363492 -.46817659 .46817659 .88363492 -36.275 23.556)"/><path d="M16.266 106.517h-.578c-7-.129-12.122-2.591-14.423-6.934-4.641-8.764 4.135-22.542 19.568-30.717s31.761-7.7 36.4 1.058S53.1 92.46 37.666 100.637c-7.177 3.802-14.751 5.88-21.4 5.88zM42.3 64.954c-6.064 0-13.376 1.89-20.527 5.679-14.46 7.659-22.865 20.224-18.74 28.009 1.945 3.671 6.452 5.756 12.692 5.87 6.485.123 13.914-1.885 21-5.643 14.456-7.66 22.862-20.225 18.737-28.009-2.079-3.933-6.971-5.906-13.162-5.906z" fill="#112c41"/><ellipse cx="40.165" cy="52.291" fill="#ffd6c0" rx="31.004" ry="17.883" transform="matrix(.88363492 -.46817659 .46817659 .88363492 -19.808 24.889)"/><path d="M27.82 74.749q-.576 0-1.143-.021c-7.128-.256-12.382-2.9-14.793-7.453-2.41-4.55-1.65-10.383 2.141-16.425 3.685-5.873 9.829-11.287 17.3-15.245s15.4-6 22.329-5.751c7.128.256 12.381 2.9 14.792 7.454 4.875 9.2-3.846 23.407-19.44 31.669-7.063 3.742-14.536 5.772-21.186 5.772zm-14.168-8.41c2.062 3.891 6.713 6.161 13.1 6.391 6.579.24 14.155-1.724 21.32-5.521 14.616-7.745 22.964-20.739 18.606-28.965-2.062-3.892-6.713-6.162-13.1-6.391-6.576-.243-14.155 1.723-21.32 5.52s-13.04 8.96-16.542 14.54c-3.395 5.411-4.129 10.534-2.067 14.426z" fill="#112c41"/><ellipse cx="40.663" cy="24.027" fill="#ffd6c0" rx="31.568" ry="17.883" transform="matrix(.83009989 -.55761472 .55761472 .83009989 -6.489 26.757)"/><path d="M27.065 48.006c-5.936 0-10.814-1.912-13.437-5.818-2.873-4.277-2.674-10.193.56-16.658 3.142-6.281 8.8-12.381 15.946-17.178S45.063.62 52.065.086c7.21-.549 12.76 1.5 15.633 5.781s2.674 10.193-.56 16.657C64 28.805 58.333 34.906 51.192 39.7c-8.17 5.49-16.927 8.306-24.127 8.306zm-11.777-6.933c5.19 7.727 20.8 6.367 34.789-3.031 6.859-4.607 12.282-10.436 15.273-16.412 2.9-5.793 3.142-10.995.688-14.648s-7.365-5.393-13.82-4.9c-6.664.509-14.111 3.326-20.969 7.933s-12.282 10.433-15.272 16.41c-2.9 5.792-3.143 10.994-.689 14.648z" fill="#112c41"/></svg></g><g transform="translate(180.0 789.0) rotate(0.0 194.5 157.5) scale(1.0887727655667916 1.0868290124692066)"><svg width="357.283" height="289.834" viewBox="0 0 357.283 289.834"><ellipse cx="283.397" cy="139.224" fill="#ffd6c0" rx="50.601" ry="21.116" transform="matrix(.8058 -.5922 .5922 .8058 -27.407 194.8828)"/><path d="M254.074 174.659c-5.63 0-9.845-1.655-12.227-4.896-3.586-4.878-2.503-12.648 3.049-21.877 5.403-8.981 14.432-18.375 25.423-26.454s22.653-13.892 32.837-16.368c10.466-2.545 18.204-1.259 21.79 3.62s2.503 12.648-3.049 21.877c-5.403 8.98-14.432 18.375-25.423 26.454s-22.653 13.891-32.837 16.367c-3.512.855-6.718 1.277-9.563 1.277zm16.816-52.45.571.777c-10.79 7.931-19.637 17.127-24.912 25.894-5.125 8.519-6.242 15.529-3.147 19.74 3.094 4.21 10.117 5.236 19.779 2.887 9.941-2.417 21.359-8.116 32.15-16.047 10.79-7.931 19.637-17.127 24.912-25.894 5.125-8.519 6.242-15.529 3.147-19.74-3.095-4.21-10.117-5.235-19.779-2.887-9.941 2.417-21.359 8.116-32.15 16.047z" fill="#112c41"/><path d="M324.777 177.784c46.719 30.367 46.234-40.73-33.887-50.35-43.756-5.254-72.6 16.378-120.137 14.079-19.647-.95-27.751-1.888-42.447-7.964-1.206-17.128 11.101-28.174 26.536-34.862C150.99 74.421 107.477 17.063 68.715 1 44.594 16.099-3.616 63.883 1.357 134.647c5.645 80.338 70.382 126.229 133.496 131.201 73.567 5.796 112.932-29.72 144.849-29.72h30.336c19.661 0 22.557-12.494 14.292-20.4 11.32 1.258 27.417-14.552.447-37.944z" fill="#ffd6c0"/><path d="M151.02 267.492c-5.224 0-10.631-.204-16.245-.646-33.105-2.608-64.673-15.958-88.887-37.59C18.745 205.008 3.002 172.317.36 134.718-4.544 64.93 42.581 16.18 68.184.152a.997.997 0 0 1 .913-.076c17.539 7.268 38.146 24.052 56.539 46.05 16.402 19.616 28.253 40.186 30.192 52.404a.998.998 0 0 1-.59 1.074c-12.396 5.371-26.882 15.486-25.973 33.258 14.354 5.87 22.469 6.729 41.534 7.651 22.803 1.101 41.335-3.349 59.262-7.654 19.61-4.709 38.133-9.158 60.947-6.418 39.091 4.693 61.075 24.237 65.523 41.524 1.79 6.959.294 12.958-4.002 16.044-4.826 3.468-12.38 2.911-21.311-1.411 11.144 12.068 10.015 20.805 8.077 25.233-2.184 4.989-7.361 8.528-12.67 8.929 2.916 3.667 3.817 7.987 2.332 11.691-2.213 5.514-9.109 8.676-18.922 8.676h-30.336c-11.782 0-24.904 5.035-40.098 10.864-22.941 8.805-50.819 19.5-88.581 19.501zM68.808 2.123C43.461 18.207-2.456 66.133 2.354 134.577c2.605 37.069 18.12 69.293 44.866 93.188 23.89 21.342 55.04 34.513 87.711 37.087 45.756 3.608 78.026-8.777 103.956-18.726 15.38-5.901 28.661-10.997 40.814-10.997h30.336c8.953 0 15.173-2.705 17.065-7.421 1.421-3.541.093-7.854-3.465-11.257a1 1 0 0 1-.215-1.146.984.984 0 0 1 1.017-.57c4.465.492 10.544-2.036 13.024-7.704 3.411-7.793-1.452-18.178-13.343-28.491a1.001 1.001 0 0 1 1.2-1.594c11.219 7.291 20.711 9.273 26.042 5.44 3.601-2.587 4.809-7.792 3.231-13.922-3.192-12.408-20.227-34.803-63.824-40.038-22.462-2.697-40.812 1.71-60.241 6.377-18.063 4.337-36.75 8.817-59.825 7.708-19.577-.947-27.768-1.832-42.78-8.039a.998.998 0 0 1-.615-.854c-1.064-15.097 8.066-27.372 26.413-35.533-4.585-24.479-47.438-80.116-84.913-95.962z" fill="#112c41"/><path d="M33.215 180.95C9.053 136.244 9.107 81.988 30.325 39.838-2.221 81.306-8.288 141.9 18.218 190.943c29.961 55.435 93.953 82.142 155.402 72.99-57.308-1.546-112.369-31.109-140.405-82.983z" fill="#f5b9ab"/><path d="M328.838 180.792c-11.088-8.658-21.353-13.548-29.444-16.774" fill="#ffd6c0"/><path d="M328.836 181.792a.99.99 0 0 1-.614-.212c-11.706-9.14-22.271-13.871-29.198-16.634a.999.999 0 1 1 .74-1.857c7.042 2.808 17.781 7.617 29.688 16.915a.999.999 0 0 1-.616 1.788z" fill="#112c41"/><path d="M325.193 216.573c-7.852-6.781-16.774-11.421-31.942-15.703" fill="#ffd6c0"/><g fill="#112c41"><path d="M325.193 217.573a.994.994 0 0 1-.653-.243c-8.049-6.951-17.192-11.44-31.561-15.498a1 1 0 0 1 .543-1.925c14.673 4.143 24.037 8.752 32.324 15.909a1 1 0 0 1-.653 1.757zm-195.355 72.262c-.458 0-.913-.047-1.368-.146-1.442-.312-2.673-1.277-3.657-2.867-6.936-11.205-1.431-53.579 7.271-87.759 5.164-20.29 11.97-38.88 19.163-52.347 5.23-9.793 12.915-21.092 19.942-19.31 3.835.977 6.378 5.639 7.559 13.856a1.002 1.002 0 0 1-1.981.284c-1.023-7.132-3.181-11.465-6.072-12.202-4.433-1.133-10.867 5.55-17.684 18.314-7.12 13.329-13.864 31.76-18.99 51.897-9.947 39.076-13.245 76.945-7.509 86.214.688 1.111 1.488 1.772 2.379 1.964 6.492 1.412 14.686-11.94 20.123-20.767l.486-.791a1 1 0 0 1 1.703 1.05l-.487.79c-5.721 9.293-13.438 21.818-20.878 21.82zm56.486-4.052c-.09 0-.179-.003-.269-.008-11.478-.728-18.889-37.381-16.185-80.04 1.287-20.3 4.505-39.27 9.059-53.415 3.313-10.29 8.788-22.457 15.984-22.003 3.854.245 6.84 3.032 9.125 8.522a1 1 0 1 1-1.846.769c-1.964-4.717-4.387-7.103-7.406-7.294-4.516-.284-9.643 7.226-13.954 20.62-4.504 13.992-7.688 32.789-8.966 52.929-2.783 43.898 5.263 77.342 14.315 77.916.049.003.098.005.147.005 4.368 0 10.371-12.092 13.083-23.128a1 1 0 1 1 1.941.478c-2.361 9.617-8.497 24.649-15.028 24.649z"/><path d="M151.02 267.492c-5.224 0-10.631-.204-16.245-.646-33.105-2.608-64.673-15.958-88.887-37.59C18.745 205.008 3.002 172.317.36 134.718-4.544 64.93 42.581 16.18 68.184.152a.997.997 0 0 1 .913-.076c17.539 7.268 38.146 24.052 56.539 46.05 16.402 19.616 28.253 40.186 30.192 52.404a.998.998 0 0 1-.59 1.074c-12.396 5.371-26.882 15.486-25.973 33.258 14.354 5.87 22.469 6.729 41.534 7.651 22.803 1.101 41.335-3.349 59.262-7.654 19.61-4.709 38.133-9.158 60.947-6.418 39.091 4.693 61.075 24.237 65.523 41.524 1.79 6.959.294 12.958-4.002 16.044-4.826 3.468-12.38 2.911-21.311-1.411 11.144 12.068 10.015 20.805 8.077 25.233-2.184 4.989-7.361 8.528-12.67 8.929 2.916 3.667 3.817 7.987 2.332 11.691-2.213 5.514-9.109 8.676-18.922 8.676h-30.336c-11.782 0-24.904 5.035-40.098 10.864-22.941 8.805-50.819 19.5-88.581 19.501zM68.808 2.123C43.461 18.207-2.456 66.133 2.354 134.577c2.605 37.069 18.12 69.293 44.866 93.188 23.89 21.342 55.04 34.513 87.711 37.087 45.756 3.608 78.026-8.777 103.956-18.726 15.38-5.901 28.661-10.997 40.814-10.997h30.336c8.953 0 15.173-2.705 17.065-7.421 1.421-3.541.093-7.854-3.465-11.257a1 1 0 0 1-.215-1.146.984.984 0 0 1 1.017-.57c4.465.492 10.544-2.036 13.024-7.704 3.411-7.793-1.452-18.178-13.343-28.491a1.001 1.001 0 0 1 1.2-1.594c11.219 7.291 20.711 9.273 26.042 5.44 3.601-2.587 4.809-7.792 3.231-13.922-3.192-12.408-20.227-34.803-63.824-40.038-22.462-2.697-40.812 1.71-60.241 6.377-18.063 4.337-36.75 8.817-59.825 7.708-19.577-.947-27.768-1.832-42.78-8.039a.998.998 0 0 1-.615-.854c-1.064-15.097 8.066-27.372 26.413-35.533-4.585-24.479-47.438-80.116-84.913-95.962z"/></g></svg></g><g transform="translate(345.0 336.0) rotate(26.80590795008261 180.5 155.5) scale(1.03898047522564 1.0375555058833734)"><svg width="347.456" height="299.743" viewBox="0 0 347.456 299.743"><circle cx="313.794" cy="133.433" fill="#ffd6c0" r="28.57"/><path d="M321.584 160.92a28.567 28.567 0 0 0 20.071-33.809 28.572 28.572 0 0 1-55.89 4.64q-.2-.739-.37-1.478a28.59 28.59 0 0 0 36.189 30.647z" fill="#f5b9ab"/><path d="M313.817 163a29.653 29.653 0 0 1-15.5-4.365 1 1 0 0 1 1.047-1.705 27.568 27.568 0 1 0-12.594-18.009 1 1 0 0 1-1.959.4 29.678 29.678 0 0 1 20.92-34.335A29.569 29.569 0 1 1 313.817 163z" fill="#112c41"/><path d="M302.546 145.26a1 1 0 0 1-.823-.429 18.122 18.122 0 0 1 4.192-25.247 17.645 17.645 0 0 1 15.229-2.366 1 1 0 0 1-.574 1.916 15.646 15.646 0 0 0-13.513 2.092 16.118 16.118 0 0 0-3.691 22.463 1 1 0 0 1-.82 1.571z" fill="#112c41"/><circle cx="226.446" cy="196.341" fill="#ffd6c0" r="102.5"/><path d="M155.917 122.373c.249-.239.507-.463.758-.7l13.467 4.366c-38.4 37.156-40.885 96.151-4.388 134.091 36.563 38.009 98.4 40.494 137.007 3.356a98.234 98.234 0 0 0 10.412-11.736 102.51 102.51 0 1 1-157.256-129.377z" fill="#f5b9ab"/><path d="M227 299.694a103.45 103.45 0 1 1 71.733-28.86A103.206 103.206 0 0 1 227 299.694zm-73.173-33.084a101.5 101.5 0 1 0 2.783-143.516 101.616 101.616 0 0 0-2.783 143.516z" fill="#112c41"/><ellipse cx="205.228" cy="188.111" fill="#112c41" rx="6.828" ry="9.104" transform="matrix(.72068422 -.69326348 .69326348 .72068422 -73.087 194.819)"/><ellipse cx="181.282" cy="169.093" fill="#112c41" rx="14.13" ry="9.336" transform="matrix(.61176177 -.79104205 .79104205 .61176177 -63.379 209.051)"/><ellipse cx="287.714" cy="168.082" fill="#ffa6e0" rx="12.121" ry="8.009" transform="matrix(.64400347 -.76502257 .76502257 .64400347 -26.161 279.944)"/><ellipse cx="208.206" cy="216.799" fill="#ffa6e0" rx="12.121" ry="8.009" transform="matrix(.95320122 -.30233662 .30233662 .95320122 -55.802 73.094)"/><g fill="#112c41"><ellipse cx="256.241" cy="121.518" rx="13.016" ry="8.6" transform="matrix(.98691207 -.16125933 .16125933 .98691207 -16.242 42.911)"/><path d="M257.99 114.772c4.816 0 8.653 2.09 9.124 4.969.348 2.135-1.207 3.94-2.165 4.825a14.849 14.849 0 0 1-7.643 3.465 17.461 17.461 0 0 1-2.813.232c-4.816 0-8.654-2.09-9.124-4.969-.349-2.135 1.207-3.939 2.165-4.825a14.846 14.846 0 0 1 7.643-3.469 17.566 17.566 0 0 1 2.813-.232m0-2a19.623 19.623 0 0 0-3.135.258c-7.094 1.159-12.225 5.9-11.459 10.587.651 3.983 5.348 6.646 11.1 6.646a19.489 19.489 0 0 0 3.135-.258c7.1-1.159 12.225-5.9 11.459-10.586-.65-3.983-5.348-6.647-11.1-6.647z"/><ellipse cx="263.428" cy="150.022" rx="6.828" ry="9.104" transform="matrix(.92030014 -.39121305 .39121305 .92030014 -37.695 115.014)"/><path d="M228.417 192.649c8.063 9.545 19.732 13.193 27.651 8.089s9.418-17.237 4.056-28.523z"/><path d="M247.916 204.046c-6.836 0-14.4-3.816-20.263-10.752a1 1 0 0 1 .222-1.486l31.707-20.434a1 1 0 0 1 1.445.412c5.68 11.953 3.822 24.483-4.417 29.792a15.868 15.868 0 0 1-8.694 2.468zm-17.986-11.184c7.824 8.674 18.447 11.643 25.6 7.035s8.834-15.507 4.167-26.215z"/></g><path d="M260.9 194.544c-4.822-1.935-11.112-.562-15.747 3.895a17.791 17.791 0 0 0-2.953 3.71c4.947 1.51 9.885 1.158 13.872-1.411a14.684 14.684 0 0 0 5.25-6.014q-.213-.094-.422-.18z" fill="#ffa6e0"/><path d="M247.921 204.04a20.637 20.637 0 0 1-6.017-.934 1 1 0 0 1-.567-1.467 18.67 18.67 0 0 1 3.119-3.92c4.761-4.579 11.52-6.229 16.812-4.1h.005q.229.093.453.193a1 1 0 0 1 .492 1.35 15.6 15.6 0 0 1-5.609 6.417 15.868 15.868 0 0 1-8.688 2.461zm-4.137-2.5a15.024 15.024 0 0 0 11.742-1.646 13.427 13.427 0 0 0 4.383-4.649c-4.482-1.478-10.05.047-14.066 3.912a16.9 16.9 0 0 0-2.059 2.386z" fill="#112c41"/><circle cx="130.328" cy="256.606" fill="#ffd6c0" r="30.5"/><path d="M160.894 255.092a33.246 33.246 0 0 1-2.955 7.019c-8.024 14.817-27 19.952-41.808 11.933-9.718-5.259-14.734-14.706-15.242-24.981-3.528 13.289 1.631 27.416 14.266 34.261a30.493 30.493 0 0 0 41.345-12.291c2.76-5.09 4.671-10.541 4.394-15.941z" fill="#f5b9ab"/><path d="M130.345 288.106c-.209 0-.417 0-.627-.006a31.5 31.5 0 0 1-21.228-54.2 31.618 31.618 0 0 1 42.824-.792 1 1 0 0 1-1.334 1.491 29.606 29.606 0 0 0-40.1.743 29.5 29.5 0 1 0 40.9 42.52 31.456 31.456 0 0 0 9.115-22.753 1 1 0 0 1 2-.043 33.52 33.52 0 0 1-9.728 24.238 31.286 31.286 0 0 1-21.822 8.802z" fill="#112c41"/><path d="M113.915 260.325a1 1 0 0 1-1-.982 18.676 18.676 0 0 1 20.826-19.038 19.639 19.639 0 0 1 13.046 7.109 1 1 0 0 1-1.545 1.272 17.643 17.643 0 0 0-11.721-6.393 16.678 16.678 0 0 0-18.606 17.015 1 1 0 0 1-.983 1.017z" fill="#112c41"/><path d="M116.179 139.982a104.786 104.786 0 0 1 10.347-19.834 108.554 108.554 0 0 1 13.557-16.548c30.324-30.385 73.906-38.744 109.335-24.349a88.937 88.937 0 0 1 26.588 16.739c1.6 1.464.5 3.229-1.195 3.354-17.081 1.261-45.442 10.938-64.12 20.7-12.461 6.512-24.387 15.38-35.909 25.459q-7.269 6.358-13.747 13.111a63.913 63.913 0 0 1-11.53-25.056c-1.708 10.215-.23 22.976 3.071 34.471-13.549 16.058-24.416 33.839-30.892 50.6-.536 1.385-2.243 1.978-3.129.143-11.712-24.237-12.536-52.872-2.376-78.79z" fill="#b2b0f7"/><path d="M121.487 219.133c2.448-6.416 8.485-18.3 12.014-24.739-10.389-21.658-13.911-55.679 4.136-82.793a98.047 98.047 0 0 1 22.6-23.909 109.117 109.117 0 0 0-33.718 32.455c-20.285 30.489-23.019 68.548-7.729 99.108a1.477 1.477 0 0 0 2.697-.122z" fill="#9797f7"/><path d="M120.044 220.918a2.7 2.7 0 0 1-2.39-1.715c-11.791-24.4-12.668-53.406-2.406-79.587a106.068 106.068 0 0 1 10.446-20.022 109.871 109.871 0 0 1 13.681-16.7 106.771 106.771 0 0 1 53.252-29.239 97.235 97.235 0 0 1 57.173 4.67 89.9 89.9 0 0 1 26.886 16.926 2.9 2.9 0 0 1 .963 3.11 3.091 3.091 0 0 1-2.758 1.981c-17.737 1.309-46.332 11.5-63.732 20.588-11.3 5.9-22.981 14.187-35.714 25.324a219.196 219.196 0 0 0-13.684 13.052 1.015 1.015 0 0 1-.784.3 1 1 0 0 1-.739-.4A66.874 66.874 0 0 1 149.9 139.1a88.366 88.366 0 0 0 3.637 28.653 1 1 0 0 1-.2.921c-13.421 15.907-24.333 33.774-30.725 50.312a2.869 2.869 0 0 1-2.474 1.932h-.094zm93.863-147.536a99.744 99.744 0 0 0-20.861 2.229 104.786 104.786 0 0 0-52.255 28.7 108.014 108.014 0 0 0-13.433 16.389 104.115 104.115 0 0 0-10.249 19.646c-10.058 25.663-9.2 54.088 2.346 77.985.086.178.313.586.594.586h.011a.944.944 0 0 0 .691-.655c6.415-16.6 17.314-34.5 30.718-50.473-3.472-12.328-4.548-24.837-2.951-34.4a1 1 0 0 1 .967-.835h.02a1 1 0 0 1 .979.8 62.887 62.887 0 0 0 10.656 23.71 222.508 222.508 0 0 1 12.984-12.317c12.853-11.242 24.663-19.613 36.1-25.592 17.579-9.186 46.516-19.481 64.51-20.808a1.142 1.142 0 0 0 1.017-.641c.129-.373-.159-.738-.423-.979a87.911 87.911 0 0 0-26.289-16.549 93.136 93.136 0 0 0-35.132-6.796z" fill="#112c41"/><circle cx="151.717" cy="281.49" fill="#fff" r="11.5"/><path d="M151.69 293.994a12.5 12.5 0 0 1-12.268-10.256 12.474 12.474 0 1 1 12.268 10.256zm.049-23.007a10.671 10.671 0 0 0-1.911.174 10.514 10.514 0 0 0-8.44 12.218 10.5 10.5 0 1 0 10.351-12.392z" fill="#112c41"/><circle cx="334.954" cy="160.56" fill="#fff" r="11.5"/><path d="M334.928 173.064a12.508 12.508 0 0 1-12.27-10.256 12.5 12.5 0 1 1 14.542 10.048 12.715 12.715 0 0 1-2.272.208zm-10.3-10.616a10.5 10.5 0 1 0 8.44-12.217 10.432 10.432 0 0 0-8.44 12.217zM59.964 133.784q-1.794 0-3.585-.092c-16.968-.875-32.062-7.912-42.5-19.812C-8.73 88.113-3.147 45.283 26.322 18.405a1 1 0 0 1 1.348 1.479C-1 46.032-6.513 87.608 15.381 112.562c10.081 11.49 24.677 18.286 41.1 19.132 19.1.987 38.44-6.2 53.02-19.719a1 1 0 1 1 1.359 1.467 75.455 75.455 0 0 1-50.896 20.342z" fill="#112c41"/><path d="M114.454 109.405a63 63 0 1 0-89.079-1.728 63 63 0 0 0 89.079 1.728" fill="#9797f7"/><path d="M34.856 88.594a61.054 61.054 0 0 0 98.02-13.948A63.027 63.027 0 0 0 21.948 24.175a61.029 61.029 0 0 0 12.908 64.419z" fill="#b2b0f7"/><path d="M70.792 127.972a63.975 63.975 0 0 1-49.618-104.43 64.754 64.754 0 0 1 5.231-5.665 64 64 0 1 1 44.387 110.1zM70.765 2.03a61.791 61.791 0 0 0-42.972 17.288 62.7 62.7 0 0 0-5.07 5.489A62.079 62.079 0 1 0 70.765 2.03z" fill="#112c41"/></svg></g></svg>