<svg enable-background="new 0 0 613 1326.33" height="1327" viewBox="0 0 613 1326.33" width="613" xmlns="http://www.w3.org/2000/svg"><path d="m612 28.103v1270.125c0 1.927-.199 3.815-.586 5.623-2.583 12.27-13.472 21.479-26.516 21.479h-376.972c-.954 0-1.888-.05-2.812-.149-13.651-1.401-24.291-12.935-24.291-26.954v-1270.124c0-14.972 12.13-27.103 27.103-27.103h376.972c14.971 0 27.102 12.131 27.102 27.103z" fill="#cbc8ff"/><path d="m584.898 1326.33h-376.972c-.981 0-1.963-.052-2.919-.155-14.355-1.473-25.184-13.489-25.184-27.948v-1270.124c0-15.496 12.607-28.103 28.103-28.103h376.972c15.495 0 28.102 12.607 28.102 28.103v1270.125c0 1.985-.205 3.948-.608 5.833-2.717 12.902-14.28 22.269-27.494 22.269zm-376.972-1324.33c-14.393 0-26.103 11.71-26.103 26.103v1270.125c0 13.43 10.057 24.59 23.393 25.959.889.095 1.799.144 2.71.144h376.972c12.274 0 23.015-8.7 25.538-20.686.375-1.751.565-3.572.565-5.417v-1270.125c-.001-14.393-11.711-26.103-26.103-26.103z" fill="#112c41"/><path d="m611.414 1303.851c-2.583 12.27-13.472 21.479-26.516 21.479h-376.972c-.954 0-1.888-.05-2.812-.149-9.706-21.807-17.714-60.842-24.291-109.066v-1188.012c0-14.972 12.13-27.103 27.103-27.103h217.074c12 5.33 19.42 16.23 19.338 30.288-1.162 199.865.644 1161.642 39.501 1224.498 33.779 54.642 83.275 47.856 127.575 48.065z" fill="#b2b0f7"/><path d="m584.898 1326.33h-376.972c-.981 0-1.963-.052-2.919-.155-14.355-1.473-25.184-13.489-25.184-27.948v-1270.124c0-15.496 12.607-28.103 28.103-28.103h376.972c15.495 0 28.102 12.607 28.102 28.103v1270.125c0 1.985-.205 3.948-.608 5.833-2.717 12.902-14.28 22.269-27.494 22.269zm-376.972-1324.33c-14.393 0-26.103 11.71-26.103 26.103v1270.125c0 13.43 10.057 24.59 23.393 25.959.889.095 1.799.144 2.71.144h376.972c12.274 0 23.015-8.7 25.538-20.686.375-1.751.565-3.572.565-5.417v-1270.125c-.001-14.393-11.711-26.103-26.103-26.103z" fill="#112c41"/><path d="m404.895 1325.33h-376.612c-15.068 0-27.283-12.215-27.283-27.283v-1269.764c0-15.068 12.215-27.283 27.283-27.283h376.612c15.068 0 27.283 12.215 27.283 27.283v1269.765c-.001 15.067-12.216 27.282-27.283 27.282z" fill="#b2b0f7"/><path d="m404.895 1326.33h-376.612c-15.595 0-28.283-12.687-28.283-28.283v-1269.764c0-15.595 12.688-28.283 28.283-28.283h376.612c15.595 0 28.283 12.688 28.283 28.283v1269.765c-.001 15.595-12.688 28.282-28.283 28.282zm-376.612-1324.33c-14.493 0-26.283 11.79-26.283 26.283v1269.765c0 14.492 11.79 26.283 26.282 26.283h376.612c14.492 0 26.283-11.79 26.283-26.283v-1269.765c0-14.493-11.79-26.283-26.282-26.283z" fill="#112c41"/><path d="m38.753 48.688h351.698v1151.462h-351.698z" fill="#9797f7"/><path d="m39.186 1326.33c-.552 0-1-.448-1-1v-1324.33c0-.552.448-1 1-1s1 .448 1 1v1324.33c0 .552-.448 1-1 1z" fill="#112c41"/><path d="m390.451 1326.33c-.552 0-1-.448-1-1v-1324.33c0-.552.448-1 1-1s1 .448 1 1v1324.33c0 .552-.448 1-1 1z" fill="#112c41"/><path d="m390.451 50.163h-351.265c-.552 0-1-.448-1-1s.448-1 1-1h351.264c.552 0 1 .448 1 1s-.447 1-.999 1z" fill="#112c41"/><path d="m390.451 1200.674h-351.265c-.552 0-1-.448-1-1s.448-1 1-1h351.264c.552 0 1 .448 1 1s-.447 1-.999 1z" fill="#112c41"/><path d="m345.387 145.057h-257.597c-15.011 0-27.18-12.169-27.18-27.18v-1.275c0-15.011 12.169-27.18 27.18-27.18h257.597c15.011 0 27.18 12.169 27.18 27.18v1.275c0 15.011-12.169 27.18-27.18 27.18z" fill="#dedffe"/><path d="m345.387 146.057h-257.597c-15.539 0-28.18-12.642-28.18-28.18v-1.275c0-15.539 12.642-28.18 28.18-28.18h257.597c15.539 0 28.18 12.642 28.18 28.18v1.275c0 15.538-12.641 28.18-28.18 28.18zm-257.597-55.636c-14.436 0-26.18 11.744-26.18 26.18v1.275c0 14.436 11.744 26.18 26.18 26.18h257.597c14.436 0 26.18-11.744 26.18-26.18v-1.275c0-14.436-11.744-26.18-26.18-26.18z" fill="#112c41"/><path d="m218.295 127.174h-128.593c-5.093 0-9.222-4.129-9.222-9.222v-.433c0-5.093 4.129-9.222 9.222-9.222h128.594c5.093 0 9.222 4.129 9.222 9.222v.433c-.001 5.093-4.13 9.222-9.223 9.222z" fill="#7bdaac"/><path d="m218.295 128.174h-128.594c-5.636 0-10.222-4.586-10.222-10.222v-.433c0-5.636 4.585-10.222 10.222-10.222h128.594c5.636 0 10.222 4.586 10.222 10.222v.433c0 5.636-4.585 10.222-10.222 10.222zm-128.594-18.876c-4.534 0-8.222 3.688-8.222 8.222v.433c0 4.534 3.688 8.222 8.222 8.222h128.594c4.534 0 8.222-3.688 8.222-8.222v-.433c0-4.534-3.688-8.222-8.222-8.222z" fill="#112c41"/><circle cx="335.808" cy="117.239" fill="#7bdaac" r="15.896"/><g fill="#112c41"><path d="m335.808 134.135c-9.316 0-16.896-7.579-16.896-16.896s7.58-16.896 16.896-16.896 16.896 7.579 16.896 16.896-7.579 16.896-16.896 16.896zm0-31.792c-8.214 0-14.896 6.682-14.896 14.896s6.682 14.896 14.896 14.896 14.896-6.682 14.896-14.896-6.682-14.896-14.896-14.896z"/><path d="m243.067 146.057c-.552 0-1-.448-1-1v-55.636c0-.552.448-1 1-1s1 .448 1 1v55.636c0 .552-.447 1-1 1z"/><path d="m263.316 146.057c-.552 0-1-.448-1-1v-55.636c0-.552.448-1 1-1s1 .448 1 1v55.636c0 .552-.448 1-1 1z"/><path d="m283.811 146.057c-.552 0-1-.448-1-1v-55.636c0-.552.448-1 1-1s1 .448 1 1v55.636c0 .552-.447 1-1 1z"/><path d="m304.059 146.057c-.552 0-1-.448-1-1v-55.636c0-.552.448-1 1-1s1 .448 1 1v55.636c0 .552-.447 1-1 1z"/></g><path d="m345.387 224.057h-257.597c-15.011 0-27.18-12.169-27.18-27.18v-1.275c0-15.011 12.169-27.18 27.18-27.18h257.597c15.011 0 27.18 12.169 27.18 27.18v1.275c0 15.011-12.169 27.18-27.18 27.18z" fill="#dedffe"/><path d="m345.387 225.057h-257.597c-15.539 0-28.18-12.642-28.18-28.18v-1.275c0-15.539 12.642-28.18 28.18-28.18h257.597c15.539 0 28.18 12.642 28.18 28.18v1.275c0 15.538-12.641 28.18-28.18 28.18zm-257.597-55.636c-14.436 0-26.18 11.745-26.18 26.18v1.275c0 14.436 11.744 26.18 26.18 26.18h257.597c14.436 0 26.18-11.745 26.18-26.18v-1.275c0-14.436-11.744-26.18-26.18-26.18z" fill="#112c41"/><path d="m218.295 206.174h-128.593c-5.093 0-9.222-4.129-9.222-9.222v-.433c0-5.093 4.129-9.222 9.222-9.222h128.594c5.093 0 9.222 4.129 9.222 9.222v.433c-.001 5.093-4.13 9.222-9.223 9.222z" fill="#ffe993"/><path d="m218.295 207.174h-128.594c-5.636 0-10.222-4.586-10.222-10.222v-.433c0-5.636 4.585-10.222 10.222-10.222h128.594c5.636 0 10.222 4.586 10.222 10.222v.433c0 5.636-4.585 10.222-10.222 10.222zm-128.594-18.876c-4.534 0-8.222 3.688-8.222 8.222v.433c0 4.534 3.688 8.222 8.222 8.222h128.594c4.534 0 8.222-3.688 8.222-8.222v-.433c0-4.534-3.688-8.222-8.222-8.222z" fill="#112c41"/><circle cx="335.808" cy="196.239" fill="#ffe993" r="15.896"/><path d="m335.808 213.135c-9.316 0-16.896-7.579-16.896-16.896 0-9.316 7.58-16.896 16.896-16.896s16.896 7.579 16.896 16.896c0 9.316-7.579 16.896-16.896 16.896zm0-31.792c-8.214 0-14.896 6.682-14.896 14.896s6.682 14.896 14.896 14.896 14.896-6.682 14.896-14.896-6.682-14.896-14.896-14.896z" fill="#112c41"/><path d="m243.067 225.057c-.552 0-1-.448-1-1v-55.636c0-.552.448-1 1-1s1 .448 1 1v55.636c0 .552-.447 1-1 1z" fill="#112c41"/><path d="m263.316 225.057c-.552 0-1-.448-1-1v-55.636c0-.552.448-1 1-1s1 .448 1 1v55.636c0 .552-.448 1-1 1z" fill="#112c41"/><path d="m283.811 225.057c-.552 0-1-.448-1-1v-55.636c0-.552.448-1 1-1s1 .448 1 1v55.636c0 .552-.447 1-1 1z" fill="#112c41"/><path d="m304.059 225.057c-.552 0-1-.448-1-1v-55.636c0-.552.448-1 1-1s1 .448 1 1v55.636c0 .552-.447 1-1 1z" fill="#112c41"/><path d="m345.387 334.057h-257.597c-15.011 0-27.18-12.169-27.18-27.18v-1.275c0-15.011 12.169-27.18 27.18-27.18h257.597c15.011 0 27.18 12.169 27.18 27.18v1.275c0 15.011-12.169 27.18-27.18 27.18z" fill="#dedffe"/><path d="m345.387 335.057h-257.597c-15.539 0-28.18-12.642-28.18-28.18v-1.275c0-15.539 12.642-28.18 28.18-28.18h257.597c15.539 0 28.18 12.642 28.18 28.18v1.275c0 15.538-12.641 28.18-28.18 28.18zm-257.597-55.636c-14.436 0-26.18 11.745-26.18 26.18v1.275c0 14.436 11.744 26.18 26.18 26.18h257.597c14.436 0 26.18-11.745 26.18-26.18v-1.275c0-14.436-11.744-26.18-26.18-26.18z" fill="#112c41"/><path d="m218.295 316.174h-128.593c-5.093 0-9.222-4.129-9.222-9.222v-.433c0-5.093 4.129-9.222 9.222-9.222h128.594c5.093 0 9.222 4.129 9.222 9.222v.433c-.001 5.093-4.13 9.222-9.223 9.222z" fill="#7bdaac"/><path d="m218.295 317.174h-128.594c-5.636 0-10.222-4.586-10.222-10.222v-.433c0-5.636 4.585-10.222 10.222-10.222h128.594c5.636 0 10.222 4.586 10.222 10.222v.433c0 5.636-4.585 10.222-10.222 10.222zm-128.594-18.876c-4.534 0-8.222 3.688-8.222 8.222v.433c0 4.534 3.688 8.222 8.222 8.222h128.594c4.534 0 8.222-3.688 8.222-8.222v-.433c0-4.534-3.688-8.222-8.222-8.222z" fill="#112c41"/><circle cx="335.808" cy="306.239" fill="#7bdaac" r="15.896"/><path d="m335.808 323.135c-9.316 0-16.896-7.579-16.896-16.896s7.58-16.896 16.896-16.896 16.896 7.579 16.896 16.896-7.579 16.896-16.896 16.896zm0-31.792c-8.214 0-14.896 6.682-14.896 14.896s6.682 14.896 14.896 14.896 14.896-6.682 14.896-14.896-6.682-14.896-14.896-14.896z" fill="#112c41"/><path d="m243.067 335.057c-.552 0-1-.448-1-1v-55.636c0-.552.448-1 1-1s1 .448 1 1v55.636c0 .552-.447 1-1 1z" fill="#112c41"/><path d="m263.316 335.057c-.552 0-1-.448-1-1v-55.636c0-.552.448-1 1-1s1 .448 1 1v55.636c0 .552-.448 1-1 1z" fill="#112c41"/><path d="m283.811 335.057c-.552 0-1-.448-1-1v-55.636c0-.552.448-1 1-1s1 .448 1 1v55.636c0 .552-.447 1-1 1z" fill="#112c41"/><path d="m304.059 335.057c-.552 0-1-.448-1-1v-55.636c0-.552.448-1 1-1s1 .448 1 1v55.636c0 .552-.447 1-1 1z" fill="#112c41"/><path d="m345.387 413.057h-257.597c-15.011 0-27.18-12.169-27.18-27.18v-1.275c0-15.011 12.169-27.18 27.18-27.18h257.597c15.011 0 27.18 12.169 27.18 27.18v1.275c0 15.011-12.169 27.18-27.18 27.18z" fill="#dedffe"/><path d="m345.387 414.057h-257.597c-15.539 0-28.18-12.642-28.18-28.18v-1.275c0-15.539 12.642-28.18 28.18-28.18h257.597c15.539 0 28.18 12.642 28.18 28.18v1.275c0 15.538-12.641 28.18-28.18 28.18zm-257.597-55.636c-14.436 0-26.18 11.745-26.18 26.18v1.275c0 14.436 11.744 26.18 26.18 26.18h257.597c14.436 0 26.18-11.745 26.18-26.18v-1.275c0-14.436-11.744-26.18-26.18-26.18z" fill="#112c41"/><path d="m218.295 395.174h-128.593c-5.093 0-9.222-4.129-9.222-9.222v-.433c0-5.093 4.129-9.222 9.222-9.222h128.594c5.093 0 9.222 4.129 9.222 9.222v.433c-.001 5.093-4.13 9.222-9.223 9.222z" fill="#7bdaac"/><path d="m218.295 396.174h-128.594c-5.636 0-10.222-4.586-10.222-10.222v-.433c0-5.636 4.585-10.222 10.222-10.222h128.594c5.636 0 10.222 4.586 10.222 10.222v.433c0 5.636-4.585 10.222-10.222 10.222zm-128.594-18.876c-4.534 0-8.222 3.688-8.222 8.222v.433c0 4.534 3.688 8.222 8.222 8.222h128.594c4.534 0 8.222-3.688 8.222-8.222v-.433c0-4.534-3.688-8.222-8.222-8.222z" fill="#112c41"/><circle cx="335.808" cy="385.239" fill="#7bdaac" r="15.896"/><path d="m335.808 402.135c-9.316 0-16.896-7.579-16.896-16.896s7.58-16.896 16.896-16.896 16.896 7.579 16.896 16.896-7.579 16.896-16.896 16.896zm0-31.792c-8.214 0-14.896 6.682-14.896 14.896s6.682 14.896 14.896 14.896 14.896-6.682 14.896-14.896-6.682-14.896-14.896-14.896z" fill="#112c41"/><path d="m243.067 414.057c-.552 0-1-.448-1-1v-55.636c0-.552.448-1 1-1s1 .448 1 1v55.636c0 .552-.447 1-1 1z" fill="#112c41"/><path d="m263.316 414.057c-.552 0-1-.448-1-1v-55.636c0-.552.448-1 1-1s1 .448 1 1v55.636c0 .552-.448 1-1 1z" fill="#112c41"/><path d="m283.811 414.057c-.552 0-1-.448-1-1v-55.636c0-.552.448-1 1-1s1 .448 1 1v55.636c0 .552-.447 1-1 1z" fill="#112c41"/><path d="m304.059 414.057c-.552 0-1-.448-1-1v-55.636c0-.552.448-1 1-1s1 .448 1 1v55.636c0 .552-.447 1-1 1z" fill="#112c41"/><path d="m345.387 523.057h-257.597c-15.011 0-27.18-12.169-27.18-27.18v-1.275c0-15.011 12.169-27.18 27.18-27.18h257.597c15.011 0 27.18 12.169 27.18 27.18v1.275c0 15.011-12.169 27.18-27.18 27.18z" fill="#dedffe"/><path d="m345.387 524.057h-257.597c-15.539 0-28.18-12.642-28.18-28.18v-1.275c0-15.539 12.642-28.18 28.18-28.18h257.597c15.539 0 28.18 12.642 28.18 28.18v1.275c0 15.538-12.641 28.18-28.18 28.18zm-257.597-55.636c-14.436 0-26.18 11.745-26.18 26.18v1.275c0 14.436 11.744 26.18 26.18 26.18h257.597c14.436 0 26.18-11.744 26.18-26.18v-1.275c0-14.436-11.744-26.18-26.18-26.18z" fill="#112c41"/><path d="m218.295 505.174h-128.593c-5.093 0-9.222-4.129-9.222-9.222v-.433c0-5.093 4.129-9.222 9.222-9.222h128.594c5.093 0 9.222 4.129 9.222 9.222v.433c-.001 5.093-4.13 9.222-9.223 9.222z" fill="#7bdaac"/><path d="m218.295 506.174h-128.594c-5.636 0-10.222-4.586-10.222-10.222v-.433c0-5.636 4.585-10.222 10.222-10.222h128.594c5.636 0 10.222 4.586 10.222 10.222v.433c0 5.636-4.585 10.222-10.222 10.222zm-128.594-18.876c-4.534 0-8.222 3.688-8.222 8.222v.433c0 4.534 3.688 8.222 8.222 8.222h128.594c4.534 0 8.222-3.688 8.222-8.222v-.433c0-4.534-3.688-8.222-8.222-8.222z" fill="#112c41"/><circle cx="335.808" cy="495.239" fill="#7bdaac" r="15.896"/><path d="m335.808 512.135c-9.316 0-16.896-7.579-16.896-16.896s7.58-16.896 16.896-16.896 16.896 7.579 16.896 16.896-7.579 16.896-16.896 16.896zm0-31.792c-8.214 0-14.896 6.682-14.896 14.896s6.682 14.896 14.896 14.896 14.896-6.682 14.896-14.896-6.682-14.896-14.896-14.896z" fill="#112c41"/><path d="m243.067 524.057c-.552 0-1-.448-1-1v-55.636c0-.552.448-1 1-1s1 .448 1 1v55.636c0 .552-.447 1-1 1z" fill="#112c41"/><path d="m263.316 524.057c-.552 0-1-.448-1-1v-55.636c0-.552.448-1 1-1s1 .448 1 1v55.636c0 .552-.448 1-1 1z" fill="#112c41"/><path d="m283.811 524.057c-.552 0-1-.448-1-1v-55.636c0-.552.448-1 1-1s1 .448 1 1v55.636c0 .552-.447 1-1 1z" fill="#112c41"/><path d="m304.059 524.057c-.552 0-1-.448-1-1v-55.636c0-.552.448-1 1-1s1 .448 1 1v55.636c0 .552-.447 1-1 1z" fill="#112c41"/><path d="m345.387 602.057h-257.597c-15.011 0-27.18-12.169-27.18-27.18v-1.275c0-15.011 12.169-27.18 27.18-27.18h257.597c15.011 0 27.18 12.169 27.18 27.18v1.275c0 15.011-12.169 27.18-27.18 27.18z" fill="#dedffe"/><path d="m345.387 603.057h-257.597c-15.539 0-28.18-12.642-28.18-28.18v-1.275c0-15.539 12.642-28.18 28.18-28.18h257.597c15.539 0 28.18 12.642 28.18 28.18v1.275c0 15.538-12.641 28.18-28.18 28.18zm-257.597-55.636c-14.436 0-26.18 11.745-26.18 26.18v1.275c0 14.436 11.744 26.18 26.18 26.18h257.597c14.436 0 26.18-11.745 26.18-26.18v-1.275c0-14.436-11.744-26.18-26.18-26.18z" fill="#112c41"/><path d="m218.295 584.174h-128.593c-5.093 0-9.222-4.129-9.222-9.222v-.432c0-5.093 4.129-9.222 9.222-9.222h128.594c5.093 0 9.222 4.129 9.222 9.222v.432c-.001 5.093-4.13 9.222-9.223 9.222z" fill="#7bdaac"/><path d="m218.295 585.174h-128.594c-5.636 0-10.222-4.586-10.222-10.222v-.433c0-5.636 4.585-10.222 10.222-10.222h128.594c5.636 0 10.222 4.586 10.222 10.222v.433c0 5.636-4.585 10.222-10.222 10.222zm-128.594-18.876c-4.534 0-8.222 3.688-8.222 8.222v.433c0 4.534 3.688 8.222 8.222 8.222h128.594c4.534 0 8.222-3.688 8.222-8.222v-.433c0-4.534-3.688-8.222-8.222-8.222z" fill="#112c41"/><circle cx="335.808" cy="574.239" fill="#7bdaac" r="15.896"/><path d="m335.808 591.135c-9.316 0-16.896-7.579-16.896-16.896s7.58-16.896 16.896-16.896 16.896 7.579 16.896 16.896-7.579 16.896-16.896 16.896zm0-31.792c-8.214 0-14.896 6.682-14.896 14.896s6.682 14.896 14.896 14.896 14.896-6.682 14.896-14.896-6.682-14.896-14.896-14.896z" fill="#112c41"/><path d="m243.067 603.057c-.552 0-1-.448-1-1v-55.636c0-.552.448-1 1-1s1 .448 1 1v55.636c0 .552-.447 1-1 1z" fill="#112c41"/><path d="m263.316 603.057c-.552 0-1-.448-1-1v-55.636c0-.552.448-1 1-1s1 .448 1 1v55.636c0 .552-.448 1-1 1z" fill="#112c41"/><path d="m283.811 603.057c-.552 0-1-.448-1-1v-55.636c0-.552.448-1 1-1s1 .448 1 1v55.636c0 .552-.447 1-1 1z" fill="#112c41"/><path d="m304.059 603.057c-.552 0-1-.448-1-1v-55.636c0-.552.448-1 1-1s1 .448 1 1v55.636c0 .552-.447 1-1 1z" fill="#112c41"/><path d="m345.387 712.057h-257.597c-15.011 0-27.18-12.169-27.18-27.18v-1.275c0-15.011 12.169-27.18 27.18-27.18h257.597c15.011 0 27.18 12.169 27.18 27.18v1.275c0 15.011-12.169 27.18-27.18 27.18z" fill="#dedffe"/><path d="m345.387 713.057h-257.597c-15.539 0-28.18-12.642-28.18-28.18v-1.275c0-15.539 12.642-28.18 28.18-28.18h257.597c15.539 0 28.18 12.642 28.18 28.18v1.275c0 15.538-12.641 28.18-28.18 28.18zm-257.597-55.636c-14.436 0-26.18 11.745-26.18 26.18v1.275c0 14.436 11.744 26.18 26.18 26.18h257.597c14.436 0 26.18-11.745 26.18-26.18v-1.275c0-14.436-11.744-26.18-26.18-26.18z" fill="#112c41"/><path d="m218.295 694.174h-128.593c-5.093 0-9.222-4.129-9.222-9.222v-.432c0-5.093 4.129-9.222 9.222-9.222h128.594c5.093 0 9.222 4.129 9.222 9.222v.432c-.001 5.093-4.13 9.222-9.223 9.222z" fill="#7bdaac"/><path d="m218.295 695.174h-128.594c-5.636 0-10.222-4.586-10.222-10.222v-.433c0-5.636 4.585-10.222 10.222-10.222h128.594c5.636 0 10.222 4.586 10.222 10.222v.433c0 5.636-4.585 10.222-10.222 10.222zm-128.594-18.876c-4.534 0-8.222 3.688-8.222 8.222v.433c0 4.534 3.688 8.222 8.222 8.222h128.594c4.534 0 8.222-3.688 8.222-8.222v-.433c0-4.534-3.688-8.222-8.222-8.222z" fill="#112c41"/><circle cx="335.808" cy="684.239" fill="#7bdaac" r="15.896"/><path d="m335.808 701.135c-9.316 0-16.896-7.579-16.896-16.896s7.58-16.896 16.896-16.896 16.896 7.579 16.896 16.896-7.579 16.896-16.896 16.896zm0-31.792c-8.214 0-14.896 6.682-14.896 14.896s6.682 14.896 14.896 14.896 14.896-6.682 14.896-14.896-6.682-14.896-14.896-14.896z" fill="#112c41"/><path d="m243.067 713.057c-.552 0-1-.448-1-1v-55.636c0-.552.448-1 1-1s1 .448 1 1v55.636c0 .552-.447 1-1 1z" fill="#112c41"/><path d="m263.316 713.057c-.552 0-1-.448-1-1v-55.636c0-.552.448-1 1-1s1 .448 1 1v55.636c0 .552-.448 1-1 1z" fill="#112c41"/><path d="m283.811 713.057c-.552 0-1-.448-1-1v-55.636c0-.552.448-1 1-1s1 .448 1 1v55.636c0 .552-.447 1-1 1z" fill="#112c41"/><path d="m304.059 713.057c-.552 0-1-.448-1-1v-55.636c0-.552.448-1 1-1s1 .448 1 1v55.636c0 .552-.447 1-1 1z" fill="#112c41"/><path d="m345.387 791.057h-257.597c-15.011 0-27.18-12.169-27.18-27.18v-1.275c0-15.011 12.169-27.18 27.18-27.18h257.597c15.011 0 27.18 12.169 27.18 27.18v1.275c0 15.011-12.169 27.18-27.18 27.18z" fill="#dedffe"/><path d="m345.387 792.057h-257.597c-15.539 0-28.18-12.642-28.18-28.18v-1.275c0-15.539 12.642-28.18 28.18-28.18h257.597c15.539 0 28.18 12.642 28.18 28.18v1.275c0 15.538-12.641 28.18-28.18 28.18zm-257.597-55.636c-14.436 0-26.18 11.745-26.18 26.18v1.275c0 14.436 11.744 26.18 26.18 26.18h257.597c14.436 0 26.18-11.745 26.18-26.18v-1.275c0-14.436-11.744-26.18-26.18-26.18z" fill="#112c41"/><path d="m218.295 773.174h-128.593c-5.093 0-9.222-4.129-9.222-9.222v-.432c0-5.093 4.129-9.222 9.222-9.222h128.594c5.093 0 9.222 4.129 9.222 9.222v.432c-.001 5.093-4.13 9.222-9.223 9.222z" fill="#7bdaac"/><path d="m218.295 774.174h-128.594c-5.636 0-10.222-4.586-10.222-10.222v-.433c0-5.636 4.585-10.222 10.222-10.222h128.594c5.636 0 10.222 4.586 10.222 10.222v.433c0 5.636-4.585 10.222-10.222 10.222zm-128.594-18.876c-4.534 0-8.222 3.688-8.222 8.222v.433c0 4.534 3.688 8.222 8.222 8.222h128.594c4.534 0 8.222-3.688 8.222-8.222v-.433c0-4.534-3.688-8.222-8.222-8.222z" fill="#112c41"/><circle cx="335.808" cy="763.239" fill="#7bdaac" r="15.896"/><path d="m335.808 780.135c-9.316 0-16.896-7.579-16.896-16.896s7.58-16.896 16.896-16.896 16.896 7.579 16.896 16.896-7.579 16.896-16.896 16.896zm0-31.792c-8.214 0-14.896 6.682-14.896 14.896s6.682 14.896 14.896 14.896 14.896-6.682 14.896-14.896-6.682-14.896-14.896-14.896z" fill="#112c41"/><path d="m243.067 792.057c-.552 0-1-.448-1-1v-55.636c0-.552.448-1 1-1s1 .448 1 1v55.636c0 .552-.447 1-1 1z" fill="#112c41"/><path d="m263.316 792.057c-.552 0-1-.448-1-1v-55.636c0-.552.448-1 1-1s1 .448 1 1v55.636c0 .552-.448 1-1 1z" fill="#112c41"/><path d="m283.811 792.057c-.552 0-1-.448-1-1v-55.636c0-.552.448-1 1-1s1 .448 1 1v55.636c0 .552-.447 1-1 1z" fill="#112c41"/><path d="m304.059 792.057c-.552 0-1-.448-1-1v-55.636c0-.552.448-1 1-1s1 .448 1 1v55.636c0 .552-.447 1-1 1z" fill="#112c41"/><path d="m345.387 901.057h-257.597c-15.011 0-27.18-12.169-27.18-27.18v-1.275c0-15.011 12.169-27.18 27.18-27.18h257.597c15.011 0 27.18 12.169 27.18 27.18v1.275c0 15.011-12.169 27.18-27.18 27.18z" fill="#dedffe"/><path d="m345.387 902.057h-257.597c-15.539 0-28.18-12.642-28.18-28.18v-1.275c0-15.539 12.642-28.18 28.18-28.18h257.597c15.539 0 28.18 12.642 28.18 28.18v1.275c0 15.538-12.641 28.18-28.18 28.18zm-257.597-55.636c-14.436 0-26.18 11.745-26.18 26.18v1.275c0 14.436 11.744 26.18 26.18 26.18h257.597c14.436 0 26.18-11.745 26.18-26.18v-1.275c0-14.436-11.744-26.18-26.18-26.18z" fill="#112c41"/><path d="m218.295 883.174h-128.593c-5.093 0-9.222-4.129-9.222-9.222v-.432c0-5.093 4.129-9.222 9.222-9.222h128.594c5.093 0 9.222 4.129 9.222 9.222v.432c-.001 5.093-4.13 9.222-9.223 9.222z" fill="#7bdaac"/><path d="m218.295 884.174h-128.594c-5.636 0-10.222-4.586-10.222-10.222v-.433c0-5.636 4.585-10.222 10.222-10.222h128.594c5.636 0 10.222 4.586 10.222 10.222v.433c0 5.636-4.585 10.222-10.222 10.222zm-128.594-18.876c-4.534 0-8.222 3.688-8.222 8.222v.433c0 4.534 3.688 8.222 8.222 8.222h128.594c4.534 0 8.222-3.688 8.222-8.222v-.433c0-4.534-3.688-8.222-8.222-8.222z" fill="#112c41"/><circle cx="335.808" cy="873.239" fill="#7bdaac" r="15.896"/><path d="m335.808 890.135c-9.316 0-16.896-7.579-16.896-16.896s7.58-16.896 16.896-16.896 16.896 7.579 16.896 16.896-7.579 16.896-16.896 16.896zm0-31.792c-8.214 0-14.896 6.682-14.896 14.896s6.682 14.896 14.896 14.896 14.896-6.682 14.896-14.896-6.682-14.896-14.896-14.896z" fill="#112c41"/><path d="m243.067 902.057c-.552 0-1-.448-1-1v-55.636c0-.552.448-1 1-1s1 .448 1 1v55.636c0 .552-.447 1-1 1z" fill="#112c41"/><path d="m263.316 902.057c-.552 0-1-.448-1-1v-55.636c0-.552.448-1 1-1s1 .448 1 1v55.636c0 .552-.448 1-1 1z" fill="#112c41"/><path d="m283.811 902.057c-.552 0-1-.448-1-1v-55.636c0-.552.448-1 1-1s1 .448 1 1v55.636c0 .552-.447 1-1 1z" fill="#112c41"/><path d="m304.059 902.057c-.552 0-1-.448-1-1v-55.636c0-.552.448-1 1-1s1 .448 1 1v55.636c0 .552-.447 1-1 1z" fill="#112c41"/><path d="m345.387 980.057h-257.597c-15.011 0-27.18-12.169-27.18-27.18v-1.275c0-15.011 12.169-27.18 27.18-27.18h257.597c15.011 0 27.18 12.169 27.18 27.18v1.275c0 15.011-12.169 27.18-27.18 27.18z" fill="#dedffe"/><path d="m345.387 981.057h-257.597c-15.539 0-28.18-12.642-28.18-28.18v-1.275c0-15.539 12.642-28.18 28.18-28.18h257.597c15.539 0 28.18 12.642 28.18 28.18v1.275c0 15.538-12.641 28.18-28.18 28.18zm-257.597-55.636c-14.436 0-26.18 11.745-26.18 26.18v1.275c0 14.436 11.744 26.18 26.18 26.18h257.597c14.436 0 26.18-11.745 26.18-26.18v-1.275c0-14.436-11.744-26.18-26.18-26.18z" fill="#112c41"/><path d="m218.295 962.174h-128.593c-5.093 0-9.222-4.129-9.222-9.222v-.432c0-5.093 4.129-9.222 9.222-9.222h128.594c5.093 0 9.222 4.129 9.222 9.222v.432c-.001 5.093-4.13 9.222-9.223 9.222z" fill="#7bdaac"/><path d="m218.295 963.174h-128.594c-5.636 0-10.222-4.586-10.222-10.222v-.432c0-5.636 4.585-10.222 10.222-10.222h128.594c5.636 0 10.222 4.586 10.222 10.222v.432c0 5.636-4.585 10.222-10.222 10.222zm-128.594-18.876c-4.534 0-8.222 3.688-8.222 8.222v.432c0 4.534 3.688 8.222 8.222 8.222h128.594c4.534 0 8.222-3.688 8.222-8.222v-.432c0-4.534-3.688-8.222-8.222-8.222z" fill="#112c41"/><circle cx="335.808" cy="952.239" fill="#7bdaac" r="15.896"/><path d="m335.808 969.135c-9.316 0-16.896-7.579-16.896-16.896 0-9.316 7.58-16.896 16.896-16.896s16.896 7.579 16.896 16.896c0 9.316-7.579 16.896-16.896 16.896zm0-31.792c-8.214 0-14.896 6.682-14.896 14.896s6.682 14.896 14.896 14.896 14.896-6.682 14.896-14.896-6.682-14.896-14.896-14.896z" fill="#112c41"/><path d="m243.067 981.057c-.552 0-1-.448-1-1v-55.636c0-.552.448-1 1-1s1 .448 1 1v55.636c0 .552-.447 1-1 1z" fill="#112c41"/><path d="m263.316 981.057c-.552 0-1-.448-1-1v-55.636c0-.552.448-1 1-1s1 .448 1 1v55.636c0 .552-.448 1-1 1z" fill="#112c41"/><path d="m283.811 981.057c-.552 0-1-.448-1-1v-55.636c0-.552.448-1 1-1s1 .448 1 1v55.636c0 .552-.447 1-1 1z" fill="#112c41"/><path d="m304.059 981.057c-.552 0-1-.448-1-1v-55.636c0-.552.448-1 1-1s1 .448 1 1v55.636c0 .552-.447 1-1 1z" fill="#112c41"/><path d="m345.387 1090.057h-257.597c-15.011 0-27.18-12.169-27.18-27.18v-1.275c0-15.011 12.169-27.18 27.18-27.18h257.597c15.011 0 27.18 12.169 27.18 27.18v1.275c0 15.011-12.169 27.18-27.18 27.18z" fill="#dedffe"/><path d="m345.387 1091.057h-257.597c-15.539 0-28.18-12.642-28.18-28.18v-1.275c0-15.539 12.642-28.18 28.18-28.18h257.597c15.539 0 28.18 12.642 28.18 28.18v1.275c0 15.538-12.641 28.18-28.18 28.18zm-257.597-55.636c-14.436 0-26.18 11.745-26.18 26.18v1.275c0 14.436 11.744 26.18 26.18 26.18h257.597c14.436 0 26.18-11.745 26.18-26.18v-1.275c0-14.436-11.744-26.18-26.18-26.18z" fill="#112c41"/><path d="m218.295 1072.174h-128.593c-5.093 0-9.222-4.129-9.222-9.222v-.432c0-5.093 4.129-9.222 9.222-9.222h128.594c5.093 0 9.222 4.129 9.222 9.222v.432c-.001 5.093-4.13 9.222-9.223 9.222z" fill="#7bdaac"/><path d="m218.295 1073.174h-128.594c-5.636 0-10.222-4.586-10.222-10.222v-.432c0-5.636 4.585-10.222 10.222-10.222h128.594c5.636 0 10.222 4.586 10.222 10.222v.432c0 5.636-4.585 10.222-10.222 10.222zm-128.594-18.877c-4.534 0-8.222 3.688-8.222 8.222v.432c0 4.534 3.688 8.222 8.222 8.222h128.594c4.534 0 8.222-3.688 8.222-8.222v-.432c0-4.534-3.688-8.222-8.222-8.222z" fill="#112c41"/><circle cx="335.808" cy="1062.239" fill="#7bdaac" r="15.896"/><path d="m335.808 1079.135c-9.316 0-16.896-7.579-16.896-16.896s7.58-16.896 16.896-16.896 16.896 7.579 16.896 16.896c0 9.316-7.579 16.896-16.896 16.896zm0-31.792c-8.214 0-14.896 6.682-14.896 14.896s6.682 14.896 14.896 14.896 14.896-6.682 14.896-14.896-6.682-14.896-14.896-14.896z" fill="#112c41"/><path d="m243.067 1091.057c-.552 0-1-.448-1-1v-55.636c0-.552.448-1 1-1s1 .448 1 1v55.636c0 .552-.447 1-1 1z" fill="#112c41"/><path d="m263.316 1091.057c-.552 0-1-.448-1-1v-55.636c0-.552.448-1 1-1s1 .448 1 1v55.636c0 .552-.448 1-1 1z" fill="#112c41"/><path d="m283.811 1091.057c-.552 0-1-.448-1-1v-55.636c0-.552.448-1 1-1s1 .448 1 1v55.636c0 .552-.447 1-1 1z" fill="#112c41"/><path d="m304.059 1091.057c-.552 0-1-.448-1-1v-55.636c0-.552.448-1 1-1s1 .448 1 1v55.636c0 .552-.447 1-1 1z" fill="#112c41"/><path d="m345.387 1169.057h-257.597c-15.011 0-27.18-12.169-27.18-27.18v-1.275c0-15.011 12.169-27.18 27.18-27.18h257.597c15.011 0 27.18 12.169 27.18 27.18v1.275c0 15.011-12.169 27.18-27.18 27.18z" fill="#dedffe"/><path d="m345.387 1170.057h-257.597c-15.539 0-28.18-12.642-28.18-28.18v-1.275c0-15.539 12.642-28.18 28.18-28.18h257.597c15.539 0 28.18 12.642 28.18 28.18v1.275c0 15.538-12.641 28.18-28.18 28.18zm-257.597-55.636c-14.436 0-26.18 11.745-26.18 26.18v1.275c0 14.436 11.744 26.18 26.18 26.18h257.597c14.436 0 26.18-11.745 26.18-26.18v-1.275c0-14.436-11.744-26.18-26.18-26.18z" fill="#112c41"/><path d="m218.295 1151.174h-128.593c-5.093 0-9.222-4.129-9.222-9.222v-.432c0-5.093 4.129-9.222 9.222-9.222h128.594c5.093 0 9.222 4.129 9.222 9.222v.432c-.001 5.093-4.13 9.222-9.223 9.222z" fill="#7bdaac"/><path d="m218.295 1152.174h-128.594c-5.636 0-10.222-4.586-10.222-10.222v-.432c0-5.636 4.585-10.222 10.222-10.222h128.594c5.636 0 10.222 4.586 10.222 10.222v.432c0 5.636-4.585 10.222-10.222 10.222zm-128.594-18.877c-4.534 0-8.222 3.688-8.222 8.222v.432c0 4.534 3.688 8.222 8.222 8.222h128.594c4.534 0 8.222-3.688 8.222-8.222v-.432c0-4.534-3.688-8.222-8.222-8.222z" fill="#112c41"/><circle cx="335.808" cy="1141.239" fill="#7bdaac" r="15.896"/><path d="m335.808 1158.135c-9.316 0-16.896-7.579-16.896-16.896s7.58-16.896 16.896-16.896 16.896 7.579 16.896 16.896c0 9.316-7.579 16.896-16.896 16.896zm0-31.792c-8.214 0-14.896 6.682-14.896 14.896s6.682 14.896 14.896 14.896 14.896-6.682 14.896-14.896-6.682-14.896-14.896-14.896z" fill="#112c41"/><path d="m243.067 1170.057c-.552 0-1-.448-1-1v-55.636c0-.552.448-1 1-1s1 .448 1 1v55.636c0 .552-.447 1-1 1z" fill="#112c41"/><path d="m263.316 1170.057c-.552 0-1-.448-1-1v-55.636c0-.552.448-1 1-1s1 .448 1 1v55.636c0 .552-.448 1-1 1z" fill="#112c41"/><path d="m283.811 1170.057c-.552 0-1-.448-1-1v-55.636c0-.552.448-1 1-1s1 .448 1 1v55.636c0 .552-.447 1-1 1z" fill="#112c41"/><path d="m304.059 1170.057c-.552 0-1-.448-1-1v-55.636c0-.552.448-1 1-1s1 .448 1 1v55.636c0 .552-.447 1-1 1z" fill="#112c41"/></svg>