<svg xmlns="http://www.w3.org/2000/svg" viewBox="0 0 1500 1500" width="1500" height="1500"><g transform="translate(214.0 160.0) rotate(39.26918111149207 268.0 298.0) scale(3.4097993562095246 3.4052667363717912)"><svg width="157.194" height="175.023" viewBox="-1570.315 703.991 157.194 175.023"><g fill="#151a4f"><path d="m-1565.164 760.843.029.058c.011-.03.024-.059.036-.089zm33.693-42.25c-.356.236-.71.474-1.062.715l1.137-.562zm18.654-9.055-.146-.296a87.222 87.222 0 0 0-6.936 2.881l.368.743zm-42.784 32.924a88.136 88.136 0 0 0-3.936 6.394l5.705-2.827zm13.638-2.311-3.331-6.712 6.716-3.328 3.33 6.711zm18.575-9.208-3.331-6.711 6.716-3.328 3.33 6.711zm18.578-9.206-3.33-6.712 6.715-3.328 3.331 6.711zm18.574-9.21 6.715-3.328-2.572-5.184c-.311-.003-.617-.024-.93-.024-1.01 0-2.013.042-3.015.077l-3.528 1.748z"/><path d="m-1555.118 764.225-3.33-6.711-6.651 3.297c-.011.03-.024.059-.036.089l3.301 6.653zm11.865-5.876-3.33-6.711 6.715-3.329 3.33 6.712zm18.579-9.207-3.33-6.711 6.715-3.329 3.331 6.712zm18.579-9.208-3.331-6.711 6.716-3.329 3.33 6.712zm18.574-9.207-3.33-6.711 6.715-3.329 3.331 6.712zm-74.789 44.863 3.33 6.711-6.715 3.328-3.33-6.711zm15.201.836-3.33-6.711 6.715-3.328 3.33 6.711zm18.575-9.209-3.33-6.711 6.715-3.329 3.331 6.712zm18.581-9.206-3.331-6.711 6.716-3.328 3.33 6.711zm18.575-9.208-3.331-6.712 6.716-3.328 3.33 6.711zm18.579-9.207-3.331-6.712 6.716-3.328 3.33 6.711zm-90.801 54.19 3.33 6.711-6.715 3.329-3.33-6.712zm21.913-2.497-6.715 3.329-3.33-6.712 6.715-3.328zm11.869-5.873-3.33-6.711 6.715-3.328 3.33 6.711zm18.574-9.207-3.331-6.711 6.716-3.329 3.33 6.712zm18.577-9.209-3.33-6.712 6.715-3.328 3.331 6.711zm18.577-9.207-3.331-6.712 6.716-3.328 3.33 6.711zm-93.364 54.073-.757.375a86.898 86.898 0 0 0 2.114 7.312l1.972-.978zm18.574-9.211 3.331 6.711-6.716 3.328-3.33-6.711zm18.577-9.207 3.331 6.711-6.716 3.329-3.33-6.712zm18.578-9.206 3.331 6.711-6.716 3.328-3.33-6.711zm21.913-2.497-6.715 3.328-3.33-6.711 6.715-3.329zm8.528-12.583 6.715-3.328 3.331 6.711-6.716 3.329zm21.914-2.499-3.33-6.711 6.715-3.328 3.33 6.711zm-90.801 54.187 3.33 6.712-6.715 3.328-3.33-6.711zm18.58-9.205 3.33 6.712-6.715 3.328-3.331-6.711zm21.914-2.497-6.716 3.328-3.33-6.711 6.715-3.328zm8.525-12.579 6.716-3.328 3.33 6.711-6.715 3.328zm28.631-5.839-6.716 3.329-3.33-6.712 6.715-3.328zm11.866-5.868-3.33-6.712 6.715-3.328 3.33 6.711zm-94.146 56.997a87.078 87.078 0 0 0 4.353 5.715l-3.135-6.319zm19.791-9.812 3.33 6.711-6.715 3.329-3.33-6.712zm18.575-9.209 3.33 6.711-6.715 3.328-3.33-6.711zm18.58-9.205 3.33 6.711-6.715 3.329-3.33-6.712zm21.915-2.501-6.716 3.328-3.33-6.711 6.715-3.329zm18.577-9.204-6.716 3.328-3.33-6.711 6.715-3.329zm11.861-5.874-3.33-6.711 6.715-3.329 3.331 6.712zm-90.792 54.193-6.715 3.328 1.711 3.448a89.178 89.178 0 0 0 3.015 2.57l5.318-2.635zm18.571-9.212 3.33 6.711-6.715 3.329-3.331-6.712zm18.579-9.205 3.33 6.711-6.715 3.328-3.33-6.711zm11.863-5.87 6.715-3.329 3.33 6.712-6.715 3.328zm18.579-9.21 6.716-3.328 3.33 6.711-6.715 3.328zm21.918-2.497-3.331-6.711 6.716-3.329 3.33 6.712zm-74.792 44.863-6.715 3.328 2.907 5.856c.34.187.678.375 1.021.558l6.119-3.032zm18.574-9.21 3.331 6.711-6.716 3.328-3.33-6.711zm18.574-9.21 3.331 6.711-6.716 3.329-3.33-6.712zm18.582-9.204 3.331 6.711-6.716 3.329-3.33-6.712zm18.573-9.208 3.33 6.711-6.715 3.329-3.33-6.712zm18.577-9.208 3.33 6.712-6.715 3.328-3.33-6.712zm-75.591 55.03-6.715 3.328 1.901 3.83c1.526.475 3.075.9 4.635 1.291l3.508-1.739zm18.574-9.211 3.33 6.712-6.715 3.328-3.331-6.711zm18.577-9.207 3.33 6.712-6.715 3.328-3.33-6.711zm18.573-9.209 3.331 6.712-6.716 3.328-3.33-6.711zm18.581-9.203 3.331 6.711-6.716 3.328-3.33-6.711zm-62.936 47.359c1.444.162 2.898.288 4.363.379l-1.012-2.04zm21.923-10.87 3.33 6.712-6.715 3.328-3.33-6.711zm18.578-9.207 3.33 6.712-6.715 3.328-3.331-6.711zm18.578-9.207 3.33 6.711-6.716 3.329-3.33-6.712zm18.581-9.204-6.715 3.328 3.33 6.712 1.374-.681a88.637 88.637 0 0 0 4.148-5.053z"/></g></svg></g><g transform="translate(138.0 194.0) rotate(0.0 617.0 462.5) scale(1.5425 1.5416666666666667)"><svg width="800" height="600" viewBox="0 0 800 600"><linearGradient id="a"><stop offset="0" stop-color="#b9d3fd"/><stop offset="1" stop-color="#89b3f4"/></linearGradient><linearGradient xmlns:xlink="http://www.w3.org/1999/xlink" id="c" gradientTransform="matrix(.1 0 0 -.1 0 18)" gradientUnits="userSpaceOnUse" x1="5958.472" x2="7354.134" xlink:href="#a" y1="-2529.595" y2="-2529.595"/><linearGradient id="b"><stop offset="0" stop-color="#deeafe"/><stop offset="1" stop-color="#e9f1fe"/></linearGradient><linearGradient xmlns:xlink="http://www.w3.org/1999/xlink" id="d" gradientTransform="matrix(.1 0 0 -.1 0 18)" gradientUnits="userSpaceOnUse" x1="6414.08" x2="7869.931" xlink:href="#b" y1="-2855.149" y2="-2855.149"/><linearGradient id="e" gradientTransform="matrix(.1 0 0 -.1 0 18)" gradientUnits="userSpaceOnUse" x1="1361.922" x2="6713.474" y1="-2771.782" y2="-2771.782"><stop offset="0" stop-color="#eee"/><stop offset="1" stop-color="#d6d7d8"/></linearGradient><linearGradient xmlns:xlink="http://www.w3.org/1999/xlink" id="f" gradientTransform="matrix(-.0964 .0265 -.0265 -.0964 553.6074 -2.2324)" gradientUnits="userSpaceOnUse" x1="4547.144" x2="5952.891" xlink:href="#a" y1="-2848.55" y2="-2848.55"/><linearGradient xmlns:xlink="http://www.w3.org/1999/xlink" id="g" gradientTransform="matrix(-.0964 .0265 -.0265 -.0964 553.6074 -2.2324)" gradientUnits="userSpaceOnUse" x1="5005.235" x2="6471.752" xlink:href="#b" y1="-3177.05" y2="-3177.05"/><path d="m672.876 476.948 12.227-3.821c.983-.655 2.074-1.092 3.057-1.965l-18.996 6.114c1.31-.11 2.511-.11 3.712-.328zm-8.625 0 27.62-8.952c.546-.437.873-.983 1.419-1.419l-30.895 9.825c.655.327 1.31.436 1.856.546zm-4.803-1.201 36.135-11.572c.437-.327.546-.764.983-1.201l-38.101 12.118c.328.436.655.436.983.655zm-2.839-1.856 41.485-13.319c.218-.327.437-.764.655-1.092l-42.795 13.756c.109.327.437.546.655.655zm-2.074-2.075 45.197-14.411c.218-.328.218-.655.437-1.092L653.99 471.16c.327.22.436.547.545.656zm-1.31-2.183 48.035-15.284c0-.327.218-.655.218-1.092l-48.69 15.611c.11.219.219.547.437.765zm-1.201-2.402 49.891-16.048c0-.328.109-.655.218-1.092l-50.437 16.048c.11.546.219.765.328 1.092zm-.873-2.401 51.419-16.485c0-.327.109-.655.109-.983l-51.856 16.703c.109.11.219.437.328.765zm-.437-2.948c.109.109-.109.218 0 .327l52.293-16.703c0-.327.109-.655.109-.983l-52.075 16.594c-.109.219-.218.437-.327.765zm2.729-3.712c-.109.109-.218.328-.437.328l50.109-16.048c0-.328-.109-.546 0-.873l-48.799 15.721c-.436.326-.654.654-.873.872zm2.402-3.166 46.834-14.956c0-.328-.109-.546-.218-.873l-46.179 14.847c0 .327-.219.546-.437.982zm1.529-3.275 45.088-14.411c-.109-.327-.109-.546-.218-.873l-44.433 14.301c-.328.437-.328.765-.437.983zm.764-2.948 43.668-13.865c-.109-.328-.218-.437-.218-.873l-43.122 13.865c-.219.328-.328.546-.328.873zm.218-2.838 42.467-13.537c-.109-.327-.218-.437-.327-.764l-42.249 13.428c.109.327.109.655.109.873zm-.218-2.729 41.267-13.21c-.109-.327-.218-.437-.328-.764l-41.048 13.1c.109.328.109.765.109.874zm-.546-2.511 40.284-12.991c-.109-.327-.437-.546-.546-.655l-40.175 12.882c.219.327.328.545.437.764zm37.773-15.721-39.192 12.445c.109.327.218.437.328.764l39.52-12.664c-.001-.108-.328-.326-.656-.545zm-2.293-1.965-38.21 12.227c.109.328.437.546.546.655l38.537-12.336c-.327 0-.654-.327-.873-.546zm-3.056-1.747-36.463 11.572c.109.328.218.437.328.764l37.227-12.009c-.437.001-.656-.217-1.092-.327zm-3.821-1.419c-.109.109-.218-.109-.327 0l-32.205 10.262c-.109.218-.109.655-.109.983l34.061-10.917c-.547 0-.984-.219-1.42-.328zm-8.188-.327-20.852 6.659c-.655.546-1.419.983-2.074 1.528l26.419-8.406c-1.091.11-2.401.11-3.493.219z" fill="#e6e6e6"/><path d="M734.666 291.794c1.528 4.585-.218 9.498-2.511 13.756-6.223 11.681-16.266 21.288-28.275 26.856-6.659 3.166-13.865 5.022-20.742 7.86-19.978 8.297-36.245 24.891-43.996 45.088 2.293-13.974-5.022-27.839-13.974-38.865-8.843-11.026-19.542-20.961-25.873-33.625-5.459-10.917-5.568-27.074 5.459-32.315 8.079-3.821 18.232.437 26.529-3.057 2.948-1.31 5.568-3.93 5.458-7.096-.437-8.079-16.376-7.533-16.812-15.611-.437-9.28 24.018-6.55 20.852-15.393-1.31-3.712-6.55-4.804-8.297-8.297-1.856-3.493-1.747-8.406 1.419-10.917 4.039-3.275 10.153-.655 15.284-1.856 5.786-1.31 9.498-7.205 10.699-13.1s.546-11.9 1.419-17.795c2.074-14.52 13.974-27.074 28.275-30.131s30.24 3.712 37.991 16.157c3.166 5.131 4.913 12.009 1.528 16.921-2.948 4.148-9.279 6.878-8.734 11.9.655 6.878 13.428 7.533 13.646 14.411.218 8.079-16.376 8.079-15.939 16.157.218 3.603 4.039 5.677 6.332 8.515 4.367 5.24 2.62 14.301-3.384 17.576-2.402 1.31-5.24 1.856-7.096 3.712-4.804 4.694-.109 12.991 5.568 16.485s13.1 6.223 15.174 12.664z" fill="url(#c)"/><path d="M692.745 292.34c3.384-1.856 6.987-3.603 9.716-6.441 5.568-6.114 5.24-15.284 5.677-23.581s3.384-18.013 11.354-20.197c6.659-1.856 15.066 2.183 19.978-2.62 1.856-1.747 2.62-4.367 3.93-6.55 5.677-9.498 20.633-8.734 28.93-1.419 8.188 7.314 11.354 18.668 14.083 29.367.983 3.93 1.092 9.389-2.729 10.48-3.712.983-7.424-3.603-10.917-2.183-2.838 1.092-3.057 5.131-1.965 8.079.983 2.838 2.729 5.786 2.074 8.843-1.31 5.677-9.279 6.004-14.956 4.476s-12.991-3.057-16.266 1.856c3.603 11.463 6.659 25.437-1.419 34.498-9.279 10.371-26.419 9.28-40.284 10.59-25.764 2.402-43.996 22.052-58.516 43.559-.874-36.028 19.76-71.617 51.31-88.757z" fill="url(#d)"/><path d="M660.43 364.72h-.218c-.328-.109-.437-.437-.328-.655 13.101-40.066 33.952-67.904 72.053-95.961 7.096-5.24 28.494-14.083 37.773-14.847.218 0 .546.218.546.546s-.218.546-.546.546c-8.843.764-30.349 9.607-37.118 14.629-37.991 27.948-58.734 55.568-71.725 95.415 0 .109-.218.327-.437.327zm20.197-117.468-4.367-12.009a11.661 11.661 0 0 0-4.694.655l4.694 12.882c.218.764-.109 1.528-.873 1.747-.764.218-1.528-.109-1.747-.873l-4.694-12.664c-1.419.873-2.62 2.074-3.603 3.384l3.93 10.699c.218.764-.109 1.528-.873 1.747-.764.218-1.528-.109-1.747-.873l-3.057-8.406c-1.747 4.367-1.856 9.935.109 15.393 0 .109.109.218.109.328-.983.546-2.074 1.201-2.948 1.965-2.729 1.965-6.223 5.349-7.424 10.153l1.31.328c1.092-4.367 4.367-7.533 6.878-9.28a23.27 23.27 0 0 1 2.729-1.747c2.074 4.585 5.458 8.297 9.17 10.262l-2.948-7.969c-.218-.764.109-1.528.873-1.747s1.528.109 1.747.873l3.821 10.262c1.638.437 3.275.546 4.913.218l-4.367-12.009c-.218-.764.109-1.528.873-1.747.764-.218 1.528.109 1.747.873l4.476 12.118c1.419-.655 2.729-1.638 3.821-2.729l-4.039-10.917c-.218-.764.109-1.528.873-1.747.764-.218 1.528.109 1.747.873l3.493 9.389a40.637 40.637 0 0 0 2.948-5.24l-2.183-5.895c-.218-.764.109-1.528.873-1.747.764-.218 1.528.109 1.747.873l1.201 3.166c2.183-5.24 3.603-10.371 5.459-12.009-3.057-.655-7.314-3.493-12.009-6.114l1.528 4.039c.218.764-.109 1.528-.873 1.747-.764.218-1.528-.109-1.747-.873l-2.511-6.878a28.333 28.333 0 0 0-5.568-1.965l3.821 10.59c.218.764-.109 1.528-.873 1.747-.653.219-1.418-.109-1.745-.873z" fill="#fff"/><path d="M342.853 380.986h121.835v135.481H342.853z" fill="#d6d7d8"/><path d="M267.415 512.101h272.709v10.48H267.415z" fill="#428dfc"/><path d="M136.192 121.924h535.155v346.508H136.192z" fill="url(#e)"/><path d="M145.581 130.549h516.378v285.372H145.581z" fill="#fff"/><path d="m384.58 449.734-7.025-7.024 7.024-7.025 7.025 7.025z" fill="#a1c3fc"/><path d="m403.742 449.719-7.024-7.024 7.024-7.025 7.024 7.025z" fill="#fff"/><path d="m422.904 449.749-7.024-7.025 7.024-7.024 7.025 7.024z" fill="#1d72d8"/><path d="M660.539 81.422v.655c0 9.061 7.314 16.376 16.376 16.376s16.376-7.314 16.376-16.376v-.655z" fill="#d3e3fe"/><path d="M719.164 41.574v1.092c0 14.956 12.118 27.074 27.074 27.074s27.074-12.118 27.074-27.074v-1.092z" fill="#a1c3fc"/><path d="M32.698 13.19v1.856c0 25.218 20.524 45.743 45.743 45.743s45.743-20.524 45.743-45.743V13.19H32.698z" fill="#f4f4f4"/><path d="M80.624 13.19v1.31c0 18.341 14.847 33.188 33.188 33.188S147 32.841 147 14.5v-1.31z" fill="#e7effe"/><path d="M61.41 450.31c-.218 4.803 2.729 9.17 6.114 12.664 9.17 9.716 21.507 16.376 34.607 18.559 7.314 1.201 14.847 1.201 22.271 2.074 21.616 2.729 41.812 14.52 54.804 31.987-6.004-12.991-2.511-28.384 3.166-41.485 5.677-13.1 13.428-25.546 16.157-39.52 2.402-12.009-1.856-27.839-13.974-29.913-8.952-1.528-17.686 5.349-26.638 4.039-3.166-.437-6.55-2.293-7.205-5.459-1.747-7.969 13.974-11.681 12.118-19.651-2.074-9.17-25.109 0-24.345-9.28.328-3.93 5.022-6.332 5.895-10.262s-.546-8.624-4.258-10.153c-4.804-2.074-10.044 2.074-15.284 2.293-6.004.328-11.135-4.476-13.865-9.825s-3.712-11.463-6.114-16.921c-5.895-13.537-20.742-22.598-35.481-21.725-14.738.873-28.384 11.681-32.642 25.873-1.747 5.786-1.638 12.991 3.057 16.921 3.93 3.275 10.808 4.148 11.681 9.17 1.201 6.878-11.026 10.917-9.389 17.686 1.856 7.969 18.122 3.493 19.76 11.463.764 3.603-2.402 6.659-3.821 9.935-2.838 6.223 1.31 14.52 7.969 16.157 2.62.655 5.568.327 7.969 1.638 5.895 3.275 3.603 12.555-.983 17.467-4.8 5.023-11.132 9.499-11.569 16.268z" fill="url(#f)"/><path d="M102.458 439.72c-3.821-.873-7.751-1.638-11.135-3.712-7.096-4.476-9.17-13.537-11.79-21.397s-8.079-16.594-16.376-16.594c-6.987 0-14.083 6.223-20.087 2.838-2.293-1.31-3.712-3.603-5.568-5.349-7.969-7.642-22.38-2.948-28.384 6.332s-6.004 21.179-5.895 32.315c.109 4.039 1.419 9.389 5.459 9.389 3.821 0 6.223-5.459 10.044-5.022 3.057.327 4.367 4.258 4.148 7.314-.218 3.057-1.092 6.332.328 9.061 2.729 5.24 10.699 3.384 15.721.327s11.79-6.441 16.266-2.511c-.437 12.118.328 26.528 10.59 33.079 11.79 7.533 28.166 1.965 41.922-.437 25.655-4.585 48.69 9.716 68.45 26.747-9.063-35.152-38.54-64.192-73.693-72.38z" fill="url(#g)"/><path d="M178.878 517.232c-8.734-22.817-15.721-46.288-21.07-70.088" fill="none" stroke="#428dfc" stroke-linecap="round" stroke-miterlimit="10" stroke-width="2"/><ellipse cx="157.599" cy="444.732" fill="#23286b" rx="4.694" ry="12.445" transform="matrix(-.2235 -.9747 .9747 -.2235 -240.659 697.7426)"/><path d="M157.153 444.305a514.83 514.83 0 0 1-7.205-40.83" fill="none" stroke="#428dfc" stroke-linecap="round" stroke-miterlimit="10" stroke-width="2"/><ellipse cx="149.504" cy="400.314" fill="#23286b" rx="5.568" ry="14.957" transform="matrix(-.3174 -.9483 .9483 -.3174 -182.6591 669.1458)"/><path d="M149.402 399.873a598.823 598.823 0 0 1-3.275-34.061" fill="none" stroke="#428dfc" stroke-linecap="round" stroke-miterlimit="10" stroke-width="2"/><ellipse cx="146.883" cy="361.865" fill="#23286b" rx="5.567" ry="14.956" transform="matrix(-.0106 -.9999 .9999 -.0106 -213.3985 512.5897)"/><path d="M145.908 361.008c-.437-8.624-.655-17.358-.764-26.092" fill="none" stroke="#428dfc" stroke-linecap="round" stroke-miterlimit="10" stroke-width="2"/><ellipse cx="145.246" cy="330.426" fill="#23286b" rx="7.532" ry="20.087" transform="matrix(-.0106 -.9999 .9999 -.0106 -183.616 479.1787)"/><path d="M145.144 329.021c.109-5.786.218-11.572.437-17.358" fill="none" stroke="#428dfc" stroke-linecap="round" stroke-miterlimit="10" stroke-width="2"/><path d="m132.808 484.917 4.367-12.009a11.661 11.661 0 0 1 4.694.655l-4.694 12.882c-.218.764.109 1.528.873 1.747s1.528-.109 1.747-.873l4.694-12.664c1.419.873 2.62 2.074 3.603 3.384l-3.93 10.699c-.218.764.109 1.528.873 1.747s1.528-.109 1.747-.873l3.057-8.406c1.747 4.367 1.856 9.935-.109 15.393 0 .109-.109.218-.109.328.983.546 2.074 1.201 2.948 1.965 2.729 1.965 6.223 5.349 7.424 10.153l-1.31.328c-1.092-4.367-4.367-7.533-6.878-9.28a23.27 23.27 0 0 0-2.729-1.747c-2.074 4.585-5.459 8.297-9.17 10.262l2.948-7.969c.218-.764-.109-1.528-.873-1.747-.764-.218-1.528.109-1.747.873l-3.821 10.262c-1.638.437-3.275.546-4.913.218l4.367-12.009c.218-.764-.109-1.528-.873-1.747s-1.528.109-1.747.873l-4.476 12.118c-1.419-.655-2.729-1.638-3.821-2.729l4.039-10.917c.218-.764-.109-1.528-.873-1.747-.764-.218-1.528.109-1.747.873l-3.493 9.389a40.637 40.637 0 0 1-2.948-5.24l2.183-5.895c.218-.764-.109-1.528-.873-1.747s-1.528.109-1.747.873l-1.201 3.166c-2.183-5.24-3.603-10.371-5.459-12.009 3.057-.655 7.314-3.493 12.009-6.114l-1.528 4.039c-.218.764.109 1.528.873 1.747s1.528-.109 1.747-.873l2.511-6.878a28.333 28.333 0 0 1 5.568-1.965l-3.821 10.59c-.218.764.109 1.528.873 1.747.653.219 1.417-.109 1.745-.873z" fill="#fff"/><g fill="#b3c9ee"><path d="m109.555 136.007-8.188-.983c-.764.109-1.528.109-2.293.328l12.773 1.419c-.873-.218-1.528-.546-2.292-.764zm5.021 2.293-18.559-2.074c-.437.109-.764.328-1.201.437l20.742 2.402c-.327-.329-.654-.547-.982-.765zm2.511 1.965-24.236-2.729c-.328.109-.546.328-.873.437l25.546 2.948c-.109-.329-.328-.438-.437-.656zm1.201 1.856-27.839-3.166c-.218.109-.437.328-.655.437l28.712 3.275a.828.828 0 0 0-.218-.546zm.655 1.746-30.349-3.493c-.218.109-.328.328-.546.546l31.005 3.493c-.11-.218-.11-.436-.11-.546zm.219 1.638-32.205-3.712c-.109.218-.328.328-.437.546l32.642 3.712v-.546zm0 1.747-33.515-3.821c-.109.218-.218.328-.437.546l33.843 3.93c.109-.328.109-.437.109-.655zm-.11 1.637-34.498-3.93c-.109.218-.218.328-.328.546l34.825 3.93.001-.546zm-.545 1.856c0-.109.109-.109.109-.218l-35.044-4.039c-.109.218-.218.328-.328.546l34.935 4.039.328-.328zm-2.511 1.419c.109 0 .218-.109.328-.109l-33.625-3.821c-.109.218-.109.328-.218.546l32.751 3.712a5.26 5.26 0 0 0 .764-.328zm-2.293 1.201-31.441-3.603c-.109.218-.109.328-.109.546l31.005 3.493c.108-.108.327-.217.545-.436zm-1.747 1.529-30.24-3.493c0 .218-.109.328-.109.546l29.804 3.384c.327-.11.436-.328.545-.437zm-1.201 1.528-29.258-3.384c0 .218 0 .328-.109.546l28.93 3.275a.851.851 0 0 0 .437-.437zm-.873 1.638-28.494-3.275v.546l28.275 3.275a.839.839 0 0 1 .219-.546zm-.655 1.637-27.729-3.166v.546l27.511 3.166c.109-.218.218-.437.218-.546zm-.328 1.638-27.074-3.057c0 .218.109.437.109.546l26.965 3.057v-.546zm-26.31-.764 26.31 3.057v-.546l-26.529-3.057c.001.109.11.327.219.546zm.874 1.746 25.655 2.948c0-.218-.109-.437-.109-.546l-25.873-2.948c.108.11.218.328.327.546zm1.31 1.856 24.454 2.838v-.546l-25-2.838c.218.11.327.328.546.546zm1.856 1.856c.109 0 .109.109.218.109l21.616 2.511c.109-.109.218-.328.328-.546l-22.817-2.62c.218.109.436.328.655.546zm4.694 2.293 13.974 1.638 1.638-.328-17.686-2.074c.655.218 1.419.545 2.074.764zm595.745 328.931 12.773.546c1.201-.218 2.402-.328 3.493-.764l-19.978-.655c1.419.218 2.511.655 3.712.873zm-8.079-2.947 29.039.983c.655-.218 1.092-.546 1.856-.873l-32.424-1.201c.547.545.983.872 1.529 1.091zm-4.039-2.73 37.882 1.31c.546-.218.764-.546 1.31-.764l-39.956-1.528c.218.546.546.655.764.982zm-2.183-2.729 43.559 1.528c.327-.218.655-.546.983-.764l-44.869-1.638a1.31 1.31 0 0 0 .327.874zm-1.201-2.62 47.489 1.747c.328-.218.437-.546.764-.873l-48.472-1.747c.219.327.219.655.219.873zm-.546-2.511 50.328 1.856c.109-.328.437-.546.655-.873l-51.092-1.856c.109.218.109.546.109.873zm-.218-2.729 52.402 1.965c.109-.328.327-.546.655-.873l-52.948-2.074c-.109.545-.109.654-.109.982zm0-2.511 53.93 1.965c.109-.328.328-.546.437-.873l-54.476-1.965c.109.218.109.545.109.873zm.655-2.948c0 .218-.109.218-.109.328l54.804 2.074c.109-.327.328-.546.437-.873l-54.585-2.074c-.22.218-.438.327-.547.545zm3.711-2.511c-.218 0-.328.218-.546.218l52.62 1.856c.109-.327.109-.546.328-.873l-51.201-1.856c-.546.219-.873.437-1.201.655zm3.385-2.183 49.127 1.856c.109-.328.109-.546.109-.873l-48.472-1.747c-.109.218-.437.436-.764.764zm2.511-2.511 47.271 1.747c0-.328.109-.546.109-.873l-46.616-1.638c-.437.218-.546.546-.764.764zm1.746-2.511 45.743 1.747c0-.327 0-.546.109-.873l-45.197-1.638c-.436.218-.546.437-.655.764zm1.092-2.62 44.542 1.638c0-.327 0-.546-.109-.873l-44.214-1.747c.109.436-.001.764-.219.982zm.873-2.62 43.341 1.638c0-.327 0-.546-.109-.873l-43.013-1.638c-.109.327-.219.655-.219.873zm.328-2.62 42.358 1.528c0-.327-.218-.655-.218-.873l-42.14-1.528c-.109.327 0 .654 0 .873zm40.83-1.965-41.157-1.638c0 .328 0 .546.109.873l41.485 1.528c0-.108-.219-.436-.437-.763zm-1.529-2.62-40.066-1.528c0 .327.218.655.218.873l40.502 1.528c-.326-.218-.435-.546-.654-.873zm-2.292-2.73-38.21-1.528c0 .328 0 .546.109.873l39.083 1.419c-.436-.109-.655-.436-.982-.764zm-3.057-2.62c-.218 0-.218-.109-.328-.109l-33.843-1.31c-.109.218-.327.546-.437.873l35.699 1.31c-.436-.109-.763-.436-1.091-.764zm-7.533-2.947-21.834-.873c-.873.218-1.638.437-2.511.655l27.62 1.092c-1.091-.219-2.292-.656-3.275-.874z"/></g></svg></g><g transform="translate(522.0 281.0) rotate(0.0 296.0 179.0) scale(1.8048780487804879 1.8080808080808082)"><svg width="328" height="198" viewBox="0 0 328 198"><linearGradient id="i" gradientUnits="userSpaceOnUse" x1="2.804" x2="323.629" y1="17.979" y2="17.979"><stop offset="0" stop-color="#b0cdfc"/><stop offset="1" stop-color="#81aef2"/></linearGradient><linearGradient id="h"><stop offset="0" stop-color="#eee"/><stop offset="1" stop-color="#d6d7d8"/></linearGradient><linearGradient xmlns:xlink="http://www.w3.org/1999/xlink" id="j" gradientUnits="userSpaceOnUse" x1="5.333" x2="64.833" xlink:href="#h" y1="59" y2="59"/><linearGradient xmlns:xlink="http://www.w3.org/1999/xlink" id="k" gradientUnits="userSpaceOnUse" x1="113" x2="172.5" xlink:href="#h" y1="59" y2="59"/><linearGradient xmlns:xlink="http://www.w3.org/1999/xlink" id="l" gradientUnits="userSpaceOnUse" x1="220.667" x2="280.167" xlink:href="#h" y1="59" y2="59"/><path d="M0 0h328v198H0z" fill="#eee"/><path d="M323.629 34.49H2.804V14.275c0-7.073 5.734-12.807 12.807-12.807h308.018z" fill="url(#i)"/><path d="M40.639 38.084H5.712V17.771c0-7.019 5.69-12.709 12.709-12.709h22.218z" fill="#78a9ef"/><path d="M14.175 12.573h18v18h-18z" fill="#89b3f4"/><path d="M5.333 52h59.5v14h-59.5z" fill="url(#j)"/><path d="M59.167 52h59.5v14h-59.5z" fill="#f2f2f2"/><path d="M113 52h59.5v14H113z" fill="url(#k)"/><path d="M166.833 52h59.5v14h-59.5z" fill="#f2f2f2"/><path d="M220.667 52h59.5v14h-59.5z" fill="url(#l)"/><path d="M263.5 52H323v14h-59.5z" fill="#f2f2f2"/><path d="M296 45.333H63.333c-3.3 0-6-2.7-6-6v-2.667c0-3.3 2.7-6 6-6H296c3.3 0 6 2.7 6 6v2.667c0 3.3-2.7 6-6 6z" fill="#f7f7f7"/><g fill="#23286b"><circle cx="74.459" cy="41.238" r="1.5"/><circle cx="82.458" cy="41.238" r="1.5"/><circle cx="90.457" cy="41.238" r="1.5"/></g></svg></g><g transform="translate(1341.0 491.0) rotate(0.0 -235.5 398.5) scale(-1.7561521252796422 1.758217515993823)"><svg width="268.2" height="453.3" viewBox="0 0 268.2 453.3"><linearGradient id="m"><stop offset="0" stop-color="#ffbeb6"/><stop offset="1" stop-color="#f2a19c"/></linearGradient><linearGradient xmlns:xlink="http://www.w3.org/1999/xlink" id="q" gradientTransform="matrix(.9842 -.177 -.177 -.9842 76.4778 452.1282)" gradientUnits="userSpaceOnUse" x1="44.967" x2="53.537" xlink:href="#m" y1="250.437" y2="252.241"/><linearGradient id="n"><stop offset="0" stop-color="#428dfc"/><stop offset="1" stop-color="#1d72d8"/></linearGradient><linearGradient xmlns:xlink="http://www.w3.org/1999/xlink" id="r" gradientTransform="matrix(1 0 .16 -1 61.3514 456)" gradientUnits="userSpaceOnUse" x1="-29.366" x2="49.939" xlink:href="#n" y1="16.026" y2="16.026"/><linearGradient xmlns:xlink="http://www.w3.org/1999/xlink" id="s" gradientTransform="matrix(1 0 0 -1 0 456)" gradientUnits="userSpaceOnUse" x1="76.932" x2="48.434" xlink:href="#m" y1="397.8" y2="408.3"/><linearGradient xmlns:xlink="http://www.w3.org/1999/xlink" id="t" gradientTransform="matrix(1 0 .16 -1 61.3514 456)" gradientUnits="userSpaceOnUse" x1="33.301" x2="112.606" xlink:href="#n" y1="16.026" y2="16.026"/><linearGradient id="u" gradientTransform="matrix(1 0 0 -1 0 456)" gradientUnits="userSpaceOnUse" x1="88.258" x2="155.66" y1="147.264" y2="147.264"><stop offset="0" stop-color="#23286b"/><stop offset="1" stop-color="#151a4f"/></linearGradient><linearGradient id="o"><stop offset="0" stop-color="#a1c3fc"/><stop offset="1" stop-color="#81aef2"/></linearGradient><linearGradient xmlns:xlink="http://www.w3.org/1999/xlink" id="v" gradientTransform="matrix(1 0 0 -1 0 456)" gradientUnits="userSpaceOnUse" x1="72.113" x2="108.113" xlink:href="#o" y1="368.119" y2="298.619"/><linearGradient xmlns:xlink="http://www.w3.org/1999/xlink" id="w" gradientTransform="matrix(1 0 0 -1 0 456)" gradientUnits="userSpaceOnUse" x1="11.923" x2="29.866" xlink:href="#n" y1="290.547" y2="290.547"/><linearGradient id="p"><stop offset="0" stop-color="#eee"/><stop offset="1" stop-color="#d6d7d8"/></linearGradient><linearGradient xmlns:xlink="http://www.w3.org/1999/xlink" id="x" gradientTransform="matrix(1 0 0 -1 0 456)" gradientUnits="userSpaceOnUse" x1="252.486" x2="268.173" xlink:href="#p" y1="447.457" y2="447.457"/><linearGradient xmlns:xlink="http://www.w3.org/1999/xlink" id="y" gradientTransform="matrix(1 0 0 -1 0 456)" gradientUnits="userSpaceOnUse" x1="105.234" x2="175.487" xlink:href="#p" y1="243.513" y2="243.513"/><linearGradient xmlns:xlink="http://www.w3.org/1999/xlink" id="z" gradientTransform="matrix(1 0 0 -1 0 456)" gradientUnits="userSpaceOnUse" x1="94.791" x2="135.513" xlink:href="#o" y1="396.845" y2="378.244"/><linearGradient xmlns:xlink="http://www.w3.org/1999/xlink" id="A" gradientUnits="userSpaceOnUse" x1="130.853" x2="149.035" xlink:href="#o" y1="160.265" y2="160.265"/><linearGradient xmlns:xlink="http://www.w3.org/1999/xlink" id="B" gradientUnits="userSpaceOnUse" x1="142.741" x2="154.629" xlink:href="#n" y1="173.901" y2="173.901"/><linearGradient xmlns:xlink="http://www.w3.org/1999/xlink" id="C" gradientTransform="matrix(1 0 0 -1 0 456)" gradientUnits="userSpaceOnUse" x1="138.923" x2="180.227" xlink:href="#n" y1="357.768" y2="357.768"/><linearGradient xmlns:xlink="http://www.w3.org/1999/xlink" id="D" gradientUnits="userSpaceOnUse" x1="136.797" x2="146.727" xlink:href="#n" y1="142.105" y2="142.105"/><path d="M68.9 171.4c2.3-.8 8.5 4.1 11.1 5.1 3.7 1.5 8.4 2.9 10.8 6.1 3.1 4.2 1.1 8.2-.6 12.6-1.5 4.1-1.4 5.6-2.8 9.7-.9 2.5-2.6 4.9-5.3 4.9-1.9 0-13.7.6-15.4.1-2.9-1-6-7.6-7.9-10.2-3.7-5.2 2.9-5.3 6.3-3.3 2.2 1.3 4.2 4.1 6.5 4.9 2.2.8 3.5.1 5.9 0 .6-2.4 1.2-5.6.9-8.1-.3-2.6-3.4-4.3-5.9-5-5.2-1.4-10.7-1.9-15.9-2.6 1-2.6 5.3-5.4 7.1-7.6 2-2.4 3.7-5.1 5.8-7.5-.3.8-.3.3-.6.9z" fill="#f2a19c"/><path d="M83.4 189.6c-1.4 4-6 4.2-9.3 5.8-3.4 1.7-8.9 2.5-9.7 5.9-1.5 6.3 5.7 3.6 8.3 2.6 3.5-1.3 6.6-3.4 10.3-3.9 3.1-.4 5.4-2.3 5.4-5.6 0-2.4-2.2-4.5-5-4.8z" fill="url(#q)"/><path d="M37.7 427.7c-2 8.2-6.5 24.6-3.6 25.4 6.8.2 64.5.2 77.1.2 1.2-1.9.9-3.6.3-5.4-1.8-5.1-7.9-9.2-13-11s-8.4-2.1-13.3-4.2c-5.7-2.3-9.2-4.8-15.5-5.7-2.5-.4-8.8-.3-11.4-.1-6.9.2-13.7.5-20.6.8z" fill="url(#r)"/><path d="M218 61.6c-.7 0-1.4-.2-1.9-.7-1.3-1.1-1.4-3-.3-4.2l38-44.7c1.1-1.3 3-1.4 4.2-.3 1.3 1.1 1.4 3 .3 4.2l-38 44.7c-.6.7-1.5 1-2.3 1z" fill="#23286b"/><path d="M206.6 59.3c2.1-1.7 6.6-2.9 8-5.3 1.4-2.5.6-5.1 1.7-7.4s13.5-11.7 14.8-10.4c1.6 1.6-.8 6.4-1.8 7.8-2 2.7-5.2 4.3-6.3 7.3-1.2 3.2 0 4.9-2.7 7.6-2.8 2.9-7.2 6.2-10.7 8.4-.5.3-1.2 1.2-1.6 1.6-.6-2.1-2.9-8.4-1.4-9.6z" fill="#ffbeb6"/><path d="M229.1 47.4c2-1.2 8.9-6.9 11.4-6.4 4.3.9.9 7.2.4 9.2-1.5 5.7.7 10.8-1.5 16.3-2.7 6.8-6.9 5.1-13.4 6.4-3.4.7-8.7 2.7-11.7 4.6-3.4 2.2-6.1 4.9-9.9 6.6 1-6.2-1.9-11.8-4.2-17.6 2.6-1.7 5.9-2.5 8.7-3.9 1.8-.9 3.8-2.6 5.6-3 0 .5 8.5-8.5 14.6-12.2z" fill="#ffbeb6"/><path d="M48.9 68c1.6 7.9 10.6 14.3 12.9 22 5 .5 19.5-.8 21.3-5.7 1.1-2.9-.5-7.7-1.2-10.3-1.4-5.7-5.5-11.3-6.5-16.7-3.1 2-8.2 2.3-11.8 3.3-2.1.6-2.7 1.3-4.6 2.4-2.6 1.6-7.4 4.2-10.1 5z" fill="#f2a19c"/><path d="M16.9 42.1C21 34.9 37.8 8.9 50.9 18c10.8 7.5 31.3 16.6 29.5 19-4.7 5.8-4.2 5.8-.9 11.9 2.7 4.9 5.2 8.9 2.3 14-4.2 7.2-17.2 11.7-25 13.3-20 4.2-39.2-10-40-30.7.4-.7-.9-3.7.1-3.4z" fill="url(#s)"/><g fill="#23286b"><path d="M77.8 45.3c-3.8 2-9.7 3.9-9.2 10.1.4 5.2 6.3 8.7 10.4 8.2 16.6-2.4 7.9-10.9-1.2-18.3zM26 19.7C32.8 5.6 63.1 8.4 69.2 23 58.8 34.6 49.7 41.8 36.4 54.6 34 49.7 24.5 20.5 26 19.7zM.8 79.6c-.3 0-.5-.2-.5-.5 0-1.1-.1-2.2-.1-3.5-.4-9.8-.9-24.5 10.4-41.3 2.7-4 8.6-8.6 12.6-8.9.3 0 .5.2.5.5s-.2.5-.5.5c-3.3.2-9.1 4.3-11.8 8.4C.2 51.4.8 66 1.2 75.6c0 1.3.1 2.4.1 3.5 0 .3-.3.5-.5.5z"/><path d="M1.6 44.7c-.3 0-.5-.3-.5-.6.6-5 6.3-11.1 9.2-13.6 4.1-3.6 8.9-4.1 13.5-4.1.3 0 .5.2.5.5s-.2.5-.5.5c-4.4 0-8.9.5-12.8 3.8-2.8 2.4-8.3 8.3-8.8 13-.1.3-.3.5-.6.5z"/></g><path d="M100.4 427.7c-2 8.2-6.5 24.6-3.6 25.4 6.8.2 64.5.2 77.1.2 1.2-1.9.9-3.6.3-5.4-1.8-5.1-7.9-9.2-13-11s-8.4-2.1-13.3-4.2c-5.7-2.3-9.2-4.8-15.5-5.7-2.5-.4-8.8-.3-11.4-.1-6.9.2-13.8.5-20.6.8z" fill="url(#t)"/><path d="M125.6 221.5h40.6v104.9h-40.6z" fill="#428dfc"/><path d="M105.7 239.3c-2.3-.9-24.6 77-29.6 87.4-6 12.7-17.1 19.4-19.4 34-2.2 13.6-8.4 22.1-14.1 34.5-4.9 10.6-2.4 22-5.5 32.9 11.5 4 29.9 1.2 42.7.5-.6-10.7 7.8-24.7 12.5-34.2 6.3-12.6 14.8-24 22.5-35.8 4.2-6.5 10.9-12.8 14-19.4 3.5-7.5 3.5-18.4 4.1-26.6.9-10.8-.5-21.7.2-32.7.6-9.6 2.6-19.5 4-29 1.2-8.4 7.2-24.1-1-28.4-8.1-4.2-23.9-2.6-32.9-2.1 1.6 6.2 2.7 11.9 2.6 18.3.9.3-.1 1.8-.1.6z" fill="#151a4f"/><path d="M150.4 185.4c7.3 9.2 5.3 30.2 3.7 41.4-2.7 18.2-4.8 37.3-6.5 55.8-2.1 22.5-2.8 45.8-2.8 68.5 0 20.4-2.2 40.8-2.1 60.9 0 5.5.1 14.9 1.3 20.1-7.8-.1-37.6-.3-45.3.1-3.2-13.1-4.6-24-.6-37 3.9-12.7 5.1-21.1 1.9-34.3-3.7-15.2 1.7-22.7 7-36.3 2.4-6.1.6-10 0-16.1-.8-7.8.4-15.9 0-23.8-.6-11.9-3.1-38.4-7.8-44.4-4.4-5.7-10.4-12.2-11-24.7-.2-3.8-.1-19.6 2.3-23 3.3-4.7 17.3 4.4 22.2 4 11-.9 26.6-14.3 37-10.7 1 .5 1-1.1.7-.5z" fill="url(#u)"/><path d="M61.3 94.6c-4.5-1.8-23.3 38.6-27.4 43.9-5.3 6.8-18.8 22.2-20.8 30.2-1.1 4.3 7.1 8.6 14.4 11.7 5.9 2.5 13.7 3.6 19.5 6.4 3.8 1.8 18.2 6.2 18.2 6.2s8.7-17 9.8-20.1c-4.3-2.8-9-3.8-14.6-7.3-6.1-3.8-6.2-4.9-13.1-3.5 2.5-3.3 5.6-2.2 8.2-4.2s4.8-6.4 7-9c4.6-5.5 10.5-9.3 15.4-14.7 14.3-15.8-.3-30.1-8.8-37 .5-1.1-4.1-1.6-7.8-2.6z" fill="#89b3f4"/><path d="M47 76.4c9.2-1.5 24.1-4.4 39.8-8 .8-.2 1.6.4 1.7 1.3.1 3.5.1 5.4.4 8.4.1 1.8 2.7 2.7 4.9 3.6 7.1 2.9 13.6 5.5 19.4 11.8 10.5 11.4 18.2 17.8 23.8 32.5 4.6 12.1 6.9 24.8 10.6 37.1 2 6.8 3.7 13.6 5.4 20.4 1 4.1 5.1 14.3 3.8 18.1 0 .1.4 3.8.4 3.9-23.4.8-48 1.5-69.1 1.6 0-5.8-.1-18.7.1-21.7.3-5.2-2.7-7.4-1.6-11.5-2.4-.6-6.6 0-6.9-2.4-.2-1.3-.2-2.3 1-3.2-9.1-8.9-14.3-26.8-20.5-38-3.3-5.9-5.4-11.9-5.8-18.8-.4-6.6.8-15.1 3-20.4C55 87.6 46.2 75.5 47 76.4z" fill="url(#v)"/><path d="M210.2 59.9c2.4 5.4 4.1 11.5 5.9 17.2 1.2.2 1.5-.6.8-2.6m-82 29.2c3.1-6 6.6-14 12.6-17.3 6.8 4.6 23.2 3.1 26.7 8.3" fill="none" stroke="#000" stroke-miterlimit="10"/><path d="m112.9 94.3-.6-.3c-2.9-1.7-5.7-3.9-8.5-6-5.6-4.4-11.4-9-18.6-8.7-5.9.2-24.7 10-27.9 13.3-.4.4-1 .4-1.4 0s-.4-1 0-1.4c3.4-3.6 22.9-13.7 29.3-13.9 7.9-.3 14 4.5 19.9 9.2 2.1 1.7 4.1 3.2 6.2 4.6.3-.3.7-.4 1.1-.2.8.3 1.6.8 1.7 1.7 0 .3 0 .9-.7 1.4z" fill="#d6d7d8"/><path d="M27.5 17.4c-4.2 2.6-7.3 9.5-7.3 9.5s-4.7 3.3-5.9 4.2c-6.4 4.6-8.2 15.5-10 23-1.4 5.7-2 15.6-.1 21.5 2.2 6.8 3.4 6.4 10 6.8 7.9.5 27.2 0 36.7-.3 3-.1 5.4-2.6 5.3-5.6-.1-7.3-.2-20.1 0-27.4.3-9.6 2.2-20.7-7-26-3.6-2.1-7.2-4.5-11.2-5-2.9-.2-10.8-.9-10.5-.7z" fill="#23286b"/><path d="M23.8 150.7c6.2-1.2.4 12.6.8 15.3.5 3.3 8.9 15.9 3.3 14.2-7-2.1-12.9-4.8-14.9-8-3.3-5.5 1.3-8.5 4.2-13 1.9-2.8 4.4-5.3 6.6-8.5z" fill="url(#w)"/><path d="M112 176H84.6c-.6 0-1-.4-1-1s.4-1 1-1H112c.6 0 1 .4 1 1s-.5 1-1 1z" fill="#d6d7d8"/><path d="M264.4 12.7c3.1-4 6.2-17.6.8-10.8-2 2.6-7.2-.4-10.2 3.6s-3.4 8.8-.8 10.8c2.6 1.9 7.2.3 10.2-3.6z" fill="url(#x)"/><path d="M121.5 213.9c.1 0 .2 0 .2-.1s0-.2-.1-.2-.2 0-.2.1c-.1 0 0 .1.1.2zm1.4-3.9c.1 0 .2 0 .2-.1s0-.2-.1-.2-.2 0-.2.1 0 .2.1.2zm15.7 3.3c0 .1.1.1.2.1s.1-.1.1-.2-.1-.1-.2-.1-.1.1-.1.2zm-23.2-5.9c.1.1.2.1.2 0 .1-.1.1-.2 0-.2-.1-.1-.2-.1-.2 0-.1.1-.1.2 0 .2zm14.5 5.6c0 .1.1.2.2.2s.2-.1.2-.2-.1-.2-.2-.2-.2.1-.2.2zm-.1-4.1c0 .1.1.2.2.2s.2-.1.2-.2-.1-.2-.2-.2c-.1.1-.2.1-.2.2zm-30.6 6.7c.1.1.3.1.4 0 .1-.1.1-.3 0-.4-.1-.1-.3-.1-.4 0-.1.1-.1.3 0 .4zm5.7-5.3c.1.1.3.1.5 0 .1-.1.1-.3 0-.5-.1-.1-.3-.1-.4 0-.2.2-.2.4-.1.5zm18.2 24c0 .2.1.3.3.3s.3-.1.3-.3c0-.2-.1-.3-.3-.3-.1 0-.3.1-.3.3zm.6-15.5c0 .2.1.3.3.3.2 0 .3-.1.3-.3 0-.2-.1-.3-.3-.3-.1 0-.3.1-.3.3zm.3-7.8c0 .2.1.3.3.3s.3-.1.3-.3-.1-.3-.3-.3c-.1 0-.3.1-.3.3zm-15.8 16.2c.2.1.3 0 .4-.2s0-.3-.2-.4-.3 0-.4.2c-.1.1 0 .3.2.4zm3.2-7.1c.2.1.3 0 .4-.2s0-.3-.2-.4-.3 0-.4.2c0 .2 0 .4.2.4zm3.2-7c.2.1.4 0 .4-.2.1-.2 0-.3-.2-.4s-.4 0-.4.1c0 .2 0 .4.2.5zm23 15.3c.1.2.2.2.4.2.2-.1.2-.2.2-.4s-.2-.3-.4-.2c-.1 0-.2.2-.2.4zm-5.4-14.6c.1.2.2.2.4.2.2-.1.3-.2.2-.4-.1-.2-.2-.2-.4-.2-.1.1-.2.2-.2.4zm-30.9 10c.1.1.3 0 .4-.1s0-.3-.1-.4-.3 0-.4.1c0 .2 0 .4.1.4zm3.5-6c.1.1.3 0 .4-.1s0-.3-.1-.4-.3 0-.4.1c-.1.2 0 .4.1.4zm3.4-6.1c0 .1.1.1.1.2.1.1.3 0 .4-.1s0-.3-.1-.4c-.1 0-.2-.1-.3 0-.1 0-.1.1-.1.1-.1 0-.1.1 0 .2zm21.9 15.8c0 .2.2.2.4.2.1 0 .2-.2.2-.3 0-.2-.2-.2-.3-.2-.3 0-.4.2-.3.3zm-3.6-13.4c0 .2.2.2.3.2.1 0 .2-.2.2-.3 0-.2-.2-.2-.3-.2-.1 0-.2.2-.2.3zm-1.8-6.7c0 .2.2.2.4.2.1 0 .2-.2.2-.3s-.2-.2-.3-.2c-.2 0-.3.2-.3.3zm-9.6 17.5c0 .2.1.3.3.3s.3-.1.3-.2c0-.2-.1-.3-.2-.3-.2-.1-.3 0-.4.2zm1-6.9c0 .1.1.3.2.3.2 0 .3-.1.3-.2 0-.2-.1-.3-.2-.3-.2-.1-.3 0-.3.2zm.9-6.9c0 .2.1.3.2.3.2 0 .3-.1.3-.2 0-.2-.1-.3-.2-.3-.2-.1-.3 0-.3.2zm19.6 1.9c.1.1.3.2.4.1s.1-.3 0-.4-.3-.1-.4-.1c0 0-.1.2 0 .4 0-.1 0-.1 0 0zm-19.2-1c0 .1.1.2.2.2s.2-.1.2-.2-.1-.2-.2-.2c-.1.1-.2.1-.2.2zm-.2-4c0 .1.1.2.2.2s.2-.1.2-.2-.1-.2-.2-.2c-.2 0-.2.1-.2.2zm-7.8.9c.1 0 .2 0 .2-.1s0-.2-.1-.2-.2 0-.2.1 0 .2.1.2zm15.5-1c0 .1.1.1.2.1s.1-.1.1-.2-.1-.1-.2-.1-.1.1-.1.2zm-26.5 2.9c.1.1.2 0 .3-.1.1-.1 0-.2-.1-.3-.1-.1-.2 0-.3.1 0 .1.1.2.1.3zm19.4 2.7c0 .1.1.2.2.1.1 0 .2-.1.1-.2 0-.1-.1-.2-.2-.1-.1 0-.2.1-.1.2zm-1.2-4.5c0 .1.1.2.2.1.1 0 .2-.1.1-.2 0-.1-.1-.2-.2-.1-.1 0-.1.1-.1.2zm-8.4 2.7c.2 0 .3 0 .3-.1s-.1-.2-.2-.2-.2.1-.2.2 0 0 .1.1zm17.2-4.3c.1.1.2.1.3 0 .1-.1.1-.2 0-.3s-.2-.1-.3-.1zm-24 23.8c0 .2.1.3.3.4.2 0 .3-.1.4-.3 0-.2-.1-.3-.3-.4-.2 0-.3.1-.4.3zm1-7.9c0 .2.1.3.3.4s.3-.1.4-.3c0-.2-.1-.3-.3-.4s-.4.1-.4.3zm1-8c0 .2.1.3.3.4.2 0 .3-.1.4-.3 0-.2-.1-.3-.3-.4-.2 0-.4.1-.4.3zm25.6.9c.1.1.3.2.5.1.1-.1.2-.3.1-.5s-.3-.2-.5-.1-.2.3-.1.5zm-4.9-6.4c.1.1.3.2.5.1.1-.1.2-.3.1-.5-.1-.1-.3-.2-.5 0-.2.1-.2.3-.1.4zm-9.2 9.1c.1.2.2.3.4.2.2 0 .3-.2.2-.4 0-.2-.2-.3-.4-.2-.2 0-.3.2-.2.4zm-2.2-7.7c0 .2.2.3.4.2.2 0 .3-.2.2-.4 0-.2-.2-.3-.4-.2-.1 0-.2.2-.2.4zm-2.3 10.4c0 .2.2.3.4.2.2 0 .3-.2.2-.4 0-.2-.2-.3-.4-.3-.1.1-.2.3-.2.5zm-1.8-7.8c0 .2.2.3.4.2.2 0 .3-.2.2-.4s-.2-.3-.4-.2c-.1 0-.2.2-.2.4zm-11.7 3.8c0 .2.1.3.3.4.2 0 .4-.1.4-.3s-.1-.4-.3-.4-.4.1-.4.3zm1.3-7.9c0 .2.1.4.3.4s.3-.1.4-.3c0-.2-.1-.4-.3-.4s-.4.1-.4.3zm27.1 9.3c.1.1.3.2.5.1.1-.1.2-.3.1-.5-.1-.1-.3-.2-.4-.1-.2.2-.3.4-.2.5zm-4.6-6.5c.1.1.3.2.5.1.1-.1.2-.3.1-.5-.1-.1-.3-.2-.4-.1-.3.2-.3.4-.2.5zm-8.7 3.1c.1.1.2.2.3.1s.2-.2.1-.3-.2-.2-.3-.1c-.1 0-.2.1-.1.3zm-2.6-5.5c.1.1.2.2.3.1s.2-.2.1-.3-.2-.2-.3-.1c-.1 0-.1.2-.1.3zm-10.2 5.3c0 .1.1.2.3.2.1 0 .2-.1.2-.3 0-.1-.1-.2-.3-.2-.1 0-.2.1-.2.3zm-.2-6c0 .1.1.2.3.2.1 0 .2-.1.2-.3 0-.1-.1-.2-.2-.2-.2 0-.3.1-.3.3z" fill="#fff" opacity=".51"/><path d="M123.2 111.3c8 7.5 8.1 25 5.8 35-2.9 12.5-11.3 23.6-23.7 28.3 14.9 4.3 23.8 7.5 32.1 22 6.3 11.1 11.8 23 16.5 35 9 23.2 7.4 52.9 6.5 77.6-.2 6.4-.8 11.4-.6 17.2 2.5-.4 8.7.2 11.5.2 6.5.1 3.8-2 4.1-8.6.2-5.5-.1-8.7-.3-14.5-.4-14.2 0-29-1.4-43.2-2.9-28.1-7.8-57.9-15.4-84.8-3.7-13.2-10.5-27-16.3-39.9-5.6-12.6-10.4-27.4-24.2-37.5 1.5 4.7 2 10 5.4 13.2z" fill="url(#y)"/><path d="M85.4 78.4c-14.7 5-13.2 18-3.3 28.6 9.3 10.1 22.7 8.2 34.8 5.6 11.6-2.5 23.3-4.8 35-7.1 14.3-2.9 25.7-8.5 39.2-15.1 9.3-4.5 19.3-9.3 29.1-11.3-4.3-7.1-7-15.5-9.5-22.9-9.7 4.2-21.9 7.9-32.2 9.6-5.2.8-42.2 6.1-43.4 6.3-5.5.5-10.5 1.1-16.1 1.4-11.1.7-21.6 1.5-32.3 4.5-.3.2-.8.4-1.3.4z" fill="url(#z)"/><circle cx="139.9" cy="160.3" fill="url(#A)" r="9.1"/><circle cx="148.7" cy="173.9" fill="url(#B)" r="5.9"/><path d="M142.3 106.3c-8.4-1.4 1-11.2 4.3-13 4.6-2.5 11.9-3.6 17-3.7 2.8-.1 17.4-.2 16.5 5-.5 3.1-13.6 6.4-16.2 7.3-6.4 2.1-14.7 4.8-21.3 5 .5-.2-.7-.8-.3-.6z" fill="url(#C)"/><path d="M142.1 136.2c-3 .3-5.3 2.9-5.3 5.9 0 3.3 2.7 5.9 5.9 5.9 1.5 0 2.9-.6 4-1.5-1.5-3.5-3.1-6.9-4.6-10.3z" fill="url(#D)"/><path d="M157.1 172.3c-1.8-5.7-4.1-11.5-6.6-17.3-2.7 1.6-4.6 4.6-4.6 8 0 5.2 4.2 9.4 9.4 9.4.6.1 1.2 0 1.8-.1zm2.2 7.6c-4.1 1-7.1 4.7-7.1 9.1 0 5.2 4.2 9.4 9.4 9.4.7 0 1.4-.1 2.1-.2-1.3-6.3-2.8-12.4-4.4-18.3z" fill="#e94a47"/></svg></g><g transform="translate(275.0 522.0) rotate(0.0 167.0 416.0) scale(2.0000119761196173 1.99504595559584)"><svg width="166.999" height="417.033" viewBox="0 0 166.999 417.033"><linearGradient id="F" gradientUnits="userSpaceOnUse" x1="-5.835" x2="103.503" y1="317.858" y2="202.61"><stop offset="0" stop-color="#428dfc"/><stop offset="1" stop-color="#1d72d8"/></linearGradient><linearGradient id="E"><stop offset="0" stop-color="#23286b"/><stop offset="1" stop-color="#151a4f"/></linearGradient><linearGradient xmlns:xlink="http://www.w3.org/1999/xlink" id="G" gradientUnits="userSpaceOnUse" x1="71.288" x2="71.288" xlink:href="#E" y1="196.218" y2="85.404"/><linearGradient xmlns:xlink="http://www.w3.org/1999/xlink" id="H" gradientUnits="userSpaceOnUse" x1="34.042" x2="120.954" xlink:href="#E" y1="108.787" y2="67.504"/><path d="m26.103 399.159 8.913 2.108c13.477 3.187 27.575 6.378 41.02 3.057 1.646-.406 3.462-1.074 4.131-2.632.912-2.125-1.029-4.556-3.252-5.193s-4.585-.095-6.888.114c-7.893.717-15.837-2.693-21.559-8.177s-9.369-12.867-11.382-20.532c-4.471 1.969-6.521 7.056-8.143 11.665l-5.093 14.465c-.478 1.358-.902 3.031.058 4.105.546.613 1.397.832 2.195 1.02z" fill="#151a4f"/><path d="M115.399 184.45c7.493 19.947-18.943 89.374-25.535 109.819-8.572 26.585-25.203 50.288-33.234 77.338-1.884 6.346-1.808 13.562-2.712 19.891-.452 3.164-7.843 2.757-15.157-.139-10.815-4.281-6.255-16.525-5.794-27.557 1.079-25.852 11.622-51.864 5.874-76.861-3.838-16.695-10.078-33.667-11.744-50.583-1.624-16.492-2.901-49.235 8.411-62.357 26.322-30.536 68.461-47.447 79.891 10.449z" fill="#1d72d8"/><path d="M132.846 31.216c2.403-3.712 6.507-12.278 3.65-15.744-3.557-.103-8.606-.348-12.199.201-4.359.384 2.881 11.472-.441 15.581-2.927 3.62-6.219 6.987-7.948 11.43 6.645-3.036 10.554-8.712 16.938-11.468z" fill="#f2a19c"/><path d="M116.193 32.365a2.174 2.174 0 0 1-1.098-4.05L158.348 3.05a2.174 2.174 0 0 1 2.192 3.753l-43.253 25.265a2.168 2.168 0 0 1-1.094.297z" fill="#23286b"/><path d="M120.559 55.638c-.828-4.787-.891-10.099 2.77-13.136 4.242-3.519 7.14-4.436 10.606-8.919 1.427-1.554-.157-11.503-2.036-16.455-.932-1.407-2.286-1.939-4.198-.536-1.229.902-4.945 4.207-5.844 5.475-2.787 3.929.061 5.087.931 8.137 2.439.322 4.085-.59 3.439-4.655-.211-1.331.601-2.67 2.25-2.666.141 1.23.984 3.386-.11 4.732-3.927 4.828-14.233 10.187-17.129 13.673-6.077 7.312.273 13.194.928 21.541 2.585-1.545 5.871-1.993 8.344-3.907-.402-1.206.412-1.769.049-3.284z" fill="#ffbeb6"/><path d="m20.679 410.461 8.913 2.108c13.477 3.187 27.575 6.378 41.02 3.057 1.646-.406 3.462-1.074 4.131-2.632.912-2.125-1.029-4.556-3.252-5.193s-4.585-.095-6.888.114c-7.893.717-15.837-2.693-21.559-8.177s-9.369-12.867-11.382-20.532c-4.471 1.969-6.521 7.056-8.143 11.665l-5.093 14.465c-.478 1.358-.902 3.031.058 4.105.545.612 1.396.831 2.195 1.02z" fill="#23286b"/><path d="M116.882 150.159c-5.205-1.746-7.689-7.525-9.565-12.684-3.498-9.622-7.047-19.546-6.65-29.777.454-11.715 6.034-22.617 7.898-34.192a54.682 54.682 0 0 0-1.247-23.066c4.606.498 9.307.104 13.766-1.152 1.789 13.943 10.954 25.69 16.076 38.78a69.355 69.355 0 0 1 4.74 26.567c-.212 10.677-3.135 21.666-10.207 29.669-3.729 4.219-9.472 7.646-14.811 5.855z" fill="#151a4f"/><path d="M38.526 395.31c-4.674-23.919.692-51.826 17.724-70.199 4.527-4.884 13.231-16.704 17.558-21.766 6.595-7.715 10.542-18.312 13.11-24.412 8.738-20.752 19.439-40.686 30.067-93.31.295-1.462 7.557-29.395 6.068-29.498-13.312-.923-27.22-3.701-29.246-3.82-28.826-1.693-34.032 4.35-62.619 8.419-3.864.55-8.288 1.473-10.128 4.915a312.467 312.467 0 0 0-9.53 54.173c-1.235 14.338-1.453 28.982 2.21 42.899 2.657 10.092 7.297 19.577 9.954 29.669s-1.147 16.343-4.969 31.088c-1.808 6.973-14.199 27.852-2.731 72.087 4.146 3.163 18.683 2.229 22.532-.245z" fill="url(#F)"/><path d="M42.094 64.858C21.272 92.346 7.198 124.907 1.442 158.907c-1.378 8.141-2.276 16.575-.28 24.587 44.57 16.842 95.857 15.052 139.143-4.858 7.933-37.213-5.315-78.207-33.526-103.74C93.755 63.107 76.22 54.262 58.994 57.71c-10.945 2.191-10.16-1.75-16.9 7.148z" fill="url(#G)"/><path d="m162.252 124.15-43.145 16.563L96.98 83.07l43.144-16.562z" fill="#a1c3fc"/><path d="M37.137 12.872c3.006-1.387 3.508-5.945 1.376-8.477-2.132-2.533-5.969-3.097-9.126-2.101s-5.742 3.272-7.997 5.695c-2.133 2.292-4.108 4.854-4.975 7.862-.866 3.008-.43 6.55 1.764 8.783 3.125 3.179 8.683 2.564 12.234-.13s5.58-6.887 7.481-10.918c1.393 3.183-2.148-3.897-.757-.714z" fill="#e94a47"/><path d="M64.579 56.718c-.023.591-.05 1.202-.305 1.735-.614 1.283-2.249 1.645-3.667 1.759-7.323.589-14.827-1.391-20.906-5.516a48.89 48.89 0 0 0-.433-18.615c2.666 1.562 5.988 1.237 9.055.863l17.101-2.086-.845 21.86z" fill="#f2a19c"/><path d="M31.527 27.362c.154-1.43.473-2.835.791-4.238l.999-4.405c.368-1.62.754-3.284 1.695-4.653 1.188-1.727 3.13-2.788 5.107-3.487 6.693-2.368 14.569-1.035 20.11 3.404s8.561 11.834 7.711 18.883c-.185 1.533-.541 3.05-1.126 4.479-.989 2.417-2.625 4.547-4.613 6.24-5.649 4.81-14.28 5.758-20.839 2.289S30.73 34.739 31.527 27.362z" fill="#ffbeb6"/><path d="M46.154 36.139c-4.918 0-8.919-4.001-8.919-8.919s4.001-8.919 8.919-8.919c4.919 0 8.92 4.001 8.92 8.919s-4.001 8.919-8.92 8.919zm0-16.339c-4.091 0-7.419 3.328-7.419 7.419s3.328 7.419 7.419 7.419c4.092 0 7.42-3.328 7.42-7.419s-3.328-7.419-7.42-7.419zm17.02 8.17c-4.918 0-8.919-4.001-8.919-8.919s4.001-8.919 8.919-8.919c4.919 0 8.92 4.001 8.92 8.919s-4.001 8.919-8.92 8.919zm0-16.339c-4.091 0-7.419 3.328-7.419 7.419s3.328 7.419 7.419 7.419c4.092 0 7.42-3.328 7.42-7.419s-3.329-7.419-7.42-7.419z" fill="#23286b"/><path d="M25.827 45.808c-1.678 0-3.323-.271-4.86-.82a.5.5 0 0 1 .336-.942c3.482 1.242 7.581.955 11.244-.787 3.664-1.743 6.473-4.743 7.705-8.229.891-2.521 1.089-5.277 1.28-7.943.105-1.471.214-2.991.438-4.475a28.866 28.866 0 0 1 2.482-8.13c.793-1.668 2.058-3.815 3.571-4.572a.5.5 0 0 1 .447.895c-.982.491-2.089 1.95-3.116 4.107a27.872 27.872 0 0 0-2.396 7.849c-.217 1.445-.324 2.947-.429 4.398-.196 2.732-.398 5.557-1.334 8.205-1.32 3.736-4.316 6.943-8.219 8.799-2.294 1.091-4.753 1.645-7.149 1.645z" fill="#e94a47"/><path d="M28.966 12.983c2.927-2.998 8.792-4.915 12.982-4.894 4.19.022 9.321 1.101 12.111 2.439-7.564 1.034-14.321 4.233-16.898 11.419-1.432 3.994-1.337 10.416-2.898 14.362-1.561 3.945-6.537 7.407-10.752 6.919 2.435-4.645 1.887-10.205 1.655-15.444-.231-5.24.136-11.048 3.8-14.801z" fill="#e94a47"/><path d="M139.549 91.257c6.414-3.836 1.548-13.334 3.034-14.63 3.498-3.051 4.259 2.222 5.093 6.327.211 1.041.729 3.248 1.006 3.406 3.406 1.935 13.889 3.724 12.075 7.353-.451.903-2.072 1.606-2.322 2.554-1.036 3.93.448 8.372-2.399 11.997-4.995-6.2-14.604-.41-21.671-2.77.789-3.165 1.005-8.066 2.088-11.627.166-.545 1.252-2.567 1.084-2.012z" fill="#ffbeb6"/><path d="M70 129.19c-15.308-3.687-31.698-8.021-41.822-20.081-3.975-4.735-6.709-10.395-8.853-16.194-2.895-7.834-4.76-16.613-1.882-24.453 4.766-12.986 21.374-18.418 34.753-14.905S76.148 67.174 85.228 77.61c4.062 4.669 8.201 10.887 5.783 16.584 15.786-8.183 34.45-7.059 48.847-3.034 2.322 5.96 1.545 13.832.405 15.411-.293.406-3.177 2.524-5.035 3.399-11.489 5.418-19.72 16.67-31.728 20.811-10.721 3.695-22.474 1.065-33.5-1.591z" fill="url(#H)"/><path d="M51.247 21.283a.751.751 0 0 1-.65-1.121c.127-.224.245-.467.364-.713.622-1.28 1.567-3.212 4.276-2.511.401.104.643.513.539.914s-.518.639-.914.538c-1.464-.377-1.879.328-2.552 1.714-.135.276-.268.549-.411.8a.747.747 0 0 1-.652.379z" fill="#23286b"/><path d="M156.624 4.081c.485.906 1.066 2.066 1.699 2.9.573.755.702.724.702.724s1.951-1.104 2.268-1.334c2.024-1.468 2.885-2.499 4.559-4.114.785-.758 1.626-2.487-.031-2.257-.881.122-1.842.282-2.664.587-2.072.768-3.944 1.961-5.905 3.003-.339.179-.628.357-.628.491z" fill="#e94a47"/><path d="M18.222 225.035a.246.246 0 1 0-.427-.247.246.246 0 0 0 .09.337c.117.068.268.03.337-.09zm3.021-25.127a.252.252 0 0 0 .18-.309.23.23 0 0 0-.307-.165.244.244 0 0 0-.182.292.257.257 0 0 0 .309.182zm-2.348 12.627a.276.276 0 0 0 .286-.225.257.257 0 1 0-.511-.061.276.276 0 0 0 .225.286zm29.477 14.734a.48.48 0 0 0 .554-.381.459.459 0 0 0-.339-.549l-.025-.005a.48.48 0 0 0-.554.381.47.47 0 0 0 .364.554zm-11.236-2.185a.473.473 0 0 0 .548-.389.473.473 0 0 0-.376-.546.468.468 0 0 0-.553.363.508.508 0 0 0 .381.572zm-11.253-2.2a.465.465 0 0 0 .549-.364l.003-.016a.459.459 0 0 0-.339-.549l-.025-.005a.507.507 0 0 0-.571.381.483.483 0 0 0 .383.553zm8.716 24.628a.467.467 0 0 0-.153-.646.467.467 0 0 0-.646.153.47.47 0 0 0 .143.64.482.482 0 0 0 .656-.147zm-9.553-6.327a.468.468 0 0 0-.153-.646.467.467 0 0 0-.646.153.47.47 0 0 0 .143.64.484.484 0 0 0 .656-.147zm17.999-36.427a.478.478 0 0 0 .364-.566.46.46 0 0 0-.542-.365l-.005.001a.453.453 0 0 0-.387.512l.005.037a.502.502 0 0 0 .565.381zm-11.236 2.275a.503.503 0 0 0 .381-.565.478.478 0 0 0-.565-.364.47.47 0 0 0-.365.563.463.463 0 0 0 .541.368l.008-.002zm-11.217 2.273a.451.451 0 0 0 .368-.524l-.005-.021a.47.47 0 0 0-.541-.386l-.024.004a.475.475 0 0 0 .194.93c.004-.003.006-.003.008-.003zm7.556 47.406a.422.422 0 1 0-.593.06c.18.143.444.117.593-.06zM40.076 215.6a.447.447 0 0 0 .382-.481.408.408 0 0 0-.445-.367l-.018.003a.418.418 0 0 0-.382.455l.001.008c.03.227.231.395.462.382zm-10.153 1.054a.42.42 0 0 0 .367-.462.408.408 0 0 0-.445-.367l-.018.003a.422.422 0 0 0-.385.455l.001.008a.434.434 0 0 0 .48.363zm-10.186 1.072a.422.422 0 0 0 .385-.455l-.001-.008a.398.398 0 0 0-.424-.37c-.013 0-.028.003-.041.005a.422.422 0 0 0-.385.455l.001.008a.433.433 0 0 0 .465.365zm13.036 19.07a.427.427 0 0 0 .52-.297.417.417 0 0 0-.279-.52.443.443 0 0 0-.537.279.44.44 0 0 0 .296.538zm-9.806-2.919a.407.407 0 0 0 .514-.254c.003-.008.004-.016.008-.024a.417.417 0 0 0-.279-.52.443.443 0 0 0-.537.279.425.425 0 0 0 .294.519zm6.363-36.078a.4.4 0 0 0 .174-.538l-.012-.022a.422.422 0 0 0-.566-.185l-.013.007a.435.435 0 0 0-.16.579c.108.202.36.277.562.17.005-.003.009-.008.015-.011zm-8.993 4.884a.433.433 0 0 0 .177-.579.429.429 0 0 0-.755.401.416.416 0 0 0 .578.178zm18.56 55.559a.506.506 0 0 0 .605-.349.488.488 0 0 0-.33-.604.501.501 0 0 0-.605.349.489.489 0 0 0 .33.604zm-11.353-3.25a.486.486 0 1 0 .274-.933.486.486 0 0 0-.274.933zm6.039-46.173a.513.513 0 0 0 .193-.681.493.493 0 0 0-.857.487.5.5 0 0 0 .664.194zm-10.319 5.735a.5.5 0 0 0 .193-.664.489.489 0 1 0-.857.471.5.5 0 0 0 .664.193zm12.474 19.908a.521.521 0 0 0 .433-.549.494.494 0 0 0-.549-.416.478.478 0 0 0-.432.533.492.492 0 0 0 .548.432c-.002 0 0 0 0 0zm-11.74 1.349a.495.495 0 0 0 .433-.548v-.001a.476.476 0 0 0-.531-.415.485.485 0 0 0 .098.964zm14.635 6.216a.484.484 0 1 0-.533-.452.496.496 0 0 0 .533.452zm-11.731.858a.494.494 0 0 0 .449-.532.5.5 0 0 0-.515-.45.52.52 0 0 0-.466.532.505.505 0 0 0 .532.45zm-.292-22.316a.498.498 0 0 0 .21-.664.482.482 0 0 0-.647-.21.474.474 0 0 0-.238.627c.003.007.005.013.011.018a.487.487 0 0 0 .664.229z" fill="#fff"/><path d="M165.821 0c-.88.122-1.842.282-2.664.587-.161.06-.315.137-.474.201l1.602 3.016c.479-.473.971-.972 1.567-1.547.785-.758 1.625-2.487-.031-2.257z" fill="#23286b"/></svg></g></svg>