<svg xmlns="http://www.w3.org/2000/svg" viewBox="0 0 1200 800" width="1200" height="800"><g transform="translate(348.0 190.0) rotate(0.0 236.5 236.5) scale(1.5766666666666667 1.5766666666666667)"><svg width="300" height="300" viewBox="0 0 300 300"><linearGradient id="a" gradientUnits="userSpaceOnUse" x1="29.448" x2="270.578" y1="132.711" y2="132.711"><stop offset="0" stop-color="#428dfc"/><stop offset="1" stop-color="#1d72d8"/></linearGradient><path d="M251.229 106.967a.493.493 0 0 1-.438-.269.505.505 0 0 1 .209-.677c9.198-4.888 12.882-16.443 14.352-25.277 1.517-9.105 1.133-15.994-1.211-21.687-2.47-6-8.645-12.221-16.346-11.699a.5.5 0 0 1-.526-.468.5.5 0 0 1 .461-.534c7.026-.467 14.146 4.59 17.324 12.314 2.417 5.874 2.822 12.941 1.274 22.241-2.163 12.988-7.305 21.977-14.869 25.998a.473.473 0 0 1-.23.058z" fill="#151a4f"/><path d="M267.545 289.599 74.501 8.562l.81-.574 193.044 281.037z" fill="#428dfc"/><ellipse cx="150.013" cy="132.711" fill="url(#a)" rx="120.565" ry="122.428"/><path d="M68.066.463h14.691v14.918H68.066z" fill="#d62929"/><path d="M150.013 265.564c-72.141 0-130.831-59.598-130.831-132.854 0-47.94 25.587-92.337 66.776-115.868a.98.98 0 0 1 1.346.383 1.012 1.012 0 0 1-.377 1.367c-40.568 23.177-65.769 66.903-65.769 114.12 0 72.149 57.804 130.846 128.855 130.846s128.856-58.697 128.856-130.846a.996.996 0 0 1 .988-1.003c.546 0 .988.45.988 1.003.001 73.255-58.691 132.852-130.832 132.852z" fill="#428dfc"/><path d="M228.119 232.869h8.506v8.637h-8.506z" fill="#1d72d8"/><path d="M285.724 300h-144.59l144.59-13.347z" fill="#428dfc"/><path d="m241.65 252.106 29.383 41.613" fill="none" stroke="#428dfc" stroke-miterlimit="10" stroke-width="9"/><g fill="#a1c3fc"><path d="M37.069 167.533c1.388 1.596 3.246 2.68 5.069 3.733l14.62 8.457c-.53-14.845 12.418-28.804 27.042-29.157l-4.922 12.377a119.057 119.057 0 0 1 23.458-.643l34.842-51.379c5.477-8.076 12.434-17.006 22.089-17.187l7.794 15.543 10.905.324c-9.755-11.526-17.38-24.905-22.36-39.237l-93.954-4.229c-4.574-.206-9.512-.28-13.67 1.34C36.247 86.362 29.45 108.728 29.45 132.71c0 3.654.167 7.268.475 10.84a115.931 115.931 0 0 0 3.927 17.308c.738 2.382 1.589 4.804 3.217 6.675zm87.793-121.344c1.982-5.565 6.527-9.714 10.904-13.619l16.572-14.79c.854-.762 1.752-1.549 2.855-1.828.943-.239 1.933-.079 2.89.087a218.7 218.7 0 0 1 35.566 9.334c-11.147 9.989-24.107 17.623-36.972 25.189-1.362.801-2.752 1.613-4.291 1.943-1.605.344-3.268.142-4.896-.06l-20.451-2.546c-.761-.094-1.597-.228-2.094-.822-.646-.771-.422-1.937-.083-2.888zm125.187 110.005c-.079-3.57.894-7.09.946-10.66.051-3.57-1.125-7.538-4.215-9.242-3.711.795-6.441 3.874-9.451 6.217-3.01 2.344-7.372 4.002-10.46 1.766-1.673-1.211-2.508-3.267-3.812-4.88-3.376-4.182-9.567-4.897-14.707-3.485s-9.635 4.521-14.395 6.947c-4.761 2.427-10.088 4.217-15.361 3.448s-10.373-4.684-11.168-10.033l9.17-15.713a202.944 202.944 0 0 0 33.431 8.285c7.53 1.198 15.49 1.924 22.558-.969 6.604-2.702 12.792-8.541 19.748-6.995-2.226 9.812 4.812 20.772 14.552 22.664a102.416 102.416 0 0 0-7.164 28.204c-5.663-2.897-9.528-9.114-9.672-15.554zm-66.98 58.532c-4.002-.13-7.876 1.446-11.874 1.692-7.752.477-15.521-4.663-18.222-12.057-.886-2.427-1.828-5.559-4.362-5.836-1-.11-1.975.309-2.898.72l-29.053 12.924c-4.59 2.042-9.237 4.118-13.162 7.281-3.137 2.526-5.722 5.676-8.552 8.553a66.403 66.403 0 0 1-9.598 8.051c18.687 12.082 40.87 19.085 64.665 19.085 18.832 0 36.653-4.388 52.532-12.205-.502-5.846-1.404-11.708-4.008-16.914-3.019-6.036-8.807-11.076-15.468-11.294z"/></g><path d="m56.281 264.108-9.931-13.447 13.241-10.084 9.931 13.446z" fill="#23286b"/><path d="m53.139 238.668.687-9.822 9.673.698-.687 9.822z" fill="#e94a47"/><path d="M47.23 168.829h14.838v15.067H47.23z" fill="#fff"/><path d="M133.206 1.243h14.838V16.31h-14.838zM13.448 242.146l-4.154 9.438L0 247.367l4.153-9.438zM266.902 19.343l-4.153 9.438-9.295-4.218 4.154-9.438z" fill="#1d72d8"/><path d="m234.138 10.676-4.154 9.438-9.294-4.218 4.153-9.438z" fill="#a1c3fc"/><path d="m168.625 131.49-7.528-7.644 7.528-7.644 7.528 7.644z" fill="#d6d7d8"/><path d="m167.801 124.299-7.528-7.644 7.528-7.644 7.528 7.644z" fill="#d62929"/><path d="M41.307 100.183a.496.496 0 0 1-.475-.366.502.502 0 0 1 .341-.619l4.753-1.37a.494.494 0 0 1 .611.345.503.503 0 0 1-.341.62l-4.753 1.37a.431.431 0 0 1-.136.02zm6.655-1.917a.494.494 0 0 1-.474-.366.502.502 0 0 1 .341-.619l1.901-.547c.265-.075.536.079.61.346s-.078.544-.341.619l-1.901.547a.423.423 0 0 1-.136.02zm3.803-1.096a.503.503 0 0 1-.134-.985l.475-.137a.493.493 0 0 1 .611.345.503.503 0 0 1-.34.62l-.475.137a.437.437 0 0 1-.137.02zm2.378-.684a.496.496 0 0 1-.475-.366.502.502 0 0 1 .341-.619l4.754-1.369c.262-.077.536.079.61.346s-.078.544-.341.619l-4.754 1.369a.465.465 0 0 1-.135.02zm6.654-1.916a.494.494 0 0 1-.474-.366.502.502 0 0 1 .341-.619l1.901-.548c.265-.075.536.079.61.346s-.078.544-.341.619l-1.901.548a.498.498 0 0 1-.136.02zm3.803-1.096a.494.494 0 0 1-.474-.366.502.502 0 0 1 .341-.619l.475-.136a.502.502 0 0 1 .269.965l-.475.136a.467.467 0 0 1-.136.02zm2.377-.685a.496.496 0 0 1-.475-.366.502.502 0 0 1 .341-.619l4.753-1.37a.493.493 0 0 1 .611.345.503.503 0 0 1-.341.62l-4.753 1.37a.467.467 0 0 1-.136.02zm6.655-1.918a.504.504 0 0 1-.134-.985l1.901-.548a.493.493 0 0 1 .611.345.503.503 0 0 1-.34.62l-1.901.548a.473.473 0 0 1-.137.02zm3.802-1.095a.494.494 0 0 1-.474-.366.502.502 0 0 1 .341-.619l.475-.136c.262-.077.536.079.61.346s-.078.544-.341.619l-.475.136a.487.487 0 0 1-.136.02zm2.377-.685a.494.494 0 0 1-.474-.366.501.501 0 0 1 .341-.619l4.753-1.37a.493.493 0 0 1 .611.345.503.503 0 0 1-.341.62l-4.753 1.37a.469.469 0 0 1-.137.02zm6.656-1.917a.503.503 0 0 1-.135-.985l1.901-.548a.494.494 0 0 1 .611.345.503.503 0 0 1-.34.62l-1.901.548a.435.435 0 0 1-.136.02zm3.802-1.096a.503.503 0 0 1-.135-.985l.475-.137c.264-.077.536.079.611.345s-.078.544-.34.62l-.475.137a.462.462 0 0 1-.136.02zm2.377-.684a.494.494 0 0 1-.474-.366.502.502 0 0 1 .341-.619l4.753-1.369a.502.502 0 0 1 .269.965l-4.753 1.369a.462.462 0 0 1-.136.02zm6.655-1.917a.494.494 0 0 1-.474-.366.502.502 0 0 1 .341-.619l1.901-.548a.492.492 0 0 1 .61.346.502.502 0 0 1-.341.619l-1.901.548a.435.435 0 0 1-.136.02zm3.803-1.095a.503.503 0 0 1-.134-.985l.475-.137c.264-.077.536.079.611.345s-.078.544-.34.62l-.475.137a.478.478 0 0 1-.137.02zm2.377-.684a.496.496 0 0 1-.475-.366.502.502 0 0 1 .341-.619l4.753-1.37a.493.493 0 0 1 .611.345.503.503 0 0 1-.341.62l-4.753 1.37a.462.462 0 0 1-.136.02zm6.655-1.919a.504.504 0 0 1-.134-.985l1.901-.548a.493.493 0 0 1 .611.345.503.503 0 0 1-.34.62l-1.901.548a.473.473 0 0 1-.137.02zm3.803-1.095a.494.494 0 0 1-.474-.366.502.502 0 0 1 .341-.619l.475-.136a.502.502 0 0 1 .269.965l-.475.136a.467.467 0 0 1-.136.02zm2.377-.685a.494.494 0 0 1-.474-.366.502.502 0 0 1 .34-.619l4.754-1.37a.502.502 0 0 1 .269.965l-4.754 1.37a.46.46 0 0 1-.135.02zm6.654-1.917a.494.494 0 0 1-.474-.366.502.502 0 0 1 .341-.619l1.901-.548c.26-.078.536.079.61.346s-.078.544-.341.619l-1.901.548a.462.462 0 0 1-.136.02zm3.803-1.096a.503.503 0 0 1-.134-.985l.475-.137c.264-.077.536.079.611.345s-.078.544-.34.62l-.475.137a.469.469 0 0 1-.137.02zm2.377-.685a.494.494 0 0 1-.474-.366.502.502 0 0 1 .341-.619l4.753-1.369c.259-.078.536.079.61.346s-.078.544-.341.619l-4.753 1.369a.427.427 0 0 1-.136.02zm6.655-1.916a.494.494 0 0 1-.474-.366.502.502 0 0 1 .341-.619l1.901-.548a.502.502 0 0 1 .269.965l-1.901.548a.462.462 0 0 1-.136.02zm3.803-1.096a.503.503 0 0 1-.135-.985l.475-.137a.492.492 0 0 1 .611.345.503.503 0 0 1-.34.62l-.475.137a.431.431 0 0 1-.136.02zm2.377-.684a.494.494 0 0 1-.474-.366.501.501 0 0 1 .341-.619l4.753-1.37a.492.492 0 0 1 .611.345.503.503 0 0 1-.341.62l-4.753 1.37a.478.478 0 0 1-.137.02zm6.656-1.917a.503.503 0 0 1-.135-.985l1.901-.548a.493.493 0 0 1 .611.345.503.503 0 0 1-.34.62l-1.901.548a.472.472 0 0 1-.136.02zm3.801-1.096a.494.494 0 0 1-.474-.366.502.502 0 0 1 .341-.619l.475-.136a.502.502 0 0 1 .269.965l-.475.136a.453.453 0 0 1-.136.02zm2.378-.684a.494.494 0 0 1-.474-.366.502.502 0 0 1 .341-.619l4.753-1.37a.492.492 0 0 1 .611.345.503.503 0 0 1-.34.62l-4.753 1.37a.523.523 0 0 1-.138.02zm6.654-1.918a.494.494 0 0 1-.474-.366.502.502 0 0 1 .341-.619l1.901-.548a.502.502 0 0 1 .269.965l-1.901.548a.457.457 0 0 1-.136.02zm3.804-1.096a.494.494 0 0 1-.474-.366.502.502 0 0 1 .341-.619l.475-.136a.502.502 0 0 1 .269.965l-.475.136a.467.467 0 0 1-.136.02zm2.376-.685a.503.503 0 0 1-.133-.985l4.753-1.37a.492.492 0 0 1 .611.346.502.502 0 0 1-.341.619l-4.753 1.37a.442.442 0 0 1-.137.02zm6.655-1.916a.504.504 0 0 1-.134-.985l1.901-.548a.492.492 0 0 1 .611.345.503.503 0 0 1-.34.62l-1.901.548a.464.464 0 0 1-.137.02zm3.803-1.096a.503.503 0 0 1-.134-.985l.475-.137a.494.494 0 0 1 .611.345.503.503 0 0 1-.34.62l-.475.137a.469.469 0 0 1-.137.02zm2.377-.684a.494.494 0 0 1-.474-.366.502.502 0 0 1 .341-.619l4.754-1.369a.492.492 0 0 1 .61.346.502.502 0 0 1-.341.619l-4.754 1.369a.462.462 0 0 1-.136.02zm6.655-1.918a.494.494 0 0 1-.474-.366.502.502 0 0 1 .341-.619l1.901-.548a.492.492 0 0 1 .61.346.502.502 0 0 1-.341.619l-1.901.548a.431.431 0 0 1-.136.02zm3.803-1.095a.494.494 0 0 1-.474-.366.502.502 0 0 1 .341-.619l.475-.136a.502.502 0 0 1 .269.965l-.475.136a.462.462 0 0 1-.136.02zm2.377-.684a.503.503 0 0 1-.133-.985l4.753-1.37c.263-.075.536.079.611.346s-.078.544-.341.619l-4.753 1.37a.478.478 0 0 1-.137.02zm6.655-1.917a.504.504 0 0 1-.134-.985l1.901-.548a.492.492 0 0 1 .611.345.503.503 0 0 1-.34.62l-1.901.548a.51.51 0 0 1-.137.02zm3.802-1.097a.494.494 0 0 1-.474-.366.502.502 0 0 1 .341-.619l.475-.136a.492.492 0 0 1 .61.346.502.502 0 0 1-.341.619l-.475.136a.423.423 0 0 1-.136.02zm2.377-.685a.494.494 0 0 1-.474-.366.502.502 0 0 1 .341-.619l4.754-1.37a.502.502 0 0 1 .269.965l-4.754 1.37a.427.427 0 0 1-.136.02zm6.656-1.917a.494.494 0 0 1-.474-.366.502.502 0 0 1 .341-.619l1.901-.547a.502.502 0 0 1 .269.965l-1.901.547a.467.467 0 0 1-.136.02zm3.803-1.094a.503.503 0 0 1-.134-.985l.475-.137a.494.494 0 0 1 .611.345.503.503 0 0 1-.34.62l-.475.137a.483.483 0 0 1-.137.02zm2.376-.686a.494.494 0 0 1-.474-.366.502.502 0 0 1 .341-.619l4.753-1.369a.502.502 0 0 1 .269.965l-4.753 1.369a.431.431 0 0 1-.136.02zm6.655-1.917a.504.504 0 0 1-.134-.985l1.901-.548a.492.492 0 0 1 .611.345.504.504 0 0 1-.34.62l-1.901.548a.469.469 0 0 1-.137.02zm3.804-1.096a.494.494 0 0 1-.474-.366.502.502 0 0 1 .341-.619l.475-.136a.502.502 0 0 1 .269.965l-.475.136a.435.435 0 0 1-.136.02zm2.375-.684a.493.493 0 0 1-.474-.365.503.503 0 0 1 .34-.62l.175-.05a.493.493 0 0 1 .611.345.503.503 0 0 1-.34.62l-.175.05a.464.464 0 0 1-.137.02z" fill="#fff"/><path d="M97.771 238.224a.505.505 0 0 1-.463-.681l.176-.469a.492.492 0 0 1 .637-.291.505.505 0 0 1 .287.647l-.176.469a.491.491 0 0 1-.461.325zm.879-2.346a.505.505 0 0 1-.463-.681l.703-1.877a.493.493 0 0 1 .637-.291.505.505 0 0 1 .287.647l-.703 1.877a.493.493 0 0 1-.461.325zm1.404-3.752a.505.505 0 0 1-.463-.681l1.756-4.689a.493.493 0 0 1 .637-.291.505.505 0 0 1 .287.647l-1.756 4.689a.49.49 0 0 1-.461.325zm2.459-6.566a.505.505 0 0 1-.463-.681l.176-.468a.492.492 0 0 1 .637-.291.505.505 0 0 1 .287.647l-.176.469a.492.492 0 0 1-.461.324zm.878-2.345a.505.505 0 0 1-.463-.681l.703-1.876c.097-.259.382-.389.637-.291s.383.388.287.647l-.703 1.876a.49.49 0 0 1-.461.325zm1.406-3.752a.505.505 0 0 1-.463-.681l1.756-4.689a.492.492 0 0 1 .637-.291.505.505 0 0 1 .287.647l-1.756 4.689a.492.492 0 0 1-.461.325zm2.458-6.565a.505.505 0 0 1-.463-.681l.176-.469a.491.491 0 0 1 .637-.291.505.505 0 0 1 .287.647l-.176.469a.491.491 0 0 1-.461.325zm.878-2.345a.505.505 0 0 1-.463-.681l.703-1.877a.492.492 0 0 1 .637-.291.505.505 0 0 1 .287.647l-.703 1.877a.492.492 0 0 1-.461.325zm1.405-3.752a.505.505 0 0 1-.463-.681l1.756-4.689a.49.49 0 0 1 .637-.291.505.505 0 0 1 .287.647l-1.756 4.689a.492.492 0 0 1-.461.325zm2.46-6.566a.505.505 0 0 1-.463-.681l.176-.468a.492.492 0 0 1 .637-.291.505.505 0 0 1 .287.647l-.176.469a.494.494 0 0 1-.461.324zm.877-2.345a.505.505 0 0 1-.463-.681l.703-1.876a.492.492 0 0 1 .637-.291.505.505 0 0 1 .287.647l-.703 1.876a.49.49 0 0 1-.461.325zm1.406-3.753a.505.505 0 0 1-.463-.681l1.756-4.689a.49.49 0 0 1 .637-.291.505.505 0 0 1 .287.647l-1.756 4.689a.49.49 0 0 1-.461.325zm2.458-6.565a.505.505 0 0 1-.463-.681l.176-.469a.492.492 0 0 1 .637-.291.505.505 0 0 1 .287.647l-.176.469a.49.49 0 0 1-.461.325zm.879-2.345a.505.505 0 0 1-.463-.681l.703-1.876a.492.492 0 0 1 .637-.291.505.505 0 0 1 .287.647l-.703 1.876a.494.494 0 0 1-.461.325zm1.404-3.752a.505.505 0 0 1-.463-.681l1.756-4.689c.097-.259.382-.389.637-.291s.383.388.287.647l-1.756 4.689a.49.49 0 0 1-.461.325zm2.46-6.566a.505.505 0 0 1-.463-.681l.176-.469a.49.49 0 0 1 .637-.291.505.505 0 0 1 .287.647l-.176.469a.493.493 0 0 1-.461.325zm.877-2.344a.505.505 0 0 1-.463-.681l.703-1.877c.097-.259.382-.39.637-.291s.383.388.287.647l-.703 1.877a.49.49 0 0 1-.461.325zm1.406-3.753a.505.505 0 0 1-.463-.681l1.756-4.69a.492.492 0 0 1 .637-.291.505.505 0 0 1 .287.647l-1.756 4.69a.489.489 0 0 1-.461.325zm2.458-6.565a.505.505 0 0 1-.463-.681l.176-.469a.492.492 0 0 1 .637-.291.505.505 0 0 1 .287.647l-.176.469a.488.488 0 0 1-.461.325zm.879-2.345a.505.505 0 0 1-.463-.681l.703-1.876c.097-.259.382-.389.637-.291s.383.388.287.647l-.703 1.876a.493.493 0 0 1-.461.325zm1.405-3.752a.505.505 0 0 1-.463-.681l1.756-4.689a.492.492 0 0 1 .637-.291.505.505 0 0 1 .287.647l-1.756 4.689a.492.492 0 0 1-.461.325zm2.459-6.566a.505.505 0 0 1-.463-.681l.176-.469c.097-.259.382-.389.637-.291s.383.388.287.647l-.176.469a.49.49 0 0 1-.461.325zm.878-2.345a.505.505 0 0 1-.463-.681l.703-1.877a.492.492 0 0 1 .637-.291.505.505 0 0 1 .287.647l-.703 1.877a.492.492 0 0 1-.461.325zm1.405-3.752a.505.505 0 0 1-.463-.681l1.756-4.69a.492.492 0 0 1 .637-.291.505.505 0 0 1 .287.647l-1.756 4.69a.49.49 0 0 1-.461.325zm2.459-6.566a.505.505 0 0 1-.463-.681l.176-.469a.492.492 0 0 1 .637-.291.505.505 0 0 1 .287.647l-.176.469a.49.49 0 0 1-.461.325zm.878-2.345a.505.505 0 0 1-.463-.681l.703-1.876a.492.492 0 0 1 .637-.291.505.505 0 0 1 .287.647l-.703 1.876a.49.49 0 0 1-.461.325zm1.405-3.751a.505.505 0 0 1-.463-.681l1.756-4.689a.492.492 0 0 1 .637-.291.505.505 0 0 1 .287.647l-1.756 4.689a.493.493 0 0 1-.461.325zm2.459-6.566a.505.505 0 0 1-.463-.681l.176-.469a.493.493 0 0 1 .637-.291.505.505 0 0 1 .287.647l-.176.469a.492.492 0 0 1-.461.325zm.878-2.345a.505.505 0 0 1-.463-.681l.703-1.877a.492.492 0 0 1 .637-.291.505.505 0 0 1 .287.647l-.703 1.877a.49.49 0 0 1-.461.325zm1.405-3.752a.505.505 0 0 1-.463-.681l1.756-4.69a.491.491 0 0 1 .637-.291.505.505 0 0 1 .287.647l-1.756 4.69a.49.49 0 0 1-.461.325zm2.459-6.566a.505.505 0 0 1-.463-.681l.176-.469a.492.492 0 0 1 .637-.291.505.505 0 0 1 .287.647l-.176.469a.49.49 0 0 1-.461.325zm.878-2.344a.505.505 0 0 1-.463-.681l.703-1.876a.492.492 0 0 1 .637-.291.505.505 0 0 1 .287.647l-.703 1.876a.491.491 0 0 1-.461.325zm1.405-3.752a.505.505 0 0 1-.463-.681l1.756-4.689a.493.493 0 0 1 .637-.291.505.505 0 0 1 .287.647l-1.756 4.689a.491.491 0 0 1-.461.325zm2.459-6.566a.505.505 0 0 1-.463-.681l.176-.469c.097-.259.382-.389.637-.291s.383.388.287.647l-.176.469a.493.493 0 0 1-.461.325zm.878-2.346a.505.505 0 0 1-.463-.681l.703-1.877a.492.492 0 0 1 .637-.291.505.505 0 0 1 .287.647l-.703 1.877a.49.49 0 0 1-.461.325zm1.405-3.751a.505.505 0 0 1-.463-.681l1.756-4.69a.492.492 0 0 1 .637-.291.505.505 0 0 1 .287.647l-1.756 4.69a.49.49 0 0 1-.461.325zm2.46-6.566a.505.505 0 0 1-.463-.681l.176-.469a.493.493 0 0 1 .637-.291.505.505 0 0 1 .287.647l-.176.469a.493.493 0 0 1-.461.325zm.877-2.344a.505.505 0 0 1-.463-.681l.703-1.876a.493.493 0 0 1 .637-.291.505.505 0 0 1 .287.647l-.703 1.876a.491.491 0 0 1-.461.325zm1.406-3.753a.505.505 0 0 1-.463-.681l1.756-4.689a.49.49 0 0 1 .637-.291.505.505 0 0 1 .287.647l-1.756 4.689a.492.492 0 0 1-.461.325zm2.458-6.565a.505.505 0 0 1-.463-.681l.176-.469a.492.492 0 0 1 .637-.291.505.505 0 0 1 .287.647l-.176.469a.491.491 0 0 1-.461.325zm.879-2.345a.505.505 0 0 1-.463-.681l.703-1.877a.492.492 0 0 1 .637-.291.505.505 0 0 1 .287.647l-.703 1.877a.495.495 0 0 1-.461.325zm1.404-3.752a.505.505 0 0 1-.463-.681l1.756-4.69a.49.49 0 0 1 .637-.291.505.505 0 0 1 .287.647l-1.756 4.69a.492.492 0 0 1-.461.325zm2.46-6.566a.505.505 0 0 1-.463-.681l.176-.469a.492.492 0 0 1 .637-.291.505.505 0 0 1 .287.647l-.176.469a.495.495 0 0 1-.461.325zm.877-2.346a.505.505 0 0 1-.463-.681l.702-1.876a.49.49 0 0 1 .637-.291.505.505 0 0 1 .287.647l-.702 1.876a.49.49 0 0 1-.461.325zm1.406-3.752a.505.505 0 0 1-.463-.681l1.756-4.689c.097-.259.382-.389.637-.291s.383.388.287.647l-1.756 4.689a.492.492 0 0 1-.461.325zm2.458-6.566a.505.505 0 0 1-.463-.681l.176-.469a.49.49 0 0 1 .637-.291.505.505 0 0 1 .287.647l-.176.469a.488.488 0 0 1-.461.325zm.879-2.344a.505.505 0 0 1-.463-.681l.703-1.877a.49.49 0 0 1 .637-.291.505.505 0 0 1 .287.647l-.703 1.877a.493.493 0 0 1-.461.325zm1.405-3.752a.505.505 0 0 1-.463-.681l1.756-4.69c.097-.259.382-.389.637-.291s.383.388.287.647l-1.756 4.69a.493.493 0 0 1-.461.325zm2.458-6.566a.505.505 0 0 1-.463-.681l.176-.469c.097-.259.382-.389.637-.291s.383.388.287.647l-.176.469a.492.492 0 0 1-.461.325zm.878-2.345a.505.505 0 0 1-.463-.681l.703-1.876c.097-.259.382-.389.637-.291s.383.388.287.647l-.703 1.876a.488.488 0 0 1-.461.325zm1.406-3.752a.505.505 0 0 1-.463-.681l1.756-4.689a.492.492 0 0 1 .637-.291.505.505 0 0 1 .287.647l-1.756 4.689a.49.49 0 0 1-.461.325z" fill="#fff"/><path d="M67.496 222.023a.503.503 0 0 1-.191-.964l.806-.343a.489.489 0 0 1 .646.269.503.503 0 0 1-.265.656l-.806.343a.472.472 0 0 1-.19.039zm2.629-1.119a.503.503 0 0 1-.191-.964l4.558-1.939a.49.49 0 0 1 .646.269.503.503 0 0 1-.265.656l-4.558 1.938a.457.457 0 0 1-.19.04zm6.381-2.713a.503.503 0 0 1-.191-.964l.456-.194a.488.488 0 0 1 .646.269.503.503 0 0 1-.265.656l-.456.194a.472.472 0 0 1-.19.039zm2.279-.97a.494.494 0 0 1-.456-.308.506.506 0 0 1 .265-.657l1.822-.775c.253-.109.542.013.647.269s-.014.55-.265.656l-1.822.776a.48.48 0 0 1-.191.039zm3.646-1.551a.503.503 0 0 1-.191-.964l4.558-1.939a.491.491 0 0 1 .646.269.503.503 0 0 1-.265.656l-4.558 1.938a.477.477 0 0 1-.19.04zm6.38-2.714a.494.494 0 0 1-.456-.308.504.504 0 0 1 .266-.656l.456-.194a.491.491 0 0 1 .646.27.504.504 0 0 1-.266.656l-.456.194a.488.488 0 0 1-.19.038zm2.279-.97a.494.494 0 0 1-.456-.308.506.506 0 0 1 .265-.657l1.823-.775a.491.491 0 0 1 .647.27.505.505 0 0 1-.265.656l-1.823.775a.48.48 0 0 1-.191.039zm3.646-1.55a.503.503 0 0 1-.191-.964l4.557-1.939a.49.49 0 0 1 .646.269.504.504 0 0 1-.265.657l-4.557 1.937a.454.454 0 0 1-.19.04zm6.38-2.714a.494.494 0 0 1-.456-.308.504.504 0 0 1 .266-.656l.456-.194a.49.49 0 0 1 .646.27.504.504 0 0 1-.266.656l-.456.194a.503.503 0 0 1-.19.038zm2.279-.969a.494.494 0 0 1-.456-.308.505.505 0 0 1 .265-.656l1.823-.775a.492.492 0 0 1 .647.27.505.505 0 0 1-.266.656l-1.822.775a.497.497 0 0 1-.191.038zm3.646-1.551a.494.494 0 0 1-.456-.308.506.506 0 0 1 .265-.657l4.558-1.938a.488.488 0 0 1 .646.269.504.504 0 0 1-.265.657l-4.558 1.937a.457.457 0 0 1-.19.04zm6.381-2.714a.494.494 0 0 1-.456-.308.505.505 0 0 1 .266-.656l.456-.194a.491.491 0 0 1 .646.27.505.505 0 0 1-.266.656l-.456.194a.492.492 0 0 1-.19.038zm2.279-.97a.494.494 0 0 1-.456-.308.505.505 0 0 1 .266-.657l1.822-.775a.492.492 0 0 1 .647.269.505.505 0 0 1-.266.657l-1.822.775a.484.484 0 0 1-.191.039zm3.645-1.55a.504.504 0 0 1-.191-.965l4.558-1.937a.49.49 0 0 1 .646.269.503.503 0 0 1-.265.656l-4.558 1.938a.482.482 0 0 1-.19.039zm6.381-2.715a.494.494 0 0 1-.456-.308.505.505 0 0 1 .266-.656l.456-.194a.49.49 0 0 1 .646.27.505.505 0 0 1-.266.656l-.456.194a.485.485 0 0 1-.19.038zm2.278-.968a.494.494 0 0 1-.456-.308.505.505 0 0 1 .266-.657l1.822-.775a.491.491 0 0 1 .647.269.506.506 0 0 1-.265.657l-1.823.775a.513.513 0 0 1-.191.039zm3.647-1.551a.503.503 0 0 1-.191-.964l4.558-1.938a.488.488 0 0 1 .646.269.503.503 0 0 1-.265.656l-4.558 1.938a.475.475 0 0 1-.19.039zm6.38-2.714a.494.494 0 0 1-.456-.308.505.505 0 0 1 .266-.656l.456-.194a.49.49 0 0 1 .646.27.505.505 0 0 1-.266.656l-.456.194a.527.527 0 0 1-.19.038zm2.279-.969a.503.503 0 0 1-.191-.964l1.823-.776a.49.49 0 0 1 .646.269.503.503 0 0 1-.265.656l-1.823.776a.475.475 0 0 1-.19.039zm3.645-1.552a.503.503 0 0 1-.191-.964l4.558-1.938a.491.491 0 0 1 .646.269.503.503 0 0 1-.265.656l-4.558 1.938a.465.465 0 0 1-.19.039zm6.381-2.713a.503.503 0 0 1-.191-.964l.456-.194a.49.49 0 0 1 .646.269.503.503 0 0 1-.265.656l-.456.194a.469.469 0 0 1-.19.039zm2.279-.97a.503.503 0 0 1-.191-.964l1.823-.776a.488.488 0 0 1 .646.269.503.503 0 0 1-.265.656l-1.823.776a.472.472 0 0 1-.19.039zm3.646-1.55a.503.503 0 0 1-.191-.964l4.558-1.938a.492.492 0 0 1 .647.269.504.504 0 0 1-.265.656l-4.558 1.938a.517.517 0 0 1-.191.039zm6.381-2.715a.503.503 0 0 1-.191-.964l.456-.194a.488.488 0 0 1 .646.269.503.503 0 0 1-.265.656l-.456.194a.475.475 0 0 1-.19.039zm2.278-.969a.503.503 0 0 1-.191-.964l1.823-.776a.488.488 0 0 1 .646.269.503.503 0 0 1-.265.656l-1.823.776a.472.472 0 0 1-.19.039zm3.646-1.55a.503.503 0 0 1-.191-.964l4.558-1.938a.49.49 0 0 1 .646.269.503.503 0 0 1-.265.656l-4.558 1.938a.486.486 0 0 1-.19.039zm6.38-2.715a.503.503 0 0 1-.191-.964l.456-.194a.488.488 0 0 1 .646.269.503.503 0 0 1-.265.656l-.456.194a.465.465 0 0 1-.19.039zm2.279-.969a.503.503 0 0 1-.191-.964l1.823-.776a.489.489 0 0 1 .646.269.503.503 0 0 1-.265.656l-1.823.776a.469.469 0 0 1-.19.039zm3.646-1.551a.503.503 0 0 1-.191-.964l4.558-1.938a.488.488 0 0 1 .646.269.503.503 0 0 1-.265.656l-4.558 1.939a.488.488 0 0 1-.19.038zm6.381-2.714a.503.503 0 0 1-.191-.964l.456-.194a.488.488 0 0 1 .646.269.503.503 0 0 1-.265.656l-.456.194a.475.475 0 0 1-.19.039zm2.279-.97a.503.503 0 0 1-.191-.964l1.823-.776a.488.488 0 0 1 .646.269.503.503 0 0 1-.265.656l-1.823.776a.472.472 0 0 1-.19.039zm3.646-1.55a.503.503 0 0 1-.191-.964l4.557-1.938a.489.489 0 0 1 .646.269.503.503 0 0 1-.265.656l-4.557 1.939a.507.507 0 0 1-.19.038zm6.38-2.715a.503.503 0 0 1-.191-.964l.456-.194a.489.489 0 0 1 .646.269.503.503 0 0 1-.265.656l-.456.194a.472.472 0 0 1-.19.039zm2.279-.967a.503.503 0 0 1-.191-.964l1.823-.776a.49.49 0 0 1 .646.269.503.503 0 0 1-.265.656l-1.823.776a.508.508 0 0 1-.19.039zm3.646-1.552a.503.503 0 0 1-.191-.964l4.558-1.938a.488.488 0 0 1 .646.269.503.503 0 0 1-.265.656l-4.558 1.939a.488.488 0 0 1-.19.038zm6.38-2.713a.503.503 0 0 1-.191-.964l.456-.194a.49.49 0 0 1 .646.269.503.503 0 0 1-.265.656l-.456.194a.508.508 0 0 1-.19.039zm2.279-.97a.503.503 0 0 1-.191-.964l1.823-.776a.488.488 0 0 1 .646.269.503.503 0 0 1-.265.656l-1.823.776a.472.472 0 0 1-.19.039zm3.646-1.552a.503.503 0 0 1-.191-.964l4.558-1.938a.488.488 0 0 1 .646.269.503.503 0 0 1-.265.656l-4.558 1.939a.485.485 0 0 1-.19.038zm6.38-2.713a.503.503 0 0 1-.191-.964l.456-.194a.488.488 0 0 1 .646.269.503.503 0 0 1-.265.656l-.456.194a.462.462 0 0 1-.19.039zm2.279-.97a.503.503 0 0 1-.191-.964l1.823-.776a.488.488 0 0 1 .646.269.503.503 0 0 1-.265.656l-1.823.776a.465.465 0 0 1-.19.039zm3.647-1.551a.503.503 0 0 1-.191-.964l4.558-1.938c.252-.108.542.013.647.269s-.014.55-.265.656l-4.558 1.939a.504.504 0 0 1-.191.038zm6.38-2.714a.503.503 0 0 1-.191-.964l.456-.194a.49.49 0 0 1 .646.269.503.503 0 0 1-.265.656l-.456.194a.472.472 0 0 1-.19.039zm2.279-.968a.494.494 0 0 1-.456-.308.506.506 0 0 1 .265-.657l1.823-.775a.491.491 0 0 1 .646.269.506.506 0 0 1-.265.657l-1.823.775a.512.512 0 0 1-.19.039zm3.645-1.552a.503.503 0 0 1-.191-.964l4.558-1.938a.492.492 0 0 1 .647.269.504.504 0 0 1-.265.656l-4.558 1.939a.49.49 0 0 1-.191.038zm6.381-2.713a.503.503 0 0 1-.191-.964l.456-.194a.489.489 0 0 1 .646.269.503.503 0 0 1-.265.656l-.456.194a.469.469 0 0 1-.19.039zm2.278-.97a.494.494 0 0 1-.456-.308.506.506 0 0 1 .265-.657l1.823-.775a.493.493 0 0 1 .646.269.506.506 0 0 1-.265.657l-1.823.775a.465.465 0 0 1-.19.039zm3.647-1.552a.503.503 0 0 1-.191-.964l4.558-1.939a.49.49 0 0 1 .647.269.504.504 0 0 1-.265.656l-4.558 1.939a.484.484 0 0 1-.191.039zm6.38-2.713a.503.503 0 0 1-.191-.964l.456-.194a.488.488 0 0 1 .646.269.503.503 0 0 1-.265.656l-.456.194a.469.469 0 0 1-.19.039zm2.279-.97a.494.494 0 0 1-.456-.308.506.506 0 0 1 .265-.657l1.823-.775a.491.491 0 0 1 .646.269.506.506 0 0 1-.265.657l-1.823.775a.472.472 0 0 1-.19.039zm3.646-1.549a.494.494 0 0 1-.456-.308.506.506 0 0 1 .265-.657l4.558-1.939a.492.492 0 0 1 .647.269.506.506 0 0 1-.265.657l-4.558 1.938a.5.5 0 0 1-.191.04z" fill="#fff"/><path d="M148.086 34.884a.502.502 0 0 1-.474-.642c3.891-13.588 14.312-25.375 27.197-30.761 12.884-5.387 28.457-4.469 40.641 2.399.238.134.325.44.192.682a.49.49 0 0 1-.672.195C203.043.036 187.797-.865 175.185 4.41c-12.614 5.273-22.815 16.813-26.624 30.113a.497.497 0 0 1-.475.361zm-46.324 246.485a.495.495 0 0 1-.476-.37.501.501 0 0 1 .347-.616c18.924-5.24 33.474-23.476 34.594-43.363a.498.498 0 0 1 .522-.471c.272.016.48.253.464.53-1.144 20.304-15.999 38.923-35.321 44.273a.527.527 0 0 1-.13.017z" fill="#151a4f"/><path d="M261.677 61.454h14.838v15.067h-14.838z" fill="#23286b"/><path d="M45.222 127.869c.083-.097.077-.188-.019-.272s-.185-.078-.268.019-.077.188.019.272c.096.085.179-.013.268-.019zm3.891-18.863c.089-.006.172-.104.166-.194-.006-.09-.102-.175-.191-.169-.089.006-.172.104-.166.194-.076.188.108.265.191.169zm-2.576 9.386c.089-.006.179-.013.262-.11-.006-.09-.013-.182-.108-.266-.089.006-.179.013-.262.11-.077.187.018.271.108.266zm21.005 13.069c.185.078.357-.026.434-.213.077-.188-.026-.363-.21-.441-.185-.078-.357.026-.434.213-.166.195.031.454.21.441zm-8.236-2.323c.185.078.357-.026.434-.213.077-.188-.026-.363-.21-.441s-.357.026-.434.213c-.077.187.025.361.21.441zm-8.243-2.416c.185.078.357-.026.434-.213.077-.188-.026-.363-.21-.441-.185-.078-.357.026-.434.213-.076.188.025.363.21.441zm4.921 19.142a.586.586 0 0 0-.038-.544.562.562 0 0 0-.536.039c-.077.188-.064.37.032.454.197.259.376.246.542.051zm-6.742-5.346a.586.586 0 0 0-.038-.544.562.562 0 0 0-.536.039c-.077.188-.064.37.032.454.191.168.459.148.542.051zm15.75-26.365c.179-.013.345-.207.332-.388s-.204-.35-.382-.337c-.179.013-.345.207-.332.388.013.181.204.35.382.337zm-8.544.977c.179-.013.345-.207.332-.388s-.204-.35-.382-.337c-.179.013-.345.207-.332.388.012.182.203.351.382.337zm-8.456.97c.179-.013.345-.207.332-.388-.013-.182-.204-.35-.382-.337-.179.013-.345.207-.332.388.019.272.204.35.382.337zm2.612 36.254c.083-.097.153-.376-.032-.454-.096-.084-.37-.155-.447.032-.083.097-.153.376.032.454.102.176.281.163.447-.032zm11.443-30.246c.179-.013.351-.117.338-.299s-.108-.266-.294-.343c-.179.013-.351.117-.338.299.014.181.116.356.294.343zm-7.613.181c.179-.013.351-.117.338-.299s-.108-.266-.294-.343c-.179.013-.351.117-.338.299.013.182.115.357.294.343zm-7.62.092c.179-.013.351-.117.338-.299-.013-.182-.108-.266-.294-.343-.179.013-.351.117-.338.299.02.272.116.355.294.343zm8.506 15.241c.185.078.357-.026.434-.213.077-.188-.026-.363-.21-.441s-.357.026-.434.213c-.076.188.032.454.21.441zm-7.1-2.769c.185.078.357-.026.44-.123.077-.188-.026-.363-.21-.441-.185-.078-.357.026-.434.213-.083.097.019.271.204.351zm7.016-26.834c.172-.104.255-.201.153-.376-.102-.175-.287-.253-.37-.155-.172.104-.249.291-.147.466 0 .001.185.078.364.065zm-6.966 3.051c.172-.104.249-.291.147-.466s-.287-.253-.459-.149-.249.291-.153.376c.109.265.293.342.465.239-.089.006 0 0 0 0zm10.181 43.182c.185.078.357-.026.434-.213.077-.188-.026-.363-.21-.441-.185-.078-.357.026-.434.213-.076.188.025.363.21.441zm-8.204-3.147c.185.078.357-.026.434-.213.077-.188-.026-.363-.21-.441-.185-.078-.357.026-.434.213-.083.098.025.363.21.441zm7.469-34.516c.172-.104.249-.291.147-.466s-.287-.253-.459-.149-.249.291-.147.466c.012.179.286.251.459.149zm-8.089 3.677c.172-.104.249-.291.147-.466s-.287-.253-.459-.149-.249.291-.147.466c.097.083.287.251.459.149zm8.009 15.823c.179-.013.345-.207.332-.388-.013-.182-.204-.35-.382-.337-.179.013-.345.207-.332.388.012.182.204.351.382.337zm-8.774.265c.179-.013.345-.207.332-.388-.013-.182-.204-.35-.382-.337-.179.013-.345.207-.332.388.013.182.115.357.382.337zm10.44 5.629c.179-.013.345-.207.332-.388-.013-.182-.204-.35-.382-.337s-.351.117-.332.388c.012.182.203.35.382.337zm-8.799-.098c.179-.013.345-.207.332-.388-.013-.182-.115-.356-.382-.337-.179.013-.345.207-.421.394.101.175.293.344.471.331zm1.251-16.852a.502.502 0 0 0 .236-.472.49.49 0 0 0-.465-.24.502.502 0 0 0-.236.472c.011.18.286.251.465.24zm215.162 84.356c.18.016.279-.067.294-.25.016-.183-.065-.283-.246-.3-.18-.016-.279.067-.294.25-.016.183.163.199.246.3zm24.791-11.199c.082.1.262.117.361.034.098-.083.115-.266.033-.367a.273.273 0 0 0-.361-.034c-.279.067-.213.35-.033.367zm-12.871 4.818c.082.1.164.2.344.215.098-.083.197-.167.212-.349-.082-.1-.164-.2-.344-.215-.279.067-.294.249-.212.349zm2.649 35.661c.066.283.328.399.607.332s.393-.333.327-.616-.328-.399-.607-.332c-.361-.033-.491.417-.327.616zm-4.235-11.641c.066.283.328.399.607.332s.393-.333.327-.616-.328-.399-.607-.332c-.279.067-.394.333-.327.616zm-4.138-11.724c.066.283.328.399.607.332.279-.067.393-.333.327-.616s-.328-.399-.607-.332c-.278.068-.392.335-.327.616zm-17.739 21.806a.818.818 0 0 0 .589-.5.822.822 0 0 0-.492-.598c-.279.067-.474.233-.491.416-.131.449.033.648.394.682zm.464-12.41a.818.818 0 0 0 .589-.5.822.822 0 0 0-.492-.598c-.279.067-.474.233-.491.416-.032.367.215.666.394.682zm43.276-3.511c.164.2.525.233.72.066.197-.167.229-.533.065-.731-.164-.2-.525-.233-.72-.066-.196.165-.229.532-.065.731zm-8.263-9.242c.164.2.525.233.72.066.197-.167.229-.533.065-.731-.164-.2-.525-.233-.72-.066-.197.165-.229.531-.065.731zm-8.182-9.142c.164.2.525.233.72.066.197-.167.229-.533.065-.731-.164-.2-.525-.233-.72-.066-.294.249-.228.531-.065.731zm-39.205 33.399c.18.016.556-.133.491-.416.016-.183-.131-.565-.41-.499-.18-.016-.556.133-.491.416-.114.268.05.467.41.499zm44.104-11.829c.164.2.426.316.623.149s.212-.349.147-.633c-.164-.2-.426-.316-.623-.149s-.311.433-.147.633zm-6.576-8.811c.164.2.426.316.623.149s.212-.349.147-.633c-.164-.2-.426-.316-.623-.149-.196.168-.311.434-.147.633zm-6.477-8.893c.164.2.426.316.623.149s.212-.349.147-.633c-.164-.2-.426-.316-.623-.149-.295.25-.311.434-.147.633zm-10.286 22.764c.065.283.328.399.607.332s.393-.333.327-.616c-.065-.283-.328-.399-.607-.332-.278.066-.491.416-.327.616zm-2.776-10.677c.066.283.328.399.508.415.279-.067.393-.333.327-.616s-.328-.399-.607-.332c-.18-.017-.294.249-.228.533zm36.501-14.186c.262.117.443.132.556-.133.115-.266.048-.549-.131-.565-.262-.117-.541-.049-.655.216.001 0 .066.284.23.482zm-9.308-5.648c.262.117.541.049.655-.216s.048-.549-.213-.665c-.262-.117-.541-.049-.556.133-.214.35-.149.632.114.748-.082-.099 0 0 0 0zm-40.784 48.106c.066.283.328.399.607.332s.393-.333.327-.616-.328-.399-.607-.332c-.277.066-.392.334-.327.616zm-3.269-12.289c.065.283.328.399.607.332s.393-.333.327-.616-.328-.399-.607-.332c-.179-.017-.393.332-.327.616zm45.654-20.082c.262.117.541.049.655-.216.115-.266.048-.549-.213-.665-.262-.117-.541-.049-.655.216-.197.167-.049.548.213.665zm-10.964-6.446c.262.117.541.049.655-.216s.048-.549-.213-.665c-.262-.117-.541-.049-.655.216-.017.184-.05.549.213.665zm-11.366 22.666c.164.2.525.233.72.066.197-.167.229-.533.065-.731-.164-.2-.525-.233-.72-.066-.197.164-.229.531-.065.731zm-7.642-10.108c.164.2.525.233.72.066.197-.167.229-.533.065-.731-.164-.2-.525-.233-.72-.066-.197.166-.311.433-.065.731zm2.307 16.998c.164.2.525.233.72.066.197-.167.229-.533.065-.731-.164-.2-.426-.316-.72-.066-.197.166-.229.532-.065.731zm-7.249-10.44c.164.2.525.233.72.066.197-.167.311-.433.065-.731-.164-.2-.525-.233-.802-.166-.114.265-.147.632.017.831zm20.286-12.625a.693.693 0 0 0 .737-.118.721.721 0 0 0-.116-.748.693.693 0 0 0-.737.118c-.196.166-.048.549.116.748z" fill="#1d72d8"/></svg></g><g transform="translate(784.0 459.0) rotate(0.0 167.0 85.5) scale(0.5566666666666666 0.5551948051948052)"><svg width="600" height="308" viewBox="0 0 600 308"><linearGradient id="b"><stop offset="0" stop-color="#428dfc"/><stop offset="1" stop-color="#1d72d8"/></linearGradient><linearGradient xmlns:xlink="http://www.w3.org/1999/xlink" id="d" gradientUnits="userSpaceOnUse" x1="64.884" x2="507.186" xlink:href="#b" y1="176.671" y2="176.671"/><linearGradient id="c"><stop offset="0" stop-color="#a1c3fc"/><stop offset="1" stop-color="#81aef2"/></linearGradient><linearGradient xmlns:xlink="http://www.w3.org/1999/xlink" id="e" gradientUnits="userSpaceOnUse" x1="350.834" x2="458.952" xlink:href="#c" y1="253.901" y2="253.901"/><linearGradient xmlns:xlink="http://www.w3.org/1999/xlink" id="f" gradientUnits="userSpaceOnUse" x1="401.47" x2="437.1" xlink:href="#b" y1="151.234" y2="151.234"/><linearGradient xmlns:xlink="http://www.w3.org/1999/xlink" id="g" gradientUnits="userSpaceOnUse" x1="131.229" x2="239.347" xlink:href="#c" y1="253.901" y2="253.901"/><path d="m324.529 71.737 23.189 8.137-23.987 68.461-23.19-8.137z" fill="#78a9ef"/><path d="M292.179 0C203.113 0 112.733 91.932 91.913 174.594l20.008-1.598C130.839 100.704 209.758 20.9 287.546 20.9c26.833 0 52.189 6.324 74.664 17.559v139.822h19.658V50.035c32.859 22.488 57.298 56.392 67.609 96.008l27.363-2.185C456.022 61.194 381.245 0 292.179 0z" fill="#428dfc"/><path d="m117.937 168.069-3.377-4.172 71.266-57.78 3.377 4.172z" fill="#23286b"/><path d="m200.257 127.443-32.865-35.307 3.926-3.66 32.865 35.307z" fill="#23286b"/><path d="m459.192 108.695-47.06 1.691-300.735 34.311c-26.499 3.023-46.513 25.465-46.513 52.156v17.701c0 16.636 13.477 30.124 30.101 30.124h25.962c8.199-24.301 31.15-41.804 58.199-41.804s49.999 17.504 58.199 41.804h103.206c8.199-24.301 31.15-41.804 58.199-41.804s49.999 17.504 58.199 41.804h17.064c18.32 0 33.173-14.863 33.173-33.198v-56.449c.002-26.259-21.77-47.279-47.994-46.336z" fill="url(#d)"/><ellipse cx="404.893" cy="253.901" fill="url(#e)" rx="54.059" ry="54.099"/><ellipse cx="404.893" cy="253.901" fill="#fff" rx="27.029" ry="27.049"/><path d="M404.893 267.114c-7.28 0-13.204-5.928-13.204-13.214s5.924-13.215 13.204-13.215 13.204 5.928 13.204 13.215c-.001 7.287-5.924 13.214-13.204 13.214z" fill="#eee"/><path d="M404.893 242.835c6.107 0 11.058 4.955 11.058 11.066 0 6.112-4.951 11.066-11.058 11.066s-11.058-4.955-11.058-11.066 4.951-11.066 11.058-11.066m0-4.295c-8.463 0-15.349 6.891-15.349 15.36s6.886 15.36 15.349 15.36 15.349-6.891 15.349-15.36-6.886-15.36-15.349-15.36z" fill="#a1c3fc"/><ellipse cx="83.927" cy="166.603" fill="#d6d7d8" rx="20.272" ry="20.287"/><path d="m80.241 173.882-11.574-11.583 11.574-11.582 11.574 11.582z" fill="#d62929"/><path d="m62.97 173.133-15.357-15.369 15.357-15.369 15.358 15.369z" fill="#a1c3fc"/><path d="m499.817 146.93-15.358-15.368 15.358-15.369 15.357 15.369z" fill="#d62929"/><path d="m593.125 85.204-.477 16.672-16.66-.477.478-16.672z" fill="#1d72d8"/><path d="m505.903 40.39 15.017-7.232 7.227 15.029-15.018 7.232z" fill="#a1c3fc"/><path d="M52.597 206.564h43.002v43.034H52.597zm428.79 0h43.002v43.034h-43.002z" fill="#d6d7d8"/><path d="M488.533 73.884a.537.537 0 0 1-.203-1.035 171.077 171.077 0 0 1 86.344-11.288.538.538 0 0 1 .465.601.545.545 0 0 1-.601.465c-29.033-3.734-58.702.148-85.803 11.217a.53.53 0 0 1-.202.04zm110.83 102.738a.536.536 0 0 1-.534-.596c.791-7.055-3.279-14.902-10.886-20.99-10.8-8.645-25.384-12.384-39.014-10.012a.532.532 0 0 1-.62-.436.536.536 0 0 1 .436-.62c13.933-2.431 28.831 1.397 39.869 10.231 7.896 6.319 12.115 14.524 11.283 21.947a.54.54 0 0 1-.534.476z" fill="#23286b"/><ellipse cx="43.997" cy="120.495" fill="#fff" rx="14.13" ry="7.378"/><path d="M43.997 129.484c-8.825 0-15.738-3.948-15.738-8.989 0-5.04 6.913-8.989 15.738-8.989s15.738 3.948 15.738 8.989c0 5.04-6.913 8.989-15.738 8.989zm0-14.755c-7.378 0-12.519 3.039-12.519 5.767 0 2.727 5.142 5.767 12.519 5.767s12.519-3.039 12.519-5.767c0-2.727-5.142-5.767-12.519-5.767z" fill="#428dfc"/><ellipse cx="15.738" cy="90.986" fill="#fff" rx="14.13" ry="7.378"/><path d="M15.738 99.974C6.913 99.974 0 96.026 0 90.985s6.913-8.989 15.738-8.989c8.826 0 15.739 3.948 15.739 8.989s-6.913 8.989-15.739 8.989zm0-14.754c-7.378 0-12.519 3.039-12.519 5.767s5.142 5.767 12.519 5.767 12.52-3.039 12.52-5.767-5.142-5.767-12.52-5.767z" fill="#428dfc"/><path d="M401.526 138.939h35.63v24.59h-35.63z" fill="url(#f)"/><path d="M437.835 301.784a.538.538 0 0 1-.199-1.035c5.46-2.174 8.994-3.987 12.412-5.741 4.216-2.163 8.196-4.205 15.194-6.574 12.145-4.111 30.414-7.123 41.923-2.081a.538.538 0 0 1-.429.984c-11.23-4.918-29.185-1.937-41.15 2.116-6.923 2.344-10.87 4.368-15.048 6.512-3.44 1.765-6.997 3.59-12.505 5.783a.592.592 0 0 1-.198.036zm27.888-249.491a.536.536 0 0 1-.498-.735c7.152-18.042 21.039-33.683 38.101-42.912a.537.537 0 0 1 .509.945c-16.842 9.111-30.552 24.552-37.613 42.364a.537.537 0 0 1-.499.338z" fill="#78a9ef"/><path d="M352.367 214.675a.356.356 0 0 1 .241-.446.347.347 0 0 1 .424.242l.003.006a.362.362 0 0 1-.241.453.364.364 0 0 1-.427-.255zm8.286-2.336a.358.358 0 0 1 .242-.447.358.358 0 0 1 .447.242.358.358 0 0 1-.242.447.37.37 0 0 1-.447-.242zm-4.003-33.981c.092-.171.307-.232.477-.139s.232.307.139.479a.351.351 0 1 1-.616-.34zm15.043 8.413a.35.35 0 0 1 .477-.139.387.387 0 0 1 .15.5.393.393 0 0 1-.511.129.36.36 0 0 1-.116-.49zm7.508 4.213a.35.35 0 0 1 .477-.139c.174.101.239.32.15.5a.35.35 0 0 1-.477.139.385.385 0 0 1-.15-.5zm5.905-34.828a.358.358 0 0 1 .242-.447.33.33 0 0 1 .427.254.347.347 0 0 1-.222.437.362.362 0 0 1-.447-.244zm-29.61 40.834a.35.35 0 0 1 .382-.307.346.346 0 1 1-.075.689.328.328 0 0 1-.31-.345l.003-.037zm17.104 2.009a.343.343 0 0 1 .393-.284.343.343 0 0 1 .309.378.343.343 0 0 1-.378.309h-.005a.357.357 0 0 1-.323-.386l.004-.009zm8.564 1.025a.328.328 0 0 1 .345-.31c.011.001.024 0 .035.003a.354.354 0 0 1 .32.384c0 .005 0 .014-.002.019a.35.35 0 0 1-.382.307.357.357 0 0 1-.32-.389l.004-.014zm-9.748-31.696a.392.392 0 0 1 .065-.514.367.367 0 0 1 .449.579.392.392 0 0 1-.514-.065zm5.336 6.767a.353.353 0 0 1 .076-.492.34.34 0 0 1 .481.021c.005.008.014.015.019.024a.378.378 0 0 1-.065.514.392.392 0 0 1-.511-.067zm-58.368 30.565a.669.669 0 0 1 .717-.642.662.662 0 0 1 .629.694.668.668 0 0 1-.692.645c-.008.001-.016-.001-.016-.001a.661.661 0 0 1-.637-.691v-.006h-.001zm16.303.825a.678.678 0 0 1 .718-.641.678.678 0 0 1 .641.719.662.662 0 0 1-.691.63h-.005a.705.705 0 0 1-.663-.708zm16.324.81a.678.678 0 0 1 .718-.641.678.678 0 0 1 .641.719.678.678 0 0 1-.718.641.671.671 0 0 1-.644-.694c.003-.005.002-.013.003-.025zm-19.283-64.13a.684.684 0 0 1 .058-.957.65.65 0 0 1 .919.01c.01.01.017.016.025.027a.684.684 0 0 1-.058.957.67.67 0 0 1-.944-.037zm10.94 12.119a.68.68 0 0 1 1.005-.912c.004.004.01.01.011.013a.667.667 0 0 1-.038.944.72.72 0 0 1-.978-.045zm10.967 12.128a.664.664 0 0 1 .041-.941l.017-.015a.652.652 0 0 1 .92.01c.01.01.017.016.025.027a.726.726 0 0 1-.046.98.685.685 0 0 1-.957-.061zm21.908 24.247a.666.666 0 1 1 .992-.888.661.661 0 0 1-.028.936c-.004.004-.008.005-.012.011a.675.675 0 0 1-.952-.059zm-45.67 40.767a.679.679 0 0 1 .416-.864.68.68 0 0 1 .863.416l.003.006a.686.686 0 0 1-.422.862.67.67 0 0 1-.86-.42zm15.404-5.479a.666.666 0 0 1 .37-.864.666.666 0 0 1 .863.37c.006.015.012.029.016.046a.663.663 0 0 1-1.249.448zm-28.124-52.042a.668.668 0 0 1 .902-.289.67.67 0 0 1-.596 1.202.693.693 0 0 1-.306-.913zm14.758 7.014a.668.668 0 0 1 .902-.289.67.67 0 0 1-.597 1.2.69.69 0 0 1-.305-.911zm14.746 6.988a.685.685 0 0 1 .925-.297.687.687 0 0 1 .315.893c-.153.347-.56.501-.907.347a.687.687 0 0 1-.347-.908l.014-.035zm16.477-55.817a.686.686 0 0 1 .422-.862.658.658 0 0 1 .845.395l.003.006a.65.65 0 0 1-.34.852l-.049.019a.716.716 0 0 1-.881-.41zm5.495 15.405a.72.72 0 0 1 .409-.882.685.685 0 0 1 .861.422.672.672 0 0 1-.408.857l-.012.004a.66.66 0 0 1-.85-.401zm5.48 15.38a.645.645 0 0 1 .369-.837c.009-.003.02-.009.029-.01a.67.67 0 0 1 .87.377l.013.031a.678.678 0 1 1-1.281.439zm5.477 15.415a.686.686 0 0 1 .422-.862.648.648 0 0 1 .837.372c.003.009.009.02.01.029a.682.682 0 0 1-.387.87.698.698 0 0 1-.882-.409zm-68.915 10.276a.608.608 0 0 1 .767-.364.603.603 0 0 1 .364.768.602.602 0 0 1-.767.364.608.608 0 0 1-.364-.768zm13.706 4.966a.608.608 0 0 1 .767-.364.6.6 0 0 1-.371 1.142c-.012-.003-.02-.008-.034-.012a.588.588 0 0 1-.372-.743l.01-.023zm13.736 5.396a.503.503 0 0 1-.028-.432.608.608 0 0 1 .767-.364c.32.112.489.461.378.784l-.003.006a.606.606 0 0 1-.421.384l-.021.011a.42.42 0 0 1-.327-.034.513.513 0 0 1-.345-.355zm13.68 4.535a.61.61 0 1 1-.005.007c.004-.002.004-.004.004-.004zm.29-59.758a.639.639 0 0 1 .306-.822.583.583 0 0 1 .777.275l.01.025a.6.6 0 0 1-.274.804l-.012.004a.63.63 0 0 1-.807-.286zm6.187 13.181a.6.6 0 0 1 .295-.789.581.581 0 0 1 .776.275l.01.025a.603.603 0 0 1-.274.806l-.012.004a.62.62 0 0 1-.795-.321zm6.189 13.236a.6.6 0 0 1 .274-.804l.012-.004a.569.569 0 0 1 .764.245c.01.017.016.034.024.053a.603.603 0 0 1-.274.806l-.012.004a.616.616 0 0 1-.788-.3zm6.166 13.192a.61.61 0 0 1 .321-.799.604.604 0 0 1 .784.295.634.634 0 0 1-.284.81.637.637 0 0 1-.821-.306zm6.191 13.234a.607.607 0 1 1 1.091-.531l.002.004a.639.639 0 0 1-.306.822.623.623 0 0 1-.787-.295zm-49.425 23.26a.592.592 0 0 1 .561-.621l.028-.001a.572.572 0 0 1 .608.53c0 .014.002.025.001.036a.602.602 0 0 1-.555.643l-.015.001a.624.624 0 0 1-.628-.588zm43.687-1.983a.606.606 0 1 1 1.215-.035.606.606 0 0 1-1.215.035zm-39.498-49.586a.611.611 0 0 1-.021-.855.594.594 0 0 1 .841-.042c.24.227.267.606.056.863a.622.622 0 0 1-.876.034zm10.781 9.834a.58.58 0 0 1-.068-.816c.006-.009.016-.017.023-.027a.594.594 0 0 1 .841-.042c.24.227.267.606.056.863a.608.608 0 0 1-.852.022zm10.759 9.846a.595.595 0 1 1 .798-.884.595.595 0 0 1-.798.884zm28.606-44.195a.572.572 0 0 1 .53-.608c.014 0 .025-.002.036-.001a.602.602 0 0 1 .643.555l.001.02a.623.623 0 0 1-.59.623.592.592 0 0 1-.621-.561l.001-.028zm.659 14.584a.62.62 0 0 1 .576-.643.61.61 0 0 1 .067 1.218.595.595 0 0 1-.642-.54c-.003-.012-.002-.023-.001-.035zm-48.68 58.128a.361.361 0 0 1 .414-.296c.196.033.328.219.296.414s-.219.328-.414.296a.373.373 0 0 1-.296-.414zm17.002 2.653a.343.343 0 0 1 .393-.284.33.33 0 0 1 .296.414.343.343 0 0 1-.393.284.335.335 0 0 1-.306-.361l.01-.053zm1.92-33.318a.353.353 0 1 1 .493.076.347.347 0 0 1-.493-.076zm20.26 27.811a.353.353 0 0 1 .076-.492.352.352 0 0 1 .416.569.353.353 0 0 1-.492-.077zm-33.85 20.955a.366.366 0 0 1 .254-.427.384.384 0 0 1 .441.275.347.347 0 0 1-.242.424l-.006.003a.386.386 0 0 1-.447-.275zm8.358-2.019a.357.357 0 0 1 .254-.427.337.337 0 0 1 .421.226l.005.019a.336.336 0 0 1-.253.437.347.347 0 0 1-.427-.255zm-3.509-30.826a.38.38 0 0 1 .489-.117.349.349 0 0 1 .129.475c-.003.006-.005.01-.011.017a.34.34 0 0 1-.461.135l-.019-.01a.366.366 0 0 1-.127-.5zm7.355 4.471a.38.38 0 0 1 .489-.117.364.364 0 0 1 .117.489.34.34 0 0 1-.458.149l-.02-.013a.36.36 0 0 1-.142-.489c.005-.004.009-.011.014-.019zm7.345 4.505a.34.34 0 0 1 .461-.135c.01.006.019.01.028.017a.357.357 0 0 1 .117.489.38.38 0 0 1-.489.117.345.345 0 0 1-.129-.471c.003-.006.007-.01.012-.017zm11.696-28.329c-.048-.189.065-.379.254-.427s.379.065.427.254a.33.33 0 0 1-.254.427.347.347 0 0 1-.424-.242zm2.015 8.365a.373.373 0 0 1 .275-.441.345.345 0 0 1 .407.263l.001.002a.33.33 0 0 1-.254.427.347.347 0 0 1-.424-.242c-.002-.001-.002-.003-.002-.003zm2.015 8.367a.366.366 0 0 1 .713-.164.37.37 0 0 1-.304.423.37.37 0 0 1-.409-.259zm-50.7 14.433a.388.388 0 0 1 .494-.241l.009.002a.4.4 0 0 1 .253.527.388.388 0 0 1-.494.241l-.009-.002a.421.421 0 0 1-.253-.527zm9.25 3.257a.41.41 0 1 1 .774.274.388.388 0 0 1-.494.241l-.012-.003a.395.395 0 0 1-.28-.484.293.293 0 0 1 .012-.028zm18.311-33.778a.38.38 0 0 1 .193-.532.403.403 0 0 1 .532.193c.086.205.01.44-.182.554a.41.41 0 0 1-.542-.212zm4.232 8.864a.41.41 0 0 1 .212-.542l.002-.001a.403.403 0 0 1 .532.193c.086.205.01.44-.182.554a.454.454 0 0 1-.564-.204zm8.546 17.711a.384.384 0 0 1 .183-.555.403.403 0 0 1 .532.193.423.423 0 0 1-.182.554.401.401 0 0 1-.533-.192zm-37.986 25.095a.403.403 0 0 1 .363-.444l.02-.001a.434.434 0 0 1 .427.395.405.405 0 0 1-.382.426h-.014a.402.402 0 0 1-.414-.376zm9.794-.558a.395.395 0 0 1 .376-.413.403.403 0 0 1 .445.383.41.41 0 0 1-.821.03zm9.808-.539a.377.377 0 0 1 .339-.412c.012-.003.023-.001.036-.001a.388.388 0 0 1 .433.336l.003.028a.403.403 0 0 1-.363.444.403.403 0 0 1-.444-.363c-.004-.011-.004-.021-.004-.032zm-7.454-34.628a.51.51 0 0 1 .077-.157.4.4 0 0 1 .562-.035c.004.004.008.004.012.009a.414.414 0 0 1 .047.559l-.021.011a.4.4 0 0 1-.562.035c-.004-.004-.009-.006-.009-.006a.365.365 0 0 1-.106-.416zm7.438 6.969a.397.397 0 0 1-.05-.556s.001-.003.004-.004a.435.435 0 0 1 .582-.059.445.445 0 0 1 .038.592.405.405 0 0 1-.574.027zm7.301 6.544a.405.405 0 1 1 .572-.026.4.4 0 0 1-.562.035c-.004-.001-.005-.005-.01-.009zm18.945-29.949a.404.404 0 0 1 .38-.425h.014a.395.395 0 0 1 .413.376.388.388 0 0 1-.336.433l-.028.003a.423.423 0 0 1-.443-.387zm.558 9.802a.377.377 0 0 1 .339-.412c.012-.003.023-.001.036-.001a.384.384 0 0 1 .43.334l.003.028a.42.42 0 0 1-.381.447.412.412 0 0 1-.427-.396c.001.002 0 0 0 0zm.538 9.815a.405.405 0 0 1 .808-.052.403.403 0 0 1-.363.444l-.021.001a.428.428 0 0 1-.424-.393zm-72.005-25.553a.726.726 0 0 1-.021-.997.7.7 0 0 1 .982-.042.717.717 0 0 1 .021.997.694.694 0 0 1-.982.042zm12.326 11.477a.698.698 0 0 1-.042-.983.697.697 0 0 1 .982-.042.698.698 0 0 1 .042.983.693.693 0 0 1-.982.042zm12.302 11.492a.716.716 0 0 1-.02-.997.696.696 0 0 1 .98-.004.693.693 0 0 1-.96 1.001zm24.63 22.969a.717.717 0 0 1-.021-.997.69.69 0 0 1 .979-.016.697.697 0 0 1-.958 1.013zm14.995-75.85a.731.731 0 0 1 .69-.737.701.701 0 0 1 .703.705.7.7 0 0 1-.67.703.717.717 0 0 1-.723-.671zm.595 16.832a.714.714 0 0 1 .667-.726.697.697 0 0 1 .058 1.394.71.71 0 0 1-.725-.668zm.595 16.829a.707.707 0 0 1 .667-.726.73.73 0 0 1 .736.691.705.705 0 0 1-.706.703.705.705 0 0 1-.697-.668zm-46.095 41.378a.705.705 0 1 1 .415.908.725.725 0 0 1-.415-.908zm15.772 5.918a.694.694 0 0 1 .891-.438.714.714 0 0 1 .413.904.693.693 0 0 1-.902.414.683.683 0 0 1-.402-.88zm15.78 5.885a.695.695 0 0 1 .894-.417l.01.004c.337.13.504.504.379.843.011.021.011.021.004.053a.677.677 0 0 1-.818.422l-.068-.017a.666.666 0 0 1-.414-.85.094.094 0 0 1 .013-.038zm-19.542-70.588a.743.743 0 0 1 .351-.934.703.703 0 0 1 .912.366.684.684 0 0 1-.32.915l-.014.005a.7.7 0 0 1-.929-.352c.002.004.002.004 0 0zm6.997 15.342a.707.707 0 0 1 .35-.933l.002-.001a.678.678 0 0 1 .898.342.692.692 0 0 1-1.246.599l-.004-.007zm6.983 15.317a.685.685 0 0 1 .318-.915l.013-.005a.704.704 0 1 1-.331.92zm6.985 15.319a.694.694 0 0 1 1.264-.569.694.694 0 0 1-.332.92.701.701 0 0 1-.932-.351zm-30.469 24.8a.742.742 0 0 1 .881-.457.717.717 0 0 1 .436.893.665.665 0 0 1-.823.457l-.035-.011a.694.694 0 0 1-.461-.867c-.001-.002 0-.008.002-.015zm-1.861-68.74a.693.693 0 0 1 .332-.921.693.693 0 0 1 .612 1.241.71.71 0 0 1-.944-.32zm7.588 14.965a.706.706 0 0 1 .319-.942.715.715 0 0 1 .929.298.742.742 0 0 1-.306.962.72.72 0 0 1-.942-.318zm7.589 14.965a.706.706 0 0 1 .319-.942.691.691 0 0 1 .631 1.228.715.715 0 0 1-.95-.286zm7.609 14.955a.668.668 0 0 1 .26-.909l.039-.021a.697.697 0 0 1 .929.298.688.688 0 0 1-.301.926.687.687 0 0 1-.927-.294zm37.14-18.954a.717.717 0 0 1 .892-.436.69.69 0 0 1 .424.872.665.665 0 0 1-.823.457l-.035-.011a.694.694 0 0 1-.461-.867c0-.006.002-.01.003-.015zm-68.88 13.891a.687.687 0 0 1-.067-.967c.002-.001.001-.003.004-.004a.697.697 0 0 1 .977-.095.715.715 0 0 1 .074.993.717.717 0 0 1-.988.073zm12.756 10.919a.692.692 0 0 1 .888-1.061c.003.001.004.006.009.006a.722.722 0 0 1 .074.993.686.686 0 0 1-.966.067l-.004-.004zm12.722 10.912a.707.707 0 0 1-.042-.996.703.703 0 0 1 .959-.072c.294.254.327.697.074.993s-.699.329-.991.075zm18.522-62.77a.712.712 0 0 1 .657-.747.688.688 0 0 1 .733.635.68.68 0 0 1-.623.756.695.695 0 0 1-.764-.62l-.001-.016zm1.293 16.731a.712.712 0 0 1 .657-.747.686.686 0 0 1 .733.635.679.679 0 0 1-.624.755.696.696 0 0 1-.764-.622v-.014zm2.585 33.464a.72.72 0 0 1 .657-.747.686.686 0 0 1 .733.635.72.72 0 0 1-.622.754.706.706 0 0 1-.768-.642zm-30.206 24.481a.529.529 0 1 1 .918.528.512.512 0 0 1-.697.19l-.006-.003a.545.545 0 0 1-.215-.715zm9.422-50.978a.524.524 0 0 1 1.009-.279.503.503 0 0 1-.329.629l-.051.013a.525.525 0 0 1-.629-.363zm3.246 12.208a.527.527 0 1 1 1.023-.261.518.518 0 0 1-.362.637c-.006.003-.012.003-.019.005a.535.535 0 0 1-.642-.381zm3.257 12.232a.53.53 0 0 1 .381-.642c.28-.073.57.1.642.381a.53.53 0 0 1-.381.642.54.54 0 0 1-.642-.381zm-26.822-6.893a.532.532 0 0 1 .104-.733.55.55 0 0 1 .732.104.52.52 0 0 1-.101.731l-.004.004a.503.503 0 0 1-.708-.075c-.007-.012-.017-.022-.023-.031zm7.678 10.072a.557.557 0 0 1 .093-.753.52.52 0 0 1 .73.101l.001.002a.505.505 0 0 1-.065.712c-.005.004-.011.006-.016.012a.521.521 0 0 1-.736-.067zm7.687 10.041a.505.505 0 0 1 .075-.709c.011-.006.019-.016.03-.023a.5.5 0 0 1 .704.063c.005.008.011.013.017.023a.557.557 0 0 1-.093.753.52.52 0 0 1-.73-.101zm29.499-20.797a.534.534 0 0 1 1.057.139.533.533 0 1 1-1.057-.139zm-30.165 24.601a.296.296 0 0 1 .105-.397.29.29 0 1 1 .292.502c-.006.003-.015.009-.021.011a.29.29 0 0 1-.376-.116zm3.253 6.074a.277.277 0 0 1 .109-.373l.006-.003a.26.26 0 0 1 .357.083c.006.011.012.024.019.033a.277.277 0 0 1-.086.384c-.005.004-.013.007-.019.01a.31.31 0 0 1-.386-.134zm11.159-6.863a.276.276 0 0 1 .24-.308.29.29 0 0 1 .32.26l.001.002a.274.274 0 0 1-.232.308l-.01.001a.298.298 0 0 1-.319-.263zm.677 6.88a.29.29 0 0 1 .26-.32l.002-.001a.291.291 0 1 1 .062.58l-.002.001a.29.29 0 0 1-.322-.26zm-15.608-19.862a.47.47 0 0 1 .433-.505.43.43 0 0 1 .487.365c.001.015.004.029.003.046a.442.442 0 0 1-.363.507c-.012.003-.025.002-.036.005a.455.455 0 0 1-.524-.418zm1.198 11.386a.443.443 0 0 1 .363-.508c.012-.003.025-.002.036-.005a.455.455 0 0 1 .523.42.48.48 0 0 1-.419.525.457.457 0 0 1-.501-.406v-.018zm1.17 11.376a.488.488 0 0 1 .419-.525.47.47 0 0 1 .525.419.48.48 0 0 1-.419.525.482.482 0 0 1-.525-.419zm17.005-3.585a.476.476 0 0 1-.044-.366.492.492 0 0 1 .598-.321.578.578 0 0 1 .263.211c.011.021.011.021.003.054a.404.404 0 0 1 .054.333.492.492 0 0 1-.598.321.586.586 0 0 1-.276-.232z" fill="#fff"/><ellipse cx="185.288" cy="253.901" fill="url(#g)" rx="54.059" ry="54.099"/><ellipse cx="185.288" cy="253.901" fill="#fff" rx="27.029" ry="27.049"/><path d="M185.288 267.114c-7.28 0-13.204-5.928-13.204-13.214s5.924-13.215 13.204-13.215c7.281 0 13.204 5.928 13.204 13.215s-5.923 13.214-13.204 13.214z" fill="#eee"/><path d="M185.288 242.835c6.107 0 11.058 4.955 11.058 11.066 0 6.112-4.951 11.066-11.058 11.066s-11.058-4.955-11.058-11.066 4.952-11.066 11.058-11.066m0-4.295c-8.463 0-15.349 6.891-15.349 15.36s6.886 15.36 15.349 15.36 15.349-6.891 15.349-15.36-6.885-15.36-15.349-15.36z" fill="#a1c3fc"/></svg></g><g transform="translate(106.0 430.0) rotate(0.0 153.0 115.0) scale(0.612 0.6133333333333333)"><svg width="500" height="375" viewBox="0 0 500 375"><linearGradient id="h"><stop offset="0" stop-color="#d3e3fe"/><stop offset="1" stop-color="#a1c3fc"/></linearGradient><linearGradient xmlns:xlink="http://www.w3.org/1999/xlink" id="i" gradientUnits="userSpaceOnUse" x1="16.918" x2="474.305" xlink:href="#h" y1="235.017" y2="235.017"/><linearGradient xmlns:xlink="http://www.w3.org/1999/xlink" id="j" gradientUnits="userSpaceOnUse" x1="16.918" x2="474.304" xlink:href="#h" y1="316.353" y2="316.353"/><linearGradient id="k" gradientUnits="userSpaceOnUse" x1="258.385" x2="314.99" y1="32.682" y2="32.682"><stop offset="0" stop-color="#e94a47"/><stop offset="1" stop-color="#d62929"/></linearGradient><linearGradient id="l" gradientUnits="userSpaceOnUse" x1="237.046" x2="427.195" y1="310.788" y2="310.788"><stop offset="0" stop-color="#81aef2"/><stop offset="1" stop-color="#78a9ef"/></linearGradient><path d="M474.305 193.493H320.404v53.94H164.913v-27.398H16.918l28.952 56.506h400.988z" fill="url(#i)"/><path d="M78.772 340.754h346.863l16.128-48.802H53.767z" fill="url(#j)"/><path d="m45.87 276.541 7.897 15.411h387.996l5.095-15.411z" fill="#fff"/><path d="M249.031 0h5.153v256.85h-5.153z" fill="#a1c3fc"/><path d="M340.686 208.904h24.839v24.828h-24.839zm37.259 0h24.839v24.828h-24.839zm37.258 0h24.839v24.828h-24.839z" fill="#23286b"/><path d="M25.589 284.53c-6.15 0-11.153-5.001-11.153-11.148s5.003-11.148 11.153-11.148 11.153 5.001 11.153 11.148c-.001 6.147-5.004 11.148-11.153 11.148zm0-15.086c-2.172 0-3.938 1.765-3.938 3.936s1.766 3.936 3.938 3.936 3.938-1.765 3.938-3.936a3.941 3.941 0 0 0-3.938-3.936z" fill="#d62929"/><path d="M21.981 280.267h7.214v31.406h-7.214z" fill="#d62929"/><path d="M0 308.498h51.179v7.211H0z" fill="#d62929"/><g fill="#a1c3fc"><path d="m111.395 216.308 4.61 2.304-75.333 150.714-4.61-2.304zm47.966-.002 4.61 2.304-75.332 150.714-4.61-2.304z"/><path d="M56.81 327.114h48.821v5.151H56.81zm16.388-30.715h48.821v5.151H73.198zm13.819-30.716h48.821v5.151H87.017zm84.933 33.975h24.839v24.828H171.95zm36.831 0h24.839v24.828h-24.839zm36.83 0h24.839v24.828h-24.839zm36.831 0h24.839v24.828h-24.839z"/></g><path d="M258.385 8.86h56.606v47.644h-56.606z" fill="url(#k)"/><path d="M278.907 14.071h16.386V30.45h-16.386zm26.051 13.608.012 4.977-4.98.012-.012-4.977zm-29.994 17.568.013 4.977-4.98.012-.013-4.977z" fill="#fff"/><path d="m302.623 29.585.988 1.808-31.251 17.08-.989-1.808z" fill="#fff"/><path d="M290.879 17.062h8.872v3.589h-8.872zm-16.265 0h8.872v3.589h-8.872zm8.45 6.967h8.872v3.589h-8.872z" fill="#e94a47"/><path d="m274.999 27.693-.013 4.977-4.98-.012.013-4.977zm29.995 17.57-.013 4.977-4.98-.013.013-4.977z" fill="#fff"/><path d="m272.365 29.568 31.262 17.059-.987 1.81-31.262-17.06zm113.051 290.515c.208-.242.229-.56-.011-.769-.243-.208-.56-.229-.769.011-.208.242-.229.56.011.769.242.21.561.232.769-.011zm29.299-44.7c.319.021.527-.219.549-.539.021-.319-.219-.527-.538-.549-.319-.021-.527.219-.549.539-.154.373.22.526.538.549zm-13.619.733c.319.021.527-.219.549-.539.021-.319-.219-.527-.538-.549-.319-.021-.527.219-.549.539-.077.186.219.527.538.549zm3.366 26.587a.91.91 0 0 0-.33-.79.911.911 0 0 0-.791.33c-.021.319.088.582.275.658.429.286.693.177.846-.198zm-12.931-4.657a.91.91 0 0 0-.33-.79.911.911 0 0 0-.791.33c-.021.319.088.582.275.658.429.285.825.12.846-.198zm10.648-47.127c.264-.111.417-.483.308-.747-.111-.264-.483-.417-.747-.307-.264.111-.417.483-.308.747.11.263.484.417.747.307zm-12.429 5.804c.264-.111.417-.483.308-.747-.11-.264-.483-.417-.747-.307-.264.111-.417.483-.308.747.109.263.484.417.747.307zm9.832 58.378c.076-.187.044-.637-.275-.658-.187-.076-.637-.044-.659.275-.076.187-.044.637.275.658.242.21.506.099.659-.275zm-11.107-5.108c.076-.187.044-.637-.275-.658-.187-.076-.505-.099-.659.275-.076.187-.098.505.275.658.319.021.581-.089.659-.275zm13.24-45.735c.264-.111.472-.351.361-.615s-.296-.34-.615-.361c-.264.111-.472.351-.361.615.11.263.351.471.615.361zm-11.42 4.145c.264-.111.472-.351.361-.615s-.296-.34-.615-.361c-.264.111-.472.351-.361.615.109.264.352.472.615.361zm9.03 22.37c.319.021.527-.219.549-.538.021-.319-.219-.527-.538-.549s-.527.219-.549.539c-.021.318.219.526.538.548zm13.073 23.158c.319.021.527-.219.549-.538.021-.319-.219-.527-.538-.549-.319-.021-.527.219-.549.539-.021.317.219.525.538.548zm-14.036-.64c.319.021.527-.219.549-.539.021-.319-.219-.527-.538-.549-.319-.021-.527.219-.549.538-.023.319.219.529.538.55zm-14.115-.454c.319.021.527-.219.549-.539.021-.319-.219-.527-.538-.549-.319-.021-.527.219-.549.539.11.265.351.473.538.549zm8.151-54.589c.208-.242.229-.56-.011-.769-.243-.208-.56-.229-.769.011-.208.242-.229.56.011.769.11.263.56.23.769-.011zm-18.937 70.999c.374.153.637.044.791-.33m27.806-41.604c.264-.111.417-.483.308-.747-.111-.264-.483-.417-.747-.307-.264.111-.417.483-.308.747.111.264.483.417.747.307zm5.474 7.923c.264-.111.417-.483.308-.747-.111-.264-.483-.417-.747-.307-.264.111-.472.351-.308.747.111.264.484.418.747.307zm-13.353 4.333c.264-.111.417-.483.308-.747-.111-.264-.351-.472-.747-.307-.264.111-.417.483-.439.802.242.21.615.363.878.252zm-4.994 24.355c.319.021.527-.219.549-.539.021-.319-.219-.527-.594-.68-.319-.021-.527.219-.68.594.165.394.408.603.725.625zm-4.22-3.807c.264-.111.34-.296.417-.483-.111-.264-.296-.34-.483-.417-.264.111-.34.296-.417.483.11.263.352.472.483.417zM55.764 240.158c-.125.148-.136.342.013.468.148.125.342.136.468-.013.125-.148.136-.342-.013-.468-.148-.125-.342-.136-.468.013zm-17.472 27.418c-.194-.01-.319.138-.33.332-.01.194.138.319.332.33.194.01.319-.138.33-.332.09-.229-.139-.319-.332-.33zm8.278-.553c-.194-.01-.319.138-.33.332s.138.319.332.33c.194.01.319-.138.33-.332.045-.113-.138-.317-.332-.33zm-2.254-16.146a.554.554 0 0 0 .207.478.554.554 0 0 0 .478-.207c.01-.194-.058-.353-.173-.399-.262-.168-.423-.099-.512.128zm7.901 2.733a.554.554 0 0 0 .207.478.554.554 0 0 0 .478-.207c.01-.194-.058-.353-.173-.399-.263-.169-.502-.066-.512.128zm-6.108 28.748a.376.376 0 0 0-.182.457c.069.159.297.25.457.182a.376.376 0 0 0 .182-.457c-.07-.159-.299-.251-.457-.182zm7.513-3.627a.376.376 0 0 0-.182.457c.069.159.297.25.457.182a.376.376 0 0 0 .182-.457c-.068-.16-.296-.251-.457-.182zm-6.435-35.433c-.046.115-.021.388.173.399.115.046.388.021.399-.172.046-.115.021-.388-.173-.399-.149-.125-.308-.056-.399.172zm6.797 3.022c-.046.115-.021.388.173.399.115.046.309.056.399-.172.046-.115.056-.308-.173-.399-.195-.012-.355.057-.399.172zm-7.698 27.922c-.159.069-.284.217-.215.377.069.159.184.205.378.215.159-.069.284-.217.215-.377-.069-.159-.218-.284-.378-.215zm6.914-2.61c-.159.069-.284.217-.215.377.069.159.184.205.378.215.159-.069.284-.217.215-.377-.069-.161-.218-.284-.378-.215zm-5.667-13.537c-.194-.01-.319.138-.33.332-.01.194.138.319.332.33s.319-.138.33-.332c.011-.195-.139-.319-.332-.33zm-8.132-13.984c-.194-.01-.319.138-.33.332-.01.194.138.319.332.33.194.01.319-.138.33-.332.01-.194-.139-.32-.332-.33zm8.543.279c-.194-.01-.319.138-.33.332-.01.194.138.319.332.33.194.01.319-.138.33-.332.01-.194-.138-.319-.332-.33zm8.588.166c-.194-.01-.319.138-.33.332-.01.194.138.319.332.33.194.01.319-.138.33-.332a.659.659 0 0 0-.332-.33zm-4.531 33.268c-.125.148-.136.342.013.468.148.125.342.136.468-.013.125-.148.136-.342-.013-.468-.07-.158-.344-.135-.468.013zm10.964-43.333c-.228-.09-.388-.021-.478.207M45.898 260.22a.376.376 0 0 0-.182.457c.069.159.297.25.457.182a.376.376 0 0 0 .182-.457c-.07-.16-.298-.251-.457-.182zm-3.392-4.777a.376.376 0 0 0-.182.457c.069.159.297.25.457.182.158-.068.284-.217.182-.457-.069-.16-.297-.25-.457-.182zm8.089-2.739a.376.376 0 0 0-.182.457c.069.159.217.284.457.182.159-.069.25-.297.261-.491-.148-.127-.378-.217-.536-.148zm2.848-14.853c-.194-.01-.319.138-.33.332-.01.194.138.319.365.409.194.01.319-.138.409-.365-.102-.24-.25-.366-.444-.376zm2.596 2.283c-.159.069-.205.184-.25.297.069.159.184.205.297.25.159-.069.205-.184.25-.297-.068-.159-.218-.285-.297-.25z" fill="#fff"/><path d="M246.467 8.86h15.641v5.955h-15.641zm0 41.691h15.641v5.955h-15.641z" fill="#e94a47"/><path d="M270.611 103.496h-36.295l-5.591-26.341H276.2zm-32.12-5.152h27.945l3.403-16.038h-34.752z" fill="#a1c3fc"/><path d="M427.195 375h-81.371L237.046 246.575h81.371z" fill="url(#l)"/><path d="M9.24 215.747h155.857v5.151H9.24zm310.888-26.542H500v5.151H320.128z" fill="#a1c3fc"/><path d="m21.868 257.535 3.745-3.744 3.744 3.745-3.746 3.744z" fill="#d62929"/><path d="m21.867 249.635 3.745-3.743 3.744 3.745-3.745 3.743z" fill="#428dfc"/><path d="m21.867 241.737 3.745-3.744 3.744 3.746-3.745 3.743z" fill="#a1c3fc"/><path d="m21.868 233.837 3.745-3.743 3.743 3.745-3.745 3.743z" fill="#d62929"/><path d="m21.867 225.94 3.745-3.744 3.744 3.745-3.745 3.743z" fill="#a1c3fc"/></svg></g><g transform="translate(707.0 75.0) rotate(19.28867903769353 161.0 94.0) scale(1.2983295095782041 1.3072349893960993)"><svg width="248.011" height="143.815" viewBox="0 0 248.011 143.815"><linearGradient id="m" gradientUnits="userSpaceOnUse" x1="124.53" x2="156.425" y1="100.917" y2="123.388"><stop offset="0" stop-color="#e94a47"/><stop offset="1" stop-color="#d62929"/></linearGradient><linearGradient id="n" gradientUnits="userSpaceOnUse" x1="87.128" x2="173.955" y1="29.249" y2="29.249"><stop offset="0" stop-color="#23286b"/><stop offset="1" stop-color="#151a4f"/></linearGradient><path d="M182.855 129.664 104.6 143.463l-8.907-50.518 78.255-13.799z" fill="url(#m)"/><path d="m91.872 108.991-4.587-26.013c-3.554-20.152 9.95-39.438 30.102-42.991l8.862-1.563.691 3.917-8.862 1.563c-17.992 3.172-30.049 20.391-26.877 38.384l4.587 26.013z" fill="#d6d7d8"/><path d="m178.772 93.668-4.587-26.013c-1.537-8.716-6.376-16.312-13.626-21.388s-16.045-7.025-24.758-5.488l-8.861 1.563-.691-3.917 8.861-1.563c9.762-1.721 19.61.461 27.73 6.147s13.54 14.193 15.261 23.956l4.587 26.013z" fill="#d6d7d8"/><path d="M186.123 14.758a.5.5 0 0 1-.129-.983L237.039.018a.5.5 0 1 1 .259.966l-51.045 13.757a.527.527 0 0 1-.13.017z" fill="#1d72d8"/><path d="m93.79 49.09 66.583-11.74c-3.242-18.386-20.775-30.663-39.162-27.421C102.825 13.17 90.548 30.703 93.79 49.09z" fill="url(#n)"/><path d="m211.124 22.79-56.6 9.978-.806-4.574 56.6-9.977z" fill="#78a9ef"/><path d="m210.5 7.59 5.717-1.007 3.83 21.725-5.718 1.008z" fill="#a1c3fc"/><path d="M176.484 14.078a.5.5 0 0 1-.086-.992L246.718.687a.5.5 0 0 1 .174.984l-70.32 12.399a.43.43 0 0 1-.088.008zM9.323 41.175a.5.5 0 0 1-.042-.998l52.671-4.531c.266-.034.518.18.541.455s-.18.518-.455.541L9.367 41.173c-.015.002-.029.002-.044.002z" fill="#1d72d8"/><path d="m40.617 48.148 56.6-9.977.806 4.573-56.6 9.977z" fill="#78a9ef"/><path d="m40.636 59.932-5.717 1.007-3.83-21.724 5.718-1.008z" fill="#a1c3fc"/><path d="M.499 45.11a.5.5 0 0 1-.086-.992l70.32-12.399a.5.5 0 0 1 .174.984L.587 45.102a.524.524 0 0 1-.088.008z" fill="#1d72d8"/><g fill="#a1c3fc"><path d="m123.099 41.63 8.402-1.481a3.864 3.864 0 0 0 3.134-4.476l-1-5.674a3.864 3.864 0 0 0-4.476-3.134l-8.402 1.481a3.864 3.864 0 0 0-3.134 4.476l1 5.674a3.865 3.865 0 0 0 4.476 3.134z"/><path d="m130.804 44.028-5.717 1.008-3.83-21.725 5.717-1.008zm89.945-19.616-8.402 1.481a3.864 3.864 0 0 1-4.476-3.134l-1-5.674a3.864 3.864 0 0 1 3.134-4.476l8.402-1.481a3.864 3.864 0 0 1 4.476 3.134l1 5.674a3.865 3.865 0 0 1-3.134 4.476zM32.931 57.529l8.402-1.481a3.864 3.864 0 0 0 3.134-4.476l-1-5.674a3.864 3.864 0 0 0-4.476-3.134l-8.402 1.481a3.864 3.864 0 0 0-3.134 4.476l1 5.674a3.865 3.865 0 0 0 4.476 3.134z"/></g><path d="M134.67 136.225a.253.253 0 0 0-.329.146.253.253 0 0 0 .146.329.254.254 0 1 0 .183-.475zm-26.087.953a.26.26 0 0 0-.343-.134.239.239 0 0 0-.133.309c.003.01.009.021.014.031a.25.25 0 0 0 .326.138.265.265 0 0 0 .136-.344zm13.242.367a.284.284 0 0 0-.275-.255.264.264 0 0 0-.255.275.264.264 0 0 0 .275.255.283.283 0 0 0 .255-.275zm10.285-32.398a.495.495 0 0 0-.478-.503.473.473 0 0 0-.505.434l-.001.026a.495.495 0 0 0 .478.503.483.483 0 0 0 .506-.46zm-.424 11.799a.488.488 0 0 0-.484-.496.488.488 0 0 0-.496.471.482.482 0 0 0 .459.505.524.524 0 0 0 .521-.48zm-.436 11.818a.48.48 0 0 0-.459-.501h-.016a.473.473 0 0 0-.505.434l-.001.026a.524.524 0 0 0 .48.521.5.5 0 0 0 .501-.48zm23.694-12.83a.482.482 0 0 0-.634.26.485.485 0 0 0 .889.386.497.497 0 0 0-.255-.646zm-4.914 10.748a.484.484 0 1 0 .255.646.5.5 0 0 0-.255-.646zm-40.002-12.497a.494.494 0 0 0-.635-.28.475.475 0 0 0-.283.616.469.469 0 0 0 .584.313c.012-.003.023-.008.037-.011a.52.52 0 0 0 .297-.638zm4.121 11.084a.52.52 0 0 0-.637-.297.494.494 0 0 0-.28.634.484.484 0 0 0 .625.284l.006-.002a.477.477 0 0 0 .288-.61l-.002-.009zm4.114 11.064a.466.466 0 0 0-.614-.282.485.485 0 0 0-.307.613l.008.023a.49.49 0 1 0 .913-.354zm47.09-15.302a.435.435 0 1 0 .156.594.443.443 0 0 0-.156-.594zm-43.801-5.56a.46.46 0 0 0-.551-.312.42.42 0 0 0-.302.513l.006.018a.431.431 0 0 0 .524.317c.003 0 .005-.002.008-.003a.458.458 0 0 0 .315-.533zm2.701 10.176a.433.433 0 0 0-.53-.299.42.42 0 0 0-.302.513l.006.018a.434.434 0 0 0 .525.319c.003 0 .005-.002.008-.003a.447.447 0 0 0 .293-.548zm2.726 10.207a.434.434 0 0 0-.525-.319l-.008.003a.411.411 0 0 0-.297.533.434.434 0 0 0 .525.319c.003 0 .005-.002.008-.003a.447.447 0 0 0 .297-.533zm17.34-16.341a.44.44 0 0 0-.386-.482.43.43 0 0 0-.485.368.458.458 0 0 0 .371.503.456.456 0 0 0 .5-.389zm-1.402 10.46a.42.42 0 0 0-.341-.483c-.008-.001-.017-.001-.025-.004a.43.43 0 0 0-.485.368.458.458 0 0 0 .371.503.44.44 0 0 0 .48-.384zm-37.779-.698a.412.412 0 0 0-.597-.074.436.436 0 0 0-.098.606l.009.012a.448.448 0 0 0 .615.07.43.43 0 0 0 .083-.6c-.002-.004-.008-.008-.012-.014zm6.418 8.38a.447.447 0 0 0-.618-.088.441.441 0 0 0 .53.704.43.43 0 0 0 .104-.597l-.016-.019zm53.631-27.821a.523.523 0 0 0-.452-.561.504.504 0 0 0-.563.433.517.517 0 0 0 .452.561.503.503 0 0 0 .563-.433zm-1.49 12.089a.502.502 0 1 0-.997-.13.502.502 0 0 0 .997.13zm-48.013 1.251a.53.53 0 0 0-.725-.087.508.508 0 0 0 .633.795.516.516 0 0 0 .092-.708zm7.498 9.595a.517.517 0 0 0-.708-.09.504.504 0 1 0 .708.09zm18.284-15.902a.537.537 0 0 0-.629-.353.51.51 0 0 0-.336.626.494.494 0 0 0 .602.358l.01-.003a.509.509 0 0 0 .353-.628zm3.257 11.745a.511.511 0 0 0-.628-.354h-.001a.499.499 0 1 0 .629.354zm3.985-15.909a.5.5 0 1 0-.374.615.509.509 0 0 0 .374-.615zm2.756 11.816a.51.51 0 0 0-.614-.372.517.517 0 0 0-.376.597.536.536 0 0 0 .617.39.523.523 0 0 0 .373-.615zm-22.69 3.876a.513.513 0 0 0-.71-.107.497.497 0 0 0-.11.693c.148.226.452.29.677.141.006-.004.013-.008.017-.014a.502.502 0 0 0 .134-.7c-.001-.004-.005-.009-.008-.013z" fill="#fff"/><path d="M96.154 30.621a.5.5 0 0 1-.129-.983l51.044-13.757a.5.5 0 0 1 .259.966L96.284 30.604a.484.484 0 0 1-.13.017z" fill="#1d72d8"/><path d="M86.516 29.942a.5.5 0 0 1-.086-.992l70.32-12.399a.5.5 0 1 1 .174.984l-70.32 12.399a.443.443 0 0 1-.088.008z" fill="#1d72d8"/></svg></g><g transform="translate(124.0 116.0) rotate(0.0 227.0 62.5) scale(0.48455145370772584 0.4864835412888311)"><svg width="936.949" height="256.946" viewBox="0 0 936.949 256.946"><path d="M715.496 82.317h20.805c26.459 0 47.908-21.449 47.908-47.908V9.023h-32.066c-20.239 0-36.647 16.407-36.647 36.647z" fill="#428dfc"/><path d="M925.061 9.023H784.159a113.74 113.74 0 0 0-29.562 3.915h172.03v10.961L747.653 57.024l.052 24.146 177.356-43.178c16.042-3.979 15.659-28.969 0-28.969z" fill="#428dfc"/><path d="M926.627 13.143c-1.583 0-119.129-.684-186.318-.684 32.448.763 19.85 42.755 19.85 42.755l166.467-31.109c7.308-.001 7.308-10.962.001-10.962z" fill="#d6d7d8"/><path d="M792.73 3.366h28.772v4.11H792.73zm86.316 0h18.203v4.11h-18.203z" fill="#428dfc"/><path d="m775.608 21.021 145.127-4.737L776.71 34.749c-4.121.528-7.77-2.682-7.77-6.838a6.893 6.893 0 0 1 6.668-6.89z" fill="#fff"/><g fill="#428dfc"><path d="M905.487 36.565v-3c1.495 0 2.744-.995 3.714-2.957.973-1.97 1.531-4.769 1.531-7.679 0-5.156-1.839-10.636-5.245-10.636v-3c5.665 0 8.245 7.068 8.245 13.636 0 3.405-.654 6.604-1.842 9.008-1.474 2.985-3.747 4.628-6.403 4.628zM856.356 51.02v-3c3.431 0 5.552-2.836 6.728-5.216 1.611-3.261 2.535-7.871 2.535-12.647 0-8.877-3.182-17.863-9.263-17.863v-3c8.426 0 12.263 10.814 12.263 20.863 0 5.299-1.011 10.263-2.846 13.977-2.226 4.505-5.483 6.886-9.417 6.886zm-83.967 15.267v-3c5.086 0 8.196-4.134 9.909-7.601 2.318-4.694 3.596-11.05 3.596-17.896 0-12.671-4.639-25.497-13.505-25.497v-3c11.34 0 16.505 14.771 16.505 28.497 0 7.298-1.387 14.125-3.906 19.224-2.998 6.067-7.354 9.273-12.599 9.273zm-60.738-51.312H351.725a290.525 290.525 0 0 0-75.514 10h439.44v28L61.85 173.983 6.676 222.776c-15.246 13.483-2.241 38.375 17.534 33.56L711.651 88.975c38.965-8.185 40-74 0-74z"/></g><path d="M715.651 24.975h-439.44a290.612 290.612 0 0 0-117.016 62.92L61.85 173.983 715.651 52.975c18.666 0 18.666-28 0-28z" fill="#d6d7d8"/><path d="M373.618 0h73.496v10.499h-73.496zm220.489 0h46.498v10.499h-46.498z" fill="#428dfc"/><path d="m323.943 47.053 376.659-14.054L265.3 87.586c-7.832.982-11.67-9.245-5.126-13.658l17.44-11.762a88.769 88.769 0 0 1 46.329-15.113z" fill="#fff"/><path d="M661.651 83.475v-5c5.441 0 8.813-4.511 10.682-8.295 2.573-5.208 4.05-12.572 4.05-20.205 0-14.163-5.061-28.5-14.731-28.5v-5c13.557 0 19.731 17.365 19.731 33.5 0 8.498-1.622 16.46-4.566 22.42-3.583 7.249-8.828 11.08-15.166 11.08zm-125.503 36.923v-5c9.446 0 15.208-7.648 18.378-14.064 4.266-8.633 6.614-20.315 6.614-32.896 0-23.337-8.585-46.962-24.992-46.962v-5c20.606 0 29.992 26.936 29.992 51.962 0 25.025-9.386 51.96-29.992 51.96zm-214.49 38.998v-5c13.677 0 21.963-10.962 26.507-20.157 6.013-12.17 9.324-28.614 9.324-46.303 0-33.027-12.308-66.461-35.831-66.461v-5c28.054 0 40.831 37.043 40.831 71.461 0 34.417-12.777 71.46-40.831 71.46z" fill="#428dfc"/></svg></g><g transform="translate(853.0 297.0) rotate(0.0 68.0 68.0) scale(0.4533333333333333 0.4533333333333333)"><svg width="300" height="300" viewBox="0 0 300 300"><circle cx="192.103" cy="276.35" fill="#d9e021" r="17.156"/><path d="m22.052 38.653-5.228 16.821L.002 50.246l5.229-16.822z" fill="#a1c3fc"/><path d="m154.476 71.563-14.236 45.801-45.802-14.236 14.236-45.801z" fill="#e94a47"/><path d="m86.793 245.966-14.236 45.802-45.802-14.236 14.236-45.802z" fill="#1d72d8"/><g fill="#23286b"><path d="M68.404 147.546a1.904 1.904 0 0 1-1.731-1.106C44.218 98.065 58.068 35.695 98.883 1.364a1.909 1.909 0 0 1 2.455 2.921C61.797 37.544 48.381 97.97 70.135 144.839a1.908 1.908 0 0 1-.926 2.531 1.973 1.973 0 0 1-.805.176zm126.345 70.048a1.905 1.905 0 0 1-1.319-3.278c27.628-26.637 76.114-28.669 105.865-4.415.82.667.942 1.864.274 2.68a1.903 1.903 0 0 1-2.68.274c-28.341-23.091-74.505-21.162-100.814 4.209-.373.351-.849.53-1.326.53z"/></g></svg></g><g transform="translate(185.0 272.0) rotate(11.090462859520086 80.5 68.0) scale(0.5366666666666666 0.5375494071146245)"><svg width="300" height="253" viewBox="0 0 300 253"><path d="M15.652 104.241 0 97.009 7.225 81.34l15.652 7.233z" fill="#a1c3fc"/><path d="m134.833 123.971-42.618-19.694 19.673-42.662 42.619 19.694z" fill="#e94a47"/><path d="m280.334 62.356-42.618-19.693L257.389 0l42.619 19.694z" fill="#1d72d8"/><g fill="#23286b"><path d="M208.486 81.834a1.873 1.873 0 0 1-1.574-.863c-27.21-42.667-84.119-63.428-132.379-48.307a1.858 1.858 0 0 1-2.336-1.225 1.861 1.861 0 0 1 1.224-2.338c49.809-15.615 108.553 5.823 136.644 49.86a1.87 1.87 0 0 1-1.579 2.873zM12.464 253c-.041 0-.078 0-.119-.004a1.865 1.865 0 0 1-1.742-1.979c2.38-37.532 36.079-71.025 73.586-73.139 1.048-.138 1.91.732 1.966 1.759a1.864 1.864 0 0 1-1.757 1.968c-35.717 2.017-67.807 33.909-70.075 69.644A1.867 1.867 0 0 1 12.464 253z"/></g></svg></g><g transform="translate(269.0 439.0) rotate(0.0 13.5 13.5) scale(0.27 0.27)"><svg width="100" height="100" viewBox="0 0 100 100"><path d="M98.663 98.531c-33.052 1.963-65.546 1.955-97.487 0-1.46-34.57-1.676-67.372 0-97.487a1138.419 1138.419 0 0 1 97.487 0c1.849 31.48 1.718 64.047 0 97.487z" fill="#D62929"/></svg></g><g transform="translate(1005.0 428.0) rotate(14.119220703518488 7.5 7.5) scale(0.15 0.15)"><svg width="100" height="100" viewBox="0 0 100 100"><path d="M98.663 98.531c-33.052 1.963-65.546 1.955-97.487 0-1.46-34.57-1.676-67.372 0-97.487a1138.419 1138.419 0 0 1 97.487 0c1.849 31.48 1.718 64.047 0 97.487z" fill="#e94a47"/></svg></g><g transform="translate(669.0 139.0) rotate(28.023960747478455 9.5 9.5) scale(0.19 0.19)"><svg width="100" height="100" viewBox="0 0 100 100"><path d="M98.663 98.531c-33.052 1.963-65.546 1.955-97.487 0-1.46-34.57-1.676-67.372 0-97.487a1138.419 1138.419 0 0 1 97.487 0c1.849 31.48 1.718 64.047 0 97.487z" fill="#e94a47"/></svg></g><g transform="translate(304.0 364.0) rotate(25.334027911100588 7.0 7.0) scale(0.14 0.14)"><svg width="100" height="100" viewBox="0 0 100 100"><path d="M98.663 98.531c-33.052 1.963-65.546 1.955-97.487 0-1.46-34.57-1.676-67.372 0-97.487a1138.419 1138.419 0 0 1 97.487 0c1.849 31.48 1.718 64.047 0 97.487z" fill="#e94a47"/></svg></g><g transform="translate(950.0 288.0) rotate(338.8378067895152 8.0 8.0) scale(0.16 0.16)"><svg width="100" height="100" viewBox="0 0 100 100"><path fill="#23286B" d="M98.663 98.531c-33.052 1.963-65.546 1.955-97.487 0-1.46-34.57-1.676-67.372 0-97.487a1138.419 1138.419 0 0 1 97.487 0c1.849 31.48 1.718 64.047 0 97.487z"/></svg></g><g transform="translate(264.0 360.0) rotate(326.71833379950135 7.0 7.0) scale(0.14 0.14)"><svg width="100" height="100" viewBox="0 0 100 100"><path fill="#23286B" d="M98.663 98.531c-33.052 1.963-65.546 1.955-97.487 0-1.46-34.57-1.676-67.372 0-97.487a1138.419 1138.419 0 0 1 97.487 0c1.849 31.48 1.718 64.047 0 97.487z"/></svg></g></svg>