<svg xmlns="http://www.w3.org/2000/svg" viewBox="0 0 1080 1080" width="1080" height="1080"><g transform="translate(275.0 89.0) rotate(89.99999999999979 300.5 300.5) scale(0.838249857037254 0.838249857037254)"><svg width="716.97" height="716.97" viewBox="0 0 716.97 716.97"><circle cx="358.49" cy="358.49" fill="#a1c3fc" r="358.45"/><g fill="#78a9ef"><path d="M714.27 402.14a357.16 357.16 0 0 0-64.65-252.75 222 222 0 0 0-41.73.18c-38.59 3.78-93.18 20.29-137 37.91-49.13 19.75-69.18 79.43-40.49 123.94.44.68.89 1.36 1.35 2 14.6 21.28 37.16 35.71 54.09 55.19 56.91 65.44 40.39 173.14 98 237.93a100.73 100.73 0 0 0 17.41 15.62 357 357 0 0 0 113.02-220.02zM489.83 532.71c-5.21-17.84-15.12-36.08-32.36-43-15.54-6.24-33.36-1.78-48.55 5.28-47.72 22.16-80.14 66.83-116.64 104.74-18.4 19.11-35.49 34.41-66.08 41.72-60.57 14.48-120.44-28.73-120.44-28.73 7.57 8.2 23.77 21.63 23.77 21.63a359 359 0 0 0 335.23 66.57c24.7-52.46 41.3-112.56 25.07-168.21zm-436.9-99.38c18.76-.85 37.8-6.38 52.13-18.52 25-21.16 30.81-57.4 29.51-90.12s-8-65.87-1.16-97.91c3.93-18.53 14-37.63 31.82-44.08 40.29-14.58 80.79 44 120.78 28.66 20.07-7.7 29-30.79 33.87-51.73A369.85 369.85 0 0 0 321.4 1.88C158.82 18.65 23.46 145.72 2.71 314.83a358.11 358.11 0 0 0 3.68 111.34 121.92 121.92 0 0 0 46.54 7.16z"/></g></svg></g><g transform="translate(101.0 137.0) rotate(0.0 201.5 444.5) scale(1.4816176470588236 1.4816666666666667)"><svg width="272" height="600" viewBox="0 0 272 600"><linearGradient id="c" gradientTransform="matrix(-.0738 .0066 -.0066 -.0738 -150.0779 100.5545)" gradientUnits="userSpaceOnUse" x1="-4756.46" x2="-3338.23" y1="-2546.282" y2="-2091.267"><stop offset="0" stop-color="#ffbeb6"/><stop offset="1" stop-color="#f29b94"/></linearGradient><linearGradient id="a"><stop offset="0" stop-color="#E94A47"/><stop offset="1" stop-color="#D03147"/></linearGradient><linearGradient xmlns:xlink="http://www.w3.org/1999/xlink" id="d" gradientUnits="userSpaceOnUse" x1="0" x2="136.92" xlink:href="#a" y1="573.246" y2="573.246"/><linearGradient xmlns:xlink="http://www.w3.org/1999/xlink" id="e" gradientTransform="matrix(-.0741 0 0 .0741 -210.6924 -49.4972)" gradientUnits="userSpaceOnUse" x1="-4568.57" x2="-2255.215" xlink:href="#a" y1="9323.377" y2="11458.783"/><linearGradient id="b"><stop offset=".129" stop-color="#428dfc"/><stop offset=".999" stop-color="#1d72d8"/></linearGradient><linearGradient xmlns:xlink="http://www.w3.org/1999/xlink" id="f" gradientTransform="matrix(-.0741 -.00016762 .00016762 .0714 -234.9459 -45.6689)" gradientUnits="userSpaceOnUse" x1="-1788.265" x2="-4482.031" xlink:href="#b" y1="4502.677" y2="6173.493"/><linearGradient xmlns:xlink="http://www.w3.org/1999/xlink" id="g" gradientTransform="matrix(-.0673 .0308 .03 .0647 -272.9906 -32.0781)" gradientUnits="userSpaceOnUse" x1="-1292.071" x2="-3882.331" xlink:href="#b" y1="6682.075" y2="8288.69"/><linearGradient id="h" gradientUnits="userSpaceOnUse" x1="76.863" x2="93.866" y1="101.039" y2="320.492"><stop offset="0" stop-color="#23286b"/><stop offset="1" stop-color="#151a4f"/></linearGradient><linearGradient id="i" gradientUnits="userSpaceOnUse" x1="130.323" x2="145.087" y1="92.163" y2="65.949"><stop offset="0" stop-color="#ffbeb6"/><stop offset="1" stop-color="#f2a19c"/></linearGradient><path d="M154.244 241.244c7.466 2.36 14.105 4.486 18.755 5.833 18.72 5.452 30.023 9.077 40.944 20.835 10.911 11.644 11.237 12.266 21.277 18.5s28.559-1.191 28.485-2.028c-.076-.838-25.021-14.479-9.194-9.188 15.827 5.29 22.555-3.95 12.585-4.703-9.931-.756-25.453-10.333-29.541-13.112-4.24-2.765-.49-5.444 9.393-5.221 9.893.337 12.072-6.153 5.814-5.321-6.205.981-15.032-4.134-27.975-2.967-12.943 1.166-25.154-8.288-47.368-19.297-2.85-1.393-5.762-3.049-8.522-4.72z" fill="url(#c)"/><path d="M19.195 546.492 0 599.996l136.92.004s-7.02-13.541-30.425-23.571c-23.404-10.03-42.121-29.801-42.121-29.801z" fill="url(#d)"/><path d="m142.928 546.216-19.209 53.779 136.92.005s-7.02-13.541-30.425-23.571c-23.404-10.03-45.133-30.592-45.133-30.592z" fill="url(#e)"/><path d="M64.374 546.626c11.529-19.675 61.886-130.727 66.993-157.141 4.445-23.062 5.275-49.866 4.092-74.407l-1.123-101.622-71.615-5.685c-3.479 4.576-6.708 28.329 6.605 103.451C79.637 369.4 56.042 374.1 45.65 393.843c-10.438 19.727-12.151 28.528-15.841 47.485-4.204 21.591-16.831 28.092-21.517 49.743-5.159 23.83-.955 47.417.818 55.48z" fill="url(#f)"/><path d="M51.758 218.411c-1.244 5.612-10.077 50.604 38.861 104.311 32.434 35.594 17.856 48.982 17.385 79.975-.27 17.771 4.963 27.257 9.545 46.017 5.219 21.368-9.545 24.104-4.909 53.66 4.659 29.696 15.647 44.044 15.647 44.044l56.793-.58s9.947-138.206 2.898-166.901c-5.615-22.807-19.95-70.93-31.293-92.723l-39.58-88.201z" fill="url(#g)"/><path d="M96.772 248.452a.269.269 0 0 0 .355-.143.269.269 0 0 0-.143-.355.269.269 0 0 0-.355.143.271.271 0 0 0 .143.355zm2.553-6.12a.3.3 0 0 0 .375-.145.277.277 0 0 0-.163-.353.255.255 0 0 0-.343.114c-.004.009-.009.018-.012.028a.271.271 0 0 0 .143.356zm2.57-6.122a.269.269 0 0 0 .355-.143.3.3 0 0 0-.145-.375.302.302 0 0 0-.371.164c-.052.143.021.3.161.354zm22.666 12.172a.28.28 0 0 0 .36.158.251.251 0 0 0 .152-.324l-.014-.033a.268.268 0 1 0-.498.199zm-37.333-10.668a.266.266 0 0 0 .38-.372.266.266 0 0 0-.376-.004.254.254 0 0 0-.024.357l.02.019zm23.257 9.798a.3.3 0 0 0 .282.28.281.281 0 0 0-.002-.562.299.299 0 0 0-.28.282zm.021-6.634a.271.271 0 0 0 .28.262.262.262 0 0 0 .282-.241c0-.008.002-.015 0-.024a.288.288 0 0 0-.282-.28.3.3 0 0 0-.28.283zm-49.889 9.214a.514.514 0 0 0 .739.048.508.508 0 0 0 .053-.717l-.003-.003a.514.514 0 0 0-.739-.048.508.508 0 0 0-.053.717c.001.001.001.003.003.003zm9.49-8.242a.525.525 0 0 0 .791-.689l-.003-.003a.509.509 0 0 0-.717-.053l-.003.003a.538.538 0 0 0-.068.742zm28.268 39.757a.527.527 0 0 0 .49.552.501.501 0 0 0 .552-.443c.002-.009.002-.018.002-.028a.527.527 0 0 0-.49-.552.514.514 0 0 0-.554.471c0-.001 0 0 0 0zm.875-12.536a.522.522 0 1 0 1.042.066v-.003a.516.516 0 0 0-.471-.556.556.556 0 0 0-.571.493zm.892-12.56a.513.513 0 0 0 .471.551l.018.002a.501.501 0 0 0 .552-.443c.002-.009.002-.018.002-.028a.557.557 0 0 0-.493-.571.527.527 0 0 0-.55.489zm.875-12.536a.525.525 0 0 0 .491.551.525.525 0 0 0 .08-1.044h-.002a.523.523 0 0 0-.569.471v.022zM74.47 269.306a.516.516 0 1 0 .43-.94.515.515 0 0 0-.678.24.534.534 0 0 0 .248.7zm5.618-11.258a.516.516 0 1 0 .43-.94.515.515 0 0 0-.678.24.53.53 0 0 0 .248.7zm5.619-11.24a.528.528 0 1 0 .448-.957.528.528 0 0 0-.448.957zm5.614-11.277a.513.513 0 0 0 .694-.216l.008-.014a.514.514 0 0 0-.218-.696.514.514 0 0 0-.696.218c-.004.008-.008.015-.011.024a.492.492 0 0 0 .196.667.077.077 0 0 0 .027.017zm30.87 37.258c.096.27.393.413.664.321a.506.506 0 0 0 .325-.64l-.002-.006a.498.498 0 0 0-.61-.354l-.039.012a.555.555 0 0 0-.338.667zm-3.982-11.939c.101.268.39.416.667.34a.526.526 0 0 0 .321-.664.517.517 0 0 0-.655-.324l-.009.003a.506.506 0 0 0-.324.645zm-3.978-11.923a.5.5 0 0 0 .622.332l.024-.008a.516.516 0 0 0 .348-.642c-.003-.008-.004-.017-.008-.026a.521.521 0 1 0-.987.339c-.001.003.001.004.001.005zm-4-11.935c.096.27.393.413.664.321a.5.5 0 0 0 .332-.622l-.008-.024a.525.525 0 0 0-.649-.342.539.539 0 0 0-.339.667zm-46.649 26.516a.462.462 0 1 0 .494-.782.462.462 0 0 0-.494.782zm5.951-9.521a.468.468 0 0 0 .638-.145.465.465 0 0 0-.125-.642.464.464 0 0 0-.642.125l-.014.024a.453.453 0 0 0 .143.638zm5.763-9.795a.382.382 0 0 0 .188.274.466.466 0 0 0 .637-.145.475.475 0 0 0-.143-.654l-.004-.003a.468.468 0 0 0-.437-.033l-.018.003a.335.335 0 0 0-.182.175.398.398 0 0 0-.041.383zm6.139-9.245a.468.468 0 0 0 .489-.801.465.465 0 0 0-.638.145.474.474 0 0 0 .143.654c.005 0 .005.002.006.002zm28.544 36.056c.067.251.32.405.574.353a.45.45 0 0 0 .342-.535l-.004-.018a.462.462 0 0 0-.547-.357l-.008.002a.485.485 0 0 0-.357.555zm-2.507-10.922a.46.46 0 0 0 .554.337.45.45 0 0 0 .342-.535l-.004-.018a.462.462 0 0 0-.547-.357l-.008.002a.475.475 0 0 0-.337.571zm-2.53-10.958c.053.25.298.41.547.357l.008-.002a.438.438 0 0 0 .337-.554.462.462 0 0 0-.547-.357l-.008.002a.471.471 0 0 0-.337.554zm-2.526-10.92a.467.467 0 0 0 .908-.22.485.485 0 0 0-.557-.355.493.493 0 0 0-.351.575zm-43.529-1.562a.455.455 0 0 0 .634.111l.017-.012a.44.44 0 0 0 .117-.612c-.004-.008-.011-.015-.017-.024a.462.462 0 0 0-.656-.116.478.478 0 0 0-.095.653zm27.018 29.242a.472.472 0 0 0 .393.529.46.46 0 0 0 .53-.375.488.488 0 0 0-.376-.549.483.483 0 0 0-.547.395zm1.867-11.077a.446.446 0 0 0 .374.53.46.46 0 0 0 .53-.375.488.488 0 0 0-.376-.549.471.471 0 0 0-.528.394zm1.848-11.075a.46.46 0 0 0 .372.532.46.46 0 0 0 .532-.372v-.003a.46.46 0 0 0-.904-.157zm38.319 13.179c.135.202.41.253.61.117.008-.004.015-.011.024-.017a.463.463 0 0 0 .117-.656.476.476 0 0 0-.652-.098.455.455 0 0 0-.111.634.04.04 0 0 0 .012.02zm-6.525-9.146a.478.478 0 0 0 .655.116.47.47 0 0 0-.537-.771.455.455 0 0 0-.131.631c.002.01.007.017.013.024zm-57.101-12.081a.278.278 0 1 0-.017-.392.288.288 0 0 0 .017.392zm26.026 9.583a.271.271 0 1 0 .542-.018.271.271 0 0 0-.542.018zm-.24-6.617a.287.287 0 0 0 .3.259.271.271 0 0 0 .262-.279.262.262 0 0 0-.261-.262h-.02a.277.277 0 0 0-.28.276l-.001.006zm-12.616 1.128a.296.296 0 0 0 .354-.163.267.267 0 0 0-.147-.348l-.014-.004a.263.263 0 0 0-.345.137l-.009.026a.276.276 0 0 0 .161.352zm25.187-.819a.271.271 0 0 0 .496-.218.251.251 0 0 0-.324-.152l-.033.014a.265.265 0 0 0-.141.349l.002.007zm-43.083 3.294c.139.09.323.051.413-.087l.004-.008a.306.306 0 0 0-.078-.424c-.006-.004-.012-.009-.02-.012a.298.298 0 0 0-.413.087l-.004.008a.321.321 0 0 0 .098.436zm4.06-6.366a.316.316 0 0 0 .438-.095.316.316 0 0 0-.095-.438l-.004-.003a.298.298 0 0 0-.413.087l-.004.008a.304.304 0 0 0 .059.426c.005.006.013.011.019.015zm27.135 11.761a.29.29 0 0 0 .334.238c.012-.002.024-.004.036-.008a.31.31 0 0 0 .231-.369.344.344 0 0 0-.372-.25.32.32 0 0 0-.229.387zm-1.642-7.38a.32.32 0 0 0 .387.229h.002a.31.31 0 0 0 .231-.369.344.344 0 0 0-.372-.25.344.344 0 0 0-.248.39zm-13.844 3.925a.331.331 0 0 0 .12.057.306.306 0 0 0 .357-.247l.002-.011a.319.319 0 0 0-.238-.361l-.018.003a.306.306 0 0 0-.357.246l-.002.011a.287.287 0 0 0 .136.302zm1.2-7.754a.304.304 0 0 0 .237.362c.17.03.336-.073.381-.24a.346.346 0 0 0-.259-.378.312.312 0 0 0-.359.256zm27.019 1.708c.098.14.292.175.434.077l.009-.006a.306.306 0 0 0 .073-.423.299.299 0 0 0-.408-.103l-.017.011a.323.323 0 0 0-.091.444zm-40.162 37.282a.557.557 0 0 0 .46.613.536.536 0 0 0 .614-.441.55.55 0 0 0-.46-.613.535.535 0 0 0-.614.441zm2.023-12.808a.533.533 0 0 0 .441.614.533.533 0 0 0 .614-.441.535.535 0 0 0-1.055-.173zm2.001-12.805a.55.55 0 0 0 .46.613.534.534 0 0 0 .131-1.059.536.536 0 0 0-.591.446zm2.022-12.808a.533.533 0 1 0 1.055.173.534.534 0 1 0-1.055-.173zm47.1 26.014a.565.565 0 0 0 .767.119.542.542 0 0 0-.646-.868.552.552 0 0 0-.121.749zm-7.628-10.478a.55.55 0 0 0 .749.122.537.537 0 1 0-.624-.874l-.004.003a.545.545 0 0 0-.121.749zm-7.63-10.477a.543.543 0 0 0 .749.122.565.565 0 0 0 .119-.767.542.542 0 0 0-.868.645zm-47.583-3.163a.543.543 0 1 0-.178-.746.556.556 0 0 0 .178.746zm35.187 29.898a.573.573 0 0 0 .657.398.542.542 0 0 0 .379-.654.526.526 0 0 0-.627-.402l-.011.003a.54.54 0 0 0-.398.655c-.002 0-.002 0 0 0zm-3.043-12.615a.54.54 0 0 0 .655.398h.002a.526.526 0 0 0 .383-.634.529.529 0 0 0-.636-.4.529.529 0 0 0-.4.636c-.004-.002-.004 0-.004 0zm-3.038-12.595a.526.526 0 0 0 .627.402l.011-.003a.542.542 0 1 0-.642-.419l.004.02zm-33.28-13.144c.25.151.574.09.75-.141a.554.554 0 0 0-.159-.749.514.514 0 0 0-.733.142.533.533 0 0 0 .142.748zm31.504 42.522a.531.531 0 1 0 .417-.642.543.543 0 0 0-.417.642zM78.483 260.3c.06.292.348.479.64.419a.55.55 0 0 0 .422-.622.57.57 0 0 0-.643-.437.554.554 0 0 0-.419.64zm-2.505-12.672c.06.292.348.479.64.419a.532.532 0 0 0-.2-1.044.556.556 0 0 0-.44.625zm-2.486-12.672c.045.28.307.473.588.428l.033-.006a.536.536 0 0 0 .422-.622.531.531 0 0 0-1.045.193l.002.007zm-16.836 18.145a.526.526 0 0 0 .424.618.538.538 0 0 0 .638-.407.547.547 0 0 0-.426-.636.555.555 0 0 0-.636.425zm2.547-12.673a.532.532 0 1 0 1.041.225l.003-.012a.555.555 0 0 0-.426-.636.526.526 0 0 0-.618.423zm43.559 16.566c.17.246.506.307.752.14a.527.527 0 0 0 .141-.733.52.52 0 0 0-.736-.161.539.539 0 0 0-.169.74c.006.005.009.01.012.014zm-7.159-10.748c.17.246.506.307.752.14a.527.527 0 0 0 .141-.733.52.52 0 0 0-.736-.161.539.539 0 0 0-.169.74c.006.005.009.01.012.014zm-7.161-10.747c.17.246.506.307.752.14a.527.527 0 0 0 .141-.733.537.537 0 0 0-.9.584c.005.002.006.006.007.009zm-7.178 15.174a.404.404 0 0 0 .746-.308.384.384 0 0 0-.534-.207.398.398 0 0 0-.212.515zm-3.829-8.938a.407.407 0 1 0 .744-.328.4.4 0 0 0-.522-.214c-.004.002-.009.003-.012.006a.415.415 0 0 0-.21.536zm-16.816 7.964a.41.41 0 0 0 .412.395.424.424 0 0 0 .395-.412.4.4 0 0 0-.407-.395h-.003a.389.389 0 0 0-.395.383c-.002.009-.002.018-.002.029zm-.128-9.75a.429.429 0 0 0 .413.412.401.401 0 0 0 .395-.407v-.003a.387.387 0 0 0-.379-.396h-.014a.4.4 0 0 0-.414.39l-.001.004zm34.614-4.358a.39.39 0 0 0 .554.006l.009-.009a.396.396 0 0 0 .017-.56l-.021-.021a.405.405 0 0 0-.559.584zm-30.71 1.226a.361.361 0 0 0 .502.1.331.331 0 0 0 .102-.483.339.339 0 0 0-.487-.12.353.353 0 0 0-.117.503z" fill="#fff" opacity=".86"/><path d="M139.313 143.268c0 .343.015.687.015 1.029l-14.848 89.494c-4.212.312-8.293.535-12.243.671-75.629 2.526-101.94-26.983-101.94-26.983-6.504-60.344 32.207-68.298 42.22-81.181 13.492-17.343 17.578-27.56 41.113-43.032 23.551-15.472 40.473-18.732 40.473-18.732 8.75 17.64 15.971 15.051 15.971 15.051s-11.182 38.183-10.761 63.683z" fill="url(#h)"/><path d="m187.507 208.042-21.773 70.497s-24.924-5.038-35.343-23.722c-6.254-11.245-12.228-16.891-18.155-20.354-5.162-3.026-10.279-4.383-15.519-6.348-11.261-4.212-33.907-20.042-26.078-58.191 7.83-38.134 24.393-68.08 63.463-105.388l15.971 15.051s-11.183 38.181-10.762 63.681c0 .343.015.687.015 1.029.483 24.721 3.213 33.439 20.963 45.823 14.055 9.796 27.218 17.922 27.218 17.922z" fill="#23286b"/><path d="m155.83 62.509-.047.094a130.177 130.177 0 0 0-5.709 16.985s-17.343 5.957-15.971-15.051a23 23 0 0 0 3.197-7.253 59.327 59.327 0 0 0 6.504 2.48 51.393 51.393 0 0 0 6.988 2.09c.256.072.516.13.78.172.376.089.755.156 1.139.203.05.017.103.027.156.032.981.148 1.971.23 2.963.248z" fill="url(#i)"/><path d="M178.718 56.731s-12.235 22.773-41.398.565c.055.017-.05-.036 0 0 0 0 4.865-6.906-.253-11-5.094-4.106-8.664-10.065-3.06-14.326s6.781 3.308 13.091 2.174c6.334-1.146 13.427-9.018 13.427-9.018s12.49 9.107 26.361 8.623c-.204 2.149-.917 10.717.657 15.572 1.817 5.571-1.285 8.133-8.825 7.41z" fill="#ffbeb6"/><path d="M176.85 63.387a6.22 6.22 0 0 1-10.159-4.196c-.098-.942 1.356-1.27 1.454-.315a4.736 4.736 0 0 0 7.697 3.415c.752-.584 1.764.506 1.008 1.096z" fill="#1c2868"/><path d="M216.734 13.401c-4.159 13.753-17.741 22.403-31.962 20.357 10.972.371 23.193-4.782 30.964-25.068L114.895 0s-6.177 15.549-.513 30.835c4.93 13.303 18.777 23.799 22.939 26.462 0 0 4.863-6.903-.246-11.005-5.108-4.101-8.679-10.06-3.074-14.324s6.784 3.314 13.107 2.17c6.323-1.143 13.424-9.018 13.424-9.018a53.207 53.207 0 0 0 14.427 6.942c16.465 8.444 36.858.908 43.156-18.245a.723.723 0 0 0-1.381-.416z" fill="#23286b"/></svg></g><g transform="translate(625.0 156.0) rotate(0.0 197.0 435.0) scale(1.9313725490196079 1.9333333333333333)"><svg width="204" height="450" viewBox="0 0 204 450"><linearGradient id="j" gradientUnits="userSpaceOnUse" x1="4215.206" y1="7106.845" x2="5460.914" y2="7106.845" gradientTransform="matrix(0.0741 0 0 0.0741 -267.5851 -94.8663)"><stop offset=".129" style="stop-color:#428dfc"/><stop offset=".999" style="stop-color:#1d72d8"/></linearGradient><path fill="url(#j)" d="m123.993 413.503 13.076 36.493-92.307.003s4.734-9.134 20.511-15.9c15.778-6.766 30.506-20.597 30.506-20.597l28.214.001"/><path fill="#428DFC" d="m189.96 413.482 13.076 36.493-92.307.003s4.734-9.134 20.511-15.9c15.778-6.766 30.506-20.597 30.506-20.597l28.214.001"/><linearGradient id="k" gradientUnits="userSpaceOnUse" x1="3684.691" y1="5969.877" x2="6286.547" y2="4769.02" gradientTransform="matrix(0.0741 0 0 0.0741 -267.5851 -94.8663)"><stop offset="0" style="stop-color:#23286b"/><stop offset="1" style="stop-color:#151a4f"/></linearGradient><path fill="url(#k)" d="M163.421 155.582a33.25 33.25 0 0 1-5.041 9.99 25.775 25.775 0 0 1-13.731 9.301s0 .24-6.058 1.482c-8.309 1.392-9.268 1.632-9.268 1.632l-16.292-.893-7.933 31.262c-3.934 18.208-10.753 40.5-11.107 62.5-.502 31.443 1.785 142.69 1.785 142.69h28.213c23.124-23.028 20.93-41.039 22.64-77.53 1.712-36.482 7.283-24.755 5.561-59.501-1.712-34.745-.847-27.793 10.278-77.312a104.111 104.111 0 0 0 .953-43.621z"/><path fill="#23286B" d="M190.942 362.919c-3.565-19.964-10.21-15.868-8.874-31.321 1.314-15.442-1.776-25.435-7.56-41.772-5.752-16.348-17.949-13.789-.2-67.814a116.554 116.554 0 0 0 2.125-66.715c-1.212.272-2.517.543-3.898.811l.049-.915s-2.449.769-6.276 1.989c-1.165.178-2.37.35-3.627.516-.098.254-.2.495-.302.74-15.452 4.958-42.864 13.945-41.485 14.876 1.914 1.295-4.899 47.77-4.899 47.77l-.001.001c-1.945 19.719-2.702 41.345-.946 60.114 2.219 23.611 46.697 132.324 46.697 132.324h28.222c-.003-.002 4.518-30.619.975-50.604z"/><path opacity=".86" fill="#FFF" d="M170.373 173.359a.191.191 0 0 0-.249.108.185.185 0 0 0 .09.245l.006.002a.191.191 0 0 0 .249-.108.195.195 0 0 0-.096-.247zm-4.262-1.749a.192.192 0 0 0-.249.109.192.192 0 0 0 .109.249.192.192 0 0 0 .249-.109.197.197 0 0 0-.109-.249zm-9.289 15.592a.188.188 0 0 0-.247-.099c-.096.041-.14.151-.099.247s.151.14.247.099a.19.19 0 0 0 .099-.247zm-1.769-4.243a.179.179 0 0 0-.228-.108l-.019.008a.194.194 0 0 0-.113.245c.048.096.16.14.26.101a.188.188 0 0 0 .1-.246zm8.281-3.217a.183.183 0 0 0-.261.003.183.183 0 0 0 .003.261c.073.072.19.071.261-.003a.175.175 0 0 0 .01-.248l-.013-.013zm-3.261-3.252a.186.186 0 0 0-.261.003.209.209 0 0 0-.054.109c-.01.06.012.122.056.164a.045.045 0 0 0 .036.018l.012.002a.167.167 0 0 0 .212-.023.187.187 0 0 0 .006-.266l-.007-.007zm21.671 11.597a.356.356 0 0 0-.512.034.352.352 0 0 0 .033.498l.002.002a.356.356 0 0 0 .512-.034.352.352 0 0 0-.033-.498c-.001.001-.001-.001-.002-.002zm-6.588-5.731a.35.35 0 0 0-.497.033l-.002.002a.364.364 0 0 0 .546.481.378.378 0 0 0-.047-.516zm-6.577-5.717a.365.365 0 0 0-.513.033.365.365 0 0 0 .033.513.365.365 0 0 0 .513-.033.356.356 0 0 0-.024-.504l-.009-.009zm-13.351 33.473a.367.367 0 0 0-.34.384c.01.191.174.339.364.329l.019-.001a.364.364 0 0 0 .338-.384.353.353 0 0 0-.381-.328zm-.618-8.708a.356.356 0 0 0-.326.385.364.364 0 0 0 .383.341.363.363 0 0 0 .34-.384.39.39 0 0 0-.397-.342zm-.605-8.705a.385.385 0 0 0-.34.396c.01.191.174.339.364.329l.019-.001a.356.356 0 0 0 .34-.37l-.001-.012a.365.365 0 0 0-.382-.342zm-.619-8.695a.357.357 0 0 0-.327.385v.001c.014.199.187.35.385.337a.363.363 0 0 0-.049-.723h-.009zm32.148-10.904a.362.362 0 1 0-.237.684.362.362 0 0 0 .237-.684zm-8.274-2.76a.345.345 0 0 0-.442.208c-.002.006-.003.012-.006.016a.354.354 0 1 0 .664.247l.008-.023a.345.345 0 0 0-.224-.448zm-4.912 31.084a.367.367 0 1 0-.178.488l.007-.003a.368.368 0 0 0 .171-.485zm-3.892-7.805a.366.366 0 1 0-.664.309.367.367 0 0 0 .488.178l.007-.003a.369.369 0 0 0 .169-.484zm-3.892-7.807a.382.382 0 0 0-.497-.16.367.367 0 0 0 .324.658.388.388 0 0 0 .173-.498zm-3.909-7.795a.358.358 0 1 0-.65.299l.008.016a.356.356 0 0 0 .485.159.342.342 0 0 0 .157-.474zm-21.783 25.844a.346.346 0 0 0-.441.211l-.008.026a.352.352 0 0 0 .221.447l.003.001a.364.364 0 0 0 .46-.223.386.386 0 0 0-.235-.462zm2.77-8.264a.358.358 0 0 0-.458.216l-.002.007a.365.365 0 0 0 .223.461.383.383 0 0 0 .462-.236.352.352 0 0 0-.221-.447l-.004-.001zm2.758-8.28a.364.364 0 0 0-.46.223.359.359 0 0 0 .219.458c.006.002.012.003.017.006a.345.345 0 0 0 .442-.208c.002-.006.003-.012.006-.016a.369.369 0 0 0-.224-.463zm35.424 10.129a.32.32 0 1 0-.542.341v.001c.094.15.293.195.442.099a.32.32 0 0 0 .1-.441zm-4.125-6.601a.32.32 0 1 0-.1.443.313.313 0 0 0 .108-.43l-.008-.013zm-4.122-6.614a.227.227 0 0 0-.127-.122l-.012-.002a.328.328 0 0 0-.407.475l.002.003a.324.324 0 0 0 .442.1.27.27 0 0 0 .131-.19.277.277 0 0 0-.029-.264zm-4.124-6.601a.323.323 0 0 0-.442-.1.325.325 0 1 0 .338.555.328.328 0 0 0 .104-.452v-.003zm-20.13 25.071a.32.32 0 0 0-.384.24l-.001.006a.31.31 0 0 0 .22.381l.014.003a.34.34 0 0 0 .398-.245.337.337 0 0 0-.247-.385zm1.752-7.585a.32.32 0 0 0-.384.24l-.001.006a.31.31 0 0 0 .22.381l.014.003a.32.32 0 0 0 .384-.233.332.332 0 0 0-.233-.397zm1.752-7.585a.32.32 0 0 0-.384.24l-.001.006a.303.303 0 0 0 .204.377c.01.003.019.006.03.007a.32.32 0 0 0 .384-.24l.001-.006a.327.327 0 0 0-.234-.384zm32.083-8.725a.32.32 0 0 0-.446.071l-.007.009a.304.304 0 0 0 .07.44.315.315 0 0 0 .443-.056l.009-.012a.333.333 0 0 0-.069-.452zm-6.338-4.525a.338.338 0 0 0-.453.081.327.327 0 0 0 .081.454.326.326 0 0 0 .451-.097.33.33 0 0 0-.079-.438zm-12.697 24.981a.34.34 0 0 0-.262.381.32.32 0 0 0 .367.26.326.326 0 0 0 .272-.367.332.332 0 0 0-.377-.274zm-1.281-7.679a.34.34 0 0 0-.262.381.32.32 0 0 0 .367.26.31.31 0 0 0 .263-.35l-.003-.019a.325.325 0 0 0-.365-.272zm-1.284-7.666a.31.31 0 0 0-.263.35l.003.019a.32.32 0 0 0 .367.26.32.32 0 0 0 .26-.368.309.309 0 0 0-.367-.261zm-26.254 8.945a.33.33 0 0 0-.452.067.32.32 0 0 0 .071.447l.009.007a.302.302 0 0 0 .439-.07.317.317 0 0 0-.067-.451zm44.172-14.54a.193.193 0 1 0-.012.272.198.198 0 0 0 .012-.272zm-3.129-3.35a.193.193 0 1 0-.012.272.199.199 0 0 0 .012-.272zm-3.141-3.365a.184.184 0 0 0-.26-.01.179.179 0 0 0-.012.272.184.184 0 0 0 .26.01.181.181 0 0 0 .031-.252l-.019-.02zM161 185.046a.189.189 0 1 0-.013.377.189.189 0 0 0 .013-.377zm.152-4.59a.181.181 0 0 0-.195.167v.015a.189.189 0 0 0 .181.195.197.197 0 0 0 .207-.18.192.192 0 0 0-.19-.196l-.003-.001zm.165-4.588a.181.181 0 0 0-.195.167v.015a.189.189 0 1 0 .195-.182zm8.885 5.319a.181.181 0 0 0-.229-.118c-.006.002-.012.003-.017.007a.186.186 0 0 0-.116.236l.003.01a.206.206 0 0 0 .245.113c.1-.039.15-.149.114-.248zm-1.616-4.312a.183.183 0 0 0-.248-.1.197.197 0 0 0-.113.245.206.206 0 0 0 .245.113.193.193 0 0 0 .118-.246l-.002-.012zm-1.605-4.298a.206.206 0 0 0-.245-.113.194.194 0 0 0-.113.245.18.18 0 0 0 .228.118c.006-.002.012-.003.017-.007a.186.186 0 0 0 .116-.236l-.003-.007zm15.579 10.27a.205.205 0 0 0-.284-.069l-.006.003a.211.211 0 0 0-.077.289c.002.005.006.009.009.014.059.098.187.13.285.07l.006-.003c.1-.066.13-.2.067-.304zm-2.826-4.415a.205.205 0 0 0-.284-.069l-.006.003a.22.22 0 1 0 .236.372.212.212 0 0 0 .065-.291l-.011-.015zm-2.814-4.415a.22.22 0 1 0-.372.236c-.002.012.012.015.021.03.074.075.19.091.281.039a.223.223 0 0 0 .07-.305zm-16.204 12.604a.236.236 0 0 0-.258.173.215.215 0 0 0 .16.257.2.2 0 0 0 .251-.136c.002-.008.005-.016.006-.025a.22.22 0 0 0-.157-.269h-.002zm1.125-5.12a.236.236 0 0 0-.258.173.215.215 0 0 0 .16.257.22.22 0 0 0 .269-.157v-.001a.244.244 0 0 0-.171-.272zm1.124-5.118a.236.236 0 0 0-.258.173.215.215 0 0 0 .16.257.204.204 0 0 0 .259-.173.217.217 0 0 0-.161-.257zm1.125-5.119a.225.225 0 0 0-.258.173.215.215 0 0 0 .16.257.203.203 0 0 0 .258-.173.217.217 0 0 0-.16-.257zm24.321 1.936a.217.217 0 0 0-.303.043l-.005.006a.231.231 0 0 0 .049.306.219.219 0 0 0 .303-.052l.006-.009a.212.212 0 0 0-.05-.294zm-4.298-3.005a.222.222 0 0 0-.306.049.219.219 0 0 0 .052.303l.009.006a.213.213 0 0 0 .294-.05.223.223 0 0 0-.049-.308zm-12.414 14.092a.212.212 0 0 0-.242-.179l-.008.001-.012-.002a.222.222 0 0 0-.165.251.212.212 0 0 0 .242.179l.007-.001a.273.273 0 0 0 .084-.041.197.197 0 0 0 .094-.208zm-1.174-5.345a.238.238 0 0 0-.18.262.232.232 0 0 0 .264.167.212.212 0 0 0 .166-.248l-.001-.003a.216.216 0 0 0-.249-.178zm-.914-5.155a.216.216 0 0 0-.178.249.217.217 0 0 0 .427-.071.214.214 0 0 0-.242-.179l-.007.001zm20.607-3.49a.377.377 0 0 0-.519.084.375.375 0 0 0 .603.448.395.395 0 0 0-.084-.532zm-10.762 35.551a.383.383 0 0 0-.32.425.372.372 0 0 0 .426.306.387.387 0 0 0 .32-.425.372.372 0 0 0-.426-.306zm-1.401-8.882a.37.37 0 0 0-.306.427.37.37 0 1 0 .306-.427zm-1.388-8.878a.37.37 0 0 0 .092.734l.016-.002a.383.383 0 0 0 .32-.425.375.375 0 0 0-.428-.307zm-1.401-8.882a.369.369 0 0 0-.308.419l.001.008a.371.371 0 1 0 .314-.429l-.007.002zm-1.389-8.879a.369.369 0 0 0 .105.731.383.383 0 0 0 .32-.425.371.371 0 0 0-.425-.306zm-30.911 26.704a.374.374 0 0 0-.523.09.373.373 0 0 0 .075.511.391.391 0 0 0 .532-.083.379.379 0 0 0-.084-.518zm5.287-7.264a.371.371 0 1 0-.435.604.371.371 0 1 0 .435-.604zm38.47-9.455a.376.376 0 0 0-.516-.124c-.176.108-.232.341-.124.516s.34.232.516.124a.381.381 0 0 0 .124-.516zm-4.679-7.668a.371.371 0 0 0-.51-.127l-.007.003a.381.381 0 0 0-.124.516.375.375 0 0 0 .519.11.373.373 0 0 0 .122-.502zm-20.104 28.46a.364.364 0 0 0-.44.271l-.001.007a.374.374 0 0 0 .263.453c.2.039.396-.081.455-.275a.378.378 0 0 0-.277-.456c.001 0 .001 0 0 0zm2.107-8.734a.357.357 0 0 0-.436.254l-.006.024a.363.363 0 0 0 .264.441.376.376 0 0 0 .455-.275v-.001a.357.357 0 0 0-.277-.443zm2.109-8.746a.376.376 0 0 0-.165.733.365.365 0 0 0 .44-.27l.001-.007a.378.378 0 0 0-.276-.456zm2.105-8.733a.372.372 0 0 0-.442.278.369.369 0 1 0 .442-.278c.001 0 .001 0 0 0zm21.332-.447a.356.356 0 0 0-.491-.108c-.006.003-.012.008-.017.012a.382.382 0 0 0-.11.518.394.394 0 0 0 .521.098.37.37 0 0 0 .103-.514c-.004-.001-.005-.004-.006-.006zm-22.222 29.562a.375.375 0 1 0-.152.734.375.375 0 0 0 .152-.734c.001 0 0 0 0 0zm1.735-8.786a.395.395 0 0 0-.445.303.382.382 0 0 0 .293.432.375.375 0 0 0 .443-.29.385.385 0 0 0-.291-.445zm1.723-8.775a.368.368 0 1 0-.138.725.375.375 0 0 0 .443-.29.387.387 0 0 0-.305-.435zm1.735-8.784a.364.364 0 0 0-.429.284l-.001.009a.373.373 0 0 0 .293.432.356.356 0 0 0 .426-.269l.005-.023a.365.365 0 0 0-.294-.433zm11.518 12.716a.38.38 0 0 0-.296.442c.045.2.242.327.442.284a.367.367 0 0 0 .295-.426v-.003a.386.386 0 0 0-.441-.297zm-1.752-8.786a.388.388 0 0 0-.296.442.369.369 0 1 0 .726-.133l-.003-.015a.367.367 0 0 0-.425-.295l-.002.001zm-1.767-8.775a.38.38 0 0 0-.296.442.374.374 0 0 0 .45.281.377.377 0 0 0 .287-.427.381.381 0 0 0-.441-.296zm-28.102 20.033a.36.36 0 0 0-.501.098l-.009.014a.367.367 0 0 0 .099.509.378.378 0 0 0 .521-.097.37.37 0 0 0-.1-.516l-.01-.008zm4.962-7.452a.36.36 0 0 0-.501.098l-.009.014a.366.366 0 0 0 .099.508.377.377 0 0 0 .52-.097.37.37 0 0 0-.1-.516c-.002-.003-.006-.005-.009-.007zm4.962-7.453a.372.372 0 0 0-.51.112.366.366 0 0 0 .099.508.378.378 0 0 0 .521-.097.37.37 0 0 0-.11-.523zm4.962-7.453a.382.382 0 0 0-.51.112.366.366 0 0 0 .099.508.379.379 0 0 0 .52-.097.374.374 0 0 0-.109-.523zm20.994-.18a.273.273 0 0 0-.353-.155l-.003.001a.286.286 0 0 0-.171.363.285.285 0 0 0 .362.171.286.286 0 0 0 .165-.38zm-21.017 18.319a.266.266 0 0 0-.359.118c-.005.008-.008.017-.012.026a.28.28 0 1 0 .371-.144zm2.655-6.21a.277.277 0 0 0-.367.134c-.001.003-.002.006-.005.009a.282.282 0 1 0 .372-.143zm2.655-6.209a.28.28 0 0 0-.371.145.28.28 0 0 0 .145.372.279.279 0 0 0 .371-.145.287.287 0 0 0-.145-.372zm2.655-6.21a.288.288 0 0 0-.372.157.278.278 0 0 0 .156.36l.002.001a.267.267 0 0 0 .354-.138l.003-.009a.278.278 0 0 0-.136-.368l-.007-.003zm6.214 18.027a.278.278 0 0 0-.286.271v.002a.294.294 0 0 0 .273.286c.154.001.28-.12.286-.273a.267.267 0 0 0-.253-.284c-.006-.002-.013-.002-.02-.002zm.076-6.75a.27.27 0 0 0-.273.265v.01a.278.278 0 0 0 .271.286h.002a.298.298 0 0 0 .287-.286.28.28 0 0 0-.284-.275h-.003zm.088-6.759a.298.298 0 0 0-.287.286.268.268 0 0 0 .261.273h.015a.267.267 0 0 0 .284-.253v-.021a.278.278 0 0 0-.271-.286l-.002.001zm-18.956-1.101a.297.297 0 0 0-.402-.003.287.287 0 0 0 .01.404.283.283 0 0 0 .389.003.3.3 0 0 0 .003-.404zm20.641-.164a.157.157 0 0 0-.186.117.157.157 0 0 0 .117.186l.012.002a.158.158 0 0 0 .175-.132.154.154 0 0 0-.118-.173zm-4.274 5.777a.235.235 0 0 0-.326.066l-.01.017a.231.231 0 0 0 .05.322l.021.014a.249.249 0 0 0 .347-.069.247.247 0 0 0-.067-.341c-.005-.003-.011-.005-.015-.009zm3.254-5.176a.255.255 0 0 0-.349.082.247.247 0 0 0 .067.341l.015.009a.235.235 0 0 0 .326-.066l.01-.017a.244.244 0 0 0-.058-.341l-.011-.008z"/><linearGradient id="l" gradientUnits="userSpaceOnUse" x1="5850.285" y1="2471.22" x2="5026.182" y2="5151.73" gradientTransform="matrix(0.0741 0 0 0.0741 -267.5851 -94.8663)"><stop offset="0" style="stop-color:#428dfc"/><stop offset=".323" style="stop-color:#3383f7"/><stop offset=".696" style="stop-color:#81aef2"/><stop offset="1" style="stop-color:#78a9ef"/></linearGradient><path fill="url(#l)" d="M128.395 63.651a105.961 105.961 0 0 1 35.601 25.427c16.888 18.249 14.947 26.534 24.295 37.4 9.348 10.866 21.948 24.041 12.168 42.69 0 0-37.756 3.411-56.632-2.631l-32.178-97.03c.001-.004 9.045 2.626 16.746-5.856z"/><linearGradient id="m" gradientUnits="userSpaceOnUse" x1="4285.372" y1="3693.97" x2="3753.537" y2="4414.52" gradientTransform="matrix(0.0741 0 0 0.0741 -267.5851 -94.8663)"><stop offset="0" style="stop-color:#ffbeb6"/><stop offset="1" style="stop-color:#f2a19c"/></linearGradient><path fill="url(#m)" d="M77.703 166.745s-12.877 8.127-23.221 11.086c-10.344 2.958-11.108 2.131-14.85-2.307a87.502 87.502 0 0 1-8.958-13.408c-1.076-2.187-4.56-2.387-3.985 3.212.574 5.599 8.093 9.023 4.86 11.774-3.233 2.751-14.203 2.989-22.383 2.295-8.179-.694-12.644-.81-5.828 9.511s15.266 16.539 38.58 7.723c23.314-8.815 39.525-6.633 47.589-5.617l-11.804-24.269z"/><path fill="#428DFC" d="M111.288 71.095s9.597 29.964 5.132 49.005c-4.028 17.172-9.51 22.779-25.723 27.24s-16.063 4.17-16.063 4.17l11.806 62.944s17.038 4.177 30.371-8.568c13.334-12.744 18.417-15.898 27.264-18.464 8.848-2.565 27.063-13.368 23.28-42.983-3.783-29.615-11.25-50.004-38.96-80.787"/><linearGradient id="n" gradientUnits="userSpaceOnUse" x1="5293.157" y1="2456.999" x2="5176.516" y2="1935.771" gradientTransform="matrix(0.0741 0 0 0.0741 -267.5851 -94.8663)"><stop offset="0" style="stop-color:#ffbeb6"/><stop offset="1" style="stop-color:#f2a19c"/></linearGradient><path fill="url(#n)" d="M109.808 54.726a51.782 51.782 0 0 1 1.843 14.777s7.132 4.691 16.745-5.853l-6.984-17.421-11.604 8.497"/><path fill="#FFBEB6" d="M91.734 20.883c-.041.124-.068.217-.09.271-.015.016-.014.031-.021.054a24.429 24.429 0 0 0-.457 1.539c-1.522 5.732-6.368 9.672-6.577 11.278-.209 1.605 2.781 3.106 4.261 3.451 1.481.345 2.292 8.059 7.816 13.203 5.182 4.825 13.84 5.471 19.934 3.095 3.907-12.185 2.76-18.334-8.559-25.565-12.352-7.897-10.51-16.45-10.51-16.45a24.428 24.428 0 0 0-5.797 9.124z"/><path fill="#E94A47" d="M149.631 36.254c-2.161-6.415-2.507-14.271-2.824-17.207-.432-4.011-6.934-17.007-21.51-18.641s-33.238.949-33.675 20.808a24.624 24.624 0 0 1 5.913-9.456s-1.848 8.551 10.507 16.447a43.712 43.712 0 0 1 3.727 2.642c5.278 8.189 7.26 17.517-1.199 25.987-.493.494.302 1.228.791.737 7.882-7.892 7.123-16.552 2.954-24.439 5.933 6.121 5.214 12.658 1.093 24.143 0 0 21.255 7.576 42.307-2.528a19.998 19.998 0 0 0-4.898-12.335 16.966 16.966 0 0 1-2.487-4.28c4.762 4.777 10.099 9.259 8.674 16.461a.541.541 0 0 0 1.055.236c1.658-8.351-5.347-13.089-10.428-18.575z"/><path fill="#1C2868" d="M97.119 28.709a4.517 4.517 0 0 1-7.595-2.461c-.124-.676.91-.997 1.035-.312a3.44 3.44 0 0 0 5.77 2.035c.51-.465 1.305.267.79.738z"/></svg></g></svg>