<svg xmlns="http://www.w3.org/2000/svg" viewBox="0 0 1500 1500" width="1500" height="1500"><g transform="translate(325.0 265.0) rotate(0.0 442.0 426.0) scale(2.21 2.212987012987013)"><svg width="400" height="385" viewBox="0 0 400 385"><path d="m171.697 77.474-11.368-5.253 5.247-11.38 11.368 5.253z" fill="#1d72d8"/><path d="m20.494 208.177-4.175-1.929 1.927-4.179 4.175 1.929z" fill="#a1c3fc"/><path d="M6.124 106.96a.6.6 0 0 1-.262-1.14l198.86-96.109.265.134 187.669 95.421a.6.6 0 0 1-.543 1.07L204.709 11.049 6.384 106.901a.598.598 0 0 1-.26.059z" fill="#428dfc"/><path d="M4.452 102.088H400v12.327H4.452z" fill="#23286b"/><path d="M28.334 100.891h341.813V385H28.334z" fill="#a1c3fc"/><g fill="#428dfc"><path d="M387.926 117.482a.599.599 0 0 1-.595-.541l-1.674-16.74a.599.599 0 1 1 1.192-.119l1.674 16.74a.599.599 0 0 1-.597.66zm-376.785-.556a.6.6 0 0 1-.596-.539l-1.673-16.181a.601.601 0 0 1 .535-.659.606.606 0 0 1 .658.536l1.673 16.181a.601.601 0 0 1-.597.662zm379.016 0-.04-.001a.602.602 0 0 1-.559-.639l1.115-16.74c.023-.33.284-.57.638-.56.33.023.58.308.559.639l-1.115 16.74a.6.6 0 0 1-.598.561zm-375.672-.559a.6.6 0 0 1-.599-.6V98.47c0-.331.269-.6.599-.6s.599.269.599.6v17.297a.6.6 0 0 1-.599.6z"/></g><path d="m207.956 22.298-13.707-8.576L202.816 0l13.707 8.576z" fill="#e94a47"/><ellipse cx="112.668" cy="252.195" fill="#ccdffd" rx="79.856" ry="79.941"/><ellipse cx="281.06" cy="252.195" fill="#ccdffd" rx="79.856" ry="79.941"/><path d="M112.668 332.135c23.764 0 45.093-10.404 59.721-26.896H52.947c14.628 16.493 35.957 26.896 59.721 26.896zm168.392 0c23.764 0 45.093-10.404 59.721-26.896H221.339c14.628 16.493 35.955 26.896 59.721 26.896z" fill="#fff"/><path d="M225.361 202.138h14.926v14.942h-14.926zm33.449 10.438h12.272v12.285H258.81z" fill="#a3c4fc"/><path d="M217.14 215.499h9.618v9.628h-9.618z" fill="#fff"/><path d="M249.785 201.95h12.272v12.285h-12.272z" fill="#eee"/><path d="M349.582 251.9h5.371v5.377h-5.371z" fill="#e94e4b"/><path d="M85.23 252.963h5.371v5.377H85.23z" fill="#272c6e"/><path d="M321.544 263.308h27.054v27.083h-27.054z" fill="#468ffc"/><path d="M143.14 189.227h16.969v16.987H143.14z" fill="#fff"/><path d="M210.342 238.654h16.606v16.624h-16.606z" fill="#8bb5f4"/><path d="M224.522 238.654h16.606v16.624h-16.606z" fill="#e94e4b"/><path d="M270.857 225.9h16.606v16.624h-16.606z" fill="#8bb5f4"/><path d="M285.036 225.9h16.606v16.624h-16.606z" fill="#e94e4b"/><path d="M236.464 276.008h16.606v16.624h-16.606z" fill="#eee"/><path d="M240.489 232.808h24.306v24.332h-24.306zm29.727-38.792h33.861v33.897h-33.861z" fill="#468ffc"/><path d="M302.065 194.016h33.861v33.897h-33.861z" fill="#a3c4fc"/><path d="M82.303 217.928h33.861v33.897H82.303z" fill="#468ffc"/><path d="M65.317 228.025h25.367v25.394H65.317zm3.184-42.512h14.221v14.236H68.501z" fill="#468ffc"/><path d="M82.303 186.045h33.861v33.897H82.303z" fill="#a3c4fc"/><path d="M215.957 254.701h17.405v17.423h-17.405zM82.697 279.62l-6.399-9.001 8.992-6.406 6.399 9.002z" fill="#d7d8d9"/><path d="m341.219 246.504-12.076-12.549 12.535-12.089 12.077 12.549zM90.345 292.416l-12.077-12.549 12.536-12.089 12.077 12.549z" fill="#8bb5f4"/><path d="m348.973 253.276-7.163-7.443 7.435-7.171 7.163 7.443z" fill="#fff"/><path d="m240.18 286.477-13.727-10.712 10.701-13.742 13.727 10.712z" fill="#a3c4fc"/><path d="m309.719 255.126-13.728-10.712 10.701-13.742 13.727 10.712z" fill="#7babef"/><path d="m243.851 267.483-10.498-8.192 8.183-10.509 10.499 8.192zm-122.619-57.391-10.499-8.192 8.184-10.509 10.498 8.192z" fill="#a3c4fc"/><path d="M243.632 262.035h16.606v16.624h-16.606zm-153.933-4.599h16.606v16.624H89.699z" fill="#e94e4b"/><path d="M106.154 264.343h16.606v16.624h-16.606z" fill="#468ffc"/><path d="M93.414 278.161h16.606v16.624H93.414z" fill="#fff"/><path d="m117.115 293.305-5.777 6.435-6.428-5.784 5.778-6.435z" fill="#428dfc"/><path d="M239.386 207.302h10.767v10.778h-10.767zm-123.942 17.453h10.767v10.778h-10.767z" fill="#468ffc"/><path d="M234.88 219.973h5.989v5.995h-5.989z" fill="#272c6e"/><path d="M186.862 181.168c.181.017.281-.066.296-.248.017-.181-.066-.281-.248-.296-.181-.017-.281.066-.296.248-.016.181.165.198.248.296zm24.964-11.117c.083.1.264.115.363.032.1-.083.115-.264.032-.363-.083-.1-.264-.115-.363-.032-.279.066-.213.346-.032.363zm-12.96 4.783c.083.098.165.198.346.215.098-.083.198-.165.215-.347-.083-.1-.165-.198-.346-.215-.281.066-.298.247-.215.347zm2.667 35.401c.066.281.33.396.61.33s.396-.33.33-.611c-.066-.281-.33-.396-.61-.33-.363-.033-.495.412-.33.611zm-4.264-11.556c.066.281.33.396.61.33.281-.066.396-.33.33-.611-.066-.28-.33-.396-.61-.33-.282.066-.397.331-.33.611zm-4.167-11.637c.066.281.33.396.61.33.281-.066.396-.33.33-.611-.066-.281-.33-.396-.61-.33-.28.065-.397.33-.33.611zm-17.863 21.646a.817.817 0 0 0 .593-.496.82.82 0 0 0-.495-.594c-.281.066-.478.231-.494.412-.133.447.033.645.396.678zm.468-12.319a.817.817 0 0 0 .593-.496.82.82 0 0 0-.495-.594c-.281.066-.478.231-.494.412-.033.365.215.661.396.678zm43.578-3.487c.165.198.528.23.725.066.198-.165.23-.529.066-.726-.165-.198-.528-.23-.725-.066-.199.166-.231.528-.066.726zm-8.322-9.175c.165.198.528.23.725.066.198-.165.23-.529.066-.726-.165-.198-.528-.23-.725-.066-.198.166-.23.528-.066.726zm-8.238-9.074c.165.198.528.23.725.066.198-.165.23-.529.066-.726-.165-.198-.528-.23-.725-.066-.297.246-.231.528-.066.726zm-39.479 33.156c.181.017.561-.132.494-.412.017-.181-.132-.562-.412-.495-.181-.017-.561.132-.494.412-.116.264.049.462.412.495zm44.412-11.743c.165.198.429.313.627.147s.215-.346.147-.628c-.165-.198-.429-.313-.627-.147-.196.165-.312.429-.147.628zm-6.622-8.747c.165.198.429.313.627.147.198-.165.215-.346.147-.628-.165-.198-.429-.313-.627-.147-.196.165-.311.43-.147.628zm-6.522-8.829c.165.198.429.313.627.147.198-.165.215-.346.147-.628-.165-.198-.429-.313-.627-.147-.296.249-.313.43-.147.628zm-10.357 22.597c.066.281.33.396.61.33.281-.066.396-.33.33-.611s-.33-.396-.61-.33c-.282.066-.495.414-.33.611zm-2.797-10.597c.066.281.33.396.512.412.281-.066.396-.33.33-.611s-.33-.396-.61-.33c-.183-.017-.298.247-.232.529zm36.756-14.083c.264.115.446.132.561-.132.115-.264.049-.545-.132-.562-.264-.115-.544-.049-.659.215-.001 0 .066.282.23.479zm-9.373-5.607c.264.115.544.049.659-.215s.049-.545-.215-.66-.544-.049-.561.132c-.213.346-.147.628.117.743-.083-.098 0 0 0 0zm-41.068 47.755c.066.281.33.396.61.33.281-.066.396-.33.33-.611s-.33-.396-.61-.33c-.281.067-.396.331-.33.611zm-3.292-12.2c.066.281.33.396.61.33.281-.066.396-.33.33-.611s-.33-.396-.61-.33c-.182-.016-.396.33-.33.611zm45.972-19.936c.264.115.544.049.659-.215s.049-.545-.215-.66-.544-.049-.659.215c-.197.166-.048.545.215.66zm-11.04-6.396c.264.115.544.049.659-.215s.049-.545-.215-.66-.544-.049-.659.215c-.016.18-.048.544.215.66zm-11.446 22.498c.165.198.528.23.725.066.198-.165.23-.529.066-.726-.165-.198-.528-.23-.725-.066-.198.165-.231.528-.066.726zm-7.695-10.033c.165.198.528.23.725.066.198-.165.23-.529.066-.726-.165-.198-.528-.23-.725-.066-.198.164-.314.429-.066.726zm2.324 16.874c.165.198.528.23.725.066.198-.165.23-.529.066-.726-.165-.198-.429-.313-.725-.066-.199.165-.232.527-.066.726zm-7.3-10.364c.165.198.528.23.725.066.198-.165.313-.429.066-.726-.165-.198-.528-.23-.808-.164-.116.262-.148.625.017.824zm20.427-12.533a.709.709 0 0 0 .742-.116.71.71 0 0 0-.116-.743.709.709 0 0 0-.742.116c-.198.165-.048.545.116.743z" fill="#1d72d8"/><path d="M241.214 331.836c-.201.169-.218.354-.05.556.169.201.354.218.555.05s.218-.354.05-.556c-.168-.202-.37-.033-.555-.05zm-14.142 36.842c-.185-.017-.387.152-.404.337-.017.185.152.387.337.404.185.017.387-.152.404-.337.218-.353-.135-.574-.337-.404zm8.35-18.119c-.185-.017-.37-.034-.572.135-.017.185-.034.37.135.573.185.017.37.034.572-.135.219-.354.051-.556-.135-.573zm-38.804-33.396c-.354-.218-.741-.067-.959.287s-.067.742.287.96c.354.218.741.067.959-.287.403-.337.083-.926-.287-.96zm16.129 7.434c-.354-.218-.741-.067-.959.287s-.067.742.287.96.741.067.959-.287c.219-.353.067-.741-.287-.96zm16.113 7.619c-.354-.218-.741-.067-.959.287-.218.354-.067.742.287.96.354.218.741.067.959-.287s.067-.742-.287-.96zm-3.835-40.331a1.188 1.188 0 0 0-.1 1.112c.354.218.724.252 1.111.1.218-.354.252-.725.084-.927-.322-.589-.693-.622-1.095-.285zm12.078 13.048a1.188 1.188 0 0 0-.1 1.112c.354.218.724.252 1.111.1.218-.354.252-.725.084-.927-.339-.404-.894-.454-1.095-.285zm-40.911 48.068c-.37-.034-.775.303-.807.675-.034.37.303.776.674.808.37.034.775-.303.807-.675.033-.371-.303-.776-.674-.808zm17.842.861c-.37-.034-.775.303-.807.675-.034.37.303.776.674.808.37.034.775-.303.807-.675.033-.371-.304-.775-.674-.808zm17.656.845c-.37-.034-.775.303-.807.675-.034.37.303.776.674.808.37.034.775-.303.807-.675.05-.556-.304-.775-.674-.808zm6.487-74.155c-.201.169-.438.708-.084.927.169.201.707.438.926.084.201-.169.436-.708.084-.927-.153-.387-.523-.421-.926-.084zm-33.345 57.345c-.37-.034-.758.119-.79.49-.034.37.135.573.489.791.37.034.758-.119.79-.49.032-.37-.12-.758-.489-.791zm15.67 2.16c-.37-.034-.758.119-.79.49-.034.37.135.573.489.791.37.034.758-.119.79-.49.033-.369-.118-.757-.489-.791zm15.655 2.347c-.37-.034-.758.119-.79.49-.034.37.135.573.489.791.37.034.758-.119.79-.49.049-.556-.12-.757-.489-.791zm-12.466-33.637c-.354-.218-.741-.067-.959.287s-.067.742.287.96.741.067.959-.287c.219-.353.084-.926-.287-.96zm13.656 7.96c-.354-.218-.741-.067-.942.102-.218.354-.067.742.287.96s.741.067.959-.287c.202-.17.05-.557-.304-.775zm-23.15 51.911c-.387.152-.589.32-.438.708.152.387.506.606.707.438.387-.152.605-.507.453-.893a1.842 1.842 0 0 0-.722-.253zm15.279-3.853c-.387.152-.605.507-.453.893.152.387.506.606.892.453.387-.152.605-.507.438-.708-.137-.572-.491-.791-.877-.638.185.015 0 0 0 0zm-6.771-90.673c-.354-.218-.741-.067-.959.287s-.067.742.287.96.741.067.959-.287c.217-.354.066-.741-.287-.96zm15.793 9.085c-.354-.218-.741-.067-.959.287s-.067.742.287.96.741.067.959-.287c.203-.168.067-.741-.287-.96zm-26.588 67.296c-.387.152-.605.507-.453.893.152.387.506.606.892.453.387-.152.605-.507.453-.893.034-.369-.504-.604-.892-.453zm17.786-4.748c-.387.152-.605.507-.453.893.152.387.506.606.892.453.387-.152.605-.507.453-.893-.168-.2-.505-.605-.892-.453zm-11.254-34.648c-.37-.034-.775.303-.807.675-.034.37.303.776.674.808.37.034.775-.303.807-.675.034-.37-.303-.774-.674-.808zm18.078 2.378c-.37-.034-.775.303-.807.675-.034.37.303.776.674.808.37.034.775-.303.807-.675.034-.37-.119-.758-.674-.808zm-19.569-14.845c-.37-.034-.775.303-.807.675-.034.37.303.776.674.808.37.034.758-.119.807-.675.033-.369-.304-.775-.674-.808zm18.012 3.12c-.37-.034-.775.303-.807.675-.034.37.119.759.674.808.37.034.775-.303.993-.658-.154-.387-.491-.791-.86-.825zm-8.069 33.652a1.026 1.026 0 0 0-.639.876c.152.387.506.606.875.64.387-.152.605-.507.639-.876.034-.37-.505-.606-.875-.64zm81.978 15.109-.504-1.09c16.201-7.518 29.523-20.462 37.512-36.448l1.073.537c-8.109 16.227-21.634 29.368-38.081 37.001z" fill="#fff"/><path d="M1.093 205.358 0 204.869c7.692-17.18 24.733-29.68 43.415-31.847l.138 1.192c-18.271 2.118-34.936 14.344-42.46 31.144z" fill="#23286b"/><path d="m308.692 379.639-.309-1.16c5.495-1.474 10.972-4.843 16.745-10.302a80.89 80.89 0 0 0 19.826-29.613l1.12.43a82.104 82.104 0 0 1-20.121 30.054c-5.922 5.601-11.568 9.065-17.261 10.591z" fill="#fff"/><path d="m165.663 121.153-1.191-.139c2.228-19.002 18.139-35.609 37.009-38.631l.189 1.184c-18.358 2.941-33.839 19.099-36.007 37.586z" fill="#23286b"/><path d="m297.255 375.767-6.531-3.018 3.015-6.537 6.531 3.018z" fill="#1d72d8"/><path d="m351.131 368.583-4.837-2.235 2.233-4.842 4.837 2.235z" fill="#d62929"/><circle cx="161.179" cy="357.538" fill="#fff" r="4.483"/><path d="m268.903 159.107-6.531-3.017 3.015-6.538 6.531 3.018z" fill="#fff"/><path d="m164.224 329.993-11.368-5.253 5.247-11.38 11.368 5.253z" fill="#1d72d8"/></svg></g><g transform="translate(371.0 98.0) rotate(0.0 122.0 198.5) scale(0.8133333333333334 0.8135245901639344)"><svg width="300" height="488" viewBox="0 0 300 488"><path fill="#D62929" d="M151.412 58.222c-1.491 5.871.558 12.972-1.483 18.677 2.599-3.268 7.15-9.783 10.865-11.694-.572-1.953-2.521-11.959-4.044-10.607-1.483 1.318-2.801 2.387-5.338 3.624z"/><path fill="#F2A19C" d="m105.285 80.688-6.9 2.012c-.198-.393.123-.939.563-.959l-3.128 6.667c-.166.355-.337.727-.323 1.119.011.316.14.614.268.903l3.33 7.544c.51 1.155 1.037 2.336 1.923 3.236.863.877 2.414 1.381 3.265.493.75-.784.437-2.06.06-3.077a101.684 101.684 0 0 0-3.487-8.275l2.496 4.094c.474.779.983 1.591 1.778 2.038.795.447 1.965.37 2.441-.407.694-3.072-1.266-6.055-3.126-8.598 1.313.565 1.947 2.017 2.689 3.238.742 1.222 2.055 2.431 3.425 2.021.73-2.147-.375-4.478-1.715-6.307-1.341-1.83-2.99-3.547-3.559-5.742z"/><linearGradient id="a" gradientUnits="userSpaceOnUse" x1="115.159" y1="388.689" x2="174.563" y2="388.689" gradientTransform="matrix(1 0 0 -1 0 502)"><stop offset="0" style="stop-color:#ffbeb6"/><stop offset="1" style="stop-color:#f2a19c"/></linearGradient><path fill="url(#a)" d="M163.544 140.771c-1.266-.055-2.589-.126-3.682-.765-.959-.56-11.551-1.969-14.791-4.735-.773-.661-6.019-4.123-8.099-7.674-2.871-4.903-13.899-34.843-21.814-36.083.689-1.627 6.081-4.387 6.77-6.014 6.335 7.937 12.645 15.711 19.535 23.172 7.247 7.849 14.843 15.467 23.582 21.613 2.184 1.537 4.435 2.976 6.621 4.508 1.01.708 2.044 1.478 2.585 2.586s.405 2.644-.621 3.327c-.679.451-1.556.432-2.371.397-2.571-.109-5.143-.221-7.715-.332z"/><path fill="#D62929" d="m152.788 126.473 2.841 18.506a116.747 116.747 0 0 1 27.218-8.974 541.174 541.174 0 0 0-8.838-69.984c-.434-2.249-.92-4.579-2.289-6.417-3.38-4.534-11.343-3.604-14.422 1.14-1.683 2.594-2.096 5.783-2.467 8.853l-2.65 21.925c-.682 5.643-1.365 11.305-1.297 16.989.072 6.026.989 12.006 1.904 17.962z"/><path fill="#151A4F" d="M174.834 163.597c3.473-3.166.094-14.913-2.675-18.71-2.769-3.797-24.071-28.733-39.132-49.033a130.43 130.43 0 0 1-10.651 27.694c13.677 15.325 19.027 29.357 41.76 46.061 3.597 2.644 7.401-3.006 10.698-6.012z"/><path fill="#F2A19C" d="M264.094 429.329c1.052 1.067 12.462 4.64 13.947 4.841 6.487.88 17.315-.299 17.51-.132.189.161 4.821 25.024 3.775 35.699-4.63.531-8.712.952-13.34 1.483-1.789.205-3.651.403-5.351-.191.866-7.657-13.537-37.134-16.541-41.7z"/><path fill="#151A4F" d="M298.882 449.879c-16.851 2.255-23.712.907-40.521 3.447-12.668-27.698-43.408-64.881-67.479-110.987-31.473-60.282-36.65-101.77-35.515-154.645 12.235 6.022 31.6 10.609 44.541 6.305 1.324 45.447 10.66 86.866 35.477 124.972 6.579 10.103 13.966 19.863 18.258 31.129 3.934 10.325 5.154 21.65 10.195 31.482 4.947 9.648 13.194 17.132 19.626 25.861 9.052 12.286 14.474 27.209 15.418 42.436z"/><path fill="#F2A19C" d="M154.673 61.063c-2.298-9.88-7.326-18.874-12.294-27.718l-1.436-2.556c-.157-.281-.32-.579-.313-.902.012-.515.44-.909.828-1.248 3.039-2.656 2.434-7.761 4.273-11.352 6.62 12.36 15.134 26.105 20.37 37.395a72.67 72.67 0 0 0-11.428 6.381z"/><linearGradient id="b" gradientUnits="userSpaceOnUse" x1="108.526" y1="475.501" x2="147.32" y2="475.501" gradientTransform="matrix(1 0 0 -1 0 502)"><stop offset="0" style="stop-color:#ffbeb6"/><stop offset="1" style="stop-color:#f2a19c"/></linearGradient><path fill="url(#b)" d="M146.147 29.442c.198-3.145 1.155-9.978-.512-12.536-2.627-4.031-7.417-8.553-13.883-11.594-7.917-3.724-13.432 1.669-18.85 8.535-1.094 1.386-2.094 2.858-2.847 4.455-2.932 6.222-1.55 14.212 3.304 19.089.894.898 1.873 1.67 2.908 2.35 1.834 3.026 3.994 5.647 6.169 8.998.994.833 2.843-1.775 3.849-3.144.504-.687.979-1.256 1.439-1.772 2.181.381 4.393.642 6.556.868 4.748.494 9.081 5.309 12.207 1.704 2.14-2.47-.545-13.692-.34-16.953z"/><linearGradient id="c" gradientUnits="userSpaceOnUse" x1="-12.086" y1="312.673" x2="29.686" y2="312.673" gradientTransform="matrix(0.9707 -0.2404 -0.2404 -0.9707 183.5036 328.1518)"><stop offset="0" style="stop-color:#23286b"/><stop offset="1" style="stop-color:#151a4f"/></linearGradient><path fill="url(#c)" d="M103.561 13.359c-2.971 7.869-2.592 17.509-1.952 19.829 2.724 9.873 2.331 10.525.203 15.381 9.685-2.396 9.43-13.722 13.875-22.107 4.445-8.384 9.975-16.81 18.475-21.038-5.6-3.051-10.308-6.171-16.827-5.265-6.226.866-11.555 7.322-13.774 13.2z"/><g><path fill="#23286B" d="M106.47 52.981a.502.502 0 0 1-.305-.899c5.712-4.361 7.715-11.714 9.652-18.824.715-2.627 1.455-5.343 2.373-7.882 2.85-7.887 8.045-15.096 14.626-20.296a.502.502 0 0 1 .622.786c-6.437 5.088-11.517 12.138-14.305 19.851-.904 2.501-1.638 5.197-2.349 7.805-1.981 7.272-4.03 14.791-10.01 19.357a.497.497 0 0 1-.304.102z"/></g><path fill="#23286B" d="M137.792 30.614c.818-1.179 1.656-2.552 1.349-3.954-.219-.997-1.76-3.029-2.349-3.863-1.503-2.13-2.538-3.324-6.18-6.937 6.371 2.76 10.206 6.626 15.5 11.117 2.395 9.288 5.04 25.182 1.859 25.757-5.928 1.017-9.533-7.97-15.548-7.96-.969-5.102 2.408-9.89 5.369-14.16z"/><path fill="#F2A19C" d="M135.403 44.919c-.198-.46-.109-.987-.001-1.476a22.383 22.383 0 0 1 3.011-7.225c1.545 1.08 1.495 1.229 3.228 1.974-.951 4.941-1.505 7.007-1.796 10.471l-3.593-2.814c-.334-.263-.681-.54-.849-.93z"/><path fill="#FFBEB6" d="M64.008 105.798c-.975-.686-2.822.733-2.663 1.912.159 1.181.987 2.145 1.779 3.035l17.651 19.833c.569.638 1.149 1.288 1.89 1.717.861.499 1.874.663 2.865.751 6.4.568 13.788-1.359 18.621 2.872 1.453 1.272 2.458 2.967 3.438 4.632l15.228 25.864a62.102 62.102 0 0 0 4.028-13.129c.395-2.094.676-4.298.016-6.323-.496-1.524-1.489-2.83-2.483-4.088a155.745 155.745 0 0 0-11.446-12.936c-1.097-1.11-2.24-2.223-3.65-2.893-1.81-.861-3.886-.912-5.891-.946l-17.788-.31c-.976-.017-1.975-.038-2.885-.388-1.226-.47-2.912-3.316-4.917-5.821-4.591-5.734-7.023-9.021-13.793-13.782z"/><linearGradient id="d" gradientUnits="userSpaceOnUse" x1="50.965" y1="391.62" x2="117.231" y2="391.62" gradientTransform="matrix(1.0203 -0.0451 0.0451 -1.1001 -20.1641 546.7431)"><stop offset="0" style="stop-color:#eee"/><stop offset=".554" style="stop-color:#d6d7d8"/></linearGradient><path fill="url(#d)" d="m104.447 130.495-54.632-24.612 14.663-12.222 52.369 23.361z"/><path opacity=".25" fill="gray" d="m96.213 123.07-39.698-18.391 9.191-7.136 38.071 17.308z"/><linearGradient id="e" gradientUnits="userSpaceOnUse" x1="217.793" y1="33.742" x2="300" y2="33.742" gradientTransform="matrix(1 0 0 -1 0 502)"><stop offset="0" style="stop-color:#e94a47"/><stop offset="1" style="stop-color:#d62929"/></linearGradient><path fill="url(#e)" d="M218.645 481.313c-4.84-2.096 11.924-17.296 25.494-20.962 7.499-2.027 10.305-4.479 18.072-4.677 8.789-.223 28.023-.489 36.812-.712.241 9.039 1.751 26.35.46 26.189-8.981.89-79.708.001-80.838.162z"/><path fill="#F2A19C" d="M81.937 428.308c.391 1.446.508 7.942 1.703 8.848 5.214 3.956.271 6.295 5.485 10.251.204.154.417.323.504.562.084.233.941.881.82 1.098-5.86 10.522-12.15 19.333-15.417 28.075l-12.875-5.44c-1.659-.701-10.025-4.605-11.211-5.959 4.525-6.238 31.359-31.983 30.991-37.435z"/><linearGradient id="f" gradientUnits="userSpaceOnUse" x1="83.329" y1="453.567" x2="165.523" y2="453.567" gradientTransform="matrix(0.8706 0.492 0.492 -0.8706 -289.6986 790.4405)"><stop offset="0" style="stop-color:#e94a47"/><stop offset="1" style="stop-color:#d62929"/></linearGradient><path fill="url(#f)" d="M.31 448.367c-3.182-4.205 18.896-9.195 32.516-5.715 7.526 1.923 11.177 1.168 18.035 4.814 7.762 4.127 24.638 13.353 32.399 17.48-4.24 7.987-11.448 23.801-12.492 23.027C62.51 484.329 1.372 448.782.31 448.367z"/><path fill="#23286B" d="M125.38 394.85c-3.884 5.772-4.595 13.352-5.88 20.429-3.259 17.945-14.872 32.301-33.928 46.333-13.63-10.684-20.47-15.375-34.1-26.06 39.556-42.093 68.538-100.859 85.642-158.733 8.114-27.454 21.639-54.473 19.892-83.529 15.036 1.706 28.689 4.776 42.903-.961 6.687 47.442-15.904 101.59-44.563 144.689-2.486 3.74-5.1 7.48-6.541 11.852-1.463 4.439-1.629 9.263-2.491 13.895-1.608 8.634-5.736 16.658-11.604 22.557-3.141 3.156-6.792 5.758-9.33 9.528z"/><linearGradient id="g" gradientUnits="userSpaceOnUse" x1="137.058" y1="366.079" x2="202.058" y2="366.079" gradientTransform="matrix(1 0 0 -1 0 502)"><stop offset="0" style="stop-color:#23286b"/><stop offset="1" style="stop-color:#151a4f"/></linearGradient><path fill="url(#g)" d="M151.564 97.956a765843.13 765843.13 0 0 1 18.665-41.83c20.228 15.438 28.724 43.143 28.082 68.571-.758 30.043-.251 57.697 3.747 80.725-17.263-.035-44.94 8.29-64.999 10.295 3.285-25.357 15.976-65.227 11.338-90.373-.808-4.38-1.739-8.812-1.348-13.249.435-4.953 2.489-9.599 4.515-14.139z"/><path fill="#23286B" d="M145.814 155.497c6.211-25.974 12.506-52.436 18.717-78.409 1.048-4.384 2.801-9.522 7.171-10.638 4.195-1.071 8.227 2.383 10.44 6.104 5.491 9.235 4.954 20.754 3.594 31.412-4.213 33.028-14.748 65.239-30.867 94.378-.514.929-1.09 1.909-2.049 2.366-1.855.885-3.922-.608-5.419-2.017-13.984-13.144-28.26-28.413-47.27-31.094a100.464 100.464 0 0 0 21.982-29.347c4.434 5.53 4.434 5.53 9.824 11.59 2.942 3.307 7.327 8.37 10.51 11.446 3.183 3.075 2.625 7.123 4.447 13.466 3.503-2.289-3.234-15.889-2.156-15.889-.134-1.751 6.396 5.984 8.431 7.963.729-1.636-3.397-8.421-7.355-11.331z"/><path fill="#FFBEB6" d="M108.89 136.619c1.446-1.474 9.507-.598 8.274-2.255-1.37-1.841-6.84-8.068-9.027-8.77-4.056-1.302-11.01-4.275-14.739-6.333-3.729-2.059-10.334-4.942-12.158-3.113-1.201 1.206.464 3.409 1.874 4.362 1.409.953 10.504 4.997 11.984 5.835 7.524 4.26 7.428 4.602 13.792 10.274z"/><g><path fill="#78A9EF" d="M150.198 131.105h-.015a.501.501 0 0 1-.487-.515c.336-11.691 4.213-23.366 10.93-32.947l-4.705-2.335 14.283-22.377c2.068-3.238 4.41-6.91 4.868-10.961.414-3.669-1.213-8.247-5.044-9.502a.501.501 0 1 1 .312-.952c4.336 1.42 6.188 6.504 5.73 10.566-.483 4.282-2.894 8.056-5.019 11.387l-13.684 21.436 4.758 2.361-.343.479c-6.811 9.509-10.748 21.183-11.084 32.872a.501.501 0 0 1-.5.488z"/></g><linearGradient id="h" gradientUnits="userSpaceOnUse" x1="75.051" y1="411.259" x2="100.301" y2="411.259" gradientTransform="matrix(1 0 0 -1 0 502)"><stop offset="0" style="stop-color:#ffbeb6"/><stop offset="1" style="stop-color:#f2a19c"/></linearGradient><path fill="url(#h)" d="M76.015 103.643c.567.215 1.202.045 1.777-.146 6.387-2.127 12.411-6.356 15.584-12.288.895-1.673 5.478-7.442 6.44-8.964s.474-4.145-1.289-4.507c-5.938 7.937-12.112 16.088-20.68 21.076-.941.547-1.952 1.099-2.497 2.04-.547.941-.352 2.402.665 2.789z"/><linearGradient id="i" gradientUnits="userSpaceOnUse" x1="118.123" y1="416.539" x2="92.47" y2="417.55" gradientTransform="matrix(1 0 0 -1 0 502)"><stop offset="0" style="stop-color:#ffbeb6"/><stop offset="1" style="stop-color:#f2a19c"/></linearGradient><path fill="url(#i)" d="M122.23 86.917c-.058 3.009-2.557 4.849-7.571 5.35-1.137.113-4.955-.549-5.767-1.754-2.52-3.74-8.426-3.749-11.534-7.016-1.376-1.446-.783-2.868.342-4.689.196-.511 1.215-1.202 1.736-1.034 4.338 1.396 8.675 2.791 13.012 4.188 2.837.913 5.678 1.827 8.44 2.946.398.161.815.343 1.065.693.264.372.285.86.277 1.316z"/><path fill="#FFBEB6" d="M87.945 89.429c-.815.416-1.695 1.118-1.645 2.081.033.64.486 1.17.983 1.532 1.729 1.259 4.008 1.081 6.09.856l16.568-1.799c2.575-.28 5.222-.582 7.514-1.866l-.623-3.21c-.046-.238-.101-.492-.271-.653-.227-.215-.57-.189-.871-.149-4.538.604-9.08 1.294-13.652 1.395-4.773.105-9.786-.382-14.093 1.813z"/><path fill="#E94A47" d="M151.709 58.021c1.395 5.681 4.415 12.809 4.069 19.046 5.117-8.096 7.036-15.317 15.234-20.272a32.76 32.76 0 0 1-7.26-10.802l-7.247 8.339c-1.344 1.545-2.812 3.172-4.796 3.689z"/><path fill="#FFBEB6" d="M55.254 121.477c10.2 4.37 21.756 5.487 32.594 8.439 1.347.367 2.77.767 4.14.473 1.37-.293 2.564-1.594 2.038-2.744l-7.576-2.116c-7.696-2.149-15.396-4.3-23.215-6.074-1.507-.342-3.07-.673-4.607-.452-1.535.221-3.052 1.135-3.374 2.474z"/><path fill="#FFF" d="M186.015 217.372c-.204.066-.328.241-.262.444s.241.328.444.262c.204-.066.328-.241.262-.444-.064-.204-.24-.328-.444-.262zm-32.397 15.404c-.174-.123-.379-.058-.502.117-.123.174-.058.379.117.502.175.123.379.058.502-.117.219-.161.059-.379-.117-.502zm8.063 4.328c-.175-.123-.379-.058-.502.117-.123.174-.058.379.117.502.175.123.379.058.502-.117.109-.081.057-.379-.117-.502zm7.35-16.412a.61.61 0 0 0-.086.568.613.613 0 0 0 .569.086c.123-.174.152-.364.072-.473-.146-.312-.336-.341-.555-.181zm5.786 7.178a.61.61 0 0 0-.086.568.612.612 0 0 0 .569.086c.123-.174.152-.364.072-.473-.146-.312-.43-.356-.555-.181zm-22.552 23.297c-.19-.029-.408.131-.436.321-.029.189.131.408.321.436.19.029.408-.131.436-.321.029-.19-.131-.408-.321-.436zm9.151 1.007c-.19-.029-.408.131-.436.321-.028.189.131.408.321.436.19.028.408-.131.436-.321.029-.189-.131-.408-.321-.436zm14.74-36.885c-.109.08-.248.35-.072.473.08.109.35.248.473.072.109-.08.248-.35.072-.473-.064-.204-.254-.233-.473-.072zm4.584 6.8c-.109.08-.247.35-.072.473.08.109.256.233.473.072.109-.08.233-.256.072-.473-.174-.123-.364-.152-.473-.072zm-23.552 21.595c-.19-.029-.393.037-.422.227-.029.189.051.299.227.422.19.029.393-.037.422-.227.027-.19-.038-.393-.227-.422zm7.993 1.605c-.19-.029-.393.037-.422.227-.029.189.051.299.227.422.19.029.393-.037.422-.227.028-.189-.037-.393-.227-.422zm2.631-15.968c-.175-.123-.379-.058-.502.117-.123.174-.058.379.117.502.175.123.379.058.502-.117.124-.175.057-.379-.117-.502zm.589-17.83c-.174-.123-.379-.058-.502.117-.123.174-.058.379.117.502.175.123.379.058.502-.117.123-.174.057-.378-.117-.502zm7.823 5.261c-.174-.123-.379-.058-.502.117-.123.174-.058.379.117.502.175.123.379.058.502-.117.123-.175.058-.379-.117-.502zm7.933 5.18c-.175-.123-.379-.058-.502.117-.123.174-.058.379.117.502.174.123.379.058.502-.117a.736.736 0 0 0-.117-.502zm-23.727 28.445c-.204.066-.328.241-.262.444s.241.328.444.262.328-.241.262-.444c.03-.19-.239-.328-.444-.262zm35.637-34.088c-.16-.219-.35-.248-.569-.086m-30.46 14.148c-.19-.029-.408.131-.436.321-.029.189.131.408.321.436.19.029.408-.131.436-.321.029-.189-.132-.408-.321-.436zm-.373-6.45c-.19-.029-.408.131-.436.321-.029.189.131.408.321.436.19.029.393-.037.436-.321.029-.189-.132-.407-.321-.436zm9.167 2.172c-.19-.029-.408.131-.436.321-.029.189.037.393.321.436.19.029.408-.131.532-.307-.067-.203-.228-.421-.417-.45zm11.363-12.216c-.174-.123-.379-.058-.502.117-.123.174-.058.379.102.596.175.123.379.058.597-.102.044-.284-.022-.487-.197-.611zm1.09 3.654c-.19-.029-.299.051-.408.131-.029.189.051.299.131.408.19.029.299-.051.408-.131.03-.191-.037-.394-.131-.408z"/></svg></g><g transform="translate(147.0 744.0) rotate(0.0 120.5 291.5) scale(0.9717741935483871 0.9716666666666667)"><svg width="248" height="600" viewBox="0 0 248 600"><linearGradient id="j" gradientUnits="userSpaceOnUse" x1="6376.314" y1="9280.018" x2="4682.657" y2="8218.93" gradientTransform="matrix(0.0741 0 0 0.0741 -230.5491 -49.4972)"><stop offset=".129" style="stop-color:#428dfc"/><stop offset=".999" style="stop-color:#1d72d8"/></linearGradient><path fill="url(#j)" d="M195.148 550.192h-38.444s-20.036 18.868-41.526 28.07c-21.49 9.2-27.937 21.622-27.937 21.622l125.728-.004-17.809-49.626"/><path fill="#428DFC" d="m116.954 550.192-40.475-.004s-17.41 18.99-38.902 28.191C16.087 587.578 9.641 600 9.641 600l125.728-.004-18.415-49.804"/><linearGradient id="k" gradientUnits="userSpaceOnUse" x1="-4149.622" y1="1658.438" x2="-4031.421" y2="2281.672" gradientTransform="matrix(-0.0741 0 0 0.0741 -237.6964 -49.4972)"><stop offset="0" style="stop-color:#ffbeb6"/><stop offset="1" style="stop-color:#f2a19c"/></linearGradient><path fill="url(#k)" d="M70.604 141.81s-11.769-6.099-13.07-12.682c-1.102-5.571-11.659-11.262-11.659-11.262l8.797 17.534 4.636 9.821c0-.002 14.273 18.567 11.296-3.411z"/><path fill="#23286B" d="m32.585 140.425 22.349-5.086a2.454 2.454 0 0 0 1.41-3.881L26.895 92.836a2.461 2.461 0 0 0-2.547-.896L1.867 97.51a2.455 2.455 0 0 0-1.352 3.888l29.579 38.138a2.467 2.467 0 0 0 2.491.889z"/><linearGradient id="l" gradientUnits="userSpaceOnUse" x1="-3710.653" y1="2461.677" x2="-4061.589" y2="2808.113" gradientTransform="matrix(-0.0741 -7.542857e-004 -7.542857e-004 0.0741 -236.7857 -49.4683)"><stop offset="0" style="stop-color:#ffbeb6"/><stop offset="1" style="stop-color:#f2a19c"/></linearGradient><path fill="url(#l)" d="M64.498 144.076s-7.087-4.01-9.826-8.676c0 0-4.198.973-6.817 1.397 0 0-.342-6.654-13.491-7.778-11.856-1.014-10.293-3.588-17.629-5.984s-10.327-.234-10.741 2.213c0 0 7.72 2.787 9.498 5.643 1.778 2.856 3.902 9.842 10.336 12.102 6.433 2.259 29.072 5.03 33.699 19.911l4.971-18.828"/><linearGradient id="m" gradientUnits="userSpaceOnUse" x1="-5136.765" y1="1800.308" x2="-4802.524" y2="3105.941" gradientTransform="matrix(-0.0741 0 0 0.0741 -237.6964 -49.4972)"><stop offset="0" style="stop-color:#23286b"/><stop offset=".361" style="stop-color:#1e2361"/><stop offset="1" style="stop-color:#151a4f"/></linearGradient><path fill="url(#m)" d="M60.472 182.348s4.529 9.368 20.373 10.016c15.843.648 19.406 3.228 31.049 10.665 11.644 7.437 33.632 10.335 55.635-23.911 20.193-31.458 27.031-66.172 23.48-84.646-1.658-11.076-2.135-15.084-3.8-18.565-.227-.474-7.112 4.137-8.922 5.348-2.789 1.864-11.199 8.464-13.272 8.587-3.743 12.363-10.106 64.167-39.098 64.232-30.474.069-54.133-16.956-54.133-16.956l-11.312 45.23z"/><linearGradient id="n" gradientUnits="userSpaceOnUse" x1="1324.656" y1="3980.644" x2="6463.183" y2="6363.728" gradientTransform="matrix(0.0741 0 0 0.0741 -230.5491 -49.4972)"><stop offset="0" style="stop-color:#a1c3fc"/><stop offset=".696" style="stop-color:#81aef2"/><stop offset="1" style="stop-color:#78a9ef"/></linearGradient><path fill="url(#n)" d="M151.387 239.04s-43.443 90.734-53.301 130.354c-8.374 33.652 42.782 180.797 42.782 180.797h54.281s9.579-22.441-.639-43.601c-10.218-21.159-4.47-26.289-5.109-42.96-.639-16.672-1.916-42.317-14.688-70.53-12.773-28.212 26.821-58.989 37.039-78.225 10.218-19.236 25.544-58.347 17.879-79.506 0 0-38.216 2.033-40.771 2.675-2.553.643-37.473.994-37.473.996"/><path fill="#A1C3FC" d="M242.365 216.923c-.761.411-3.206 1.626-6.234 3.114a60.13 60.13 0 0 1-34.472 5.647l-45.114-6.018c-1.412 20.224-22.04 79.811-22.04 79.811-9.03 22.797-19.575 65.683-29.372 98.604-10.079 33.868-32.689 136.538-36.457 152.111h48.275c20.729-17.328 26.019-38.958 37.506-73.568 14.064-42.367 16.853-26.707 26.248-68.185 9.392-41.464 8.135-33.001 37.746-87.574 28.851-53.177 24.925-101.852 23.914-103.942z"/><path opacity=".86" fill="#FFF" d="M209.229 254.869a.314.314 0 0 0-.41.179.303.303 0 0 0 .158.407.314.314 0 0 0 .41-.179v-.001a.318.318 0 0 0-.158-.406zm-7.018-2.876a.316.316 0 1 0 .179.41.328.328 0 0 0-.179-.41zm-6.998-2.874a.316.316 0 1 0-.231.589.297.297 0 0 0 .385-.164l.006-.016a.29.29 0 0 0-.12-.391c-.015-.008-.028-.013-.04-.018zm-7.019-2.876a.317.317 0 0 0-.231.589.316.316 0 1 0 .231-.589zm-6.999-2.873a.316.316 0 1 0-.232.588.316.316 0 0 0 .232-.588zm5.715 34.263a.308.308 0 1 0-.164.405.308.308 0 0 0 .164-.405zm-2.914-6.979a.293.293 0 0 0-.374-.177l-.033.013a.316.316 0 0 0-.184.403.339.339 0 0 0 .427.165.306.306 0 0 0 .164-.404zm-2.912-6.977a.35.35 0 0 0-.425-.187.34.34 0 0 0-.166.426c.067.157.248.23.405.163a.317.317 0 0 0 .186-.402zm-2.933-7a.308.308 0 0 0-.405-.163.334.334 0 0 0-.166.426c.067.157.248.23.405.163a.334.334 0 0 0 .166-.426zm-23.302 20.87a.303.303 0 0 0-.389.181.29.29 0 0 0 .12.391c.011.006.024.011.037.016a.316.316 0 0 0 .232-.588zm42.786-12.181a.304.304 0 1 0 .005.429.288.288 0 0 0 .017-.408c-.006-.006-.014-.015-.022-.021zm-5.369-5.346a.307.307 0 0 0-.518.185c-.016.1.017.2.092.27a.076.076 0 0 0 .06.029l.022.002c.11.074.257.059.349-.038a.31.31 0 0 0 .01-.439c-.007-.002-.011-.006-.015-.009zm-5.372-5.326a.305.305 0 0 0-.43.005.302.302 0 0 0 .005.429.303.303 0 0 0 .426.016.31.31 0 0 0 .01-.439l-.011-.011zm-5.37-5.347a.307.307 0 0 0-.43.005.31.31 0 0 0-.01.439l.011.011a.288.288 0 0 0 .408.017c.007-.007.015-.013.022-.022a.313.313 0 0 0-.001-.45zm-10.749 27.297a.322.322 0 0 0-.003.643.322.322 0 0 0 .003-.643zm-.024-7.563a.33.33 0 0 0-.323.32c-.001.164.131.3.297.303l.027-.001a.309.309 0 0 0 .32-.298.345.345 0 0 0-.321-.324zm57.204 10.007a.587.587 0 0 0-.842.055.578.578 0 0 0 .055.818l.004.004a.587.587 0 0 0 .842-.055.58.58 0 0 0-.053-.818l-.006-.004zm-10.849-9.424a.58.58 0 0 0-.819.054l-.004.004a.597.597 0 0 0 .898.788.616.616 0 0 0-.075-.846zm-10.831-9.4a.6.6 0 0 0-.844.054.6.6 0 0 0 .898.79.585.585 0 0 0-.038-.828l-.016-.016zm-10.833-9.399a.587.587 0 0 0-.829.039l-.013.016a.577.577 0 0 0-.139.538l.022.002a.552.552 0 0 0 .172.303c.057.05.127.083.202.092a.584.584 0 0 0 .757-.329.586.586 0 0 0-.172-.661zm-11.158 64.439a.6.6 0 0 0-.558.63.57.57 0 0 0 .633.537.6.6 0 0 0 .558-.63.585.585 0 0 0-.633-.537c.001 0 .001 0 0 0zm-1.016-14.319a.588.588 0 0 0-.538.632v.001a.595.595 0 0 0 1.188-.072.635.635 0 0 0-.65-.561zm-.998-14.315a.635.635 0 0 0-.562.651.57.57 0 0 0 .633.537.587.587 0 0 0 .561-.608l-.001-.022a.603.603 0 0 0-.631-.558zm-1.021-14.297a.588.588 0 0 0-.538.632v.001a.596.596 0 1 0 .554-.633h-.016zm-.996-14.314a.598.598 0 0 0 .091 1.19.57.57 0 0 0 .538-.633.6.6 0 0 0-.629-.557zm53.946-3.614a.6.6 0 0 0-.758.367.595.595 0 1 0 .758-.367zm-13.626-4.539a.568.568 0 0 0-.727.342c-.004.008-.006.017-.009.027a.584.584 0 1 0 1.107.368.566.566 0 0 0-.371-.737zm-8.089 51.114a.603.603 0 1 0-.293.801l.011-.005a.607.607 0 0 0 .282-.796zm-6.412-12.836a.603.603 0 1 0-.293.801l.011-.005a.605.605 0 0 0 .282-.796zm-6.411-12.835a.63.63 0 0 0-.822-.263.603.603 0 0 0 .537 1.081.637.637 0 0 0 .285-.818zm-6.435-12.819a.59.59 0 0 0-1.07.491l.012.025c.142.291.493.41.784.268l.016-.007a.563.563 0 0 0 .276-.745c-.007-.01-.012-.021-.018-.032zm-6.411-12.837a.59.59 0 0 0-1.057.517.61.61 0 0 0 .797.282.589.589 0 0 0 .266-.789c-.002-.002-.005-.005-.006-.01zm-29.47 55.333a.568.568 0 0 0-.739.391.58.58 0 0 0 .363.735l.006.003a.6.6 0 0 0 .758-.367.632.632 0 0 0-.388-.762zm4.563-13.589a.591.591 0 0 0-.759.365.6.6 0 0 0 .366.757.634.634 0 0 0 .761-.387.58.58 0 0 0-.368-.735zm4.545-13.612a.6.6 0 0 0-.758.367.588.588 0 0 0 .388.759.568.568 0 0 0 .735-.369.598.598 0 0 0-.365-.757zm4.544-13.614a.6.6 0 0 0-.741.39.567.567 0 0 0 .369.734.6.6 0 0 0 .758-.367.61.61 0 0 0-.386-.757zm71.795-16.545a.471.471 0 0 0-.137.217.511.511 0 0 0 .095.399c.008-.214.017-.427.042-.616zm-17.997 46.812a.528.528 0 0 0-.896.555l.004.006a.528.528 0 0 0 .892-.561zm-6.793-10.855a.525.525 0 0 0-.727-.164.525.525 0 1 0 .562.89.516.516 0 0 0 .177-.708l-.012-.018zm-6.79-10.876a.381.381 0 0 0-.208-.2l-.02-.002a.54.54 0 0 0-.667.787c.157.242.48.316.727.164a.442.442 0 0 0 .215-.312.46.46 0 0 0-.047-.437zm-6.793-10.854a.535.535 0 1 0-.168.748.54.54 0 0 0 .168-.748zm-6.772-10.853a.56.56 0 0 0-.748-.167.535.535 0 0 0 .559.913.56.56 0 0 0 .189-.746zm-26.38 52.077a.527.527 0 0 0-.633.395l-.002.01a.51.51 0 0 0 .385.631.559.559 0 0 0 .655-.402.555.555 0 0 0-.405-.634zm2.886-12.472a.527.527 0 0 0-.633.395l-.003.01a.51.51 0 0 0 .385.631.526.526 0 0 0 .632-.384.542.542 0 0 0-.381-.652zm2.885-12.471a.527.527 0 0 0-.633.395l-.002.008a.5.5 0 0 0 .383.631.527.527 0 0 0 .633-.395l.002-.01a.532.532 0 0 0-.383-.629zm2.864-12.476a.552.552 0 0 0-.635.405.534.534 0 0 0 1.037.251.559.559 0 0 0-.402-.656zm2.906-12.468a.559.559 0 0 0-.655.402.532.532 0 1 0 1.04.233l.001-.004a.554.554 0 0 0-.386-.631zm47.069 10.598a.527.527 0 0 0-.736.116l-.011.015a.501.501 0 0 0 .087.703l.027.018a.52.52 0 0 0 .73-.092c.005-.006.01-.012.013-.018a.54.54 0 0 0-.11-.742zm-10.439-7.441a.558.558 0 0 0-.747.132.538.538 0 0 0 .132.746c.248.16.582.089.744-.158a.535.535 0 0 0-.129-.72zm-10.441-7.417a.533.533 0 0 0-.744.109l-.001.002c-.158.246-.1.57.132.746a.537.537 0 0 0 .747-.134.508.508 0 0 0-.134-.723zm-10.47 48.492a.557.557 0 0 0-.43.626.523.523 0 0 0 .606.426.535.535 0 0 0 .447-.602.55.55 0 0 0-.623-.45zm-2.111-12.625a.557.557 0 0 0-.43.626.523.523 0 0 0 .606.426.508.508 0 0 0 .432-.573l-.005-.032a.535.535 0 0 0-.603-.447zm-2.111-12.607a.508.508 0 0 0-.432.573l.005.032c.05.286.322.475.608.424a.523.523 0 0 0 .426-.603.51.51 0 0 0-.574-.433l-.033.007zm-2.109-12.627a.535.535 0 0 0-.447.602c.02.113.074.217.151.299l.022.002a.51.51 0 0 0 .454.126.525.525 0 0 0-.176-1.032l-.004.003zm-2.11-12.628a.438.438 0 0 0-.252.115.447.447 0 0 1-.187.273.537.537 0 0 0 .596.66.552.552 0 0 0 .452-.623.532.532 0 0 0-.609-.425zm-39.024 39.964a.545.545 0 0 0-.745.111.527.527 0 0 0 .116.736l.015.01c.218.17.534.13.703-.087l.019-.027a.517.517 0 0 0-.093-.729c-.002-.004-.009-.009-.015-.014zm7.426-10.431a.54.54 0 0 0-.744.159.533.533 0 0 0 .129.719.547.547 0 0 0 .747-.132.52.52 0 0 0-.106-.728c-.009-.006-.018-.011-.026-.018zm22.341-31.261a.557.557 0 0 0-.747.134.536.536 0 0 0 .134.746.54.54 0 0 0 .743-.159.542.542 0 0 0-.13-.721zm42.984 17.785a.315.315 0 0 0-.447-.018.315.315 0 1 0 .428.465.326.326 0 0 0 .019-.447zm-5.153-5.51a.315.315 0 0 0-.447-.018.315.315 0 1 0 .428.465.327.327 0 0 0 .019-.447zm-5.173-5.533a.303.303 0 0 0-.426-.016.292.292 0 0 0-.02.447.303.303 0 0 0 .426.016.293.293 0 0 0 .02-.447zm-19.697 22.097a.309.309 0 1 0-.021.619.31.31 0 1 0 .021-.619zm.253-7.545a.3.3 0 0 0-.32.275l-.001.024a.31.31 0 0 0 .298.32.325.325 0 0 0 .34-.295.319.319 0 0 0-.312-.323l-.005-.001zm.272-7.545a.3.3 0 0 0-.32.275l-.001.024a.31.31 0 1 0 .321-.299zm.252-7.546a.137.137 0 0 0-.087.008l-.022-.002a.33.33 0 0 0-.212.293.31.31 0 0 0 .298.32.342.342 0 0 0 .309-.215l.011-.083a.3.3 0 0 0-.276-.32l-.021-.001zm-12.944-5.9a.303.303 0 0 0-.426-.016.326.326 0 0 0-.019.447.33.33 0 0 0 .447.018.313.313 0 0 0 .006-.442l-.008-.007zm27.324 22.194a.299.299 0 0 0-.403-.185.304.304 0 0 0-.19.386l.006.016c.07.153.242.232.403.184a.313.313 0 0 0 .184-.401zm-2.661-7.092a.3.3 0 0 0-.387-.171l-.019.007a.322.322 0 0 0-.184.403c.07.153.242.232.403.184a.318.318 0 0 0 .195-.404l-.008-.019zm-2.645-7.068a.338.338 0 0 0-.403-.184.316.316 0 0 0-.184.403.299.299 0 0 0 .375.195c.01-.002.019-.006.028-.01a.304.304 0 0 0 .19-.386.034.034 0 0 0-.006-.018zm-2.644-7.069a.338.338 0 0 0-.403-.184.317.317 0 0 0-.184.403.299.299 0 0 0 .375.195c.01-.002.019-.006.028-.01a.317.317 0 0 0 .184-.404zm-21.14 20.291a.291.291 0 0 0-.408.158.31.31 0 1 0 .408-.158zm3.138-6.869a.29.29 0 0 0-.408.158.3.3 0 0 0 .135.403l.002.001c.16.074.352.005.429-.154a.303.303 0 0 0-.148-.403l-.01-.005zm3.138-6.87a.325.325 0 0 0-.426.135.322.322 0 0 0 .583.274.32.32 0 0 0-.157-.409zm3.268-6.721.003-.022a.328.328 0 0 0-.151-.15.32.32 0 0 0-.408.158.228.228 0 0 0-.023.168c.011.111.078.21.179.26a.303.303 0 0 0 .408-.158.228.228 0 0 0-.008-.256zm39.898 24.127a.343.343 0 0 0-.469-.115c-.004.001-.006.004-.009.006a.348.348 0 0 0-.113.499c.098.16.309.213.469.115l.009-.006a.366.366 0 0 0 .113-.499zm-4.652-7.262a.343.343 0 0 0-.469-.115c-.004.001-.006.004-.009.006a.362.362 0 0 0 .389.61.344.344 0 0 0 .089-.501zm-4.634-7.258a.36.36 0 1 0-.612.383l.001.002c-.002.022.017.024.037.048a.383.383 0 0 0 .463.065.366.366 0 0 0 .111-.498zm-4.655-7.26-.072-.096c-.022-.002-.039-.027-.081-.033a.332.332 0 0 0-.345.016.363.363 0 0 0 .389.61.358.358 0 0 0 .109-.497zm-22.034 27.984a.389.389 0 0 0-.425.284.354.354 0 0 0 .263.421.332.332 0 0 0 .422-.263.363.363 0 0 0-.258-.442h-.002zm1.852-8.417a.389.389 0 0 0-.425.284.354.354 0 0 0 .262.421.362.362 0 0 0 .442-.257l.001-.002a.392.392 0 0 0-.28-.446zm1.852-8.418a.389.389 0 0 0-.425.284.354.354 0 0 0 .262.421.335.335 0 0 0 .424-.283.35.35 0 0 0-.261-.422zm1.853-8.416a.37.37 0 0 0-.425.284.353.353 0 0 0 .262.421.335.335 0 0 0 .424-.283.352.352 0 0 0-.261-.422zm40.056 3.181a.354.354 0 0 0-.503.081.381.381 0 0 0 .08.504c.16.113.384.075.497-.086l.01-.015a.35.35 0 0 0-.084-.484zm-7.077-4.939a.37.37 0 0 0-.505.08.356.356 0 0 0 .086.496l.015.01a.347.347 0 0 0 .482-.083.362.362 0 0 0-.078-.503zm-20.447 23.172a.35.35 0 0 0-.398-.294l-.012.002-.02-.002a.365.365 0 0 0-.272.411.35.35 0 0 0 .398.294l.012-.002a.446.446 0 0 0 .139-.067.322.322 0 0 0 .153-.342zm-1.933-8.792a.39.39 0 0 0-.295.43c.052.19.24.309.434.273a.348.348 0 0 0 .273-.408l-.001-.005a.36.36 0 0 0-.411-.29zm-1.505-8.474a.357.357 0 0 0-.293.409.357.357 0 0 0 .409.293.357.357 0 0 0 .293-.409.35.35 0 0 0-.398-.294l-.011.001zm-1.528-8.477a.349.349 0 0 0-.272.413.33.33 0 0 0 .411.271.357.357 0 0 0 .293-.409.362.362 0 0 0-.432-.275zm-27.5 18.683a.34.34 0 0 0-.485.103.348.348 0 0 0 .083.482c.157.118.38.086.497-.071l.007-.01a.366.366 0 0 0-.102-.504zm4.945-7.067a.37.37 0 0 0-.507.101.34.34 0 0 0 .083.473c.006.005.013.008.02.012a.33.33 0 0 0 .482-.084.357.357 0 0 0-.078-.502c.002 0 .002 0 0 0zm4.947-7.07a.357.357 0 0 0-.497.086l-.01.015a.356.356 0 0 0 .587.403.38.38 0 0 0-.08-.504zm53.075-1.807a.62.62 0 0 0-.856.14.618.618 0 0 0 .99.736.646.646 0 0 0-.134-.876zm-17.725 58.456a.63.63 0 0 0-.527.698.614.614 0 0 0 .702.504.636.636 0 0 0 .526-.698.613.613 0 0 0-.701-.504zm-2.307-14.603a.612.612 0 1 0 .197 1.204.612.612 0 0 0-.197-1.204zm-2.287-14.6a.608.608 0 1 0 .177 1.202.63.63 0 0 0 .527-.698.617.617 0 0 0-.704-.504zm-2.308-14.604a.607.607 0 0 0-.505.701.612.612 0 0 0 1.207-.198.607.607 0 0 0-.702-.503zm-2.286-14.599a.61.61 0 0 0 .176 1.203.63.63 0 0 0 .527-.698.613.613 0 0 0-.703-.505zm-50.911 43.907a.616.616 0 0 0-.737.989.645.645 0 0 0 .876-.136.626.626 0 0 0-.139-.853zm8.708-11.944a.612.612 0 1 0-.721.99l.005.004a.612.612 0 1 0 .721-.99l-.005-.004zm8.708-11.945a.6.6 0 0 0-.843.105l-.01.012a.644.644 0 0 0 .136.875.622.622 0 0 0 .856-.14.6.6 0 0 0-.121-.842c-.006-.002-.012-.007-.018-.01zm8.71-11.945a.6.6 0 0 0-.843.105c-.004.004-.006.009-.01.012a.65.65 0 0 0 .136.875.62.62 0 0 0 .856-.14.585.585 0 0 0-.095-.823c-.016-.009-.03-.02-.044-.029zm8.731-11.963a.622.622 0 0 0-.856.14.617.617 0 0 0 .991.737.646.646 0 0 0-.135-.877zm37.213 20.306a.618.618 0 1 0-.203.85.63.63 0 0 0 .203-.85zm-7.709-12.609a.612.612 0 0 0-.84-.211l-.01.006a.628.628 0 0 0-.203.85.617.617 0 0 0 1.053-.645zm-33.11 46.799a.601.601 0 0 0-.725.445l-.002.011a.618.618 0 0 0 .432.745.653.653 0 0 0 .75-.453.617.617 0 0 0-.453-.748h-.002zm3.47-14.361a.588.588 0 0 0-.719.418c-.004.012-.006.025-.009.039a.596.596 0 0 0 .435.724h.001a.617.617 0 0 0 .748-.452v-.001a.588.588 0 0 0-.456-.728zm3.471-14.384a.617.617 0 0 0-.273 1.204.601.601 0 0 0 .725-.445l.003-.011a.62.62 0 0 0-.455-.748c.001 0 0 0 0 0zm3.468-14.36a.606.606 0 1 0-.268 1.182.608.608 0 0 0 .722-.436.616.616 0 0 0-.454-.746c.002 0 .002 0 0 0zm-18.182-12.665a.619.619 0 0 0-1.056.646.606.606 0 0 0 .831.2.617.617 0 0 0 .225-.846zm53.315 11.933a.584.584 0 0 0-.807-.177l-.028.018a.628.628 0 0 0-.182.853.65.65 0 0 0 .857.16.608.608 0 0 0 .16-.854zm-36.599 48.607a.618.618 0 1 0-.251 1.21.618.618 0 0 0 .251-1.21zm2.86-14.446a.651.651 0 0 0-.734.497.626.626 0 0 0 .48.709c.333.07.66-.145.73-.478a.63.63 0 0 0-.476-.728zm2.834-14.428a.607.607 0 0 0-.23 1.189c.333.07.66-.145.73-.478a.628.628 0 0 0-.5-.711zm2.859-14.445a.601.601 0 0 0-.708.466l-.003.013a.61.61 0 0 0 .48.709.586.586 0 0 0 .702-.442l.007-.038a.6.6 0 0 0-.466-.707l-.012-.001zm-35.322-7.175a.584.584 0 0 0-.807-.177l-.028.018a.604.604 0 0 0-.18.832c.19.28.567.36.854.182a.608.608 0 0 0 .161-.855zm12.241-8.202a.507.507 0 0 0-.355-.221l.003-.022a.62.62 0 0 0-.482.083.208.208 0 0 0-.099.093.603.603 0 0 0 .772.922c.024-.017.048-.037.05-.058a.44.44 0 0 0 .187-.273.577.577 0 0 0-.076-.524zm42.052 36.289a.624.624 0 0 0-.486.725.613.613 0 0 0 .729.464.601.601 0 0 0 .484-.699l-.001-.005a.634.634 0 0 0-.726-.485zm-2.886-14.448a.633.633 0 0 0-.486.725.607.607 0 0 0 1.193-.228l-.002-.015a.602.602 0 0 0-.705-.482zm-2.912-14.429a.624.624 0 0 0-.486.725.618.618 0 0 0 1.212-.24.622.622 0 0 0-.726-.485zm-46.282 32.942a.596.596 0 0 0-.839.183.603.603 0 0 0 .163.836c.282.19.664.119.858-.159a.613.613 0 0 0-.182-.86zm8.173-12.256a.596.596 0 0 0-.839.183.603.603 0 0 0 .163.836c.282.19.664.119.858-.159a.613.613 0 0 0-.165-.85l-.017-.01zm8.171-12.255a.613.613 0 0 0-.84.184.603.603 0 0 0 .163.836c.282.19.664.119.858-.159a.613.613 0 0 0-.165-.85l-.016-.011zm8.172-12.255a.634.634 0 0 0-.84.184.603.603 0 0 0 .163.836.63.63 0 0 0 .858-.159.616.616 0 0 0-.175-.856l-.006-.005zm-22.157-7.496a.465.465 0 1 0-.256.607.473.473 0 0 0 .256-.607zm56.736 7.201a.45.45 0 0 0-.582-.255l-.005.002a.467.467 0 1 0 .598.28l-.011-.027zm-34.616 30.122a.44.44 0 0 0-.592.194c-.007.013-.013.028-.019.043a.46.46 0 1 0 .611-.237zm4.373-10.21a.457.457 0 0 0-.611.237.46.46 0 0 0 .237.61.462.462 0 1 0 .374-.847zm4.374-10.212a.462.462 0 1 0 .237.61.473.473 0 0 0-.237-.61zm4.373-10.209a.48.48 0 0 0-.615.258.457.457 0 0 0 .256.592l.004.001a.442.442 0 0 0 .584-.226l.006-.013a.455.455 0 0 0-.222-.604c-.003-.005-.008-.006-.013-.008zm10.235 29.641a.457.457 0 0 0-.469.445v.004a.482.482 0 0 0 .45.468.466.466 0 0 0 .469-.45.445.445 0 0 0-.416-.469c-.012.002-.023.002-.034.002zm.123-11.098a.442.442 0 0 0-.449.436v.016a.456.456 0 0 0 .445.468h.004a.492.492 0 0 0 .473-.47.46.46 0 0 0-.467-.451l-.006.001zm.147-11.116a.491.491 0 0 0-.473.47.44.44 0 0 0 .429.449h.024a.444.444 0 0 0 .469-.415l.001-.033a.456.456 0 0 0-.445-.468c-.003-.003-.004-.003-.005-.003zm-39.179 5.955a.446.446 0 0 0-.627-.037l-.012.011a.45.45 0 0 0-.007.662c.176.179.464.18.643.004a.452.452 0 0 0 .003-.64zm7.958-7.765a.495.495 0 0 0-.664-.006.47.47 0 0 0 .657.67.494.494 0 0 0 .007-.664zm7.954-7.744a.454.454 0 0 0-.641-.028l-.023.022a.466.466 0 0 0-.004.642.462.462 0 0 0 .668-.636zm26.042 7.475a.255.255 0 1 0-.091.501.258.258 0 0 0 .288-.218.257.257 0 0 0-.197-.283zm1.043-5.98a.247.247 0 0 0-.288.215.226.226 0 0 0 .163.277l.034.006a.242.242 0 0 0 .283-.19l.001-.006a.275.275 0 0 0-.193-.302zm-8.083 15.479a.388.388 0 0 0-.555.138.38.38 0 0 0 .116.552c.19.126.446.076.573-.114a.405.405 0 0 0-.11-.561l-.024-.015zm5.358-8.512a.421.421 0 0 0-.576.135.405.405 0 0 0 .11.561l.024.015a.388.388 0 0 0 .555-.138.401.401 0 0 0-.113-.573z"/><linearGradient id="o" gradientUnits="userSpaceOnUse" x1="6193.423" y1="2119.436" x2="5413.568" y2="4205.545" gradientTransform="matrix(0.0741 0 0 0.0741 -230.5491 -49.4972)"><stop offset="0" style="stop-color:#23286b"/><stop offset=".361" style="stop-color:#1e2361"/><stop offset="1" style="stop-color:#151a4f"/></linearGradient><path fill="url(#o)" d="M187.354 73.447a.041.041 0 0 1-.023-.011 74.225 74.225 0 0 0-22.317 16.41l-18.273 132.367c47.139 34.491 90.337 25.33 98.811 23.056.991-.273 1.504-.444 1.504-.444 9.673-122.048-58.175-170.309-59.702-171.378z"/><path fill="#23286B" d="M165.019 89.849s-6.209 33.516-23.202 57.651c-10.289 14.615-23.261 17.926-46.995 8.57-21.481-8.469-29.816-13.658-29.816-13.658l-16.294 61.066s24.358 37.309 56.835 27.576c26.691-7.999 42.159 11.819 56.023 10.544 30.853-2.839 37.614-10.303 47.092-54.341 9.479-44.038-5.683-93.677-21.328-113.817"/><linearGradient id="p" gradientUnits="userSpaceOnUse" x1="5586.163" y1="1699.395" x2="5340.039" y2="1631.498" gradientTransform="matrix(0.0741 0 0 0.0741 -230.5491 -49.4972)"><stop offset="0" style="stop-color:#ffbeb6"/><stop offset="1" style="stop-color:#f29b94"/></linearGradient><path fill="url(#p)" d="M159.538 69.317s6.395 15.057 5.481 20.533a96.363 96.363 0 0 1 22.314-16.41s-10.667-14.389-10.667-17.355l-17.128 13.232z"/><path fill="#FFBEB6" d="M148.994 70.781c-9.008-2.564-14.262-10.629-16.089-10.169-1.836.449-5.977.478-6.662-1.417-.665-1.89 2.468-8.962.931-16.158a30.459 30.459 0 0 1-.375-1.955c-.005-.032-.012-.043.002-.072l-.053-.349a28.732 28.732 0 0 1-.206-2.163c5.215 1.89 9.861 2.052 11.919.672 5.833-3.901 7.026.084 13.695 4.334 6.689 4.251 11.788.835 19.667-2.042 7.888-2.864 9.115 5.238 6.324 8.403-2.783 3.176-5.019 4.725-2.755 7.782a5.417 5.417 0 0 0 1.467 1.705l-.747.775a9.874 9.874 0 0 1-.744.701l-3.606 3.081c-6.498 5.494-14.325 9.289-22.768 6.872z"/><path fill="#E94A47" d="m230.221 46.133-105.147-13.06.482-3.882L228.24 41.946a2.479 2.479 0 0 1 2.157 2.766l-.176 1.421z"/><linearGradient id="q" gradientUnits="userSpaceOnUse" x1="5272.795" y1="1020.426" x2="5616.877" y2="1899.229" gradientTransform="matrix(0.0741 0 0 0.0741 -230.5491 -49.4972)"><stop offset="0" style="stop-color:#e94a47"/><stop offset=".847" style="stop-color:#a74a47"/></linearGradient><path fill="url(#q)" d="m193.79 37.646-68.24-8.476.937-7.527c1.684-13.53 14.03-23.135 27.574-21.452l18.168 2.256c14.109 1.753 24.123 14.598 22.37 28.692l-.809 6.507z"/><path fill="#23286B" d="M176.86 59.35s5.217 1.833 11.659-4.918c6.441-6.75 5.758-12.911 5.758-12.911s-64.791-8.133-66.996-8.29c-2.205-.157-1.405-.348-9.012-7.185s-12.332 3.166-7.295 10.615c5.037 7.45 19.281 5.83 25.204 3.486 5.923-2.343 8.303-3.034 12.915 1.925 4.613 4.959 13.735 5.347 20.734.351 7.001-4.996 12.684 2.493 7.068 8.163-5.616 5.669-.035 8.764-.035 8.764z"/><path fill="#1C2868" d="M133.039 47.265a5.471 5.471 0 0 1-9.614-.954c-.321-.767.819-1.411 1.145-.633a4.164 4.164 0 0 0 7.346.921c.481-.683 1.61-.021 1.123.666z"/></svg></g><g transform="translate(1397.0 984.0) rotate(0.0 -329.5 204.5) scale(-1.318 1.3193548387096774)"><svg width="500" height="310" viewBox="0 0 500 310"><linearGradient id="r" gradientUnits="userSpaceOnUse" x1="1036.348" y1="2853.493" x2="1267.583" y2="2853.493" gradientTransform="matrix(0.1333 0 0 0.1333 -129.1383 -163.4508)"><stop offset="0" style="stop-color:#ffbeb6"/><stop offset="1" style="stop-color:#f2a19c"/></linearGradient><path fill="url(#r)" d="M19.581 218.902c7.996.841 12.555.725 20.249-1.9-10.298.127-31.061-3.912-30.821-2.026.417 3.295 7.671 3.621 10.572 3.926z"/><path fill="#FFBEB6" d="M58.752 225.304c-.854-.484-1.711-1.118-2.117-2.106-.485-1.181-.213-2.568.074-3.831A296.203 296.203 0 0 1 70.1 176.092l-4.431.31-8.1 15.928c-3.967 7.798-6.225 18.178-14.753 23.404-12.468 3.468-24.096 5.331-36.856 6.876-2.023.245-6.649 1.17-5.875 3.321 1.405.804 2.07 1.445 4.04 1.004s14.027-1.698 16.567-1.462c2.056.191 4.109.205 6.16.094-.492.185-.983.369-1.475.564-1.473.589-3.885 1.252-5.444 1.205-1.358-.041-3.398.368-4.742.603s-3.336 2.97-.697 3.042c9.586.261 19.218-.866 28.46-3.787 2.075-.656 4.27-1.397 6.338-.719 1.234.405 4.345 2.061 5.627 2.459 4.73 1.47 4.286 1.943 9.076 3.3 2.312.655 5.211 3.595 5.455.886.398-4.398-5.809-5.048-10.698-7.816z"/><path fill="#1D72D8" d="M499.892 205.494c1.707-10.813-17.318.488-22.824 9.949-4.157 7.142-6.603 15.128-9.007 23.035-.466 1.533-.934 3.075-1.106 4.668-.18 1.657-1.382 4.501-1.298 6.167.469 9.319.337 17.56-2.965 26.287 8.779.469 18.048 2.035 26.776 3.095 1.507-7.882 8.981-64.062 10.424-73.201z"/><path fill="#EEE" d="M237.222 275.17H94.987v34.768h94.191z"/><path fill="#151A4F" d="M238.685 243.84c-8.595-7.306-15.767-16.896-17.827-27.987-2.06-11.091 1.915-23.697 11.418-29.774 4.772 5.945 14.339 5.527 20.878 1.609s11.063-10.369 16.313-15.897c13.95-14.688 33.18-22.951 51.843-30.829 3.995-1.686 8.722-3.341 12.464-1.15 1.762 1.032 2.977 2.766 4.135 4.448 4.377 6.354 8.949 13.367 8.424 21.064-.225 3.303-1.393 6.464-2.7 9.506-12.09 28.121-36.254 48.925-59.63 68.688-4.89 4.134-10.011 8.391-16.217 9.972-10.296 2.626-21.003-2.767-29.101-9.65z"/><linearGradient id="s" gradientUnits="userSpaceOnUse" x1="2262.658" y1="2945.867" x2="4486.552" y2="2945.867" gradientTransform="matrix(0.1333 0 0 0.1333 -129.1383 -163.4508)"><stop offset="0" style="stop-color:#23286b"/><stop offset="1" style="stop-color:#151a4f"/></linearGradient><path fill="url(#s)" d="m250.716 218.982 44.501 9.095c8.349 1.706 16.859 3.422 25.333 2.523 6.798-.721 13.466-3.117 20.286-2.65 5.589.382 10.842 2.66 16.181 4.361 14.469 4.608 29.889 5.024 45.07 5.401 19.833.493 45.969.987 65.804 1.479 2.444 12.14-1.414 24.279 1.03 36.419-13.688 4.836-28.638 4.022-43.129 3.148l-100.269-6.051c-28.906-1.743-58.18-3.556-85.718-12.513s-53.608-26.005-67.33-51.506a237.066 237.066 0 0 1 57.811-29.644c8.745 6.462 13.444 17.985 11.715 28.72-.304 1.888-.786 3.848-.224 5.675 1.086 3.529 5.324 4.804 8.939 5.543z"/><linearGradient id="t" gradientUnits="userSpaceOnUse" x1="1660.264" y1="2262.414" x2="1739.271" y2="2700.2" gradientTransform="matrix(0.1333 0 0 0.1333 -129.1383 -163.4508)"><stop offset="0" style="stop-color:#a1c3fc"/><stop offset="1" style="stop-color:#78a9ef"/></linearGradient><path fill="url(#t)" d="M141.285 74.322c-.482-.533-1.249-.676-1.959-.788l-9.497-1.501c-3.023-.478-6.379-.888-8.915.824-1.592 1.075-2.579 2.819-3.51 4.499-16.99 30.677-27.036 59.088-32.461 68.886-9.501 17.156-19.848 25.564-29.348 42.719L44.171 209.59l36.13 12.456c4.49-19.01 5.511-26.169 10.002-45.178 1.344-5.691 21.307-42.574 23.966-45.473 6.317-6.888 18.138-23.962 22.635-32.155 3.72-6.78 4.334-14.771 4.868-22.486.057-.852.083-1.802-.487-2.432z"/><path fill="#F2A19C" d="M163.994 72.403a35.592 35.592 0 0 1-.989 17.263l20.916-.672c-2.778-4.567-2.588-10.275-2.325-15.614.023-.461.033-.965-.251-1.328-.441-.565-1.304-.477-2.009-.348a56.287 56.287 0 0 1-15.342.699z"/><linearGradient id="u" gradientUnits="userSpaceOnUse" x1="1955.725" y1="2373.374" x2="2810.258" y2="2373.374" gradientTransform="matrix(0.1333 0 0 0.1333 -129.1383 -163.4508)"><stop offset="0" style="stop-color:#a1c3fc"/><stop offset="1" style="stop-color:#78a9ef"/></linearGradient><path fill="url(#u)" d="M207.438 137.527c1.047 7.964 2.805 16.11 7.464 22.652 7.865 11.047 22.537 15.593 30.567 26.52-19.129 19.578-43.754 32.679-67.956 45.467-7.585-11.904-15.168-23.81-22.754-35.714-2.675-4.199-5.354-8.405-7.631-12.832-3.3-6.418-5.729-13.249-7.811-20.158-8.693-28.831-10.743-59.982-2.73-89.009.576-2.088 10.423.552 16.838 1.654 1.91.327 9.059 2.18 10.621 3.326 1.609 1.18 1.609 1.824 3.862 3.219 5.707 3.533 9.102 1.855 13.947-2.789.813-.78 2.039-2.146 3.755-3.004 1.517-.758 4.721-1.074 6.651-.859 6.856.762 12.162.799 17.912 4.611a160.672 160.672 0 0 0-2.735 56.916z"/><linearGradient id="v" gradientUnits="userSpaceOnUse" x1="-6145.659" y1="3286.989" x2="-5519.234" y2="3286.989" gradientTransform="matrix(-0.1333 0 0 0.1333 -357.3899 -163.4508)"><stop offset="0" style="stop-color:#428dfc"/><stop offset="1" style="stop-color:#1d72d8"/></linearGradient><path fill="url(#v)" d="M460.448 288.258c6.744-.35-10.209-16.961-20.363-21.051-7.665-3.087-15.919-4.362-24.09-5.605-1.583-.241-3.178-.482-4.778-.424-1.666.061-4.653-.721-6.29-.4-9.155 1.802-17.33 2.857-26.44.841.797 8.755.577 18.153.783 26.942 8.015.361 75.718-.018 81.178-.303z"/><path fill="#FFBEB6" d="M188.636 63.1c1.091-6.434 1.104-13.82-3.391-18.549-4.518-4.752-11.896-5.089-18.439-4.66-1.426.094-2.869.212-4.221.677-1.499.516-2.83 1.443-3.997 2.517-4.539 4.178-6.636 10.691-5.919 16.818.717 6.128 4.08 11.801 8.764 15.815 4.762 4.08 11.65 6.519 17.372 3.956 6.114-2.739 8.711-9.97 9.831-16.574z"/><g><path fill="#23286B" d="M182.869 69.187c-2.165 0-4.2-.713-5.725-2.034a.429.429 0 0 1 .559-.647c1.65 1.428 3.978 2.064 6.384 1.743 2.407-.32 4.486-1.543 5.704-3.354a.428.428 0 1 1 .71.478c-1.355 2.014-3.651 3.371-6.301 3.725-.446.059-.892.089-1.331.089z"/></g><g><path fill="#23286B" d="M159.457 69.064c-.102 0-.202-.001-.304-.004-2.704-.076-5.221-1.163-6.905-2.982a.428.428 0 0 1 .628-.582c1.529 1.651 3.826 2.638 6.302 2.708 2.475.073 4.825-.786 6.444-2.347a.428.428 0 0 1 .594.616c-1.718 1.656-4.167 2.591-6.759 2.591z"/></g><path fill="#E94A47" d="M159.187 33.415c-3.399 3.213-6.495 6.096-7.798 10.999-2.605 9.808 2.108 18.422 2.108 18.422s2.092-4.945 3.251-6.015c2.113-1.951 3.667-1.384 4.065-1.587.91-.464 1.883.339 2.706 1.008 4.404 3.587 10.27 4.203 15.093 1.581 2.226-1.21 4.556-3.104 6.88-2.224 1.726.653 2.955 2.196 3.606 5.284.714-.556 1.765-3.611 1.71-4.658-.466-8.714-2.978-17.243-7.146-24.263-1.026-1.727-2.168-3.386-3.611-4.563-3.018-2.463-4.275-2.724-7.695-1.303-3.424 1.424-10.296 4.602-13.169 7.319zm33.459-27.822c5.386-2.901 11.893-4.741 17.594-2.525 3.388 1.317 6.094 3.912 8.704 6.442 1.565 1.518 3.203 3.164 3.672 5.293.293 1.329.095 2.709.062 4.07-.078 3.367-.346 5.406 1.533 8.203.711.784 3.039 2.783 4.356 3.354-4.896 2.205-10.587 1.868-15.793.559-5.207-1.309-10.141-3.528-15.294-5.035-6.665-1.95-13.615-2.689-20.521-3.419 2.584-7.443 8.752-13.207 15.687-16.942z"/><g><path fill="#E94A47" d="M176.713 25.84h-.013a.428.428 0 0 1-.416-.439c.214-7.553 3.857-14.892 9.743-19.631 5.886-4.738 13.831-6.732 21.257-5.33a.427.427 0 1 1-.158.84c-7.183-1.354-14.869.572-20.561 5.156-5.693 4.584-9.216 11.682-9.425 18.989a.428.428 0 0 1-.427.415z"/></g><path fill="#23286B" d="M173.899 18.682h8.537v8.537h-8.537z"/><linearGradient id="w" gradientUnits="userSpaceOnUse" x1="3804.805" y1="3066.499" x2="3595.788" y2="2436.06" gradientTransform="matrix(0.1333 0 0 0.1333 -129.1383 -163.4508)"><stop offset="0" style="stop-color:#23286b"/><stop offset="1" style="stop-color:#151a4f"/></linearGradient><path fill="url(#w)" d="M322.865 173.155c-1.361-3.717-4.094-6.784-5.649-10.423-2.455-5.747-1.612-12.773 2.133-17.776 4.124-5.509 12.881-8.018 18.036-3.458 2.519 2.228 3.677 5.57 4.89 8.707 3.995 10.329 9.608 19.942 15.195 29.505 17.99 30.793 36.929 61.143 65.459 82.543-12.507 1.443-28.697 3.936-39.924 4.329-6.203.218-6.168 1.342-12.171-.234-6.004-1.576-11.768-5.218-14.409-10.835-4.141-8.807.126-20.274-5.283-28.362-2.669-3.989-7.163-6.268-11.263-8.766-7.67-4.674-14.969-11.393-16.514-20.242-1.442-8.265 2.387-17.108-.5-24.988z"/><g><path fill="#EEE" d="m138.004 185.499-.843-.126c2.379-33.087 1.608-67.728.864-101.228-.079-3.556-.159-7.098-.233-10.623a.428.428 0 0 1 .418-.437h.009c.232 0 .423.186.428.418.074 3.525.154 7.067.232 10.623.713 32.063 1.449 65.17-.572 96.979 3.445-11.19 10.075-22.288 16.511-33.059 3.859-6.457 7.503-12.558 10.46-18.611 4.212-8.624 7.481-17.888 10.643-26.846 3.17-8.98 6.447-18.268 10.681-26.935a.427.427 0 0 1 .767.375c-4.212 8.624-7.481 17.888-10.643 26.846-3.17 8.98-6.447 18.268-10.681 26.935-2.971 6.085-6.626 12.2-10.494 18.674-7.205 12.062-14.658 24.535-17.547 37.015z"/></g><path fill="#EEE" d="m138.1 180.932 21.038 7.437-14.13 39.97-21.037-7.437z"/><path fill="#FFBEB6" d="M203.58 276.932c1.215-7.008.206-5.983 1.764-12.514.986 1.175 2.32 2.244 4.237 1.323a9.097 9.097 0 0 0 1.268-5.267c1.592.675 3.386 1.862 5.063-.024 2.264-2.55 5.248-4.436 4.744-7.809-.503-3.372-2.561-6.27-4.026-9.349-4.523-9.502-3.362-20.565-3.58-31.086-.219-10.521-2.735-22.317-11.628-27.944l.919 45.099c.093 4.529.181 9.102-.72 13.542-.531 2.618-1.399 5.158-1.923 7.777-.666 3.329-.768 6.743-.866 10.136-.285 9.765-.536 18.111-.821 27.876.206 3.094 3.094 3.714 3.805.939.358-1.399 1.517-11.278 1.764-12.699z"/><linearGradient id="x" gradientUnits="userSpaceOnUse" x1="2550.783" y1="2466.159" x2="2823.549" y2="1734.52" gradientTransform="matrix(0.1333 0 0 0.1333 -129.1383 -163.4508)"><stop offset="0" style="stop-color:#a1c3fc"/><stop offset="1" style="stop-color:#78a9ef"/></linearGradient><path fill="url(#x)" d="m192.261 93.601 10.725-16.128c5.606 1.208 9.912 3.519 11.817 9.156 1.904 5.637 1.73 15.24 1.363 21.181-.77 12.443-3.095 24.753-3.802 37.2-.602 10.606-.024 21.24.552 31.848.214 3.95.431 7.91 1.096 11.81.745 4.373 2.047 8.632 3.445 12.841a279.306 279.306 0 0 0 13.967 34.261l-36.672 3.756 2.388-39.779c1.706-28.424 3.216-58.056-7.96-84.231-.987-2.313-2.083-4.632-2.374-7.13-.62-5.338 2.482-10.316 5.455-14.785z"/><path fill="#23286B" d="M136.167 179.648h4.455v4.455h-4.455z"/><g><path fill="#E94A47" d="m152.993 87.329-.633-.573c2.029-2.241 1.953-5.634 1.569-8.968-.375-3.257-.801-6.948 1.142-9.768.388-.564.86-1.07 1.317-1.56.779-.836 1.513-1.624 1.805-2.628.157-.536.175-1.108.196-1.713.008-.235.016-.47.032-.703.196-2.877 1.676-5.646 3.961-7.407l.521.677c-2.093 1.613-3.449 4.151-3.628 6.788-.015.224-.023.448-.03.673-.021.631-.043 1.284-.229 1.924-.349 1.199-1.188 2.1-2.001 2.971-.435.468-.886.95-1.239 1.463-1.76 2.556-1.354 6.078-.996 9.186.405 3.532.471 7.146-1.787 9.638z"/></g><path fill="#FFF" d="m212.43 283.624-4.327-2.21 2.21-4.329 4.328 2.21zm-21.866 1.239-4.328-2.21 2.21-4.329 4.328 2.21zm10.276 11.239-5.093 3.387-3.387-5.093 5.093-3.387z"/><path fill="#D6D7D8" d="M89.544 239.137h99.881v70.801H89.544z"/><path fill="#A1C3FC" d="m139.38 279.636-8.634-4.41 4.41-8.634 8.634 4.41z"/><path fill="#FFF" d="M136.784 81.547c-.168.054-.269.198-.216.366.054.168.198.269.366.216.168-.054.269-.198.216-.366-.054-.168-.198-.27-.366-.216zm-26.653 12.681c-.143-.102-.311-.048-.413.097-.102.143-.048.311.097.413.143.102.311.048.413-.097.179-.132.047-.311-.097-.413zm6.633 3.563c-.143-.102-.311-.048-.413.097-.102.144-.048.311.097.413.143.102.311.048.413-.097.089-.065.046-.311-.097-.413zm6.047-13.51a.5.5 0 0 0-.071.468.5.5 0 0 0 .468.071c.102-.143.126-.3.059-.39-.12-.257-.276-.281-.456-.149zm4.761 5.909a.5.5 0 0 0-.071.468.5.5 0 0 0 .468.071c.102-.143.126-.3.059-.39-.121-.258-.354-.293-.456-.149zm-18.555 19.178c-.156-.024-.335.109-.359.264-.024.156.109.335.264.359.156.024.335-.109.359-.264a.337.337 0 0 0-.264-.359zm7.529.829c-.156-.024-.335.109-.359.264-.024.156.109.335.264.359.156.024.335-.109.359-.264.024-.154-.108-.334-.264-.359zm12.127-30.365c-.089.066-.203.289-.059.39.066.089.289.203.39.059.089-.066.203-.289.059-.39-.055-.166-.21-.191-.39-.059zm3.771 5.599c-.089.066-.203.289-.059.39.066.089.21.191.39.059.089-.066.191-.21.059-.39-.145-.101-.3-.124-.39-.059zm-19.377 17.777c-.156-.024-.323.031-.348.186s.042.245.186.348c.156.024.323-.03.348-.186.024-.156-.03-.324-.186-.348zm6.577 1.322c-.156-.024-.323.031-.348.186s.042.245.186.348c.156.024.323-.03.348-.186.024-.156-.031-.324-.186-.348zm2.164-13.146c-.143-.102-.311-.048-.413.097-.102.143-.048.311.097.413.144.102.311.048.413-.097.101-.144.046-.312-.097-.413zm.485-14.678c-.143-.102-.311-.048-.413.097-.102.144-.048.311.097.413.143.102.311.048.413-.097.1-.143.046-.311-.097-.413zm6.436 4.331c-.143-.102-.311-.048-.413.097-.102.143-.048.311.097.413.143.102.311.048.413-.097.1-.144.046-.311-.097-.413zm6.526 4.265c-.143-.102-.311-.048-.413.097-.102.143-.048.311.097.413.143.102.311.048.413-.097a.607.607 0 0 0-.097-.413zm-19.52 23.416c-.168.054-.269.198-.216.366.054.168.198.269.366.216.168-.054.269-.198.216-.366.024-.156-.198-.27-.366-.216zm29.319-28.061c-.132-.18-.289-.203-.468-.071m-25.061 11.647c-.156-.024-.335.109-.359.264-.024.156.109.335.264.359.156.024.335-.109.359-.264.025-.157-.108-.336-.264-.359zm-.306-5.31c-.156-.024-.335.109-.359.264-.024.156.109.335.264.359.156.024.323-.03.359-.264.025-.156-.109-.336-.264-.359zm7.542 1.788c-.156-.024-.335.109-.359.264-.024.156.03.323.264.359.156.024.335-.109.437-.252-.055-.168-.186-.347-.342-.371zm9.348-10.057c-.143-.102-.311-.048-.413.097-.102.143-.048.311.084.492.143.102.311.048.492-.084.035-.235-.018-.404-.163-.505zm.898 3.007c-.156-.024-.245.042-.335.109-.024.156.042.245.109.335.156.024.245-.042.335-.109.022-.155-.032-.323-.109-.335z"/></svg></g><g transform="translate(1007.0 201.0) rotate(0.0 160.5 261.0) scale(1.3048780487804879 1.305)"><svg width="246" height="400" viewBox="0 0 246 400"><g><path fill="#428DFC" d="m152.108 364.28 29.395.001s12.677 13.535 28.135 20.157C225.097 391.06 229.734 400 229.734 400l-90.434-.003 12.808-35.717"/><linearGradient id="y" gradientUnits="userSpaceOnUse" x1="6317.993" y1="5965.631" x2="5276.956" y2="6748.31" gradientTransform="matrix(0.0741 0 0 0.0741 -230.5491 -141.1613)"><stop offset=".129" style="stop-color:#428dfc"/><stop offset=".999" style="stop-color:#1d72d8"/></linearGradient><path fill="url(#y)" d="m162.684 316.413 28.765-6.045s15.192 10.638 31.683 13.939S246 335.401 246 335.401l-88.5 18.6 5.184-37.588"/><linearGradient id="z" gradientUnits="userSpaceOnUse" x1="6116.84" y1="4295.863" x2="4424.771" y2="5169.967" gradientTransform="matrix(0.0741 0 0 0.0741 -230.5491 -141.1613)"><stop offset="0" style="stop-color:#23286b"/><stop offset="1" style="stop-color:#151a4f"/></linearGradient><path fill="url(#z)" d="M68.731 158.283s66.854 11.795 84.267 18.885c17.414 7.089 18.618 25.964 26.166 65.135 8.774 45.536 12.803 68.314 12.803 68.314l-32.816 6.659s-11.472-5.763-15.355-25.646-1.837-21.743-6.55-32.403c-4.714-10.66-8.485-16.449-8.486-30.147-.001-13.697-7.901-20.465-19.684-19.722-11.783.744-64.178.165-86.463-35.775l-4.991-8.048s36.979-14.6 51.109-7.252"/><linearGradient id="A" gradientUnits="userSpaceOnUse" x1="4895.211" y1="2539.823" x2="4982.935" y2="3002.361" gradientTransform="matrix(0.0741 0 0 0.0741 -230.5491 -141.1613)"><stop offset="0" style="stop-color:#ffbeb6"/><stop offset="1" style="stop-color:#f2a19c"/></linearGradient><path fill="url(#A)" d="M133.262 96.874s6.605-2.79 6.605-7.909 8.669-8.665 8.669-8.665l-6.708 13.38-3.536 7.494c-.001-.001-7.299 12.471-5.03-4.3z"/><path fill="#23286B" d="M129.239 337.016c3.828 8.678 14.735 21.869 22.87 27.262l29.395.001c-1.221-4.999-26.229-107.917-36.084-126.027-8.041-14.761-19.391-30.365-30.682-43.957l-28.217-33.023-27.988 5.599c-.986-.399-2.799-.696-3.887-1.059-2.019-.68-3.924 7.025-6.527 5.224-4.433 2.22-28.039.178-31.274 1.453 2.071 24.011 22.748 41.663 47.185 53.668 45.58 22.394 37.256 33.532 41.093 48.523 3.808 14.999 6.471 23.948 15.156 34.696 8.706 10.751 1.679 11.083 8.96 27.64zm29.432-239.502-17.044-3.881a1.874 1.874 0 0 1-1.075-2.963l22.458-29.472a1.876 1.876 0 0 1 1.942-.683l17.144 4.252a1.873 1.873 0 0 1 1.031 2.967l-22.558 29.102a1.877 1.877 0 0 1-1.898.678z"/><linearGradient id="B" gradientUnits="userSpaceOnUse" x1="5179.261" y1="3244.648" x2="4890.501" y2="3529.705" gradientTransform="matrix(0.0741 -7.542857e-004 7.542857e-004 0.0741 -231.3851 -141.1325)"><stop offset="0" style="stop-color:#ffbeb6"/><stop offset="1" style="stop-color:#f2a19c"/></linearGradient><path fill="url(#B)" d="M134.868 100.916s4.871-3.676 6.96-7.237c0 0 3.203.743 5.199 1.066 0 0 .261-5.078 10.289-5.936 9.042-.774 7.851-2.738 13.444-4.566 5.594-1.829 7.876-.179 8.19 1.688 0 0-5.887 2.127-7.243 4.306-1.356 2.179-2.976 7.511-7.882 9.234-4.906 1.723-21.83 3.077-25.357 14.432l-3.6-12.987"/><path opacity=".66" fill="#FFF" d="M55.349 187.976a.202.202 0 1 0-.105-.265.2.2 0 0 0 .105.265zm1.901-4.556a.221.221 0 0 0 .279-.109.206.206 0 0 0-.12-.263.191.191 0 0 0-.256.086l-.009.021a.201.201 0 0 0 .106.265zm1.915-4.558a.2.2 0 0 0 .264-.106.221.221 0 0 0-.109-.279.227.227 0 0 0-.277.122.207.207 0 0 0 .122.263zm1.901-4.555a.202.202 0 0 0 .265-.106.218.218 0 0 0-.109-.279.2.2 0 0 0-.264.106.218.218 0 0 0 .108.279zm14.979 13.616a.206.206 0 0 0 .267.117.19.19 0 0 0 .114-.242c-.003-.008-.006-.017-.011-.024a.2.2 0 0 0-.254-.119.206.206 0 0 0-.116.268zm-27.804-7.94a.198.198 0 1 0 .283-.277.199.199 0 0 0-.28-.003.185.185 0 0 0-.003.28zm3.505-3.477c.06.062.156.073.228.024l.014-.002a.05.05 0 0 0 .039-.019.197.197 0 0 0 .06-.176.226.226 0 0 0-.057-.118.2.2 0 0 0-.28-.003.201.201 0 0 0-.009.286c0 .003.002.006.005.008zm3.506-3.478c.08.074.205.068.278-.011a.198.198 0 1 0-.277-.283.201.201 0 0 0-.001.294zm10.31 14.247a.223.223 0 0 0 .211.209.21.21 0 1 0-.002-.42.227.227 0 0 0-.209.211zm.015-4.937a.2.2 0 0 0 .209.194.196.196 0 0 0 .21-.18l.001-.017a.215.215 0 0 0-.211-.209.228.228 0 0 0-.209.212zm-37.154 6.859a.384.384 0 0 0 .551.036.38.38 0 0 0 .04-.534l-.002-.002a.384.384 0 0 0-.551-.036.379.379 0 0 0-.038.536zm7.067-6.137a.39.39 0 1 0 .587-.513l-.001-.001a.38.38 0 0 0-.534-.04l-.002.002a.401.401 0 0 0-.05.552zm7.082-6.139a.39.39 0 1 0 .036-.55.383.383 0 0 0-.036.55zm13.97 35.735a.392.392 0 0 0 .364.411.374.374 0 0 0 .412-.329l.002-.021a.392.392 0 0 0-.364-.411.383.383 0 0 0-.414.35zm.653-9.332a.388.388 0 0 0 .776.046.382.382 0 0 0-.351-.412.412.412 0 0 0-.425.366zm.664-9.348a.382.382 0 0 0 .351.411l.014.001a.374.374 0 0 0 .412-.329l.002-.021a.413.413 0 0 0-.367-.424.388.388 0 0 0-.412.362zm.652-9.332a.39.39 0 1 0 .425-.366h-.001a.388.388 0 0 0-.423.351l-.001.015zm.663-9.348a.38.38 0 0 0 .349.412.38.38 0 0 0 .412-.349l.001-.016a.378.378 0 0 0-.343-.412l-.008-.001a.396.396 0 0 0-.411.366zM38.74 203.5a.385.385 0 1 0-.184-.52.395.395 0 0 0 .184.52zm4.183-8.381a.385.385 0 1 0-.184-.519.396.396 0 0 0 .184.519zm4.186-8.367a.395.395 0 1 0-.181-.541.395.395 0 0 0 .164.532c.004.004.01.006.017.009zm4.18-8.393a.383.383 0 0 0 .517-.16l.005-.011a.384.384 0 0 0-.681-.355l-.008.017a.367.367 0 0 0 .146.497l.021.012zm22.992 27.732a.392.392 0 0 0 .495.239.377.377 0 0 0 .242-.477l-.001-.004a.371.371 0 0 0-.482-.255.412.412 0 0 0-.254.497zm-2.966-8.887c.075.201.29.309.496.253a.392.392 0 0 0 .239-.495.385.385 0 0 0-.488-.241l-.006.002a.377.377 0 0 0-.241.481zm-2.963-8.875c.06.195.267.306.464.247l.018-.005a.385.385 0 0 0 .253-.498.388.388 0 1 0-.735.253v.003zm-2.979-8.885a.392.392 0 0 0 .495.239.372.372 0 0 0 .247-.463l-.005-.017a.391.391 0 0 0-.483-.255.4.4 0 0 0-.254.496zm-34.742 19.74a.345.345 0 0 0 .37-.583.345.345 0 0 0-.475.105l-.002.003c-.1.16-.053.371.107.475zm4.432-7.088a.349.349 0 0 0 .475-.108.346.346 0 1 0-.583-.368.337.337 0 0 0 .095.466l.013.01zm4.292-7.291a.294.294 0 0 0 .14.205.349.349 0 0 0 .475-.108.354.354 0 0 0-.106-.487l-.003-.002a.346.346 0 0 0-.326-.025l-.014.002a.25.25 0 0 0-.136.131.294.294 0 0 0-.03.284zm4.573-6.883a.35.35 0 0 0 .365-.597.348.348 0 0 0-.475.108.354.354 0 0 0 .106.487l.004.002zm21.258 26.842c.05.187.238.302.427.262a.334.334 0 0 0 .254-.398l-.003-.015a.343.343 0 0 0-.408-.265l-.006.001a.36.36 0 0 0-.264.415zm-1.868-8.132c.045.182.23.294.412.251a.334.334 0 0 0 .254-.398l-.003-.015a.343.343 0 0 0-.408-.265l-.006.001a.356.356 0 0 0-.249.426zm-1.884-8.157a.345.345 0 0 0 .408.266l.006-.001a.325.325 0 0 0 .251-.411.343.343 0 0 0-.408-.265l-.006.001a.347.347 0 0 0-.251.41zm-1.881-8.128a.348.348 0 0 0 .676-.164.36.36 0 0 0-.414-.264.366.366 0 0 0-.262.428zm-1.885-8.156a.348.348 0 0 0 .679-.148v-.001a.364.364 0 0 0-.427-.262.36.36 0 0 0-.252.411zm-30.534 6.992a.342.342 0 0 0 .473.083l.012-.009a.328.328 0 0 0 .088-.454l-.012-.017a.345.345 0 0 0-.477-.094l-.011.007a.352.352 0 0 0-.073.484zm20.122 21.769a.352.352 0 0 0 .292.393.343.343 0 0 0 .395-.278.363.363 0 0 0-.28-.408.358.358 0 0 0-.407.293zm1.389-8.246a.332.332 0 0 0 .258.392l.02.003a.343.343 0 0 0 .395-.278.362.362 0 0 0-.28-.408.35.35 0 0 0-.393.291zm1.377-8.245a.341.341 0 1 0 .673.117.341.341 0 0 0-.673-.117zm1.377-8.243a.343.343 0 0 0 .278.395.332.332 0 0 0 .296-.083l.014-.002a.391.391 0 0 0 .099-.195.352.352 0 0 0-.292-.393.342.342 0 0 0-.395.278zm27.162 18.054a.33.33 0 0 0 .455.088l.017-.012a.344.344 0 0 0 .094-.477l-.007-.011a.357.357 0 0 0-.486-.073.34.34 0 0 0-.083.473l.01.012zm-4.86-6.808a.358.358 0 0 0 .488.087.35.35 0 0 0-.4-.574.34.34 0 0 0-.098.471c.001.005.006.011.01.016zm-42.525-8.994a.207.207 0 1 0-.012-.292.212.212 0 0 0 .012.292zm19.383 7.134a.2.2 0 0 0 .209.194.202.202 0 1 0-.014-.403.2.2 0 0 0-.195.209zm-.179-4.925a.211.211 0 0 0 .222.192.202.202 0 0 0 .195-.209.194.194 0 0 0-.194-.195l-.016.001a.208.208 0 0 0-.209.206.006.006 0 0 1 .002.005zm-.165-4.926a.2.2 0 0 0 .208.195.202.202 0 0 0 .196-.208v-.002a.194.194 0 0 0-.193-.195l-.016.001a.203.203 0 0 0-.195.209c0-.001 0 0 0 0zm-9.232 5.765a.22.22 0 0 0 .263-.12.198.198 0 0 0-.11-.259l-.011-.004a.195.195 0 0 0-.256.102c-.002.006-.005.011-.006.018a.207.207 0 0 0 .12.263zm1.74-4.616a.22.22 0 0 0 .263-.12.211.211 0 0 0-.12-.263.196.196 0 0 0-.26.095l-.005.012a.207.207 0 0 0 .11.272l.012.004zm17.019 4.007a.202.202 0 1 0 .369-.163.188.188 0 0 0-.241-.114c-.008.003-.017.006-.024.011a.198.198 0 0 0-.104.266zm-2.047-4.486c.05.105.175.148.28.101a.197.197 0 0 0 .091-.262l-.001-.001a.189.189 0 0 0-.241-.114c-.008.003-.017.006-.024.011a.198.198 0 0 0-.106.259c-.001.002 0 .004.001.006zm-30.039 6.938a.22.22 0 0 0 .307-.065l.004-.006a.226.226 0 0 0-.057-.315l-.015-.009a.22.22 0 0 0-.307.065l-.004.006a.237.237 0 0 0 .072.324zm3.023-4.739a.236.236 0 0 0 .253-.398.22.22 0 0 0-.307.065l-.004.006a.226.226 0 0 0 .044.317l.014.01zm20.209 8.754a.217.217 0 0 0 .276.172.23.23 0 0 0 .171-.276.253.253 0 0 0-.277-.185.235.235 0 0 0-.17.289zm-1.222-5.494a.235.235 0 0 0 .287.17h.002a.23.23 0 0 0 .171-.276.253.253 0 0 0-.277-.185.256.256 0 0 0-.183.291zm-1.197-5.51a.218.218 0 0 0 .276.185.23.23 0 0 0 .171-.276.253.253 0 0 0-.277-.185.232.232 0 0 0-.17.276zm-9.114 8.433c.027.02.057.034.09.043a.228.228 0 0 0 .266-.183l.001-.008a.239.239 0 0 0-.176-.27l-.014.002a.228.228 0 0 0-.266.183l-.001.008a.21.21 0 0 0 .1.225zm.893-5.771a.227.227 0 0 0 .176.27.247.247 0 0 0 .283-.179.255.255 0 0 0-.193-.281.23.23 0 0 0-.266.19zm20.124 1.27a.23.23 0 0 0 .323.056l.006-.004a.227.227 0 0 0 .054-.314.223.223 0 0 0-.304-.077l-.014.008a.24.24 0 0 0-.065.331zm-3.214-4.618a.216.216 0 0 0 .299.066l.017-.011a.222.222 0 0 0 .077-.303l-.008-.014a.24.24 0 0 0-.331-.066.234.234 0 0 0-.054.328zm-25.192 22.837a.399.399 0 1 0 .79.127.399.399 0 0 0-.79-.127zm1.492-9.532a.408.408 0 0 0 .344.456.398.398 0 1 0-.344-.456zm1.505-9.534a.398.398 0 0 0 .329.457.398.398 0 1 0 .129-.786.397.397 0 0 0-.458.329zm35.079 19.363a.424.424 0 0 0 .573.089.403.403 0 0 0-.48-.647.405.405 0 0 0-.093.558zm-5.682-7.799a.408.408 0 0 0 .558.091.4.4 0 1 0-.466-.65l-.001.001a.405.405 0 0 0-.091.558zm-5.683-7.798a.406.406 0 0 0 .558.091.423.423 0 0 0 .089-.572.403.403 0 0 0-.647.481zm-5.681-7.798a.406.406 0 0 0 .558.091.426.426 0 0 0 .089-.572.391.391 0 0 0-.547-.083l-.008.006a.383.383 0 0 0-.112.528c.005.01.013.019.02.03zm-29.755 5.443a.404.404 0 1 0-.133-.555.41.41 0 0 0 .133.555zm26.204 22.256c.062.21.274.338.489.296a.402.402 0 0 0 .282-.487.393.393 0 0 0-.468-.3l-.007.002a.404.404 0 0 0-.296.489c0-.002 0-.002 0 0zm-2.265-9.39c.052.217.27.349.488.296h.001a.39.39 0 0 0 .284-.473.396.396 0 1 0-.773.177zm-2.264-9.376a.392.392 0 0 0 .467.3l.007-.002a.404.404 0 1 0-.479-.311c.003.002.004.008.005.013zm-1.322 21.869a.396.396 0 1 0 .312-.476.402.402 0 0 0-.312.476zm-1.866-9.432a.402.402 0 0 0 .477.311.41.41 0 0 0 .315-.463.424.424 0 0 0-.479-.325.415.415 0 0 0-.313.477zm-1.865-9.432a.402.402 0 0 0 .477.311.396.396 0 1 0-.149-.777.414.414 0 0 0-.328.466zm-1.851-9.433a.382.382 0 0 0 .463.313.401.401 0 0 0 .315-.463.396.396 0 1 0-.778.15zm23.467-4.588a.412.412 0 0 0 .557-.119.394.394 0 0 0-.117-.543.381.381 0 0 0-.533.086l-.012.018a.396.396 0 0 0 .105.558zm-36.005 18.096a.392.392 0 0 0 .314.46.401.401 0 0 0 .475-.303.408.408 0 0 0-.318-.474.41.41 0 0 0-.471.317zm1.897-9.436a.398.398 0 0 0 .305.471.398.398 0 0 0 .471-.305l.001-.007a.415.415 0 0 0-.318-.474.394.394 0 0 0-.46.311l.001.004zm32.44 12.333a.406.406 0 0 0 .56.105.393.393 0 0 0 .106-.546.39.39 0 0 0-.534-.13l-.015.009a.399.399 0 0 0-.117.562zm-5.332-8.001a.406.406 0 0 0 .56.105.393.393 0 0 0 .106-.546.39.39 0 0 0-.534-.13l-.015.009a.4.4 0 0 0-.117.562zm-5.333-8.001a.406.406 0 0 0 .56.105.393.393 0 0 0 .106-.546.4.4 0 0 0-.67.436l.004.005zM43.8 189.629a.3.3 0 0 0 .556-.23.287.287 0 0 0-.399-.155.299.299 0 0 0-.157.385zm-2.852-6.652a.303.303 0 0 0 .555-.241l-.001-.003a.299.299 0 0 0-.39-.159l-.009.004a.308.308 0 0 0-.155.399zm-2.854-6.667a.304.304 0 0 0 .399.155.304.304 0 0 0 .155-.399.304.304 0 0 0-.399-.155.31.31 0 0 0-.155.399zm-9.67 12.594a.304.304 0 0 0 .306.294.313.313 0 0 0 .292-.306.3.3 0 0 0-.303-.294h-.003a.29.29 0 0 0-.294.284l.002.022zm-.096-7.258a.32.32 0 0 0 .308.307.3.3 0 0 0 .294-.303v-.003a.288.288 0 0 0-.281-.295h-.011a.298.298 0 0 0-.308.289c-.002.002-.002.004-.002.005zm25.779-3.244a.292.292 0 0 0 .412.005l.007-.007a.294.294 0 0 0 .012-.417l-.017-.017a.3.3 0 0 0-.424.024.305.305 0 0 0 .01.412zm-22.87.913a.27.27 0 0 0 .374.074.248.248 0 0 0 .076-.36.255.255 0 0 0-.344-.101l-.019.011a.264.264 0 0 0-.098.36c.005.005.008.01.011.016z"/><path opacity=".66" fill="#FFF" d="M72.953 176.412a.202.202 0 1 0-.105-.265.2.2 0 0 0 .105.265zm1.901-4.556a.221.221 0 0 0 .279-.109.206.206 0 0 0-.12-.263.191.191 0 0 0-.256.086l-.009.021a.202.202 0 0 0 .106.265zm18.795 4.503a.206.206 0 0 0 .267.117.19.19 0 0 0 .114-.242c-.003-.008-.006-.017-.011-.024a.2.2 0 0 0-.254-.119.207.207 0 0 0-.116.268zm-10.482-.647a.223.223 0 0 0 .211.209.21.21 0 1 0-.002-.42.223.223 0 0 0-.209.211zm.015-4.938a.2.2 0 0 0 .209.194.196.196 0 0 0 .21-.18l.001-.017a.215.215 0 0 0-.211-.209.228.228 0 0 0-.209.212zm-37.154 6.859a.384.384 0 0 0 .551.036.38.38 0 0 0 .04-.534l-.002-.002a.384.384 0 0 0-.551-.036.379.379 0 0 0-.038.536zm28.119 23.459a.392.392 0 0 0 .364.411.374.374 0 0 0 .412-.329l.002-.021a.392.392 0 0 0-.364-.411.381.381 0 0 0-.414.35zm.652-9.332a.388.388 0 0 0 .776.046.382.382 0 0 0-.351-.412.413.413 0 0 0-.425.366zm.664-9.348a.382.382 0 0 0 .351.411l.014.001a.374.374 0 0 0 .412-.329l.002-.021a.413.413 0 0 0-.367-.424.389.389 0 0 0-.412.362zm.652-9.332a.39.39 0 1 0 .425-.366h-.001a.388.388 0 0 0-.423.351l-.001.015zm-19.77 18.855a.385.385 0 1 0-.183-.52.392.392 0 0 0 .183.52zm4.182-8.38a.385.385 0 0 0 .322-.698.385.385 0 0 0-.505.179.394.394 0 0 0 .183.519zm4.187-8.366a.395.395 0 1 0-.181-.541.395.395 0 0 0 .181.541zm27.171 19.339a.392.392 0 0 0 .495.239.377.377 0 0 0 .242-.477l-.001-.004a.371.371 0 0 0-.482-.255.413.413 0 0 0-.254.497zm-2.965-8.888c.075.201.29.309.496.253a.392.392 0 0 0 .239-.495.385.385 0 0 0-.488-.241l-.006.002a.377.377 0 0 0-.241.481zm-2.964-8.874c.06.195.267.306.464.247l.018-.005a.385.385 0 0 0 .253-.498.388.388 0 1 0-.735.253v.003zm-37.721 10.853a.345.345 0 0 0 .37-.583.345.345 0 0 0-.475.105l-.002.003a.347.347 0 0 0 .107.475zm4.432-7.087a.349.349 0 0 0 .475-.108.346.346 0 1 0-.583-.368.337.337 0 0 0 .095.466c.005.006.009.007.013.01zm4.292-7.292a.294.294 0 0 0 .14.205.349.349 0 0 0 .475-.108.354.354 0 0 0-.106-.487l-.003-.002a.346.346 0 0 0-.326-.025l-.014.002a.25.25 0 0 0-.136.131.295.295 0 0 0-.03.284zm25.83 19.959c.05.187.238.302.427.262a.334.334 0 0 0 .254-.398l-.003-.015a.343.343 0 0 0-.408-.265l-.006.001a.363.363 0 0 0-.264.415zm-1.866-8.131c.045.182.23.294.412.251a.334.334 0 0 0 .254-.398l-.003-.015a.343.343 0 0 0-.408-.265l-.006.001a.353.353 0 0 0-.249.426zm-1.885-8.156a.345.345 0 0 0 .408.266l.006-.001a.325.325 0 0 0 .251-.411.343.343 0 0 0-.408-.265l-.006.001a.345.345 0 0 0-.251.41zm-14.177 12.476a.352.352 0 0 0 .292.393.343.343 0 0 0 .395-.278.362.362 0 0 0-.28-.408.356.356 0 0 0-.407.293zm1.389-8.246a.332.332 0 0 0 .258.392l.02.003a.343.343 0 0 0 .395-.278.362.362 0 0 0-.28-.408.348.348 0 0 0-.393.291zm1.377-8.244a.341.341 0 1 0 .673.117.341.341 0 0 0-.673-.117zm28.538 9.811a.33.33 0 0 0 .455.088l.017-.012a.344.344 0 0 0 .094-.477l-.007-.011a.357.357 0 0 0-.486-.073.34.34 0 0 0-.083.473c.004.003.006.007.01.012zm-4.859-6.809a.358.358 0 0 0 .488.087.35.35 0 0 0-.4-.574.34.34 0 0 0-.088.487zm-23.143-1.86a.2.2 0 0 0 .209.194.202.202 0 1 0-.014-.403.202.202 0 0 0-.195.209zm-.179-4.925a.211.211 0 0 0 .222.192.202.202 0 0 0 .195-.209.194.194 0 0 0-.194-.195l-.016.001a.208.208 0 0 0-.209.206c.002.001.002.003.002.005zm.508 6.696a.216.216 0 0 0 .276.172.23.23 0 0 0 .171-.276.253.253 0 0 0-.277-.185.235.235 0 0 0-.17.287v.002zm-1.223-5.493a.235.235 0 0 0 .287.17h.002a.23.23 0 0 0 .171-.276.253.253 0 0 0-.277-.185.258.258 0 0 0-.183.291zm-10.31 2.922c.027.02.057.034.09.043a.228.228 0 0 0 .266-.183l.001-.008a.239.239 0 0 0-.176-.27l-.014.002a.228.228 0 0 0-.266.183l-.001.008a.21.21 0 0 0 .1.225zm-7.389 13.719a.399.399 0 1 0 .79.127.399.399 0 0 0-.79-.127zm1.492-9.532a.408.408 0 0 0 .344.456.398.398 0 1 0-.344-.456zm36.584 9.828a.424.424 0 0 0 .573.089.404.404 0 0 0-.48-.647.406.406 0 0 0-.093.558zm-5.682-7.797a.408.408 0 0 0 .558.091.4.4 0 1 0-.466-.65l-.001.001a.405.405 0 0 0-.091.558zm-5.682-7.8a.406.406 0 0 0 .558.091.424.424 0 0 0 .089-.572.403.403 0 0 0-.647.481zm-9.233 19.902c.063.21.274.338.489.296a.402.402 0 0 0 .282-.487.393.393 0 0 0-.468-.3l-.007.002a.405.405 0 0 0-.296.489c0-.001 0 0 0 0zm-2.265-9.391c.052.217.27.349.488.296h.001a.39.39 0 0 0 .284-.473.397.397 0 0 0-.773.177zm-2.264-9.376a.392.392 0 0 0 .467.3l.007-.002a.404.404 0 1 0-.479-.311c.003.004.004.009.005.013zm-1.322 21.87a.396.396 0 1 0 .312-.476.401.401 0 0 0-.312.476zm-1.865-9.433a.402.402 0 0 0 .477.311.41.41 0 0 0 .315-.463.424.424 0 0 0-.479-.325.412.412 0 0 0-.313.477zm-1.865-9.431a.402.402 0 0 0 .477.311.396.396 0 1 0-.149-.777.412.412 0 0 0-.328.466zm-14.39 4.075a.392.392 0 0 0 .314.46.401.401 0 0 0 .475-.303.408.408 0 0 0-.318-.474.408.408 0 0 0-.471.317zm34.337 2.897a.406.406 0 0 0 .56.105.393.393 0 0 0 .106-.546.39.39 0 0 0-.534-.13l-.015.009a.399.399 0 0 0-.117.562zm-5.333-8a.406.406 0 0 0 .56.105.393.393 0 0 0 .106-.546.39.39 0 0 0-.534-.13l-.015.009a.4.4 0 0 0-.117.562zm-10.678 3.294a.3.3 0 0 0 .556-.23.287.287 0 0 0-.399-.155.299.299 0 0 0-.157.385zm-15.375-.726a.304.304 0 0 0 .306.294.313.313 0 0 0 .292-.306.3.3 0 0 0-.303-.294h-.003a.29.29 0 0 0-.294.284l.002.022z"/><linearGradient id="C" gradientUnits="userSpaceOnUse" x1="4215.32" y1="2812.655" x2="4440.001" y2="3690.321" gradientTransform="matrix(0.0741 0 0 0.0741 -230.5491 -141.1613)"><stop offset=".129" style="stop-color:#428dfc"/><stop offset=".999" style="stop-color:#1d72d8"/></linearGradient><path fill="url(#C)" d="M141.889 131.385s-3.455 7.149-15.537 7.643c-12.081.495-14.799 2.463-23.679 8.138-8.88 5.675-25.649 7.886-42.428-18.245-15.4-24.004-20.613-50.494-17.907-64.59A86.245 86.245 0 0 0 54.957 67.9c1.39.284 2.685.506 3.908.674 2.223.326 6.645.55 8.226.644 2.855 9.433 6.183 45.07 27.58 40.817a148.903 148.903 0 0 0 38.59-13.163l8.628 34.513z"/><linearGradient id="D" gradientUnits="userSpaceOnUse" x1="3290.888" y1="3171.416" x2="3663.682" y2="4397.85" gradientTransform="matrix(0.0741 0 0 0.0741 -230.5491 -141.1613)"><stop offset=".129" style="stop-color:#428dfc"/><stop offset=".999" style="stop-color:#1d72d8"/></linearGradient><path fill="url(#D)" d="M69.242 167.813c-10.375 4.59-24.995 8.328-45.472 9.16-4.803.201-9.94.225-15.41.074-16.737-19.529-3.971-40.565.811-54.051 4.771-13.497.19-13.971 9.238-36.985a58.435 58.435 0 0 1 3.444-6.875c1.506 21.73 10.038 46.114 21.889 66.833 7.361 12.874 15.787 19.634 25.5 21.844z"/><path fill="#428DFC" d="M146.682 140.713s-3.908 11.381-23.352 14.455c-19.444 3.085-23.12 8.781-32.685 11.424-7.753 2.148-14.873 2.716-21.404 1.221-9.711-2.211-18.139-8.97-25.501-21.846-11.849-20.719-20.382-45.103-21.889-66.833 2.4-4.252 5.093-8.332 8.058-12.213 3.17-3.895 5.782-6.812 7.91-9.013 2.844-1.379 24.74-5.157 28.196-4.61 0 0-1.433 32.207 14.114 52.779 1.685 2.222-1.283-1.898 0 0 6.082 8.999 11.629 10.216 16.79 10.216 6.004 0 26.768-5.564 37.955-15.608l11.808 40.028z"/><path fill="#FFBEB6" d="M57.357 45.807c4.542 3.898 14.841 10.428 21.043 7.917 7.422-3.011 9.494-9.131 10.865-8.908 1.367.232 4.413.016 4.794-1.418.385-1.421-2.327-6.43-1.613-11.787.066-.498.121-.98.148-1.456l-.003-.014c.02-.113.031-.228.034-.343a.817.817 0 0 0 .001-.164.218.218 0 0 1 .002-.057c-.001-.071.004-.15.008-.23a24.74 24.74 0 0 0-.078-2.426c-.034-.47-.088-.985-.166-1.531a19.985 19.985 0 0 0-.372-1.936l-.033-.143c-.04-.166-.072-.326-.117-.495a14.255 14.255 0 0 0-.266-.891 8.113 8.113 0 0 0-.245-.688 7.32 7.32 0 0 0-.127-.329 10.258 10.258 0 0 0-.258-.615.794.794 0 0 0-.056-.131c-.005.008-.002.022-.014.038-.112.425-.26.84-.444 1.24-.05.131-.12.275-.19.418a9.992 9.992 0 0 1-.927 1.512c-.053.083-.116.16-.183.245-.062.077-.13.162-.197.249a8.14 8.14 0 0 1-.441.513c-.015.024-.034.036-.051.06a9.916 9.916 0 0 1-.709.726c-.087.097-.184.173-.279.265-.004.006-.011.009-.019.011-.184.173-.39.346-.605.512l-.011.017c-.103.087-.214.166-.326.247a15.09 15.09 0 0 1-1.526 1.041c-.182.117-.38.222-.585.337a4.105 4.105 0 0 1-.288.153c-.095.055-.196.12-.299.169a1.981 1.981 0 0 1-.168.079c-.151.09-.316.159-.485.237a11.55 11.55 0 0 1-.514.23 6.401 6.401 0 0 1-.522.225c-.466.19-.957.366-1.469.538-.286.096-.581.186-.88.285a32.953 32.953 0 0 1-3.47.811l-.761.139a28.701 28.701 0 0 0-6.776 2.056c-.319.181-.641.371-.979.562a20.196 20.196 0 0 0-2.606 1.796 27.162 27.162 0 0 0-7.837 10.934z"/><path fill="#1C2868" d="M94.993 32.951a3.405 3.405 0 0 1-5.987-.595c-.2-.479.51-.88.712-.395a2.596 2.596 0 0 0 4.575.576c.301-.426 1.004-.014.7.414z"/><path fill="#E94A47" d="M71.474.899a22.331 22.331 0 0 0-7.869-.842H63.5c-9.689.317-17.057 5.762-21.668 13.54a42.785 42.785 0 0 0-5.733 13.015c-2.39 8.373-4.796 24.315-16.312 23.898-.509-.018-.508.772 0 .79 7.357.266 11.119-6.119 13.474-12.266 1.552-4.052 2.557-8.292 3.757-12.427a44.814 44.814 0 0 0-.663 5.225C35.06 50.55 21.482 53.688 21.482 53.688a99.854 99.854 0 0 0 20.582 10.549 86.086 86.086 0 0 0 12.893 3.664c1.39.284 2.685.506 3.908.674 3.548.591 7.151.8 10.744.622 5.802-7.675 3.656-15.48 1.216-21.98 3.651 7.011 5.557 13.491 1.728 21.32-.222.454.458.856.682.399a20.865 20.865 0 0 0 1.834-14.351c-1.611-6.604-7.628-11.925-7.134-18.755.479-1.819 2.075-3.135 5.562-3.797.158-.031.316-.052.485-.085C91.278 29.095 90.92 20.167 90.92 20.145a22.446 22.446 0 0 1 1.674 10.012C99.156 13.291 84.325 4.616 71.474.899z"/></g></svg></g><g transform="translate(1289.0 943.0) rotate(334.12528629072216 21.5 21.5) scale(0.43 0.43)"><svg width="100" height="100" viewBox="0 0 100 100"><path d="M98.663 98.531c-33.052 1.963-65.546 1.955-97.487 0-1.46-34.57-1.676-67.372 0-97.487a1138.419 1138.419 0 0 1 97.487 0c1.849 31.48 1.718 64.047 0 97.487z" fill="#e94a47"/></svg></g><g transform="translate(1248.0 198.0) rotate(326.84138700187435 16.5 16.5) scale(0.33 0.33)"><svg width="100" height="100" viewBox="0 0 100 100"><path d="M98.663 98.531c-33.052 1.963-65.546 1.955-97.487 0-1.46-34.57-1.676-67.372 0-97.487a1138.419 1138.419 0 0 1 97.487 0c1.849 31.48 1.718 64.047 0 97.487z" fill="#e94a47"/></svg></g><g transform="translate(186.0 601.0) rotate(319.3597060386975 19.0 19.0) scale(0.38 0.38)"><svg width="100" height="100" viewBox="0 0 100 100"><path d="M98.663 98.531c-33.052 1.963-65.546 1.955-97.487 0-1.46-34.57-1.676-67.372 0-97.487a1138.419 1138.419 0 0 1 97.487 0c1.849 31.48 1.718 64.047 0 97.487z" fill="#e94a47"/></svg></g><g transform="translate(1324.0 1072.0) rotate(343.78129478671235 15.5 15.5) scale(0.31 0.31)"><svg width="100" height="100" viewBox="0 0 100 100"><path fill="#23286B" d="M98.663 98.531c-33.052 1.963-65.546 1.955-97.487 0-1.46-34.57-1.676-67.372 0-97.487a1138.419 1138.419 0 0 1 97.487 0c1.849 31.48 1.718 64.047 0 97.487z"/></svg></g><g transform="translate(1235.0 136.0) rotate(342.6055362671384 10.0 10.0) scale(0.2 0.2)"><svg width="100" height="100" viewBox="0 0 100 100"><path fill="#23286B" d="M98.663 98.531c-33.052 1.963-65.546 1.955-97.487 0-1.46-34.57-1.676-67.372 0-97.487a1138.419 1138.419 0 0 1 97.487 0c1.849 31.48 1.718 64.047 0 97.487z"/></svg></g><g transform="translate(307.0 143.0) rotate(325.46116220288553 17.5 17.5) scale(0.35 0.35)"><svg width="100" height="100" viewBox="0 0 100 100"><path fill="#23286B" d="M98.663 98.531c-33.052 1.963-65.546 1.955-97.487 0-1.46-34.57-1.676-67.372 0-97.487a1138.419 1138.419 0 0 1 97.487 0c1.849 31.48 1.718 64.047 0 97.487z"/></svg></g><g transform="translate(1309.0 123.0) rotate(328.3356389160134 8.0 8.0) scale(0.16 0.16)"><svg width="100" height="100" viewBox="0 0 100 100"><path d="M98.663 98.531c-33.052 1.963-65.546 1.955-97.487 0-1.46-34.57-1.676-67.372 0-97.487a1138.419 1138.419 0 0 1 97.487 0c1.849 31.48 1.718 64.047 0 97.487z" fill="#e94a47"/></svg></g><g transform="translate(394.0 122.0) rotate(315.80319448131866 5.5 5.5) scale(0.11 0.11)"><svg width="100" height="100" viewBox="0 0 100 100"><path d="M98.663 98.531c-33.052 1.963-65.546 1.955-97.487 0-1.46-34.57-1.676-67.372 0-97.487a1138.419 1138.419 0 0 1 97.487 0c1.849 31.48 1.718 64.047 0 97.487z" fill="#e94a47"/></svg></g><g transform="translate(257.0 646.0) rotate(314.2979026213816 8.5 8.5) scale(0.17 0.17)"><svg width="100" height="100" viewBox="0 0 100 100"><path fill="#23286B" d="M98.663 98.531c-33.052 1.963-65.546 1.955-97.487 0-1.46-34.57-1.676-67.372 0-97.487a1138.419 1138.419 0 0 1 97.487 0c1.849 31.48 1.718 64.047 0 97.487z"/></svg></g><g transform="translate(1258.0 1018.0) rotate(334.2228980508786 9.0 9.0) scale(0.18 0.18)"><svg width="100" height="100" viewBox="0 0 100 100"><path fill="#23286B" d="M98.663 98.531c-33.052 1.963-65.546 1.955-97.487 0-1.46-34.57-1.676-67.372 0-97.487a1138.419 1138.419 0 0 1 97.487 0c1.849 31.48 1.718 64.047 0 97.487z"/></svg></g><g transform="translate(1297.0 247.0) rotate(337.89988331692376 9.0 9.0) scale(0.18 0.18)"><svg width="100" height="100" viewBox="0 0 100 100"><path fill="#A1C3FC" d="M98.663 98.531c-33.052 1.963-65.546 1.955-97.487 0-1.46-34.57-1.676-67.372 0-97.487a1138.419 1138.419 0 0 1 97.487 0c1.849 31.48 1.718 64.047 0 97.487z"/></svg></g><g transform="translate(163.0 707.0) rotate(324.6524209935577 17.0 17.0) scale(0.34 0.34)"><svg width="100" height="100" viewBox="0 0 100 100"><path fill="#A1C3FC" d="M98.663 98.531c-33.052 1.963-65.546 1.955-97.487 0-1.46-34.57-1.676-67.372 0-97.487a1138.419 1138.419 0 0 1 97.487 0c1.849 31.48 1.718 64.047 0 97.487z"/></svg></g><g transform="translate(333.0 68.0) rotate(316.48454814841875 12.0 12.0) scale(0.24 0.24)"><svg width="100" height="100" viewBox="0 0 100 100"><path fill="#A1C3FC" d="M98.663 98.531c-33.052 1.963-65.546 1.955-97.487 0-1.46-34.57-1.676-67.372 0-97.487a1138.419 1138.419 0 0 1 97.487 0c1.849 31.48 1.718 64.047 0 97.487z"/></svg></g><g transform="translate(746.0 938.0) rotate(0.0 9.0 9.0) scale(0.18 0.18)"><svg width="100" height="100" viewBox="0 0 100 100"><circle fill="#FFF" cx="50" cy="50" r="50"/></svg></g><g transform="translate(712.0 636.0) rotate(0.0 6.0 6.0) scale(0.12 0.12)"><svg width="100" height="100" viewBox="0 0 100 100"><circle fill="#FFF" cx="50" cy="50" r="50"/></svg></g><g transform="translate(651.0 534.0) rotate(0.0 5.0 5.0) scale(0.1 0.1)"><svg width="100" height="100" viewBox="0 0 100 100"><circle fill="#FFF" cx="50" cy="50" r="50"/></svg></g></svg>