<svg xmlns="http://www.w3.org/2000/svg" viewBox="0 0 1600 1200" width="1600" height="1200"><g transform="translate(1516.0 68.0) rotate(0.0 -722.5 542.0) scale(-1.80625 1.8066666666666666)"><svg width="800" height="600" viewBox="0 0 800 600"><linearGradient id="a"><stop offset="0" stop-color="#b9d3fd"/><stop offset="1" stop-color="#89b3f4"/></linearGradient><linearGradient xmlns:xlink="http://www.w3.org/1999/xlink" id="c" gradientTransform="matrix(.1 0 0 -.1 0 18)" gradientUnits="userSpaceOnUse" x1="5958.472" x2="7354.134" xlink:href="#a" y1="-2529.595" y2="-2529.595"/><linearGradient id="b"><stop offset="0" stop-color="#deeafe"/><stop offset="1" stop-color="#e9f1fe"/></linearGradient><linearGradient xmlns:xlink="http://www.w3.org/1999/xlink" id="d" gradientTransform="matrix(.1 0 0 -.1 0 18)" gradientUnits="userSpaceOnUse" x1="6414.08" x2="7869.931" xlink:href="#b" y1="-2855.149" y2="-2855.149"/><linearGradient id="e" gradientTransform="matrix(.1 0 0 -.1 0 18)" gradientUnits="userSpaceOnUse" x1="1361.922" x2="6713.474" y1="-2771.782" y2="-2771.782"><stop offset="0" stop-color="#eee"/><stop offset="1" stop-color="#d6d7d8"/></linearGradient><linearGradient xmlns:xlink="http://www.w3.org/1999/xlink" id="f" gradientTransform="matrix(-.0964 .0265 -.0265 -.0964 553.6074 -2.2324)" gradientUnits="userSpaceOnUse" x1="4547.144" x2="5952.891" xlink:href="#a" y1="-2848.55" y2="-2848.55"/><linearGradient xmlns:xlink="http://www.w3.org/1999/xlink" id="g" gradientTransform="matrix(-.0964 .0265 -.0265 -.0964 553.6074 -2.2324)" gradientUnits="userSpaceOnUse" x1="5005.235" x2="6471.752" xlink:href="#b" y1="-3177.05" y2="-3177.05"/><path d="m672.876 476.948 12.227-3.821c.983-.655 2.074-1.092 3.057-1.965l-18.996 6.114c1.31-.11 2.511-.11 3.712-.328zm-8.625 0 27.62-8.952c.546-.437.873-.983 1.419-1.419l-30.895 9.825c.655.327 1.31.436 1.856.546zm-4.803-1.201 36.135-11.572c.437-.327.546-.764.983-1.201l-38.101 12.118c.328.436.655.436.983.655zm-2.839-1.856 41.485-13.319c.218-.327.437-.764.655-1.092l-42.795 13.756c.109.327.437.546.655.655zm-2.074-2.075 45.197-14.411c.218-.328.218-.655.437-1.092L653.99 471.16c.327.22.436.547.545.656zm-1.31-2.183 48.035-15.284c0-.327.218-.655.218-1.092l-48.69 15.611c.11.219.219.547.437.765zm-1.201-2.402 49.891-16.048c0-.328.109-.655.218-1.092l-50.437 16.048c.11.546.219.765.328 1.092zm-.873-2.401 51.419-16.485c0-.327.109-.655.109-.983l-51.856 16.703c.109.11.219.437.328.765zm-.437-2.948c.109.109-.109.218 0 .327l52.293-16.703c0-.327.109-.655.109-.983l-52.075 16.594c-.109.219-.218.437-.327.765zm2.729-3.712c-.109.109-.218.328-.437.328l50.109-16.048c0-.328-.109-.546 0-.873l-48.799 15.721c-.436.326-.654.654-.873.872zm2.402-3.166 46.834-14.956c0-.328-.109-.546-.218-.873l-46.179 14.847c0 .327-.219.546-.437.982zm1.529-3.275 45.088-14.411c-.109-.327-.109-.546-.218-.873l-44.433 14.301c-.328.437-.328.765-.437.983zm.764-2.948 43.668-13.865c-.109-.328-.218-.437-.218-.873l-43.122 13.865c-.219.328-.328.546-.328.873zm.218-2.838 42.467-13.537c-.109-.327-.218-.437-.327-.764l-42.249 13.428c.109.327.109.655.109.873zm-.218-2.729 41.267-13.21c-.109-.327-.218-.437-.328-.764l-41.048 13.1c.109.328.109.765.109.874zm-.546-2.511 40.284-12.991c-.109-.327-.437-.546-.546-.655l-40.175 12.882c.219.327.328.545.437.764zm37.773-15.721-39.192 12.445c.109.327.218.437.328.764l39.52-12.664c-.001-.108-.328-.326-.656-.545zm-2.293-1.965-38.21 12.227c.109.328.437.546.546.655l38.537-12.336c-.327 0-.654-.327-.873-.546zm-3.056-1.747-36.463 11.572c.109.328.218.437.328.764l37.227-12.009c-.437.001-.656-.217-1.092-.327zm-3.821-1.419c-.109.109-.218-.109-.327 0l-32.205 10.262c-.109.218-.109.655-.109.983l34.061-10.917c-.547 0-.984-.219-1.42-.328zm-8.188-.327-20.852 6.659c-.655.546-1.419.983-2.074 1.528l26.419-8.406c-1.091.11-2.401.11-3.493.219z" fill="#e6e6e6"/><path d="M734.666 291.794c1.528 4.585-.218 9.498-2.511 13.756-6.223 11.681-16.266 21.288-28.275 26.856-6.659 3.166-13.865 5.022-20.742 7.86-19.978 8.297-36.245 24.891-43.996 45.088 2.293-13.974-5.022-27.839-13.974-38.865-8.843-11.026-19.542-20.961-25.873-33.625-5.459-10.917-5.568-27.074 5.459-32.315 8.079-3.821 18.232.437 26.529-3.057 2.948-1.31 5.568-3.93 5.458-7.096-.437-8.079-16.376-7.533-16.812-15.611-.437-9.28 24.018-6.55 20.852-15.393-1.31-3.712-6.55-4.804-8.297-8.297-1.856-3.493-1.747-8.406 1.419-10.917 4.039-3.275 10.153-.655 15.284-1.856 5.786-1.31 9.498-7.205 10.699-13.1s.546-11.9 1.419-17.795c2.074-14.52 13.974-27.074 28.275-30.131s30.24 3.712 37.991 16.157c3.166 5.131 4.913 12.009 1.528 16.921-2.948 4.148-9.279 6.878-8.734 11.9.655 6.878 13.428 7.533 13.646 14.411.218 8.079-16.376 8.079-15.939 16.157.218 3.603 4.039 5.677 6.332 8.515 4.367 5.24 2.62 14.301-3.384 17.576-2.402 1.31-5.24 1.856-7.096 3.712-4.804 4.694-.109 12.991 5.568 16.485s13.1 6.223 15.174 12.664z" fill="url(#c)"/><path d="M692.745 292.34c3.384-1.856 6.987-3.603 9.716-6.441 5.568-6.114 5.24-15.284 5.677-23.581s3.384-18.013 11.354-20.197c6.659-1.856 15.066 2.183 19.978-2.62 1.856-1.747 2.62-4.367 3.93-6.55 5.677-9.498 20.633-8.734 28.93-1.419 8.188 7.314 11.354 18.668 14.083 29.367.983 3.93 1.092 9.389-2.729 10.48-3.712.983-7.424-3.603-10.917-2.183-2.838 1.092-3.057 5.131-1.965 8.079.983 2.838 2.729 5.786 2.074 8.843-1.31 5.677-9.279 6.004-14.956 4.476s-12.991-3.057-16.266 1.856c3.603 11.463 6.659 25.437-1.419 34.498-9.279 10.371-26.419 9.28-40.284 10.59-25.764 2.402-43.996 22.052-58.516 43.559-.874-36.028 19.76-71.617 51.31-88.757z" fill="url(#d)"/><path d="M660.43 364.72h-.218c-.328-.109-.437-.437-.328-.655 13.101-40.066 33.952-67.904 72.053-95.961 7.096-5.24 28.494-14.083 37.773-14.847.218 0 .546.218.546.546s-.218.546-.546.546c-8.843.764-30.349 9.607-37.118 14.629-37.991 27.948-58.734 55.568-71.725 95.415 0 .109-.218.327-.437.327zm20.197-117.468-4.367-12.009a11.661 11.661 0 0 0-4.694.655l4.694 12.882c.218.764-.109 1.528-.873 1.747-.764.218-1.528-.109-1.747-.873l-4.694-12.664c-1.419.873-2.62 2.074-3.603 3.384l3.93 10.699c.218.764-.109 1.528-.873 1.747-.764.218-1.528-.109-1.747-.873l-3.057-8.406c-1.747 4.367-1.856 9.935.109 15.393 0 .109.109.218.109.328-.983.546-2.074 1.201-2.948 1.965-2.729 1.965-6.223 5.349-7.424 10.153l1.31.328c1.092-4.367 4.367-7.533 6.878-9.28a23.27 23.27 0 0 1 2.729-1.747c2.074 4.585 5.458 8.297 9.17 10.262l-2.948-7.969c-.218-.764.109-1.528.873-1.747s1.528.109 1.747.873l3.821 10.262c1.638.437 3.275.546 4.913.218l-4.367-12.009c-.218-.764.109-1.528.873-1.747.764-.218 1.528.109 1.747.873l4.476 12.118c1.419-.655 2.729-1.638 3.821-2.729l-4.039-10.917c-.218-.764.109-1.528.873-1.747.764-.218 1.528.109 1.747.873l3.493 9.389a40.637 40.637 0 0 0 2.948-5.24l-2.183-5.895c-.218-.764.109-1.528.873-1.747.764-.218 1.528.109 1.747.873l1.201 3.166c2.183-5.24 3.603-10.371 5.459-12.009-3.057-.655-7.314-3.493-12.009-6.114l1.528 4.039c.218.764-.109 1.528-.873 1.747-.764.218-1.528-.109-1.747-.873l-2.511-6.878a28.333 28.333 0 0 0-5.568-1.965l3.821 10.59c.218.764-.109 1.528-.873 1.747-.653.219-1.418-.109-1.745-.873z" fill="#fff"/><path d="M342.853 380.986h121.835v135.481H342.853z" fill="#d6d7d8"/><path d="M267.415 512.101h272.709v10.48H267.415z" fill="#428dfc"/><path d="M136.192 121.924h535.155v346.508H136.192z" fill="url(#e)"/><path d="M145.581 130.549h516.378v285.372H145.581z" fill="#fff"/><path d="m384.58 449.734-7.025-7.024 7.024-7.025 7.025 7.025z" fill="#a1c3fc"/><path d="m403.742 449.719-7.024-7.024 7.024-7.025 7.024 7.025z" fill="#fff"/><path d="m422.904 449.749-7.024-7.025 7.024-7.024 7.025 7.024z" fill="#1d72d8"/><path d="M660.539 81.422v.655c0 9.061 7.314 16.376 16.376 16.376s16.376-7.314 16.376-16.376v-.655z" fill="#d3e3fe"/><path d="M719.164 41.574v1.092c0 14.956 12.118 27.074 27.074 27.074s27.074-12.118 27.074-27.074v-1.092z" fill="#a1c3fc"/><path d="M32.698 13.19v1.856c0 25.218 20.524 45.743 45.743 45.743s45.743-20.524 45.743-45.743V13.19H32.698z" fill="#f4f4f4"/><path d="M80.624 13.19v1.31c0 18.341 14.847 33.188 33.188 33.188S147 32.841 147 14.5v-1.31z" fill="#e7effe"/><path d="M61.41 450.31c-.218 4.803 2.729 9.17 6.114 12.664 9.17 9.716 21.507 16.376 34.607 18.559 7.314 1.201 14.847 1.201 22.271 2.074 21.616 2.729 41.812 14.52 54.804 31.987-6.004-12.991-2.511-28.384 3.166-41.485 5.677-13.1 13.428-25.546 16.157-39.52 2.402-12.009-1.856-27.839-13.974-29.913-8.952-1.528-17.686 5.349-26.638 4.039-3.166-.437-6.55-2.293-7.205-5.459-1.747-7.969 13.974-11.681 12.118-19.651-2.074-9.17-25.109 0-24.345-9.28.328-3.93 5.022-6.332 5.895-10.262s-.546-8.624-4.258-10.153c-4.804-2.074-10.044 2.074-15.284 2.293-6.004.328-11.135-4.476-13.865-9.825s-3.712-11.463-6.114-16.921c-5.895-13.537-20.742-22.598-35.481-21.725-14.738.873-28.384 11.681-32.642 25.873-1.747 5.786-1.638 12.991 3.057 16.921 3.93 3.275 10.808 4.148 11.681 9.17 1.201 6.878-11.026 10.917-9.389 17.686 1.856 7.969 18.122 3.493 19.76 11.463.764 3.603-2.402 6.659-3.821 9.935-2.838 6.223 1.31 14.52 7.969 16.157 2.62.655 5.568.327 7.969 1.638 5.895 3.275 3.603 12.555-.983 17.467-4.8 5.023-11.132 9.499-11.569 16.268z" fill="url(#f)"/><path d="M102.458 439.72c-3.821-.873-7.751-1.638-11.135-3.712-7.096-4.476-9.17-13.537-11.79-21.397s-8.079-16.594-16.376-16.594c-6.987 0-14.083 6.223-20.087 2.838-2.293-1.31-3.712-3.603-5.568-5.349-7.969-7.642-22.38-2.948-28.384 6.332s-6.004 21.179-5.895 32.315c.109 4.039 1.419 9.389 5.459 9.389 3.821 0 6.223-5.459 10.044-5.022 3.057.327 4.367 4.258 4.148 7.314-.218 3.057-1.092 6.332.328 9.061 2.729 5.24 10.699 3.384 15.721.327s11.79-6.441 16.266-2.511c-.437 12.118.328 26.528 10.59 33.079 11.79 7.533 28.166 1.965 41.922-.437 25.655-4.585 48.69 9.716 68.45 26.747-9.063-35.152-38.54-64.192-73.693-72.38z" fill="url(#g)"/><path d="M178.878 517.232c-8.734-22.817-15.721-46.288-21.07-70.088" fill="none" stroke="#428dfc" stroke-linecap="round" stroke-miterlimit="10" stroke-width="2"/><ellipse cx="157.599" cy="444.732" fill="#23286b" rx="4.694" ry="12.445" transform="matrix(-.2235 -.9747 .9747 -.2235 -240.659 697.7426)"/><path d="M157.153 444.305a514.83 514.83 0 0 1-7.205-40.83" fill="none" stroke="#428dfc" stroke-linecap="round" stroke-miterlimit="10" stroke-width="2"/><ellipse cx="149.504" cy="400.314" fill="#23286b" rx="5.568" ry="14.957" transform="matrix(-.3174 -.9483 .9483 -.3174 -182.6591 669.1458)"/><path d="M149.402 399.873a598.823 598.823 0 0 1-3.275-34.061" fill="none" stroke="#428dfc" stroke-linecap="round" stroke-miterlimit="10" stroke-width="2"/><ellipse cx="146.883" cy="361.865" fill="#23286b" rx="5.567" ry="14.956" transform="matrix(-.0106 -.9999 .9999 -.0106 -213.3985 512.5897)"/><path d="M145.908 361.008c-.437-8.624-.655-17.358-.764-26.092" fill="none" stroke="#428dfc" stroke-linecap="round" stroke-miterlimit="10" stroke-width="2"/><ellipse cx="145.246" cy="330.426" fill="#23286b" rx="7.532" ry="20.087" transform="matrix(-.0106 -.9999 .9999 -.0106 -183.616 479.1787)"/><path d="M145.144 329.021c.109-5.786.218-11.572.437-17.358" fill="none" stroke="#428dfc" stroke-linecap="round" stroke-miterlimit="10" stroke-width="2"/><path d="m132.808 484.917 4.367-12.009a11.661 11.661 0 0 1 4.694.655l-4.694 12.882c-.218.764.109 1.528.873 1.747s1.528-.109 1.747-.873l4.694-12.664c1.419.873 2.62 2.074 3.603 3.384l-3.93 10.699c-.218.764.109 1.528.873 1.747s1.528-.109 1.747-.873l3.057-8.406c1.747 4.367 1.856 9.935-.109 15.393 0 .109-.109.218-.109.328.983.546 2.074 1.201 2.948 1.965 2.729 1.965 6.223 5.349 7.424 10.153l-1.31.328c-1.092-4.367-4.367-7.533-6.878-9.28a23.27 23.27 0 0 0-2.729-1.747c-2.074 4.585-5.459 8.297-9.17 10.262l2.948-7.969c.218-.764-.109-1.528-.873-1.747-.764-.218-1.528.109-1.747.873l-3.821 10.262c-1.638.437-3.275.546-4.913.218l4.367-12.009c.218-.764-.109-1.528-.873-1.747s-1.528.109-1.747.873l-4.476 12.118c-1.419-.655-2.729-1.638-3.821-2.729l4.039-10.917c.218-.764-.109-1.528-.873-1.747-.764-.218-1.528.109-1.747.873l-3.493 9.389a40.637 40.637 0 0 1-2.948-5.24l2.183-5.895c.218-.764-.109-1.528-.873-1.747s-1.528.109-1.747.873l-1.201 3.166c-2.183-5.24-3.603-10.371-5.459-12.009 3.057-.655 7.314-3.493 12.009-6.114l-1.528 4.039c-.218.764.109 1.528.873 1.747s1.528-.109 1.747-.873l2.511-6.878a28.333 28.333 0 0 1 5.568-1.965l-3.821 10.59c-.218.764.109 1.528.873 1.747.653.219 1.417-.109 1.745-.873z" fill="#fff"/><g fill="#b3c9ee"><path d="m109.555 136.007-8.188-.983c-.764.109-1.528.109-2.293.328l12.773 1.419c-.873-.218-1.528-.546-2.292-.764zm5.021 2.293-18.559-2.074c-.437.109-.764.328-1.201.437l20.742 2.402c-.327-.329-.654-.547-.982-.765zm2.511 1.965-24.236-2.729c-.328.109-.546.328-.873.437l25.546 2.948c-.109-.329-.328-.438-.437-.656zm1.201 1.856-27.839-3.166c-.218.109-.437.328-.655.437l28.712 3.275a.828.828 0 0 0-.218-.546zm.655 1.746-30.349-3.493c-.218.109-.328.328-.546.546l31.005 3.493c-.11-.218-.11-.436-.11-.546zm.219 1.638-32.205-3.712c-.109.218-.328.328-.437.546l32.642 3.712v-.546zm0 1.747-33.515-3.821c-.109.218-.218.328-.437.546l33.843 3.93c.109-.328.109-.437.109-.655zm-.11 1.637-34.498-3.93c-.109.218-.218.328-.328.546l34.825 3.93.001-.546zm-.545 1.856c0-.109.109-.109.109-.218l-35.044-4.039c-.109.218-.218.328-.328.546l34.935 4.039.328-.328zm-2.511 1.419c.109 0 .218-.109.328-.109l-33.625-3.821c-.109.218-.109.328-.218.546l32.751 3.712a5.26 5.26 0 0 0 .764-.328zm-2.293 1.201-31.441-3.603c-.109.218-.109.328-.109.546l31.005 3.493c.108-.108.327-.217.545-.436zm-1.747 1.529-30.24-3.493c0 .218-.109.328-.109.546l29.804 3.384c.327-.11.436-.328.545-.437zm-1.201 1.528-29.258-3.384c0 .218 0 .328-.109.546l28.93 3.275a.851.851 0 0 0 .437-.437zm-.873 1.638-28.494-3.275v.546l28.275 3.275a.839.839 0 0 1 .219-.546zm-.655 1.637-27.729-3.166v.546l27.511 3.166c.109-.218.218-.437.218-.546zm-.328 1.638-27.074-3.057c0 .218.109.437.109.546l26.965 3.057v-.546zm-26.31-.764 26.31 3.057v-.546l-26.529-3.057c.001.109.11.327.219.546zm.874 1.746 25.655 2.948c0-.218-.109-.437-.109-.546l-25.873-2.948c.108.11.218.328.327.546zm1.31 1.856 24.454 2.838v-.546l-25-2.838c.218.11.327.328.546.546zm1.856 1.856c.109 0 .109.109.218.109l21.616 2.511c.109-.109.218-.328.328-.546l-22.817-2.62c.218.109.436.328.655.546zm4.694 2.293 13.974 1.638 1.638-.328-17.686-2.074c.655.218 1.419.545 2.074.764zm595.745 328.931 12.773.546c1.201-.218 2.402-.328 3.493-.764l-19.978-.655c1.419.218 2.511.655 3.712.873zm-8.079-2.947 29.039.983c.655-.218 1.092-.546 1.856-.873l-32.424-1.201c.547.545.983.872 1.529 1.091zm-4.039-2.73 37.882 1.31c.546-.218.764-.546 1.31-.764l-39.956-1.528c.218.546.546.655.764.982zm-2.183-2.729 43.559 1.528c.327-.218.655-.546.983-.764l-44.869-1.638a1.31 1.31 0 0 0 .327.874zm-1.201-2.62 47.489 1.747c.328-.218.437-.546.764-.873l-48.472-1.747c.219.327.219.655.219.873zm-.546-2.511 50.328 1.856c.109-.328.437-.546.655-.873l-51.092-1.856c.109.218.109.546.109.873zm-.218-2.729 52.402 1.965c.109-.328.327-.546.655-.873l-52.948-2.074c-.109.545-.109.654-.109.982zm0-2.511 53.93 1.965c.109-.328.328-.546.437-.873l-54.476-1.965c.109.218.109.545.109.873zm.655-2.948c0 .218-.109.218-.109.328l54.804 2.074c.109-.327.328-.546.437-.873l-54.585-2.074c-.22.218-.438.327-.547.545zm3.711-2.511c-.218 0-.328.218-.546.218l52.62 1.856c.109-.327.109-.546.328-.873l-51.201-1.856c-.546.219-.873.437-1.201.655zm3.385-2.183 49.127 1.856c.109-.328.109-.546.109-.873l-48.472-1.747c-.109.218-.437.436-.764.764zm2.511-2.511 47.271 1.747c0-.328.109-.546.109-.873l-46.616-1.638c-.437.218-.546.546-.764.764zm1.746-2.511 45.743 1.747c0-.327 0-.546.109-.873l-45.197-1.638c-.436.218-.546.437-.655.764zm1.092-2.62 44.542 1.638c0-.327 0-.546-.109-.873l-44.214-1.747c.109.436-.001.764-.219.982zm.873-2.62 43.341 1.638c0-.327 0-.546-.109-.873l-43.013-1.638c-.109.327-.219.655-.219.873zm.328-2.62 42.358 1.528c0-.327-.218-.655-.218-.873l-42.14-1.528c-.109.327 0 .654 0 .873zm40.83-1.965-41.157-1.638c0 .328 0 .546.109.873l41.485 1.528c0-.108-.219-.436-.437-.763zm-1.529-2.62-40.066-1.528c0 .327.218.655.218.873l40.502 1.528c-.326-.218-.435-.546-.654-.873zm-2.292-2.73-38.21-1.528c0 .328 0 .546.109.873l39.083 1.419c-.436-.109-.655-.436-.982-.764zm-3.057-2.62c-.218 0-.218-.109-.328-.109l-33.843-1.31c-.109.218-.327.546-.437.873l35.699 1.31c-.436-.109-.763-.436-1.091-.764zm-7.533-2.947-21.834-.873c-.873.218-1.638.437-2.511.655l27.62 1.092c-1.091-.219-2.292-.656-3.275-.874z"/></g></svg></g><g transform="translate(172.0 613.0) rotate(0.0 164.0 164.0) scale(5.575671035408911 5.576808637252402)"><svg width="58.827" height="58.815" viewBox="-2186.766 352.498 58.827 58.815"><linearGradient id="h" gradientTransform="matrix(.2222 0 0 -.2222 33.2227 -21.7706)" gradientUnits="userSpaceOnUse" x1="-9990.947" x2="-9726.199" y1="-1816.726" y2="-1816.726"><stop offset="0" stop-color="#a1c3fc"/><stop offset="1" stop-color="#78a9ef"/></linearGradient><linearGradient id="i" gradientTransform="matrix(.1944 -.1076 -.1076 -.1944 -222.2298 -255.9253)" gradientUnits="userSpaceOnUse" x1="-9074.356" x2="-8946.533" y1="1706.033" y2="1706.033"><stop offset=".129" stop-color="#428dfc"/><stop offset=".999" stop-color="#1d72d8"/></linearGradient><path d="M-2132.707 372.22c-.172-.438-.356-.87-.548-1.293l2.3-2.103a29.391 29.391 0 0 0-2.757-4.507l-2.85 1.18a26.28 26.28 0 0 0-2.562-2.804l1.345-2.813a29.369 29.369 0 0 0-4.679-3.391l-2.165 2.2a26.396 26.396 0 0 0-3.451-1.58l.139-3.112a29.505 29.505 0 0 0-5.138-1.238l-1.182 2.85a26.213 26.213 0 0 0-3.796-.174l-1.037-2.937a29.215 29.215 0 0 0-5.707.91l.024 3.086c-.759.223-1.515.478-2.266.773-.438.172-.87.356-1.293.548l-2.104-2.3a29.534 29.534 0 0 0-4.509 2.756l1.18 2.85a26.388 26.388 0 0 0-2.805 2.562l-2.813-1.344a29.43 29.43 0 0 0-3.392 4.678l2.2 2.165a26.383 26.383 0 0 0-1.58 3.45l-3.112-.139a29.497 29.497 0 0 0-1.239 5.137l2.85 1.182a26.2 26.2 0 0 0-.174 3.795l-2.938 1.037c.112 1.901.412 3.81.91 5.706l3.086-.024a26.885 26.885 0 0 0 1.321 3.558l-2.3 2.103a29.391 29.391 0 0 0 2.757 4.507l2.85-1.18a26.28 26.28 0 0 0 2.562 2.804l-1.345 2.813a29.431 29.431 0 0 0 4.679 3.391l2.165-2.2a26.396 26.396 0 0 0 3.451 1.58l-.139 3.112c1.667.563 3.387.98 5.138 1.238l1.182-2.85c1.252.149 2.521.208 3.796.174l1.037 2.937a29.215 29.215 0 0 0 5.707-.91l-.024-3.086a27.029 27.029 0 0 0 2.266-.773c.438-.172.87-.356 1.293-.548l2.104 2.3a29.475 29.475 0 0 0 4.508-2.756l-1.18-2.85a26.388 26.388 0 0 0 2.805-2.562l2.813 1.344a29.43 29.43 0 0 0 3.392-4.678l-2.2-2.165a26.323 26.323 0 0 0 1.58-3.45l3.112.139a29.497 29.497 0 0 0 1.239-5.137l-2.85-1.182a26.2 26.2 0 0 0 .174-3.795l2.938-1.037a29.205 29.205 0 0 0-.91-5.706l-3.086.024a25.628 25.628 0 0 0-.772-2.265z" fill="url(#h)"/><path d="M-2147.861 376.648a6.033 6.033 0 0 1 .311-6.349 15.239 15.239 0 0 0-11.955-3.433 6.035 6.035 0 0 1-9.456 5.235 15.23 15.23 0 0 0-3.434 11.952 6.035 6.035 0 0 1 5.237 9.455 15.239 15.239 0 0 0 11.955 3.433 6.035 6.035 0 0 1 9.456-5.235 15.23 15.23 0 0 0 3.434-11.952 6.032 6.032 0 0 1-5.548-3.106zm-6.535 10.594a6.104 6.104 0 0 1-8.296-2.383 6.1 6.1 0 0 1 2.384-8.294 6.102 6.102 0 1 1 5.912 10.677z" fill="url(#i)"/></svg></g><g transform="translate(287.0 395.0) rotate(0.0 222.0 349.5) scale(1.3962264150943395 1.398)"><svg width="318" height="500" viewBox="0 0 318 500"><g><g fill="#4484F7"><path d="m166.455 440.799 17.353 22.626L123.103 500s-4.148-4.902 1.508-12.066c5.656-7.164 16.74-32.679 16.74-32.679l25.104-14.456zm103.088-157.362 26.68-11.725L318 339.159s-5.718 2.921-11.405-4.218c-5.687-7.14-30.041-23.809-30.041-23.809l-7.011-27.695z"/></g><g><g><path fill="#EEE" d="m166.455 440.794-25.102 14.457s-38.798-97.755-40.698-117.53c-1.9-19.775-.38-43.359 2.279-62.765 2.671-19.394 7.608-35.75 3.809-53.246l.664-.083c13.911 1.947 32.496-2.255 40.71-4.463a31.66 31.66 0 0 1 5.174-.926c1.353 2.243 11.418 20.949-2.813 63.286-15.215 45.257-3.798 51.726 1.14 65.424 4.949 13.685 7.608 22.053 6.468 34.991s4.557 9.507 7.608 26.243c3.039 16.736.761 34.612.761 34.612z"/></g><g><linearGradient id="j" gradientUnits="userSpaceOnUse" x1="5476.294" y1="5363.977" x2="4402.315" y2="5299.898" gradientTransform="matrix(0.0741 0 0 0.0741 -207.4016 -94.8663)"><stop offset="0" style="stop-color:#f5f3f3"/><stop offset=".253" style="stop-color:#f7f5f5"/><stop offset="1" style="stop-color:#d8d8d8"/></linearGradient><path fill="url(#j)" d="M276.561 311.134s-106.439 36.403-130.71 21.056c-3.798-9.353-5.602-22.243 4.629-52.664a168.254 168.254 0 0 0 4.214-14.564c.012-.012.012-.012.012-.024l.213-.427s4.214 23.477 26.289 20.677c22.087-2.801 21.387-3.501 32.603-.344 11.216 3.145 18.931-4.558 24.889-5.258s25.933-1.757 30.846 3.858l7.015 27.69z"/></g></g><g><path fill="#F1B505" d="M204.945 132.312c-16.402 23.643-28.794 35.465-28.983 60.26-.19 24.783-2.682 26.16-2.682 26.16s-12.961-4.819-25.161-1.566c-10.717 2.872-39.083 9.151-51.664.759-12.593-8.379-20.793-16.581-23.073-25.732l13.234-12.45c2.171 1.804 3.383 3.169 4.475 5.424 0 0 24.319-10.861 34.491-27.584s13.946-25.709 13.946-25.709-1.507 9.02 2.493 8.451c4.012-.582 11.513-10.48 11.513-10.48s7.94 3.608 14.231-12.784c6.29-16.403 7.062-28.415 6.48-31.465l41.825 2.682c-.005-.001 5.278 20.389-11.125 44.034z"/></g><g fill="#FFBEB5"><path d="M190.592 86.64s12.294-30.938 5.517-44.682c-6.777-13.743-11.86-22.781-11.86-22.781s3.389-2.258 6.401 2.258c3.012 4.518 5.084 7.154 5.647 4.518.565-2.637 3.012-22.403 3.765-24.474.753-2.071 3.012-2.258 3.577 1.318s-2.155 15.112.479 12.853c2.637-2.258 5.544-13.23 6.109-13.794s8.283 5.836 10.543 12.05c2.258 6.213-3.765 15.626-7.53 21.275s-1.883 15.061 2.824 53.091l-25.472-1.632zM75.398 170.862c5.507 4.522 8.913 6.944 11.216 8.879l-12.913 12.154c-13.317 4.985-30.895 10.611-36.104 14.041-8.854 5.839-17.138 13.186-17.138 13.186-3.952-6.22 8.854-14.885 8.284-17.519-.558-2.635-2.825-3.003-16-3.573-13.174-.57-14.302-5.65-11.477-5.839 2.813-.19 13.554 1.318 14.491-.368.937-1.697-15.809 0-13.364-2.077.617-.523 1.437-1.128 2.338-1.733 3.501-2.386 7.893-3.026 11.939-1.804 8.676 2.599 20.284 5.449 24.307 4.855 4.795-.701 30.051-19.418 32.924-21.554.488.487.987.938 1.497 1.352z"/></g><path fill="#FFF" d="M174.39 89.676a.128.128 0 1 1 .174.05.126.126 0 0 1-.174-.05zm6.058-2.817a.13.13 0 0 0-.02-.18.128.128 0 0 0-.159.2.125.125 0 0 0 .179-.02zm-5.873 7.743a.148.148 0 1 0-.13-.265.148.148 0 0 0 .13.265zm1.338-7.854a.15.15 0 0 0-.014-.209.147.147 0 0 0-.207.014.15.15 0 0 0 .014.209c.06.054.154.047.207-.014zm2.679 2.345a.147.147 0 0 0-.014-.207.15.15 0 0 0-.209.013.147.147 0 0 0 .015.207.145.145 0 0 0 .208-.013zm2.678 2.347a.146.146 0 0 0-.013-.207.148.148 0 0 0-.207.013.15.15 0 0 0 .014.209.147.147 0 0 0 .206-.015zm-7.623 8.576a.171.171 0 0 0 .097-.22.17.17 0 0 0-.22-.097.168.168 0 0 0-.097.219c.034.09.132.132.22.098zm7.582-12.697a.171.171 0 0 0-.087-.225.171.171 0 0 0-.225.088.171.171 0 0 0 .087.224c.088.038.188 0 .225-.087zm3.758 1.651a.173.173 0 0 0-.087-.226.172.172 0 0 0-.225.088.167.167 0 0 0 .087.223c.087.042.186 0 .225-.085zm-9.108 2.256a.171.171 0 0 0 .005-.24.17.17 0 0 0-.24-.005.17.17 0 0 0-.005.24.167.167 0 0 0 .24.005zm2.837 2.963a.17.17 0 0 0-.236-.246.172.172 0 0 0-.003.241c.064.068.173.07.239.005zm2.838 2.962a.171.171 0 0 0 .006-.24.17.17 0 0 0-.245.236c.064.067.171.07.239.004zm-6.614-9.906a.146.146 0 0 0-.072-.193.147.147 0 0 0-.193.073c-.033.073 0 .16.073.193a.146.146 0 0 0 .192-.073zm3.217 1.449a.147.147 0 0 0-.072-.193.146.146 0 0 0-.193.075.145.145 0 0 0 .073.192.149.149 0 0 0 .192-.074zm3.218 1.447a.147.147 0 0 0-.072-.193.146.146 0 0 0-.12.266.145.145 0 0 0 .192-.073zm-5.164 4.56a.146.146 0 0 0 .006-.206.146.146 0 0 0-.206-.007.148.148 0 0 0-.006.207.146.146 0 0 0 .206.006zm2.417 2.569a.146.146 0 0 0 .006-.206.146.146 0 1 0-.006.206zm-4.251.603a.132.132 0 0 0-.055-.176.131.131 0 0 0-.176.057.126.126 0 0 0 .057.174.127.127 0 0 0 .174-.055zm2.811 1.436a.132.132 0 0 0-.057-.176.13.13 0 1 0 .057.176zm-2.133-11.177a.132.132 0 0 0-.165-.085.131.131 0 0 0 .079.25.128.128 0 0 0 .086-.165zm3.005-.971a.132.132 0 0 0-.165-.085.133.133 0 0 0-.085.165.131.131 0 0 0 .25-.08zm-3.884 18.378a.13.13 0 1 0-.17-.198.132.132 0 0 0-.015.184c.048.055.13.061.185.014zm2.947-12.171a.13.13 0 0 0-.12-.14.13.13 0 0 0-.141.12.13.13 0 0 0 .261.02zm3.146.251a.131.131 0 0 0-.12-.141.13.13 0 0 0-.02.261.13.13 0 0 0 .14-.12zm-4.708 10.957a.17.17 0 1 0-.268-.212.17.17 0 0 0 .268.212zm3.243 2.554a.173.173 0 0 0-.027-.24.174.174 0 0 0-.241.028.172.172 0 0 0 .028.24.17.17 0 0 0 .24-.028zm-4.01-14.397a.173.173 0 0 0-.19-.151.173.173 0 0 0-.151.191.172.172 0 0 0 .19.15.174.174 0 0 0 .151-.19zm4.099-.489a.172.172 0 0 0-.188-.151.171.171 0 0 0 .038.34.169.169 0 0 0 .15-.189zm4.102-.489a.174.174 0 0 0-.191-.151.174.174 0 0 0-.15.191c.01.094.097.161.19.15a.171.171 0 0 0 .151-.19zm-11.585 19.122a.17.17 0 0 0 .065-.233.17.17 0 0 0-.234-.065.17.17 0 0 0-.065.233.173.173 0 0 0 .234.065zm2.019 3.602a.17.17 0 0 0 .065-.233.17.17 0 1 0-.297.168.168.168 0 0 0 .232.065zm2.884-15.998a.17.17 0 0 0-.12-.211.17.17 0 0 0-.21.118.172.172 0 0 0 .33.093zm3.976 1.119a.17.17 0 0 0-.119-.211.172.172 0 0 0-.211.119.169.169 0 0 0 .119.21.171.171 0 0 0 .211-.118zm3.974 1.119a.17.17 0 0 0-.119-.211.171.171 0 1 0 .119.211zm-9.272-13.353a.172.172 0 0 0-.233-.065.17.17 0 0 0-.065.233.17.17 0 1 0 .298-.168zm-3.371 21.79a.13.13 0 1 0-.162-.205.13.13 0 0 0-.022.183.133.133 0 0 0 .184.022zm2.763-11.005a.13.13 0 0 0-.113-.146.129.129 0 0 0-.145.114.129.129 0 0 0 .113.145.132.132 0 0 0 .145-.113zm3.125.381a.132.132 0 0 0-.114-.146.132.132 0 0 0-.145.114.13.13 0 0 0 .259.032zm-3.425 5.317a.131.131 0 0 0-.05-.178.133.133 0 0 0-.178.05.129.129 0 0 0 .05.176.127.127 0 0 0 .178-.048zm2.74 1.549a.131.131 0 0 0-.05-.178.129.129 0 0 0-.176.05.133.133 0 0 0 .048.178.132.132 0 0 0 .178-.05zm-1.412-12.409a.128.128 0 0 0-.16-.09.13.13 0 0 0-.092.16.132.132 0 0 0 .161.09.13.13 0 0 0 .091-.16zm3.031-.843a.133.133 0 0 0-.16-.092.13.13 0 0 0 .07.25.125.125 0 0 0 .09-.158zm-4.511 14.972a.155.155 0 1 0-.26-.168.155.155 0 0 0 .26.168zm3.149 2.045a.155.155 0 0 0-.045-.214.157.157 0 0 0-.216.046.155.155 0 1 0 .261.168zm-1.148-13.484a.155.155 0 1 0-.304.064c.018.083.1.139.184.119a.154.154 0 0 0 .12-.183zm3.673-.781a.156.156 0 1 0-.121.185.158.158 0 0 0 .121-.185zm-8.911 18.269a.154.154 0 0 0 .039-.216.155.155 0 1 0-.256.176.158.158 0 0 0 .217.04zm2.124 3.092a.155.155 0 1 0-.176-.255.156.156 0 0 0-.04.216c.05.072.147.089.216.039zm1.293-14.721a.155.155 0 0 0-.126-.181.154.154 0 0 0-.18.125.155.155 0 0 0 .125.181.155.155 0 0 0 .181-.125zm3.692.685a.155.155 0 0 0-.125-.181.156.156 0 0 0-.181.125.152.152 0 0 0 .125.18.155.155 0 0 0 .181-.124zm3.689.685a.155.155 0 0 0-.125-.181.152.152 0 0 0-.18.125.154.154 0 0 0 .123.181.156.156 0 0 0 .182-.125zm-6.401-13.449a.154.154 0 0 0-.216-.039.155.155 0 0 0-.04.217c.048.07.146.087.217.039a.16.16 0 0 0 .039-.217zm3.092-2.125a.154.154 0 0 0-.216-.04.156.156 0 0 0 .177.256.153.153 0 0 0 .039-.216zm-7.694 23.851a.172.172 0 0 0-.015-.241.171.171 0 0 0-.224.258.17.17 0 0 0 .239-.017zm3.094 2.707a.173.173 0 0 0-.015-.241.171.171 0 0 0-.226.257c.07.062.178.055.241-.016zm3.093 2.709a.173.173 0 0 0-.015-.241.172.172 0 0 0-.241.017.172.172 0 0 0 .017.241.173.173 0 0 0 .239-.017zm-3.244-14.522a.17.17 0 1 0-.339.022.168.168 0 0 0 .18.158.17.17 0 0 0 .159-.18zm4.101-.273a.17.17 0 1 0-.339.021.17.17 0 0 0 .339-.021zm4.1-.273a.17.17 0 0 0-.181-.159.172.172 0 0 0-.159.181.17.17 0 0 0 .181.158.166.166 0 0 0 .159-.18zm-6.715-15.51a.172.172 0 0 0-.24.015.172.172 0 0 0 .017.241.172.172 0 0 0 .24-.015.169.169 0 0 0-.017-.241zm-5.547 33.904a.17.17 0 0 0 .077-.229.171.171 0 1 0-.308.152.177.177 0 0 0 .231.077zm1.823 3.685c.085-.041.119-.144.078-.229s-.144-.119-.229-.077a.17.17 0 1 0 .151.306zm3.692-15.755a.169.169 0 0 0-.108-.216.172.172 0 0 0-.216.107.17.17 0 1 0 .324.109zm3.894 1.317a.172.172 0 0 0-.107-.216.172.172 0 0 0-.216.107.17.17 0 1 0 .323.109zm3.893 1.318a.171.171 0 0 0-.107-.216.167.167 0 0 0-.214.107.17.17 0 1 0 .321.109zm-8.528-13.751a.172.172 0 0 0-.23-.078.172.172 0 0 0 .152.307.17.17 0 0 0 .078-.229zm3.685-1.824a.171.171 0 1 0-.307.151.171.171 0 0 0 .307-.151zm3.683-1.821a.171.171 0 1 0-.307.151.171.171 0 0 0 .307-.151z"/><g><g fill="#1C2868"><path d="M152.917 100.209s-5.618-9.01-19.584-5.044-18.591 22.951-9.827 29.14c8.419 5.947 11.879 7.893 11.879 7.893s-12.224 3.833-23.259 1.419c-11.034-2.414-36.38-9.828-53.45 6.897 0 0 6.034 21.553 16.724 30.347s13.449 9.656 15.69 14.311c0 0 24.311-10.863 34.484-27.588s13.949-25.714 13.949-25.714.529-1.136.598-2.102c0 0 .055-3.216-2.495-4.114-3.628-1.279-2.318-.61-4.436-1.316-2.117-.706-4.489-4.318-2.254-6.79 2.235-2.471 4.117-1.53 6.118-2.117 2.002-.591 11.608-3.384 15.863-15.222z"/><path d="M58.341 137.669c11.268-8.124 24.206-10.092 37.634-7.239 10.666 2.267 20.913 6.087 31.981 4.921.376-.039.38-.634 0-.593-13.148 1.384-25.109-4.375-37.927-5.967-11.488-1.427-22.632 1.619-31.988 8.365-.306.222-.011.736.3.513z"/></g><linearGradient id="k" gradientUnits="userSpaceOnUse" x1="4773.691" y1="3101.552" x2="4776.904" y2="2971.068" gradientTransform="matrix(0.0741 0 0 0.0741 -207.4016 -94.8663)"><stop offset=".033" style="stop-color:#ffbeb5"/><stop offset="1" style="stop-color:#f49e95"/></linearGradient><path fill="url(#k)" d="m153.53 129.842-.083.119c-.855 1.103-7.667 9.828-11.429 10.361-3.786.535-2.635-7.513-2.505-8.379.012-.047.012-.071.012-.071l.012-.012c.047-.131.51-1.187.582-2.101 0 0 .012-.332-.071-.819 1.103.119 2.433.202 4.024.238 3.513.071 6.124-.439 8.011-1.14-.19.356.368.926.843 1.341.319.274.604.463.604.463z"/><path fill="#FFBEB5" d="M162.253 113.001c-1.626 1.412-2.635 1.21-2.848 2.433-.154.902.38 5.757-2.706 9.424l-.095.095s-.012.012-.035.047a.223.223 0 0 0-.035.059c-.297.404-1.519 1.899-4.426 2.967 0 0-.012.012-.024.012-1.888.701-4.498 1.21-8.011 1.14a47.763 47.763 0 0 1-4.024-.238c-.166-1.009-.689-2.671-2.421-3.288-3.632-1.282-2.314-.617-4.439-1.318a1.434 1.434 0 0 1-.202-.083 8.548 8.548 0 0 1-.986-.617 1.514 1.514 0 0 1-.226-.178c-1.531-1.4-2.564-4-.831-5.911 2.231-2.469 4.106-1.531 6.113-2.113 1.685-.498 8.795-2.564 13.518-10.314.035-.059.083-.119.119-.19.962-1.543 1.576-3.188 2.22-4.724 0 0 4.877 7.11 7.513 8.736 2.634 1.615 3.452 2.636 1.826 4.061z"/><g><path fill="#1C2868" d="M163.097 102.816c-.47-2.188-2.284-3.66-4.044-3.284-1.76.379-2.811 2.467-2.341 4.654.054.256.131.501.219.736-1.038.422-1.652 1.442-2.09 2.45-.089-.088-.169-.185-.266-.265-.889-.736-1.929-1.023-2.927-.808-2.037.438-3.25 2.857-2.705 5.395.261 1.217.883 2.282 1.752 3.002.697.577 1.486.877 2.275.877.218 0 .436-.022.651-.069 1-.214 1.83-.903 2.34-1.938.497-1.013.626-2.24.366-3.456a5.555 5.555 0 0 0-1.049-2.258c.375-.922.918-2.012 1.901-2.39.665 1.257 1.819 2.07 3.021 2.07.185 0 .37-.019.557-.058 1.759-.382 2.809-2.469 2.34-4.658zm-7.669 10.487c-.427.869-1.113 1.445-1.93 1.619-.819.178-1.679-.066-2.425-.685-.767-.634-1.316-1.583-1.55-2.668-.476-2.219.533-4.321 2.249-4.689.173-.038.349-.055.524-.055.652 0 1.313.254 1.901.741.767.634 1.316 1.583 1.55 2.668.232 1.085.12 2.176-.319 3.069zm5.202-6.413c-1.445.309-2.939-.96-3.338-2.827-.402-1.869.445-3.64 1.885-3.949 1.445-.311 2.94.96 3.338 2.827.402 1.869-.443 3.64-1.885 3.949z"/></g></g></g></svg></g><g transform="translate(945.0 534.0) rotate(0.0 253.5 253.5) scale(1.69 1.69)"><svg width="300" height="300" viewBox="0 0 300 300"><circle cx="150" cy="150" fill="#d6e5fe" r="150"/><path d="M186.705 69.125c0-16.792 13.742-30.406 30.699-30.406s30.699 13.614 30.699 30.406c.587-.587-61.398 0-61.398 0z" fill="#fff"/><path d="M251.974 69.125h-7.75c0-14.764-12.035-26.82-26.82-26.82s-26.82 12.064-26.82 26.82h-7.75c0-18.821 15.506-34.57 34.57-34.57s34.57 15.75 34.57 34.57z" fill="#a1c3fc"/><path d="M195.812 213.383c16.792 0 30.406 13.742 30.406 30.699 0 16.956-13.614 30.699-30.406 30.699 0 0 .059-61.457 0-61.398z" fill="#fff"/><path d="M195.812 278.644v-7.75c14.764 0 26.82-12.035 26.82-26.82 0-14.792-12.064-26.82-26.82-26.82v-7.75c18.821 0 34.57 15.506 34.57 34.57 0 19.063-15.749 34.57-34.57 34.57z" fill="#a1c3fc"/><path d="M45.898 117.694c-16.792 0-29.357 13.774-30.406 30.699-1.368 22.085 30.023 32.133 30.406 30.699z" fill="#fff"/><g fill="#a1c3fc"><path d="M45.898 182.956v-7.75c-14.764 0-26.82-12.035-26.82-26.82s12.064-26.82 26.82-26.82v-7.75c-18.821 0-34.57 15.506-34.57 34.57 0 19.063 15.749 34.57 34.57 34.57zm192.034-75.375h-48.998l39.012-50.305 7.9 6.128-26.506 34.177h28.592zM37.585 215.153l-7.903-6.128 32.76-42.249 7.903 6.128zm146.728 21.05h-10v-48.105h48.962v10h-38.962z"/></g><path d="M169.935 233.982a.613.613 0 0 1 .407-.757c.307-.086.629.1.714.407 0 .007.007.014.007.014a.61.61 0 0 1-.407.764.616.616 0 0 1-.721-.428zm14.006-3.95a.608.608 0 0 1 .414-.757.608.608 0 0 1 .757.414.608.608 0 0 1-.414.757.642.642 0 0 1-.757-.414zm-6.764-57.404c.157-.286.521-.393.807-.236s.393.521.236.807-.521.393-.807.236a.584.584 0 0 1-.236-.807zm25.428 14.213a.597.597 0 0 1 .807-.236c.293.171.4.536.257.843a.662.662 0 0 1-.864.221.608.608 0 0 1-.2-.828zm12.699 7.121a.597.597 0 0 1 .807-.236.648.648 0 0 1 .257.843.597.597 0 0 1-.807.236.64.64 0 0 1-.257-.843zm9.978-58.84a.608.608 0 0 1 .414-.757.557.557 0 0 1 .7.35.26.26 0 0 1 .014.079.582.582 0 0 1-.371.736.6.6 0 0 1-.757-.408zm-50.055 68.983a.59.59 0 0 1 .643-.521.586.586 0 0 1-.122 1.164.548.548 0 0 1-.521-.586c-.007-.015 0-.036 0-.057zm28.913 3.392a.581.581 0 0 1 .664-.479.578.578 0 0 1 .521.636.578.578 0 0 1-.636.521h-.007a.594.594 0 0 1-.543-.65l.007-.014zm14.478 1.736a.548.548 0 0 1 .643-.514.6.6 0 0 1 .543.65c0 .007 0 .021-.007.029a.59.59 0 0 1-.643.521.612.612 0 0 1-.543-.657c.007-.015.007-.029.007-.029zm-16.478-53.548a.667.667 0 0 1 .114-.871.62.62 0 0 1 .871.114.612.612 0 0 1-.114.871.668.668 0 0 1-.871-.114zm9.021 11.428a.602.602 0 0 1 .129-.836c.236-.214.6-.2.814.036a.171.171 0 0 0 .036.043c.2.271.15.65-.114.871a.66.66 0 0 1-.865-.114zm-98.673 51.641a1.132 1.132 0 0 1 1.171-1.086h.043c.614.029 1.093.55 1.064 1.171v.007a1.133 1.133 0 0 1-1.171 1.093h-.043a1.119 1.119 0 0 1-1.064-1.171zm27.562 1.393a1.152 1.152 0 0 1 2.3.128 1.119 1.119 0 0 1-1.171 1.064h-.007a1.185 1.185 0 0 1-1.122-1.192zm27.592 1.371a1.152 1.152 0 1 1 1.086 1.214 1.132 1.132 0 0 1-1.086-1.171v-.043zM135.044 113.18a1.15 1.15 0 0 1 .1-1.614 1.111 1.111 0 0 1 1.557.014l.043.043a1.15 1.15 0 0 1-.1 1.614 1.13 1.13 0 0 1-1.6-.057zm18.492 20.471a1.15 1.15 0 0 1 .079-1.621 1.15 1.15 0 0 1 1.621.079l.021.021a1.129 1.129 0 0 1-.064 1.593 1.216 1.216 0 0 1-1.657-.072zm18.542 20.492a1.114 1.114 0 0 1 .071-1.586c.007-.007.021-.014.029-.029a1.111 1.111 0 0 1 1.557.014l.043.043a1.23 1.23 0 0 1-.079 1.657 1.164 1.164 0 0 1-1.621-.099zm37.041 40.955a1.127 1.127 0 0 1 .057-1.586 1.127 1.127 0 0 1 1.586.057l.029.029c.429.45.4 1.157-.05 1.578-.007.007-.014.007-.021.014a1.12 1.12 0 0 1-1.601-.092zm-77.211 68.868a1.145 1.145 0 1 1 2.171-.736c.2.6-.121 1.25-.714 1.457s-1.236-.1-1.45-.693c0-.014-.007-.021-.007-.028zm26.042-9.257a1.118 1.118 0 0 1 .629-1.457 1.121 1.121 0 0 1 1.457.629c.007.029.021.05.029.079a1.12 1.12 0 0 1-2.115.749zm-47.541-87.91a1.127 1.127 0 0 1 1.529-.486c.557.286.779.964.486 1.529a1.133 1.133 0 0 1-1.493.507c-.565-.3-.801-.986-.522-1.55zm24.942 11.842a1.127 1.127 0 0 1 1.529-.486c.557.286.779.964.486 1.529a1.13 1.13 0 0 1-1.5.5 1.169 1.169 0 0 1-.515-1.543zm24.934 11.807a1.16 1.16 0 0 1 1.564-.5c.55.279.786.943.536 1.507-.257.586-.95.85-1.536.586s-.85-.95-.586-1.536c.008-.014.008-.036.022-.057zm27.856-94.288c-.2-.6.121-1.25.714-1.457a1.113 1.113 0 0 1 1.429.664l.007.014c.236.557-.021 1.2-.579 1.436-.029.007-.05.021-.086.036a1.208 1.208 0 0 1-1.485-.693zm9.285 26.02a1.21 1.21 0 0 1 .693-1.486c.6-.2 1.25.121 1.457.714s-.1 1.236-.693 1.45c-.007 0-.014.007-.021.007a1.113 1.113 0 0 1-1.429-.664c-.007-.014-.007-.014-.007-.021zm9.264 25.984c-.221-.564.057-1.2.621-1.414a.134.134 0 0 1 .05-.014 1.137 1.137 0 0 1 1.492.686c.207.6-.107 1.25-.707 1.457s-1.25-.107-1.457-.707c.008.007.008 0 .001-.008zm9.257 26.042c-.2-.6.121-1.25.714-1.457.564-.214 1.2.064 1.414.629a.134.134 0 0 1 .014.05 1.154 1.154 0 0 1-.657 1.471 1.18 1.18 0 0 1-1.485-.693zM99.445 191.562c.193-.521.771-.8 1.3-.614s.8.764.614 1.3c-.186.529-.764.8-1.3.614a1.037 1.037 0 0 1-.614-1.3zm23.171 8.393c.193-.521.771-.8 1.3-.614.536.171.821.743.65 1.279s-.743.821-1.279.65l-.057-.021a.995.995 0 0 1-.629-1.257.093.093 0 0 0 .015-.037zm23.22 9.114a.816.816 0 0 1-.043-.729c.193-.521.771-.8 1.3-.614.543.193.829.779.636 1.321 0 .007 0 .007-.007.014a1.027 1.027 0 0 1-.707.65l-.036.021a.701.701 0 0 1-.55-.057.9.9 0 0 1-.593-.606zm23.127 7.656c.2-.536.793-.807 1.321-.607a1.027 1.027 0 0 1-.693 1.935 1.032 1.032 0 0 1-.636-1.321c.008.008.008.001.008-.007zm.493-100.945c-.221-.529 0-1.136.514-1.386a.982.982 0 0 1 1.314.464c.007.014.007.029.014.043.25.5.043 1.114-.464 1.357-.007 0-.014.007-.021.007a1.06 1.06 0 0 1-1.357-.485zm10.457 22.263c-.229-.507 0-1.1.5-1.329a.982.982 0 0 1 1.314.464c.007.014.007.029.014.043.25.5.043 1.114-.464 1.357-.007 0-.014.007-.021.007a1.04 1.04 0 0 1-1.343-.542zm10.464 22.364c-.25-.5-.043-1.114.464-1.357.007 0 .014-.007.021-.007a.96.96 0 0 1 1.293.414l.043.086c.25.5.043 1.114-.464 1.357-.007 0-.014.007-.021.007a1.04 1.04 0 0 1-1.336-.5zm10.428 22.284a1.034 1.034 0 0 1 .543-1.35c.5-.214 1.093 0 1.329.5a1.063 1.063 0 0 1-.479 1.364 1.071 1.071 0 0 1-1.393-.514zm10.464 22.356a1.032 1.032 0 0 1 .471-1.371 1.038 1.038 0 0 1 1.371.471v.007c.221.529 0 1.136-.514 1.386a1.043 1.043 0 0 1-1.328-.493zm-83.554 39.291a1 1 0 0 1 .95-1.05h.05a.962.962 0 0 1 1.029.893c0 .021.007.043 0 .064a1.015 1.015 0 0 1-.936 1.086h-.036a1.048 1.048 0 0 1-1.057-.993zm73.854-3.349a1.032 1.032 0 0 1 1-1.05 1.019 1.019 0 0 1 1.05 1 1.023 1.023 0 0 1-1 1.05 1.028 1.028 0 0 1-1.05-1zm-66.775-83.761a1.032 1.032 0 0 1-.036-1.443 1.005 1.005 0 0 1 1.421-.071c.407.386.45 1.021.093 1.457a1.054 1.054 0 0 1-1.478.057zm18.227 16.607a.976.976 0 0 1-.078-1.422 1.005 1.005 0 0 1 1.421-.071c.407.386.45 1.021.093 1.457a1.016 1.016 0 0 1-1.436.036zm18.192 16.634a1.005 1.005 0 1 1 1.35-1.492 1.005 1.005 0 1 1-1.35 1.492zm48.355-74.653a.962.962 0 0 1 .893-1.029c.021 0 .043-.007.064 0a1.015 1.015 0 0 1 1.086.936v.036c0 .557-.436 1.021-1 1.05a1 1 0 0 1-1.05-.95c.007-.015.007-.029.007-.043zm1.114 24.634a1.045 1.045 0 0 1 .971-1.086 1.041 1.041 0 0 1 1.057 1.014c.007.543-.4 1-.943 1.05a1.011 1.011 0 0 1-1.086-.914l.001-.064zm-82.296 98.196c.057-.329.371-.557.7-.5s.557.371.5.7-.371.557-.7.5a.633.633 0 0 1-.5-.7zm28.742 4.485a.581.581 0 0 1 .664-.479.554.554 0 0 1 .514.6c-.007.029-.007.064-.014.1a.581.581 0 0 1-.664.479.56.56 0 0 1-.514-.607c.007-.036.014-.064.014-.093zm3.25-56.29a.602.602 0 0 1 .129-.836.602.602 0 0 1 .836.129c.2.264.136.636-.129.836a.588.588 0 0 1-.836-.129zm34.248 46.984a.602.602 0 0 1 .129-.836.603.603 0 0 1 .836.136.596.596 0 0 1-.965.7zM147.4 269.223a.623.623 0 0 1 .429-.721.641.641 0 0 1 .743.464.583.583 0 0 1-.407.714c-.007 0-.014.007-.021.007a.654.654 0 0 1-.744-.464zm14.128-3.407a.6.6 0 0 1 .429-.721c.3-.093.621.079.714.379.007.014.007.029.007.029a.571.571 0 0 1-.35.721.26.26 0 0 1-.079.014.583.583 0 0 1-.714-.407c0-.001 0-.008-.007-.015zM155.6 213.74a.649.649 0 0 1 .829-.2.583.583 0 0 1 .214.8c-.007.014-.007.014-.021.029a.575.575 0 0 1-.779.229.312.312 0 0 0-.036-.014.62.62 0 0 1-.207-.844zm12.435 7.549a.649.649 0 0 1 .829-.2.617.617 0 0 1 .2.829.565.565 0 0 1-.771.25c-.014-.007-.021-.014-.036-.021a.62.62 0 0 1-.243-.829c-.001 0 .014-.014.021-.029zm12.414 7.614c.15-.279.5-.379.779-.229.014.007.036.014.05.029.286.179.371.55.2.829a.649.649 0 0 1-.829.2.591.591 0 0 1-.221-.8.084.084 0 0 1 .021-.029zm19.77-47.862a.594.594 0 0 1 1.15-.292.557.557 0 0 1-.35.7.26.26 0 0 1-.079.014.583.583 0 0 1-.714-.407zm3.414 14.135a.628.628 0 0 1 .464-.743.585.585 0 0 1 .686.443.557.557 0 0 1-.35.7.26.26 0 0 1-.079.014.583.583 0 0 1-.714-.407zm3.4 14.135a.628.628 0 0 1 .464-.743.617.617 0 0 1 .736.464.617.617 0 0 1-1.2.279zm-85.71 24.385a.653.653 0 0 1 .836-.407h.014a.68.68 0 0 1 .45.843c-.007.014-.014.036-.021.05a.653.653 0 0 1-.836.407h-.014a.715.715 0 0 1-.429-.893zm15.635 5.5a.698.698 0 0 1 .886-.421c.364.129.55.529.421.886a.653.653 0 0 1-.836.407s-.014 0-.021-.007a.662.662 0 0 1-.471-.821c.006-.016.014-.03.021-.044zm30.955-57.062a.64.64 0 0 1 .25-.864c.021-.014.05-.021.071-.036a.682.682 0 0 1 .9.329.752.752 0 0 1-.307.936.7.7 0 0 1-.914-.365zm7.157 14.971a.691.691 0 0 1 .357-.914.682.682 0 0 1 .9.329.752.752 0 0 1-.307.936.764.764 0 0 1-.95-.351zm14.45 29.92a.642.642 0 0 1 .214-.886c.029-.014.064-.036.093-.05a.682.682 0 0 1 .9.329.713.713 0 0 1-.307.936.68.68 0 0 1-.9-.329zm-64.219 42.391a.683.683 0 0 1 .614-.75h.036a.734.734 0 0 1 .721.671.68.68 0 0 1-.643.721h-.021a.687.687 0 0 1-.707-.642zm16.557-.943a.67.67 0 0 1 .636-.7.683.683 0 0 1 .75.614v.036a.695.695 0 0 1-.679.714.704.704 0 0 1-.707-.664zm16.584-.907a.63.63 0 0 1 .571-.693c.021-.007.036 0 .064 0a.663.663 0 0 1 .743.614.683.683 0 0 1-.614.75.683.683 0 0 1-.75-.614c-.014-.021-.014-.043-.014-.057zm-12.606-58.497a.888.888 0 0 1 .129-.264.675.675 0 0 1 .95-.057c.007.007.014.007.021.014.271.25.3.657.079.943l-.036.021a.675.675 0 0 1-.95.057l-.014-.014a.626.626 0 0 1-.179-.7zm12.578 11.77a.676.676 0 0 1-.086-.943s0-.007.007-.007a.737.737 0 0 1 .986-.1c.271.271.3.7.064 1a.68.68 0 0 1-.971.05zm12.342 11.057a.68.68 0 0 1-.043-.964.68.68 0 0 1 .964-.043.68.68 0 0 1 .043.964.675.675 0 0 1-.95.057c-.007 0-.007-.007-.014-.014zm32.027-50.59a.68.68 0 0 1 .643-.721h.021a.67.67 0 0 1 .7.636.663.663 0 0 1-.614.743.73.73 0 0 1-.75-.658zm.943 16.556a.63.63 0 0 1 .571-.693c.021-.007.036 0 .064 0a.652.652 0 0 1 .729.564c0 .014 0 .029.007.05a.713.713 0 0 1-.643.757.711.711 0 0 1-.728-.678zm.907 16.578a.685.685 0 0 1 .643-.721.688.688 0 0 1 .721.636.683.683 0 0 1-.614.75h-.036a.729.729 0 0 1-.714-.665zm-121.73-43.162a1.23 1.23 0 0 1-.036-1.686 1.173 1.173 0 0 1 1.657-.071c.464.457.479 1.207.036 1.686a1.174 1.174 0 0 1-1.657.071zm20.842 19.384a1.173 1.173 0 1 1 1.657-.071 1.16 1.16 0 0 1-1.657.071zm20.799 19.414a1.215 1.215 0 0 1-.036-1.686 1.18 1.18 0 0 1 1.657-.007 1.171 1.171 0 0 1-1.621 1.693zm41.641 38.805a1.215 1.215 0 0 1-.036-1.686 1.173 1.173 0 0 1 1.7 1.614 1.182 1.182 0 0 1-1.664.072zm25.349-128.137a1.234 1.234 0 0 1 1.164-1.243c.657 0 1.193.529 1.186 1.186 0 .636-.493 1.157-1.129 1.186a1.198 1.198 0 0 1-1.221-1.129zm1 28.435a1.21 1.21 0 0 1 1.129-1.229c.65-.029 1.2.479 1.229 1.129s-.479 1.2-1.129 1.229a1.211 1.211 0 0 1-1.229-1.129zm1.007 28.427a1.2 1.2 0 0 1 1.129-1.229 1.234 1.234 0 0 1 1.243 1.164 1.19 1.19 0 0 1-1.193 1.186 1.177 1.177 0 0 1-1.179-1.121zm-77.925 69.904a1.19 1.19 0 0 1 1.529-.7c.614.229.929.914.7 1.529a1.19 1.19 0 0 1-1.529.7 1.216 1.216 0 0 1-.7-1.529zm26.663 9.992c.2-.614.864-.95 1.479-.75.014.007.021.007.029.007.607.236.914.914.7 1.529a1.167 1.167 0 0 1-1.507.707c-.007 0-.014-.007-.014-.007a1.154 1.154 0 0 1-.687-1.486zm26.677 9.942a1.18 1.18 0 0 1 1.528-.7c.571.221.85.85.643 1.421.021.036.021.036.007.093-.2.564-.807.871-1.386.714l-.114-.029a1.127 1.127 0 0 1-.678-1.499zm-33.034-119.237a1.25 1.25 0 0 1 .593-1.578c.6-.243 1.279.029 1.543.614a1.15 1.15 0 0 1-.543 1.543c-.007 0-.014.007-.021.007a1.181 1.181 0 0 1-1.572-.586zm11.828 25.913c-.271-.6-.007-1.3.593-1.579a1.15 1.15 0 0 1 1.521.579 1.162 1.162 0 0 1-.55 1.557 1.162 1.162 0 0 1-1.557-.55s-.007 0-.007-.007zm11.807 25.878a1.153 1.153 0 0 1 .536-1.543c.007 0 .014-.007.021-.007.586-.286 1.3-.05 1.593.543.286.586.05 1.3-.543 1.593-.586.286-1.3.05-1.593-.543 0-.008-.014-.029-.014-.043zm11.806 25.877a1.17 1.17 0 0 1 2.135-.957 1.18 1.18 0 0 1-.557 1.557c-.599.264-1.306 0-1.578-.6zm-51.512 41.898c.221-.6.871-.936 1.493-.771.614.221.936.893.736 1.507-.171.6-.793.943-1.393.771-.021-.007-.043-.014-.057-.021a1.17 1.17 0 0 1-.779-1.464v-.022zm-3.142-116.13a1.174 1.174 0 0 1 .557-1.557 1.174 1.174 0 0 1 1.557.557 1.176 1.176 0 0 1-.521 1.536 1.19 1.19 0 0 1-1.593-.536zm12.828 25.284c-.286-.586-.05-1.3.543-1.593a1.208 1.208 0 0 1 1.571.507c.279.593.05 1.307-.514 1.628-.6.273-1.3.03-1.6-.542zm12.828 25.278c-.286-.586-.05-1.3.543-1.593a1.165 1.165 0 0 1 1.571.507 1.165 1.165 0 0 1-.507 1.571 1.21 1.21 0 0 1-1.607-.485zm12.863 25.263a1.123 1.123 0 0 1 .443-1.536c.021-.014.043-.021.064-.036a1.173 1.173 0 0 1 1.571.507 1.163 1.163 0 0 1-.507 1.564 1.165 1.165 0 0 1-1.571-.499zm62.783-32.02a1.207 1.207 0 0 1 1.507-.736c.6.207.921.871.714 1.471-.171.6-.793.943-1.393.771-.021-.007-.043-.014-.057-.021a1.17 1.17 0 0 1-.779-1.464c.008 0 .008-.007.008-.021zm-116.444 23.47a1.162 1.162 0 0 1-.114-1.636s0-.007.007-.007a1.17 1.17 0 0 1 1.65-.157c.486.436.543 1.179.129 1.678a1.213 1.213 0 0 1-1.672.122zm21.57 18.442a1.174 1.174 0 0 1-.143-1.65 1.174 1.174 0 0 1 1.65-.143c.007 0 .007.007.014.014.479.436.536 1.171.129 1.678a1.162 1.162 0 0 1-1.636.114zm21.506 18.435a1.195 1.195 0 0 1-.071-1.686 1.186 1.186 0 0 1 1.621-.121c.5.429.55 1.179.129 1.678a1.183 1.183 0 0 1-1.679.129zm31.313-106.038a1.203 1.203 0 0 1 1.107-1.264 1.159 1.159 0 0 1 1.236 1.071 1.146 1.146 0 0 1-1.007 1.271c-.014 0-.036.007-.05.007a1.174 1.174 0 0 1-1.293-1.05v-.036h.007zm2.186 28.263a1.203 1.203 0 0 1 1.107-1.264 1.155 1.155 0 0 1 1.236 1.071 1.146 1.146 0 0 1-1.007 1.271c-.014 0-.036.007-.05.007a1.18 1.18 0 0 1-1.293-1.05v-.035zm4.371 56.533a1.218 1.218 0 0 1 1.107-1.264 1.155 1.155 0 0 1 1.236 1.071 1.213 1.213 0 0 1-1.05 1.271 1.187 1.187 0 0 1-1.293-1.071c0 .007-.007 0 0-.007zm-51.069 41.355a.891.891 0 0 1 1.221-.329.89.89 0 0 1 .329 1.221.865.865 0 0 1-1.179.321c-.007 0-.007 0-.014-.007a.924.924 0 0 1-.357-1.206zm15.928-86.117a.878.878 0 0 1 .629-1.079.893.893 0 0 1 1.079.607.85.85 0 0 1-.557 1.064l-.086.021a.889.889 0 0 1-1.065-.613zm5.485 20.62a.9.9 0 0 1 .643-1.086.897.897 0 0 1 1.086.643.879.879 0 0 1-.614 1.079c-.014.007-.021.007-.029.007a.9.9 0 0 1-1.086-.643zm5.507 20.664a.9.9 0 0 1 .643-1.086c.471-.121.964.171 1.086.643s-.171.964-.643 1.086a.91.91 0 0 1-1.086-.643zm-45.341-11.643a.893.893 0 0 1 .179-1.236.93.93 0 0 1 1.236.179.888.888 0 0 1-.171 1.236l-.007.007a.858.858 0 0 1-1.2-.129.187.187 0 0 0-.037-.057zm12.978 17.014a.935.935 0 0 1 .157-1.271.888.888 0 0 1 1.236.171.85.85 0 0 1-.114 1.2c-.007.007-.021.014-.029.021a.878.878 0 0 1-1.243-.114zm13 16.963a.858.858 0 0 1 .129-1.2c.021-.014.036-.029.05-.036a.84.84 0 0 1 1.186.107c.007.014.021.021.029.036.293.4.221.957-.157 1.271a.888.888 0 0 1-1.236-.171v-.007zm49.869-35.127a.902.902 0 0 1 1.036-.743.905.905 0 0 1 .75.979.903.903 0 0 1-1.014.779.906.906 0 0 1-.772-1.015zm-50.998 41.556a.502.502 0 0 1 .179-.671.49.49 0 0 1 .671.179.49.49 0 0 1-.179.671c-.014.007-.021.014-.036.021a.5.5 0 0 1-.635-.2zm5.5 10.263a.469.469 0 0 1 .186-.629s.007 0 .014-.007a.43.43 0 0 1 .6.143c.014.021.021.043.036.057a.47.47 0 0 1-.143.65.054.054 0 0 1-.036.014.534.534 0 0 1-.657-.228zm18.863-11.599a.465.465 0 0 1 .407-.521.491.491 0 0 1 .543.436.459.459 0 0 1-.393.521h-.014a.488.488 0 0 1-.543-.436zm1.143 11.628a.491.491 0 0 1 .436-.543c.271-.029.514.164.543.436s-.164.514-.436.543a.497.497 0 0 1-.543-.436zm-26.385-33.556a.799.799 0 0 1 .736-.857c.4-.057.771.221.821.614 0 .029.007.05.007.079a.74.74 0 0 1-.614.857c-.021.007-.043.007-.064.007a.771.771 0 0 1-.879-.657c-.007-.007-.007-.021-.007-.043zm2.029 19.235a.74.74 0 0 1 .614-.857c.021-.007.043-.007.064-.007a.771.771 0 0 1 .886.714.812.812 0 0 1-.707.886.776.776 0 0 1-.85-.686v-.029zM141 275.023a.827.827 0 0 1 .707-.886.793.793 0 0 1 .886.679s.007.021 0 .029a.812.812 0 0 1-.707.886.813.813 0 0 1-.886-.708zm28.749-6.057a.78.78 0 0 1-.071-.621.83.83 0 0 1 1.007-.543.94.94 0 0 1 .443.357c.021.036.021.036.007.093a.685.685 0 0 1 .093.564.83.83 0 0 1-1.007.543.948.948 0 0 1-.472-.393z" fill="#fff"/><path d="M151.843 149.921c-1.714-1.093-3.486-2.221-5.214-3.436-18.735-13.107-30.977-35.434-31.956-58.276s9.314-46.134 26.856-60.79l2.75 3.293c-16.542 13.821-26.249 35.784-25.327 57.319s12.464 42.591 30.127 54.947c1.657 1.157 3.393 2.264 5.064 3.336z" fill="#d62929"/><path d="m140.086 48.855 18.906-32.284-39.012 15.642 18.885 1.185zm58.455 100.359 48.462 2.436-41.341-35.527 9.928 22.435z" fill="#23286b"/><path d="M148.843 158.5a2.824 2.824 0 0 1-1.957-.779 2.855 2.855 0 0 1-.121-4.036c20.949-22.199 56.833-27.713 83.482-12.835 1.379.771 1.871 2.507 1.1 3.886s-2.507 1.871-3.886 1.1c-24.027-13.421-57.647-8.25-76.539 11.771a2.865 2.865 0 0 1-2.079.893z" fill="#23286b"/><circle cx="150" cy="150" fill="#d62929" r="11.207"/></svg></g><g transform="translate(810.0 648.0) rotate(0.0 150.5 193.5) scale(1.5435897435897437 1.548)"><svg width="195" height="250" viewBox="0 0 195 250"><linearGradient id="l"><stop offset="0" stop-color="#23286b"/><stop offset="1" stop-color="#151a4f"/></linearGradient><linearGradient xmlns:xlink="http://www.w3.org/1999/xlink" id="m" gradientUnits="userSpaceOnUse" x1="103.386" x2="103.248" xlink:href="#l" y1="6.789" y2="28.096"/><linearGradient xmlns:xlink="http://www.w3.org/1999/xlink" id="n" gradientUnits="userSpaceOnUse" x1="86.79" x2="86.891" xlink:href="#l" y1="22.238" y2="27.838"/><linearGradient xmlns:xlink="http://www.w3.org/1999/xlink" id="o" gradientUnits="userSpaceOnUse" x1="119.705" x2="119.463" xlink:href="#l" y1="21.668" y2="27.962"/><path d="M0 28.511v5.783h4.181v-2.147h6.212v6.2H4.181v-2.146H0v9.061h4.181v-2.146h6.212v6.2H4.181v-2.147H0v9.062h4.181v-2.146h6.212v6.199H4.181v-2.146H0v9.06h4.181v-2.145h6.212v6.2H4.181v-2.146H0v9.06h4.181v-2.145h6.212v6.199H4.181v-2.146H0v9.06h4.181v-2.146h6.212v6.201H4.181v-2.146H0v9.06h4.181v-2.146h6.212v6.199H4.181v-2.145H0v9.061h4.181v-2.147h6.212v6.2H4.181v-2.145H0v9.06h4.181v-2.146h6.212v6.2H4.181v-2.147H0v9.062h4.181v-2.146h6.212v6.199H4.181v-2.146H0v9.061h4.181v-2.146h6.212v6.2H4.181v-2.146H0v3.279h97.961V28.511z" fill="#0d236a"/><path d="M0 83.497v5.782h4.181v-2.146h6.212v6.199H4.181v-2.146H0v9.061h4.181v-2.146h6.212v6.2H4.181v-2.146H0v9.061h4.181v-2.146h6.212v6.199H4.181v-2.146H0v9.062h4.181v-2.147h6.212v6.2H4.181v-2.146H0v9.061h4.181v-2.146h6.212v6.2H4.181v-2.147H0v9.062h4.181v-2.146h6.212v6.199H4.181v-2.146H0v9.061h4.181v-2.146h6.212v6.2H4.181v-2.146H0v9.061h4.181v-2.146h6.212v6.199H4.181v-2.146H0v9.061h4.181v-2.146h6.212v6.2H4.181v-2.146H0v9.06h4.181v-2.145h6.212v6.199H4.181v-2.146H0v9.061h4.181v-2.145h6.212v6.199H4.181v-2.146H0v3.278h97.961V83.497z" fill="#0d236a"/><path d="M15.266 17.119H191.53v230.698H15.266z" fill="#DADBDC"/><path d="m19.518 20.06 171.74-2.828L195 243.524l-171.741 2.829z" fill="#F2F2F2"/><path d="m25.768 22.705 163.787.981L188.194 250l-163.787-.981z" fill="#fff"/><path d="M80.606 4.472h45.437v2.072H80.606z" fill="#151a4f"/><path d="M80.606 6.473h45.437v19.648H80.606z" fill="url(#m)"/><path d="M99.734 24.841H77.87v-2.078h20.823v-3.304L87.655 1.583 88.54 0h16.052v2.078H90.405l10.216 16.541.154.546v4.637z" fill="#ff4945"/><path d="M128.309 24.841h-21.816l-1.041-1.039v-4.637l.155-.545 10.215-16.542h-14.187V0h16.051l.887 1.583-11.039 17.876v3.304h20.775z" fill="#ff4945"/><path d="M79.247 21.905h15.15v4.215h-15.15z" fill="url(#n)"/><path d="M111.829 21.905h15.572v4.215h-15.572z" fill="url(#o)"/><g fill="#F2F2F2"><path d="M37.982 73.238h6.245v4.155h-6.245zm81.636 4.155h-12.565v-4.155h12.565zm-25.13 0H81.922v-4.155h12.565zm-25.13 0H56.792v-4.155h12.565zm62.825-4.155h6.245v4.155h-6.245zm-94.201 34.28h6.245v4.155h-6.245zm81.636 4.155h-12.565v-4.155h12.565zm-25.13 0H81.922v-4.155h12.565zm-25.13 0H56.792v-4.155h12.565zm62.825-4.155h6.245v4.155h-6.245zm-94.201 34.28h6.245v4.155h-6.245zm81.636 4.155h-12.565v-4.155h12.565zm-25.13 0H81.922v-4.155h12.565zm-25.13 0H56.792v-4.155h12.565zm62.825-4.155h6.245v4.155h-6.245zm-94.201 34.28h6.245v4.155h-6.245zm81.636 4.155h-12.565v-4.155h12.565zm-25.13 0H81.922v-4.155h12.565zm-25.13 0H56.792v-4.155h12.565zm62.825-4.155h6.245v4.155h-6.245zm41.636-97.127h-26.543V52.462h26.543zm-22.379-4.155h18.216V56.617H151.44zm22.379 73.754h-26.543v-26.489h26.543zm-22.379-4.155h18.216v-18.179H151.44zm22.379 73.754h-26.543V191.66h26.543zm-22.379-4.155h18.216v-18.179H151.44z"/></g></svg></g><g transform="translate(1143.0 343.0) rotate(0.0 -125.5 204.5) scale(-1.0203252032520325 1.0225)"><svg width="246" height="400" viewBox="0 0 246 400"><g><path fill="#428DFC" d="m152.108 364.28 29.395.001s12.677 13.535 28.135 20.157C225.097 391.06 229.734 400 229.734 400l-90.434-.003 12.808-35.717"/><linearGradient id="p" gradientUnits="userSpaceOnUse" x1="6317.993" y1="5965.631" x2="5276.956" y2="6748.31" gradientTransform="matrix(0.0741 0 0 0.0741 -230.5491 -141.1613)"><stop offset=".129" style="stop-color:#428dfc"/><stop offset=".999" style="stop-color:#1d72d8"/></linearGradient><path fill="url(#p)" d="m162.684 316.413 28.765-6.045s15.192 10.638 31.683 13.939S246 335.401 246 335.401l-88.5 18.6 5.184-37.588"/><linearGradient id="q" gradientUnits="userSpaceOnUse" x1="6116.84" y1="4295.863" x2="4424.771" y2="5169.967" gradientTransform="matrix(0.0741 0 0 0.0741 -230.5491 -141.1613)"><stop offset="0" style="stop-color:#23286b"/><stop offset="1" style="stop-color:#151a4f"/></linearGradient><path fill="url(#q)" d="M68.731 158.283s66.854 11.795 84.267 18.885c17.414 7.089 18.618 25.964 26.166 65.135 8.774 45.536 12.803 68.314 12.803 68.314l-32.816 6.659s-11.472-5.763-15.355-25.646-1.837-21.743-6.55-32.403c-4.714-10.66-8.485-16.449-8.486-30.147-.001-13.697-7.901-20.465-19.684-19.722-11.783.744-64.178.165-86.463-35.775l-4.991-8.048s36.979-14.6 51.109-7.252"/><linearGradient id="r" gradientUnits="userSpaceOnUse" x1="4895.211" y1="2539.823" x2="4982.935" y2="3002.361" gradientTransform="matrix(0.0741 0 0 0.0741 -230.5491 -141.1613)"><stop offset="0" style="stop-color:#ffbeb6"/><stop offset="1" style="stop-color:#f2a19c"/></linearGradient><path fill="url(#r)" d="M133.262 96.874s6.605-2.79 6.605-7.909 8.669-8.665 8.669-8.665l-6.708 13.38-3.536 7.494c-.001-.001-7.299 12.471-5.03-4.3z"/><path fill="#23286B" d="M129.239 337.016c3.828 8.678 14.735 21.869 22.87 27.262l29.395.001c-1.221-4.999-26.229-107.917-36.084-126.027-8.041-14.761-19.391-30.365-30.682-43.957l-28.217-33.023-27.988 5.599c-.986-.399-2.799-.696-3.887-1.059-2.019-.68-3.924 7.025-6.527 5.224-4.433 2.22-28.039.178-31.274 1.453 2.071 24.011 22.748 41.663 47.185 53.668 45.58 22.394 37.256 33.532 41.093 48.523 3.808 14.999 6.471 23.948 15.156 34.696 8.706 10.751 1.679 11.083 8.96 27.64zm29.432-239.502-17.044-3.881a1.874 1.874 0 0 1-1.075-2.963l22.458-29.472a1.876 1.876 0 0 1 1.942-.683l17.144 4.252a1.873 1.873 0 0 1 1.031 2.967l-22.558 29.102a1.877 1.877 0 0 1-1.898.678z"/><linearGradient id="s" gradientUnits="userSpaceOnUse" x1="5179.261" y1="3244.648" x2="4890.501" y2="3529.705" gradientTransform="matrix(0.0741 -7.542857e-004 7.542857e-004 0.0741 -231.3851 -141.1325)"><stop offset="0" style="stop-color:#ffbeb6"/><stop offset="1" style="stop-color:#f2a19c"/></linearGradient><path fill="url(#s)" d="M134.868 100.916s4.871-3.676 6.96-7.237c0 0 3.203.743 5.199 1.066 0 0 .261-5.078 10.289-5.936 9.042-.774 7.851-2.738 13.444-4.566 5.594-1.829 7.876-.179 8.19 1.688 0 0-5.887 2.127-7.243 4.306-1.356 2.179-2.976 7.511-7.882 9.234-4.906 1.723-21.83 3.077-25.357 14.432l-3.6-12.987"/><path opacity=".66" fill="#FFF" d="M55.349 187.976a.202.202 0 1 0-.105-.265.2.2 0 0 0 .105.265zm1.901-4.556a.221.221 0 0 0 .279-.109.206.206 0 0 0-.12-.263.191.191 0 0 0-.256.086l-.009.021a.201.201 0 0 0 .106.265zm1.915-4.558a.2.2 0 0 0 .264-.106.221.221 0 0 0-.109-.279.227.227 0 0 0-.277.122.207.207 0 0 0 .122.263zm1.901-4.555a.202.202 0 0 0 .265-.106.218.218 0 0 0-.109-.279.2.2 0 0 0-.264.106.218.218 0 0 0 .108.279zm14.979 13.616a.206.206 0 0 0 .267.117.19.19 0 0 0 .114-.242c-.003-.008-.006-.017-.011-.024a.2.2 0 0 0-.254-.119.206.206 0 0 0-.116.268zm-27.804-7.94a.198.198 0 1 0 .283-.277.199.199 0 0 0-.28-.003.185.185 0 0 0-.003.28zm3.505-3.477c.06.062.156.073.228.024l.014-.002a.05.05 0 0 0 .039-.019.197.197 0 0 0 .06-.176.226.226 0 0 0-.057-.118.2.2 0 0 0-.28-.003.201.201 0 0 0-.009.286c0 .003.002.006.005.008zm3.506-3.478c.08.074.205.068.278-.011a.198.198 0 1 0-.277-.283.201.201 0 0 0-.001.294zm10.31 14.247a.223.223 0 0 0 .211.209.21.21 0 1 0-.002-.42.227.227 0 0 0-.209.211zm.015-4.937a.2.2 0 0 0 .209.194.196.196 0 0 0 .21-.18l.001-.017a.215.215 0 0 0-.211-.209.228.228 0 0 0-.209.212zm-37.154 6.859a.384.384 0 0 0 .551.036.38.38 0 0 0 .04-.534l-.002-.002a.384.384 0 0 0-.551-.036.379.379 0 0 0-.038.536zm7.067-6.137a.39.39 0 1 0 .587-.513l-.001-.001a.38.38 0 0 0-.534-.04l-.002.002a.401.401 0 0 0-.05.552zm7.082-6.139a.39.39 0 1 0 .036-.55.383.383 0 0 0-.036.55zm13.97 35.735a.392.392 0 0 0 .364.411.374.374 0 0 0 .412-.329l.002-.021a.392.392 0 0 0-.364-.411.383.383 0 0 0-.414.35zm.653-9.332a.388.388 0 0 0 .776.046.382.382 0 0 0-.351-.412.412.412 0 0 0-.425.366zm.664-9.348a.382.382 0 0 0 .351.411l.014.001a.374.374 0 0 0 .412-.329l.002-.021a.413.413 0 0 0-.367-.424.388.388 0 0 0-.412.362zm.652-9.332a.39.39 0 1 0 .425-.366h-.001a.388.388 0 0 0-.423.351l-.001.015zm.663-9.348a.38.38 0 0 0 .349.412.38.38 0 0 0 .412-.349l.001-.016a.378.378 0 0 0-.343-.412l-.008-.001a.396.396 0 0 0-.411.366zM38.74 203.5a.385.385 0 1 0-.184-.52.395.395 0 0 0 .184.52zm4.183-8.381a.385.385 0 1 0-.184-.519.396.396 0 0 0 .184.519zm4.186-8.367a.395.395 0 1 0-.181-.541.395.395 0 0 0 .164.532c.004.004.01.006.017.009zm4.18-8.393a.383.383 0 0 0 .517-.16l.005-.011a.384.384 0 0 0-.681-.355l-.008.017a.367.367 0 0 0 .146.497l.021.012zm22.992 27.732a.392.392 0 0 0 .495.239.377.377 0 0 0 .242-.477l-.001-.004a.371.371 0 0 0-.482-.255.412.412 0 0 0-.254.497zm-2.966-8.887c.075.201.29.309.496.253a.392.392 0 0 0 .239-.495.385.385 0 0 0-.488-.241l-.006.002a.377.377 0 0 0-.241.481zm-2.963-8.875c.06.195.267.306.464.247l.018-.005a.385.385 0 0 0 .253-.498.388.388 0 1 0-.735.253v.003zm-2.979-8.885a.392.392 0 0 0 .495.239.372.372 0 0 0 .247-.463l-.005-.017a.391.391 0 0 0-.483-.255.4.4 0 0 0-.254.496zm-34.742 19.74a.345.345 0 0 0 .37-.583.345.345 0 0 0-.475.105l-.002.003c-.1.16-.053.371.107.475zm4.432-7.088a.349.349 0 0 0 .475-.108.346.346 0 1 0-.583-.368.337.337 0 0 0 .095.466l.013.01zm4.292-7.291a.294.294 0 0 0 .14.205.349.349 0 0 0 .475-.108.354.354 0 0 0-.106-.487l-.003-.002a.346.346 0 0 0-.326-.025l-.014.002a.25.25 0 0 0-.136.131.294.294 0 0 0-.03.284zm4.573-6.883a.35.35 0 0 0 .365-.597.348.348 0 0 0-.475.108.354.354 0 0 0 .106.487l.004.002zm21.258 26.842c.05.187.238.302.427.262a.334.334 0 0 0 .254-.398l-.003-.015a.343.343 0 0 0-.408-.265l-.006.001a.36.36 0 0 0-.264.415zm-1.868-8.132c.045.182.23.294.412.251a.334.334 0 0 0 .254-.398l-.003-.015a.343.343 0 0 0-.408-.265l-.006.001a.356.356 0 0 0-.249.426zm-1.884-8.157a.345.345 0 0 0 .408.266l.006-.001a.325.325 0 0 0 .251-.411.343.343 0 0 0-.408-.265l-.006.001a.347.347 0 0 0-.251.41zm-1.881-8.128a.348.348 0 0 0 .676-.164.36.36 0 0 0-.414-.264.366.366 0 0 0-.262.428zm-1.885-8.156a.348.348 0 0 0 .679-.148v-.001a.364.364 0 0 0-.427-.262.36.36 0 0 0-.252.411zm-30.534 6.992a.342.342 0 0 0 .473.083l.012-.009a.328.328 0 0 0 .088-.454l-.012-.017a.345.345 0 0 0-.477-.094l-.011.007a.352.352 0 0 0-.073.484zm20.122 21.769a.352.352 0 0 0 .292.393.343.343 0 0 0 .395-.278.363.363 0 0 0-.28-.408.358.358 0 0 0-.407.293zm1.389-8.246a.332.332 0 0 0 .258.392l.02.003a.343.343 0 0 0 .395-.278.362.362 0 0 0-.28-.408.35.35 0 0 0-.393.291zm1.377-8.245a.341.341 0 1 0 .673.117.341.341 0 0 0-.673-.117zm1.377-8.243a.343.343 0 0 0 .278.395.332.332 0 0 0 .296-.083l.014-.002a.391.391 0 0 0 .099-.195.352.352 0 0 0-.292-.393.342.342 0 0 0-.395.278zm27.162 18.054a.33.33 0 0 0 .455.088l.017-.012a.344.344 0 0 0 .094-.477l-.007-.011a.357.357 0 0 0-.486-.073.34.34 0 0 0-.083.473l.01.012zm-4.86-6.808a.358.358 0 0 0 .488.087.35.35 0 0 0-.4-.574.34.34 0 0 0-.098.471c.001.005.006.011.01.016zm-42.525-8.994a.207.207 0 1 0-.012-.292.212.212 0 0 0 .012.292zm19.383 7.134a.2.2 0 0 0 .209.194.202.202 0 1 0-.014-.403.2.2 0 0 0-.195.209zm-.179-4.925a.211.211 0 0 0 .222.192.202.202 0 0 0 .195-.209.194.194 0 0 0-.194-.195l-.016.001a.208.208 0 0 0-.209.206.006.006 0 0 1 .002.005zm-.165-4.926a.2.2 0 0 0 .208.195.202.202 0 0 0 .196-.208v-.002a.194.194 0 0 0-.193-.195l-.016.001a.203.203 0 0 0-.195.209c0-.001 0 0 0 0zm-9.232 5.765a.22.22 0 0 0 .263-.12.198.198 0 0 0-.11-.259l-.011-.004a.195.195 0 0 0-.256.102c-.002.006-.005.011-.006.018a.207.207 0 0 0 .12.263zm1.74-4.616a.22.22 0 0 0 .263-.12.211.211 0 0 0-.12-.263.196.196 0 0 0-.26.095l-.005.012a.207.207 0 0 0 .11.272l.012.004zm17.019 4.007a.202.202 0 1 0 .369-.163.188.188 0 0 0-.241-.114c-.008.003-.017.006-.024.011a.198.198 0 0 0-.104.266zm-2.047-4.486c.05.105.175.148.28.101a.197.197 0 0 0 .091-.262l-.001-.001a.189.189 0 0 0-.241-.114c-.008.003-.017.006-.024.011a.198.198 0 0 0-.106.259c-.001.002 0 .004.001.006zm-30.039 6.938a.22.22 0 0 0 .307-.065l.004-.006a.226.226 0 0 0-.057-.315l-.015-.009a.22.22 0 0 0-.307.065l-.004.006a.237.237 0 0 0 .072.324zm3.023-4.739a.236.236 0 0 0 .253-.398.22.22 0 0 0-.307.065l-.004.006a.226.226 0 0 0 .044.317l.014.01zm20.209 8.754a.217.217 0 0 0 .276.172.23.23 0 0 0 .171-.276.253.253 0 0 0-.277-.185.235.235 0 0 0-.17.289zm-1.222-5.494a.235.235 0 0 0 .287.17h.002a.23.23 0 0 0 .171-.276.253.253 0 0 0-.277-.185.256.256 0 0 0-.183.291zm-1.197-5.51a.218.218 0 0 0 .276.185.23.23 0 0 0 .171-.276.253.253 0 0 0-.277-.185.232.232 0 0 0-.17.276zm-9.114 8.433c.027.02.057.034.09.043a.228.228 0 0 0 .266-.183l.001-.008a.239.239 0 0 0-.176-.27l-.014.002a.228.228 0 0 0-.266.183l-.001.008a.21.21 0 0 0 .1.225zm.893-5.771a.227.227 0 0 0 .176.27.247.247 0 0 0 .283-.179.255.255 0 0 0-.193-.281.23.23 0 0 0-.266.19zm20.124 1.27a.23.23 0 0 0 .323.056l.006-.004a.227.227 0 0 0 .054-.314.223.223 0 0 0-.304-.077l-.014.008a.24.24 0 0 0-.065.331zm-3.214-4.618a.216.216 0 0 0 .299.066l.017-.011a.222.222 0 0 0 .077-.303l-.008-.014a.24.24 0 0 0-.331-.066.234.234 0 0 0-.054.328zm-25.192 22.837a.399.399 0 1 0 .79.127.399.399 0 0 0-.79-.127zm1.492-9.532a.408.408 0 0 0 .344.456.398.398 0 1 0-.344-.456zm1.505-9.534a.398.398 0 0 0 .329.457.398.398 0 1 0 .129-.786.397.397 0 0 0-.458.329zm35.079 19.363a.424.424 0 0 0 .573.089.403.403 0 0 0-.48-.647.405.405 0 0 0-.093.558zm-5.682-7.799a.408.408 0 0 0 .558.091.4.4 0 1 0-.466-.65l-.001.001a.405.405 0 0 0-.091.558zm-5.683-7.798a.406.406 0 0 0 .558.091.423.423 0 0 0 .089-.572.403.403 0 0 0-.647.481zm-5.681-7.798a.406.406 0 0 0 .558.091.426.426 0 0 0 .089-.572.391.391 0 0 0-.547-.083l-.008.006a.383.383 0 0 0-.112.528c.005.01.013.019.02.03zm-29.755 5.443a.404.404 0 1 0-.133-.555.41.41 0 0 0 .133.555zm26.204 22.256c.062.21.274.338.489.296a.402.402 0 0 0 .282-.487.393.393 0 0 0-.468-.3l-.007.002a.404.404 0 0 0-.296.489c0-.002 0-.002 0 0zm-2.265-9.39c.052.217.27.349.488.296h.001a.39.39 0 0 0 .284-.473.396.396 0 1 0-.773.177zm-2.264-9.376a.392.392 0 0 0 .467.3l.007-.002a.404.404 0 1 0-.479-.311c.003.002.004.008.005.013zm-1.322 21.869a.396.396 0 1 0 .312-.476.402.402 0 0 0-.312.476zm-1.866-9.432a.402.402 0 0 0 .477.311.41.41 0 0 0 .315-.463.424.424 0 0 0-.479-.325.415.415 0 0 0-.313.477zm-1.865-9.432a.402.402 0 0 0 .477.311.396.396 0 1 0-.149-.777.414.414 0 0 0-.328.466zm-1.851-9.433a.382.382 0 0 0 .463.313.401.401 0 0 0 .315-.463.396.396 0 1 0-.778.15zm23.467-4.588a.412.412 0 0 0 .557-.119.394.394 0 0 0-.117-.543.381.381 0 0 0-.533.086l-.012.018a.396.396 0 0 0 .105.558zm-36.005 18.096a.392.392 0 0 0 .314.46.401.401 0 0 0 .475-.303.408.408 0 0 0-.318-.474.41.41 0 0 0-.471.317zm1.897-9.436a.398.398 0 0 0 .305.471.398.398 0 0 0 .471-.305l.001-.007a.415.415 0 0 0-.318-.474.394.394 0 0 0-.46.311l.001.004zm32.44 12.333a.406.406 0 0 0 .56.105.393.393 0 0 0 .106-.546.39.39 0 0 0-.534-.13l-.015.009a.399.399 0 0 0-.117.562zm-5.332-8.001a.406.406 0 0 0 .56.105.393.393 0 0 0 .106-.546.39.39 0 0 0-.534-.13l-.015.009a.4.4 0 0 0-.117.562zm-5.333-8.001a.406.406 0 0 0 .56.105.393.393 0 0 0 .106-.546.4.4 0 0 0-.67.436l.004.005zM43.8 189.629a.3.3 0 0 0 .556-.23.287.287 0 0 0-.399-.155.299.299 0 0 0-.157.385zm-2.852-6.652a.303.303 0 0 0 .555-.241l-.001-.003a.299.299 0 0 0-.39-.159l-.009.004a.308.308 0 0 0-.155.399zm-2.854-6.667a.304.304 0 0 0 .399.155.304.304 0 0 0 .155-.399.304.304 0 0 0-.399-.155.31.31 0 0 0-.155.399zm-9.67 12.594a.304.304 0 0 0 .306.294.313.313 0 0 0 .292-.306.3.3 0 0 0-.303-.294h-.003a.29.29 0 0 0-.294.284l.002.022zm-.096-7.258a.32.32 0 0 0 .308.307.3.3 0 0 0 .294-.303v-.003a.288.288 0 0 0-.281-.295h-.011a.298.298 0 0 0-.308.289c-.002.002-.002.004-.002.005zm25.779-3.244a.292.292 0 0 0 .412.005l.007-.007a.294.294 0 0 0 .012-.417l-.017-.017a.3.3 0 0 0-.424.024.305.305 0 0 0 .01.412zm-22.87.913a.27.27 0 0 0 .374.074.248.248 0 0 0 .076-.36.255.255 0 0 0-.344-.101l-.019.011a.264.264 0 0 0-.098.36c.005.005.008.01.011.016z"/><path opacity=".66" fill="#FFF" d="M72.953 176.412a.202.202 0 1 0-.105-.265.2.2 0 0 0 .105.265zm1.901-4.556a.221.221 0 0 0 .279-.109.206.206 0 0 0-.12-.263.191.191 0 0 0-.256.086l-.009.021a.202.202 0 0 0 .106.265zm18.795 4.503a.206.206 0 0 0 .267.117.19.19 0 0 0 .114-.242c-.003-.008-.006-.017-.011-.024a.2.2 0 0 0-.254-.119.207.207 0 0 0-.116.268zm-10.482-.647a.223.223 0 0 0 .211.209.21.21 0 1 0-.002-.42.223.223 0 0 0-.209.211zm.015-4.938a.2.2 0 0 0 .209.194.196.196 0 0 0 .21-.18l.001-.017a.215.215 0 0 0-.211-.209.228.228 0 0 0-.209.212zm-37.154 6.859a.384.384 0 0 0 .551.036.38.38 0 0 0 .04-.534l-.002-.002a.384.384 0 0 0-.551-.036.379.379 0 0 0-.038.536zm28.119 23.459a.392.392 0 0 0 .364.411.374.374 0 0 0 .412-.329l.002-.021a.392.392 0 0 0-.364-.411.381.381 0 0 0-.414.35zm.652-9.332a.388.388 0 0 0 .776.046.382.382 0 0 0-.351-.412.413.413 0 0 0-.425.366zm.664-9.348a.382.382 0 0 0 .351.411l.014.001a.374.374 0 0 0 .412-.329l.002-.021a.413.413 0 0 0-.367-.424.389.389 0 0 0-.412.362zm.652-9.332a.39.39 0 1 0 .425-.366h-.001a.388.388 0 0 0-.423.351l-.001.015zm-19.77 18.855a.385.385 0 1 0-.183-.52.392.392 0 0 0 .183.52zm4.182-8.38a.385.385 0 0 0 .322-.698.385.385 0 0 0-.505.179.394.394 0 0 0 .183.519zm4.187-8.366a.395.395 0 1 0-.181-.541.395.395 0 0 0 .181.541zm27.171 19.339a.392.392 0 0 0 .495.239.377.377 0 0 0 .242-.477l-.001-.004a.371.371 0 0 0-.482-.255.413.413 0 0 0-.254.497zm-2.965-8.888c.075.201.29.309.496.253a.392.392 0 0 0 .239-.495.385.385 0 0 0-.488-.241l-.006.002a.377.377 0 0 0-.241.481zm-2.964-8.874c.06.195.267.306.464.247l.018-.005a.385.385 0 0 0 .253-.498.388.388 0 1 0-.735.253v.003zm-37.721 10.853a.345.345 0 0 0 .37-.583.345.345 0 0 0-.475.105l-.002.003a.347.347 0 0 0 .107.475zm4.432-7.087a.349.349 0 0 0 .475-.108.346.346 0 1 0-.583-.368.337.337 0 0 0 .095.466c.005.006.009.007.013.01zm4.292-7.292a.294.294 0 0 0 .14.205.349.349 0 0 0 .475-.108.354.354 0 0 0-.106-.487l-.003-.002a.346.346 0 0 0-.326-.025l-.014.002a.25.25 0 0 0-.136.131.295.295 0 0 0-.03.284zm25.83 19.959c.05.187.238.302.427.262a.334.334 0 0 0 .254-.398l-.003-.015a.343.343 0 0 0-.408-.265l-.006.001a.363.363 0 0 0-.264.415zm-1.866-8.131c.045.182.23.294.412.251a.334.334 0 0 0 .254-.398l-.003-.015a.343.343 0 0 0-.408-.265l-.006.001a.353.353 0 0 0-.249.426zm-1.885-8.156a.345.345 0 0 0 .408.266l.006-.001a.325.325 0 0 0 .251-.411.343.343 0 0 0-.408-.265l-.006.001a.345.345 0 0 0-.251.41zm-14.177 12.476a.352.352 0 0 0 .292.393.343.343 0 0 0 .395-.278.362.362 0 0 0-.28-.408.356.356 0 0 0-.407.293zm1.389-8.246a.332.332 0 0 0 .258.392l.02.003a.343.343 0 0 0 .395-.278.362.362 0 0 0-.28-.408.348.348 0 0 0-.393.291zm1.377-8.244a.341.341 0 1 0 .673.117.341.341 0 0 0-.673-.117zm28.538 9.811a.33.33 0 0 0 .455.088l.017-.012a.344.344 0 0 0 .094-.477l-.007-.011a.357.357 0 0 0-.486-.073.34.34 0 0 0-.083.473c.004.003.006.007.01.012zm-4.859-6.809a.358.358 0 0 0 .488.087.35.35 0 0 0-.4-.574.34.34 0 0 0-.088.487zm-23.143-1.86a.2.2 0 0 0 .209.194.202.202 0 1 0-.014-.403.202.202 0 0 0-.195.209zm-.179-4.925a.211.211 0 0 0 .222.192.202.202 0 0 0 .195-.209.194.194 0 0 0-.194-.195l-.016.001a.208.208 0 0 0-.209.206c.002.001.002.003.002.005zm.508 6.696a.216.216 0 0 0 .276.172.23.23 0 0 0 .171-.276.253.253 0 0 0-.277-.185.235.235 0 0 0-.17.287v.002zm-1.223-5.493a.235.235 0 0 0 .287.17h.002a.23.23 0 0 0 .171-.276.253.253 0 0 0-.277-.185.258.258 0 0 0-.183.291zm-10.31 2.922c.027.02.057.034.09.043a.228.228 0 0 0 .266-.183l.001-.008a.239.239 0 0 0-.176-.27l-.014.002a.228.228 0 0 0-.266.183l-.001.008a.21.21 0 0 0 .1.225zm-7.389 13.719a.399.399 0 1 0 .79.127.399.399 0 0 0-.79-.127zm1.492-9.532a.408.408 0 0 0 .344.456.398.398 0 1 0-.344-.456zm36.584 9.828a.424.424 0 0 0 .573.089.404.404 0 0 0-.48-.647.406.406 0 0 0-.093.558zm-5.682-7.797a.408.408 0 0 0 .558.091.4.4 0 1 0-.466-.65l-.001.001a.405.405 0 0 0-.091.558zm-5.682-7.8a.406.406 0 0 0 .558.091.424.424 0 0 0 .089-.572.403.403 0 0 0-.647.481zm-9.233 19.902c.063.21.274.338.489.296a.402.402 0 0 0 .282-.487.393.393 0 0 0-.468-.3l-.007.002a.405.405 0 0 0-.296.489c0-.001 0 0 0 0zm-2.265-9.391c.052.217.27.349.488.296h.001a.39.39 0 0 0 .284-.473.397.397 0 0 0-.773.177zm-2.264-9.376a.392.392 0 0 0 .467.3l.007-.002a.404.404 0 1 0-.479-.311c.003.004.004.009.005.013zm-1.322 21.87a.396.396 0 1 0 .312-.476.401.401 0 0 0-.312.476zm-1.865-9.433a.402.402 0 0 0 .477.311.41.41 0 0 0 .315-.463.424.424 0 0 0-.479-.325.412.412 0 0 0-.313.477zm-1.865-9.431a.402.402 0 0 0 .477.311.396.396 0 1 0-.149-.777.412.412 0 0 0-.328.466zm-14.39 4.075a.392.392 0 0 0 .314.46.401.401 0 0 0 .475-.303.408.408 0 0 0-.318-.474.408.408 0 0 0-.471.317zm34.337 2.897a.406.406 0 0 0 .56.105.393.393 0 0 0 .106-.546.39.39 0 0 0-.534-.13l-.015.009a.399.399 0 0 0-.117.562zm-5.333-8a.406.406 0 0 0 .56.105.393.393 0 0 0 .106-.546.39.39 0 0 0-.534-.13l-.015.009a.4.4 0 0 0-.117.562zm-10.678 3.294a.3.3 0 0 0 .556-.23.287.287 0 0 0-.399-.155.299.299 0 0 0-.157.385zm-15.375-.726a.304.304 0 0 0 .306.294.313.313 0 0 0 .292-.306.3.3 0 0 0-.303-.294h-.003a.29.29 0 0 0-.294.284l.002.022z"/><linearGradient id="t" gradientUnits="userSpaceOnUse" x1="4215.32" y1="2812.655" x2="4440.001" y2="3690.321" gradientTransform="matrix(0.0741 0 0 0.0741 -230.5491 -141.1613)"><stop offset=".129" style="stop-color:#428dfc"/><stop offset=".999" style="stop-color:#1d72d8"/></linearGradient><path fill="url(#t)" d="M141.889 131.385s-3.455 7.149-15.537 7.643c-12.081.495-14.799 2.463-23.679 8.138-8.88 5.675-25.649 7.886-42.428-18.245-15.4-24.004-20.613-50.494-17.907-64.59A86.245 86.245 0 0 0 54.957 67.9c1.39.284 2.685.506 3.908.674 2.223.326 6.645.55 8.226.644 2.855 9.433 6.183 45.07 27.58 40.817a148.903 148.903 0 0 0 38.59-13.163l8.628 34.513z"/><linearGradient id="u" gradientUnits="userSpaceOnUse" x1="3290.888" y1="3171.416" x2="3663.682" y2="4397.85" gradientTransform="matrix(0.0741 0 0 0.0741 -230.5491 -141.1613)"><stop offset=".129" style="stop-color:#428dfc"/><stop offset=".999" style="stop-color:#1d72d8"/></linearGradient><path fill="url(#u)" d="M69.242 167.813c-10.375 4.59-24.995 8.328-45.472 9.16-4.803.201-9.94.225-15.41.074-16.737-19.529-3.971-40.565.811-54.051 4.771-13.497.19-13.971 9.238-36.985a58.435 58.435 0 0 1 3.444-6.875c1.506 21.73 10.038 46.114 21.889 66.833 7.361 12.874 15.787 19.634 25.5 21.844z"/><path fill="#428DFC" d="M146.682 140.713s-3.908 11.381-23.352 14.455c-19.444 3.085-23.12 8.781-32.685 11.424-7.753 2.148-14.873 2.716-21.404 1.221-9.711-2.211-18.139-8.97-25.501-21.846-11.849-20.719-20.382-45.103-21.889-66.833 2.4-4.252 5.093-8.332 8.058-12.213 3.17-3.895 5.782-6.812 7.91-9.013 2.844-1.379 24.74-5.157 28.196-4.61 0 0-1.433 32.207 14.114 52.779 1.685 2.222-1.283-1.898 0 0 6.082 8.999 11.629 10.216 16.79 10.216 6.004 0 26.768-5.564 37.955-15.608l11.808 40.028z"/><path fill="#FFBEB6" d="M57.357 45.807c4.542 3.898 14.841 10.428 21.043 7.917 7.422-3.011 9.494-9.131 10.865-8.908 1.367.232 4.413.016 4.794-1.418.385-1.421-2.327-6.43-1.613-11.787.066-.498.121-.98.148-1.456l-.003-.014c.02-.113.031-.228.034-.343a.817.817 0 0 0 .001-.164.218.218 0 0 1 .002-.057c-.001-.071.004-.15.008-.23a24.74 24.74 0 0 0-.078-2.426c-.034-.47-.088-.985-.166-1.531a19.985 19.985 0 0 0-.372-1.936l-.033-.143c-.04-.166-.072-.326-.117-.495a14.255 14.255 0 0 0-.266-.891 8.113 8.113 0 0 0-.245-.688 7.32 7.32 0 0 0-.127-.329 10.258 10.258 0 0 0-.258-.615.794.794 0 0 0-.056-.131c-.005.008-.002.022-.014.038-.112.425-.26.84-.444 1.24-.05.131-.12.275-.19.418a9.992 9.992 0 0 1-.927 1.512c-.053.083-.116.16-.183.245-.062.077-.13.162-.197.249a8.14 8.14 0 0 1-.441.513c-.015.024-.034.036-.051.06a9.916 9.916 0 0 1-.709.726c-.087.097-.184.173-.279.265-.004.006-.011.009-.019.011-.184.173-.39.346-.605.512l-.011.017c-.103.087-.214.166-.326.247a15.09 15.09 0 0 1-1.526 1.041c-.182.117-.38.222-.585.337a4.105 4.105 0 0 1-.288.153c-.095.055-.196.12-.299.169a1.981 1.981 0 0 1-.168.079c-.151.09-.316.159-.485.237a11.55 11.55 0 0 1-.514.23 6.401 6.401 0 0 1-.522.225c-.466.19-.957.366-1.469.538-.286.096-.581.186-.88.285a32.953 32.953 0 0 1-3.47.811l-.761.139a28.701 28.701 0 0 0-6.776 2.056c-.319.181-.641.371-.979.562a20.196 20.196 0 0 0-2.606 1.796 27.162 27.162 0 0 0-7.837 10.934z"/><path fill="#1C2868" d="M94.993 32.951a3.405 3.405 0 0 1-5.987-.595c-.2-.479.51-.88.712-.395a2.596 2.596 0 0 0 4.575.576c.301-.426 1.004-.014.7.414z"/><path fill="#E94A47" d="M71.474.899a22.331 22.331 0 0 0-7.869-.842H63.5c-9.689.317-17.057 5.762-21.668 13.54a42.785 42.785 0 0 0-5.733 13.015c-2.39 8.373-4.796 24.315-16.312 23.898-.509-.018-.508.772 0 .79 7.357.266 11.119-6.119 13.474-12.266 1.552-4.052 2.557-8.292 3.757-12.427a44.814 44.814 0 0 0-.663 5.225C35.06 50.55 21.482 53.688 21.482 53.688a99.854 99.854 0 0 0 20.582 10.549 86.086 86.086 0 0 0 12.893 3.664c1.39.284 2.685.506 3.908.674 3.548.591 7.151.8 10.744.622 5.802-7.675 3.656-15.48 1.216-21.98 3.651 7.011 5.557 13.491 1.728 21.32-.222.454.458.856.682.399a20.865 20.865 0 0 0 1.834-14.351c-1.611-6.604-7.628-11.925-7.134-18.755.479-1.819 2.075-3.135 5.562-3.797.158-.031.316-.052.485-.085C91.278 29.095 90.92 20.167 90.92 20.145a22.446 22.446 0 0 1 1.674 10.012C99.156 13.291 84.325 4.616 71.474.899z"/></g></svg></g></svg>