<svg enable-background="new 0 0 800 497" height="497" viewBox="0 0 800 497" width="800" xmlns="http://www.w3.org/2000/svg" xmlns:xlink="http://www.w3.org/1999/xlink"><linearGradient id="a"><stop offset="0" stop-color="#ffbeb6"/><stop offset="1" stop-color="#f2a19c"/></linearGradient><linearGradient id="b" gradientUnits="userSpaceOnUse" x1="215.01205755" x2="297.8498781" xlink:href="#a" y1="246.74558465" y2="246.74558465"/><linearGradient id="c" gradientTransform="matrix(.1413 .0347 -.0347 .1413 58.5339 -18.0484)" gradientUnits="userSpaceOnUse" x1="803.7213" x2="1631.6569" y1="745.0142" y2="745.0142"><stop offset="0" stop-color="#eee"/><stop offset="1" stop-color="#d6d7d8"/></linearGradient><linearGradient id="d"><stop offset="0" stop-color="#23286b"/><stop offset="1" stop-color="#151a4f"/></linearGradient><linearGradient id="e" gradientUnits="userSpaceOnUse" x1="93.2173104" x2="409.38425625" xlink:href="#d" y1="458.7724478" y2="458.7724478"/><linearGradient id="f" gradientUnits="userSpaceOnUse" x1="441.5484135" x2="757.71533025" xlink:href="#d" y1="354.68694215" y2="354.68694215"/><linearGradient id="g"><stop offset="0" stop-color="#a1c3fc"/><stop offset="1" stop-color="#78a9ef"/></linearGradient><linearGradient id="h" gradientTransform="matrix(-.138 .0308 -.0308 -.138 -153.33 370.812)" gradientUnits="userSpaceOnUse" x1="-4883.3154" x2="-6024.4849" xlink:href="#g" y1="-331.7909" y2="-331.7909"/><linearGradient id="i" gradientUnits="userSpaceOnUse" x1="623.18623395" x2="794.85307035" xlink:href="#g" y1="224.0521388" y2="224.0521388"/><linearGradient id="j"><stop offset=".1291" stop-color="#428dfc"/><stop offset=".9987" stop-color="#1d72d8"/></linearGradient><linearGradient id="k" gradientUnits="userSpaceOnUse" x1="506.7967536" x2="626.2701501" xlink:href="#j" y1="367.09436735" y2="330.42301295"/><linearGradient id="l" gradientUnits="userSpaceOnUse" x1="592.6227804" x2="704.36641665" xlink:href="#j" y1="323.04293285" y2="323.04293285"/><linearGradient id="m" gradientUnits="userSpaceOnUse" x1="250.48137825" x2="360.82025565" y1="449.3056067" y2="477.51099995"><stop offset="0" stop-color="#428dfc"/><stop offset="1" stop-color="#89b3f4"/></linearGradient><linearGradient id="n" gradientUnits="userSpaceOnUse" x1="200.16762375" x2="333.8856594" xlink:href="#a" y1="348.12541595" y2="348.12541595"/><linearGradient id="o" gradientUnits="userSpaceOnUse" x1="230.158302" x2="344.5940811" y1="464.6532668" y2="464.6532668"><stop offset="0" stop-color="#428dfc"/><stop offset="1" stop-color="#1d72d8"/></linearGradient><path d="m252.186 275.319c-6.9-.626-14.026 2.593-18.111 8.184-4.087 5.59-4.989 13.352-2.291 19.729 2.446.128.215-1.797 1.149-4.059.935-2.263 1.604-8.499 3.078-10.454 1.652-2.197 39.899-10.229 54.88-13.139 6.566-1.277 25.163-3.858 25.441-10.537.308-7.38-15.075-2.168-18.978-1.657-3.904.51-43.147 12.117-45.168 11.933z" fill="#ffbeb6"/><path d="m220.896 258.102c3.49-4.384 7.418-9.004 12.871-10.313-4.177 7.186-6.582 10.046-5.138 18.228 11.083-3.21 14.961-5.463 26.044-8.674 7.804-10.136 11.785-15.707 16.277-28.189-8.093-9.46-10.921-23.323-19.014-32.783-1.27-1.485-2.593-3.079-2.879-5.01-.289-1.932.952-4.225 2.905-4.303.845-.034 1.649.338 2.401.724 17.668 9.062 44.734 37.289 43.442 40.283-7.759 14.612-14.741 29.636-20.907 44.989-.43 1.07-.869 2.165-1.635 3.029-1.221 1.379-3.078 1.971-4.841 2.505-9.33 2.822-18.66 5.645-27.992 8.467-5.048 1.527-10.453 3.3-13.564 7.552-2.508 3.43-3.058 7.867-4.59 11.83-2.544-8.954-5.09-17.91-7.634-26.862-1.062-3.735-2.132-7.642-1.377-11.451.753-3.797 3.22-6.993 5.631-10.022z" fill="url(#b)"/><path d="m448.796 131.572-164.591-61.093-84.474 173.945 138.923 67.352z" fill="#d62929"/><path d="m177.409 0 106.796 70.479-84.474 173.945-100.852-48.894z" fill="#d62929"/><path d="m305.426 78.351-29.057-12.999-90.199 172.544 27.654 13.073z" fill="#d62929"/><path d="m417.993 150.797-139.76-68.02-68.264 140.561 117.821 57.122z" fill="#d6d7d8"/><path d="m201.898 24.023 76.333 58.754-68.262 140.561-89.264-54.043z" fill="#d6d7d8"/><path d="m199.791 35.682 78.44 47.095-68.262 140.561-79.18-45.278z" fill="url(#c)"/><path d="m294.244 97.537-10.188-3.195c8.631-27.459 30.027-48.519 54.504-53.651 4.308-.904 7.878-.286 10.613 1.834 4.673 3.627 4.948 10.032 5.191 15.686.122 2.842.262 6.065.979 7.527.572 1.164 1.219 2.483 1.859 3.019 1.502 1.265 5.634-.267 9.823-3.62 15.468-12.383 29.082-26.883 40.465-43.1l8.742 6.126c-11.964 17.043-26.273 32.283-42.53 45.3-8.933 7.149-17.445 8.416-23.356 3.474-2.373-1.987-3.655-4.594-4.59-6.497-1.702-3.467-1.885-7.688-2.061-11.768-.099-2.329-.285-6.618-1.056-7.683-.229-.045-.837-.076-1.885.145-20.442 4.284-39.133 22.933-46.51 46.403z" fill="#23286b"/><path d="m292.599 89.914-1.001-.371c.433-1.164.907-2.34 1.408-3.493l.979.425c-.494 1.136-.962 2.292-1.386 3.439z" fill="#e94a47"/><path d="m297.616 79.318-.923-.537c1.356-2.33 2.866-4.618 4.491-6.802l.856.638c-1.601 2.15-3.09 4.406-4.424 6.701zm9.564-12.873-.783-.727c1.842-1.981 3.815-3.885 5.863-5.66l.7.807c-2.018 1.747-3.964 3.626-5.78 5.58zm12.129-10.508-.607-.877c2.235-1.548 4.572-2.984 6.944-4.271l.509.938c-2.338 1.267-4.641 2.684-6.846 4.21zm14.113-7.633-.401-.989c2.529-1.023 5.129-1.901 7.727-2.612l.283 1.03c-2.557.7-5.117 1.565-7.609 2.571z" fill="#e94a47"/><path d="m351.067 46.822c-.298-.978-1.082-1.634-2.332-1.958l.265-1.033c1.612.414 2.679 1.342 3.088 2.68z" fill="#e94a47"/><path d="m394.756 130.203-116.523-47.426-68.264 140.561 115.512 49.112z" fill="#eee"/><path d="m358.781 74.404-.061-1.065c1.187-.07 2.392-.261 3.581-.572l.27 1.033c-1.26.327-2.536.531-3.79.604z" fill="#e94a47"/><path d="m369.595 70.72-.553-.912c1.871-1.135 3.788-2.527 6.031-4.384l.682.821c-2.286 1.889-4.243 3.312-6.16 4.475zm11.855-9.447-.713-.794c2.022-1.812 3.837-3.477 5.548-5.088l.732.776c-1.718 1.617-3.54 3.289-5.567 5.106zm10.985-10.377-.758-.751c1.829-1.846 3.569-3.682 5.172-5.453l.793.714c-1.615 1.784-3.366 3.631-5.207 5.49zm10.123-11.242-.831-.668c1.607-1.996 3.122-4.014 4.505-5.998l.875.61c-1.398 2.004-2.928 4.042-4.549 6.056z" fill="#e94a47"/><path d="m411.195 27.209-.923-.538c.628-1.075 1.234-2.168 1.8-3.246l.945.496c-.571 1.093-1.185 2.199-1.822 3.288z" fill="#e94a47"/><path d="m620.527 408.262c-41.855 0-82.568-3.144-114.635-8.849-.441-.08-.738-.501-.658-.944.08-.441.496-.732.944-.657 31.977 5.69 72.586 8.824 114.348 8.824 47.666 0 92.473-3.952 126.162-11.124 32.846-6.995 51.684-16.509 51.684-26.106 0-.449.365-.813.814-.813s.814.365.814.813c-.003 21.789-78.834 38.856-179.473 38.856z" fill="#428dfc"/><ellipse cx="251.301" cy="458.772" fill="url(#e)" rx="158.083" ry="37.85"/><ellipse cx="599.632" cy="354.687" fill="url(#f)" rx="158.083" ry="37.85"/><path d="m171.104 450.279c.197.068.413-.039.48-.236.069-.197-.039-.413-.236-.48-.197-.068-.413.039-.481.236-.065.198.04.411.237.48zm2.92-8.788c.207.061.425-.044.506-.242.057-.203-.058-.414-.261-.474-.182-.075-.392.012-.468.195-.006.013-.01.026-.015.042-.066.196.041.411.238.479zm35.805 5.795c.093.194.325.273.518.181.179-.08.258-.289.179-.467-.005-.015-.015-.031-.025-.044-.086-.187-.305-.27-.493-.187-.192.093-.272.324-.179.517zm-53.145-10.967c.155.133.388.121.525-.032.134-.155.121-.387-.032-.525s-.388-.121-.525.032c-.137.138-.135.363.005.499.008.012.016.02.027.026zm33.437 11.223c.031.21.213.365.425.361.216-.016.378-.207.362-.425-.016-.216-.207-.379-.425-.361-.211.031-.365.213-.362.425zm-.662-9.24c.022.208.21.358.419.337.201 0 .366-.162.368-.366-.002-.012 0-.022-.002-.032-.023-.213-.209-.371-.425-.361-.209.028-.363.21-.36.422zm-68.572 18.029c.278.282.734.286 1.018.006.006-.005.012-.013.018-.018.277-.276.277-.728 0-1.005-.002-.002-.003-.002-.005-.003-.278-.282-.734-.286-1.018-.006-.006.005-.012.013-.018.018-.277.276-.277.728 0 1.005.002.003.002.003.005.003zm12.365-12.469c.286.285.748.286 1.037 0s.286-.748 0-1.036c-.005-.003-.005-.006-.01-.01-.277-.276-.729-.276-1.006 0-.002.002-.002.003-.003.005-.283.29-.29.748-.018 1.041zm43.544 52.419c.01.4.338.721.739.719.388.012.71-.289.725-.675 0-.015.002-.026 0-.039-.01-.4-.338-.721-.741-.719-.397-.001-.72.317-.723.714zm-.153-35.129c0 .397.318.715.715.718.009 0 .016 0 .025-.002.388.012.71-.289.725-.675 0-.015.002-.026 0-.039-.016-.403-.34-.727-.745-.744-.402.014-.723.342-.72.742zm-.086-17.55c.005.401.337.724.739.719.404-.005.725-.337.719-.738.003-.397-.316-.721-.713-.724-.402-.006-.735.312-.744.715-.002.011-.001.02-.001.028zm-34.36 38.042c.373.14.788-.051.928-.425.14-.372-.051-.788-.425-.927-.366-.137-.773.044-.92.407-.139.376.047.795.417.945zm6.657-16.261c.373.14.788-.051.928-.425.14-.372-.051-.788-.425-.927-.366-.137-.773.044-.92.407-.142.373.043.793.417.945zm6.66-16.239c.382.143.808-.052.951-.435.138-.368-.036-.779-.395-.937-.375-.165-.809.009-.973.381-.165.372.009.808.381.973.012.009.023.014.036.018zm53.557 32.378c.163.366.589.537.96.378.363-.148.535-.563.388-.925-.002-.002-.002-.005-.003-.006-.127-.363-.524-.554-.887-.429-.016.006-.034.013-.054.019-.363.166-.537.586-.404.963zm-13.582-32.4c.14.358.542.537.9.397.01-.003.022-.009.031-.015.373-.14.558-.557.419-.931-.005-.013-.009-.023-.013-.034-.159-.371-.588-.541-.957-.384-.371.159-.542.589-.384.956.003.007.004.01.004.011zm-69.071 25.583c.315.165.705.044.874-.267.166-.314.047-.705-.267-.874-.315-.169-.705-.047-.874.267-.163.314-.045.703.267.874zm7.301-13.878c.316.165.705.044.874-.267.178-.309.07-.705-.239-.881-.309-.178-.705-.07-.882.239-.009.012-.013.025-.019.035-.171.304-.06.69.242.861.008.005.017.007.024.013zm7.011-14.242c.036.158.143.292.293.363.315.165.705.044.874-.267.172-.322.055-.721-.267-.896-.003-.002-.003-.002-.006-.003-.191-.101-.42-.102-.614-.002l-.026.006c-.111.052-.195.146-.235.264-.098.164-.105.367-.019.535zm51.135 33.724c.122.343.489.531.839.431.332-.101.518-.449.419-.781-.003-.01-.006-.016-.01-.028-.099-.343-.458-.54-.799-.439-.005.002-.006.003-.013.005-.334.114-.526.469-.436.812zm-9.303-29.945c.099.343.458.54.801.442.005-.002.009-.003.013-.005.325-.086.518-.423.43-.748-.005-.019-.012-.041-.019-.058-.099-.343-.458-.54-.801-.442-.005.002-.009.003-.013.005-.33.117-.511.472-.411.806zm-4.659-14.944c.118.341.49.524.831.405.332-.114.515-.47.411-.807-.115-.334-.468-.525-.812-.438-.342.123-.53.49-.43.84zm-20.125 40.265c-.022.356.245.665.602.694.353.032.665-.225.699-.576.026-.356-.228-.675-.581-.725-.363-.026-.685.243-.72.607zm1.445-15.619c-.044.34.197.654.537.696.012.002.026.002.038.005.353.032.665-.225.699-.576.026-.356-.228-.675-.581-.725-.354-.023-.663.246-.693.6zm1.424-15.613c-.031.353.231.662.583.693.349.029.658-.223.693-.571.036-.352-.216-.668-.572-.706s-.669.216-.706.569c.002.005.002.008.002.015zm44.731 2.301c.232.274.642.317.925.093.271-.239.299-.654.058-.927-.229-.258-.618-.298-.892-.089-.278.215-.332.616-.118.894.012.01.02.022.027.029zm-43.572-.241c.022.208.21.358.419.337s.359-.21.337-.417-.21-.358-.419-.337c-.207.021-.357.209-.337.417zm-1.022-9.189c.036.212.231.355.445.33.209-.022.359-.21.337-.417-.013-.2-.187-.352-.389-.338-.012.002-.018.002-.029.003-.213.015-.375.2-.363.413-.001.003-.002.006-.001.009zm-17.467 2.882c.201.044.404-.068.475-.26.064-.195-.045-.407-.242-.47-.006-.003-.013-.003-.022-.006-.191-.065-.398.035-.465.226-.003.013-.009.023-.01.034-.052.206.063.418.264.476zm35.021-3.763c.099.185.327.254.511.155.185-.099.254-.327.155-.512-.08-.179-.29-.258-.467-.179-.015.005-.031.015-.044.025-.182.093-.254.318-.161.501.001.004.004.006.006.01zm-59.704 9.08c.201.111.458.035.569-.166.002-.003.005-.006.009-.012.118-.204.051-.464-.152-.584-.01-.005-.022-.012-.031-.016-.201-.111-.458-.035-.569.166-.002.003-.005.006-.009.012-.109.218-.028.481.183.6zm44.039 4.261c.052.218.273.35.49.298.016-.003.032-.01.048-.016.226-.072.353-.312.283-.538-.08-.225-.312-.356-.547-.308-.231.076-.354.328-.274.564-.002-.004-.002-.004 0 0zm-3.057-10.106c.079.232.328.358.563.276l.002-.002c.226-.072.353-.312.283-.538-.08-.225-.312-.356-.547-.308-.231.086-.361.331-.301.572zm-18.886 6.907c.054.032.112.055.174.068.235.028.446-.145.472-.379 0-.005.002-.009.003-.015.019-.232-.14-.439-.368-.478l-.026.006c-.235-.028-.446.145-.472.379 0 .005-.002.012-.003.015-.022.169.068.329.22.404zm38.702-11.36c.152.185.425.213.611.061.003-.005.01-.006.01-.01.181-.15.207-.416.057-.597-.134-.187-.391-.232-.581-.101-.01.006-.015.012-.025.016-.189.156-.224.434-.072.631zm-52.089 56.104c-.016.413.292.767.706.807.411.034.773-.268.811-.678.022-.414-.292-.772-.706-.807-.412-.037-.775.267-.811.678zm1.48-18.048c-.036.411.268.772.678.81s.773-.268.811-.678c.036-.411-.268-.772-.678-.81-.41-.034-.772.269-.811.678zm1.457-18.041c-.022.414.292.772.705.807.411.019.76-.298.782-.706s-.298-.76-.706-.781c-.402-.022-.749.28-.781.68zm58.116-.523c.271.308.735.35 1.056.091.318-.267.359-.738.092-1.055s-.739-.358-1.056-.091c-.314.268-.355.736-.092 1.055zm-11.727-13.795c.27.311.738.353 1.056.091.312-.282.35-.754.085-1.081-.283-.309-.761-.328-1.069-.048-.295.272-.327.728-.072 1.038zm-20.043 21.271c.13.398.557.614.954.487 0 0 0 0 .002-.001.384-.125.592-.54.465-.922-.117-.394-.532-.614-.926-.498-.395.117-.615.531-.499.925.001.002.002.008.004.009zm-5.551-17.223c.115.388.525.611.915.496.005-.002.01-.003.015-.005.401-.117.633-.535.516-.938-.117-.4-.535-.633-.939-.515-.401.117-.633.535-.516.938.003.009.006.018.009.024zm-4.224 23.713c.117.4.535.632.936.515.385-.117.615-.519.522-.911-.124-.4-.534-.636-.941-.541-.394.128-.622.538-.517.937zm-4.813-17.381c.117.4.535.632.936.515.395-.108.63-.515.522-.911-.108-.395-.516-.629-.912-.522-.394.111-.638.515-.546.918zm-26.357 9.632c-.044.405.245.767.648.817.002-.002.003.002.005 0 .41.057.786-.226.846-.633.044-.413-.249-.785-.661-.842-.409-.038-.778.251-.838.658zm2.227-17.914c-.058.407.228.782.635.841.407.058.783-.228.842-.635 0-.005.002-.012.002-.019.039-.41-.251-.782-.661-.842-.405-.047-.769.245-.817.648 0 .004 0 .004-.001.007zm62.438 18.534c.264.321.738.374 1.063.117.319-.254.376-.718.122-1.036-.235-.327-.69-.401-1.015-.168-.01.006-.018.012-.026.022-.334.245-.405.714-.156 1.048.002.004.008.01.012.017zm-11.099-14.224c.264.321.738.374 1.063.117.319-.254.376-.718.122-1.036-.235-.327-.69-.401-1.015-.168-.01.006-.018.012-.026.021-.334.245-.404.718-.156 1.048.002.005.008.011.012.018zm-19.523 7.659c.146.274.487.381.763.234.268-.143.375-.47.242-.743-.127-.268-.448-.385-.718-.261-.016.009-.036.018-.051.028-.263.141-.37.472-.236.742zm-6.268-12.047c.146.278.493.381.769.235s.381-.493.235-.768c-.14-.274-.477-.384-.751-.244-.006.003-.012.006-.018.01-.274.151-.377.491-.235.767zm-22.609 12.84c.032.306.308.531.614.505.303-.045.521-.309.505-.613-.028-.308-.299-.535-.608-.506-.002.002-.002.002-.005 0-.298.019-.528.274-.509.572 0 .016.001.029.003.042zm-1.195-13.562c.034.312.306.543.62.53.308-.028.535-.299.506-.608-.002-.002-.002-.002 0-.005-.016-.299-.27-.528-.57-.512-.009 0-.013.002-.022.003-.311.015-.55.274-.537.585.003.001.003.004.003.007z" fill="#fff" opacity=".51"/><path d="m146.348 241.191c-.125.632.295 1.243.925 1.366.632.125 1.244-.295 1.368-.925.125-.632-.295-1.243-.925-1.366-.63-.124-1.246.285-1.368.925zm25.729 116.854c-.55.368-.695 1.11-.327 1.657.321.511.996.665 1.505.346.042-.023.088-.055.124-.093.535-.341.693-1.044.359-1.584-.375-.535-1.113-.693-1.661-.326zm-9.222-60.019c-.628.182-1.024.805-.922 1.45.14.651.792 1.067 1.451.921.651-.14 1.068-.792.922-1.45-.188-.626-.803-1.022-1.451-.921zm-154.664-19.783c-1.219.201-2.056 1.338-1.88 2.565.128 1.186 1.19 2.043 2.372 1.919.042-.005.08-.006.117-.018 1.219-.201 2.056-1.338 1.88-2.565-.16-1.208-1.276-2.063-2.489-1.901zm53.598-7.774c-1.229.204-2.051 1.364-1.839 2.59.2 1.202 1.326 2.027 2.533 1.85 1.215-.161 2.065-1.272 1.905-2.486-.236-1.233-1.365-2.079-2.599-1.954zm53.693-7.733c-1.211.168-2.052 1.275-1.885 2.485.005.025.01.048.013.073.128 1.186 1.19 2.043 2.372 1.919.042-.005.08-.006.117-.018 1.228-.223 2.077-1.351 1.955-2.594-.207-1.208-1.348-2.042-2.572-1.865zm-77.368-96.318c-.265 1.198.49 2.384 1.696 2.646 1.198.267 2.385-.492 2.648-1.694.258-1.176-.467-2.342-1.635-2.633-1.206-.264-2.409.483-2.709 1.681zm52.547 13.343c-.265 1.198.49 2.384 1.696 2.646 1.198.267 2.385-.492 2.648-1.694.258-1.176-.467-2.342-1.635-2.633-1.198-.267-2.406.482-2.709 1.681zm-23.541 190.637c-1.05.655-1.387 2.028-.741 3.09.608 1.046 1.948 1.39 2.997.784.006-.003.013-.006.019-.012 1.056-.541 1.47-1.834.931-2.892-.026-.048-.052-.098-.083-.156-.677-1.037-2.025-1.394-3.123-.814zm46.638-27.673c-1.041.668-1.399 2.024-.82 3.112.656 1.049 2.035 1.379 3.092.74 1.055-.629 1.402-1.999.772-3.049-.006-.013-.016-.029-.019-.035-.608-1.046-1.948-1.39-2.988-.788-.024.011-.031.016-.037.02zm46.558-27.64c-1.035.582-1.408 1.885-.825 2.916.016.029.034.063.055.088.588 1.077 1.944 1.465 3.021.878.036-.019.065-.034.098-.052 1.065-.644 1.403-2.028.763-3.083-.645-1.064-2.03-1.402-3.086-.763-.012.007-.019.013-.026.016zm-107.746-199.783c-.365 1.031.166 2.168 1.192 2.553 1.028.374 2.175-.156 2.555-1.191.382-1.033-.156-2.173-1.192-2.553-1.032-.36-2.169.167-2.555 1.191zm10.887 202.078c-.998.517-1.416 1.716-.957 2.742.449.967 1.595 1.389 2.564.944.029-.016.048-.026.079-.042 1.006-.449 1.455-1.628.999-2.626-.006-.013-.012-.021-.019-.035-.491-.967-1.652-1.4-2.666-.983zm43.708-20.535c-.98.48-1.381 1.66-.912 2.636.449.967 1.595 1.389 2.564.944.029-.016.048-.026.079-.042 1.006-.449 1.455-1.628 1.008-2.632-.006-.013-.012-.022-.019-.035-.525-.967-1.726-1.357-2.72-.871zm43.824-20.668c-1.006.449-1.455 1.628-1.008 2.632.006.013.012.022.019.035.405.956 1.515 1.398 2.472.992.06-.023.117-.054.172-.085 1.006-.449 1.455-1.628 1.008-2.632-.006-.013-.012-.022-.019-.035-.5-.95-1.663-1.354-2.644-.907zm-87.997-64.777c-1.098.089-1.928 1.036-1.862 2.137.051 1.093.968 1.935 2.061 1.887 1.1-.072 1.965-.982 1.966-2.083-.071-1.128-1.031-1.984-2.165-1.941zm48.359-2.269c-1.058.015-1.911.88-1.898 1.937.002.036.005.079 0 .117.051 1.093.968 1.935 2.061 1.887 1.1-.072 1.965-.982 1.966-2.083-.08-1.092-1.025-1.922-2.129-1.858zm27.893 170.931c-.721.76-.688 1.952.065 2.676.032.028.058.06.088.08.789.757 2.052.735 2.818-.057.016-.018.036-.035.045-.051.703-.842.623-2.09-.187-2.836-.796-.737-2.039-.678-2.775.117-.018.024-.032.05-.054.071zm32.547-35.814c-.741.824-.697 2.094.111 2.861.846.728 2.129.641 2.857-.207.699-.802.648-2.012-.111-2.76-.773-.76-2.025-.751-2.783.022-.025.021-.052.053-.074.084zm-169.627-219.008c-1.27.127-2.22 1.218-2.161 2.498.073 1.271 1.152 2.246 2.421 2.183 1.278-.112 2.239-1.22 2.161-2.498-.073-1.271-1.154-2.247-2.421-2.183zm55.785-3.201c-1.275.067-2.248 1.151-2.185 2.419.064 1.267 1.152 2.246 2.421 2.183 1.275-.067 2.248-1.151 2.185-2.419-.067-1.273-1.154-2.245-2.421-2.183zm45.099 215.476c-.831.992-.745 2.456.204 3.338.99.824 2.465.686 3.285-.308.796-.956.693-2.365-.22-3.201-.962-.821-2.4-.75-3.269.171zm37.139-41.681c-.822.961-.752 2.396.171 3.264.951.854 2.412.778 3.267-.172s.779-2.41-.171-3.264c-.955-.832-2.407-.752-3.267.172zm-86.791-69.396c-1.111.605-1.574 1.965-1.078 3.125.592 1.119 1.969 1.561 3.102.998 1.139-.521 1.645-1.866 1.12-3.01-.006-.013-.016-.029-.023-.042-.558-1.157-1.95-1.635-3.121-1.071.007-.003 0 0 0 0zm50.337-24.329c-1.161.568-1.639 1.963-1.081 3.118 0 0 0 0 .003.006.545 1.118 1.905 1.579 3.018 1.026 1.141-.55 1.626-1.919 1.079-3.054-.525-1.136-1.88-1.617-3.019-1.096zm-75.075-4.916c-1.142.531-1.638 1.898-1.1 3.046.535 1.15 1.899 1.636 3.048 1.101 1.111-.525 1.618-1.833 1.136-2.965-.534-1.179-1.908-1.704-3.084-1.182zm51.061-22.126c-1.172.528-1.698 1.903-1.175 3.077.524 1.129 1.848 1.656 3.005 1.207 1.17-.548 1.715-1.903 1.254-3.102-.551-1.159-1.908-1.668-3.084-1.182zm36.132 99.138c-.869.94-.827 2.407.098 3.295.912.865 2.354.838 3.22-.072.897-.854.935-2.275.079-3.172-.023-.025-.044-.048-.075-.07-.89-.914-2.355-.928-3.265-.029-.023.011-.039.027-.057.048z" fill="#23286b"/><path d="m506.396 306.35-38.493-60.862 167.554-37.325s-4.896 18.47-30.801 37.115-47.043 49.668-47.043 49.668z" fill="url(#h)"/><path d="m647.308 257.94-24.318-67.772 171.667-.005s-8.803 16.964-38.146 29.529c-29.344 12.565-56.731 38.251-56.731 38.251z" fill="url(#i)"/><path d="m599.632 389.284c14.241 0 28.039-.454 41.165-1.3-41.171-48.516-83.095-94.223-83.095-94.223l-51.213 11.407s-1.435 41.062 15.468 79.237c22.943 3.105 49.442 4.879 77.675 4.879z" fill="url(#k)"/><path d="m599.632 389.284c40.086 0 76.68-3.575 104.547-9.462-1.8-61.036-4.395-123.021-4.395-123.021h-52.47c-47.269 38.164-51.398 71.681-54.879 132.442 2.387.025 4.785.041 7.197.041z" fill="url(#l)"/><path d="m232.943 473.59c-1.175-1.29-2.288-2.825-2.285-4.568.003-1.771 1.205-3.37 2.697-4.325 1.492-.954 3.255-1.382 4.982-1.784 9.81-2.279 19.755-4.214 29.823-4.508 8.271-.241 8.407-2.256 16.682-2.313 8.274-.055 19.155-3.069 26.506-6.866 9.404-4.86 22.641-9.271 33.157-10.512-2.627 10.756-6.363 21.929-14.783 29.128-3.62 3.095-7.917 5.276-12.167 7.426-6.121 3.096-12.296 6.214-18.916 8.023-6.21 1.697-12.678 2.202-19.106 2.559-8.3.46-16.697.68-24.852-.927-8.16-1.607-16.142-5.192-21.738-11.333z" fill="url(#m)"/><path d="m230.526 259.647c6.989-17.732 15.921-45.102 4.731-47.147-10.173-1.86-14.229 14.344-17.884 24.011s-6.495 19.716-10.741 29.139c-2.484 5.511-5.774 10.859-6.366 16.875-.474 4.822.843 9.621 2.141 14.291 16.991 61.17 32.776 123.608 31.843 187.082 23.028-.937 76.609-4.435 99.635-5.372-6.76-10.617-76.454-107.245-85.226-133.073-4.575-13.473-9.158-26.966-12.502-40.795-1.349-5.578-2.503-11.342-1.709-17.026 1.685-12.071 17.791-17.961 12.355-19.851-6.569-2.285-17.905 4.878-16.277-8.134z" fill="url(#n)"/><path d="m344.594 439.161c-1.605 14.053-3.162 30.247-4.268 44.347-34.949 7.294-70.273 8.455-105.707 4.084-1.278-.158-3.372-2.219-3.982-3.353-.322-.6-.485-2.833-.478-3.515.057-5.143.275-8.767.332-13.909 32.582 8 45.723 7.925 77.694-2.24 8.175-2.599 23.133-11.043 26.566-13.55 4.832-3.527 8.548-7.611 9.843-11.864z" fill="url(#o)"/><g fill="#fff"><path d="m205.48 63.777h7.479v7.473h-7.479z"/><path d="m339.458 210.392h7.479v7.473h-7.479z"/><path d="m228.799 105.101h7.479v7.473h-7.479z"/><path d="m300.959 165.328h7.479v7.473h-7.479z"/><path d="m237.82 116.751h7.479v7.473h-7.479z"/><path d="m188.319 107.299h7.479v7.473h-7.479z"/><path d="m347.817 128.62h7.479v7.473h-7.479z"/></g></svg>