<svg height="2000" viewBox="0 0 2200 2000" width="2200" xmlns="http://www.w3.org/2000/svg" xmlns:xlink="http://www.w3.org/1999/xlink"><linearGradient id="a" gradientUnits="userSpaceOnUse" x1="1197.778" x2="1441.946" y1="1764.893" y2="2082.947"><stop offset="0" stop-color="#d46b97"/><stop offset="1" stop-color="#ffa8b0" stop-opacity="0"/></linearGradient><linearGradient id="b" x1="1077.263" x2="1093.115" xlink:href="#a" y1="1636.06" y2="1768.816"/><linearGradient id="c" x1="1016.971" x2="1016.971" xlink:href="#a" y1="1697.314" y2="2006.095"/><radialGradient id="d" cx="489.308" cy="1263.705" gradientUnits="userSpaceOnUse" r="720.723"><stop offset=".483" stop-color="#f9df35"/><stop offset="1" stop-color="#fff08c" stop-opacity="0"/></radialGradient><radialGradient id="e" cx="497.693" cy="1234.409" gradientUnits="userSpaceOnUse" r="727.662"><stop offset=".348" stop-color="#0ca069"/><stop offset="1" stop-color="#95e6c8" stop-opacity="0"/></radialGradient><linearGradient id="f"><stop offset="0" stop-color="#d4656e"/><stop offset="1" stop-color="#ff9f80" stop-opacity="0"/></linearGradient><linearGradient id="g" gradientUnits="userSpaceOnUse" x1="1561.511" x2="1660.252" xlink:href="#f" y1="510.592" y2="404.689"/><linearGradient id="h" gradientUnits="userSpaceOnUse" x1="1359.796" x2="1346.81" y1="712.832" y2="508.585"><stop offset="0" stop-color="#c6204c"/><stop offset="1" stop-color="#ee3358" stop-opacity="0"/></linearGradient><linearGradient id="i" gradientUnits="userSpaceOnUse" x1="807.477" x2="979.665" y1="1537.855" y2="1465.377"><stop offset="0" stop-color="#d497d5"/><stop offset="1" stop-color="#ffeef8" stop-opacity="0"/></linearGradient><linearGradient id="j" x1="1038.319" x2="1035.003" xlink:href="#g" y1="1007.406" y2="1162.362"/><linearGradient id="k" gradientUnits="userSpaceOnUse" x1="862.733" x2="1153.382" xlink:href="#f" y1="1149.26" y2="1257.797"/><linearGradient id="l" x1="1039.307" x2="1173.673" xlink:href="#i" y1="1667.195" y2="1466.607"/><linearGradient id="m" x1="986.22" x2="1047.103" xlink:href="#g" y1="1034.89" y2="1211.106"/><linearGradient id="n" gradientUnits="userSpaceOnUse" x1="1028.269" x2="1074.917" y1="849.208" y2="1034.515"><stop offset="0" stop-color="#022b61"/><stop offset="1" stop-color="#034471" stop-opacity="0"/></linearGradient><linearGradient id="o" x1="858.961" x2="1124.429" xlink:href="#h" y1="721.019" y2="721.019"/><linearGradient id="p" x1="760.451" x2="763.779" xlink:href="#h" y1="736.94" y2="528.48"/><linearGradient id="q" x1="1022.641" x2="1072.506" xlink:href="#h" y1="468.456" y2="581.343"/><linearGradient id="r" x1="482.922" x2="378.459" xlink:href="#g" y1="470.65" y2="386.104"/><linearGradient id="s" x1="514.588" x2="465.279" xlink:href="#g" y1="559.747" y2="464.678"/><linearGradient id="t"><stop offset="0" stop-color="#748f9f"/><stop offset="1" stop-color="#b6c8ea" stop-opacity="0"/></linearGradient><linearGradient id="u" gradientUnits="userSpaceOnUse" x1="1756.971" x2="1756.971" xlink:href="#t" y1="723.825" y2="2156.708"/><linearGradient id="v" gradientUnits="userSpaceOnUse" x1="1898.119" x2="2410.588" xlink:href="#t" y1="1180.342" y2="2850.374"/><linearGradient id="w" gradientUnits="userSpaceOnUse" x1="1828.578" x2="1830.095" xlink:href="#t" y1="929.475" y2="1061.792"/><linearGradient id="x"><stop offset="0" stop-color="#0c72c3"/><stop offset="1" stop-color="#0fb3e3" stop-opacity="0"/></linearGradient><linearGradient id="y" gradientUnits="userSpaceOnUse" x1="471.776" x2="885.585" xlink:href="#x" y1="1463.444" y2="2467.485"/><linearGradient id="z" gradientUnits="userSpaceOnUse" x1="391.955" x2="376.815" xlink:href="#x" y1="1243.402" y2="1351.364"/><linearGradient id="A" gradientUnits="userSpaceOnUse" x1="306.971" x2="306.971" xlink:href="#x" y1="1074.113" y2="2148.077"/><radialGradient id="B" cx="353.219" cy="1133.517" gradientUnits="userSpaceOnUse" r="73.294"><stop offset=".688" stop-color="#ff6270"/><stop offset="1" stop-color="#ffa8b0" stop-opacity="0"/></radialGradient><radialGradient id="C" cx="1723.479" cy="141.619" gradientUnits="userSpaceOnUse" r="73.294"><stop offset=".688" stop-color="#95e6c8"/><stop offset="1" stop-color="#fff" stop-opacity="0"/></radialGradient><path d="m1321.822 1725.527-145.532 70v142.321l145.532-70z" fill="#ffa8b0"/><path d="m1321.822 1725.527-145.532 70v142.321l145.532-70z" fill="url(#a)"/><path d="m857.652 1755.527 165.532-63 298.638 33-145.532 70z" fill="#ffa8b0"/><path d="m857.652 1755.527 165.532-63 298.638 33-145.532 70z" fill="url(#b)"/><path d="m857.652 1755.527 318.638 40v142.321l-318.638-40z" fill="#ffa8b0"/><path d="m857.652 1755.527 318.638 40v142.321l-318.638-40z" fill="url(#c)"/><g stroke="#cff5ff" stroke-width="10"><path d="m1951.481 192.997v1075.405" fill="none" stroke-linecap="round" stroke-linejoin="round"/><path d="m1749.815 192.997v1075.405" fill="none" stroke-linecap="round" stroke-linejoin="round"/><path d="m1548.148 192.997v1075.405" fill="none" stroke-linecap="round" stroke-linejoin="round"/><path d="m1346.481 192.997v1075.405" fill="none" stroke-linecap="round" stroke-linejoin="round"/><path d="m1144.815 192.997v1075.405" fill="none" stroke-linecap="round" stroke-linejoin="round"/><path d="m943.148 192.997v1075.405" fill="none" stroke-linecap="round" stroke-linejoin="round"/><path d="m741.481 192.997v1075.405" fill="none" stroke-linecap="round" stroke-linejoin="round"/><path d="m2022.715 1134.032h-1352.467" fill="none" stroke-linecap="round" stroke-linejoin="round"/><path d="m2022.715 932.366h-1352.467" fill="none" stroke-linecap="round" stroke-linejoin="round"/><path d="m2022.715 730.699h-1352.467" fill="none" stroke-linecap="round" stroke-linejoin="round"/><path d="m2022.715 529.032h-1352.467" fill="none" stroke-linecap="round" stroke-linejoin="round"/><path d="m2022.715 327.366h-1352.467" fill="none" stroke-linecap="round" stroke-linejoin="round"/></g><path d="m803.744 1120.186c-47.885-121.947-166.657-208.282-305.592-208.282-72.281 0-139.104 23.367-193.328 62.959l-166.646-228.622c100.964-73.72 225.388-117.229 359.974-117.229 258.696 0 479.847 160.753 569.009 387.818z" fill="url(#d)"/><path d="m486.297 1568.066c3.934.14 7.886.21 11.854.21 181.252 0 328.186-146.934 328.186-328.186 0-11.759-.618-23.374-1.825-34.814l281.319-30.009c2.246 21.3 3.397 42.927 3.397 64.823 0 337.489-273.589 611.078-611.078 611.078-30.973 0-61.409-2.304-91.144-6.751l79.289-276.351z" fill="url(#e)"/><path d="m260.247 1345.527s87.54-365.715 390.638-582.508c295.772-211.553 718.846-173.719 781.277 68.787 36.766 142.813-119.799 263.058-304.399 301.711-187.761 39.315-394.579-4.355-430.92-117.99-26.595-83.161 25.277-208.998 246.305-303.688 166.047-71.136 352.561-68.322 426.972-199.438 159.93-281.806 283.489-402.032 546.17-434.25" fill="none" stroke="#0ca069" stroke-linecap="round" stroke-linejoin="round" stroke-width="32"/><path d="m1618.673 379.891c9.957-38.378 38.518-71.346 74.791-78.343s12.129 31.157-.876 39.965c-13.005 8.809-49.404 51.399-49.404 51.399s-34.468 25.356-24.511-13.021z" fill="#ff9f80"/><path d="m1572.156 447.107c12.049-45.979 31.092-74.948 48.432-92.11 36.847-36.467 59.194-31.491 76.213-24.788 29.872 11.767 14.659 34.373-10.723 34.362-17.287-.008-30.638 4.979-37.149 25.66l20.681 30.255-61.532 88.085s-47.971-15.486-35.921-61.465z" fill="#ff9f80"/><path d="m1663.482 420.487c-1.377 1.053 29.475-24.678 45.126-31.54 19.029-8.343 34.524-5.375 24.959 20.434-10.524 28.398-91.835 110.936-125.489 99.191 4.307-30.868 16.11-60.47 55.404-88.085z" fill="#ff9f80"/><path d="m1708.608 388.947c-9.829 4.309-25.649 16.058-35.721 23.943 2.49-6.658 5.865-17.699 8.151-33.164 5.508-5.606 10.419-11.061 14.781-16.333 13.124-3.315 20.91-13.077 15.895-22.143 5.547-9.192 9.16-17.466 11.129-24.551 2.238-8.052-.766-28.34-19.915-20.298-3.136 1.317-6.297 3.056-9.452 5.144-.004 0-.008.001-.012.002-23.042 4.445-42.963 19.378-56.989 39.513-4.98 3.776-10.264 8.371-15.887 13.936-17.34 17.161-36.383 46.131-48.432 92.11s35.922 61.465 35.922 61.465c33.655 11.745 114.965-70.794 125.489-99.191 9.565-25.809-5.93-28.777-24.959-20.434z" fill="url(#g)"/><path d="m1618.673 379.891c3.631-13.993 9.735-27.268 17.784-38.826" fill="none" stroke="#d25931" stroke-linecap="round" stroke-linejoin="round" stroke-width="4"/><path d="m1669.609 420.487s7.404-13.532 11.429-40.761c24.571-25.011 37.362-47.04 41.805-63.026 2.238-8.053-.766-28.34-19.915-20.298-26.111 10.967-54 50.553-65.489 87.319z" fill="#ff9f80"/><path d="m1693.462 301.545c-23.116 15.304-45.916 49.831-56.023 82.175" fill="none" stroke="#d25931" stroke-linecap="round" stroke-linejoin="round" stroke-width="4"/><path d="m1695.822 363.394c6.475-7.824 11.731-15.243 15.895-22.142" fill="none" stroke="#d25931" stroke-linecap="round" stroke-linejoin="round" stroke-width="4"/><path d="m1647.252 433.346c4.81-4.332 10.196-8.619 16.23-12.86-.513.392 3.437-2.924 9.405-7.597" fill="none" stroke="#d25931" stroke-linecap="round" stroke-linejoin="round" stroke-width="4"/><path d="m1111.52 501.164c117.441-29.195 254.77 44.174 254.77 44.174 57.235-31.763 137.212-77.581 205.866-98.231 17.794-4.536 62.985 74.741 50.73 99.252-8.996 16.357-32.95 21.705-51.253 27.243-77.428 82.034-192.277 163.565-383.582 96.158-121.113-42.675-146.534-151.193-76.531-168.596z" fill="#ee3358"/><path d="m1111.52 501.164c117.441-29.195 254.77 44.174 254.77 44.174 57.235-31.763 137.212-77.581 205.866-98.231 17.794-4.536 62.985 74.741 50.73 99.252-6.019 12.255-28.596 21.447-51.253 27.243-77.428 82.034-192.277 163.565-383.582 96.158-121.113-42.675-146.534-151.193-76.531-168.596z" fill="url(#h)"/><path d="m1012.553 1461.172c4.561 37.75-17.898 50.865-33.072 48.761 3.319 14.298-10.074 31.332-27.035 30.218-52.218 178.122-103.873 3.425-121.946-43.841-7.243-9.679-8.377-47.572 24.632-67.019-1.429-6.797-5.864-35.783 22.221-42.755 33.297-8.266 130.51 35.829 135.2 74.636z" fill="#ffedf8"/><path d="m1012.553 1461.172c4.561 37.75-17.898 50.865-33.072 48.761 3.319 14.298-10.074 31.332-27.035 30.218-52.218 178.122-103.873 3.425-121.946-43.841-7.243-9.679-8.377-47.572 24.632-67.019-1.429-6.797-5.864-35.783 22.221-42.755 33.297-8.266 130.51 35.829 135.2 74.636z" fill="url(#i)"/><path d="m830.501 1496.31c-17.359 9.688-40.724 25.561-52.486 44.155l85.113 103.225c15.72 19.066 44.353 40.552 87.769 40.552l69.929.153s5.269-33.484-3.213-45.986-50.608-16.913-50.608-16.913c-1.217-24.661-3.608-50.115-14.558-81.344 0 0-38.315-7.544-53.095 5.104-12.704 10.871-4.385 53.611-4.385 53.611z" fill="#1f201b"/><path d="m778.015 1540.465c-12.744 8.261-17.349 13.253-22.935 20.588-2.741 3.598-2.647 8.613.218 12.113l46.039 56.246c3.432 4.193 9.619 4.796 13.796 1.344l11.242-9.289 13.104 17.471-8.926 16.466c-1.881 3.47-1.492 7.731.987 10.802 16.19 20.059 62.613 53.272 103.849 53.272l77.082.334c5.208.018 9.559-4.047 9.799-9.25.425-9.225.106-18.038-1.445-26.167z" fill="#1f201b"/><path d="m894.154 1597.574s4.29 10.608 10.948 23.06c12.529 23.43 30.59 23.83 41.338 23.42l71.693-2.735" fill="none" stroke="#fff" stroke-linecap="round" stroke-linejoin="round" stroke-width="4"/><path d="m1181.736 991.904s-29.995 167.97-65.013 268.603c-26.341 75.696-125.228 207.872-125.228 207.872-39.367-4.457-74.203-21.88-105.04-50.746 17.834-90.132 52.92-158.99 108.584-202.468l50.519-267.489 136.178 44.227z" fill="#ff9f80"/><path d="m1181.736 991.904s-29.995 167.97-65.013 268.603c-26.341 75.696-125.228 207.872-125.228 207.872-39.367-4.457-74.203-21.88-105.04-50.746 17.834-90.132 52.92-158.99 108.584-202.468l50.519-267.489 136.178 44.227z" fill="url(#j)"/><path d="m1181.736 991.904s-29.995 167.97-65.013 268.603c-26.341 75.696-125.228 207.872-125.228 207.872-39.367-4.457-74.203-21.88-105.04-50.746 17.834-90.132 52.92-158.99 108.584-202.468l50.519-267.489 136.178 44.227z" fill="url(#k)"/><path d="m778.015 1540.465 85.113 103.225c15.72 19.066 44.353 40.552 87.769 40.552l69.929.153" fill="none" stroke="#fff" stroke-linecap="round" stroke-linejoin="round" stroke-width="4"/><path d="m1166.218 1460.61c30.288 22.989 14.521 57.872 2.452 67.308 32.099 16.659 21.408 53.914 8.807 65.321 37.536 139.716-97.273 85.716-127.959 14.482-11.991-1.532-41.532-24.128-26.344-56.15-5.876-3.703-22.631-13.998-11.401-45.922 11.384-32.364 123.308-68.671 154.444-45.038z" fill="#ffedf8"/><path d="m1166.218 1460.61c30.288 22.989 14.521 57.872 2.452 67.308 32.099 16.659 21.408 53.914 8.807 65.321 37.536 139.716-97.273 85.716-127.959 14.482-11.991-1.532-41.532-24.128-26.344-56.15-5.876-3.703-22.631-13.998-11.401-45.922 11.384-32.364 123.308-68.671 154.444-45.038z" fill="url(#l)"/><path d="m1049.519 1607.721c-11.301 16.355-25.261 40.911-27.609 62.786l121.934 55.061c22.521 10.17 46.949 15.429 71.66 15.429h89.929s5.212-33.493-3.291-45.98c-8.503-12.488-74.881-35.211-74.881-35.211-11.977-21.592-25.356-43.377-48.965-66.567 0 0-37.711 10.142-45.391 28.014-6.601 15.362 19.727 50.043 19.727 50.043l-103.111-63.575z" fill="#1f201b"/><path d="m1152.63 1671.295 46.539 20.61c9.834 4.355 20.537 6.397 31.284 5.969l71.688-2.857" fill="none" stroke="#fff" stroke-linecap="round" stroke-linejoin="round" stroke-width="4"/><path d="m1021.91 1670.507c-7.789 13.037-9.718 19.549-11.494 28.597-.871 4.439 1.426 8.897 5.542 10.773l66.137 30.151c4.93 2.248 10.748.058 12.973-4.883l5.988-13.297 19.47 9.894-.742 18.715c-.156 3.944 2.074 7.595 5.654 9.257 23.381 10.854 48.841 16.5 74.619 16.545l97.083.169c5.208.009 9.552-4.063 9.783-9.266.409-9.226.075-18.038-1.49-26.165l-283.522-70.49z" fill="#1f201b"/><path d="m1021.91 1670.507c-7.789 13.037-9.718 19.549-11.494 28.597-.871 4.439 1.426 8.897 5.542 10.773l6.006 2.738" fill="none" stroke="#fff" stroke-linecap="round" stroke-linejoin="round" stroke-width="4"/><path d="m1089.736 981.904 54.842 493.226c-33.676 20.871-71.819 28.754-113.906 25.175-41.792-81.825-56.866-157.621-40.067-226.226l-43.947-286.778 143.078-5.396z" fill="#ff9f80"/><path d="m1089.736 981.904 54.842 493.226c-33.676 20.871-71.819 28.754-113.906 25.175-41.792-81.825-56.866-157.621-40.067-226.226l-43.947-286.778 143.078-5.396z" fill="url(#m)"/><path d="m1006.98 1447.073c-23.198-61.667-29.47-119.516-16.375-172.994l-7.496-48.919" fill="none" stroke="#d25931" stroke-linecap="round" stroke-linejoin="round" stroke-width="4"/><path d="m1089.736 981.904 29.994 269.757" fill="none" stroke="#d25931" stroke-linecap="round" stroke-linejoin="round" stroke-width="4"/><path d="m1195.297 857.848c9.376 91.404 13.972 173.686 13.972 173.686l-297.575 16.271c-2.887-67.743-1.299-132.095 8.85-189.958 161.636-243.573 265.377-91.404 274.753 0z" fill="#034471"/><path d="m1195.297 857.848c9.376 91.404 13.972 173.686 13.972 173.686l-297.575 16.271c-2.887-67.743-1.299-132.095 8.85-189.958 161.636-243.573 265.377-91.404 274.753 0z" fill="url(#n)"/><path d="m1179.027 562.955c39.905 57.279 42.865 132.625 32.54 214.468 33.702 26.809 13.021 73.532-16.27 80.426-2.626-26.398-15.123-51.836-50.369-75.064-17.165 50.553-131.149 160.085-224.384 145.532-74.106-11.567-73.573-80.426-39.105-102.638-27.041-87.728 9.958-246.003 58.979-313.277z" fill="#ee3358"/><path d="m1179.027 562.955c39.905 57.279 42.865 132.625 32.54 214.468 33.702 26.809 13.021 73.532-16.27 80.426-2.626-26.398-15.123-51.836-50.369-75.064-17.165 50.553-131.149 160.085-224.384 145.532-74.106-11.567-73.573-80.426-39.105-102.638-27.041-87.728 9.958-246.003 58.979-313.277z" fill="url(#o)"/><path d="m1179.027 562.955c23.156 33.238 33.871 72.559 36.77 115.702" fill="none" stroke="#750623" stroke-linecap="round" stroke-linejoin="round" stroke-width="4"/><path d="m1100.503 587.721s27.099-57.252 12.685-82.851c-16.244-28.848-135.042-54.06-153.696-10.505 32.615 29.014 68.81 67.713 88.576 96.42z" fill="#ee3358"/><path d="m981.524 497.338c-92.426-19.915-209.617 57.191-209.617 57.191-57.675-30.956-153.191-77.685-222.128-97.369-15.574-5.014-62.348 83.429-53.734 98.9 9.225 16.229 33.301 30.226 56.032 27.574 71.848 87.613 194.553 160.851 384.894 90.766 120.503-44.37 115.069-161.87 44.553-177.064z" fill="#ee3358"/><path d="m981.524 497.338c-92.426-19.915-209.617 57.191-209.617 57.191-57.675-30.956-153.191-77.685-222.128-97.369-15.574-5.014-62.348 83.429-53.734 98.9 9.225 16.229 33.301 30.226 56.032 27.574 71.848 87.613 194.553 160.851 384.894 90.766 120.503-44.37 115.069-161.87 44.553-177.064z" fill="url(#p)"/><path d="m1100.503 587.721s27.099-57.252 12.685-82.851c-16.244-28.848-135.042-54.06-153.696-10.505 32.615 29.014 68.81 67.713 88.576 96.42z" fill="url(#q)"/><path d="m876.202 692.587c19.442-4.421 39.691-10.425 60.769-18.186" fill="none" stroke="#750623" stroke-linecap="round" stroke-linejoin="round" stroke-width="4"/><path d="m959.491 494.365c32.615 29.014 68.81 67.713 88.576 96.42" fill="none" stroke="#750623" stroke-linecap="round" stroke-linejoin="round" stroke-width="4"/><path d="m1100.503 587.721s27.099-57.252 12.685-82.851c-.702-1.247-1.569-2.484-2.586-3.707" fill="none" stroke="#750623" stroke-linecap="round" stroke-linejoin="round" stroke-width="4"/><path d="m482.003 438.449c-33.682-20.917-77.101-25.086-108.189-5.132-31.089 19.954 12.71 30.924 28.202 28.331s71.224 3.135 71.224 3.135 42.446-5.417 8.764-26.335z" fill="#ff9f80"/><path d="m459.645 406.388c-33.682-20.917-77.101-25.086-108.189-5.132-31.089 19.954 12.71 30.924 28.202 28.331s71.224 3.135 71.224 3.135 42.446-5.417 8.764-26.335z" fill="#ff9f80"/><path d="m454.488 428.199s-14.655-4.814-36.207-21.934c-35.031-1.455-59.426-8.788-73.598-17.418-7.138-4.347-18.816-21.207.658-28.428 26.554-9.847 73.97-.022 107.49 18.956l1.656 48.825z" fill="#ff9f80"/><path d="m538.641 440.136c-25.543-29.157-50.58-55.957-71.84-72.501-40.914-31.838-78.73-40.851-97.021-40.851-21.991 0-20.273 15.597-5.371 29.953-7.052.436-13.52 1.624-19.067 3.681-19.474 7.221-7.796 24.082-.658 28.428 4.336 2.64 9.634 5.158 15.896 7.424-3.135 1.459-6.189 3.103-9.123 4.986-31.089 19.954 12.71 30.924 28.202 28.331.302-.051.624-.097.956-.141-2.321 1.175-4.594 2.455-6.799 3.871-1.593 1.023-2.979 2.021-4.193 2.995-15.226 2.916-22.027 11.752-5.245 28.152 19.476 19.032 99.37 55.257 141.654 42.806l33.282 25.301s27.883-34.92 28.508-69.855c-12.678-8.783-17.656-12.139-29.179-22.58z" fill="url(#r)"/><path d="m538.641 440.137c-25.544-29.157-50.58-55.957-71.84-72.501-40.914-31.837-78.73-40.851-97.021-40.851-24.528 0-19.574 19.404.286 34.846 12.906 10.035 49.247 30.516 65.076 38.731 4.17 18.952 13.559 30.55 28.085 34.911l4.152 19.535 36.188 50.701 35.745 27.064s27.883-34.92 28.508-69.855c-12.678-8.783-17.656-12.139-29.178-22.58z" fill="#ff9f80"/><path d="m379.657 429.588c7.964-1.333 26.562-.467 42.757.689" fill="none" stroke="#d25931" stroke-linecap="round" stroke-linejoin="round" stroke-width="4"/><path d="m432.319 416.45c-4.225-2.772-8.939-6.135-14.038-10.186-35.031-1.455-59.426-8.788-73.598-17.418" fill="none" stroke="#d25931" stroke-linecap="round" stroke-linejoin="round" stroke-width="4"/><path d="m432.476 444.523s-38.67-10.012-54.281-9.205c-20.75 1.073-33.505 9.91-13.819 29.147 21.66 21.166 118.058 63.611 154.33 36.699-17.098-26.059-38.899-48.489-86.23-56.641z" fill="#ff9f80"/><path d="m567.819 462.717c-12.678-8.783-17.656-12.139-29.179-22.58-25.543-29.157-50.58-55.957-71.84-72.501-40.914-31.838-78.73-40.851-97.021-40.851-24.528 0-19.574 19.404.286 34.846 12.906 10.035 49.247 30.516 65.076 38.731l-5.344 30.474-2.188 12.478c-10.885-2.638-37.203-8.626-49.414-7.995-20.75 1.073-33.505 9.91-13.819 29.146 19.476 19.032 99.37 55.257 141.654 42.806l33.282 25.301s27.883-34.92 28.508-69.855z" fill="url(#s)"/><path d="m363.345 355.7c1.988 2.008 4.238 4 6.72 5.931 12.906 10.035 49.247 30.516 65.076 38.731 1.502 16.807 13.277 29.317 28.085 34.911l4.152 19.535s-73.572-20.296-89.183-19.489c-3.057.158-5.941.485-8.573.988" fill="none" stroke="#d25931" stroke-linecap="round" stroke-linejoin="round" stroke-width="4"/><path d="m1136.095 455.856c34.079-13.128 51.292-68.007 40.639-90.881-8.3-17.823-113.101-55.946-159.766-34.908-43.533 19.626-67.925 68.638-77.304 78.669-12.531 13.402-19.426 15.355-19.426 15.355 14.12 31.372 35.922 33.41 79.627 47.007 0 0 99.723-1.178 136.231-15.241z" fill="#1f201b"/><path d="m1125.288 388.78c21.53 56.074 9.024 97.074-6.763 105.086s-34.089-3.006-40.97-8.136l4.694 45.731c1.049 14.257-4.998 46.674-8.986 61.702l-41.625-80.762c4.524-21.43 5.957-32.401 6.66-54.911l-6.266-19.96c-16.68.391-23.266-17.22-14.105-25.71 4.09-3.79 11.164-3.387 15.847 3.04 0 0 51.46 13.152 91.514-26.08z" fill="#ff9f80"/><path d="m1127.763 449.4c-2.358-5.225-7.771-6.181-12.403-3.982-6.724-4.887-14.473-2.976-20.084 1.904 10.993 11.307 21.357 13.994 32.487 2.078z" fill="#ee3358"/><path d="m1031.653 440.963c16.543 23.415 20.715 52.562 7.418 74.473-21.871-46.04-66.624-31.146-85.857-41.207-24.523-12.829-32.977-50.139-32.977-50.139 43.467 17.619 82.994 29.596 111.415 16.873z" fill="#1f201b"/><circle cx="1092.497" cy="595.38" fill="#750623" r="4.596"/><circle cx="1057.263" cy="596.912" fill="#750623" r="4.596"/><path d="m1092.497 595.38c4.404 18.749 6.125 40.684 5.106 65.872" fill="none" stroke="#750623" stroke-linecap="round" stroke-linejoin="round" stroke-width="4"/><path d="m1057.263 596.912c2.883 60.814 2.737 120.06-.511 177.702" fill="none" stroke="#750623" stroke-linecap="round" stroke-linejoin="round" stroke-width="4"/><path d="m539.311 532.572c-10.297 15.519-17.872 23.489-17.872 23.489" fill="none" stroke="#750623" stroke-linecap="round" stroke-linejoin="round" stroke-width="4"/><path d="m1305.433 1740.997h-89.929c-24.711 0-49.139-5.26-71.66-15.429l-121.934-55.061.533-3.882" fill="none" stroke="#fff" stroke-linecap="round" stroke-linejoin="round" stroke-width="4"/><path d="m1597.652 1045.527 318.638 40v852.321l-318.638-40z" fill="#b6c8ea"/><path d="m1597.652 1045.527 318.638 40v852.321l-318.638-40z" fill="url(#u)"/><path d="m2061.822 1015.527-145.532 70v852.321l145.532-70z" fill="#b6c8ea"/><path d="m2061.822 1015.527-145.532 70v852.321l145.532-70z" fill="url(#v)"/><path d="m1597.652 1045.527 165.532-63 298.638 33-145.532 70z" fill="#b6c8ea"/><path d="m1597.652 1045.527 165.532-63 298.638 33-145.532 70z" fill="url(#w)"/><path d="m611.822 1315.527-145.532 70v552.321l145.532-70z" fill="#0fb3e3"/><path d="m611.822 1315.527-145.532 70v552.321l145.532-70z" fill="url(#y)"/><path d="m147.652 1345.527 165.532-63 298.638 33-145.532 70z" fill="#0fb3e3"/><path d="m147.652 1345.527 165.532-63 298.638 33-145.532 70z" fill="url(#z)"/><path d="m147.652 1345.527 318.638 40v552.321l-318.638-40z" fill="#0fb3e3"/><path d="m147.652 1345.527 318.638 40v552.321l-318.638-40z" fill="url(#A)"/><circle cx="353.219" cy="1133.517" fill="url(#B)" r="73.294"/><circle cx="1723.479" cy="141.619" fill="url(#C)" r="73.294"/><path d="m1432.162 831.806c36.766 142.813-119.799 263.058-304.399 301.711-187.761 39.315-394.579-4.355-430.92-117.99" fill="none" stroke="#0ca069" stroke-linecap="round" stroke-linejoin="round" stroke-width="32"/></svg>