<svg xmlns="http://www.w3.org/2000/svg" viewBox="0 0 1600 1200" width="1600" height="1200"><g transform="translate(188.0 784.0) rotate(134.16396873119854 78.0 132.5) scale(1.0804970286331714 1.0891679168122315)"><svg width="144.378" height="243.305" viewBox="0 0 144.378 243.305"><circle cx="72.189" cy="72.189" fill="#142664" r="72.189"/><path d="M72.189 243.305c-7.398 0-13.395-5.997-13.395-13.395v-96.946h26.79v96.946c0 7.398-5.997 13.395-13.395 13.395z" fill="#142664"/><path d="M130.804 72.189c0 32.09-26.01 58.1-58.1 58.1-15.28 0-29.18-5.9-39.55-15.56a53.322 53.322 0 0 1-4.19-4.31c-1.61-1.83-3.1-3.77-4.47-5.8a57.287 57.287 0 0 1-7.12-14.67c-1.8-5.6-2.77-11.56-2.77-17.76 0-32.09 26.01-58.1 58.1-58.1 6.28 0 12.32.99 17.98 2.84 5.25 1.7 10.17 4.13 14.64 7.17 2.03 1.38 3.96 2.89 5.79 4.51a53.27 53.27 0 0 1 4.3 4.2c9.56 10.35 15.39 24.18 15.39 39.38z" fill="#ff2e93"/><g fill="#fff"><path d="m105.324 24.099-80.83 80.52a57.287 57.287 0 0 1-7.12-14.67l73.31-73.02c5.25 1.7 10.17 4.13 14.64 7.17zm10.09 8.71-82.26 81.92a53.322 53.322 0 0 1-4.19-4.31l82.15-81.81a53.27 53.27 0 0 1 4.3 4.2z"/></g></svg></g><g transform="translate(155.0 423.0) rotate(-4.279483470681566 405.5 267.0) scale(3.7339717765141924 3.709466781516575)"><svg width="217.195" height="143.956" viewBox="0 0 217.195 143.956"><path d="M54.095 112.752c-14.6-2-25.9-14.5-25.9-29.7s11.3-27.7 25.9-29.7v-.3c0-23.4 19-42.4 42.4-42.4 9.3 0 17.9 3 24.8 8.1 5.1-3 11.1-4.8 17.5-4.8 17.7 0 32.3 13.4 34.3 30.6 1.2-.2 2.3-.2 3.6-.2 14.1 0 25.6 11.5 25.6 25.6 0 3.8-.8 7.4-2.3 10.6 5.1 3.1 8.5 8.6 8.5 15 0 9.7-7.8 17.5-17.5 17.5z" fill="#ff2e93"/><g fill="#142664"><path d="M171.395 37.252c.8 2.3 1.4 4.8 1.7 7.3.8-.1 1.6-.2 2.4-.2 0 2-.1 4-.4 6s-.8 4-1.5 5.9c-1.3 3.8-3.2 7.4-5.6 10.6-.4.6-1.3.8-2 .4-.6-.4-.8-1.3-.4-2 2-3.1 3.5-6.5 4.5-10.1.5-1.7.9-3.5 1.1-5.4.3-1.8.5-3.6.5-5.5.1-1.9 0-3.8-.3-5.6.2-.501.1-.9 0-1.4zm32.8 47c-1-1-2.2-1.9-3.4-2.7-1.4-.9-2.9-1.5-4.5-2s-3.2-.8-4.9-.8c-1.9-.1-3.7.2-5.4.7-1.8.5-3.5 1.3-5 2.3-.6.5-1.5.3-2-.3s-.3-1.5.3-2c1.7-1.3 3.6-2.4 5.6-3.2 2-.7 4.2-1.1 6.4-1.2 2.1 0 4.1.2 6 .8 1.3.4 2.6.9 3.7 1.6-.3 1.1-.7 2.1-1.2 3.1 1.7.999 3.2 2.2 4.4 3.7zm-150.1-33.601c.8-.1 1.6-.1 2.4-.1 3.2 0 6.3.4 9.2 1.2 3 .9 5.9 2.2 8.4 3.9 5.2 3.4 9.3 8.1 12 13.8.3.7.1 1.6-.6 1.9s-1.6.1-1.9-.6c-2.6-5-6.6-9.1-11.3-11.9-2.3-1.4-4.9-2.5-7.6-3.3-2.6-.7-5.3-1.2-8.1-1.2-2.9-.1-5.8.3-8.5 1-1.4.4-2.8.9-4.1 1.4 3.1-1.7 6.5-2.8 10.1-3.3v-2.8zm42 33.3c2-1.1 4.3-1.1 6.3-.5s3.7 1.9 4.8 3.8 1.4 4 1 6c-.5 2.1-1.7 4-3.6 5.2-.7.4-.9 1.3-.5 1.9.4.7 1.3.9 1.9.5 2.8-1.5 4.7-3.9 5.5-6.7.9-2.9.5-6-1-8.9-1.7-2.8-4.3-4.6-7.2-5.3-2.8-.7-6-.3-8.6 1.4-.7.4-.9 1.3-.5 1.9.4.9 1.2 1.101 1.9.7zm27.9-66.599c.8.8 1.7 1.7 2.6 2.8 1.6 1.9 3.3 4.3 4.8 7.1.8 1.5 1.5 3 2.1 4.7 1.2 3.5 2.1 7.4 2.4 11.7.1.8-.5 1.5-1.3 1.6s-1.5-.5-1.6-1.3c-.6-4-1.7-7.5-3-10.7-.6-1.5-1.3-2.9-2-4.3-.1-.3-.3-.5-.4-.8-.6 1.7-1.4 3.3-2.5 4.8-1.5 2.1-3.5 4-5.8 5.4-2.1 1.2-4.2 2-6.5 2.4.3 1.2.4 2.4.3 3.7-.1 1.7-.7 3.5-1.5 5.1-1.1 1.7-2.5 3.2-4.1 4.2-1.7 1-3.6 1.6-5.5 1.8-.8.1-1.5-.4-1.6-1.2s.4-1.5 1.2-1.6c1.4-.3 2.8-1 3.9-1.9 1.1-.8 2.1-1.9 2.8-3.2.7-1.1 1.2-2.4 1.4-3.6.2-1 .2-2 .1-3-1.9 0-3.8-.2-5.6-.8-4.8-1.4-9.1-4.7-11.7-9.4-.4-.7-.2-1.5.5-1.9s1.5-.2 1.9.5c2.4 3.9 6.1 6.3 10.2 7.4 2 .5 4.2.6 6.3.3 2-.3 4.1-.9 6-2 2-1.1 3.7-2.5 5-4.2 1.4-1.8 2.4-3.8 3-5.9 0-.1.1-.2.1-.3-.6-.9-1.2-1.8-1.7-2.6-1.4-1.9-2.6-3.3-3.5-4.3.4.2.7.5 1.1.7.8-.3 1.6-.7 2.6-1.2zm35.2 3.299c1 .7 2 1.5 2.9 2.4-.8.3-1.6.7-2.3 1.2-1.6 1-3 2.3-4.1 3.9-1.1 1.4-1.8 3-2.2 4.7s-.6 3.5-.3 5.2c.2.8-.3 1.5-1.1 1.7s-1.5-.3-1.7-1.1c-.6-2.1-.7-4.3-.3-6.5.3-2.1 1.2-4.2 2.4-6.1 1.5-2.1 3.4-3.7 5.5-4.8l1.2-.6zm-104.5 92.101c.2-2.9 1-5.6 2.2-8.1 1.1-2.3 2.5-4.3 4.3-6.1 1-1.1 2.2-2 3.5-2.8-1-1.1-1.9-2.2-2.6-3.4s-1.2-2.4-1.6-3.8c-.3-1-.4-2-.5-3-.2-2.4.1-4.7.8-7 .2-.8 1-1.2 1.7-1 .8.2 1.2 1 1 1.7-.3 2-.3 3.9.1 5.9.1.8.3 1.6.6 2.4.4 1.3.8 2.6 1.5 3.9.5 1 1.1 1.9 1.7 2.8 3.2-1.5 6.9-2.3 10.7-2.2.8 0 1.4.6 1.4 1.4s-.6 1.4-1.4 1.4c-3.9.1-7.5 1.4-10.5 3.4-1.3.9-2.5 1.9-3.7 3-1.9 1.8-3.4 4-4.5 6.4-.7 1.6-1.3 3.3-1.6 5zm119.3.299c.9-3.9.5-7.9-1-11.5-.8-2-2-3.9-3.4-5.6-1.4-1.6-3.1-3.1-5-4.2-3-1.8-6.3-2.7-9.6-2.8s-6.5.6-9.5 2.1c-.5 3.9-2.3 7.3-5 9.9-3.1 3-7.4 4.8-12 4.7-.8 0-1.4-.6-1.4-1.4s.6-1.4 1.4-1.4c3.8-.1 7.1-1.7 9.5-4.3 2.4-2.5 3.8-5.8 3.8-9.5.1-3.7-1.4-7.1-3.8-9.5-2.4-2.5-5.8-4.2-9.5-4.3-.8 0-1.4-.6-1.4-1.4s.6-1.4 1.4-1.4c4.6-.1 8.9 1.7 12 4.6 2.9 2.8 4.7 6.6 5.1 10.8 2.9-1.4 6.1-2.2 9.4-2.3 3.9-.1 7.8.9 11.5 2.9 2.3 1.4 4.4 3.1 6 5 1.7 2 3 4.3 3.9 6.8 1.4 4.1 1.7 8.5.7 12.8z"/></g><path d="M102.095 113.252c-.1 12.9-10.4 23.5-23.3 23.8-.3 0-.6.1-.8.3l-6.3 6.3c-.3.3-.8.4-1.2.2s-.7-.6-.7-1.1v-15.8c0-.3.1-.6.3-.8s.5-.3.8-.3c2.3 0 7.1.1 7.4.1 7-.1 12.7-5.9 12.7-12.9h11.1zm56.5-.201 14.7 14.7c.2.2.5.3.8.3h9c.5 0 .9.3 1.1.7s.1.9-.2 1.2l-11.2 11.2c-.4.4-1.2.4-1.6 0l-28.2-28.1z" fill="#ff2e93"/><path d="M28.095 83.951c2.9-.7 5.9-.7 8.9 0 1 .2 1.7 1.2 1.5 2.3-.2 1-1.2 1.7-2.3 1.5-2.6-.6-5.2-.5-7.7.2-.2-1.4-.3-2.699-.4-4zm2-11.699c2.7-.2 5.5-.1 8.2.5 1 .2 1.7 1.2 1.5 2.3-.2 1-1.2 1.7-2.3 1.5-2.9-.6-5.8-.7-8.6-.3.3-1.301.7-2.701 1.2-4z" fill="#142664"/><path d="M200.695 23.451c-1.5 0-3-.8-3.8-2.2-.9-1.6-.7-3.6.4-5 .6-.9 1.2-1.9.6-3.3l-.1-.1c-1.6-3.4-3.2-7.1-4.3-9.5-.4-.8-.3-1.7.3-2.4.5-.7 1.4-1.1 2.3-.9 4.1.6 10.1 1.4 12.8 1.8.8.1 1.5.6 1.9 1.4 1 2.2 3.9 8.5 5.1 11.3.3.6.3 1.4 0 2-.6 1.8-1.9 5.4-.7 8.6 1.3 3.1 2 6.5 2 10 0 14.4-11.7 26.1-26.1 26.1-2.1 0-3.8-1.7-3.8-3.8s1.7-3.8 3.8-3.8c10.2 0 18.4-8.3 18.4-18.4 0-2.3-.4-4.6-1.2-6.6-1.3-3.399-4.1-5.1-7.6-5.2zm-200.5 87.2c.2-1.2.4-2.3.5-3.2.1-.7.4-1.3 1-1.7 1.4-1.2 4.4-3.7 4.9-7.1.4-3.3 1.5-6.6 3.3-9.7 7.2-12.5 23.2-16.7 35.6-9.5 1.8 1.1 2.5 3.4 1.4 5.2s-3.4 2.5-5.2 1.4c-8.8-5.1-20.1-2.1-25.2 6.7-1.2 2-1.9 4.2-2.2 6.3-.5 3.5 1.2 6.3 4 8.2 1.3.8 2.2 2.2 2.2 3.8 0 1.9-1.2 3.5-2.8 4.1-.8.4-1.6.8-1.9 1.7-.8 1.6-1.6 2.3-3.1 1.9l-.6-.2c-.7-.3-2-.7-3.5-1.1l-6-1.9c-2.5-1-2.8-2.2-2.5-4 0-.2.1-.5.1-.7v-.2z" fill="#ff2e93"/><path d="M90.595 116.651c.3-1.1.5-2.4.5-3.6h11.1v.2c0 1.2-.1 2.3-.3 3.5h-11.3zm108.5-65c1.4 1.8 2.9 4 4.2 6.4-1.1.6-2.3 1.1-3.5 1.5-1.4-2.7-3.1-4.9-4.6-6.6 1.4-.199 2.7-.699 3.9-1.3zm-36.9 65h-15.6l-3.6-3.6h15.6z" fill="#142664"/></svg></g><g transform="translate(497.0 707.0) rotate(-44.702420426629416 49.5 46.5) scale(5.84070796460177 5.961538461538462)"><svg width="16.95" height="15.6" viewBox="0 0 16.95 15.6"><path d="M11.825 1.9c-.7-1.2-2-1.9-3.4-1.9s-2.7.7-3.4 1.9c-1.4 2.4-3.1 5.3-4.5 7.8-.7 1.2-.7 2.7 0 3.9s2 2 3.4 2h9.1c1.4 0 2.7-.8 3.4-2s.7-2.7 0-3.9c-1.5-2.5-3.2-5.4-4.6-7.8z" fill="#ff2e93"/></svg></g><g transform="translate(627.0 667.0) rotate(80.78349320052747 49.5 46.5) scale(5.84070796460177 5.961538461538462)"><svg width="16.95" height="15.6" viewBox="0 0 16.95 15.6"><path d="M11.825 1.9c-.7-1.2-2-1.9-3.4-1.9s-2.7.7-3.4 1.9c-1.4 2.4-3.1 5.3-4.5 7.8-.7 1.2-.7 2.7 0 3.9s2 2 3.4 2h9.1c1.4 0 2.7-.8 3.4-2s.7-2.7 0-3.9c-1.5-2.5-3.2-5.4-4.6-7.8z" fill="#ff2e93"/></svg></g><g transform="translate(513.0 641.0) rotate(-5.378656943937805 120.5 30.5) scale(4.809803217179579 4.656488549618321)"><svg width="50.106" height="13.1" viewBox="0 0 50.106 13.1"><g fill="#142664"><path d="M2.4 11.6C1.1 11.6 0 10.5 0 9.2V2.4C0 1.1 1.1 0 2.4 0s2.4 1.1 2.4 2.4v6.8c0 1.3-1.1 2.4-2.4 2.4zm45.3 0c-1.3 0-2.4-1.1-2.4-2.4V2.4c0-1.3 1.1-2.4 2.4-2.4s2.4 1.1 2.4 2.4v6.8c.1 1.3-1 2.4-2.4 2.4zm-16-6.1c.3 0 .7.2.9.4.2.3.3.6.2 1-.8 3.6-4 6.2-7.7 6.2-3.8 0-7-2.7-7.7-6.2-.1-.3 0-.7.2-.9.2-.3.5-.4.9-.4 2.9-.1 10.2-.1 13.2-.1z"/></g></svg></g><g transform="translate(690.0 740.0) rotate(12.271107547952914 7.5 7.5) scale(0.7075471698113208 0.7075471698113208)"><svg width="21.2" height="21.2" viewBox="0 0 21.2 21.2"><circle cx="10.6" cy="10.6" fill="#142664" r="10.6"/><circle cx="10.6" cy="10.6" fill="#142664" r="4"/></svg></g><g transform="translate(451.0 96.0) rotate(0.0 137.0 158.0) scale(2.1781643003640876 2.1941244679595338)"><svg width="125.794" height="144.021" viewBox="0 0 125.794 144.021"><path d="M89.342 69.777c0-14.44-11.706-26.146-26.146-26.146S37.049 55.337 37.049 69.777a26.032 26.032 0 0 0 5.858 16.488h-.005c6.179 8.596 8.529 20.779 9.928 33.854h20.732c1.399-13.075 3.749-25.257 9.928-33.854h-.005a26.037 26.037 0 0 0 5.857-16.488z" fill="#00e6b3"/><g fill="#ff2e93"><path d="M26.656 73.173s-2.098-.166-4.943-.348c-1.493-.032-3.215-.139-4.931-.146-.969.01-2.012.028-2.974.138-3.789.232-6.905.489-6.905.489-.673-.024-1.147.743-1.172 1.561-.018.919.544 1.567 1.143 1.6 0 0 3.147.249 6.887.43.975.092 1.944.082 2.987.064 1.715.006 3.425-.088 4.912-.157a77.286 77.286 0 0 0 4.973-.368c.673.025 1.147-.743 1.172-1.561.011-1.02-.557-1.77-1.149-1.702zm5.59-19.176s-3.043-1.989-7.192-4.648c-2.21-1.341-4.722-2.948-7.276-4.462-1.449-.844-3.013-1.746-4.504-2.497-5.766-3.133-10.542-5.653-10.542-5.653-.99-.613-2.088-.369-2.539.314-.494.775.015 1.828.89 2.383 0 0 4.565 2.983 10.048 6.429 1.407.936 2.856 1.78 4.42 2.682 2.554 1.514 5.15 2.936 7.402 4.185a231.402 231.402 0 0 0 7.601 4.057c.99.613 2.088.369 2.54-.314.536-.868.07-2.013-.848-2.476zm10.942-18.789s-.885-1.889-2.123-4.429c-.705-1.302-1.457-2.837-2.293-4.318-.484-.83-1.011-1.719-1.58-2.493-2.061-3.148-3.813-5.704-3.813-5.704-.309-.591-1.209-.62-1.931-.236-.807.439-1.095 1.244-.83 1.776 0 0 1.328 2.834 3.006 6.144.399.885.883 1.714 1.41 2.604.836 1.48 1.757 2.905 2.547 4.152 1.492 2.373 2.761 4.1 2.761 4.1.309.591 1.209.62 1.931.236.893-.496 1.265-1.356.915-1.832zm21.402 1.216s.166-3.652.348-8.605c.032-2.6.139-5.596.146-8.583-.01-1.686-.028-3.502-.138-5.177-.232-6.595-.489-12.02-.489-12.02C64.481.868 63.714.042 62.896 0c-.919-.031-1.567.947-1.6 1.989 0 0-.249 5.479-.43 11.988-.092 1.697-.082 3.384-.064 5.199-.006 2.986.088 5.962.157 8.55.121 4.919.368 8.657.368 8.657-.025 1.171.743 1.997 1.561 2.039 1.02.022 1.77-.967 1.702-1.998zm20.968.42s1.174-1.724 2.728-4.084c.761-1.27 1.699-2.699 2.546-4.174.467-.839.963-1.746 1.339-2.63 1.658-3.377 2.964-6.188 2.964-6.188.351-.567-.083-1.356-.781-1.782-.789-.47-1.629-.307-1.951.192 0 0-1.761 2.587-3.754 5.717-.558.794-1.025 1.633-1.521 2.54-.847 1.474-1.604 2.993-2.274 4.308-1.281 2.494-2.121 4.465-2.121 4.465-.351.567.083 1.356.781 1.782.882.516 1.812.398 2.044-.146zm9.75 20s3.212-1.702 7.546-4.048c2.243-1.286 4.864-2.708 7.424-4.211 1.439-.86 2.985-1.793 4.364-2.735 5.53-3.532 10.045-6.494 10.045-6.494 1.015-.571 1.333-1.649.953-2.375-.44-.807-1.607-.871-2.516-.373 0 0-4.818 2.554-10.485 5.687-1.5.779-2.939 1.639-4.485 2.572-2.56 1.503-5.06 3.089-7.242 4.456-4.151 2.59-7.227 4.692-7.227 4.692-1.015.57-1.333 1.649-.953 2.375.5.888 1.728 1.034 2.576.454zm3.91 19.635s2.098.166 4.943.348c1.493.032 3.215.139 4.931.146.969-.01 2.012-.028 2.974-.138 3.789-.232 6.905-.489 6.905-.489.672.024 1.147-.743 1.171-1.561.018-.919-.544-1.567-1.143-1.6 0 0-3.147-.249-6.887-.43-.975-.092-1.944-.082-2.987-.064-1.715-.006-3.425.088-4.912.157a77.286 77.286 0 0 0-4.973.368c-.673-.025-1.147.743-1.172 1.561-.01 1.021.558 1.77 1.15 1.702z"/></g><path d="M66.94 119.514h-7.495a1.001 1.001 0 0 1-.989-1.143c.028-.201 2.872-20.21.047-28.198l-.05-.139c-1.43-4.04-3.33-9.796-3.33-13.134 0-3.924 1.724-6.269 3.39-6.269 1.286 0 2.316 1.103 3.226 2.076.407.436 1.165 1.248 1.458 1.275.301-.038 1.076-.859 1.54-1.349.999-1.056 2.031-2.148 3.313-2.148 1.429 0 3.098 1.61 3.098 6.146 0 2.928-1.538 7.893-2.556 11.178-.297.958-.545 1.756-.685 2.286-2.123 8.044.006 28.11.027 28.312a1.003 1.003 0 0 1-.994 1.107zm-6.35-2h5.244c-.428-4.414-1.806-20.561.14-27.93.145-.548.4-1.375.708-2.367.922-2.978 2.466-7.961 2.466-10.586 0-3.193-.933-4.102-1.116-4.148-.402.001-1.303.955-1.842 1.524-.96 1.016-1.867 1.975-2.996 1.975-1.133 0-2.04-.971-2.917-1.91-.536-.574-1.347-1.441-1.764-1.441-.322.096-1.39 1.343-1.39 4.269 0 3.381 2.42 10.22 3.216 12.467l.049.14c2.617 7.397.782 23.533.202 28.007z" fill="#142664"/><path d="M63.196 144.021c-7.382 0-13.366-5.984-13.366-13.366V120.29a3 3 0 0 1 3-3h20.732a3 3 0 0 1 3 3v10.366c0 7.381-5.984 13.365-13.366 13.365z" fill="#142664"/><path d="M63.135 129.255c-4.896 0-9.466-.651-12.865-1.834a.999.999 0 1 1 .656-1.889c3.148 1.095 7.599 1.723 12.209 1.723 4.58 0 9.01-.621 12.153-1.704a1 1 0 0 1 .651 1.891c-3.394 1.169-7.941 1.813-12.804 1.813zm0 6.109c-4.896 0-9.465-.651-12.865-1.834a1 1 0 0 1 .656-1.889c3.148 1.095 7.599 1.723 12.209 1.723 4.581 0 9.011-.621 12.152-1.704a1 1 0 1 1 .652 1.891c-3.392 1.169-7.94 1.813-12.804 1.813z" fill="#ff2e93"/></svg></g><g transform="translate(1209.0 191.0) rotate(0.0 155.5 167.5) scale(1.2814807489451479 1.2864378727309733)"><svg width="242.688" height="260.409" viewBox="0 0 242.688 260.409"><g fill="#142664"><path d="m6.672 258.359-4.622-4.622a7 7 0 0 1 0-9.9l103.514-103.514a6.999 6.999 0 0 1 9.899 0l4.622 4.622a6.999 6.999 0 0 1 0 9.899L16.571 258.359a7 7 0 0 1-9.899 0z"/><path d="m236.016 258.359 4.622-4.622a7 7 0 0 0 0-9.9L137.124 140.324a6.999 6.999 0 0 0-9.899 0l-4.622 4.622a6.999 6.999 0 0 0 0 9.899l103.514 103.514a7 7 0 0 0 9.899 0zM117.8 137.39h6.536a7 7 0 0 0 7-7V7a7 7 0 0 0-7-7H117.8a7 7 0 0 0-7 7v123.39a7 7 0 0 0 7 7z"/><circle cx="121.068" cy="139.341" r="112.803"/></g><circle cx="121.068" cy="139.341" fill="#00e6b3" r="60"/><circle cx="121.068" cy="139.341" fill="#ff2e93" r="24"/></svg></g><g transform="translate(682.0 626.0) rotate(-30.038527602453605 428.5 144.5) translate(170.0 0.0) scale(1.7130509697627514 1.7054272714933996)"><svg width="399.871" height="169.459" viewBox="99.238 0 399.871 169.459"><path d="M416.475 169.459c-32.227.003-68.646-14.237-108.304-29.74-42.658-16.675-91.008-35.575-141.59-38.937-57.711-3.836-109.821 13.18-159.303 52.02a4.5 4.5 0 1 1-5.556-7.079c51.307-40.273 105.431-57.907 165.456-53.921 51.968 3.455 101.005 22.623 144.27 39.535 32.143 12.565 62.503 24.433 89.245 27.987 28.861 3.836 50.685-2.439 68.695-19.747 12.183-11.717 19.358-25.596 21.326-41.25 4.288-34.172-17.516-71.3-41.27-90.314a4.5 4.5 0 0 1 5.625-7.026c24.916 19.945 49.493 59.264 44.574 98.462-2.23 17.75-10.312 33.434-24.019 46.617-17.605 16.918-37.427 23.391-59.149 23.393z" fill="#142664"/></svg></g><g transform="translate(1297.0 132.0) rotate(0.0 15.5 15.5) scale(2.0394736842105265 2.0394736842105265)"><svg width="15.2" height="15.2" viewBox="0 0 15.2 15.2"><path d="M5.8 5.8c.2-2.5.4-4.4.4-4.4C6.2.6 6.8 0 7.6 0S9 .6 9 1.4c0 0 .3 2 .4 4.4.5 0 .9.1 1.3.1 1.8.1 3.1.3 3.1.3.8 0 1.4.6 1.4 1.4S14.6 9 13.8 9c0 0-1.3.2-3.1.3-.4 0-.8.1-1.3.1 0 .5-.1.9-.1 1.3-.1 1.8-.3 3.1-.3 3.1 0 .8-.6 1.4-1.4 1.4s-1.4-.6-1.4-1.4c0 0-.2-1.3-.3-3.1 0-.4-.1-.9-.1-1.3C3.4 9.2 1.4 9 1.4 9 .6 9 0 8.4 0 7.6s.6-1.4 1.4-1.4c0 0 1.9-.3 4.4-.4z" fill="#142664"/></svg></g><g transform="translate(1478.0 211.0) rotate(0.0 19.0 19.0) scale(2.5 2.5)"><svg width="15.2" height="15.2" viewBox="0 0 15.2 15.2"><path d="M5.8 5.8c.2-2.5.4-4.4.4-4.4C6.2.6 6.8 0 7.6 0S9 .6 9 1.4c0 0 .3 2 .4 4.4.5 0 .9.1 1.3.1 1.8.1 3.1.3 3.1.3.8 0 1.4.6 1.4 1.4S14.6 9 13.8 9c0 0-1.3.2-3.1.3-.4 0-.8.1-1.3.1 0 .5-.1.9-.1 1.3-.1 1.8-.3 3.1-.3 3.1 0 .8-.6 1.4-1.4 1.4s-1.4-.6-1.4-1.4c0 0-.2-1.3-.3-3.1 0-.4-.1-.9-.1-1.3C3.4 9.2 1.4 9 1.4 9 .6 9 0 8.4 0 7.6s.6-1.4 1.4-1.4c0 0 1.9-.3 4.4-.4z" fill="#142664"/></svg></g><g transform="translate(1196.0 206.0) rotate(0.0 19.0 19.0) scale(2.5 2.5)"><svg width="15.2" height="15.2" viewBox="0 0 15.2 15.2"><path d="M5.8 5.8c.2-2.5.4-4.4.4-4.4C6.2.6 6.8 0 7.6 0S9 .6 9 1.4c0 0 .3 2 .4 4.4.5 0 .9.1 1.3.1 1.8.1 3.1.3 3.1.3.8 0 1.4.6 1.4 1.4S14.6 9 13.8 9c0 0-1.3.2-3.1.3-.4 0-.8.1-1.3.1 0 .5-.1.9-.1 1.3-.1 1.8-.3 3.1-.3 3.1 0 .8-.6 1.4-1.4 1.4s-1.4-.6-1.4-1.4c0 0-.2-1.3-.3-3.1 0-.4-.1-.9-.1-1.3C3.4 9.2 1.4 9 1.4 9 .6 9 0 8.4 0 7.6s.6-1.4 1.4-1.4c0 0 1.9-.3 4.4-.4z" fill="#142664"/></svg></g><g transform="translate(1426.0 166.0) rotate(0.0 11.5 11.5) scale(2.2549019607843137 2.2549019607843137)"><svg width="10.2" height="10.2" viewBox="0 0 10.2 10.2"><path d="M3.4 3.4c.2-1.1.3-2 .3-2C3.7.6 4.3 0 5.1 0s1.4.6 1.4 1.4c0 0 .2.8.3 2h.1c1.1.1 1.9.3 1.9.3.8 0 1.4.6 1.4 1.4s-.6 1.4-1.4 1.4c0 0-.8.2-1.9.3h-.1v.1c-.1 1.1-.3 1.9-.3 1.9 0 .8-.6 1.4-1.4 1.4s-1.4-.6-1.4-1.4c0 0-.2-.8-.3-1.9v-.1c-1.1-.2-2-.3-2-.3C.6 6.5 0 5.9 0 5.1s.6-1.4 1.4-1.4c0 .1.8-.1 2-.3z" fill="#142664"/></svg></g><g transform="translate(1270.0 199.0) rotate(0.0 11.5 11.5) scale(2.2549019607843137 2.2549019607843137)"><svg width="10.2" height="10.2" viewBox="0 0 10.2 10.2"><path d="M3.4 3.4c.2-1.1.3-2 .3-2C3.7.6 4.3 0 5.1 0s1.4.6 1.4 1.4c0 0 .2.8.3 2h.1c1.1.1 1.9.3 1.9.3.8 0 1.4.6 1.4 1.4s-.6 1.4-1.4 1.4c0 0-.8.2-1.9.3h-.1v.1c-.1 1.1-.3 1.9-.3 1.9 0 .8-.6 1.4-1.4 1.4s-1.4-.6-1.4-1.4c0 0-.2-.8-.3-1.9v-.1c-1.1-.2-2-.3-2-.3C.6 6.5 0 5.9 0 5.1s.6-1.4 1.4-1.4c0 .1.8-.1 2-.3z" fill="#142664"/></svg></g><g transform="translate(449.0 92.0) rotate(0.0 138.0 89.5) scale(4.5388764636232075 4.589743589743589)"><svg width="60.808" height="39" viewBox="0 0 60.808 39"><g fill="#ff2e93"><path d="M31.804 17.4s.2-1.7.3-4c.1-1.2.2-2.6.2-4 0-.8 0-1.6-.1-2.4-.2-3.1-.4-5.6-.4-5.6 0-.8-.6-1.4-1.4-1.4s-1.4.6-1.4 1.4c0 0-.3 2.5-.4 5.6 0 .8-.1 1.6-.1 2.4 0 1.4.1 2.8.2 4 .1 2.3.3 4 .3 4 0 .8.6 1.4 1.4 1.4s1.4-.6 1.4-1.4zm-15.8 8.6s-1.4-1-3.3-2.3c-1-.7-2.2-1.4-3.4-2.1-.7-.4-1.4-.8-2.1-1.1-2.7-1.4-5.1-2.4-5.1-2.4-.7-.4-1.5-.2-1.9.5s-.2 1.5.5 1.9c0 0 2.1 1.5 4.6 3.2.7.4 1.3.9 2 1.3 1.2.7 2.4 1.3 3.5 1.9 2.1 1 3.6 1.7 3.6 1.7.7.4 1.5.2 1.9-.5.6-.9.4-1.7-.3-2.1zm5.5-9.3s-.3-.8-.7-1.9c-.2-.6-.5-1.2-.9-1.8-.2-.4-.4-.7-.7-1-.9-1.3-1.8-2.2-1.8-2.2-.4-.7-1.3-.9-1.9-.5-.7.4-.9 1.3-.5 1.9 0 0 .4 1.2 1 2.6.2.4.3.7.5 1.1.4.6.8 1.2 1.1 1.6.7.9 1.3 1.6 1.3 1.6.4.7 1.3.9 1.9.5.8-.3 1.1-1.2.7-1.9zm-9.2 19s-.8-.2-2-.3c-.6-.1-1.3-.2-2-.2-.4 0-.8 0-1.2.1-1.6.2-2.8.4-2.8.4-.8 0-1.4.6-1.4 1.4s.6 1.4 1.4 1.4c0 0 1.2.3 2.8.4.4 0 .8.1 1.2.1.7 0 1.4-.1 2-.2 1.2-.1 2-.3 2-.3.8 0 1.4-.6 1.4-1.4s-.6-1.4-1.4-1.4zm32.2-7.6c.4.7 1.2.9 1.9.5 0 0 1.5-.7 3.6-1.7 1.1-.6 2.3-1.2 3.5-1.9.7-.4 1.3-.9 2-1.3 2.5-1.7 4.6-3.2 4.6-3.2.7-.4.9-1.2.5-1.9s-1.2-.9-1.9-.5c0 0-2.4 1-5.1 2.4-.7.3-1.4.7-2.1 1.1-1.2.7-2.4 1.4-3.4 2.1-1.9 1.3-3.3 2.3-3.3 2.3-.7.4-.9 1.2-.3 2.1zm-5.2-11.4c-.4.7-.1 1.6.7 1.9.6.4 1.5.2 1.9-.5 0 0 .6-.7 1.3-1.6.3-.4.7-1 1.1-1.6.2-.4.3-.7.5-1.1.6-1.4 1-2.6 1-2.6.4-.6.2-1.5-.5-1.9-.6-.4-1.5-.2-1.9.5 0 0-.9.9-1.8 2.2-.3.3-.5.6-.7 1-.4.6-.7 1.2-.9 1.8-.4 1.1-.7 1.9-.7 1.9zm7.8 20.4c0 .8.6 1.4 1.4 1.4 0 0 .8.2 2 .3.6.1 1.3.2 2 .2.4 0 .8-.1 1.2-.1 1.6-.1 2.8-.4 2.8-.4.8 0 1.4-.6 1.4-1.4s-.6-1.4-1.4-1.4c0 0-1.2-.2-2.8-.4-.4-.1-.8-.1-1.2-.1-.7 0-1.4.1-2 .2-1.2.1-2 .3-2 .3-.8 0-1.4.6-1.4 1.4z"/></g></svg></g><g transform="translate(1136.0 335.0) rotate(-90.00000000000009 47.5 23.0) scale(3.209459459459459 3.161512027491409)"><svg width="29.6" height="14.55" viewBox="0 0 29.6 14.55"><g fill="#142664"><path d="M16.45 10s.2-.9.4-2.1c.1-.6.2-1.4.2-2.1 0-.4 0-.8-.1-1.3-.2-1.6-.5-2.9-.5-2.9 0-.9-.7-1.6-1.6-1.6s-1.6.7-1.6 1.6c0 0-.3 1.3-.5 2.9 0 .4-.1.8-.1 1.3 0 .7.1 1.4.2 2.1.2 1.2.4 2.1.4 2.1 0 .9.7 1.6 1.6 1.6s1.6-.7 1.6-1.6zm9.7 4s.4-.1 1-.5c.3-.2.6-.3.9-.6.2-.2.3-.3.4-.5.5-.7.7-1.4.7-1.4.6-.6.6-1.6 0-2.3-.6-.6-1.6-.6-2.3 0 0 0-.6.2-1.4.7-.2.1-.4.2-.5.4-.3.3-.4.6-.6.9l-.5 1c-.6.6-.6 1.6 0 2.3.7.7 1.7.7 2.3 0zm-20.4-2.2s-.1-.4-.5-1c-.2-.3-.3-.6-.6-.9-.2-.2-.3-.3-.5-.4-.7-.5-1.4-.7-1.4-.7-.6-.6-1.6-.6-2.3 0-.6.6-.6 1.6 0 2.3 0 0 .2.6.7 1.4.1.2.2.4.4.5.3.3.6.4.9.6l1 .5c.6.6 1.6.6 2.3 0 .6-.7.6-1.7 0-2.3z"/></g></svg></g><g transform="translate(1359.0 568.0) rotate(-9.637894084047394 10.0 10.0) scale(0.7194244604316546 0.7194244604316546)"><svg width="27.8" height="27.8" viewBox="0 0 27.8 27.8"><circle cx="13.9" cy="13.9" fill="#142664" r="13.9"/><circle cx="13.9" cy="13.9" fill="#142664" r="5.8"/></svg></g><g transform="translate(1347.0 604.0) rotate(-9.637894084047394 10.0 10.0) scale(0.7194244604316546 0.7194244604316546)"><svg width="27.8" height="27.8" viewBox="0 0 27.8 27.8"><circle cx="13.9" cy="13.9" fill="#142664" r="13.9"/><circle cx="13.9" cy="13.9" fill="#142664" r="5.8"/></svg></g><g transform="translate(1320.0 631.0) rotate(-9.637894084047394 10.0 10.0) scale(0.7194244604316546 0.7194244604316546)"><svg width="27.8" height="27.8" viewBox="0 0 27.8 27.8"><circle cx="13.9" cy="13.9" fill="#142664" r="13.9"/><circle cx="13.9" cy="13.9" fill="#142664" r="5.8"/></svg></g><g transform="translate(1282.0 641.0) rotate(-9.637894084047394 10.0 10.0) scale(0.7194244604316546 0.7194244604316546)"><svg width="27.8" height="27.8" viewBox="0 0 27.8 27.8"><circle cx="13.9" cy="13.9" fill="#142664" r="13.9"/><circle cx="13.9" cy="13.9" fill="#142664" r="5.8"/></svg></g><g transform="translate(1240.0 640.0) rotate(-9.637894084047394 10.0 10.0) scale(0.7194244604316546 0.7194244604316546)"><svg width="27.8" height="27.8" viewBox="0 0 27.8 27.8"><circle cx="13.9" cy="13.9" fill="#142664" r="13.9"/><circle cx="13.9" cy="13.9" fill="#142664" r="5.8"/></svg></g><g transform="translate(1197.0 634.0) rotate(-9.637894084047394 10.0 10.0) scale(0.7194244604316546 0.7194244604316546)"><svg width="27.8" height="27.8" viewBox="0 0 27.8 27.8"><circle cx="13.9" cy="13.9" fill="#142664" r="13.9"/><circle cx="13.9" cy="13.9" fill="#142664" r="5.8"/></svg></g><g transform="translate(1154.0 630.0) rotate(-9.637894084047394 10.0 10.0) scale(0.7194244604316546 0.7194244604316546)"><svg width="27.8" height="27.8" viewBox="0 0 27.8 27.8"><circle cx="13.9" cy="13.9" fill="#142664" r="13.9"/><circle cx="13.9" cy="13.9" fill="#142664" r="5.8"/></svg></g><g transform="translate(1111.0 629.0) rotate(-9.637894084047394 10.0 10.0) scale(0.7194244604316546 0.7194244604316546)"><svg width="27.8" height="27.8" viewBox="0 0 27.8 27.8"><circle cx="13.9" cy="13.9" fill="#142664" r="13.9"/><circle cx="13.9" cy="13.9" fill="#142664" r="5.8"/></svg></g><g transform="translate(1066.0 635.0) rotate(-9.637894084047394 10.0 10.0) scale(0.7194244604316546 0.7194244604316546)"><svg width="27.8" height="27.8" viewBox="0 0 27.8 27.8"><circle cx="13.9" cy="13.9" fill="#142664" r="13.9"/><circle cx="13.9" cy="13.9" fill="#142664" r="5.8"/></svg></g><g transform="translate(1022.0 647.0) rotate(-9.637894084047394 10.0 10.0) scale(0.7194244604316546 0.7194244604316546)"><svg width="27.8" height="27.8" viewBox="0 0 27.8 27.8"><circle cx="13.9" cy="13.9" fill="#142664" r="13.9"/><circle cx="13.9" cy="13.9" fill="#142664" r="5.8"/></svg></g><g transform="translate(979.0 662.0) rotate(-9.637894084047394 10.0 10.0) scale(0.7194244604316546 0.7194244604316546)"><svg width="27.8" height="27.8" viewBox="0 0 27.8 27.8"><circle cx="13.9" cy="13.9" fill="#142664" r="13.9"/><circle cx="13.9" cy="13.9" fill="#142664" r="5.8"/></svg></g><g transform="translate(1352.0 531.0) rotate(-9.637894084047394 10.0 10.0) scale(0.7194244604316546 0.7194244604316546)"><svg width="27.8" height="27.8" viewBox="0 0 27.8 27.8"><circle cx="13.9" cy="13.9" fill="#142664" r="13.9"/><circle cx="13.9" cy="13.9" fill="#142664" r="5.8"/></svg></g><g transform="translate(940.0 683.0) rotate(-9.637894084047394 10.0 10.0) scale(0.7194244604316546 0.7194244604316546)"><svg width="27.8" height="27.8" viewBox="0 0 27.8 27.8"><circle cx="13.9" cy="13.9" fill="#142664" r="13.9"/><circle cx="13.9" cy="13.9" fill="#142664" r="5.8"/></svg></g><g transform="translate(61.0 751.0) rotate(0.0 136.0 -101.0) translate(0.0 -59.0) scale(3.338693245283482 -3.3127787982156915)"><svg width="81.469" height="43.166" viewBox="0 17.81 81.469 43.166"><g fill="#142664"><path d="M68.933 29.883s-1.7-.127-4.011-.256c-1.21 0-2.607-.08-4-.054a19.188 19.188 0 0 0-2.405.194c-3.063.3-5.58.617-5.58.617-.546-.012-.912.764-.913 1.582.006.919.476 1.556.962 1.578 0 0 2.554.191 5.587.3a17.572 17.572 0 0 0 2.42.009c1.389-.026 2.771-.153 3.974-.249 2.285-.174 4.019-.461 4.019-.461.545.012.912-.765.912-1.583-.01-1.017-.487-1.76-.965-1.677zm9.978 27.452s-4.691-.2-11.051-.426c-3.34-.056-7.189-.19-11.025-.224-2.166-.005-4.5 0-6.652.092-8.474.172-15.444.379-15.444.379-1.5-.035-2.571.726-2.631 1.543-.046.918 1.206 1.575 2.544 1.618 0 0 7.036.3 15.4.539 2.179.107 4.346.112 6.678.111 3.836.033 7.659-.035 10.985-.08 6.321-.077 11.124-.29 11.124-.29 1.5.035 2.571-.725 2.631-1.543.03-1.019-1.234-1.778-2.559-1.719zm-37.49-26.819s-2.726-.1-6.42-.2c-1.938.013-4.174-.043-6.4 0-1.257.038-2.609.087-3.855.227-4.909.344-8.946.694-8.946.694a1.583 1.583 0 0 0 .036 3.161s4.088.155 8.943.225c1.267.062 2.523.024 3.876-.025 2.225-.045 4.44-.191 6.368-.3 3.663-.206 6.442-.517 6.442-.517a1.636 1.636 0 0 0-.045-3.262zM59.369.012s-4.095 0-9.645.031c-2.911.082-6.27.107-9.613.232-1.887.084-3.919.182-5.79.366-7.373.522-13.434 1.017-13.434 1.017-1.312.028-2.207.831-2.222 1.65 0 .919 1.122 1.524 2.289 1.511 0 0 6.143.008 13.437-.1 1.9.017 3.79-.067 5.822-.165 3.342-.125 6.669-.35 9.564-.534 5.5-.337 9.676-.749 9.676-.749 1.312-.027 2.207-.83 2.222-1.649a1.961 1.961 0 0 0-2.306-1.61zm-52.98 31.31s-.648-.151-1.526-.313c-.46-.022-.991-.117-1.518-.111a2.832 2.832 0 0 0-.911.159c-1.158.258-2.109.537-2.109.537-.208-.02-.336.751-.324 1.569.015.918.2 1.563.387 1.591 0 0 .973.227 2.126.382a2.568 2.568 0 0 0 .919.043 9.418 9.418 0 0 0 1.505-.192 8.023 8.023 0 0 0 1.519-.4c.207.02.335-.751.324-1.568-.02-1.019-.212-1.769-.392-1.697z"/></g></svg></g><g transform="translate(-42.0 910.0) rotate(0.0 127.0 -94.5) translate(0.0 -151.0) scale(3.11775030993384 -3.099580162686959)"><svg width="81.469" height="12.26" viewBox="0 48.716 81.469 12.26"><g fill="#142664"><path d="M68.933 29.883s-1.7-.127-4.011-.256c-1.21 0-2.607-.08-4-.054a19.188 19.188 0 0 0-2.405.194c-3.063.3-5.58.617-5.58.617-.546-.012-.912.764-.913 1.582.006.919.476 1.556.962 1.578 0 0 2.554.191 5.587.3a17.572 17.572 0 0 0 2.42.009c1.389-.026 2.771-.153 3.974-.249 2.285-.174 4.019-.461 4.019-.461.545.012.912-.765.912-1.583-.01-1.017-.487-1.76-.965-1.677zm9.978 27.452s-4.691-.2-11.051-.426c-3.34-.056-7.189-.19-11.025-.224-2.166-.005-4.5 0-6.652.092-8.474.172-15.444.379-15.444.379-1.5-.035-2.571.726-2.631 1.543-.046.918 1.206 1.575 2.544 1.618 0 0 7.036.3 15.4.539 2.179.107 4.346.112 6.678.111 3.836.033 7.659-.035 10.985-.08 6.321-.077 11.124-.29 11.124-.29 1.5.035 2.571-.725 2.631-1.543.03-1.019-1.234-1.778-2.559-1.719zm-37.49-26.819s-2.726-.1-6.42-.2c-1.938.013-4.174-.043-6.4 0-1.257.038-2.609.087-3.855.227-4.909.344-8.946.694-8.946.694a1.583 1.583 0 0 0 .036 3.161s4.088.155 8.943.225c1.267.062 2.523.024 3.876-.025 2.225-.045 4.44-.191 6.368-.3 3.663-.206 6.442-.517 6.442-.517a1.636 1.636 0 0 0-.045-3.262zM59.369.012s-4.095 0-9.645.031c-2.911.082-6.27.107-9.613.232-1.887.084-3.919.182-5.79.366-7.373.522-13.434 1.017-13.434 1.017-1.312.028-2.207.831-2.222 1.65 0 .919 1.122 1.524 2.289 1.511 0 0 6.143.008 13.437-.1 1.9.017 3.79-.067 5.822-.165 3.342-.125 6.669-.35 9.564-.534 5.5-.337 9.676-.749 9.676-.749 1.312-.027 2.207-.83 2.222-1.649a1.961 1.961 0 0 0-2.306-1.61zm-52.98 31.31s-.648-.151-1.526-.313c-.46-.022-.991-.117-1.518-.111a2.832 2.832 0 0 0-.911.159c-1.158.258-2.109.537-2.109.537-.208-.02-.336.751-.324 1.569.015.918.2 1.563.387 1.591 0 0 .973.227 2.126.382a2.568 2.568 0 0 0 .919.043 9.418 9.418 0 0 0 1.505-.192 8.023 8.023 0 0 0 1.519-.4c.207.02.335-.751.324-1.568-.02-1.019-.212-1.769-.392-1.697z"/></g></svg></g><g transform="translate(420.0 1173.0) rotate(-21.012404644216733 428.0 -143.5) translate(0.0 -0.0) scale(1.7110520771492594 -1.693625006638774)"><svg width="305.66" height="169.459" viewBox="0 0 305.66 169.459"><path d="M416.475 169.459c-32.227.003-68.646-14.237-108.304-29.74-42.658-16.675-91.008-35.575-141.59-38.937-57.711-3.836-109.821 13.18-159.303 52.02a4.5 4.5 0 1 1-5.556-7.079c51.307-40.273 105.431-57.907 165.456-53.921 51.968 3.455 101.005 22.623 144.27 39.535 32.143 12.565 62.503 24.433 89.245 27.987 28.861 3.836 50.685-2.439 68.695-19.747 12.183-11.717 19.358-25.596 21.326-41.25 4.288-34.172-17.516-71.3-41.27-90.314a4.5 4.5 0 0 1 5.625-7.026c24.916 19.945 49.493 59.264 44.574 98.462-2.23 17.75-10.312 33.434-24.019 46.617-17.605 16.918-37.427 23.391-59.149 23.393z" fill="#142664"/></svg></g></svg>