<svg xmlns="http://www.w3.org/2000/svg" viewBox="0 0 1500 1500" width="1500" height="1500"><g transform="translate(65.0 35.0) rotate(0.0 675.0 694.5) scale(1.0684420215872774 1.06789473279567)"><svg width="1263.522" height="1300.69" viewBox="0 0 1263.522 1300.69"><path d="m802.273 1245.82-802-294v44.77a20.4 20.4 0 0 0 12.073 18.638c230.936 103.051 489.463 196.829 778.774 284.324a26.648 26.648 0 0 0 25.26-5.472c138.066-120.941 255.413-220.632 383-320.438a12.733 12.733 0 0 0 4.89-10.022c1.835-15.577 1.559-33.1 0-51.8-148.287 109.029-272.954 211.696-401.997 334zm456.414-948.266a15.015 15.015 0 0 0-9.472-13.322C986.528 180.306 728.954 89.778 459.058.736A14.621 14.621 0 0 0 445.222 3.3a173.854 173.854 0 0 0-35.949 27.52c263.782 119.853 517.507 220.261 798 299-24.092 206.967-16.6 383.852 8 570a186.133 186.133 0 0 0 37.411-31.024 10.468 10.468 0 0 0 3.773-7.641c7.524-191.806 10.193-372.485 2.23-563.601z" fill="#00aee0"/><path d="M1204.261 901.657 411.915 614.589a12.267 12.267 0 0 1-8.079-10.88c-9.622-181.429-9.1-370.106-.358-564.659a12.261 12.261 0 0 1 16.808-10.819q394.937 157.817 792.136 286.739a12.243 12.243 0 0 1 8.483 12.136c-6.954 178.994-6.266 367.477-.208 562.625a12.268 12.268 0 0 1-16.436 11.926z" fill="#04294f"/><path d="M1165.805 853.744 459.6 590.294a10.826 10.826 0 0 1-7.109-9.605c-8.466-160.182-11.994-311.764-4.3-483.533.333-7.442 7.154-11.021 14.08-8.336 240.425 93.217 475.354 180 708.72 258.944a10.882 10.882 0 0 1 7.464 10.714c-6.119 158.032-3.52 312.442 1.81 484.737a10.8 10.8 0 0 1-14.46 10.529z" fill="#fff"/><path d="M796.945 1252.12c-288.03-90.873-556.293-187.707-787.218-284.283-10.15-4.245-13.454-17.017-4.59-25.1C131.862 827.192 268.093 715.68 397.672 616.851a15.214 15.214 0 0 1 14.412-2.2l783.422 283.765a15.226 15.226 0 0 1 4.255 26.257c-141.6 112.076-271.912 220.477-388.088 324.281a15.226 15.226 0 0 1-14.728 3.166z" fill="#04294f"/><path d="M1195.773 899.32c-.1.281-2.942-.389-8.273-1.922s-13.148-3.929-23.186-7.1c-20.081-6.325-49.021-15.828-84.71-27.787-35.674-12-78.1-26.447-125.08-42.873-23.506-8.168-48.122-16.909-73.649-25.95-25.5-9.12-51.9-18.566-78.88-28.408C694.027 726.037 596.9 688.8 527.009 660.809l-24.92-10-22.168-9.068c-13.834-5.677-25.728-10.617-35.4-14.771-9.682-4.134-17.173-7.409-22.217-9.719s-7.639-3.656-7.528-3.931 2.921.533 8.171 2.324 12.94 4.564 22.809 8.219l35.925 13.409 47.527 17.874c70.416 26.53 167.813 62.84 275.727 102.063l78.782 28.558 73.45 26.411 124.432 44.6c35.425 12.69 64.058 23.066 83.8 30.362 9.87 3.656 17.512 6.562 22.661 8.624s7.809 3.276 7.713 3.556z" fill="#00aee0"/><ellipse cx="826.829" cy="200.834" fill="#fff" rx="10.283" ry="13.704" transform="matrix(.17945471 -.98376624 .98376624 .17945471 480.881 978.202)"/><g fill="#00aee0"><ellipse cx="826.51" cy="200.731" rx="7.913" ry="10.546" transform="matrix(.17945471 -.98376624 .98376624 .17945471 480.72 977.804)"/><ellipse cx="789.592" cy="190.806" rx="7.184" ry="8.374" transform="matrix(.25127546 -.96791562 .96791562 .25127546 406.499 907.118)"/><path d="m554.023 1115.494-227.771-83.182a11.706 11.706 0 0 1-3.526-19.949l93.979-79.173a11.706 11.706 0 0 1 11.558-2.043l227.771 83.182a11.706 11.706 0 0 1 3.526 19.949l-93.979 79.172a11.706 11.706 0 0 1-11.558 2.044zm155.391-152.301-219.064-79.3a14.782 14.782 0 0 1-4.477-25.2l21.727-18.3a14.786 14.786 0 0 1 14.572-2.589l219.065 79.3a14.784 14.784 0 0 1 4.477 25.2l-21.728 18.3a14.783 14.783 0 0 1-14.572 2.589zM559.838 817.865l-35.046-12.737a10.558 10.558 0 0 1-3.2-18l29.186-24.588a10.559 10.559 0 0 1 10.409-1.848l35.045 12.737a10.557 10.557 0 0 1 3.2 18l-29.186 24.588a10.557 10.557 0 0 1-10.408 1.848zm-118.747 47.501-29.433-10.7a13.147 13.147 0 0 1-3.979-22.41l24.621-20.735a13.146 13.146 0 0 1 12.961-2.3l29.432 10.7a13.146 13.146 0 0 1 3.979 22.409l-24.618 20.74a13.146 13.146 0 0 1-12.963 2.296zm-75.671-27.799-96.142-35.023a10.646 10.646 0 0 1-3.215-18.145l29.037-24.463a10.645 10.645 0 0 1 10.5-1.861l96.146 35.025a10.647 10.647 0 0 1 3.215 18.146l-29.038 24.463a10.645 10.645 0 0 1-10.503 1.858zm102.464-132.184-49.147-17.9a9.59 9.59 0 0 1-2.9-16.345l11.134-9.379a9.592 9.592 0 0 1 9.461-1.677l49.147 17.9a9.589 9.589 0 0 1 2.9 16.344l-11.133 9.38a9.591 9.591 0 0 1-9.462 1.677zm84.849 31.131-46.1-16.795a10.993 10.993 0 0 1-3.32-18.737l8.657-7.293a11 11 0 0 1 10.846-1.922l46.105 16.795a10.994 10.994 0 0 1 3.32 18.737l-8.657 7.293a10.99 10.99 0 0 1-10.851 1.922zm91.542 33.463-48.927-17.823a9.691 9.691 0 0 1-2.927-16.517l10.955-9.229a9.69 9.69 0 0 1 9.561-1.694l48.927 17.823a9.692 9.692 0 0 1 2.927 16.518l-10.955 9.228a9.69 9.69 0 0 1-9.561 1.694zm91.966 34.281-49.454-18.016a9.447 9.447 0 0 1-2.854-16.1l11.384-9.59a9.447 9.447 0 0 1 9.321-1.652l49.455 18.015a9.448 9.448 0 0 1 2.853 16.1l-11.384 9.59a9.449 9.449 0 0 1-9.321 1.653zm91.106 32.668-54.522-19.861a7.11 7.11 0 0 1-2.147-12.118l15.508-13.065a7.108 7.108 0 0 1 7.014-1.242l54.522 19.86a7.109 7.109 0 0 1 2.147 12.117l-15.508 13.065a7.111 7.111 0 0 1-7.014 1.244zm84.858 29.874-50.852-18.524a8.8 8.8 0 0 1-2.659-15l12.521-10.548a8.8 8.8 0 0 1 8.685-1.539l50.852 18.511a8.8 8.8 0 0 1 2.659 15l-12.522 10.548a8.8 8.8 0 0 1-8.684 1.552zm84.024 31.269-51.612-18.8a8.452 8.452 0 0 1-2.553-14.4l13.14-11.07a8.452 8.452 0 0 1 8.339-1.478l51.612 18.8a8.451 8.451 0 0 1 2.553 14.405l-13.14 11.07a8.452 8.452 0 0 1-8.339 1.473zm88.929 32.838-47.895-17.447a10.168 10.168 0 0 1-3.071-17.33l10.114-8.52a10.167 10.167 0 0 1 10.031-1.778l47.895 17.447a10.168 10.168 0 0 1 3.07 17.33l-10.113 8.52a10.168 10.168 0 0 1-10.031 1.778zm-608.48-142.365L354.775 744.3a11.313 11.313 0 0 1-3.429-19.286L379.2 701.55a11.31 11.31 0 0 1 11.148-1.982l121.9 44.245a11.313 11.313 0 0 1 3.429 19.286l-27.851 23.461a11.315 11.315 0 0 1-11.148 1.982zm158.951 57.482-34.547-12.555a10.788 10.788 0 0 1-3.266-18.389l28.784-24.246a10.788 10.788 0 0 1 10.635-1.889l34.544 12.555a10.787 10.787 0 0 1 3.265 18.388l-28.78 24.246a10.788 10.788 0 0 1-10.635 1.89zm84.571 31.088-32.966-11.981a11.516 11.516 0 0 1-3.486-19.631l27.494-23.162a11.518 11.518 0 0 1 11.354-2.017l32.969 11.979a11.517 11.517 0 0 1 3.486 19.632L731.557 875.1a11.515 11.515 0 0 1-11.357 2.012zm85.916 31.567-36.943-13.426a9.682 9.682 0 0 1-2.931-16.5l30.731-25.889a9.68 9.68 0 0 1 9.545-1.7l36.944 13.426a9.683 9.683 0 0 1 2.931 16.5l-30.731 25.889a9.682 9.682 0 0 1-9.546 1.7zm91.678 33.136-35.882-13.041a10.172 10.172 0 0 1-3.08-17.339l29.868-25.161a10.172 10.172 0 0 1 10.028-1.781l35.883 13.04a10.173 10.173 0 0 1 3.079 17.34l-29.867 25.161a10.172 10.172 0 0 1-10.029 1.781zm119.089 43.17L950.89 961.52a10.714 10.714 0 0 1-3.282-18.277l28.869-24.321a10.717 10.717 0 0 1 10.523-1.89l65.992 23.466a10.713 10.713 0 0 1 3.282 18.276l-28.868 24.326a10.715 10.715 0 0 1-10.523 1.885zM785 991.031 752.446 979.2a11.705 11.705 0 0 1-3.543-19.954l27.16-22.881a11.705 11.705 0 0 1 11.54-2.049l32.556 11.832A11.705 11.705 0 0 1 823.7 966.1l-27.16 22.881a11.705 11.705 0 0 1-11.54 2.05zm72.992 27.249-32.741-11.9a11.62 11.62 0 0 1-3.518-19.808l27.311-23.008a11.621 11.621 0 0 1 11.456-2.034l32.741 11.9a11.62 11.62 0 0 1 3.518 19.808l-27.311 23.008a11.62 11.62 0 0 1-11.456 2.034zm83 30-32.741-11.9a11.62 11.62 0 0 1-3.518-19.808l27.311-23.008a11.621 11.621 0 0 1 11.456-2.034l32.741 11.9a11.62 11.62 0 0 1 3.518 19.808l-27.311 23.008a11.62 11.62 0 0 1-11.456 2.034z"/></g><path d="M1252.377 294.787c.471 1.1-.845 2.8-3.162 4.817a132.448 132.448 0 0 1-19.278 12.884c-2.746 1.37-4.823 1.935-5.661 1.078-.821-.837-.214-2.973 1.668-5.654a29.53 29.53 0 0 1 3.74-4.272c.777-.726 1.605-1.479 2.516-2.192.9-.73 1.874-1.428 2.886-2.119a43.259 43.259 0 0 1 3.062-1.856c1.007-.569 2.02-1.046 2.988-1.487a29.564 29.564 0 0 1 5.378-1.822c3.197-.712 5.403-.457 5.863.623zM805.447 1291.3c-2.372 0-4.294-7.533-4.294-16.825s1.922-16.827 4.294-16.827 4.294 7.534 4.294 16.827-1.923 16.825-4.294 16.825z" fill="#04294f"/></svg></g><g transform="translate(903.0 318.0) rotate(0.0 197.0 260.0) scale(3.738140417457305 3.739823365265671)"><svg width="105.4" height="139.044" viewBox="0 0 105.4 139.044"><path d="M90.3 24.982c-7.5-3.3-19.2-8-37.6-14-15-5-25.7-8.2-33.2-10.2-8.8-2.4-17.3.7-18.1 9.6-.7 10.8-1.4 16.5-1.4 41.4 0 26.1.8 29.8 1.5 41.6.6 8.9 1.8 13.9 9.6 18.1l2.7 1.3.6.3a381.261 381.261 0 0 0 37.8 14.3c18.7 6.2 30.7 9.5 38.2 11.3 11.1 1.9 12.8-4 13.3-10.3.8-11 1.7-14.1 1.7-43.3 0-24.6-.6-28.6-1.3-38.6-.8-9.4-4.9-17.1-13.8-21.5z" fill="#10294C"/><path d="M67 63.382c1.1 13.2-5.6 22.8-15.7 19.6s-18.7-13.8-19.8-27-1.9-30.2 15.7-24.3c17.7 5.9 18.7 18.5 19.8 31.7z" fill="#FFB400"/><path d="M52.1 123.082c15.8 5.2 27.2 8.6 35.4 10.7-2.1-23-6.2-44.2-37.2-54.6-27.5-9.2-31.6 10.6-31 31.9 7.8 3.3 18.5 7.3 32.8 12z" fill="#FFB400"/><g fill="#10294C"><path d="M42.9 64.982a8.083 8.083 0 0 1 3.1 0 12.9 12.9 0 0 1 2.8.8 13.047 13.047 0 0 1 2.6 1.4 11.5 11.5 0 0 1 2.3 2.1 1.313 1.313 0 0 1-.3 1.9c-.2.1-.3.2-.5.2a10.751 10.751 0 0 1-3.1.1 8.865 8.865 0 0 1-2.8-.7 12.272 12.272 0 0 1-2.6-1.2 7.4 7.4 0 0 1-2.3-2 1.533 1.533 0 0 1 .3-2.3c0-.2.2-.3.5-.3zm-.5-15.2a3.815 3.815 0 0 1 1.1 1.4 2.2 2.2 0 0 1 .2 1.4 3.708 3.708 0 0 1-.4 1.4 5.263 5.263 0 0 1-1.2 1.4 1.951 1.951 0 0 1-2.3 0 4.071 4.071 0 0 1-1.2-1.4 3.255 3.255 0 0 1-.4-1.4 3.4 3.4 0 0 1 .2-1.4 3.6 3.6 0 0 1 1.1-1.4 2.264 2.264 0 0 1 2.9 0zm15.4 5.4a3.142 3.142 0 0 1 1.1 1.4 2.2 2.2 0 0 1 .2 1.4 3.708 3.708 0 0 1-.4 1.4 5.263 5.263 0 0 1-1.2 1.4 1.951 1.951 0 0 1-2.3 0 4.071 4.071 0 0 1-1.2-1.4 5.732 5.732 0 0 1-.4-1.4 3.4 3.4 0 0 1 .2-1.4 3.6 3.6 0 0 1 1.1-1.4 2.561 2.561 0 0 1 2.9 0z"/></g><path d="M31 51.682c-.3 4.1-6.4-12.5 0-22.5 4.8-7.7 11.4-9.7 14.8-8.8 9.1 2.5 5.1 8.3 12.4 10.9s18.4 20.6 8.8 32.1c0 0 .1-14.5-7.6-20.1-4.2-3-9.6 5.1-18.9.3-8.3-4.3-9 1-9.5 8.1z" fill="#fff"/><path d="m51.3 87.882.8 23.1a3.653 3.653 0 0 1-7.3.3v-.3l.8-23.1a2.82 2.82 0 0 1 3-2.7 2.9 2.9 0 0 1 2.7 2.7z" fill="#f04e23"/></svg></g><g transform="translate(672.0 271.0) rotate(0.0 123.0 132.0) scale(4.16243654822335 4.074074074074074)"><svg width="59.1" height="64.8" viewBox="0 0 59.1 64.8"><path d="M49.7 38.5v4.2l-12 2.3v-3.1l-3.1-1 10.9-27.1 4.2 1.3V4.7l-9.4-3.1v3.9L13.7 7.9V5L0 0v17l13.7 4.9v-8.5L40.3 11v1.1l-10.8 27L18 35.2v22.9l19.7 6.7V50.5l12-2.2v.6l9.4 3.1V41.5z" fill="#0daddd"/></svg></g><g transform="translate(174.0 777.0) rotate(0.0 108.0 159.0) scale(1.183302289909061 1.1875686213000516)"><svg width="182.54" height="267.774" viewBox="0 0 182.54 267.774"><path d="M181.829 259.683c-.01.02-.02.03-.03.05-.15.19-.29.38-.43.56-.05.06-.11.11-.16.17l-.54.47-7.33 5.83a4.642 4.642 0 0 1-4.51.72l-8.64-3.19-.87-.32-1.73-.64-9.64-3.56-19.31-7.13-69.739-25.76L19.969 212.5l-6.76-2.5-10.16-3.75a4.653 4.653 0 0 1-1.29-8.01l7.44-5.91c.07-.05.14-.11.21-.16a4.639 4.639 0 0 1 4.3-.57l1.44.53 96.83 35.76 23.87 8.82 4.55 1.68 4.95 1.83 25.77 9.51 3.13 1.16 5.25 1.94a4.663 4.663 0 0 1 2.33 6.853z" fill="#00aee0"/><path d="M168.077 259.483 14.832 203.325a3.879 3.879 0 0 1-2.543-3.641V13.033A13.021 13.021 0 0 1 29.791.807l134.957 49.456a13.021 13.021 0 0 1 8.541 12.226v193.353a3.878 3.878 0 0 1-5.212 3.641z" fill="#ffb400"/><g fill="#f04e23"><path d="M172.789 253.393c-1.186-.006-2.161-19.555-2.78-51.156s-.881-75.255-.639-123.471l.051-8.985.007-1.115-.027-.917c.009-.592-.1-1.174-.149-1.759a17.2 17.2 0 0 0-.876-3.4 16.742 16.742 0 0 0-9.32-9.667L128.51 41.405c-19.53-7.413-37.077-14.2-51.771-20.015C47.352 9.758 29.38 2.006 29.789.893s19.123 4.623 49.05 14.8c14.963 5.088 32.729 11.285 52.412 18.29l15.108 5.4 7.8 2.805 3.955 1.427 1.991.72c.693.259 1.258.433 2.109.793A25.115 25.115 0 0 1 176.378 59.6a25.638 25.638 0 0 1 1.345 5.139 26.615 26.615 0 0 1 .242 2.662l.035 1.308v1.114q-.018 4.466-.039 8.986c-.241 48.216-.941 91.865-1.877 123.458s-2.11 51.133-3.295 51.126z"/><path d="M74.294 57.393a4.993 4.993 0 0 1-4.165-2.227C57.45 36.149 47.055 35.755 28.551 42.065a5 5 0 1 1-3.228-9.465c12.415-4.233 21.075-5.144 28.958-3.047 8.95 2.382 16.629 8.758 24.168 20.066a5 5 0 0 1-4.155 7.774z"/><path d="M62.292 69.394a5 5 0 0 1-4.534-2.887c-5.252-11.254-12.631-14.08-24.674-9.447a5 5 0 0 1-3.59-9.334C50.892 39.5 61.6 51.1 66.82 62.278a5 5 0 0 1-4.528 7.116z"/><path d="M50.283 79.393a5 5 0 0 1-4.946-4.306 19.721 19.721 0 0 0-1.037-4.435 16.577 16.577 0 0 0-2.363 2.157 5 5 0 1 1-7.3-6.833c1.7-1.813 6.86-7.328 12.815-5.444 5.572 1.763 7.113 8.359 7.788 13.166a5 5 0 0 1-4.958 5.7z"/></g><path d="M106.789 105.393a6.5 6.5 0 0 1-6.5-6.5v-34a6.5 6.5 0 0 1 13 0v34a6.5 6.5 0 0 1-6.5 6.5zm0 61a6.5 6.5 0 0 1-6.5-6.5v-34a6.5 6.5 0 0 1 13 0v34a6.5 6.5 0 0 1-6.5 6.5zm0 59a6.5 6.5 0 0 1-6.5-6.5v-34a6.5 6.5 0 0 1 13 0v34a6.5 6.5 0 0 1-6.5 6.5zm34 17a6.5 6.5 0 0 1-6.5-6.5v-164a6.5 6.5 0 0 1 13 0v164a6.5 6.5 0 0 1-6.5 6.5z" fill="none"/></svg></g><g transform="translate(191.0 802.0) rotate(0.0 92.5 122.5) scale(1.7552182163187855 1.7620321624809412)"><svg width="105.4" height="139.044" viewBox="0 0 105.4 139.044"><path d="M90.3 24.982c-7.5-3.3-19.2-8-37.6-14-15-5-25.7-8.2-33.2-10.2-8.8-2.4-17.3.7-18.1 9.6-.7 10.8-1.4 16.5-1.4 41.4 0 26.1.8 29.8 1.5 41.6.6 8.9 1.8 13.9 9.6 18.1l2.7 1.3.6.3a381.261 381.261 0 0 0 37.8 14.3c18.7 6.2 30.7 9.5 38.2 11.3 11.1 1.9 12.8-4 13.3-10.3.8-11 1.7-14.1 1.7-43.3 0-24.6-.6-28.6-1.3-38.6-.8-9.4-4.9-17.1-13.8-21.5z" fill="#ffb400"/><path d="M67 63.382c1.1 13.2-5.6 22.8-15.7 19.6s-18.7-13.8-19.8-27-1.9-30.2 15.7-24.3c17.7 5.9 18.7 18.5 19.8 31.7z" fill="#10294c"/><path d="M52.1 123.082c15.8 5.2 27.2 8.6 35.4 10.7-2.1-23-6.2-44.2-37.2-54.6-27.5-9.2-31.6 10.6-31 31.9 7.8 3.3 18.5 7.3 32.8 12z" fill="#10294c"/><g fill="#ffb400"><path d="M42.9 64.982a8.083 8.083 0 0 1 3.1 0 12.9 12.9 0 0 1 2.8.8 13.047 13.047 0 0 1 2.6 1.4 11.5 11.5 0 0 1 2.3 2.1 1.313 1.313 0 0 1-.3 1.9c-.2.1-.3.2-.5.2a10.751 10.751 0 0 1-3.1.1 8.865 8.865 0 0 1-2.8-.7 12.272 12.272 0 0 1-2.6-1.2 7.4 7.4 0 0 1-2.3-2 1.533 1.533 0 0 1 .3-2.3c0-.2.2-.3.5-.3zm-.5-15.2a3.815 3.815 0 0 1 1.1 1.4 2.2 2.2 0 0 1 .2 1.4 3.708 3.708 0 0 1-.4 1.4 5.263 5.263 0 0 1-1.2 1.4 1.951 1.951 0 0 1-2.3 0 4.071 4.071 0 0 1-1.2-1.4 3.255 3.255 0 0 1-.4-1.4 3.4 3.4 0 0 1 .2-1.4 3.6 3.6 0 0 1 1.1-1.4 2.264 2.264 0 0 1 2.9 0zm15.4 5.4a3.142 3.142 0 0 1 1.1 1.4 2.2 2.2 0 0 1 .2 1.4 3.708 3.708 0 0 1-.4 1.4 5.263 5.263 0 0 1-1.2 1.4 1.951 1.951 0 0 1-2.3 0 4.071 4.071 0 0 1-1.2-1.4 5.732 5.732 0 0 1-.4-1.4 3.4 3.4 0 0 1 .2-1.4 3.6 3.6 0 0 1 1.1-1.4 2.561 2.561 0 0 1 2.9 0z"/></g><path d="M31 51.682c-.3 4.1-6.4-12.5 0-22.5 4.8-7.7 11.4-9.7 14.8-8.8 9.1 2.5 5.1 8.3 12.4 10.9s18.4 20.6 8.8 32.1c0 0 .1-14.5-7.6-20.1-4.2-3-9.6 5.1-18.9.3-8.3-4.3-9 1-9.5 8.1z" fill="#fff"/><path d="m51.3 87.882.8 23.1a3.653 3.653 0 0 1-7.3.3v-.3l.8-23.1a2.82 2.82 0 0 1 3-2.7 2.9 2.9 0 0 1 2.7 2.7z" fill="#f04e23"/></svg></g><g transform="translate(789.0 575.0) rotate(0.0 74.0 100.0) scale(2.9065771126691415 2.9512018769643937)"><svg width="50.919" height="67.769" viewBox="0 0 50.919 67.769"><path d="M43.719 12.1a188.956 188.956 0 0 0-18.2-6.8c-7.3-2.4-12.5-3.9-16.1-4.9-4.2-1.2-8.4.3-8.7 4.7-.3 5.2-.7 9.9-.7 21.9-.1 6.3.2 12.6.7 18.8.3 4.3.9 6.7 4.6 8.8l1.3.6c.1 0 .2.1.3.1q9 3.9 18.3 6.9c9.1 3 14.9 4.6 18.5 5.4 5.4.9 6.2-1.9 6.4-5 .4-5.3.8-5.5.8-19.7 0-11.9-.3-15.7-.6-20.6a11.54 11.54 0 0 0-6.6-10.2z" fill="#F04E23"/><path d="M21.619 54a3.7 3.7 0 0 1-2.9-1.4l-11.4-14.7a3.631 3.631 0 1 1 5.7-4.5l8.2 10.6 15.4-24.4a3.653 3.653 0 0 1 6.3 3.7c0 .1-.1.1-.1.2l-18.2 28.7a3.69 3.69 0 0 1-2.9 1.7h-.1z" fill="#FFF"/></svg></g><g transform="translate(539.0 1060.0) rotate(112.81819696795695 43.5 60.0) scale(1.3005456312130952 1.273209549071618)"><svg width="66.895" height="94.25" viewBox="0 0 66.895 94.25"><g fill="#FFF"><path d="M3.379 16.05a2.485 2.485 0 0 0 .8.1 2.518 2.518 0 0 0 2-.9 23.629 23.629 0 0 1 11.4-7.4 3.092 3.092 0 0 0 1.7-1.5 4.046 4.046 0 0 0-.1-3.4 4.651 4.651 0 0 0-3-2.8 2.208 2.208 0 0 0-1.6 0 28.965 28.965 0 0 0-13.8 9c-1.2 1.4-1 3.7.5 5.4a5.106 5.106 0 0 0 2.1 1.5zm10.7 1.6a4.484 4.484 0 0 0 .4 3.4 4.721 4.721 0 0 0 2.7 2.3 2.485 2.485 0 0 0 .8.1 2.663 2.663 0 0 0 1.2-.3 19.023 19.023 0 0 1 6.7-1.8 2.654 2.654 0 0 0 1.9-1.1 3.948 3.948 0 0 0 .4-3.2 4.688 4.688 0 0 0-3.1-3.3 3.75 3.75 0 0 0-1.1-.1 23.383 23.383 0 0 0-8.6 2.3 4.524 4.524 0 0 0-1.3 1.7zm51.7 6.3-1.2-1.5a45.746 45.746 0 0 0-2.9-3.6 56.633 56.633 0 0 0-23-16.6 35.8 35.8 0 0 0-3.5-1.1 48.16 48.16 0 0 0-5.2-1.1 2.723 2.723 0 0 0-2.4.9 3.522 3.522 0 0 0-.7 2.8 4.865 4.865 0 0 0 3.3 4.1c.1 0 .3.1.4.1a34.348 34.348 0 0 1 4.4.9c.9.3 1.9.6 2.9.9 7.3 2.7 13.7 7.3 19.5 14 .8.9 1.5 1.9 2.4 3 .4.6.9 1.1 1.3 1.7a5.028 5.028 0 0 0 2.2 1.6 2.485 2.485 0 0 0 .8.1 2.732 2.732 0 0 0 1.9-.8c1.3-1.3 1.2-3.6-.2-5.4zm-2.2 33.9v-1.1a42.837 42.837 0 0 0-3.2-15.4 51.078 51.078 0 0 0-8.1-13.7 42.107 42.107 0 0 0-11.7-9.7 9.143 9.143 0 0 0-1.4-.7 1.421 1.421 0 0 0-.6-.2 2.2 2.2 0 0 0-.8-.1 2.734 2.734 0 0 0-2.7 2.6 5 5 0 0 0 2.7 4.9c.3.2.6.3.9.5a33.31 33.31 0 0 1 9.2 7.5 38.6 38.6 0 0 1 6.4 10.9 35.294 35.294 0 0 1 2.5 12.1v.7l.1 3.6a12.75 12.75 0 0 0 .1 2 4.85 4.85 0 0 0 3.3 4.4 2.2 2.2 0 0 0 .8.1 2.732 2.732 0 0 0 1.9-.8 3.069 3.069 0 0 0 .8-2.4 12.1 12.1 0 0 0-.1-1.9zm-28-3.2a17.7 17.7 0 0 0-.1-2.3l-.1-2.2a4.507 4.507 0 0 0-3.1-4.2 2.745 2.745 0 0 0-2.6.6 2.648 2.648 0 0 0-.8 2.2v2.2a16.2 16.2 0 0 0 .1 2.2c0 1.4.1 3.3 0 4.7-.2 5.6-1.5 10-4.1 13.4a43.237 43.237 0 0 1-4.5 5c-.7.7-1.5 1.5-2.2 2.3l-.5.5a11.3 11.3 0 0 0-1.1 1.1 3.862 3.862 0 0 0 .5 5 4.069 4.069 0 0 0 1.9 1.3 2.2 2.2 0 0 0 .8.1 2.463 2.463 0 0 0 1.9-.9 2.336 2.336 0 0 1 .7-.7 5.716 5.716 0 0 0 .7-.8l2.1-2.1a52.692 52.692 0 0 0 5-5.6c3.3-4.3 5-10 5.2-17a24.732 24.732 0 0 0 .2-4.8zm-25.3-7.1v-.2c0-.8-.1-1.5-.1-2.3l-.1-3.3c-.1-4.8.7-8.8 2.6-11.9a4.423 4.423 0 0 0-1.2-5.3 4.784 4.784 0 0 0-1.7-1 2.583 2.583 0 0 0-3.1 1.2c-2.4 4.2-3.5 9.4-3.4 15.6 0 1.1 0 2.1.1 3.2a16.95 16.95 0 0 0 .1 2.3v.1a3.4 3.4 0 0 1-.2 1.4 1.8 1.8 0 0 1-.6.9l-.6.6-.6.6c-1.4 1.1-1.5 3.4-.2 5.3a4.3 4.3 0 0 0 2.4 1.8 2.2 2.2 0 0 0 .8.1 2.716 2.716 0 0 0 1.7-.6 13.576 13.576 0 0 0 1.2-1.2l.3-.3a8.251 8.251 0 0 0 2-3.2 7.629 7.629 0 0 0 .6-3.8z"/><path d="M49.279 52.35a22.74 22.74 0 0 0-1.6-7.3 27.447 27.447 0 0 0-6-9.4 19.692 19.692 0 0 0-8.9-5.5l-.7-.2c-4.4-1-8.5-.1-11.4 2.6s-4.4 6.9-4.4 11.8v2.5c0 1.7.1 3.4 0 4.9a14.234 14.234 0 0 1-.8 4.5 11.258 11.258 0 0 1-2.1 3.5c-1 1.1-2 2.1-3.1 3.3l-.8.8c-1.2 1.2-1.1 3.5.2 5.1a4.535 4.535 0 0 0 2.1 1.5 2.747 2.747 0 0 0 2.6-.6l.7-.7c1.1-1.1 2.3-2.3 3.4-3.5a17.077 17.077 0 0 0 3.2-5.3 19.332 19.332 0 0 0 1.2-6.7c.1-1.8 0-3.6 0-5.3v-2.4c0-3.1.9-5.6 2.6-7.1 1.7-1.6 3.9-2.1 6.7-1.4l.4.1a13.548 13.548 0 0 1 6.9 5.1 23.7 23.7 0 0 1 2.3 4.1 13.385 13.385 0 0 1 1 4.4c.1 1.4.1 2.7.1 4.1v4.1c0 7.8-1.5 14.5-4.8 20.4a32.873 32.873 0 0 1-6.1 7.8 3.932 3.932 0 0 0 .1 5.1 3.821 3.821 0 0 0 2.2 1.5 2.2 2.2 0 0 0 .8.1 2.41 2.41 0 0 0 1.8-.7 39.161 39.161 0 0 0 7.1-9.1c3.8-6.8 5.6-14.8 5.6-23.7 0-1.4 0-2.8-.1-4.3-.1-1.2-.1-2.6-.2-4.1z"/></g></svg></g><g transform="translate(591.0 253.0) rotate(0.0 44.5 175.0) scale(2.07585016560153 2.0125583641925617)"><svg width="42.874" height="173.908" viewBox="0 0 42.874 173.908"><path d="M10.638 12.209a30.525 30.525 0 0 1 6 .6 36.175 36.175 0 0 1 5.6 1.7 36.513 36.513 0 0 1 5.3 2.5 24.94 24.94 0 0 1 5 3.5 1.6 1.6 0 0 1 .1 2.3 1.656 1.656 0 0 1-1.2.5 25.15 25.15 0 0 1-6.1-.5q-2.85-.6-5.7-1.5a32.468 32.468 0 0 1-5.4-2.3 24.063 24.063 0 0 1-5-3.3 2.155 2.155 0 0 1-.2-2.9 2.452 2.452 0 0 1 1.6-.6z" fill="#ffb400"/><path d="M14.138 31.609a12.43 12.43 0 0 1 4.3.1 18.226 18.226 0 0 1 4 1.1 18.508 18.508 0 0 1 3.7 1.9 11.5 11.5 0 0 1 3.3 2.9 1.843 1.843 0 0 1-.2 2.5 2.01 2.01 0 0 1-.8.4 13.01 13.01 0 0 1-4.4.1 25.851 25.851 0 0 1-4-.9 18.416 18.416 0 0 1-3.8-1.7 12.665 12.665 0 0 1-3.4-2.7 2.208 2.208 0 0 1 .2-3.1 1.538 1.538 0 0 1 1.1-.6z" fill="#00acdc"/><path d="M14.938 134.809a14.775 14.775 0 0 1 4.2 0 16.569 16.569 0 0 1 3.8 1.1 30.212 30.212 0 0 1 3.6 1.8 14.316 14.316 0 0 1 3.2 2.8 1.76 1.76 0 0 1-.3 2.5 2.01 2.01 0 0 1-.8.4 12.371 12.371 0 0 1-4.3.1 18.32 18.32 0 0 1-3.9-.9 19.639 19.639 0 0 1-3.6-1.6 13.969 13.969 0 0 1-3.3-2.7 2.208 2.208 0 0 1 .2-3.1 2.843 2.843 0 0 1 1.2-.4z" fill="#ffb400"/><path d="M12.338 150.409a22 22 0 0 1 5.7.5 32.38 32.38 0 0 1 5.3 1.6q2.55 1.05 5.1 2.4a22.53 22.53 0 0 1 4.7 3.4 1.72 1.72 0 0 1 .1 2.4 1.606 1.606 0 0 1-1.1.5 22.68 22.68 0 0 1-5.8-.4 32.938 32.938 0 0 1-5.4-1.4 29.057 29.057 0 0 1-5.1-2.2 21.669 21.669 0 0 1-4.7-3.2 1.968 1.968 0 0 1-.2-2.9 1.417 1.417 0 0 1 1.4-.7zm1.2-76.3a15.494 15.494 0 0 1 4.8.2 22.261 22.261 0 0 1 4.4 1.3 22.186 22.186 0 0 1 4.1 2 15.725 15.725 0 0 1 3.8 3 1.85 1.85 0 0 1-.1 2.5 1.8 1.8 0 0 1-.9.4 15.464 15.464 0 0 1-4.8-.1 24.6 24.6 0 0 1-4.5-1.1 26.544 26.544 0 0 1-4.2-1.8 15.328 15.328 0 0 1-3.8-2.9 2.083 2.083 0 0 1 .1-3 1.626 1.626 0 0 1 1.1-.5z" fill="#f04e23"/><path d="M13.638 91.909a14.86 14.86 0 0 1 4.7.2 30.3 30.3 0 0 1 4.3 1.2 18.746 18.746 0 0 1 4 2 14.753 14.753 0 0 1 3.6 3 1.85 1.85 0 0 1-.1 2.5 1.788 1.788 0 0 1-.9.4 18.479 18.479 0 0 1-4.7 0 31.286 31.286 0 0 1-4.4-1 29.968 29.968 0 0 1-4.1-1.8 14.466 14.466 0 0 1-3.7-2.8 2.174 2.174 0 0 1 .1-3 1.523 1.523 0 0 1 1.2-.7z" fill="#00acdc"/><g fill="#ffb400"><path d="M2.838 30.809a57.864 57.864 0 0 0 5.7 16.2c.8 1.3 1.5 2.6 2.4 3.9l.2-.1a28.307 28.307 0 0 1 4.2-1.3c.7-.2 1.3-.3 1.8-.5a50.406 50.406 0 0 1-6-10.3 54.02 54.02 0 0 1-3-9.4 89.256 89.256 0 0 1-2-11.7c-.4-3.4-.7-9.4-.9-12.8-.1-1.2.1-2.6-.6-3.6-.6-.8-1.8-1.6-2.8-1-1 .7-.7 2.2-.7 3.2 0 1.4-.1 2.7-.1 4.1.1 7 .4 16.5 1.8 23.3zm17.5 91.6a33.9 33.9 0 0 1 5.1-1.7 32.333 32.333 0 0 0 5.9-2.2 18.311 18.311 0 0 0 3.6-2.6 20.719 20.719 0 0 0 5.4-7.7 36.081 36.081 0 0 0 2.5-15.6 53.137 53.137 0 0 0-1.8-12.5 43.826 43.826 0 0 0-9-16.7c-.3.2-.5.3-.8.5a23.135 23.135 0 0 1-3.5 1.8c-.8.3-1.5.6-2.2.8a26.219 26.219 0 0 1 2.2 2.5 31.4 31.4 0 0 1 6.2 12.2 44.017 44.017 0 0 1 1.1 14.9 29.393 29.393 0 0 1-1.7 7.1 16.3 16.3 0 0 1-7 7.9 6.109 6.109 0 0 1-1.4.7h-.1a11.919 11.919 0 0 1-2 .8 4.875 4.875 0 0 1-1.1.4c-1.2.5-2.4.9-3.6 1.4a18.466 18.466 0 0 0-6 3.6c-4.7 4.4-7.3 10.8-8.5 17.1a90.031 90.031 0 0 0-1.6 16.3c0 2 .1 4 .2 6a4.4 4.4 0 0 0 .2 1.6c.3.9 1.5 2 2.4 1.3 1-.6.7-2.8.7-3.7a106.679 106.679 0 0 1 2-14.9 65.879 65.879 0 0 1 2.7-8.6 21.965 21.965 0 0 1 6-8.7 13.4 13.4 0 0 1 3.6-2.2z"/><path d="M12.538 111.609a26.949 26.949 0 0 1 3.8-1.9l1.1-.4a49.432 49.432 0 0 1-3.6-4.4 35.4 35.4 0 0 1-5.1-10.3 42.083 42.083 0 0 1-1.4-15.4 21.624 21.624 0 0 1 2.1-8.2c2.1-4.2 6-6.8 10.4-8.2l.2-.1.5-.1.2-.1.4-.1a38.59 38.59 0 0 0 4.8-1.6 25.5 25.5 0 0 0 5-3 24.46 24.46 0 0 0 6.8-10c2.8-7.1 3.6-15 3.6-22.5v-3.4c0-1.3-.1-2.6-.1-3.9-.1-1.3.1-2.7-.7-3.8a2.294 2.294 0 0 0-2.4-1c-1.2.5-.9 2.3-1 3.3-.1 1.9-.2 3.9-.4 5.8-.6 7.2-1.7 14.6-4.8 21.2a18.44 18.44 0 0 1-6.6 8c-.4.2-.7.4-1.1.6a26.477 26.477 0 0 1-7.3 2.6 21.718 21.718 0 0 0-2.4.7l.1.1c-.1 0-.1-.1-.2-.1a14.763 14.763 0 0 0-2.9 1.2c-.6.3-1.1.6-1.6.9h-.1c-.6.4-1.1.8-1.7 1.2a19.465 19.465 0 0 0-5 6.1c-2.7 5.1-3 15.1-3.1 15.7a41.95 41.95 0 0 0 1.6 13.2 49.28 49.28 0 0 0 10 18.4 2.8 2.8 0 0 0 .9-.5zm28.9 44.8a96.471 96.471 0 0 0-3.2-16.7 60.674 60.674 0 0 0-6.7-15.2 38.8 38.8 0 0 1-4.5 1.4l-1.2.3a21.11 21.11 0 0 1 1.8 2.7c6 9.9 9.1 21.4 10.2 32.9.2 1.5.3 5.4.4 6.9.1 1.2-.1 2.7.4 3.8.3.8 1.3 1.7 2.3 1.3 1.1-.5.8-2.4.8-3.3q.15-7.05-.3-14.1z"/></g></svg></g><g transform="translate(958.0 1131.0) rotate(-136.05791188333376 -81.5 79.5) scale(-1.0089255870956562 1.006985566540213)"><svg width="161.558" height="157.897" viewBox="0 0 161.558 157.897"><path d="M.806 60.625c-2.257 25.193 59.975 92.45 77.685 96 31.5 6.31 67.935-11.506 79.349-37.808 14.291-32.932-14.913-85.749-48.467-106.876C69.785-12.987 6.224.132.806 60.625z" fill="#00AEE0"/><path d="M136.092 109.494c0 35.519-41.4 55.078-75.187 44.117S-.624 104 .011 68.483C.632 33.686 38.305 11.541 72.09 22.5s64.002 49.711 64.002 86.994z" fill="#FFF"/></svg></g><g transform="translate(1088.0 1153.0) rotate(-14.847262711940445 -102.5 118.0) scale(-1.8532246108228319 1.8641684702759918)"><svg width="110.618" height="126.598" viewBox="0 0 110.618 126.598"><path d="M4.463 75.692c15.4-8.6 68.5 32.1 56.4 46.9l-.3.4c-16.1 17.3-75.6-32.5-57-46.8l.1-.1a5.9 5.9 0 0 0 .8-.4z" fill="#ffb400"/><path d="M91.563 1.492c13.9 5.7 21.4 20.1 18.4 29.5a251.833 251.833 0 0 1-10.9 28.9 288.181 288.181 0 0 1-16 31.3 201.41 201.41 0 0 1-20.2 29.1l-2.1 2.4c12.1-14.8-41-55.5-56.4-46.9 7.3-4.7 13.8-10.8 19.8-17.1 8.1-8.4 15.7-17.3 23-26.5 3.4-4.3 6.8-8.7 10.1-13.1 1.6-2.1 3.1-4.1 4.6-6.2.6-.8 1.3-1.6 1.8-2.4 4.6-6.7 16.5-13.6 27.9-9z" fill="#ffb400"/><path d="M13.363 81.692c10-7.3 48.3 22.8 38.7 32.8-11.2 11.8-51.7-23.2-38.7-32.8zm77.5-49c-3.1 6.3-9.7 5.6-16.8 2.2-7-3.4-11.7-8.2-8.7-14.5 3.1-6.3 12.2-10.7 19.2-7.3 7.2 3.4 9.4 13.3 6.3 19.6z" fill="#f04e23"/><path d="M24.163 93.092c3.8-2.8 18.5 8.7 14.8 12.6-4.3 4.4-19.8-9-14.8-12.6z" fill="#fff"/><g fill="#f04e23"><path d="M40.063 51.692a19.725 19.725 0 0 1 4.8.6 33.588 33.588 0 0 1 4.5 1.4 34.964 34.964 0 0 1 8.3 4.5 29.707 29.707 0 0 1 6.8 6.9c.4.7.9 1.4 1.3 2.1s.7 1.5 1.1 2.2l.5 1.1c.1.4.3.8.4 1.2.2.8.4 1.6.6 2.3a1.557 1.557 0 0 1-1.2 1.8 1.741 1.741 0 0 1-1.5-.5l-.1-.1a65.509 65.509 0 0 0-5.8-6 65.07 65.07 0 0 0-6.4-5.1q-3.3-2.25-6.9-4.5c-2.4-1.4-4.9-2.8-7.3-4.3l-.1-.1a2.027 2.027 0 0 1-.7-2.7 1.689 1.689 0 0 1 1.7-.8zm16.2-8a6.025 6.025 0 0 1 3.5-.5 8.356 8.356 0 0 1 3.1 1.2 7.184 7.184 0 0 1 2.4 2.5 5.2 5.2 0 0 1 .8 3.6 1.83 1.83 0 0 1-2.1 1.6h-.1l-.5-.1a23.317 23.317 0 0 1-2.5-.6 13.355 13.355 0 0 1-1.8-.7 6.57 6.57 0 0 1-1.7-1.2 6.684 6.684 0 0 1-1.7-2l-.4-.8a2.139 2.139 0 0 1 .8-2.9z"/></g></svg></g><g transform="translate(426.0 821.0) rotate(0.0 131.5 194.0) scale(1.4407801029911254 1.4489830976868554)"><svg width="182.54" height="267.774" viewBox="0 0 182.54 267.774"><path d="M181.829 259.683c-.01.02-.02.03-.03.05-.15.19-.29.38-.43.56-.05.06-.11.11-.16.17l-.54.47-7.33 5.83a4.642 4.642 0 0 1-4.51.72l-8.64-3.19-.87-.32-1.73-.64-9.64-3.56-19.31-7.13-69.739-25.76L19.969 212.5l-6.76-2.5-10.16-3.75a4.653 4.653 0 0 1-1.29-8.01l7.44-5.91c.07-.05.14-.11.21-.16a4.639 4.639 0 0 1 4.3-.57l1.44.53 96.83 35.76 23.87 8.82 4.55 1.68 4.95 1.83 25.77 9.51 3.13 1.16 5.25 1.94a4.663 4.663 0 0 1 2.33 6.853z" fill="#FFF"/><path d="M168.077 259.483 14.832 203.325a3.879 3.879 0 0 1-2.543-3.641V13.033A13.021 13.021 0 0 1 29.791.807l134.957 49.456a13.021 13.021 0 0 1 8.541 12.226v193.353a3.878 3.878 0 0 1-5.212 3.641z" fill="none"/><g fill="none" fill-opacity="0"><path d="M172.789 253.393c-1.186-.006-2.161-19.555-2.78-51.156s-.881-75.255-.639-123.471l.051-8.985.007-1.115-.027-.917c.009-.592-.1-1.174-.149-1.759a17.2 17.2 0 0 0-.876-3.4 16.742 16.742 0 0 0-9.32-9.667L128.51 41.405c-19.53-7.413-37.077-14.2-51.771-20.015C47.352 9.758 29.38 2.006 29.789.893s19.123 4.623 49.05 14.8c14.963 5.088 32.729 11.285 52.412 18.29l15.108 5.4 7.8 2.805 3.955 1.427 1.991.72c.693.259 1.258.433 2.109.793A25.115 25.115 0 0 1 176.378 59.6a25.638 25.638 0 0 1 1.345 5.139 26.615 26.615 0 0 1 .242 2.662l.035 1.308v1.114q-.018 4.466-.039 8.986c-.241 48.216-.941 91.865-1.877 123.458s-2.11 51.133-3.295 51.126z"/><path d="M74.294 57.393a4.993 4.993 0 0 1-4.165-2.227C57.45 36.149 47.055 35.755 28.551 42.065a5 5 0 1 1-3.228-9.465c12.415-4.233 21.075-5.144 28.958-3.047 8.95 2.382 16.629 8.758 24.168 20.066a5 5 0 0 1-4.155 7.774z"/><path d="M62.292 69.394a5 5 0 0 1-4.534-2.887c-5.252-11.254-12.631-14.08-24.674-9.447a5 5 0 0 1-3.59-9.334C50.892 39.5 61.6 51.1 66.82 62.278a5 5 0 0 1-4.528 7.116z"/><path d="M50.283 79.393a5 5 0 0 1-4.946-4.306 19.721 19.721 0 0 0-1.037-4.435 16.577 16.577 0 0 0-2.363 2.157 5 5 0 1 1-7.3-6.833c1.7-1.813 6.86-7.328 12.815-5.444 5.572 1.763 7.113 8.359 7.788 13.166a5 5 0 0 1-4.958 5.7z"/></g><path d="M106.789 105.393a6.5 6.5 0 0 1-6.5-6.5v-34a6.5 6.5 0 0 1 13 0v34a6.5 6.5 0 0 1-6.5 6.5zm0 61a6.5 6.5 0 0 1-6.5-6.5v-34a6.5 6.5 0 0 1 13 0v34a6.5 6.5 0 0 1-6.5 6.5zm0 59a6.5 6.5 0 0 1-6.5-6.5v-34a6.5 6.5 0 0 1 13 0v34a6.5 6.5 0 0 1-6.5 6.5zm34 17a6.5 6.5 0 0 1-6.5-6.5v-164a6.5 6.5 0 0 1 13 0v164a6.5 6.5 0 0 1-6.5 6.5z" fill="none"/></svg></g></svg>