<svg xmlns="http://www.w3.org/2000/svg" viewBox="0 0 3000 3000" width="3000" height="3000"><g fill-opacity=".47" transform="translate(520.0 366.0) rotate(0.0 1051.0 1071.0) scale(2.4695796427686076 2.465750586220115)"><svg width="851.157" height="868.701" viewBox="0 0 851.157 868.701"><linearGradient id="a" gradientTransform="matrix(.99997051 -.00767937 .00767937 .99997051 -18.269 -22.301)" gradientUnits="userSpaceOnUse" x1="440.297" x2="440.297" y1="1228.338" y2="-33.632"><stop offset="0" stop-color="#c7aeff"/><stop offset="1" stop-color="#fff"/></linearGradient><path d="M814.71 868.683 32.752 843.376c-16.199-.524-29.329-16.805-29.396-36.366L.92 101.002C.853 81.478 13.855 64.595 30.031 63.286L810.803.111c20.152-1.631 36.648 14.82 36.747 36.753l3.606 793.206c.1 21.979-16.261 39.265-36.446 38.612z" fill="url(#a)"/><path d="M38.749 94.734c-.018 6.194-4.185 11.486-9.301 11.821-5.109.334-9.23-4.404-9.212-10.581s4.168-11.468 9.277-11.819c5.116-.351 9.255 4.385 9.237 10.579z" fill="#ff5c67"/><path d="M69.178 92.696c-.018 6.221-4.222 11.538-9.383 11.876-5.154.337-9.312-4.42-9.294-10.625.018-6.204 4.204-11.52 9.358-11.874 5.161-.354 9.337 4.402 9.319 10.623z" fill="#fadf4b"/><path d="M99.876 90.64c-.018 6.249-4.259 11.591-9.466 11.931-5.199.34-9.394-4.437-9.377-10.669.018-6.232 4.241-11.572 9.441-11.929 5.207-.357 9.42 4.418 9.402 10.667z" fill="#88cd9a"/><path d="M.999 125.307a1 1 0 0 1-.062-1.998l846.705-53.365a1 1 0 0 1 .126 1.996L1.063 125.305a1.368 1.368 0 0 1-.064.002z" fill="#0f3336"/></svg></g><g transform="translate(1234.0 1158.0) rotate(0.0 764.0 729.0) scale(1.9974848423843277 1.9989223916324943)"><svg width="764.962" height="729.393" viewBox="0 0 764.962 729.393"><linearGradient id="b" gradientUnits="userSpaceOnUse" x1="0" x2="764.962" y1="364.697" y2="364.697"><stop offset="0" stop-color="#fff"/><stop offset="1" stop-color="#ffbde2"/></linearGradient><path d="m18.041 694.494 727.063 34.878c10.81.519 19.857-8.106 19.857-18.928V18.95c0-10.76-8.948-19.36-19.699-18.935L18.2 28.808C8.034 29.211 0 37.569 0 47.743v627.823c0 10.112 7.941 18.443 18.041 18.928z" fill="url(#b)" opacity=".8"/><g fill="#fff"><path d="M666.52 81.647 81.752 101.186v58.759l584.768-14.082zm0 107.703L81.752 202.041V260.8l584.768-6.743z" opacity=".8"/></g></svg></g><g transform="translate(1184.0 1838.0) rotate(0.0 509.0 409.0) scale(1.9990966753726214 1.9974799519432695)"><svg width="509.23" height="409.516" viewBox="0 0 509.23 409.516"><path d="M508.23 408.516 1 377.188V1l507.23.347z" fill="#fffe8f"/><path d="M508.23 409.516a.992.992 0 0 1-.677-.265L244.565 167.195 1.655 377.943a1 1 0 0 1-1.311-1.51l243.584-211.334a.996.996 0 0 1 1.333.02l263.645 242.662a.998.998 0 0 1-.676 1.735z" fill="#0f3336"/><path d="M508.23 1.347 244.585 227.545 1 1" fill="#fffe8f"/><path d="M244.585 228.545a1 1 0 0 1-.681-.268L.319 1.732A1 1 0 0 1 1.682.267l242.93 225.938L507.579.587a1 1 0 0 1 1.303 1.517l-263.646 226.2a.999.999 0 0 1-.651.241z" fill="#0f3336"/></svg></g><g transform="translate(138.0 712.0) rotate(0.0 643.0 792.0) scale(1.9992320212919765 1.9981280164290527)"><svg width="643.247" height="792.742" viewBox="0 0 643.247 792.742"><linearGradient id="d" gradientUnits="userSpaceOnUse" x1="321.624" x2="321.624" y1="421.899" y2="38.483"><stop offset="0" stop-color="#59b6e3"/><stop offset="1" stop-color="#98e8f5"/></linearGradient><linearGradient id="e" gradientUnits="userSpaceOnUse" x1="168.427" x2="531.493" y1="154.466" y2="312.321"><stop offset="0" stop-color="#c7aeff"/><stop offset="1" stop-color="#fff"/></linearGradient><linearGradient id="c" gradientUnits="userSpaceOnUse" x1="321.624" x2="321.624" y1="783.201" y2="423.229"><stop offset="0" stop-color="#a6ffbb"/><stop offset="1" stop-color="#98e8f5"/></linearGradient><linearGradient xmlns:xlink="http://www.w3.org/1999/xlink" id="f" x1="321.624" x2="321.624" xlink:href="#c" y1="783.628" y2="441.64"/><path d="M307.33 0 1 298.763v473.998l641.248 18.981V273.511z" fill="url(#d)"/><path d="m538.955 661.553-449.206-5.59V86.683L538.955 58.9z" fill="#fff"/><path d="M538.955 662.553h-.012l-449.206-5.59a1 1 0 0 1-.988-1V86.683a1 1 0 0 1 .938-.998l449.206-27.782a.998.998 0 0 1 1.062.999v602.652a1.003 1.003 0 0 1-1 1zm-448.206-7.577 447.206 5.564V59.964L90.749 87.623z" fill="#0f3336"/><path d="m463.968 266.629-299.233 12.498V173.751l299.233-17.055z" fill="url(#e)"/><g fill="#0f3336"><path d="M164.735 359.543a1 1 0 0 1-.025-2l299.233-7.73c.529-.027 1.011.422 1.025.975a.999.999 0 0 1-.974 1.025l-299.233 7.73zm0 62.08a1 1 0 0 1-.02-2l299.233-6.344a1.014 1.014 0 0 1 1.021.979 1 1 0 0 1-.979 1.021l-299.233 6.344zm0 62.08a1 1 0 0 1-.017-2l299.233-4.957c.553.022 1.007.431 1.017.983a1 1 0 0 1-.983 1.017l-299.233 4.957z"/></g><path d="m307.331 573.318 334.917-299.807v518.231L1 772.761V298.763z" fill="url(#c)"/><path d="m1 772.761 277.615-251.533c16.345-14.809 41.213-14.952 57.726-.331l305.906 270.845z" fill="url(#f)"/><path d="M642.247 792.742c-.235 0-.472-.083-.663-.251l-291.05-257.692a1 1 0 0 1 1.327-1.498l291.05 257.692a1 1 0 0 1-.664 1.749zM1 773.761a1 1 0 0 1-.672-1.741l263.109-238.391a1 1 0 1 1 1.343 1.482L1.671 773.502a.998.998 0 0 1-.671.259z" fill="#0f3336"/></svg></g><g transform="translate(2084.0 1628.0) rotate(0.0 297.0 234.0) scale(1.995270469997044 1.9929904651588644)"><svg width="297.704" height="234.823" viewBox="0 0 297.704 234.823"><path d="M296.704 233.823 1 226.933V8.031L296.704 1z" fill="#fff"/><path d="M296.704 234.823h-.023L.976 227.934a1 1 0 0 1-.977-1V8.03c.001-.543.434-.987.977-1L296.68 0c.27-.021.53.096.723.284s.301.446.301.716v232.823a.996.996 0 0 1-1 1zM2 225.957l293.704 6.843V2.025L2 9.007z" fill="#0f3336"/><path d="M1 226.933 144.295 99.65l152.409 134.173z" fill="#fff"/><path d="M296.704 234.823h-.023L.976 227.934a1.001 1.001 0 0 1-.641-1.748L143.63 98.902a1.001 1.001 0 0 1 1.325-.003l152.408 134.174a1.002 1.002 0 0 1-.661 1.751zm-293.14-8.83 290.417 6.767-149.683-131.776z" fill="#0f3336"/><path d="M296.704 1 154.236 126.491a14.98 14.98 0 0 1-19.846-.039L1 8.031z" fill="#fff"/><path d="M144.334 131.223a15.944 15.944 0 0 1-10.608-4.022L.336 8.778a1 1 0 0 1 .64-1.748L296.68 0c.458.02.802.244.955.636s.045.837-.27 1.114L154.897 127.24a15.945 15.945 0 0 1-10.562 3.982zM3.564 8.97l131.49 116.734c5.27 4.679 13.232 4.693 18.52.036L293.981 2.066z" fill="#0f3336"/></svg></g><g transform="translate(2034.0 1566.0) rotate(0.0 297.0 234.0) scale(1.995270469997044 1.9929904651588644)"><svg width="297.704" height="234.823" viewBox="0 0 297.704 234.823"><path d="M296.704 233.823 1 226.933V8.031L296.704 1z" fill="#fff"/><path d="M296.704 234.823h-.023L.976 227.934a1 1 0 0 1-.977-1V8.03c.001-.543.434-.987.977-1L296.68 0c.27-.021.53.096.723.284s.301.446.301.716v232.823a.996.996 0 0 1-1 1zM2 225.957l293.704 6.843V2.025L2 9.007z" fill="#0f3336"/><path d="M1 226.933 144.295 99.65l152.409 134.173z" fill="#fff"/><path d="M296.704 234.823h-.023L.976 227.934a1.001 1.001 0 0 1-.641-1.748L143.63 98.902a1.001 1.001 0 0 1 1.325-.003l152.408 134.174a1.002 1.002 0 0 1-.661 1.751zm-293.14-8.83 290.417 6.767-149.683-131.776z" fill="#0f3336"/><path d="M296.704 1 154.236 126.491a14.98 14.98 0 0 1-19.846-.039L1 8.031z" fill="#fff"/><path d="M144.334 131.223a15.944 15.944 0 0 1-10.608-4.022L.336 8.778a1 1 0 0 1 .64-1.748L296.68 0c.458.02.802.244.955.636s.045.837-.27 1.114L154.897 127.24a15.945 15.945 0 0 1-10.562 3.982zM3.564 8.97l131.49 116.734c5.27 4.679 13.232 4.693 18.52.036L293.981 2.066z" fill="#0f3336"/></svg></g><g transform="translate(1990.0 1486.0) rotate(0.0 297.0 234.0) scale(1.995270469997044 1.9929904651588644)"><svg width="297.704" height="234.823" viewBox="0 0 297.704 234.823"><path d="M296.704 233.823 1 226.933V8.031L296.704 1z" fill="#fff"/><path d="M296.704 234.823h-.023L.976 227.934a1 1 0 0 1-.977-1V8.03c.001-.543.434-.987.977-1L296.68 0c.27-.021.53.096.723.284s.301.446.301.716v232.823a.996.996 0 0 1-1 1zM2 225.957l293.704 6.843V2.025L2 9.007z" fill="#0f3336"/><path d="M1 226.933 144.295 99.65l152.409 134.173z" fill="#fff"/><path d="M296.704 234.823h-.023L.976 227.934a1.001 1.001 0 0 1-.641-1.748L143.63 98.902a1.001 1.001 0 0 1 1.325-.003l152.408 134.174a1.002 1.002 0 0 1-.661 1.751zm-293.14-8.83 290.417 6.767-149.683-131.776z" fill="#0f3336"/><path d="M296.704 1 154.236 126.491a14.98 14.98 0 0 1-19.846-.039L1 8.031z" fill="#fff"/><path d="M144.334 131.223a15.944 15.944 0 0 1-10.608-4.022L.336 8.778a1 1 0 0 1 .64-1.748L296.68 0c.458.02.802.244.955.636s.045.837-.27 1.114L154.897 127.24a15.945 15.945 0 0 1-10.562 3.982zM3.564 8.97l131.49 116.734c5.27 4.679 13.232 4.693 18.52.036L293.981 2.066z" fill="#0f3336"/></svg></g><g transform="translate(2420.0 1408.0) rotate(0.0 159.0 151.0) scale(1.9889046639188928 1.9936888525066345)"><svg width="159.887" height="151.478" viewBox="0 0 159.887 151.478"><linearGradient id="g" gradientTransform="matrix(.98153048 .19130582 -.19130582 .98153048 -768.035 -994.554)" gradientUnits="userSpaceOnUse" x1="987.736" x2="1111.647" y1="940.697" y2="778.33"><stop offset="0" stop-color="#ff5c67"/><stop offset="1" stop-color="#ffadb3"/></linearGradient><path d="M135.417 23.511 123.294 14.4 24.47 127.967l12.124 9.111 73.881 14.4 49.412-56.783z" fill="#ff5c67"/><path d="M123.294 14.4 49.412 0 0 56.783l24.47 71.184 73.881 14.4 49.412-56.783z" fill="url(#g)"/><path d="M94.44 39.066 75.604 92.257c-2.347 6.239-11.437 4.415-11.254-2.193l2.519-56.372c.35-7.834 6.985-13.903 14.82-13.552 9.381.262 15.997 10.164 12.752 18.926z" fill="#fff"/><circle cx="65.794" cy="112.623" fill="#fff" r="9.555" transform="matrix(.2604034 -.96549991 .96549991 .2604034 -60.077 146.819)"/><path d="M98.352 143.367a.959.959 0 0 1-.191-.019l-73.882-14.4a1 1 0 1 1 .383-1.963l73.315 14.29 48.654-55.912-24.283-70.637a1.001 1.001 0 0 1 1.892-.651l24.469 71.184a1 1 0 0 1-.191.981l-49.412 56.783a.999.999 0 0 1-.754.344z" fill="#0f3336"/></svg></g><g transform="translate(1648.0 886.0) rotate(0.0 212.0 195.0) scale(1.9984446067918837 1.9966722129783696)"><svg width="212.165" height="195.325" viewBox="0 0 212.165 195.325"><linearGradient id="h" gradientTransform="matrix(.89112535 -.45375722 .45375722 .89112535 953.353 1279.768)" gradientUnits="userSpaceOnUse" x1="-285.711" x2="-131.102" y1="-1365.732" y2="-1567.434"><stop offset="0" stop-color="#88cd9a"/><stop offset="1" stop-color="#a6ffbb"/></linearGradient><path d="M106.003.499c52.983-5.373 100.29 33.223 105.663 86.206s-33.223 100.29-86.206 105.663c-9.934 1.007-15.349 1.723-15.349 1.723s-85.948-44.881-90.314-87.929C15.39 62.704 91.753 1.944 91.753 1.944l14.25-1.445z" fill="#88cd9a"/><circle cx="96.434" cy="98.391" fill="url(#h)" r="96.426"/><path d="M106.161 195.325a1 1 0 0 1-.1-1.995c52.35-5.309 90.621-52.218 85.312-104.567-5.308-52.35-52.224-90.634-104.566-85.312a1 1 0 0 1-.202-1.991c53.452-5.409 101.339 33.655 106.759 87.101s-33.653 101.339-87.1 106.759a1.18 1.18 0 0 1-.102.005z" fill="#0f3336"/><path d="M113.614 116.629c-.558 5.097-2.015 9.378-4.376 12.843-2.361 3.466-5.771 6.333-10.23 8.603-7.189 3.661-13.656 4.491-19.402 2.488-5.746-2.001-10.565-6.824-14.457-14.468-5.537-10.874-7.009-21.613-4.415-32.216 2.594-10.602 8.532-18.267 17.813-22.993 3.64-1.854 7.184-2.713 10.634-2.578 3.448.135 6.79 1.241 10.025 3.318l.212-8.53 12.148-6.186 10.748 45.922c.12.57.266 1.141.442 1.709.175.571.344 1.014.506 1.332.811 1.593 1.965 2.509 3.462 2.749 1.498.241 3.315-.184 5.454-1.273 1.775-.904 3.396-2.301 4.867-4.197 1.471-1.894 2.63-4.089 3.48-6.585 2.059-5.632 2.863-11.398 2.408-17.298-.455-5.899-2.164-11.76-5.13-17.585-5.56-10.92-14.351-17.745-26.369-20.478-12.02-2.732-24.696-.703-38.026 6.085-6.416 3.267-11.994 7.082-16.734 11.443-4.741 4.363-8.587 9.215-11.539 14.556-5.095 9.126-7.742 18.639-7.944 28.539-.201 9.9 2.061 19.491 6.787 28.773 7.113 13.968 17.504 22.729 31.173 26.282 13.67 3.553 28.376 1.322 44.119-6.694a79.721 79.721 0 0 0 19.898-14.343 80.887 80.887 0 0 0 14.687-19.683l9.662 5.136c-4.297 8.776-9.675 16.471-16.134 23.084-6.46 6.612-13.92 12.073-22.384 16.383-8.736 4.448-17.329 7.434-25.777 8.957-8.45 1.523-16.618 1.571-24.506.145-9.856-1.915-18.366-5.573-25.53-10.979-7.164-5.404-13.062-12.657-17.696-21.757-3.869-7.598-6.365-15.452-7.486-23.562s-.798-16.166.97-24.171c2.54-11.663 7.466-22.021 14.775-31.072 7.309-9.05 16.766-16.53 28.368-22.438 7.688-3.915 15.439-6.558 23.251-7.928 7.811-1.369 15.179-1.44 22.108-.213 8.575 1.65 15.932 4.765 22.075 9.343 6.141 4.58 11.171 10.714 15.085 18.402 3.823 7.507 5.859 15.194 6.112 23.058.252 7.865-1.274 15.474-4.576 22.828-1.888 4.171-4.366 7.882-7.437 11.136-3.07 3.254-6.63 5.911-10.68 7.973-4.823 2.456-8.938 3.348-12.345 2.676-3.408-.672-6.107-2.849-8.097-6.534zm-11.462-30.948c-2.468-3.385-5.207-5.527-8.216-6.431-3.009-.902-6.175-.508-9.496 1.183-5.186 2.641-8.254 7.756-9.204 15.343-.948 7.588.592 15.34 4.624 23.257 2.132 4.187 4.674 6.902 7.629 8.147 2.955 1.246 6.183.977 9.688-.807 3.776-1.923 6.492-5.111 8.151-9.565 1.656-4.453 1.884-9.267.682-14.443l-3.856-16.686z" fill="#fff"/></svg></g><g transform="translate(2222.0 440.0) rotate(0.0 276.0 282.0) scale(1.9957337575472722 1.9977330688580335)"><svg width="276.59" height="282.32" viewBox="0 0 276.59 282.32"><linearGradient id="i" gradientTransform="matrix(-1 -0 -0 1 7677.481 0)" gradientUnits="userSpaceOnUse" x1="7572.023" x2="7404.147" y1="255.677" y2="-329.779"><stop offset="0" stop-color="#ff619e"/><stop offset=".033" stop-color="#ff65a1"/><stop offset=".32" stop-color="#ff8bbd"/><stop offset=".586" stop-color="#ffa6d1"/><stop offset=".821" stop-color="#ffb7dd"/><stop offset="1" stop-color="#ffbde2"/></linearGradient><path d="m8.22 215.355-4.091-7.092L268.325 66.819l4.047 7.115z" fill="#ff619e"/><path d="m1.001 188.016 50.99-170.95C55.762 4.424 69.068-2.768 81.709 1.003l170.95 50.991c8.798 2.624 14.943 9.868 16.604 18.29 6.218 6.001 8.967 15.167 6.326 24.02l-50.99 170.951c-3.771 12.642-17.076 19.833-29.718 16.063l-170.95-50.992c-8.798-2.624-14.943-9.869-16.604-18.29-6.218-6.001-8.967-15.167-6.326-24.02z" fill="url(#i)"/><path d="M194.876 270.733c-2.39 0-4.793-.348-7.147-1.051l-170.951-50.99a24.961 24.961 0 0 1-10.156-5.921 1 1 0 1 1 1.389-1.439 22.628 22.628 0 0 0 9.338 5.444l170.951 50.99a22.737 22.737 0 0 0 17.424-1.798 22.732 22.732 0 0 0 11.049-13.593l50.99-170.95a22.917 22.917 0 0 0 .53-10.956 1.002 1.002 0 0 1 .787-1.175 1.002 1.002 0 0 1 1.175.788 24.951 24.951 0 0 1-.575 11.915l-50.99 170.95c-1.9 6.37-6.167 11.619-12.016 14.78a24.762 24.762 0 0 1-11.799 3.005z" fill="#0f3336"/><path d="m183.501 211.523-4.235-13.732c-2.988-11.562-3.451-20.483-1.437-27.269l9.906-33.377c7.004-23.6-1.345-45.227-20.48-56.489l1.741-5.866c2.088-7.036-1.99-14.557-9.026-16.646-7.037-2.088-14.557 1.99-16.645 9.027l-1.731 5.833c-22.166-1.05-40.897 12.305-47.816 35.62l-9.906 33.377c-2.758 9.293-11.365 18.196-16.087 22.523l-11.207 9.331c-1.256 1.046-1.862 2.721-1.522 4.331s1.537 2.911 3.108 3.377l39.035 11.585c-1.814 10.78 4.642 21.467 15.388 24.657 10.746 3.189 21.987-2.246 26.347-12.271l39.035 11.585c1.571.466 3.283.029 4.447-1.135s1.564-2.882 1.087-4.46z" fill="#fff"/></svg></g></svg>