<svg xmlns="http://www.w3.org/2000/svg" viewBox="0 0 3000 2325" width="3000" height="2325"><g transform="translate(216.0 924.75) rotate(0.0 1303.125 670.5) scale(0.749303525068785 0.7497580478782854)"><svg width="3478.23" height="1788.577" viewBox="0 0 3478.23 1788.577"><path d="M3473.23 1691.239c0-121.41-184.094-254.653-312.868-176.154-52.72-115.84-190.253-211.247-325.823-211.247-168.418 0-335.485 101.475-359.119 263.335-105.282-223.977-345.015-271.279-527.594-274.212-80.655-119.661-217.434-198.362-372.595-198.362-135.275 0-256.577 59.827-338.896 154.463 0 0 10.426-54.749-21.483-96.981-27.898-36.924-69.172-45.552-69.172-45.552.167-6.289.255-12.613.255-18.972 0-129.723-35.053-245.415-89.812-320.786 15.001-44.055 23.512-94.299 23.512-147.649 0-174.221-90.629-315.456-202.426-315.456-22.415 0-43.975 5.69-64.128 16.172C810.436 190.405 732.109 5 588.119 5 436.13 5 336.771 190.405 337.854 319.839c-20.153-10.482-41.713-16.172-64.128-16.172-111.797 0-202.426 141.234-202.426 315.455 0 53.349 8.51 103.594 23.512 147.649C40.053 842.142 5.044 957.834 5 1087.557c-.058 172.144 103.52 330.092 103.52 330.092s-43.91 113.915-42.341 191.226c1.644 81.059 40.081 174.702 40.081 174.702h1130.075v-1.138l2218.856-3.87c11.609-26.77 18.039-56.3 18.039-87.33z" fill="#fff"/><path d="M1236.334 1788.577H106.26a5 5 0 0 1-4.625-3.102c-.388-.944-38.81-95.443-40.455-176.499-1.464-72.165 35.324-173.56 41.776-190.756-5.744-9.129-28.438-46.365-50.82-99.11C28.334 1263.022-.031 1177.321 0 1087.555c.042-125.281 32.548-242.312 89.254-321.623C74.231 720.857 66.3 670.16 66.3 619.123c0-85.207 21.337-165.384 60.081-225.762 39.185-61.064 91.513-94.694 147.345-94.694 20.174 0 40.046 4.434 59.187 13.194.881-38.669 10.31-82.092 26.848-123.259 18.75-46.673 45.391-88.214 77.042-120.131C481.225 23.676 533.549 0 588.119 0c35.148 0 68.254 10.732 98.398 31.9 26.843 18.85 50.853 45.56 71.364 79.389 34.924 57.604 57.09 132.036 59.957 200.656 19.196-8.815 39.134-13.278 59.372-13.278 55.832 0 108.16 33.63 147.345 94.694 38.744 60.378 60.081 140.555 60.081 225.762 0 51.036-7.932 101.733-22.954 146.81 56.747 79.368 89.253 196.4 89.253 321.625 0 4.944-.054 10.011-.162 15.111 11.432 3.237 44.229 14.846 68.068 46.397 22.597 29.908 24.922 65.302 24.025 85.256 40.126-43.165 87.476-77.614 140.948-102.513 60.15-28.009 124.551-42.21 191.417-42.21 150.385 0 290.472 74.117 375.277 198.408 112.301 2.058 210.538 20.409 292.035 54.558 104.701 43.87 182.215 114.02 230.607 208.627 7.02-34.212 20.615-66.52 40.516-96.232 21.495-32.091 49.814-60.44 84.172-84.261 66.84-46.341 150.902-71.861 236.702-71.861 65.469 0 135.34 22.379 196.74 63.014 58.099 38.451 104.531 90.183 131.29 146.14 28.619-16.179 60.707-23.246 95.467-21.026 32.781 2.097 67.039 12.713 99.072 30.702 72.447 40.684 121.122 110.438 121.122 173.572 0 31.035-6.208 61.087-18.453 89.319a5.001 5.001 0 0 1-4.578 3.011l-2215.683 3.864a4.983 4.983 0 0 1-3.183 1.143zm-1126.677-10h1123.501a4.978 4.978 0 0 1 3.167-1.138l2215.554-3.864c10.852-26.094 16.351-53.776 16.351-82.336 0-29.716-11.445-61.368-33.1-91.533-20.75-28.905-50.198-54.944-82.919-73.32-30.733-17.259-63.519-27.439-94.813-29.441-34.629-2.213-66.404 5.323-94.433 22.41a4.999 4.999 0 0 1-7.154-2.198c-25.575-56.195-71.761-108.388-130.052-146.966-59.781-39.563-127.692-61.353-191.221-61.353-83.784 0-165.823 24.888-231.004 70.079-33.325 23.105-60.766 50.562-81.561 81.608-22.001 32.847-35.999 68.972-41.606 107.371a5.001 5.001 0 0 1-4.214 4.224 5.014 5.014 0 0 1-5.259-2.819c-46.691-99.331-124.821-172.513-232.218-217.513-80.945-33.916-178.828-52.026-290.932-53.827a5.002 5.002 0 0 1-4.066-2.205c-82.789-122.826-220.527-196.156-368.449-196.156-65.396 0-128.378 13.887-187.196 41.275-56.843 26.469-106.613 63.973-147.927 111.469a5 5 0 0 1-8.685-4.217c.099-.522 9.58-53.14-20.56-93.031-26.365-34.896-65.816-43.59-66.212-43.674a5.006 5.006 0 0 1-3.969-5.025c.169-6.356.254-12.694.254-18.839 0-124.271-32.387-240.122-88.857-317.848a5 5 0 0 1-.688-4.55c15.207-44.659 23.245-95.158 23.245-146.037 0-171.187-88.565-310.456-197.426-310.456-21.11 0-41.91 5.251-61.82 15.607a4.998 4.998 0 0 1-7.306-4.334c-1.411-69.052-23.375-145.113-58.754-203.467-19.789-32.639-42.855-58.341-68.559-76.39C652.342 20.122 621.17 10 588.119 10c-51.845 0-101.713 22.654-144.215 65.513-30.72 30.979-56.607 71.373-74.864 116.817-17.216 42.855-26.516 88.124-26.187 127.467a4.999 4.999 0 0 1-7.307 4.478c-19.911-10.356-40.711-15.607-61.82-15.607-108.861 0-197.426 139.27-197.426 310.456 0 50.88 8.038 101.379 23.245 146.037a5 5 0 0 1-.688 4.55C42.429 847.379 10.042 963.23 10 1087.559c-.016 48.574 8.863 127.464 51.255 227.443 25.418 59.945 51.189 99.513 51.446 99.905a5.003 5.003 0 0 1 .484 4.539c-.435 1.131-43.538 113.901-42.008 189.326 1.441 71.003 31.934 152.987 38.48 169.805zm3345.533-.008h.01z" fill="#FAE2CE"/></svg></g><g transform="translate(385.5 1503.75) rotate(0.0 534.0 376.875) scale(0.7499662936497236 0.7499798512875773)"><svg width="1424.064" height="1005.027" viewBox="0 0 1424.064 1005.027"><path d="M332.53 106.11h759.005v893.917H332.53z" fill="#fff"/><path d="M1091.534 1005.027H332.53a5 5 0 0 1-5-5V106.11a5 5 0 0 1 5-5h759.004a5 5 0 0 1 5 5v893.917a5 5 0 0 1-5 5zm-754.004-10h749.004V111.11H337.53z" fill="#d2c1f0"/><path d="m1091.534 229.596-764.552 39.899V157.072h764.552z" fill="#d2c1f0"/><path d="M5 5h1414.064v202.22H5z" fill="#fff"/><path d="M1419.064 212.221H5a5 5 0 0 1-5-5V5a5 5 0 0 1 5-5h1414.064a5 5 0 0 1 5 5v202.221a5 5 0 0 1-5 5zM10 202.221h1404.064V10H10z" fill="#d2c1f0"/></svg></g><g transform="translate(243.0 1765.5) rotate(0.0 712.125 250.125) scale(0.7502267668057644 0.7506380986535781)"><svg width="1898.426" height="666.433" viewBox="0 0 1898.426 666.433"><path d="M1898.284 666.433c3.331-19.109-52.86-58.32-52.86-78.287 0-204.948-166.574-323.262-391.031-323.262-184.579 0-297.829 84.156-347.377 238.049-42.179-38.89-100.677-62.997-165.354-62.997-43.64 0-84.456 10.991-119.359 30.071C782.312 170.777 624.077 0 424.315 0 194.719 0 0 242.814 0 608.576c0 19.499.555 38.789 1.597 57.857z" fill="#FAE2CE"/></svg></g><g transform="translate(402.0 126.75) rotate(0.0 1132.125 1067.25) scale(0.7506056559714961 0.7508944244901692)"><svg width="3016.564" height="2842.61" viewBox="0 0 3016.564 2842.61"><path d="M685.584 513.609c-60.367-20.934-125.081 17.357-135.79 80.348l-164.43 1201.699 140.983-31.988L728.474 753.266z" fill="#d6795e"/><path d="M484.114 1744.072s-361.157 31.931-461.589 31.411c-11.675-.061-21.44 8.84-22.402 20.476-1.632 19.757 13.15 37.065 32.921 38.52 63.154.326 193.504 1.379 267.25-1.433 100.451-3.83 199.968-25.07 199.968-25.07l-16.149-63.903z" fill="#d6795e"/><path d="M408.499 1722.144s-42.119 39.706-351.456 44.585c-11.674.184-21.612 8.412-22.805 20.026-2.026 19.721 12.41 37.319 32.148 39.167 62.922 5.892 187.236 10.609 267.468 6.545 33.667-1.705 88.298 1.09 118.126-2.045 59.117-6.214 66.453-64.14 66.453-64.14L408.5 1722.144z" fill="#d6795e"/><path d="M264.06 1835.366h-.012l-197.974-.444c-.654-.003-15.949-.195-26.808-11.703-7.523-7.973-10.965-19.167-10.231-33.273-.045-11.167 5.037-18.402 6.061-19.745 1.675-2.196 4.813-2.621 7.009-.947s2.621 4.808.947 7.005l-.004.006c-.167.219-4.082 5.449-4.012 13.756 0 .104-.001.208-.007.312-.61 11.287 1.892 20.016 7.438 25.946 7.854 8.397 19.542 8.641 19.659 8.643l197.944.444a5 5 0 0 1-.011 10z" fill="#3c191e"/><path d="M424.47 1721.921s-17.81 41.93-206.868 55.826c-11.644.856-21.138 9.542-21.716 21.202-.982 19.8 16.131 36.39 35.939 37.194 63.145 2.563 191.555-3.073 275.166-1.297 16.82.991 23.549-86.557 23.549-86.557z" fill="#d6795e"/><path d="M204.054 1834.785a4.987 4.987 0 0 1-3.617-1.547c-7.866-8.237-15.519-22.837-14.925-34.802.818-16.559 13.955-29.613 31.235-31.039 74.074-6.123 122.44-11.733 125.678-12.189a5.001 5.001 0 0 1 1.982 9.796c-1.292.307-51.917 6.167-126.837 12.359-12.221 1.009-21.503 10.079-22.071 21.568-.433 8.722 5.848 20.782 12.169 27.402a5 5 0 0 1-3.616 8.453zm326.635-92.825-135.894-13.965 2.525-29.822 139.934 10.973z" fill="#3c191e"/><path d="m385.364 1709.537 171.555 30.658 177.14-1012.157c11.168-65.527-41.091-169.367-110.648-174.638-31.375-2.378-60.701 2.253-84.7 28.531-29.118 31.884-50.393 90.049-57.957 134.681l-6.998 42.687-3.838 56.754z" fill="#fae2ce"/><path d="m1902.754 1481.556-863.592-58.43-241.465-105.841-183.734 47.484s-37.274 257.12 29.019 365.019c58.399 95.05 176.402 111.613 176.402 111.613l853.889-1.909 229.48-357.936z" fill="#e51b26"/><path d="m2094.703 1661.49 376.839 337.499c27.412 24.55 68.741 25.087 96.782 1.258l263.499-223.925c83.892-58.924 140.221-155.671 107.454-200.707-10.521-14.46-49.307-22.658-71.222-6.621l-240.562 148c-61.711 32.578-136.857 25.513-191.413-17.998l-158.948-126.766-182.429 89.258z" fill="#d6795e"/><path d="M2621.466 1642.07c52.058-12.734 145.442-46.753 199.582-133.086 23.39-37.299 71.52-50.632 111.233-31.629 25.001 11.963 53.816 31.26 84.283 62.186 0 0-50.989 248.112-262.389 376.244l6.013 32.029-114.309 142.924c-19.22 24.032-52.57 31.606-80.159 17.976-22.312-11.023-48.233-27.518-69.446-51.231-11.396-12.738-10.381-32.286 2.189-43.867 48.174-44.38 156.982-167.144 99.92-329.291-6.384-18.14 4.403-37.686 23.083-42.256z" fill="#3c191e"/><path d="M2532.315 2094.697a5 5 0 0 1-4.326-7.499c.197-.341 20.144-34.717 60.928-87.988 37.582-49.089 101.129-124.842 190.445-206.957 88.381-81.255 132.734-160.432 154.379-212.545 23.345-56.205 25.925-93.467 25.948-93.837a5 5 0 1 1 9.98.63c-.1 1.578-2.714 39.311-26.693 97.043-22.031 53.041-67.125 133.583-156.846 216.071-169.76 156.072-248.702 291.234-249.48 292.581a4.999 4.999 0 0 1-4.335 2.501zm92.108-479.522 8.057 132.339s47.415-.378 47.828-3.472l4.124-134.6c1.611-12.083-9.528-21.95-21.328-18.893l-25.865 6.701a17.172 17.172 0 0 0-12.816 17.926z" fill="#fae2ce"/><circle cx="2657.378" cy="1772.711" fill="#3c191e" r="36.711"/><path d="M2657.403 1735.998v10c6.111 0 11.872 2.024 16.659 5.853 5.572 4.456 9.075 10.815 9.864 17.907.789 7.091-1.231 14.064-5.687 19.636-5.097 6.374-12.709 10.029-20.883 10.029-6.112 0-11.873-2.024-16.66-5.853-5.572-4.456-9.075-10.815-9.864-17.906s1.231-14.065 5.687-19.637c5.097-6.373 12.709-10.028 20.883-10.029v-10m0 0c-10.77 0-21.443 4.718-28.693 13.783-12.664 15.834-10.094 38.936 5.74 51.599a36.552 36.552 0 0 0 22.906 8.043c10.77 0 21.443-4.718 28.693-13.783 12.663-15.833 10.094-38.935-5.74-51.599a36.552 36.552 0 0 0-22.906-8.043z" fill="#fae2ce"/><ellipse cx="2729.898" cy="1614.348" fill="#fae2ce" rx="36.711" ry="21.576" transform="matrix(.62458863 -.78095394 .78095394 .62458863 -235.904 2737.95)"/><ellipse cx="2812.364" cy="1578.927" fill="#fae2ce" rx="36.711" ry="21.576" transform="matrix(.62458863 -.78095394 .78095394 .62458863 -177.284 2789.055)"/><ellipse cx="2836.368" cy="1494.224" fill="#fae2ce" rx="36.711" ry="21.576" transform="matrix(.62458863 -.78095394 .78095394 .62458863 -102.123 2776.003)"/><path d="m2426.808 1623.158-614.323-450.965c-77.955-57.226-181.404-65.94-267.833-22.561L972.82 1436.63l336.563 389.85 333.016-300.417 527.085 468.632 257.323-371.536z" fill="#e51b26"/><path d="m1705.931 1671.882-418.415 985.247c-19.543 48.141 16.039 100.71 67.996 100.455l592.005 3.203-17.823-92.879-333.726-85.075c-34.26-7.667-52.461-45.232-37.246-76.871l59.936-124.633 87.274-709.447z" fill="#d6795e"/><path d="M1632.807 2536.69c42.459 32.701 127.354 84.382 228.591 72.738 43.738-5.03 84.212 24.229 94.176 67.112 6.273 26.996 9.201 61.552 4.079 104.662 0 0-225.611 115.149-457.714 30.087l-21.258 24.701h-183.013c-30.772 0-57.518-21.314-64.106-51.373-5.328-24.309-8.636-54.855-3.367-86.232 2.83-16.856 18.73-28.273 35.625-25.689 64.748 9.902 228.581 18.197 319.569-127.64 10.179-16.315 32.181-20.1 47.417-8.366z" fill="#3c191e"/><path d="M1721.504 2772.237c-32.977 0-69.342-2.463-108.882-8.551-228.051-35.113-382.778-12.321-384.314-12.086a5 5 0 1 1-1.508-9.886c.389-.059 39.693-5.953 106.77-7.376 61.809-1.311 160.659 1.001 280.574 19.464 118.378 18.227 207.754 3.513 261.886-12.04 58.643-16.849 89.711-38.285 90.019-38.5a5.002 5.002 0 0 1 6.962 1.229 4.998 4.998 0 0 1-1.223 6.96c-1.295.908-32.396 22.434-92.458 39.767-37.069 10.697-90.337 21.019-157.824 21.019zm-65.846-250.037-98.318 88.951s29.91 36.793 32.585 35.182l107.692-80.85c10.442-6.288 11.191-21.151 1.433-28.457l-21.388-16.014a17.171 17.171 0 0 0-22.004 1.188z" fill="#fae2ce"/><circle cx="1553.214" cy="2646.333" fill="#3c191e" r="36.711"/><path d="M1553.214 2619.622c14.728 0 26.711 11.982 26.711 26.711s-11.982 26.711-26.711 26.711-26.711-11.982-26.711-26.711 11.982-26.711 26.711-26.711m0-10c-20.275 0-36.711 16.436-36.711 36.711s16.436 36.711 36.711 36.711 36.711-16.436 36.711-36.711-16.436-36.711-36.711-36.711z" fill="#fae2ce"/><ellipse cx="1722.183" cy="2604.054" fill="#fae2ce" rx="36.711" ry="21.576"/><ellipse cx="1801.352" cy="2646.333" fill="#fae2ce" rx="36.711" ry="21.576"/><ellipse cx="1882.495" cy="2612.173" fill="#fae2ce" rx="36.711" ry="21.576"/><path d="m1493.467 1819.101-219.653 531.482 427.569 145.333 211.664-597.039c56.883-166.794 76.195-376.731-96.405-412.3 0 0-70.19-13.075-134.081 16.198-65.758 30.127-90.963 76.449-90.963 76.449z" fill="#e51b26"/><path d="M1127.012 1844.527a5 5 0 0 1-2.607-9.27l529.16-322.419a5 5 0 0 1 5.204 8.539l-529.16 322.419a4.978 4.978 0 0 1-2.597.731z" fill="#3c191e"/><path d="M1485.313 1844.914a4.999 4.999 0 0 1-4.65-6.835l94.214-238.926c.028-.072.058-.143.09-.213 17.1-38.096 53.204-74.123 96.58-96.373 23.873-12.246 48.835-19.859 74.196-22.629 28.08-3.067 55.917-.059 82.745 8.939 45.95 16.185 91.638 55.557 111.176 95.771 25.071 51.6 27.517 118.105 7.932 215.638a5 5 0 0 1-9.805-1.968c24.513-122.068 9.071-175.974-7.121-209.299-18.481-38.036-61.836-75.327-105.433-90.684-61.72-20.7-115.168-4.287-149.125 13.131-41.381 21.227-75.755 55.413-91.975 91.466l-94.171 238.818a5.001 5.001 0 0 1-4.653 3.167z" fill="#3c191e"/><path d="m613.964 1364.769 374.958-87.244-58.364-180.223-346.455 38.08z" fill="#d6795e"/><path d="m634.451 1487.412 415.14-34.064-60.669-175.823-374.958 87.244z" fill="#e51b26"/><g fill="#3c191e"><path d="m988.922 1249.439-384.985 42.038-7.694-52.123 375.909-72.024zm-16.098 192.191a5 5 0 0 1-2.247-9.47l66.772-33.513a5 5 0 1 1 4.485 8.938l-66.772 33.513a4.98 4.98 0 0 1-2.239.532zm-158.606 178.081a5 5 0 0 1-4.877-6.125l48.84-211.593a5 5 0 0 1 9.745 2.249l-48.84 211.593a5.003 5.003 0 0 1-4.868 3.877z"/><path d="M884.846 1676.884a4.99 4.99 0 0 1-1.663-.286c-105.714-37.274-137.061-199.766-137.365-201.403a5 5 0 0 1 9.832-1.827c.293 1.58 30.532 158.425 130.858 193.799a5 5 0 0 1-1.662 9.717zM555.889 13.427C459.516 45.523 421.917 146.673 440.327 258.12c1.376 10.891 15.09 103.038 16.385 142.598 1.844 56.32-26.403 519.413-26.403 519.413l197.742 7.831s-28.908-192.119-23.205-237.051c4.568-35.993 14.5-110.924 29.944-155.838 36.019-104.747 55.243-193.197 35.339-236.777-32.749-71.708-114.24-284.869-114.24-284.869z"/></g><path d="M683.029 10.674s118.486 28.45 144.503 152.371c19.463 92.702-27.062 172.014-74.25 180.01l9.758 110.892-121.816 22.985-17.488-149.812S535.382 43.173 683.029 10.674z" fill="#d6795e"/><path d="M631.455 534.997S454.246 303.61 456.739 164.608C458.78 50.821 535.582 8.909 600.332 1.31c72.902-8.556 127.297 27.602 127.297 27.602s-10.938 74.832-95.216 144.999l12.393 82.83c5.926 39.608 6.749 87.561 2.184 127.35l-15.534 150.907zm121.828-191.942-41.545-.947 44.6 35.668z" fill="#3c191e"/><ellipse cx="612.18" cy="217.365" fill="#d6795e" rx="47.933" ry="55.371" transform="matrix(.42208037 -.90655841 .90655841 .42208037 156.737 680.596)"/><path d="M640.017 238.218a5.002 5.002 0 0 1-4.684-3.251c-6.346-16.977-25.268-34.939-49.156-36.421a5 5 0 0 1-4.681-5.3 5.01 5.01 0 0 1 5.3-4.681c28.14 1.745 50.429 22.903 57.904 42.901a5 5 0 0 1-4.683 6.752z" fill="#3c191e"/><path d="M602.916 246.174a5 5 0 0 1-3.67-8.394l23.969-25.935a5 5 0 1 1 7.343 6.788l-23.969 25.935a4.986 4.986 0 0 1-3.673 1.606z" fill="#3c191e"/><path d="m610.272 569.12 30.971-129.211 142.101 10.988 52.451 83.566z" fill="#fae2ce"/><path d="M589.872 1249.439s-38.259-231.268-57.432-437.014c-2.742-29.425-3.006-55.475-1.319-78.847 7.036-97.472 48.008-148.369 84.703-203.222 111.573-166.783 279.302 19.48 317.26 179.761 45.051 190.233 133.851 459.398 133.851 459.398l-477.064 79.923z" fill="#fae2ce"/><path d="m1000.906 313.502-72.614-44.066-27.411 28.863 76.361 46.478c16.22 6.878 22.072 13.591 30.444-.044 8.522-13.88 3.335-23.28-6.78-31.231z" fill="#d6795e"/><path d="M1127.002 570.934s-3.825-60.096-5.612-79.972c-.667-7.424 3.014-45.438-52.166-85.273-57.07-41.199-101.131-80.974-101.131-80.974l-116.926 72.876c-11.365 5.483-20.902 34.929-10.084 41.426l140.179 85.189 5.853 56.421z" fill="#d6795e"/><path d="M837.944 435.596 713.943 276.703c-7.975-8.596-8.283-21.792-.718-30.751 8.988-10.645 25.264-11.025 34.74-.812l120.352 138.147-30.372 52.309z" fill="#d6795e"/><path d="M868.318 388.288a4.988 4.988 0 0 1-3.772-1.716L744.249 248.487a18.186 18.186 0 0 0-13.721-5.764 18.215 18.215 0 0 0-13.484 6.455c-5.926 7.019-5.684 17.39.563 24.125.097.104.189.212.276.324l52.417 67.167a5 5 0 1 1-7.884 6.152l-52.292-67.007c-9.532-10.438-9.855-26.395-.722-37.213a28.224 28.224 0 0 1 20.891-10.001 28.226 28.226 0 0 1 21.439 9.13l120.352 138.147a4.999 4.999 0 0 1-3.768 8.284z" fill="#3c191e"/><path d="m868.627 405.224 35.326-30.184-45.671-62.473c-7.412-9.89-20.961-12.838-31.812-6.922-13.735 7.489-17.23 25.647-7.255 37.699l49.412 61.881z" fill="#d6795e"/><path d="M855.58 405.718a4.992 4.992 0 0 1-4.105-2.14l-37.15-53.271a6.205 6.205 0 0 1-.143-.216c-6.43-10.319-8.584-20.507-6.229-29.461 2.126-8.084 7.702-14.784 16.124-19.376 12.942-7.056 29.367-3.482 38.206 8.314l37.547 50.102a5.001 5.001 0 0 1-8.002 5.997l-37.547-50.102c-5.88-7.847-16.808-10.224-25.417-5.531-4.146 2.26-9.461 6.375-11.24 13.139-1.63 6.197.092 13.637 4.979 21.521l37.074 53.162a5 5 0 0 1-4.096 7.86z" fill="#3c191e"/><path d="m893.916 376.021 41.758-31.294-40.771-50.322c-7.742-10.331-21.454-15.257-31.785-7.515s-12.43 22.394-4.688 32.725z" fill="#d6795e"/><path d="M889.681 381.515a4.995 4.995 0 0 1-4.168-2.232l-34.712-52.196a4.796 4.796 0 0 1-.173-.28c-6.33-11.032-4.814-26.506 3.527-35.992 8.133-9.25 21.085-11.124 35.536-5.14a5 5 0 1 1-3.825 9.239c-10.551-4.369-18.919-3.503-24.201 2.504-5.429 6.174-6.509 17.029-2.439 24.278l34.615 52.05a5 5 0 0 1-4.159 7.769z" fill="#3c191e"/><path d="m933.097 355.979 37.413-28.038-36.968-54.193c-7.742-10.331-26.314-7.976-33.987-.514-12.317 11.979-9.929 22.251-2.187 32.582l35.728 50.162z" fill="#d6795e"/><path d="M925.842 357.101a4.995 4.995 0 0 1-4.262-2.379l-38.059-61.805a5 5 0 1 1 8.515-5.243l38.059 61.805a5 5 0 0 1-4.253 7.622zm73.295-1.458a4.978 4.978 0 0 1-3.392-1.328l-49.451-45.706a5 5 0 1 1 6.787-7.344l49.451 45.706a5 5 0 0 1-3.395 8.672zm125.952 186.078-142.79-6.157 3.028 34.467 143.265 16.402-3.503-44.711z" fill="#3c191e"/><path d="m1162.827 1153.816-12.775-605.895-186.85 5.632s-.568 252.488-.601 266.679c-70.61-170.087-66.368-160.348-71.17-170.574-74.278-158.174-181.662-154.139-230.972-129.195-126.074 63.777-14.009 260.838-5.277 279.527 7.931 16.976 143.78 223.809 250.863 386.263 30.256 45.901 73.839 83.422 109.058 95.337 74.488 25.201 149.194-31.616 147.724-127.775z" fill="#fae2ce"/><path d="M1070.141 1093.336a5.003 5.003 0 0 1-4.635-3.12L896.952 675.07a5 5 0 1 1 9.266-3.762l168.554 415.146a5 5 0 0 1-4.631 6.883zm-148.437 128.639a4.994 4.994 0 0 1-4.202-2.284L665.778 830.816a5 5 0 0 1 8.394-5.434l251.724 388.875a5 5 0 0 1-4.192 7.717zm-335.541 37.171a5 5 0 0 1-4.949-4.332l-57.142-423.411a5 5 0 0 1 9.91-1.338l56.481 418.519 20.964-2.555a5 5 0 0 1 1.21 9.926l-25.864 3.152a5.058 5.058 0 0 1-.611.037zm-9.47-595.079a5 5 0 0 1-4.82-6.338c19.027-68.538 51.645-113.995 96.946-135.108 32.818-15.295 66.052-14.428 88.15-11.007 23.879 3.696 39.916 10.924 40.586 11.23a5 5 0 1 1-4.149 9.099c-.827-.373-62.103-27.47-120.458-.214-42.48 19.841-73.246 63.134-91.44 128.675a5.004 5.004 0 0 1-4.815 3.664z" fill="#3c191e"/></svg></g><g transform="translate(192.75 2253.75) rotate(0.0 1356.0 5.625) scale(0.6127835875225331 0.5625)"><svg width="4425.706" height="20" viewBox="0 0 4425.706 20"><path d="M4415.706 20H10C4.477 20 0 15.523 0 10S4.477 0 10 0h4405.705c5.523 0 10 4.477 10 10s-4.477 10-10 10Z" style="fill:#fae2ce"/></svg></g></svg>