<svg xmlns="http://www.w3.org/2000/svg" viewBox="0 0 1700 1700" width="1700" height="1700"><g transform="translate(597.0 569.0) rotate(0.0 517.0 432.5) scale(0.9997302468676247 0.9989352389707156)"><svg width="1034.279" height="865.922" viewBox="0 0 1034.279 865.922"><path d="M740.741 865.922H210.586c-44.795 0-81.239-36.443-81.239-81.239V254.528c0-44.795 36.443-81.239 81.239-81.239h530.155c44.795 0 81.239 36.443 81.239 81.239v530.155c0 44.795-36.443 81.239-81.239 81.239zM210.586 179.289c-41.487 0-75.239 33.752-75.239 75.239v530.155c0 41.487 33.752 75.239 75.239 75.239h530.155c41.487 0 75.239-33.752 75.239-75.239V254.528c0-41.487-33.752-75.239-75.239-75.239z" fill="#dda6ff"/><g fill="#b153e0"><path d="M470.924 775.584 2 269.495 141.37 140.36l324.65 350.38L888.545 2l143.734 124.26z"/><path d="M470.924 777.584a2 2 0 0 1-1.467-.641L.532 270.854a2.002 2.002 0 0 1 .108-2.827l139.371-129.135a2 2 0 0 1 2.827.108l323.13 348.741L887.032.692a2 2 0 0 1 2.821-.205l143.734 124.26a2.004 2.004 0 0 1 .206 2.821L472.437 776.892c-.372.43-.91.682-1.479.691h-.035zM4.826 269.603l466.046 502.983 558.585-646.121L888.75 4.821 467.533 492.048c-.372.43-.91.682-1.479.691a1.974 1.974 0 0 1-1.501-.64L141.262 143.186z"/></g></svg></g><g transform="translate(78.0 127.0) rotate(0.0 534.5 723.0) scale(0.9962071439887427 0.9950810240938983)"><svg width="1073.07" height="1453.148" viewBox="0 0 1073.07 1453.148"><path d="M802.014 493.527c31.243 23.441 86.44-149.604 53.084-164.47-33.357-14.866-79.009 145.018-53.084 164.47z" fill="#25242e"/><path d="M808.203 497.698c-2.614 0-5.106-.859-7.389-2.572-20.904-15.684.547-106.372 23.975-146.222 13.685-23.278 24.479-24.636 31.123-21.674 7.184 3.201 11.052 12.488 11.499 27.602 1.278 43.269-27.153 127.951-52.483 141.084-2.293 1.189-4.551 1.782-6.724 1.782zm42.444-167.596c-8.738 0-17.576 12.607-22.41 20.83-24.181 41.131-42.355 127.99-25.022 140.995 2.948 2.211 6.177 2.355 9.871.438 22.027-11.42 51.659-92.328 50.327-137.415-.392-13.257-3.548-21.579-9.128-24.066a8.848 8.848 0 0 0-3.637-.781z" fill="#25242e"/><path d="M590.341 82.438c1.434-45.007-19.361-77.821-67.869-75.733-50.19 2.16-71.148 37.413-69.523 81.647-11.867-14.658-29.86-1.804-29.166 14.178.514 11.825 13.666 23.504 32.701 15.728 13.444 38.603 51.931 53.627 92.486 47.234 40.78-6.428 69.152-51.102 41.37-83.054z" fill="#fff"/><path d="M531.062 168.929c-14.305 0-27.677-2.822-39.359-8.375-17.111-8.134-29.663-21.837-36.406-39.708-8.78 3.07-17.139 2.468-23.721-1.75-5.844-3.744-9.503-9.905-9.789-16.48-.409-9.422 5.252-18.518 13.463-21.626 5.46-2.066 10.953-1.145 15.613 2.49.029-21.325 5.465-39.555 15.836-52.954 12.444-16.078 31.18-24.765 55.688-25.819 21.343-.917 38.299 4.684 50.401 16.651 13.502 13.353 20.264 34.215 19.576 60.366 11.111 13.155 14 29.225 8.129 45.34-7.475 20.517-28.054 36.754-51.209 40.404-6.197.977-12.29 1.462-18.221 1.462zm-74.577-52.672a1.998 1.998 0 0 1 1.889 1.342c10.497 30.141 37.413 47.373 72.237 47.375 5.811 0 11.837-.479 18.049-1.458 21.763-3.431 41.082-18.63 48.074-37.822 5.44-14.931 2.634-29.827-7.901-41.944a2 2 0 0 1-.49-1.376c.808-25.375-5.543-45.49-18.368-58.172-11.278-11.153-27.226-16.366-47.417-15.499-44.754 1.926-69.397 30.931-67.61 79.576a2 2 0 0 1-3.553 1.332c-4.178-5.16-9.406-6.894-14.729-4.879-6.643 2.516-11.22 9.964-10.883 17.712.229 5.276 3.202 10.243 7.951 13.286 5.939 3.804 13.75 4.046 21.996.677.243-.099.5-.148.756-.148z" fill="#25242e"/><path d="M531.567 112.557c-1.479-11.412 22.969-14.287 23.448-2.768 2.55 4.56-.356 12.35-8.917 13.969-8.252 1.561-17.128-4.81-14.531-11.201z" fill="#dda6ff"/><path d="M435.741 108.228a2 2 0 0 1-1.403-3.426l11.049-10.869a2 2 0 1 1 2.805 2.851l-11.049 10.869a1.993 1.993 0 0 1-1.402.574zm17.208-19.876c3.609 13.118 16.887 12.045 11.909-21.735-6.505-1.256-14.637 9.926-16.476 17.56l4.567 4.176z" fill="#25242e"/><path d="M446.116 107.782a1.99 1.99 0 0 1-1.408-.58l-10.857-10.769a1.999 1.999 0 1 1 2.816-2.84l10.857 10.769a1.999 1.999 0 0 1-1.408 3.42z" fill="#25242e"/><path d="M589.634 64.504c-4.413-42.978-29.146-63.191-70.859-62.487-52.851.893-80.163 47.616-70.392 82.158 47.688-52.219 134.433-55.092 141.251-19.672z" fill="#dda6ff"/><path d="M448.383 86.176a2 2 0 0 1-1.924-1.456c-5.036-17.802-.687-38.327 11.633-54.904C472.057 11.025 493.596.442 518.741.018c21.486-.381 38.567 4.801 50.76 15.35 12.452 10.772 19.895 27.236 22.123 48.933a2 2 0 0 1-3.953.582c-2.22-11.532-13.134-16.9-21.898-19.373-15.404-4.345-36.053-3.195-56.656 3.153-16.248 5.006-39.717 15.466-59.256 36.862a2 2 0 0 1-1.477.651zM520.856 4c-.679 0-1.359.006-2.047.017-23.875.403-44.298 10.413-57.506 28.186-10.777 14.5-15.085 32.149-11.85 47.917 19.607-20.244 42.463-30.343 58.486-35.28 21.32-6.57 42.796-7.729 58.919-3.18 8.131 2.293 14.511 5.97 18.816 10.735-7.205-32.137-28.957-48.396-64.818-48.396z" fill="#dda6ff"/><path d="M535.236 114.647c-7.971 0-14.994-1.291-19.213-3.539a2.001 2.001 0 0 1 1.881-3.531c7.142 3.806 27.022 4.96 43.176-1.804a2 2 0 1 1 1.545 3.689c-8.609 3.605-18.578 5.183-27.389 5.183z" fill="#25242e"/><path d="M589.635 64.504c90.384-65.695-57.724-89.382-123.711 3.809 49.617-41.718 122.636-45.931 123.711-3.809z" fill="#dda6ff"/><path d="M465.924 70.313a1.998 1.998 0 0 1-1.632-3.155C501.808 14.176 563.776-.46 595.799 6.077c13.503 2.755 21.985 9.086 23.881 17.829 1.815 8.367-1.72 22.483-28.87 42.216a2.002 2.002 0 0 1-3.175-1.567c-.276-10.842-5.758-18.976-15.853-23.521-11.712-5.274-29.259-5.488-48.142-.585-20.027 5.199-40.068 15.639-56.43 29.396-.373.313-.83.469-1.287.469zm83.456-37.481c8.985 0 17.186 1.466 24.045 4.555 10.413 4.688 16.553 12.716 17.927 23.349 17.868-13.6 26.519-26.308 24.42-35.982-1.54-7.099-8.917-12.34-20.772-14.758-28.386-5.789-81.193 5.731-117.891 47.391 23.12-15.595 50.074-24.554 72.271-24.554z" fill="#dda6ff"/><g fill="#25242e"><path d="M493.764 96.342a2 2 0 0 1-1.65-3.127c4.043-5.927 9.925-9.984 16.138-11.131 5.701-1.054 11.578.373 16.983 4.127a2 2 0 0 1-2.281 3.285c-4.574-3.175-9.275-4.348-13.976-3.479-5.171.955-10.113 4.4-13.559 9.452a1.996 1.996 0 0 1-1.654.873zm55.581-3.902a2 2 0 0 1-1.698-3.053c3.644-5.884 9.036-9.869 14.794-10.933 5.309-.983 10.795.545 15.87 4.411a2 2 0 1 1-2.424 3.182c-4.213-3.209-8.494-4.437-12.719-3.66-4.651.859-9.069 4.178-12.12 9.105a2 2 0 0 1-1.702.948z"/><path d="M518.871 87.018a2.001 2.001 0 0 1-1.988-2.247c.693-5.565-.38-10.879-3.022-14.965a2 2 0 1 1 3.36-2.172c3.151 4.874 4.441 11.136 3.632 17.631a2 2 0 0 1-1.982 1.753zm53.521-3.486a2 2 0 0 1-1.98-2.297c1.028-6.842.002-9.598-2.625-15.717a2 2 0 1 1 3.676-1.578c2.798 6.516 4.091 9.999 2.906 17.889a2.001 2.001 0 0 1-1.976 1.704zm-93.038-29.523a2.001 2.001 0 0 1-1.447-3.381 149.58 149.58 0 0 1 20.06-17.556 1.999 1.999 0 1 1 2.356 3.232 145.496 145.496 0 0 0-19.522 17.084c-.393.412-.92.62-1.448.62zm32.88-25.852a2 2 0 0 1-1.006-3.73c15.792-9.168 33.186-15.487 50.304-18.275a2 2 0 0 1 .642 3.948c-16.641 2.71-33.563 8.861-48.938 17.786a1.987 1.987 0 0 1-1.002.271z"/></g><path d="m915.756 210.108-60.658 118.949-77.357-67.067c-69.936-35.634-149.588 29.711-119.352 66.13 29 33.841 54.922 57.674 114.827 111.613 25.855 23.28 124.744 86.327 183.552-22.038 45.96-84.692 71.336-156.176 71.336-156.176l-112.348-51.41z" fill="#fff"/><path d="M867.611 481.197c-40.038.001-78.038-24.045-95.734-39.979-58.297-52.491-85.322-77.157-115.007-111.797-10.599-12.765-9.172-30.053 3.796-46.27 11.355-14.199 29.489-25.275 49.751-30.389 16.358-4.129 41.474-6.188 68.231 7.445.145.074.279.165.402.271l75.427 65.394L913.974 209.2a2.002 2.002 0 0 1 2.614-.91l112.347 51.41a2.002 2.002 0 0 1 1.053 2.488c-.254.716-25.955 72.602-71.463 156.46-19.191 35.365-44.414 55.96-74.966 61.213-5.322.915-10.654 1.335-15.947 1.336zm-132.75-227.653c-31.01 0-58.008 15.772-71.071 32.106-11.868 14.84-13.276 29.854-3.863 41.192 29.504 34.428 56.463 59.033 114.627 111.403 2.144 1.93 53.137 47.165 108.327 37.673 29.283-5.035 53.551-24.946 72.128-59.179 41.459-76.398 66.407-142.774 70.584-154.17l-108.927-49.845-59.787 117.241a2 2 0 0 1-3.091.602l-77.172-66.907c-14.133-7.158-28.32-10.118-41.755-10.118z" fill="#25242e"/><path d="M1022.779 275.671c22.866-47.629 38.257-123.657 38.257-123.657-3.439-.002-62.9-5.857-94.044-5.646-21.186.143-43.283 15.856-47.661 31.279-4.596 16.189-5.509 36.249-5.509 36.249 36.916 34.478 60.449 83.724 108.956 61.774z" fill="#fff"/><path d="M1022.778 277.671a2 2 0 0 1-1.802-2.866c20.304-42.292 34.871-107.987 37.628-120.935-1.813-.136-4.653-.372-8.845-.721-19.223-1.604-59.241-4.948-82.752-4.781-21.038.143-41.869 16.15-45.751 29.826-4.477 15.771-5.425 35.596-5.434 35.794a2.01 2.01 0 0 1-2.089 1.907 1.999 1.999 0 0 1-1.907-2.089c.038-.829.976-20.479 5.583-36.705 4.823-16.988 28.45-32.59 49.571-32.733 23.704-.168 63.831 3.186 83.112 4.795 5.698.475 10.198.851 10.946.851a1.998 1.998 0 0 1 1.959 2.397c-.155.763-15.704 76.819-38.415 124.125a2.002 2.002 0 0 1-1.805 1.135z" fill="#25242e"/><path d="M919.332 177.648c11.872-39.726 16.146-50.418 14.686-74.695-1.716-28.543 34.301-39.856 38.649 0 2.94 26.95.433 41.312-2.875 55.825-4.222 18.518-26.797 21.644-50.46 18.87z" fill="#fff"/><path d="M919.333 179.648a1.999 1.999 0 0 1-1.917-2.573c1.261-4.221 2.437-8.114 3.529-11.731 9.245-30.615 12.36-40.928 11.077-62.271-.98-16.317 9.342-26.99 19.89-27.882 9.019-.765 20.393 5.994 22.744 27.545 2.982 27.337.445 41.755-2.913 56.486a2.001 2.001 0 0 1-3.901-.889c3.277-14.373 5.752-28.445 2.837-55.164-2.036-18.667-10.864-24.635-18.43-23.993-8.635.73-17.068 9.778-16.233 23.656 1.326 22.056-2.096 33.386-11.241 63.668-1.091 3.613-2.266 7.503-3.526 11.72a2 2 0 0 1-1.915 1.428z" fill="#25242e"/><path d="M981.88 185.808a1.999 1.999 0 0 1-1.994-2.176c.995-11.277-4.729-20.549-10.838-22.998a2 2 0 0 1 1.489-3.713c7.361 2.951 14.536 13.438 13.334 27.063a2 2 0 0 1-1.99 1.824z" fill="#25242e"/><path d="M1012.87 177.648c45.75-2.75 57.28-18.163 57.071-28.397-.426-20.804-28.025-22.801-43.566-22.481-28.783.593-36.782 12.866-36.576 22.952.281 13.702 21.027 21.087 50.281 18.984l-27.209 8.943z" fill="#fff"/><path d="M1012.869 179.647a2 2 0 0 1-.623-3.9l14.44-4.746c-15.09-.482-26.915-3.891-33.401-9.805-3.551-3.237-5.396-7.084-5.485-11.434-.116-5.674 2.319-24.247 38.534-24.993 11.38-.236 20.85.919 28.144 3.427 11.383 3.916 17.258 10.985 17.463 21.013.266 12.984-15.081 27.797-58.95 30.435a2.483 2.483 0 0 1-.122.003zm27.212-12.942a2 2 0 0 1 .623 3.9l-8.651 2.843c26.358-4.719 36.076-14.994 35.889-24.157-.169-8.29-5-13.953-14.766-17.312-6.847-2.355-15.854-3.429-26.76-3.211-32.504.669-34.714 16.175-34.617 20.912.066 3.21 1.473 6.091 4.181 8.56 7.403 6.75 23.839 9.917 43.957 8.47.049-.004.097-.005.145-.005z" fill="#25242e"/><path d="M1013.989 211.502c45.75-2.75 57.495-18.169 57.071-28.397-.877-21.101-30.066-21.638-43.967-21.461-32.245.411-36.841 14.372-36.175 21.932 1.106 12.555 21.027 21.087 50.281 18.984l-27.209 8.943z" fill="#fff"/><path d="M1013.987 213.502a2 2 0 0 1-.623-3.9l14.658-4.818c-22.556-.936-38.03-8.917-39.097-21.033-.253-2.87.02-8.457 4.691-13.624 6.104-6.75 17.358-10.278 33.45-10.483 11.13-.136 44.996-.573 45.991 23.377.54 12.988-14.663 27.815-58.949 30.477a2.483 2.483 0 0 1-.122.003zm27.212-12.943a2 2 0 0 1 .623 3.9l-8.533 2.805c26.563-4.829 36.133-15.355 35.771-24.076-.747-17.987-24.298-19.766-41.944-19.543-14.724.188-25.282 3.357-30.534 9.166-3.653 4.04-3.87 8.369-3.674 10.59 1.046 11.877 21.294 19.091 48.145 17.165.049-.004.097-.005.145-.005z" fill="#25242e"/><path d="M1011.252 245.691c45.75-2.75 57.495-18.169 57.071-28.397-.877-21.101-28.059-22.803-43.714-22.478-33.481.694-37.015 15.384-36.428 22.949 1.057 13.613 21.027 21.087 50.281 18.984l-27.209 8.943z" fill="#fff"/><path d="M1011.251 247.691a2 2 0 0 1-.623-3.9l14.471-4.756c-23.096-.779-37.938-8.561-38.912-21.115-.296-3.813.312-9.418 4.887-14.466 6.094-6.724 17.363-10.303 33.494-10.637 29.665-.61 45.056 7.592 45.754 24.395.54 12.988-14.663 27.815-58.949 30.477a2.483 2.483 0 0 1-.122.003zm27.212-12.943a2 2 0 0 1 .623 3.9l-8.533 2.805c26.563-4.829 36.133-15.355 35.771-24.076-.59-14.205-14.603-21.118-41.675-20.562-14.987.311-25.287 3.448-30.613 9.325-3.618 3.992-4.098 8.441-3.862 11.47.951 12.256 20.299 19.144 48.143 17.144.049-.004.097-.005.145-.005z" fill="#25242e"/><path d="M1017.427 277.424c45.75-2.75 48.778-17.907 48.572-28.142-.372-18.46-27.644-22.719-41.546-22.523-32.671.461-37.233 14.88-36.521 23.144 1.168 13.548 18.951 20.937 48.205 18.834l-19.856.381z" fill="#fff"/><path d="M1020.562 283.323a2 2 0 0 1-1.859-2.735c.517-1.308 1.214-3.084 1.666-4.238a2 2 0 0 1 1.694-1.265c42.384-3.599 42.083-18.568 41.938-25.762-.336-16.702-25.978-20.754-39.518-20.563-14.724.208-25.319 3.426-30.64 9.308-3.714 4.106-4.18 8.609-3.917 11.664 1.074 12.458 18.729 18.973 46.069 17.011a1.99 1.99 0 0 1 2.138 1.851 2 2 0 0 1-1.851 2.138c-30.222 2.175-49.039-5.549-50.341-20.657-.271-3.149.009-9.244 4.936-14.69 6.172-6.823 17.46-10.398 33.549-10.625 14.911-.177 43.174 4.636 43.574 24.483.241 11.941-4.617 26.066-44.357 29.718l-1.218 3.097a2.002 2.002 0 0 1-1.861 1.266zm-165.464 45.734-77.357-67.067c-69.936-35.634-154.421 67.494-124.185 103.913 29.245 29.698 91.615 83.541 148.459 127.625-17.377-44.672 53.084-164.47 53.084-164.47z" fill="#25242e"/><path d="M802.014 495.527c-.433 0-.865-.14-1.226-.419-55.919-43.367-118.44-97.115-148.659-127.802a1.934 1.934 0 0 1-.114-.126c-12.731-15.335-6.938-43.579 14.417-70.282 13.838-17.304 31.698-30.872 50.291-38.205 21.739-8.573 43.15-8.049 61.924 1.515.145.074.279.165.402.271l77.357 67.067a2 2 0 0 1 .414 2.525c-.7 1.189-69.772 119.47-52.944 162.73a2 2 0 0 1-1.863 2.725zM655.04 364.561c29.259 29.699 88.852 81.055 143.331 123.597-9.613-46.193 46.209-144.925 54.164-158.675l-75.919-65.82c-38.613-19.504-81.574 3.865-107.059 35.733-20.106 25.142-25.933 51.313-14.517 65.165z" fill="#25242e"/><path d="m744.056 550.523-23.753 816.601s-139.812 57.134-125.803-3.448c-5.861-27.377-24.562-129.563-24.562-129.563-26.657-166.122-14.171-226.587-14.919-291.294-.652-56.365-10.214-254.809-5.624-364.694 5.504-131.747 194.662-27.602 194.662-27.602z" fill="#fff"/><path d="M623.242 1393.482c-10.608 0-19.586-1.879-25.226-6.679-5.969-5.079-7.839-12.862-5.564-23.139-5.902-27.723-24.296-128.174-24.482-129.191-20.376-126.979-17.923-192.397-15.952-244.962.605-16.137 1.176-31.378 1-46.669-.045-3.886-.194-11.017-.321-16.359-.258-10.823 3.634-19.122 11.567-24.664 38.958-27.221 164.249 21.599 169.563 23.691a2 2 0 0 1 1.267 1.919l-12.792 439.753a1.999 1.999 0 0 1-1.243 1.793c-3.092 1.264-60.517 24.506-97.817 24.506zm-23.845-495.915c-13.541 0-25.125 2.138-32.844 7.531-6.86 4.793-10.085 11.757-9.858 21.289.119 4.963.274 12.239.322 16.409.178 15.388-.396 30.678-1.002 46.865-1.965 52.389-4.41 117.588 15.896 244.135.18.979 18.756 102.426 24.543 129.461a1.99 1.99 0 0 1-.007.869c-2.092 9.047-.731 15.468 4.16 19.63 22.176 18.874 106.613-13.602 117.733-18.003l12.712-437.026c-10.65-4.065-83.482-31.161-131.657-31.161z" fill="#25242e"/><path d="M397.477 565.042 146.31 1312.503s3.284 119.008 108.058 60.262c15.032-23.62 81.467-139.22 81.467-139.22 82.863-146.427 92.225-207.454 115.47-267.846 20.248-52.607 98.348-235.286 132.329-339.886 40.741-125.41-186.157-60.772-186.157-60.772z" fill="#fff"/><path d="M203.291 1391.058c-9.184 0-17.454-2.074-24.776-6.229-32.35-18.355-34.143-70.079-34.204-72.271a1.984 1.984 0 0 1 .103-.692l150.453-447.739a2 2 0 0 1 1.858-1.362c5.616-.11 137.994-2.16 166.731 39.635 6.459 9.394 7.239 20.307 2.32 32.437-4.024 9.924-9.478 23.458-12.604 31.582-5.493 14.271-10.267 28.756-15.321 44.092-16.465 49.958-36.957 112.133-100.274 224.021-.671 1.168-66.636 115.921-81.52 139.309a2.008 2.008 0 0 1-.709.671c-19.662 11.024-37.073 16.548-52.056 16.548zm-54.967-78.268c.208 4.53 3.1 52.08 32.176 68.566 17.879 10.138 42.254 6.742 72.452-10.09 15.345-24.242 80.49-137.568 81.15-138.717 63.116-111.533 83.54-173.5 99.95-223.292 5.07-15.384 9.859-29.915 15.387-44.276 3.137-8.151 8.6-21.709 12.63-31.648 4.444-10.958 3.82-20.335-1.909-28.667-26.007-37.824-147.461-38.041-161.954-37.918L148.323 1312.79z" fill="#25242e"/><path d="m744.056 550.523-10.962 376.848-238.174-1.542c6.894-65.536 18.767-181.532 31.941-289.671 15.946-130.894 217.194-85.634 217.194-85.634z" fill="#dda6ff"/><path d="M733.094 929.371h-.013l-238.174-1.542a2.004 2.004 0 0 1-1.976-2.209c.851-8.094 1.778-16.957 2.774-26.479 7.017-67.069 17.622-168.424 29.17-263.225 3.605-29.593 16.908-52.689 39.54-68.648 32.952-23.235 80.209-27.066 114.043-26.192 36.53.945 65.744 7.432 66.035 7.497a1.999 1.999 0 0 1 1.56 2.009L735.091 927.43a2 2 0 0 1-1.999 1.942zm-235.954-5.528 234.012 1.515 10.856-373.222c-14.159-2.882-117.823-22.128-175.293 18.405-21.665 15.28-34.405 37.438-37.868 65.858-11.545 94.767-22.147 196.102-29.163 263.158-.907 8.669-1.757 16.793-2.544 24.286z" fill="#dda6ff"/><path d="M397.477 565.042 296.762 864.764l214.058 88.828s49.377-196.75 83.358-301.35c40.741-125.41-196.701-87.201-196.701-87.201z" fill="#dda6ff"/><path d="M510.821 955.593c-.26 0-.521-.051-.767-.153l-214.058-88.829a2 2 0 0 1-1.129-2.484l100.714-299.722a2.001 2.001 0 0 1 3.792 1.274l-100.12 297.953 210.178 87.218c5.191-21.23 45.638-185.567 77.197-282.714a2.001 2.001 0 0 1 3.805 1.237c-33.569 103.332-77.231 282.89-77.668 284.692a2.003 2.003 0 0 1-1.944 1.529z" fill="#dda6ff"/><path d="M582.104 1299.762c8.93-.367 135.036-2.916 140.252-3.222 12.821-.753 11.289 14.821-.424 14.574l-1.629 56.01c-47.187 42.572-90.326 51.449-125.804-3.448l-9.408-48.055c-13.446.591-14.978-15.366-2.988-15.859z" fill="#fff"/><path d="M651.337 1403.985c-2.431 0-4.832-.157-7.205-.471-19.059-2.521-36.323-15.559-51.312-38.752a2.002 2.002 0 0 1-.283-.701l-9.094-46.449c-4.328-.236-7.877-2.111-9.896-5.285-1.861-2.926-2.072-6.551-.551-9.461 1.605-3.073 4.896-4.932 9.026-5.102 4.36-.179 35.65-.857 68.778-1.574 33.822-.733 68.795-1.491 71.439-1.646 6.088-.351 8.807 2.497 9.883 4.23 1.655 2.665 1.651 6.131-.011 9.046-1.647 2.889-4.644 4.751-8.232 5.194l-1.576 54.168a2.002 2.002 0 0 1-.659 1.427c-26.313 23.74-49.403 35.376-70.307 35.376zm-54.948-41.073c14.272 21.961 30.512 34.288 48.268 36.636 21.394 2.828 45.496-8.077 73.673-33.339l1.604-55.154c.032-1.098.982-1.971 2.041-1.941 3.028.062 5.438-1.13 6.661-3.275.935-1.639.968-3.538.088-4.956-1.049-1.689-3.271-2.521-6.25-2.347-2.718.16-36.17.884-71.587 1.652-31.648.686-64.375 1.395-68.7 1.572-2.702.111-4.707 1.161-5.646 2.958-.86 1.646-.714 3.739.381 5.462 1.494 2.349 4.436 3.608 8.082 3.443a1.993 1.993 0 0 1 2.051 1.614l9.334 47.676z" fill="#25242e"/><path d="M293.065 1307.374c-4.901-2.39-116.938-53.889-125.612-57.793-10.936-4.922-15.595 7.653-4.707 14.006l-16.437 48.916c-2.338 52.552 30.432 70.054 108.058 60.262l31.596-52.468c13.304 5.305 16.56-8.31 7.101-12.923z" fill="#fff"/><path d="M217.598 1377.364c-27.061 0-45.733-5.366-57.626-16.333-11.52-10.623-16.642-26.526-15.659-48.618.008-.187.042-.371.102-.548l15.94-47.438c-5.775-4.062-6.9-9.842-4.895-13.737 1.811-3.516 6.477-5.785 12.814-2.934 7.2 3.241 120.37 55.235 125.667 57.819 5.974 2.914 7.657 8.918 5.833 13.039-1.511 3.415-5.774 6.363-12.941 4.114l-30.752 51.068a2 2 0 0 1-1.463.953c-13.777 1.738-26.087 2.614-37.021 2.615zm-69.301-64.492c-.873 20.696 3.834 35.488 14.387 45.219 15.657 14.438 44.418 18.515 90.474 12.81l31.094-51.636a2 2 0 0 1 2.454-.826c4.599 1.833 8.206 1.281 9.413-1.443 1.057-2.389-.125-5.969-3.929-7.825-5.289-2.58-118.36-54.528-125.556-57.767-3.527-1.587-6.445-1.159-7.616 1.118-1.262 2.45-.03 6.555 4.738 9.337a2.001 2.001 0 0 1 .888 2.365z" fill="#25242e"/><path d="m725.408 1354.129 3.622 16.499s51.556 19.754 60.476 23.073c25.659 9.548 36.42 17.043 36.417 38.041h-67.689l-175.378-.177c-.544-20.873 1.132-40.668 8.139-57.881 0 0-6.129-8.078-10.957-14.079-5.855-7.277 6.78-16.277 12.805-5.745 1.776 3.104 3.96 6.955 5.768 10.152 2.281 4.033 6.161 6.94 10.714 8.034l28.638 6.885a48.846 48.846 0 0 0 27.521-1.38l32.446-11.346-2.335-9.018c-1.479-5.715 2.666-11.351 8.639-11.746l8.684-.575c5.919-.392 11.234 3.551 12.488 9.263z" fill="#b153e0"/><path d="M825.923 1433.743h-67.688l-175.38-.177a2 2 0 0 1-1.998-1.948c-.625-24.017 1.874-42.372 7.861-57.623-1.732-2.271-6.421-8.391-10.237-13.135-2.058-2.558-2.516-5.633-1.256-8.436 1.366-3.04 4.58-5.195 7.999-5.361 3.727-.169 7.143 1.935 9.357 5.806 1.778 3.107 3.963 6.961 5.773 10.16 2 3.534 5.44 6.113 9.441 7.075l28.638 6.884a46.736 46.736 0 0 0 26.394-1.323l30.709-10.739-1.873-7.236a11.3 11.3 0 0 1 1.792-9.476 11.572 11.572 0 0 1 8.65-4.768l8.684-.575c6.847-.456 13.119 4.201 14.575 10.829l3.391 15.446c7.252 2.778 51.332 19.66 59.451 22.681 26.086 9.708 37.723 17.774 37.72 39.917a2 2 0 0 1-2 2zm-241.112-4.175 173.425.175h65.653c-.624-18.092-10.066-24.858-35.082-34.167-8.826-3.284-59.978-22.883-60.494-23.08a2 2 0 0 1-1.238-1.439l-3.622-16.499c-1.035-4.711-5.51-8.015-10.403-7.696l-8.684.575a7.582 7.582 0 0 0-5.672 3.119 7.31 7.31 0 0 0-1.163 6.13l2.334 9.018a2 2 0 0 1-1.276 2.389l-32.446 11.346a50.711 50.711 0 0 1-28.649 1.437l-28.638-6.884c-5.075-1.221-9.444-4.499-11.987-8.995a2573.8 2573.8 0 0 0-5.764-10.144c-1.462-2.555-3.468-3.917-5.691-3.796-1.923.094-3.792 1.329-4.544 3.005-.446.992-.682 2.542.724 4.289 4.79 5.954 10.931 14.042 10.992 14.124a2 2 0 0 1 .259 1.963c-5.913 14.525-8.477 32.084-8.037 55.129z" fill="#b153e0"/><path d="M779.966 1406.797c-1.39 0-2.795-.16-4.192-.492l-58.667-13.93c-8.679-2.061-15.718-8.563-18.37-16.969l-2.713-8.599a1.999 1.999 0 1 1 3.814-1.204l2.713 8.599c2.231 7.072 8.163 12.544 15.479 14.282l58.667 13.93c6.496 1.541 13.233-1.67 16.025-7.636a2 2 0 1 1 3.623 1.695c-2.988 6.388-9.483 10.324-16.38 10.324zm-159.516 13.494c-11.177 0-20.271-8.972-20.271-20s9.094-20 20.271-20 20.271 8.972 20.271 20-9.094 20-20.271 20zm0-36c-8.972 0-16.271 7.178-16.271 16s7.299 16 16.271 16 16.271-7.178 16.271-16-7.299-16-16.271-16z" fill="#25242e"/><path d="M825.336 1451.148h-67.101l-173.785-.061c-5.422-.423-9.47-5.097-9.04-10.439.43-5.342 5.174-9.329 10.597-8.906h239.329c5.439 0 9.849 4.344 9.849 9.703 0 5.359-4.41 9.703-9.849 9.703z" fill="#fff"/><path d="M825.336 1453.148h-67.101l-173.786-.061c-.052 0-.104-.002-.155-.006-3.183-.249-6.07-1.714-8.127-4.126a11.536 11.536 0 0 1-2.75-8.467c.516-6.404 6.186-11.209 12.665-10.746h239.255c6.533 0 11.849 5.25 11.849 11.703s-5.315 11.703-11.849 11.703zm-240.804-4.061 173.703.061h67.101c4.328 0 7.849-3.456 7.849-7.703s-3.521-7.703-7.849-7.703h-239.33c-.052 0-.104-.002-.156-.006-4.305-.332-8.106 2.835-8.447 7.072a7.567 7.567 0 0 0 1.806 5.551 7.836 7.836 0 0 0 5.323 2.728z" fill="#25242e"/><path d="m137.355 1307.6-9.592 13.905s-55.198-1.206-64.711-1.505c-27.364-.862-40.16 2.007-48.097 21.448l62.664 25.593 162.426 66.146c8.395-19.118 14.328-38.077 14.349-56.661 0 0 8.729-5.161 15.467-8.891 8.171-4.523-.122-17.632-9.683-10.16a2616.193 2616.193 0 0 0-9.179 7.218c-3.637 2.871-8.328 4.095-12.956 3.387l-29.115-4.454a48.843 48.843 0 0 1-24.956-11.684l-25.748-22.772 5.571-7.466c3.53-4.731 1.824-11.516-3.556-14.141l-7.822-3.816c-5.331-2.601-11.743-.961-15.064 3.853z" fill="#b153e0"/><path d="M240.045 1435.187c-.251 0-.506-.048-.753-.148l-162.426-66.146-62.666-25.594a2 2 0 0 1-1.095-2.607c8.369-20.5 22.19-23.566 50.012-22.691 8.659.273 55.849 1.311 63.613 1.481l8.979-13.018c3.853-5.585 11.414-7.526 17.587-4.515l7.822 3.816a11.57 11.57 0 0 1 6.205 7.684 11.302 11.302 0 0 1-1.923 9.45l-4.47 5.991 24.369 21.553a46.716 46.716 0 0 0 23.933 11.205l29.115 4.455c4.066.622 8.228-.464 11.415-2.98 2.885-2.278 6.366-5.02 9.187-7.224 3.515-2.747 7.473-3.416 10.857-1.836 3.102 1.446 5.263 4.656 5.378 7.987.106 3.071-1.48 5.745-4.353 7.334-5.327 2.948-11.982 6.842-14.444 8.289-.224 16.381-4.85 34.318-14.51 56.317a2 2 0 0 1-1.832 1.196zm-222.451-94.822 60.782 24.824 160.615 65.409c9.121-21.168 13.386-38.394 13.404-54.075 0-.706.374-1.359.982-1.719.087-.052 8.831-5.219 15.517-8.919 1.963-1.086 2.33-2.61 2.292-3.697-.063-1.836-1.326-3.687-3.071-4.5-2.004-.935-4.384-.449-6.704 1.363a2662.22 2662.22 0 0 0-9.171 7.211c-4.054 3.201-9.337 4.583-14.498 3.794l-29.116-4.455a50.705 50.705 0 0 1-25.979-12.163l-25.748-22.772a2 2 0 0 1-.278-2.694l5.571-7.466a7.309 7.309 0 0 0 1.242-6.115 7.588 7.588 0 0 0-4.072-5.032l-7.822-3.816c-4.412-2.151-9.802-.779-12.541 3.191l-9.592 13.905a2.021 2.021 0 0 1-1.69.864c-.552-.012-55.317-1.209-64.73-1.506-26.68-.839-37.978 1.854-45.396 18.367z" fill="#b153e0"/><path d="M134.496 1346.449c-1.302 0-2.611-.1-3.918-.303l-59.579-9.286c-8.458-1.318-14.904-8.417-15.327-16.881a2 2 0 0 1 3.995-.199c.328 6.579 5.353 12.1 11.948 13.128l59.579 9.286c7.428 1.157 14.99-1.666 19.73-7.369l5.763-6.934a2 2 0 0 1 3.076 2.556l-5.763 6.934c-4.799 5.775-12.023 9.067-19.505 9.067zm82.762 63.62a20.48 20.48 0 0 1-7.753-1.535c-10.348-4.226-15.374-15.97-11.205-26.18 2.022-4.951 5.878-8.805 10.857-10.853 4.969-2.043 10.463-2.043 15.471.002 5.007 2.045 8.932 5.891 11.049 10.829 2.122 4.948 2.177 10.4.155 15.351s-5.878 8.805-10.857 10.853a20.27 20.27 0 0 1-7.718 1.532zm-.382-36.098c-2.104 0-4.204.41-6.197 1.229-3.981 1.637-7.062 4.715-8.676 8.667-3.335 8.167.708 17.572 9.014 20.964 4.029 1.646 8.446 1.647 12.437.006 3.981-1.637 7.062-4.715 8.676-8.667s1.568-8.306-.128-12.262c-1.701-3.966-4.856-7.057-8.886-8.702a16.48 16.48 0 0 0-6.24-1.236z" fill="#25242e"/><path d="m8.162 1359.634 62.12 25.371 160.907 65.652c5.18 1.658 10.694-1.138 12.316-6.246 1.622-5.108-1.263-10.593-6.443-12.251L77.08 1366.821l-61.581-25.151c-5.036-2.057-10.76.298-12.786 5.259s.414 10.65 5.449 12.706z" fill="#fff"/><path d="M234.243 1453.138c-1.226 0-2.459-.191-3.664-.577a1.962 1.962 0 0 1-.146-.053l-160.907-65.652-62.121-25.371c-6.048-2.47-8.984-9.34-6.544-15.314 1.184-2.899 3.441-5.155 6.355-6.354a11.848 11.848 0 0 1 9.039 0l221.493 90.462c6.171 2.021 9.606 8.613 7.662 14.736a11.535 11.535 0 0 1-5.747 6.798 11.781 11.781 0 0 1-5.421 1.324zm-2.374-4.364a7.833 7.833 0 0 0 5.96-.513 7.563 7.563 0 0 0 3.77-4.455c1.287-4.051-1.022-8.421-5.146-9.741a2.544 2.544 0 0 1-.146-.053l-221.564-90.491a7.872 7.872 0 0 0-6.005-.004 7.583 7.583 0 0 0-4.174 4.167c-1.606 3.932.347 8.462 4.354 10.099l62.12 25.371 160.831 65.621z" fill="#25242e"/><path d="m408.21 530.833-10.733 34.209c121.925 40.906 242.093 50.809 346.579-14.519z" fill="#dda6ff"/><path d="M777.74 261.99c-62.605-51.182-107.797-70.714-176.309-74.605-37.488-2.129-109.956 3.508-156.267 15.38-39.894 10.227-74.328 27.191-130.991 59.177l92.273 94.104 247.896-36.115 123.397-57.942z" fill="#25242e"/><path d="M777.739 263.99a1.99 1.99 0 0 1-1.265-.452c-63.104-51.59-107.303-70.303-175.156-74.157-37.913-2.151-109.505 3.49-155.657 15.321-40.294 10.33-75.563 27.967-130.505 58.981a2.001 2.001 0 0 1-1.967-3.483c55.247-31.187 90.75-48.932 131.478-59.373 46.51-11.923 118.667-17.611 156.876-15.439 35.625 2.023 63.702 8.106 91.038 19.724 27 11.475 53.654 28.539 86.423 55.329a2 2 0 0 1-1.266 3.548zM726.3 488.212s19.532 38.721 17.757 62.311l-335.846-11.466 318.09-50.846z" fill="#25242e"/><path d="M744.057 552.523h-.069l-335.846-11.466a2 2 0 0 1-.248-3.975l318.09-50.846a2.001 2.001 0 0 1 2.102 1.074c.808 1.602 19.762 39.492 17.965 63.362a2 2 0 0 1-1.993 1.85zm-315.09-14.758 313.19 10.692c.518-20.442-13.776-51.337-17.003-58.037z" fill="#25242e"/><path d="m709.999 307.639-49.04-34.026-178.761 26.772-100.64 77.845 26.651 160.828 328.71-25.545c40.538-54.189-2.412-79.536-14.126-134.577-10.973-51.564-11.196-66.527-12.795-71.297z" fill="#25242e"/><path d="M408.209 541.058a2 2 0 0 1-1.972-1.673l-26.651-160.828a2 2 0 1 1 3.946-.654l26.352 159.019 325.974-25.332c26.239-35.565 15.574-58.019 2.098-86.399-6.254-13.171-13.342-28.1-17.117-45.838-7.341-34.493-9.875-52.602-11.236-62.331-.64-4.575-1.026-7.336-1.5-8.747a2 2 0 1 1 3.793-1.271c.59 1.761.973 4.497 1.668 9.464 1.354 9.68 3.876 27.698 11.187 62.052 3.677 17.279 10.358 31.349 16.819 44.955 13.585 28.611 25.317 53.32-3.048 91.237a2.002 2.002 0 0 1-1.447.796l-328.71 25.545a2.033 2.033 0 0 1-.156.006z" fill="#25242e"/><path d="M408.208 541.058a1.999 1.999 0 0 1-.153-3.994l328.71-25.545a2 2 0 1 1 .31 3.988l-328.71 25.545a2.08 2.08 0 0 1-.157.006zm64.421-340.402c45.549 17.943 154.566 70.682 154.566 70.682l-51.904 72.577s-147.926-74.699-211.555-105.133c-22.533-10.778 66.057-55.001 108.893-38.127z" fill="#fff"/><path d="M575.29 345.915a1.98 1.98 0 0 1-.9-.215c-1.479-.747-148.635-75.037-211.517-105.114-4.332-2.072-5.794-5.607-4.012-9.699 3.753-8.62 22.754-20.109 46.207-27.941 27.115-9.055 52.009-10.567 68.295-4.152 45.098 17.765 153.613 70.215 154.704 70.743a2.001 2.001 0 0 1 .756 2.964l-51.904 72.577c-.387.541-1 .836-1.628.836zM449.51 198.854c-12.689 0-27.515 2.657-43.176 7.886-21.745 7.261-40.577 18.329-43.806 25.744-.758 1.74-.696 3.17 2.07 4.494 59.457 28.438 194.163 96.356 210.063 104.379l49.524-69.25c-15.498-7.469-110.844-53.264-152.29-69.59-6.22-2.45-13.816-3.662-22.386-3.662z" fill="#25242e"/><path d="M534.021 256.764s69.937-60.702 86.369-71.802c16.128-10.895 111.732 21.13 96.97 37.755S601.562 317.35 601.562 317.35z" fill="#fff"/><path d="M601.562 319.351c-.479 0-.958-.171-1.336-.511l-67.541-60.586a2.003 2.003 0 0 1 .024-2.999c2.859-2.482 70.216-60.909 86.56-71.949 7.898-5.336 30.523-1.37 49.061 4.123 17.453 5.17 40.832 14.631 49.284 24.279 5.27 6.016 3.04 10.313 1.241 12.338-14.717 16.574-111.94 91.698-116.072 94.888a1.994 1.994 0 0 1-1.222.417zm-64.517-62.56 64.611 57.958c11.922-9.23 100.647-78.087 114.208-93.359.677-.762 2.473-2.785-1.259-7.046-6.393-7.297-25.446-16.572-47.411-23.08-21.854-6.474-40.214-8.341-45.685-4.644-14.716 9.941-73.624 60.79-84.464 70.171z" fill="#25242e"/><path d="m521.9 216.561 59.754-6.45c17.957-1.938 34.691 9.367 39.595 26.75l32.006 113.463-121.521 20.947-17.575-144.964a8.743 8.743 0 0 1 7.741-9.745z" fill="#fff"/><path d="M531.733 373.27a2.003 2.003 0 0 1-1.986-1.76l-17.575-144.964a10.665 10.665 0 0 1 2.253-7.975 10.664 10.664 0 0 1 7.259-3.999l59.754-6.45a38.902 38.902 0 0 1 41.734 28.195l32.007 113.462a2.002 2.002 0 0 1-1.585 2.514L532.073 373.24c-.113.02-.227.029-.34.029zm-9.619-154.721a6.697 6.697 0 0 0-4.557 2.51 6.696 6.696 0 0 0-1.414 5.006l17.322 142.877 117.261-20.213-31.404-111.326a34.919 34.919 0 0 0-37.455-25.305l-59.754 6.45z" fill="#25242e"/><path d="m391.534 492.376-91.224-69.584 121.492-66.634s-63.725-111.912-107.627-94.215c-35.488 20.162-40.2 20.373-108.009 63.927-78.913 50.687-89.806 116.487-26.244 171.755 60.339 52.466 143.397 101.881 143.397 101.881l68.216-107.13z" fill="#fff"/><path d="M323.316 601.506c-.348 0-.7-.091-1.021-.282-.832-.495-83.904-50.108-143.687-102.09-29.367-25.535-43.787-54.25-41.699-83.039 2.394-33.018 25.968-64.799 68.174-91.909 50.091-32.175 65.441-40.534 84.875-51.116 6.853-3.731 13.938-7.59 23.227-12.867a2.001 2.001 0 0 1 1.976 3.478c-9.32 5.295-16.421 9.163-23.29 12.902-19.363 10.544-34.657 18.873-84.626 50.969-41.105 26.402-64.048 57.12-66.347 88.833-1.993 27.484 11.955 55.054 40.334 79.731 54.833 47.678 129.417 93.396 141.445 100.671l66.182-103.935-89.764-68.469a2 2 0 0 1 2.426-3.18l91.225 69.584a2 2 0 0 1 .474 2.665l-68.216 107.13a1.997 1.997 0 0 1-1.689.926z" fill="#25242e"/><path d="M387.044 603.675c-37.022 13.178-63.726-4.169-63.726-4.169-25.701-15.214 33.081-117.509 62.687-112.654 0 0 38.061 103.645 1.039 116.823z" fill="#fff"/><path d="M359.009 610.662c-21.846.001-35.972-8.953-36.781-9.479l-8.45-5.144a2 2 0 0 1 2.081-3.417l8.499 5.175c.307.198 26.43 16.66 62.015 3.994 4.832-1.72 8.394-5.142 10.888-10.462 13.848-29.534-12.862-103.048-13.134-103.788a2 2 0 1 1 3.755-1.379c1.132 3.082 27.55 75.835 13 106.865-2.93 6.249-7.36 10.465-13.168 12.532-10.517 3.743-20.198 5.102-28.706 5.102z" fill="#25242e"/><path d="M386.005 486.852c58.9-25.599 98.425-17.019 119.887-.161 18.575 14.59 8.93 39.118-17.844 30.694-7.069-2.224-38.303-14.994-70.431 5.511-16.59 10.588-55.315-25.742-31.612-36.044z" fill="#fff"/><path d="M417.62 524.896a2.001 2.001 0 0 1-1.078-3.686c30.796-19.654 60.62-9.596 70.42-6.292.663.224 1.228.414 1.688.559 12.985 4.085 20.606-.136 23.408-5.45 3.502-6.641.459-15.59-7.4-21.764-11.654-9.154-27.137-14.485-44.774-15.417-21.67-1.146-46.263 4.184-73.08 15.839a2.001 2.001 0 0 1-1.595-3.669c27.39-11.903 52.584-17.346 74.886-16.165 18.465.976 34.729 6.6 47.034 16.266 9.404 7.386 12.887 18.397 8.468 26.775-3.555 6.739-12.816 12.224-28.147 7.399-.481-.151-1.072-.351-1.766-.584-9.352-3.153-37.809-12.75-66.989 5.874a1.996 1.996 0 0 1-1.074.314z" fill="#25242e"/><path d="M403.328 504.985s69.126 18.658 94.526 30.96c35.449 17.17 28.71 47.453-4.123 40.614-43.772-9.117-99.719-31.085-99.719-31.085-20.955-9.487-13.859-41.043 9.316-40.489z" fill="#fff"/><path d="M502.531 579.519c-2.879 0-5.967-.328-9.208-1.002-43.436-9.047-99.481-30.961-100.042-31.182a2.001 2.001 0 0 1 1.462-3.724c.558.219 56.295 22.012 99.396 30.989 12.582 2.621 22.325-.424 24.821-7.755 2.599-7.63-3.171-19.992-21.978-29.101-24.939-12.079-93.485-30.643-94.175-30.829a2 2 0 0 1 1.042-3.862c2.83.764 69.599 18.847 94.877 31.091 21.107 10.223 27.273 24.438 24.02 33.99-2.485 7.298-10.048 11.384-20.215 11.384z" fill="#25242e"/><path d="M398.284 528.918s75.542 28.079 91.312 35.733c34.759 16.871 25.231 48.873-6.379 40.142-47.058-12.998-97.227-34.666-97.227-34.666-23.001-7.19-1.777-46.173 12.295-41.21z" fill="#fff"/><path d="M493.467 608.313c-3.188 0-6.775-.485-10.782-1.592-46.652-12.885-96.985-34.54-97.488-34.757a2 2 0 1 1 1.586-3.672c.5.216 50.588 21.764 96.967 34.574 12.292 3.394 22.143.533 25.094-7.292 2.972-7.88-2.057-20.355-20.121-29.123-15.504-7.525-90.381-35.377-91.135-35.658a2 2 0 1 1 1.393-3.749c3.088 1.147 75.812 28.199 91.488 35.808 20.321 9.863 25.71 24.608 22.117 34.133-2.188 5.799-8.363 11.327-19.119 11.328z" fill="#25242e"/><path d="M395.82 561.166c23.979 12.673 50.218 34.395 64.191 53.135s-6.064 36.76-28.615 21.795c-22.551-14.964-41.771-30.331-44.352-32.421-14.505-11.743-16.597-55.919 8.776-42.509z" fill="#fff"/><path d="M447.879 643.679c-5.247 0-11.268-1.722-17.588-5.917-23.678-15.713-43.665-31.853-44.504-32.532a2 2 0 0 1 2.517-3.109c.833.675 20.677 16.7 44.2 32.309 11.683 7.753 21.887 5.967 26.817.759 4.752-5.02 4.403-12.566-.911-19.692-13.76-18.453-39.882-40.067-63.522-52.562a1.999 1.999 0 0 1-.833-2.703 1.997 1.997 0 0 1 2.703-.833c24.11 12.742 50.782 34.828 64.86 53.707 6.455 8.657 6.694 18.405.609 24.833-3.259 3.443-8.287 5.741-14.345 5.741zm-107.92-190.643 76.973-61.301c55.255-55.746-58.857-147.489-102.759-129.792-35.488 20.162-66.21 34.904-123.222 74.516 14.746 14.803 149.008 116.577 149.008 116.577z" fill="#25242e"/><path d="M339.959 455.036c-.425 0-.851-.135-1.208-.406-5.487-4.159-134.542-102.028-149.217-116.76a2.002 2.002 0 0 1 .276-3.054c45.004-31.269 73.553-47.012 101.163-62.237 7.225-3.985 14.697-8.105 22.213-12.375l11.133-6.249a2 2 0 0 1 1.958 3.488l-11.125 6.244c-7.529 4.278-15.012 8.404-22.249 12.395-27.105 14.947-55.116 30.394-98.792 60.619 19.976 18.2 132.691 103.841 145.817 113.803l75.757-60.333a2 2 0 0 1 2.493 3.129l-76.974 61.301c-.364.29-.805.436-1.246.436zM516.41 932.918a2 2 0 0 1-1.945-2.472c.381-1.576 38.548-158.835 72.163-262.311a2.001 2.001 0 0 1 3.805 1.237c-33.569 103.331-71.699 260.441-72.08 262.016a2.002 2.002 0 0 1-1.942 1.53z" fill="#25242e"/><path d="M588.531 670.755a2 2 0 0 1-.777-3.844l60.732-25.563a1.999 1.999 0 1 1 1.552 3.686l-60.732 25.563a1.988 1.988 0 0 1-.775.157z" fill="#25242e"/><path d="M388.198 416.62a2 2 0 0 1-1.275-3.542l32.009-26.469a2 2 0 0 1 2.549 3.083l-32.009 26.469a1.992 1.992 0 0 1-1.273.458zm365.596 59.66a2 2 0 0 1-1.993-2.189c1.713-18.125-5.533-32.923-13.923-50.057-6.242-12.748-13.317-27.197-17.039-44.683-8.529-40.078-10.878-57.55-12.006-65.946-.322-2.394-.554-4.123-.797-5.391a2 2 0 1 1 3.929-.753c.264 1.378.502 3.153.833 5.611 1.122 8.348 3.457 25.717 11.954 65.646 3.619 17.003 10.278 30.604 16.719 43.756 8.296 16.942 16.132 32.945 14.313 52.193a2 2 0 0 1-1.989 1.812z" fill="#fff"/><path d="M830.937 377.911a2 2 0 0 1-1.776-2.917l24.159-46.853a2 2 0 0 1 3.555 1.833l-24.159 46.853a2.002 2.002 0 0 1-1.779 1.084z" fill="#25242e"/><path d="M802.015 495.527a1.999 1.999 0 0 1-1.864-1.275c-3.826-9.833-3.84-23.841-.044-41.634a2 2 0 1 1 3.913.835c-3.631 17.017-3.678 30.255-.141 39.349a2 2 0 0 1-1.864 2.726z" fill="#fff"/><path d="M355.134 513.446a1.999 1.999 0 0 1-1.509-3.311c10.532-12.121 19.029-18.685 33.677-26.01a2 2 0 1 1 1.789 3.577c-14.117 7.061-22.305 13.383-32.447 25.056a1.994 1.994 0 0 1-1.511.688zm206.581-145.344a2 2 0 0 1-1.979-1.728l-4.753-34.656a1.999 1.999 0 1 1 3.962-.544l4.753 34.656a1.999 1.999 0 0 1-1.983 2.272zm34.532-5.953a2 2 0 0 1-1.949-1.561l-7.498-33.299a2 2 0 1 1 3.903-.879l7.498 33.299a2 2 0 0 1-1.953 2.44zm32.544-5.609a2 2 0 0 1-1.941-1.524l-7.871-32.094a2 2 0 1 1 3.885-.953l7.871 32.094a2 2 0 0 1-1.944 2.477zm-40.259 571.895c-.033 0-.066 0-.1-.002a1.999 1.999 0 0 1-1.899-2.096l9.378-191.271c.054-1.103.977-1.939 2.096-1.899a1.999 1.999 0 0 1 1.899 2.096l-9.378 191.271a2 2 0 0 1-1.996 1.902zm10.349-211.074c-.033 0-.066 0-.1-.002a1.999 1.999 0 0 1-1.899-2.096l1.314-26.792c.054-1.103.974-1.937 2.096-1.899a1.999 1.999 0 0 1 1.899 2.096l-1.314 26.792a2 2 0 0 1-1.996 1.902z" fill="#25242e"/></svg></g></svg>