<svg xmlns="http://www.w3.org/2000/svg" viewBox="0 0 1200 900" width="1200" height="900"><g transform="translate(410.0 75.0) rotate(0.0 77.0 76.5) scale(0.9976484001995297 0.9937775237402409)"><svg width="154.363" height="153.958" viewBox="0 0 154.363 153.958"><path d="M139.278 47.746c-10.111-18.484-17.99-29.526-26.502-34.103l.001-.002L94.522 3.599l-.003.008c-9.684-5.352-20.155-2.309-35.652 7.708-11.966 7.735-22.062 14.363-34.292 22.467-28.624 19.259-30.836 30.559-8.538 71.323 10.136 18.53 18.091 29.811 26.504 34.744l-.004.011.237.131c.198.113.396.221.594.327l17.561 9.668.009-.024c9.925 5.88 20.474 2.907 35.997-7.536 11.319-7.693 22.534-15.82 33.318-24.248 27.534-21.519 30.371-31.409 9.025-70.432z" fill="#ff6d6d"/><path d="M138.759 49.247c-9.803-17.981-17.441-28.722-25.694-33.174l.001-.002-17.698-9.768-.002.007c-9.388-5.207-19.54-2.246-34.565 7.498a3328.254 3328.254 0 0 0-33.246 21.855c-27.751 18.735-29.896 29.726-8.278 69.38 9.827 18.026 17.539 28.999 25.695 33.797l-.004.011.23.127c.192.11.384.215.576.318l17.026 9.405.009-.023c9.622 5.719 19.85 2.828 34.899-7.331 10.974-7.483 21.847-15.389 32.302-23.587 26.694-20.932 29.444-30.554 8.749-68.513z" fill="#df5468"/><path d="M25.053 96.299c-6.164-2.319-12.62-5.62-18.09-9.25-9.38-21.27-7.78-32.28 5.35-43.99 7.13.79 15.04 2.93 23.04 6.42-16.99 13.09-20.18 23.929-10.3 46.82z" fill="#ff6d6d"/><path d="M19.573 76.969c-6.484-1.164-13.259-4.019-18.22-7.56-.9-6.21-.08-11.38 2.49-16.17 6.999.05 15.063 2.776 21.03 6.27-4.02 5.25-5.77 10.75-5.3 17.46z" fill="#ffb9df"/><path d="M71.487 153.988c-3.856 0-7.389-1.032-10.855-3.047a.945.945 0 0 1-.187-.077l-17.562-9.673c-.189-.1-.403-.216-.607-.333l-.215-.114a1.042 1.042 0 0 1-.169-.114c-7.959-4.737-15.718-14.913-26.731-35.041-3.884-7.101-6.864-13.033-9.11-18.14C2.946 80.418 1.085 74.563.363 69.553c-.927-6.426-.103-11.761 2.596-16.79 1.869-3.474 4.71-6.89 8.685-10.444 3.17-2.846 7.101-5.823 12.371-9.37 11.557-7.652 21.81-14.4 34.307-22.473C72.315 1.434 83.898-3.35 94.924 2.687a.886.886 0 0 1 .082.04l18.255 10.034c.035.019.068.04.1.062 8.041 4.378 15.814 14.373 26.791 34.439 21 38.396 19.611 49.118-9.287 71.7-10.42 8.149-21.646 16.321-33.364 24.287-10.795 7.266-18.945 10.739-26.014 10.739zm-10.278-4.987a.91.91 0 0 1 .237.099c9.1 5.394 18.895 3.288 34.934-7.507 11.678-7.938 22.867-16.083 33.253-24.206 29.632-23.154 28.117-33.779 8.764-69.165-10.824-19.785-18.383-29.548-26.092-33.695a.934.934 0 0 1-.113-.071L94.116 4.519a.652.652 0 0 1-.084-.041c-8.827-4.873-18.534-2.719-34.625 7.678-12.489 8.067-22.737 14.812-34.282 22.457-5.185 3.489-9.047 6.412-12.147 9.195-3.801 3.399-6.501 6.638-8.258 9.901-2.486 4.633-3.242 9.577-2.379 15.559.696 4.827 2.508 10.511 5.539 17.374 2.224 5.055 5.179 10.937 9.035 17.986 10.892 19.904 18.463 29.86 26.133 34.361.036.021.07.044.102.068l.096.051c.209.12.402.225.586.322z" fill="#670a39"/><path d="M34.533 115.277c-22.298-40.764-20.086-52.063 8.538-71.322 12.23-8.104 22.326-14.732 34.292-22.467 28.974-18.729 40.381-13.11 61.915 26.258 21.346 39.023 18.51 48.914-9.025 70.432-10.783 8.427-21.998 16.555-33.318 24.247-28.625 19.259-40.343 13.179-62.402-27.148z" fill="#ff6d6d"/><path d="M153.221 88.433c-1.073 10.57-8.702 18.588-22.972 29.741-10.783 8.434-21.992 16.554-33.311 24.248-28.632 19.263-40.349 13.178-62.405-27.143-2.358-4.309-4.439-8.286-6.242-11.976a338.964 338.964 0 0 0 4.393 8.277c22.056 40.321 33.773 46.406 62.405 27.143 11.319-7.694 22.528-15.814 33.311-24.248 14.27-11.153 21.899-19.171 22.972-29.741.795-7.703-1.896-16.757-8.046-29.362 7.453 14.566 10.764 24.618 9.895 33.061z" fill="#df5468"/><path d="M153.221 88.433c-.851-8.832-5.503-19.707-13.946-35.142C117.746 13.923 106.334 8.31 77.36 27.037 65.394 34.768 55.304 41.399 43.069 49.5 28.43 59.358 20.708 67.117 19.635 77.808c-1.295-13.733 6.381-22.38 23.434-33.857C55.304 35.85 65.394 29.219 77.36 21.488c28.974-18.727 40.386-13.114 61.915 26.255 10.293 18.81 14.963 30.851 13.946 40.69z" fill="#ffb9df"/><path d="M71.465 153.959c-1.701 0-3.337-.198-4.934-.587-11.818-2.88-21.341-16.526-32.875-37.612-2.46-4.496-4.509-8.427-6.263-12.017-5.415-11.075-8.115-19.045-8.753-25.842-1.395-14.794 7.314-23.637 23.871-34.78 11.538-7.64 21.784-14.383 34.307-22.474 13.88-8.971 23.284-11.917 31.448-9.847 11.55 2.928 20.764 16.122 31.887 36.462a300.509 300.509 0 0 1 3.99 7.517c.022.032.074.129.112.223 7.921 15.468 10.818 25.208 9.961 33.532-1.128 11.118-9.077 19.271-23.351 30.429-10.42 8.149-21.646 16.321-33.364 24.287-10.882 7.322-19.006 10.709-26.036 10.709zM103.13 12.17c-6.609 0-14.486 3.215-25.227 10.157-12.515 8.086-22.756 14.825-34.282 22.458-15.912 10.708-24.291 19.13-22.99 32.929.607 6.458 3.326 14.449 8.559 25.15 1.741 3.562 3.775 7.467 6.221 11.936 13.14 24.021 21.998 34.291 31.594 36.629 7.594 1.853 16.379-1.092 29.376-9.836 11.678-7.938 22.867-16.083 33.253-24.206 13.838-10.815 21.537-18.649 22.593-29.054v-.002c.814-7.906-2.022-17.323-9.791-32.504a298.443 298.443 0 0 0-4.038-7.606c-12.664-23.157-21.25-33.106-30.623-35.482a18.847 18.847 0 0 0-4.645-.569z" fill="#670a39"/><path d="M74.274 135.829c-.964 0-1.939-.101-2.898-.3-4.274-.889-7.852-3.687-10.074-7.881-2.13-4.021-2.755-8.876-1.758-13.67 1.39-6.69 5.634-12 11.059-14.215L49.715 61.579a6.438 6.438 0 0 1 2.083-8.489c14.228-9.305 22.717-15.118 27.789-18.591 7.33-5.02 8.457-5.791 10.5-5.791.618 0 1.143.117 1.628.235 3.005.739 3.13.974 9.717 13.291 4.014 7.506 10.731 20.068 22.362 40.971 3.272 5.982 2.96 13.633-.806 19.983-3.195 5.389-8.315 8.606-13.694 8.606h-.002c-.961 0-1.936-.101-2.897-.301-8.489-1.765-13.717-11.281-11.652-21.212 1.333-6.418 5.391-11.597 10.58-13.864l-9.897-18.093-23.975 16.021a6154.628 6154.628 0 0 0 14.387 26.28c3.451 6.269 3.71 6.74 3.871 7.579 2.641 6.198 1.925 13.662-1.9 19.566-3.269 5.047-8.329 8.059-13.535 8.059zm-9.057-72.89L89.189 46.92l-1.3-2.376-23.972 16.019z" fill="#df5468"/><path d="M91.055 31.638c-2.882-.707-1.435.032-37.715 23.758a3.7 3.7 0 0 0-1.19 4.851l22.574 41.268c-5.787.747-10.985 5.913-12.464 13.026-1.789 8.608 2.545 16.788 9.681 18.271 11.072 2.301 20.268-12.254 15.096-23.795-.228-1.192.612.869-18.425-34.084-.458-.84-.2-1.894.595-2.425l25.518-17.053a1.85 1.85 0 0 1 2.65.65L109.4 78.088c-5.562.866-10.515 5.894-11.941 12.756-1.756 8.448 2.498 16.476 9.501 17.931 11.523 2.395 20.308-13.439 14.409-24.222-29.223-52.517-27.32-52.179-30.314-52.915zM63.268 65.157l-2.191-4.006a1.848 1.848 0 0 1 .595-2.425l25.516-17.05a1.85 1.85 0 0 1 2.65.65l2.191 4.005c.46.841.202 1.893-.595 2.425L65.918 65.808a1.85 1.85 0 0 1-2.65-.651z" fill="#f6e4d5"/><path d="M74.224 134.048c-.828 0-1.66-.084-2.488-.256-7.664-1.594-12.355-10.32-10.457-19.453 1.407-6.769 6.196-12.136 11.906-13.55L51.272 60.727a4.673 4.673 0 0 1 1.512-6.161C67.013 45.26 75.512 39.44 80.59 35.963c8.197-5.612 8.517-5.829 10.703-5.297l.001.001c2.234.549 2.234.549 8.574 12.404 4.016 7.511 10.738 20.081 22.376 40.996 3.262 5.964 2.516 13.932-1.855 19.831-3.493 4.716-8.589 6.9-13.632 5.857-7.532-1.566-12.142-10.141-10.277-19.114 1.373-6.605 5.864-11.756 11.398-13.25l-11.38-20.806a.842.842 0 0 0-.543-.417.84.84 0 0 0-.674.118L69.762 73.339a.848.848 0 0 0-.272 1.116c7.759 14.247 12.159 22.24 14.788 27.017 3.584 6.512 3.594 6.529 3.721 7.25 2.791 6.348 1.696 14.043-2.804 19.64-2.947 3.665-6.916 5.686-10.971 5.686zM90.132 32.496c-.918 0-2.163.838-8.412 5.117-5.084 3.481-13.595 9.309-27.833 18.62a2.682 2.682 0 0 0-.86 3.534l22.574 41.269a1.002 1.002 0 0 1-.749 1.472c-5.487.708-10.262 5.74-11.613 12.237-1.674 8.054 2.321 15.72 8.906 17.088 4.189.872 8.378-.852 11.493-4.726 3.998-4.973 4.998-12.078 2.487-17.681a1.023 1.023 0 0 1-.07-.222l-.024-.131c-.068-.385-.199-.633-3.504-6.638a6337.798 6337.798 0 0 1-14.793-27.024 2.839 2.839 0 0 1 .917-3.735L94.17 54.624a2.853 2.853 0 0 1 4.083 1.002l12.025 21.983a1 1 0 0 1-.723 1.468c-5.333.83-9.8 5.642-11.115 11.971-1.641 7.895 2.273 15.408 8.726 16.749 4.323.903 8.556-.957 11.617-5.089 3.258-4.398 5.051-11.569 1.711-17.675-11.643-20.923-18.37-33.503-22.389-41.019-5.918-11.067-5.945-11.075-7.287-11.405-.255-.062-.461-.113-.686-.113zM64.888 67.119a2.854 2.854 0 0 1-2.498-1.482l-2.191-4.006a2.833 2.833 0 0 1 .917-3.736l25.516-17.05a2.852 2.852 0 0 1 4.083 1.002l2.191 4.005a2.833 2.833 0 0 1-.917 3.736L66.474 66.639a2.86 2.86 0 0 1-1.586.48zm23.324-24.755a.84.84 0 0 0-.469.144l-25.516 17.05a.846.846 0 0 0-.273 1.115l2.191 4.006a.842.842 0 0 0 .543.417.836.836 0 0 0 .674-.118l25.516-17.051a.846.846 0 0 0 .273-1.115l-2.191-4.004a.84.84 0 0 0-.543-.418.8.8 0 0 0-.205-.026z" fill="#670a39"/><g fill="#fff8ed"><path d="M117.848 84.884 90.336 35.548a.924.924 0 0 0-1.311-.325L54.371 57.709a.925.925 0 0 0-.305 1.224l28.995 52.309a.924.924 0 1 0 1.617-.896L63.874 72.812l32.96-21.815 19.399 34.788a.926.926 0 0 0 1.615-.901zM62.974 71.19l-6.873-12.399 33.101-21.478 6.728 12.064z"/><path d="M77.756 127.459c-1.112.608-2.861 1.246-4.875.827-4.549-.946-7.34-6.809-6.094-12.803.779-3.748 2.953-6.921 5.816-8.487 1.112-.609 2.861-1.246 4.875-.827 4.549.946 7.341 6.809 6.094 12.803-.778 3.748-2.953 6.921-5.816 8.487zm34.871-24.013c-1.079.59-2.774 1.209-4.726.803-4.419-.918-7.127-6.626-5.914-12.463.76-3.654 2.878-6.747 5.666-8.272 1.079-.59 2.775-1.208 4.725-.803 4.419.919 7.128 6.627 5.914 12.463-.759 3.655-2.877 6.747-5.665 8.272z"/><path d="M85.399 118.846c-.858 4.131-3.299 7.644-6.518 9.406-1.341.733-3.46 1.502-5.937.983-2.003-.42-3.728-1.618-5.025-3.308-2.155-2.808-3.129-6.974-2.253-11.185.858-4.131 3.29-7.644 6.518-9.406 1.18-.653 2.977-1.323 5.096-1.109h.009c.268.027.545.071.823.125 2.655.545 4.944 2.495 6.303 5.338 1.297 2.718 1.645 5.973.984 9.156z"/></g><path d="M67.92 125.927c-4.886-6.366-2.466-16.918 4.265-20.591 2.732-1.511 4.999-1.096 5.105-1.109-8.011 4.494-11.377 10.829-9.37 21.7z" fill="#d3b6b8"/><path d="M119.531 94.922c-.832 3.993-3.187 7.402-6.313 9.11-1.293.708-3.338 1.443-5.728.947-1.966-.407-3.736-1.611-5.038-3.391a10.716 10.716 0 0 1-1.054-1.78c-1.248-2.629-1.585-5.772-.947-8.854.832-4.002 3.187-7.41 6.313-9.11 1.071-.584 2.656-1.195 4.533-1.107h.009c.39.018.779.062 1.186.151 5.171 1.082 8.393 7.5 7.039 14.034z" fill="#fff8ed"/><path d="M102.452 101.589c-4.448-6.028-2.218-16.192 4.312-19.743 2.447-1.335 4.437-1.091 4.542-1.107-6.211 5.216-9.563 12.741-8.854 20.85z" fill="#d3b6b8"/></svg></g><g transform="translate(16.0 284.0) rotate(0.0 582.5 285.5) scale(0.9984256584252985 1.000078815318195)"><svg width="1166.837" height="570.955" viewBox="0 0 1166.837 570.955"><path d="M941.149 357.556c-8.93 20.56-31.46 38.95-63.44 51.77-42.62 17.1-94.54 21.35-140.04 19.72l-15.34-29.78c150.31 10.18 208.6-49.75 190.83-67.78-13.74-13.9-51.86-7.53-70.23-2.34v.01c-27.085 7.164-44.845 16.014-57.3 20.56-.5-3.6-3.8-26.92-4.03-28.52 29.15-13.45 65.75-26.48 98.89-26.96 5.49-.09 10.89.18 16.14.84 42.09 5.29 56.61 34.651 44.52 62.48z" fill="#82b3fb"/><path d="M915.141 311.407c6.552 7.281-1.317 18.306-10.453 14.773-17.044-6.592-45.747-1.322-61.76 2.966v.01c-8.65 2.33-16.37 4.78-23.17 7.18-.01.01-.02.01-.04.01-10.73 3.78-19.16 7.39-25.34 10.08-2.59.99-5.5 2.1-8.75 3.31-.15-.99-.63-4.19-1.54-10.52-.61-4.3-1.4-10.03-2.42-17.49l26.29-11.61.83-.37.72-.21c47.32-13.89 92.38-12.46 105.44 1.66l.193.211z" fill="#b5dcfa"/><path d="M871.449 323.716c-9.6.97-20.94 3.29-28.52 5.43v.01c-8.37 2.22-16.16 4.71-23.17 7.18-.02.01-.05.02-.07.03-.07.03-.14.05-.21.08-10.35 3.67-18.97 7.31-25.23 10.01-.09.03-.17.07-.26.11-1.97.75-4.14 1.58-6.5 2.46-.61.23-1.23.46-1.86.69-.19-1.38-.8-5.67-1.48-10.52-1.1-7.78-2.41-17.02-2.55-18 27.21-12.56 60.9-24.74 92.22-26.7 2.24-.15 4.46-.24 6.67-.26h.06c5.47-.09 10.85.18 16.08.84-19.54 1.841-29.53 19.861-25.18 28.64z" fill="#670a39"/><path d="M785.629 350.716a.996.996 0 0 1-.99-.864c-.095-.69-.295-2.107-.556-3.96l-.923-6.559c-1.1-7.777-2.41-17.017-2.55-17.997-.062-.438.17-.864.571-1.05 34.917-16.116 66.064-25.13 92.577-26.79 2.302-.153 4.565-.241 6.723-.262 5.627-.093 11.085.193 16.274.848a1 1 0 0 1-.031 1.987c-9.788.923-18.292 6.247-22.749 14.243-2.668 4.787-3.277 9.632-1.629 12.958a.999.999 0 0 1-.796 1.44c-9.868.997-21.253 3.403-28.222 5.361-.045.02-.093.036-.142.05-7.472 1.982-15.233 4.387-23.067 7.147l-.031.013a2.625 2.625 0 0 1-.172.066 1.818 1.818 0 0 1-.103.039c-9.983 3.54-18.325 7.035-25.168 9.986-.119.044-.148.06-.18.073l-.12.053-.88.335c-1.733.66-3.611 1.376-5.627 2.127-.609.23-1.232.461-1.866.693a.947.947 0 0 1-.343.063zm-2.935-28.923c.36 2.534 1.483 10.458 2.445 17.264l.923 6.558.385 2.734.688-.258c2.016-.751 3.889-1.465 5.618-2.124l.88-.335c.103-.049.2-.091.306-.126 6.787-2.932 15.167-6.442 25.206-10.002l.095-.036.12-.048c7.914-2.792 15.691-5.204 23.183-7.196a.9.9 0 0 1 .114-.039c6.258-1.767 17.024-4.171 27.365-5.322-1.251-3.791-.467-8.727 2.205-13.521 3.704-6.646 9.999-11.568 17.508-13.903-3-.184-6.065-.25-9.169-.201-2.188.02-4.412.106-6.68.258-26.1 1.632-56.774 10.478-91.192 26.297z" fill="#670a39"/><path d="M1016.281 132.48c-.744 12.512-1.975 24.351-3.702 35.498-4.508 29.345-12.356 53.955-23.462 73.415-19.098 33.502-42.498 42.57-58.753 44.287-14.972 1.582-28.57-2.017-40.719-9.161-3.288-1.934-6.473-4.136-9.554-6.566-26.378-20.814-44.783-58.504-54.244-92.823-2.13-7.704 2.399-15.676 10.102-17.795 7.714-2.13 15.686 2.389 17.806 10.102 4.208 15.21 9.213 28.29 14.755 39.344 7.331 14.662 15.562 25.767 23.999 33.605 4.508 4.188 9.068 7.445 13.566 9.813 7.393 3.888 14.642 5.387 21.259 4.684 24.382-2.564 54.74-37.142 60.045-126.128.476-7.982 7.321-14.063 15.303-13.587 7.984.474 14.075 7.329 13.599 15.312z" fill="#82b3fb"/><path d="M1011.988 171.685c-8.245 49.803-31.848 108.737-81.623 113.994-54.122 5.718-90.038-56.029-104.518-108.55-2.13-7.704 2.399-15.676 10.102-17.795 7.714-2.13 15.686 2.389 17.806 10.102 4.208 15.21 9.213 28.29 14.755 39.344 7.838 28.963 27.194 53.841 55.185 54.927 24.351.941 55.495-14.393 68.524-80.818 2.75-14.021 9.409-18.095 16.027-16.771 2.624.517 4.156 3.066 3.742 5.567z" fill="#b5dcfa"/><path d="M923.464 287.047a64.769 64.769 0 0 1-20.108-3.194c-39.81-12.99-66.64-63.509-78.475-106.456a15.369 15.369 0 0 1 1.458-11.756 15.358 15.358 0 0 1 9.341-7.273 15.392 15.392 0 0 1 11.764 1.454 15.348 15.348 0 0 1 7.276 9.345l.417 1.471c15.485 54.805 38.853 74.072 51.404 80.68 5.848 3.086 11.66 4.676 17.273 4.725l.308.002c15.966 0 30.356-12.071 41.664-34.934 11.144-22.53 18.456-54.642 20.591-90.418.512-8.513 7.855-15.034 16.367-14.528a15.382 15.382 0 0 1 10.656 5.182 15.368 15.368 0 0 1 3.873 11.195c-1.282 21.59-5.784 63.026-21.531 97.963-15.476 34.333-37.436 53.232-65.272 56.172-2.343.246-4.681.37-7.006.37zm-83.635-127.245c-1.207 0-2.421.163-3.617.493-3.468.955-6.356 3.204-8.133 6.334s-2.228 6.766-1.27 10.235c11.697 42.446 38.111 92.343 77.167 105.087 8.488 2.761 17.332 3.683 26.284 2.735 27.078-2.86 48.496-21.367 63.658-55.006 15.616-34.644 20.085-75.807 21.358-97.26.216-3.593-.981-7.055-3.372-9.749s-5.686-4.297-9.28-4.513c-7.415-.446-13.806 5.238-14.252 12.651-2.15 36.037-9.535 68.421-20.794 91.185-11.668 23.591-26.679 36.047-43.425 36.048l-.329-.002c-5.965-.052-12.084-1.719-18.217-4.955-12.834-6.757-36.708-26.382-52.396-81.903l-.421-1.482a13.368 13.368 0 0 0-6.335-8.14 13.403 13.403 0 0 0-6.626-1.758z" fill="#670a39"/><path d="M903.726 282.912c-.02 0-.04-.01-.06-.01-39.29-12.82-65.86-62.37-77.82-105.77-2.13-7.71 2.4-15.68 10.1-17.8 7.72-2.13 15.69 2.39 17.81 10.1.14.5.28.99.42 1.48 8.4 29.73 24.85 67.05 51.9 81.29 6.12 3.23 12.04 4.79 17.73 4.84-11.05 1.08-20.83 13.58-20.08 25.87z" fill="#670a39"/><path d="M903.726 283.912c-.06 0-.136-.008-.203-.021a.943.943 0 0 1-.167-.039c-39.809-12.989-66.639-63.508-78.474-106.455a15.369 15.369 0 0 1 1.458-11.756 15.358 15.358 0 0 1 9.341-7.273 15.392 15.392 0 0 1 11.764 1.454 15.348 15.348 0 0 1 7.276 9.345l.417 1.471c15.485 54.805 38.853 74.072 51.404 80.68 5.848 3.086 11.66 4.676 17.273 4.725a1 1 0 0 1 .088 1.995c-10.573 1.033-19.894 13.093-19.179 24.814a1 1 0 0 1-.998 1.06zm-63.897-124.11c-1.207 0-2.421.163-3.617.493-3.468.955-6.356 3.204-8.133 6.334s-2.228 6.766-1.27 10.235c11.568 41.978 37.53 91.241 75.877 104.65.039-10.145 6.821-20.229 15.476-23.998-4.142-.728-8.344-2.21-12.553-4.431-12.834-6.757-36.708-26.382-52.396-81.903l-.421-1.482a13.368 13.368 0 0 0-6.335-8.14 13.416 13.416 0 0 0-6.628-1.758z" fill="#670a39"/><path d="M941.147 357.56s0 .011-.01.031c-8.944 20.556-31.475 38.93-63.426 51.742-20.794 8.334-43.811 13.628-67.252 16.658-22.914 2.978-46.22 3.795-68.234 3.206-7.993-.207-14.3-6.866-14.083-14.859.041-1.685.372-3.288.951-4.767 54.947 6.452 113.658-4.705 143.986-17.992 52.372-22.945 52.238-47.627 61.379-50.532 6.275-1.996 11.694 5.056 6.689 16.513z" fill="#b5dcfa"/><path d="M755.55 430.369c-6.293 0-12.29-.121-17.917-.323a1 1 0 0 1-.853-.541l-15.34-29.78a1 1 0 0 1 .053-1.007 1.01 1.01 0 0 1 .903-.449c115.374 7.816 177.811-26.479 190.063-49.928 3.257-6.235 3.169-11.789-.254-16.062-8.521-10.635-34.268-11.455-68.89-2.201a.907.907 0 0 1-.127.044 318.396 318.396 0 0 0-23.097 7.158l-.001-.003a.675.675 0 0 1-.076.025c-8.99 3.168-13.572 5.1-18.421 7.145-4.111 1.733-8.362 3.525-15.616 6.227a1.002 1.002 0 0 1-1.337-.788c-1.548-10.214-3.996-28.222-4.035-28.579a1.002 1.002 0 0 1 .575-1.019c37.808-17.461 70.51-26.529 97.196-26.951.932-.015 1.737-.027 1.976-.073.057-.011.115-.017.172-.018 35.387-.547 60.328 13.846 65.094 37.561 2.676 13.315-1.744 28.12-12.446 41.685-11.836 15.002-30.886 28.061-55.09 37.763-40.021 16.056-86.152 20.114-122.532 20.114zm-17.261-2.301c37.948 1.317 92.668-1.062 139.047-19.67 23.88-9.573 42.645-22.418 54.264-37.146 10.333-13.097 14.615-27.321 12.056-40.052-4.561-22.692-28.725-36.491-63.027-35.956-.417.063-1.083.073-2.222.092-26.249.415-58.449 9.315-95.72 26.459.45 3.328 2.392 17.512 3.747 26.571 6.521-2.448 10.514-4.132 14.383-5.763 4.885-2.06 9.499-4.006 18.57-7.201a.852.852 0 0 1 .086-.026 321.007 321.007 0 0 1 23.067-7.151.95.95 0 0 1 .13-.045c35.476-9.502 62.054-8.436 71.096 2.848 3.901 4.869 4.067 11.347.466 18.238-7.446 14.251-29.336 28.455-58.557 37.997-25.263 8.25-68.534 17.178-131.647 13.117z" fill="#670a39"/><path d="M652.782 463.153c-12.687 10.247-25.095 19.45-37.204 27.691-67.935 46.241-126.48 62.092-171.098 59.921-94.953-4.622-126.863-90.879-52.145-139.726h.01c30.763-20.063 71.003-28.657 107.713-31.641 8.541-.703 16.027 5.666 16.72 14.208.693 8.531-5.666 16.017-14.197 16.709-26.281 1.973-57.828 8.077-81.521 19.925-.01 0-.021.011-.021.011-104.632 51.534 15.003 168.098 212.261 8.768 6.659-5.377 16.42-4.343 21.807 2.327 5.379 6.659 4.345 16.43-2.325 21.807z" fill="#82b3fb"/><path d="M502.582 410.315c-26.602 2.022-57.324 8.004-81.521 19.925-.01 0-.021.011-.021.011-18.6 9.161-38.38 25.247-38.715 45.976-.039 2.433-1.133 4.796-3.112 6.213-7.632 5.467-22.232-4.817-12.676-30.227 11.188-29.748 44.245-45.341 57.977-51.618l2.295-6.38c20.06-7.238 44.369-12.47 73.249-14.817 8.541-.703 16.027 5.666 16.72 14.208.694 8.53-5.665 16.016-14.196 16.709z" fill="#b5dcfa"/><path d="M452.504 551.954c-2.809 0-5.498-.068-8.067-.193-41.99-2.046-75.087-20.373-88.534-49.027-10.307-21.962-7.124-46.656 8.733-67.752 6.868-9.154 16.003-17.49 27.152-24.776a.83.83 0 0 1 .091-.053c26.736-17.416 63.102-28.096 108.095-31.747a16.377 16.377 0 0 1 12.024 3.859 16.392 16.392 0 0 1 5.774 11.257 16.383 16.383 0 0 1-3.87 12.024 16.385 16.385 0 0 1-11.237 5.763c-31.014 2.32-60.591 9.547-81.153 19.828-.03.015-.061.028-.092.04-8.202 4.049-15.254 8.614-20.959 13.57-19.061 16.521-22.626 36.674-9.305 52.593 5.652 6.753 28.459 28.127 84.656 19.563 33.44-5.095 87.8-22.876 156.865-78.659a1 1 0 1 1 1.257 1.556c-120.812 97.578-215.595 93.143-244.311 58.823-13.885-16.593-10.146-38.334 9.528-55.387 5.847-5.079 13.062-9.75 21.443-13.881l.001.001c.024-.012.048-.022.072-.032 20.784-10.38 50.612-17.673 81.844-20.01a14.393 14.393 0 0 0 9.868-5.063 14.4 14.4 0 0 0 3.401-10.567 14.417 14.417 0 0 0-5.074-9.895 14.417 14.417 0 0 0-10.566-3.391c-44.703 3.628-80.785 14.22-107.246 31.481a.985.985 0 0 1-.089.052c-10.917 7.146-19.856 15.305-26.568 24.251-15.398 20.484-18.503 44.432-8.522 65.701 13.127 27.972 45.583 45.87 86.82 47.879 35.211 1.716 93.374-7.263 170.479-59.747 12.312-8.378 24.809-17.678 37.144-27.642a1 1 0 0 1 1.257 1.556c-12.377 9.997-24.919 19.33-37.276 27.738-71.953 48.979-127.605 60.287-163.635 60.287z" fill="#670a39"/><path d="M502.586 410.312c-26.34 1.97-58 8.17-81.52 19.93-.02 0-.03.01-.03.01-8.54 4.21-15.6 8.85-21.23 13.74.35-8.59-25.54-18.49-34.37-8.41 6.58-8.77 15.5-17.09 26.9-24.54h.01c30.69-20.02 70.87-28.65 107.71-31.64 8.54-.71 16.03 5.66 16.72 14.2.7 8.53-5.66 16.02-14.19 16.71z" fill="#670a39"/><path d="M399.805 444.992a1 1 0 0 1-.999-1.041c.123-3.024-3.99-6.732-10.236-9.228-7.512-3.001-17.72-3.806-22.383 1.518a1 1 0 0 1-1.552-1.26c6.868-9.154 16.004-17.49 27.153-24.776.03-.02.06-.037.091-.053 26.736-17.416 63.102-28.096 108.095-31.747a16.391 16.391 0 0 1 12.023 3.857 16.4 16.4 0 0 1 5.775 11.259 16.387 16.387 0 0 1-3.869 12.024 16.383 16.383 0 0 1-11.237 5.763h-.006c-31.01 2.32-60.587 9.547-81.147 19.828-.03.015-.061.028-.092.04-8.203 4.049-15.254 8.614-20.959 13.57a.999.999 0 0 1-.657.246zm-22.964-14.66c4.156 0 8.576.979 12.471 2.534 5.974 2.387 10.107 5.844 11.205 9.211 5.592-4.632 12.337-8.907 20.076-12.722l.001.001c.024-.012.048-.022.072-.032 20.781-10.379 50.608-17.672 81.841-20.01a14.394 14.394 0 0 0 9.872-5.063 14.395 14.395 0 0 0 3.4-10.567 14.416 14.416 0 0 0-5.075-9.896 14.416 14.416 0 0 0-10.565-3.39c-44.703 3.628-80.786 14.22-107.247 31.481a1.145 1.145 0 0 1-.089.052c-8.925 5.842-16.527 12.361-22.672 19.433 2.051-.713 4.338-1.032 6.71-1.032zm125.745-20.021h.01z" fill="#670a39"/><path d="M501.582 409.315c-25.077 1.882-53.972 7.393-76.879 17.733-9.532-8.923-31.77-12.139-42.696-10.288 14.118-8.05 32.76-29.771 112.471-36.247 8.542-.702 15.635 28.109 7.104 28.802z" fill="#670a39"/><path d="M424.704 428.048a1 1 0 0 1-.684-.27c-9.31-8.717-31.353-11.813-41.845-10.032a1.007 1.007 0 0 1-1.109-.65 1 1 0 0 1 .446-1.205c2.165-1.234 4.441-2.798 7.077-4.608 14.31-9.828 38.26-26.278 105.808-31.767 2.278-.188 4.566 1.276 6.613 4.234 4.188 6.051 7.054 18.191 4.429 23.734-.812 1.715-2.118 2.692-3.777 2.827h-.006c-16.775 1.259-49.025 5.226-76.542 17.647a.97.97 0 0 1-.41.09zm-35.737-12.796c11.609 0 27.679 3.361 35.924 10.617 27.661-12.336 59.828-16.291 76.613-17.551.93-.076 1.627-.629 2.129-1.688 2.087-4.408-.146-15.787-4.266-21.741-1.127-1.629-2.873-3.545-4.805-3.378-67.018 5.444-90.693 21.705-104.839 31.422-1.24.852-2.402 1.649-3.514 2.387a54.361 54.361 0 0 1 2.758-.068zm112.615-5.937h.01z" fill="#670a39"/><path d="M895.499 275.316c-4.35 6.6-9.38 12.93-14.99 18.93-16.18 17.36-37.18 31.93-60.75 42.09-.01.01-.02.01-.04.01-10.73 3.78-19.16 7.39-25.34 10.08-2.59.99-5.5 2.1-8.75 3.31-22.6 8.44-61.33 22.14-117.83 39.51-96.81 29.771-162.36 38.89-197.85 42.19-2.25.21-4.49.39-6.72.55-86.13 5.99-160.65-27.58-180.99-105.01-20.63-78.53 28.2-159.58 109.31-182.44.01-.03.02-.07.04-.1 5.07-14.86 12.16-29.2 21.04-42.69 28.62-43.5 75.85-78.13 134.2-93.05 1.31-.33 2.61-.66 3.92-.97 74.11-17.68 147.35.94 195.54 43.77 18.45 16.39 33.23 36.33 42.99 59.14 57.73-1.32 108.96 31.65 122.12 83.07 7.3 28.561.38 56.941-15.9 81.61z" fill="#b5dcfa"/><path d="M912.862 200.459c-11.83-44.96-60.6-72.89-116.9-71.04-1.85-6.46-4.08-12.73-6.68-18.79 59.66-1.383 113.735 34.449 123.58 89.83z" fill="#82b3fb"/><path d="M869.009 298.156c-10.856 7.955-30.642 23.812-81.66 43.341-71.791 27.481-176.339 57.565-269.21 70.519-71.861 10.024-123.113-8.321-154.588-39.785-62.356-85.3-14.103-206.437 92.075-232.141 0 0 .052-.139.13-.36 43.51-123.309 198.402-159.955 290.53-88.24-111.074-98.717-307.661-45.06-354.731 93.029l-.009.002v.01c-8.35 2.342-17.499 5.702-26.485 10.043h-.001c-37.351 18.038-66.221 50.093-79.373 88.097v.01c-33.144 92.565 29.718 199.579 177.54 189.3l-.025-.004c117.276-8.147 254.009-58.785 322.438-82.151h.01c2.35-.89 4.51-1.71 6.49-2.47h.01c25.371-10.002 72.896-25.944 103.35-72.04-9.36 8.679-16.722 15.676-26.491 22.84z" fill="#82b3fb"/><ellipse cx="693.499" cy="184.579" fill="#82b3fb" rx="42.781" ry="61.401" transform="matrix(.9829 -.184 .184 .9829 -22.1204 130.7358)"/><path d="M715.688 239.49a30.08 30.08 0 0 1-6.14 2.03c-23.1 4.98-47.24-17.92-53.93-51.17-5.88-29.28 3.75-56.82 21.92-66.36 2.42-1.29 5-2.24 7.72-2.84.03-.01.06-.01.09-.02 15.17-3.27 30.79 5.49 41.62 21.3 5.66 8.27 10 18.46 12.3 29.87 6.07 30.18-4.34 58.49-23.58 67.19z" fill="#fff8ed"/><path d="M715.688 239.49a30.08 30.08 0 0 1-6.14 2.03c-23.1 4.98-47.24-17.92-53.93-51.17-5.88-29.28 3.75-56.82 21.92-66.36 2.42-1.29 5-2.24 7.72-2.84-.58.26-1.16.54-1.72.84-18.17 9.54-27.8 37.08-21.92 66.36 6.69 33.25 30.83 56.15 53.93 51.17l.14-.03z" fill="#e7dcdc"/><path d="M703.143 243.202c-6.786 0-13.661-2.187-20.197-6.469-13.715-8.984-24.298-26.25-28.309-46.187-5.859-29.177 3.576-57.54 22.436-67.442a31.274 31.274 0 0 1 8.033-2.946l.031-.007c15.159-3.264 31.105 4.85 42.656 21.712 5.898 8.619 10.205 19.075 12.455 30.238 6.129 30.477-4.027 59.2-24.148 68.299a31.356 31.356 0 0 1-12.957 2.802zM685.51 122.118l-.037.009a29.239 29.239 0 0 0-7.465 2.746c-18.097 9.501-27.099 36.954-21.41 65.279 3.908 19.423 14.167 36.211 27.445 44.908 8.216 5.383 16.963 7.279 25.294 5.481a29.125 29.125 0 0 0 5.936-1.962l.003-.001c18.97-8.578 28.863-36.987 23.012-66.082-2.198-10.902-6.397-21.104-12.145-29.503-11.076-16.168-26.249-23.978-40.584-20.887a.689.689 0 0 1-.049.012z" fill="#670a39"/><path d="M720.379 200.324c-10.364 5.951-25.622-6.452-34.089-27.715-7.451-18.726-7.143-38.078.123-46.485 7.539-8.85 18.95-2.802 26.761 6.545 17.36 20.776 22.061 59.116 7.205 67.655z" fill="#670a39"/><path d="M714.734 202.809c-1.641 0-3.349-.303-5.092-.91-9.142-3.186-18.446-14.267-24.281-28.92-7.447-18.715-7.323-38.694.295-47.509 2.634-3.092 5.855-4.662 9.571-4.662h.062c5.918.028 12.716 4.118 18.651 11.22 11.903 14.245 18.626 37.615 15.639 54.361-1.274 7.143-4.283 12.262-8.703 14.802-1.874 1.077-3.948 1.618-6.142 1.618zm-19.505-80.001c-3.104 0-5.813 1.334-8.055 3.965-7.163 8.287-7.142 27.405.045 45.466 5.627 14.13 14.471 24.771 23.082 27.771 3.558 1.24 6.782 1.054 9.581-.554 3.89-2.236 6.563-6.877 7.73-13.419 2.846-15.956-3.833-39.117-15.205-52.727-5.475-6.552-11.877-10.478-17.126-10.503l-.052.001zm25.15 77.516h.01z" fill="#670a39"/><ellipse cx="711.183" cy="141.463" fill="#fff8ed" rx="5.354" ry="7.934" transform="matrix(.9007 -.4344 .4344 .9007 9.1495 322.9622)"/><path d="M443.843 433.658c-35.366 0-67.393-7.022-93.749-20.69-35.071-18.187-58.872-47.837-68.832-85.747-10.037-38.209-4.138-78.292 16.612-112.865 20.626-34.367 53.6-59.441 92.888-70.648 10.795-31.375 30.535-60.443 57.112-84.093C475.371 35.145 509.5 17.2 546.571 7.717c41.066-10.5 83.195-10.245 121.831.739 36.413 10.353 68.221 29.591 91.985 55.636 11.11 12.176 20.176 25.578 26.944 39.835h-.001l.038.083c.749 1.55 1.645 3.519 2.551 5.603 59.191-1.13 109.501 33.294 122.438 83.835a92.258 92.258 0 0 1 1.486 6.834c5.691 31.878-5.548 65.115-31.647 93.59-.326.357-.653.714-.99 1.061-13.944 14.982-31.782 28.101-51.573 37.92a183.433 183.433 0 0 1-9.229 4.282l-.52.226a198.173 198.173 0 0 1-9.592 3.825c-.045.017-.219.088-.512.209-1.632.672-6.597 2.716-15.175 5.996l-.16.069a4.342 4.342 0 0 1-.102.041l-.88.335c-1.733.66-3.611 1.376-5.627 2.127-.609.23-1.232.461-1.866.693l-.953.356c-22.56 8.407-61.16 22.029-116.937 39.18-73.661 22.651-140.295 36.86-198.052 42.23a283.454 283.454 0 0 1-26.185 1.236zM606.973 2.026c-19.869 0-40.009 2.541-59.906 7.629-73.321 18.754-132.553 70.558-154.581 135.193a1.002 1.002 0 0 1-.675.641c-39.018 10.997-71.77 35.819-92.221 69.896-20.47 34.107-26.292 73.645-16.393 111.328 9.812 37.348 33.263 66.561 67.818 84.479 32.383 16.794 73.475 23.446 118.832 19.238 57.619-5.357 124.118-19.538 197.648-42.15 55.731-17.136 94.291-30.743 116.825-39.142l.959-.358c.634-.231 1.25-.46 1.857-.689 2.016-.751 3.889-1.465 5.618-2.124l.978-.374c.026-.013.134-.06.161-.069 8.554-3.272 13.502-5.309 15.128-5.979.33-.136.522-.214.578-.235a194.527 194.527 0 0 0 9.489-3.783l.516-.224c3.088-1.33 6.16-2.756 9.14-4.241 19.578-9.714 37.218-22.684 51.014-37.507.337-.348.65-.689.963-1.032l.001-.002c25.669-28.004 36.732-60.637 31.153-91.888a90.041 90.041 0 0 0-1.454-6.687c-12.755-49.828-62.567-83.679-121.129-82.319a1 1 0 0 1-.942-.604c-.988-2.293-1.98-4.48-2.792-6.16-.012-.025-.023-.052-.034-.078-6.684-14.077-15.638-27.314-26.615-39.344-23.513-25.77-54.999-44.809-91.055-55.06-19.584-5.568-40.084-8.355-60.881-8.355z" fill="#670a39"/><ellipse cx="574.866" cy="214.167" fill="#82b3fb" rx="46.303" ry="65.109" transform="matrix(.9875 -.1574 .1574 .9875 -26.5388 93.127)"/><ellipse cx="579.97" cy="210.005" fill="#fff8ed" rx="46.303" ry="65.109" transform="matrix(.9875 -.1574 .1574 .9875 -25.8202 93.8783)"/><path d="M606.808 266.75c-4.86 3.94-10.45 6.58-16.59 7.56-25.25 4.02-50.32-21.51-55.97-57.02-4.7-29.48 5.46-56.58 23.5-67.23.45-.27.91-.53 1.38-.77-15.11 12.26-23.16 37.14-18.88 64 5.65 35.51 30.72 61.04 55.97 57.02 3.75-.6 7.29-1.81 10.59-3.56z" fill="#e7dcdc"/><path d="M584.912 275.729c-10.761 0-21.502-4.992-30.743-14.405-10.719-10.918-18.144-26.501-20.909-43.877-4.641-29.108 5.22-57.174 23.979-68.249.443-.265.9-.524 1.367-.765.049-.031.101-.058.154-.08a34.379 34.379 0 0 1 10.812-3.632c17.585-2.795 35.671 8.23 47.198 28.799 4.828 8.61 8.257 18.653 9.915 29.042 4.226 26.529-3.314 52.011-19.209 64.931l-.039.033c-5.144 4.171-10.885 6.785-17.062 7.771-1.816.289-3.64.432-5.463.432zm-25.335-125.546c-.448.229-.886.477-1.315.733-18.074 10.671-27.541 37.898-23.026 66.216 2.7 16.97 9.931 32.166 20.361 42.79 10.34 10.533 22.58 15.288 34.464 13.399 5.818-.929 11.232-3.395 16.094-7.33l.033-.028c15.37-12.471 22.64-37.234 18.522-63.087-1.622-10.158-4.97-19.971-9.685-28.378-11.106-19.818-28.402-30.468-45.14-27.802a32.402 32.402 0 0 0-10.266 3.465c-.014.009-.028.015-.042.022z" fill="#670a39"/><path d="M613.518 227.335c-.006.001-.006.001-.004.008-2.125 3.279-4.852 5.762-8.134 7.181-13.497 5.829-31.306-8.501-39.763-32.007-7.026-19.513-5.4-39.222 3.081-48.687.211-.239.429-.473.656-.694 0 0 .003-.015.01-.009 1.574-1.602 3.368-2.866 5.374-3.727 9.45-4.085 21.013 1.715 30.003 13.635 3.843 5.092 7.219 11.315 9.759 18.364 6.402 17.788 5.624 35.733-.982 45.936z" fill="#670a39"/><path d="M599.029 236.819c-2.759 0-5.634-.63-8.537-1.888-10.432-4.521-20.324-16.811-25.816-32.074-6.962-19.337-5.615-39.771 3.278-49.692a13.183 13.183 0 0 1 .749-.79c1.68-1.697 3.578-3.007 5.64-3.893 9.616-4.155 21.571 1.189 31.196 13.952 3.994 5.294 7.418 11.735 9.901 18.628 6.339 17.611 5.919 35.973-1.066 46.791l-.021.034c-2.298 3.546-5.183 6.088-8.576 7.555a16.897 16.897 0 0 1-6.748 1.377zm-28.989-82.953c-.204.2-.4.411-.591.627-8.428 9.404-9.615 29.012-2.89 47.687 5.311 14.763 14.787 26.608 24.729 30.917 4.859 2.104 9.595 2.282 13.697.51 3.003-1.299 5.576-3.566 7.648-6.74a.977.977 0 0 1 .053-.088l.033-.047c6.637-10.318 6.969-27.967.841-44.991-2.416-6.706-5.741-12.965-9.616-18.101-9.042-11.989-20.081-17.093-28.808-13.32-1.846.793-3.547 1.974-5.057 3.511a.44.44 0 0 0-.039.035zm43.478 73.47h.01z" fill="#670a39"/><ellipse cx="600.607" cy="173.101" fill="#fff8ed" rx="6.342" ry="8.763" transform="matrix(.9309 -.3652 .3652 .9309 -21.7295 231.3263)"/><path d="M398.636 286.341a457.198 457.198 0 0 1-2.947 17.505 395.485 395.485 0 0 1-6.483 28.673c-2.616 9.802-5.522 19.088-8.696 27.857-48.123 132.994-156.963 145.371-209.315.786-5.222-14.404-9.875-30.379-13.856-47.937-1.892-8.355 3.35-16.658 11.705-18.55 8.344-1.892 16.658 3.34 18.55 11.694 18.095 79.857 52.114 128.6 88.739 127.214 17.992-.683 36.573-13.887 52.331-37.173 10.382-15.355 19.181-34.412 26.16-56.436h.01c3.216-10.154 6.049-20.949 8.469-32.313a411.88 411.88 0 0 0 4.653-25.87c1.251-8.469 9.13-14.321 17.609-13.07 8.48 1.261 14.333 9.151 13.071 17.62z" fill="#82b3fb"/><path d="M395.689 303.846a395.485 395.485 0 0 1-6.483 28.673c-2.616 9.802-5.522 19.088-8.696 27.857-47.606 131.565-152.449 146.906-200.369 5.393-4.735-13.983-3.466-24.787 2.739-27.387 7.114-2.98 13.669 2.932 18.126 15.283 26.291 72.856 48.857 92.502 82.245 91.396 17.733-.59 36.056-12.015 51.587-32.148 10.237-13.277 18.902-29.759 25.788-48.805h.01c3.164-8.779 5.956-18.116 8.344-27.939a318.933 318.933 0 0 0 4.591-22.376c1.23-7.321 8.996-12.387 17.351-11.302 1.717.228 3.32.683 4.767 1.355z" fill="#b5dcfa"/><path d="M274.621 465.92c-42.297.004-80.337-38.055-104.366-104.417-5.305-14.635-9.979-30.803-13.891-48.057-2.01-8.877 3.579-17.735 12.459-19.747a16.412 16.412 0 0 1 12.449 2.135 16.395 16.395 0 0 1 7.298 10.314c17.734 78.261 50.676 126.465 86.236 126.465.497 0 .991-.01 1.49-.028 17.66-.67 35.964-13.716 51.541-36.734 10.282-15.207 19.041-34.108 26.036-56.178a.924.924 0 0 1 .051-.13c3.19-10.089 6.017-20.884 8.403-32.089a412.997 412.997 0 0 0 4.642-25.809c1.33-9.001 9.738-15.242 18.745-13.913a16.422 16.422 0 0 1 10.845 6.5 16.383 16.383 0 0 1 3.068 12.256 460.646 460.646 0 0 1-2.953 17.544c-1.85 9.831-4.037 19.503-6.5 28.745-2.592 9.711-5.526 19.11-8.722 27.939-23.836 65.871-63.772 105.199-106.831 105.204zM172.499 295.286c-1.076 0-2.159.12-3.233.364-7.805 1.768-12.717 9.553-10.951 17.354 3.894 17.172 8.544 33.26 13.821 47.816 23.724 65.521 61.076 103.099 102.478 103.099h.007c42.18-.005 81.413-38.84 104.949-103.884 3.176-8.774 6.094-18.119 8.67-27.774a396.932 396.932 0 0 0 6.467-28.6 459.015 459.015 0 0 0 2.941-17.469 14.4 14.4 0 0 0-2.696-10.77 14.434 14.434 0 0 0-9.531-5.713c-7.913-1.166-15.304 4.316-16.473 12.227a415.666 415.666 0 0 1-4.664 25.934c-2.409 11.315-5.267 22.219-8.493 32.405a.992.992 0 0 1-.052.131c-7.045 22.197-15.875 41.228-26.244 56.564-15.943 23.56-34.809 36.917-53.122 37.611-.517.02-1.039.029-1.555.029-36.558.006-70.242-48.785-88.197-128.022a14.404 14.404 0 0 0-6.413-9.064 14.431 14.431 0 0 0-7.709-2.238z" fill="#670a39"/><path d="M398.636 286.341c-2.44 16.471-5.615 31.868-9.43 46.179a356.886 356.886 0 0 1-3.663 12.781c-2.65-12.312-12.637-21.856-26.004-21.681 1.146-4.522 2.76-11.234 3.766-15.958a411.88 411.88 0 0 0 4.653-25.87c1.251-8.469 9.13-14.321 17.609-13.07 8.478 1.26 14.331 9.15 13.069 17.619z" fill="#670a39"/><path d="m385.543 346.3-.043-.001a1.001 1.001 0 0 1-.935-.789c-2.698-12.536-12.588-20.893-24.668-20.893-.115 0-.23 0-.345.002-.308-.014-.606-.137-.798-.381a.999.999 0 0 1-.184-.865c1.142-4.504 2.746-11.174 3.757-15.92a412.997 412.997 0 0 0 4.642-25.809c1.33-9.001 9.738-15.242 18.745-13.913a16.422 16.422 0 0 1 10.845 6.5 16.38 16.38 0 0 1 3.068 12.255c-2.397 16.18-5.578 31.754-9.453 46.29a358.68 358.68 0 0 1-3.674 12.817c-.131.422-.52.707-.957.707zm-24.725-23.668c11.502.375 21.025 7.776 24.772 19.046.916-3.095 1.804-6.25 2.649-9.417 3.856-14.463 7.021-29.962 9.407-46.067v-.001a14.4 14.4 0 0 0-2.696-10.77 14.434 14.434 0 0 0-9.531-5.713c-7.913-1.166-15.304 4.316-16.473 12.227a415.666 415.666 0 0 1-4.664 25.934c-.927 4.354-2.351 10.315-3.464 14.761z" fill="#670a39"/><path d="M398.637 286.339c-2.44 16.472-5.615 31.868-9.43 46.179-.321-14.848-12.129-25.788-25.902-24.858a411.783 411.783 0 0 0 4.653-25.871c1.251-8.468 9.13-14.321 17.609-13.07 8.479 1.262 14.331 9.151 13.07 17.62z" fill="#670a39"/><path d="M389.207 333.517a1 1 0 0 1-1-.979c-.152-7.039-2.962-13.409-7.913-17.938-4.652-4.256-10.661-6.375-16.922-5.943-.314.012-.618-.106-.823-.343s-.288-.558-.222-.864a413.038 413.038 0 0 0 4.642-25.808c1.33-9.002 9.738-15.237 18.745-13.913a16.418 16.418 0 0 1 10.844 6.5 16.383 16.383 0 0 1 3.068 12.256c-2.397 16.18-5.578 31.754-9.453 46.289a1.001 1.001 0 0 1-.966.743zm-24.259-26.913c6.188 0 12.062 2.282 16.696 6.521 4.05 3.704 6.776 8.54 7.936 13.958 3.255-12.963 5.964-26.691 8.067-40.891v-.001a14.398 14.398 0 0 0-2.696-10.769 14.436 14.436 0 0 0-9.532-5.714c-7.916-1.169-15.304 4.315-16.473 12.227a416.266 416.266 0 0 1-4.397 24.672l.399-.003z" fill="#670a39"/><path d="M834.171 531.506c-7.593 10.629-21.028 15.23-37.238 14.261-20.795-1.223-46.153-11.627-69.559-30.23-40.751-32.4-60.485-77.641-45.035-102.295a26.28 26.28 0 0 1 1.048-1.577c17.34-24.267 65.159-17.114 106.796 15.979 41.638 33.093 61.338 79.595 43.988 103.862z" fill="#b5dcfa"/><path d="M813.382 536.92c-6.626 6.779-16.361 9.385-25.698 7.75-18.809-3.293-40.274-13.21-60.309-29.133-40.751-32.4-60.485-77.641-45.035-102.295 20.55-13.985 59.337-5.936 93.384 21.119 42.805 34.027 57.902 81.847 37.658 102.559z" fill="#517fb6"/><path d="M801.109 546.903a74.68 74.68 0 0 1-8.988-.562c-20.966-2.525-44.179-13.19-65.362-30.031-40.251-31.989-60.443-76.98-45.969-102.424a30.975 30.975 0 0 1 1.786-2.808c12.004-16.8 38.624-19.536 69.472-7.139a139.642 139.642 0 0 1 10.978 4.986c1.207.611 2.415 1.245 3.624 1.898a1 1 0 1 1-.951 1.759 149.845 149.845 0 0 0-3.576-1.875 137.965 137.965 0 0 0-10.819-4.914c-29.948-12.035-55.659-9.564-67.099 6.445a28.943 28.943 0 0 0-1.673 2.63c-14.001 24.614 5.974 68.482 45.473 99.873 20.594 16.373 44.052 27.166 64.357 29.611 18.637 2.256 33.199-2.51 41-13.422 17.016-23.814-2.633-69.798-43.801-102.504a171.369 171.369 0 0 0-11.075-8.105 1 1 0 0 1 1.115-1.66 172.853 172.853 0 0 1 11.204 8.198c41.988 33.358 61.809 80.565 44.184 105.232-6.926 9.692-18.774 14.812-33.88 14.812z" fill="#670a39"/><path d="M796.965 553.388c-20.201 26.805-73.903 20.399-119.963-14.308-28.419-21.416-47.293-48.604-52.808-72.593-14.618-63.317 61.248-73.212 125.952-24.457 46.051 34.696 67.01 84.562 46.819 111.358z" fill="#b5dcfa"/><ellipse cx="707.331" cy="497.679" fill="#82b3fb" rx="51.317" ry="95.154" transform="matrix(.6018 -.7986 .7986 .6018 -115.8158 763.0684)"/><path d="M771.562 551.539c-13.996 18.58-56.001 10.543-93.805-17.947-15.601-11.751-27.501-25.663-35.447-38.946-3.14-5.249-9.9-19.779-7.743-18.152 2.398 1.808 8.44 4.631 13.034 7.224 7.039 3.974 18.38 3.829 26.036-2.878 9.28-8.129 7.97-20.567 4.878-29.312-1.815-5.135-3.816-12.858 13.564-5.95 11.859 4.713 24.338 11.658 36.375 20.732 37.816 28.491 57.114 66.65 43.108 85.229z" fill="#b5dcfa"/><path d="M652.779 463.156c-3.06 6-11.21 17.2-19.46 26.77-2.99-5.51-5.38-11-7.15-16.38 10.76-4.18 22-8.56 26.61-10.39z" fill="#670a39"/><path d="M633.319 490.926a1 1 0 0 1-.879-.524c-2.996-5.521-5.426-11.088-7.221-16.544a1 1 0 0 1 .588-1.244c7.651-2.974 21.282-8.276 26.603-10.389a1.002 1.002 0 0 1 1.259 1.384c-3.068 6.017-11.309 17.358-19.594 26.97a.995.995 0 0 1-.756.347zm-5.899-16.793c1.581 4.632 3.625 9.341 6.091 14.03 6.856-8.064 13.528-17.112 17.04-23.054a6938.088 6938.088 0 0 1-23.131 9.024z" fill="#670a39"/><path d="M757.398 570.964c-3.475 0-7.091-.222-10.836-.668-22.831-2.726-47.749-13.529-70.165-30.421-13.827-10.418-26.623-23.474-36.03-36.763-10.912-15.414-17.355-31.188-18.634-45.618-1.722-19.007 4.737-33.154 18.678-40.912 25.872-14.396 72.276-4.029 110.34 24.646 46.407 34.987 67.494 85.576 47.007 112.771l-.799-.602.799.602c-8.364 11.1-22.473 16.965-40.36 16.965zm-88.596-158.865c-10.457 0-19.851 2.02-27.419 6.23-13.198 7.344-19.304 20.824-17.659 38.986 1.854 20.913 16.98 53.162 53.876 80.961 22.137 16.683 46.712 27.349 69.198 30.032 22.29 2.659 39.82-2.849 49.362-15.515 19.824-26.314-1.086-75.647-46.613-109.97-26.217-19.749-56.366-30.724-80.745-30.724z" fill="#670a39"/><path d="M652.782 463.153c-12.687 10.247-25.095 19.45-37.204 27.691-67.935 46.241-126.48 62.092-171.098 59.921-19.936-.972-37.09-5.542-51.059-12.615.703-10.557 6.866-21.383 14.28-27.112 39.468 19.253 121.93 11.715 225.6-72.019 6.659-5.377 16.42-4.343 21.807 2.327 5.378 6.659 4.344 16.43-2.326 21.807z" fill="#82b3fb"/><path d="M611.131 493.837c-65.078 43.291-121.343 58.604-164.729 57.01-2.553-.094-4.679-.772-4.579-.744-19.305-5.439-15.769-20.194 8.985-20.308 25.581-.124 49.798-3.226 88.863-19.253 43.129-17.702 65.711-44.1 76.827-42.477 12.221 1.758 6.615 17.802-5.367 25.772z" fill="#b5dcfa"/><path d="M452.501 551.958c-2.812 0-5.498-.068-8.069-.193-19.337-.943-36.652-5.224-51.462-12.722a1.001 1.001 0 0 1 .903-1.785c14.558 7.371 31.602 11.579 50.656 12.509 35.212 1.712 93.374-7.261 170.486-59.749 12.288-8.363 24.783-17.663 37.138-27.643a1 1 0 0 1 1.256 1.556c-12.398 10.013-24.937 19.346-37.269 27.74-71.953 48.976-127.609 60.287-163.639 60.287z" fill="#670a39"/><path d="M451.447 520.85c-21.558 0-36.024-4.933-44.184-8.914a1 1 0 0 1 .877-1.797c39.309 19.178 122.179 11.466 226.36-73.379a1 1 0 1 1 1.263 1.551c-47.25 38.48-95.11 64.806-138.404 76.129-17.897 4.681-33.148 6.41-45.912 6.41z" fill="#670a39"/><path d="M223.658 253.49c.01 0 0 .01 0 .01-2.32 5.58-9.97 7.32-16.63 9.63-6.8 2.36-6.27 7.81-3.45 14.29 6.62 15.22-4.37 32.22-15.62 34.97-.491 0-1.775 14.121-20.06 23.44 0 0 0 .01-.01 0-15.219 7.903-35.35 8.005-52.94-1.67-38.54-21.25-45.79-24.3-89.38-35.68-7.23-1.89-16.26-4.59-20.89-9.74-.31-.35-.59-.71-.86-1.07-.22-.29-.43-.59-.62-.91-.06-.08-.1-.16-.15-.25-3.42-5.79-3.16-15.2 5.47-21.7-1.06-1.3-1.99-2.65-2.73-4.04v-.01c-2.29-4.22-2.93-7.97-1.78-11.77 3.7-12.25 16.29-17.6 31.91-17.36 7.1-17.39 73.17-19.72 125.93 12.76 7.188-8.006 17.08-14.174 31.49-14.8 11.8-.513 28.57 6.36 30.74 17.31.53 2.67.33 4.82-.42 6.59z" fill="#517fb6"/><path d="M177.558 317.673c1.282 7.249-2.492 14.555-9.687 18.204-15.275 7.747-35.594 7.827-52.923-1.724-38.538-21.245-45.794-24.289-89.378-35.677-7.234-1.885-16.267-4.586-20.892-9.736a19.273 19.273 0 0 1-.866-1.068 11.44 11.44 0 0 1-.615-.917 1.83 1.83 0 0 1-.125-.191c-.011-.02-.011-.04-.023-.061-6.835-17.053 14.968-24.289 38.048-21.729 21.143 2.338 49.781 10.35 60.238 21.84 20.926-5.11 71.3 3.769 76.198 30.92z" fill="#82b3fb"/><path d="M187.958 312.39c-.01 0-.01.01-.01.01h-.01c-1.82 8.28-8.27 17.4-20.04 23.43h-.01c-8.69 4.43-18.94 6.3-27.93 5.67-25.22-8.66-5.05-44.66 33.69-48.58-3.561-7.888-3.429-15.162-.622-21.507 4.61-10.423 18.75-11.999 25.881-3.11.227.283.45.57.667.861 1.372 1.838 2.36 3.922 3.133 6.082.254.709.546 1.434.871 2.174 6.62 15.22-4.37 32.22-15.62 34.97z" fill="#b5dcfa"/><path d="M117.409 264.341c-3.087 1.955-7.78 7.438-11.642 13.727-13.237-6.944-29.014-13.182-48.779-17.143-15.618-3.134-37.022-4.999-48.482 3.86-1.059-1.29-1.982-2.63-2.723-4.011v-.01c-1.481-2.751-2.278-5.644-2.21-8.536 2.427-10.13 12.134-14.69 33.344-14.07s62.396 11.499 80.492 26.183z" fill="#82b3fb"/><g fill="#670a39"><path d="M118.408 255.574a.991.991 0 0 1-.483-.125c-10.425-5.767-27.268-12.112-32.213-13.666-12.284-3.858-26.41-6.934-38.757-8.437-22.454-2.735-38.151 3.225-41.991 15.937a.999.999 0 1 1-1.914-.578c4.145-13.722 20.649-20.208 44.147-17.343 12.463 1.517 26.72 4.619 39.115 8.513 3.874 1.217 21.163 7.508 32.582 13.824a1 1 0 0 1-.486 1.875zm69.539 57.826a1 1 0 0 1-.977-1.216c.668-3.008.768-6.084.295-9.144a1 1 0 1 1 1.977-.305c.51 3.306.403 6.63-.32 9.882a1 1 0 0 1-.975.783zm-82.181-34.332c-.157 0-.315-.037-.464-.114-15.207-7.978-31.075-13.555-48.51-17.049-12.727-2.554-35.844-5.476-47.674 3.671-.429.331-1.055.271-1.398-.149s-.3-1.026.111-1.38l.027-.023c5.359-4.145 13.186-6.377 23.301-6.666 7.632-.212 16.388.653 26.026 2.587 17.625 3.532 33.668 9.171 49.046 17.238a.998.998 0 0 1-.465 1.885z"/><path d="M101.335 287.614a1 1 0 0 1-.924-1.382c.841-2.037 1.91-4.2 3.176-6.432 4.014-7.111 9.602-13.97 13.286-16.305a1 1 0 1 1 1.071 1.69c-3.438 2.179-8.745 8.74-12.617 15.601-1.227 2.161-2.258 4.249-3.068 6.21a.998.998 0 0 1-.924.618zm72.312 6.306a.993.993 0 0 1-.511-.141c-10.281-6.128-16.57-16.185-17.254-27.593a1 1 0 0 1 .938-1.058c.551-.011 1.025.387 1.058.938.644 10.736 6.578 20.21 16.281 25.993a1 1 0 0 1-.512 1.861z"/><path d="M166.947 288.819a.994.994 0 0 1-.652-.242c-5.559-4.783-12.562-4.466-15.823-3.524a1.001 1.001 0 0 1-.555-1.922c4.888-1.412 12.251-.743 17.683 3.931a1 1 0 0 1-.653 1.757zm-25.707 67.593c-19.299 0-33.23-7.735-50.219-17.167-4.016-2.229-8.168-4.535-12.602-6.852a1 1 0 0 1 .926-1.774c4.456 2.329 8.62 4.641 12.646 6.876 19.532 10.844 34.96 19.406 59.254 16.244a1 1 0 1 1 .259 1.982 78.972 78.972 0 0 1-10.264.691z"/><path d="M143.6 342.574c-9.904.001-20.02-2.524-29.134-7.538-38.849-21.42-46.348-24.414-89.151-35.588-8.389-2.194-16.786-4.929-21.381-10.039a17.882 17.882 0 0 1-.917-1.14 10.595 10.595 0 0 1-.656-.961 2.787 2.787 0 0 1-.163-.269c-4.823-8.167-1.246-17.25 4.917-22.394a25.142 25.142 0 0 1-2.21-3.407 1.205 1.205 0 0 1-.039-.081c-2.44-4.529-3.017-8.489-1.816-12.458 3.504-11.601 15.24-18.193 32.224-18.077 1.86-3.777 6.341-6.911 13.02-9.093 25.006-8.164 74.113-2.3 113.37 21.575 8.526-9.21 18.881-13.96 31.629-14.515 11.661-.488 29.391 6.139 31.764 18.115.542 2.73.396 5.052-.446 7.092a.947.947 0 0 1-.04.105c-2.183 5.219-8.413 7.265-14.438 9.242-.934.307-1.867.612-2.78.929-2.211.769-3.61 1.879-4.276 3.397-.938 2.141-.489 5.175 1.415 9.549 3.098 7.123 2.757 15.172-.959 22.666-3.362 6.778-9.018 11.922-14.855 13.548l-.094.328c-2.859 9.964-9.647 17.744-20.173 23.126a.949.949 0 0 1-.171.083c-7.506 3.879-15.992 5.805-24.64 5.805zM6.711 260.375c.668 1.241 1.536 2.52 2.582 3.803a1.002 1.002 0 0 1-.173 1.431C.915 271.79.667 280.512 3.909 286.002l.09.16c.015.021.046.066.059.088.171.288.359.557.557.816.258.344.521.683.812 1.013 4.237 4.713 12.306 7.32 20.394 9.435 43.024 11.232 50.561 14.241 89.61 35.771 16.53 9.092 36.455 9.728 51.996 1.658a.953.953 0 0 1 .093-.042c10.004-5.12 16.446-12.484 19.145-21.89.252-.878.439-1.528 1.134-1.612 5.423-1.359 10.761-6.18 13.945-12.601 3.45-6.956 3.775-14.407.917-20.979-2.141-4.92-2.59-8.463-1.413-11.149.889-2.028 2.723-3.537 5.452-4.483.924-.321 1.867-.63 2.812-.94 5.575-1.83 11.339-3.723 13.194-8.062a.829.829 0 0 1 .031-.083c.711-1.679.829-3.644.36-6.006-1.617-8.16-14.952-17.146-29.716-16.506-12.464.542-22.535 5.275-30.789 14.469a1.002 1.002 0 0 1-1.268.184c-42.841-26.373-91.523-28.632-112.408-21.81-6.47 2.113-10.644 5.078-12.072 8.576-.156.382-.527.656-.941.622-22.437-.349-29.015 10.284-30.937 16.649-1.043 3.446-.502 6.942 1.702 11.004.015.028.029.059.043.091zm181.253 53.014h-.002zm.005 0h-.002zm.145-.012z"/><path d="M174.804 253.669c-.199 0-.4-.06-.575-.183-4.12-2.9-8.453-5.67-12.879-8.233a1 1 0 1 1 1.002-1.73 175.407 175.407 0 0 1 13.028 8.329.999.999 0 0 1-.576 1.817zm27.243 20.585c-.382 0-.747-.221-.914-.592-2.589-5.793-8.527-9.934-12.075-12.408a1 1 0 0 1 1.144-1.641c3.718 2.593 9.941 6.933 12.757 13.232a1 1 0 0 1-.912 1.409z"/></g><path d="M1149.608 124.68c-3.37 4.72-9.43 7.22-15.71 8.34-39.65 7.08-54.67 16.73-65.34 21.31-10.81 4.63-21.5 6.96-31.14 7.43-23.8 1.19-41.14-8.91-37.75-23.46-19.56-.59-33.89-22.7-22.93-39.7l.53-.79c.01-.01.02-.03.03-.04.25-.37.52-.72.79-1.07.82-1.06 1.76-2.1 2.8-3.1l.03-.13c.71-2.81-.6-5.42-3.98-7.78-8.39-5.88-9.71-16.83-1.92-24.11 11.8-11.03 35.46-5.22 43.25 11.2 0 .01.01.01.01.02 21.75-14.2 47.08-23.95 69.82-25.96.08-.01.18-.01.27-.02 12.65-1.1 22.23 2.6 25.65 9.9 2.98-.52 6.03-.91 9.01-1.1 7.97-.51 15.46.44 20.08 4.15 3.14 2.51 4.95 6.28 4.7 11.71-.34 7.19-7.42 13.49-15.33 15.63-23.16 6.26-42.8 14.8-48.92 19.85 10.76-3.54 22.9-5.04 38.07-6.76 17.31-1.96 28.55 4.77 30.6 12.98.09.35.16.7.21 1.04v.01c.67 4.05-.79 7.62-2.83 10.45z" fill="#82b3fb"/><path d="M1149.608 124.68c-3.37 4.72-9.43 7.22-15.71 8.34-39.65 7.08-54.67 16.73-65.34 21.31-10.81 4.63-21.5 6.96-31.14 7.43-24.08.1-30.49-16.98-16.65-28.65 14.14-11.92 37.77-16.03 64.34-13.91 12.28-9.82 57.89-19 67.33-4.98v.01c.67 4.05-.79 7.62-2.83 10.45zm-35.593-67.959c-30.652 5.43-50.108 16.354-63.997 26.397 9.913-10.823 20.542-16.844 30.834-21.52 13.835-6.285 10.579-14.973.21-13.902l7.3-.881c12.656-1.097 22.237 2.606 25.653 9.906zm33.793 14.754c-.343 7.196-7.424 13.494-15.326 15.632-22.455 6.069-41.6 14.053-48.33 19.368-.212.167-4.181 1.676-4.368 1.83-5.907-12.101 41.103-28.216 54.292-35.207 8.139-4.314 12.17-14.296.84-16.866 10.945 1.61 13.14 9.813 12.892 15.243z" fill="#b5dcfa"/><path d="m1018.276 72.797-.013-.024c-5.688-11.99-20.381-18.892-33.121-16.297l.005.001c-15.782 3.306-20.79 20.391-8.211 29.207 3.378 2.367 4.695 4.972 3.979 7.787 14.433-14.302 37.837-20.95 37.361-20.674z" fill="#517fb6"/><path d="M999.672 139.298a1 1 0 0 1-.95-1.313c1.18-3.592 3.39-6.859 6.568-9.713a.999.999 0 1 1 1.336 1.488c-2.914 2.616-4.934 5.594-6.004 8.85a1 1 0 0 1-.95.688zm-18.781-44.704a1 1 0 0 1-.717-1.697c.142-.146 3.539-3.617 7.868-6.47a.999.999 0 1 1 1.1 1.67c-4.142 2.729-7.501 6.16-7.535 6.194a.991.991 0 0 1-.716.303zm69.128-10.476a1.001 1.001 0 0 1-.595-1.804c11.589-8.563 30.875-20.635 64.417-26.576 1.371-.249 2.911-.503 4.844-.796 11.172-1.669 20.486.003 25.556 4.581 3.257 2.941 4.79 6.979 4.557 11.999a1 1 0 0 1-1.998-.092c.204-4.395-1.108-7.901-3.899-10.423-4.624-4.176-13.341-5.669-23.918-4.088-1.91.29-3.432.54-4.788.786-33.131 5.869-52.154 17.773-63.582 26.218a1.003 1.003 0 0 1-.594.195zm97.912 54.221a1 1 0 0 1-.145-1.99c7.494-1.107 13.855-6.669 16.205-14.17 1.81-5.777.685-11.297-3.01-14.766a1 1 0 0 1 1.37-1.459c4.267 4.007 5.594 10.296 3.549 16.822-2.578 8.229-9.573 14.332-17.821 15.551a.828.828 0 0 1-.148.012zm-68.148-29.035a1 1 0 0 1-.362-1.933c11.524-4.467 24.15-6.133 42.097-8.165.552-.073 1.044.332 1.106.881s-.332 1.044-.881 1.105c-17.792 2.016-30.3 3.663-41.6 8.044a.966.966 0 0 1-.36.068z" fill="#670a39"/><path d="M1033.792 162.866c-12.687 0-23.091-3.272-29.154-8.354-5.274-4.419-7.385-10.259-5.944-16.442a.995.995 0 0 1 1.201-.747 1 1 0 0 1 .747 1.2c-1.279 5.491.547 10.49 5.281 14.457 10.632 8.909 35.428 11.919 62.244.431 1.822-.782 3.748-1.703 5.979-2.769 10.606-5.065 26.633-12.722 59.572-18.607 4.918-.879 11.527-2.969 15.08-7.938 2.525-3.504 3.351-7.094 2.458-10.675-2.484-9.938-16.728-13.676-29.513-12.228-15.594 1.765-27.438 3.279-37.878 6.713-.458.146-.957-.047-1.188-.468s-.131-.948.24-1.254c5.883-4.847 25.161-13.519 49.303-20.044 9.236-2.498 14.33-9.293 14.589-14.714.217-4.749-1.24-8.41-4.33-10.881-3.911-3.136-10.616-4.488-19.39-3.925-2.779.169-5.772.534-8.901 1.085a1.013 1.013 0 0 1-1.079-.562c-3.23-6.904-12.448-10.393-24.66-9.334l-.24.026c-21.953 1.936-47.233 11.338-69.385 25.801a1.002 1.002 0 0 1-1.443-.394l-.017-.033c-3.765-7.941-11.932-13.983-21.314-15.769-7.998-1.523-15.416.251-20.35 4.866-3.403 3.182-5.114 7.255-4.817 11.469.303 4.308 2.719 8.35 6.627 11.088 3.732 2.614 5.204 5.593 4.375 8.853-.046.181-.17.469-.304.598a27.947 27.947 0 0 0-2.699 2.994 19.74 19.74 0 0 0-.757 1.021l-.029.04-.008.011-.523.775c-3.776 5.861-4.638 12.821-2.414 19.581 2.527 7.682 8.589 13.997 16.216 16.894a1 1 0 1 1-.71 1.869c-8.186-3.108-14.693-9.889-17.406-18.138-2.416-7.344-1.476-14.91 2.645-21.308l.546-.81.037-.05.003-.005c.258-.376.535-.742.823-1.109a29.727 29.727 0 0 1 2.677-2.999c.53-2.35-.655-4.503-3.618-6.578-4.404-3.087-7.128-7.674-7.474-12.586-.34-4.827 1.594-9.469 5.446-13.07 5.406-5.056 13.457-7.012 22.09-5.37 9.602 1.827 18.022 7.864 22.247 15.876 22.192-14.291 47.404-23.573 69.337-25.506l.242-.026c12.713-1.104 22.465 2.547 26.327 9.788 2.938-.493 5.756-.824 8.386-.984 9.411-.61 16.397.857 20.765 4.359 3.617 2.892 5.326 7.109 5.078 12.536-.388 8.118-8.375 14.471-16.064 16.551-18.61 5.03-34.237 11.3-42.932 16.053 8.994-2.234 19.146-3.496 31.708-4.918 18.875-2.141 29.651 5.621 31.678 13.73 1.028 4.119.069 8.382-2.774 12.326-3.12 4.363-8.775 7.387-16.353 8.74-32.672 5.838-48.553 13.424-59.062 18.443-2.25 1.075-4.193 2.003-6.052 2.802-12.508 5.359-24.624 7.618-35.165 7.619zm-53.045-69.415.168.021-.196-.05z" fill="#670a39"/><path d="M982.658 118.549c-7.349-5.16-2.478-18.452 12.126-28.109 14.38-9.509 36.008-9.116 24.396 3.291s-28.677 30.327-36.522 24.818z" fill="#b5dcfa"/><path d="M801.851 163.359a1 1 0 0 1-.996-.927c-1.276-17.44-5.481-34.736-12.498-51.408a1.001 1.001 0 0 1 1.844-.776c7.101 16.872 11.357 34.38 12.649 52.037a1 1 0 0 1-.999 1.074zm-410.306-17.828a1 1 0 0 1-.269-1.962c21.119-5.907 43.461-7.578 64.608-4.827a154.72 154.72 0 0 1 15.036 2.687 1 1 0 0 1-.449 1.949 152.49 152.49 0 0 0-14.842-2.652c-20.886-2.717-42.952-1.066-63.814 4.77-.09.023-.181.035-.27.035z" fill="#670a39"/><ellipse cx="433.866" cy="275.726" fill="#b5dcfa" rx="77.042" ry="73.501" transform="matrix(.9688 -.2478 .2478 .9688 -54.7966 116.1221)"/><path d="M432.149 350.459c-34.354 0-65.361-22.045-73.891-55.392-4.551-17.793-2.083-36.635 6.949-53.055a1 1 0 1 1 1.752.964c-8.787 15.973-11.189 34.296-6.764 51.594 9.907 38.73 51.016 61.782 91.638 51.396a1 1 0 0 1 .496 1.938 81.419 81.419 0 0 1-20.18 2.555z" fill="#670a39"/><path d="M577.1 335.459c-5.108.978-10.392 1.651-15.798 1.864-15.329.604-31.657-2.439-47.866-12.375-12.722-7.797-18.973-17.266-20.514-25.876-3.277-18.268 14.678-32.665 37.33-18.927 44.164 26.793 64.76 15.394 74.857 28.367 7.375 9.458-6.39 22.823-28.009 26.947z" fill="#82b3fb"/><path d="M580.279 332.65c-5.108.978-10.392 1.651-15.798 1.864-15.329.604-31.657-2.439-47.866-12.375-12.722-7.797-18.973-17.266-20.514-25.876-3.277-18.268 14.678-32.665 37.33-18.927 44.164 26.793 64.76 15.394 74.857 28.367 7.375 9.457-6.39 22.822-28.009 26.947z" fill="#670a39"/><path d="M560.861 335.586c-16.078 0-31.123-4.229-44.769-12.594-11.75-7.201-19.2-16.631-20.976-26.553-1.584-8.832 1.639-17.207 8.413-21.856 8.016-5.503 19.388-4.794 30.421 1.897 24.9 15.106 41.982 17.945 54.455 20.019 9.327 1.551 16.066 2.671 20.673 8.59 2.323 2.979 2.834 6.463 1.476 10.07-3.088 8.205-15.179 15.629-30.087 18.474-5.466 1.046-10.831 1.679-15.947 1.881a93.458 93.458 0 0 1-3.659.072zm-44.728-62.73c-5.623 0-9.514 2.031-11.472 3.375-6.117 4.199-9.02 11.808-7.576 19.855 1.674 9.352 8.795 18.301 20.052 25.2 14.333 8.785 30.243 12.898 47.304 12.229 5.016-.198 10.282-.82 15.65-1.848 14.026-2.676 25.783-9.755 28.59-17.213 1.115-2.963.717-5.701-1.182-8.137-4.127-5.304-10.212-6.315-19.423-7.846-12.633-2.101-29.935-4.976-55.164-20.282-6.636-4.023-12.266-5.333-16.779-5.333z" fill="#670a39"/><path d="M564.48 334.514c-15.329.604-31.657-2.439-47.865-12.375-8.699-5.331-14.373-11.445-17.584-17.531 4.962-7.812 34.099-13.009 42.378 6.572 12.286-4.282 25.154 9.872 23.071 23.334z" fill="#ec4949"/><path d="M560.861 335.586c-16.08 0-31.122-4.229-44.769-12.594-8.327-5.104-14.365-11.132-17.945-17.917-.167-.317-.152-.7.04-1.003 3.078-4.846 13.42-8.138 23.052-7.336 9.779.812 17.1 5.497 20.721 13.224 5.083-1.429 10.587-.065 15.24 3.811 6.189 5.154 9.435 13.357 8.268 20.897a1 1 0 0 1-.949.846 93.407 93.407 0 0 1-3.658.072zm3.619-1.072h.01zm-64.273-29.834c3.409 6.168 9.249 11.899 16.93 16.606 14.097 8.641 29.723 12.753 46.461 12.258.691-6.548-2.327-13.782-7.678-18.238-4.371-3.64-9.541-4.798-14.182-3.182a.997.997 0 0 1-1.25-.555c-4.281-10.124-14.002-12.391-19.415-12.841-9.18-.754-18.081 2.453-20.866 5.952z" fill="#670a39"/><path d="M543.136 318.275a1 1 0 0 1-.985-.837c-2.071-12.52-10.662-16.809-17.505-18.203-10.31-2.096-21.98 1.516-24.771 5.909a1 1 0 1 1-1.688-1.072c3.885-6.117 17.628-8.678 26.858-6.796 10.542 2.147 17.318 9.191 19.079 19.836a.999.999 0 0 1-.988 1.163z" fill="#670a39"/><path d="M527.651 303.787c5.12 2.655 7.528 8.166 6.08 10.96s-6.206 1.812-11.325-.843c-5.12-2.655-8.663-5.977-7.215-8.771 1.448-2.793 7.34-4 12.46-1.346z" fill="#ff6d6d"/></svg></g><g transform="translate(936.0 158.0) rotate(0.0 109.0 76.0) scale(1.0029305815617193 1.003227488433183)"><svg width="217.363" height="151.511" viewBox="0 0 217.363 151.511"><path d="m178.306 143.136-.854 2.463a7.291 7.291 0 0 1-7.354 4.894L8.666 140.424 4.471 139.3a4.673 4.673 0 0 0 5.62-2.98l.442-1.287 162.177 10.106a7.478 7.478 0 0 0 5.596-2.003z" fill="#dabc6c"/><path d="m120.758 39.312-65.477-8.064a10.432 10.432 0 0 0-11.135 6.94L10.091 136.32a4.676 4.676 0 0 1-5.63 2.978 4.62 4.62 0 0 1-2.742-2.032 4.63 4.63 0 0 1-.635-3.359L24.874 9.902l.083-.432C26.006 4.022 31.144.339 36.648 1.1l73.515 10.142a10.442 10.442 0 0 1 8.972 9.441l.157 1.793z" fill="#dabc6c"/><path d="M119.291 22.477a10.733 10.733 0 0 0-8.476-6.573L35.126 5.449a10.772 10.772 0 0 0-10.252 4.452l.083-.432c1.049-5.448 6.187-9.131 11.691-8.37l73.515 10.142a10.442 10.442 0 0 1 8.972 9.441z" fill="#ffdf68"/><path d="M170.547 151.51c-.171 0-.342-.005-.514-.016L8.604 141.422a1.002 1.002 0 0 1-.196-.032l-4.201-1.125c-2.86-.767-4.662-3.645-4.105-6.552L23.979 9.287C25.126 3.308 30.747-.721 36.78.109l73.515 10.145a11.382 11.382 0 0 1 9.834 10.339l1.556 17.826 14.022 1.728a9.435 9.435 0 0 0 8.888-3.954l9.53-13.607a11.385 11.385 0 0 1 10.937-4.771l45.125 6.231a8.277 8.277 0 0 1 5.948 3.89 8.282 8.282 0 0 1 .765 7.066l-38.5 110.925a8.337 8.337 0 0 1-7.853 5.583zM8.829 139.432l161.329 10.066c2.813.162 5.428-1.563 6.353-4.229l38.5-110.925a6.287 6.287 0 0 0-.581-5.365 6.287 6.287 0 0 0-4.516-2.954l-45.125-6.231a9.403 9.403 0 0 0-9.025 3.937l-9.53 13.607a11.415 11.415 0 0 1-10.771 4.792l-14.826-1.826a1 1 0 0 1-.874-.905l-1.627-18.633a9.394 9.394 0 0 0-8.115-8.532L36.506 2.089c-4.976-.678-9.616 2.642-10.563 7.574L2.066 134.09a3.69 3.69 0 0 0 2.658 4.243zM154.944 23.158h.01z" fill="#670a39"/><path d="m214.901 37.707-37.449 107.892a7.291 7.291 0 0 1-7.354 4.894L8.666 140.424l-3.318-.889.024-.091L31.375 15.621a2.088 2.088 0 0 1 2.315-1.641l85.839 11.242 31.123 4.07z" fill="#fff8ed"/><path d="m211.363 47.883-19.389 55.86-13.669 39.394-.854 2.463a7.29 7.29 0 0 1-6.194 4.88 8.01 8.01 0 0 1-1.16.013l-155.019-9.669-.926-.054 8.604-40.945 13.676-65.12a10.43 10.43 0 0 1 11.571-8.207l78.171 10.233 17.15 2.239 13.973 1.831z" fill="#d3b6b8"/><path d="M170.556 151.507c-.174 0-.348-.006-.523-.017L8.604 141.422a1.002 1.002 0 0 1-.196-.032l-3.318-.889a1 1 0 0 1-.707-1.225L30.396 15.415a3.1 3.1 0 0 1 3.423-2.428L215.03 36.716a1 1 0 0 1 .815 1.32l-37.449 107.892c-1.153 3.343-4.33 5.579-7.84 5.579zM8.829 139.432l161.331 10.062a6.294 6.294 0 0 0 6.346-4.222l37.048-106.733L33.56 14.97a1.098 1.098 0 0 0-1.206.856L6.526 138.816z" fill="#670a39"/><path d="m215.952 34.67-1.052 3.037-37.449 107.892a7.291 7.291 0 0 1-7.354 4.894L8.666 140.424 4.471 139.3c.182.049.366.087.555.106.114.02.23.029.346.039a4.792 4.792 0 0 0 2.498-.531 4.58 4.58 0 0 0 1.229-.957 4.513 4.513 0 0 0 .99-1.637l34.056-98.132a10.429 10.429 0 0 1 11.135-6.94l65.477 8.064 14.829 1.822a10.437 10.437 0 0 0 9.83-4.371l5.234-7.472 4.293-6.136a10.448 10.448 0 0 1 9.977-4.353l45.126 6.233c4.568.629 7.418 5.284 5.906 9.635z" fill="#ffdf68"/><path d="M210.612 29.467c.094.014.187.028.278.053.746.2 1.12.743 1.287 1.047.194.365.374.943.119 1.653l-23.978 69.072-17.06 49.187a7.29 7.29 0 0 0 6.194-4.88l.854-2.463 13.669-39.394 23.978-69.072c1.512-4.351-1.338-9.006-5.904-9.635-.567 1.453-.767 3.277.563 4.432z" fill="#dabc6c"/><path d="M210.889 29.52a3.172 3.172 0 0 0-.278-.053l-45.116-6.23c-1.961-.266-3.87.563-4.993 2.175l-9.527 13.608c-3.34 4.759-8.987 7.278-14.74 6.558l-14.84-1.825-65.477-8.064c-2.416-.302-4.753 1.159-5.557 3.473L15.078 140.824l-6.412-.399-4.195-1.125a4.673 4.673 0 0 0 5.62-2.98l.442-1.287 16.061-46.266 17.552-50.579a10.429 10.429 0 0 1 11.135-6.94l65.477 8.064 14.829 1.822a10.437 10.437 0 0 0 9.83-4.371l9.527-13.608a10.448 10.448 0 0 1 9.977-4.353l45.126 6.233c3.771.504 2.042 4.776.842 4.485z" fill="#fffdae"/><path d="M170.538 151.508a6.49 6.49 0 0 1-.516-.019L8.604 141.422a1.002 1.002 0 0 1-.196-.032l-4.191-1.123-.004-.001a1 1 0 0 1 .513-1.933l.004.001.002.001c1.882.492 3.779-.515 4.414-2.344l.441-1.284L43.202 37.86c1.758-5.064 6.89-8.26 12.203-7.604l80.306 9.887a9.452 9.452 0 0 0 6.994-1.957 9.334 9.334 0 0 0 1.896-1.997l9.526-13.606a11.402 11.402 0 0 1 10.932-4.771l45.128 6.233a8.27 8.27 0 0 1 5.946 3.889 8.274 8.274 0 0 1 .765 7.065l-38.501 110.929a8.308 8.308 0 0 1-7.041 5.548 12.35 12.35 0 0 1-.818.032zM8.904 139.437l6.232.389 155.023 9.669c.359.026.706.011 1.03-.013a6.294 6.294 0 0 0 5.316-4.207l38.502-110.933a6.282 6.282 0 0 0-.582-5.364 6.283 6.283 0 0 0-4.514-2.953l-45.127-6.232a9.41 9.41 0 0 0-9.021 3.937l-9.527 13.608a11.357 11.357 0 0 1-2.297 2.421 11.456 11.456 0 0 1-8.476 2.369l-80.305-9.887c-4.384-.533-8.617 2.096-10.068 6.275l-34.055 98.129a5.625 5.625 0 0 1-2.131 2.792z" fill="#670a39"/></svg></g><g transform="translate(57.0 325.0) rotate(0.0 107.5 95.5) scale(1.0035614763089475 1.0007649826569)"><svg width="214.237" height="190.854" viewBox="0 0 214.237 190.854"><path d="M211.845 106.607c-.01.01-.01.03-.02.04-3.805 10.187-11.856 19.075-19.56 26.74-10.86 11.09-27.6 18.14-84.98 42.48-24.573 10.396-49.198 21.91-67.69 6.43-.18-.15-.35-.3-.53-.45-8.86-7.7-16.47-21.15-25.2-41.35-6.79-15.71-15.81-38.03-11.83-53.79v-.02c.267-.514 4.296-20.426 27-35.88v.03c15.788-10.789 36.796-17.509 84.17-38.72 5.323-2.302 11.626-4.849 17.13-6.67h.01c38.048-13.112 51.768 3.246 69.97 45.38 6.851 15.841 16.542 39.317 11.53 55.78z" fill="#df5468"/><path d="M210.755 109.267c-3.705 8.2-9.954 15.43-16.26 21.89-19.114 11.797-35.757 17.331-87.66 40.19-49.805 21.393-64.806 12.892-87.51-39.64-8.213-19.004-18.793-45.054-9.14-63.12 17.388-21.789 30.909-25.49 104.77-57.2 4.941-2.118 10.271-4.211 15.39-5.93h.01c16.885-5.629 31.637-7.43 44.77 3.88.02.02.04.04.06.05 8.17 7.261 14.839 19.268 19.56 29.18 19.534 40.39 18.37 55.033 18.51 55.53.13 5.29-.66 10.24-2.5 15.17z" fill="#ff6d6d"/><path d="M128.373 158.27c-4.53 4.36-9.68 8.83-15.3 13.22a210.07 210.07 0 0 1-5.79 4.38c-24.57 10.39-49.2 21.91-67.69 6.43-.18-.15-.35-.3-.53-.45 2.82-4.7 6.29-9.05 10.1-12.84 14.23 12.27 31.6 9.84 61.55-3.11z" fill="#ff6d6d"/><path d="M23.605 127.198C.706 74.216 6.266 58.336 55.105 37.228l58.096-25.109c48.839-21.108 64.214-14.276 87.113 38.705s17.339 68.862-31.5 89.969l-58.096 25.109c-48.839 21.109-64.215 14.278-87.113-38.704z" fill="#df5468"/><path d="M209.6 111.992c-5.888 11.052-19.055 19.415-40.782 28.804L110.715 165.9c-48.836 21.109-64.215 14.278-87.11-38.702-13.84-32.026-17.283-50.486-7.062-64.755-7.347 13.784-3.4 31.757 9.304 61.153 22.895 52.979 38.274 59.811 87.11 38.702l58.102-25.104c19.302-8.342 31.842-15.87 38.541-25.202z" fill="#af4357"/><path d="M200.312 50.824c6.05 13.999 10.244 25.058 11.999 34.689-9.034 19.558-27.637 37.551-52.492 48.293-44.382 19.182-91.922 7.998-106.184-25.002-14.017-32.432 9.354-73.852 52.309-93.477a65.37 65.37 0 0 0 1.362-.601c.29-.138.584-.265.878-.392l.368-.159c22.091-9.461 44.938-11.402 64.046-6.901 9.942 7.365 18.171 21.47 27.714 43.55z" fill="#ff6d6d"/><path d="M200.312 50.824c12.664 29.301 16.621 47.259 9.361 61.024 3.6-12.968-.847-29.78-11.748-55.003-22.897-52.979-38.275-59.816-87.113-38.708L52.715 43.246c-21.818 9.43-35.004 17.822-40.86 28.947 3.955-14.282 17.656-23.908 43.247-34.968l58.097-25.109c48.838-21.107 64.216-14.27 87.113 38.708z" fill="#af4357"/><path d="M175.051 56.575c-.098-.226-.193-.437-.29-.66-.086-.201-.163-.39-.251-.593-14.967-34.63-25.025-39.095-56.959-25.293l-1.15.497h-.001L77.29 47.429c-10.381 4.487-17.835 8.619-22.715 13.286a3.093 3.093 0 0 0-.151.146s-.011.005-.016-.006c-5.37 4.772-10.639 12.473-11.456 19.227l.016.006c-1.63 8.498 1.422 19.433 8.298 35.343 15.416 35.668 25.763 40.276 58.645 26.065 34.743-15.016 52.747-22.007 61.878-30.252l.016.006c4.368-4.178 11.742-13.298 11.953-22.696-.016-.006-.016-.006-.027-.002.012-.313.024-.626.02-.946.128-7.849-2.93-17.683-8.7-31.031z" fill="#df5468"/><path d="M170.798 58.593c-14.358-33.221-23.999-37.505-54.622-24.27L79.748 50.067c-9.759 4.218-16.75 8.105-21.298 12.516l-.008-.005c-5.01 4.439-9.919 11.613-10.67 17.909l.011.003c-1.522 7.917 1.319 18.1 7.724 32.92 14.358 33.221 23.999 37.505 54.622 24.269 32.354-13.983 49.129-20.49 57.637-28.17l.007.002c4.07-3.894 10.946-12.381 11.13-21.14l-.015-.002c.368-7.447-2.501-16.845-8.09-29.776z" fill="#fff8ed"/><path d="M170.298 57.422c7.826 18.108 10.197 29.107 5.497 37.537-3.66 6.596-11.642 11.617-24.685 17.254l-35.375 15.289c-29.742 12.854-39.1 8.692-53.044-23.573-6.504-15.05-9.231-25.196-7.276-33.026 2.232-8.947 10.6-14.896 26.459-21.75l35.375-15.289c29.741-12.854 39.109-8.695 53.049 23.558z" fill="#d5d6e4"/><path d="M170.298 57.422c7.635 17.667 10.079 28.572 5.829 36.919l-.265.339-.01.005c-4.243 5.189-11.643 9.51-22.646 14.265l-35.376 15.29c-29.742 12.854-39.1 8.692-53.044-23.573-6.423-14.861-9.158-24.941-7.345-32.722.016-.107.047-.208.068-.304a18.126 18.126 0 0 1 1.442-3.879c4.19-5.341 11.677-9.749 22.922-14.609l35.375-15.289c29.742-12.854 39.11-8.695 53.05 23.558z" fill="#f6e4d5"/><path d="M170.298 57.422c7.635 17.667 10.079 28.572 5.829 36.919-.109.209-.218.419-.332.617.025-.086.046-.182.056-.274l.01-.005c1.824-7.786-.927-17.872-7.354-32.743-13.94-32.254-23.308-36.412-53.05-23.558L80.083 53.669c-11.014 4.76-18.403 9.076-22.642 14.276a19.698 19.698 0 0 0-2.026 2.959c.648-2.6 1.814-4.95 3.537-7.141 4.19-5.341 11.677-9.749 22.922-14.609l35.375-15.289c29.741-12.855 39.109-8.696 53.049 23.557z" fill="#fff8ed"/><path d="M91.569 135.203c-12.842 0-20.455-9.264-29.796-30.876-7.083-16.389-9.207-26.143-7.329-33.665 2.162-8.666 9.741-14.953 27.032-22.426l35.375-15.289c13.631-5.892 24.502-9.02 33.253-5.133 7.557 3.355 13.476 11.546 21.111 29.212 7.245 16.763 10.684 29.037 5.452 38.421-3.531 6.362-10.821 11.486-25.162 17.685l-35.375 15.289c-10.148 4.386-18.031 6.782-24.561 6.782zm49.943-107.126c-5.88 0-13.335 2.154-23.868 6.706L82.27 50.072c-16.638 7.19-23.895 13.099-25.885 21.074-1.761 7.056.331 16.439 7.224 32.388 13.755 31.825 22.457 35.701 51.729 23.051l35.375-15.289c13.897-6.006 20.91-10.879 24.207-16.821 4.231-7.588 2.729-17.521-5.54-36.655-7.412-17.149-13.044-25.05-20.087-28.177-2.327-1.034-4.86-1.566-7.781-1.566z" fill="#670a39"/><path d="M141.983 68.979c.052-1.313-.867-2.588-2.329-2.77l-42.851-5.36-3.01-.378c-1.09-.137-2.035.396-2.561 1.205l-.013-.002-5.157 7.003.015.003c-.623.733-.869 1.782-.433 2.792L94.948 93l9.304 21.528c.823 1.903 3.402 2.191 4.624.517l5.119-7.012c.081-.085.169-.16.242-.259l5.4-7.399 21.846-29.935c.327-.447.477-.943.501-1.436l.018-.022z" fill="#fff8ed"/><path d="m137.181 70.469-43.394-6.244-4.407 5.984.013.003c-.533.626-.743 1.522-.37 2.386l7.95 18.395 7.95 18.395c.703 1.626 2.907 1.873 3.951.442l23.283-31.894a2.26 2.26 0 0 0 .413-1.707z" fill="#af4357"/><path d="M107.039 111.77a3.216 3.216 0 0 1-.378-.021 3.255 3.255 0 0 1-2.655-1.965l-15.9-36.79a3.256 3.256 0 0 1 .41-3.285c.018-.031.038-.062.06-.092l4.407-5.984a.995.995 0 0 1 .948-.397l43.394 6.243a1 1 0 0 1 .638 1.615l-4.36 5.45a3.267 3.267 0 0 1-.635 1.982l-23.283 31.894a3.253 3.253 0 0 1-2.646 1.35zM90.277 70.678a.988.988 0 0 1-.122.183 1.26 1.26 0 0 0-.213 1.34l15.901 36.791c.186.43.575.718 1.041.771.224.023.787.022 1.184-.522l23.284-31.894c.263-.36.272-.72.234-.958-.045-.278.03-.563.206-.784l3.516-4.395-41.07-5.91z" fill="#670a39"/><path d="M113.457 103.614c-1.045 1.431-3.249 1.184-3.951-.442l-7.95-18.395-7.95-18.395c-.703-1.626.628-3.4 2.386-3.181l39.184 4.896c1.732.216 2.594 2.213 1.566 3.622z" fill="#af4357"/><path d="m136.737 71.715-18.667 25.58-4.614 6.322c-.916 1.257-2.744 1.211-3.639.064a2.034 2.034 0 0 1-.31-.515L93.61 66.382a2.016 2.016 0 0 1-.163-.578c-.222-1.438.997-2.801 2.54-2.607l2.572.323 36.616 4.58c1.726.214 2.589 2.211 1.562 3.615z" fill="#ff6d6d"/><g fill="#670a39"><path d="M85.191 145.65c-3.175 0-6.127-.549-8.876-1.771-7.77-3.454-13.86-11.887-21.722-30.076-6.942-16.062-9.218-25.743-7.825-33.328 0-.037.002-.075.007-.112.82-6.782 6.115-14.196 10.999-18.535a.835.835 0 0 1 .101-.079l.056-.051c4.325-4.138 10.941-8.015 21.423-12.545L115.78 33.41c30.988-13.393 41.444-8.76 55.941 24.783 5.847 13.528 8.295 22.293 8.183 29.301.003.233-.003.463-.011.691.013.069.019.14.018.212-.237 10.598-9.572 20.051-11.441 21.838a.987.987 0 0 1-.159.124c-7.43 6.64-20.732 12.342-44.773 22.647-4.029 1.728-8.358 3.583-13.01 5.594-9.743 4.211-18.116 7.05-25.337 7.05zm-36.41-65.207a.978.978 0 0 1-.016.234c-1.378 7.181.843 16.549 7.664 32.333 7.638 17.673 13.442 25.815 20.698 29.041 7.227 3.212 16.369 1.731 32.607-5.287a4673.62 4673.62 0 0 1 13.015-5.596c23.977-10.278 37.185-15.94 44.344-22.404a.99.99 0 0 1 .11-.086c1.992-1.929 10.365-10.584 10.701-20.109a1.01 1.01 0 0 1-.019-.234c.01-.276.021-.55.018-.83v-.029c.11-6.708-2.288-15.228-8.019-28.489-14.17-32.788-23.139-36.78-53.312-23.74L80.147 50.989c-10.254 4.432-16.688 8.188-20.862 12.18l-.11.104a1.253 1.253 0 0 1-.184.148c-4.531 4.066-9.395 10.852-10.21 17.022z"/><path d="M60.614 190.836c-5.492 0-10.234-1.057-14.553-3.127-13.484-6.465-22.985-23.387-33.103-46.807C-2.775 104.504-.268 93.254.803 88.451c.163-.731.292-1.31.25-1.623a.997.997 0 0 1 .108-.599c.012-.04.06-.215.135-.467C5.24 72.391 14.852 61.565 22.221 54.838c10.403-9.147 26.388-15.948 39.232-21.412 3.172-1.349 6.167-2.623 8.81-3.82l21.39-9.242 14.645-6.327c3.466-1.497 5.259-2.272 6.24-2.635.081-.074.175-.137.281-.183l.13-.057v.001l.424-.18c5.42-2.293 10.101-4.274 16.653-6.476a.71.71 0 0 1 .079-.022c12.13-4.04 26.217-7.271 38.801-.726.032.017.07.039.109.065 3.318 1.735 5.121 3.346 6.092 4.213.217.194.464.414.546.466.048.03.155.099.197.137 6.721 5.988 13.197 15.637 19.798 29.496 15.185 31.396 21.113 53.982 17.617 67.123a16.44 16.44 0 0 1-.252.943c-.04.174-.105.393-.17.61l-.038.116a.94.94 0 0 1-.052.127 43.668 43.668 0 0 1-1.087 2.623c-4.327 9.576-12.26 18.085-18.689 24.429-10.905 11.134-27.848 18.32-83.987 42.132l-10.175 4.317c-16.302 6.936-28.435 10.28-38.201 10.28zM3.059 86.84c.022.585-.119 1.216-.304 2.046-.94 4.217-3.437 15.42 12.038 51.224 22.215 51.419 36.996 58.276 83.241 38.607l10.176-4.317c55.856-23.691 72.714-30.842 83.351-41.702 6.317-6.234 14.091-14.565 18.283-23.843a41.74 41.74 0 0 0 1.055-2.549c.007-.021.016-.04.024-.06.067-.218.117-.386.159-.562.099-.336.173-.615.239-.896l.007-.03c3.377-12.663-2.506-34.786-17.484-65.757-6.461-13.565-12.758-22.986-19.249-28.801-.229-.142-.467-.354-.821-.671-.91-.813-2.605-2.327-5.732-3.957a1.189 1.189 0 0 1-.108-.065c-11.952-6.174-25.54-3.012-37.263.896a.691.691 0 0 1-.074.022c-6.445 2.168-11.08 4.129-16.444 6.398l-.548.232-.004.002c-2.682 1.158-42.408 18.322-42.528 18.375-2.648 1.199-5.654 2.478-8.837 3.832-12.712 5.407-28.533 12.138-38.68 21.061-7.167 6.546-16.528 17.074-20.341 30.004-.067.223-.114.385-.156.511zm209.735 20.111-.001.002.001-.002zm-.939-.334h.01z"/><path d="M111.622 105.55a3.3 3.3 0 0 1-2.593-1.255 2.93 2.93 0 0 1-.439-.733L92.692 66.779a3.01 3.01 0 0 1-.239-.869c-.149-.958.187-2 .906-2.739a3.242 3.242 0 0 1 2.753-.966l39.188 4.903a3.253 3.253 0 0 1 2.607 1.956 3.253 3.253 0 0 1-.362 3.241l-23.281 31.901a3.246 3.246 0 0 1-2.642 1.344zm-15.93-41.372c-.452 0-.753.234-.9.386a1.291 1.291 0 0 0-.358 1.088c.011.09.028.185.093.334l15.897 36.783a1.306 1.306 0 0 0 1.218.781 1.247 1.247 0 0 0 1.005-.522l23.281-31.902h.001c.39-.534.228-1.064.14-1.268a1.263 1.263 0 0 0-1.019-.766l-39.19-4.903a1.195 1.195 0 0 0-.168-.011z"/><path d="M70.837 178.043c-5.16 0-9.65-.95-13.81-2.799-12.24-5.438-21.868-18.798-34.339-47.65-12.879-29.805-18.146-50.116-6.956-65.73v.001a1.02 1.02 0 0 1 .057-.073c9.411-13.044 26.305-20.25 63.264-36.016 9.819-4.188 20.948-8.936 33.749-14.564C139.453-.31 154.616-2.672 166.89 2.78c12.243 5.438 21.872 18.799 34.343 47.65 7.552 17.474 18.964 43.881 9.264 62.019a1.105 1.105 0 0 1-.068.109c-8.231 15.398-27.732 23.678-66.506 40.14-9.65 4.097-20.587 8.74-32.806 14.114-17.618 7.615-30.219 11.23-40.28 11.231zM17.321 63.082c-9.349 13.096-7.46 29.785 7.202 63.719 12.248 28.336 21.589 41.406 33.316 46.616 11.696 5.195 26.41 2.831 52.48-8.438 12.224-5.377 23.168-10.023 32.823-14.122 38.417-16.311 57.7-24.497 65.57-39.329a1.16 1.16 0 0 1 .069-.112c8.451-15.946 0-38.479-9.384-60.192-12.248-28.335-21.59-41.405-33.319-46.616-11.698-5.194-26.411-2.83-52.476 8.438-12.806 5.631-23.94 10.381-33.764 14.571-36.654 15.635-53.382 22.77-62.461 35.393-.018.025-.037.048-.056.072z"/></g></svg></g><g transform="translate(257.0 93.0) rotate(0.0 93.0 82.0) scale(1.003241657182617 1.0005490818131901)"><svg width="185.399" height="163.91" viewBox="0 0 185.399 163.91"><path d="m184.202 46.527-3.027 9.592-32.759 103.811a4.248 4.248 0 0 1-5.534 2.709l-1.997-.744C-2.349 108.467 3.685 110.767 3.189 110.504a4.261 4.261 0 0 1-1.933-5.173L39.05 1l140.117 39.557 2.135.606a4.24 4.24 0 0 1 2.9 5.364z" fill="#ffdf68"/><path d="M141.873 162.256 3.763 110.759a4.245 4.245 0 0 1-2.507-5.428l.499-1.37L87.36 66.008z" fill="#dabc6c"/><path d="M42.502 1.977 3.189 110.504a4.261 4.261 0 0 1-1.933-5.173L39.05 1z" fill="#ffed8d"/><path d="m184.202 46.527-3.027 9.592-32.759 103.811a4.248 4.248 0 0 1-5.534 2.709l-1.997-.744 38.282-121.337 2.135.606a4.24 4.24 0 0 1 2.9 5.363z" fill="#fffdae"/><path d="M146.122 162.521a4.17 4.17 0 0 1-3.24.117l-2.539-.945-136.58-50.934a4.229 4.229 0 0 1-2.358-2.167l87.017-38.58 4.249-1.88z" fill="#ffdf68"/><path d="M148.161 160.556a4.25 4.25 0 0 1-5.279 2.082L3.763 110.759a4.245 4.245 0 0 1-2.507-5.428l.127-.35a4.297 4.297 0 0 0 2.496 2.241c.011.011.021.011.032.011l.011.011c31.991 11.761 142.303 53.503 144.239 53.312z" fill="#ffed8d"/><path d="M146.122 162.521a4.17 4.17 0 0 1-3.24.117l-2.539-.945-51.921-91.68 4.249-1.88z" fill="#fffdae"/><path d="m184.202 46.527-3.027 9.592c.489-1.562-1.062-2.74-2.624-2.74-.34 0-.68.053-.998.17L86.924 86.222c-2.305.829-5.948-.021-7.297-2.071L33.93 15.138l.372-1.041.999-2.751L39.05 1l142.253 40.163a4.24 4.24 0 0 1 2.899 5.364z" fill="#dabc6c"/><path d="M144.364 163.912c-.619 0-1.24-.112-1.836-.338L3.413 111.696A5.259 5.259 0 0 1 .5 109.019a.998.998 0 0 1 .499-1.34l91.266-40.46a.997.997 0 0 1 1.275.421l53.451 94.389a1.001 1.001 0 0 1-.45 1.401 5.182 5.182 0 0 1-2.177.482zM2.899 109.024c.337.353.751.629 1.208.797l139.124 51.881a3.17 3.17 0 0 0 1.389.198L92.247 69.414z" fill="#670a39"/><path d="M144.366 163.906a5.25 5.25 0 0 1-1.832-.33l-1.016-.386L3.413 111.696C.727 110.7-.663 107.691.315 104.99l.5-1.372L38.11.659a.994.994 0 0 1 1.212-.621l142.252 40.163a5.263 5.263 0 0 1 3.491 3.203c.414 1.117.445 2.3.091 3.423v.001L149.37 160.23a5.778 5.778 0 0 1-.314.773 5.24 5.24 0 0 1-4.69 2.903zM39.673 2.215 2.195 105.674a3.253 3.253 0 0 0 1.915 4.148l139.126 51.882a3.243 3.243 0 0 0 4.03-1.595c.076-.151.142-.319.201-.495l35.781-113.387a3.254 3.254 0 0 0-.058-2.125 3.26 3.26 0 0 0-2.16-1.978zm144.529 44.312h.01z" fill="#670a39"/><path d="m184.128 43.754-4.143 4.132a5.354 5.354 0 0 1-1.954 1.243L86.924 81.973a5.312 5.312 0 0 1-6.235-2.071L35.3 11.346l-1.668-2.528a2.127 2.127 0 0 1 .276-2.677l4.26-4.26a2.123 2.123 0 0 1 2.079-.542l141.054 39.824a4.24 4.24 0 0 1 2.827 2.591z" fill="#ffed8d"/><path d="m184.128 43.754-4.143 4.132a5.354 5.354 0 0 1-1.954 1.243L86.924 81.973a5.312 5.312 0 0 1-6.235-2.071L35.3 11.346l-1.668-2.528a2.127 2.127 0 0 1 .276-2.677l.882-.881.51.775 45.389 68.556a5.312 5.312 0 0 0 6.235 2.071l91.107-32.844a5.332 5.332 0 0 0 1.954-1.243l1.391-1.391a4.233 4.233 0 0 1 2.752 2.57z" fill="#fffdae"/><path d="M85.112 83.291a6.283 6.283 0 0 1-5.258-2.839L32.798 9.369a3.14 3.14 0 0 1 .404-3.935l4.259-4.26a3.127 3.127 0 0 1 3.063-.797L181.574 40.2l.031.009.064.02v-.001c1.588.486 2.826 1.645 3.396 3.178.136.367.046.78-.231 1.057l-4.143 4.132a6.381 6.381 0 0 1-2.32 1.476L87.263 82.914a6.336 6.336 0 0 1-2.151.377zM39.671 2.259c-.294 0-.581.116-.795.33l-4.26 4.26a1.12 1.12 0 0 0-.148 1.42l1.667 2.527L81.523 79.35a4.303 4.303 0 0 0 5.063 1.682l91.106-32.843a4.355 4.355 0 0 0 1.586-1.01l3.643-3.633a3.253 3.253 0 0 0-1.836-1.406l-.01-.003-.043-.013L39.978 2.302a1.115 1.115 0 0 0-.307-.043z" fill="#670a39"/></svg></g><g transform="translate(680.0 77.0) rotate(0.0 95.5 64.5) scale(1.0134830387511342 1.0107341534122072)"><svg width="188.459" height="127.63" viewBox="0 0 188.459 127.63"><path d="M186.884 70.55 74.009 126.375c-1.021.505-2.491.236-3.267-.598L1.291 51.131c-.484-.52-.35-1.184.298-1.476L109.161 1.21c.909-.409 2.259-.199 3 .467l74.932 67.353c.559.503.465 1.187-.209 1.52z" fill="#f6e4d5"/><path d="M154.976 40.16c-42.048-5.81-83.466-7.014-123.392-4.012l77.573-34.941c.917-.408 2.261-.195 3.002.473zm11.545 40.455-92.509 45.764c-1.028.5-2.492.232-3.271-.602L27.73 79.549c42.168-4.976 90.721-4.994 138.791 1.066z" fill="#fff8ed"/><path d="M72.858 127.627c-1.063 0-2.145-.414-2.848-1.168L.562 51.811c-.453-.479-.648-1.1-.528-1.698.12-.6.54-1.099 1.152-1.369L108.746.295c1.287-.572 3.041-.296 4.082.642l74.932 67.352c.514.456.765 1.074.684 1.692-.082.62-.486 1.154-1.109 1.467a.008.008 0 0 0-.004.002l-20.357 10.062a.867.867 0 0 1-.083.036l-92.436 45.728a3.679 3.679 0 0 1-1.597.351zM2.102 50.524l69.372 74.57c.48.515 1.463.694 2.101.385l92.503-45.761a.867.867 0 0 1 .083-.036l20.177-9.974-74.847-67.284c-.451-.406-1.37-.55-1.928-.303zm184.786 20.028h.01z" fill="#670a39"/><path d="M173.804 67.819c-3.095 1.529-11.768 5.819-22.386 11.063a597603.921 597603.921 0 0 1-59.792 29.576 3.712 3.712 0 0 1-4.281-.723L58.279 78.187l-1.214-1.232-29.808-30.299c-.519-.519-.389-1.195.278-1.492l19.884-8.951 2.53-1.14 57.855-26.046a2.756 2.756 0 0 1 2.993.473l32.439 29.159 30.772 27.649c.556.501.464 1.177-.204 1.511z" fill="#b5dcfa"/><path d="M151.418 78.882a35115.56 35115.56 0 0 1-30.531 15.103 4.576 4.576 0 0 0 1.788-1.575l10.109-15.085c6.246.427 12.463.945 18.634 1.557zm-8.181-40.223c-31.624-3.734-62.84-4.874-93.288-3.586l57.855-26.046a2.756 2.756 0 0 1 2.993.473z" fill="#fff8ed"/><path d="m175.018 68.143-.979 1.211-63.55-57.117a2.78 2.78 0 0 0-2.999-.467L47.108 38.953l-20.468 9.21-.319-1.526L47.42 37.14l60.382-27.183a2.78 2.78 0 0 1 2.999.467z" fill="#d3b6b8"/><path d="m134.454 74.847-11.776 17.566a4.633 4.633 0 0 1-1.794 1.573L91.03 108.752c-.992.491-2.438.247-3.214-.542L58.279 78.187 27.255 46.659c-.513-.522-.387-1.194.28-1.495l18.364-8.267a4.637 4.637 0 0 1 3.128-.243L80.532 45.3c2.474.679 3.499 3.08 2.279 5.337L77.278 60.87c-1.531 2.833-.154 5.291 3.062 5.464l51.234 2.747c3.581.193 4.877 2.787 2.88 5.766z" fill="#4a607c"/><path d="m91.626 108.458-.593.297c-.991.491-2.446.241-3.215-.547l-.38-.389a3.693 3.693 0 0 0 4.188.639z" fill="#4a607c"/><path d="M89.876 110.007c-1.029 0-2.078-.389-2.773-1.101l-.379-.388a.999.999 0 0 1 1.407-1.421c.813.778 2.04.965 3.053.464a1 1 0 0 1 .89 1.791l-.593.297a3.636 3.636 0 0 1-1.605.358z" fill="#670a39"/><ellipse cx="108.953" cy="45.696" fill="#ffdf68" rx="5.247" ry="7.174" transform="matrix(.3406 -.9402 .9402 .3406 28.8784 132.5685)"/><path d="M89.986 109.841a4.692 4.692 0 0 1-3.353-1.407L26.542 47.36c-.478-.485-.686-1.11-.573-1.716s.535-1.113 1.156-1.392l80.266-36.135a3.783 3.783 0 0 1 4.078.635l63.207 56.811v.001c.517.464.764 1.084.68 1.7-.085.614-.489 1.143-1.11 1.449L92.884 108.95c-.299.147-.573.283-.822.376l.012.024c-.666.33-1.38.491-2.088.491zM28.048 46.03l60.01 61.001a2.702 2.702 0 0 0 3.129.527l82.065-40.585-63.12-56.732a1.779 1.779 0 0 0-1.92-.299zm145.32 20.988a.218.218 0 0 0 .018.085l.621-.796z" fill="#670a39"/><path d="M132.785 77.325 122.676 92.41a4.59 4.59 0 0 1-1.788 1.575c-10.739 5.309-20.236 10.007-25.295 12.509-.389.195-.751.371-1.084.537a333.056 333.056 0 0 1-2.882 1.427 3.694 3.694 0 0 1-4.188-.639c-.037-.028-.065-.056-.093-.083L58.279 78.187l-1.214-1.232c4.837-.287 9.701-.51 14.584-.667a605.787 605.787 0 0 1 61.136 1.037z" fill="#557fa0"/><path d="M89.874 110.004c-1.026 0-2.074-.385-2.77-1.091L26.542 47.36c-.478-.485-.686-1.11-.573-1.716s.535-1.113 1.156-1.392l18.364-8.268a5.63 5.63 0 0 1 3.803-.295l31.505 8.646c1.497.411 2.626 1.352 3.18 2.649.553 1.297.452 2.763-.286 4.127l-5.532 10.233c-.572 1.058-.663 2.04-.257 2.765.406.726 1.292 1.16 2.492 1.225l51.234 2.747c2.107.113 3.66.962 4.373 2.39s.459 3.179-.716 4.931l-11.776 17.566a5.634 5.634 0 0 1-2.182 1.913l-29.854 14.767a3.603 3.603 0 0 1-1.599.356zM28.048 46.03l60.481 61.479c.473.479 1.454.645 2.058.347L120.44 93.09a3.64 3.64 0 0 0 1.407-1.233l11.776-17.566c.746-1.112.96-2.178.588-2.924-.372-.745-1.353-1.214-2.691-1.285l-51.234-2.747c-1.91-.104-3.377-.9-4.13-2.245-.753-1.344-.667-3.011.242-4.693l5.532-10.233c.442-.817.515-1.666.206-2.391-.309-.726-.974-1.26-1.87-1.507L48.762 37.62a3.637 3.637 0 0 0-2.453.191z" fill="#670a39"/></svg></g></svg>