<svg enable-background="new 0 0 573.712 318.819" height="319" viewBox="0 0 573.712 318.819" width="574" xmlns="http://www.w3.org/2000/svg"><path d="m98.783 144.016c4.142 0 7.5-3.357 7.5-7.5v-112.734c0-4.578 3.725-8.303 8.302-8.303h.134c4.578 0 8.303 3.725 8.303 8.303v96.931c0 12.85 10.453 23.303 23.302 23.303 12.84 0 23.294-10.446 23.303-23.287l.064-96.97c.003-4.575 3.728-8.297 8.302-8.297h122.568c4.142 0 7.5-3.357 7.5-7.5s-3.358-7.5-7.5-7.5h-122.568c-12.84 0-23.293 10.446-23.302 23.287l-.064 96.97c-.003 4.575-3.728 8.297-8.303 8.297-4.578 0-8.302-3.725-8.302-8.303v-96.931c0-12.85-10.454-23.303-23.303-23.303h-.134c-12.849 0-23.302 10.453-23.302 23.303v112.733c-0 4.143 3.358 7.501 7.5 7.501z" fill="#ffae1c"/><path d="m196.681 70.974h101.402c6.188 0 11.205-5.017 11.205-11.205v-22.722c0-6.188-5.017-11.205-11.205-11.205h-106.16c-6.188 0-11.205 5.017-11.205 11.205v96.02c0 6.188 5.016 11.205 11.205 11.205h106.284c6.188 0 11.205-5.016 11.205-11.205v-22.722c0-6.188-5.017-11.205-11.205-11.205h-101.317c-2.575 0-4.899-1.87-5.14-4.434-.271-2.89 1.995-5.32 4.829-5.32h77.595c2.22 0 4.219-1.621 4.412-3.833.217-2.495-1.744-4.587-4.193-4.587h-77.355c-2.641 0-5.026-1.91-5.285-4.538-.291-2.96 2.027-5.454 4.928-5.454z" fill="#ff2b2b"/><path d="m364.742 147.744c15.992 0 29.03-9.455 33.241-22.863 3.915 13.408 15.882 22.863 33.11 22.863 51.149 0 48.313-47.583 48.313-147.742h-39.803c0 86.574 1.817 131.753-13.718 131.753-14.974 0-15.438-32.581-15.438-131.754h-25.059c0 98.841-.776 131.754-15.438 131.754-15.699 0-13.718-45.178-13.718-131.753h-39.803c0 100.159-2.836 147.742 48.313 147.742z" fill="#00c1a5"/><path d="m117.959 184.973c0-14.926-12.143-27.068-27.067-27.068h-73.329c-4.142 0-7.5 3.357-7.5 7.5v142.128c0 4.143 3.358 7.5 7.5 7.5s7.5-3.357 7.5-7.5v-95.493h65.828c14.925 0 27.068-12.143 27.068-27.067zm-92.896-12.069h65.828c6.654 0 12.067 5.414 12.067 12.068s-5.414 12.067-12.067 12.067h-65.828z" fill="#00c1a5"/><path d="m404.843 156.482c-4.143 0-7.5 3.357-7.5 7.5v125.488c0 6.344-5.16 11.504-11.504 11.504-6.343 0-11.503-5.16-11.503-11.504v-125.543c0-4.143-3.358-7.5-7.5-7.5s-7.5 3.357-7.5 7.5v125.544c0 14.614 11.889 26.504 26.503 26.504s26.504-11.89 26.504-26.504v-125.489c0-4.142-3.358-7.5-7.5-7.5z" fill="#ff2b2b"/><path d="m166.714 155.374c-30.715 0-44.765 20.403-44.765 69.681 0 49.247 14.05 69.68 44.765 69.68s44.767-20.245 44.767-69.68c0-49.467-14.052-69.681-44.767-69.681zm0 128.772c-10.468 0-12.144-21.512-12.172-59.091.028-37.579 1.704-59.092 12.172-59.092s12.145 21.513 12.174 59.092c-.029 37.578-1.706 59.091-12.174 59.091z" fill="#ffae1c"/><path d="m204.012 301.615h-88.538c-2.021-12.182-8.952-23.271-20.018-31.788-.181-.14-.362-.277-.544-.415 12.255-.794 21.883-11.386 21.11-24-.736-12.019-11.063-21.216-23.105-21.216h-48.518c-4.142 0-7.5 3.358-7.5 7.5v77.148c0 4.107 3.164 7.688 7.269 7.811 4.247.128 7.731-3.277 7.731-7.497v-39.505c28.007 1.956 49.214 18.613 49.191 39.515-.004 4.141 3.476 7.447 7.617 7.447h95.497c4.089 0 7.403-3.315 7.403-7.403.001-4.196-3.4-7.597-7.595-7.597zm-152.113-47.155v-15.265h41.267c3.879 0 7.34 2.78 7.835 6.627.598 4.654-3.028 8.637-7.568 8.637h-41.534z" fill="#ff2b2b"/><path d="m219.51 315.915h90.251c22.091 0 40-17.909 40-40v-78.806c0-22.091-17.909-40-40-40h-90.125zm41.924-147.514h25.478c11.046 0 20 8.954 20 20v96.221c0 11.046-8.954 20-20 20h-25.478z" fill="#00c1a5"/><path d="m467.007 189.905c7.433 0 9.417 15.807 9.954 43.956h33.073c-2.68-38.424-16.736-54.457-44.039-54.457-30.55 0-44.524 20.233-44.524 69.102 0 48.837 13.975 69.101 44.524 69.101 27.11 0 41.158-15.829 43.98-53.648h-33.03c-.57 27.644-3.022 43.146-10.951 43.146-9.05 0-11.066-21.333-11.094-58.6.029-37.265 3.187-58.6 12.107-58.6z" fill="#ffae1c"/><path d="m566.212 156.032h-134.357c-4.143 0-7.5 3.357-7.5 7.5s3.357 7.5 7.5 7.5h87.355v140.287c0 4.143 3.357 7.5 7.5 7.5s7.5-3.357 7.5-7.5v-140.287h32.001c4.143 0 7.5-3.357 7.5-7.5s-3.356-7.5-7.499-7.5z" fill="#00c1a5"/><path d="m54.332 75.958c-3.32 24.406-7.626 28.158-30.417 30.417 24.406 3.319 26.102 7.732 30.417 30.417 3.32-24.406 6.01-27.098 30.417-30.417-24.407-3.32-27.098-6.011-30.417-30.417z" fill="#00c1a5"/><path d="m23.353 88.451c2.549-18.738 4.615-20.804 23.353-23.353-19.06-1.598-20.804-4.615-23.353-23.353-2.548 18.738-4.612 19.149-23.353 23.353 18.739 2.549 20.805 4.615 23.353 23.353z" fill="#ffae1c"/><path d="m64.902 59.498c2.008-14.764 3.636-16.392 18.4-18.4-14.824-1.055-15.693-4.53-18.4-18.4-2.008 14.764-3.636 16.392-18.4 18.4 14.764 2.008 16.392 3.636 18.4 18.4z" fill="#ff2b2b"/><path d="m514.204 136.792c3.319-24.406 6.01-27.098 30.417-30.417-24.162-5.082-27.098-6.011-30.417-30.417-3.32 24.406-5.799 25.334-30.417 30.417 24.407 3.319 27.098 6.01 30.417 30.417z" fill="#ff2b2b"/><path d="m545.183 89.983c2.549-18.738 4.615-20.804 23.353-23.353-18.739-2.549-20.71-7.132-23.353-23.353-2.549 18.739-4.615 20.805-23.353 23.353 18.738 2.549 21.435 7.242 23.353 23.353z" fill="#00c1a5"/><path d="m503.634 59.498c2.008-14.764 3.636-16.392 18.4-18.4-14.764-2.008-14.764-2.008-18.4-18.4-2.008 14.764-3.636 16.392-18.4 18.4 14.764 2.008 14.851 5.433 18.4 18.4z" fill="#ffae1c"/></svg>