<svg xmlns="http://www.w3.org/2000/svg" viewBox="0 0 1200 1200" width="1200" height="1200"><g transform="translate(271.0 137.0) rotate(0.0 316.0 454.0) scale(1.2299883618189815 1.2312498813498187)"><svg width="513.826" height="737.462" viewBox="0 0 513.826 737.462"><rect fill="#fff" height="633.79" rx="20.17" transform="matrix(.9855531 -.16936671 .16936671 .9855531 -58.889 48.527)" width="355" x="77.509" y="52.564"/><path d="M371.809.451 25.663 59.935C8.85 62.825-2.438 78.797.451 95.611l105.89 616.187c2.889 16.814 18.862 28.102 35.676 25.212l346.146-59.484c16.814-2.889 28.101-18.862 25.212-35.675L407.485 25.663C404.596 8.849 388.623-2.439 371.809.451zm108.39 631.384c1.887 10.979-5.484 21.408-16.462 23.295l-310.114 53.292c-10.979 1.887-21.408-5.484-23.295-16.463L29.818 107.083c-1.887-10.979 5.484-21.408 16.462-23.295l93.61-16.087a6.848 6.848 0 0 1 7.909 5.589l1.016 5.913a8.153 8.153 0 0 0 9.415 6.654l101.212-17.393a8.153 8.153 0 0 0 6.654-9.415l-1.016-5.913a6.848 6.848 0 0 1 5.589-7.909l85.726-14.732c10.979-1.887 21.408 5.484 23.295 16.462l100.509 584.877z" fill="#1d0333"/><g fill="#fff"><circle cx="242.635" cy="52.762" r="8"/><path d="M162.394 70.059a3 3 0 0 1-.504-5.957l61.169-10.512a3 3 0 1 1 1.016 5.913l-61.169 10.512c-.172.03-.343.044-.512.044z"/></g></svg></g><g transform="translate(109.0 662.0) rotate(0.0 158.0 158.0) scale(1.2440944881889764 1.2440944881889764)"><svg width="254" height="254" viewBox="0 0 254 254"><path d="M253 127c0 46.99-25.72 87.96-63.84 109.63C170.82 247.05 149.61 253 127 253c-47.43 0-88.73-26.2-110.22-64.92-.43-.76-.84-1.52-1.25-2.29a125.094 125.094 0 0 1-12.58-36.61C1.67 141.98 1 134.57 1 127 1 57.41 57.41 1 127 1s126 56.41 126 126z" fill="#759ef2"/><path d="M127 254c-46.124 0-88.693-25.073-111.094-65.435a103.67 103.67 0 0 1-1.258-2.306 125.987 125.987 0 0 1-12.682-36.905A127.964 127.964 0 0 1 0 127C0 56.972 56.972 0 127 0s127 56.972 127 127c0 45.596-24.656 87.937-64.346 110.499C170.654 248.294 148.989 254 127 254zm0-252C58.075 2 2 58.075 2 127c0 7.38.651 14.784 1.935 22.005a123.985 123.985 0 0 0 12.479 36.317c.405.76.811 1.512 1.236 2.265 22.053 39.733 63.951 64.412 109.349 64.412 21.643 0 42.967-5.616 61.666-16.24 39.066-22.208 63.334-63.882 63.334-108.76C252 58.075 195.925 2 127 2z" fill="#1d0333"/><path d="M118.069 186.696c4.664 5.459 5.32 12.554 1.465 15.847-3.855 3.294-10.761 1.539-15.425-3.92s-5.964-13.33-2.11-16.623c3.855-3.294 11.405-.763 16.069 4.696z" fill="#1d0333"/><ellipse cx="146.5" cy="206" fill="#1d0333" rx="10.5" ry="5"/><path d="M179 54c13-4 20 8 15 27s-14.174 21.146-17.087 21.073S158 87 158 87l-1-17z" fill="#1d0333"/><path d="M204 149c-6 25-30 31-54 18s-39-35-41-71c-1.39-25.04 37.09-41.67 57-29 14.47 9.21 28.94 30.96 35.44 51.88 1.31 4.23 2.3 8.43 2.9 12.48.95 6.38.92 12.41-.34 17.64z" fill="#e2957a"/><path d="M163 159c-.25 4.35-.81 8.57-1.59 12.63-1.37 7.09-3.43 13.69-5.76 19.61C148.56 209.27 139 221 139 221s-28 2-40-16c20-21 27-48 27-70 0 0 38.78-7.09 37 24z" fill="#e2957a"/><path d="M166.03 121.72c.07 2.93-8.55 2.24-11.74 2.28h-.21c-3 .07-10.93 3.25-12 .28-1.35-3.771 6.81-8.16 11.81-8.28.98-.02 2.04.07 3.11.26 4.4.74 8.97 3.05 9.03 5.46zM189 118c-.38.09-.77.2-1.18.31-3.91 1.03-8.91 2.5-9.82.69-1.84-3.69 6-9 11-9h.1c4.95.03 8.4 2.01 8.9 4 .5 2-5.12 3.03-9 4zm-21 24c5.559 3.177 10 1 12 1s0 11-9 10-10-15-3-11z" fill="#fff"/><ellipse cx="149" cy="134.5" fill="#bf7960" rx="11" ry="6.5" transform="matrix(.99651182 -.08345174 .08345174 .99651182 -10.704 12.903)"/><path d="M204.34 131.36c-.7.22-1.43.4-2.19.54-5.97 1.08-11.34-.91-11.98-4.45-.63-3.53 3.7-7.27 9.68-8.35.54-.1 1.07-.17 1.59-.22 1.31 4.23 2.3 8.43 2.9 12.48z" fill="#bf7960"/><g fill="#1d0333"><path d="M161.41 171.63c-1.37 7.09-3.43 13.69-5.76 19.61-1.21-1.64-2.551-5.493-3.65-8.24-2-5-10-6-13-11s-6-20 1-13c6.37 6.37 16.16 10.65 21.41 12.63zm4.62-49.91c.07 2.93-8.55 2.24-11.74 2.28-.19-.63-.29-1.3-.29-2 0-2.38 1.18-4.48 3-5.74 4.4.74 8.97 3.05 9.03 5.46zM189 118c-.38.09-.77.2-1.18.31-.52-.99-.82-2.11-.82-3.31 0-1.96.8-3.73 2.1-5 4.95.03 8.4 2.01 8.9 4 .5 2-5.12 3.03-9 4zm-50-3c-1-1 1.84-6.226 6-9 3-2 11 0 17-1 2.959-.493 2 7 0 6s-11-3-15-1-7 6-8 5zm37-13c4-1 9-4 11-4s7.621 4.13 8 5-4-2-8-1c-3.498.874-7 3-8 4s-5.169-3.458-3-4z"/><path d="M185 57c0 21-12 37-34 34-19.06-2.6-25.18 7.47-22 17 3 9-5 11-12 9s-10.71 4.6-23-4c-10-7-11-30 6-35-3.45-6.04-4.61-13.34-3.32-20.11.85-4.46 2.77-8.7 5.82-12.19 3.03-3.48 7.18-6.22 12.5-7.7 18-5 21 8 44-1 10.9-4.27 26-1 26 20zm-9.531 57.843c1.644 4.707 5.009 8.482 8.854 11.577 1.181 1.138 2.98 1.953 3.59 3.744.311 1.41-1.175 2.538-2.211 2.934-2.679 1.017-5.518.779-8.073-.169a1 1 0 1 1 .743-1.857c2.399.954 5.827 1.422 7.816-.331.208-.312.079-.36-.161-.712-2.582-2.578-5.795-4.951-7.952-8.041-1.532-2.068-2.767-4.374-3.544-6.831a.494.494 0 0 1 .939-.313z"/></g><path d="M126 117c-5-3-14.133-6.976-25-5-11 2-7 14 1 19s19 9 25 5-1-19-1-19z" fill="#e2957a"/><path d="M117.084 130.966c-.094 0-.19-.014-.286-.042-3.355-.999-4.26-2.901-4.501-3.946-.319-1.383.145-2.808 1.24-3.813.95-.871 2.238-1.347 3.663-1.301-.946-1.117-2.436-2.097-4.269-2.771-2.91-1.072-6.156-1.17-8.906-.271a1 1 0 0 1-.622-1.9c3.169-1.037 6.894-.93 10.219.294 3.258 1.199 5.661 3.316 6.429 5.662a1.002 1.002 0 0 1-1.258 1.263c-1.556-.503-3.016-.316-3.904.499-.566.52-.801 1.208-.644 1.891.244 1.057 1.382 1.96 3.123 2.478a1 1 0 0 1-.285 1.959z" fill="#1d0333"/><path d="M189.16 236.63C170.82 247.05 149.61 253 127 253c-48.36 0-90.35-27.24-111.47-67.21 8.96 1.62 18.6 3.69 28.59 6.09 16.61 3.99 34.22 8.86 51.45 13.98 37.99 11.3 74.13 23.83 93.59 30.77z" fill="#a271cc"/><path d="M100 219.82c-6 .82-17-2.82-23-8.82-5.701-5.701-15-5-21-7-4.88-1.62-3-7-11.88-12.12 16.61 3.99 34.22 8.86 51.45 13.98 4.06 6.36 7.88 13.49 4.43 13.96z" fill="#1d0333"/><path d="M100 185c0 9 5 16 21 22s33 4 36 0c-2 5-6 17-6 17s-14 14-38 3c-25.616-11.74-25-22-25-22s6-9 12-20z" fill="#a271cc"/><path d="M127.101 232.321c-3.306 0-6.783-.402-10.359-1.355-14.379-3.835-24.921-13.292-29.684-26.629a1 1 0 1 1 1.883-.673c4.535 12.699 14.592 21.709 28.316 25.369 15.545 4.146 29.104-2.636 34.102-6.801a1 1 0 0 1 1.28 1.536c-4.119 3.433-13.74 8.553-25.539 8.553z" fill="#1d0333"/><path d="M21 136c12-14 22.326-31.062 26.895-29.864s5.382 5.546-2.736 17.891c-8.119 12.345-13.041 16.223-16.95 16.233s-7.208-4.259-7.208-4.259z" fill="#e2957a"/><path d="M35 136c10-11 18.231-19.673 24-24 8-6 14 0 9 6s-14 17-22 23-9.213.481-12 0c-2.575-.445-2.069 3.301 1-5z" fill="#e2957a"/><path d="M80 121c4.057-6.445.661-13.845-8-8s-25.76 24.592-27.88 29.296S42 151 46 150s4 3 12-5 17.664-17.112 22-24z" fill="#e2957a"/><path d="M74 126c7-6 17-2 9 9s-21 25-28 29-14 10-16 5 5.24-15.691 6.12-16.845S66.604 132.34 74 126z" fill="#e2957a"/><path d="M73 178c-10 6-24 5-34 5-6.09 0-15.16 2.6-22.22 5.08-.43-.76-.84-1.52-1.25-2.29a125.094 125.094 0 0 1-12.58-36.61C11.96 141.52 21 138 29 126c0 0 8 10 10 10s19 9 19 9-12.45 15.163-6 20c8 6 14 1 21 0s10.981 6.411 0 13z" fill="#e2957a"/><path d="M44 142a1 1 0 0 1-.723-1.691c.859-.9 21.086-22.081 25.704-26.066a1 1 0 1 1 1.306 1.514c-4.545 3.923-25.354 25.714-25.564 25.934a.999.999 0 0 1-.724.31zm8 8a.999.999 0 0 1-.707-1.707l27-27a.999.999 0 1 1 1.414 1.414l-27 27A.997.997 0 0 1 52 150zm2.999 18a.994.994 0 0 1-.554-.168c-8.587-5.725-19.249-4.847-19.355-4.836a1 1 0 0 1-.18-1.992c.464-.042 11.457-.961 20.645 5.164a1 1 0 0 1-.556 1.832zM35 137a1 1 0 0 1-.744-1.668l8.396-9.354a.999.999 0 1 1 1.488 1.336l-8.396 9.354a.998.998 0 0 1-.745.332z" fill="#1d0333"/><path d="M154 60c-6-1-16-2-25 4s-22 4-27-1c-1.47-1.47-3.37-3.28-5.32-5.11.85-4.46 2.77-8.7 5.82-12.19C107.74 53.28 117 62 125 59c9.549-3.581 21-8 29 1z" fill="#eedcff"/><path d="M127 254c-46.124 0-88.693-25.073-111.094-65.435a103.67 103.67 0 0 1-1.258-2.306 125.987 125.987 0 0 1-12.682-36.905A127.964 127.964 0 0 1 0 127C0 56.972 56.972 0 127 0s127 56.972 127 127c0 45.596-24.656 87.937-64.346 110.499C170.654 248.294 148.989 254 127 254zm0-252C58.075 2 2 58.075 2 127c0 7.38.651 14.784 1.935 22.005a123.985 123.985 0 0 0 12.479 36.317c.405.76.811 1.512 1.236 2.265 22.053 39.733 63.951 64.412 109.349 64.412 21.643 0 42.967-5.616 61.666-16.24 39.066-22.208 63.334-63.882 63.334-108.76C252 58.075 195.925 2 127 2z" fill="#1d0333"/></svg></g><g transform="translate(44.0 234.0) rotate(0.0 189.5 156.5) scale(1.2305754157656517 1.2322834645669292)"><svg width="307.986" height="254" viewBox="0 0 307.986 254"><path d="M306.986 127c0 30.53-10.85 58.5-28.91 80.3-1.67 2.02-3.4 3.98-5.19 5.89a126.19 126.19 0 0 1-26.77 21.69c-.06.04-.11.08-.17.11-1.7 1.02-3.42 2.01-5.17 2.94-1.27.69-2.55 1.35-3.84 1.99-16.86 8.37-35.85 13.08-55.95 13.08-39.56 0-74.86-18.23-97.95-46.75-13.31-16.42-22.56-36.24-26.26-57.96-1.18-6.92-1.79-14.03-1.79-21.29 0-69.59 56.411-126 126-126s126 56.41 126 126z" fill="#759ef2"/><path d="M180.987 254c-38.498 0-74.483-17.175-98.727-47.121-13.68-16.876-22.833-37.078-26.469-58.421A128.04 128.04 0 0 1 53.987 127c0-70.028 56.971-127 127-127s127 56.972 127 127c0 29.511-10.349 58.255-29.14 80.938-1.654 2-3.414 3.998-5.23 5.936a127.069 127.069 0 0 1-26.982 21.862 1.657 1.657 0 0 1-.237.147 112.249 112.249 0 0 1-5.151 2.93 114.835 114.835 0 0 1-3.865 2.003C219.76 249.564 200.787 254 180.988 254zm0-252c-68.926 0-125 56.075-125 125 0 7.105.597 14.212 1.776 21.122 3.578 21.005 12.587 40.888 26.051 57.498 23.863 29.475 59.281 46.38 97.173 46.38 19.487 0 38.162-4.366 55.505-12.976a113.519 113.519 0 0 0 3.807-1.973 114.078 114.078 0 0 0 5.133-2.918l.129-.084a125.2 125.2 0 0 0 26.596-21.542 126.044 126.044 0 0 0 5.149-5.844c18.495-22.325 28.681-50.616 28.681-79.663 0-68.925-56.075-125-125-125z" fill="#1d0333"/><path d="M278.077 207.3c-1.67 2.02-3.4 3.98-5.19 5.89a126.19 126.19 0 0 1-26.77 21.69c-.06.04-.11.08-.17.11-1.7 1.02-3.42 2.01-5.17 2.94-1.27.69-2.55 1.35-3.84 1.99-1.55-.82-2.99-1.75-4.31-2.77-8.35 4.15-42.64-8.15-50.25-16.65-7.62-8.5-12.39-59.5 2.61-78.5 12.38-15.69 27.5-3.42 37.45 10.33 1.85-.84 3.89-1.33 6.05-1.33 8.01 0 14.5 6.49 14.5 14.5 0 2.36-.57 4.58-1.57 6.54 10.33.45 18.57 8.31 18.57 17.96 0 2.95-.79 5.73-2.15 8.19 8.28.81 15.5 4.21 20.24 9.11z" fill="#1d0333"/><path d="M210.986 232c18-8 6-29-8-33 1-15-18-28-41-31s-51 9-51 10 15 54 21 59 79-5 79-5z" fill="#cc9af0"/><path d="M165.986 84c-2.416-1.208-6.752-2.049-11.621-2.638 3.497-3.433 5.621-7.932 5.621-12.862 0-10.77-10.119-19.5-22.602-19.5s-22.602 8.73-22.602 19.5c0 2.245.445 4.4 1.255 6.407-2.436-.587-5-.907-7.653-.907C92.7 74 79.986 84.969 79.986 98.5c0 4.313 1.297 8.364 3.565 11.885-4.821-2.491-10.499-4.341-16.693-5.256-19.733-2.914-37.212 4.768-39.042 17.157-.84 5.688 1.771 11.376 6.743 16.15-.417.034-.833.064-1.252.109-19.835 2.087-34.702 15.327-33.203 29.572s18.795 24.102 38.632 22.015c.313-.033.622-.077.932-.115.434 3.531 1.837 6.57 4.282 8.73 7.667 6.773 22.627 2.365 33.415-9.846 8.168-9.246 11.596-20.311 9.454-28.081 17.418.174 37.352-3.383 40.167-2.82 5 1 34 2 41.181-8s8.819-24 9.819-31-4-31-12-35zm19 136c11-4 6-23-5-27s-35.652 5.739-35.326 6.37S165.986 218 165.986 218l12 2z" fill="#1d0333"/><path d="M246.117 234.88c-.06.04-.11.08-.17.11-1.7 1.02-3.42 2.01-5.17 2.94-17.79 9.61-38.15 15.07-59.79 15.07-39.56 0-74.86-18.23-97.95-46.75-5.83-12.48-8.79-27.46-8.05-45.25 13.24 5.31 26.58 8.58 28 10 2 2 69.07 46.36 69.07 46.36s19.93 4.64 48.93 9.64c6.44 1.11 17.05 4.49 25.13 7.88z" fill="#cc9af0"/><path d="M199.986 157s-.84 2.59-2.39 6.83c-1.15 3.13-2.69 7.18-4.56 11.74-5.16 12.54-11.88 28.02-21.05 40.43 9 3 14 4 14 4s-32 6-50 15c-5-13-19-44-19-44l13 9s18-16 32-62c28 1 38 19 38 19z" fill="#ffb5a6"/><path d="M151.986 111c17.912 13.388 10.458 54.942-10.421 82.876-20.879 27.935-52.326 39.728-70.237 26.34-17.912-13.388-15.506-46.886 5.373-74.821S134.074 97.612 151.986 111z" fill="#1d0333"/><path d="M235.986 137c-1.75 14.9-21.01 39.02-56 21-33-17-33.3-53.1-27-72 12-36 62-47 70-10 2.8 12.94 7.89 26.73 10.88 39.4.95 4.04 1.69 7.97 2.07 11.72.36 3.47.42 6.77.05 9.88z" fill="#ffb5a6"/><ellipse cx="184.486" cy="127" fill="#f99282" rx="12.5" ry="6"/><path d="M235.936 127.12c-6.17.62-11.31-1.12-11.79-4.16-.49-2.99 3.76-6.21 9.72-7.56.95 4.04 1.69 7.97 2.07 11.72z" fill="#f99282"/><path d="M243.986 65.68c0 3.04-1.1 5.85-2.97 8.18-15.19 22.32-58.52 10.41-69.03 6.31-11-4.29-12 8.59-10 18.24 1.52 7.34-6 8.59-10 8.59s-9-10.73-9-10.73-14-7.51 0-36.49c10.52-21.771 24.99-32.64 37.44-37.521 3.41-1.55 7.26-2.6 11.38-3.04.03 0 .07-.01.1-.01.2-.03.39-.04.58-.05.2-.02.4-.04.59-.05.04 0 .07-.01.11-.01.92-.06 1.85-.1 2.8-.1 7.64 0 14.61 2.14 19.91 5.68 6.19 4.13 10.09 10.15 10.09 16.86v.04c-.01 3.04-.82 5.94-2.28 8.59.43-.03.86-.05 1.28-.05 9.39 0 19 7.56 19 15.56z" fill="#1d0333"/><path d="M158.986 109c-2-2-9-8-20-8-12 0-16 7-7 17s23 11 28 5c5.507-6.608-1-14-1-14z" fill="#ffb5a6"/><path d="M198.986 114c-.93 2.8-6.23 2.11-10.19 2.01-.28-.01-.55-.01-.81-.01-4 0-11 2-12-1-.95-2.85 7-7 13-7 .54 0 1.07.02 1.59.07 5.26.47 9.32 3.2 8.41 5.93zm32-5c0 2.91-4.7 3-9.54 3.91l-.46.09c-4.04.81-9 2-10 0s4-7 10-8l.62-.09c4.73-.58 9.38 1.22 9.38 4.09z" fill="#fff"/><g fill="#1d0333"><path d="M198.986 114c-.93 2.8-6.23 2.11-10.19 2.01-.52-.88-.81-1.91-.81-3.01a5.97 5.97 0 0 1 2.59-4.93c5.26.47 9.32 3.2 8.41 5.93zm32-5c0 2.91-4.7 3-9.54 3.91a5.886 5.886 0 0 1-1.46-3.91c0-1.59.61-3.03 1.62-4.09 4.73-.58 9.38 1.22 9.38 4.09zm-22.334-.166c1.333 4.643 4.729 8.304 8.074 11.712 1.086 1.22 2.503 2.246 3.179 3.941.466 1.64-1.238 2.7-2.621 2.877-2.785.4-5.439-.041-7.852-1.531a1 1 0 1 1 1.109-1.664c1.924 1.128 5.494 1.9 7.431.812-1.916-2.904-5.351-5.711-7.407-8.909-1.453-2.065-2.652-4.383-3.244-6.905a.686.686 0 0 1 1.33-.332zM147.221 121a.999.999 0 0 1-.468-.117c-2.674-1.421-3.842-3.513-3.124-5.597.692-2.009 2.957-3.313 5.626-3.407-1.667-2.404-4.368-3.263-5.989-3.567-3.454-.65-6.468.223-7.551 1.374a1.001 1.001 0 0 1-1.456-1.372c1.757-1.866 5.613-2.676 9.377-1.968 3.951.743 6.968 3.032 8.279 6.28a1 1 0 0 1-1.102 1.359c-2.726-.484-4.831.614-5.292 1.953-.375 1.088.416 2.247 2.171 3.179a1 1 0 0 1-.47 1.884zm24.967-14.396c-1.653-1.506 7.668-7.362 10.618-8.5 2.951-1.138 11.034.49 14.031.352 2.997-.139 1.276 5.947-1.767 5.087s-7.17-2.259-10.082-1.536c-4.948 1.23-11.756 5.549-12.801 4.597zm38.883-8.786c3.101-.618 9.429-2.845 12.406-2.47s7.07 4.922 7.313 5.96-3.719-2.484-8.805-2.116c-4.112.297-7.103 2.5-8.437 2.97-2.109.742-5.578-3.726-2.477-4.343z"/></g><path d="M203.986 143c5 1 10-4 9-6s-6 1-10-2-5.707-.121-5 2c1 3 4.039 5.608 6 6z" fill="#fff"/><path d="M202.986 165c-1.15 3.13-8.08 6.01-9.95 10.57-5.33-3.42-12.05-6.57-16.05-12.57-6.276-9.414-6.81-15.164-1-10 9 8 21 12 27 12zm-76.999 76a1 1 0 0 1-.448-1.895c24.627-12.313 52.818-19.181 64.283-21.092a1 1 0 1 1 .329 1.973c-11.363 1.894-39.303 8.701-63.717 20.908a.993.993 0 0 1-.447.105z" fill="#1d0333"/><path d="M135.986 236a1 1 0 0 1-.969-.757c-2.02-8.081-15.695-35.225-16.77-36.572-.391-.391-.374-1.005.017-1.396s1.04-.373 1.431.018c1.389 1.389 15.345 29.793 17.263 37.464a1 1 0 0 1-.971 1.243zm4 9.001a1 1 0 0 1-.303-1.953c7.665-2.438 18.859-3.425 30.709-4.469 21.516-1.896 45.903-4.044 49.64-15.879a1 1 0 0 1 1.907.603c-4.139 13.108-28.151 15.223-51.372 17.269-11.738 1.034-22.825 2.011-30.279 4.383a1.002 1.002 0 0 1-.303.047zm-15.999-11c-.397 0-.772-.238-.929-.629-1.763-4.408-6.958-12.515-15.88-24.783a1 1 0 0 1 1.618-1.177c9.147 12.577 14.269 20.59 16.12 25.217a1 1 0 0 1-.928 1.372z" fill="#1d0333"/><path d="M225.986 41.54v.04c-7-4.58-17-2.58-20 2.42-2.771 4.618-5 15-13 14s-23-2-23-2l-7 9 5-12s9-2 17-2 10-1 13-14c2.66-11.53 9.82-13.05 17.91-12.32 6.19 4.13 10.09 10.15 10.09 16.86z" fill="#eedcff"/><path d="M180.987 254c-38.498 0-74.483-17.175-98.727-47.121-13.68-16.876-22.833-37.078-26.469-58.421A128.04 128.04 0 0 1 53.987 127c0-70.028 56.971-127 127-127s127 56.972 127 127c0 29.511-10.349 58.255-29.14 80.938-1.654 2-3.414 3.998-5.23 5.936a127.069 127.069 0 0 1-26.982 21.862 1.657 1.657 0 0 1-.237.147 112.249 112.249 0 0 1-5.151 2.93 114.835 114.835 0 0 1-3.865 2.003C219.76 249.564 200.787 254 180.988 254zm0-252c-68.926 0-125 56.075-125 125 0 7.105.597 14.212 1.776 21.122 3.578 21.005 12.587 40.888 26.051 57.498 23.863 29.475 59.281 46.38 97.173 46.38 19.487 0 38.162-4.366 55.505-12.976a113.519 113.519 0 0 0 3.807-1.973 114.078 114.078 0 0 0 5.133-2.918l.129-.084a125.2 125.2 0 0 0 26.596-21.542 126.044 126.044 0 0 0 5.149-5.844c18.495-22.325 28.681-50.616 28.681-79.663 0-68.925-56.075-125-125-125z" fill="#1d0333"/></svg></g><g transform="translate(770.0 442.0) rotate(0.0 195.5 156.5) scale(1.2334384858044165 1.2322834645669292)"><svg width="317" height="254" viewBox="0 0 317 254"><path d="M253 127c0 25.21-7.4 48.68-20.14 68.37-.91 1.4-1.84 2.79-2.8 4.15C207.25 231.87 169.59 253 127 253c-36.72 0-69.77-15.71-92.81-40.77-1.17-1.28-2.32-2.58-3.44-3.9C12.19 186.39 1 158 1 127 1 57.41 57.41 1 127 1s126 56.41 126 126z" fill="#eedcff"/><path d="M127 254c-35.44 0-69.536-14.978-93.546-41.093a141.056 141.056 0 0 1-3.466-3.93C10.649 186.118 0 157.005 0 127 0 56.972 56.972 0 127 0s127 56.972 127 127c0 24.558-7.02 48.388-20.3 68.914a129.72 129.72 0 0 1-2.823 4.183C207.078 233.849 168.246 254 127 254zm0-252C58.075 2 2 58.075 2 127c0 29.532 10.481 58.187 29.513 80.684a138.532 138.532 0 0 0 3.415 3.871C58.559 237.258 92.118 252 127 252c40.596 0 78.818-19.834 102.243-53.056a129.168 129.168 0 0 0 2.779-4.119C245.092 174.626 252 151.171 252 127 252 58.075 195.925 2 127 2z" fill="#1d0333"/><path d="M79 140c-11 25-17 61 12 67s95.565-3.13 99.783-12.565C195 185 182 171 169 156s-48-34-50-34-40 18-40 18z" fill="#1d0333"/><path d="M232.86 195.37c-.91 1.4-1.84 2.79-2.8 4.15C207.25 231.87 169.59 253 127 253c-36.72 0-69.77-15.71-92.81-40.77-1.17-1.28-2.32-2.58-3.44-3.9 18.65-5.89 69.1-7.3 105.25-10.33 29.01-2.43 59-36 96.86-2.63z" fill="#577ddd"/><path d="M109 28c6-6 50.4-10.442 71 21 19 29 26.716 63.858 55 78 34 17 60 14 75 3 2 9-18 30-38 36 17 4 36-4 45-6-1 5-3 12-3 12s-34 39-81 39c-24.021 0-61-9-91-45s-18.391-89.087-18.391-89.087z" fill="#1d0333"/><path d="M140 92c-1 19-7 35-18 50s-28.76 23.1-48 15c-12.53-5.28-18.74-18.67-19.04-33.02-.09-4.08.14-8.16.59-12.02.35-3.17.86-6.19 1.45-8.96 3-14 0-31 15-47 9.72-10.37 37-12 48-4 7.67 5.58 21 21 20 40z" fill="#e59588"/><path d="M151 59c0 2-9 32-11 34s-11 3-14 5-6-10-3-17-4.06-10.51-16-4c-11 6-32 7-63-4 3.06-7.95 8.33-18.59 13.46-23.95 3.02-3.18 6.35-5.91 9.9-8.18C77.4 34.39 89.2 31.49 101 32h7s43 25 43 27z" fill="#1d0333"/><path d="M135 93c-1-18-5-53-42-61 14-13 23.408-7.571 32-1 17 13 19 36 17 59-1.754 20.172-7 3-7 3z" fill="#f85572"/><path d="M122 205c-11.802-8.852-16.01-14.01-25.85-29.88-2.74-4.42-5.53-9.06-8.42-13.89-1.22-2.04-2.46-4.12-3.73-6.23 0 0 40-55.02 40-34 0 28 23.77 52.416 42 67 3 1 .147 11.352-9 17-9.368 5.785-23 9-35 0zm5-107c3.499-4.665 12-12 22-12s13 7 5 18-17 11-22 9-8-11-5-15z" fill="#e59588"/><ellipse cx="104.5" cy="119" fill="#e27469" rx="6" ry="10.5" transform="matrix(.05611775 -.99842416 .99842416 .05611775 -20.178 216.656)"/><path d="M65.87 119.66c-.52 3.19-5.35 5.09-10.91 4.32-.09-4.08.14-8.16.59-12.02.3.03.6.07.9.12 5.72.91 9.94 4.31 9.42 7.58z" fill="#e27469"/><path d="M108.82 107.98c-1.13 1.8-6.51.47-10.53.86-.21.02-.41.04-.61.07-4.08.61-7.16 1.32-8.96-.86-1.79-2.17 1.78-6.63 7.49-7.11.72-.06 1.46-.06 2.23.01 6.97.67 11.56 5.13 10.38 7.03zm-33.67-.58c-1.67 2.89-5.33 1.61-9.09.82-.3-.07-.59-.13-.89-.18-4.05-.75-9.04-.43-9.17-2.43-.13-1.96 4.48-4.22 9.47-4.6.09-.01.17-.01.26-.02 4.99-.32 11.01 3.67 9.42 6.41z" fill="#fff"/><g fill="#1d0333"><path d="M112 161c-4.281 5.137-9.08 12.99-15.85 14.12C93.41 170.7 86.89 164.83 84 160c5.86.18 13.685.21 20-4 6-4 13-13 14-12s-1 11-6 17zm-13-55c0 1.03-.26 2-.71 2.84-.21.02-.41.04-.61.07-4.08.61-7.16 1.32-8.96-.86-1.79-2.17 1.78-6.63 7.49-7.11A5.97 5.97 0 0 1 99 106zm-32-1a5.9 5.9 0 0 1-.94 3.22c-.3-.07-.59-.13-.89-.18-4.05-.75-9.04-.43-9.17-2.43-.13-1.96 4.48-4.22 9.47-4.6A5.878 5.878 0 0 1 67 105zm22.282-14.979c2.991.237 11.045-.127 15.032.19 3.987.316 10.762 6.871 9.686 7.789s-5.018-3.406-10.999-3.881c-7.049-.559-11.124 1.123-12.121 1.044s-4.589-5.38-1.598-5.143zm-13.761-.125c3.12-.418-.244 6.086-1.417 5.234s-3.495-1.768-7.679-1.999c-5.333-.295-7.016 2.957-8.188 2.105s1.682-3.252 4.67-4.661 9.494-.262 12.614-.679zM141.001 107a1.001 1.001 0 0 1-.516-1.857c1.725-1.035 2.589-2.413 2.199-3.51-.409-1.154-2.282-2.107-5.543-1.643a.998.998 0 0 1-.942-1.589c2.966-3.954 9.228-7.535 14.996-6.38a.999.999 0 1 1-.393 1.961c-3.985-.798-8.526 1.195-11.454 3.914 2.628.156 4.578 1.26 5.22 3.07.575 1.618.074 4.017-3.055 5.894a.994.994 0 0 1-.514.143zm-61.577-5c.266 6.561-4.362 11.641-7.402 16.905.009.033 0 .08-.02.087.009-.031-.008-.041-.014-.094-.038-.085-.091-.157-.108-.158 0 0 .187.064.401.076 2.392-.004 5.046-.839 7.272-1.712a1.005 1.005 0 0 1 1.378.511 1.001 1.001 0 0 1-.484 1.278c-1.215.594-2.352.979-3.563 1.312-1.95.423-4.134 1.208-6.119.217-2.179-1.688 1.007-4.446 1.931-5.935 1.435-1.901 2.82-3.807 3.903-5.875 1.058-2.068 1.858-4.289 1.976-6.613.011-.529.834-.545.848 0z"/></g><path d="m111 58-13 6-8-9s-16 9-24 4c-4.03-2.52-6.79-6.56-8.54-9.95 3.02-3.18 6.35-5.91 9.9-8.18C69.93 46.51 74 49 79 49s15-1 15-1l4 11z" fill="#eedcff"/><path d="M140.825 211.429c-8.877 0-18.39-3.754-25.524-10.713a1 1 0 0 1 1.397-1.432c10.468 10.212 26.283 13.162 36.787 6.858 9.842-5.905 15.367-16.355 12.578-23.792a1.001 1.001 0 0 1 1.872-.703c3.117 8.311-2.779 19.823-13.422 26.208-4.021 2.413-8.757 3.572-13.689 3.572z" fill="#1d0333"/><path d="M73 132c.605-2.153 5.466.906 10-2s7.302 2.855 2.609 7.211C78.694 143.629 72.395 134.152 73 132z" fill="#fff"/><path d="M127 254c-35.44 0-69.536-14.978-93.546-41.093a141.056 141.056 0 0 1-3.466-3.93C10.649 186.118 0 157.005 0 127 0 56.972 56.972 0 127 0s127 56.972 127 127c0 24.558-7.02 48.388-20.3 68.914a129.72 129.72 0 0 1-2.823 4.183C207.078 233.849 168.246 254 127 254zm0-252C58.075 2 2 58.075 2 127c0 29.532 10.481 58.187 29.513 80.684a138.532 138.532 0 0 0 3.415 3.871C58.559 237.258 92.118 252 127 252c40.596 0 78.818-19.834 102.243-53.056a129.168 129.168 0 0 0 2.779-4.119C245.092 174.626 252 151.171 252 127 252 58.075 195.925 2 127 2z" fill="#1d0333"/></svg></g><g transform="translate(450.0 326.0) rotate(0.0 122.5 54.5) scale(1.2239596343108359 1.220317730432933)"><svg width="200.17" height="89.321" viewBox="0 0 200.17 89.321"><path d="M194.196 1H42.167c-2.339 0-4.361 1.686-4.858 4.049l-6.268 29.807L2.662 52.6c-2.705 1.287-1.931 5.46 1.042 5.622l21.837 2.787-4.433 21.078c-.674 3.204 1.687 6.233 4.858 6.233h152.03c2.339 0 4.361-1.686 4.858-4.049l16.2-77.038C199.728 4.029 197.367 1 194.196 1z" fill="#fff"/><g fill="#1d0333"><path d="M177.996 89.32H25.967a5.891 5.891 0 0 1-4.584-2.205 6.23 6.23 0 0 1-1.252-5.234l4.209-20.017-20.762-2.65C1.869 59.123.434 57.854.08 56.063c-.357-1.807.485-3.543 2.097-4.34l27.973-17.49 6.18-29.391C36.921 2.037 39.375 0 42.167 0h152.029c1.776 0 3.447.804 4.584 2.205a6.232 6.232 0 0 1 1.253 5.233l-16.201 77.039c-.59 2.806-3.045 4.843-5.837 4.843zM42.167 2c-1.851 0-3.483 1.369-3.88 3.254l-6.268 29.807a1.006 1.006 0 0 1-.448.643L3.192 53.448a.972.972 0 0 1-.1.055c-.998.475-1.189 1.468-1.05 2.173.14.711.665 1.491 1.717 1.548l21.909 2.793a1.001 1.001 0 0 1 .852 1.198l-4.432 21.078a4.241 4.241 0 0 0 .848 3.562 3.9 3.9 0 0 0 3.031 1.465h152.029c1.851 0 3.483-1.369 3.88-3.254l16.2-77.038a4.241 4.241 0 0 0-.848-3.562 3.9 3.9 0 0 0-3.031-1.465H42.167z"/><path d="M173.551 32.102H58.655a1 1 0 0 1 0-2h114.897a1 1 0 0 1 0 2zm-74.02 12.105h-44.19a1 1 0 0 1 0-2h44.191a1 1 0 0 1 0 2zm70.706 0h-46.401a1 1 0 0 1 0-2h46.401a1 1 0 0 1 0 2zm-44.358 12.104H48.545a1 1 0 0 1 0-2h77.334a1 1 0 0 1 0 2zm39.772 0h-27.619a1 1 0 0 1 0-2h27.619a1 1 0 0 1 0 2z"/></g></svg></g><g transform="translate(417.0 519.0) rotate(0.0 164.5 91.5) scale(1.228666392799791 1.2364864864864864)"><svg width="267.77" height="148" viewBox="0 0 267.77 148"><path d="M7.676 1h204.069c3.139 0 5.854 2.818 6.521 6.769l8.414 49.837 37.859 30.341c3.63 2.152 2.592 9.13-1.399 9.4l-29.078 3.988 5.95 35.243c.905 5.357-2.264 10.422-6.521 10.422H29.422c-3.139 0-5.854-2.818-6.521-6.769L1.155 11.422C.25 6.065 3.419 1 7.676 1z" fill="#eedcff"/><g fill="#1d0333"><path d="M233.492 148H29.422c-3.664 0-6.751-3.126-7.507-7.603L.169 11.589c-.558-3.306.278-6.662 2.236-8.978C3.828.927 5.7 0 7.676 0h204.069c3.664 0 6.752 3.126 7.507 7.603l8.35 49.462 37.51 30.061c2.47 1.512 3.006 4.682 2.453 7.006-.585 2.457-2.255 4.071-4.357 4.214l-27.988 3.841 5.778 34.226c.558 3.305-.278 6.661-2.235 8.977-1.423 1.684-3.295 2.611-5.272 2.611zM7.676 2c-1.378 0-2.708.675-3.744 1.902-1.559 1.844-2.245 4.662-1.791 7.354l21.746 128.808c.581 3.439 2.908 5.936 5.535 5.936h204.07c1.378 0 2.708-.675 3.744-1.902 1.559-1.844 2.245-4.662 1.791-7.353l-5.95-35.243a1.002 1.002 0 0 1 .85-1.157l29.078-3.988c1.868-.129 2.473-2.091 2.615-2.689.394-1.653.064-3.88-1.59-4.86a1.025 1.025 0 0 1-.115-.08l-37.859-30.34a1.002 1.002 0 0 1-.361-.614l-8.414-49.837c-.581-3.439-2.908-5.936-5.535-5.936H7.676z"/><path d="M192.445 45.813H27.812a1 1 0 0 1 0-2h164.633a1 1 0 0 1 0 2zm14.537 58.82H42.348a1 1 0 0 1 0-2h164.634a1 1 0 0 1 0 2zm-9.788-38.961h-63.321a1 1 0 0 1 0-2h63.321a1 1 0 0 1 0 2zm-98.146 0H32.561a1 1 0 0 1 0-2h66.487a1 1 0 0 1 0 2zM205.109 85.53H94.299a1 1 0 0 1 0-2H205.11a1 1 0 0 1 0 2zm-128.224 0H37.31a1 1 0 0 1 0-2h39.575a1 1 0 0 1 0 2z"/></g></svg></g><g transform="translate(450.0 777.0) rotate(0.0 123.0 49.0) scale(1.228955387920268 1.2245254963701564)"><svg width="200.17" height="80.031" viewBox="0 0 200.17 80.031"><path d="M194.196 1H42.167c-2.339 0-4.361 1.506-4.858 3.618l-6.268 26.636-28.379 16.75c-2.705 1.15-1.931 4.879 1.042 5.024l21.837 1.597-4.433 18.836c-.674 2.863 1.687 5.57 4.858 5.57h152.03c2.339 0 4.361-1.506 4.858-3.618l16.2-68.843c.674-2.863-1.687-5.57-4.858-5.57z" fill="#fff"/><g fill="#1d0333"><path d="M177.996 80.031H25.967c-1.911 0-3.659-.824-4.798-2.262-1.03-1.3-1.406-2.954-1.034-4.537l4.164-17.695-20.668-1.511C1.81 53.938.363 52.72.056 50.999c-.291-1.63.571-3.184 2.151-3.886l27.958-16.504 6.17-26.22C36.944 1.805 39.342 0 42.167 0h152.029c1.91 0 3.659.824 4.797 2.262 1.03 1.301 1.407 2.955 1.034 4.538l-16.201 68.843c-.608 2.584-3.006 4.389-5.832 4.389zM42.167 2c-1.863 0-3.497 1.197-3.885 2.847l-6.268 26.636a.996.996 0 0 1-.465.632L3.17 48.866a1.068 1.068 0 0 1-.117.059c-1.152.49-1.079 1.442-1.029 1.722.108.604.625 1.329 1.728 1.382l21.862 1.599a.998.998 0 0 1 .9 1.227l-4.432 18.836c-.235 1-.003 2.007.655 2.837.757.956 1.934 1.503 3.23 1.503h152.029c1.863 0 3.496-1.197 3.885-2.847l16.2-68.843c.235-1 .002-2.007-.655-2.838-.757-.956-1.934-1.503-3.229-1.503z"/><path d="M162.941 35.814H60.156a1 1 0 0 1 0-2h102.785a1 1 0 0 1 0 2zm-39.682 12.105H54.077a1 1 0 0 1 0-2h69.182a1 1 0 0 1 0 2zm35.579 0H134.13a1 1 0 0 1 0-2h24.708a1 1 0 0 1 0 2z"/></g></svg></g></svg>