<svg xmlns="http://www.w3.org/2000/svg" viewBox="0 0 3000 3000" width="3000" height="3000"><g transform="translate(1508.3999999999999 387.59999999999997) rotate(0.0 576.0000000000001 1134.0) scale(1.2073952961891588 1.2067103309940463)"><svg width="954.12" height="1879.49" viewBox="0 0 954.12 1879.49"><path d="M810.29 3H143.82C66.05 3 3 66.05 3 143.83v1591.83c0 77.78 63.05 140.83 140.82 140.83h666.47c77.78 0 140.83-63.05 140.83-140.83V143.83C951.12 66.05 888.07 3 810.29 3zm60.66 1717.41c0 42.76-34.66 77.42-77.42 77.42H160.59c-42.76 0-77.42-34.66-77.42-77.42V159.08c0-42.76 34.66-77.42 77.42-77.42h154.04v.39s35.77 0 39.26 35.22l2.6 19.78c2.76 21.04 12.62 36.77 41.91 36.77h149.62c29.3 0 39.16-15.73 41.92-36.77l2.6-19.78c3.48-35.22 39.26-35.22 39.26-35.22v-.39h161.73c42.76 0 77.42 34.66 77.42 77.42z" fill="#fff"/><path d="M810.29 1879.49H143.82C64.517 1879.49 0 1814.968 0 1735.661V143.83C0 64.523 64.517 0 143.82 0h666.47c79.308 0 143.83 64.522 143.83 143.83v1591.83c0 79.308-64.522 143.83-143.83 143.83zM143.82 6C67.826 6 6 67.83 6 143.83v1591.83c0 75.999 61.826 137.829 137.82 137.829h666.47c76 0 137.83-61.83 137.83-137.829V143.83C948.12 67.83 886.29 6 810.29 6zm649.71 1794.83H160.59c-44.344 0-80.42-36.076-80.42-80.42V159.08c0-44.345 36.076-80.421 80.42-80.421h154.04c.594 0 1.147.173 1.613.471 7.344.545 37.358 4.804 40.632 37.844l2.589 19.686c3.099 23.625 15.107 34.16 38.936 34.16h149.62c23.835 0 35.847-10.535 38.945-34.16l2.6-19.78c3.255-32.956 33.276-37.205 40.622-37.75a2.993 2.993 0 0 1 1.613-.47h161.73c44.344 0 80.42 36.076 80.42 80.421v1561.33c0 44.343-36.076 80.419-80.42 80.419zM160.59 84.66c-41.035 0-74.42 33.385-74.42 74.421v1561.33c0 41.035 33.385 74.42 74.42 74.42h632.94c41.035 0 74.42-33.385 74.42-74.42V159.08c0-41.036-33.385-74.421-74.42-74.421H633.282a2.98 2.98 0 0 1-1.481.391c-1.346.005-33.11.483-36.275 32.515l-2.611 19.876c-3.524 26.866-17.79 39.379-44.895 39.379H398.4c-27.098 0-41.36-12.513-44.884-39.38l-2.6-19.779c-3.186-32.127-34.941-32.605-36.291-32.61a2.998 2.998 0 0 1-1.473-.391z" fill="#232323"/><path d="M870.95 159.08v1561.33c0 42.76-34.66 77.42-77.42 77.42H160.59c-42.76 0-77.42-34.66-77.42-77.42V159.08c0-42.76 34.66-77.42 77.42-77.42h154.04v.39s35.77 0 39.26 35.22l2.6 19.78c2.76 21.04 12.62 36.77 41.91 36.77h149.62c29.3 0 39.16-15.73 41.92-36.77l2.6-19.78c3.48-35.22 39.26-35.22 39.26-35.22v-.39h161.73c42.76 0 77.42 34.66 77.42 77.42z" fill="#fff"/><path d="M793.53 1800.83H160.59c-44.344 0-80.42-36.076-80.42-80.42V159.08c0-44.345 36.076-80.421 80.42-80.421h154.04c.594 0 1.147.173 1.613.471 7.344.545 37.358 4.804 40.632 37.844l2.589 19.686c3.099 23.625 15.107 34.16 38.935 34.16h149.62c23.835 0 35.847-10.535 38.945-34.159l2.601-19.781c3.254-32.956 33.276-37.205 40.622-37.75a2.99 2.99 0 0 1 1.613-.47h161.73c44.344 0 80.42 36.076 80.42 80.421v1561.33c0 44.343-36.076 80.419-80.42 80.419zM160.59 84.66c-41.035 0-74.42 33.385-74.42 74.421v1561.33c0 41.035 33.385 74.42 74.42 74.42h632.94c41.035 0 74.42-33.385 74.42-74.42V159.08c0-41.036-33.385-74.421-74.42-74.421H633.282a2.983 2.983 0 0 1-1.481.391c-1.345.005-33.11.483-36.275 32.515l-2.611 19.876c-3.524 26.866-17.79 39.379-44.895 39.379H398.4c-27.098 0-41.36-12.513-44.884-39.38l-2.6-19.779c-3.185-32.127-34.94-32.605-36.291-32.61a2.994 2.994 0 0 1-1.472-.391z" fill="#232323"/><path d="M870.95 159.08v1561.33c0 42.76-34.66 77.42-77.42 77.42H160.59c-42.76 0-77.42-34.66-77.42-77.42V159.08c0-42.76 34.66-77.42 77.42-77.42h154.04v.39s35.77 0 39.26 35.22l2.6 19.78c2.76 21.04 12.62 36.77 41.91 36.77h149.62c29.3 0 39.16-15.73 41.92-36.77l2.6-19.78c3.48-35.22 39.26-35.22 39.26-35.22v-.39h161.73c42.76 0 77.42 34.66 77.42 77.42z" fill="#fff"/><path d="M793.53 1800.83H160.59c-44.344 0-80.42-36.076-80.42-80.42V159.08c0-44.345 36.076-80.421 80.42-80.421h154.04c.594 0 1.147.173 1.613.471 7.344.545 37.358 4.804 40.632 37.844l2.589 19.686c3.099 23.625 15.107 34.16 38.935 34.16h149.62c23.835 0 35.847-10.535 38.945-34.159l2.601-19.781c3.254-32.956 33.276-37.205 40.622-37.75a2.99 2.99 0 0 1 1.613-.47h161.73c44.344 0 80.42 36.076 80.42 80.421v1561.33c0 44.343-36.076 80.419-80.42 80.419zM160.59 84.66c-41.035 0-74.42 33.385-74.42 74.421v1561.33c0 41.035 33.385 74.42 74.42 74.42h632.94c41.035 0 74.42-33.385 74.42-74.42V159.08c0-41.036-33.385-74.421-74.42-74.421H633.282a2.983 2.983 0 0 1-1.481.391c-1.345.005-33.11.483-36.275 32.515l-2.611 19.876c-3.524 26.866-17.79 39.379-44.895 39.379H398.4c-27.098 0-41.36-12.513-44.884-39.38l-2.6-19.779c-3.185-32.127-34.94-32.605-36.291-32.61a2.994 2.994 0 0 1-1.472-.391z" fill="#232323"/><path d="M801.404 266.887c0 18.429-8.687 34.83-22.18 45.346-9.73 7.585-21.969 12.098-35.264 12.098-13.318 0-25.569-4.525-35.31-12.134-13.47-10.515-22.134-26.905-22.134-45.31 0-31.723 25.721-57.444 57.444-57.444s57.444 25.721 57.444 57.444z" fill="#fff"/><path d="M743.959 327.331c-13.612 0-26.46-4.416-37.157-12.77-14.799-11.553-23.287-28.93-23.287-47.675 0-33.329 27.115-60.444 60.444-60.444s60.444 27.115 60.444 60.444c0 18.764-8.506 36.154-23.336 47.712-10.685 8.33-23.517 12.733-37.108 12.733zm0-114.888c-30.021 0-54.444 24.424-54.444 54.444 0 16.884 7.646 32.537 20.979 42.946 9.632 7.522 21.204 11.498 33.464 11.498 12.242 0 23.798-3.965 33.419-11.465 13.362-10.413 21.025-26.078 21.025-42.979.002-30.02-24.422-54.444-54.443-54.444z" fill="#232323"/><path d="M769.136 289.86a2.157 2.157 0 0 1-.515 2.357 35.883 35.883 0 0 1-2.672 2.306c-6.188 4.816-13.617 7.364-21.485 7.364-7.887 0-15.325-2.558-21.513-7.392a35.158 35.158 0 0 1-2.759-2.386c-.606-.582-.845-1.464-.552-2.252 1.634-4.387 4.171-8.482 7.139-11.671.359-.386.946-.43 1.383-.135a28.463 28.463 0 0 0 15.993 4.88 28.532 28.532 0 0 0 16.416-5.162c.451-.315 1.067-.263 1.425.155 2.837 3.298 5.435 7.589 7.14 11.936zm-5.951-37.535c1.199 12.096-8.883 22.186-20.98 20.986-8.953-.888-16.194-8.13-17.081-17.083-1.198-12.096 8.891-22.175 20.986-20.977 8.95.886 16.188 8.125 17.075 17.074z" fill="#d9c6f4"/><path d="M612.765 587.285c-20.042-32.316-59.564-70.588-134.575-72.92v-.115c-1.357-.004-2.701.005-4.035.023a245.3 245.3 0 0 0-4.035-.023v.115c-75.012 2.333-114.534 40.604-134.576 72.92-17.896 28.855-26.731 63.031-28.683 97.658-.242 0-.242 120-.242 120l45-4s0-116 .253-116c1.805-26.584 8.592-52.46 21.914-73.941 20.805-33.545 54.562-50.925 100.368-51.716 45.806.791 79.563 18.171 100.368 51.716 13.775 22.212 20.564 49.123 22.082 76.656.016.285.016 119.285.016 119.285l45 13s0-133-.094-133.532c-1.782-35.128-10.613-69.863-28.761-99.126z" fill="#fff"/><path d="M641.62 822.943c-.279 0-.559-.039-.833-.118l-45-13a2.999 2.999 0 0 1-2.167-2.882c0-1.169 0-116.049-.015-119.188-1.605-28.948-9.084-54.94-21.631-75.171-20.212-32.591-53.122-49.513-97.818-50.297-44.697.784-77.606 17.706-97.819 50.297-12.154 19.597-19.579 44.688-21.471 72.562a3.082 3.082 0 0 1-.016.168c-.188 4.181-.229 84.705-.229 115.629a3 3 0 0 1-2.734 2.988l-45 4a3 3 0 0 1-3.266-2.988s0-30.002.03-60.003c.015-15.002.038-30.005.072-41.256.017-5.63.037-10.322.06-13.606.012-1.65.024-2.948.038-3.833.006-.379.014-.909.099-1.468l-.051-.003c2.112-37.492 12.185-71.75 29.128-99.07 20.143-32.48 60.112-71.672 136.207-74.311.513-.164 1.074-.145 1.621-.145 1.132 0 2.254.009 3.372.023a194.04 194.04 0 0 1 4.006-.022c.311.001.617.051.907.144 76.094 2.639 116.063 41.83 136.206 74.311 17.176 27.695 27.276 62.467 29.208 100.556l-.019.001c.057 2.05.116 16.614.116 133.683a2.997 2.997 0 0 1-3.001 2.999zm-42-18.256 39 11.267c-.001-45.864-.021-126.605-.089-129.372l-.001-.018c-1.881-37.079-11.672-70.863-28.314-97.698-19.443-31.35-58.146-69.203-132.119-71.502a3.082 3.082 0 0 1-.737-.115c-1.062 0-2.117.01-3.165.023a256.661 256.661 0 0 0-3.244-.023 3.082 3.082 0 0 1-.737.115c-73.973 2.299-112.677 40.152-132.12 71.502-16.416 26.471-26.18 59.752-28.237 96.246a2.344 2.344 0 0 1-.017.188c-.175 4.05-.218 82.271-.221 116.364l39-3.467c.001-7.887.006-31.572.032-55.258.016-14.503.039-29.005.075-39.882.018-5.443.039-9.979.063-13.153.012-1.598.025-2.853.039-3.708.006-.376.015-.9.1-1.454l-.049-.003c1.958-28.848 9.69-54.893 22.358-75.318 21.364-34.447 55.973-52.324 102.866-53.135h.104c46.893.811 81.501 18.688 102.865 53.135 13.085 21.099 20.875 48.095 22.528 78.072.005.11.02.362.02 117.194z" fill="#232323"/><path d="M475.12 1280.349c-155.745 0-282-126.256-282-282v-165.78c0-53.141 43.079-96.22 96.22-96.22H660.9c53.141 0 96.22 43.079 96.22 96.22v165.78c0 155.744-126.256 282-282 282z" fill="#d9c6f4"/><path d="M539.96 924.107c0-37.055-31.013-66.867-68.498-64.895-33.521 1.763-60.407 29.284-61.445 62.836-.904 29.245 17.527 54.303 43.464 63.392l-39.239 130.964c-2.014 6.721 3.019 13.483 10.036 13.483h101.389c7.016 0 12.049-6.762 10.036-13.483l-39.24-130.964c25.327-8.875 43.497-32.975 43.497-61.333zm188.26 676.22H224.98c-16.778 0-30.38-13.602-30.38-30.38v-66.24c0-16.778 13.602-30.38 30.38-30.38h503.24c16.778 0 30.38 13.602 30.38 30.38v66.24c0 16.778-13.602 30.38-30.38 30.38z" fill="#fff"/><path d="M728.22 1603.328H224.98c-18.406 0-33.38-14.975-33.38-33.381v-66.239c0-18.405 14.974-33.38 33.38-33.38h503.24c18.406 0 33.38 14.975 33.38 33.38v66.239c-.001 18.406-14.975 33.381-33.38 33.381zm-503.24-127c-15.097 0-27.38 12.282-27.38 27.38v66.239c0 15.098 12.283 27.381 27.38 27.381h503.24c15.097 0 27.38-12.283 27.38-27.381v-66.239c0-15.098-12.283-27.38-27.38-27.38z" fill="#232323"/><g fill="#d9c6f4"><path d="M668.128 1503.166h10.887v62.601h-10.887z"/><path d="M704.6 1529.296v10.887h-62.602v-10.887z"/><path d="m647.531 1516.362 7.698-7.698 44.265 44.265-7.698 7.698z"/><path d="m655.24 1560.65-7.699-7.7 44.265-44.264 7.698 7.698zm-382.711-57.484h10.887v62.601h-10.887z"/><path d="M309 1529.295v10.887h-62.601v-10.887z"/><path d="m251.935 1516.359 7.698-7.698 44.265 44.265-7.698 7.698z"/><path d="m259.637 1560.646-7.698-7.698 44.265-44.265 7.698 7.698zm210.691-57.48h10.887v62.601h-10.887z"/><path d="M506.8 1529.295v10.887h-62.602v-10.887z"/><path d="m449.733 1516.36 7.698-7.698 44.266 44.265-7.699 7.698z"/><path d="m457.438 1560.647-7.699-7.698 44.266-44.265 7.698 7.698zm-86.01-57.481h10.887v62.601h-10.887z"/><path d="M407.9 1529.295v10.887h-62.601v-10.887z"/><path d="m350.834 1516.36 7.698-7.699 44.265 44.266-7.698 7.698z"/><path d="m358.537 1560.647-7.698-7.698 44.265-44.265 7.698 7.698zm210.691-57.481h10.887v62.601h-10.887z"/><path d="M605.7 1529.296v10.887h-62.602v-10.887z"/><path d="m548.632 1516.361 7.698-7.698 44.265 44.265-7.698 7.698z"/><path d="m556.339 1560.649-7.698-7.698 44.265-44.266 7.698 7.699z"/></g><path d="M247.62 231.943h-88a5 5 0 1 1 0-10h88a5 5 0 1 1 0 10zm0 39h-88a5 5 0 1 1 0-10h88a5 5 0 1 1 0 10zm0 39h-88a5 5 0 1 1 0-10h88a5 5 0 1 1 0 10z" fill="#232323"/></svg></g><g transform="translate(261.59999999999997 556.8) rotate(0.0 627.0 1049.4) scale(1.2070459139474443 1.2071781893477513)"><svg width="1038.9" height="1738.6" viewBox="0 0 1038.9 1738.6"><clipPath id="a"><path d="M340.9 632c-126 214 78 382-12.3 526.4-31.1 49.7-110.4 93.9-202.2 120.3 6.9-2.6 49.7-14.6 94.7 53.4 30.8 46.5 23.4 81.1 90.3 161.6 123-76 139.4-105.2 139.4-105.2 228.6-237.8 85.6-555.8 92-761.4-72.9-23.8-163.8-29.4-201.9 4.9z"/></clipPath><clipPath id="b"><path d="M340.9 632c-25.5 264.7 308.5 320.7 91.5 753.7-17.3 34.5-60.8 79.4-75 135 10.5-27.4 70.3-57.8 151.7-36.6 65 17 101.3 21.6 131.3 13.6 0 0 45.9-103.1 66.8-275 26.4-216.2-50-425.5-60.1-519-7.4-68.4-239-132.3-306.2-71.7z"/></clipPath><clipPath id="c"><path d="M670.2 182.7c.7 9.1-4.1 18.5-13.6 23.8-24.8 13.9-57.4 6.3-57.4 6.3s-4.1 29-4 57.4c0 0-8.7 26.2-17.1 38.8-29.3-9.7-78.3-42.1-95.6-75.2 0 0 22-20.1 39.6-62.1-17.5-2.4-44.6-20.7-40.3-44.4 2.5-13.5 16.8-24.6 30.8-20.5 13.6 3.9 18.8 12.1 29.8 24 10.2 11.1 13.2 4.9 20-8.5 5.5-10.6 13-20.2 22.1-28.1 15.4-13 43.8-13.3 62.6-11.3 0 14.3.9 28.5 2.8 42.6 3.1 24.9 18.6 36 20.3 57.2z"/></clipPath><clipPath id="d"><path d="M653.4 26.9c-9.2-4.9-17.5-5.8-26.8-1.2-9.1-35-55.7-27.6-62.2-2.8C534.9-.7 497.3 32 509 59.8c4.3 10.2 11.3 31.4 6.3 48.4 14.5 7 41 43.5 41 43.5s65.6-61.8 90.8-68.8c31.4-8.7 25.8-45.1 6.3-56z"/></clipPath><clipPath id="e"><path d="M584.4 308.7c20.2 12.1 28.9 25.5 32.3 34.5 3.8 10.2-.8 19.9-.8 19.9 35 65.9 54 238.9 26 332.9l-36.7 37.8c-3.7 2.5-8.5 2.8-12.5.8 0 0-44.5-23.1-50.8-37.6 71-182 37.4-330.3 37.4-330.3-7-8.6-3.5-13.7-.3-28.8 3-14.3 5.4-29.2 5.4-29.2z"/></clipPath><clipPath id="f"><path d="m499.1 619.5 57.7 8.3c-7.3 50.8-35.2 117.1-71.1 169l-48-33.2c30.7-44.3 55.4-102.2 61.4-144.1z"/></clipPath><path d="M639.1 1481.1c-79.2 93.9-289.4 101.5-278.4 39.8 17.4-55.7 187.4-107.8 272.4-63.8z" fill="#232323"/><path d="M438.9 1563.7c-24.2 0-45.4-3.4-59.9-10.3-16.4-7.7-23.7-19.1-21.3-33 0-.1.1-.2.1-.4 6.3-20.2 32.1-41.1 70.8-57.2 32.4-13.5 69.8-22.2 105.5-24.5 40.1-2.6 74.7 3 100.3 16.2.8.4 1.3 1.1 1.5 1.9l6 24c.2.9 0 1.9-.6 2.7-15 17.8-35.3 33.4-60.2 46.3-22 11.4-47.8 20.6-74.4 26.5-23.4 5.2-46.7 7.8-67.8 7.8zm-75.3-42c-1.9 11 4.1 19.9 17.9 26.4 26.1 12.2 74.7 13 123.9 2 55.4-12.4 102.8-37.7 130.3-69.7l-5.3-21.2c-24.4-12.3-57.6-17.4-95.9-14.9-35.1 2.3-71.9 10.9-103.6 24.1-36.8 15.4-61.4 34.8-67.3 53.3z" fill="#232323"/><path d="M643.9 1476s-13.4 43.2-16.8 55.5l-.3.9-2.4 8.4c-.3.9-.5 1.8-.8 2.8-.4 1.2-.7 2.4-1.1 3.7l-.9 3c-.1.2-.1.4-.2.6-.5 1.8-1.1 3.6-1.6 5.3-.2.8-.5 1.5-.7 2.3l-.3 1.2c-.3 1.1-.7 2.3-1 3.4-8.1 26.4-15 46.1-15.3 47s-.1 0-.2 0h-.5c-9.6.3-115 2.3-106.9-33.9 0-.2-2.5-5.7-2.5-5.8 1-4.6 2-9.4 3-14.4 0-.3.1-.6.2-.9.5-2.4.9-4.9 1.4-7.4 1.1-6.1 2.2-12.3 3.1-18.5.6-3.6 1.1-7.2 1.6-10.7.5-3.2.9-6.4 1.3-9.5.1-.9.2-1.8.4-2.7 1.5-11 2.7-21.4 3.6-30.8 1.1-11.4 1.8-21.2 2-27.8v-3.6c0-1.2 0-2.4-.1-3.6-1.3-15.3 25.1-10.1 54.8.4 28.2 10 59.5 24.8 73.1 31.6 4.4 2.1 6.9 3.4 7.1 3.5z" fill="#fff"/><path d="M593 1613.2c-9.3 0-24.2-.3-39.7-1.9-30.1-3.1-49.4-9.6-57.5-19.4-3.7-4.5-5.1-9.7-4.1-15.4-.3-.6-.6-1.4-.9-2-1.5-3.3-1.5-3.3-1.5-4 0-.2 0-.4.1-.7 1-4.4 2-9.1 3-14.3l.1-.8c.5-2.5.9-4.9 1.4-7.4 1.1-5.9 2.1-12.1 3.1-18.5.5-3.2 1-6.7 1.6-10.7.5-3.2.9-6.3 1.3-9.5l.4-2.7c1.4-10.3 2.6-20.7 3.6-30.7 1.1-11.1 1.8-20.9 2-27.6v-3.4c0-1.2 0-2.3-.1-3.4-.4-5.2 1.9-8.2 3.9-9.7 7.4-5.7 25.4-3.4 55 7.1 30.5 10.8 63.9 27 73.4 31.7 3.1 1.5 6.8 3.4 7.4 3.8 1.1.7 1.6 2.1 1.2 3.4-.1.4-13.5 43.3-16.8 55.4-.1.3-.2.6-.3 1-.7 2.6-1.4 5.1-2.2 7.7l-1.5 5.1-.6 2.1c-.2.5-.3 1.1-.5 1.7l-.6 1.9c-.6 1.8-1.1 3.6-1.6 5.3-.2.6-.4 1.2-.5 1.8l-.2.6c-.1.4-.2.8-.3 1.1-.4 1.2-.7 2.3-1.1 3.5-7.6 24.7-14.1 43.5-15.3 47-.4 1.2-1.6 2.1-2.9 2.1h-.7c-1.1-.2-4.2-.2-8.6-.2zm-97.5-43.1c.2.5.6 1.3.8 1.9 1.5 3.5 1.5 3.5 1.5 4.2 0 .2 0 .4-.1.7-.9 4.3-.1 7.9 2.7 11.3 13.6 16.5 68.5 19.8 99.8 19 2.1-6.1 8-23.2 14.6-44.9.3-1.1.7-2.3 1-3.4.1-.3.2-.8.4-1.2l.2-.5c.2-.6.4-1.2.5-1.8.5-1.7 1-3.5 1.6-5.3l.6-1.9c.2-.6.3-1.1.5-1.7l.6-2.1 1.5-5.1c.7-2.5 1.5-5.1 2.2-7.7v-.1c.1-.3.1-.5.2-.8 2.9-10.6 13.3-44 16.1-53.3-1.1-.6-2.6-1.3-4.7-2.4-9.4-4.7-42.6-20.7-72.8-31.4-35.6-12.6-46.2-10.4-49.3-8-.8.6-1.8 1.7-1.6 4.5.1 1.3.1 2.6.1 3.8v3.8c-.2 6.8-.9 16.7-2 28-1 10.1-2.2 20.5-3.6 30.9l-.4 2.7c-.4 3.2-.9 6.3-1.3 9.5-.6 4-1.1 7.5-1.6 10.8-1 6.4-2.1 12.6-3.2 18.6-.5 2.5-.9 5-1.4 7.4 0 .1-.1.3-.1.5l-.1.3c-.8 5.1-1.7 9.5-2.7 13.7z" fill="#232323"/><path d="m626.8 1532.5-2.4 8.4c-.3.9-.5 1.8-.8 2.8-.4 1.2-.7 2.4-1.1 3.7l-.9 3c-.1.2-.1.4-.2.6-.5 1.8-1.1 3.6-1.6 5.3-.2.8-.5 1.5-.7 2.3l-.3 1.2c-.3 1.1-.7 2.3-1 3.4-8.1 26.4-15 46.1-15.3 47s-.1 0-.2 0h-.5c-9.6.3-115 2.3-106.9-33.9 0-.2-2.5-5.7-2.5-5.8 1-4.6 2-9.4 3-14.4 0-.3.1-.6.2-.9.5-2.4.9-4.9 1.4-7.4 1.1-6.1 2.2-12.3 3.1-18.5l70.9 1.8z" fill="#d9c6f4"/><path d="M621.7 1550.3c-.1.2-.1.4-.2.6-.5 1.8-1.1 3.6-1.6 5.3-.2.8-.5 1.5-.7 2.3l-123.8-2.5c0-.3.1-.6.2-.9.5-2.4.9-4.9 1.4-7.4l27.5.6z" fill="#fff"/><path d="M593 1613.2c-9.3 0-24.2-.3-39.7-1.9-30.1-3.1-49.4-9.6-57.5-19.4-3.7-4.5-5.1-9.7-4.1-15.4-.3-.6-.6-1.4-.9-2-1.5-3.3-1.5-3.3-1.5-4 0-.2 0-.4.1-.7 1-4.4 2-9.1 3-14.3l.1-.8c.5-2.5.9-4.9 1.4-7.4 1.1-5.9 2.1-12.1 3.1-18.5.5-3.2 1-6.7 1.6-10.7.5-3.2.9-6.3 1.3-9.5l.4-2.7c1.4-10.3 2.6-20.7 3.6-30.7 1.1-11.1 1.8-20.9 2-27.6v-3.4c0-1.2 0-2.3-.1-3.4-.4-5.2 1.9-8.2 3.9-9.7 7.4-5.7 25.4-3.4 55 7.1 30.5 10.8 63.9 27 73.4 31.7 3.1 1.5 6.8 3.4 7.4 3.8 1.1.7 1.6 2.1 1.2 3.4-.1.4-13.5 43.3-16.8 55.4-.1.3-.2.6-.3 1-.7 2.6-1.4 5.1-2.2 7.7l-1.5 5.1-.6 2.1c-.2.5-.3 1.1-.5 1.7l-.6 1.9c-.6 1.8-1.1 3.6-1.6 5.3-.2.6-.4 1.2-.5 1.8l-.2.6c-.1.4-.2.8-.3 1.1-.4 1.2-.7 2.3-1.1 3.5-7.6 24.7-14.1 43.5-15.3 47-.4 1.2-1.6 2.1-2.9 2.1h-.7c-1.1-.2-4.2-.2-8.6-.2zm-97.5-43.1c.2.5.6 1.3.8 1.9 1.5 3.5 1.5 3.5 1.5 4.2 0 .2 0 .4-.1.7-.9 4.3-.1 7.9 2.7 11.3 13.6 16.5 68.5 19.8 99.8 19 2.1-6.1 8-23.2 14.6-44.9.3-1.1.7-2.3 1-3.4.1-.3.2-.8.4-1.2l.2-.5c.2-.6.4-1.2.5-1.8.5-1.7 1-3.5 1.6-5.3l.6-1.9c.2-.6.3-1.1.5-1.7l.6-2.1 1.5-5.1c.7-2.5 1.5-5.1 2.2-7.7v-.1c.1-.3.1-.5.2-.8 2.9-10.6 13.3-44 16.1-53.3-1.1-.6-2.6-1.3-4.7-2.4-9.4-4.7-42.6-20.7-72.8-31.4-35.6-12.6-46.2-10.4-49.3-8-.8.6-1.8 1.7-1.6 4.5.1 1.3.1 2.6.1 3.8v3.8c-.2 6.8-.9 16.7-2 28-1 10.1-2.2 20.5-3.6 30.9l-.4 2.7c-.4 3.2-.9 6.3-1.3 9.5-.6 4-1.1 7.5-1.6 10.8-1 6.4-2.1 12.6-3.2 18.6-.5 2.5-.9 5-1.4 7.4 0 .1-.1.3-.1.5l-.1.3c-.8 5.1-1.7 9.5-2.7 13.7z" fill="#232323"/><path d="M340.9 632c-25.5 264.7 308.5 320.7 91.5 753.7-17.3 34.5-60.8 79.4-75 135 10.5-27.4 70.3-57.8 151.7-36.6 65 17 101.3 21.6 131.3 13.6 0 0 45.9-103.1 66.8-275 26.4-216.2-50-425.5-60.1-519-7.4-68.4-239-132.3-306.2-71.7z" fill="#00676c"/><path d="M486.9 1570.2s-25.7 104.7-36.3 161.4c0 0 188.5 4.7 251.1-.3 34-2.7 50.3-15.3 58.1-24.5v-.1c0-.1 0-.1-.1-.2-1.8-4.3-20.6-46.9-82.1-78.2-9.6-4.9-40.4-18.5-75.9-22.9-24.3-3-45-2-60.6-7.3-19.7-6.6-34.2-27.9-54.2-27.9z" fill="#fff"/><path d="M605 1736.6c-72.9 0-153.1-2-154.4-2-.9 0-1.7-.4-2.3-1.1s-.8-1.6-.6-2.4c10.5-56.2 36-160.5 36.3-161.6.3-1.3 1.5-2.3 2.9-2.3 12.5 0 23 7.6 33 15 7 5.1 14.3 10.5 22.2 13.1 9.6 3.2 21.3 4 34.9 5 7.9.5 16.2 1.1 25 2.2 40.2 5 73.2 21.3 76.9 23.2 61.7 31.4 81.2 74.3 83.5 79.6v.1c.1.1.1.2.1.3v.1c.4 1 .2 2.2-.5 3-15.7 18.4-41.4 24-60.1 25.5-21.5 1.8-58.2 2.3-96.9 2.3zm-150.7-7.9c26.2.6 190.2 4.2 247.2-.3 30.4-2.4 46.5-13 54.8-22.1-3.9-8.6-23.8-46.6-80.1-75.3-3.5-1.8-35.8-17.7-74.9-22.6-8.7-1.1-16.8-1.6-24.7-2.2-14-1-26.1-1.8-36.5-5.3-8.8-3-16.4-8.6-23.8-14-9-6.6-17.5-12.8-27.1-13.7-3.8 15.7-25.1 103.7-34.9 155.5zm306.1-22.1-.6.2z" fill="#232323"/><path d="M486.4 1569.7c8 1.9 19.6 4.2 27 11 36 33 67.8 15.3 110.4 27.2 44.8 12 88 34.3 117.9 70.4 4.1 5 8.5 11.1 11.4 15.8-54.2 37.9-117.4 17.1-148.5 3.9-26.8-11.4-35 3-56.9-4.2-18.3-6-21.8-20.6-45.2-23.5-21.8-2.7-40.2 11.5-40.2 11.5s10.1-61.1 24.1-112.1z" fill="#232323"/><path d="M499.3 1721.3h-.6c-15.6-.2-27.7-8.1-27.5-17.9.1-5 3.2-9.5 8.9-12.7 5.2-2.9 12-4.5 19.1-4.4 15.6.2 27.7 8.1 27.5 17.9h-3 3c-.1 5-3.2 9.5-8.9 12.7-5.1 2.8-11.6 4.4-18.5 4.4zm-.8-29c-5.9 0-11.4 1.3-15.5 3.6-2.2 1.2-5.8 3.9-5.9 7.6-.1 5.6 8.6 11.6 21.6 11.8 6.1.1 11.8-1.2 16.1-3.6 2.2-1.2 5.8-3.9 5.9-7.6.1-5.6-8.6-11.6-21.6-11.8h-.6z" fill="#232323"/><path d="M482.9 1651.7c-2.9 0-4.6-.2-4.8-.3-1.1-.2-1.8-1.2-1.7-2.3.2-1.1 1.2-1.8 2.3-1.7.2 0 18.2 2.5 36.5-10.1 4-2.8 7.3-5.2 10.3-7.4 11.2-8.4 17.4-13.1 39.8-15.6 1.1-.1 2.1.7 2.2 1.8s-.7 2.1-1.8 2.2c-21.3 2.4-26.8 6.6-37.9 14.8-3 2.2-6.3 4.7-10.4 7.5-14 9.6-27.6 11.1-34.5 11.1z" fill="#fff"/><path d="M594.8 1662.1c-1.2 0-2.4-.3-3.5-.9-3.7-1.9-5.1-6.5-3.1-10.1.8-1.4 18.8-34.9 56.8-44.1 4-1 8.1 1.5 9 5.5 1 4-1.5 8.1-5.5 9-31.2 7.5-46.9 36.2-47 36.5-1.4 2.6-4 4.1-6.7 4.1zm27.5 10.9c-1.2 0-2.4-.3-3.5-.9-3.7-1.9-5.1-6.4-3.1-10.1.7-1.4 18.2-33.9 58.7-42.8 4-.9 8 1.7 8.9 5.7s-1.7 8-5.7 8.9c-33.4 7.3-48.5 34.8-48.6 35.1-1.4 2.7-4 4.1-6.7 4.1zm31.7 9c-1.2 0-2.5-.3-3.6-1-3.6-2-4.9-6.6-2.9-10.2.7-1.2 16.7-29.4 53.6-37 4.1-.8 8 1.8 8.9 5.8.8 4.1-1.8 8-5.8 8.9-30 6.2-43 28.7-43.6 29.6-1.4 2.5-3.9 3.9-6.6 3.9z" fill="#d9c6f4"/><path d="M128.1 1281.2c90.8-30.6 270.7 164 210 182.9-143 5-261-143-210-182.9z" fill="#232323"/><path d="M331.2 1467.3c-45.7 0-93.4-15.5-135-44-37.8-25.9-67.1-59.9-78.5-91-8.5-23.4-5.5-42.4 8.5-53.3.3-.2.6-.4.9-.5 20.3-6.9 45.6-3.5 75.3 10 25.2 11.5 52.2 29.7 78 52.8 21.9 19.6 41.3 41.3 54.6 61.1 9.9 14.8 21.1 35.6 17.9 50.3-1.5 7.1-6.3 12.1-13.8 14.4-.3.1-.5.1-.8.1-2.4 0-4.8.1-7.1.1zm-201.7-183.4c-15.4 12.5-10.5 34.3-6.1 46.2 10.8 29.5 40 63.3 76.2 88.1 40.6 27.8 87.1 43 131.6 43 2.1 0 4.2 0 6.4-.1 5.2-1.7 8.3-5 9.4-9.9 4.4-20.4-25.9-65.8-70.6-105.7-43.6-38.8-104.9-75.3-146.9-61.6z" fill="#232323"/><path d="M314.9 1488s-40.9 25.7-51.4 32.1c-.3.2-.5.3-.8.5-7.6 4.7-15.2 9.1-22.3 13.2-2.4 1.4-4.7 2.7-6.9 4-21.7 12.4-38.2 21-38.9 21.4s-.1 0-.1-.1l-.2-.2c-.1 0-.1-.1-.1-.1-7-6.2-82.4-74-52.9-94.2.1-.1 2-5.6 2.1-5.7.6-.4 1.3-.9 2-1.3 6.5-4.5 13.2-9.3 19.9-14.4 2.1-1.6 4.2-3.2 6.4-4.8l4.2-3.3c2.8-2.2 5.5-4.3 8.2-6.5.1 0 .1-.1.1-.1.1-.1.2-.1.3-.2 2.3-1.8 4.6-3.7 6.8-5.5.7-.6 1.4-1.1 2.1-1.7 8.2-6.8 16-13.3 22.8-19.3 8.3-7.3 15.2-13.7 19.7-18.3.1-.1.2-.3.4-.4 1.5-1.5 12.5-13.3 13.9-15 20.3-26.1 64.3 118 64.7 119.9z" fill="#fff"/><path d="M194.6 1562.2c-.7 0-1.3-.2-1.9-.6 0 0-.1-.1-.3-.2l-.2-.2-.1-.1c-10.5-9.3-62.5-56.8-60.8-84.8.4-5.7 2.8-10.3 7.3-13.6.2-.6.5-1.4.7-2 1.2-3.4 1.2-3.4 1.7-3.9l.4-.4c.6-.4 1.3-.9 1.9-1.3 6.2-4.3 12.9-9.1 19.9-14.4l6.3-4.8 4.2-3.3c2.7-2.1 5.5-4.3 8.2-6.5l.1-.1.2-.2c2.3-1.9 4.6-3.7 6.8-5.5.4-.3.8-.6 1.2-1l.9-.7c7.8-6.4 15.5-12.9 22.7-19.2 8-7 15-13.5 19.6-18.1l.1-.1.3-.3c1.5-1.5 12.4-13.2 13.7-14.7 3.5-4.4 7.3-4.6 10-4 3.8.9 15.4 3.5 39.3 64.6 11.7 30 20.8 59.7 21 60.7.3 1.2-.3 2.5-1.3 3.2-.4.3-41 25.8-51.4 32.1-.3.2-.5.3-.8.5-7 4.3-14.6 8.8-22.4 13.3-2.3 1.3-4.6 2.7-6.8 3.9l-.1.1c-22.2 12.6-38.8 21.4-39 21.4-.4.1-.9.2-1.4.2zm-48.9-101.4c-.2.5-.4 1.2-.6 1.8-1.2 3.5-1.2 3.5-1.8 4.1l-.4.4c-3.4 2.4-5.2 5.5-5.5 9.6-1.3 20.6 35.1 58.9 57.6 79 4.8-2.6 19.1-10.2 37-20.4l.1-.1c2.2-1.3 4.5-2.6 6.8-3.9 7.7-4.5 15.2-8.9 22.3-13.2.3-.2.5-.3.8-.5 9.1-5.5 41.2-25.7 49.4-30.9-2.2-7.4-10.3-32.9-20.4-58.5-20.4-52-31.2-59.4-34.8-60.2-1-.2-2.3-.2-3.9 1.9-1.5 1.9-12.6 13.8-14.1 15.2l-.1.1-.3.3c-4.7 4.7-11.7 11.3-19.9 18.4-7.3 6.4-15 12.9-22.9 19.4l-.9.7c-.4.3-.8.7-1.2 1-2.2 1.8-4.5 3.6-6.7 5.5l-.3.3-.1.1c-2.7 2.2-5.5 4.4-8.2 6.5-1.4 1.1-2.8 2.2-4.3 3.3-2.1 1.6-4.2 3.3-6.4 4.9-7 5.3-13.8 10.2-20 14.5-.4.2-.8.4-1.2.7z" fill="#232323"/><path d="M262.8 1520.6c-7.6 4.7-15.2 9.1-22.3 13.2-2.4 1.4-4.7 2.7-6.9 4-21.7 12.4-38.2 21-38.9 21.4s-.1 0-.1-.1l-.2-.2c-.1 0-.1-.1-.1-.1-7-6.2-82.4-74-52.9-94.2.1-.1 2-5.6 2.1-5.7.6-.4 1.3-.9 2-1.3 5-3.5 12.3-8.9 19.8-14.6 2.1-1.6 4.2-3.2 6.4-4.8 4.5-3.4 8.9-6.8 12.7-9.7.1-.1.2-.1.3-.2 2.5-1.9 4.8-3.7 6.6-5.1z" fill="#d9c6f4"/><path d="M240.4 1533.9c-2.4 1.4-4.7 2.7-6.9 4l-68.4-94.8-.1-.2c2.1-1.6 4.2-3.2 6.4-4.8l.1.2z" fill="#fff"/><path d="M194.6 1562.2c-.7 0-1.3-.2-1.9-.6 0 0-.1-.1-.3-.2l-.2-.2-.1-.1c-10.5-9.3-62.5-56.8-60.8-84.8.4-5.7 2.8-10.3 7.3-13.6.2-.6.5-1.4.7-2 1.2-3.4 1.2-3.4 1.7-3.9l.4-.4c.6-.4 1.3-.9 1.9-1.3 6.2-4.3 12.9-9.1 19.9-14.4l6.3-4.8 4.2-3.3c2.7-2.1 5.5-4.3 8.2-6.5l.1-.1.2-.2c2.3-1.9 4.6-3.7 6.8-5.5.4-.3.8-.6 1.2-1l.9-.7c7.8-6.4 15.5-12.9 22.7-19.2 8-7 15-13.5 19.6-18.1l.1-.1.3-.3c1.5-1.5 12.4-13.2 13.7-14.7 3.5-4.4 7.3-4.6 10-4 3.8.9 15.4 3.5 39.3 64.6 11.7 30 20.8 59.7 21 60.7.3 1.2-.3 2.5-1.3 3.2-.4.3-41 25.8-51.4 32.1-.3.2-.5.3-.8.5-7 4.3-14.6 8.8-22.4 13.3-2.3 1.3-4.6 2.7-6.8 3.9l-.1.1c-22.2 12.6-38.8 21.4-39 21.4-.4.1-.9.2-1.4.2zm-48.9-101.4c-.2.5-.4 1.2-.6 1.8-1.2 3.5-1.2 3.5-1.8 4.1l-.4.4c-3.4 2.4-5.2 5.5-5.5 9.6-1.3 20.6 35.1 58.9 57.6 79 4.8-2.6 19.1-10.2 37-20.4l.1-.1c2.2-1.3 4.5-2.6 6.8-3.9 7.7-4.5 15.2-8.9 22.3-13.2.3-.2.5-.3.8-.5 9.1-5.5 41.2-25.7 49.4-30.9-2.2-7.4-10.3-32.9-20.4-58.5-20.4-52-31.2-59.4-34.8-60.2-1-.2-2.3-.2-3.9 1.9-1.5 1.9-12.6 13.8-14.1 15.2l-.1.1-.3.3c-4.7 4.7-11.7 11.3-19.9 18.4-7.3 6.4-15 12.9-22.9 19.4l-.9.7c-.4.3-.8.7-1.2 1-2.2 1.8-4.5 3.6-6.7 5.5l-.3.3-.1.1c-2.7 2.2-5.5 4.4-8.2 6.5-1.4 1.1-2.8 2.2-4.3 3.3-2.1 1.6-4.2 3.3-6.4 4.9-7 5.3-13.8 10.2-20 14.5-.4.2-.8.4-1.2.7z" fill="#232323"/><path d="M340.9 632c-126 214 78 382-12.3 526.4-31.1 49.7-110.4 93.9-202.2 120.3 6.9-2.6 49.7-14.6 94.7 53.4 30.8 46.5 23.4 81.1 90.3 161.6 123-76 139.4-105.2 139.4-105.2 228.6-237.8 85.6-555.8 92-761.4-72.9-23.8-163.8-29.4-201.9 4.9z" fill="#00676c"/><path clip-path="url(#a)" d="M271.6 1208.9c-1.2 0-2.4-.8-2.8-2-.5-1.6.3-3.3 1.9-3.8.2-.1 16-5.7 37.1-26.7 19.5-19.4 47.6-56.2 70.8-121.3.6-1.6 2.3-2.4 3.8-1.8 1.6.6 2.4 2.3 1.8 3.8-13 36.7-36.2 88-72.6 123.9-22 21.7-38.3 27.5-39 27.7-.3.1-.6.2-1 .2z" fill="#fff"/><path clip-path="url(#b)" d="M381.4 1457.7c-.9 0-1.7-.4-2.3-1.1-1.1-1.3-.9-3.2.4-4.2 104-86.6 166.2-181.1 190-288.8 20.4-92.1 9-178.9-.2-248.7-4.3-32.3-8.3-62.8-8.5-88.9 0-1.7 1.3-3 3-3 1.6 0 3 1.3 3 3 .2 25.7 4.2 56 8.4 88.1 9.2 70.2 20.8 157.6.1 250.8-24.2 109-87 204.6-192.1 292.1-.4.5-1.1.7-1.8.7z" fill="#fff"/><path d="M139.5 1449.2S49.4 1508.3 3 1542.6c0 0 134.8 131.9 183.9 170.9 26.7 21.2 47.2 23 59.2 21.7v-.1c0-.1.1-.1.1-.2 1.6-4.4 16.9-48.4-6.8-113.2-3.7-10.1-16.9-41-40-68.5-15.7-18.8-31.6-32.1-39.4-46.6-9.7-18.3-5.8-43.7-20.5-57.4z" fill="#fff"/><path d="M240 1738.6c-21.6 0-41.5-12-55-22.7C136.3 1677.2 2.2 1546.1.9 1544.8c-.6-.6-1-1.5-.9-2.4s.5-1.7 1.2-2.2c45.9-34 135.8-92.9 136.7-93.5 1.2-.8 2.7-.6 3.7.3 9.2 8.6 11.6 21.2 13.9 33.5 1.6 8.5 3.3 17.4 7.3 24.7 4.8 8.9 12.9 17.5 22.2 27.4 5.4 5.8 11.1 11.8 16.8 18.7 26 31 39.1 65.5 40.5 69.4 23.7 64.9 8.9 109.5 6.8 115.1 0 .1-.1.2-.1.2 0 .1-.1.2-.1.3s0 .1-.1.1c-.4 1-1.4 1.7-2.4 1.9-2.1.2-4.3.3-6.4.3zm6.1-3.4.5.2zM7.6 1543c18.8 18.3 136.4 132.7 181.2 168.2 23.9 18.9 42.9 22.1 55.2 21.2 3-9 14.4-50.4-7.3-109.7-1.4-3.7-14.1-37.4-39.4-67.6-5.6-6.7-11.2-12.7-16.6-18.4-9.6-10.3-17.9-19.1-23.1-28.7-4.4-8.1-6.2-17.4-7.9-26.4-2.1-10.9-4.1-21.3-10.5-28.5-13.5 8.8-89 58.7-131.6 89.9z" fill="#232323"/><path d="M139.5 1448.5c4.5 6.8 11.5 16.5 12.3 26.4 3.9 48.7 39.2 57.4 62.2 95.2 24.6 39.3 41 85.1 38.3 131.8-.4 6.5-1.3 13.9-2.4 19.4-65.5-9.2-97.6-67.5-111.3-98.4-11.8-26.6-27.7-21.7-38.8-41.8-9.3-16.8-1.9-30-17-48-14.1-16.9-37.2-19-37.2-19s48.9-37.8 93.9-65.6z" fill="#232323"/><path d="M67.3 1578.2c-6.8 0-15.1-3.7-22.1-10.4-5.2-4.9-8.9-10.8-10.5-16.5-1.8-6.3-.9-11.7 2.6-15.3 3.4-3.6 8.8-4.8 15.2-3.2 5.8 1.4 11.8 4.9 17 9.8s8.9 10.8 10.5 16.5c1.8 6.3.9 11.7-2.6 15.3-2.6 2.6-6.1 3.8-10.1 3.8zM47.2 1538c-2 0-4.1.5-5.6 2-2.6 2.7-1.8 7.1-1.1 9.5 1.3 4.7 4.5 9.6 8.9 13.8 9.4 9 19.9 10.8 23.7 6.7 2.6-2.7 1.8-7.1 1.1-9.5-1.3-4.7-4.5-9.6-8.9-13.8s-9.5-7.2-14.2-8.3c-1.1-.1-2.5-.4-3.9-.4z" fill="#232323"/><path d="M165.6 1538.5c-.4 0-.8-.1-1.2-.4-17.2-12.7-24.1-13.5-37.8-14.9-3.7-.4-7.8-.8-12.7-1.6-23.6-3.6-35.6-18.3-36.1-19-.7-.9-.5-2.1.3-2.8.9-.7 2.1-.5 2.8.3.1.2 11.6 14.2 33.6 17.5 4.8.7 8.9 1.2 12.6 1.6 14 1.5 21.7 2.3 39.8 15.7.9.7 1.1 1.9.4 2.8-.5.5-1.1.8-1.7.8z" fill="#fff"/><path d="M226.4 1597.9c-1.2 0-2.5-.3-3.7-1-28.2-15.9-59-5.4-59.3-5.3-3.9 1.4-8.2-.7-9.6-4.6s.7-8.2 4.6-9.6c1.5-.5 37.6-12.8 71.6 6.4 3.6 2 4.9 6.6 2.8 10.2-1.2 2.5-3.7 3.9-6.4 3.9zm13 28.9c-1.3 0-2.6-.3-3.8-1-29.4-17.4-59.2-7.5-59.5-7.4-3.9 1.3-8.2-.7-9.5-4.6-1.4-3.9.7-8.2 4.6-9.5 1.5-.5 36.5-12.4 72.1 8.7 3.6 2.1 4.7 6.7 2.6 10.3-1.4 2.2-3.9 3.5-6.5 3.5zm9.7 28.9c-1.3 0-2.7-.4-3.9-1.1-26.1-15.9-51-8.3-52.1-8-3.9 1.2-8.2-.9-9.4-4.9-1.3-3.9.9-8.1 4.8-9.4 1.3-.4 32.3-10.2 64.5 9.5 3.5 2.2 4.7 6.8 2.5 10.3a7.54 7.54 0 0 1-6.4 3.6z" fill="#d9c6f4"/><path d="M652.5 737.8c-38.1 23.9-229.1 56.9-341.1-40.1 4.4-12.8 6.3-21.2 13-33 57.7 30.3 172.9 44.4 234.2 43h.5c24.4-.5 48.7-2.8 72.7-7 .7-.1 1.4-.3 2.2-.4 4.8-.9 9.4-1.9 13.7-2.9 0 0 .6 14.3 4.8 40.4z" fill="#232323"/><path d="M637.6 740.2c-20.2 7.5-48.2 15.5-73.2 17.5l-5.4-50c24.4-.5 48.7-2.8 72.7-7 .7-.1 1.4-.3 2.2-.4z" fill="#fff"/><path d="m628.7 707.3 3.4 29.8c-19 6.6-42.4 11.8-62.3 14l-4-37.6c21-.6 42.1-2.7 62.9-6.2m5.3-7c-.7.1-1.4.3-2.2.4-24 4.2-48.3 6.5-72.7 7l5.4 50c25-2 54-9 74.2-16.5z" fill="#232323"/><path d="M862.6 800.8c18.6 5 47.3 8.7 69.9 9.3 36.4.9 60.6-7.5 75.7-15.1 8.5-4.3 21-9.8 26.2-14.1 6-5-6.5-10.4-24.6-4.3 9.3-29.8 1.2-50.7-19.6-4.7 8.6-40.5-.7-46.8-22.4-6.5 8.4-34.5-7.3-27.4-28 9.3 4.5-8 8.5-13 8.3-15.4-23.5-9.7-49.5-25.7-88.5-56.4-22.4 15.8-96.9 34.5-116.5 55 .1 4.7 53.3 25.2 119.5 42.9z" fill="#fff"/><path d="M938 813.2c-1.8 0-3.7 0-5.6-.1-23.1-.6-52.1-4.5-70.6-9.4-30.5-8.2-60.6-17.5-84.7-26.4-36.8-13.5-36.8-17-36.8-19.4 0-.8.3-1.5.8-2.1 11.7-12.2 40.6-23.2 68.6-33.9 20.1-7.7 39.1-14.9 48.4-21.5 1.1-.8 2.5-.7 3.6.1 36.5 28.7 62.5 45.3 86.4 55.4 10.6-14.9 17-17.1 20.7-15.6 3 1.2 4.5 4.4 4.5 10 9.9-15.3 15.1-16 18.2-14.8 2.9 1.1 6 4.3 4.8 18.4 1.4-2.2 2.7-4.1 3.9-5.7 4.1-5.2 7.9-7.1 11.3-5.8 6.6 2.5 6.2 16.4 2.7 29.8 11.3-2.6 21.3-1.3 24.1 3.6 1.1 1.9 1.1 4.9-1.9 7.4-4.2 3.5-12.3 7.4-20.1 11.2-2.3 1.1-4.6 2.2-6.6 3.3-20.5 10.3-44.6 15.5-71.7 15.5zm-190.5-55.1c9.2 6 54.2 23.4 115.9 39.9 18.1 4.8 46.6 8.6 69.2 9.2 28.5.7 53.5-4.3 74.3-14.8 2.1-1 4.4-2.2 6.7-3.3 7.1-3.5 15.2-7.4 18.9-10.4.1-.1.2-.1.2-.2-1.8-1.2-9.4-3.2-21.9 1-1.1.4-2.2.1-3.1-.7-.8-.8-1.1-2-.8-3 5.2-16.7 3.8-26.4 2.4-27.7-.6.1-5.9 2-16.3 25.1-.6 1.4-2.2 2.1-3.7 1.6s-2.3-2-2-3.5c4.6-21.6 3.1-28.9 2-30.1-.8.2-6.2 2.2-18.8 25.6-.7 1.3-2.3 1.9-3.7 1.4s-2.2-2-1.8-3.5c3.6-14.8 1.8-18.2 1.5-18.7-1.3 0-7.1 3.4-17.2 19-.7 1.2-1.5 2.5-2.4 4-1.2 1.9-2.5 4.1-3.9 6.5-.1.2-.2.4-.4.7-.8 1.4-2.6 2-4.1 1.1-1.4-.8-2-2.6-1.1-4.1.1-.2.3-.4.4-.7 2.4-4.2 4.6-7.8 6.6-11 .1-.2.2-.3.3-.5-23.8-10.2-49.5-26.6-85-54.4-10.3 6.6-28.6 13.6-47.8 20.9-24.7 9.5-52.3 20-64.4 30.6z" fill="#232323"/><path d="M982.4 794.7c-.4 0-.8-.1-1.2-.3-1.5-.7-2.2-2.5-1.5-4 7.3-16.1 9.8-26.3 9.8-26.4.4-1.6 2-2.6 3.6-2.2s2.6 2 2.2 3.6c-.1.4-2.6 10.9-10.2 27.6-.5 1.1-1.5 1.7-2.7 1.7zm-26.6.7c-.6 0-1.1-.2-1.6-.5-1.4-.9-1.8-2.7-.9-4.1 10.2-16 13.2-32.5 13.2-32.6.3-1.6 1.8-2.7 3.5-2.4 1.6.3 2.7 1.8 2.4 3.5-.1.7-3.2 17.8-14.1 34.8-.6.9-1.5 1.3-2.5 1.3zm48.6-4.7c-.5 0-1-.1-1.5-.4-1.4-.8-1.9-2.7-1.1-4.1 6.5-11.2 7.6-19.7 7.6-19.8.2-1.6 1.7-2.8 3.3-2.6s2.8 1.7 2.6 3.3c0 .4-1.2 9.8-8.4 22.2-.4.9-1.4 1.4-2.5 1.4zm-81-1c-1.2 0-2.4-.8-2.8-2-.6-1.6.3-3.3 1.8-3.8 12.5-4.5 17.2-14.3 17.3-14.4.7-1.5 2.5-2.2 4-1.5s2.2 2.5 1.5 4c-.2.5-5.7 12.2-20.7 17.6-.4.1-.7.1-1.1.1z" fill="#232323"/><path d="M517.4 331.7c-24.4 54.4-27 265 114.5 364.3 26.1 14 68.9 53.8 157.9 82.4 32.6-15.8 78.3-40.1 104.4-50.3-55.9-41-138.7-112.3-155.7-133.3C749.9 515 728.9 277 594.9 268c0 0-47.5-3.3-77.5 63.7z" fill="#fff"/><path d="M789.9 781.5c-.3 0-.6 0-.9-.1-66.8-21.4-107.8-49.3-135-67.7-9.1-6.1-16.9-11.5-23.4-14.9-.1-.1-.2-.1-.3-.2-78.2-54.9-108.8-139.6-120.8-201-13.9-71.2-7.9-138 5.2-167.1 8.8-19.6 24.8-45.6 51.4-58.4 16.2-7.8 28.5-7 29-7 32.6 2.2 60.8 17.8 83.9 46.3 34.2 42.2 50.1 103.8 57.5 148 9.5 57.2 8.7 107.8 5.2 134.6 19 22.5 101.4 93 154.3 131.8.9.6 1.3 1.7 1.2 2.8s-.9 2-1.9 2.4c-18 7.1-45.2 20.7-71.4 34-11.7 5.9-22.7 11.4-32.7 16.3-.4.1-.9.2-1.3.2zm-156.4-88c6.7 3.6 14.6 9 23.8 15.2 26.7 18.1 67.1 45.5 132.3 66.6 9.7-4.7 20.3-10.1 31.6-15.7 24.1-12.1 48.9-24.6 67-32.1-54.1-40.2-134.8-109.5-151.9-130.6-.5-.6-.8-1.5-.6-2.3 8.3-58.6-1.3-205.4-61.2-279.3-22-27.2-48.8-42-79.7-44.1-.1 0-11.6-.6-26.3 6.6-24.8 12.1-39.9 36.8-48.2 55.3-12.4 27.6-18.2 94.3-4.7 163.5 11.5 60.1 41.5 143.2 117.9 196.9z" fill="#232323"/><path d="M745.4 764.7c-1 0-2-.5-2.6-1.5-.8-1.4-.4-3.3 1.1-4.1 67-39.4 103.3-67.5 103.7-67.8 1.3-1 3.2-.8 4.2.5s.8 3.2-.5 4.2c-.4.3-36.9 28.6-104.3 68.2-.5.4-1.1.5-1.6.5z" fill="#232323"/><circle cx="856" cy="721.6" fill="#232323" r="6.5"/><path d="M708.8 615.5c-.9 0-1.8-.4-2.4-1.1-1-1.3-.8-3.2.5-4.2.6-.5 14.3-11.3 32.7-16.4 1.6-.4 3.2.5 3.7 2.1.4 1.6-.5 3.2-2.1 3.7-17.2 4.8-30.5 15.2-30.6 15.3-.5.4-1.2.6-1.8.6zM653.4 26.9c-9.2-4.9-20.2-5.1-29.6-.5-9.4-33-52.9-28.3-59.4-3.5C534.9-.7 497.3 32 509 59.8c4.3 10.2 11.3 31.4 6.3 48.4 14.5 7 41 43.5 41 43.5s65.6-61.8 90.8-68.8c31.4-8.7 25.8-45.1 6.3-56z" fill="#232323"/><path d="M556.3 154.7h-.3c-.9-.1-1.6-.5-2.1-1.2-.3-.4-26.2-36-39.9-42.6-1.3-.6-2-2.1-1.6-3.5 1.3-4.4 4.6-20.7-6.2-46.4-5.9-14-.5-30.9 13.1-41.1 13.3-10 30-10.5 43.6-1.7C567.6 7.4 579.4.1 593 0c12-.1 26.4 5.8 32.6 22.4 9.5-3.6 20.2-2.9 29.2 1.9h.1c11.7 6.5 19 21.4 17.3 35.3-1.6 12.9-10.4 22.5-24.3 26.3-24.2 6.7-88.9 67.4-89.5 68.1-.6.4-1.4.7-2.1.7zm-37.6-48c12.8 7.9 31.7 32.3 37.9 40.5C569 135.7 623 86.4 646.2 80c11.6-3.2 18.6-10.7 19.9-21.2 1.4-11.4-4.7-24-14.2-29.3-8.3-4.4-18.4-4.6-26.9-.4-.8.4-1.7.4-2.5 0s-1.4-1.1-1.7-1.9C616.4 11.4 603.6 5.9 593.1 6c-12.5.1-23.1 7.4-25.8 17.7-.3 1-1 1.8-2 2.1s-2 .1-2.8-.5c-14.5-11.6-30-8-39.6-.7-13.3 10-15.1 24.7-11.2 34 3.6 8.6 11.2 29.8 7 48.1z" fill="#232323"/><path d="M670.2 182.7c.7 9.1-4.1 18.5-13.6 23.8-24.8 13.9-57.4 6.3-57.4 6.3s-4.1 26-4 54.4c-2.3 12.8-5.3 28.8-10.6 41.7-29.3-9.7-86.9-44.2-104.2-77.3 0 0 24.1-17.9 41.7-60-17.5-2.4-44.6-20.7-40.3-44.4 2.5-13.5 16.8-23.6 30.8-19.5 13.6 3.9 18.8 12.1 29.8 24 10.2 11.1 14.2 3.9 21-9.5 5.5-10.6 12-19.2 21.1-27.1 15.4-13 42.8-13.3 61.6-11.3 0 14.3 1.9 27.5 3.8 41.6 3.1 25 18.6 36.1 20.3 57.3z" fill="#fff"/><g fill="#232323"><path d="M630.3 88c3.5 0 7.1.1 10.8.4.2 12.7 1.1 25.4 2.8 37.9 1.7 13.6 6.9 23.5 11.5 32.3 4.3 8.2 8.1 15.3 8.8 24.6.6 7.2-3.5 14.1-10.6 18.1-8.9 5-20.5 7.6-33.6 7.6-11.1 0-19.4-1.9-19.5-1.9-.5-.1-.9-.2-1.4-.2-1.2 0-2.4.4-3.3 1-1.4.9-2.3 2.4-2.6 4-.2 1.1-4.2 26.5-4.1 54.8-2 11.2-4.4 23.8-8.1 34.6-14.6-5.7-33.4-15.9-49.6-27.2-20.1-13.9-35.2-28.3-43.3-41.1 7.9-7.2 25.7-25.9 39.5-59 .7-1.7.6-3.7-.3-5.3s-2.6-2.7-4.4-3c-9.2-1.2-22.6-8-30.2-18.4-4.5-6.1-6.1-12.5-5-18.9 1.6-9.1 10.1-16.4 18.9-16.4 1.5 0 2.9.2 4.3.6 9.7 2.8 14.3 8 21.9 16.6 1.6 1.8 3.3 3.7 5.2 5.8 3.3 3.6 7.7 7.7 13.1 7.7 7.7 0 11.4-7.2 16.4-17.1l.2-.4c5.2-10 12.1-18.8 20.6-26.2 10.7-9 28.7-10.9 42-10.9zm0-6c-16.3 0-34.6 2.7-45.9 12.2-9 7.9-16.5 17.4-22.1 28.1-4.4 8.6-7.2 14.3-11.3 14.3-2.3 0-5-1.8-8.7-5.7-11-11.9-16.1-20.1-29.8-24-2-.6-4-.8-6-.8-11.9 0-22.8 9.8-24.9 21.4-4.3 23.7 22.8 42 40.3 44.4-17.6 42-41.7 60-41.7 60 17.3 33 74.9 67.6 104.2 77.3 5.3-12.9 8.3-28.9 10.6-41.7-.1-28.3 4-54.4 4-54.4s8.8 2.1 20.8 2.1c11 0 24.7-1.7 36.5-8.4 9.5-5.3 14.3-14.8 13.6-23.8-1.7-21.2-17.2-32.3-20.4-57.1-1.9-14.1-2.8-28.4-2.8-42.6-4.7-.9-10.4-1.3-16.4-1.3z"/><path d="M581.9 107.3c-.1-23.1 31.3-26.2 32.4-15.6.2 2-.9 3.9-2.6 5-3.7 2.3-7.6 3.7-11.2 6-4.6 1.9-16 14.3-18.6 4.6zm7.3 12.4c4.1-.9 14-2.7 23.1-7.3 1.3-.6 2.8-.1 3.5 1.1 1.7 3.3 3.4 9.2-3.3 11.5-8.2 2.9-21.3.3-24.1-3.3-.4-.6-.3-1.4.2-1.9.2 0 .4-.1.6-.1zm55.9-8.1c-4.1.5-7.2.2-14.8-.7-1.4-.2-2.7.8-2.9 2.2-.5 3.7 1.3 7.4 7.2 8.1 6.6.7 10.7-4.1 11.9-7.8.2-.7-.2-1.5-.9-1.7-.2-.1-.4-.1-.5-.1z"/><g clip-path="url(#c)"><path d="M660.4 96.3c-5.3-20-33.4-15.5-31.9-6 .3 1.8 1.7 3.3 3.4 3.8 3.7 1.1 7.5 1.4 11.1 2.6 4.5.5 17.4 8.6 17.4-.4zm-60.2 113.6s-21.1-6.5-32-17.7c-4.3 2.6-5.2 32 28.9 42.1 26.2 7.8 3.1-24.4 3.1-24.4z"/><path d="M603.9 238.5c-3.1 0-6.2-.9-7.6-1.4-10.6-3.2-18.9-8.4-24.7-15.4-4.5-5.5-7.4-12.1-8.2-18.7-.6-4.9-.1-11.4 3.4-13.5 1.2-.7 2.7-.5 3.7.5 10.3 10.5 30.5 16.8 30.8 16.9.6.2 1.2.6 1.6 1.1 3.3 4.6 13.6 20.1 8.5 27.3-1.9 2.5-4.7 3.2-7.5 3.2zm-34.7-41.3c-.3 2.3-.2 5.8 1.1 9.9 2 6.6 8.3 18.5 27.7 24.3 5.6 1.7 7.9 1.1 8.3.5 1.7-2.4-2.8-12-8-19.5-3.9-1.3-18.8-6.6-29.1-15.2z"/></g><path d="M637.5 161.7c-1 1.2-2.4 2.2-3.8 2.9s-3 1.1-4.5 1.4c-3.2.5-6.4 0-9.4-1.3-1.5-.7-2.8-1.6-4-2.7s-2.2-2.3-3-3.7c-1.7-2.8-2.3-6-1.7-9.2.2-1 1.1-1.6 2.1-1.4.7.2 1.3.8 1.4 1.5v.1c.4 3.4 2.1 6.5 4.8 8.6.8.7 1.8 1.3 2.8 1.8 2.1.9 4.3 1.3 6.5 1.2 2.3 0 4.5-.6 6.4-1.8l.1-.1c.8-.5 1.9-.3 2.4.5s.4 1.6-.1 2.2zm-4.6-20.1c-.8-.3-1.3-1.2-1-2 .1-.3.3-.6.6-.8 3.3-2.2 4.9-4.1 5.1-5.5.2-1.7-1.5-3.5-4.2-6.4-7.6-8-5.8-13.8-5.7-14.1.3-.8 1.2-1.3 2-1 .8.3 1.3 1.2 1 2 0 .1-1.1 4.5 5 10.9 2.9 3.1 5.4 5.7 5 8.9-.3 2.5-2.3 4.9-6.4 7.8-.5.3-1 .4-1.4.2z"/><path d="M633.3 142.7c-.3 0-.5 0-.8-.1-1.3-.4-2.1-1.9-1.6-3.3.2-.5.5-1 1-1.3 3.7-2.5 4.6-4 4.7-4.8.1-1.2-1.5-3.1-3.9-5.6-8-8.5-6-14.8-5.9-15.1.5-1.3 1.9-2.1 3.3-1.6 1.3.5 2.1 1.9 1.6 3.2s-.9 4 4.8 9.9c2.9 3.1 5.7 6 5.3 9.7-.3 2.8-2.4 5.5-6.9 8.5-.5.3-1 .5-1.6.5zm-.1-2.1c.2.1.4 0 .5-.1 3.9-2.7 5.8-4.9 6-7.1.3-2.8-2.1-5.3-4.8-8.1-6.4-6.7-5.4-11.4-5.2-11.9.1-.3-.1-.7-.4-.8s-.6.1-.7.4c0 .1-1.7 5.5 5.5 13.1 2.9 3.1 4.7 5.1 4.5 7.2-.2 1.8-1.9 3.8-5.5 6.3-.1.1-.2.2-.2.3-.2.3 0 .6.3.7zm-102.8 11.1c-1.2 0-2.3-.7-2.8-1.9-9-23.5-25.6-21.1-25.7-21.1-1.6.3-3.2-.9-3.4-2.5s.9-3.2 2.5-3.4c.2 0 21.5-3.1 32.3 24.9.6 1.5-.2 3.3-1.7 3.9-.5 0-.8.1-1.2.1zm-1.9 20.5c-4.1 0-6.5-.5-6.7-.5-1.6-.3-2.7-1.9-2.4-3.5s1.9-2.7 3.5-2.4 4.7.9 12 0c1.6-.2 3.1 1 3.3 2.6s-1 3.1-2.6 3.3c-2.6.3-5.1.5-7.1.5z"/></g><path clip-path="url(#d)" d="M606 44c-.3 0-.6 0-1-.2-1.6-.5-2.4-2.2-1.9-3.8.1-.3 9.4-27.4 35.4-26.3 1.7.1 2.9 1.5 2.9 3.1-.1 1.7-1.5 2.9-3.1 2.9-8.9-.4-16.5 3.2-22.6 10.5-4.7 5.7-6.8 11.6-6.8 11.7-.5 1.3-1.6 2.1-2.9 2.1z" fill="#fff"/><path d="M484.9 231.4c-7.8 7.3-18.6 12.7-18.6 12.7S152.4 458.7 323.4 666.7c10 22 200 115 308.5 29.3 28.5-63.3 22.5-207.3-20.5-335.3 25 1-2-77-19-93 0 0-5 22-11 35-51-13-96.5-71.3-96.5-71.3z" fill="#fff"/><path d="M517.3 734.7c-24 0-49.6-3.3-76.3-9.7-28.2-6.8-57.1-17.3-81.5-29.4-21-10.5-35.3-20.6-38.7-27.1-41-50-57.6-104.7-49.4-162.6 4.8-33.5 17.9-68.2 39.1-103.2 16.9-27.9 38.9-56.1 65.4-83.8 45.1-47.1 88.2-76.7 88.7-77 .1-.1.2-.1.3-.2s10.5-5.3 17.9-12.2c.6-.6 1.4-.9 2.3-.8.8.1 1.6.5 2.1 1.1.4.6 44 55.8 92.4 69.6 5.4-12.7 9.7-31.9 9.8-32.1.2-1 1-1.9 2-2.2s2.1-.1 2.9.7c7.2 6.8 16.1 23.7 22.7 43.1 3.4 10.1 10.8 35 5.6 47.6-1.5 3.6-4 6-7.3 7 19.8 60.1 32.6 127.2 36.1 189.2 3.4 61.7-2.6 113.1-16.8 144.8-.2.4-.5.8-.9 1.1-25.3 20-56.8 31.8-93.6 35.2-7.4.5-15 .9-22.8.9zm-49.4-488c-2.9 2-44.4 31-87.7 76.2-26.2 27.3-47.9 55.2-64.5 82.7-20.7 34.3-33.6 68.3-38.3 100.9-8 56.2 8.2 109.5 48.3 158.2.2.2.3.4.4.7 1.9 4.1 14 13.6 36.1 24.6 23.9 11.9 52.4 22.2 80.2 29 34.8 8.4 67.4 11.3 97.2 8.6 35.3-3.3 65.6-14.5 89.9-33.5 13.7-30.9 19.3-81 16-141.3-3.5-62.7-16.6-130.6-36.9-191.1-.3-.9-.1-2 .4-2.8.6-.8 1.5-1.2 2.5-1.2 2.8.1 4.5-1.1 5.7-3.8 6.4-15.3-10.4-62.4-23.2-79.8-1.9 7.5-5.6 20.7-9.8 29.9-.6 1.3-2.1 2-3.5 1.6-46-11.7-86.7-58.4-96.1-69.9-7.1 6-15.3 10.3-16.7 11z" fill="#232323"/><path d="M554.8 375.6c-14.1 0-32.9-28.8-45.8-50.5-16-26.9-31.8-58.7-42.1-80.7-.7-1.5-.1-3.3 1.4-4s3.3-.1 4 1.4c37.3 78.9 68.9 127.8 82.5 127.8h.1c10.7-.2 21.2-30.3 23.5-67 .1-1.7 1.5-2.9 3.2-2.8s2.9 1.5 2.8 3.2c-1.6 25-9.7 72.3-29.4 72.7 0-.1-.1-.1-.2-.1z" fill="#232323"/><path d="M615.1 362.7c-.5 0-1.1-.1-1.6-.2-11.4-2.8-30.2-42.6-33.8-50.5-.7-1.5 0-3.3 1.5-4s3.3 0 4 1.5c.1.1 5.7 12.5 12.6 24.6 12.8 22.7 17.3 22.6 17.4 22.6 1.5-1.2 2.6-4.1 3-8.1 1.8-18.1-10.2-56.9-28-77.9-1.1-1.3-.9-3.2.4-4.2s3.2-.9 4.2.4c19 22.4 31.4 62.7 29.4 82.4-.6 5.8-2.4 9.9-5.3 12.2-1.2.7-2.4 1.2-3.8 1.2z" fill="#232323"/><path d="M584.4 303.7c20.2 12.1 28.9 30.5 32.3 39.5 3.8 10.2-.8 19.9-.8 19.9 35 65.9 54 238.9 26 332.9l-36.7 37.8c-3.7 2.5-8.5 2.8-12.5.8 0 0-44.5-23.1-50.8-37.6 71-182 37.4-330.3 37.4-330.3-7-8.6-3.5-13.7-.3-28.8 3-14.3 5.4-34.2 5.4-34.2z" fill="#d9c6f4"/><path clip-path="url(#e)" d="M589.6 373.9c-8.4 0-14.3-1.2-14.8-1.3-1.6-.3-2.7-1.9-2.3-3.5.3-1.6 1.9-2.7 3.5-2.3.4.1 28.2 5.5 49.8-8.6 1.4-.9 3.2-.5 4.2.9.9 1.4.5 3.2-.9 4.2-13.4 8.7-28.6 10.6-39.5 10.6z" fill="#fff"/><path d="M608.5 796.5c.9 7.5-14.9 10.3-27 3.7-8.4 18.6-95.1-19.6-100.3-21.3-6.5-2.6-13.1-5.3-19.9-8.1-.4-.2-.8-.3-1.3-.5-2.7-1.1-5.5-2.3-8.3-3.4-3.2-1.3-6.5-2.7-10-4-9.4-3.6-19.5-7.2-30.1-10.7-9.8-3.3-20.1-6.5-30.7-9.8-.4-.1-.8-.3-1.2-.4-54.7-16.9-6.9-143 63.2-119.3 18 13.1 34.9 25.4 49.9 35.7 3.8 2.6 7.4 5 10.9 7.3 36.2 26.4 80.2 30.3 134.6 18.9 40.1-8.4 34.9 6.5-.9 28.9-44.7 28 33.6 55 23.3 72.7-1.7 2.9-9.3 7.5-24.2 2.8 1.9 7.5-11.2 14.9-28 7.5z" fill="#fff"/><path d="M569.1 808.3c-13.3 0-37.8-5.8-84.1-24.7-2.2-.9-4-1.6-4.6-1.8-.1 0-.2-.1-.3-.1-6.4-2.6-13.1-5.3-19.9-8.1l-1.2-.5c-2.8-1.1-5.5-2.3-8.3-3.4-3.2-1.3-6.5-2.7-9.9-4-8.7-3.3-18.5-6.8-30-10.6-8.6-2.9-18.1-5.9-30.7-9.8-.3-.1-.7-.2-1-.3l-.2-.1c-12.9-4-21.4-13.7-24.5-28.1-5.7-26.1 7.8-62.7 30.7-83.3 17.5-15.7 38.4-20.5 58.8-13.6.3.1.6.2.8.4 17.9 13 34.8 25.4 49.8 35.7 3.7 2.5 7.4 5 10.9 7.3l.1.1c33.5 24.4 75.5 30.2 132.2 18.4 18.9-4 28.8-3.1 31.2 2.7 2.8 6.9-7.3 17.5-29.9 31.6-7.8 4.9-12 10-12.5 15.2-.8 9.5 10.6 19.6 20.6 28.5 11 9.8 21.3 19 16.2 28-2 3.5-9.5 8.6-24 5.2-.6 2-1.8 3.8-3.6 5.3-4.4 3.7-13.4 6.3-25 2.3-.7 1.3-1.7 2.4-3.1 3.3-5.8 3.9-16.4 3.9-25.1.1-2.1 2.4-6 4.3-13.4 4.3zM482.2 776c.7.2 2.1.8 5 2 9.4 3.8 31.6 12.9 51.9 18.7 22.5 6.5 37.4 7.3 39.7 2.2.3-.8 1-1.3 1.8-1.6s1.7-.2 2.4.2c7.7 4.2 17.5 4.1 21.4 1.4 1.4-1 1.3-1.8 1.3-2.1-.1-1.1.3-2.1 1.2-2.8.9-.6 2-.8 3-.3 9.9 4.4 18.2 3.1 22.1-.1.8-.7 2.2-2.2 1.8-3.9-.3-1.1.1-2.2.9-2.9s1.9-1 3-.7c12.6 3.9 19.5.7 20.7-1.4 2.7-4.7-6.3-12.7-15-20.5-11.1-9.9-23.7-21.1-22.6-33.5.6-7.3 5.6-13.7 15.3-19.8 24.8-15.5 28-23.1 27.5-24.3 0 0-2.6-3.7-24.4.9-19.3 4-37 6.1-53.3 6.1-33 0-60.2-8.4-83.6-25.4-3.5-2.3-7.2-4.8-10.9-7.3-15-10.3-31.8-22.5-49.6-35.5-23.2-7.6-41.4 2.6-52.5 12.5-21.5 19.3-34.2 53.3-28.9 77.6 1.9 8.5 6.9 19.5 20.4 23.7l1.2.4c12.6 3.9 22.1 6.9 30.8 9.8 11.6 3.8 21.5 7.4 30.2 10.7 3.4 1.3 6.8 2.7 10 4 2.8 1.2 5.5 2.3 8.3 3.4l1.3.5c6.6 2.8 13.2 5.5 19.6 8z" fill="#232323"/><path d="M474.7 252.7C459.9 222 330 204.9 198.1 293.6c-180.8 121.6-186 229-151 291 64.9 114.9 267 143 357.3 165.3 28.1-28.6 53.1-75.6 69-105.3-53-41.8-173-109.8-201-121.8 132-76.1 229-206.1 202.3-270.1z" fill="#fff"/><path d="M404.4 752.9c-.2 0-.5 0-.7-.1-12.4-3.1-27.2-6.3-42.8-9.7-51.3-11.2-115-25.1-174.3-49-70.6-28.4-117-63.7-142-108-14.8-26.2-27.8-69.3-5.6-125.7 22.4-57 75.4-114 157.6-169.2 44.6-30 93.7-50.8 142.1-60.3 39.1-7.7 77.5-7.7 105.4-.2 17.4 4.7 29.3 12.1 33.5 20.8 0 0 0 .1.1.1 13.2 31.6-2.1 80.2-42 133.5-38.4 51.4-95.3 101.2-156.5 137.4 35.5 16.8 145.1 79.4 196.3 119.8 1.1.9 1.5 2.5.8 3.8l-.9 1.8c-16.2 30.2-40.7 75.9-68.5 104.2-.9.5-1.7.8-2.5.8zM395.5 231c-49.2 0-120.4 14.4-195.8 65-81.1 54.6-133.4 110.6-155.3 166.5-21.3 54.3-8.9 95.5 5.3 120.6 24.3 43.1 69.8 77.6 139.1 105.4 58.8 23.7 122.3 37.5 173.4 48.7 15 3.3 29.2 6.4 41.3 9.3 26.6-27.7 50.3-71.7 66.1-101.2-52.7-41-170.2-107.8-198.3-119.9-1-.4-1.7-1.4-1.8-2.6-.1-1.1.5-2.2 1.5-2.8 62.5-36 120.7-86.5 159.8-138.7 38.5-51.5 53.5-97.9 41.3-127.5-3.4-7-14.2-13.3-29.6-17.5-11.6-3-27.6-5.3-47-5.3zm90.2 565.8-25.5-17.6-9.9-6.9-12.6-8.7c5.7-8.2 11.2-17 16.4-26l5.4-9.6c14-25.8 25.7-45.3 32.9-70.2 15 9.8 34.5 19.9 50.4 27.1-7.7 21.8-17.8 44-28.5 64.4-1.4 2.7-2.9 5.5-4.4 8.2-4.6 8.3-9.4 16.5-14.4 24.4-1.1 1.7-2.2 3.5-3.3 5.2-.6 1-1.3 2-1.9 2.9-1.5 2.3-3 4.6-4.6 6.8z" fill="#232323"/><ellipse cx="475.7" cy="765" fill="#232323" rx="35.2" ry="50.4" transform="matrix(.3349 -.9422 .9422 .3349 -404.4773 957.0161)"/><path d="M486.6 805.2c-7.6 0-15.6-1.3-23.7-4.2-13.3-4.7-24.5-12.8-31.6-22.7-7.3-10.3-9.5-21.3-6-31.1 7.1-19.8 35.4-28 63.1-18.1 27.8 9.9 44.6 34 37.5 53.9-4.9 14-20.6 22.2-39.3 22.2zm-22-74.4c-16.1 0-29.4 6.7-33.6 18.3-2.8 7.9-1 17 5.2 25.6 6.4 9 16.6 16.3 28.7 20.6 24.6 8.8 49.5 2.3 55.5-14.4 5.9-16.7-9.3-37.5-33.9-46.2-7.4-2.7-14.9-3.9-21.9-3.9z" fill="#232323"/><g clip-path="url(#f)"><path d="M440.3 785.8c-14.1-12.1-20.9-28.3-15.9-42.4 7.3-20.4 36.6-28.7 65.4-18.5 13.8 4.9 25.5 13.3 32.9 23.7 7.5 10.6 9.7 21.9 6.2 32s-12.4 17.5-25 20.9c-12.3 3.4-26.6 2.5-40.5-2.4-8.3-3-16.2-7.5-23.1-13.3zm-11.9-41c-6.5 18.3 9.9 40.9 36.6 50.3 13 4.6 26.5 5.5 38 2.3 11.2-3.1 19.1-9.6 22.2-18.3s1.1-18.7-5.6-28.2c-6.9-9.7-17.9-17.5-30.9-22.2-26.8-9.3-53.8-2.2-60.3 16.1z" fill="#fff"/></g><ellipse cx="473.9" cy="770.2" fill="#fff" rx="30.2" ry="48.9" transform="matrix(.3349 -.9422 .9422 .3349 -410.5561 958.754)"/><path d="M487.9 806c-7.9 0-16.5-1.5-25.1-4.5-27-9.6-44-31.4-37.8-48.7 3.1-8.6 11.2-14.7 22.9-17.2 11.2-2.4 24.4-1.2 37.2 3.4 27 9.6 44 31.4 37.8 48.7-4.2 11.6-18 18.3-35 18.3zm-28.2-65.6c-3.7 0-7.3.4-10.6 1.1-9.6 2-16.1 6.8-18.5 13.4-5 14.1 10.3 32.5 34.2 41s47.4 3.9 52.4-10.2-10.3-32.5-34.2-41c-7.9-2.9-15.8-4.3-23.3-4.3z" fill="#232323"/><path d="M471.3 774.9c-.7-.6-.9-1.5-.6-2.3l6.9-17.4c.4-1.1 1.7-1.6 2.7-1.1 1 .4 1.5 1.6 1.1 2.7l-6.1 15.4 25.4 9.5c1.1.4 1.6 1.6 1.2 2.7s-1.6 1.6-2.7 1.2l-27.4-10.2c-.1-.2-.3-.3-.5-.5z" fill="#232323"/><path d="M500 788.6c-.6 0-1.2-.1-1.8-.3l-27.4-10.2c-.6-.2-1.1-.5-1.5-.9-1.6-1.4-2.2-3.7-1.4-5.7l6.9-17.4c.5-1.3 1.5-2.3 2.8-2.8s2.6-.5 3.9 0c2.5 1.1 3.8 3.9 2.8 6.5l-5 12.6 22.5 8.4c1.3.5 2.3 1.4 2.8 2.6s.6 2.6.1 3.9c-.7 2.1-2.7 3.3-4.7 3.3z" fill="#232323"/><circle cx="438" cy="664.1" fill="#232323" r="6.5"/><path d="M336.4 736.7c-.7 0-1.5-.3-2-.8-1.2-1.1-1.3-3-.2-4.2 51.2-55.2 92.3-117 92.7-117.6.9-1.4 2.8-1.8 4.2-.8s1.8 2.8.8 4.2c-.4.6-41.7 62.8-93.3 118.4-.6.5-1.4.8-2.2.8zM271.9 526c-.2 0-.5 0-.7-.1-33.6-8.2-77.6-5-78.1-4.9-1.7.1-3.1-1.1-3.2-2.8s1.1-3.1 2.8-3.2c1.8-.1 45.4-3.3 79.9 5.1 1.6.4 2.6 2 2.2 3.6-.3 1.4-1.5 2.3-2.9 2.3zm365.4 266.6c-.4 0-.9-.1-1.3-.3-18.7-9.1-31.7-20.1-32.2-20.6-1.3-1.1-1.4-3-.3-4.2 1.1-1.3 3-1.4 4.2-.3.1.1 13 11 31 19.8 1.5.7 2.1 2.5 1.4 4-.6 1-1.7 1.6-2.8 1.6zm-27.6 7.2c-.4 0-.8-.1-1.1-.2-11.4-4.7-21.1-10.6-27.3-16.8-1.2-1.2-1.2-3.1 0-4.2 1.2-1.2 3.1-1.2 4.2 0 5.6 5.6 14.8 11.2 25.3 15.5 1.5.6 2.3 2.4 1.6 3.9-.4 1.1-1.5 1.8-2.7 1.8zm-27.3 3.9c-.4 0-.7-.1-1.1-.2-6.6-2.6-11.7-5.7-17.3-9.1-1.4-.9-1.8-2.7-.9-4.1s2.7-1.8 4.1-.9c5.4 3.4 10.1 6.2 16.3 8.6 1.5.6 2.3 2.3 1.7 3.9-.4 1.1-1.6 1.8-2.8 1.8z" fill="#232323"/></svg></g><g transform="translate(224.4 1209.6) rotate(0.0 850.8 233.39999999999998) scale(1.200169276343631 1.2)"><svg width="1417.8" height="389" viewBox="0 0 1417.8 389"><path d="M1414.8 160.3v36.2c0 5.2-4.2 9.4-9.4 9.4H1379v134.8c0 5.1-4.2 9.3-9.3 9.3h-45.4c-5.2 0-9.3-4.2-9.3-9.3v-92.6c0-5-4.1-9.1-9.1-9.1H1288c-5 0-9.1 4.1-9.1 9.1v92.6c0 5.1-4.2 9.3-9.3 9.3h-45.4c-5.2 0-9.3-4.2-9.3-9.3v-92.6c0-5-4.1-9.1-9.1-9.1h-825c3.4-14.3 5.2-29.2 5.2-44.5 0-15-1.7-29.5-5-43.5h970.7c.5-.1 1-.1 1.5-.1h52.2c5.2 0 9.4 4.2 9.4 9.4z" fill="#fff"/><path d="M1369.7 353h-45.4c-6.8 0-12.3-5.5-12.3-12.3v-92.6c0-3.3-2.7-6.1-6.1-6.1H1288c-3.3 0-6.1 2.7-6.1 6.1v92.6c0 6.8-5.5 12.3-12.3 12.3h-45.4c-6.8 0-12.3-5.5-12.3-12.3v-92.6c0-3.3-2.7-6.1-6.1-6.1h-825c-.9 0-1.8-.4-2.4-1.1s-.8-1.7-.6-2.6c3.4-14.3 5.1-29 5.1-43.8 0-14.4-1.6-28.8-4.9-42.8-.2-.9 0-1.8.6-2.5s1.4-1.1 2.3-1.1h970.5c.6-.1 1.1-.1 1.7-.1h52.2c6.8 0 12.4 5.6 12.4 12.4v36.2c0 6.8-5.6 12.4-12.4 12.4H1382v131.8c0 6.7-5.5 12.2-12.3 12.2zm-81.6-117h17.9c6.7 0 12.1 5.4 12.1 12.1v92.6c0 3.5 2.8 6.3 6.3 6.3h45.4c3.5 0 6.3-2.8 6.3-6.3V205.9c0-1.7 1.3-3 3-3h26.5c3.5 0 6.4-2.9 6.4-6.4v-36.2c0-3.5-2.9-6.4-6.4-6.4h-52.2c-.3 0-.7 0-1 .1H384.9c2.8 13.3 4.2 26.9 4.2 40.5 0 14-1.5 27.9-4.4 41.5h821.4c6.7 0 12.1 5.4 12.1 12.1v92.6c0 3.5 2.8 6.3 6.3 6.3h45.4c3.5 0 6.3-2.8 6.3-6.3v-92.6c-.2-6.7 5.2-12.1 11.9-12.1z" fill="#232323"/><path d="M381 151C361.3 66.2 285.3 3 194.5 3 88.7 3 3 88.7 3 194.5S88.7 386 194.5 386c90.4 0 166.2-62.7 186.3-147 3.4-14.3 5.2-29.2 5.2-44.5 0-15-1.7-29.5-5-43.5zM194.5 289c-52.2 0-94.5-42.3-94.5-94.5s42.3-94.5 94.5-94.5 94.5 42.3 94.5 94.5-42.3 94.5-94.5 94.5z" fill="#fff"/><path d="M194.5 389C87.3 389 0 301.7 0 194.5S87.3 0 194.5 0c44.2 0 87.4 15.2 121.8 42.9 33.9 27.2 57.9 65.4 67.6 107.5 3.3 14.4 5 29.3 5 44.2 0 15.3-1.8 30.5-5.3 45.2-10 41.8-34 79.7-67.8 106.8-34.7 27.7-76.7 42.4-121.3 42.4zm0-383C90.6 6 6 90.6 6 194.5S90.6 383 194.5 383c87.7 0 163.1-59.5 183.4-144.7 3.4-14.3 5.1-29 5.1-43.8 0-14.4-1.6-28.8-4.9-42.8C358.2 65.9 282.7 6 194.5 6zm0 286c-53.8 0-97.5-43.7-97.5-97.5S140.7 97 194.5 97s97.5 43.7 97.5 97.5-43.7 97.5-97.5 97.5zm0-189c-50.5 0-91.5 41-91.5 91.5s41 91.5 91.5 91.5 91.5-41 91.5-91.5-41-91.5-91.5-91.5z" fill="#232323"/></svg></g><g transform="translate(294.0 828.0) rotate(0.0 388.79999999999995 353.4) scale(1.2106492293320879 1.2115186835790195)"><svg width="642.3" height="583.4" viewBox="0 0 642.3 583.4"><g xmlns:xlink="http://www.w3.org/1999/xlink"><g><path d="M581.5 571.5c.9 7.5-14.9 10.3-27 3.7-8.4 18.6-95.1-19.6-100.3-21.3-6.5-2.6-13.1-5.3-19.9-8.1-.4-.2-.8-.3-1.3-.5-2.7-1.1-5.5-2.3-8.3-3.4-3.2-1.3-6.5-2.7-10-4-9.4-3.6-19.5-7.1-30.1-10.7-9.8-3.3-20.1-6.5-30.7-9.8-.4-.1-.8-.3-1.2-.4-54.7-16.9-6.9-143 63.2-119.3 18 13.1 34.9 25.4 49.9 35.7 3.8 2.6 7.4 5 10.9 7.3 36.2 26.4 80.2 30.3 134.6 18.9 40.1-8.4 34.9 6.5-.9 28.9-44.7 28 33.6 55 23.3 72.7-1.7 2.9-9.3 7.5-24.2 2.8 1.8 7.5-11.3 15-28 7.5z" style="fill:#fff"/><path d="M541.7 583.3c-15.8 0-43.3-8.1-83.8-24.6-2.2-.9-4-1.6-4.6-1.8-.1 0-.2-.1-.3-.1-6.5-2.6-13.2-5.3-19.9-8.1l-1.2-.5c-2.8-1.1-5.5-2.3-8.3-3.4-3.2-1.3-6.5-2.7-9.9-4-8.7-3.3-18.5-6.8-30-10.6-8.7-2.9-18.1-5.9-30.7-9.8l-1.2-.4c-12.9-4-21.4-13.7-24.5-28.1-5.7-26.1 7.8-62.7 30.7-83.3 17.5-15.7 38.4-20.5 58.8-13.6.3.1.6.2.8.4 17.9 13.1 34.8 25.4 49.8 35.7 3.7 2.5 7.4 5 10.9 7.3l.1.1c33.5 24.4 75.5 30.2 132.2 18.4 18.9-4 28.8-3.1 31.2 2.7 2.8 6.9-7.3 17.5-29.9 31.6-7.8 4.9-12 10-12.5 15.2-.8 9.5 10.6 19.6 20.6 28.5 11 9.8 21.3 19 16.2 28-2 3.5-9.5 8.6-24 5.2-.6 2-1.8 3.8-3.6 5.3-4.4 3.7-13.4 6.3-25 2.3-.7 1.3-1.7 2.4-3.1 3.3-5.8 4-16.4 3.9-25.2.1-2.5 2.8-7 4.2-13.6 4.2zm-86.6-32.2c.7.2 2.1.8 5 2 9.4 3.8 31.6 12.9 51.9 18.7 33.4 9.6 38.8 4.1 39.7 2.2.3-.8 1-1.3 1.8-1.6.8-.3 1.7-.2 2.4.2 7.7 4.2 17.5 4.1 21.4 1.4 1.4-1 1.3-1.8 1.3-2.1-.1-1.1.3-2.1 1.2-2.8.9-.6 2-.8 3-.3 9.9 4.4 18.3 3.1 22.1-.1.8-.7 2.2-2.2 1.8-3.9-.3-1.1.1-2.2.9-2.9.8-.7 1.9-1 3-.7 13.9 4.3 20-.1 20.7-1.4 2.7-4.7-6.3-12.7-15-20.5-11.1-9.9-23.7-21.1-22.6-33.5.6-7.3 5.6-13.7 15.3-19.8 24.8-15.5 28-23.1 27.5-24.3 0 0-2.5-3.7-24.4.9-19.3 4-37 6.1-53.3 6.1-33 0-60.2-8.4-83.6-25.4-3.5-2.3-7.2-4.8-10.9-7.3-15-10.3-31.8-22.5-49.6-35.5-23.2-7.6-41.4 2.6-52.5 12.5-21.5 19.3-34.2 53.3-28.9 77.6 1.9 8.5 6.9 19.5 20.4 23.7l1.2.4c12.6 3.9 22.1 6.9 30.8 9.8 11.6 3.8 21.5 7.4 30.2 10.7 3.4 1.3 6.8 2.7 10 4 2.8 1.2 5.5 2.3 8.3 3.4l1.3.5c6.5 2.7 13.2 5.4 19.6 8z" style="fill:#232323"/></g><g><path d="M447.6 27.8C432.9-2.9 303-20 171 68.7c-180.8 121.6-186 229-151 291 64.9 114.9 267 143 357.3 165.3 28.1-28.6 53.1-75.6 69-105.3-53-41.8-173-109.8-201-121.8C377.4 221.8 474.4 91.8 447.6 27.8z" style="fill:#fff"/><path d="M377.3 527.9c-.2 0-.5 0-.7-.1-12.4-3.1-27.2-6.3-42.8-9.7-51.3-11.2-115-25.1-174.3-49-70.6-28.4-117-63.7-142-108-14.9-26.1-27.9-69.2-5.7-125.7 22.4-57 75.4-114 157.6-169.2 44.6-30 93.7-50.8 142.1-60.3 39.1-7.7 77.5-7.7 105.4-.2 17.4 4.7 29.3 12.1 33.5 20.8 0 0 0 .1.1.1 13.2 31.6-2.1 80.2-42 133.5-38.4 51.4-95.3 101.2-156.5 137.4 35.5 16.8 145.1 79.4 196.3 119.8 1.1.9 1.5 2.5.8 3.8l-.9 1.8c-16.2 30.2-40.7 75.9-68.5 104.3-.8.4-1.6.7-2.4.7zM368.4 6.1c-49.2 0-120.4 14.4-195.8 65C91.5 125.7 39.3 181.7 17.4 237.6c-21.3 54.3-8.9 95.5 5.3 120.6 24.3 43.1 69.8 77.6 139.1 105.4 58.8 23.7 122.3 37.5 173.4 48.7 15 3.3 29.2 6.4 41.3 9.3 26.6-27.7 50.3-71.7 66.1-101.2-52.7-41-170.2-107.8-198.3-119.9-1-.4-1.7-1.4-1.8-2.6-.1-1.1.5-2.2 1.5-2.8 62.5-36 120.7-86.5 159.8-138.7C442.1 105 457.2 58.5 444.9 29c-3.4-7-14.2-13.3-29.6-17.5-11.5-3.2-27.5-5.4-46.9-5.4z" style="fill:#232323"/></g><g><g><path d="m458.7 571.9-25.5-17.6-9.9-6.9-12.6-8.7c5.7-8.2 11.2-17 16.4-26l5.4-9.6c14-25.8 25.7-45.3 32.9-70.2 15 9.8 34.5 19.9 50.4 27.1-7.7 21.8-17.8 44-28.5 64.4-1.4 2.7-2.9 5.5-4.4 8.2-4.6 8.3-9.4 16.5-14.4 24.4-1.1 1.7-2.2 3.5-3.3 5.2-.6 1-1.3 2-1.9 2.9-1.6 2.3-3.1 4.5-4.6 6.8z" style="fill:#232323"/></g><g><ellipse transform="matrix(0.3349 -0.9422 0.9422 0.3349 -210.4958 781.9496)" cx="448.7" cy="540.1" rx="35.2" ry="50.4" style="fill:#232323"/><path d="M459.5 580.3c-7.6 0-15.6-1.3-23.7-4.2-13.3-4.7-24.5-12.8-31.6-22.7-7.3-10.3-9.5-21.3-6-31.1s12.1-17 24.3-20.4c11.8-3.2 25.6-2.4 38.8 2.3 27.8 9.9 44.6 34 37.5 53.9-4.8 14-20.6 22.2-39.3 22.2zm-21.9-74.4c-4.7 0-9.2.6-13.5 1.7-10.2 2.8-17.4 8.7-20.2 16.6-2.8 7.9-1 17 5.2 25.6 6.4 9 16.6 16.3 28.7 20.6 24.6 8.8 49.5 2.3 55.5-14.4 5.9-16.7-9.3-37.5-33.9-46.2-7.2-2.6-14.7-3.9-21.8-3.9z" style="fill:#232323"/></g><g><defs><path id="g" d="m472 394.6 57.7 8.3c-7.3 50.8-35.2 117.1-71.1 169l-48-33.2c30.8-44.4 55.4-102.3 61.4-144.1z" fill="#000"/></defs><clipPath id="h"><use xlink:href="#g" style="overflow:visible"/></clipPath><g style="clip-path:url(#h)"><g><path d="M413.3 560.9c-14.1-12.1-20.9-28.3-15.9-42.4 7.3-20.4 36.6-28.7 65.4-18.5 13.8 4.9 25.5 13.3 32.9 23.7 7.5 10.6 9.7 21.9 6.2 32s-12.4 17.5-25 20.9c-12.3 3.4-26.6 2.5-40.5-2.4-8.4-3-16.3-7.5-23.1-13.3zm-12-41c-6.5 18.3 9.9 40.9 36.6 50.3 13 4.6 26.5 5.5 38 2.3 11.2-3.1 19.1-9.6 22.2-18.3 3.1-8.7 1.1-18.7-5.6-28.2-6.9-9.7-17.9-17.5-30.9-22.2-26.8-9.3-53.8-2.2-60.3 16.1z" style="fill:#fff"/></g></g></g><g><ellipse transform="matrix(0.3349 -0.9422 0.9422 0.3349 -216.5744 783.6879)" cx="446.9" cy="545.3" rx="30.2" ry="48.9" style="fill:#fff"/><path d="M461.1 581.1c-8.1 0-16.8-1.5-25.3-4.6-12.8-4.6-23.8-12-31-20.9-7.5-9.3-9.9-19.2-6.8-27.8 6-17.2 33-23.4 60-13.8 27 9.6 44 31.4 37.8 48.7-3.1 8.6-11.2 14.7-22.9 17.2-3.7.8-7.7 1.2-11.8 1.2zm-28.7-65.7c-14.2 0-25.6 5.2-28.9 14.5-2.3 6.6-.3 14.4 5.9 22 6.5 8 16.5 14.8 28.3 19 11.8 4.2 23.9 5.3 33.9 3.2 9.6-2 16.1-6.8 18.5-13.4 5-14.1-10.3-32.5-34.2-41-8.1-2.9-16.2-4.3-23.5-4.3z" style="fill:#232323"/></g><g><path d="M444.2 550c-.7-.6-.9-1.5-.6-2.3l6.9-17.4c.4-1.1 1.7-1.6 2.7-1.1 1 .4 1.5 1.6 1.1 2.6l-6.1 15.4 25.4 9.5c1.1.4 1.6 1.6 1.2 2.7-.4 1.1-1.6 1.6-2.7 1.2l-27.4-10.2c-.1-.1-.3-.3-.5-.4z" style="fill:#232323"/><path d="M472.9 563.7c-.6 0-1.2-.1-1.8-.3l-27.4-10.2c-.6-.2-1.1-.5-1.5-.9-1.6-1.4-2.2-3.7-1.4-5.7l6.9-17.4c1.1-2.6 4.1-3.9 6.7-2.8 2.5 1.1 3.8 3.9 2.8 6.5l-5 12.6 22.5 8.4c1.3.5 2.3 1.4 2.8 2.6.6 1.2.6 2.6.1 3.9s-1.4 2.3-2.6 2.8c-.6.4-1.4.5-2.1.5z" style="fill:#232323"/></g></g><g><g><circle cx="410.9" cy="439.2" r="6.5" style="fill:#232323"/></g><g><path d="M309.4 511.8c-.7 0-1.5-.3-2-.8-1.2-1.1-1.3-3-.2-4.2 51.2-55.2 92.3-117 92.7-117.6.9-1.4 2.8-1.8 4.2-.8 1.4.9 1.8 2.8.8 4.2-.4.6-41.7 62.8-93.3 118.4-.6.5-1.4.8-2.2.8z" style="fill:#232323"/></g><g><path d="M244.9 301.1c-.2 0-.5 0-.7-.1-33.6-8.2-77.6-5-78.1-4.9-1.6.1-3.1-1.1-3.2-2.8-.1-1.7 1.1-3.1 2.8-3.2 1.8-.1 45.4-3.3 79.9 5.1 1.6.4 2.6 2 2.2 3.6-.4 1.4-1.6 2.3-2.9 2.3z" style="fill:#232323"/></g></g><g><g><path d="M610.3 567.7c-.4 0-.9-.1-1.3-.3-18.7-9.1-31.7-20.1-32.2-20.6-1.3-1.1-1.4-3-.3-4.2 1.1-1.3 3-1.4 4.2-.3.1.1 13 11 31 19.8 1.5.7 2.1 2.5 1.4 4-.7 1-1.7 1.6-2.8 1.6z" style="fill:#232323"/></g><g><path d="M582.6 574.9c-.4 0-.8-.1-1.1-.2-11.4-4.7-21.1-10.6-27.3-16.8-1.2-1.2-1.2-3.1 0-4.2 1.2-1.2 3.1-1.2 4.2 0 5.6 5.6 14.8 11.2 25.3 15.5 1.5.6 2.3 2.4 1.6 3.9-.4 1.1-1.5 1.8-2.7 1.8z" style="fill:#232323"/></g><g><path d="M555.4 578.8c-.4 0-.7-.1-1.1-.2-6.6-2.6-11.7-5.7-17.3-9.1-1.4-.9-1.8-2.7-.9-4.1.9-1.4 2.7-1.8 4.1-.9 5.4 3.4 10.1 6.2 16.3 8.6 1.5.6 2.3 2.3 1.7 3.9-.5 1.1-1.6 1.8-2.8 1.8z" style="fill:#232323"/></g></g></g></svg></g><g transform="translate(1299.6 1444.8) rotate(0.0 107.39999999999998 46.799999999999955) scale(1.1973244147157187 1.1999999999999988)"><svg width="179.4" height="78" viewBox="0 0 179.4 78"><g><g><path d="M3 65.6c18.6 5 47.3 8.7 69.9 9.3 36.4.9 60.6-7.5 75.7-15.1 8.5-4.3 21-9.8 26.2-14.1 6-5-6.5-10.4-24.6-4.3 9.3-29.8 1.2-50.7-19.6-4.7 8.6-40.5-.7-46.8-22.4-6.5 7.1-29.1-4.2-29-17.7-6.5-2.8 4.7-6.5 12.1-12.1 19.6-5.6.2-60.6 0-60.2 0" style="fill:#fff"/><path d="M78.4 78c-1.8 0-3.7 0-5.6-.1-23-.6-52.1-4.5-70.6-9.4-1.6-.4-2.6-2.1-2.1-3.7s2.1-2.5 3.7-2.1C21.9 67.6 50.4 71.4 73 72c28.5.7 53.5-4.2 74.3-14.8 2.1-1 4.4-2.2 6.7-3.3 7.1-3.5 15.2-7.4 18.9-10.4.1-.1.2-.1.2-.2-1.9-1.5-10-3-21.9 1-1.1.4-2.2.1-3.1-.7-.8-.8-1.1-2-.8-3 5.2-16.7 3.8-26.4 2.4-27.7-.6.1-5.9 2-16.3 25.1-.6 1.4-2.2 2.1-3.7 1.6s-2.3-2-2-3.5c4.6-21.6 3.1-28.9 2-30.1-.8.2-6.2 2.2-18.8 25.6-.7 1.3-2.3 1.9-3.7 1.4-1.4-.5-2.2-2-1.8-3.5 3.9-16.2 1.1-19 1.1-19-.8-.2-5.6 1.9-13.3 14.7-.7 1.2-1.5 2.5-2.3 4-2.5 4.5-5.7 10.1-10 15.8-.5.7-1.4 1.2-2.3 1.2-2.4.1-13.2.1-32.3.1-7.2 0-14.2 0-19.4-.1h-8.6c-1.4-.1-1.9-.4-2.6-1.4-.6-.9-.6-2.1-.1-3 .5-1 1.6-1.5 2.7-1.5.9 0 48.5.2 58.6 0 3.6-5 6.4-9.9 8.7-14 .9-1.5 1.7-3 2.4-4.2C92.7 14.5 101.5 2 108.8 5c3.1 1.3 4.6 4.8 4.7 10.4C123.5-.1 128.7-.8 131.8.3c2.9 1.1 6 4.3 4.8 18.4 5.8-9.4 10.9-13.2 15.2-11.5 6.6 2.5 6.2 16.4 2.7 29.8 11.3-2.6 21.3-1.3 24.1 3.6 1.1 1.9 1.1 4.9-1.9 7.4-4.2 3.5-12.3 7.4-20.1 11.2-2.3 1.1-4.6 2.2-6.6 3.3C129.6 72.8 105.6 78 78.4 78z" style="fill:#232323"/></g><g><g><path d="M122.9 58.5c-.4 0-.8-.1-1.2-.3-1.5-.7-2.2-2.5-1.5-4 9.6-21.1 10.7-30 10.8-30.1.2-1.6 1.7-2.8 3.3-2.6 1.6.2 2.8 1.7 2.6 3.3 0 .4-1.2 9.7-11.2 31.9-.6 1.2-1.7 1.8-2.8 1.8z" style="fill:#232323"/></g><g><path d="M96.2 60.3c-.6 0-1.1-.2-1.6-.5-1.4-.9-1.8-2.8-.9-4.2 9.2-14.1 13.2-31.6 13.2-31.7.4-1.6 2-2.6 3.6-2.3 1.6.4 2.6 2 2.3 3.6-.2.8-4.2 18.7-14.1 33.7-.6.9-1.5 1.4-2.5 1.4z" style="fill:#232323"/></g><g><path d="M145.9 55.5c-.4 0-.8-.1-1.2-.2-1.5-.7-2.2-2.4-1.6-3.9 5.7-13.3 6.8-20.2 6.8-20.3.2-1.6 1.8-2.8 3.4-2.5 1.6.2 2.8 1.8 2.5 3.4 0 .3-1.1 7.6-7.2 21.8-.5 1-1.6 1.7-2.7 1.7z" style="fill:#232323"/></g><g><path d="M66.2 55.6c-1.2 0-2.4-.8-2.8-2-.5-1.6.3-3.3 1.8-3.8C75.5 46.2 84 29.4 84.1 29.2c.7-1.5 2.5-2.1 4-1.3 1.5.7 2.1 2.5 1.3 4-.4.8-9.7 19.1-22.3 23.6-.2 0-.5.1-.9.1z" style="fill:#232323"/></g></g></g></svg></g></svg>