<svg xmlns="http://www.w3.org/2000/svg" viewBox="0 0 1080 1080" width="1080" height="1080"><g transform="translate(142.0 983.0) rotate(0.0 52.5 13.5) scale(0.7900142202559647 0.7941176470588235)"><svg width="132.909" height="34" viewBox="0 0 132.909 34"><g><ellipse cx="66.455" cy="17" rx="66.455" ry="17" style="fill:#5b2448"/></g></svg></g><g transform="translate(564.0 94.0) rotate(0.0 231.0 457.0) scale(0.4558011049723757 0.45636109446774514)"><svg width="1013.6" height="2002.8" viewBox="0 0 1013.6 2002.8"><path d="M150.6 0H863c83.1 0 150.6 67.4 150.6 150.6v1701.7c0 83.1-67.4 150.6-150.6 150.6H150.6C67.4 2002.8 0 1935.4 0 1852.3V150.6C0 67.4 67.4 0 150.6 0z" fill="#9b3c82"/><path d="M168.5 84.1h676.6c45.7 0 82.8 37.1 82.8 82.8V1836c0 45.7-37.1 82.8-82.8 82.8H168.5c-45.7 0-82.8-37.1-82.8-82.8V166.9c0-45.8 37.1-82.8 82.8-82.8z" fill="#fff"/><path d="M503.4 62.7H333.2v18.6s38.2 0 42 37.7l2.8 21.1c3 22.5 13.5 39.3 44.8 39.3h160c31.3 0 41.9-16.8 44.8-39.3l2.8-21.2c3.7-37.7 42-37.7 42-37.7V62.7z" fill="#9b3c82"/><path d="M226.4 665.4H771c5.5 0 10-4.5 10-10s-4.5-10-10-10H226.4c-5.5 0-10 4.5-10 10s4.4 10 10 10zm0 547.7H771c5.5 0 10-4.5 10-10s-4.5-10-10-10H226.4c-5.5 0-10 4.5-10 10s4.4 10 10 10zm0 547.7H771c5.5 0 10-4.5 10-10s-4.5-10-10-10H226.4c-5.5 0-10 4.5-10 10s4.4 10 10 10z" fill="#21a0aa"/><path d="M574.5 612V488.2c0-48.3-13.4-49.3-22.2-65.5-8.4-15.5-8.4-39.5-8.4-39.5v-49h-80.4v49s0 24-8.4 39.5c-8.8 16.1-22.3 17.2-22.2 65.5V612s-2.6 32.2 30.8 32.2h80c33.4 0 30.8-32.2 30.8-32.2z" fill="#fff"/><path d="M576.5 611.9V488.1c0-37.1-7.9-47-15.6-56.6-2.5-3.1-4.8-6-6.9-9.8-8.1-14.8-8.2-38.3-8.2-38.5v-49c0-1.1-.9-2-2-2h-80.4c-1.1 0-2 .9-2 2v49c0 .2-.1 23.7-8.2 38.5-2.1 3.8-4.4 6.7-6.9 9.8-7.7 9.6-15.6 19.5-15.6 56.6v123.8c-.1 1.4-.8 15.2 8.2 24.9 5.7 6.2 14 9.3 24.7 9.3h80c10.7 0 19-3.1 24.7-9.3 9-9.7 8.3-23.5 8.2-24.9zm-32.9 30.3h-80c-9.5 0-16.8-2.7-21.7-8-8.1-8.7-7.1-21.8-7.1-22V488.1c0-35.7 7.5-45 14.7-54.1 2.5-3.1 5-6.3 7.3-10.4 8.6-15.8 8.7-39.4 8.7-40.4v-47h76.4v47c0 1 .1 24.7 8.7 40.4 2.2 4.1 4.8 7.3 7.3 10.4 7.2 9.1 14.8 18.4 14.7 54.1v124.1c0 .1 1 13.2-7.1 22-5.1 5.3-12.4 8-21.9 8z" fill="#66b0f0"/><path d="M549.2 348.8h-91.1c-3.8 0-6.9-3.1-6.9-6.9v-15.3c0-3.8 3.1-6.9 6.9-6.9h91.1c3.8 0 6.9 3.1 6.9 6.9v15.3c0 3.8-3.1 6.9-6.9 6.9z" fill="#ffcf2d"/><path d="M576.5 572.8H430.8v-81.7h145.7c-.1 25.4-.1 57.1 0 81.7z" fill="#66b0f0"/><path d="M746.5 612V488.2c0-48.3-13.4-49.3-22.2-65.5-8.4-15.5-8.4-39.5-8.4-39.5v-49h-80.4v49s0 24-8.4 39.5c-8.8 16.1-22.3 17.2-22.2 65.5V612s-2.7 32.2 30.8 32.2h80c33.4 0 30.8-32.2 30.8-32.2z" fill="#fff"/><path d="M748.5 611.9V488.1c0-37.1-7.9-47-15.6-56.6-2.5-3.1-4.8-6-6.9-9.8-8.1-14.8-8.2-38.3-8.2-38.5v-49c0-1.1-.9-2-2-2h-80.4c-1.1 0-2 .9-2 2v49c0 .2-.1 23.7-8.2 38.5-2.1 3.8-4.4 6.7-6.9 9.8-7.7 9.6-15.6 19.5-15.6 56.6v123.8c-.1 1.4-.8 15.2 8.2 24.9 5.7 6.2 14 9.3 24.7 9.3h80c10.7 0 19-3.1 24.7-9.3 9-9.7 8.3-23.5 8.2-24.9zm-32.9 30.3h-80c-9.5 0-16.8-2.7-21.7-8-8.1-8.7-7.1-21.8-7.1-22V488.1c0-35.7 7.5-45 14.7-54.1 2.5-3.1 5-6.3 7.3-10.4 8.6-15.8 8.7-39.4 8.7-40.4v-47h76.4v47c0 1 .1 24.7 8.7 40.4 2.2 4.1 4.8 7.3 7.3 10.4 7.2 9.1 14.7 18.4 14.7 54.1v124.1c0 .1 1 13.2-7.1 22-5.1 5.3-12.4 8-21.9 8z" fill="#66b0f0"/><path d="M721.2 348.8h-91.1c-3.8 0-6.9-3.1-6.9-6.9v-15.3c0-3.8 3.1-6.9 6.9-6.9h91.1c3.8 0 6.9 3.1 6.9 6.9v15.3c0 3.8-3.1 6.9-6.9 6.9z" fill="#ffcf2d"/><path d="M748.5 572.8H602.8v-81.7h145.7c-.1 25.4 0 57.1 0 81.7z" fill="#66b0f0"/><path d="M404 612V488.2c0-48.3-13.4-49.3-22.2-65.5-8.4-15.5-8.4-39.5-8.4-39.5v-49H293v49s0 24-8.4 39.5c-8.8 16.1-22.3 17.2-22.2 65.5V612s-2.6 32.2 30.8 32.2h80c33.4 0 30.8-32.2 30.8-32.2z" fill="#fff"/><path d="M406 611.9V488.1c0-37.1-7.9-47-15.6-56.6-2.5-3.1-4.8-6-6.9-9.8-8.1-14.9-8.2-38.3-8.2-38.5v-49c0-1.1-.9-2-2-2H293c-1.1 0-2 .9-2 2v49c0 .2-.1 23.7-8.2 38.5-2.1 3.8-4.4 6.7-6.9 9.8-7.7 9.6-15.6 19.5-15.6 56.6v123.8c-.1 1.4-.8 15.1 8.1 24.9 5.7 6.2 14 9.3 24.7 9.3h80c10.7 0 19-3.1 24.7-9.3 9-9.7 8.3-23.5 8.2-24.9zm-32.9 30.3h-80c-9.5 0-16.8-2.7-21.7-8-8.1-8.8-7.1-21.8-7.1-22V488.1c0-35.7 7.5-45 14.7-54.1 2.5-3.1 5-6.3 7.3-10.4 8.6-15.8 8.7-39.4 8.7-40.4v-47h76.4v47c0 1 .1 24.7 8.7 40.4 2.2 4.1 4.8 7.3 7.3 10.4 7.2 9.1 14.8 18.4 14.7 54.1v124.1c0 .1 1 13.2-7.1 22-5.1 5.3-12.4 8-21.9 8z" fill="#66b0f0"/><path d="M378.7 348.8h-91.1c-3.8 0-6.9-3.1-6.9-6.9v-15.3c0-3.8 3.1-6.9 6.9-6.9h91.1c3.8 0 6.9 3.1 6.9 6.9v15.3c0 3.8-3.1 6.9-6.9 6.9z" fill="#ffcf2d"/><path d="M406 572.8H260.3v-81.7H406z" fill="#66b0f0"/><path d="M368 1185.1c-14-37.1-40.8-71.9-64.3-97.5-23.8-26-44.1-42.6-44.1-42.6l1.6-11.3 3-20.9s10.4 13.1 24.4 29.7c3 3.6 6.2 7.3 9.5 11.1 4.1 4.8 8.4 9.7 12.7 14.5.2.2.4.4.5.6 21.2 23.7 42.9 45.2 48.8 41.7 4.7-2.8-2.1-22.7-12.4-46.6-4.9-11.4-10.7-23.8-16.4-35.6-2.9-5.9-5.7-11.7-8.4-17.2-11-22.1-20-39-20-39l24.5-10.1s2.2 4.7 5.8 12.2c3.7 7.7 9 18.5 14.9 30.3 1.3 2.7 2.7 5.3 4.1 8.1 2.7 5.2 5.4 10.6 8.2 15.9 3.6 6.9 7.2 13.8 10.8 20.2.7 1.2 1.4 2.5 2 3.7 10.7 19.3 20 34 23.6 34.1 5.1 0 3.7-25.4.9-51.6-1.2-10.9-2.6-22-3.8-31.4-2-14.8-3.7-25.7-3.7-25.7l.9.2 18.8 3.3c-1 5.1 2.3 27.7 7.8 55.8 7.6 39.1 19.6 88.9 30.7 118.1 9.6 25.5-72.8 50.2-80.4 30z" fill="#6ce0dc"/><g fill="#21a0aa"><path d="M312 1060.6c0 2.7-.2 5.3-.6 7.8 0 .1 0 .2-.1.3-1.2 6.9-3.8 13.3-7.6 18.9-4.6 6.8-11 12.4-18.5 16-6.3 3.1-13.5 4.9-21 4.9-26.4 0-47.8-21.4-47.8-47.8 0-4 .5-8 1.5-11.7 0-.1 0-.2.1-.3 3.6-13.9 13.3-25.3 26-31.3 6.2-2.9 13-4.5 20.3-4.5 7.8 0 15.2 1.9 21.7 5.2 0 0 .1 0 .1.1 1.1.5 2.1 1.1 3.1 1.8 3.6 2.2 6.9 4.9 9.8 7.9 3.6 3.8 6.6 8.2 8.8 12.9 2.7 5.9 4.2 12.7 4.2 19.8z"/><circle cx="326.4" cy="1041.6" r="30.8"/><path d="M352 983.2c0 7.4-1.4 14.6-3.9 21.1-1.5 3.9-3.3 7.6-5.6 11-1.1 1.7-2.3 3.4-3.6 5-2.3 2.9-4.8 5.5-7.6 7.9-6.7 5.8-14.8 10.1-23.6 12.4-3.9 1-7.9 1.7-12 1.9-1 .1-2.1.1-3.1.1-1.3 0-2.6 0-3.9-.1-10-.6-19.3-3.8-27.4-8.8-6.8-4.2-12.7-9.8-17.3-16.4-.1-.1-.1-.2-.2-.3-.8-1.1-1.5-2.2-2.2-3.4-5.3-8.9-8.3-19.3-8.3-30.4 0-32.8 26.6-59.4 59.4-59.4 11.5 0 22.3 3.3 31.4 8.9 1.2.7 2.3 1.5 3.4 2.3.1 0 .1.1.2.1 9.3 6.8 16.6 16.2 20.7 27.2 1.7 4.6 2.9 9.5 3.4 14.5.1 2.2.2 4.3.2 6.4z"/><circle cx="356.1" cy="946.4" r="30.8"/><path d="M464.3 986c0 26.8-20.5 48.7-46.7 51-1.5.1-2.9.2-4.4.2-5.4 0-10.7-.8-15.5-2.4-1.6-.5-3.2-1.1-4.7-1.8-1.3-.5-2.5-1.1-3.7-1.8-4-2.1-7.6-4.7-10.8-7.7-5.3-5-9.6-11-12.4-17.9-2.5-6-3.9-12.7-3.9-19.6 0-3.3.3-6.5.9-9.6 1.1-5.6 3-10.8 5.7-15.6 4.3-7.6 10.5-14 17.9-18.5 7.8-4.7 16.9-7.5 26.6-7.5 28.2.1 51 23 51 51.2z"/><circle cx="368" cy="1027.2" r="21.6"/><circle cx="360.9" cy="994.1" r="34.2"/></g><path d="M291.6 1019c-.5.8-1.5 1.1-2.4.8-.1 0-.2-.1-.3-.2-.9-.6-1.8-1.1-2.8-1.6l-.1-.1c-12.7-6.7-27.9-7.4-41.1-1.5-.4.2-.7.3-1.1.5-.8-1.1-1.5-2.2-2.2-3.4.5-.3 1.1-.5 1.7-.8 15.5-6.8 33.4-5.5 47.8 3.4.8.7 1.1 1.9.5 2.9zm35.1-57.4c-.3.1-.5.2-.8.2-.8 0-1.5-.4-1.8-1.2-3.8-8.6-4-18.1-.6-26.8.1-.3.3-.7.4-1 1.2.7 2.3 1.5 3.4 2.3 0 .1 0 .1-.1.2-3 7.7-2.8 16.1.5 23.7.5.9.1 2.1-1 2.6zM393 1033c-1.3-.5-2.5-1.1-3.7-1.8.8-4.3.3-8.7-1.5-12.8-.1-.2-.2-.4-.3-.7-.2-.5-.4-.9-.7-1.3-1.4-2.5-3.3-4.6-5.5-6.4-.9-.7-1-1.9-.3-2.8s1.9-1 2.8-.4c2.2 1.7 4.1 3.8 5.6 6.1.8 1.2 1.5 2.5 2.1 3.8 2.3 5.3 2.7 10.9 1.5 16.3zm252.6 152.1c-14-37.1-40.8-71.9-64.3-97.5-23.8-26-44.1-42.6-44.1-42.6l1.6-11.3 3-20.9s10.4 13.1 24.4 29.7c3 3.6 6.2 7.3 9.5 11.1 4.1 4.8 8.4 9.7 12.7 14.5.2.2.4.4.5.6 21.2 23.7 42.9 45.1 48.7 41.7 4.7-2.8-2.1-22.7-12.4-46.6-4.9-11.4-10.7-23.8-16.4-35.6-2.8-5.9-5.7-11.7-8.4-17.2-11-22.1-20-39-20-39l24.5-10.1s2.2 4.7 5.9 12.2c3.7 7.7 9 18.5 14.9 30.3 1.3 2.7 2.7 5.3 4.1 8.1 2.6 5.2 5.4 10.6 8.1 15.9 3.6 6.9 7.2 13.8 10.8 20.2.7 1.3 1.4 2.5 2 3.7 10.7 19.3 20 34 23.6 34.1 5.1 0 3.7-25.4.9-51.6-1.2-10.9-2.6-22-3.8-31.4-2-14.8-3.7-25.6-3.7-25.6l.9.2 18.8 3.3c-1 5.1 2.3 27.7 7.8 55.8 7.6 39.1 19.6 88.9 30.7 118.1 9.7 25.4-72.7 50.1-80.3 29.9z" fill="#6ce0dc"/><path d="M589.7 1060.6c0 2.7-.2 5.3-.6 7.8 0 .1 0 .2-.1.3-1.2 6.9-3.8 13.3-7.6 18.8-4.7 6.8-11 12.4-18.5 16-6.3 3.1-13.5 4.9-21 4.9-26.4 0-47.8-21.4-47.8-47.8 0-4.9.8-9.7 2.1-14.2v-.2c4-12.8 13.3-23.3 25.3-29 6.2-2.9 13-4.5 20.3-4.5 7.8 0 15.2 1.9 21.7 5.2 0 0 .1 0 .1.1 1.1.5 2.1 1.1 3.2 1.8 3.6 2.2 6.9 4.9 9.8 7.9 3.6 3.8 6.5 8.2 8.8 12.9 2.7 6.1 4.3 12.9 4.3 20z" fill="#21a0aa"/><circle cx="604" cy="1041.6" fill="#21a0aa" r="30.8"/><path d="M629.6 983.2c0 7.4-1.4 14.6-3.9 21.1-1.5 3.9-3.4 7.6-5.6 11-1.1 1.7-2.3 3.4-3.6 5-2.3 2.9-4.8 5.5-7.6 7.9-6.7 5.8-14.8 10.1-23.6 12.4-3.9 1-7.9 1.7-12 1.9-1 .1-2.1.1-3.1.1-1.3 0-2.6 0-3.9-.1-10-.6-19.3-3.8-27.4-8.8-6.8-4.2-12.7-9.8-17.3-16.4-.1-.1-.1-.2-.2-.3-.8-1.1-1.5-2.2-2.2-3.4-5.3-8.9-8.3-19.3-8.3-30.4 0-32.8 26.6-59.4 59.4-59.4 11.5 0 22.3 3.3 31.4 9 1.2.7 2.3 1.5 3.4 2.3l.1.1c9.3 6.8 16.6 16.2 20.7 27.2 1.7 4.6 2.9 9.5 3.4 14.5.2 2.1.3 4.2.3 6.3z" fill="#21a0aa"/><circle cx="633.7" cy="946.4" fill="#21a0aa" r="30.8"/><path d="M742 986c0 26.8-20.5 48.7-46.7 51-1.5.1-2.9.2-4.4.2-5.4 0-10.7-.8-15.5-2.4-1.6-.5-3.2-1.1-4.7-1.8-1.3-.5-2.5-1.1-3.7-1.8-4-2.1-7.6-4.7-10.8-7.7-5.4-5-9.6-11.1-12.5-17.9-2.5-6-3.9-12.7-3.9-19.6 0-3.3.3-6.5.9-9.6 1.1-5.6 3-10.8 5.7-15.6 4.3-7.6 10.5-14 17.9-18.5 7.8-4.7 16.9-7.5 26.6-7.5 28.2.1 51.1 23 51.1 51.2z" fill="#21a0aa"/><path d="M667.2 1027.2c0 1.4-.1 2.7-.4 4.1 0 .1 0 .2-.1.3-.1.3-.1.7-.2 1v.1c-.1.3-.2.7-.3 1s-.2.7-.3 1c-.2.7-.5 1.4-.9 2-2.4 5-6.8 8.9-12 10.9-1.4.5-2.8.9-4.4 1.1-1 .1-2 .2-3.1.2-1.5 0-3-.2-4.4-.4-.3-.1-.7-.1-1-.2h-.1c-.4-.1-.7-.2-1-.3s-.6-.2-1-.3c-.7-.2-1.4-.5-2.1-.9-.6-.3-1.1-.6-1.6-.9l-.1-.1-.9-.6c-5.8-3.9-9.5-10.5-9.5-17.9 0-.7 0-1.4.1-2 .2-2 .6-3.9 1.3-5.7 1-2.6 2.5-5 4.4-7 3.5-3.8 8.4-6.3 13.8-6.8.7-.1 1.3-.1 2-.1 8 0 15.1 4.4 18.8 10.9.2.4.5.9.7 1.3.3.6.6 1.3.8 1.9 1.1 2.2 1.5 4.8 1.5 7.4z" fill="#21a0aa"/><circle cx="638.5" cy="994.1" fill="#21a0aa" r="34.2"/><path d="M569.2 1019c-.5.8-1.5 1.1-2.4.8-.1 0-.3-.1-.4-.2-.9-.6-1.8-1.1-2.8-1.6l-.1-.1c-12.7-6.7-27.9-7.3-41.1-1.5-.4.2-.7.3-1.1.5-.8-1.1-1.5-2.2-2.2-3.4.5-.3 1.1-.5 1.7-.8 15.5-6.8 33.4-5.5 47.8 3.4.9.7 1.2 1.9.6 2.9zm35.1-57.4c-.3.1-.5.2-.8.2-.8 0-1.5-.4-1.8-1.2-4-9.2-3.8-19.2-.2-27.8 1.2.7 2.3 1.5 3.4 2.3-3 7.4-3 16 .4 23.9.5.9.1 2.1-1 2.6zm66.3 71.4c-1.3-.5-2.5-1.1-3.7-1.8.7-3.7.5-7.7-.9-11.5-.1-.4-.3-.9-.5-1.3-.1-.2-.2-.4-.3-.7-.2-.5-.4-.9-.7-1.3-1.4-2.5-3.3-4.6-5.5-6.4-.9-.7-1-1.9-.3-2.8s1.9-1 2.8-.4c2.2 1.7 4.1 3.8 5.6 6.1.8 1.2 1.5 2.5 2.1 3.8 2.2 5.4 2.6 11.1 1.4 16.3z" fill="#6ce0dc"/><ellipse cx="523.2" cy="1580.6" fill="#ffcf2d" rx="178.1" ry="71.6" transform="matrix(.4732 -.881 .881 .4732 -1116.8163 1293.5485)"/><path d="M584.6 1522.4c-.4 0-.7-.1-1.1-.2-31.3-14.8-71-8-71.4-7.9-1.4.2-2.7-.7-2.9-2-.2-1.4.7-2.7 2-2.9 1.7-.3 41.6-7.2 74.4 8.3 1.2.6 1.8 2.1 1.2 3.3-.4.9-1.3 1.4-2.2 1.4zm-25.5 52.3c-.4 0-.7-.1-1.1-.2-31.3-14.8-71-8-71.4-7.9-1.4.2-2.7-.7-2.9-2-.2-1.4.7-2.7 2-2.9 1.7-.3 41.6-7.2 74.4 8.3 1.2.6 1.8 2.1 1.2 3.3-.4.9-1.3 1.4-2.2 1.4zm-24.6 52.3c-.4 0-.7-.1-1.1-.2-31.3-14.8-71-8-71.4-7.9-1.4.2-2.7-.7-2.9-2-.2-1.4.7-2.7 2-2.9 1.7-.3 41.6-7.2 74.4 8.3 1.2.6 1.8 2.1 1.2 3.3-.4.9-1.3 1.4-2.2 1.4z" fill="#fff"/><ellipse cx="705.9" cy="1580.6" fill="#ffcf2d" rx="178.1" ry="71.6" transform="matrix(.4732 -.881 .881 .4732 -1020.5396 1454.5287)"/><path d="M767.3 1522.4c-.4 0-.7-.1-1.1-.2-31.3-14.8-71-8-71.4-7.9-1.4.2-2.7-.7-2.9-2-.2-1.4.7-2.7 2-2.9 1.7-.3 41.6-7.2 74.4 8.3 1.2.6 1.8 2.1 1.2 3.3-.4.9-1.3 1.4-2.2 1.4zm-25.5 52.3c-.4 0-.7-.1-1.1-.2-31.3-14.8-71-8-71.4-7.9-1.4.2-2.7-.7-2.9-2-.2-1.4.7-2.7 2-2.9 1.7-.3 41.6-7.2 74.4 8.3 1.2.6 1.8 2.1 1.2 3.3-.4.9-1.3 1.4-2.2 1.4zm-24.6 52.3c-.4 0-.7-.1-1.1-.2-31.3-14.8-71-8-71.4-7.9-1.4.2-2.7-.7-2.9-2-.2-1.4.7-2.7 2-2.9 1.7-.3 41.6-7.2 74.4 8.3 1.2.6 1.8 2.1 1.2 3.3-.4.9-1.3 1.4-2.2 1.4z" fill="#fff"/><ellipse cx="340.4" cy="1580.6" fill="#ffcf2d" rx="178.1" ry="71.6" transform="matrix(.4732 -.881 .881 .4732 -1213.0929 1132.5682)"/><path d="M401.8 1522.4c-.4 0-.7-.1-1.1-.2-31.3-14.8-71-8-71.4-7.9-1.4.2-2.7-.7-2.9-2-.2-1.4.7-2.7 2-2.9 1.7-.3 41.6-7.2 74.4 8.3 1.2.6 1.8 2.1 1.2 3.3-.3.9-1.2 1.4-2.2 1.4zm-25.5 52.3c-.4 0-.7-.1-1.1-.2-31.3-14.8-71-8-71.4-7.9-1.4.2-2.7-.7-2.9-2-.2-1.4.7-2.7 2-2.9 1.7-.3 41.6-7.2 74.4 8.3 1.2.6 1.8 2.1 1.2 3.3-.3.9-1.2 1.4-2.2 1.4zm-24.6 52.3c-.4 0-.7-.1-1.1-.2-31.3-14.8-71-8-71.4-7.9-1.4.2-2.7-.7-2.9-2-.2-1.4.7-2.7 2-2.9 1.7-.3 41.6-7.2 74.4 8.3 1.2.6 1.8 2.1 1.2 3.3-.3.9-1.2 1.4-2.2 1.4z" fill="#fff"/><path d="m836.9 740.4-84.9-41-86.5 40.6c-3.8 1.8-8.2-1-8.2-5.2l.4-191.5c0-12.8 10.5-23.2 23.3-23.2l141.4.3c12.8 0 23.2 10.5 23.2 23.3l-.4 191.4c0 4.3-4.5 7.1-8.3 5.3z" fill="#f94f46"/><path d="M839.4 741.4c-.9 0-1.9-.2-2.7-.6L752 700l-86.3 40.5c-2 .9-4.2.8-6-.4s-2.9-3.1-2.9-5.3l.4-191.5c0-13.1 10.7-23.7 23.7-23.7h.1l141.4.3c13.1 0 23.7 10.7 23.7 23.8l-.4 191.4c0 2.2-1.1 4.1-2.9 5.3-1.1.7-2.2 1-3.4 1zM752 698.9l85.1 41c1.6.8 3.5.7 5.1-.3 1.5-1 2.5-2.6 2.5-4.5l.4-191.4c0-12.5-10.2-22.8-22.7-22.8l-141.4-.3c-12.5 0-22.7 10.2-22.7 22.7l-.4 191.5c0 1.8.9 3.5 2.4 4.5s3.4 1.1 5.1.3z" fill="#f94f46"/><path d="M691.3 667.9c-1.4 0-2.7-.8-3.2-2.1-.6-1.3-.3-2.8.7-3.8.2-.2 20.2-20.7 24.8-28.7 3-5.2 3.5-10.2 1.4-14.1-1.6-3-4.5-4.9-7.8-5.1-4.2-.3-7.4 1.3-10 4.9-2.1 2.9-2.8 6.1-2.8 6.2-.4 1.9-2.3 3.1-4.2 2.6-1.9-.4-3.1-2.3-2.7-4.2 1.3-6.1 7.3-17.4 20.1-16.5 5.7.4 10.8 3.6 13.5 8.7 3.2 6 2.7 13.6-1.5 20.9-3.4 5.9-13.6 17.1-20.1 24.1l22.5-.2c1.9 0 3.5 1.5 3.5 3.5 0 1.9-1.5 3.5-3.5 3.5zm60.5-13.9c-1.9 0-3.5-1.5-3.5-3.4l-.5-26.8c0-1.9 1.5-3.5 3.4-3.6 2 0 3.5 1.5 3.6 3.4l.5 26.8c.1 1.9-1.5 3.5-3.5 3.6z" fill="#fff"/><path d="M738.2 640.8c-1.9 0-3.5-1.5-3.5-3.4s1.5-3.5 3.4-3.6l26.8-.5c2-.1 3.5 1.5 3.6 3.4 0 1.9-1.5 3.5-3.4 3.6zm62.3 26.2c-1.9 0-3.5-1.5-3.5-3.5l-.4-44.3c-2.7 2.6-6.1 5.3-10.3 7.3-1.7.8-3.8.1-4.7-1.6-.8-1.7-.1-3.8 1.6-4.7 8.7-4.2 13.8-12.2 13.8-12.3.8-1.3 2.4-1.9 3.9-1.5s2.5 1.8 2.6 3.3l.4 53.7c.1 2-1.5 3.6-3.4 3.6z" fill="#fff"/><path d="M786.3 667.1c-1.9 0-3.5-1.5-3.5-3.5 0-1.9 1.5-3.5 3.5-3.5l28.2-.2c1.9 0 3.5 1.5 3.5 3.5 0 1.9-1.5 3.5-3.5 3.5zm-105.2-98c-1.9 0-3.5-1.6-3.5-3.5s1.6-3.5 3.5-3.5h20c1.9 0 3.5 1.6 3.5 3.5s-1.6 3.5-3.5 3.5zm40 0c-1.9 0-3.5-1.6-3.5-3.5s1.6-3.5 3.5-3.5h20c1.9 0 3.5 1.6 3.5 3.5s-1.6 3.5-3.5 3.5zm40 0c-1.9 0-3.5-1.6-3.5-3.5s1.6-3.5 3.5-3.5h20c1.9 0 3.5 1.6 3.5 3.5s-1.6 3.5-3.5 3.5zm40 0c-1.9 0-3.5-1.6-3.5-3.5s1.6-3.5 3.5-3.5h20c1.9 0 3.5 1.6 3.5 3.5s-1.6 3.5-3.5 3.5z" fill="#fff"/><path d="M844.1 1793.7c-5 9.3-33.3.6-40.6 7.6-7.5 7.2-.4 35.8-9.6 40.2-9.3 4.4-27.1-19.1-37.3-17.8-10.1 1.3-21.1 28.8-31.3 26.9-9.9-1.8-10.4-31.3-19.7-36.3s-34.3 10.6-41.2 3.4c-7.2-7.5 9.8-31.8 5.4-40.9-4.4-9.3-33.9-11.3-35.3-21.5-1.3-10.1 26.5-19.7 28.4-30 1.8-9.9-20.9-28.8-15.9-38.1s33.3-.6 40.6-7.6c7.5-7.2.4-35.8 9.6-40.2 9.3-4.4 27.1 19.1 37.3 17.8 10.1-1.3 21.1-28.8 31.3-26.9 9.9 1.8 10.4 31.3 19.7 36.3s34.3-10.6 41.2-3.4c7.2 7.5-9.8 31.8-5.4 40.9 4.4 9.3 33.9 11.3 35.3 21.5 1.3 10.1-26.5 19.7-28.4 30-1.8 9.9 20.9 28.8 15.9 38.1z" fill="#f94f46"/><path d="M726.4 1851.2c-.4 0-.7 0-1.1-.1-5.5-1-8-9.5-10.8-18.4-2.4-7.7-4.8-15.6-9.1-17.9s-12.2 0-20 2.2c-9 2.6-17.5 5-21.3 1-4-4.2-.9-13.2 2.1-21.9 2.5-7.4 5.2-15 3.2-19.1-2-4.2-9.7-7-17.1-9.6-8.6-3.1-17.5-6.3-18.2-12-.8-5.6 6.6-10.8 14.3-16.2 6.5-4.6 13.2-9.3 14.1-13.9.8-4.4-3.7-11-8-17.4-5.2-7.7-10.6-15.6-7.8-20.9 2.8-5.2 12.4-5.1 21.7-4.9 7.7.1 15.7.3 18.9-2.8 3.4-3.2 3.7-11.5 4-19.4.3-9.5.6-18.4 5.7-20.9 5.2-2.5 12.7 3.2 20 8.7 6.3 4.7 12.8 9.6 17.4 9 4.5-.6 9.5-7 14.3-13.2 5.6-7.3 11.5-14.8 17.2-13.7 5.5 1 8 9.5 10.8 18.4 2.4 7.7 4.8 15.6 9.1 17.9s12.2 0 20-2.2c9-2.6 17.5-5 21.3-1 4 4.2.9 13.2-2.1 21.9-2.5 7.4-5.2 15-3.2 19.1 2 4.2 9.7 7 17.1 9.6 8.6 3.1 17.5 6.3 18.2 12 .8 5.6-6.6 10.8-14.3 16.2-6.5 4.6-13.2 9.3-14.1 13.9-.8 4.4 3.7 11 8 17.4 5.2 7.7 10.6 15.6 7.8 20.9-2.8 5.2-12.4 5.1-21.8 4.9-7.7-.1-15.7-.3-18.9 2.8-3.4 3.2-3.7 11.5-4 19.4-.3 9.5-.6 18.4-5.7 20.9-5.2 2.5-12.7-3.2-20-8.7-6.3-4.7-12.8-9.6-17.4-9-4.5.6-9.5 7-14.3 13.2-5.2 6.8-10.7 13.8-16 13.8zm-25.6-38.4c2 0 3.7.3 5.1 1.1 4.6 2.5 7.1 10.6 9.5 18.5 2.5 8.3 5.2 16.8 10 17.7 5.1.9 10.8-6.3 16.2-13.4 5.1-6.6 10-12.9 14.9-13.5 5-.7 11.4 4.1 18.1 9.2 7.1 5.3 14.4 10.8 19 8.6s4.9-11.2 5.2-20c.3-8.1.6-16.5 4.3-20.1 3.5-3.4 11.3-3.2 19.6-3.1 9 .2 18.3.3 20.9-4.4 2.5-4.7-2.7-12.4-7.7-19.9-4.7-6.9-9.1-13.3-8.2-18.1.9-5 7.8-9.9 14.5-14.6 7.2-5 14.6-10.2 13.9-15.3s-9.3-8.2-17.6-11.2c-8-2.9-15.5-5.6-17.6-10.1s.4-12 3.2-19.9c2.9-8.4 5.9-17.1 2.3-20.9-3.4-3.6-12-1.1-20.3 1.3-7.9 2.3-16.1 4.6-20.7 2.1s-7.1-10.6-9.5-18.5c-2.5-8.3-5.2-16.8-10-17.7-5.1-.9-10.8 6.3-16.2 13.4-5.1 6.6-10 12.9-14.9 13.5-5 .7-11.4-4.1-18.1-9.2-7.1-5.3-14.4-10.8-19-8.6s-4.9 11.2-5.2 20c-.3 8.1-.6 16.5-4.3 20.1-3.5 3.4-11.3 3.2-19.6 3.1-9-.2-18.3-.3-20.9 4.4-2.5 4.7 2.7 12.4 7.7 19.9 4.7 6.9 9.1 13.3 8.2 18.1-.9 5-7.8 9.9-14.5 14.6-7.2 5-14.6 10.2-13.9 15.3s9.3 8.2 17.6 11.2c8 2.9 15.5 5.6 17.6 10.1s-.4 12-3.2 19.9c-2.9 8.4-5.9 17.1-2.3 20.9 3.4 3.6 12 1.1 20.3-1.3 5.5-1.6 11.1-3.2 15.6-3.2z" fill="#f94f46"/><path d="M700.8 1785.7c-.9 0-1.9-.4-2.6-1.1-1.3-1.4-1.2-3.6.2-4.9l87.2-80.3c1.4-1.3 3.6-1.2 4.9.2s1.2 3.6-.2 4.9l-87.2 80.3c-.6.6-1.5.9-2.3.9z" fill="#fff"/><circle cx="718.2" cy="1706.5" fill="#fff" r="16.1"/><circle cx="771.9" cy="1779.6" fill="#fff" r="16.1"/></svg></g><g transform="translate(37.0 620.0) rotate(30.439105537009826 95.5 83.0) scale(0.46090733590733596 0.4585635359116022)"><svg width="414.4" height="362" viewBox="0 0 414.4 362"><path d="M124.8 105c-1.4 0-2.5-1.1-2.5-2.5l.2-45.9c.1-24.8 20.3-45 45.2-45h.2l80.6.3c12.1 0 23.4 4.8 31.9 13.3s13.2 19.9 13.1 32l-.2 44.9c0 1.4-1.1 2.5-2.5 2.5s-2.5-1.1-2.5-2.5l.2-44.9c0-10.7-4.1-20.8-11.7-28.4S259.2 17 248.4 16.9l-80.6-.3h-.1c-22.1 0-40.1 17.9-40.2 40l-.2 45.9c0 1.3-1.1 2.5-2.5 2.5z" fill="#66b0f0"/><path d="M312.7 362h-.2l-212.1-.8c-23.2-.1-43-16.8-47-39.7l-35.8-207c-.5-2.7.3-5.4 2-7.5 1.8-2.1 4.3-3.3 7.1-3.3l361.8 1.3c2.7 0 5.3 1.2 7.1 3.3s2.5 4.9 2 7.6l-37.9 206.8c-4.1 22.8-23.9 39.3-47 39.3zm-.1-5h.2c20.7 0 38.4-14.7 42.1-35.1L392.7 115c.2-1.2-.1-2.5-.9-3.5s-2-1.5-3.2-1.5l-361.8-1.3c-1.2 0-2.4.5-3.2 1.5s-1.1 2.2-.9 3.5l35.8 207c3.5 20.5 21.2 35.4 42 35.5z" fill="#66b0f0"/><path d="m253.5 28.7-88-.3c-4.5 0-8.2-3.7-8.1-8.2V8.1c0-4.5 3.7-8.2 8.2-8.1l88 .3c4.5 0 8.2 3.7 8.1 8.2v12.1c0 4.5-3.7 8.1-8.2 8.1z" fill="#f94f46"/><g fill="#66b0f0"><path d="M132.8 359c-1.3 0-2.4-1-2.5-2.3l-23.4-245c-.1-1.4.9-2.6 2.3-2.7s2.6.9 2.7 2.3l23.4 245c.1 1.4-.9 2.6-2.3 2.7h-.2zm74.2-.9c-1.4 0-2.5-1.1-2.5-2.5l2.4-242.7c0-1.4 1.1-2.5 2.5-2.5s2.5 1.1 2.5 2.5l-2.4 242.7c0 1.4-1.1 2.5-2.5 2.5zm75.8.1h-.3c-1.4-.1-2.4-1.4-2.2-2.7l25.1-244.8c.1-1.4 1.4-2.4 2.7-2.2 1.4.1 2.4 1.4 2.2 2.7L285.2 356c-.1 1.3-1.2 2.2-2.4 2.2z"/><path d="m381.6 191.9-348.7-2.4c-1.4 0-2.5-1.1-2.5-2.5s1.1-2.5 2.5-2.5l348.7 2.4c1.4 0 2.5 1.1 2.5 2.5s-1.1 2.5-2.5 2.5zm-17.5 90.7-314.6-1.1c-1.4 0-2.5-1.1-2.5-2.5s1.1-2.5 2.5-2.5l314.6 1.1c1.4 0 2.5 1.1 2.5 2.5s-1.1 2.5-2.5 2.5z"/></g><path d="m406.1 121.8-398-1.4c-4.5 0-8.2-3.7-8.1-8.2v-12.1c0-4.5 3.7-8.2 8.2-8.1l398 1.4c4.5 0 8.2 3.7 8.1 8.2v12.1c0 4.5-3.6 8.1-8.2 8.1z" fill="#f94f46"/></svg></g><g transform="translate(129.0 87.0) rotate(0.0 307.0 460.5) scale(0.45681124916300875 0.45707196029776676)"><svg width="1344.1" height="2015" viewBox="0 0 1344.1 2015"><circle cx="256.4" cy="554.2" fill="#5b2448" r="5.6"/><path d="M704.6 1027.1c27.9 7.5 62.2 25.4 65 39.6.1 7.9-17.9 15.1-66.9 13.2s-379.9-2.2-381.8-39.8c-2.5-49.9 294.1-37.1 383.7-13zm-334.9 670.3c-31.1-55.4-77.8-91.1-96.5-176.9-17.2-78.7-63.5-87-84.4-70-25.1 20.5-13 113.2 180.9 246.9z" fill="#5b2448"/><path d="M613.9 1730.5c-1.7 16.7-52.9 131.8-52.9 131.8l-65 4.3-55.7-51c3.4-11 13.6-150.3 21.6-180.3 10.7-40 156.5 50.6 152 95.2z" fill="#f4ada2"/><path d="m597.6 1776.8-36.1 85.5-65.5 4.3-56.3-45.8s6.4-60.1 6.7-60.9z" fill="#66b0f0"/><path d="m590 1795-145.9-15.1c-.4 3.7-.8 7.6-1.3 11.5l142.5 14.8zm-144.7 21.8s-22.2 119-37 183.3c0 0 215 14.3 286.7 11.7 38.9-1.4 58.2-15.1 67.5-25.2v-.1c0-.1 0-.2-.1-.3-1.8-5-21.3-54.5-90-93.2-10.7-6-45.2-23-85.6-29.7-27.6-4.6-51.3-4.4-68.8-11.2-33.5-1.9-60-35.2-72.7-35.3z" fill="#fff"/><path d="M440.4 1810c30.4 1.8 40.9 28.7 64.6 38.6 15.4 6.5 74.8 8.2 106.8 18.5 1.2.4 2.3.7 3.4 1.1l.9.3c6.8 2.2 13.2 4.6 19.4 7 1.2.5 2.5 1 3.7 1.5 1.7.7 3.5 1.4 5.2 2.2 1.3.6 2.7 1.1 3.9 1.7 1.1.5 2.1 1 3.2 1.5.7.3 1.3.6 2 .9 1.6.7 3.1 1.5 4.6 2.2h.1c.5.3 1.1.5 1.6.8 1.8.9 3.5 1.8 5.2 2.7.4.2.8.4 1.1.6 2.1 1.1 4.1 2.2 6.1 3.3l5.7 3.3c.7.4 1.4.8 2.1 1.3 2.1 1.3 4.2 2.6 6.2 3.9l1.4.9c.5.3.9.6 1.4.9l2.7 1.8c.9.6 1.9 1.3 2.8 1.9.4.3.9.6 1.3.9 3.1 2.2 6 4.4 8.8 6.6 1.2.9 2.4 1.9 3.5 2.8.8.6 1.5 1.2 2.3 1.9.4.3.7.6 1.1.9 1.2 1 2.4 2 3.5 3 .3.2.5.5.8.7 1.7 1.6 3.4 3.1 5.1 4.7.3.3.7.6 1 .9l1.8 1.8 1 1 1.8 1.8.9.9.9.9.9.9c.9.9 1.7 1.8 2.5 2.7l.8.9c.3.3.5.6.8.9.5.6 1.1 1.2 1.6 1.8.3.3.5.6.8.9.5.6 1 1.2 1.5 1.7l1.4 1.7c.5.6.9 1.1 1.4 1.7.3.3.5.6.7.9.9 1.1 1.7 2.2 2.5 3.2.4.5.8 1.1 1.2 1.6s.8 1.1 1.2 1.6.8 1 1.1 1.6c3.4 4.8 6.1 9.2 8.3 13 .2.3.3.6.5.9-63.7 40.7-134.9 14-169.7-2.7-30.1-14.3-40.1 1.8-64.8-7.4-20.6-7.7-23.9-24.6-50.4-29-24.8-4.2-50.2 13.9-50.2 13.9s9.3-82.1 20-136.5z" fill="#5b2448"/><path d="M429.8 1909c-1.1 0-1.8 0-2-.1-1.9-.1-3.3-1.8-3.2-3.7s1.8-3.3 3.7-3.2c.3 0 20.4 1.1 40.8-13.2 3.2-2.2 6-4.4 8.8-6.6 11.5-9 21.4-16.7 45.8-16.7 1.9 0 3.5 1.6 3.5 3.5s-1.6 3.5-3.5 3.5c-22 0-30.2 6.4-41.6 15.2-2.8 2.2-5.7 4.4-9 6.8-12.6 9.1-27.7 14.1-43.3 14.5z" fill="#fff"/><path d="M680.3 1996c-29.7 0-61.9-8.1-95.9-24.3-15.7-7.5-25.3-6.3-35.5-5.1-8.5 1-17.2 2.1-29-2.3-9.3-3.5-15.2-8.7-21-13.7-7.5-6.6-14.6-12.8-29-15.2-23.3-3.9-47.8 13.2-48.1 13.4-1.3.9-3.1.6-4-.7s-.6-3.1.7-4c1.1-.8 26.7-18.7 52.4-14.4 16 2.7 24 9.7 31.8 16.5 5.6 4.9 10.9 9.5 19.2 12.6 10.5 3.9 18.2 3 26.3 2 10.5-1.3 21.5-2.6 38.7 5.6 25.5 12.2 50.1 19.8 73.2 22.6 35 4.3 66.6-2.4 93.8-19.7 1.4-.8 3.2-.4 4 1s.4 3.2-1 4c-22.8 14.4-48.5 21.7-76.6 21.7z" fill="#5b2448"/><path d="M466.1 1991.1c-.8 0-1.6 0-2.4-.1-17.5-.8-30.8-10-30.3-20.9s14.6-18.8 32.1-18 30.8 10 30.3 20.9c-.5 10.4-13.3 18.1-29.7 18.1zm-3-33.2c-12.8 0-23.6 5.5-23.9 12.5-.3 7.4 11 14.2 24.7 14.8s25.7-5.1 26-12.5-11-14.2-24.7-14.8h-2.1z" fill="#6d2a53"/><path d="M674.1 2015c-84.8 0-264.1-11.8-266.1-12-1.6-.1-2.8-1.5-2.7-3.1 0-.2 0-.3.1-.5 14.6-63.4 31.7-185.6 31.9-186.8.2-1.6 1.7-2.7 3.3-2.5s2.7 1.7 2.5 3.3c-.2 1.2-16.8 119.5-31.2 184 27.7 1.8 217.2 13.9 283 11.4 35.3-1.3 54.3-12.9 64.3-23-3.8-9.4-24.5-54.5-88.2-90.4-.6-.4-1.3-.7-2.1-1.2-11.4-6.5-38.1-21.7-83.4-27.3-1.6-.2-2.7-1.6-2.5-3.2s1.6-2.7 3.2-2.5c46.5 5.7 73.9 21.4 85.6 28 .7.4 1.4.8 2 1.2 68.7 38.7 88.9 88.3 91.3 94.6 0 .1.1.1.1.2s.1.2.1.3c.4 1 .2 2.2-.6 3-18.7 20.2-48.1 25.3-69.5 26.1-6.2.3-13.2.4-21.1.4z" fill="#5b2448"/><path d="M576.2 1929.2c-4.8 0-8.7-3.9-8.7-8.7 0-1.5.4-2.9 1.1-4.2.9-1.6 22.4-38.7 69.5-47.5 4.7-.9 9.3 2.2 10.2 6.9s-2.2 9.3-6.9 10.2h-.2c-38.9 7.2-57.3 38.6-57.5 38.9-1.5 2.7-4.4 4.4-7.5 4.4zm30.9 13.6c-4.8 0-8.7-3.9-8.7-8.7 0-1.5.4-3 1.1-4.3.9-1.6 22.1-38.1 68.6-46.7 4.7-.9 9.3 2.3 10.1 7 .9 4.7-2.3 9.3-7 10.1-38.3 7.1-56.5 37.9-56.7 38.2-1.4 2.7-4.3 4.4-7.4 4.4zm35.9 11.3c-4.8 0-8.7-3.9-8.7-8.7 0-1.6.4-3.1 1.2-4.4s20.2-33 62.7-40.3c4.7-.8 9.2 2.4 10 7.1s-2.4 9.2-7.1 10c-34.4 5.9-50.1 31.1-50.7 32.1-1.5 2.6-4.4 4.2-7.4 4.2z" fill="#ffcf2d"/><path d="M341.4 1704.1C323.1 1714.6 214 1767 214 1767l-64.5-73.7 13.7-45.3c.3-.2 40.5-35.9 41.3-36.4 2.2-1.3 90.5-84.3 90.5-84.3s41 94.8 46.4 176.8z" fill="#f4ada2"/><path d="M293.1 1728.6c-.7.3-79.3 41.3-79.3 41.3l-64.2-76.6 20.1-52.3c.3-.2 34.1-29 34.9-29.5z" fill="#66b0f0"/><path d="M267.9 1741.7c3.6-1.9 7-3.6 10.1-5.3-.2-.6-.5-1.2-.9-1.8l-83.7-113.7c-2.8 2.4-5.9 5-8.9 7.5l83.3 113.1c0 .1.1.1.1.2zm-98.4-98.9S61.7 1703 2.9 1735.6c0 0 135.5 172.8 186.3 225.3 27.6 28.5 51 33.8 65 34.1l.1-.1c0-.1.1-.2.1-.3 2.6-4.8 26.8-53.3 9.4-131.7-2.7-12.2-13.3-50-35.7-85.1-15.3-24.1-31.5-41.9-38.3-59.8-8.6-22.8-11.7-65.5-20.3-75.2z" fill="#fff"/><path d="M171.6 1637.9c16.7 18.7 11.3 56.5 19.8 81.3 5.6 16 36.9 49 50.8 80.2.5 1.1 1 2.2 1.5 3.4.1.3.3.6.4.9 2.9 6.6 5.5 13.1 7.9 19.5.5 1.3.9 2.5 1.4 3.8.6 1.8 1.3 3.6 1.9 5.4.5 1.4.9 2.8 1.4 4.2.4 1.1.7 2.3 1.1 3.4l.6 2.1c.5 1.7 1 3.4 1.5 5v.1c.2.6.3 1.2.5 1.7.5 1.9 1 3.9 1.5 5.8.1.4.2.8.3 1.3.6 2.3 1.1 4.6 1.6 6.9.5 2.2 1 4.4 1.4 6.5.2.8.3 1.6.5 2.5.5 2.5.9 4.9 1.3 7.3l.3 1.7c.1.6.2 1.1.3 1.7.2 1.1.3 2.2.5 3.2.2 1.2.3 2.3.4 3.4.1.5.1 1.1.2 1.6.4 3.8.8 7.5 1 11.1.1 1.6.2 3.1.3 4.6.1 1 .1 2 .1 3v1.5c.1 1.6.1 3.2.1 4.7v1.1c0 2.4 0 4.7-.1 7v1.4c0 .9-.1 1.7-.1 2.6 0 .5 0 .9-.1 1.4 0 .9-.1 1.8-.1 2.6l-.1 1.3c0 .4-.1.8-.1 1.3 0 .4-.1.8-.1 1.3-.1 1.3-.2 2.5-.3 3.7l-.1 1.2c0 .4-.1.8-.1 1.2l-.3 2.4c-.1.4-.1.8-.1 1.2-.1.8-.2 1.5-.3 2.3s-.2 1.5-.3 2.2-.2 1.5-.3 2.2c-.1.4-.1.8-.2 1.2-.2 1.4-.5 2.7-.7 4.1-.1.7-.3 1.4-.4 2s-.3 1.3-.4 2-.3 1.3-.4 1.9c-1.3 5.8-2.8 10.9-4.2 15.1-.1.3-.2.7-.3 1-74.2-20.6-102.3-92.8-113.5-130.5-9.6-32.6-28.7-29.2-38.4-54.2-8.2-20.9 2.3-34.9-12.3-58-13.7-21.6-40.1-29.3-40.1-29.3s66.8-43.1 114.8-69.5z" fill="#5b2448"/><path d="M186.8 1749.3c-.9 0-1.7-.3-2.4-1-17.9-16.9-25.6-18.7-41-22.3-4.2-1-8.9-2.1-14.5-3.7-27.1-7.6-43.6-30.8-44.3-31.8-1.1-1.6-.7-3.7.8-4.8 1.6-1.1 3.7-.7 4.8.8.2.2 15.9 22.2 40.5 29.1 5.4 1.5 10.1 2.6 14.2 3.6 15.6 3.6 25 5.8 44.2 24.1 1.4 1.3 1.5 3.5.1 4.9-.5.7-1.4 1.1-2.4 1.1z" fill="#fff"/><path d="M260.6 1982.4c-.3 0-.6-.1-.9-.2-54.4-15.2-94.3-61-115.3-132.4-5-17-12.5-23.5-20.3-30.4-6.6-5.7-13.3-11.6-18-23.6-3.7-9.4-3.8-17.4-3.9-25.2-.1-10.2-.2-19.7-8.2-32.3-12.9-20.3-40.4-26.5-40.7-26.5-1.6-.3-2.6-1.9-2.2-3.4s1.9-2.6 3.4-2.2c1.2.3 30.2 6.7 44.3 29.1 8.8 14 9 24.8 9.1 35.4.1 7.6.2 14.8 3.5 23.1 4.2 10.6 10.1 15.8 16.4 21.3 8.2 7.1 16.6 14.5 22.1 33.1 8.1 27.6 19.1 51.5 32.7 70.8 20.6 29.5 47.1 48.9 78.8 57.7 1.5.4 2.5 2 2 3.6-.3 1.2-1.4 2.1-2.8 2.1z" fill="#5b2448"/><path d="M73.7 1786.5c-8.2 0-18.2-5.5-26.1-15.1-11.3-13.8-13.3-30.1-4.8-37.1 8.6-7 24.1-1.7 35.4 12 5.2 6.4 8.6 13.6 9.7 20.3 1.1 7.3-.6 13.3-4.9 16.8-2.7 2.1-6 3.2-9.3 3.1zm-27.2-47.8c-5.9 4.8-3.3 18 5.6 28.9s21.4 16 27.2 11.2c2.7-2.2 3.7-6.2 2.9-11.4-1.2-6.5-4.2-12.5-8.4-17.5-9-10.8-21.4-15.9-27.3-11.2z" fill="#6d2a53"/><path d="M254.2 1997.8c-28.1-.5-52-19.3-67.1-34.9C136.8 1910.8 2 1739 .6 1737.3c-1-1.3-.8-3.1.5-4.1.1-.1.3-.2.4-.3 58.1-32.2 165.5-95.2 166.5-95.9 1.4-.8 3.2-.3 4 1 .8 1.4.4 3.2-1 4-1.1.6-104.9 61.6-163.7 94.3 17.4 22.1 137.3 174.2 184 222.4 25 25.9 46.8 32.4 61.2 33.1 4.5-9.2 24.7-55.7 8.5-128.5-.2-.7-.3-1.5-.5-2.4-2.8-13.1-9.5-43.7-36.1-81.9-.9-1.3-.5-3.1.9-4 1.3-.8 3-.5 3.9.7 27.3 39.2 34.1 70.6 37 84 .2.8.4 1.6.5 2.3 17.4 78.4-6.4 127.5-9.6 133.5 0 .1-.1.1-.1.2-.1.1-.1.2-.2.3-.5 1.2-1.5 1.8-2.6 1.8z" fill="#5b2448"/><path d="M253.1 1825.3c-1.8 0-3.5-.5-4.9-1.5-32.6-22.5-67.8-14.8-68.1-14.8-4.7 1.1-9.3-1.9-10.4-6.6-1-4.6 1.8-9.2 6.4-10.4 1.7-.4 42.8-9.7 82 17.4 4 2.7 4.9 8.1 2.2 12.1-1.6 2.4-4.3 3.8-7.2 3.8zm10.5 35.3c-1.9 0-3.8-.6-5.3-1.8-31.5-24.3-67.3-17.1-67.7-17-4.7 1-9.3-2-10.3-6.7s2-9.3 6.6-10.3c1.8-.4 43.8-9.2 82 20.3 3.8 2.9 4.5 8.4 1.6 12.2-1.6 2-4.2 3.3-6.9 3.3zm7.1 34.6c-2 0-3.9-.7-5.4-1.9-27.9-22.1-57.8-16.9-59-16.6-4.7.9-9.3-2.2-10.2-6.9s2.2-9.3 6.9-10.2c1.6-.3 38.7-7.1 73.1 20.1 3.8 3 4.4 8.4 1.4 12.2-1.6 2.1-4.2 3.3-6.8 3.3z" fill="#ffcf2d"/><path d="m405.3 1682.3-4.5 2.8c-88.6-22.2-165.5-101.7-165.5-101.7s48.8-45.1 48.9-47.1c58.9 49.4 121.1 146 121.1 146z" fill="#9b3c82"/><path d="M611.4 1739.7c-55.1-.3-109.5-11.5-203.1-89.6-47.8-39.9-95.8-42.4-103.8-7.5-12.9 55.5 71.5 125.7 306.9 97.1z" fill="#5b2448"/><path d="M611.3 1740.1c-65.3 10.1-132.4 6.3-162.8 3 1.6-18 3.1-35.5 4.2-49.3l.1-2.9z" fill="#9b3c82"/><path d="M747.1 996.6c2.1 64 2 120.2 1.9 177.2-.3 121.5 1.9 176.4-8.7 226.3-20.4 96.6-70 130.4-82.5 146.6-9.3 62.3-17.6 116.5-46.3 193.3-86.8 8-151-39.9-202-82.5-47.9-39.9-94.9-51.3-104.9-15.5 4.3-22.9 10.2-46.2 14.8-58.9-24.3-14.1-38.3-30.9-55.2-74.8-25.1-65.1-62.8-68.9-77.1-56.3 36.3-33 165.5-64.4 198.8-61.9 29.2-118.7 16.1-190.7-15-290.6-34.9-111.9-4.4-156.3-21.2-156.3z" fill="#21a0aa"/><path d="M385.9 1390.1c-1.4-.1-3-.1-4.7-.1-14.9 59.2-34.8 110-52.5 155.6-4.7 12.2-9.3 23.9-13.5 35.2 1.3.8 2.7 1.5 4.1 2.3 4.3-11.5 8.9-23.4 13.7-35.8 17.8-45.9 38-97.3 52.9-157.2z" fill="#6ce0dc"/><path d="M495.3 1030.6h-17.7s-17.1-55.6-12.4-98c.7-6.3 27.2-4.3 27.2-4.3z" fill="#5b2448"/><path d="m845.4 639.2 21.2 71.8c87.8-91.3 180.8-162.4 252.7-199.5 118-60.9 200.4-68.5 195.3-53.1-1.7 5.1-6.7 10.9-23.2 22.8 20-8.1 66.5-9.8 7.1 27.6 0 0 59.7-7.1-15.8 32.7 26.6-5.7 25.4 7.1-48.5 51-49 29.1-75.7 57.2-124.2 112.7-116.4 133.1-197.6 275-361 229.1-152.6-42.9-134.9-242.7-128-213.9z" fill="#f4ada2"/><path d="M779.5 694.9c29.8-24.5 69-46.5 69-46.5l-10.1-33.3-76.5 49.8c-.1 0 9.1 28.1 17.6 30z" fill="#9b3c82"/><path d="M768 720c25.4-45.2 73.4-94.9 73.4-94.9s-68.5-230.6-156.5-248.8l72.8 372.1c0 .1 6-20.7 10.3-28.4z" fill="#f94f46"/><path d="M1246.3 495.9c.3.8 1.1 1.2 1.9 1.2.2 0 .5 0 .8-.1.4-.1 20-7.9 42.6-15.9 4-2.9 7.3-5.3 10-7.6-26.4 8.7-52.4 19-54.1 19.7-1.2.5-1.7 1.6-1.2 2.7zm-2.7 32.5c.3.7 1.1 1.1 1.8 1.1.3 0 .6-.1.9-.2.4-.2 24.5-11.4 52.5-20.6 4.4-2.8 8.2-5.3 11.4-7.7-33.1 9.5-65.2 24.4-65.6 24.6-1 .6-1.4 1.8-1 2.8zm4.8 24.7c.3.8 1.1 1.2 1.8 1.2.3 0 .5-.1.8-.2s14.2-5.8 32.2-12.8c8.7-4.6 15.5-8.4 20.8-11.9-25.4 9-54.2 20.8-54.6 21-1 .6-1.5 1.7-1 2.7zM835.7 743.2c.4.3.8.4 1.2.4.6 0 1.2-.3 1.6-.8.2-.2 10.3-12.7 28.1-31.8l-1.3-4.4c-19 20.2-29.7 33.5-29.9 33.7-.7 1-.6 2.2.3 2.9z" fill="#9b3c82"/><path d="M656.5 1555v.6c.1-.8.2-1.6.4-2.3zm36.7-327.8c-.5-51.9-6.4-186.7-8.6-235.6l-5-.7c2.2 48.1 8.1 184.2 8.6 236.4 1.3 141.1-17.4 247.4-30.4 319.3 2-2.2 4.1-4.5 6.3-6.9 13-71.9 30.4-175.7 29.1-312.5z" fill="#6ce0dc"/><path d="M528.3 307.1s117.4 46.6 148.3 27.2c-3.6 22.4 15.6 47.3 29.6 73.3 52.1 107.2 125.7 330.1 63.3 658.6-11.2-23.1-120-34.2-274.1-35.7l-13.7-53.3-33.3 52.3c-38.2-1-110.3-4.6-127.3 9.6-.1-81.9 19.7-546.4 207.2-732z" fill="#f94f46"/><path d="M750.5 29.5c-11.5-6.1-25.3-6.2-37-.4-11.8-41.1-66.1-35-74.1-4.1-36.9-29.3-83.7 11.7-69 46.3 5.4 12.7 13.9 34.6 7.8 55.8 18.1 8.7 51.7 58.7 51.7 58.7s64.3-85.3 96.9-87.5c51.2-3.6 48.1-55.3 23.7-68.8z" fill="#5b2448"/><circle cx="660" cy="505.5" fill="#fcb6b1" r="4.2"/><circle cx="654.6" cy="474.9" fill="#fcb6b1" r="4.2"/><path d="M772.8 221.1c1 11.3-5 23.1-16.9 29.8-30.9 17.5-71.6 8.2-71.6 8.2s-9.9 63-4.2 99.6c0 0-54.1 17.7-151.8-51.4 26.3-32.3 39.3-66 50.2-99.9-21.8-2.8-46.3-24.8-41.1-54.4 3-16.9 21-28.4 38.4-25.8 17.9 2.8 29.7 17.4 43.5 32.2 15.6 16.8 20.2 2.7 26.3-15 3.9-11.4 8.5-24.3 17-31.5 19.2-16.3 64.3-14.7 64.3-14.7s.2 5.9 1.1 13.2c1.1 9.7 3.2 22.1 7.1 26.9 6.9 8.5 13.6 6.9 13.9 12.5.3 4.8-5 10.7-8.1 13.3 2.4 32.8 29.6 30.6 31.9 57z" fill="#f4ada2"/><path d="M601.1 212.1c2.7-.6 5.3-1.4 7.8-2.4 1.4-.6 2.1-2.3 1.5-3.7-.6-1.5-2.3-2.2-3.8-1.6-10.5 4.4-23.4 3.6-29.4 2.8.4.1.8.1 1.2.2-.6 1.9-1.2 3.7-1.8 5.6 5.2.6 14.9 1.3 24.5-.9z" fill="#9b3c82"/><path d="M645.5 232.7c-5.4 3.2-10.1 36.2 19.3 50.2 7.8 3.7 12.9 4 16.1 2.4 1.6-15.3 3.3-26.1 3.3-26.2.1 0-24.8-8-38.7-26.4zm21.1-109.2v-1.8c0-.6.1-1.1.2-1.7.1-1.1.4-2.1.6-3.2.6-2.1 1.4-4.1 2.5-6 2.2-4 5.3-7.4 9.1-10 2-1.4 4.1-2.5 6.4-3.2 2.3-.8 4.7-1.2 7.2-1.3 2.4-.1 4.8.3 7 1s4.3 1.9 6 3.4c2.3 2 2.4 5.5.4 7.8-.4.4-.8.8-1.3 1l-.9.5c-1.7 1-3.2 1.6-4.5 2.4-1.3.6-2.5 1.3-3.5 1.9l-6 3.3c-2 1.2-4.2 2.6-6.6 4.2l-3.8 2.6c-.7.5-1.3.9-2 1.4-.3.2-.7.5-1.1.7-.3.2-.7.4-1.1.6l-3.7.7c-2.3.4-4.6-1.1-5-3.5.2-.2.1-.5.1-.8zm22.6 16c4.8-2 16.5-6.5 26.7-14.3 1.4-1.1 3.4-.8 4.5.6 2.8 3.7 6.2 10.5-1.4 14.9-9.3 5.4-26 5.2-30.3 1.5-.7-.6-.7-1.7-.1-2.3.2-.1.4-.3.6-.4z" fill="#5b2448"/><circle cx="667.4" cy="187.4" fill="#e57281" transform="matrix(.9762 -.217 .217 .9762 -24.7601 149.2915)" r="21.7"/><path d="M732.7 194.7c-1.4 1.4-3.1 2.6-5 3.3-1.8.7-3.8 1.1-5.7 1.3-6 .5-12-1.7-16.2-6.1-1.4-1.4-2.5-3.1-3.4-4.9-1.8-3.6-2.3-7.7-1.3-11.6.3-1.1 1.5-1.8 2.6-1.5.9.2 1.5 1 1.6 2v.1c.2 4.3 2 8.3 5.1 11.2 1 1 2.1 1.8 3.3 2.5 2.5 1.3 5.3 2.1 8.1 2.1 2.8.2 5.7-.4 8.2-1.7l.1-.1c1-.6 2.3-.2 2.9.8.5 1 .3 2-.3 2.6zm-133.8-12.5c-1.5.3-2.9-.5-3.4-2-8.8-28.1-32.1-26.6-33.1-26.6-1.6.1-3-1.1-3.1-2.7s1.1-2.9 2.6-3.1c.3 0 28.8-2 39.1 30.6.5 1.5-.4 3.2-1.9 3.6-.1.2-.2.2-.2.2z" fill="#9b3c82"/><path d="M240.1 562c-18.7-7.6-93.7-28.8-113.6-6.7-16.4 18.3 1.4 96.1 282.3 129.5 0 0-55.7-76.8-168.7-122.8z" fill="#5b2448"/><path d="M521.1 334.3s-110.8-57-288.8 185.8c-58.9 80.3-103.1 175.2-122.3 493.5-4.6 75.8-33.7 96.3-51.8 132.2-14.3 2-36.5 26.1-40 67.9-2.2 26.7 12.2 36.2 24.8 33.5 0 0 4 20 31.6 13.5 0 0 11.5 21.1 34 9.2 0 0 16.2 42.8 87.9-71.3C240.8 1128.1 309.2 971 347.9 783c17.8-37.3 249.4-373.1 173.2-448.7z" fill="#f4ada2"/><path d="M401.3 694.9s-108.5-77.5-216.2-96.4c6.8-17.5 29.6-52.5 38-65.5 22.9 5.7 59.1 55.2 80.6 65 87.7 39.9 97.6 96.9 97.6 96.9z" fill="#9b3c82"/><path d="M545.4 342.3c-29.5-35.8-204-85.2-421 215.8 21.4-32.2 163.1 32.3 276.9 136.8 0 0 210.7-276.6 144.1-352.6z" fill="#f94f46"/><g fill="#9b3c82"><path d="M34.5 1200.5c-.8.7-.9 2-.2 2.8.4.4.9.7 1.5.7.5 0 1-.2 1.3-.5s8.6-7.9 12.4-24.6c3-13.1 6.5-24.9 8.7-33.1-1.4.2-3.2.7-4.8 1.4-2.1 8.1-5 19-7.8 30.9-3.4 15.3-11 22.4-11.1 22.4zm42.9 9c.4-1 0-2.2-1-2.6s-2.2 0-2.6 1c-9.7 22.2-22.9 33.7-30.8 39.3.2.7.6 2.2 1.5 3.9 8.2-5.6 22.4-17.6 32.9-41.6zm29.5 6.9c-1-.4-2.2.1-2.6 1.1-7.8 20.1-20.9 34.2-29.7 43.2.5.8 1.3 2.1 2.4 3.4 9.1-9.2 22.7-24 31-45.2.4-.9-.1-2.1-1.1-2.5zm31.9 9.1c-1-.4-2.2.1-2.6 1.1-9 22.1-20.2 35.6-27.6 43.3.4.6 1 2.3 2.2 3.5 7.7-7.9 19.9-22.4 29.1-45.3.5-1.1 0-2.2-1.1-2.6zm148.1-466.9c-.3 1.1.3 2.2 1.3 2.5 13.1 4 32.7 11.7 58.8 26.3.3-1.4.5-2.8.8-4.1-25.9-14.3-45.4-21.9-58.4-26-1-.3-2.1.3-2.5 1.3z"/></g><path d="M538.4 357.6c6.9 25.1 6.3 73.8-35.3 163.4-27 58.1-66.1 121.4-104.7 169.4-.9 1.1-.7 2.6.4 3.5.5.4 1 .6 1.6.6.7 0 1.5-.3 1.9-.9 70.2-87.2 163.6-254.7 140.9-337.2-1.2-4.4-2.8-8.6-4.6-12.4 10.2 11.3 20.5 25.2 30.6 38.9 22.1 29.9 43 58.4 62.5 58.4 2 0 4-.3 6-.9 4.5-1.5 8-4.6 10.3-9.4 4.3-9 4.6-23.8.8-44.1l21.1 82.3c.5 2.4 1.1 4.9 1.7 7.7 3.6 15.7 8.4 37.2-.1 48.3-3.7 4.8-9.5 7.3-17.9 7.7-1.1 0-2 1-1.9 2.1 0 1.1.9 1.9 2 1.9h.1c9.5-.4 16.5-3.5 20.9-9.3 9.6-12.6 4.5-35.1.8-51.6-.6-2.7-1.2-5.3-1.7-7.6v-.1l-20.4-79.8c12.9 27.7 27.5 46.3 36.8 48.3.6.1 1.1.2 1.7.2 1.9 0 3.6-.8 4.8-2.2 4.2-5.1 3-18.6-3.2-39.3 2.1 3.8 4.4 7.8 6.9 12 41.5 80.1 71.7 180.4 85.9 284.4 1.5-2 3-3.9 4.3-5.7-14.5-102.7-44.6-201.7-85.7-281 0 0 0-.1-.1-.1-11.6-20-19.4-35.3-24.6-47-1.2.4-2.9.8-5 1.1 1.7 3.9 3.7 8.1 6 12.7 18.8 48.9 13.8 58.7 12.5 60.3-.4.5-1.1 1-2.6.7-4.1-.9-12.8-8.2-23.4-25.9-8.1-13.5-15.6-30-21.6-47.6-2.7-.3-5.5-.7-8.4-1.2 6.4 21.3 14.4 55.2 6.8 70.9-1.8 3.8-4.4 6.2-7.9 7.4-1.5.5-3.1.7-4.7.7-17.5 0-38.8-28.8-59.3-56.7-15.3-20.8-31.1-42.1-46.7-54.2-2.8-2.6-5.8-4.9-9.1-7-1.1 1.2-2.3 2.5-3.4 3.8 12.3 7.4 20.7 19 25 34.5z" fill="#fcb6b1"/><path d="M697.6 50.7c-.1 1.1.6 2.1 1.7 2.2h.3c1 0 1.9-.7 2-1.8 0-.2 2-14.5 12.7-22.4-.3.1-.5.2-.8.4-.4-1.3-.8-2.6-1.3-3.8-12.3 8.8-14.6 25.2-14.6 25.4z" fill="#9b3c82"/><path d="M1168.2 581.1c30.2-29.1 93.4-89.2 80.6-95s-93.9 31.5-93.9 31.5z" fill="#f4ada2"/><path d="M1168.3 583.1c-.5 0-1.1-.2-1.5-.7-.7-.8-.7-2.1.1-2.8 57.6-52.7 82.7-84.1 81.6-91-.1-.4-.2-.6-.5-.7-8.7-4-61.2 17.2-92.3 31.5-1 .5-2.2 0-2.7-1s0-2.2 1-2.7c8.4-3.9 82.4-37.6 95.6-31.5 1.6.7 2.6 2 2.8 3.7.6 4-1.8 12.7-29.7 42.5-20.2 21.6-44 43.6-53.2 52.1-.3.4-.8.6-1.2.6z" fill="#9b3c82"/></svg></g><g transform="translate(137.0 583.0) rotate(0.0 52.0 45.0) scale(0.45614035087719296 0.45988758303525806)"><svg width="228" height="195.7" viewBox="0 0 228 195.7"><path d="M178.5 112.9c-71.6 114.1-87.9 71.3-87.9 71.3-22.5 11.9-34-9.2-34-9.2C29 181.5 25 161.5 25 161.5c-7.3 1.5-15.1-1-20.1-8.4-6.7-10.1-4-23.7 5.6-31.1 26.6-20.2 21-62.1 29.6-62 5.1-10.1 11.1-19 17.1-28.2 15.4-23.6 55.3-20 101.3 8 33.2 20.2 38.4 43.8 20 73.1z" fill="#f4ada2"/><g fill="#9b3c82"><path d="M16.5 114.8c-.8.7-.9 2-.2 2.8.4.4.9.7 1.5.7.5 0 1-.2 1.3-.5s8.6-7.9 12.4-24.6c3-13.1 6-24.8 8.2-33-1.4.2-2.9.7-4.5 1.4-2.1 8.1-4.8 18.9-7.6 30.8-3.4 15.3-11 22.3-11.1 22.4zm42.9 9c.4-1 0-2.2-1-2.6s-2.2 0-2.6 1c-9.8 22.2-23 33.7-30.8 39.3.2.7.6 2.2 1.5 3.9 8.2-5.7 22.4-17.6 32.9-41.6zm29.5 6.9c-1-.4-2.2.1-2.6 1.1-7.8 20.1-20.9 34.2-29.7 43.2.5.8 1.2 1.9 2.3 3.2 9.1-9.2 22.9-23.8 31.2-45 .3-.9-.2-2.1-1.2-2.5zm32 9c-1-.4-2.2.1-2.6 1.1-9 22.2-20.3 35.7-27.7 43.4.3.7.9 1.9 2.2 3.5 7.7-7.8 19.8-21.9 29.3-45.3.3-1.1-.2-2.3-1.2-2.7z"/></g></svg></g><g transform="translate(680.0 240.0) rotate(0.0 36.0 75.5) scale(0.46242774566473993 0.46248085758039814)"><svg width="155.7" height="326.5" viewBox="0 0 155.7 326.5"><path d="M147.8 292.3s-.1-74.8 0-123.8c0-48.3-13.4-49.3-22.2-65.5-8.4-15.5-8.4-39.5-8.4-39.5v-49H36.8v49s0 24-8.4 39.5c-8.8 16.1-22.3 17.2-22.2 65.5.1 49 0 123.8 0 123.8S3.5 324.5 37 324.5h80c33.4 0 30.8-32.2 30.8-32.2z" fill="#fff"/><path d="M116.9 326.5H37c-10.7 0-19-3.1-24.7-9.3-9-9.8-8.3-23.5-8.2-24.9V168.5c0-37.1 7.9-47 15.6-56.6 2.5-3.1 4.8-6 6.9-9.8 8.1-14.8 8.2-38.3 8.2-38.5v-49c0-1.1.9-2 2-2h80.4c1.1 0 2 .9 2 2v49c0 .2.1 23.7 8.2 38.5 2.1 3.8 4.4 6.7 6.9 9.8 7.7 9.6 15.6 19.5 15.6 56.6v123.8c.1 1.4.8 15.1-8.2 24.9-5.8 6.2-14.1 9.3-24.8 9.3zM38.8 16.6v47c0 1-.1 24.7-8.7 40.4-2.2 4.1-4.8 7.3-7.3 10.4-7.2 9.1-14.7 18.4-14.7 54.1v124c0 .1-1 13.2 7.1 22 4.9 5.3 12.2 8 21.7 8h80c9.5 0 16.8-2.7 21.7-8 8.1-8.7 7.1-21.8 7.1-22v-124c0-35.7-7.5-45-14.7-54.1-2.5-3.1-5-6.3-7.3-10.4-8.6-15.7-8.7-39.4-8.7-40.4v-47z" fill="#66b0f0"/><path d="M122.5 29.1H31.4c-3.8 0-6.9-3.1-6.9-6.9V6.9c0-3.8 3.1-6.9 6.9-6.9h91.1c3.8 0 6.9 3.1 6.9 6.9v15.3c0 3.8-3.1 6.9-6.9 6.9z" fill="#ffcf2d"/><path d="M147.8 171.5H6.1v81.7h141.6c.1-24.6.1-56.2.1-81.7z" fill="#66b0f0"/></svg></g><g transform="translate(656.0 308.0) rotate(0.0 22.5 22.5) scale(0.45135406218655966 0.45135406218655966)"><svg width="99.7" height="99.7" viewBox="0 0 99.7 99.7"><path d="M15.3 97.7c30.2-29.1 93.4-89.2 80.6-95S2 34.2 2 34.2z" fill="#f4ada2"/><path d="M15.3 99.7c-.5 0-1.1-.2-1.5-.7-.7-.8-.7-2.1.1-2.8C71.6 43.4 96.7 12 95.6 5.2c-.1-.4-.2-.6-.5-.7C86.4.5 33.9 21.7 2.8 36c-1 .5-2.2 0-2.7-1s0-2.2 1-2.7C9.6 28.5 83.5-5.2 96.8.8c1.6.7 2.6 2 2.8 3.7.6 4-1.8 12.7-29.7 42.5-20.2 21.6-44 43.6-53.2 52.1-.4.4-.9.6-1.4.6z" fill="#9b3c82"/></svg></g></svg>