<svg enable-background="new 0 0 2458.813 1575.781" height="1576" viewBox="0 0 2458.813 1575.781" width="2459" xmlns="http://www.w3.org/2000/svg" xmlns:xlink="http://www.w3.org/1999/xlink"><linearGradient id="a" gradientTransform="matrix(.7255 .0717 -.0983 .9952 1742.2065 -323.191)" gradientUnits="userSpaceOnUse" x1="-1776.171" x2="-2125.0801" y1="1413.4368" y2="1417.1339"><stop offset=".095" stop-color="#fff200"/><stop offset=".7515" stop-color="#ebac00"/><stop offset=".9944" stop-color="#b38509"/></linearGradient><linearGradient id="b" gradientTransform="matrix(1 -.00097565 .00097565 1 -4.7126 7.1969)" gradientUnits="userSpaceOnUse" x1="304.9038" x2="184.7495" y1="573.1875" y2="574.4607"><stop offset=".0056" stop-color="#b38509"/><stop offset=".2485" stop-color="#ebac00"/><stop offset=".905" stop-color="#fff200"/></linearGradient><linearGradient id="c"><stop offset=".0056" stop-color="#cfade9"/><stop offset=".9441" stop-color="#8170d6"/></linearGradient><linearGradient id="d" gradientTransform="matrix(.7255 .0724 -.0993 .9951 1747.241 -328.6821)" gradientUnits="userSpaceOnUse" x1="-1429.2921" x2="-1859.8994" xlink:href="#c" y1="1300.0769" y2="1333.3041"/><linearGradient id="e" gradientUnits="userSpaceOnUse" x1="534.1843" x2="372.7037" y1="431.9589" y2="429.0485"><stop offset=".0559" stop-color="#8170d6"/><stop offset=".9944" stop-color="#cfade9"/></linearGradient><linearGradient id="f"><stop offset=".0615" stop-color="#fff4db"/><stop offset=".9944" stop-color="#e8d5ae"/></linearGradient><linearGradient id="g" gradientTransform="matrix(.9951 .0993 -.0993 .9951 428.6734 -463.3102)" gradientUnits="userSpaceOnUse" x1="225.865" x2="31.3164" xlink:href="#f" y1="1022.4775" y2="1021.9456"/><linearGradient id="h" gradientTransform="matrix(.9951 .0993 -.0993 .9951 428.6734 -463.3102)" gradientUnits="userSpaceOnUse" x1="225.865" x2="31.3164" xlink:href="#f" y1="1751.0447" y2="1750.5127"/><linearGradient id="i"><stop offset="0" stop-color="#8a99ad"/><stop offset=".9944" stop-color="#c2d0db"/></linearGradient><linearGradient id="j" gradientTransform="matrix(-1 0 0 1 18622.0039 -8397.1807)" gradientUnits="userSpaceOnUse" x1="17843.5273" x2="16475.6094" xlink:href="#i" y1="9232.3164" y2="8960.9043"/><linearGradient id="k" gradientTransform="matrix(0 1 1 -0 3699.699 -3699.699)" gradientUnits="userSpaceOnUse" x1="4477.8267" x2="4468.4253" y1="-1879.3813" y2="-3143.6084"><stop offset="0" stop-color="#eef5ff"/><stop offset="1" stop-color="#66a4ed"/></linearGradient><linearGradient id="l" gradientUnits="userSpaceOnUse" x1="2032.7131" x2="557.486" y1="588.5641" y2="833.9003"><stop offset=".2012" stop-color="#fff2f8"/><stop offset=".897" stop-color="#c4b2bb"/></linearGradient><linearGradient id="m" gradientUnits="userSpaceOnUse" x1="1586.4652" x2="1012.1936" y1="1125.3219" y2="1347.4003"><stop offset=".2012" stop-color="#ffedf5"/><stop offset=".9685" stop-color="#b3a2aa"/></linearGradient><linearGradient id="n" gradientUnits="userSpaceOnUse" x1="924.9205" x2="611.558" y1="303.6659" y2="590.0364"><stop offset=".0056" stop-color="#b3a2aa"/><stop offset=".7988" stop-color="#fff0f7"/></linearGradient><linearGradient id="o"><stop offset=".0056" stop-color="#c2d0db"/><stop offset="1" stop-color="#8a99ad"/></linearGradient><linearGradient id="p" gradientUnits="userSpaceOnUse" x1="1534.1129" x2="1006.7827" xlink:href="#o" y1="737.5077" y2="745.4963"/><linearGradient id="q" gradientUnits="userSpaceOnUse" x1="1421.4836" x2="1116.2076" y1="949.766" y2="955.081"><stop offset=".0615" stop-color="#ff7676"/><stop offset=".9944" stop-color="#c61a1a"/></linearGradient><linearGradient id="r" gradientUnits="userSpaceOnUse" x1="1705.0404" x2="982.8981" xlink:href="#o" y1="347.3694" y2="358.3093"/><linearGradient id="s"><stop offset="0" stop-color="#f9673a"/><stop offset=".9944" stop-color="#ff966c"/></linearGradient><linearGradient id="t" gradientUnits="userSpaceOnUse" x1="1458.125" x2="2083.4836" xlink:href="#s" y1="1392.0491" y2="984.7764"/><linearGradient id="u" gradientUnits="userSpaceOnUse" x1="1857.9597" x2="2225.499" xlink:href="#s" y1="1150.9614" y2="1116.1398"/><linearGradient id="v" gradientUnits="userSpaceOnUse" x1="1909.9849" x2="2203.9578" xlink:href="#s" y1="1150.1276" y2="1112.1537"/><linearGradient id="w" gradientTransform="matrix(-1 0 0 1 10637.084 0)" gradientUnits="userSpaceOnUse" x1="8989.7539" x2="8244.6064" xlink:href="#i" y1="1399.4349" y2="1410.7233"/><linearGradient id="x" gradientTransform="matrix(-1 0 0 1 1103.5594 -1083.8932)" gradientUnits="userSpaceOnUse" x1="-620.9888" x2="-1009.267" y1="1650.0701" y2="1649.0085"><stop offset=".0056" stop-color="#76964a"/><stop offset=".5999" stop-color="#9ac460"/></linearGradient><linearGradient id="y" gradientTransform="matrix(.9983 -.058 .058 .9983 -68.0667 651.9545)" gradientUnits="userSpaceOnUse" x1="2022.0573" x2="1852.4081" y1="-29.3769" y2="38.6535"><stop offset=".095" stop-color="#fff200"/><stop offset=".626" stop-color="#f4af03"/><stop offset=".9944" stop-color="#d19500"/></linearGradient><linearGradient id="z"><stop offset="0" stop-color="#466e61"/><stop offset=".9944" stop-color="#1c2f2b"/></linearGradient><linearGradient id="A" gradientUnits="userSpaceOnUse" x1="1842.2043" x2="1815.0653" xlink:href="#z" y1="520.5591" y2="548.3983"/><linearGradient id="B" gradientUnits="userSpaceOnUse" x1="1898.5905" x2="1871.6291" xlink:href="#z" y1="520.6055" y2="548.2623"/><linearGradient id="C" gradientUnits="userSpaceOnUse" x1="1942.7668" x2="1784.0405" xlink:href="#c" y1="530.7977" y2="527.937"/><linearGradient id="D" gradientUnits="userSpaceOnUse" x1="347.4457" x2="708.4967" y1="1175.1956" y2="832.7883"><stop offset="0" stop-color="#d375a9"/><stop offset=".9944" stop-color="#ffc2d5"/></linearGradient><linearGradient id="E"><stop offset=".0056" stop-color="#e8d5ae"/><stop offset=".9385" stop-color="#fff4db"/></linearGradient><linearGradient id="F" gradientUnits="userSpaceOnUse" x1="404.9543" x2="505.2694" xlink:href="#E" y1="905.2988" y2="905.2988"/><linearGradient id="G" gradientUnits="userSpaceOnUse" x1="504.0955" x2="383.9007" xlink:href="#f" y1="979.803" y2="979.4744"/><linearGradient id="H" gradientUnits="userSpaceOnUse" x1="708.6511" x2="608.3364" xlink:href="#f" y1="905.4381" y2="905.1638"/><linearGradient id="I" gradientUnits="userSpaceOnUse" x1="707.3047" x2="587.1099" xlink:href="#f" y1="979.743" y2="979.4144"/><linearGradient id="J" gradientUnits="userSpaceOnUse" x1="438.8225" x2="674.6104" xlink:href="#E" y1="842.0625" y2="842.0625"/><linearGradient id="K" gradientUnits="userSpaceOnUse" x1="538.2982" x2="575.1605" xlink:href="#E" y1="841.9547" y2="841.9547"/><path d="m266.43 1440.887-186.868-17.202c-2.056-.203-3.559-2.035-3.355-4.091l94.937-960.781c.203-2.056 2.035-3.559 4.091-3.355l187.898 18.607c2.056.203 3.559 2.035 3.355 4.091l-95.967 959.376c-.203 2.056-2.035 3.558-4.091 3.355z" fill="url(#a)"/><circle cx="256.596" cy="580.598" fill="url(#b)" r="48.12"/><path d="m272.476 1231.239-158.793-15.691c-1.652-.163-3.123 1.043-3.286 2.695l-9.667 97.828c-.163 1.651 1.043 3.123 2.695 3.286l158.793 15.691c1.651.163 3.123-1.043 3.286-2.695l9.667-97.828c.163-1.651-1.044-3.123-2.695-3.286z" fill="#fff"/><path d="m495.128 1440.885-218.97-18.265c-2.273-.227-3.932-2.254-3.705-4.527l112.835-1130.633c.227-2.273 2.253-3.932 4.527-3.705l218.883 21.844c2.273.227 3.932 2.253 3.705 4.527l-112.748 1127.053c-.227 2.274-2.254 3.932-4.527 3.706z" fill="url(#d)"/><circle cx="485.643" cy="431.084" fill="url(#e)" r="56.606"/><path d="m564.269 603.695-187.833-18.745c-1.651-.165-2.856-1.637-2.692-3.288l4.568-45.773c.165-1.651 1.637-2.856 3.288-2.692l187.833 18.745c1.651.165 2.856 1.637 2.692 3.288l-4.568 45.773c-.165 1.652-1.637 2.857-3.288 2.692z" fill="url(#g)"/><path d="m491.919 1328.661-187.833-18.745c-1.651-.165-2.856-1.637-2.692-3.288l4.568-45.773c.165-1.651 1.637-2.856 3.288-2.692l187.833 18.745c1.651.165 2.856 1.637 2.692 3.288l-4.568 45.773c-.165 1.651-1.637 2.857-3.288 2.692z" fill="url(#h)"/><path d="m601.238 134.489v1276.467c0 16.588 13.441 30.05 30.069 30.05h923.474c16.598 0 30.069-13.462 30.069-30.05v-1276.467c0-16.588-13.471-30.05-30.069-30.05h-923.474c-16.627-0-30.069 13.462-30.069 30.05z" fill="url(#j)"/><path d="m651.328 143.924h352.988v24.407c0 8.303 6.731 15.034 15.034 15.034h155.76c8.303 0 15.034-6.731 15.034-15.034v-24.407h345.779c10.97 0 19.862 8.893 19.862 19.862v1216.688c0 11.625-9.424 21.048-21.048 21.048h-883.409c-11.625 0-21.048-9.424-21.048-21.048v-1215.502c0-11.624 9.423-21.048 21.048-21.048z" fill="url(#k)"/><path d="m801.744 268.737c-39.27 0-71.105 31.835-71.105 71.105v164.393c0 18.859 15.288 34.147 34.147 34.147h96.977l-5.423 708.274c-.443 57.86 46.339 105.001 104.2 105.001h590.483l33.025-20.065v-1062.855c.013.003-743.034 0-782.304 0z" fill="#5d84b6"/><path d="m1634.436 317.651c0-45.199-36.641-81.839-81.839-81.839h-722.56l18.563 41.642 52.559 117.946-1.003 850.34c0 39.27 31.835 71.105 71.105 71.105 39.27 0 71.612-31.283 71.612-70.554l591.563-85.565z" fill="url(#l)"/><path d="m1681.575 1111.107c18.819.058 34.043 15.331 34.042 34.15l.032 89.747c0 45.198-36.641 81.839-81.839 81.839h-662.549s26.517-.185 48.684-20.22c21.164-19.129 22.455-45.855 22.455-45.855l-.026-107.375c-.005-18.904 15.349-34.214 34.253-34.156z" fill="url(#m)"/><path d="m758.741 471.346v-164.393c0-39.27 31.835-71.105 71.105-71.105 39.27 0 71.105 31.835 71.105 71.105v198.541h-108.063c-18.859 0-34.147-15.289-34.147-34.148z" fill="url(#n)"/><path d="m829.846 235.848c-6.477 0-12.745.883-18.708 2.505 30.191 8.215 52.397 35.807 52.397 68.6v198.541h37.416v-198.541c0-39.27-31.834-71.105-71.105-71.105z" fill="#a6969d" opacity=".75"/><g fill="none" stroke-width="10"><path d="m1528.34 1017.187h-517.441" stroke="url(#p)" stroke-linecap="round" stroke-linejoin="round" stroke-miterlimit="10"/><path d="m1113.171 622.84h411.816" stroke="url(#p)" stroke-linecap="round" stroke-linejoin="round" stroke-miterlimit="10"/><path d="m1113.171 549.799h411.816" stroke="url(#p)" stroke-linecap="round" stroke-linejoin="round" stroke-miterlimit="10"/><path d="m1015.569 465.771h514.427" stroke="url(#p)" stroke-linecap="round" stroke-linejoin="round" stroke-miterlimit="10"/><path d="m1113.171 693.732h411.816" stroke="url(#p)" stroke-linecap="round" stroke-linejoin="round" stroke-miterlimit="10"/><path d="m1015.569 760.934h509.418" stroke="url(#p)" stroke-linecap="round" stroke-linejoin="round" stroke-miterlimit="10"/><path d="m1015.368 834.969h509.49" stroke="url(#p)" stroke-linecap="round" stroke-linejoin="round" stroke-miterlimit="10"/></g><path d="m1391.483 1011.698c-15.868.001-26.903-13.029-33.064-23.104-1.253 2.214-2.912 4.53-5.108 6.804-10.332 10.702-27.896 16.151-52.207 16.195-19.963.062-37.049-7.06-50.709-21.093-.614-.631-1.216-1.272-1.809-1.924-.276.458-.559.912-.845 1.36-9.086 14.207-22.412 21.723-38.537 21.735-.007 0-.018 0-.026 0-12.697.001-26.798-6.953-38.14-17.274-16.249 10.261-34.607 17.219-48.933 17.219-2.761 0-5-2.239-5-5s2.239-5 5-5c11.789 0 27.499-5.954 41.754-14.647-6.703-7.9-11.708-16.977-13.719-26.117-3.931-17.864 4.182-32.895 22.258-41.238 12.902-5.956 28.682-.9 35.174 11.27 4.934 9.247 3.904 20.199-2.978 31.67-5.497 9.163-14.555 18.263-25.143 26.092 9.155 7.818 20.057 13.026 29.725 13.026h.02c12.726-.009 22.86-5.77 30.121-17.123.91-1.422 1.758-2.901 2.551-4.432-14.783-21.227-20.967-49.533-20.357-70.692.252-8.729 6.167-15.769 14.72-17.517 8.577-1.753 16.804 2.413 20.471 10.366 5.928 12.856 8.034 49.345-3.261 76.618 1.31 1.608 2.684 3.156 4.121 4.633 11.67 11.989 26.269 18.068 43.391 18.068h.133c20.989-.039 36.48-4.5 44.797-12.902 6.376-6.441 6.396-12.986 6.394-13.261-.081-2.44 1.612-4.552 4.005-5.037 2.393-.486 4.787.86 5.661 3.14.109.283 11.377 28.89 30.284 28.151 12.397-.482 18.953-7.997 19.951-15.232.377-2.736 2.901-4.648 5.636-4.27 2.735.377 4.647 2.901 4.27 5.636-1.855 13.445-13.973 23.256-29.47 23.858-.378.015-.757.022-1.131.022zm-207.69-84.562c-2.445 0-4.91.499-7.204 1.558-13.829 6.383-19.598 16.76-16.682 30.009 1.74 7.909 6.266 15.872 12.276 22.756 10.149-7.283 18.862-15.759 23.836-24.05 5.047-8.413 5.966-15.754 2.73-21.819-2.839-5.322-8.833-8.454-14.956-8.454zm56.293-25.617c-.638 0-1.262.067-1.853.188-3.159.646-6.585 3.088-6.726 8.007-.509 17.639 4.071 40.632 14.973 59.127 7.617-23.929 5.329-53.294 1.141-62.378-1.689-3.661-4.743-4.944-7.535-4.944z" fill="url(#q)"/><path d="m1522.795 376.171h-505.291c-3.77 0-6.826-3.056-6.826-6.826v-30.775c0-3.77 3.056-6.826 6.826-6.826h505.291c3.77 0 6.826 3.056 6.826 6.826v30.775c-.001 3.77-3.057 6.826-6.826 6.826z" fill="url(#r)"/><path d="m1555.787 1301.631 27.608-5.197 1.454 60.964-29.062 10.408z" fill="#656d7d" opacity=".8"/><path d="m1461.64 1401.523-109.759 39.308h-95.163c-22.098 0-40.121-17.442-41.055-39.31z" fill="#656d7d" opacity=".8"/><path d="m1215.663 1401.521c-.025-.591-.038-1.186-.038-1.783 0-20.023 14.431-37.131 34.167-40.505l305.995-57.602v66.175l-94.147 33.717z" fill="#5d84b6" opacity=".7"/><path d="m1312.396 1437.329 789.43-280.783-34.153-84.736-793.835 258.552c-30.35 10.473-45.728 44.337-33.61 74.403 11.52 28.581 43.581 43.272 72.168 32.564z" fill="url(#t)"/><path d="m1860.893 1139.159 4.897 100.679 70.681-24.346-41.326-87.441z" fill="#c95c38"/><path d="m1964.761 1367.238 266.335-98.843-138.016-366.105-266.335 98.844z" fill="url(#u)"/><path d="m1836.736 1018.293 259.925-96.627c10.6-3.94 15.975-15.749 11.986-26.33-3.963-10.513-15.678-15.846-26.209-11.931l-259.925 96.627c-10.6 3.941-15.975 15.749-11.986 26.33 3.963 10.513 15.678 15.846 26.209 11.931z" fill="url(#v)"/><path d="m1975.403 1386.124 259.925-96.627c10.6-3.94 15.975-15.749 11.986-26.33-3.963-10.513-15.678-15.846-26.21-11.931l-259.925 96.627c-10.6 3.941-15.975 15.749-11.986 26.33 3.964 10.513 15.679 15.846 26.21 11.931z" fill="url(#v)"/><path d="m1850.023 1370.914h491.343c4.604 0 8.611 3.147 9.702 7.62l12.314 50.466c1.535 6.29-3.229 12.355-9.702 12.355h-515.971c-6.474 0-11.237-6.065-9.703-12.355l12.314-50.466c1.092-4.473 5.099-7.62 9.703-7.62z" fill="url(#w)"/><path d="m1672.163 652.438-2.129-184.952c0-8.353 6.765-15.125 15.112-15.125h298.496c8.346 0 15.112 6.772 15.112 15.125v226.48c0 8.353-6.766 15.125-15.112 15.125h-277.413l-85.513 23.865z" fill="#a6969d" opacity=".75"/><path d="m1693.477 619.098v-183.479c0-8.353 6.765-15.125 15.112-15.125h298.496c8.346 0 15.112 6.772 15.112 15.125v234.044c0 8.353-6.766 15.125-15.112 15.125h-267.328l-105.788 27.396z" fill="url(#x)"/><circle cx="1846.294" cy="554.648" fill="#5f763b" opacity=".75" r="97.788"/><circle cx="1863.568" cy="545.394" fill="url(#y)" r="97.788"/><path d="m1862.925 607.056c-16.539 0-32.385-5.678-44.62-15.987-2.112-1.779-2.381-4.934-.602-7.045 1.78-2.112 4.934-2.381 7.045-.602 10.434 8.792 23.992 13.634 38.176 13.634 14.185 0 27.744-4.843 38.178-13.636 2.112-1.779 5.266-1.51 7.045.602s1.51 5.266-.602 7.045c-12.233 10.311-28.081 15.989-44.62 15.989z" fill="#00333b"/><ellipse cx="1835.304" cy="527.637" fill="url(#A)" rx="8.419" ry="17.332"/><ellipse cx="1891.736" cy="527.637" fill="url(#B)" rx="8.112" ry="17.332"/><circle cx="1820.902" cy="529.367" fill="none" r="36.881" stroke="url(#C)" stroke-miterlimit="10" stroke-width="10"/><circle cx="1905.905" cy="529.367" fill="none" r="36.881" stroke="url(#C)" stroke-miterlimit="10" stroke-width="10"/><path d="m1857.783 529.367h9.408" fill="none" stroke="url(#C)" stroke-miterlimit="10" stroke-width="10"/><path d="m601.238 1075.757 29.042 15.635v-269.815h-29.042z" fill="#656d7d" opacity=".8"/><path d="m536.948 1064.389h43.174l21.116 11.368v-254.18h-40z" fill="#a6969d" opacity=".75"/><path d="m331.984 821.577h-15.851c-20.602 0-37.303 16.702-37.303 37.304v168.203c0 17.753 12.401 32.61 29.013 36.38z" fill="#b59100" opacity=".8"/><path d="m307.843 1063.465c2.666.605 5.441.925 8.29.925h220.815l24.29-242.812h-229.254z" fill="#755fbe" opacity=".9"/><path d="m630.28 1091.392 142.091 76.495-86.739-103.497h60.509c20.602 0 37.303-16.702 37.303-37.305v-168.203c0-20.603-16.701-37.304-37.303-37.304h-115.861z" fill="#5d84b6"/><path d="m338.358 794.173h430.007c20.602 0 37.303 16.702 37.303 37.305v168.202c0 20.603-16.701 37.305-37.303 37.305h-60.509l86.661 117.974-192.17-117.974h-263.989c-20.602 0-37.303-16.702-37.303-37.305v-168.203c0-20.602 16.701-37.304 37.303-37.304z" fill="url(#D)"/><path d="m500.269 973.535h-90.315c-1.626 0-3.15-.791-4.087-2.12s-1.169-3.031-.622-4.562l45.157-126.473c.711-1.99 2.596-3.319 4.709-3.319s3.998 1.329 4.709 3.319l45.158 126.473c.547 1.531.315 3.233-.622 4.562-.936 1.33-2.461 2.12-4.087 2.12zm-83.22-10h76.126l-38.063-106.603z" fill="url(#F)"/><path d="m515.331 957.172h-120.413c6.966 25.92 31.159 45.158 60.206 45.158 29.048 0 53.253-19.237 60.207-45.158z" fill="url(#G)"/><path d="m703.479 973.475h-90.315c-1.626 0-3.15-.791-4.087-2.12s-1.169-3.031-.622-4.562l45.158-126.473c.711-1.99 2.596-3.319 4.709-3.319s3.998 1.329 4.709 3.319l45.158 126.473c.547 1.531.315 3.233-.622 4.562-.938 1.33-2.463 2.12-4.088 2.12zm-83.221-10h76.126l-38.063-106.603z" fill="url(#H)"/><path d="m718.54 957.112h-120.412c6.966 25.92 31.159 45.158 60.206 45.158 29.048 0 53.252-19.237 60.206-45.158z" fill="url(#I)"/><path d="m669.61 847.062h-225.788c-2.761 0-5-2.239-5-5s2.239-5 5-5h225.788c2.761 0 5 2.239 5 5s-2.238 5-5 5z" fill="url(#J)"/><ellipse cx="556.729" cy="841.955" fill="url(#K)" rx="18.431" ry="17.175"/></svg>