<svg xmlns="http://www.w3.org/2000/svg" viewBox="0 0 3000 3000" width="3000" height="3000"><g transform="translate(1132.5 433.5) rotate(0.0 557.25 1043.25) scale(1.4994309024031256 1.4997487839923291)"><svg width="743.282" height="1391.233" viewBox="0 0 743.282 1391.233"><path d="M371.641 0c205.114 0 371.641 166.527 371.641 371.641v1019.593H0V371.641C0 166.527 166.527 0 371.641 0z" fill="#fff4e2"/><path d="M743.282 563.993v-15H379.14V285.746h354.159a368.674 368.674 0 0 0-3.88-15H379.141V.082c-2.495-.05-4.993-.082-7.5-.082-2.507 0-5.006.032-7.5.082v270.665H13.863a367.038 367.038 0 0 0-3.88 15H364.14v263.247H0v15h364.14v263.247H0v15h364.14v263.247H0v15h364.14v270.747h15v-270.747h364.142v-15H379.14V842.241h364.142v-15H379.14V563.994h364.142z" fill="#fff"/></svg></g><g transform="translate(445.5 1125.0) rotate(0.0 570.75 504.75) scale(1.4996374069870098 1.4987773718022)"><svg width="761.184" height="673.549" viewBox="0 0 761.184 673.549"><rect fill="#f7e5c6" height="673.549" rx="50" width="761.184"/><g fill="#fff4e2"><circle cx="546.057" cy="67.43" r="24.622"/><circle cx="617.34" cy="67.43" r="24.622"/><circle cx="688.622" cy="67.43" r="24.622"/></g></svg></g><g transform="translate(705.0 1341.0) rotate(0.0 705.75 593.25) scale(1.4987942749562786 1.4996682149966822)"><svg width="941.757" height="791.175" viewBox="0 0 941.757 791.175"><rect fill="#5550bc" height="623.398" rx="50" width="926.757" x="7.5" y="7.5"/><path d="M884.257 638.398H57.5c-31.705 0-57.5-25.794-57.5-57.5V57.5C0 25.794 25.795 0 57.5 0h826.757c31.706 0 57.5 25.794 57.5 57.5v523.397c0 31.706-25.794 57.5-57.5 57.5zM57.5 15C34.065 15 15 34.065 15 57.5v523.397c0 23.435 19.065 42.5 42.5 42.5h826.757c23.435 0 42.5-19.065 42.5-42.5V57.5c0-23.435-19.065-42.5-42.5-42.5z" fill="#430c61"/><path d="M383.774 630.898h174.208v101.931H383.774z" fill="#948781"/><path d="M557.983 740.328H383.775a7.5 7.5 0 0 1-7.5-7.5V630.897a7.5 7.5 0 0 1 7.5-7.5h174.208a7.5 7.5 0 0 1 7.5 7.5v101.931a7.5 7.5 0 0 1-7.5 7.5zm-166.708-15h159.208v-86.931H391.275z" fill="#430c61"/><rect fill="#948781" height="50.847" rx="25.423" width="278.224" x="331.766" y="732.828"/><path d="M584.567 791.175H357.19c-18.154 0-32.923-14.77-32.923-32.923s14.769-32.924 32.923-32.924h227.377c18.154 0 32.924 14.77 32.924 32.924s-14.77 32.923-32.924 32.923zM357.19 740.328c-9.883 0-17.923 8.041-17.923 17.924s8.04 17.923 17.923 17.923h227.377c9.883 0 17.924-8.04 17.924-17.923s-8.041-17.924-17.924-17.924z" fill="#430c61"/><circle cx="77.981" cy="77.981" fill="#ff8d61" r="21.535"/><circle cx="143.641" cy="77.981" fill="#f4bf42" r="21.535"/><circle cx="209.301" cy="77.981" fill="#a1d7f1" r="21.535"/></svg></g><g transform="translate(1699.5 760.5) rotate(0.0 222.75 222.75) scale(1.4984712565968052 1.4984762968294865)"><svg width="297.303" height="297.302" viewBox="0 0 297.303 297.302"><path d="M284.924 207.941c-32.745 75.262-120.302 109.728-195.564 76.983C14.099 252.179-20.368 164.622 12.377 89.36c8.256-18.976 30.333-27.667 49.309-19.41 18.976 8.256 27.667 30.333 19.41 49.309-16.233 37.309.853 80.714 38.163 96.946 37.309 16.233 80.714-.853 96.946-38.163z" fill="#ff8d61"/><path d="M207.942 12.376c74.186 32.247 109.092 118.156 77.997 193.177-7.924 19.117-29.845 28.192-48.963 20.268-19.117-7.924-28.192-29.845-20.268-48.963 15.579-37.587-2.262-80.686-39.849-96.265l31.082-68.217z" fill="#a1d7f1"/><path d="M207.941 12.377C132.68-20.368 45.122 14.099 12.378 89.36l68.719 29.898c16.233-37.309 59.637-54.395 96.946-38.163 18.976 8.257 41.053-.434 49.308-19.41 8.256-18.976-.434-41.052-19.41-49.308z" fill="#f4bf42"/><path d="M74.976 148.651a73.394 73.394 0 0 1 6.121-29.392c8.256-18.976-.434-41.053-19.41-49.309-18.977-8.256-41.053.434-49.309 19.41C3.966 108.692 0 128.834.011 148.651z" fill="#ff8d61"/></svg></g><g transform="translate(1863.0 937.5) rotate(0.0 321.75 321.75) scale(1.4977620850896445 1.4977620850896445)"><svg width="429.641" height="429.641" viewBox="0 0 429.641 429.641"><circle cx="214.821" cy="214.821" fill="#ff8d61" r="207.321"/><path d="M214.821 429.641c-57.381 0-111.327-22.345-151.901-62.919S0 272.201 0 214.821 22.345 103.494 62.919 62.92 157.44 0 214.821 0s111.327 22.345 151.901 62.919 62.919 94.52 62.919 151.901-22.345 111.327-62.919 151.901-94.521 62.919-151.901 62.919zm0-414.641C104.639 15 15 104.639 15 214.821s89.639 199.821 199.82 199.821 199.82-89.639 199.82-199.821S325.002 15 214.821 15z" fill="#430c61"/><circle cx="214.821" cy="214.821" fill="#fff4e2" r="147.053"/><circle cx="214.821" cy="214.821" fill="#ff8d61" r="86.785"/><circle cx="214.821" cy="214.821" fill="#fff4e2" r="26.518"/></svg></g><g transform="translate(2178.0 807.0) rotate(0.0 231.0 231.0) scale(1.4996835083505105 1.4996835083505105)"><svg width="308.065" height="308.065" viewBox="0 0 308.065 308.065"><path d="M259.47 48.596h41.095l-69.068 69.068h-41.096V76.569L259.47 7.5z" fill="#5550bc"/><g fill="#430c61"><path d="M231.497 125.164h-41.096a7.5 7.5 0 0 1-7.5-7.5V76.568a7.5 7.5 0 0 1 2.196-5.303l69.069-69.068A7.5 7.5 0 0 1 266.97 7.5v33.596h33.596a7.499 7.499 0 0 1 5.304 12.803l-69.068 69.068a7.5 7.5 0 0 1-5.304 2.197zm-33.596-15h30.489l54.068-54.068h-22.989a7.5 7.5 0 0 1-7.5-7.5V25.607l-54.068 54.068z"/><path d="M266.031 90.63h-41.096a7.5 7.5 0 0 1-7.5-7.5V42.034c0-4.142 3.357-7.5 7.5-7.5s7.5 3.358 7.5 7.5V75.63h33.596c4.143 0 7.5 3.358 7.5 7.5s-3.357 7.5-7.5 7.5zM40.437 275.128a7.5 7.5 0 0 1-5.304-12.803l149.965-149.964a7.5 7.5 0 0 1 10.607 10.606L45.741 272.932a7.482 7.482 0 0 1-5.304 2.197z"/><path d="m40.437 267.628 22.49 12.735L7.5 300.565l20.203-55.427z"/><path d="M7.501 308.065a7.5 7.5 0 0 1-7.048-10.069l20.202-55.428a7.5 7.5 0 0 1 6.426-4.906 7.473 7.473 0 0 1 7.147 3.779l11.712 20.683 20.683 11.711a7.499 7.499 0 0 1-1.127 13.573l-55.428 20.203a7.5 7.5 0 0 1-2.567.454zm21.683-45.09-9.123 25.029 25.029-9.123-8.348-4.727a7.494 7.494 0 0 1-2.831-2.831l-4.728-8.349z"/></g></svg></g><g transform="translate(358.5 1548.0) rotate(0.0 305.25 490.5) scale(1.4972446284356307 1.499589561878324)"><svg width="407.749" height="654.179" viewBox="0 0 407.749 654.179"><path d="M298.022 445.109a7.502 7.502 0 0 1-7.312-5.862c-22.673-101.201-78.252-192.525-120.886-251.316-46.351-63.919-87.87-104.3-88.284-104.7a7.5 7.5 0 0 1 10.426-10.784c.422.408 42.716 41.516 89.815 106.422 43.533 59.992 100.309 153.294 123.564 257.099a7.5 7.5 0 0 1-7.325 9.141z" fill="#430c61"/><path d="M144.014 73.724c24.749 30.124 20.256 61.551 2.15 76.426-18.105 14.875-49.807 13.184-74.555-16.94C26.773 78.635 28.969 7.5 28.969 7.5s70.209 11.649 115.045 66.224z" fill="#a1d7f1"/><path d="M119.631 166.778c-3.153 0-6.347-.276-9.549-.837-16.271-2.853-31.579-12.525-44.269-27.971C19.719 81.864 21.379 10.288 21.473 7.268A7.5 7.5 0 0 1 30.196.101c2.98.495 73.519 12.756 119.612 68.861 12.689 15.446 19.208 32.34 18.849 48.855-.331 15.244-6.794 29.141-17.732 38.126-8.605 7.07-19.659 10.833-31.294 10.834zM36.713 16.912c1.168 20.451 7.487 71.12 40.69 111.535 22.052 26.843 48.889 28.321 64 15.907 7.554-6.206 12.021-15.997 12.258-26.862.195-8.983-2.325-23.042-15.442-39.007-33.288-40.518-81.682-56.486-101.506-61.573z" fill="#430c61"/><path d="M90.234 89.567a7.485 7.485 0 0 1-5.799-2.739L23.174 12.261a7.5 7.5 0 0 1 11.59-9.522l61.261 74.567a7.5 7.5 0 0 1-5.791 12.261z" fill="#430c61"/><path d="M237.031 240.563c-22.652-4.616-35.48-26.429-32.657-49.374 8.088-65.738 89.803-126.516 89.803-126.516s13.705 95.544-7.771 143.233c-9.493 21.079-26.722 37.274-49.374 32.657z" fill="#a1d7f1"/><path d="M244.682 248.851c-3.006 0-6.059-.31-9.149-.939-25.413-5.179-42.009-29.958-38.604-57.64 8.384-68.14 89.329-129.058 92.771-131.618a7.498 7.498 0 0 1 11.899 4.953c.572 3.989 13.761 98.267-8.356 147.377-10.925 24.261-28.648 37.866-48.562 37.866zm43.625-169.764c-21.727 18.501-70.576 64.953-76.489 113.018-2.481 20.161 8.753 37.45 26.711 41.109 23.344 4.762 36.479-18.267 41.037-28.388 15.704-34.871 11.527-98.22 8.741-125.739z" fill="#430c61"/><path d="M256.804 165.695a7.474 7.474 0 0 1-2.781-.538 7.5 7.5 0 0 1-4.182-9.748l37.37-93.521a7.501 7.501 0 0 1 13.93 5.567l-37.37 93.521a7.504 7.504 0 0 1-6.967 4.719z" fill="#430c61"/><path d="M265.273 297.151c-6.549 34.097-38.338 53.485-71.923 49.332C97.128 334.584 7.5 211.899 7.5 211.899s139.622-21.009 209.565 11.106c30.916 14.195 54.757 40.049 48.208 74.146z" fill="#a1d7f1"/><path d="M202.331 354.538c-3.282 0-6.588-.203-9.902-.612-41.51-5.133-86.327-29.935-133.206-73.716-34.556-32.272-56.847-62.611-57.778-63.887a7.499 7.499 0 0 1 4.94-11.841c5.791-.871 142.652-20.965 213.811 11.707 39.278 18.035 58.883 48.833 52.443 82.376-3.49 18.178-13.806 33.75-29.045 43.848-11.991 7.945-26.36 12.125-41.262 12.125zM21.527 217.661c23.723 29.258 96.917 112.002 172.744 121.378 31.299 3.871 58.073-14.339 63.637-43.303 7.284-37.925-28.324-58.731-43.973-65.916-54.908-25.211-156.562-16.328-192.408-12.16z" fill="#430c61"/><path d="M144.617 275.239a7.48 7.48 0 0 1-2.825-.556L4.672 218.845a7.501 7.501 0 0 1 5.656-13.893l137.119 55.838a7.5 7.5 0 0 1 4.118 9.775 7.503 7.503 0 0 1-6.949 4.673z" fill="#430c61"/><path d="M349.168 646.679H207.391L156.31 437.608h243.939z" fill="#f4bf42"/><g fill="#fff4e2"><path d="M316.735 539.393a7.503 7.503 0 0 1-5.304-2.197l-33.151-33.152-33.152 33.152a7.5 7.5 0 0 1-10.608 0l-33.151-33.152-19.945 19.945a7.5 7.5 0 0 1-10.607-10.606l25.249-25.249a7.5 7.5 0 0 1 10.607 0l33.151 33.152 33.152-33.152a7.5 7.5 0 0 1 10.608 0l33.151 33.152 33.152-33.152a7.5 7.5 0 0 1 10.608 0l25.248 25.249a7.5 7.5 0 0 1-10.607 10.606l-19.944-19.945-33.152 33.152a7.5 7.5 0 0 1-5.304 2.197z"/><circle cx="201.368" cy="545.909" r="8.75"/><circle cx="278.279" cy="545.909" r="8.75"/><circle cx="355.191" cy="545.909" r="8.75"/><circle cx="316.735" cy="479.423" r="8.75"/><circle cx="239.824" cy="479.423" r="8.75"/></g><path d="M349.167 654.178H207.391a7.501 7.501 0 0 1-7.286-5.72l-51.081-209.071a7.502 7.502 0 0 1 7.286-9.281h243.938a7.498 7.498 0 0 1 7.286 9.281l-51.081 209.071a7.502 7.502 0 0 1-7.286 5.72zm-135.889-15h130l47.417-194.071H165.862z" fill="#430c61"/></svg></g><g transform="translate(360.0 2505.0) rotate(0.0 1050.0 71.25) scale(1.508721487858025 1.5122893407479732)"><svg width="1391.907" height="94.228" viewBox="0 0 1391.907 94.228"><rect fill="#f7e5c6" height="79.228" rx="39.614" width="1376.907" x="7.5" y="7.5"/><path d="M1344.793 94.228H47.114C21.135 94.228 0 73.093 0 47.114S21.135 0 47.114 0h1297.679c25.979 0 47.114 21.135 47.114 47.114s-21.136 47.114-47.114 47.114zM47.114 15C29.406 15 15 29.406 15 47.114s14.406 32.114 32.114 32.114h1297.679c17.708 0 32.114-14.406 32.114-32.114S1362.501 15 1344.793 15z" fill="#430c61"/></svg></g><g transform="translate(1755.0 1777.5) rotate(0.0 389.25 195.75) scale(1.498922739534015 1.4990580631327441)"><svg width="519.373" height="261.164" viewBox="0 0 519.373 261.164"><rect fill="#fff4e2" height="246.023" rx="25" width="323.166" x="188.707" y="7.641"/><path d="M486.873 261.164H213.706c-17.921 0-32.5-14.58-32.5-32.5V32.641c0-17.92 14.58-32.5 32.5-32.5h273.166c17.921 0 32.5 14.58 32.5 32.5v196.023c0 17.92-14.579 32.5-32.5 32.5zM213.706 15.141c-9.649 0-17.5 7.851-17.5 17.5v196.023c0 9.649 7.851 17.5 17.5 17.5h273.166c9.649 0 17.5-7.851 17.5-17.5V32.641c0-9.649-7.851-17.5-17.5-17.5z" fill="#430c61"/><path d="M187.799 138.153h-55.873a7.5 7.5 0 0 1-5.276-2.17L2.224 12.831A7.5 7.5 0 0 1 12.776 2.17l122.233 120.983h52.789a7.5 7.5 0 0 1 0 15z" fill="#430c61"/><g fill="#ff8d61"><path d="M472.529 199.658H278.63c-4.143 0-7.5-3.358-7.5-7.5s3.357-7.5 7.5-7.5h193.899c4.143 0 7.5 3.358 7.5 7.5s-3.357 7.5-7.5 7.5zm-233.088-20.733c-7.298 0-13.234 5.937-13.234 13.233s5.937 13.233 13.234 13.233 13.233-5.937 13.233-13.233-5.937-13.233-13.233-13.233zm233.088-40.772H278.63c-4.143 0-7.5-3.358-7.5-7.5s3.357-7.5 7.5-7.5h193.899c4.143 0 7.5 3.358 7.5 7.5s-3.357 7.5-7.5 7.5zm-233.088-20.734c-7.298 0-13.234 5.937-13.234 13.233s5.937 13.233 13.234 13.233 13.233-5.937 13.233-13.233-5.937-13.233-13.233-13.233zm233.088-40.772H278.63c-4.143 0-7.5-3.358-7.5-7.5s3.357-7.5 7.5-7.5h193.899c4.143 0 7.5 3.358 7.5 7.5s-3.357 7.5-7.5 7.5zM239.441 55.914c-7.298 0-13.234 5.937-13.234 13.233s5.937 13.233 13.234 13.233 13.233-5.937 13.233-13.233-5.937-13.233-13.233-13.233z"/></g></svg></g><g transform="translate(937.5 1668.0) rotate(0.0 477.0 120.0) scale(1.4993587648049889 1.4919249561747043)"><svg width="636.272" height="160.866" viewBox="0 0 636.272 160.866"><rect fill="#fff4e2" height="145.866" rx="72.933" width="621.272" x="7.5" y="7.5"/><path d="M555.84 160.866H80.433C36.082 160.866 0 124.784 0 80.433S36.082 0 80.433 0H555.84c44.351 0 80.433 36.082 80.433 80.433s-36.082 80.433-80.433 80.433zM80.433 15C44.353 15 15 44.353 15 80.433s29.353 65.433 65.433 65.433H555.84c36.08 0 65.433-29.353 65.433-65.433S591.92 15 555.84 15z" fill="#430c61"/><circle cx="555.84" cy="80.433" fill="#ff8d61" r="72.933"/><path d="M555.84 160.866c-44.352 0-80.434-36.082-80.434-80.433S511.489 0 555.84 0s80.433 36.082 80.433 80.433-36.082 80.433-80.433 80.433zm0-145.866c-36.08 0-65.434 29.353-65.434 65.433s29.354 65.433 65.434 65.433 65.433-29.353 65.433-65.433S591.92 15 555.84 15z" fill="#430c61"/><circle cx="547.471" cy="72.064" fill="#fff4e2" r="26.552"/><g fill="#430c61"><path d="M547.471 106.117c-18.776 0-34.053-15.276-34.053-34.053s15.276-34.052 34.053-34.052 34.053 15.276 34.053 34.052-15.276 34.053-34.053 34.053zm0-53.105c-10.506 0-19.053 8.547-19.053 19.052s8.547 19.053 19.053 19.053 19.053-8.547 19.053-19.053-8.547-19.052-19.053-19.052z"/><path d="M587.642 119.735a7.478 7.478 0 0 1-5.304-2.197L560.94 96.14a7.5 7.5 0 0 1 10.607-10.606l21.398 21.398a7.5 7.5 0 0 1-5.304 12.803z"/></g></svg></g></svg>