<svg xmlns="http://www.w3.org/2000/svg" viewBox="0 0 1600 1200" width="1600" height="1200"><g transform="translate(145.0 138.0) rotate(0.0 654.5 381.5) scale(2.0426952966511656 2.040652580903985)"><svg width="640.82" height="373.9" viewBox="0 0 640.82 373.9"><path d="M.5.5h199.44v372.9H.5z" fill="#fff"/><path d="M200.44 373.9H0V0h200.44zM1 372.9h198.44V1H1z" fill="#60657C"/><path d="M220.94.5h198.94v372.9H220.94z" fill="#fff"/><path d="M420.38 373.9H220.44V0h199.94zm-198.94-1h197.94V1H221.44z" fill="#60657C"/><path d="M440.88.5h199.44v372.9H440.88z" fill="#fff"/><path d="M640.82 373.9H440.38V0h200.44zm-199.44-1h198.44V1H441.38z" fill="#60657C"/><path d="M137.899 199.797v-21.531H75.89v195.129h92.152V199.797z" fill="#fff"/><path d="M168.542 373.895H75.39V177.766h63.009v21.531h30.143zm-92.152-1h91.152V200.297h-30.143v-21.531H76.39z" fill="#60657C"/><path d="M332.41 340.4v33H220.94V251.43h9.5v-55.98h10.99v-39.99h14l11-79.98 9.99 79.98h15v39.99h11v55.98h15.99v88.97z" fill="#fff"/><path d="M332.91 373.9H220.44V250.93h9.5v-55.98h10.99v-39.99h14.064l11.46-83.323 10.407 83.323h15.059v39.99h11v55.98h15.99v88.97h14zm-111.47-1h110.47v-32h-14v-88.97h-15.99v-55.98h-11v-39.99h-14.941l-9.572-76.637-10.54 76.637H241.93v39.99h-10.99v55.98h-9.5z" fill="#60657C"/><path d="M524.35 244.43V373.4h-83.47V244.43h.5v-46.98l34.1-13.96 34.88 13.96v46.98z" fill="#fff"/><path d="M524.849 373.9h-84.47V243.93h.5v-46.816l34.599-14.164 35.382 14.161v46.818h13.989zm-83.469-1h82.47V244.93h-13.99v-47.141l-34.378-13.759-33.603 13.756v47.144h-.5V372.9z" fill="#60657C"/><path d="m392.85.5 27.03 17.9v59.95L303.61 1.34l.56-.84z" fill="#fff"/><path d="M420.38 79.281 302.916 1.48l.986-1.48H393l.126.083 27.254 18.048zM304.304 1.2 419.38 77.419v-58.75L392.699 1h-88.262z" fill="#60657C"/><path d="M640.32 164.4v59.96L440.88 92.26V32.31z" fill="#fff"/><path d="M640.82 225.291 440.38 92.529v-61.15l200.44 132.752zm-199.44-133.3 198.44 131.438v-58.76L441.38 33.241z" fill="#60657C"/><path d="m267.62.5 152.26 100.64v23.96L231.38.5z" fill="#fff"/><path d="m420.38 126.03-.775-.513L229.717 0h38.054l.125.083L420.38 100.871zM233.043 1 419.38 124.17v-22.761L267.469 1z" fill="#60657C"/><path d="M640.32 246.85v23.96L440.88 138.98v-23.96z" fill="#fff"/><path d="m640.82 271.74-.775-.513L440.38 139.249V114.09l.775.513L640.82 246.581zM441.38 138.711 639.82 269.88v-22.761L441.38 115.95z" fill="#60657C"/><path d="m168.04 241.79 31.9 21.1v35.97l-31.9-21.11-92.15-60.97L.5 166.9v-35.96l75.39 49.88z" fill="#fff"/><path d="M200.44 299.79 0 167.169V130.01l200.44 132.612zM1 166.631 199.44 297.93v-34.771L1 131.87z" fill="#60657C"/><path d="M366.96 373.4H312.6l-91.66-60.65v-35.96l111.47 73.75z" fill="#fff"/><path d="M368.622 373.9H312.45l-92.009-60.881V275.86zm-55.872-1h52.547L221.44 277.72v34.761z" fill="#60657C"/><path d="m168.04 299.99 31.9 21.05v23.97l-31.9-21.06-92.15-60.81L.5 213.38v-23.96l75.39 49.76z" fill="#fff"/><path d="M200.44 345.939 0 213.649v-25.158l200.44 132.28zM1 213.111l198.44 130.97v-22.772L1 190.349z" fill="#60657C"/><path d="M279.27 373.4h-36.31l-22.02-14.53V334.9z" fill="#fff"/><path d="M280.935 373.9H242.81l-22.37-14.761v-25.168zm-37.825-1h34.495l-56.165-37.071v22.772z" fill="#60657C"/></svg></g><g transform="translate(803.0 359.0) rotate(0.0 185.0 352.0) scale(1.9534240355628765 1.9578723711948027)"><svg width="189.411" height="359.574" viewBox="0 0 189.411 359.574"><path d="m75.263 127.422-5.386 21.06a7.177 7.177 0 0 0-.027 3.405l18.611 80.017s18.434 1.565 18.407 1.053l1.115.048-4.221-57.795-1.914-46.705z" fill="#99644c"/><path d="m87.839 221.408 2.046 38.039a18.29 18.29 0 0 0 .481 3.296l16.341 68.212s15.715-.042 15.175-.013l-3.925-71.398a18.625 18.625 0 0 0-1.387-6.074l-11.133-26.981z" fill="#99644c"/><path d="M117.957 259.546a18.625 18.625 0 0 0-1.387-6.074l-8.689-21.058-4.119-57.204-1.914-46.705-26.585-1.083-5.386 21.06a7.177 7.177 0 0 0-.027 3.405l18.536 79.697 1.499 27.863a18.29 18.29 0 0 0 .481 3.296l16.341 68.212s14.7-.039 15.175-.015z" fill="#1d2445" opacity=".1"/><g fill="#99644c"><path d="m22.295 152.068-3.248-8.663 43.446-28.941 10.637 12.238-16.522 10.472z"/><path d="m24.94 151.812 8.879-4.751-4.515-3.426-.254-.339a9.657 9.657 0 0 0-3.233-2.642 9.617 9.617 0 0 0-4.038-1.052l.006-.018-14.802-.822a.704.704 0 0 0-.74.48c-.011.036-.023.073-.028.106a1.36 1.36 0 0 0 1.053 1.613l6.49 1.885c.255.08.491.223.679.421a1.525 1.525 0 0 1-.069 2.149l-7.405 7.817 3.201 2.057 1.485-.673c.727-.329 1.49-.576 2.272-.743l7.225-1.522c.6-.127 1.208-.16 1.805-.102.687.066 1.379-.111 1.989-.438z"/><path d="M.291 161.901c-.463-.665-.375-1.672.279-2.425l10.815-10.609 4.505 2.305-14.861 10.785a.516.516 0 0 1-.729-.046l-.009-.01zm2.554.999c-.338-.737-.072-1.713.706-2.337l13.166-8.918 4.315 2.517-17.471 8.924a.517.517 0 0 1-.716-.186z"/><path d="M7.331 163.156c-.367-.723-.14-1.708.612-2.363l12.181-9.009 4.412 2.342-16.482 9.188a.517.517 0 0 1-.716-.147l-.007-.011z"/><path d="M14.944 164.084c-.579-.567-.68-1.573-.177-2.435l8.653-12.436 4.93.805-12.671 13.983a.517.517 0 0 1-.735.083zm116.041-31.748-2.401-8.601 46.019-24.643 9.415 13.201-17.449 8.841z"/></g><path d="M74.509 130.941h51.929l24.582-58.98H98.073z" fill="#013b84"/><path d="M69.516 96.602 163.14 74.54l-12.936-19.946a11.236 11.236 0 0 0-11.664-4.897L88.137 59.939a11.236 11.236 0 0 0-8.37 7.306z" fill="#013b84"/><path d="M80.896 69.748 61.232 114.88l10.102 11.677c.64.74 1.832.571 2.241-.318L98.66 71.722zm71.933-6.998 34.405 34.47c3.915 4.922 2.371 12.193-3.206 15.099l-3.183 1.659-43.605-42.485z" fill="#013b84"/><path d="m124.832 224.439 16.876 34.379a18.032 18.032 0 0 1 1.665 5.402l9.581 67.12s-13.254 2.874-12.74 2.703L115.9 269.325a19.937 19.937 0 0 1-1.074-4.189l-4.257-29.627z" fill="#99644c"/><path d="m88.328 138.305-7.038 22.737 31.705 85.325s14.615-8.511 14.615-9.023l-12.757-97.956z" fill="#99644c"/><path d="M103.599 331.514h4.781l-1.557-8.805a3.41 3.41 0 0 0-3.358-2.816h-1.921z" fill="#a9cfff"/><path d="M105.34 329.062h16.335v5.94H105.34z" fill="#99644c"/><path d="M102.386 345.134h22.788l.021-2.296a26.103 26.103 0 0 0-1.585-9.201l-2.094-5.729-19.131 7.027v10.199z" fill="#013b84"/><path d="M121.954 326.376v8.757c-.52 0-14.168 7.462-14.536 7.83l-2.172 2.172H78.375l.866-2.49a3.922 3.922 0 0 1 2.783-2.524l14.076-3.403a11.742 11.742 0 0 0 6.664-4.407l3.236-4.352a3.924 3.924 0 0 1 3.148-1.582h12.806z" fill="#013b84"/><path d="M78.563 344.766h46.633v3.503H78.563z" fill="#a9cfff"/><circle cx="116.31" cy="337.529" fill="#a9cfff" r="4.184"/><path d="M125.579 134.087H73.256l-3.166 13.848a20 20 0 0 0-.019 8.831l13.847 61.781h41.66l.571-66.199z" fill="#3d94ff"/><path d="m90.518 73.379-11.851 8.573a7.492 7.492 0 0 0-2.854 7.973l3.823 14.547a7.5 7.5 0 0 1 .011 3.767l-6.632 25.829 54.17 21.756-.122-27.943 5.403-58.62z" fill="#013b84"/><path d="M146.468 356.41a7.198 7.198 0 0 0 6.475 3.146l9.218-.657c2.966-.312 4.665-3.536 3.246-6.16l-12.314-22.761-14.139 5.713 1.189 11.346z" fill="#a9cfff"/><path d="M146.468 353.53a7.198 7.198 0 0 0 6.475 3.146l9.218-.657c2.966-.312 4.665-3.536 3.246-6.16l-12.314-22.761-14.475 5.243 1.189 11.346z" fill="#013b84"/><path d="m152.117 331.083-10.25 3.56-3.559-10.247a3.552 3.552 0 0 1 2.19-4.521l3.539-1.229a3.552 3.552 0 0 1 4.521 2.19z" fill="#a9cfff"/><path d="m148.885 335.974 6.615-2.41-3.897-10.698-2.44.889a3.6 3.6 0 0 0-2.261 4.252z" fill="#013b84"/><path d="m140.602 338.991 8.892-3.239-3.945-7.388a3.6 3.6 0 0 0-4.408-1.687l-4.436 1.616z" fill="#013b84"/><path d="m143.183 122.905-8.139 6.674a5.435 5.435 0 0 0-2.35 4.28l-.062 1.7.09 7.41a3.446 3.446 0 0 1-.859 2.338l-1.621 1.858.115 3.961a6.117 6.117 0 0 1-.494 2.636l-3.301 7.717a.457.457 0 0 1-.599.244l-.01-.004-.021-.011a1.813 1.813 0 0 1-.929-2.08l1.988-7.434-1.351-8.878-.703-1.595a.513.513 0 0 0-.519-.299.53.53 0 0 0-.461.416c-.294 1.358-1.146 5.721-1.282 6.454a1.337 1.337 0 0 1-1.596 1.079 1.39 1.39 0 0 1-1.122-1.268s.062-3.592.146-5.873a8.442 8.442 0 0 0-.223-2.391 7.266 7.266 0 0 1 .148-3.853l1.191-3.422c.679-1.947 1.257-3.921 3.828-5.226l4.783-4.114z" fill="#99644c"/><path d="m108.639 69.534 28.509-19.52-43.331 8.795 13.267 10.665c.449.36 1.081.385 1.555.06z" fill="#3d94ff"/><path d="M110.838 67.054h1v29.81h-1zm-6.973-.667h1v31.308h-1z" fill="#3d94ff"/><path d="M112.048 99.122h-1.42a.592.592 0 0 1-.529-.856l.71-1.42a.591.591 0 0 1 1.058 0l.71 1.42a.591.591 0 0 1-.529.856zm-6.887 0h-1.42a.592.592 0 0 1-.529-.856l.71-1.42a.591.591 0 0 1 1.058 0l.71 1.42a.592.592 0 0 1-.529.856z" fill="#93c3ff"/><circle cx="132.816" cy="19.766" fill="#002652" r="14.656"/><path d="M106.729 68.673V35.478h17.877V52.66l-15.938 16.787c-.7.736-1.939.241-1.939-.774zm-7.03-53.915h9.893v12.575h-9.893z" fill="#99644c"/><path d="M108.92 5.72h12.325v25.151H108.92z" fill="#002652"/><path d="m125.347 36.668-7.575 3.366V7.964a3.408 3.408 0 0 1 3.408-3.408h1.533c7.303 0 12.892 6.504 11.792 13.724l-1.216 7.984a13.633 13.633 0 0 1-7.942 10.404z" fill="#002652"/><path d="M96.089 15.556v5.999c0 .218.042.434.123.636l.795 1.977a1.703 1.703 0 0 1-.442 1.903l-.477.429v11.601a3.407 3.407 0 0 0 3.422 3.408l18.447-.088-.088-15.795z" fill="#99644c"/><path d="m99.082 33.412-4.711-2.446a1.704 1.704 0 0 1-.337-2.795l5.048-4.414z" fill="#99644c"/><path d="M97.124 24.985h3.506c.911 0 1.367-1.101.723-1.745l-.971-.971a1.022 1.022 0 0 0-.723-.299h-3.505l.984 2.352zm2.001 8.174-.389.76a1.702 1.702 0 0 1-1.036.858l-1.541.453v-2.111z" fill="#002652" opacity=".1"/><path d="M114.325 22.095H99.217l-.341-2.499h15.449z" fill="#93c3ff"/><path d="M118.232 28.736h-9.183v-9.132h9.183a3.673 3.673 0 0 1 3.673 3.673v1.787a3.672 3.672 0 0 1-3.673 3.672zM107.713 4.357h.445a3.408 3.408 0 0 1 3.408 3.408V19.6H95.785v-3.315c0-6.588 5.34-11.928 11.928-11.928z" fill="#99644c"/><path d="m98.699 20.596.022.022-.022 4.972-3.326-.022.022-4.972zm0-1h-3.304c-.565 0-1.022.458-1.022 1.022v4.95c0 .565.458 1.022 1.022 1.022h3.304c.565 0 1.022-.458 1.022-1.022v-4.95a1.021 1.021 0 0 0-1.022-1.022z" fill="#93c3ff"/><path d="M114.787 14.774c0-5.358 6.98-9.701 15.591-9.701 7.345 0 13.504 3.161 15.156 7.416.428 1.102-.421 2.285-1.603 2.285z" fill="#002652"/><path d="M97.189 10.687C97.189 4.785 104.879 0 114.365 0c8.093 0 14.878 3.482 16.697 8.17.471 1.214-.464 2.517-1.766 2.517z" fill="#002652"/><path d="m106.869 41.43 4.053.016c.956.004 1.471 1.123.852 1.851l-5.018 5.906" fill="#002652" opacity=".1"/><circle cx="146.237" cy="27.027" fill="#002652" r="14.656"/><path d="M128.732 35.026a.5.5 0 0 1-.5-.5V5.393a.5.5 0 0 1 1 0v29.133a.5.5 0 0 1-.5.5zm4.419.305a.5.5 0 0 1-.442-.733l12.253-23.245a.5.5 0 0 1 .885.466l-12.253 23.245a.503.503 0 0 1-.443.267z" fill="#2888ff"/><path d="M101.213 6.912h11.581v11.174c1.619.129 3.168.226 3.396.15.348-.116-3.311 3.935-5.603 6.447-.629.69-1.774.241-1.774-.693v-3.323c0-.565-.458-1.022-1.022-1.022h-4.637a6 6 0 0 1-6-6v-2.674a4.059 4.059 0 0 1 4.059-4.059z" fill="#002652"/></svg></g><g transform="translate(1402.0 718.0) rotate(0.0 -156.0 147.5) scale(-1.9212177564856494 1.934045761489543)"><svg width="162.397" height="152.53" viewBox="0 0 162.397 152.53"><path d="m141.77 52.209.377-6.937a5.903 5.903 0 0 0-6.19-6.217l-111.08 5.479 22.427 14.92 50.723-1.902z" fill="#60657C"/><path d="m47.162 59.959-23.825-15.85 112.596-5.554a6.341 6.341 0 0 1 4.97 1.993 6.344 6.344 0 0 1 1.744 4.75l-.4 7.356-44.158 5.393zM26.419 44.958l21.028 13.989 50.562-1.896 43.284-5.288.355-6.519a5.351 5.351 0 0 0-1.472-4.008 5.347 5.347 0 0 0-4.194-1.682z" fill="#60657C"/><path d="m137.715 126.605 4.222-77.616a5.903 5.903 0 0 0-6.19-6.217L33.415 47.888z" fill="#fff"/><g fill="#60657C"><path d="M138.163 127.569 32.014 47.457l103.708-5.185a6.346 6.346 0 0 1 4.97 1.993 6.343 6.343 0 0 1 1.744 4.751zM34.815 48.318l102.451 77.322 4.172-76.678a5.357 5.357 0 0 0-1.472-4.009 5.34 5.34 0 0 0-4.194-1.682z"/><path d="m12.251 146.126 5.927-28.076a5.912 5.912 0 0 1 5.881-5.379h116.107a5.91 5.91 0 0 1 5.904 5.904v27.551a5.91 5.91 0 0 1-5.904 5.904H18.155a5.91 5.91 0 0 1-5.904-5.904zm125.947-25.583H25.694l-5.06 23.615h117.564z"/><path d="M140.166 152.53H18.155a6.411 6.411 0 0 1-6.404-6.404l.011-.103 5.927-28.076c.281-3.213 3.083-5.776 6.37-5.776h116.107a6.411 6.411 0 0 1 6.404 6.404v27.551a6.411 6.411 0 0 1-6.404 6.404zm-127.415-6.353a5.41 5.41 0 0 0 5.404 5.353h122.011a5.41 5.41 0 0 0 5.404-5.404v-27.551a5.41 5.41 0 0 0-5.404-5.404H24.059c-2.773 0-5.138 2.162-5.383 4.923zm125.947-1.519H20.015l5.274-24.615h113.409zm-117.445-1h116.446v-22.615h-111.6z"/></g><path d="m24.059 69.112 40.843-13.51-23.399-43.677A21.647 21.647 0 0 0 22.422.5H10.614z" fill="#fff"/><path d="M23.677 69.765 10.007 0h12.415c8.18 0 15.66 4.479 19.522 11.689L65.623 55.89zM11.222 1 24.44 68.459l39.74-13.145-23.118-43.153A21.113 21.113 0 0 0 22.422 1z" fill="#60657C"/><path d="m161.51 58.571.377-6.937a5.903 5.903 0 0 0-6.19-6.217l-111.08 5.479 22.427 14.92 50.723-1.902z" fill="#60657C"/><path d="M66.902 66.32 43.077 50.47l112.596-5.554a6.355 6.355 0 0 1 4.97 1.993 6.344 6.344 0 0 1 1.744 4.75l-.4 7.356-44.158 5.393zM46.159 51.319l21.028 13.989 50.562-1.896 43.284-5.288.355-6.519a5.351 5.351 0 0 0-1.472-4.008 5.34 5.34 0 0 0-4.194-1.682z" fill="#60657C"/><path d="m.533 4.94 14.153 109.686a9.84 9.84 0 0 0 8.942 8.546l127.711 10.643a5.903 5.903 0 0 0 6.385-5.563l3.892-71.548a5.903 5.903 0 0 0-6.19-6.217L53.094 55.602 29.696 11.925A21.65 21.65 0 0 0 10.614.5H4.436A3.936 3.936 0 0 0 .533 4.94z" fill="#fff"/><path d="M151.836 134.335c-.178 0-.358-.007-.539-.022L23.586 123.67c-4.825-.402-8.776-4.179-9.396-8.981L.037 5.004A4.434 4.434 0 0 1 4.437 0h6.178c8.179 0 15.66 4.479 19.522 11.689l23.249 43.398 102.017-5.1a6.339 6.339 0 0 1 4.97 1.993 6.343 6.343 0 0 1 1.744 4.751l-3.892 71.548a6.404 6.404 0 0 1-6.389 6.056zM4.437 1a3.436 3.436 0 0 0-3.408 3.876l14.153 109.686c.559 4.337 4.128 7.749 8.487 8.112l127.711 10.643c3.054.256 5.68-2.075 5.845-5.091l3.892-71.548a5.35 5.35 0 0 0-1.472-4.009 5.341 5.341 0 0 0-4.194-1.682l-102.648 5.13-.15-.279-23.398-43.677A21.115 21.115 0 0 0 10.614 1z" fill="#60657C"/></svg></g><g transform="translate(207.0 707.0) rotate(0.0 160.5 152.0) scale(1.976637499461197 1.9930505474332918)"><svg width="162.397" height="152.53" viewBox="0 0 162.397 152.53"><path d="m141.77 52.209.377-6.937a5.903 5.903 0 0 0-6.19-6.217l-111.08 5.479 22.427 14.92 50.723-1.902z" fill="#60657C"/><path d="m47.162 59.959-23.825-15.85 112.596-5.554a6.341 6.341 0 0 1 4.97 1.993 6.344 6.344 0 0 1 1.744 4.75l-.4 7.356-44.158 5.393zM26.419 44.958l21.028 13.989 50.562-1.896 43.284-5.288.355-6.519a5.351 5.351 0 0 0-1.472-4.008 5.347 5.347 0 0 0-4.194-1.682z" fill="#60657C"/><path d="m137.715 126.605 4.222-77.616a5.903 5.903 0 0 0-6.19-6.217L33.415 47.888z" fill="#fff"/><g fill="#60657C"><path d="M138.163 127.569 32.014 47.457l103.708-5.185a6.346 6.346 0 0 1 4.97 1.993 6.343 6.343 0 0 1 1.744 4.751zM34.815 48.318l102.451 77.322 4.172-76.678a5.357 5.357 0 0 0-1.472-4.009 5.34 5.34 0 0 0-4.194-1.682z"/><path d="m12.251 146.126 5.927-28.076a5.912 5.912 0 0 1 5.881-5.379h116.107a5.91 5.91 0 0 1 5.904 5.904v27.551a5.91 5.91 0 0 1-5.904 5.904H18.155a5.91 5.91 0 0 1-5.904-5.904zm125.947-25.583H25.694l-5.06 23.615h117.564z"/><path d="M140.166 152.53H18.155a6.411 6.411 0 0 1-6.404-6.404l.011-.103 5.927-28.076c.281-3.213 3.083-5.776 6.37-5.776h116.107a6.411 6.411 0 0 1 6.404 6.404v27.551a6.411 6.411 0 0 1-6.404 6.404zm-127.415-6.353a5.41 5.41 0 0 0 5.404 5.353h122.011a5.41 5.41 0 0 0 5.404-5.404v-27.551a5.41 5.41 0 0 0-5.404-5.404H24.059c-2.773 0-5.138 2.162-5.383 4.923zm125.947-1.519H20.015l5.274-24.615h113.409zm-117.445-1h116.446v-22.615h-111.6z"/></g><path d="m24.059 69.112 40.843-13.51-23.399-43.677A21.647 21.647 0 0 0 22.422.5H10.614z" fill="#fff"/><path d="M23.677 69.765 10.007 0h12.415c8.18 0 15.66 4.479 19.522 11.689L65.623 55.89zM11.222 1 24.44 68.459l39.74-13.145-23.118-43.153A21.113 21.113 0 0 0 22.422 1z" fill="#60657C"/><path d="m161.51 58.571.377-6.937a5.903 5.903 0 0 0-6.19-6.217l-111.08 5.479 22.427 14.92 50.723-1.902z" fill="#60657C"/><path d="M66.902 66.32 43.077 50.47l112.596-5.554a6.355 6.355 0 0 1 4.97 1.993 6.344 6.344 0 0 1 1.744 4.75l-.4 7.356-44.158 5.393zM46.159 51.319l21.028 13.989 50.562-1.896 43.284-5.288.355-6.519a5.351 5.351 0 0 0-1.472-4.008 5.34 5.34 0 0 0-4.194-1.682z" fill="#60657C"/><path d="m.533 4.94 14.153 109.686a9.84 9.84 0 0 0 8.942 8.546l127.711 10.643a5.903 5.903 0 0 0 6.385-5.563l3.892-71.548a5.903 5.903 0 0 0-6.19-6.217L53.094 55.602 29.696 11.925A21.65 21.65 0 0 0 10.614.5H4.436A3.936 3.936 0 0 0 .533 4.94z" fill="#fff"/><path d="M151.836 134.335c-.178 0-.358-.007-.539-.022L23.586 123.67c-4.825-.402-8.776-4.179-9.396-8.981L.037 5.004A4.434 4.434 0 0 1 4.437 0h6.178c8.179 0 15.66 4.479 19.522 11.689l23.249 43.398 102.017-5.1a6.339 6.339 0 0 1 4.97 1.993 6.343 6.343 0 0 1 1.744 4.751l-3.892 71.548a6.404 6.404 0 0 1-6.389 6.056zM4.437 1a3.436 3.436 0 0 0-3.408 3.876l14.153 109.686c.559 4.337 4.128 7.749 8.487 8.112l127.711 10.643c3.054.256 5.68-2.075 5.845-5.091l3.892-71.548a5.35 5.35 0 0 0-1.472-4.009 5.341 5.341 0 0 0-4.194-1.682l-102.648 5.13-.15-.279-23.398-43.677A21.115 21.115 0 0 0 10.614 1z" fill="#60657C"/></svg></g><g transform="translate(362.0 340.0) rotate(0.0 199.5 354.0) scale(1.9533927347498288 1.9550881998829155)"><svg width="204.26" height="362.132" viewBox="0 0 204.26 362.132"><path d="m95.663 278.942-4.041 35.448-1.378 12.076-.754 6.596-.222 1.952-.718 6.309-.356 3.112-.543 4.733-.029.271 6.998.194c1.656.048 3.412.097 5.03.149.917.024 1.783.053 2.571.077 2.019.061 3.475.113 3.659.129l.172-.586.489-1.661 3.852-13.058 4.318-14.646 16.937-42.568a29.994 29.994 0 0 0 1.633-5.679l7.003-38.185-26.938-.812-15.823 39.571c-.986 2.205-1.614 4.428-1.86 6.578zm-26.018-2.622-22.419 35.448-7.636 12.076-4.17 6.596-1.235 1.952-3.991 6.309-1.967 3.112-2.99 4.733-.173.271-7.143.194c-1.692.048-3.485.097-5.142.149-.935.024-1.823.053-2.628.077-2.064.061-3.56.113-3.756.129l.266-.586.751-1.661 5.896-13.058 6.615-14.646 13.875-46.797a29.989 29.989 0 0 1 3.22-7.207l19.977-32.429 27.544-.812-11.842 39.57c-.661 2.207-1.693 4.43-3.052 6.58z" fill="#013b84"/><g fill="#ed956e"><path d="m174.073 126.587-36.88-11.638-10.671 13.972 14.785 8.634 26.492-.386zm30.17 8.59c-.314.964-1.385 1.636-2.63 1.552l-18.745-2.785-1.838-5.972 22.712 6.426c.35.071.575.413.504.762l-.003.017z"/><path d="M201.248 137.197c-.143 1.004-1.082 1.851-2.323 1.982l-18.945.488-2.839-5.566 23.48 2.416c.357.01.638.307.628.664l-.001.016z"/><path d="M197.918 139.095c-.172.999-1.136 1.818-2.38 1.912l-18.951-.071-2.674-5.647 23.398 3.107a.646.646 0 0 1 .608.682l-.001.017z"/><path d="M191.303 141.558c-.172.999-1.137 1.818-2.38 1.912l-13.988-.052a7.871 7.871 0 0 1-7.086-4.504l-.55-1.162 23.398 3.107a.646.646 0 0 1 .608.682l-.002.017z"/><path d="m172.895 143.119 5.33-8.422c.97-3.288-.926-6.772-4.214-7.743l-5-1.476c-3.288-.97-11.557.686-12.527 3.974l7.671 8.983a9.002 9.002 0 0 0 3.395 2.468z"/><path d="m163.494 126.404 15.168 4.476-1.137-.401a2.19 2.19 0 0 1-1.188-3.11l.008-.04c.365-.661 1-1.135 1.739-1.295l3.541-.752a5.059 5.059 0 0 0 2.407-1.218c.449-.435.811-.939.964-1.458.082-.277.106-.556.053-.835a.865.865 0 0 0-1.135-.632l-10.796 2.723-2.655.067a10.248 10.248 0 0 0-4.66 1.229l-2.155 1.173c-.051.026-.101.05-.154.073z"/><path d="m164.591 125.961 16.041 4.734-1.203-.424a2.317 2.317 0 0 1-1.257-3.289l.008-.042a2.777 2.777 0 0 1 1.839-1.37l3.745-.795a5.355 5.355 0 0 0 2.546-1.288c.475-.461.857-.994 1.019-1.542.087-.293.112-.588.056-.883-.009-.039-.018-.079-.031-.115a.914.914 0 0 0-1.169-.553l-11.418 2.879-2.808.07a10.833 10.833 0 0 0-4.928 1.3l-2.279 1.24a1.997 1.997 0 0 1-.161.078z"/><ellipse cx="174.734" cy="133.466" rx="9.185" ry="9.93" transform="matrix(-.283 .9591 -.9591 -.283 352.198 3.6512)"/></g><path d="M108.464 14.992H134c0-6.585-4.68-12.241-11.149-13.473l-6.5-1.238c-4.095-.78-7.888 2.359-7.888 6.527v8.184z" fill="#002652"/><path d="m150.754 142.639 3.053 14.512c.821 3.901.856 7.927.103 11.842l-15.524 80.711c-1.195 6.214-7.661 9.89-13.611 7.734-7.664-2.777-16.389-6.006-16.364-6.301l3.82-107.386z" fill="#013b84"/><path d="m133.637 142.639 1.117 14.992-13.415 17.663-45.176 82.288s-30.987-5.918-30.785-6.444l41.551-107.386z" fill="#013b84"/><path d="m151.067 145.321-71.805 18.497-1.118-53.608-9.33-27.655a9.998 9.998 0 0 1-.524-3.081l-.165-14.313 66.419 14.718z" fill="#016eea"/><path d="m113.015 325.785-2.622 8.899-3.854 13.056-.487 1.663-.172.584c-.184-.015-1.64-.067-3.659-.127-.79-.026-1.655-.052-2.573-.079-1.618-.052-3.374-.101-5.03-.15-3.756-.105-6.996-.191-6.996-.191l.026-.273.543-4.73.356-3.112.719-6.311.225-1.951.753-6.595.079-.682h22.692zm-77.596 4.656-1.232 1.951-3.992 6.311-1.966 3.112-2.992 4.73-.172.273s-3.307.086-7.142.191c-1.693.049-3.483.097-5.142.15-.933.026-1.82.052-2.629.079-2.064.06-3.558.112-3.753.127l.262-.584.753-1.663 5.895-13.056 2.835-6.277z" fill="#ed956e"/><path d="M120.159 9.121v5.776h5.148v19.322h1.931l9.397-14.456-4.256-10.944z" fill="#002652"/><path d="m131.297 356.377 4.399-2.62c1.213-.723 2.057-1.958 2.244-3.284.274-1.949-.927-3.602-2.818-3.877l-8.342-1.216c-5.272-.769-9.621-3.836-11.919-8.406l-2.751-5.471-3.659 2.059c-.882.496-1.337 1.523-1.057 2.387l.801 2.472-5.018 1.97c-3.399 1.334-7.004.72-9.286-1.583l-3.524-3.555c-.617-.623-1.795-.156-1.976.784l-3.079 15.995.434 3.765z" fill="#2888ff"/><path d="m83.931 353.082.523 1.583c.942 2.848 3.552 4.665 6.7 4.665h33.471c.643 0 1.299-.166 1.904-.481l7.996-4.17h-27.56c-.488 0-.93-.191-1.232-.531-1.516-1.71-3.736-2.667-6.188-2.667H85.173c-.824-.001-1.488.856-1.242 1.601z" fill="#93c3ff"/><path d="m130.478 16.57.129 22.123c-.066 2.616-2.662 4.409-5.131 3.544l-22.903-8.023z" fill="#c78982"/><path d="m128.675 30.012 3.917-.094c1.632-.039 2.436-2.003 1.299-3.175l-4.972-5.129z" fill="#ed956e"/><path d="m117.527 2.783-.504-.013a3.858 3.858 0 0 0-3.953 3.759l-.336 13.391 17.856.448.094-3.751c.187-7.453-5.704-13.647-13.157-13.834z" fill="#c78982"/><path d="m144.765 82.302-3.517-16.625a11.233 11.233 0 0 0-8.14-8.542l-51.06-13.403c-7.174-1.883-14.173 3.579-14.087 10.996l.281 24.423 15.447 7.127zm10.801 61.007-46.221-14.244c-6.518-2.009-10.174-8.921-8.165-15.439l.547-1.776a7.704 7.704 0 0 1 9.631-5.094l50.661 15.612z" fill="#016eea"/><path d="M96.953 24.001h20.86V65.29c0 1.002-1.212 1.503-1.919.793l-18.941-19.01z" fill="#ed956e"/><path d="m130.33 32.047-11.193-.28.357-14.23 11.194.282z" fill="#c78982"/><path d="M112.768.009h-5.3c-5.791 0-10.486 4.695-10.486 10.486v26.216h33.706V17.93c.001-9.898-8.023-17.921-17.92-17.921z" fill="#ed956e"/><path d="m133.056 118.61-10.963-35.342 20.836-6.783 10.963 35.342z" fill="#016eea"/><path d="M130.449 20.648h-2.565a1.12 1.12 0 0 0-.794.329l-1.068 1.068c-.708.708-.207 1.918.794 1.918h3.104" fill="#002652" opacity=".1"/><path d="M116.533 24.562v3.971a9.167 9.167 0 0 0 5.542 8.42 5.2 5.2 0 0 1 5.201-5.201h3.413v10.642c0 2.639-2.657 4.451-5.114 3.486l-9.737-3.822a3.745 3.745 0 0 1-2.377-3.486V21.491a3.071 3.071 0 0 1 3.072 3.071z" fill="#002652"/><path d="m126.769 37.68 2.579.595a1.095 1.095 0 0 0 1.341-1.067V34.09h-2.472a2.397 2.397 0 0 0-2.397 2.397c0 .57.393 1.064.949 1.193zm13.626 113.77 13.258 3.852-.257-10.417-9.347.284z" fill="#ed956e"/><path d="m148.312 142.013-8.372 6.47a2.066 2.066 0 0 0-.763 1.238l-.488 2.524c-.071.37-.243.713-.496.992l-3.825 4.221a.412.412 0 0 0 .029.582l.787.713a2.508 2.508 0 0 0 3.31.05l3.179-2.71c.376-.32.663-.732.834-1.196l1.328-3.6 7.056-5.399z" fill="#ed956e"/><path d="M.076 356.966h24.107l1.329-3.707a18.722 18.722 0 0 0 .851-9.355l-.683-4.157-9.776-5.51-9.837 5.51-4.916 7.773a7.442 7.442 0 0 0-1.152 4.082z" fill="#2888ff"/><path d="M3.998 362.132h16.608c.936 0 1.767-.511 2.068-1.27l1.681-4.24H.248l1.681 4.24c.301.759 1.133 1.27 2.069 1.27z" fill="#93c3ff"/><path d="M12.381 332.111h10.03c1.034 0 1.704.838 1.496 1.873l-1.946 9.686c-.208 1.034-1.215 1.873-2.249 1.873H9.682c-1.034 0-1.704-.838-1.496-1.873l1.946-9.686c.208-1.035 1.214-1.873 2.249-1.873z" fill="#2888ff"/><path d="M14.023 353.867h-3.444a2.59 2.59 0 0 0-2.583 2.583 2.59 2.59 0 0 0 2.583 2.583h3.444a2.59 2.59 0 0 0 2.583-2.583 2.59 2.59 0 0 0-2.583-2.583z" fill="#93c3ff"/><path d="m142.566 145.6-10.584-30.786a7.976 7.976 0 0 1 2.541-8.805l2.938-2.365a7.974 7.974 0 0 1 11.212 1.212l3.867 4.805a7.975 7.975 0 0 1 1.755 5.339l-.979 30.527z" fill="#016eea"/><path d="M125.853 2.739v11.883a4.183 4.183 0 0 1-4.183 4.183h-4.217a4.042 4.042 0 0 0-4.042 4.042v9.908a3.64 3.64 0 0 1-6.214 2.574L92.96 21.091a2.021 2.021 0 0 1 0-2.858L103.875 5.02A13.35 13.35 0 0 1 117.488.591z" fill="#002652"/><path d="M113.644 0h-11.858c-6.171 0-11.173 5.002-11.173 11.173v20.09c0 .881.614 1.643 1.475 1.83l21.556 4.683z" fill="#002652"/><path d="M106.721 17.414h.347a4.809 4.809 0 0 1 4.809 4.809v9.267l-3.849-2.352a6.143 6.143 0 0 1-2.883-4.403l-.656-4.759a2.254 2.254 0 0 1 2.232-2.562z" fill="#ed956e"/></svg></g><g transform="translate(1255.0 903.0) rotate(0.0 86.5 82.0) scale(1.7832477786711196 1.7813307844372515)"><svg width="97.014" height="92.066" viewBox="0 0 97.014 92.066"><path d="M30.206 0h-4.143c-.818 0-1.482.663-1.482 1.482v15.274h5.625zm27.841 0h-4.143v16.756h5.625V1.482C59.529.663 58.866 0 58.047 0z" fill="#2888ff"/><path d="M52.164 10.562h9.106v4.926h-9.106zm-29.323 0h9.106v4.926h-9.106z" fill="#68abff"/><path d="M58.101 0H26.009c-.789 0-1.428.639-1.428 1.428v3.993h34.948V1.428C59.529.639 58.89 0 58.101 0z" fill="#2888ff"/><path d="M92.719 92.06H82.98V14.359h9.739a4.295 4.295 0 0 1 4.295 4.295v69.11a4.295 4.295 0 0 1-4.295 4.296z" fill="#93c3ff"/><path d="M97.014 24.611H81.858V14.359h10.668a4.49 4.49 0 0 1 4.489 4.489v5.763z" fill="#68abff"/><path d="M80.612 92.063h4.615a4.753 4.753 0 0 0 4.753-4.753V19.119a4.753 4.753 0 0 0-4.753-4.753h-4.615a5.614 5.614 0 0 1 5.621 5.621v66.455c0 3.11-2.51 5.621-5.621 5.621z" fill="#d4e7ff"/><path d="M83.678 92.066h4.612c.078 0 .157 0 .236-.011h-4.657c-.057.011-.124.011-.191.011z" fill="#90a4ae"/><path d="M68.392 14.364v77.69h12.412a5.606 5.606 0 0 0 5.431-5.611V19.986a5.617 5.617 0 0 0-5.622-5.622z" fill="#93c3ff"/><path d="M72.881 14.364V24.61h13.354v-4.623a5.617 5.617 0 0 0-5.622-5.622h-7.732z" fill="#68abff"/><path d="m77.98 87.307-.003-62.695-2.336-4.485c0-2.479-.486-3.898-2.965-3.898l-4.284-1.869H4.751A4.75 4.75 0 0 0 0 19.11v68.197a4.753 4.753 0 0 0 4.753 4.753h68.474a4.753 4.753 0 0 0 4.753-4.753z" fill="#d4e7ff"/><path d="m77.98 24.611-.004-5.766a4.49 4.49 0 0 0-4.489-4.486h-5.036l-.061 10.252zm-77.98 0 .003-5.503a4.753 4.753 0 0 1 4.753-4.75h4.772l.061 10.252H0z" fill="#2888ff"/><path d="M4.77 19.11h68.441v68.199H4.77z" fill="#e9f3ff"/><g fill="#fff"><path d="M67.157 45.714a2.44 2.44 0 0 0-2.44-2.438H13.262a2.44 2.44 0 0 0 0 4.88h51.455a2.442 2.442 0 0 0 2.44-2.442zm0 14.988a2.44 2.44 0 0 0-2.44-2.438H13.262a2.44 2.44 0 0 0 0 4.88h51.455a2.442 2.442 0 0 0 2.44-2.442z"/></g></svg></g></svg>