<svg xmlns="http://www.w3.org/2000/svg" viewBox="0 0 800 600" width="800" height="600"><g transform="translate(212.0 86.0) rotate(0.0 188.0 188.0) scale(1.0 1.0)"><svg width="376" height="376" viewBox="0 0 376 376"><path d="M.5 94.25h93.75V188H.5z" fill="#fff"/><path d="M94.75 188.5H0V93.75h94.75zM1 187.5h92.75V94.75H1z" fill="#60657C"/><path d="M94.25 94.25H188V188H94.25z" fill="#fff"/><path d="M188.5 188.5H93.75V93.75h94.75zm-93.75-1h92.75V94.75H94.75z" fill="#60657C"/><path d="M188 94.25h93.75V188H188z" fill="#fff"/><path d="M282.25 188.5H187.5V93.75h94.75zm-93.75-1h92.75V94.75H188.5z" fill="#60657C"/><path d="M281.75 94.25h93.75V188h-93.75z" fill="#fff"/><path d="M376 188.5h-94.75V93.75H376zm-93.75-1H375V94.75h-92.75z" fill="#60657C"/><path d="M281.75 188h93.75v93.75h-93.75z" fill="#fff"/><path d="M376 282.25h-94.75V187.5H376zm-93.75-1H375V188.5h-92.75z" fill="#60657C"/><path d="M188 188h93.75v93.75H188z" fill="#fff"/><path d="M282.25 282.25H187.5V187.5h94.75zm-93.75-1h92.75V188.5H188.5z" fill="#60657C"/><path d="M94.25 188H188v93.75H94.25z" fill="#fff"/><path d="M188.5 282.25H93.75V187.5h94.75zm-93.75-1h92.75V188.5H94.75z" fill="#60657C"/><path d="M.5 188h93.75v93.75H.5z" fill="#fff"/><path d="M94.75 282.25H0V187.5h94.75zm-93.75-1h92.75V188.5H1z" fill="#60657C"/><path d="M.5 281.75h93.75v93.75H.5z" fill="#fff"/><path d="M94.75 376H0v-94.75h94.75zM1 375h92.75v-92.75H1z" fill="#60657C"/><path d="M94.25 281.75H188v93.75H94.25z" fill="#fff"/><path d="M188.5 376H93.75v-94.75h94.75zm-93.75-1h92.75v-92.75H94.75z" fill="#60657C"/><path d="M188 281.75h93.75v93.75H188z" fill="#fff"/><path d="M282.25 376H187.5v-94.75h94.75zm-93.75-1h92.75v-92.75H188.5z" fill="#60657C"/><path d="M281.75 281.75h93.75v93.75h-93.75z" fill="#fff"/><path d="M376 376h-94.75v-94.75H376zm-93.75-1H375v-92.75h-92.75z" fill="#60657C"/><path d="M281.75.5h93.75v93.75h-93.75z" fill="#fff"/><path d="M376 94.75h-94.75V0H376zm-93.75-1H375V1h-92.75z" fill="#60657C"/><path d="M188 .5h93.75v93.75H188z" fill="#fff"/><path d="M282.25 94.75H187.5V0h94.75zm-93.75-1h92.75V1H188.5z" fill="#60657C"/><path d="M94.25.5H188v93.75H94.25z" fill="#fff"/><path d="M188.5 94.75H93.75V0h94.75zm-93.75-1h92.75V1H94.75z" fill="#60657C"/><path d="M.5.5h93.75v93.75H.5z" fill="#fff"/><path d="M94.75 94.75H0V0h94.75zM1 93.75h92.75V1H1z" fill="#60657C"/></svg></g><g transform="translate(590.0 271.0) rotate(0.0 51.0 192.5) translate(0.0 0.0) scale(0.9982872522632739 0.9996183275476637)"><svg width="101.173" height="224.086" viewBox="0 0 101.173 224.086"><path d="M81.034 33.364H17.45c-7.635 0-13.881-6.247-13.881-13.881 0-7.635 6.247-13.881 13.881-13.881h63.585c7.635 0 13.881 6.247 13.881 13.881s-6.247 13.881-13.882 13.881z" fill="#fff"/><path d="M81.034 33.863H17.45c-7.93 0-14.381-6.451-14.381-14.381S9.52 5.101 17.45 5.101h63.584c7.93 0 14.381 6.452 14.381 14.381s-6.451 14.381-14.381 14.381zM17.45 6.101c-7.378 0-13.381 6.003-13.381 13.381s6.003 13.381 13.381 13.381h63.584c7.378 0 13.381-6.002 13.381-13.381S88.413 6.101 81.034 6.101z" fill="#60657C"/><path d="M24.972 29.333h50.599v355.313H24.972z" fill="#fff"/><path d="M76.071 385.147H24.472V28.833h51.599zm-50.599-1h49.599V29.833H25.472z" fill="#60657C"/><path d="M39.748 384.647h-6.717V40.304a3.358 3.358 0 0 1 6.716 0v344.343z" fill="#fff"/><path d="M40.248 385.147h-7.716V40.304c0-2.127 1.73-3.858 3.858-3.858s3.858 1.731 3.858 3.858zm-6.716-1h5.716V40.304c0-1.576-1.282-2.858-2.858-2.858s-2.858 1.282-2.858 2.858z" fill="#60657C"/><path d="M53.629 384.647h-6.717V40.304a3.358 3.358 0 0 1 6.716 0v344.343z" fill="#fff"/><path d="M54.129 385.147h-7.717V40.304c0-2.127 1.731-3.858 3.858-3.858s3.858 1.731 3.858 3.858v344.843zm-6.716-1h5.717V40.304c0-1.576-1.282-2.858-2.858-2.858s-2.858 1.282-2.858 2.858v343.843z" fill="#60657C"/><path d="M67.511 384.647h-6.717V40.304a3.358 3.358 0 0 1 6.716 0v344.343z" fill="#fff"/><path d="M68.011 385.147h-7.717V40.304c0-2.127 1.731-3.858 3.858-3.858s3.858 1.731 3.858 3.858v344.843zm-6.717-1h5.717V40.304c0-1.576-1.282-2.858-2.858-2.858s-2.858 1.282-2.858 2.858v343.843z" fill="#60657C"/><path d="M82.665.5H19.51C9.028.5.5 9.028.5 19.51c0 10.483 8.528 19.011 19.01 19.011 10.483 0 19.011-8.528 19.011-19.011v-1.635a4.702 4.702 0 1 0-9.404 0v1.635c0 5.298-4.31 9.607-9.607 9.607s-9.607-4.31-9.607-9.607 4.31-9.607 9.607-9.607h63.155c5.298 0 9.607 4.31 9.607 9.607 0 5.298-4.31 9.607-9.607 9.607s-9.607-4.31-9.607-9.607v-1.635a4.702 4.702 0 1 0-9.404 0v1.635c0 10.483 8.528 19.011 19.011 19.011 10.482 0 19.011-8.528 19.011-19.011C101.675 9.028 93.147.5 82.665.5z" fill="#fff"/><path d="M82.665 39.021c-10.758 0-19.511-8.753-19.511-19.511v-1.635c0-2.869 2.333-5.202 5.202-5.202s5.202 2.333 5.202 5.202v1.635c0 5.022 4.085 9.107 9.107 9.107s9.107-4.085 9.107-9.107c0-5.021-4.085-9.107-9.107-9.107H19.51c-5.021 0-9.107 4.085-9.107 9.107s4.085 9.107 9.107 9.107 9.107-4.085 9.107-9.107v-1.635c0-2.869 2.333-5.202 5.202-5.202s5.202 2.333 5.202 5.202v1.635c0 10.758-8.752 19.511-19.511 19.511C8.752 39.021 0 30.269 0 19.51 0 8.752 8.752 0 19.51 0h63.154c10.758 0 19.511 8.752 19.511 19.51 0 10.759-8.752 19.511-19.51 19.511zm-14.31-25.348a4.207 4.207 0 0 0-4.202 4.202v1.635c0 10.207 8.304 18.511 18.511 18.511s18.511-8.304 18.511-18.511C101.175 9.304 92.872 1 82.665 1H19.51C9.304 1 1 9.304 1 19.51c0 10.207 8.304 18.511 18.51 18.511 10.207 0 18.511-8.304 18.511-18.511v-1.635c0-2.317-1.885-4.202-4.202-4.202s-4.202 1.885-4.202 4.202v1.635c0 5.573-4.534 10.107-10.107 10.107S9.403 25.083 9.403 19.51 13.937 9.403 19.51 9.403h63.154c5.573 0 10.107 4.534 10.107 10.107s-4.534 10.107-10.107 10.107-10.107-4.534-10.107-10.107v-1.635a4.207 4.207 0 0 0-4.202-4.202z" fill="#60657C"/></svg></g><g transform="translate(329.0 96.0) rotate(0.0 23.5 40.0) scale(0.9924824731818566 0.9912276354264757)"><svg width="47.356" height="80.708" viewBox="0 0 47.356 80.708"><g fill="#60657C"><path d="M25.251 72.656V15.183h-4.615v3.356h-6.474c-1.445 0-1.957 1.913-.706 2.635a11.248 11.248 0 0 1 5.564 10.937l-1.248 11.703a20.21 20.21 0 0 1-13.11 16.821A6.362 6.362 0 0 0 6.97 72.966z"/><path d="M6.86 73.468c-3.783 0-6.86-3.079-6.86-6.863a6.888 6.888 0 0 1 4.49-6.439c7.086-2.611 11.985-8.897 12.786-16.405l1.249-11.703a10.754 10.754 0 0 0-5.317-10.45c-.76-.439-1.118-1.303-.891-2.151s.969-1.417 1.847-1.417h5.974v-3.356h5.615v58.465zm7.303-54.429c-.516 0-.793.349-.881.676s-.022.768.425 1.026a11.756 11.756 0 0 1 5.811 11.423L18.27 43.867c-.841 7.889-5.989 14.494-13.434 17.237A5.883 5.883 0 0 0 1 66.605a5.868 5.868 0 0 0 5.86 5.863l.102-.001 17.79-.302V15.683h-3.615v3.356z"/><path d="M22.105 72.656V15.183h4.615v3.356h6.474c1.445 0 1.957 1.913.706 2.635a11.248 11.248 0 0 0-5.564 10.937l1.248 11.703a20.21 20.21 0 0 0 13.11 16.821 6.362 6.362 0 0 1-2.307 12.331z"/><path d="m40.496 73.468-.118-.001-18.773-.318V14.683h5.615v3.356h5.974c.877 0 1.62.569 1.847 1.417s-.131 1.712-.891 2.151a10.754 10.754 0 0 0-5.317 10.45l1.248 11.703c.801 7.509 5.7 13.794 12.786 16.405a6.887 6.887 0 0 1 4.49 6.439c-.001 3.785-3.078 6.864-6.861 6.864zm-17.891-1.303 17.891.303c3.231 0 5.86-2.63 5.86-5.863a5.884 5.884 0 0 0-3.835-5.5c-7.445-2.743-12.593-9.348-13.435-17.237l-1.248-11.703a11.754 11.754 0 0 1 5.811-11.423c.447-.258.513-.699.425-1.026s-.365-.676-.881-.676H26.22v-3.356h-3.615z"/><path d="M45.912 80.208H1.444v-6.81a2 2 0 0 1 2-2h40.469a2 2 0 0 1 2 2v6.81z"/><path d="M46.412 80.708H.944v-7.31c0-1.378 1.122-2.5 2.5-2.5h40.468c1.378 0 2.5 1.122 2.5 2.5zm-44.468-1h43.468v-6.31c0-.827-.673-1.5-1.5-1.5H3.444c-.827 0-1.5.673-1.5 1.5z"/><circle cx="23.678" cy="9.939" r="9.439"/><path d="M23.678 19.878c-5.48 0-9.939-4.458-9.939-9.939S18.198 0 23.678 0s9.939 4.459 9.939 9.939-4.459 9.939-9.939 9.939zm0-18.878c-4.929 0-8.939 4.01-8.939 8.939s4.01 8.939 8.939 8.939 8.939-4.01 8.939-8.939S28.607 1 23.678 1z"/></g></svg></g><g transform="translate(423.0 188.0) rotate(0.0 23.5 40.0) scale(0.9924824731818566 0.9912276354264757)"><svg width="47.356" height="80.708" viewBox="0 0 47.356 80.708"><g fill="#60657C"><path d="M25.251 72.656V15.183h-4.615v3.356h-6.474c-1.445 0-1.957 1.913-.706 2.635a11.248 11.248 0 0 1 5.564 10.937l-1.248 11.703a20.21 20.21 0 0 1-13.11 16.821A6.362 6.362 0 0 0 6.97 72.966z"/><path d="M6.86 73.468c-3.783 0-6.86-3.079-6.86-6.863a6.888 6.888 0 0 1 4.49-6.439c7.086-2.611 11.985-8.897 12.786-16.405l1.249-11.703a10.754 10.754 0 0 0-5.317-10.45c-.76-.439-1.118-1.303-.891-2.151s.969-1.417 1.847-1.417h5.974v-3.356h5.615v58.465zm7.303-54.429c-.516 0-.793.349-.881.676s-.022.768.425 1.026a11.756 11.756 0 0 1 5.811 11.423L18.27 43.867c-.841 7.889-5.989 14.494-13.434 17.237A5.883 5.883 0 0 0 1 66.605a5.868 5.868 0 0 0 5.86 5.863l.102-.001 17.79-.302V15.683h-3.615v3.356z"/><path d="M22.105 72.656V15.183h4.615v3.356h6.474c1.445 0 1.957 1.913.706 2.635a11.248 11.248 0 0 0-5.564 10.937l1.248 11.703a20.21 20.21 0 0 0 13.11 16.821 6.362 6.362 0 0 1-2.307 12.331z"/><path d="m40.496 73.468-.118-.001-18.773-.318V14.683h5.615v3.356h5.974c.877 0 1.62.569 1.847 1.417s-.131 1.712-.891 2.151a10.754 10.754 0 0 0-5.317 10.45l1.248 11.703c.801 7.509 5.7 13.794 12.786 16.405a6.887 6.887 0 0 1 4.49 6.439c-.001 3.785-3.078 6.864-6.861 6.864zm-17.891-1.303 17.891.303c3.231 0 5.86-2.63 5.86-5.863a5.884 5.884 0 0 0-3.835-5.5c-7.445-2.743-12.593-9.348-13.435-17.237l-1.248-11.703a11.754 11.754 0 0 1 5.811-11.423c.447-.258.513-.699.425-1.026s-.365-.676-.881-.676H26.22v-3.356h-3.615z"/><path d="M45.912 80.208H1.444v-6.81a2 2 0 0 1 2-2h40.469a2 2 0 0 1 2 2v6.81z"/><path d="M46.412 80.708H.944v-7.31c0-1.378 1.122-2.5 2.5-2.5h40.468c1.378 0 2.5 1.122 2.5 2.5zm-44.468-1h43.468v-6.31c0-.827-.673-1.5-1.5-1.5H3.444c-.827 0-1.5.673-1.5 1.5z"/><circle cx="23.678" cy="9.939" r="9.439"/><path d="M23.678 19.878c-5.48 0-9.939-4.458-9.939-9.939S18.198 0 23.678 0s9.939 4.459 9.939 9.939-4.459 9.939-9.939 9.939zm0-18.878c-4.929 0-8.939 4.01-8.939 8.939s4.01 8.939 8.939 8.939 8.939-4.01 8.939-8.939S28.607 1 23.678 1z"/></g></svg></g><g transform="translate(330.0 375.0) rotate(0.0 23.5 40.0) scale(0.9924824731818566 0.9912276354264757)"><svg width="47.356" height="80.708" viewBox="0 0 47.356 80.708"><path d="M42.694 60.635a20.21 20.21 0 0 1-13.11-16.821l-1.248-11.703A11.25 11.25 0 0 1 33.9 21.174c1.251-.722.739-2.635-.706-2.635H26.72v-3.356h-6.083v3.356h-6.474c-1.445 0-1.957 1.913-.706 2.635a11.248 11.248 0 0 1 5.564 10.937l-1.248 11.703a20.21 20.21 0 0 1-13.11 16.821A6.362 6.362 0 0 0 6.97 72.966l16.708-.283 16.708.283a6.362 6.362 0 0 0 2.308-12.331z" fill="#fff"/><path d="M40.497 73.468c-.001 0-.001 0 0 0l-.119-.001-16.708-.284-16.81.285c-3.782 0-6.86-3.079-6.86-6.862a6.887 6.887 0 0 1 4.49-6.439c7.086-2.611 11.985-8.896 12.786-16.405l1.248-11.703a10.756 10.756 0 0 0-5.317-10.451 1.892 1.892 0 0 1-.892-2.15 1.89 1.89 0 0 1 1.847-1.417h5.974v-3.356h7.083v3.356h5.974c.878 0 1.62.57 1.847 1.417a1.89 1.89 0 0 1-.892 2.15 10.756 10.756 0 0 0-5.317 10.451l1.249 11.703c.801 7.508 5.7 13.794 12.786 16.405a6.887 6.887 0 0 1 4.49 6.439 6.816 6.816 0 0 1-2.012 4.854 6.813 6.813 0 0 1-4.847 2.008zM23.67 72.183l16.826.284a5.822 5.822 0 0 0 4.141-1.715 5.82 5.82 0 0 0 1.719-4.147 5.885 5.885 0 0 0-3.836-5.501c-7.445-2.743-12.593-9.348-13.434-17.237l-1.249-11.703a11.756 11.756 0 0 1 5.811-11.423c.447-.258.513-.699.425-1.025s-.365-.676-.881-.676H26.22v-3.356h-5.083v3.356h-6.974c-.516 0-.793.349-.881.676s-.022.768.425 1.025a11.756 11.756 0 0 1 5.811 11.423L18.27 43.867c-.841 7.889-5.989 14.494-13.435 17.237A5.885 5.885 0 0 0 1 66.605a5.868 5.868 0 0 0 5.86 5.862l.102-.001z" fill="#60657C"/><path d="M45.912 80.208H1.444v-6.81a2 2 0 0 1 2-2h40.469a2 2 0 0 1 2 2v6.81z" fill="#fff"/><path d="M46.413 80.708H.944v-7.31c0-1.378 1.122-2.5 2.5-2.5h40.469c1.378 0 2.5 1.122 2.5 2.5zm-44.469-1h43.469v-6.31c0-.827-.673-1.5-1.5-1.5H3.444c-.827 0-1.5.673-1.5 1.5z" fill="#60657C"/><circle cx="23.678" cy="9.939" fill="#fff" r="9.439"/><path d="M23.678 19.878c-5.48 0-9.939-4.458-9.939-9.939S18.198 0 23.678 0s9.939 4.459 9.939 9.939-4.458 9.939-9.939 9.939zm0-18.878c-4.929 0-8.939 4.01-8.939 8.939s4.01 8.939 8.939 8.939 8.939-4.01 8.939-8.939S28.607 1 23.678 1z" fill="#60657C"/></svg></g><g transform="translate(626.0 238.0) rotate(0.0 7.0 23.0) scale(0.3898092718919672 0.4052256490217324)"><svg width="35.915" height="113.517" viewBox="0 0 35.915 113.517"><path d="M19.779 99.237v-37.15c0-.679.318-1.324.874-1.713 5.914-4.131 10.356-21.569 10.356-42.466 0-6.388-.418-12.447-1.163-17.908H6.07c-.745 5.461-1.164 11.52-1.164 17.908 0 20.897 4.442 38.336 10.356 42.466a2.08 2.08 0 0 1 .874 1.712v37.151c0 4.549-2.901 8.592-7.21 10.049l-8.445 2.855c-.758.256-.574 1.377.226 1.377h34.5c.8 0 .985-1.121.226-1.377l-8.445-2.855a10.609 10.609 0 0 1-7.209-10.049z" fill="#93c3ff"/></svg></g><g transform="translate(539.0 153.0) rotate(0.0 51.5 181.5) scale(0.9916718817696049 0.9993640410647769)"><svg width="103.865" height="363.231" viewBox="0 0 103.865 363.231"><path d="m33.681 333.516-3.134 6.991c-1.581 3.526.999 7.509 4.863 7.509h6.271s16.5 8.5 18 8 21.5 0 21.5 0v-.761a5.33 5.33 0 0 0-4.707-5.293l-12.293-1.446-15-17z" fill="#ed956e"/><path d="M68.647 221.159 66.601 259.2a18.29 18.29 0 0 1-.481 3.296l-17.341 69.215s-15.715 1.958-15.176 1.987l4.925-74.401c.114-2.07.583-4.125 1.387-6.074l11.133-26.982z" fill="#ed956e"/><path d="m30.547 340.506 3.054-6.813c0-.001-.005-.002.002-.004l.001-.002 4.924-74.39c.114-2.07.583-4.125 1.387-6.074l11.133-26.982 17.599-5.082-2.046 38.041a18.29 18.29 0 0 1-.481 3.296l-17.304 69.067.364-.047 15 17 12.293 1.446a5.33 5.33 0 0 1 4.707 5.293v.761s-20-.5-21.5 0-18-8-18-8h-6.27c-3.864 0-6.443-3.984-4.863-7.51z" fill="#002652" opacity=".07"/><path d="m33.681 333.516-3.134 6.991c-1.581 3.526.999 7.509 4.863 7.509h6.271s16.5 8.5 18 8 21.5 0 21.5 0v-.761a5.33 5.33 0 0 0-4.707-5.293l-12.293-1.446-18.835-3.387z" fill="#7eb8ff"/><path d="M42.89 345.75H31.009l1.458 10.045H42.89z" fill="#7eb8ff"/><path d="m81.224 127.169 5.386 21.061a7.178 7.178 0 0 1 .027 3.405l-18.612 80.02s-18.435 1.565-18.407 1.053l3.106-57.75 1.914-46.707z" fill="#22b573"/><path d="M77.638 96.136 4.519 78.896l-4.202-16.6c-1.696-6.703 3.661-13.035 10.071-11.903l5.629.993 44.997 9.772c3.466.753 6.306 3.401 7.472 6.971z" fill="#013b84"/><path d="m69.08 71.046 20.366 40.722a5.043 5.043 0 0 1-.611 5.452l-4.125 5.032c-2.291 2.793-6.691 2.342-8.365-.859L51.409 73.739zM2.104 69.318l12.131 47.216c2.225 5.883 9.264 8.276 14.614 4.972l3.055-1.886-14.19-59.207z" fill="#013b84"/><path d="m55.536 239.28-11.297 36.596a18.02 18.02 0 0 0-.801 5.596l1.026 67.796s13.541.767 13.006.68l12.341-69.857 2.93-26.545a7.951 7.951 0 0 0-4.412-8.016z" fill="#ed956e"/><path d="m48.838 154.145 20.295 17.35 3.481 78.831a5.242 5.242 0 0 1-5.033 5.472c-4.641.179-10.69.357-10.828.074L25.471 166.75z" fill="#ed956e"/><path d="M68.968 73.123s7.554 33.625 7.871 34.861l6.632 25.831-58.684 21.878-.366-28.066-5.403-58.623z" fill="#013b84"/><path d="m83.471 133.815 3.63 13.795c.71 2.696.717 5.53.022 8.23l-15.526 60.342.282 12.568-30.167.5-16.392-56.812a14.97 14.97 0 0 1-.588-4.122l-.049-20.093z" fill="#013b84"/><path d="M39.959 18.008c0-9.325-6.531-16.884-14.587-16.884-6.873 0-12.635 5.501-14.18 12.907-.4 1.918.394 3.977 1.5 3.977z" fill="#f15a24"/><path d="M21.673 17.76h10.872v13.82H21.673z" fill="#99644c"/><path d="m28.628 55.599 14.099 16.596c1.155 1.523 3.584.714 3.594-1.198l.142-27.41-10.51.036-7.465.032z" fill="#ed956e"/><path d="M17.706 18.636v6.592c0 .239.046.477.135.699l.874 2.173c.294.73.1 1.565-.485 2.091l-.524.471v12.75a3.745 3.745 0 0 0 3.761 3.745l23.658-.096-.097-8.058z" fill="#ed956e"/><path d="m20.996 38.26-5.178-2.688a1.873 1.873 0 0 1-.37-3.072l5.548-4.851z" fill="#ed956e"/><path d="m28.507 46.884.828-.002a2 2 0 0 1 1.807 2.866l-2.553 5.316" fill="#002652" opacity=".07"/><path d="M34.828 29.797h5.443v8.288h-5.443z" fill="#99644c"/><path d="M17.662 25.684h4.314c.298 0 .584.118.795.329l1.068 1.068c.708.708.207 1.918-.795 1.918h-3.853m1.852 8.983-.427.835a1.873 1.873 0 0 1-1.139.943l-1.694.498v-2.321z" fill="#002652" opacity=".07"/><path d="M40.115 31.562h-8.208v-8.476h8.208a3.356 3.356 0 0 1 3.356 3.356v1.765a3.355 3.355 0 0 1-3.356 3.355zM30.481 6.329h.489a3.745 3.745 0 0 1 3.745 3.745v13.007H17.372v-3.643c0-7.24 5.869-13.109 13.109-13.109z" fill="#99644c"/><path d="M23.578 4.73h13.817v12.307h7.602v32.77H39.38a7.491 7.491 0 0 1-7.491-7.491v-9.295a7 7 0 0 0-7-7h-6.437a7.491 7.491 0 0 1-7.491-7.491v-1.184c0-6.968 5.649-12.616 12.617-12.616z" fill="#f15a24"/><path d="M23.649 10.661C23.649 4.773 31.32 0 40.783 0c8.073 0 14.841 3.474 16.656 8.15.47 1.211-.463 2.511-1.762 2.511z" fill="#f15a24"/><path d="M35.865 30.413h22.323V11.382a6.832 6.832 0 0 0-6.832-6.832H35.865z" fill="#f15a24"/><path d="M54.817 23.14h-17v15h24a4 4 0 0 0 4-4c0-6.075-4.925-11-11-11z" fill="#f15a24"/><path d="M56.817 34.806h-17v15h24a4 4 0 0 0 4-4c0-6.075-4.925-11-11-11z" fill="#f15a24"/><path d="m22.555 96.804 1.903 5.508 1.367 6.839c.205.504 3.625 3.668 7.245 6.274 3.163 2.287 6.484 4.148 7.913 3.41l.453-.249 7.82-1.795 5.86-2.908-12.952-4.069c-2.892-.468-3.591-3.639-5.38-4.947l-7.231-5.291a13.104 13.104 0 0 1-2.132-1.959l-1.304-1.476z" fill="#ed956e"/><path d="m23.458 102.312 2.367 6.839c.205.504 3.625 3.668 7.245 6.274.572.018 1.145-.005 1.717-.07l.512-.069 7.109-2.753c-5.214 1.007-11.528-3.872-18.372-11.601a1.812 1.812 0 0 1-.578 1.38z" fill="#dc9373"/><path d="M18.129 84.057c-.713.478-1.013 1.506-.656 2.5l6.595 14.622 5.288.118-10.478-17.011a.547.547 0 0 0-.737-.234zm8.989 19.305 2.251-.257c1.322-.151 1.94 1.589.818 2.306l-3.141 2.006-2.518 1.607c-1.051.55-2.231.379-2.875-.335 0 0-.011.004-.017-.007a.623.623 0 0 1 .14-.856z" fill="#ed956e"/><path d="m21.163 99.018-4.151 4.522-1.174 1.277c-.259.227-.266.61-.039.87.011-.004.011-.004.017.007.729.625 1.923.627 2.893-.053l5.548-4.659c.953-.8.287-2.35-.949-2.21z" fill="#ed956e"/><path d="m24.11 100.345-1.293 1.421-5.238 5.683a.607.607 0 0 0-.027.865l.017.007c.729.625 1.927.638 2.893-.053l7.144-5.999c.953-.801.287-2.35-.949-2.209l-2.103.239z" fill="#ed956e"/><path d="m74.491 108.637.105 11.808-45.429 3.074-3.237-.516c-2.732-.435-4.666-2.638-4.759-5.421-.201-6.046 4.899-11.504 11.03-11.805l2.954-.145z" fill="#013b84"/><g fill="#ed956e"><path d="M100.434 105.396c.116 1.033.136 2.659-.747 2.808l-9.462.999-2.182-4.548 11.669.194c.255-.003.719.236.722.534z"/><path d="M99.304 108.851c.116 1.033.136 2.659-.747 2.808l-9.462.999-2.182-4.548 11.669.194c.255-.003.719.236.722.534z"/><path d="M98.79 112.291c.116 1.033.136 2.659-.747 2.808l-9.462.999-2.181-4.548 11.669.194c.255-.003.719.236.722.534l-.001.013z"/><path d="M97.932 115.477c.162.93.256 2.402-.62 2.586l-9.404 1.428-2.383-4.001 11.662-.468c.255-.017.729.174.745.444a.02.02 0 0 0 0 .011z"/><path d="m90.921 115.422.133-7.856a2.842 2.842 0 0 0-3.369-2.84l-7.011 1.326a7.491 7.491 0 0 0-3.828 1.988l-1.753 1.704 3.081 9.861 8.189.179a4.474 4.474 0 0 0 4.558-4.362z"/><ellipse cx="88.379" cy="111.084" rx="6.499" ry="7.106" transform="matrix(-.0218 .9998 -.9998 -.0218 201.3672 25.1522)"/><path d="m57.257 339.359 5.154 15.733a6.239 6.239 0 0 1 6.239 6.239v1.085H48.848l-8.681-8.681 5.154-14.648z"/></g><path d="M61.326 353.465H47.899a3.662 3.662 0 0 1-3.662-3.662v-10.715l-3.585 9.058a12.855 12.855 0 0 0-.459 8.078l1.89 7.007h28.196a9.015 9.015 0 0 0-5.494-8.299z" fill="#93c3ff"/></svg></g><g transform="translate(96.0 105.0) rotate(0.0 97.0 197.0) scale(0.99601593625498 0.9977790552501158)"><svg width="194.776" height="394.877" viewBox="0 0 194.776 394.877"><path d="M68.441 296.696c-.98 1.994-36.554 81.296-36.554 81.296l-31.621-.345s29.131-74.151 30.549-77.994l16.541-27.585 37.727-7.715c-.001 0-12.658 24.233-16.642 32.343zm.03 13.246-11.602 63.823-1.33 5.627 32.186 1.36.653-6.942 15.879-67.414 12.747-42.695-29.036-1.44-17.369 40.944c-1.09 2.168-1.872 4.551-2.128 6.737z" fill="#013b84"/><path d="M55.629 385.936h15.96v6.781h-15.96z" fill="#002652"/><path d="m58.654 390.109 12.101.104 9.388 2.295h25.14c1.565 0 2.608-1.669 1.773-3.025l-1.565-2.712a9.751 9.751 0 0 0-6.259-4.59L82.02 378.53l-25.662-2.712-1.878 9.284c-.416 2.608 1.566 5.007 4.174 5.007z" fill="#002652"/><path d="m83.794 373.836 6.259 6.78H77.014l-.209-6.78z" fill="#002652"/><path d="M89.428 380.199h-9.91l10.327 2.712c2.608.73 5.216.939 7.824.626.939-.104 1.043-1.46.104-1.669z" fill="#193b63"/><path d="m129.235 175.2 1.117 14.992-13.415 17.663-45.176 82.288s-30.987-5.918-30.785-6.444l41.551-107.386z" fill="#013b84"/><path d="m186.403 13.847 2.125 8.012c-.392 4.267-3.088 7.831-6.841 9.532-.802.378-1.642.65-2.529.838-.161-.007-.314-.034-.456-.052l-.507-.068-12.525 2.747 11.715-14.919.106-1.276a3.91 3.91 0 0 0 .399-.513l4.908-7.178c.527-.769 3.605 2.877 3.605 2.877z" fill="#c78982"/><path d="M40.314 386.763v.004c-.028 0-.024-.004 0-.004z" fill="#29abe2"/><path d="M158.535 75.683a4.506 4.506 0 0 1-1.632 6.222l-35.827 20.485c-5.856 3.497-13.438 1.585-16.936-4.271l-.953-1.596a7.704 7.704 0 0 1 2.664-10.565l43.802-25.146zm-116.13 90.404 18.179-48.281a4.646 4.646 0 0 1 5.984-2.713l16.162 6.079-20.219 51.085a6 6 0 0 1-7.728 3.504l-8.322-3.359c-3.103-1.168-5.223-3.214-4.056-6.315z" fill="#2888ff"/><path d="m61.964 136.289-2.324-8.236a19.999 19.999 0 0 1 7.17-21.372l51.368-31.98 14.64 92.306-42.937 5.338z" fill="#2888ff"/><path d="m136.492 177.72-.085 20.104a41.857 41.857 0 0 1-1.55 11.11l-20.944 74.782c-1.611 6.121-8.31 9.353-14.102 6.801-7.46-3.286-15.948-7.094-15.902-7.387l11.034-106.89z" fill="#013b84"/><path d="m78.397 185.962 58.036 10.949.059-53.225c-.159-13.37-4.868-68-4.868-68l-45.622 37.361-1.362 54.395z" fill="#2888ff"/><path d="m89.163 72.225 20.745.013-.025 42.42c-.001 1.913-2.429 2.733-3.59 1.212L89.148 93.401zM194.48 6.42c-.057-.005-.279-.083-.279-.083s-2.899-.759-2.897-.745a99.733 99.733 0 0 0-1.469-.353 2.759 2.759 0 0 0-.966-.09c-.976.023-3.223.156-4.148.241-.811.096-1.519.316-2.187.712-1.154.505-5.326 2.77-5.326 2.77l1.785 5.75 2.792-2.976 4.286 3.783s.385.781 1.166 2.229 3.456 1.642 2.953.276l-.763-2.248-.021.017a15.285 15.285 0 0 1-.302-.849 2.898 2.898 0 0 0-.442-.787c-.349-.421-.887-1.151-1.392-1.83l1.06.482s.737.699 1.988 2.02c1.251 1.32 4.176.678 3.266-.611l-1.528-2.034c-.257-.311-.406-.554-.715-.926a3.034 3.034 0 0 0-.731-.757 133.773 133.773 0 0 0-2.204-1.619l1.104-.088 2.091.311c.511.047 1.028.039 1.503-.146 1.484-.548 2.082-2.039 1.376-2.449z" fill="#c78982"/><path d="M194.48 6.42c-.057-.005-.279-.083-.279-.083s-2.899-.759-2.897-.745a99.733 99.733 0 0 0-1.469-.353 2.759 2.759 0 0 0-.966-.09c-.976.023-3.223.156-4.148.241-.811.096-1.519.316-2.187.712-1.154.505-5.326 2.77-5.326 2.77l1.785 5.75 2.792-2.976 4.286 3.783s.385.781 1.166 2.229 3.456 1.642 2.953.276l-.763-2.248-.021.017a15.285 15.285 0 0 1-.302-.849 2.898 2.898 0 0 0-.442-.787c-.349-.421-.887-1.151-1.392-1.83l1.06.482s.737.699 1.988 2.02c1.251 1.32 4.176.678 3.266-.611l-1.528-2.034c-.257-.311-.406-.554-.715-.926a3.034 3.034 0 0 0-.731-.757 133.773 133.773 0 0 0-2.204-1.619l1.104-.088 2.091.311c.511.047 1.028.039 1.503-.146 1.484-.548 2.082-2.039 1.376-2.449z" fill="#002652" opacity=".07"/><path d="M187.039 12.244s1.409-3.42 2.684-6.624c1.274-3.204-1.926-3.905-3.342-1.631l-3.777 6.063z" fill="#c78982"/><path d="m190.898.011-.057-.006-.057-.005-.034.007-2.549.038c-.806.039-1.55.027-2.066.035-.346.025-.635.055-.992.193-.946.313-3.019 1.035-3.908 1.353-.714.277-1.381.672-1.894 1.255l-6.367 6.794c-1.021 1.107-1.402 2.733-.849 4.16l2.772 7.709a8.33 8.33 0 0 1-.142 6.404l8.867 4.069c.096-.133.181-.254.271-.381-.172.277-.277.437-.277.437 3.168-4.458 3.323-5.423 4.195-7.431l.327-.836c1.684-3.883-2.625-7.598-1.095-11.561l-4.418-2.237-.939 1.459c-.939 1.459-3.495 1.22-2.95.297s4.084-6.893 4.084-6.893l3.852-1.358 2.087-.263c.522-.066.998-.25 1.427-.553 1.348-.907 1.497-2.498.712-2.686z" fill="#c78982"/><path d="m93.114 60.397 24.029-8.643a13.715 13.715 0 0 0-15.051-8.904l-6.535 1.035c-4.117.652-6.624 4.89-5.213 8.812z" fill="#002652"/><path d="m102.132 50.914 1.955 5.435 4.844-1.743 6.54 18.182 1.817-.653 3.95-16.783-7.71-8.858z" fill="#002652"/><g fill="#c78982"><path d="m114.465 54.43 7.609 20.773c.824 2.484-1.012 5.049-3.629 5.071l-24.267.202z"/><path d="m117.216 67.689 3.654-1.415c1.523-.589 1.614-2.709.148-3.428l-6.415-3.143zM97.51 45.841l-.479.159a3.857 3.857 0 0 0-2.447 4.875L98.8 63.589l16.953-5.622-1.181-3.561c-2.346-7.077-9.985-10.912-17.062-8.565z"/><path d="m104.356 59.064 10.628-3.525 4.481 13.511-10.628 3.525z"/><path d="m92.093 44.841-4.987 1.794c-5.45 1.96-8.278 7.967-6.318 13.417l8.873 24.669 31.717-11.409-6.357-17.674c-3.35-9.312-13.615-14.146-22.928-10.797z"/></g><path d="m115.852 58.142-2.414.868c-.28.101-.509.309-.636.579l-.643 1.366c-.426.906.455 1.875 1.397 1.536l3.25-1.228m1.602 10.113 2.149-.256-.818-2.275-3.251.45c-.67.241.127.679.828 1.283 0 0 .204.204.395.366.233.2.392.468.697.432z" fill="#002652" opacity=".07"/><path d="m105.329 42.982 4.022 11.181a4.183 4.183 0 0 1-2.52 5.352l-3.968 1.427a4.041 4.041 0 0 0-2.435 5.171l3.353 9.323a3.641 3.641 0 0 1-4.976 4.526L80.59 71.384a2.02 2.02 0 0 1-.967-2.689l5.798-16.128a13.35 13.35 0 0 1 11.31-8.775z" fill="#002652"/><path d="M92.914 44.536 81.756 48.55c-5.806 2.089-8.819 8.489-6.731 14.295l6.8 18.904a1.874 1.874 0 0 0 2.008 1.223l18.836-2.489a2.465 2.465 0 0 0 1.997-3.278z" fill="#002652"/><path d="m94.669 63.224.326-.117a4.809 4.809 0 0 1 6.153 2.898l3.136 8.72-4.419-.911a6.145 6.145 0 0 1-4.203-3.168l-2.228-4.256a2.255 2.255 0 0 1 1.235-3.166zM41.594 241.802h-.011a.49.49 0 0 1-.568-.387l-1.675-8.781a6.505 6.505 0 0 1 .092-2.851l1.021-4.093-1.262-2.298a3.677 3.677 0 0 1-.362-2.629l1.78-7.684.015-.062c.054-.272.096-.536.121-.807l.011.006 2.077-16.335 7.5 10.932c2.38 1.944 2.565 3.573 2.829 5.751l.455 3.829a7.796 7.796 0 0 1-.718 4.045 8.953 8.953 0 0 0-.779 2.434 399.687 399.687 0 0 1-1.188 6.138 1.465 1.465 0 0 1-1.366 1.059l-.14.004a1.426 1.426 0 0 1-1.36-1.486c.027-.793.133-5.522.139-7v-.011a.57.57 0 0 0-.387-.527.536.536 0 0 0-.606.193l-1.095 1.494-3.428 8.927.376 8.18a1.931 1.931 0 0 1-1.44 1.954z" fill="#c78982"/><path d="m51.795 208.769 10.302-36.198a4.935 4.935 0 0 0-1.567-5.111l-3.175-2.682c-3.457-2.92-8.758-5.991-11.678-2.534l-3.415 4.044c-.775.917-1.058 5.593-1.033 6.794l-.105 35.544zM186.05 28.285l-27.32 51.293a5.008 5.008 0 0 1-7.106 1.874l-13.007-8.257 13.603-21.428 21.696-27.495z" fill="#2888ff"/><path d="M10.479 368.977h5.2c4.4 0 8 3.6 8 8v3h-20.7v-3.5c0-4.1 3.3-7.5 7.5-7.5z" fill="#002652"/><path d="M2.779 394.877h21.2c3.1 0 3.5-5.5 1.5-10.6l-1.8-4.4h-20.7l-1.8 4.4c-1.9 5.1-1.6 10.6 1.6 10.6z" fill="#002652"/><path d="M5.079 388.877h16.1c2.4 0 2.7-3.3 1.2-6.4l-1.3-2.7h-15.8l-1.3 2.7c-1.6 3.1-1.3 6.4 1.1 6.4z" fill="#193b63"/></svg></g></svg>