<svg xmlns="http://www.w3.org/2000/svg" viewBox="0 0 3000 2250" width="3000" height="2250"><g transform="translate(112.5 1297.5) rotate(0.0 1301.25 136.875) scale(3.253125 3.2204745714857124)"><svg width="800" height="85.003" viewBox="0 0 800 85.003"><path d="M777.08.893a163.878 163.878 0 0 0-34.16 0 237.348 237.348 0 0 1-45.84 0 163.878 163.878 0 0 0-34.16 0 237.348 237.348 0 0 1-45.84 0 163.878 163.878 0 0 0-34.16 0 237.348 237.348 0 0 1-45.84 0 163.878 163.878 0 0 0-34.16 0 237.348 237.348 0 0 1-45.84 0 163.878 163.878 0 0 0-34.16 0 237.348 237.348 0 0 1-45.84 0 163.878 163.878 0 0 0-34.16 0 237.348 237.348 0 0 1-45.84 0 163.878 163.878 0 0 0-34.16 0 237.348 237.348 0 0 1-45.84 0 163.878 163.878 0 0 0-34.16 0A219.29 219.29 0 0 1 160 2.003a219.837 219.837 0 0 1-22.92-1.11 163.878 163.878 0 0 0-34.16 0A219.29 219.29 0 0 1 80 2.003 219.837 219.837 0 0 1 57.08.893a163.878 163.878 0 0 0-34.16 0A219.576 219.576 0 0 1 0 2.003v83c67 0 209.11-8 247-8s81 8 148 8c31.57 0 78.29-8 127-8s77.18 8 101 8 60.11-4 98-4c54.13 0 79 4 79 4v-83c-7.654.03-15.305-.341-22.92-1.11z" fill="#fbfbfb"/><path d="M777.08 28.893a163.878 163.878 0 0 0-34.16 0 237.348 237.348 0 0 1-45.84 0 163.878 163.878 0 0 0-34.16 0 237.348 237.348 0 0 1-45.84 0 163.878 163.878 0 0 0-34.16 0 237.348 237.348 0 0 1-45.84 0 163.878 163.878 0 0 0-34.16 0 237.348 237.348 0 0 1-45.84 0 163.878 163.878 0 0 0-34.16 0 237.348 237.348 0 0 1-45.84 0 163.878 163.878 0 0 0-34.16 0 237.348 237.348 0 0 1-45.84 0 163.878 163.878 0 0 0-34.16 0 237.348 237.348 0 0 1-45.84 0 163.878 163.878 0 0 0-34.16 0 219.29 219.29 0 0 1-22.92 1.11 219.837 219.837 0 0 1-22.92-1.11 163.878 163.878 0 0 0-34.16 0A219.29 219.29 0 0 1 80 30.003a219.837 219.837 0 0 1-22.92-1.11 163.878 163.878 0 0 0-34.16 0A219.29 219.29 0 0 1 0 30.003v55c67 0 209.11-8 247-8s81 8 148 8c31.57 0 78.29-8 127-8s77.18 8 101 8 60.11-4 98-4c54.13 0 79 4 79 4v-55c-7.654.03-15.305-.341-22.92-1.11z" fill="#f3f4f6"/><path d="M777.08 55.893a163.878 163.878 0 0 0-34.16 0 237.348 237.348 0 0 1-45.84 0 163.878 163.878 0 0 0-34.16 0 237.348 237.348 0 0 1-45.84 0 163.878 163.878 0 0 0-34.16 0 237.348 237.348 0 0 1-45.84 0 163.878 163.878 0 0 0-34.16 0 237.348 237.348 0 0 1-45.84 0 163.878 163.878 0 0 0-34.16 0 237.348 237.348 0 0 1-45.84 0 163.878 163.878 0 0 0-34.16 0 237.348 237.348 0 0 1-45.84 0 163.878 163.878 0 0 0-34.16 0 237.348 237.348 0 0 1-45.84 0 163.878 163.878 0 0 0-34.16 0 219.29 219.29 0 0 1-22.92 1.11 219.837 219.837 0 0 1-22.92-1.11 163.878 163.878 0 0 0-34.16 0A219.29 219.29 0 0 1 80 57.003a219.837 219.837 0 0 1-22.92-1.11 163.878 163.878 0 0 0-34.16 0A219.29 219.29 0 0 1 0 57.003v28c67 0 209.11-8 247-8s81 8 148 8c31.57 0 78.29-8 127-8s77.18 8 101 8 60.11-4 98-4c54.13 0 79 4 79 4v-28c-7.654.03-15.305-.341-22.92-1.11z" fill="#e8e9ec"/></svg></g><g transform="translate(112.5 1282.5) rotate(0.0 1389.375 148.125) scale(3.4734375 3.4851711116078254)"><svg width="800" height="85.003" viewBox="0 0 800 85.003"><path d="M777.08.893a163.878 163.878 0 0 0-34.16 0 237.348 237.348 0 0 1-45.84 0 163.878 163.878 0 0 0-34.16 0 237.348 237.348 0 0 1-45.84 0 163.878 163.878 0 0 0-34.16 0 237.348 237.348 0 0 1-45.84 0 163.878 163.878 0 0 0-34.16 0 237.348 237.348 0 0 1-45.84 0 163.878 163.878 0 0 0-34.16 0 237.348 237.348 0 0 1-45.84 0 163.878 163.878 0 0 0-34.16 0 237.348 237.348 0 0 1-45.84 0 163.878 163.878 0 0 0-34.16 0 237.348 237.348 0 0 1-45.84 0 163.878 163.878 0 0 0-34.16 0A219.29 219.29 0 0 1 160 2.003a219.837 219.837 0 0 1-22.92-1.11 163.878 163.878 0 0 0-34.16 0A219.29 219.29 0 0 1 80 2.003 219.837 219.837 0 0 1 57.08.893a163.878 163.878 0 0 0-34.16 0A219.576 219.576 0 0 1 0 2.003v83c67 0 209.11-8 247-8s81 8 148 8c31.57 0 78.29-8 127-8s77.18 8 101 8 60.11-4 98-4c54.13 0 79 4 79 4v-83c-7.654.03-15.305-.341-22.92-1.11z" fill="#fbfbfb"/><path d="M777.08 28.893a163.878 163.878 0 0 0-34.16 0 237.348 237.348 0 0 1-45.84 0 163.878 163.878 0 0 0-34.16 0 237.348 237.348 0 0 1-45.84 0 163.878 163.878 0 0 0-34.16 0 237.348 237.348 0 0 1-45.84 0 163.878 163.878 0 0 0-34.16 0 237.348 237.348 0 0 1-45.84 0 163.878 163.878 0 0 0-34.16 0 237.348 237.348 0 0 1-45.84 0 163.878 163.878 0 0 0-34.16 0 237.348 237.348 0 0 1-45.84 0 163.878 163.878 0 0 0-34.16 0 237.348 237.348 0 0 1-45.84 0 163.878 163.878 0 0 0-34.16 0 219.29 219.29 0 0 1-22.92 1.11 219.837 219.837 0 0 1-22.92-1.11 163.878 163.878 0 0 0-34.16 0A219.29 219.29 0 0 1 80 30.003a219.837 219.837 0 0 1-22.92-1.11 163.878 163.878 0 0 0-34.16 0A219.29 219.29 0 0 1 0 30.003v55c67 0 209.11-8 247-8s81 8 148 8c31.57 0 78.29-8 127-8s77.18 8 101 8 60.11-4 98-4c54.13 0 79 4 79 4v-55c-7.654.03-15.305-.341-22.92-1.11z" fill="#f3f4f6"/><path d="M777.08 55.893a163.878 163.878 0 0 0-34.16 0 237.348 237.348 0 0 1-45.84 0 163.878 163.878 0 0 0-34.16 0 237.348 237.348 0 0 1-45.84 0 163.878 163.878 0 0 0-34.16 0 237.348 237.348 0 0 1-45.84 0 163.878 163.878 0 0 0-34.16 0 237.348 237.348 0 0 1-45.84 0 163.878 163.878 0 0 0-34.16 0 237.348 237.348 0 0 1-45.84 0 163.878 163.878 0 0 0-34.16 0 237.348 237.348 0 0 1-45.84 0 163.878 163.878 0 0 0-34.16 0 237.348 237.348 0 0 1-45.84 0 163.878 163.878 0 0 0-34.16 0 219.29 219.29 0 0 1-22.92 1.11 219.837 219.837 0 0 1-22.92-1.11 163.878 163.878 0 0 0-34.16 0A219.29 219.29 0 0 1 80 57.003a219.837 219.837 0 0 1-22.92-1.11 163.878 163.878 0 0 0-34.16 0A219.29 219.29 0 0 1 0 57.003v28c67 0 209.11-8 247-8s81 8 148 8c31.57 0 78.29-8 127-8s77.18 8 101 8 60.11-4 98-4c54.13 0 79 4 79 4v-28c-7.654.03-15.305-.341-22.92-1.11z" fill="#e8e9ec"/></svg></g><g transform="translate(2163.75 1110.0) rotate(0.0 -1025.625 106.875) scale(-2.8238573788546257 2.7817542946382092)"><svg width="726.4" height="76.84" viewBox="0 0 726.4 76.84"><g fill="#eff0f2"><path d="M118.52 57.45c0 7.05-1.86 13.67-5.11 19.39H2.18A31.317 31.317 0 0 1 0 65.31c0-17.37 14.07-31.45 31.44-31.45 5.07 0 9.85 1.21 14.08 3.33 6.88-11.41 19.39-19.05 33.69-19.05 21.71 0 39.31 17.6 39.31 39.31zM726.4 76.84H155.24c.01-1.56.2-3.15.56-4.73 2.49-10.88 12.55-18.08 23.35-17.29.05-.23.09-.45.14-.68 3.65-15.95 19.53-25.92 35.48-22.27 11.81 2.7 20.33 12.11 22.49 23.28 6.51-5.76 15.6-8.41 24.72-6.32 6.71 1.53 12.29 5.37 16.12 10.48 2.1-1.33 4.43-2.32 6.88-2.9 3.84-13.03 15.89-22.55 30.17-22.55 5.06 0 9.84 1.21 14.08 3.33 6.88-11.41 19.39-19.05 33.69-19.05 10.8 0 20.59 4.36 27.69 11.41 7.61-10.19 19.76-16.78 33.46-16.78 9.09 0 17.49 2.91 24.35 7.85C452.83 8.59 464.39 0 477.95 0c14.87 0 27.32 10.32 30.6 24.18 10.91-17.66 32.19-27.3 53.56-22.41 19.88 4.55 34.24 20.39 37.87 39.21 10.96-9.7 26.28-14.16 41.64-10.65 11.3 2.59 20.7 9.05 27.13 17.66 8.18-5.2 18.35-7.25 28.55-4.92 16.45 3.76 27.89 17.78 29.1 33.77z"/></g></svg></g><g transform="translate(506.25 866.25) rotate(0.0 1209.375 658.125) scale(3.738408037094281 3.7283310673011556)"><svg width="647" height="353.04" viewBox="0 0 647 353.04"><path d="M647 11.262V353.04H0l19.36-8.06 64.37-78.23 82.88-25.74 17.16-33.09L211.68 191l6-61 68-38 59.5-71.79 41.05 2.64L430.68 0l20.86 7.17 110.94 20.87 82.07-16.2z" fill="#dddee3"/><g fill="#d2d3da"><path d="m417.837 43.707-35.539 52.696 45.343 34.313zm147.059 62.5-49.02 51.47 46.569 17.157 56.777-10.152-13.885-27.838-22.059 17.157zM248.719 216.501l66.177 3.676 52.696-40.441-37.99-29.412-11.03 47.794zm-60.049 57.598 39.216 33.088 73.529 2.451 24.51-34.314-42.892 22.059zm283.088-34.314 58.824 34.314v50.245l-46.569-19.608 14.706-20.833zm107.844-11.029 14.705 74.755 37.991-26.961z"/></g></svg></g><g transform="translate(150.0 165.0) rotate(0.0 474.375 448.125) scale(3.746949124428331 3.735651347543744)"><svg width="253.206" height="239.918" viewBox="0 0 253.206 239.918"><ellipse cx="126.603" cy="119.959" fill="#fcfcfd" rx="126.603" ry="119.959"/><ellipse cx="126.603" cy="119.959" fill="#f8f8f9" rx="101.282" ry="95.967"/><ellipse cx="126.603" cy="119.959" fill="#f3f4f6" rx="75.962" ry="71.975"/><circle cx="126.774" cy="120.446" fill="#fff" r="41.895"/></svg></g><g transform="translate(1608.75 135.0) rotate(0.0 511.875 423.75) scale(3.765641897111077 3.7720313334520204)"><svg width="271.866" height="224.68" viewBox="0 0 271.866 224.68"><path d="m85.766 170.811.758 11.5.414 6.281.122 1.86.395 6.009.196 2.963.299 4.506.016.259-6.182 2.163c-1.463.514-3.015 1.057-4.444 1.565-.81.282-1.576.554-2.271.8-1.784.629-3.07 1.091-3.234 1.16l-.13-.529-.369-1.498-2.903-11.77-3.255-13.202z" fill="#c78982"/><path d="m50.649 223.308-4.317-1.474a3.718 3.718 0 0 1-.21-6.957l7.55-3.097a17.767 17.767 0 0 0 10.1-10.778l1.967-5.852 3.579 1.111a1.777 1.777 0 0 1 1.219 2.029l-.481 2.541 4.82.711a8.632 8.632 0 0 0 8.381-3.665l2.875-4.206a1.066 1.066 0 0 1 1.899.287l4.481 14.524-.012 3.688-41.851 11.137z" fill="#73b2ff"/><path d="m93.888 209.165-.318 1.629a7.714 7.714 0 0 1-5.683 6.001l-30.794 7.777a3.55 3.55 0 0 1-1.802-.017l-7.786-2.115 25.357-6.403a1.78 1.78 0 0 0 1.079-.793 8.93 8.93 0 0 1 5.418-3.979l13.225-3.34a1.066 1.066 0 0 1 1.306 1.238z" fill="#013b84"/><path d="M68.847 105.655c21.193 2.132 77.936 19.25 77.936 19.25l-11.546 37.636-71.41-24.707C53.6 134.296 46.984 127.43 51.1 117.422l-2.6-1.418c2.101-5.39 14.592-10.928 20.347-10.349z" fill="#016eea"/><path d="m216.888 176.351 11.362 1.932 6.205 1.055 1.837.313 5.936 1.011 2.927.497 4.453.755.255.045.669 6.516c.161 1.542.329 3.178.491 4.686.086.854.173 1.661.251 2.395.198 1.881.349 3.24.377 3.415l-.544.003-1.543.011-12.123.092-13.597.102-6.958-22.826z" fill="#c78982"/><path d="m111.273 115.272 32.873 75.691a22.47 22.47 0 0 0 21.699 14.206l19.225-.684-21.415-74.062c-4.431-15.324-20.446-24.155-35.77-19.724-4.514 1.22-12.044 2.672-16.611 4.574z" fill="#1a7cec"/><path d="m270.682 215.227-1.326 4.365a3.715 3.715 0 0 1-6.945.446l-3.352-7.44a17.765 17.765 0 0 0-11.116-9.726l-5.915-1.766.989-3.615a1.777 1.777 0 0 1 1.986-1.287l2.556.394.546-4.841a8.628 8.628 0 0 0-3.949-8.251l-4.302-2.731a1.066 1.066 0 0 1 .223-1.908l14.363-4.974 3.686-.114 12.557 41.447z" fill="#73b2ff"/><path d="m255.072 172.495 1.64.263a7.716 7.716 0 0 1 6.192 5.476l8.822 30.511c.17.587.186 1.207.045 1.801l-1.848 7.854-7.264-25.124a1.777 1.777 0 0 0-.829-1.051 8.926 8.926 0 0 1-4.161-5.279l-3.789-13.103a1.065 1.065 0 0 1 1.192-1.348z" fill="#013b84"/><path d="m185.994 174.238 52.11 5.14.581 31.878-74.701-7.464 22.011-29.554z" fill="#1a7cec"/><path d="m228.543 178.199 5.972 1.122 1.539.29 1.554 19.414-50.523 4.184c-2.903.354-7.908.437-10.669.592-2.4.135-6.398-.192-10.661-.687-10.588-1.23-18.904-9.652-20.097-20.244l-.84-7.456 34.815-5.408c1.943-.3 3.926-.267 5.873.098l32.1 6.038 10.936 2.056z" fill="#1a7cec"/><path d="M162.288 124.393c.659-.013-1.535-10.654-1.865-11.79-1.179-4.063-2.799-7.983-4.633-11.791-4.743-9.852-10.298-19.53-15.759-29.006-5.031-8.729-11.205-17.275-20.004-22.528l-14.994-9.238c-15.771-9.415-27.088-6.791-41.617 4.446l-1.071.828 12.042 37.093 24 31.127 17.182 11.779 46.718-.92z" fill="#4d99f0"/><path d="m76.671 122.218 8.091 19.232a42.62 42.62 0 0 1 3.291 14.59l1.849 40.587-30.416-.384s-6.238-33.349-8.255-44.52c-1.558-8.631-2.302-13.199-1.122-23.257 1.098-9.359 11.519-14.432 19.549-9.501l7.012 3.253z" fill="#016eea"/><path d="M52.799 21.135c-3.404-4.431-11.935-3.588-19.056 1.882-6.075 4.667-9.16 11.193-7.822 15.761.346 1.183 1.8 1.622 2.777.871z" fill="#002652"/><path d="M47.01 15.619c-2.898-3.772-10.161-3.054-16.223 1.603-5.172 3.973-7.798 9.529-6.659 13.418.295 1.007 1.533 1.381 2.365.742z" fill="#002652"/><g fill="#c78982"><path d="m37.469 37.27 12.692 16.722c1.562 1.931 4.552 1.779 5.91-.3l12.597-19.278z"/><path d="m46.596 46.343-3.002 2.194c-1.251.914-2.991-.099-2.814-1.638l.776-6.734zm-7.351-26.935.372-.301a3.66 3.66 0 0 1 5.148.544l7.994 9.883-13.178 10.659-2.239-2.768c-4.45-5.501-3.598-13.567 1.903-18.017zm21.202 4.282L46.586 37.822l27.972 27.436c.679.666 1.824.177 1.813-.773l-.294-25.464z"/><path d="m46.53 48.834 8.261-6.682-8.495-10.502-8.261 6.682z"/><path d="m41.222 14.57 3.988-3.064c4.358-3.348 10.605-2.529 13.953 1.829l15.156 19.728-25.365 19.486-10.858-14.134c-5.721-7.448-4.322-18.124 3.126-23.845z"/></g><path d="m58.781 49.802.523-.894c.973-1.664 3.505-1.124 3.715.792l.516 4.708M39.848 40.322l1.93-1.483a1.07 1.07 0 0 1 .788-.212l1.42.186c.942.123 1.264 1.324.511 1.903l-2.801 2.152" fill="#1d2445" opacity=".1"/><path d="m52.583 35.223 2.296 2.989a8.698 8.698 0 0 1 .697 9.54 4.935 4.935 0 0 0-6.92-.907l-2.568 1.973 1.422 1.851 1.94.224-.095 2.178.919 1.196c1.526 1.986 4.572 1.813 5.863-.333l5.117-8.505a3.551 3.551 0 0 0-.227-3.997l-7.908-10.294a2.911 2.911 0 0 0-.536 4.085z" fill="#002652"/><path d="m52.464 51.011-1.597 1.939a1.038 1.038 0 0 1-1.625-.028l-1.803-2.347 1.86-1.429a2.276 2.276 0 0 1 3.19.418c.329.43.319 1.03-.025 1.447z" fill="#c78982"/><path d="m70.617 32.84-4.126 7.596-20.375-26.522a3.554 3.554 0 0 1 .653-4.983l1.268-.974c6.04-4.64 14.793-2.811 18.47 3.858l4.067 7.375a14.218 14.218 0 0 1 .043 13.65z" fill="#002652"/><path d="m54.099 28.867-12.495 9.599-1.869-1.85 12.776-9.815z" fill="#93c3ff"/><path d="m52.47 10.207-9.864 7.577 15.685 20.417a7.108 7.108 0 0 0 9.967 1.306l4.227-3.247z" fill="#002652"/><path d="m44.579 13.334-11.614 8.922 5.087 6.622a7.108 7.108 0 0 0 9.967 1.306l5.977-4.592z" fill="#002652"/><path d="M40.198 37.521a.067.067 0 0 1 .093.012l3.145 4.093a.067.067 0 0 1-.012.093l-2.732 2.099a.067.067 0 0 1-.093-.012l-3.145-4.093a.067.067 0 0 1 .012-.093zm-.609-.793-2.732 2.099a1.066 1.066 0 0 0-.196 1.495l3.145 4.093a1.066 1.066 0 0 0 1.495.196l2.732-2.099a1.066 1.066 0 0 0 .196-1.495l-3.145-4.093a1.067 1.067 0 0 0-1.495-.196z" fill="#93c3ff"/><path d="M58.015 27.382c-3.404-4.431-.391-12.457 6.73-17.927C70.82 4.788 77.921 3.489 81.99 5.959c1.053.64 1.103 2.157.126 2.908z" fill="#002652"/><path d="M60.916 34.618c-3.165-4.119-.363-11.582 6.257-16.668 5.648-4.339 12.25-5.546 16.033-3.25.979.595 1.026 2.006.117 2.704z" fill="#002652"/><path d="M66.622 35.612c-3.436 2.64-8.046-1.178-6.131-5.065 1.043-2.117 2.704-4.163 4.896-5.847 4.91-3.772 10.894-4.504 14.51-2.08.937.628 1.068 1.973.278 2.58z" fill="#002652"/><path d="M67.362 40.233c-2.531 1.945-5.928-.868-4.517-3.731.768-1.559 1.992-3.067 3.607-4.308 3.617-2.779 8.026-3.318 10.69-1.533.69.462.787 1.454.205 1.901zM49.004 22.652c-3.404-4.431-.391-12.457 6.73-17.927C61.809.058 68.91-1.241 72.979 1.229c1.053.64 1.103 2.157.126 2.908z" fill="#002652"/><path d="M37.261 23.66c-3.404-4.431-.391-12.457 6.73-17.927 6.075-4.667 13.176-5.966 17.245-3.496 1.053.64 1.103 2.157.126 2.908z" fill="#002652"/><path d="m73.169 118.887 29.648-59.295-25.783-14.846-23.698 67.891z" fill="#4d99f0"/><path d="m29.39 158.136 29.292-26.346-4.207-3.177-11.08-7.742-21.317 27.328s3.039 15.014 7.312 9.937z" fill="#c78982"/><path d="m51.614 138.184 14.146-11.037c3.187-2.842 7.768-7.158 8.647-11.336l1.953-10.23-18.318-.309-8.515 6.521a21.046 21.046 0 0 0-5.212 5.816l-5.334 8.816z" fill="#4d99f0"/><path d="m89.333 88.98 11.722-26.375c.667-1.5 2.758-1.602 3.567-.174l4.429 7.811z" fill="#1d2445" opacity=".1"/><path d="m40.844 136.769-1.076-1.485-16.484 11.288a4.344 4.344 0 0 1-2.724.928l-2.174-.065a9 9 0 0 0-4.134.868l-2.168 1.032-9.63 2.161a.766.766 0 0 0-.647.954c.204.694.912 1.158 1.721 1.409a4.493 4.493 0 0 0 2.394 0l3.101-.821a2.325 2.325 0 0 1 1.893.33l.021.029a1.938 1.938 0 0 1 .303 2.935L.574 167.474c-.695.872-.753 2.002-.202 2.722a.567.567 0 0 0 .827.024l10.042-8.493a.426.426 0 0 1 .633.556l-7.756 12.093c-.497.987-.339 2.11.346 2.709a.564.564 0 0 0 .787-.123l.015-.021 9.021-11.413a.256.256 0 0 1 .36-.032c.085.071.114.19.072.293l-5.434 12.234c-.35 1.062-.013 2.141.749 2.623a.572.572 0 0 0 .777-.228l.007-.012 6.933-12.252c.131-.232.585-.04.51.224l-1.671 9.336c-.217 1.095.254 2.125 1.074 2.513a.57.57 0 0 0 .734-.332l.007-.018 2.624-10.152a6.095 6.095 0 0 1 1.643-2.809l2.945-2.899a31.46 31.46 0 0 0 3.399-5.485l1.287-2.648a7.4 7.4 0 0 1 2.492-2.882l6.013-4.187c3.929-2.736 4.848-8.165 2.037-12.041z" fill="#c78982"/></svg></g><g transform="translate(506.25 847.5) rotate(0.0 474.375 660.0) scale(3.765209661160895 3.765199855096854)"><svg width="251.978" height="350.579" viewBox="0 0 251.978 350.579"><path d="m9.245 331.929 11.614 4.034 4.032-11.61a4.025 4.025 0 0 0-2.482-5.123l-4.009-1.392a4.025 4.025 0 0 0-5.123 2.482z" fill="#002652"/><path d="M23.84 330.924s2.206 8.041 3.212 8.885c1.213 1.018 2.579 2.63 3.596 3.306.415.276 1.831.792 1.831.792a3.018 3.018 0 0 1 2.415 3.362l-.41 3.069-4.169-.461-14.892-8.693z" fill="#016eea"/><path d="m21.084 341.44-19.896-2.559a.812.812 0 0 1-.702-.908l.27-2.121a24 24 0 0 1 2.852-8.099l2.779-4.873 16.266 9.312-1.568 9.249z" fill="#016eea"/><path d="m6.225 321.423-1.346 7.94c.472.08 11.699 8.944 11.976 9.334L18.49 341l5.997-7.765-1.954-7.129a3.136 3.136 0 0 0-2.483-2.26z" fill="#016eea"/><ellipse cx="18.961" cy="333.355" fill="#2888ff" rx="3.848" ry="1.787" transform="matrix(.16719895 -.98592318 .98592318 .16719895 -312.871 296.311)"/><path d="m20.712 343.191 7.992 7.342H13.802L.436 342.24c-.681-.423-.313-1.476.483-1.382z" fill="#002652"/><path d="m0 341.525.539-3.176.131-.077a3.134 3.134 0 0 1 1.954-.409l8.114.958a19.281 19.281 0 0 1 7.336 2.425l10.289 6.086 6.531.079-.215 3.168-6.853-.07-10.739-6.22a19.269 19.269 0 0 0-7.218-2.345l-7.724-.9a3.138 3.138 0 0 0-1.676.267z" fill="#2888ff"/><circle cx="99.467" cy="30.876" fill="#002652" r="13.25"/><path d="m204.175 45.996-3.579-10.414 17.282-11.062c1.12-1.681 3.272-3.421 3.272-3.421a8.658 8.658 0 0 1 2.911-2.836l1.924-1.148 6.894-5.484a.73.73 0 0 1 1.097-.008c.441.528.434 1.335.205 2.107a4.272 4.272 0 0 1-1.266 1.894l-2.289 2.02c-1.308.903-.942 1.339-.796 1.779.321.967.828.763 1.847.749.097 0 .195-.011.292-.027l14.457-2.551c1.057-.089 1.982.462 2.262 1.279a.54.54 0 0 1-.384.659l-.033.008-12.031 3.458a.406.406 0 0 0 .106.796l13.672.254c1.044.129 1.848.847 1.961 1.707a.535.535 0 0 1-.513.557h-.024l-13.802 1.106a.243.243 0 0 0-.022.48l12.372.175c1.025.285 1.701 1.121 1.68 1.979a.544.544 0 0 1-.592.494c-.007 0-.013-.002-.013-.002l-13.179 1.001c-.253-.019-.341.442-.092.523l8.859-.169c1.032.11 1.59 1.032 1.465 1.886-.068.291-.316.38-.651.405-.006-.001-1.008.089-1.014.087l-9.056.694c-2.622.241-6.943.614-6.943.614-2.048.14-4.013 1.066-6.046.786l-2.776-.381a7.037 7.037 0 0 0-3.599.449l-13.857 9.556z" fill="#99644c"/><path d="m173.668 111.899-1.968 1.612c-3.9 3.193-9.655 2.603-12.825-1.317l-30.086-37.2 20.959-15.914 25.354 45.236a6.007 6.007 0 0 1-1.434 7.583z" fill="#bedbff"/><path d="m202.871 123.798 6.559 2.806c.71.303 1.45.528 2.208.672l1.542.294 1.396 3.398-10.193 2.078a1.47 1.47 0 0 0-.942 2.369l4.086 5.092a1.312 1.312 0 0 1-.141 1.924c-.256.191-1.928-.139-2.169-.347l-10.631-8.538-1.03-1.073s-1.8-3.147-1.959-5.893l-.016-.41-1.942-6.087-.377-5.197 8.036 7.228c1.494 1.796 3.952.99 5.573 1.684z" fill="#99644c"/><path d="M227.137 128.084c-.044.781-.712 1.495-1.658 1.677l-14.544 1.615-2.549-4.097 18.223.322a.5.5 0 0 1 .527.47v.013z" fill="#99644c"/><path d="m179.962 128.467 10.961 6.44 11.156-12.739-26.978-20.117-4.579-2.944c-2.111-1.078-4.812.377-6.464 2.078l-2.046 2.106a8.453 8.453 0 0 0-.353 11.394l7.005 6.315c3.029 2.73 7.889 5.228 11.298 7.467z" fill="#bedbff"/><path d="m175.101 102.051-1.984-1.276-23.369-41.695-20.96 15.913 30.086 37.2a9.055 9.055 0 0 0 2.512 2.141c.09.117.175.237.273.35l7.005 6.315c3.029 2.731 7.889 5.229 11.298 7.467l10.961 6.44 11.156-12.739z" fill="#002652" opacity=".07"/><path d="m185.727 133.59 11.688-15.259 6.043 4.681-11.688 15.259z" fill="#bedbff"/><path d="m2.84 321.076 33.129 17.273 42.147-81.82c2.915-4.572 1.364-10.656-3.385-13.275l-16.967-8.216-21.281 19.705a48.874 48.874 0 0 0-11.899 17.042L2.84 321.075z" fill="#013b84"/><path d="m126.121 41.244 15.466-7.18-11.151-24.021-25.161 11.68 6.651 14.327c2.486 5.354 8.841 7.68 14.195 5.194z" fill="#99644c"/><path d="m139.864 70.879-19.662-7.818-1.515-24.823 10.887-.608 8.671-.417z" fill="#99644c"/><path d="m134.495 9.148 2.84 6.118c.103.222.163.462.176.707l.125 2.393a1.916 1.916 0 0 0 1.351 1.732l.689.211 5.493 11.832a3.833 3.833 0 0 1-1.876 5.096l-21.997 10.101-3.381-7.519z" fill="#99644c"/><path d="m139.896 28.775 3.647-4.725a1.916 1.916 0 0 0-.98-3.01l-7.238-2.112z" fill="#99644c"/><g fill="#002652"><path d="m138.166 39.367-1.752.781a2.047 2.047 0 0 0-.884 2.982l3.08 4.749m-1.644-31.929-3.076 1.428a1.147 1.147 0 0 0-.596.648l-.531 1.451c-.352.962.635 1.869 1.564 1.438l3.576-1.66m1.829 9.282.756.591c.414.324.943.463 1.463.385l1.786-.267-1-2.153z" opacity=".07"/><path d="m117.829 1.432-.52.241a4.388 4.388 0 0 0-2.133 5.829l.786 1.694c3.11 6.7 11.063 9.61 17.762 6.499l6.304-2.926-1.798-3.873c-3.572-7.694-12.706-11.036-20.401-7.464z"/><path d="m123.629 20.143-20.715 9.617-2.143-4.616c-3.423-7.374-.22-16.127 7.154-19.55l4.362-2.025a3.308 3.308 0 0 1 4.395 1.608z"/><path d="m126.217 38.73-4.781 2.219a8.022 8.022 0 0 1-10.654-3.898l-2.92-6.29a4.088 4.088 0 0 0-5.428-1.987l-.924.429-1.776-3.827 25.623-11.894z"/></g><path d="M105.049 30.304a1.5 1.5 0 0 1-1.684-.834l-5.385-11.6a1.5 1.5 0 0 1 2.721-1.263l5.385 11.6a1.5 1.5 0 0 1-1.037 2.097z" fill="#2888ff"/><path d="m127.005 31.468 3.09-1.434-3.298-6.334a4.317 4.317 0 0 0-5.647-1.922l-.224.104c-2.151.999-2.683 3.817-1.044 5.531l3.165 3.308a3.462 3.462 0 0 0 3.958.747z" fill="#99644c"/><path d="m143.904 54.021-27.181.064 1.474-10.353 21.35-.201z" fill="#d4e7ff"/><path d="M116.469 54.066c-10.504 6.741-17.642 18.633-19.632 30.955l-3.136 19.43a17.786 17.786 0 0 1-6.441 11.047l-1.513 1.301a37 37 0 0 0-12.346 21.841l-1.324 7.783a2.194 2.194 0 0 0 1.723 2.518l69.232 14.166-2.204-20.731-2.041-21.556 5.716-12.704 5.22-3.477a11.375 11.375 0 0 0 4.982-10.871l-5.48-25.046a11.717 11.717 0 0 0-4.047-5.634l-11.641-8.801c-5.419-2.816-11.93-3.52-17.069-.221z" fill="#bedbff"/><path d="m187.602 40.707 4.163 10.145a4.567 4.567 0 0 1-2.517 5.969l-48.591 19.597-15.09-23.696 60.457-12.843a1.386 1.386 0 0 1 1.578.828z" fill="#bedbff"/><path d="m171.358 252.351-.288-.824a4.318 4.318 0 0 0-3.066-2.775l-15.5-3.731a12.915 12.915 0 0 1-7.339-4.844l-3.567-4.787a4.318 4.318 0 0 0-3.467-1.738l-14.098.014.003 3.004-1.817 4.986a28.74 28.74 0 0 0-1.736 10.133l.026 2.527 21.936-.022 27.551-.026c.993 0 1.687-.98 1.36-1.917z" fill="#016eea"/><path d="m120.485 253.929 50.685-.049.004 3.807-50.685.049z" fill="#2888ff"/><path d="m121.424 233.78 33.142 8.129 41.902-77.869c3.464-8.265 2.265-14.74-2.727-16.858l-13.281-.787a20.928 20.928 0 0 0-23.893 5.446l-9.171 10.43a48.87 48.87 0 0 0-10.091 18.171l-15.882 53.339z" fill="#013b84"/><path d="M198.6 157.108c1-6.667-3.333-14.667-11.314-14.448-24.994-2.406-48.361-3.201-68.619-.913-7.355-.504-46.64 4.75-46.64 4.75l-1.585 14.86c-1.69 20.92 17.362 37.496 37.847 32.928l51.706-16.539 33.672-9.843z" fill="#013b84"/><path d="M62.451 259.732c3.342 3.303 9.422 3.573 12.525.05l43.667-56.775c4.813-5.585 24.389-40.484 24.389-40.484l-11.174-9.87c-15.731-13.894-40.419-8.583-49.044 10.551l-21.762 48.302-8.307 35.849 9.705 12.377z" fill="#013b84"/><path d="m208.765 48.548 11.614-6.418-6.119-17.525-30.372 15.494-3.889 2.278a5.4 5.4 0 0 0-2.025 6.088l.91 2.792a8.454 8.454 0 0 0 9.916 5.623l8.852-3.254a80.126 80.126 0 0 0 11.113-5.078z" fill="#bedbff"/><path d="m217.643 22.775 8.638 18.972-6.957 3.168-8.638-18.972z" fill="#d4e7ff"/><path d="m150.514 72.491-12.105 5.515a2 2 0 0 0-.596 3.224l6.646 6.747z" fill="#1d2445" opacity=".07"/></svg></g></svg>