<svg xmlns="http://www.w3.org/2000/svg" viewBox="0 0 3000 3000" width="3000" height="3000"><g transform="translate(2303.0 958.0) rotate(0.0 244.5 329.0) scale(3.5503474112957676 3.5450103171652847)"><svg width="137.733" height="185.613" viewBox="0 0 137.733 185.613"><linearGradient id="a"><stop offset=".037" stop-color="#231f20"/><stop offset=".071" stop-color="#2c2020"/><stop offset=".31" stop-color="#6b2723"/><stop offset=".512" stop-color="#992d25"/><stop offset=".667" stop-color="#b53027"/><stop offset=".757" stop-color="#c03127"/></linearGradient><linearGradient xmlns:xlink="http://www.w3.org/1999/xlink" id="b" gradientUnits="userSpaceOnUse" x1="66.31" x2="38.237" xlink:href="#a" y1="64.211" y2="33.586"/><linearGradient xmlns:xlink="http://www.w3.org/1999/xlink" id="c" gradientUnits="userSpaceOnUse" x1="44.647" x2="109.688" xlink:href="#a" y1="59.009" y2="14.094"/><path d="M49.038 61.031S29.715 43.927 27.351 41.197c-2.642-3.051-4.793-4.627-1.964-8.721 2.722-3.939 10.218-9.952 15.378-11.847 0 0 2.796-1.434 6.424 3.326 0 0 14.068 17.364 18.408 37.138z" fill="url(#b)"/><path d="M55.448 60.02s-5.942-28.512-1.237-41.096c2.449-6.55 7.198-11.277 15.599-7.783 0 0 14.799 7.133 16.526 8.755 2.975 2.794 1.185 12.402-2.019 17.919-2.722 4.685-8.569 15.508-19.119 22.078z" fill="#f73b0f"/><path d="m61.408 59.87 4.227.306c3.69-2.515 8.928-8.107 14.692-15.761 6.51-8.645 10.077-20.013 6.268-24.243-1.295-1.438-18.309-7.803-25.187 39.698z" fill="url(#c)"/><path d="M65.597 61.094s1.018-12.74 13.331-16.293c4.974-1.435 8.392-1.593 11.541-6.711 3.464-5.629 4.428-19.902 16.146-19.997 0 0 7.453.434 9.556-4.778L120.713 0l17.021 12.029s-.349 13.577-12.067 18.316-15.005 3.091-18.009 8.208c-3.005 5.117-1.041 11.639-11.366 14.652-5.01 1.462-9.478-.047-16.689 8.387z" fill="#f73b0f"/><path d="M125.699 185.613H3a3 3 0 0 1-3-3V62.515a3 3 0 0 1 3-3h122.699a3 3 0 0 1 3 3v120.098a3 3 0 0 1-3 3z" fill="#4148ac"/><path d="M52.331 59.388h24.037v126.224H52.331z" fill="#f73b0f"/></svg></g><g transform="translate(2044.0 1609.0) rotate(0.0 438.5 98.5) scale(3.6077173063474435 3.603636563191688)"><svg width="243.09" height="54.667" viewBox="0 0 243.09 54.667"><linearGradient id="d" gradientUnits="userSpaceOnUse" x1=".006" x2="243.09" y1="27.334" y2="27.334"><stop offset="0" stop-color="#9c56b6"/><stop offset="1" stop-color="#daabe0"/></linearGradient><linearGradient id="e" gradientUnits="userSpaceOnUse" x1="0" x2="380.588" y1="15.11" y2="15.11"><stop offset=".359" stop-color="#f2e2f3"/><stop offset=".44" stop-color="#efddf1"/><stop offset=".533" stop-color="#e7cfeb"/><stop offset=".631" stop-color="#d9b8e1"/><stop offset=".734" stop-color="#c598d3"/><stop offset=".839" stop-color="#ac70c1"/><stop offset=".892" stop-color="#9e58b7"/></linearGradient><path d="M240.09 54.667H3.006a3 3 0 0 1-3-3V3a3 3 0 0 1 3-3H240.09a3 3 0 0 1 3 3v48.667a3 3 0 0 1-3 3z" fill="url(#d)"/><path d="M0 14.065h243.09v2.09H0z" fill="url(#e)"/></svg></g><g transform="translate(2104.0 469.0) rotate(-75.08425238377973 248.5 177.0) scale(2.353141704583655 2.34687315614662)"><svg width="211.207" height="150.839" viewBox="0 0 211.207 150.839"><linearGradient id="f" gradientUnits="userSpaceOnUse" x1=".001" x2="211.207" y1="51.048" y2="51.048"><stop offset="0" stop-color="#fff"/><stop offset=".388" stop-color="#fcf8fc"/><stop offset=".965" stop-color="#f3e3f4"/><stop offset="1" stop-color="#f2e2f3"/></linearGradient><path d="M202.175 150.839H9a9 9 0 0 1-9-9V9a9 9 0 0 1 9-9h193.175a9 9 0 0 1 9 9v132.839a9 9 0 0 1-9 9z"/><path d="M.001 35.336h211.206v31.425H.001z" fill="url(#f)"/></svg></g><g transform="translate(150.0 383.0) rotate(0.0 234.0 435.0) scale(3.51243235940889 3.4947759125582962)"><svg width="133.241" height="248.943" viewBox="0 0 133.241 248.943"><linearGradient id="g" gradientUnits="userSpaceOnUse" x1="152.457" x2="-35.996" y1="64.489" y2="264.778"><stop offset=".315" stop-color="#4148ac"/><stop offset=".874" stop-color="#313581"/></linearGradient><path d="M127.241 248.943H6a6 6 0 0 1-6-6V68.489a6 6 0 0 1 6-6h121.241a6 6 0 0 1 6 6v174.454a6 6 0 0 1-6 6z" fill="url(#g)"/><path d="M90.364 74.978a3.83 3.83 0 0 1-3.829-3.829V27.572c0-10.981-8.934-19.914-19.914-19.914s-19.914 8.933-19.914 19.914v43.576a3.83 3.83 0 0 1-7.658 0V27.572C39.049 12.369 51.417 0 66.621 0s27.572 12.369 27.572 27.572v43.576a3.83 3.83 0 0 1-3.829 3.83z"/></svg></g><g transform="translate(150.0 463.0) rotate(0.0 233.5 434.0) translate(0.0 308.0) scale(3.504927162059726 3.48674194494322)"><svg width="133.241" height="160.608" viewBox="0 88.335 133.241 160.608"><linearGradient id="h" gradientUnits="userSpaceOnUse" x1="152.457" x2="-35.996" y1="64.489" y2="264.778"><stop offset=".315" stop-color="#4148ac"/><stop offset=".874" stop-color="#313581"/></linearGradient><path d="M127.241 248.943H6a6 6 0 0 1-6-6V68.489a6 6 0 0 1 6-6h121.241a6 6 0 0 1 6 6v174.454a6 6 0 0 1-6 6z" fill="url(#h)"/><path d="M90.364 74.978a3.83 3.83 0 0 1-3.829-3.829V27.572c0-10.981-8.934-19.914-19.914-19.914s-19.914 8.933-19.914 19.914v43.576a3.83 3.83 0 0 1-7.658 0V27.572C39.049 12.369 51.417 0 66.621 0s27.572 12.369 27.572 27.572v43.576a3.83 3.83 0 0 1-3.829 3.83z"/></svg></g><g transform="translate(327.0 797.0) rotate(0.0 1108.0 1009.0) scale(3.925264105089381 3.921210484283097)"><svg width="564.548" height="514.637" viewBox="0 0 564.548 514.637"><linearGradient id="i"><stop offset="0" stop-color="#9c56b6"/><stop offset="1" stop-color="#daabe0"/></linearGradient><linearGradient xmlns:xlink="http://www.w3.org/1999/xlink" id="m" gradientUnits="userSpaceOnUse" x1="260.309" x2="347.053" xlink:href="#i" y1="486.767" y2="486.767"/><linearGradient xmlns:xlink="http://www.w3.org/1999/xlink" id="n" gradientUnits="userSpaceOnUse" x1=".016" x2="104.038" xlink:href="#i" y1="160.076" y2="160.076"/><linearGradient id="o" gradientUnits="userSpaceOnUse" x1="438.684" x2="268.746" y1="244.54" y2="247.052"><stop offset=".201" stop-color="#2f8f71"/><stop offset=".899" stop-color="#1a614b"/></linearGradient><linearGradient id="j"><stop offset=".201" stop-color="#2f8f71"/><stop offset=".994" stop-color="#1a614b"/></linearGradient><linearGradient xmlns:xlink="http://www.w3.org/1999/xlink" id="p" gradientUnits="userSpaceOnUse" x1="350.731" x2="256.242" xlink:href="#j" y1="138.717" y2="216.926"/><linearGradient id="q" gradientUnits="userSpaceOnUse" x1="450.076" x2="266.63" y1="104.854" y2="209.764"><stop offset=".201" stop-color="#2f8f71"/><stop offset=".877" stop-color="#1a614b"/></linearGradient><linearGradient xmlns:xlink="http://www.w3.org/1999/xlink" id="r" gradientUnits="userSpaceOnUse" x1="437.68" x2="480.324" xlink:href="#j" y1="55.279" y2="55.279"/><linearGradient id="k"><stop offset=".246" stop-color="#1b634d"/><stop offset="1" stop-color="#2e8d6f"/></linearGradient><linearGradient xmlns:xlink="http://www.w3.org/1999/xlink" id="s" gradientUnits="userSpaceOnUse" x1="440.126" x2="479.115" xlink:href="#k" y1="41.928" y2="41.928"/><linearGradient xmlns:xlink="http://www.w3.org/1999/xlink" id="t" gradientUnits="userSpaceOnUse" x1="439.44" x2="478.941" xlink:href="#k" y1="67.998" y2="67.998"/><linearGradient xmlns:xlink="http://www.w3.org/1999/xlink" id="u" gradientUnits="userSpaceOnUse" x1="439.44" x2="478.771" xlink:href="#k" y1="54.991" y2="54.991"/><linearGradient xmlns:xlink="http://www.w3.org/1999/xlink" id="v" gradientUnits="userSpaceOnUse" x1="484.54" x2="527.184" xlink:href="#j" y1="305.099" y2="305.099"/><linearGradient xmlns:xlink="http://www.w3.org/1999/xlink" id="w" gradientUnits="userSpaceOnUse" x1="486.986" x2="525.975" xlink:href="#k" y1="291.748" y2="291.748"/><linearGradient xmlns:xlink="http://www.w3.org/1999/xlink" id="x" gradientUnits="userSpaceOnUse" x1="486.3" x2="525.802" xlink:href="#k" y1="317.817" y2="317.817"/><linearGradient xmlns:xlink="http://www.w3.org/1999/xlink" id="y" gradientUnits="userSpaceOnUse" x1="486.3" x2="525.632" xlink:href="#k" y1="304.811" y2="304.811"/><linearGradient id="z" gradientUnits="userSpaceOnUse" x1="295.38" x2="296.729" y1="119.091" y2="137.963"><stop offset="0" stop-color="#cd585f"/><stop offset=".769" stop-color="#cb795c"/></linearGradient><radialGradient id="A" cx="303.975" cy="113.784" gradientUnits="userSpaceOnUse" r="6.249"><stop offset="0" stop-color="#cd585f"/><stop offset="1" stop-color="#cb795c"/></radialGradient><linearGradient id="l"><stop offset="0" stop-color="#231f20"/><stop offset="0"/><stop offset=".136" stop-color="#130804"/><stop offset=".445" stop-color="#38180c"/><stop offset=".693" stop-color="#502211"/><stop offset=".849" stop-color="#582613"/></linearGradient><linearGradient xmlns:xlink="http://www.w3.org/1999/xlink" id="B" gradientUnits="userSpaceOnUse" x1="267.111" x2="303.983" xlink:href="#l" y1="96.216" y2="42.249"/><linearGradient xmlns:xlink="http://www.w3.org/1999/xlink" id="C" gradientUnits="userSpaceOnUse" x1="297.552" x2="320.893" xlink:href="#l" y1="107.552" y2="81.579"/><linearGradient id="D" gradientUnits="userSpaceOnUse" x1="195.455" x2="374.64" y1="143.266" y2="143.266"><stop offset="0" stop-color="#f2e2f3"/><stop offset="1" stop-color="#9e58b7"/></linearGradient><linearGradient id="E" gradientUnits="userSpaceOnUse" x1="181.103" x2="384.607" y1="224.372" y2="80.735"><stop offset=".359" stop-color="#f2e2f3"/><stop offset="1" stop-color="#9e58b7"/></linearGradient><path d="m271.519 460.337-11.21 13.269 3.698 5.525 7.774 3.127 11.591-2.484-3.699 7.944 30.613 25.669h36.766c0-10.588-7.922-17.856-12.109-20.129-4.387-2.381-7.823-3.851-17.45-3.278-5.141.306-11.718-7.152-5.125-15.571 3.151-4.024 11.945-14.264 11.945-14.264z" fill="url(#m)"/><path d="m267.778 483.084 4.643-.962-11.762-8.93-2.298 2.742zm11.919 4.586-1.52 3.3 31.132 23.667h37.855s-.025-1.319-.193-3.124l-35.871-.004z" fill="#030307"/><path d="m103.857 139.354-14.304.596-7.554 8.751-3.136-12.282H.016s0 26.781 28.753 26.015c0 0 16.175.19 18.025.147 4.303-.101 16.095 2.659 16.99 18.089v3.061h40.254z" fill="url(#n)"/><path d="M78.863 136.42H0s.102 2.068.362 3.473l79.402.058zm24.989-.058-11.277.012-3.022 3.577 14.299-.058z" fill="#030307"/><path d="M278.579 240.653s58.569 70.641 72.772 89.862c12.088 16.359-.731 25.225-10.556 26.423-10.127 1.235-21.863 1.883-23.842 20.488-1.198 11.262-8.746 15.575-17.253 15.935-27.199 1.149-15.815 24.801-28.951 31.187-7.733 3.76-12.744 2.36-17.896 3.319-10.72 1.994-13.853 11.142-13.853 16.53v17.736h83.514l74.874-83.667s21.424-26.78-.893-54.326l-80.724-102.15z"/><path d="M104.09 180.353H16.31v22.16s-.108 18.278 21.632 18.697c7.392.142 18.529 5.869 17.859 20.391-.747 16.165 10.352 20.486 20.122 20.692 7.965.168 16.602 6.241 16.769 17.02.252 16.266 9.983 22.891 18.591 23.465h81.298s84.741 5.547 123.956-80.724c-7.697.033-23.353-7.869-23.353-7.869s-14.44 8.029-21.791 8.061c-21.179 31.343-59.313 47.069-95.645 38.832-61.596-13.965-71.466-74.604-71.658-80.725z"/><path d="m484.843 292.038-.303 25.731c-17.436.551-54.955 2.645-85.573-23.051-14.559-12.219-65.279-81.13-81.578-102.765a12.438 12.438 0 0 1-.856-13.668c4.158-7.338 15.299-8.439 20.7-1.353 19.661 25.79 52.95 68.674 71.694 89.791 28.141 31.7 64.056 24.419 75.916 25.315z" fill="url(#o)"/><path d="M271.392 222.245c12.398-17.432 15.39-38.644 15.39-48.485 0-4.215.043-28.477.043-28.477l.576-9.181h18.29s15.985 18.862 20.916 29.985c5.867 13.236-10.07 55.967-10.07 55.967l-45.145.191z" fill="url(#p)"/><path d="m286.777 136.102 9.084-1.277 9.83 1.349s-.187 5.32-4.111 7.846c-1.188.765-2.718 1.264-4.688 1.264h-10.067z" fill="#fff"/><path d="M521.612 285.361c8.811-4.925 13.534-14.267 13.514-32.55-.005-4.159 6.285-4.667 7.064-.182.694-4.23 6.479-4.354 7.228-.103.996-4.201 6.682-4.102 7.469 0 .976-4.241 6.901-4.152 7.283.252 3.408 39.268-16.732 58.885-42.559 63.967v-31.384z" fill="#cb795c"/><g fill="#5d2411"><path d="M555.836 250.478c2.621 36.9-12.306 53.076-34.226 58.243v1.131c22.266-5.353 37.607-21.268 35.278-57.325-.151-.779-.511-1.558-1.052-2.049z"/><path d="M521.609 301.145v1.308c17.648-6.304 30.532-18.873 27.811-49.923-.172-1.227-.811-1.924-1.316-2.348 2.556 31.283-8.388 44.371-26.495 50.963z"/><path d="M541.105 250.477c1.997 25.234-6.344 37.389-19.495 43.013v1.229c13.256-5.308 22.545-17.279 20.581-42.092-.132-.916-.58-1.69-1.086-2.15z"/></g><path d="M476.526 35.964c8.811-4.925 13.534-14.267 13.514-32.55-.004-4.159 6.285-4.667 7.064-.182.694-4.23 6.479-4.354 7.228-.103.996-4.201 6.682-4.102 7.469 0 .976-4.241 6.901-4.152 7.283.252 3.408 39.268-16.732 58.885-42.559 63.967V35.964z" fill="#cb795c"/><path d="M510.75 1.081c2.621 36.9-12.306 53.076-34.226 58.243v1.131c22.266-5.353 37.607-21.268 35.278-57.325-.151-.78-.51-1.558-1.052-2.049z" fill="#5d2411"/><path d="M476.524 51.748v1.308c17.648-6.304 30.532-18.873 27.811-49.923-.172-1.227-.811-1.924-1.316-2.348 2.555 31.282-8.388 44.371-26.495 50.963z" fill="#5d2411"/><path d="M496.02 1.079c1.997 25.234-6.344 37.389-19.496 43.013v1.229c13.256-5.308 22.545-17.279 20.581-42.092-.131-.915-.579-1.689-1.085-2.15z" fill="#5d2411"/><path d="M469.145 127.389s-36.065-45.948-37.241-47.422-2.069-3.046-2.069-4.997a7.067 7.067 0 0 1 7.067-7.067c.272 0 .514.016.778.046l.266-25.876c-12.761-.118-25.198 6.584-30.938 17.981-4.912 9.753-3.305 25.159 4.502 35.255l37.089 47.968c2.065 2.669 1.133 5.304.636 6.313-.496 1.008-2.011 3.347-5.375 3.347h-.016l-132.95-.273c-7.705.053-12.998 5.787-13.013 12.959-.015 7.173 5.787 13 12.96 13.014l132.948.273h.072c12.272 0 23.256-6.835 28.678-17.85 5.43-11.038 4.13-23.939-3.394-33.671z" fill="url(#q)"/><path d="m437.784 42.071 37.124-16.798s8.187 5.127 4.206 10.58c0 0-3.987 3.881-.642 7.921 2.953 3.567 1.583 6.498.299 7.733-1.695 1.629-2.324 5.008-.547 6.969 1.56 1.721 3.442 5.083.717 7.77-3.042 3-1.273 6.734-.767 7.335.506.602 3.798 4.389.641 7.928-3.156 3.539-3.868 3.778-3.868 3.778L437.68 67.949z" fill="url(#r)"/><path d="m479.115 35.852-38.989 12.151 38.233-4.371c-1.433-1.897-1.759-5.133.756-7.78z" fill="url(#s)"/><path d="M478.174 73.58c-.88-1.279-1.775-4.618.767-7.335l-39.502-3.83z" fill="url(#t)"/><path d="M478.224 58.475c-1.432-2.298-1.273-4.916.547-6.969l-39.331 3.773z" fill="url(#u)"/><path d="m484.645 291.891 37.124-16.798s8.187 5.127 4.206 10.58c0 0-3.987 3.881-.642 7.921 2.953 3.567 1.583 6.499.299 7.733-1.695 1.629-2.324 5.008-.547 6.969 1.56 1.721 3.442 5.083.717 7.77-3.042 3-1.273 6.734-.767 7.335.506.602 3.798 4.389.641 7.928-3.156 3.539-3.868 3.778-3.868 3.778l-37.267-17.337z" fill="url(#v)"/><path d="m525.975 285.672-38.989 12.151 38.233-4.371c-1.432-1.897-1.759-5.133.756-7.78z" fill="url(#w)"/><path d="M525.035 323.4c-.88-1.279-1.774-4.618.767-7.335l-39.502-3.83z" fill="url(#x)"/><path d="M525.085 308.295c-1.432-2.298-1.273-4.916.547-6.969l-39.331 3.773z" fill="url(#y)"/><path d="m286.777 136.102.039-27.542 13.206-16.009 21.679 10.652v11.579c0 6.069-5.259 10.865-11.224 10.704l-4.781.057-.006 10.63-18.913-.071z" fill="#cb795c"/><path d="M286.777 125.772h18.92v10.608h-18.92z" fill="url(#z)"/><circle cx="303.975" cy="113.784" fill="url(#A)" r="6.249"/><path d="M289.246 60.16c-.663 0-1.313.048-1.956.123a10.276 10.276 0 0 0 1.828-5.862c0-5.705-4.625-10.33-10.33-10.33s-10.33 4.625-10.33 10.33c0 5.362 4.086 9.768 9.314 10.278-3.291 3.073-5.36 7.437-5.36 12.294 0 9.297 7.537 16.833 16.833 16.833 9.297 0 16.833-7.537 16.833-16.833.001-9.297-7.536-16.833-16.832-16.833z" fill="url(#B)"/><path d="M286.816 108.561c-.009.341 10.543.479 12.388-8.905.296-1.504.404-4.522.404-4.522s.761 7.141 7.551 7.906l14.543.164s-.381-17.377-19.46-16.059c-17.204 1.188-15.376 19.589-15.426 21.416z" fill="url(#C)"/><path d="M278.143 153.536h-78.347v-20.54h87.136z" fill="url(#D)"/><path d="M283.365 132.996a13.8 13.8 0 0 0-11.119 5.613c-3.098 4.208-10.345 16.773-19.87 19.872-33.103 10.772-23.443 33.965-35.808 42.262-12.004 8.055-28.359-4.445-44.753 8.907-9.44 7.688-13.983 17.137-16.635 24.091l15.435 8.551c1.912-4.564 5.895-12.059 12.855-17.028 14.327-10.229 25.406-2.729 40.135-9.346 18.795-8.444 17.483-27.269 23.971-36.744 7.076-10.333 22.628-3.773 29.189-18.185 3.607-7.923 8.213-14.308 13.155-14.419 3.749-.084 6.764-.084 6.764-.084 7.898-.369 10.432-6.58 10.432-13.488z" fill="url(#E)"/></svg></g><g transform="translate(198.0 802.0) rotate(0.0 376.0 264.5) scale(3.073213592431394 3.0843682584105885)"><svg width="244.695" height="171.51" viewBox="0 0 244.695 171.51"><linearGradient id="F" gradientUnits="userSpaceOnUse" x1="0" x2="244.695" y1="85.755" y2="85.755"><stop offset="0" stop-color="#9c56b6"/><stop offset="1" stop-color="#daabe0"/></linearGradient><path d="M233.695 171.51H11c-6.075 0-11-4.925-11-11V11C0 4.925 4.925 0 11 0h222.695c6.075 0 11 4.925 11 11v149.51c0 6.075-4.925 11-11 11z" fill="url(#F)"/><g fill="#fff" opacity=".5"><path d="M41.79 0h7.658v171.51H41.79zM15.864 0h7.658v171.51h-7.658zm77.777 0h7.658v171.51h-7.658zM67.715 0h7.658v171.51h-7.658zm77.777 0h7.658v171.51h-7.658zm-25.926 0h7.658v171.51h-7.658zm77.777 0h7.658v171.51h-7.658zm-25.926 0h7.658v171.51h-7.658zm51.851 0h7.658v171.51h-7.658z"/></g><circle cx="76.607" cy="21.439" r="8.17"/><circle cx="172.453" cy="21.439" r="8.17"/><path d="M124.373 86.66c-27.992 0-50.766-22.773-50.766-50.766V21.439h6v14.456c0 24.684 20.082 44.766 44.766 44.766s44.766-20.082 44.766-44.766V21.439h6v14.456c-.001 27.992-22.774 50.765-50.766 50.765z"/></svg></g></svg>